<?xml version="1.0" encoding="utf-8" standalone="no"?>
<!DOCTYPE svg PUBLIC "-//W3C//DTD SVG 1.1//EN"
  "http://www.w3.org/Graphics/SVG/1.1/DTD/svg11.dtd">
<svg xmlns:xlink="http://www.w3.org/1999/xlink" width="460.8pt" height="345.6pt" viewBox="0 0 460.8 345.6" xmlns="http://www.w3.org/2000/svg" version="1.1">
 <metadata>
  <rdf:RDF xmlns:dc="http://purl.org/dc/elements/1.1/" xmlns:cc="http://creativecommons.org/ns#" xmlns:rdf="http://www.w3.org/1999/02/22-rdf-syntax-ns#">
   <cc:Work>
    <dc:type rdf:resource="http://purl.org/dc/dcmitype/StillImage"/>
    <dc:date>2025-01-11T12:36:54.558058</dc:date>
    <dc:format>image/svg+xml</dc:format>
    <dc:creator>
     <cc:Agent>
      <dc:title>Matplotlib v3.7.3, https://matplotlib.org/</dc:title>
     </cc:Agent>
    </dc:creator>
   </cc:Work>
  </rdf:RDF>
 </metadata>
 <defs>
  <style type="text/css">*{stroke-linejoin: round; stroke-linecap: butt}</style>
 </defs>
 <g id="figure_1">
  <g id="patch_1">
   <path d="M 0 345.6 
L 460.8 345.6 
L 460.8 0 
L 0 0 
z
" style="fill: #ffffff"/>
  </g>
  <g id="axes_1">
   <g id="patch_2">
    <path d="M 57.6 307.584 
L 414.72 307.584 
L 414.72 41.472 
L 57.6 41.472 
z
" style="fill: #ffffff"/>
   </g>
   <g id="patch_3">
    <path d="M 73.832727 307.584 
L 74.824392 307.584 
L 74.824392 307.273725 
L 73.832727 307.273725 
z
" clip-path="url(#p05786f92b8)" style="fill: #1f77b4"/>
   </g>
   <g id="patch_4">
    <path d="M 73.874003 307.584 
L 74.865668 307.584 
L 74.865668 307.099131 
L 73.874003 307.099131 
z
" clip-path="url(#p05786f92b8)" style="fill: #1f77b4"/>
   </g>
   <g id="patch_5">
    <path d="M 75.979338 307.584 
L 76.971002 307.584 
L 76.971002 307.203287 
L 75.979338 307.203287 
z
" clip-path="url(#p05786f92b8)" style="fill: #1f77b4"/>
   </g>
   <g id="patch_6">
    <path d="M 78.731392 307.584 
L 79.723057 307.584 
L 79.723057 307.216257 
L 78.731392 307.216257 
z
" clip-path="url(#p05786f92b8)" style="fill: #1f77b4"/>
   </g>
   <g id="patch_7">
    <path d="M 78.734135 307.584 
L 79.725799 307.584 
L 79.725799 307.072133 
L 78.734135 307.072133 
z
" clip-path="url(#p05786f92b8)" style="fill: #1f77b4"/>
   </g>
   <g id="patch_8">
    <path d="M 78.86481 307.584 
L 79.856475 307.584 
L 79.856475 307.240601 
L 78.86481 307.240601 
z
" clip-path="url(#p05786f92b8)" style="fill: #1f77b4"/>
   </g>
   <g id="patch_9">
    <path d="M 80.820238 307.584 
L 81.811903 307.584 
L 81.811903 307.226015 
L 80.820238 307.226015 
z
" clip-path="url(#p05786f92b8)" style="fill: #1f77b4"/>
   </g>
   <g id="patch_10">
    <path d="M 81.249342 307.584 
L 82.241006 307.584 
L 82.241006 306.544108 
L 81.249342 306.544108 
z
" clip-path="url(#p05786f92b8)" style="fill: #1f77b4"/>
   </g>
   <g id="patch_11">
    <path d="M 81.294302 307.584 
L 82.285966 307.584 
L 82.285966 306.772659 
L 81.294302 306.772659 
z
" clip-path="url(#p05786f92b8)" style="fill: #1f77b4"/>
   </g>
   <g id="patch_12">
    <path d="M 87.374163 307.584 
L 88.365827 307.584 
L 88.365827 307.178969 
L 87.374163 307.178969 
z
" clip-path="url(#p05786f92b8)" style="fill: #1f77b4"/>
   </g>
   <g id="patch_13">
    <path d="M 93.863726 307.584 
L 94.85539 307.584 
L 94.85539 307.153592 
L 93.863726 307.153592 
z
" clip-path="url(#p05786f92b8)" style="fill: #1f77b4"/>
   </g>
   <g id="patch_14">
    <path d="M 93.95758 307.584 
L 94.949244 307.584 
L 94.949244 307.151694 
L 93.95758 307.151694 
z
" clip-path="url(#p05786f92b8)" style="fill: #1f77b4"/>
   </g>
   <g id="patch_15">
    <path d="M 97.40295 307.584 
L 98.394614 307.584 
L 98.394614 306.135754 
L 97.40295 306.135754 
z
" clip-path="url(#p05786f92b8)" style="fill: #1f77b4"/>
   </g>
   <g id="patch_16">
    <path d="M 98.667525 307.584 
L 99.65919 307.584 
L 99.65919 307.175691 
L 98.667525 307.175691 
z
" clip-path="url(#p05786f92b8)" style="fill: #1f77b4"/>
   </g>
   <g id="patch_17">
    <path d="M 112.642727 307.584 
L 113.634391 307.584 
L 113.634391 307.149966 
L 112.642727 307.149966 
z
" clip-path="url(#p05786f92b8)" style="fill: #1f77b4"/>
   </g>
   <g id="patch_18">
    <path d="M 113.472591 307.584 
L 114.464255 307.584 
L 114.464255 306.690663 
L 113.472591 306.690663 
z
" clip-path="url(#p05786f92b8)" style="fill: #1f77b4"/>
   </g>
   <g id="patch_19">
    <path d="M 114.623746 307.584 
L 115.61541 307.584 
L 115.61541 307.217297 
L 114.623746 307.217297 
z
" clip-path="url(#p05786f92b8)" style="fill: #1f77b4"/>
   </g>
   <g id="patch_20">
    <path d="M 123.974165 307.584 
L 124.965829 307.584 
L 124.965829 307.038052 
L 123.974165 307.038052 
z
" clip-path="url(#p05786f92b8)" style="fill: #1f77b4"/>
   </g>
   <g id="patch_21">
    <path d="M 132.454308 307.584 
L 133.445972 307.584 
L 133.445972 306.979998 
L 132.454308 306.979998 
z
" clip-path="url(#p05786f92b8)" style="fill: #1f77b4"/>
   </g>
   <g id="patch_22">
    <path d="M 145.720916 307.584 
L 146.71258 307.584 
L 146.71258 54.144 
L 145.720916 54.144 
z
" clip-path="url(#p05786f92b8)" style="fill: #1f77b4"/>
   </g>
   <g id="patch_23">
    <path d="M 145.736029 307.584 
L 146.727693 307.584 
L 146.727693 306.496837 
L 145.736029 306.496837 
z
" clip-path="url(#p05786f92b8)" style="fill: #1f77b4"/>
   </g>
   <g id="patch_24">
    <path d="M 145.739755 307.584 
L 146.731419 307.584 
L 146.731419 306.33603 
L 145.739755 306.33603 
z
" clip-path="url(#p05786f92b8)" style="fill: #1f77b4"/>
   </g>
   <g id="patch_25">
    <path d="M 146.964506 307.584 
L 147.956171 307.584 
L 147.956171 297.326492 
L 146.964506 297.326492 
z
" clip-path="url(#p05786f92b8)" style="fill: #1f77b4"/>
   </g>
   <g id="patch_26">
    <path d="M 154.40353 307.584 
L 155.395194 307.584 
L 155.395194 266.964876 
L 154.40353 266.964876 
z
" clip-path="url(#p05786f92b8)" style="fill: #1f77b4"/>
   </g>
   <g id="patch_27">
    <path d="M 155.647593 307.584 
L 156.639257 307.584 
L 156.639257 305.881968 
L 155.647593 305.881968 
z
" clip-path="url(#p05786f92b8)" style="fill: #1f77b4"/>
   </g>
   <g id="patch_28">
    <path d="M 158.095658 307.584 
L 159.087323 307.584 
L 159.087323 307.163023 
L 158.095658 307.163023 
z
" clip-path="url(#p05786f92b8)" style="fill: #1f77b4"/>
   </g>
   <g id="patch_29">
    <path d="M 160.595946 307.584 
L 161.587611 307.584 
L 161.587611 306.224361 
L 160.595946 306.224361 
z
" clip-path="url(#p05786f92b8)" style="fill: #1f77b4"/>
   </g>
   <g id="patch_30">
    <path d="M 163.048967 307.584 
L 164.040632 307.584 
L 164.040632 305.795434 
L 163.048967 305.795434 
z
" clip-path="url(#p05786f92b8)" style="fill: #1f77b4"/>
   </g>
   <g id="patch_31">
    <path d="M 163.094145 307.584 
L 164.085809 307.584 
L 164.085809 306.606749 
L 163.094145 306.606749 
z
" clip-path="url(#p05786f92b8)" style="fill: #1f77b4"/>
   </g>
   <g id="patch_32">
    <path d="M 164.420334 307.584 
L 165.411999 307.584 
L 165.411999 307.139226 
L 164.420334 307.139226 
z
" clip-path="url(#p05786f92b8)" style="fill: #1f77b4"/>
   </g>
   <g id="patch_33">
    <path d="M 169.111961 307.584 
L 170.103626 307.584 
L 170.103626 307.137621 
L 169.111961 307.137621 
z
" clip-path="url(#p05786f92b8)" style="fill: #1f77b4"/>
   </g>
   <g id="patch_34">
    <path d="M 170.543458 307.584 
L 171.535122 307.584 
L 171.535122 306.138914 
L 170.543458 306.138914 
z
" clip-path="url(#p05786f92b8)" style="fill: #1f77b4"/>
   </g>
   <g id="patch_35">
    <path d="M 171.776304 307.584 
L 172.767969 307.584 
L 172.767969 306.682768 
L 171.776304 306.682768 
z
" clip-path="url(#p05786f92b8)" style="fill: #1f77b4"/>
   </g>
   <g id="patch_36">
    <path d="M 174.202353 307.584 
L 175.194018 307.584 
L 175.194018 307.146402 
L 174.202353 307.146402 
z
" clip-path="url(#p05786f92b8)" style="fill: #1f77b4"/>
   </g>
   <g id="patch_37">
    <path d="M 175.470173 307.584 
L 176.461837 307.584 
L 176.461837 306.481722 
L 175.470173 306.481722 
z
" clip-path="url(#p05786f92b8)" style="fill: #1f77b4"/>
   </g>
   <g id="patch_38">
    <path d="M 176.611455 307.584 
L 177.603119 307.584 
L 177.603119 307.168823 
L 176.611455 307.168823 
z
" clip-path="url(#p05786f92b8)" style="fill: #1f77b4"/>
   </g>
   <g id="patch_39">
    <path d="M 180.466872 307.584 
L 181.458536 307.584 
L 181.458536 306.781106 
L 180.466872 306.781106 
z
" clip-path="url(#p05786f92b8)" style="fill: #1f77b4"/>
   </g>
   <g id="patch_40">
    <path d="M 184.153477 307.584 
L 185.145141 307.584 
L 185.145141 306.128285 
L 184.153477 306.128285 
z
" clip-path="url(#p05786f92b8)" style="fill: #1f77b4"/>
   </g>
   <g id="patch_41">
    <path d="M 186.651855 307.584 
L 187.643519 307.584 
L 187.643519 305.972777 
L 186.651855 305.972777 
z
" clip-path="url(#p05786f92b8)" style="fill: #1f77b4"/>
   </g>
   <g id="patch_42">
    <path d="M 189.105122 307.584 
L 190.096786 307.584 
L 190.096786 304.90604 
L 189.105122 304.90604 
z
" clip-path="url(#p05786f92b8)" style="fill: #1f77b4"/>
   </g>
   <g id="patch_43">
    <path d="M 192.843269 307.584 
L 193.834933 307.584 
L 193.834933 306.46934 
L 192.843269 306.46934 
z
" clip-path="url(#p05786f92b8)" style="fill: #1f77b4"/>
   </g>
   <g id="patch_44">
    <path d="M 201.526327 307.584 
L 202.517992 307.584 
L 202.517992 304.722294 
L 201.526327 304.722294 
z
" clip-path="url(#p05786f92b8)" style="fill: #1f77b4"/>
   </g>
   <g id="patch_45">
    <path d="M 203.564459 307.584 
L 204.556123 307.584 
L 204.556123 307.163504 
L 203.564459 307.163504 
z
" clip-path="url(#p05786f92b8)" style="fill: #1f77b4"/>
   </g>
   <g id="patch_46">
    <path d="M 204.024875 307.584 
L 205.01654 307.584 
L 205.01654 302.409004 
L 204.024875 302.409004 
z
" clip-path="url(#p05786f92b8)" style="fill: #1f77b4"/>
   </g>
   <g id="patch_47">
    <path d="M 206.477934 307.584 
L 207.469598 307.584 
L 207.469598 307.147008 
L 206.477934 307.147008 
z
" clip-path="url(#p05786f92b8)" style="fill: #1f77b4"/>
   </g>
   <g id="patch_48">
    <path d="M 207.71846 307.584 
L 208.710124 307.584 
L 208.710124 306.82851 
L 207.71846 306.82851 
z
" clip-path="url(#p05786f92b8)" style="fill: #1f77b4"/>
   </g>
   <g id="patch_49">
    <path d="M 216.401386 307.584 
L 217.39305 307.584 
L 217.39305 294.661826 
L 216.401386 294.661826 
z
" clip-path="url(#p05786f92b8)" style="fill: #1f77b4"/>
   </g>
   <g id="patch_50">
    <path d="M 217.644125 307.584 
L 218.635789 307.584 
L 218.635789 307.13059 
L 217.644125 307.13059 
z
" clip-path="url(#p05786f92b8)" style="fill: #1f77b4"/>
   </g>
   <g id="patch_51">
    <path d="M 218.900558 307.584 
L 219.892223 307.584 
L 219.892223 306.383641 
L 218.900558 306.383641 
z
" clip-path="url(#p05786f92b8)" style="fill: #1f77b4"/>
   </g>
   <g id="patch_52">
    <path d="M 238.727035 307.584 
L 239.718699 307.584 
L 239.718699 305.767109 
L 238.727035 305.767109 
z
" clip-path="url(#p05786f92b8)" style="fill: #1f77b4"/>
   </g>
   <g id="patch_53">
    <path d="M 242.738818 307.584 
L 243.730482 307.584 
L 243.730482 306.939849 
L 242.738818 306.939849 
z
" clip-path="url(#p05786f92b8)" style="fill: #1f77b4"/>
   </g>
   <g id="patch_54">
    <path d="M 252.269435 307.584 
L 253.261099 307.584 
L 253.261099 307.113047 
L 252.269435 307.113047 
z
" clip-path="url(#p05786f92b8)" style="fill: #1f77b4"/>
   </g>
   <g id="patch_55">
    <path d="M 256.100433 307.584 
L 257.092098 307.584 
L 257.092098 307.02498 
L 256.100433 307.02498 
z
" clip-path="url(#p05786f92b8)" style="fill: #1f77b4"/>
   </g>
   <g id="patch_56">
    <path d="M 261.042034 307.584 
L 262.033699 307.584 
L 262.033699 307.064587 
L 261.042034 307.064587 
z
" clip-path="url(#p05786f92b8)" style="fill: #1f77b4"/>
   </g>
   <g id="patch_57">
    <path d="M 277.166528 307.584 
L 278.158192 307.584 
L 278.158192 304.676539 
L 277.166528 304.676539 
z
" clip-path="url(#p05786f92b8)" style="fill: #1f77b4"/>
   </g>
   <g id="patch_58">
    <path d="M 278.411782 307.584 
L 279.403447 307.584 
L 279.403447 307.016624 
L 278.411782 307.016624 
z
" clip-path="url(#p05786f92b8)" style="fill: #1f77b4"/>
   </g>
   <g id="patch_59">
    <path d="M 280.854722 307.584 
L 281.846386 307.584 
L 281.846386 306.912576 
L 280.854722 306.912576 
z
" clip-path="url(#p05786f92b8)" style="fill: #1f77b4"/>
   </g>
   <g id="patch_60">
    <path d="M 283.342867 307.584 
L 284.334531 307.584 
L 284.334531 306.309398 
L 283.342867 306.309398 
z
" clip-path="url(#p05786f92b8)" style="fill: #1f77b4"/>
   </g>
   <g id="patch_61">
    <path d="M 284.57596 307.584 
L 285.567624 307.584 
L 285.567624 298.519518 
L 284.57596 298.519518 
z
" clip-path="url(#p05786f92b8)" style="fill: #1f77b4"/>
   </g>
   <g id="patch_62">
    <path d="M 285.824959 307.584 
L 286.816624 307.584 
L 286.816624 302.304609 
L 285.824959 302.304609 
z
" clip-path="url(#p05786f92b8)" style="fill: #1f77b4"/>
   </g>
   <g id="patch_63">
    <path d="M 288.324491 307.584 
L 289.316155 307.584 
L 289.316155 305.842401 
L 288.324491 305.842401 
z
" clip-path="url(#p05786f92b8)" style="fill: #1f77b4"/>
   </g>
   <g id="patch_64">
    <path d="M 292.025244 307.584 
L 293.016909 307.584 
L 293.016909 301.208655 
L 292.025244 301.208655 
z
" clip-path="url(#p05786f92b8)" style="fill: #1f77b4"/>
   </g>
   <g id="patch_65">
    <path d="M 293.273355 307.584 
L 294.265019 307.584 
L 294.265019 307.046516 
L 293.273355 307.046516 
z
" clip-path="url(#p05786f92b8)" style="fill: #1f77b4"/>
   </g>
   <g id="patch_66">
    <path d="M 299.467209 307.584 
L 300.458873 307.584 
L 300.458873 306.226029 
L 299.467209 306.226029 
z
" clip-path="url(#p05786f92b8)" style="fill: #1f77b4"/>
   </g>
   <g id="patch_67">
    <path d="M 300.700434 307.584 
L 301.692099 307.584 
L 301.692099 275.203599 
L 300.700434 275.203599 
z
" clip-path="url(#p05786f92b8)" style="fill: #1f77b4"/>
   </g>
   <g id="patch_68">
    <path d="M 301.943627 307.584 
L 302.935292 307.584 
L 302.935292 305.465482 
L 301.943627 305.465482 
z
" clip-path="url(#p05786f92b8)" style="fill: #1f77b4"/>
   </g>
   <g id="patch_69">
    <path d="M 301.969389 307.584 
L 302.961053 307.584 
L 302.961053 303.662204 
L 301.969389 303.662204 
z
" clip-path="url(#p05786f92b8)" style="fill: #1f77b4"/>
   </g>
   <g id="patch_70">
    <path d="M 303.200079 307.584 
L 304.191744 307.584 
L 304.191744 305.425779 
L 303.200079 305.425779 
z
" clip-path="url(#p05786f92b8)" style="fill: #1f77b4"/>
   </g>
   <g id="patch_71">
    <path d="M 305.652117 307.584 
L 306.643781 307.584 
L 306.643781 304.172278 
L 305.652117 304.172278 
z
" clip-path="url(#p05786f92b8)" style="fill: #1f77b4"/>
   </g>
   <g id="patch_72">
    <path d="M 308.14849 307.584 
L 309.140154 307.584 
L 309.140154 305.45007 
L 308.14849 305.45007 
z
" clip-path="url(#p05786f92b8)" style="fill: #1f77b4"/>
   </g>
   <g id="patch_73">
    <path d="M 308.378263 307.584 
L 309.369927 307.584 
L 309.369927 307.136585 
L 308.378263 307.136585 
z
" clip-path="url(#p05786f92b8)" style="fill: #1f77b4"/>
   </g>
   <g id="patch_74">
    <path d="M 309.398984 307.584 
L 310.390648 307.584 
L 310.390648 305.517871 
L 309.398984 305.517871 
z
" clip-path="url(#p05786f92b8)" style="fill: #1f77b4"/>
   </g>
   <g id="patch_75">
    <path d="M 310.648229 307.584 
L 311.639894 307.584 
L 311.639894 300.714603 
L 310.648229 300.714603 
z
" clip-path="url(#p05786f92b8)" style="fill: #1f77b4"/>
   </g>
   <g id="patch_76">
    <path d="M 311.893465 307.584 
L 312.885129 307.584 
L 312.885129 306.707066 
L 311.893465 306.707066 
z
" clip-path="url(#p05786f92b8)" style="fill: #1f77b4"/>
   </g>
   <g id="patch_77">
    <path d="M 312.272228 307.584 
L 313.263892 307.584 
L 313.263892 307.120894 
L 312.272228 307.120894 
z
" clip-path="url(#p05786f92b8)" style="fill: #1f77b4"/>
   </g>
   <g id="patch_78">
    <path d="M 314.340755 307.584 
L 315.332419 307.584 
L 315.332419 306.563242 
L 314.340755 306.563242 
z
" clip-path="url(#p05786f92b8)" style="fill: #1f77b4"/>
   </g>
   <g id="patch_79">
    <path d="M 315.576439 307.584 
L 316.568103 307.584 
L 316.568103 306.110811 
L 315.576439 306.110811 
z
" clip-path="url(#p05786f92b8)" style="fill: #1f77b4"/>
   </g>
   <g id="patch_80">
    <path d="M 316.824587 307.584 
L 317.816252 307.584 
L 317.816252 290.984496 
L 316.824587 290.984496 
z
" clip-path="url(#p05786f92b8)" style="fill: #1f77b4"/>
   </g>
   <g id="patch_81">
    <path d="M 318.068499 307.584 
L 319.060163 307.584 
L 319.060163 305.962308 
L 318.068499 305.962308 
z
" clip-path="url(#p05786f92b8)" style="fill: #1f77b4"/>
   </g>
   <g id="patch_82">
    <path d="M 320.572192 307.584 
L 321.563856 307.584 
L 321.563856 303.186665 
L 320.572192 303.186665 
z
" clip-path="url(#p05786f92b8)" style="fill: #1f77b4"/>
   </g>
   <g id="patch_83">
    <path d="M 321.812321 307.584 
L 322.803985 307.584 
L 322.803985 307.061173 
L 321.812321 307.061173 
z
" clip-path="url(#p05786f92b8)" style="fill: #1f77b4"/>
   </g>
   <g id="patch_84">
    <path d="M 332.950348 307.584 
L 333.942012 307.584 
L 333.942012 305.448203 
L 332.950348 305.448203 
z
" clip-path="url(#p05786f92b8)" style="fill: #1f77b4"/>
   </g>
   <g id="patch_85">
    <path d="M 334.197835 307.584 
L 335.189499 307.584 
L 335.189499 305.449351 
L 334.197835 305.449351 
z
" clip-path="url(#p05786f92b8)" style="fill: #1f77b4"/>
   </g>
   <g id="patch_86">
    <path d="M 335.447478 307.584 
L 336.439142 307.584 
L 336.439142 188.112946 
L 335.447478 188.112946 
z
" clip-path="url(#p05786f92b8)" style="fill: #1f77b4"/>
   </g>
   <g id="patch_87">
    <path d="M 336.691257 307.584 
L 337.682921 307.584 
L 337.682921 294.590183 
L 336.691257 294.590183 
z
" clip-path="url(#p05786f92b8)" style="fill: #1f77b4"/>
   </g>
   <g id="patch_88">
    <path d="M 336.72239 307.584 
L 337.714054 307.584 
L 337.714054 307.245392 
L 336.72239 307.245392 
z
" clip-path="url(#p05786f92b8)" style="fill: #1f77b4"/>
   </g>
   <g id="patch_89">
    <path d="M 345.582356 307.584 
L 346.57402 307.584 
L 346.57402 304.708029 
L 345.582356 304.708029 
z
" clip-path="url(#p05786f92b8)" style="fill: #1f77b4"/>
   </g>
   <g id="patch_90">
    <path d="M 357.773013 307.584 
L 358.764677 307.584 
L 358.764677 296.392982 
L 357.773013 296.392982 
z
" clip-path="url(#p05786f92b8)" style="fill: #1f77b4"/>
   </g>
   <g id="patch_91">
    <path d="M 359.017511 307.584 
L 360.009175 307.584 
L 360.009175 306.491505 
L 359.017511 306.491505 
z
" clip-path="url(#p05786f92b8)" style="fill: #1f77b4"/>
   </g>
   <g id="patch_92">
    <path d="M 365.55228 307.584 
L 366.543944 307.584 
L 366.543944 307.10088 
L 365.55228 307.10088 
z
" clip-path="url(#p05786f92b8)" style="fill: #1f77b4"/>
   </g>
   <g id="patch_93">
    <path d="M 373.926634 307.584 
L 374.918299 307.584 
L 374.918299 269.335591 
L 373.926634 269.335591 
z
" clip-path="url(#p05786f92b8)" style="fill: #1f77b4"/>
   </g>
   <g id="patch_94">
    <path d="M 375.170111 307.584 
L 376.161776 307.584 
L 376.161776 303.25135 
L 375.170111 303.25135 
z
" clip-path="url(#p05786f92b8)" style="fill: #1f77b4"/>
   </g>
   <g id="patch_95">
    <path d="M 382.87425 307.584 
L 383.865914 307.584 
L 383.865914 307.144425 
L 382.87425 307.144425 
z
" clip-path="url(#p05786f92b8)" style="fill: #1f77b4"/>
   </g>
   <g id="patch_96">
    <path d="M 395.087112 307.584 
L 396.078777 307.584 
L 396.078777 306.844851 
L 395.087112 306.844851 
z
" clip-path="url(#p05786f92b8)" style="fill: #1f77b4"/>
   </g>
   <g id="patch_97">
    <path d="M 396.252132 307.584 
L 397.243796 307.584 
L 397.243796 148.08075 
L 396.252132 148.08075 
z
" clip-path="url(#p05786f92b8)" style="fill: #1f77b4"/>
   </g>
   <g id="patch_98">
    <path d="M 396.343716 307.584 
L 397.33538 307.584 
L 397.33538 306.11337 
L 396.343716 306.11337 
z
" clip-path="url(#p05786f92b8)" style="fill: #1f77b4"/>
   </g>
   <g id="patch_99">
    <path d="M 397.495608 307.584 
L 398.487273 307.584 
L 398.487273 286.726449 
L 397.495608 286.726449 
z
" clip-path="url(#p05786f92b8)" style="fill: #1f77b4"/>
   </g>
   <g id="matplotlib.axis_1">
    <g id="xtick_1">
     <g id="line2d_1">
      <defs>
       <path id="ma4925579b6" d="M 0 0 
L 0 3.5 
" style="stroke: #000000; stroke-width: 0.8"/>
      </defs>
      <g>
       <use xlink:href="#ma4925579b6" x="73.025474" y="307.584" style="stroke: #000000; stroke-width: 0.8"/>
      </g>
     </g>
     <g id="text_1">
      <!-- 50 -->
      <g transform="translate(66.662974 322.182437) scale(0.1 -0.1)">
       <defs>
        <path id="DejaVuSans-35" d="M 691 4666 
L 3169 4666 
L 3169 4134 
L 1269 4134 
L 1269 2991 
Q 1406 3038 1543 3061 
Q 1681 3084 1819 3084 
Q 2600 3084 3056 2656 
Q 3513 2228 3513 1497 
Q 3513 744 3044 326 
Q 2575 -91 1722 -91 
Q 1428 -91 1123 -41 
Q 819 9 494 109 
L 494 744 
Q 775 591 1075 516 
Q 1375 441 1709 441 
Q 2250 441 2565 725 
Q 2881 1009 2881 1497 
Q 2881 1984 2565 2268 
Q 2250 2553 1709 2553 
Q 1456 2553 1204 2497 
Q 953 2441 691 2322 
L 691 4666 
z
" transform="scale(0.015625)"/>
        <path id="DejaVuSans-30" d="M 2034 4250 
Q 1547 4250 1301 3770 
Q 1056 3291 1056 2328 
Q 1056 1369 1301 889 
Q 1547 409 2034 409 
Q 2525 409 2770 889 
Q 3016 1369 3016 2328 
Q 3016 3291 2770 3770 
Q 2525 4250 2034 4250 
z
M 2034 4750 
Q 2819 4750 3233 4129 
Q 3647 3509 3647 2328 
Q 3647 1150 3233 529 
Q 2819 -91 2034 -91 
Q 1250 -91 836 529 
Q 422 1150 422 2328 
Q 422 3509 836 4129 
Q 1250 4750 2034 4750 
z
" transform="scale(0.015625)"/>
       </defs>
       <use xlink:href="#DejaVuSans-35"/>
       <use xlink:href="#DejaVuSans-30" x="63.623047"/>
      </g>
     </g>
    </g>
    <g id="xtick_2">
     <g id="line2d_2">
      <g>
       <use xlink:href="#ma4925579b6" x="135.004491" y="307.584" style="stroke: #000000; stroke-width: 0.8"/>
      </g>
     </g>
     <g id="text_2">
      <!-- 100 -->
      <g transform="translate(125.460741 322.182437) scale(0.1 -0.1)">
       <defs>
        <path id="DejaVuSans-31" d="M 794 531 
L 1825 531 
L 1825 4091 
L 703 3866 
L 703 4441 
L 1819 4666 
L 2450 4666 
L 2450 531 
L 3481 531 
L 3481 0 
L 794 0 
L 794 531 
z
" transform="scale(0.015625)"/>
       </defs>
       <use xlink:href="#DejaVuSans-31"/>
       <use xlink:href="#DejaVuSans-30" x="63.623047"/>
       <use xlink:href="#DejaVuSans-30" x="127.246094"/>
      </g>
     </g>
    </g>
    <g id="xtick_3">
     <g id="line2d_3">
      <g>
       <use xlink:href="#ma4925579b6" x="196.983508" y="307.584" style="stroke: #000000; stroke-width: 0.8"/>
      </g>
     </g>
     <g id="text_3">
      <!-- 150 -->
      <g transform="translate(187.439758 322.182437) scale(0.1 -0.1)">
       <use xlink:href="#DejaVuSans-31"/>
       <use xlink:href="#DejaVuSans-35" x="63.623047"/>
       <use xlink:href="#DejaVuSans-30" x="127.246094"/>
      </g>
     </g>
    </g>
    <g id="xtick_4">
     <g id="line2d_4">
      <g>
       <use xlink:href="#ma4925579b6" x="258.962526" y="307.584" style="stroke: #000000; stroke-width: 0.8"/>
      </g>
     </g>
     <g id="text_4">
      <!-- 200 -->
      <g transform="translate(249.418776 322.182437) scale(0.1 -0.1)">
       <defs>
        <path id="DejaVuSans-32" d="M 1228 531 
L 3431 531 
L 3431 0 
L 469 0 
L 469 531 
Q 828 903 1448 1529 
Q 2069 2156 2228 2338 
Q 2531 2678 2651 2914 
Q 2772 3150 2772 3378 
Q 2772 3750 2511 3984 
Q 2250 4219 1831 4219 
Q 1534 4219 1204 4116 
Q 875 4013 500 3803 
L 500 4441 
Q 881 4594 1212 4672 
Q 1544 4750 1819 4750 
Q 2544 4750 2975 4387 
Q 3406 4025 3406 3419 
Q 3406 3131 3298 2873 
Q 3191 2616 2906 2266 
Q 2828 2175 2409 1742 
Q 1991 1309 1228 531 
z
" transform="scale(0.015625)"/>
       </defs>
       <use xlink:href="#DejaVuSans-32"/>
       <use xlink:href="#DejaVuSans-30" x="63.623047"/>
       <use xlink:href="#DejaVuSans-30" x="127.246094"/>
      </g>
     </g>
    </g>
    <g id="xtick_5">
     <g id="line2d_5">
      <g>
       <use xlink:href="#ma4925579b6" x="320.941543" y="307.584" style="stroke: #000000; stroke-width: 0.8"/>
      </g>
     </g>
     <g id="text_5">
      <!-- 250 -->
      <g transform="translate(311.397793 322.182437) scale(0.1 -0.1)">
       <use xlink:href="#DejaVuSans-32"/>
       <use xlink:href="#DejaVuSans-35" x="63.623047"/>
       <use xlink:href="#DejaVuSans-30" x="127.246094"/>
      </g>
     </g>
    </g>
    <g id="xtick_6">
     <g id="line2d_6">
      <g>
       <use xlink:href="#ma4925579b6" x="382.92056" y="307.584" style="stroke: #000000; stroke-width: 0.8"/>
      </g>
     </g>
     <g id="text_6">
      <!-- 300 -->
      <g transform="translate(373.37681 322.182437) scale(0.1 -0.1)">
       <defs>
        <path id="DejaVuSans-33" d="M 2597 2516 
Q 3050 2419 3304 2112 
Q 3559 1806 3559 1356 
Q 3559 666 3084 287 
Q 2609 -91 1734 -91 
Q 1441 -91 1130 -33 
Q 819 25 488 141 
L 488 750 
Q 750 597 1062 519 
Q 1375 441 1716 441 
Q 2309 441 2620 675 
Q 2931 909 2931 1356 
Q 2931 1769 2642 2001 
Q 2353 2234 1838 2234 
L 1294 2234 
L 1294 2753 
L 1863 2753 
Q 2328 2753 2575 2939 
Q 2822 3125 2822 3475 
Q 2822 3834 2567 4026 
Q 2313 4219 1838 4219 
Q 1578 4219 1281 4162 
Q 984 4106 628 3988 
L 628 4550 
Q 988 4650 1302 4700 
Q 1616 4750 1894 4750 
Q 2613 4750 3031 4423 
Q 3450 4097 3450 3541 
Q 3450 3153 3228 2886 
Q 3006 2619 2597 2516 
z
" transform="scale(0.015625)"/>
       </defs>
       <use xlink:href="#DejaVuSans-33"/>
       <use xlink:href="#DejaVuSans-30" x="63.623047"/>
       <use xlink:href="#DejaVuSans-30" x="127.246094"/>
      </g>
     </g>
    </g>
    <g id="text_7">
     <!-- ${m/z}$ -->
     <g transform="translate(226.96 335.860562) scale(0.1 -0.1)">
      <defs>
       <path id="DejaVuSans-Oblique-6d" d="M 5747 2113 
L 5338 0 
L 4763 0 
L 5166 2094 
Q 5191 2228 5203 2325 
Q 5216 2422 5216 2491 
Q 5216 2772 5059 2928 
Q 4903 3084 4622 3084 
Q 4203 3084 3875 2770 
Q 3547 2456 3450 1953 
L 3066 0 
L 2491 0 
L 2900 2094 
Q 2925 2209 2937 2307 
Q 2950 2406 2950 2484 
Q 2950 2769 2794 2926 
Q 2638 3084 2363 3084 
Q 1938 3084 1609 2770 
Q 1281 2456 1184 1953 
L 800 0 
L 225 0 
L 909 3500 
L 1484 3500 
L 1375 2956 
Q 1609 3263 1923 3423 
Q 2238 3584 2597 3584 
Q 2978 3584 3223 3384 
Q 3469 3184 3519 2828 
Q 3781 3197 4126 3390 
Q 4472 3584 4856 3584 
Q 5306 3584 5551 3325 
Q 5797 3066 5797 2591 
Q 5797 2488 5784 2364 
Q 5772 2241 5747 2113 
z
" transform="scale(0.015625)"/>
       <path id="DejaVuSans-2f" d="M 1625 4666 
L 2156 4666 
L 531 -594 
L 0 -594 
L 1625 4666 
z
" transform="scale(0.015625)"/>
       <path id="DejaVuSans-Oblique-7a" d="M 744 3500 
L 3475 3500 
L 3372 2975 
L 738 459 
L 2913 459 
L 2822 0 
L -19 0 
L 84 525 
L 2719 3041 
L 653 3041 
L 744 3500 
z
" transform="scale(0.015625)"/>
      </defs>
      <use xlink:href="#DejaVuSans-Oblique-6d" transform="translate(0 0.09375)"/>
      <use xlink:href="#DejaVuSans-2f" transform="translate(97.412109 0.09375)"/>
      <use xlink:href="#DejaVuSans-Oblique-7a" transform="translate(131.103516 0.09375)"/>
     </g>
    </g>
   </g>
   <g id="matplotlib.axis_2">
    <g id="ytick_1">
     <g id="line2d_7">
      <defs>
       <path id="m31e9895dde" d="M 0 0 
L -3.5 0 
" style="stroke: #000000; stroke-width: 0.8"/>
      </defs>
      <g>
       <use xlink:href="#m31e9895dde" x="57.6" y="307.584" style="stroke: #000000; stroke-width: 0.8"/>
      </g>
     </g>
     <g id="text_8">
      <!-- 0 -->
      <g transform="translate(44.2375 311.383219) scale(0.1 -0.1)">
       <use xlink:href="#DejaVuSans-30"/>
      </g>
     </g>
    </g>
    <g id="ytick_2">
     <g id="line2d_8">
      <g>
       <use xlink:href="#m31e9895dde" x="57.6" y="257.542175" style="stroke: #000000; stroke-width: 0.8"/>
      </g>
     </g>
     <g id="text_9">
      <!-- 1 -->
      <g transform="translate(44.2375 261.341394) scale(0.1 -0.1)">
       <use xlink:href="#DejaVuSans-31"/>
      </g>
     </g>
    </g>
    <g id="ytick_3">
     <g id="line2d_9">
      <g>
       <use xlink:href="#m31e9895dde" x="57.6" y="207.50035" style="stroke: #000000; stroke-width: 0.8"/>
      </g>
     </g>
     <g id="text_10">
      <!-- 2 -->
      <g transform="translate(44.2375 211.299569) scale(0.1 -0.1)">
       <use xlink:href="#DejaVuSans-32"/>
      </g>
     </g>
    </g>
    <g id="ytick_4">
     <g id="line2d_10">
      <g>
       <use xlink:href="#m31e9895dde" x="57.6" y="157.458525" style="stroke: #000000; stroke-width: 0.8"/>
      </g>
     </g>
     <g id="text_11">
      <!-- 3 -->
      <g transform="translate(44.2375 161.257744) scale(0.1 -0.1)">
       <use xlink:href="#DejaVuSans-33"/>
      </g>
     </g>
    </g>
    <g id="ytick_5">
     <g id="line2d_11">
      <g>
       <use xlink:href="#m31e9895dde" x="57.6" y="107.4167" style="stroke: #000000; stroke-width: 0.8"/>
      </g>
     </g>
     <g id="text_12">
      <!-- 4 -->
      <g transform="translate(44.2375 111.215919) scale(0.1 -0.1)">
       <defs>
        <path id="DejaVuSans-34" d="M 2419 4116 
L 825 1625 
L 2419 1625 
L 2419 4116 
z
M 2253 4666 
L 3047 4666 
L 3047 1625 
L 3713 1625 
L 3713 1100 
L 3047 1100 
L 3047 0 
L 2419 0 
L 2419 1100 
L 313 1100 
L 313 1709 
L 2253 4666 
z
" transform="scale(0.015625)"/>
       </defs>
       <use xlink:href="#DejaVuSans-34"/>
      </g>
     </g>
    </g>
    <g id="ytick_6">
     <g id="line2d_12">
      <g>
       <use xlink:href="#m31e9895dde" x="57.6" y="57.374875" style="stroke: #000000; stroke-width: 0.8"/>
      </g>
     </g>
     <g id="text_13">
      <!-- 5 -->
      <g transform="translate(44.2375 61.174094) scale(0.1 -0.1)">
       <use xlink:href="#DejaVuSans-35"/>
      </g>
     </g>
    </g>
    <g id="text_14">
     <!-- intensities -->
     <g transform="translate(38.157812 200.3155) rotate(-90) scale(0.1 -0.1)">
      <defs>
       <path id="DejaVuSans-69" d="M 603 3500 
L 1178 3500 
L 1178 0 
L 603 0 
L 603 3500 
z
M 603 4863 
L 1178 4863 
L 1178 4134 
L 603 4134 
L 603 4863 
z
" transform="scale(0.015625)"/>
       <path id="DejaVuSans-6e" d="M 3513 2113 
L 3513 0 
L 2938 0 
L 2938 2094 
Q 2938 2591 2744 2837 
Q 2550 3084 2163 3084 
Q 1697 3084 1428 2787 
Q 1159 2491 1159 1978 
L 1159 0 
L 581 0 
L 581 3500 
L 1159 3500 
L 1159 2956 
Q 1366 3272 1645 3428 
Q 1925 3584 2291 3584 
Q 2894 3584 3203 3211 
Q 3513 2838 3513 2113 
z
" transform="scale(0.015625)"/>
       <path id="DejaVuSans-74" d="M 1172 4494 
L 1172 3500 
L 2356 3500 
L 2356 3053 
L 1172 3053 
L 1172 1153 
Q 1172 725 1289 603 
Q 1406 481 1766 481 
L 2356 481 
L 2356 0 
L 1766 0 
Q 1100 0 847 248 
Q 594 497 594 1153 
L 594 3053 
L 172 3053 
L 172 3500 
L 594 3500 
L 594 4494 
L 1172 4494 
z
" transform="scale(0.015625)"/>
       <path id="DejaVuSans-65" d="M 3597 1894 
L 3597 1613 
L 953 1613 
Q 991 1019 1311 708 
Q 1631 397 2203 397 
Q 2534 397 2845 478 
Q 3156 559 3463 722 
L 3463 178 
Q 3153 47 2828 -22 
Q 2503 -91 2169 -91 
Q 1331 -91 842 396 
Q 353 884 353 1716 
Q 353 2575 817 3079 
Q 1281 3584 2069 3584 
Q 2775 3584 3186 3129 
Q 3597 2675 3597 1894 
z
M 3022 2063 
Q 3016 2534 2758 2815 
Q 2500 3097 2075 3097 
Q 1594 3097 1305 2825 
Q 1016 2553 972 2059 
L 3022 2063 
z
" transform="scale(0.015625)"/>
       <path id="DejaVuSans-73" d="M 2834 3397 
L 2834 2853 
Q 2591 2978 2328 3040 
Q 2066 3103 1784 3103 
Q 1356 3103 1142 2972 
Q 928 2841 928 2578 
Q 928 2378 1081 2264 
Q 1234 2150 1697 2047 
L 1894 2003 
Q 2506 1872 2764 1633 
Q 3022 1394 3022 966 
Q 3022 478 2636 193 
Q 2250 -91 1575 -91 
Q 1294 -91 989 -36 
Q 684 19 347 128 
L 347 722 
Q 666 556 975 473 
Q 1284 391 1588 391 
Q 1994 391 2212 530 
Q 2431 669 2431 922 
Q 2431 1156 2273 1281 
Q 2116 1406 1581 1522 
L 1381 1569 
Q 847 1681 609 1914 
Q 372 2147 372 2553 
Q 372 3047 722 3315 
Q 1072 3584 1716 3584 
Q 2034 3584 2315 3537 
Q 2597 3491 2834 3397 
z
" transform="scale(0.015625)"/>
      </defs>
      <use xlink:href="#DejaVuSans-69"/>
      <use xlink:href="#DejaVuSans-6e" x="27.783203"/>
      <use xlink:href="#DejaVuSans-74" x="91.162109"/>
      <use xlink:href="#DejaVuSans-65" x="130.371094"/>
      <use xlink:href="#DejaVuSans-6e" x="191.894531"/>
      <use xlink:href="#DejaVuSans-73" x="255.273438"/>
      <use xlink:href="#DejaVuSans-69" x="307.373047"/>
      <use xlink:href="#DejaVuSans-74" x="335.15625"/>
      <use xlink:href="#DejaVuSans-69" x="374.365234"/>
      <use xlink:href="#DejaVuSans-65" x="402.148438"/>
      <use xlink:href="#DejaVuSans-73" x="463.671875"/>
     </g>
    </g>
    <g id="text_15">
     <!-- 1e6 -->
     <g transform="translate(57.6 38.472) scale(0.1 -0.1)">
      <defs>
       <path id="DejaVuSans-36" d="M 2113 2584 
Q 1688 2584 1439 2293 
Q 1191 2003 1191 1497 
Q 1191 994 1439 701 
Q 1688 409 2113 409 
Q 2538 409 2786 701 
Q 3034 994 3034 1497 
Q 3034 2003 2786 2293 
Q 2538 2584 2113 2584 
z
M 3366 4563 
L 3366 3988 
Q 3128 4100 2886 4159 
Q 2644 4219 2406 4219 
Q 1781 4219 1451 3797 
Q 1122 3375 1075 2522 
Q 1259 2794 1537 2939 
Q 1816 3084 2150 3084 
Q 2853 3084 3261 2657 
Q 3669 2231 3669 1497 
Q 3669 778 3244 343 
Q 2819 -91 2113 -91 
Q 1303 -91 875 529 
Q 447 1150 447 2328 
Q 447 3434 972 4092 
Q 1497 4750 2381 4750 
Q 2619 4750 2861 4703 
Q 3103 4656 3366 4563 
z
" transform="scale(0.015625)"/>
      </defs>
      <use xlink:href="#DejaVuSans-31"/>
      <use xlink:href="#DejaVuSans-65" x="63.623047"/>
      <use xlink:href="#DejaVuSans-36" x="125.146484"/>
     </g>
    </g>
   </g>
   <g id="patch_100">
    <path d="M 57.6 307.584 
L 57.6 41.472 
" style="fill: none; stroke: #000000; stroke-width: 0.8; stroke-linejoin: miter; stroke-linecap: square"/>
   </g>
   <g id="patch_101">
    <path d="M 414.72 307.584 
L 414.72 41.472 
" style="fill: none; stroke: #000000; stroke-width: 0.8; stroke-linejoin: miter; stroke-linecap: square"/>
   </g>
   <g id="patch_102">
    <path d="M 57.6 307.584 
L 414.72 307.584 
" style="fill: none; stroke: #000000; stroke-width: 0.8; stroke-linejoin: miter; stroke-linecap: square"/>
   </g>
   <g id="patch_103">
    <path d="M 57.6 41.472 
L 414.72 41.472 
" style="fill: none; stroke: #000000; stroke-width: 0.8; stroke-linejoin: miter; stroke-linecap: square"/>
   </g>
   <g id="text_16">
    <!-- 109.0452 -->
    <g transform="translate(132.622061 50.939625) scale(0.06 -0.06)">
     <defs>
      <path id="DejaVuSans-39" d="M 703 97 
L 703 672 
Q 941 559 1184 500 
Q 1428 441 1663 441 
Q 2288 441 2617 861 
Q 2947 1281 2994 2138 
Q 2813 1869 2534 1725 
Q 2256 1581 1919 1581 
Q 1219 1581 811 2004 
Q 403 2428 403 3163 
Q 403 3881 828 4315 
Q 1253 4750 1959 4750 
Q 2769 4750 3195 4129 
Q 3622 3509 3622 2328 
Q 3622 1225 3098 567 
Q 2575 -91 1691 -91 
Q 1453 -91 1209 -44 
Q 966 3 703 97 
z
M 1959 2075 
Q 2384 2075 2632 2365 
Q 2881 2656 2881 3163 
Q 2881 3666 2632 3958 
Q 2384 4250 1959 4250 
Q 1534 4250 1286 3958 
Q 1038 3666 1038 3163 
Q 1038 2656 1286 2365 
Q 1534 2075 1959 2075 
z
" transform="scale(0.015625)"/>
      <path id="DejaVuSans-2e" d="M 684 794 
L 1344 794 
L 1344 0 
L 684 0 
L 684 794 
z
" transform="scale(0.015625)"/>
     </defs>
     <use xlink:href="#DejaVuSans-31"/>
     <use xlink:href="#DejaVuSans-30" x="63.623047"/>
     <use xlink:href="#DejaVuSans-39" x="127.246094"/>
     <use xlink:href="#DejaVuSans-2e" x="190.869141"/>
     <use xlink:href="#DejaVuSans-30" x="222.65625"/>
     <use xlink:href="#DejaVuSans-34" x="286.279297"/>
     <use xlink:href="#DejaVuSans-35" x="349.902344"/>
     <use xlink:href="#DejaVuSans-32" x="413.525391"/>
    </g>
   </g>
   <g id="text_17">
    <!-- 116.0497 -->
    <g transform="translate(141.304675 263.760501) scale(0.06 -0.06)">
     <defs>
      <path id="DejaVuSans-37" d="M 525 4666 
L 3525 4666 
L 3525 4397 
L 1831 0 
L 1172 0 
L 2766 4134 
L 525 4134 
L 525 4666 
z
" transform="scale(0.015625)"/>
     </defs>
     <use xlink:href="#DejaVuSans-31"/>
     <use xlink:href="#DejaVuSans-31" x="63.623047"/>
     <use xlink:href="#DejaVuSans-36" x="127.246094"/>
     <use xlink:href="#DejaVuSans-2e" x="190.869141"/>
     <use xlink:href="#DejaVuSans-30" x="222.65625"/>
     <use xlink:href="#DejaVuSans-34" x="286.279297"/>
     <use xlink:href="#DejaVuSans-39" x="349.902344"/>
     <use xlink:href="#DejaVuSans-37" x="413.525391"/>
    </g>
   </g>
   <g id="text_18">
    <!-- 234.071 -->
    <g transform="translate(289.510329 271.999224) scale(0.06 -0.06)">
     <use xlink:href="#DejaVuSans-32"/>
     <use xlink:href="#DejaVuSans-33" x="63.623047"/>
     <use xlink:href="#DejaVuSans-34" x="127.246094"/>
     <use xlink:href="#DejaVuSans-2e" x="190.869141"/>
     <use xlink:href="#DejaVuSans-30" x="222.65625"/>
     <use xlink:href="#DejaVuSans-37" x="286.279297"/>
     <use xlink:href="#DejaVuSans-31" x="349.902344"/>
    </g>
   </g>
   <g id="text_19">
    <!-- 262.1023 -->
    <g transform="translate(322.348622 184.908571) scale(0.06 -0.06)">
     <use xlink:href="#DejaVuSans-32"/>
     <use xlink:href="#DejaVuSans-36" x="63.623047"/>
     <use xlink:href="#DejaVuSans-32" x="127.246094"/>
     <use xlink:href="#DejaVuSans-2e" x="190.869141"/>
     <use xlink:href="#DejaVuSans-31" x="222.65625"/>
     <use xlink:href="#DejaVuSans-30" x="286.279297"/>
     <use xlink:href="#DejaVuSans-32" x="349.902344"/>
     <use xlink:href="#DejaVuSans-33" x="413.525391"/>
    </g>
   </g>
   <g id="text_20">
    <!-- 293.1444 -->
    <g transform="translate(360.827779 266.131216) scale(0.06 -0.06)">
     <use xlink:href="#DejaVuSans-32"/>
     <use xlink:href="#DejaVuSans-39" x="63.623047"/>
     <use xlink:href="#DejaVuSans-33" x="127.246094"/>
     <use xlink:href="#DejaVuSans-2e" x="190.869141"/>
     <use xlink:href="#DejaVuSans-31" x="222.65625"/>
     <use xlink:href="#DejaVuSans-34" x="286.279297"/>
     <use xlink:href="#DejaVuSans-34" x="349.902344"/>
     <use xlink:href="#DejaVuSans-34" x="413.525391"/>
    </g>
   </g>
   <g id="text_21">
    <!-- 311.1549 -->
    <g transform="translate(383.153276 144.876375) scale(0.06 -0.06)">
     <use xlink:href="#DejaVuSans-33"/>
     <use xlink:href="#DejaVuSans-31" x="63.623047"/>
     <use xlink:href="#DejaVuSans-31" x="127.246094"/>
     <use xlink:href="#DejaVuSans-2e" x="190.869141"/>
     <use xlink:href="#DejaVuSans-31" x="222.65625"/>
     <use xlink:href="#DejaVuSans-35" x="286.279297"/>
     <use xlink:href="#DejaVuSans-34" x="349.902344"/>
     <use xlink:href="#DejaVuSans-39" x="413.525391"/>
    </g>
   </g>
   <g id="text_22">
    <!-- MS2 spectrum of ${m/z}$ 311.1542, scan time 6.41 min. -->
    <g transform="translate(57.6 24.873562) scale(0.12 -0.12)">
     <defs>
      <path id="DejaVuSans-4d" d="M 628 4666 
L 1569 4666 
L 2759 1491 
L 3956 4666 
L 4897 4666 
L 4897 0 
L 4281 0 
L 4281 4097 
L 3078 897 
L 2444 897 
L 1241 4097 
L 1241 0 
L 628 0 
L 628 4666 
z
" transform="scale(0.015625)"/>
      <path id="DejaVuSans-53" d="M 3425 4513 
L 3425 3897 
Q 3066 4069 2747 4153 
Q 2428 4238 2131 4238 
Q 1616 4238 1336 4038 
Q 1056 3838 1056 3469 
Q 1056 3159 1242 3001 
Q 1428 2844 1947 2747 
L 2328 2669 
Q 3034 2534 3370 2195 
Q 3706 1856 3706 1288 
Q 3706 609 3251 259 
Q 2797 -91 1919 -91 
Q 1588 -91 1214 -16 
Q 841 59 441 206 
L 441 856 
Q 825 641 1194 531 
Q 1563 422 1919 422 
Q 2459 422 2753 634 
Q 3047 847 3047 1241 
Q 3047 1584 2836 1778 
Q 2625 1972 2144 2069 
L 1759 2144 
Q 1053 2284 737 2584 
Q 422 2884 422 3419 
Q 422 4038 858 4394 
Q 1294 4750 2059 4750 
Q 2388 4750 2728 4690 
Q 3069 4631 3425 4513 
z
" transform="scale(0.015625)"/>
      <path id="DejaVuSans-20" transform="scale(0.015625)"/>
      <path id="DejaVuSans-70" d="M 1159 525 
L 1159 -1331 
L 581 -1331 
L 581 3500 
L 1159 3500 
L 1159 2969 
Q 1341 3281 1617 3432 
Q 1894 3584 2278 3584 
Q 2916 3584 3314 3078 
Q 3713 2572 3713 1747 
Q 3713 922 3314 415 
Q 2916 -91 2278 -91 
Q 1894 -91 1617 61 
Q 1341 213 1159 525 
z
M 3116 1747 
Q 3116 2381 2855 2742 
Q 2594 3103 2138 3103 
Q 1681 3103 1420 2742 
Q 1159 2381 1159 1747 
Q 1159 1113 1420 752 
Q 1681 391 2138 391 
Q 2594 391 2855 752 
Q 3116 1113 3116 1747 
z
" transform="scale(0.015625)"/>
      <path id="DejaVuSans-63" d="M 3122 3366 
L 3122 2828 
Q 2878 2963 2633 3030 
Q 2388 3097 2138 3097 
Q 1578 3097 1268 2742 
Q 959 2388 959 1747 
Q 959 1106 1268 751 
Q 1578 397 2138 397 
Q 2388 397 2633 464 
Q 2878 531 3122 666 
L 3122 134 
Q 2881 22 2623 -34 
Q 2366 -91 2075 -91 
Q 1284 -91 818 406 
Q 353 903 353 1747 
Q 353 2603 823 3093 
Q 1294 3584 2113 3584 
Q 2378 3584 2631 3529 
Q 2884 3475 3122 3366 
z
" transform="scale(0.015625)"/>
      <path id="DejaVuSans-72" d="M 2631 2963 
Q 2534 3019 2420 3045 
Q 2306 3072 2169 3072 
Q 1681 3072 1420 2755 
Q 1159 2438 1159 1844 
L 1159 0 
L 581 0 
L 581 3500 
L 1159 3500 
L 1159 2956 
Q 1341 3275 1631 3429 
Q 1922 3584 2338 3584 
Q 2397 3584 2469 3576 
Q 2541 3569 2628 3553 
L 2631 2963 
z
" transform="scale(0.015625)"/>
      <path id="DejaVuSans-75" d="M 544 1381 
L 544 3500 
L 1119 3500 
L 1119 1403 
Q 1119 906 1312 657 
Q 1506 409 1894 409 
Q 2359 409 2629 706 
Q 2900 1003 2900 1516 
L 2900 3500 
L 3475 3500 
L 3475 0 
L 2900 0 
L 2900 538 
Q 2691 219 2414 64 
Q 2138 -91 1772 -91 
Q 1169 -91 856 284 
Q 544 659 544 1381 
z
M 1991 3584 
L 1991 3584 
z
" transform="scale(0.015625)"/>
      <path id="DejaVuSans-6d" d="M 3328 2828 
Q 3544 3216 3844 3400 
Q 4144 3584 4550 3584 
Q 5097 3584 5394 3201 
Q 5691 2819 5691 2113 
L 5691 0 
L 5113 0 
L 5113 2094 
Q 5113 2597 4934 2840 
Q 4756 3084 4391 3084 
Q 3944 3084 3684 2787 
Q 3425 2491 3425 1978 
L 3425 0 
L 2847 0 
L 2847 2094 
Q 2847 2600 2669 2842 
Q 2491 3084 2119 3084 
Q 1678 3084 1418 2786 
Q 1159 2488 1159 1978 
L 1159 0 
L 581 0 
L 581 3500 
L 1159 3500 
L 1159 2956 
Q 1356 3278 1631 3431 
Q 1906 3584 2284 3584 
Q 2666 3584 2933 3390 
Q 3200 3197 3328 2828 
z
" transform="scale(0.015625)"/>
      <path id="DejaVuSans-6f" d="M 1959 3097 
Q 1497 3097 1228 2736 
Q 959 2375 959 1747 
Q 959 1119 1226 758 
Q 1494 397 1959 397 
Q 2419 397 2687 759 
Q 2956 1122 2956 1747 
Q 2956 2369 2687 2733 
Q 2419 3097 1959 3097 
z
M 1959 3584 
Q 2709 3584 3137 3096 
Q 3566 2609 3566 1747 
Q 3566 888 3137 398 
Q 2709 -91 1959 -91 
Q 1206 -91 779 398 
Q 353 888 353 1747 
Q 353 2609 779 3096 
Q 1206 3584 1959 3584 
z
" transform="scale(0.015625)"/>
      <path id="DejaVuSans-66" d="M 2375 4863 
L 2375 4384 
L 1825 4384 
Q 1516 4384 1395 4259 
Q 1275 4134 1275 3809 
L 1275 3500 
L 2222 3500 
L 2222 3053 
L 1275 3053 
L 1275 0 
L 697 0 
L 697 3053 
L 147 3053 
L 147 3500 
L 697 3500 
L 697 3744 
Q 697 4328 969 4595 
Q 1241 4863 1831 4863 
L 2375 4863 
z
" transform="scale(0.015625)"/>
      <path id="DejaVuSans-2c" d="M 750 794 
L 1409 794 
L 1409 256 
L 897 -744 
L 494 -744 
L 750 256 
L 750 794 
z
" transform="scale(0.015625)"/>
      <path id="DejaVuSans-61" d="M 2194 1759 
Q 1497 1759 1228 1600 
Q 959 1441 959 1056 
Q 959 750 1161 570 
Q 1363 391 1709 391 
Q 2188 391 2477 730 
Q 2766 1069 2766 1631 
L 2766 1759 
L 2194 1759 
z
M 3341 1997 
L 3341 0 
L 2766 0 
L 2766 531 
Q 2569 213 2275 61 
Q 1981 -91 1556 -91 
Q 1019 -91 701 211 
Q 384 513 384 1019 
Q 384 1609 779 1909 
Q 1175 2209 1959 2209 
L 2766 2209 
L 2766 2266 
Q 2766 2663 2505 2880 
Q 2244 3097 1772 3097 
Q 1472 3097 1187 3025 
Q 903 2953 641 2809 
L 641 3341 
Q 956 3463 1253 3523 
Q 1550 3584 1831 3584 
Q 2591 3584 2966 3190 
Q 3341 2797 3341 1997 
z
" transform="scale(0.015625)"/>
     </defs>
     <use xlink:href="#DejaVuSans-4d" transform="translate(0 0.015625)"/>
     <use xlink:href="#DejaVuSans-53" transform="translate(86.279297 0.015625)"/>
     <use xlink:href="#DejaVuSans-32" transform="translate(149.755859 0.015625)"/>
     <use xlink:href="#DejaVuSans-20" transform="translate(213.378906 0.015625)"/>
     <use xlink:href="#DejaVuSans-73" transform="translate(245.166016 0.015625)"/>
     <use xlink:href="#DejaVuSans-70" transform="translate(297.265625 0.015625)"/>
     <use xlink:href="#DejaVuSans-65" transform="translate(360.742188 0.015625)"/>
     <use xlink:href="#DejaVuSans-63" transform="translate(422.265625 0.015625)"/>
     <use xlink:href="#DejaVuSans-74" transform="translate(477.246094 0.015625)"/>
     <use xlink:href="#DejaVuSans-72" transform="translate(516.455078 0.015625)"/>
     <use xlink:href="#DejaVuSans-75" transform="translate(557.568359 0.015625)"/>
     <use xlink:href="#DejaVuSans-6d" transform="translate(620.947266 0.015625)"/>
     <use xlink:href="#DejaVuSans-20" transform="translate(718.359375 0.015625)"/>
     <use xlink:href="#DejaVuSans-6f" transform="translate(750.146484 0.015625)"/>
     <use xlink:href="#DejaVuSans-66" transform="translate(811.328125 0.015625)"/>
     <use xlink:href="#DejaVuSans-20" transform="translate(846.533203 0.015625)"/>
     <use xlink:href="#DejaVuSans-Oblique-6d" transform="translate(878.320312 0.015625)"/>
     <use xlink:href="#DejaVuSans-2f" transform="translate(975.732422 0.015625)"/>
     <use xlink:href="#DejaVuSans-Oblique-7a" transform="translate(1009.423828 0.015625)"/>
     <use xlink:href="#DejaVuSans-20" transform="translate(1061.914062 0.015625)"/>
     <use xlink:href="#DejaVuSans-33" transform="translate(1093.701172 0.015625)"/>
     <use xlink:href="#DejaVuSans-31" transform="translate(1157.324219 0.015625)"/>
     <use xlink:href="#DejaVuSans-31" transform="translate(1220.947266 0.015625)"/>
     <use xlink:href="#DejaVuSans-2e" transform="translate(1284.570312 0.015625)"/>
     <use xlink:href="#DejaVuSans-31" transform="translate(1316.357422 0.015625)"/>
     <use xlink:href="#DejaVuSans-35" transform="translate(1379.980469 0.015625)"/>
     <use xlink:href="#DejaVuSans-34" transform="translate(1443.603516 0.015625)"/>
     <use xlink:href="#DejaVuSans-32" transform="translate(1507.226562 0.015625)"/>
     <use xlink:href="#DejaVuSans-2c" transform="translate(1570.849609 0.015625)"/>
     <use xlink:href="#DejaVuSans-20" transform="translate(1602.636719 0.015625)"/>
     <use xlink:href="#DejaVuSans-73" transform="translate(1634.423828 0.015625)"/>
     <use xlink:href="#DejaVuSans-63" transform="translate(1686.523438 0.015625)"/>
     <use xlink:href="#DejaVuSans-61" transform="translate(1741.503906 0.015625)"/>
     <use xlink:href="#DejaVuSans-6e" transform="translate(1802.783203 0.015625)"/>
     <use xlink:href="#DejaVuSans-20" transform="translate(1866.162109 0.015625)"/>
     <use xlink:href="#DejaVuSans-74" transform="translate(1897.949219 0.015625)"/>
     <use xlink:href="#DejaVuSans-69" transform="translate(1937.158203 0.015625)"/>
     <use xlink:href="#DejaVuSans-6d" transform="translate(1964.941406 0.015625)"/>
     <use xlink:href="#DejaVuSans-65" transform="translate(2062.353516 0.015625)"/>
     <use xlink:href="#DejaVuSans-20" transform="translate(2123.876953 0.015625)"/>
     <use xlink:href="#DejaVuSans-36" transform="translate(2155.664062 0.015625)"/>
     <use xlink:href="#DejaVuSans-2e" transform="translate(2219.287109 0.015625)"/>
     <use xlink:href="#DejaVuSans-34" transform="translate(2251.074219 0.015625)"/>
     <use xlink:href="#DejaVuSans-31" transform="translate(2314.697266 0.015625)"/>
     <use xlink:href="#DejaVuSans-20" transform="translate(2378.320312 0.015625)"/>
     <use xlink:href="#DejaVuSans-6d" transform="translate(2410.107422 0.015625)"/>
     <use xlink:href="#DejaVuSans-69" transform="translate(2507.519531 0.015625)"/>
     <use xlink:href="#DejaVuSans-6e" transform="translate(2535.302734 0.015625)"/>
     <use xlink:href="#DejaVuSans-2e" transform="translate(2598.681641 0.015625)"/>
    </g>
   </g>
  </g>
 </g>
 <defs>
  <clipPath id="p05786f92b8">
   <rect x="57.6" y="41.472" width="357.12" height="266.112"/>
  </clipPath>
 </defs>
</svg>
