<?xml version="1.0" encoding="utf-8" standalone="no"?>
<!DOCTYPE svg PUBLIC "-//W3C//DTD SVG 1.1//EN"
  "http://www.w3.org/Graphics/SVG/1.1/DTD/svg11.dtd">
<svg xmlns:xlink="http://www.w3.org/1999/xlink" width="460.8pt" height="345.6pt" viewBox="0 0 460.8 345.6" xmlns="http://www.w3.org/2000/svg" version="1.1">
 <metadata>
  <rdf:RDF xmlns:dc="http://purl.org/dc/elements/1.1/" xmlns:cc="http://creativecommons.org/ns#" xmlns:rdf="http://www.w3.org/1999/02/22-rdf-syntax-ns#">
   <cc:Work>
    <dc:type rdf:resource="http://purl.org/dc/dcmitype/StillImage"/>
    <dc:date>2025-01-11T12:36:55.266864</dc:date>
    <dc:format>image/svg+xml</dc:format>
    <dc:creator>
     <cc:Agent>
      <dc:title>Matplotlib v3.7.3, https://matplotlib.org/</dc:title>
     </cc:Agent>
    </dc:creator>
   </cc:Work>
  </rdf:RDF>
 </metadata>
 <defs>
  <style type="text/css">*{stroke-linejoin: round; stroke-linecap: butt}</style>
 </defs>
 <g id="figure_1">
  <g id="patch_1">
   <path d="M 0 345.6 
L 460.8 345.6 
L 460.8 0 
L 0 0 
z
" style="fill: #ffffff"/>
  </g>
  <g id="axes_1">
   <g id="patch_2">
    <path d="M 57.6 307.584 
L 414.72 307.584 
L 414.72 41.472 
L 57.6 41.472 
z
" style="fill: #ffffff"/>
   </g>
   <g id="patch_3">
    <path d="M 73.832727 307.584 
L 74.78845 307.584 
L 74.78845 307.407838 
L 73.832727 307.407838 
z
" clip-path="url(#p324d6e1022)" style="fill: #1f77b4"/>
   </g>
   <g id="patch_4">
    <path d="M 76.003023 307.584 
L 76.958746 307.584 
L 76.958746 306.594113 
L 76.003023 306.594113 
z
" clip-path="url(#p324d6e1022)" style="fill: #1f77b4"/>
   </g>
   <g id="patch_5">
    <path d="M 77.235557 307.584 
L 78.19128 307.584 
L 78.19128 288.716539 
L 77.235557 288.716539 
z
" clip-path="url(#p324d6e1022)" style="fill: #1f77b4"/>
   </g>
   <g id="patch_6">
    <path d="M 77.238432 307.584 
L 78.194155 307.584 
L 78.194155 307.292286 
L 77.238432 307.292286 
z
" clip-path="url(#p324d6e1022)" style="fill: #1f77b4"/>
   </g>
   <g id="patch_7">
    <path d="M 78.386876 307.584 
L 79.342599 307.584 
L 79.342599 307.366021 
L 78.386876 307.366021 
z
" clip-path="url(#p324d6e1022)" style="fill: #1f77b4"/>
   </g>
   <g id="patch_8">
    <path d="M 78.434266 307.584 
L 79.389989 307.584 
L 79.389989 307.242104 
L 78.434266 307.242104 
z
" clip-path="url(#p324d6e1022)" style="fill: #1f77b4"/>
   </g>
   <g id="patch_9">
    <path d="M 83.847478 307.584 
L 84.803201 307.584 
L 84.803201 307.363349 
L 83.847478 307.363349 
z
" clip-path="url(#p324d6e1022)" style="fill: #1f77b4"/>
   </g>
   <g id="patch_10">
    <path d="M 86.146156 307.584 
L 87.101879 307.584 
L 87.101879 307.339644 
L 86.146156 307.339644 
z
" clip-path="url(#p324d6e1022)" style="fill: #1f77b4"/>
   </g>
   <g id="patch_11">
    <path d="M 91.571298 307.584 
L 92.527021 307.584 
L 92.527021 307.098892 
L 91.571298 307.098892 
z
" clip-path="url(#p324d6e1022)" style="fill: #1f77b4"/>
   </g>
   <g id="patch_12">
    <path d="M 92.20429 307.584 
L 93.160013 307.584 
L 93.160013 307.39516 
L 92.20429 307.39516 
z
" clip-path="url(#p324d6e1022)" style="fill: #1f77b4"/>
   </g>
   <g id="patch_13">
    <path d="M 93.979336 307.584 
L 94.935059 307.584 
L 94.935059 306.742249 
L 93.979336 306.742249 
z
" clip-path="url(#p324d6e1022)" style="fill: #1f77b4"/>
   </g>
   <g id="patch_14">
    <path d="M 94.805017 307.584 
L 95.76074 307.584 
L 95.76074 307.237832 
L 94.805017 307.237832 
z
" clip-path="url(#p324d6e1022)" style="fill: #1f77b4"/>
   </g>
   <g id="patch_15">
    <path d="M 104.981942 307.584 
L 105.937665 307.584 
L 105.937665 306.943183 
L 104.981942 306.943183 
z
" clip-path="url(#p324d6e1022)" style="fill: #1f77b4"/>
   </g>
   <g id="patch_16">
    <path d="M 105.906907 307.584 
L 106.86263 307.584 
L 106.86263 307.330915 
L 105.906907 307.330915 
z
" clip-path="url(#p324d6e1022)" style="fill: #1f77b4"/>
   </g>
   <g id="patch_17">
    <path d="M 106.151312 307.584 
L 107.107035 307.584 
L 107.107035 307.350083 
L 106.151312 307.350083 
z
" clip-path="url(#p324d6e1022)" style="fill: #1f77b4"/>
   </g>
   <g id="patch_18">
    <path d="M 107.058677 307.584 
L 108.0144 307.584 
L 108.0144 306.691018 
L 107.058677 306.691018 
z
" clip-path="url(#p324d6e1022)" style="fill: #1f77b4"/>
   </g>
   <g id="patch_19">
    <path d="M 107.111022 307.584 
L 108.066745 307.584 
L 108.066745 307.21521 
L 107.111022 307.21521 
z
" clip-path="url(#p324d6e1022)" style="fill: #1f77b4"/>
   </g>
   <g id="patch_20">
    <path d="M 108.314963 307.584 
L 109.270686 307.584 
L 109.270686 304.363034 
L 108.314963 304.363034 
z
" clip-path="url(#p324d6e1022)" style="fill: #1f77b4"/>
   </g>
   <g id="patch_21">
    <path d="M 109.51906 307.584 
L 110.474783 307.584 
L 110.474783 307.008939 
L 109.51906 307.008939 
z
" clip-path="url(#p324d6e1022)" style="fill: #1f77b4"/>
   </g>
   <g id="patch_22">
    <path d="M 109.533442 307.584 
L 110.489165 307.584 
L 110.489165 307.287678 
L 109.533442 307.287678 
z
" clip-path="url(#p324d6e1022)" style="fill: #1f77b4"/>
   </g>
   <g id="patch_23">
    <path d="M 114.237629 307.584 
L 115.193352 307.584 
L 115.193352 307.165496 
L 114.237629 307.165496 
z
" clip-path="url(#p324d6e1022)" style="fill: #1f77b4"/>
   </g>
   <g id="patch_24">
    <path d="M 117.174562 307.584 
L 118.130285 307.584 
L 118.130285 307.259967 
L 117.174562 307.259967 
z
" clip-path="url(#p324d6e1022)" style="fill: #1f77b4"/>
   </g>
   <g id="patch_25">
    <path d="M 117.180295 307.584 
L 118.136018 307.584 
L 118.136018 307.342413 
L 117.180295 307.342413 
z
" clip-path="url(#p324d6e1022)" style="fill: #1f77b4"/>
   </g>
   <g id="patch_26">
    <path d="M 123.802206 307.584 
L 124.757929 307.584 
L 124.757929 307.234891 
L 123.802206 307.234891 
z
" clip-path="url(#p324d6e1022)" style="fill: #1f77b4"/>
   </g>
   <g id="patch_27">
    <path d="M 138.09412 307.584 
L 139.049843 307.584 
L 139.049843 307.391011 
L 138.09412 307.391011 
z
" clip-path="url(#p324d6e1022)" style="fill: #1f77b4"/>
   </g>
   <g id="patch_28">
    <path d="M 138.119886 307.584 
L 139.07561 307.584 
L 139.07561 306.481876 
L 138.119886 306.481876 
z
" clip-path="url(#p324d6e1022)" style="fill: #1f77b4"/>
   </g>
   <g id="patch_29">
    <path d="M 138.123468 307.584 
L 139.079192 307.584 
L 139.079192 306.134013 
L 138.123468 306.134013 
z
" clip-path="url(#p324d6e1022)" style="fill: #1f77b4"/>
   </g>
   <g id="patch_30">
    <path d="M 138.138125 307.584 
L 139.093848 307.584 
L 139.093848 72.827988 
L 138.138125 72.827988 
z
" clip-path="url(#p324d6e1022)" style="fill: #1f77b4"/>
   </g>
   <g id="patch_31">
    <path d="M 138.156864 307.584 
L 139.112587 307.584 
L 139.112587 305.902969 
L 138.156864 305.902969 
z
" clip-path="url(#p324d6e1022)" style="fill: #1f77b4"/>
   </g>
   <g id="patch_32">
    <path d="M 139.329415 307.584 
L 140.285138 307.584 
L 140.285138 307.399909 
L 139.329415 307.399909 
z
" clip-path="url(#p324d6e1022)" style="fill: #1f77b4"/>
   </g>
   <g id="patch_33">
    <path d="M 139.336543 307.584 
L 140.292266 307.584 
L 140.292266 296.226637 
L 139.336543 296.226637 
z
" clip-path="url(#p324d6e1022)" style="fill: #1f77b4"/>
   </g>
   <g id="patch_34">
    <path d="M 139.345821 307.584 
L 140.301544 307.584 
L 140.301544 307.104202 
L 139.345821 307.104202 
z
" clip-path="url(#p324d6e1022)" style="fill: #1f77b4"/>
   </g>
   <g id="patch_35">
    <path d="M 146.50597 307.584 
L 147.461693 307.584 
L 147.461693 275.350107 
L 146.50597 275.350107 
z
" clip-path="url(#p324d6e1022)" style="fill: #1f77b4"/>
   </g>
   <g id="patch_36">
    <path d="M 147.704725 307.584 
L 148.660448 307.584 
L 148.660448 305.422379 
L 147.704725 305.422379 
z
" clip-path="url(#p324d6e1022)" style="fill: #1f77b4"/>
   </g>
   <g id="patch_37">
    <path d="M 148.939884 307.584 
L 149.895607 307.584 
L 149.895607 307.244805 
L 148.939884 307.244805 
z
" clip-path="url(#p324d6e1022)" style="fill: #1f77b4"/>
   </g>
   <g id="patch_38">
    <path d="M 152.47357 307.584 
L 153.429293 307.584 
L 153.429293 306.171828 
L 152.47357 306.171828 
z
" clip-path="url(#p324d6e1022)" style="fill: #1f77b4"/>
   </g>
   <g id="patch_39">
    <path d="M 154.83784 307.584 
L 155.793563 307.584 
L 155.793563 304.148613 
L 154.83784 304.148613 
z
" clip-path="url(#p324d6e1022)" style="fill: #1f77b4"/>
   </g>
   <g id="patch_40">
    <path d="M 154.881489 307.584 
L 155.837212 307.584 
L 155.837212 306.361808 
L 154.881489 306.361808 
z
" clip-path="url(#p324d6e1022)" style="fill: #1f77b4"/>
   </g>
   <g id="patch_41">
    <path d="M 157.246142 307.584 
L 158.201865 307.584 
L 158.201865 306.77275 
L 157.246142 306.77275 
z
" clip-path="url(#p324d6e1022)" style="fill: #1f77b4"/>
   </g>
   <g id="patch_42">
    <path d="M 162.060696 307.584 
L 163.016419 307.584 
L 163.016419 305.910325 
L 162.060696 305.910325 
z
" clip-path="url(#p324d6e1022)" style="fill: #1f77b4"/>
   </g>
   <g id="patch_43">
    <path d="M 163.249644 307.584 
L 164.205367 307.584 
L 164.205367 305.975737 
L 163.249644 305.975737 
z
" clip-path="url(#p324d6e1022)" style="fill: #1f77b4"/>
   </g>
   <g id="patch_44">
    <path d="M 166.809634 307.584 
L 167.765357 307.584 
L 167.765357 306.767355 
L 166.809634 306.767355 
z
" clip-path="url(#p324d6e1022)" style="fill: #1f77b4"/>
   </g>
   <g id="patch_45">
    <path d="M 169.216898 307.584 
L 170.172621 307.584 
L 170.172621 307.249117 
L 169.216898 307.249117 
z
" clip-path="url(#p324d6e1022)" style="fill: #1f77b4"/>
   </g>
   <g id="patch_46">
    <path d="M 171.625145 307.584 
L 172.580868 307.584 
L 172.580868 306.769353 
L 171.625145 306.769353 
z
" clip-path="url(#p324d6e1022)" style="fill: #1f77b4"/>
   </g>
   <g id="patch_47">
    <path d="M 173.98926 307.584 
L 174.944983 307.584 
L 174.944983 307.231145 
L 173.98926 307.231145 
z
" clip-path="url(#p324d6e1022)" style="fill: #1f77b4"/>
   </g>
   <g id="patch_48">
    <path d="M 175.177242 307.584 
L 176.132965 307.584 
L 176.132965 305.40319 
L 175.177242 305.40319 
z
" clip-path="url(#p324d6e1022)" style="fill: #1f77b4"/>
   </g>
   <g id="patch_49">
    <path d="M 177.585271 307.584 
L 178.540994 307.584 
L 178.540994 306.108492 
L 177.585271 306.108492 
z
" clip-path="url(#p324d6e1022)" style="fill: #1f77b4"/>
   </g>
   <g id="patch_50">
    <path d="M 179.949623 307.584 
L 180.905346 307.584 
L 180.905346 305.288857 
L 179.949623 305.288857 
z
" clip-path="url(#p324d6e1022)" style="fill: #1f77b4"/>
   </g>
   <g id="patch_51">
    <path d="M 182.349449 307.584 
L 183.305172 307.584 
L 183.305172 307.153918 
L 182.349449 307.153918 
z
" clip-path="url(#p324d6e1022)" style="fill: #1f77b4"/>
   </g>
   <g id="patch_52">
    <path d="M 183.55196 307.584 
L 184.507683 307.584 
L 184.507683 306.397003 
L 183.55196 306.397003 
z
" clip-path="url(#p324d6e1022)" style="fill: #1f77b4"/>
   </g>
   <g id="patch_53">
    <path d="M 185.897882 307.584 
L 186.853606 307.584 
L 186.853606 307.015301 
L 185.897882 307.015301 
z
" clip-path="url(#p324d6e1022)" style="fill: #1f77b4"/>
   </g>
   <g id="patch_54">
    <path d="M 187.150322 307.584 
L 188.106045 307.584 
L 188.106045 307.004009 
L 187.150322 307.004009 
z
" clip-path="url(#p324d6e1022)" style="fill: #1f77b4"/>
   </g>
   <g id="patch_55">
    <path d="M 191.699307 307.584 
L 192.65503 307.584 
L 192.65503 307.331565 
L 191.699307 307.331565 
z
" clip-path="url(#p324d6e1022)" style="fill: #1f77b4"/>
   </g>
   <g id="patch_56">
    <path d="M 191.920516 307.584 
L 192.876239 307.584 
L 192.876239 305.981497 
L 191.920516 305.981497 
z
" clip-path="url(#p324d6e1022)" style="fill: #1f77b4"/>
   </g>
   <g id="patch_57">
    <path d="M 194.329091 307.584 
L 195.284814 307.584 
L 195.284814 299.810777 
L 194.329091 299.810777 
z
" clip-path="url(#p324d6e1022)" style="fill: #1f77b4"/>
   </g>
   <g id="patch_58">
    <path d="M 195.516764 307.584 
L 196.472487 307.584 
L 196.472487 307.28336 
L 195.516764 307.28336 
z
" clip-path="url(#p324d6e1022)" style="fill: #1f77b4"/>
   </g>
   <g id="patch_59">
    <path d="M 195.52987 307.584 
L 196.485593 307.584 
L 196.485593 307.153718 
L 195.52987 307.153718 
z
" clip-path="url(#p324d6e1022)" style="fill: #1f77b4"/>
   </g>
   <g id="patch_60">
    <path d="M 196.69348 307.584 
L 197.649203 307.584 
L 197.649203 307.048732 
L 196.69348 307.048732 
z
" clip-path="url(#p324d6e1022)" style="fill: #1f77b4"/>
   </g>
   <g id="patch_61">
    <path d="M 197.888899 307.584 
L 198.844623 307.584 
L 198.844623 306.639739 
L 197.888899 306.639739 
z
" clip-path="url(#p324d6e1022)" style="fill: #1f77b4"/>
   </g>
   <g id="patch_62">
    <path d="M 206.243219 307.584 
L 207.198942 307.584 
L 207.198942 307.397601 
L 206.243219 307.397601 
z
" clip-path="url(#p324d6e1022)" style="fill: #1f77b4"/>
   </g>
   <g id="patch_63">
    <path d="M 206.256854 307.584 
L 207.212577 307.584 
L 207.212577 291.196998 
L 206.256854 291.196998 
z
" clip-path="url(#p324d6e1022)" style="fill: #1f77b4"/>
   </g>
   <g id="patch_64">
    <path d="M 207.455956 307.584 
L 208.411679 307.584 
L 208.411679 306.248396 
L 207.455956 306.248396 
z
" clip-path="url(#p324d6e1022)" style="fill: #1f77b4"/>
   </g>
   <g id="patch_65">
    <path d="M 208.665101 307.584 
L 209.620825 307.584 
L 209.620825 306.623901 
L 208.665101 306.623901 
z
" clip-path="url(#p324d6e1022)" style="fill: #1f77b4"/>
   </g>
   <g id="patch_66">
    <path d="M 227.773711 307.584 
L 228.729434 307.584 
L 228.729434 306.324593 
L 227.773711 306.324593 
z
" clip-path="url(#p324d6e1022)" style="fill: #1f77b4"/>
   </g>
   <g id="patch_67">
    <path d="M 234.930679 307.584 
L 235.886402 307.584 
L 235.886402 307.264679 
L 234.930679 307.264679 
z
" clip-path="url(#p324d6e1022)" style="fill: #1f77b4"/>
   </g>
   <g id="patch_68">
    <path d="M 249.279577 307.584 
L 250.2353 307.584 
L 250.2353 307.014469 
L 249.279577 307.014469 
z
" clip-path="url(#p324d6e1022)" style="fill: #1f77b4"/>
   </g>
   <g id="patch_69">
    <path d="M 250.468999 307.584 
L 251.424722 307.584 
L 251.424722 307.159771 
L 250.468999 307.159771 
z
" clip-path="url(#p324d6e1022)" style="fill: #1f77b4"/>
   </g>
   <g id="patch_70">
    <path d="M 264.819045 307.584 
L 265.774768 307.584 
L 265.774768 304.587604 
L 264.819045 304.587604 
z
" clip-path="url(#p324d6e1022)" style="fill: #1f77b4"/>
   </g>
   <g id="patch_71">
    <path d="M 266.015887 307.584 
L 266.97161 307.584 
L 266.97161 307.309756 
L 266.015887 307.309756 
z
" clip-path="url(#p324d6e1022)" style="fill: #1f77b4"/>
   </g>
   <g id="patch_72">
    <path d="M 268.372965 307.584 
L 269.328689 307.584 
L 269.328689 306.501999 
L 268.372965 306.501999 
z
" clip-path="url(#p324d6e1022)" style="fill: #1f77b4"/>
   </g>
   <g id="patch_73">
    <path d="M 270.772755 307.584 
L 271.728478 307.584 
L 271.728478 306.124834 
L 270.772755 306.124834 
z
" clip-path="url(#p324d6e1022)" style="fill: #1f77b4"/>
   </g>
   <g id="patch_74">
    <path d="M 271.9605 307.584 
L 272.916223 307.584 
L 272.916223 299.049249 
L 271.9605 299.049249 
z
" clip-path="url(#p324d6e1022)" style="fill: #1f77b4"/>
   </g>
   <g id="patch_75">
    <path d="M 273.164086 307.584 
L 274.119809 307.584 
L 274.119809 302.609531 
L 273.164086 302.609531 
z
" clip-path="url(#p324d6e1022)" style="fill: #1f77b4"/>
   </g>
   <g id="patch_76">
    <path d="M 274.362932 307.584 
L 275.318655 307.584 
L 275.318655 307.235591 
L 274.362932 307.235591 
z
" clip-path="url(#p324d6e1022)" style="fill: #1f77b4"/>
   </g>
   <g id="patch_77">
    <path d="M 275.572971 307.584 
L 276.528695 307.584 
L 276.528695 306.839448 
L 275.572971 306.839448 
z
" clip-path="url(#p324d6e1022)" style="fill: #1f77b4"/>
   </g>
   <g id="patch_78">
    <path d="M 279.139707 307.584 
L 280.09543 307.584 
L 280.09543 301.450626 
L 279.139707 301.450626 
z
" clip-path="url(#p324d6e1022)" style="fill: #1f77b4"/>
   </g>
   <g id="patch_79">
    <path d="M 280.339556 307.584 
L 281.295279 307.584 
L 281.295279 306.853422 
L 280.339556 306.853422 
z
" clip-path="url(#p324d6e1022)" style="fill: #1f77b4"/>
   </g>
   <g id="patch_80">
    <path d="M 286.311877 307.584 
L 287.2676 307.584 
L 287.2676 306.163532 
L 286.311877 306.163532 
z
" clip-path="url(#p324d6e1022)" style="fill: #1f77b4"/>
   </g>
   <g id="patch_81">
    <path d="M 287.500606 307.584 
L 288.456329 307.584 
L 288.456329 277.415149 
L 287.500606 277.415149 
z
" clip-path="url(#p324d6e1022)" style="fill: #1f77b4"/>
   </g>
   <g id="patch_82">
    <path d="M 288.699015 307.584 
L 289.654738 307.584 
L 289.654738 304.960724 
L 288.699015 304.960724 
z
" clip-path="url(#p324d6e1022)" style="fill: #1f77b4"/>
   </g>
   <g id="patch_83">
    <path d="M 288.723697 307.584 
L 289.67942 307.584 
L 289.67942 302.878437 
L 288.723697 302.878437 
z
" clip-path="url(#p324d6e1022)" style="fill: #1f77b4"/>
   </g>
   <g id="patch_84">
    <path d="M 289.908325 307.584 
L 290.864048 307.584 
L 290.864048 304.783674 
L 289.908325 304.783674 
z
" clip-path="url(#p324d6e1022)" style="fill: #1f77b4"/>
   </g>
   <g id="patch_85">
    <path d="M 292.273024 307.584 
L 293.228747 307.584 
L 293.228747 303.083822 
L 292.273024 303.083822 
z
" clip-path="url(#p324d6e1022)" style="fill: #1f77b4"/>
   </g>
   <g id="patch_86">
    <path d="M 293.472909 307.584 
L 294.428632 307.584 
L 294.428632 307.131797 
L 293.472909 307.131797 
z
" clip-path="url(#p324d6e1022)" style="fill: #1f77b4"/>
   </g>
   <g id="patch_87">
    <path d="M 294.67954 307.584 
L 295.635263 307.584 
L 295.635263 306.20203 
L 294.67954 306.20203 
z
" clip-path="url(#p324d6e1022)" style="fill: #1f77b4"/>
   </g>
   <g id="patch_88">
    <path d="M 295.883308 307.584 
L 296.839031 307.584 
L 296.839031 305.272621 
L 295.883308 305.272621 
z
" clip-path="url(#p324d6e1022)" style="fill: #1f77b4"/>
   </g>
   <g id="patch_89">
    <path d="M 297.087441 307.584 
L 298.043164 307.584 
L 298.043164 300.471954 
L 297.087441 300.471954 
z
" clip-path="url(#p324d6e1022)" style="fill: #1f77b4"/>
   </g>
   <g id="patch_90">
    <path d="M 298.28698 307.584 
L 299.242703 307.584 
L 299.242703 306.715573 
L 298.28698 306.715573 
z
" clip-path="url(#p324d6e1022)" style="fill: #1f77b4"/>
   </g>
   <g id="patch_91">
    <path d="M 300.647796 307.584 
L 301.603519 307.584 
L 301.603519 306.408267 
L 300.647796 306.408267 
z
" clip-path="url(#p324d6e1022)" style="fill: #1f77b4"/>
   </g>
   <g id="patch_92">
    <path d="M 301.833554 307.584 
L 302.789277 307.584 
L 302.789277 305.738269 
L 301.833554 305.738269 
z
" clip-path="url(#p324d6e1022)" style="fill: #1f77b4"/>
   </g>
   <g id="patch_93">
    <path d="M 303.040385 307.584 
L 303.996108 307.584 
L 303.996108 289.474676 
L 303.040385 289.474676 
z
" clip-path="url(#p324d6e1022)" style="fill: #1f77b4"/>
   </g>
   <g id="patch_94">
    <path d="M 304.239705 307.584 
L 305.195428 307.584 
L 305.195428 305.435445 
L 304.239705 305.435445 
z
" clip-path="url(#p324d6e1022)" style="fill: #1f77b4"/>
   </g>
   <g id="patch_95">
    <path d="M 306.652291 307.584 
L 307.608014 307.584 
L 307.608014 303.531835 
L 306.652291 303.531835 
z
" clip-path="url(#p324d6e1022)" style="fill: #1f77b4"/>
   </g>
   <g id="patch_96">
    <path d="M 318.581038 307.584 
L 319.536761 307.584 
L 319.536761 305.260064 
L 318.581038 305.260064 
z
" clip-path="url(#p324d6e1022)" style="fill: #1f77b4"/>
   </g>
   <g id="patch_97">
    <path d="M 319.784004 307.584 
L 320.739728 307.584 
L 320.739728 305.409252 
L 319.784004 305.409252 
z
" clip-path="url(#p324d6e1022)" style="fill: #1f77b4"/>
   </g>
   <g id="patch_98">
    <path d="M 320.988283 307.584 
L 321.944006 307.584 
L 321.944006 217.566515 
L 320.988283 217.566515 
z
" clip-path="url(#p324d6e1022)" style="fill: #1f77b4"/>
   </g>
   <g id="patch_99">
    <path d="M 321.056605 307.584 
L 322.012328 307.584 
L 322.012328 307.089805 
L 321.056605 307.089805 
z
" clip-path="url(#p324d6e1022)" style="fill: #1f77b4"/>
   </g>
   <g id="patch_100">
    <path d="M 322.186947 307.584 
L 323.14267 307.584 
L 323.14267 295.274535 
L 322.186947 295.274535 
z
" clip-path="url(#p324d6e1022)" style="fill: #1f77b4"/>
   </g>
   <g id="patch_101">
    <path d="M 322.221655 307.584 
L 323.177378 307.584 
L 323.177378 307.268492 
L 322.221655 307.268492 
z
" clip-path="url(#p324d6e1022)" style="fill: #1f77b4"/>
   </g>
   <g id="patch_102">
    <path d="M 342.504557 307.584 
L 343.46028 307.584 
L 343.46028 298.244396 
L 342.504557 298.244396 
z
" clip-path="url(#p324d6e1022)" style="fill: #1f77b4"/>
   </g>
   <g id="patch_103">
    <path d="M 342.541307 307.584 
L 343.49703 307.584 
L 343.49703 307.146328 
L 342.541307 307.146328 
z
" clip-path="url(#p324d6e1022)" style="fill: #1f77b4"/>
   </g>
   <g id="patch_104">
    <path d="M 343.702383 307.584 
L 344.658106 307.584 
L 344.658106 306.491277 
L 343.702383 306.491277 
z
" clip-path="url(#p324d6e1022)" style="fill: #1f77b4"/>
   </g>
   <g id="patch_105">
    <path d="M 347.501155 307.584 
L 348.456878 307.584 
L 348.456878 307.266301 
L 347.501155 307.266301 
z
" clip-path="url(#p324d6e1022)" style="fill: #1f77b4"/>
   </g>
   <g id="patch_106">
    <path d="M 374.81632 307.584 
L 375.772043 307.584 
L 375.772043 298.978364 
L 374.81632 298.978364 
z
" clip-path="url(#p324d6e1022)" style="fill: #1f77b4"/>
   </g>
   <g id="patch_107">
    <path d="M 376.014145 307.584 
L 376.969868 307.584 
L 376.969868 306.299285 
L 376.014145 306.299285 
z
" clip-path="url(#p324d6e1022)" style="fill: #1f77b4"/>
   </g>
   <g id="patch_108">
    <path d="M 396.237402 307.584 
L 397.193125 307.584 
L 397.193125 305.824335 
L 396.237402 305.824335 
z
" clip-path="url(#p324d6e1022)" style="fill: #1f77b4"/>
   </g>
   <g id="patch_109">
    <path d="M 396.257089 307.584 
L 397.212812 307.584 
L 397.212812 306.419091 
L 396.257089 306.419091 
z
" clip-path="url(#p324d6e1022)" style="fill: #1f77b4"/>
   </g>
   <g id="patch_110">
    <path d="M 396.333359 307.584 
L 397.289082 307.584 
L 397.289082 54.144 
L 396.333359 54.144 
z
" clip-path="url(#p324d6e1022)" style="fill: #1f77b4"/>
   </g>
   <g id="patch_111">
    <path d="M 396.41003 307.584 
L 397.365754 307.584 
L 397.365754 306.194415 
L 396.41003 306.194415 
z
" clip-path="url(#p324d6e1022)" style="fill: #1f77b4"/>
   </g>
   <g id="patch_112">
    <path d="M 396.428879 307.584 
L 397.384602 307.584 
L 397.384602 305.633033 
L 396.428879 305.633033 
z
" clip-path="url(#p324d6e1022)" style="fill: #1f77b4"/>
   </g>
   <g id="patch_113">
    <path d="M 397.53155 307.584 
L 398.487273 307.584 
L 398.487273 268.890897 
L 397.53155 268.890897 
z
" clip-path="url(#p324d6e1022)" style="fill: #1f77b4"/>
   </g>
   <g id="matplotlib.axis_1">
    <g id="xtick_1">
     <g id="line2d_1">
      <defs>
       <path id="md978842d59" d="M 0 0 
L 0 3.5 
" style="stroke: #000000; stroke-width: 0.8"/>
      </defs>
      <g>
       <use xlink:href="#md978842d59" x="68.077361" y="307.584" style="stroke: #000000; stroke-width: 0.8"/>
      </g>
     </g>
     <g id="text_1">
      <!-- 50 -->
      <g transform="translate(61.714861 322.182437) scale(0.1 -0.1)">
       <defs>
        <path id="DejaVuSans-35" d="M 691 4666 
L 3169 4666 
L 3169 4134 
L 1269 4134 
L 1269 2991 
Q 1406 3038 1543 3061 
Q 1681 3084 1819 3084 
Q 2600 3084 3056 2656 
Q 3513 2228 3513 1497 
Q 3513 744 3044 326 
Q 2575 -91 1722 -91 
Q 1428 -91 1123 -41 
Q 819 9 494 109 
L 494 744 
Q 775 591 1075 516 
Q 1375 441 1709 441 
Q 2250 441 2565 725 
Q 2881 1009 2881 1497 
Q 2881 1984 2565 2268 
Q 2250 2553 1709 2553 
Q 1456 2553 1204 2497 
Q 953 2441 691 2322 
L 691 4666 
z
" transform="scale(0.015625)"/>
        <path id="DejaVuSans-30" d="M 2034 4250 
Q 1547 4250 1301 3770 
Q 1056 3291 1056 2328 
Q 1056 1369 1301 889 
Q 1547 409 2034 409 
Q 2525 409 2770 889 
Q 3016 1369 3016 2328 
Q 3016 3291 2770 3770 
Q 2525 4250 2034 4250 
z
M 2034 4750 
Q 2819 4750 3233 4129 
Q 3647 3509 3647 2328 
Q 3647 1150 3233 529 
Q 2819 -91 2034 -91 
Q 1250 -91 836 529 
Q 422 1150 422 2328 
Q 422 3509 836 4129 
Q 1250 4750 2034 4750 
z
" transform="scale(0.015625)"/>
       </defs>
       <use xlink:href="#DejaVuSans-35"/>
       <use xlink:href="#DejaVuSans-30" x="63.623047"/>
      </g>
     </g>
    </g>
    <g id="xtick_2">
     <g id="line2d_2">
      <g>
       <use xlink:href="#md978842d59" x="127.810053" y="307.584" style="stroke: #000000; stroke-width: 0.8"/>
      </g>
     </g>
     <g id="text_2">
      <!-- 100 -->
      <g transform="translate(118.266303 322.182437) scale(0.1 -0.1)">
       <defs>
        <path id="DejaVuSans-31" d="M 794 531 
L 1825 531 
L 1825 4091 
L 703 3866 
L 703 4441 
L 1819 4666 
L 2450 4666 
L 2450 531 
L 3481 531 
L 3481 0 
L 794 0 
L 794 531 
z
" transform="scale(0.015625)"/>
       </defs>
       <use xlink:href="#DejaVuSans-31"/>
       <use xlink:href="#DejaVuSans-30" x="63.623047"/>
       <use xlink:href="#DejaVuSans-30" x="127.246094"/>
      </g>
     </g>
    </g>
    <g id="xtick_3">
     <g id="line2d_3">
      <g>
       <use xlink:href="#md978842d59" x="187.542744" y="307.584" style="stroke: #000000; stroke-width: 0.8"/>
      </g>
     </g>
     <g id="text_3">
      <!-- 150 -->
      <g transform="translate(177.998994 322.182437) scale(0.1 -0.1)">
       <use xlink:href="#DejaVuSans-31"/>
       <use xlink:href="#DejaVuSans-35" x="63.623047"/>
       <use xlink:href="#DejaVuSans-30" x="127.246094"/>
      </g>
     </g>
    </g>
    <g id="xtick_4">
     <g id="line2d_4">
      <g>
       <use xlink:href="#md978842d59" x="247.275436" y="307.584" style="stroke: #000000; stroke-width: 0.8"/>
      </g>
     </g>
     <g id="text_4">
      <!-- 200 -->
      <g transform="translate(237.731686 322.182437) scale(0.1 -0.1)">
       <defs>
        <path id="DejaVuSans-32" d="M 1228 531 
L 3431 531 
L 3431 0 
L 469 0 
L 469 531 
Q 828 903 1448 1529 
Q 2069 2156 2228 2338 
Q 2531 2678 2651 2914 
Q 2772 3150 2772 3378 
Q 2772 3750 2511 3984 
Q 2250 4219 1831 4219 
Q 1534 4219 1204 4116 
Q 875 4013 500 3803 
L 500 4441 
Q 881 4594 1212 4672 
Q 1544 4750 1819 4750 
Q 2544 4750 2975 4387 
Q 3406 4025 3406 3419 
Q 3406 3131 3298 2873 
Q 3191 2616 2906 2266 
Q 2828 2175 2409 1742 
Q 1991 1309 1228 531 
z
" transform="scale(0.015625)"/>
       </defs>
       <use xlink:href="#DejaVuSans-32"/>
       <use xlink:href="#DejaVuSans-30" x="63.623047"/>
       <use xlink:href="#DejaVuSans-30" x="127.246094"/>
      </g>
     </g>
    </g>
    <g id="xtick_5">
     <g id="line2d_5">
      <g>
       <use xlink:href="#md978842d59" x="307.008128" y="307.584" style="stroke: #000000; stroke-width: 0.8"/>
      </g>
     </g>
     <g id="text_5">
      <!-- 250 -->
      <g transform="translate(297.464378 322.182437) scale(0.1 -0.1)">
       <use xlink:href="#DejaVuSans-32"/>
       <use xlink:href="#DejaVuSans-35" x="63.623047"/>
       <use xlink:href="#DejaVuSans-30" x="127.246094"/>
      </g>
     </g>
    </g>
    <g id="xtick_6">
     <g id="line2d_6">
      <g>
       <use xlink:href="#md978842d59" x="366.74082" y="307.584" style="stroke: #000000; stroke-width: 0.8"/>
      </g>
     </g>
     <g id="text_6">
      <!-- 300 -->
      <g transform="translate(357.19707 322.182437) scale(0.1 -0.1)">
       <defs>
        <path id="DejaVuSans-33" d="M 2597 2516 
Q 3050 2419 3304 2112 
Q 3559 1806 3559 1356 
Q 3559 666 3084 287 
Q 2609 -91 1734 -91 
Q 1441 -91 1130 -33 
Q 819 25 488 141 
L 488 750 
Q 750 597 1062 519 
Q 1375 441 1716 441 
Q 2309 441 2620 675 
Q 2931 909 2931 1356 
Q 2931 1769 2642 2001 
Q 2353 2234 1838 2234 
L 1294 2234 
L 1294 2753 
L 1863 2753 
Q 2328 2753 2575 2939 
Q 2822 3125 2822 3475 
Q 2822 3834 2567 4026 
Q 2313 4219 1838 4219 
Q 1578 4219 1281 4162 
Q 984 4106 628 3988 
L 628 4550 
Q 988 4650 1302 4700 
Q 1616 4750 1894 4750 
Q 2613 4750 3031 4423 
Q 3450 4097 3450 3541 
Q 3450 3153 3228 2886 
Q 3006 2619 2597 2516 
z
" transform="scale(0.015625)"/>
       </defs>
       <use xlink:href="#DejaVuSans-33"/>
       <use xlink:href="#DejaVuSans-30" x="63.623047"/>
       <use xlink:href="#DejaVuSans-30" x="127.246094"/>
      </g>
     </g>
    </g>
    <g id="text_7">
     <!-- ${m/z}$ -->
     <g transform="translate(226.96 335.860562) scale(0.1 -0.1)">
      <defs>
       <path id="DejaVuSans-Oblique-6d" d="M 5747 2113 
L 5338 0 
L 4763 0 
L 5166 2094 
Q 5191 2228 5203 2325 
Q 5216 2422 5216 2491 
Q 5216 2772 5059 2928 
Q 4903 3084 4622 3084 
Q 4203 3084 3875 2770 
Q 3547 2456 3450 1953 
L 3066 0 
L 2491 0 
L 2900 2094 
Q 2925 2209 2937 2307 
Q 2950 2406 2950 2484 
Q 2950 2769 2794 2926 
Q 2638 3084 2363 3084 
Q 1938 3084 1609 2770 
Q 1281 2456 1184 1953 
L 800 0 
L 225 0 
L 909 3500 
L 1484 3500 
L 1375 2956 
Q 1609 3263 1923 3423 
Q 2238 3584 2597 3584 
Q 2978 3584 3223 3384 
Q 3469 3184 3519 2828 
Q 3781 3197 4126 3390 
Q 4472 3584 4856 3584 
Q 5306 3584 5551 3325 
Q 5797 3066 5797 2591 
Q 5797 2488 5784 2364 
Q 5772 2241 5747 2113 
z
" transform="scale(0.015625)"/>
       <path id="DejaVuSans-2f" d="M 1625 4666 
L 2156 4666 
L 531 -594 
L 0 -594 
L 1625 4666 
z
" transform="scale(0.015625)"/>
       <path id="DejaVuSans-Oblique-7a" d="M 744 3500 
L 3475 3500 
L 3372 2975 
L 738 459 
L 2913 459 
L 2822 0 
L -19 0 
L 84 525 
L 2719 3041 
L 653 3041 
L 744 3500 
z
" transform="scale(0.015625)"/>
      </defs>
      <use xlink:href="#DejaVuSans-Oblique-6d" transform="translate(0 0.09375)"/>
      <use xlink:href="#DejaVuSans-2f" transform="translate(97.412109 0.09375)"/>
      <use xlink:href="#DejaVuSans-Oblique-7a" transform="translate(131.103516 0.09375)"/>
     </g>
    </g>
   </g>
   <g id="matplotlib.axis_2">
    <g id="ytick_1">
     <g id="line2d_7">
      <defs>
       <path id="mc44df0ba85" d="M 0 0 
L -3.5 0 
" style="stroke: #000000; stroke-width: 0.8"/>
      </defs>
      <g>
       <use xlink:href="#mc44df0ba85" x="57.6" y="307.584" style="stroke: #000000; stroke-width: 0.8"/>
      </g>
     </g>
     <g id="text_8">
      <!-- 0 -->
      <g transform="translate(44.2375 311.383219) scale(0.1 -0.1)">
       <use xlink:href="#DejaVuSans-30"/>
      </g>
     </g>
    </g>
    <g id="ytick_2">
     <g id="line2d_8">
      <g>
       <use xlink:href="#mc44df0ba85" x="57.6" y="251.915012" style="stroke: #000000; stroke-width: 0.8"/>
      </g>
     </g>
     <g id="text_9">
      <!-- 2 -->
      <g transform="translate(44.2375 255.71423) scale(0.1 -0.1)">
       <use xlink:href="#DejaVuSans-32"/>
      </g>
     </g>
    </g>
    <g id="ytick_3">
     <g id="line2d_9">
      <g>
       <use xlink:href="#mc44df0ba85" x="57.6" y="196.246023" style="stroke: #000000; stroke-width: 0.8"/>
      </g>
     </g>
     <g id="text_10">
      <!-- 4 -->
      <g transform="translate(44.2375 200.045242) scale(0.1 -0.1)">
       <defs>
        <path id="DejaVuSans-34" d="M 2419 4116 
L 825 1625 
L 2419 1625 
L 2419 4116 
z
M 2253 4666 
L 3047 4666 
L 3047 1625 
L 3713 1625 
L 3713 1100 
L 3047 1100 
L 3047 0 
L 2419 0 
L 2419 1100 
L 313 1100 
L 313 1709 
L 2253 4666 
z
" transform="scale(0.015625)"/>
       </defs>
       <use xlink:href="#DejaVuSans-34"/>
      </g>
     </g>
    </g>
    <g id="ytick_4">
     <g id="line2d_10">
      <g>
       <use xlink:href="#mc44df0ba85" x="57.6" y="140.577035" style="stroke: #000000; stroke-width: 0.8"/>
      </g>
     </g>
     <g id="text_11">
      <!-- 6 -->
      <g transform="translate(44.2375 144.376254) scale(0.1 -0.1)">
       <defs>
        <path id="DejaVuSans-36" d="M 2113 2584 
Q 1688 2584 1439 2293 
Q 1191 2003 1191 1497 
Q 1191 994 1439 701 
Q 1688 409 2113 409 
Q 2538 409 2786 701 
Q 3034 994 3034 1497 
Q 3034 2003 2786 2293 
Q 2538 2584 2113 2584 
z
M 3366 4563 
L 3366 3988 
Q 3128 4100 2886 4159 
Q 2644 4219 2406 4219 
Q 1781 4219 1451 3797 
Q 1122 3375 1075 2522 
Q 1259 2794 1537 2939 
Q 1816 3084 2150 3084 
Q 2853 3084 3261 2657 
Q 3669 2231 3669 1497 
Q 3669 778 3244 343 
Q 2819 -91 2113 -91 
Q 1303 -91 875 529 
Q 447 1150 447 2328 
Q 447 3434 972 4092 
Q 1497 4750 2381 4750 
Q 2619 4750 2861 4703 
Q 3103 4656 3366 4563 
z
" transform="scale(0.015625)"/>
       </defs>
       <use xlink:href="#DejaVuSans-36"/>
      </g>
     </g>
    </g>
    <g id="ytick_5">
     <g id="line2d_11">
      <g>
       <use xlink:href="#mc44df0ba85" x="57.6" y="84.908047" style="stroke: #000000; stroke-width: 0.8"/>
      </g>
     </g>
     <g id="text_12">
      <!-- 8 -->
      <g transform="translate(44.2375 88.707266) scale(0.1 -0.1)">
       <defs>
        <path id="DejaVuSans-38" d="M 2034 2216 
Q 1584 2216 1326 1975 
Q 1069 1734 1069 1313 
Q 1069 891 1326 650 
Q 1584 409 2034 409 
Q 2484 409 2743 651 
Q 3003 894 3003 1313 
Q 3003 1734 2745 1975 
Q 2488 2216 2034 2216 
z
M 1403 2484 
Q 997 2584 770 2862 
Q 544 3141 544 3541 
Q 544 4100 942 4425 
Q 1341 4750 2034 4750 
Q 2731 4750 3128 4425 
Q 3525 4100 3525 3541 
Q 3525 3141 3298 2862 
Q 3072 2584 2669 2484 
Q 3125 2378 3379 2068 
Q 3634 1759 3634 1313 
Q 3634 634 3220 271 
Q 2806 -91 2034 -91 
Q 1263 -91 848 271 
Q 434 634 434 1313 
Q 434 1759 690 2068 
Q 947 2378 1403 2484 
z
M 1172 3481 
Q 1172 3119 1398 2916 
Q 1625 2713 2034 2713 
Q 2441 2713 2670 2916 
Q 2900 3119 2900 3481 
Q 2900 3844 2670 4047 
Q 2441 4250 2034 4250 
Q 1625 4250 1398 4047 
Q 1172 3844 1172 3481 
z
" transform="scale(0.015625)"/>
       </defs>
       <use xlink:href="#DejaVuSans-38"/>
      </g>
     </g>
    </g>
    <g id="text_13">
     <!-- intensities -->
     <g transform="translate(38.157812 200.3155) rotate(-90) scale(0.1 -0.1)">
      <defs>
       <path id="DejaVuSans-69" d="M 603 3500 
L 1178 3500 
L 1178 0 
L 603 0 
L 603 3500 
z
M 603 4863 
L 1178 4863 
L 1178 4134 
L 603 4134 
L 603 4863 
z
" transform="scale(0.015625)"/>
       <path id="DejaVuSans-6e" d="M 3513 2113 
L 3513 0 
L 2938 0 
L 2938 2094 
Q 2938 2591 2744 2837 
Q 2550 3084 2163 3084 
Q 1697 3084 1428 2787 
Q 1159 2491 1159 1978 
L 1159 0 
L 581 0 
L 581 3500 
L 1159 3500 
L 1159 2956 
Q 1366 3272 1645 3428 
Q 1925 3584 2291 3584 
Q 2894 3584 3203 3211 
Q 3513 2838 3513 2113 
z
" transform="scale(0.015625)"/>
       <path id="DejaVuSans-74" d="M 1172 4494 
L 1172 3500 
L 2356 3500 
L 2356 3053 
L 1172 3053 
L 1172 1153 
Q 1172 725 1289 603 
Q 1406 481 1766 481 
L 2356 481 
L 2356 0 
L 1766 0 
Q 1100 0 847 248 
Q 594 497 594 1153 
L 594 3053 
L 172 3053 
L 172 3500 
L 594 3500 
L 594 4494 
L 1172 4494 
z
" transform="scale(0.015625)"/>
       <path id="DejaVuSans-65" d="M 3597 1894 
L 3597 1613 
L 953 1613 
Q 991 1019 1311 708 
Q 1631 397 2203 397 
Q 2534 397 2845 478 
Q 3156 559 3463 722 
L 3463 178 
Q 3153 47 2828 -22 
Q 2503 -91 2169 -91 
Q 1331 -91 842 396 
Q 353 884 353 1716 
Q 353 2575 817 3079 
Q 1281 3584 2069 3584 
Q 2775 3584 3186 3129 
Q 3597 2675 3597 1894 
z
M 3022 2063 
Q 3016 2534 2758 2815 
Q 2500 3097 2075 3097 
Q 1594 3097 1305 2825 
Q 1016 2553 972 2059 
L 3022 2063 
z
" transform="scale(0.015625)"/>
       <path id="DejaVuSans-73" d="M 2834 3397 
L 2834 2853 
Q 2591 2978 2328 3040 
Q 2066 3103 1784 3103 
Q 1356 3103 1142 2972 
Q 928 2841 928 2578 
Q 928 2378 1081 2264 
Q 1234 2150 1697 2047 
L 1894 2003 
Q 2506 1872 2764 1633 
Q 3022 1394 3022 966 
Q 3022 478 2636 193 
Q 2250 -91 1575 -91 
Q 1294 -91 989 -36 
Q 684 19 347 128 
L 347 722 
Q 666 556 975 473 
Q 1284 391 1588 391 
Q 1994 391 2212 530 
Q 2431 669 2431 922 
Q 2431 1156 2273 1281 
Q 2116 1406 1581 1522 
L 1381 1569 
Q 847 1681 609 1914 
Q 372 2147 372 2553 
Q 372 3047 722 3315 
Q 1072 3584 1716 3584 
Q 2034 3584 2315 3537 
Q 2597 3491 2834 3397 
z
" transform="scale(0.015625)"/>
      </defs>
      <use xlink:href="#DejaVuSans-69"/>
      <use xlink:href="#DejaVuSans-6e" x="27.783203"/>
      <use xlink:href="#DejaVuSans-74" x="91.162109"/>
      <use xlink:href="#DejaVuSans-65" x="130.371094"/>
      <use xlink:href="#DejaVuSans-6e" x="191.894531"/>
      <use xlink:href="#DejaVuSans-73" x="255.273438"/>
      <use xlink:href="#DejaVuSans-69" x="307.373047"/>
      <use xlink:href="#DejaVuSans-74" x="335.15625"/>
      <use xlink:href="#DejaVuSans-69" x="374.365234"/>
      <use xlink:href="#DejaVuSans-65" x="402.148438"/>
      <use xlink:href="#DejaVuSans-73" x="463.671875"/>
     </g>
    </g>
    <g id="text_14">
     <!-- 1e6 -->
     <g transform="translate(57.6 38.472) scale(0.1 -0.1)">
      <use xlink:href="#DejaVuSans-31"/>
      <use xlink:href="#DejaVuSans-65" x="63.623047"/>
      <use xlink:href="#DejaVuSans-36" x="125.146484"/>
     </g>
    </g>
   </g>
   <g id="patch_114">
    <path d="M 57.6 307.584 
L 57.6 41.472 
" style="fill: none; stroke: #000000; stroke-width: 0.8; stroke-linejoin: miter; stroke-linecap: square"/>
   </g>
   <g id="patch_115">
    <path d="M 414.72 307.584 
L 414.72 41.472 
" style="fill: none; stroke: #000000; stroke-width: 0.8; stroke-linejoin: miter; stroke-linecap: square"/>
   </g>
   <g id="patch_116">
    <path d="M 57.6 307.584 
L 414.72 307.584 
" style="fill: none; stroke: #000000; stroke-width: 0.8; stroke-linejoin: miter; stroke-linecap: square"/>
   </g>
   <g id="patch_117">
    <path d="M 57.6 41.472 
L 414.72 41.472 
" style="fill: none; stroke: #000000; stroke-width: 0.8; stroke-linejoin: miter; stroke-linecap: square"/>
   </g>
   <g id="text_15">
    <!-- 109.0452 -->
    <g transform="translate(125.021299 69.623613) scale(0.06 -0.06)">
     <defs>
      <path id="DejaVuSans-39" d="M 703 97 
L 703 672 
Q 941 559 1184 500 
Q 1428 441 1663 441 
Q 2288 441 2617 861 
Q 2947 1281 2994 2138 
Q 2813 1869 2534 1725 
Q 2256 1581 1919 1581 
Q 1219 1581 811 2004 
Q 403 2428 403 3163 
Q 403 3881 828 4315 
Q 1253 4750 1959 4750 
Q 2769 4750 3195 4129 
Q 3622 3509 3622 2328 
Q 3622 1225 3098 567 
Q 2575 -91 1691 -91 
Q 1453 -91 1209 -44 
Q 966 3 703 97 
z
M 1959 2075 
Q 2384 2075 2632 2365 
Q 2881 2656 2881 3163 
Q 2881 3666 2632 3958 
Q 2384 4250 1959 4250 
Q 1534 4250 1286 3958 
Q 1038 3666 1038 3163 
Q 1038 2656 1286 2365 
Q 1534 2075 1959 2075 
z
" transform="scale(0.015625)"/>
      <path id="DejaVuSans-2e" d="M 684 794 
L 1344 794 
L 1344 0 
L 684 0 
L 684 794 
z
" transform="scale(0.015625)"/>
     </defs>
     <use xlink:href="#DejaVuSans-31"/>
     <use xlink:href="#DejaVuSans-30" x="63.623047"/>
     <use xlink:href="#DejaVuSans-39" x="127.246094"/>
     <use xlink:href="#DejaVuSans-2e" x="190.869141"/>
     <use xlink:href="#DejaVuSans-30" x="222.65625"/>
     <use xlink:href="#DejaVuSans-34" x="286.279297"/>
     <use xlink:href="#DejaVuSans-35" x="349.902344"/>
     <use xlink:href="#DejaVuSans-32" x="413.525391"/>
    </g>
   </g>
   <g id="text_16">
    <!-- 116.0497 -->
    <g transform="translate(133.389144 272.145732) scale(0.06 -0.06)">
     <defs>
      <path id="DejaVuSans-37" d="M 525 4666 
L 3525 4666 
L 3525 4397 
L 1831 0 
L 1172 0 
L 2766 4134 
L 525 4134 
L 525 4666 
z
" transform="scale(0.015625)"/>
     </defs>
     <use xlink:href="#DejaVuSans-31"/>
     <use xlink:href="#DejaVuSans-31" x="63.623047"/>
     <use xlink:href="#DejaVuSans-36" x="127.246094"/>
     <use xlink:href="#DejaVuSans-2e" x="190.869141"/>
     <use xlink:href="#DejaVuSans-30" x="222.65625"/>
     <use xlink:href="#DejaVuSans-34" x="286.279297"/>
     <use xlink:href="#DejaVuSans-39" x="349.902344"/>
     <use xlink:href="#DejaVuSans-37" x="413.525391"/>
    </g>
   </g>
   <g id="text_17">
    <!-- 234.071 -->
    <g transform="translate(276.29253 274.210774) scale(0.06 -0.06)">
     <use xlink:href="#DejaVuSans-32"/>
     <use xlink:href="#DejaVuSans-33" x="63.623047"/>
     <use xlink:href="#DejaVuSans-34" x="127.246094"/>
     <use xlink:href="#DejaVuSans-2e" x="190.869141"/>
     <use xlink:href="#DejaVuSans-30" x="222.65625"/>
     <use xlink:href="#DejaVuSans-37" x="286.279297"/>
     <use xlink:href="#DejaVuSans-31" x="349.902344"/>
    </g>
   </g>
   <g id="text_18">
    <!-- 262.1023 -->
    <g transform="translate(307.871457 214.36214) scale(0.06 -0.06)">
     <use xlink:href="#DejaVuSans-32"/>
     <use xlink:href="#DejaVuSans-36" x="63.623047"/>
     <use xlink:href="#DejaVuSans-32" x="127.246094"/>
     <use xlink:href="#DejaVuSans-2e" x="190.869141"/>
     <use xlink:href="#DejaVuSans-31" x="222.65625"/>
     <use xlink:href="#DejaVuSans-30" x="286.279297"/>
     <use xlink:href="#DejaVuSans-32" x="349.902344"/>
     <use xlink:href="#DejaVuSans-33" x="413.525391"/>
    </g>
   </g>
   <g id="text_19">
    <!-- 325.1708 -->
    <g transform="translate(383.216533 50.939625) scale(0.06 -0.06)">
     <use xlink:href="#DejaVuSans-33"/>
     <use xlink:href="#DejaVuSans-32" x="63.623047"/>
     <use xlink:href="#DejaVuSans-35" x="127.246094"/>
     <use xlink:href="#DejaVuSans-2e" x="190.869141"/>
     <use xlink:href="#DejaVuSans-31" x="222.65625"/>
     <use xlink:href="#DejaVuSans-37" x="286.279297"/>
     <use xlink:href="#DejaVuSans-30" x="349.902344"/>
     <use xlink:href="#DejaVuSans-38" x="413.525391"/>
    </g>
   </g>
   <g id="text_20">
    <!-- 326.1738 -->
    <g transform="translate(384.414724 265.686522) scale(0.06 -0.06)">
     <use xlink:href="#DejaVuSans-33"/>
     <use xlink:href="#DejaVuSans-32" x="63.623047"/>
     <use xlink:href="#DejaVuSans-36" x="127.246094"/>
     <use xlink:href="#DejaVuSans-2e" x="190.869141"/>
     <use xlink:href="#DejaVuSans-31" x="222.65625"/>
     <use xlink:href="#DejaVuSans-37" x="286.279297"/>
     <use xlink:href="#DejaVuSans-33" x="349.902344"/>
     <use xlink:href="#DejaVuSans-38" x="413.525391"/>
    </g>
   </g>
   <g id="text_21">
    <!-- MS2 spectrum of ${m/z}$ 325.17, scan time 6.47 min. -->
    <g transform="translate(57.6 24.873562) scale(0.12 -0.12)">
     <defs>
      <path id="DejaVuSans-4d" d="M 628 4666 
L 1569 4666 
L 2759 1491 
L 3956 4666 
L 4897 4666 
L 4897 0 
L 4281 0 
L 4281 4097 
L 3078 897 
L 2444 897 
L 1241 4097 
L 1241 0 
L 628 0 
L 628 4666 
z
" transform="scale(0.015625)"/>
      <path id="DejaVuSans-53" d="M 3425 4513 
L 3425 3897 
Q 3066 4069 2747 4153 
Q 2428 4238 2131 4238 
Q 1616 4238 1336 4038 
Q 1056 3838 1056 3469 
Q 1056 3159 1242 3001 
Q 1428 2844 1947 2747 
L 2328 2669 
Q 3034 2534 3370 2195 
Q 3706 1856 3706 1288 
Q 3706 609 3251 259 
Q 2797 -91 1919 -91 
Q 1588 -91 1214 -16 
Q 841 59 441 206 
L 441 856 
Q 825 641 1194 531 
Q 1563 422 1919 422 
Q 2459 422 2753 634 
Q 3047 847 3047 1241 
Q 3047 1584 2836 1778 
Q 2625 1972 2144 2069 
L 1759 2144 
Q 1053 2284 737 2584 
Q 422 2884 422 3419 
Q 422 4038 858 4394 
Q 1294 4750 2059 4750 
Q 2388 4750 2728 4690 
Q 3069 4631 3425 4513 
z
" transform="scale(0.015625)"/>
      <path id="DejaVuSans-20" transform="scale(0.015625)"/>
      <path id="DejaVuSans-70" d="M 1159 525 
L 1159 -1331 
L 581 -1331 
L 581 3500 
L 1159 3500 
L 1159 2969 
Q 1341 3281 1617 3432 
Q 1894 3584 2278 3584 
Q 2916 3584 3314 3078 
Q 3713 2572 3713 1747 
Q 3713 922 3314 415 
Q 2916 -91 2278 -91 
Q 1894 -91 1617 61 
Q 1341 213 1159 525 
z
M 3116 1747 
Q 3116 2381 2855 2742 
Q 2594 3103 2138 3103 
Q 1681 3103 1420 2742 
Q 1159 2381 1159 1747 
Q 1159 1113 1420 752 
Q 1681 391 2138 391 
Q 2594 391 2855 752 
Q 3116 1113 3116 1747 
z
" transform="scale(0.015625)"/>
      <path id="DejaVuSans-63" d="M 3122 3366 
L 3122 2828 
Q 2878 2963 2633 3030 
Q 2388 3097 2138 3097 
Q 1578 3097 1268 2742 
Q 959 2388 959 1747 
Q 959 1106 1268 751 
Q 1578 397 2138 397 
Q 2388 397 2633 464 
Q 2878 531 3122 666 
L 3122 134 
Q 2881 22 2623 -34 
Q 2366 -91 2075 -91 
Q 1284 -91 818 406 
Q 353 903 353 1747 
Q 353 2603 823 3093 
Q 1294 3584 2113 3584 
Q 2378 3584 2631 3529 
Q 2884 3475 3122 3366 
z
" transform="scale(0.015625)"/>
      <path id="DejaVuSans-72" d="M 2631 2963 
Q 2534 3019 2420 3045 
Q 2306 3072 2169 3072 
Q 1681 3072 1420 2755 
Q 1159 2438 1159 1844 
L 1159 0 
L 581 0 
L 581 3500 
L 1159 3500 
L 1159 2956 
Q 1341 3275 1631 3429 
Q 1922 3584 2338 3584 
Q 2397 3584 2469 3576 
Q 2541 3569 2628 3553 
L 2631 2963 
z
" transform="scale(0.015625)"/>
      <path id="DejaVuSans-75" d="M 544 1381 
L 544 3500 
L 1119 3500 
L 1119 1403 
Q 1119 906 1312 657 
Q 1506 409 1894 409 
Q 2359 409 2629 706 
Q 2900 1003 2900 1516 
L 2900 3500 
L 3475 3500 
L 3475 0 
L 2900 0 
L 2900 538 
Q 2691 219 2414 64 
Q 2138 -91 1772 -91 
Q 1169 -91 856 284 
Q 544 659 544 1381 
z
M 1991 3584 
L 1991 3584 
z
" transform="scale(0.015625)"/>
      <path id="DejaVuSans-6d" d="M 3328 2828 
Q 3544 3216 3844 3400 
Q 4144 3584 4550 3584 
Q 5097 3584 5394 3201 
Q 5691 2819 5691 2113 
L 5691 0 
L 5113 0 
L 5113 2094 
Q 5113 2597 4934 2840 
Q 4756 3084 4391 3084 
Q 3944 3084 3684 2787 
Q 3425 2491 3425 1978 
L 3425 0 
L 2847 0 
L 2847 2094 
Q 2847 2600 2669 2842 
Q 2491 3084 2119 3084 
Q 1678 3084 1418 2786 
Q 1159 2488 1159 1978 
L 1159 0 
L 581 0 
L 581 3500 
L 1159 3500 
L 1159 2956 
Q 1356 3278 1631 3431 
Q 1906 3584 2284 3584 
Q 2666 3584 2933 3390 
Q 3200 3197 3328 2828 
z
" transform="scale(0.015625)"/>
      <path id="DejaVuSans-6f" d="M 1959 3097 
Q 1497 3097 1228 2736 
Q 959 2375 959 1747 
Q 959 1119 1226 758 
Q 1494 397 1959 397 
Q 2419 397 2687 759 
Q 2956 1122 2956 1747 
Q 2956 2369 2687 2733 
Q 2419 3097 1959 3097 
z
M 1959 3584 
Q 2709 3584 3137 3096 
Q 3566 2609 3566 1747 
Q 3566 888 3137 398 
Q 2709 -91 1959 -91 
Q 1206 -91 779 398 
Q 353 888 353 1747 
Q 353 2609 779 3096 
Q 1206 3584 1959 3584 
z
" transform="scale(0.015625)"/>
      <path id="DejaVuSans-66" d="M 2375 4863 
L 2375 4384 
L 1825 4384 
Q 1516 4384 1395 4259 
Q 1275 4134 1275 3809 
L 1275 3500 
L 2222 3500 
L 2222 3053 
L 1275 3053 
L 1275 0 
L 697 0 
L 697 3053 
L 147 3053 
L 147 3500 
L 697 3500 
L 697 3744 
Q 697 4328 969 4595 
Q 1241 4863 1831 4863 
L 2375 4863 
z
" transform="scale(0.015625)"/>
      <path id="DejaVuSans-2c" d="M 750 794 
L 1409 794 
L 1409 256 
L 897 -744 
L 494 -744 
L 750 256 
L 750 794 
z
" transform="scale(0.015625)"/>
      <path id="DejaVuSans-61" d="M 2194 1759 
Q 1497 1759 1228 1600 
Q 959 1441 959 1056 
Q 959 750 1161 570 
Q 1363 391 1709 391 
Q 2188 391 2477 730 
Q 2766 1069 2766 1631 
L 2766 1759 
L 2194 1759 
z
M 3341 1997 
L 3341 0 
L 2766 0 
L 2766 531 
Q 2569 213 2275 61 
Q 1981 -91 1556 -91 
Q 1019 -91 701 211 
Q 384 513 384 1019 
Q 384 1609 779 1909 
Q 1175 2209 1959 2209 
L 2766 2209 
L 2766 2266 
Q 2766 2663 2505 2880 
Q 2244 3097 1772 3097 
Q 1472 3097 1187 3025 
Q 903 2953 641 2809 
L 641 3341 
Q 956 3463 1253 3523 
Q 1550 3584 1831 3584 
Q 2591 3584 2966 3190 
Q 3341 2797 3341 1997 
z
" transform="scale(0.015625)"/>
     </defs>
     <use xlink:href="#DejaVuSans-4d" transform="translate(0 0.015625)"/>
     <use xlink:href="#DejaVuSans-53" transform="translate(86.279297 0.015625)"/>
     <use xlink:href="#DejaVuSans-32" transform="translate(149.755859 0.015625)"/>
     <use xlink:href="#DejaVuSans-20" transform="translate(213.378906 0.015625)"/>
     <use xlink:href="#DejaVuSans-73" transform="translate(245.166016 0.015625)"/>
     <use xlink:href="#DejaVuSans-70" transform="translate(297.265625 0.015625)"/>
     <use xlink:href="#DejaVuSans-65" transform="translate(360.742188 0.015625)"/>
     <use xlink:href="#DejaVuSans-63" transform="translate(422.265625 0.015625)"/>
     <use xlink:href="#DejaVuSans-74" transform="translate(477.246094 0.015625)"/>
     <use xlink:href="#DejaVuSans-72" transform="translate(516.455078 0.015625)"/>
     <use xlink:href="#DejaVuSans-75" transform="translate(557.568359 0.015625)"/>
     <use xlink:href="#DejaVuSans-6d" transform="translate(620.947266 0.015625)"/>
     <use xlink:href="#DejaVuSans-20" transform="translate(718.359375 0.015625)"/>
     <use xlink:href="#DejaVuSans-6f" transform="translate(750.146484 0.015625)"/>
     <use xlink:href="#DejaVuSans-66" transform="translate(811.328125 0.015625)"/>
     <use xlink:href="#DejaVuSans-20" transform="translate(846.533203 0.015625)"/>
     <use xlink:href="#DejaVuSans-Oblique-6d" transform="translate(878.320312 0.015625)"/>
     <use xlink:href="#DejaVuSans-2f" transform="translate(975.732422 0.015625)"/>
     <use xlink:href="#DejaVuSans-Oblique-7a" transform="translate(1009.423828 0.015625)"/>
     <use xlink:href="#DejaVuSans-20" transform="translate(1061.914062 0.015625)"/>
     <use xlink:href="#DejaVuSans-33" transform="translate(1093.701172 0.015625)"/>
     <use xlink:href="#DejaVuSans-32" transform="translate(1157.324219 0.015625)"/>
     <use xlink:href="#DejaVuSans-35" transform="translate(1220.947266 0.015625)"/>
     <use xlink:href="#DejaVuSans-2e" transform="translate(1284.570312 0.015625)"/>
     <use xlink:href="#DejaVuSans-31" transform="translate(1316.357422 0.015625)"/>
     <use xlink:href="#DejaVuSans-37" transform="translate(1379.980469 0.015625)"/>
     <use xlink:href="#DejaVuSans-2c" transform="translate(1443.603516 0.015625)"/>
     <use xlink:href="#DejaVuSans-20" transform="translate(1475.390625 0.015625)"/>
     <use xlink:href="#DejaVuSans-73" transform="translate(1507.177734 0.015625)"/>
     <use xlink:href="#DejaVuSans-63" transform="translate(1559.277344 0.015625)"/>
     <use xlink:href="#DejaVuSans-61" transform="translate(1614.257812 0.015625)"/>
     <use xlink:href="#DejaVuSans-6e" transform="translate(1675.537109 0.015625)"/>
     <use xlink:href="#DejaVuSans-20" transform="translate(1738.916016 0.015625)"/>
     <use xlink:href="#DejaVuSans-74" transform="translate(1770.703125 0.015625)"/>
     <use xlink:href="#DejaVuSans-69" transform="translate(1809.912109 0.015625)"/>
     <use xlink:href="#DejaVuSans-6d" transform="translate(1837.695312 0.015625)"/>
     <use xlink:href="#DejaVuSans-65" transform="translate(1935.107422 0.015625)"/>
     <use xlink:href="#DejaVuSans-20" transform="translate(1996.630859 0.015625)"/>
     <use xlink:href="#DejaVuSans-36" transform="translate(2028.417969 0.015625)"/>
     <use xlink:href="#DejaVuSans-2e" transform="translate(2092.041016 0.015625)"/>
     <use xlink:href="#DejaVuSans-34" transform="translate(2123.828125 0.015625)"/>
     <use xlink:href="#DejaVuSans-37" transform="translate(2187.451172 0.015625)"/>
     <use xlink:href="#DejaVuSans-20" transform="translate(2251.074219 0.015625)"/>
     <use xlink:href="#DejaVuSans-6d" transform="translate(2282.861328 0.015625)"/>
     <use xlink:href="#DejaVuSans-69" transform="translate(2380.273438 0.015625)"/>
     <use xlink:href="#DejaVuSans-6e" transform="translate(2408.056641 0.015625)"/>
     <use xlink:href="#DejaVuSans-2e" transform="translate(2471.435547 0.015625)"/>
    </g>
   </g>
  </g>
 </g>
 <defs>
  <clipPath id="p324d6e1022">
   <rect x="57.6" y="41.472" width="357.12" height="266.112"/>
  </clipPath>
 </defs>
</svg>
