<?xml version="1.0" encoding="utf-8" standalone="no"?>
<!DOCTYPE svg PUBLIC "-//W3C//DTD SVG 1.1//EN"
  "http://www.w3.org/Graphics/SVG/1.1/DTD/svg11.dtd">
<svg xmlns:xlink="http://www.w3.org/1999/xlink" width="460.8pt" height="345.6pt" viewBox="0 0 460.8 345.6" xmlns="http://www.w3.org/2000/svg" version="1.1">
 <metadata>
  <rdf:RDF xmlns:dc="http://purl.org/dc/elements/1.1/" xmlns:cc="http://creativecommons.org/ns#" xmlns:rdf="http://www.w3.org/1999/02/22-rdf-syntax-ns#">
   <cc:Work>
    <dc:type rdf:resource="http://purl.org/dc/dcmitype/StillImage"/>
    <dc:date>2025-01-11T12:36:56.005905</dc:date>
    <dc:format>image/svg+xml</dc:format>
    <dc:creator>
     <cc:Agent>
      <dc:title>Matplotlib v3.7.3, https://matplotlib.org/</dc:title>
     </cc:Agent>
    </dc:creator>
   </cc:Work>
  </rdf:RDF>
 </metadata>
 <defs>
  <style type="text/css">*{stroke-linejoin: round; stroke-linecap: butt}</style>
 </defs>
 <g id="figure_1">
  <g id="patch_1">
   <path d="M 0 345.6 
L 460.8 345.6 
L 460.8 0 
L 0 0 
z
" style="fill: #ffffff"/>
  </g>
  <g id="axes_1">
   <g id="patch_2">
    <path d="M 57.6 307.584 
L 414.72 307.584 
L 414.72 41.472 
L 57.6 41.472 
z
" style="fill: #ffffff"/>
   </g>
   <g id="patch_3">
    <path d="M 73.832727 307.584 
L 74.728825 307.584 
L 74.728825 307.10789 
L 73.832727 307.10789 
z
" clip-path="url(#p22dbc3a43b)" style="fill: #1f77b4"/>
   </g>
   <g id="patch_4">
    <path d="M 73.835513 307.584 
L 74.73161 307.584 
L 74.73161 306.871318 
L 73.835513 306.871318 
z
" clip-path="url(#p22dbc3a43b)" style="fill: #1f77b4"/>
   </g>
   <g id="patch_5">
    <path d="M 77.221695 307.584 
L 78.117792 307.584 
L 78.117792 306.436118 
L 77.221695 306.436118 
z
" clip-path="url(#p22dbc3a43b)" style="fill: #1f77b4"/>
   </g>
   <g id="patch_6">
    <path d="M 78.374192 307.584 
L 79.27029 307.584 
L 79.27029 306.482 
L 78.374192 306.482 
z
" clip-path="url(#p22dbc3a43b)" style="fill: #1f77b4"/>
   </g>
   <g id="patch_7">
    <path d="M 78.37729 307.584 
L 79.273388 307.584 
L 79.273388 291.513378 
L 78.37729 291.513378 
z
" clip-path="url(#p22dbc3a43b)" style="fill: #1f77b4"/>
   </g>
   <g id="patch_8">
    <path d="M 94.076669 307.584 
L 94.972767 307.584 
L 94.972767 306.762682 
L 94.076669 306.762682 
z
" clip-path="url(#p22dbc3a43b)" style="fill: #1f77b4"/>
   </g>
   <g id="patch_9">
    <path d="M 94.850445 307.584 
L 95.746542 307.584 
L 95.746542 307.048925 
L 94.850445 307.048925 
z
" clip-path="url(#p22dbc3a43b)" style="fill: #1f77b4"/>
   </g>
   <g id="patch_10">
    <path d="M 102.999075 307.584 
L 103.895172 307.584 
L 103.895172 307.082563 
L 102.999075 307.082563 
z
" clip-path="url(#p22dbc3a43b)" style="fill: #1f77b4"/>
   </g>
   <g id="patch_11">
    <path d="M 104.393048 307.584 
L 105.289145 307.584 
L 105.289145 305.971636 
L 104.393048 305.971636 
z
" clip-path="url(#p22dbc3a43b)" style="fill: #1f77b4"/>
   </g>
   <g id="patch_12">
    <path d="M 106.339938 307.584 
L 107.236035 307.584 
L 107.236035 306.953505 
L 106.339938 306.953505 
z
" clip-path="url(#p22dbc3a43b)" style="fill: #1f77b4"/>
   </g>
   <g id="patch_13">
    <path d="M 106.388991 307.584 
L 107.285088 307.584 
L 107.285088 306.893622 
L 106.388991 306.893622 
z
" clip-path="url(#p22dbc3a43b)" style="fill: #1f77b4"/>
   </g>
   <g id="patch_14">
    <path d="M 107.51753 307.584 
L 108.413627 307.584 
L 108.413627 304.929691 
L 107.51753 304.929691 
z
" clip-path="url(#p22dbc3a43b)" style="fill: #1f77b4"/>
   </g>
   <g id="patch_15">
    <path d="M 120.841509 307.584 
L 121.737606 307.584 
L 121.737606 306.907418 
L 120.841509 306.907418 
z
" clip-path="url(#p22dbc3a43b)" style="fill: #1f77b4"/>
   </g>
   <g id="patch_16">
    <path d="M 135.48019 307.584 
L 136.376287 307.584 
L 136.376287 100.188279 
L 135.48019 100.188279 
z
" clip-path="url(#p22dbc3a43b)" style="fill: #1f77b4"/>
   </g>
   <g id="patch_17">
    <path d="M 136.603875 307.584 
L 137.499973 307.584 
L 137.499973 299.314617 
L 136.603875 299.314617 
z
" clip-path="url(#p22dbc3a43b)" style="fill: #1f77b4"/>
   </g>
   <g id="patch_18">
    <path d="M 143.316743 307.584 
L 144.21284 307.584 
L 144.21284 306.429942 
L 143.316743 306.429942 
z
" clip-path="url(#p22dbc3a43b)" style="fill: #1f77b4"/>
   </g>
   <g id="patch_19">
    <path d="M 143.326092 307.584 
L 144.222189 307.584 
L 144.222189 278.58339 
L 143.326092 278.58339 
z
" clip-path="url(#p22dbc3a43b)" style="fill: #1f77b4"/>
   </g>
   <g id="patch_20">
    <path d="M 144.450119 307.584 
L 145.346216 307.584 
L 145.346216 306.453531 
L 144.450119 306.453531 
z
" clip-path="url(#p22dbc3a43b)" style="fill: #1f77b4"/>
   </g>
   <g id="patch_21">
    <path d="M 148.921187 307.584 
L 149.817285 307.584 
L 149.817285 306.611833 
L 148.921187 306.611833 
z
" clip-path="url(#p22dbc3a43b)" style="fill: #1f77b4"/>
   </g>
   <g id="patch_22">
    <path d="M 151.062333 307.584 
L 151.95843 307.584 
L 151.95843 306.935615 
L 151.062333 306.935615 
z
" clip-path="url(#p22dbc3a43b)" style="fill: #1f77b4"/>
   </g>
   <g id="patch_23">
    <path d="M 151.138639 307.584 
L 152.034736 307.584 
L 152.034736 304.450019 
L 151.138639 304.450019 
z
" clip-path="url(#p22dbc3a43b)" style="fill: #1f77b4"/>
   </g>
   <g id="patch_24">
    <path d="M 151.180001 307.584 
L 152.076098 307.584 
L 152.076098 306.994664 
L 151.180001 306.994664 
z
" clip-path="url(#p22dbc3a43b)" style="fill: #1f77b4"/>
   </g>
   <g id="patch_25">
    <path d="M 153.229116 307.584 
L 154.125213 307.584 
L 154.125213 307.062789 
L 153.229116 307.062789 
z
" clip-path="url(#p22dbc3a43b)" style="fill: #1f77b4"/>
   </g>
   <g id="patch_26">
    <path d="M 157.910148 307.584 
L 158.806245 307.584 
L 158.806245 305.811322 
L 157.910148 305.811322 
z
" clip-path="url(#p22dbc3a43b)" style="fill: #1f77b4"/>
   </g>
   <g id="patch_27">
    <path d="M 159.025005 307.584 
L 159.921102 307.584 
L 159.921102 306.176302 
L 159.025005 306.176302 
z
" clip-path="url(#p22dbc3a43b)" style="fill: #1f77b4"/>
   </g>
   <g id="patch_28">
    <path d="M 166.878333 307.584 
L 167.77443 307.584 
L 167.77443 306.115637 
L 166.878333 306.115637 
z
" clip-path="url(#p22dbc3a43b)" style="fill: #1f77b4"/>
   </g>
   <g id="patch_29">
    <path d="M 170.209009 307.584 
L 171.105107 307.584 
L 171.105107 305.783039 
L 170.209009 305.783039 
z
" clip-path="url(#p22dbc3a43b)" style="fill: #1f77b4"/>
   </g>
   <g id="patch_30">
    <path d="M 172.466908 307.584 
L 173.363005 307.584 
L 173.363005 306.749424 
L 172.466908 306.749424 
z
" clip-path="url(#p22dbc3a43b)" style="fill: #1f77b4"/>
   </g>
   <g id="patch_31">
    <path d="M 174.683531 307.584 
L 175.579628 307.584 
L 175.579628 305.283357 
L 174.683531 305.283357 
z
" clip-path="url(#p22dbc3a43b)" style="fill: #1f77b4"/>
   </g>
   <g id="patch_32">
    <path d="M 185.698584 307.584 
L 186.594681 307.584 
L 186.594681 306.91787 
L 185.698584 306.91787 
z
" clip-path="url(#p22dbc3a43b)" style="fill: #1f77b4"/>
   </g>
   <g id="patch_33">
    <path d="M 185.908196 307.584 
L 186.804293 307.584 
L 186.804293 306.285718 
L 185.908196 306.285718 
z
" clip-path="url(#p22dbc3a43b)" style="fill: #1f77b4"/>
   </g>
   <g id="patch_34">
    <path d="M 186.935749 307.584 
L 187.831846 307.584 
L 187.831846 307.036374 
L 186.935749 307.036374 
z
" clip-path="url(#p22dbc3a43b)" style="fill: #1f77b4"/>
   </g>
   <g id="patch_35">
    <path d="M 188.165565 307.584 
L 189.061662 307.584 
L 189.061662 301.171316 
L 188.165565 301.171316 
z
" clip-path="url(#p22dbc3a43b)" style="fill: #1f77b4"/>
   </g>
   <g id="patch_36">
    <path d="M 188.631724 307.584 
L 189.527821 307.584 
L 189.527821 306.980171 
L 188.631724 306.980171 
z
" clip-path="url(#p22dbc3a43b)" style="fill: #1f77b4"/>
   </g>
   <g id="patch_37">
    <path d="M 191.50301 307.584 
L 192.399107 307.584 
L 192.399107 306.59129 
L 191.50301 306.59129 
z
" clip-path="url(#p22dbc3a43b)" style="fill: #1f77b4"/>
   </g>
   <g id="patch_38">
    <path d="M 199.34933 307.584 
L 200.245427 307.584 
L 200.245427 292.715551 
L 199.34933 292.715551 
z
" clip-path="url(#p22dbc3a43b)" style="fill: #1f77b4"/>
   </g>
   <g id="patch_39">
    <path d="M 200.473964 307.584 
L 201.370061 307.584 
L 201.370061 306.673342 
L 200.473964 306.673342 
z
" clip-path="url(#p22dbc3a43b)" style="fill: #1f77b4"/>
   </g>
   <g id="patch_40">
    <path d="M 201.607485 307.584 
L 202.503583 307.584 
L 202.503583 306.301124 
L 201.607485 306.301124 
z
" clip-path="url(#p22dbc3a43b)" style="fill: #1f77b4"/>
   </g>
   <g id="patch_41">
    <path d="M 216.233177 307.584 
L 217.129274 307.584 
L 217.129274 307.021107 
L 216.233177 307.021107 
z
" clip-path="url(#p22dbc3a43b)" style="fill: #1f77b4"/>
   </g>
   <g id="patch_42">
    <path d="M 219.523414 307.584 
L 220.419512 307.584 
L 220.419512 306.18249 
L 219.523414 306.18249 
z
" clip-path="url(#p22dbc3a43b)" style="fill: #1f77b4"/>
   </g>
   <g id="patch_43">
    <path d="M 226.232385 307.584 
L 227.128482 307.584 
L 227.128482 307.042901 
L 226.232385 307.042901 
z
" clip-path="url(#p22dbc3a43b)" style="fill: #1f77b4"/>
   </g>
   <g id="patch_44">
    <path d="M 254.257592 307.584 
L 255.153689 307.584 
L 255.153689 305.139376 
L 254.257592 305.139376 
z
" clip-path="url(#p22dbc3a43b)" style="fill: #1f77b4"/>
   </g>
   <g id="patch_45">
    <path d="M 257.589738 307.584 
L 258.485835 307.584 
L 258.485835 306.193434 
L 257.589738 306.193434 
z
" clip-path="url(#p22dbc3a43b)" style="fill: #1f77b4"/>
   </g>
   <g id="patch_46">
    <path d="M 259.841484 307.584 
L 260.737581 307.584 
L 260.737581 306.745697 
L 259.841484 306.745697 
z
" clip-path="url(#p22dbc3a43b)" style="fill: #1f77b4"/>
   </g>
   <g id="patch_47">
    <path d="M 260.953983 307.584 
L 261.85008 307.584 
L 261.85008 302.082682 
L 260.953983 302.082682 
z
" clip-path="url(#p22dbc3a43b)" style="fill: #1f77b4"/>
   </g>
   <g id="patch_48">
    <path d="M 262.08171 307.584 
L 262.977807 307.584 
L 262.977807 303.520794 
L 262.08171 303.520794 
z
" clip-path="url(#p22dbc3a43b)" style="fill: #1f77b4"/>
   </g>
   <g id="patch_49">
    <path d="M 264.340669 307.584 
L 265.236766 307.584 
L 265.236766 306.691659 
L 264.340669 306.691659 
z
" clip-path="url(#p22dbc3a43b)" style="fill: #1f77b4"/>
   </g>
   <g id="patch_50">
    <path d="M 267.685839 307.584 
L 268.581936 307.584 
L 268.581936 301.846787 
L 267.685839 301.846787 
z
" clip-path="url(#p22dbc3a43b)" style="fill: #1f77b4"/>
   </g>
   <g id="patch_51">
    <path d="M 274.409747 307.584 
L 275.305844 307.584 
L 275.305844 306.108517 
L 274.409747 306.108517 
z
" clip-path="url(#p22dbc3a43b)" style="fill: #1f77b4"/>
   </g>
   <g id="patch_52">
    <path d="M 275.502044 307.584 
L 276.398141 307.584 
L 276.398141 307.231984 
L 275.502044 307.231984 
z
" clip-path="url(#p22dbc3a43b)" style="fill: #1f77b4"/>
   </g>
   <g id="patch_53">
    <path d="M 275.524451 307.584 
L 276.420548 307.584 
L 276.420548 282.375834 
L 275.524451 282.375834 
z
" clip-path="url(#p22dbc3a43b)" style="fill: #1f77b4"/>
   </g>
   <g id="patch_54">
    <path d="M 276.648059 307.584 
L 277.544156 307.584 
L 277.544156 305.375835 
L 276.648059 305.375835 
z
" clip-path="url(#p22dbc3a43b)" style="fill: #1f77b4"/>
   </g>
   <g id="patch_55">
    <path d="M 276.671765 307.584 
L 277.567862 307.584 
L 277.567862 304.646777 
L 276.671765 304.646777 
z
" clip-path="url(#p22dbc3a43b)" style="fill: #1f77b4"/>
   </g>
   <g id="patch_56">
    <path d="M 277.78076 307.584 
L 278.676857 307.584 
L 278.676857 304.732941 
L 277.78076 304.732941 
z
" clip-path="url(#p22dbc3a43b)" style="fill: #1f77b4"/>
   </g>
   <g id="patch_57">
    <path d="M 279.999006 307.584 
L 280.895103 307.584 
L 280.895103 303.727807 
L 279.999006 303.727807 
z
" clip-path="url(#p22dbc3a43b)" style="fill: #1f77b4"/>
   </g>
   <g id="patch_58">
    <path d="M 282.255247 307.584 
L 283.151344 307.584 
L 283.151344 305.846396 
L 282.255247 305.846396 
z
" clip-path="url(#p22dbc3a43b)" style="fill: #1f77b4"/>
   </g>
   <g id="patch_59">
    <path d="M 283.384462 307.584 
L 284.280559 307.584 
L 284.280559 306.298236 
L 283.384462 306.298236 
z
" clip-path="url(#p22dbc3a43b)" style="fill: #1f77b4"/>
   </g>
   <g id="patch_60">
    <path d="M 284.513385 307.584 
L 285.409483 307.584 
L 285.409483 301.566325 
L 284.513385 301.566325 
z
" clip-path="url(#p22dbc3a43b)" style="fill: #1f77b4"/>
   </g>
   <g id="patch_61">
    <path d="M 287.852009 307.584 
L 288.748107 307.584 
L 288.748107 306.454366 
L 287.852009 306.454366 
z
" clip-path="url(#p22dbc3a43b)" style="fill: #1f77b4"/>
   </g>
   <g id="patch_62">
    <path d="M 288.963243 307.584 
L 289.859341 307.584 
L 289.859341 306.476458 
L 288.963243 306.476458 
z
" clip-path="url(#p22dbc3a43b)" style="fill: #1f77b4"/>
   </g>
   <g id="patch_63">
    <path d="M 290.094406 307.584 
L 290.990503 307.584 
L 290.990503 291.958465 
L 290.094406 291.958465 
z
" clip-path="url(#p22dbc3a43b)" style="fill: #1f77b4"/>
   </g>
   <g id="patch_64">
    <path d="M 291.217946 307.584 
L 292.114043 307.584 
L 292.114043 306.469263 
L 291.217946 306.469263 
z
" clip-path="url(#p22dbc3a43b)" style="fill: #1f77b4"/>
   </g>
   <g id="patch_65">
    <path d="M 293.48087 307.584 
L 294.376967 307.584 
L 294.376967 303.909855 
L 293.48087 303.909855 
z
" clip-path="url(#p22dbc3a43b)" style="fill: #1f77b4"/>
   </g>
   <g id="patch_66">
    <path d="M 304.665626 307.584 
L 305.561723 307.584 
L 305.561723 305.605993 
L 304.665626 305.605993 
z
" clip-path="url(#p22dbc3a43b)" style="fill: #1f77b4"/>
   </g>
   <g id="patch_67">
    <path d="M 305.794943 307.584 
L 306.69104 307.584 
L 306.69104 306.004794 
L 305.794943 306.004794 
z
" clip-path="url(#p22dbc3a43b)" style="fill: #1f77b4"/>
   </g>
   <g id="patch_68">
    <path d="M 306.898828 307.584 
L 307.794925 307.584 
L 307.794925 306.236949 
L 306.898828 306.236949 
z
" clip-path="url(#p22dbc3a43b)" style="fill: #1f77b4"/>
   </g>
   <g id="patch_69">
    <path d="M 306.92279 307.584 
L 307.818887 307.584 
L 307.818887 223.094681 
L 306.92279 223.094681 
z
" clip-path="url(#p22dbc3a43b)" style="fill: #1f77b4"/>
   </g>
   <g id="patch_70">
    <path d="M 308.046774 307.584 
L 308.942872 307.584 
L 308.942872 295.852918 
L 308.046774 295.852918 
z
" clip-path="url(#p22dbc3a43b)" style="fill: #1f77b4"/>
   </g>
   <g id="patch_71">
    <path d="M 308.076787 307.584 
L 308.972885 307.584 
L 308.972885 307.196317 
L 308.076787 307.196317 
z
" clip-path="url(#p22dbc3a43b)" style="fill: #1f77b4"/>
   </g>
   <g id="patch_72">
    <path d="M 327.09684 307.584 
L 327.992937 307.584 
L 327.992937 299.141265 
L 327.09684 299.141265 
z
" clip-path="url(#p22dbc3a43b)" style="fill: #1f77b4"/>
   </g>
   <g id="patch_73">
    <path d="M 328.2212 307.584 
L 329.117298 307.584 
L 329.117298 306.728428 
L 328.2212 306.728428 
z
" clip-path="url(#p22dbc3a43b)" style="fill: #1f77b4"/>
   </g>
   <g id="patch_74">
    <path d="M 357.392867 307.584 
L 358.288965 307.584 
L 358.288965 299.757746 
L 357.392867 299.757746 
z
" clip-path="url(#p22dbc3a43b)" style="fill: #1f77b4"/>
   </g>
   <g id="patch_75">
    <path d="M 358.51586 307.584 
L 359.411958 307.584 
L 359.411958 306.278656 
L 358.51586 306.278656 
z
" clip-path="url(#p22dbc3a43b)" style="fill: #1f77b4"/>
   </g>
   <g id="patch_76">
    <path d="M 377.47722 307.584 
L 378.373317 307.584 
L 378.373317 305.996839 
L 377.47722 305.996839 
z
" clip-path="url(#p22dbc3a43b)" style="fill: #1f77b4"/>
   </g>
   <g id="patch_77">
    <path d="M 377.567054 307.584 
L 378.463151 307.584 
L 378.463151 54.144 
L 377.567054 54.144 
z
" clip-path="url(#p22dbc3a43b)" style="fill: #1f77b4"/>
   </g>
   <g id="patch_78">
    <path d="M 377.656444 307.584 
L 378.552541 307.584 
L 378.552541 305.746791 
L 377.656444 305.746791 
z
" clip-path="url(#p22dbc3a43b)" style="fill: #1f77b4"/>
   </g>
   <g id="patch_79">
    <path d="M 378.690526 307.584 
L 379.586623 307.584 
L 379.586623 273.422101 
L 378.690526 273.422101 
z
" clip-path="url(#p22dbc3a43b)" style="fill: #1f77b4"/>
   </g>
   <g id="patch_80">
    <path d="M 378.735237 307.584 
L 379.631335 307.584 
L 379.631335 306.443484 
L 378.735237 306.443484 
z
" clip-path="url(#p22dbc3a43b)" style="fill: #1f77b4"/>
   </g>
   <g id="patch_81">
    <path d="M 397.591175 307.584 
L 398.487273 307.584 
L 398.487273 307.023179 
L 397.591175 307.023179 
z
" clip-path="url(#p22dbc3a43b)" style="fill: #1f77b4"/>
   </g>
   <g id="matplotlib.axis_1">
    <g id="xtick_1">
     <g id="line2d_1">
      <defs>
       <path id="m9def34586f" d="M 0 0 
L 0 3.5 
" style="stroke: #000000; stroke-width: 0.8"/>
      </defs>
      <g>
       <use xlink:href="#m9def34586f" x="69.790449" y="307.584" style="stroke: #000000; stroke-width: 0.8"/>
      </g>
     </g>
     <g id="text_1">
      <!-- 50 -->
      <g transform="translate(63.427949 322.182437) scale(0.1 -0.1)">
       <defs>
        <path id="DejaVuSans-35" d="M 691 4666 
L 3169 4666 
L 3169 4134 
L 1269 4134 
L 1269 2991 
Q 1406 3038 1543 3061 
Q 1681 3084 1819 3084 
Q 2600 3084 3056 2656 
Q 3513 2228 3513 1497 
Q 3513 744 3044 326 
Q 2575 -91 1722 -91 
Q 1428 -91 1123 -41 
Q 819 9 494 109 
L 494 744 
Q 775 591 1075 516 
Q 1375 441 1709 441 
Q 2250 441 2565 725 
Q 2881 1009 2881 1497 
Q 2881 1984 2565 2268 
Q 2250 2553 1709 2553 
Q 1456 2553 1204 2497 
Q 953 2441 691 2322 
L 691 4666 
z
" transform="scale(0.015625)"/>
        <path id="DejaVuSans-30" d="M 2034 4250 
Q 1547 4250 1301 3770 
Q 1056 3291 1056 2328 
Q 1056 1369 1301 889 
Q 1547 409 2034 409 
Q 2525 409 2770 889 
Q 3016 1369 3016 2328 
Q 3016 3291 2770 3770 
Q 2525 4250 2034 4250 
z
M 2034 4750 
Q 2819 4750 3233 4129 
Q 3647 3509 3647 2328 
Q 3647 1150 3233 529 
Q 2819 -91 2034 -91 
Q 1250 -91 836 529 
Q 422 1150 422 2328 
Q 422 3509 836 4129 
Q 1250 4750 2034 4750 
z
" transform="scale(0.015625)"/>
       </defs>
       <use xlink:href="#DejaVuSans-35"/>
       <use xlink:href="#DejaVuSans-30" x="63.623047"/>
      </g>
     </g>
    </g>
    <g id="xtick_2">
     <g id="line2d_2">
      <g>
       <use xlink:href="#m9def34586f" x="125.796528" y="307.584" style="stroke: #000000; stroke-width: 0.8"/>
      </g>
     </g>
     <g id="text_2">
      <!-- 100 -->
      <g transform="translate(116.252778 322.182437) scale(0.1 -0.1)">
       <defs>
        <path id="DejaVuSans-31" d="M 794 531 
L 1825 531 
L 1825 4091 
L 703 3866 
L 703 4441 
L 1819 4666 
L 2450 4666 
L 2450 531 
L 3481 531 
L 3481 0 
L 794 0 
L 794 531 
z
" transform="scale(0.015625)"/>
       </defs>
       <use xlink:href="#DejaVuSans-31"/>
       <use xlink:href="#DejaVuSans-30" x="63.623047"/>
       <use xlink:href="#DejaVuSans-30" x="127.246094"/>
      </g>
     </g>
    </g>
    <g id="xtick_3">
     <g id="line2d_3">
      <g>
       <use xlink:href="#m9def34586f" x="181.802606" y="307.584" style="stroke: #000000; stroke-width: 0.8"/>
      </g>
     </g>
     <g id="text_3">
      <!-- 150 -->
      <g transform="translate(172.258856 322.182437) scale(0.1 -0.1)">
       <use xlink:href="#DejaVuSans-31"/>
       <use xlink:href="#DejaVuSans-35" x="63.623047"/>
       <use xlink:href="#DejaVuSans-30" x="127.246094"/>
      </g>
     </g>
    </g>
    <g id="xtick_4">
     <g id="line2d_4">
      <g>
       <use xlink:href="#m9def34586f" x="237.808684" y="307.584" style="stroke: #000000; stroke-width: 0.8"/>
      </g>
     </g>
     <g id="text_4">
      <!-- 200 -->
      <g transform="translate(228.264934 322.182437) scale(0.1 -0.1)">
       <defs>
        <path id="DejaVuSans-32" d="M 1228 531 
L 3431 531 
L 3431 0 
L 469 0 
L 469 531 
Q 828 903 1448 1529 
Q 2069 2156 2228 2338 
Q 2531 2678 2651 2914 
Q 2772 3150 2772 3378 
Q 2772 3750 2511 3984 
Q 2250 4219 1831 4219 
Q 1534 4219 1204 4116 
Q 875 4013 500 3803 
L 500 4441 
Q 881 4594 1212 4672 
Q 1544 4750 1819 4750 
Q 2544 4750 2975 4387 
Q 3406 4025 3406 3419 
Q 3406 3131 3298 2873 
Q 3191 2616 2906 2266 
Q 2828 2175 2409 1742 
Q 1991 1309 1228 531 
z
" transform="scale(0.015625)"/>
       </defs>
       <use xlink:href="#DejaVuSans-32"/>
       <use xlink:href="#DejaVuSans-30" x="63.623047"/>
       <use xlink:href="#DejaVuSans-30" x="127.246094"/>
      </g>
     </g>
    </g>
    <g id="xtick_5">
     <g id="line2d_5">
      <g>
       <use xlink:href="#m9def34586f" x="293.814763" y="307.584" style="stroke: #000000; stroke-width: 0.8"/>
      </g>
     </g>
     <g id="text_5">
      <!-- 250 -->
      <g transform="translate(284.271013 322.182437) scale(0.1 -0.1)">
       <use xlink:href="#DejaVuSans-32"/>
       <use xlink:href="#DejaVuSans-35" x="63.623047"/>
       <use xlink:href="#DejaVuSans-30" x="127.246094"/>
      </g>
     </g>
    </g>
    <g id="xtick_6">
     <g id="line2d_6">
      <g>
       <use xlink:href="#m9def34586f" x="349.820841" y="307.584" style="stroke: #000000; stroke-width: 0.8"/>
      </g>
     </g>
     <g id="text_6">
      <!-- 300 -->
      <g transform="translate(340.277091 322.182437) scale(0.1 -0.1)">
       <defs>
        <path id="DejaVuSans-33" d="M 2597 2516 
Q 3050 2419 3304 2112 
Q 3559 1806 3559 1356 
Q 3559 666 3084 287 
Q 2609 -91 1734 -91 
Q 1441 -91 1130 -33 
Q 819 25 488 141 
L 488 750 
Q 750 597 1062 519 
Q 1375 441 1716 441 
Q 2309 441 2620 675 
Q 2931 909 2931 1356 
Q 2931 1769 2642 2001 
Q 2353 2234 1838 2234 
L 1294 2234 
L 1294 2753 
L 1863 2753 
Q 2328 2753 2575 2939 
Q 2822 3125 2822 3475 
Q 2822 3834 2567 4026 
Q 2313 4219 1838 4219 
Q 1578 4219 1281 4162 
Q 984 4106 628 3988 
L 628 4550 
Q 988 4650 1302 4700 
Q 1616 4750 1894 4750 
Q 2613 4750 3031 4423 
Q 3450 4097 3450 3541 
Q 3450 3153 3228 2886 
Q 3006 2619 2597 2516 
z
" transform="scale(0.015625)"/>
       </defs>
       <use xlink:href="#DejaVuSans-33"/>
       <use xlink:href="#DejaVuSans-30" x="63.623047"/>
       <use xlink:href="#DejaVuSans-30" x="127.246094"/>
      </g>
     </g>
    </g>
    <g id="xtick_7">
     <g id="line2d_7">
      <g>
       <use xlink:href="#m9def34586f" x="405.82692" y="307.584" style="stroke: #000000; stroke-width: 0.8"/>
      </g>
     </g>
     <g id="text_7">
      <!-- 350 -->
      <g transform="translate(396.28317 322.182437) scale(0.1 -0.1)">
       <use xlink:href="#DejaVuSans-33"/>
       <use xlink:href="#DejaVuSans-35" x="63.623047"/>
       <use xlink:href="#DejaVuSans-30" x="127.246094"/>
      </g>
     </g>
    </g>
    <g id="text_8">
     <!-- ${m/z}$ -->
     <g transform="translate(226.96 335.860562) scale(0.1 -0.1)">
      <defs>
       <path id="DejaVuSans-Oblique-6d" d="M 5747 2113 
L 5338 0 
L 4763 0 
L 5166 2094 
Q 5191 2228 5203 2325 
Q 5216 2422 5216 2491 
Q 5216 2772 5059 2928 
Q 4903 3084 4622 3084 
Q 4203 3084 3875 2770 
Q 3547 2456 3450 1953 
L 3066 0 
L 2491 0 
L 2900 2094 
Q 2925 2209 2937 2307 
Q 2950 2406 2950 2484 
Q 2950 2769 2794 2926 
Q 2638 3084 2363 3084 
Q 1938 3084 1609 2770 
Q 1281 2456 1184 1953 
L 800 0 
L 225 0 
L 909 3500 
L 1484 3500 
L 1375 2956 
Q 1609 3263 1923 3423 
Q 2238 3584 2597 3584 
Q 2978 3584 3223 3384 
Q 3469 3184 3519 2828 
Q 3781 3197 4126 3390 
Q 4472 3584 4856 3584 
Q 5306 3584 5551 3325 
Q 5797 3066 5797 2591 
Q 5797 2488 5784 2364 
Q 5772 2241 5747 2113 
z
" transform="scale(0.015625)"/>
       <path id="DejaVuSans-2f" d="M 1625 4666 
L 2156 4666 
L 531 -594 
L 0 -594 
L 1625 4666 
z
" transform="scale(0.015625)"/>
       <path id="DejaVuSans-Oblique-7a" d="M 744 3500 
L 3475 3500 
L 3372 2975 
L 738 459 
L 2913 459 
L 2822 0 
L -19 0 
L 84 525 
L 2719 3041 
L 653 3041 
L 744 3500 
z
" transform="scale(0.015625)"/>
      </defs>
      <use xlink:href="#DejaVuSans-Oblique-6d" transform="translate(0 0.09375)"/>
      <use xlink:href="#DejaVuSans-2f" transform="translate(97.412109 0.09375)"/>
      <use xlink:href="#DejaVuSans-Oblique-7a" transform="translate(131.103516 0.09375)"/>
     </g>
    </g>
   </g>
   <g id="matplotlib.axis_2">
    <g id="ytick_1">
     <g id="line2d_8">
      <defs>
       <path id="m22d34fd4b5" d="M 0 0 
L -3.5 0 
" style="stroke: #000000; stroke-width: 0.8"/>
      </defs>
      <g>
       <use xlink:href="#m22d34fd4b5" x="57.6" y="307.584" style="stroke: #000000; stroke-width: 0.8"/>
      </g>
     </g>
     <g id="text_9">
      <!-- 0 -->
      <g transform="translate(44.2375 311.383219) scale(0.1 -0.1)">
       <use xlink:href="#DejaVuSans-30"/>
      </g>
     </g>
    </g>
    <g id="ytick_2">
     <g id="line2d_9">
      <g>
       <use xlink:href="#m22d34fd4b5" x="57.6" y="271.22808" style="stroke: #000000; stroke-width: 0.8"/>
      </g>
     </g>
     <g id="text_10">
      <!-- 1 -->
      <g transform="translate(44.2375 275.027298) scale(0.1 -0.1)">
       <use xlink:href="#DejaVuSans-31"/>
      </g>
     </g>
    </g>
    <g id="ytick_3">
     <g id="line2d_10">
      <g>
       <use xlink:href="#m22d34fd4b5" x="57.6" y="234.872159" style="stroke: #000000; stroke-width: 0.8"/>
      </g>
     </g>
     <g id="text_11">
      <!-- 2 -->
      <g transform="translate(44.2375 238.671378) scale(0.1 -0.1)">
       <use xlink:href="#DejaVuSans-32"/>
      </g>
     </g>
    </g>
    <g id="ytick_4">
     <g id="line2d_11">
      <g>
       <use xlink:href="#m22d34fd4b5" x="57.6" y="198.516239" style="stroke: #000000; stroke-width: 0.8"/>
      </g>
     </g>
     <g id="text_12">
      <!-- 3 -->
      <g transform="translate(44.2375 202.315458) scale(0.1 -0.1)">
       <use xlink:href="#DejaVuSans-33"/>
      </g>
     </g>
    </g>
    <g id="ytick_5">
     <g id="line2d_12">
      <g>
       <use xlink:href="#m22d34fd4b5" x="57.6" y="162.160319" style="stroke: #000000; stroke-width: 0.8"/>
      </g>
     </g>
     <g id="text_13">
      <!-- 4 -->
      <g transform="translate(44.2375 165.959537) scale(0.1 -0.1)">
       <defs>
        <path id="DejaVuSans-34" d="M 2419 4116 
L 825 1625 
L 2419 1625 
L 2419 4116 
z
M 2253 4666 
L 3047 4666 
L 3047 1625 
L 3713 1625 
L 3713 1100 
L 3047 1100 
L 3047 0 
L 2419 0 
L 2419 1100 
L 313 1100 
L 313 1709 
L 2253 4666 
z
" transform="scale(0.015625)"/>
       </defs>
       <use xlink:href="#DejaVuSans-34"/>
      </g>
     </g>
    </g>
    <g id="ytick_6">
     <g id="line2d_13">
      <g>
       <use xlink:href="#m22d34fd4b5" x="57.6" y="125.804398" style="stroke: #000000; stroke-width: 0.8"/>
      </g>
     </g>
     <g id="text_14">
      <!-- 5 -->
      <g transform="translate(44.2375 129.603617) scale(0.1 -0.1)">
       <use xlink:href="#DejaVuSans-35"/>
      </g>
     </g>
    </g>
    <g id="ytick_7">
     <g id="line2d_14">
      <g>
       <use xlink:href="#m22d34fd4b5" x="57.6" y="89.448478" style="stroke: #000000; stroke-width: 0.8"/>
      </g>
     </g>
     <g id="text_15">
      <!-- 6 -->
      <g transform="translate(44.2375 93.247697) scale(0.1 -0.1)">
       <defs>
        <path id="DejaVuSans-36" d="M 2113 2584 
Q 1688 2584 1439 2293 
Q 1191 2003 1191 1497 
Q 1191 994 1439 701 
Q 1688 409 2113 409 
Q 2538 409 2786 701 
Q 3034 994 3034 1497 
Q 3034 2003 2786 2293 
Q 2538 2584 2113 2584 
z
M 3366 4563 
L 3366 3988 
Q 3128 4100 2886 4159 
Q 2644 4219 2406 4219 
Q 1781 4219 1451 3797 
Q 1122 3375 1075 2522 
Q 1259 2794 1537 2939 
Q 1816 3084 2150 3084 
Q 2853 3084 3261 2657 
Q 3669 2231 3669 1497 
Q 3669 778 3244 343 
Q 2819 -91 2113 -91 
Q 1303 -91 875 529 
Q 447 1150 447 2328 
Q 447 3434 972 4092 
Q 1497 4750 2381 4750 
Q 2619 4750 2861 4703 
Q 3103 4656 3366 4563 
z
" transform="scale(0.015625)"/>
       </defs>
       <use xlink:href="#DejaVuSans-36"/>
      </g>
     </g>
    </g>
    <g id="ytick_8">
     <g id="line2d_15">
      <g>
       <use xlink:href="#m22d34fd4b5" x="57.6" y="53.092558" style="stroke: #000000; stroke-width: 0.8"/>
      </g>
     </g>
     <g id="text_16">
      <!-- 7 -->
      <g transform="translate(44.2375 56.891776) scale(0.1 -0.1)">
       <defs>
        <path id="DejaVuSans-37" d="M 525 4666 
L 3525 4666 
L 3525 4397 
L 1831 0 
L 1172 0 
L 2766 4134 
L 525 4134 
L 525 4666 
z
" transform="scale(0.015625)"/>
       </defs>
       <use xlink:href="#DejaVuSans-37"/>
      </g>
     </g>
    </g>
    <g id="text_17">
     <!-- intensities -->
     <g transform="translate(38.157812 200.3155) rotate(-90) scale(0.1 -0.1)">
      <defs>
       <path id="DejaVuSans-69" d="M 603 3500 
L 1178 3500 
L 1178 0 
L 603 0 
L 603 3500 
z
M 603 4863 
L 1178 4863 
L 1178 4134 
L 603 4134 
L 603 4863 
z
" transform="scale(0.015625)"/>
       <path id="DejaVuSans-6e" d="M 3513 2113 
L 3513 0 
L 2938 0 
L 2938 2094 
Q 2938 2591 2744 2837 
Q 2550 3084 2163 3084 
Q 1697 3084 1428 2787 
Q 1159 2491 1159 1978 
L 1159 0 
L 581 0 
L 581 3500 
L 1159 3500 
L 1159 2956 
Q 1366 3272 1645 3428 
Q 1925 3584 2291 3584 
Q 2894 3584 3203 3211 
Q 3513 2838 3513 2113 
z
" transform="scale(0.015625)"/>
       <path id="DejaVuSans-74" d="M 1172 4494 
L 1172 3500 
L 2356 3500 
L 2356 3053 
L 1172 3053 
L 1172 1153 
Q 1172 725 1289 603 
Q 1406 481 1766 481 
L 2356 481 
L 2356 0 
L 1766 0 
Q 1100 0 847 248 
Q 594 497 594 1153 
L 594 3053 
L 172 3053 
L 172 3500 
L 594 3500 
L 594 4494 
L 1172 4494 
z
" transform="scale(0.015625)"/>
       <path id="DejaVuSans-65" d="M 3597 1894 
L 3597 1613 
L 953 1613 
Q 991 1019 1311 708 
Q 1631 397 2203 397 
Q 2534 397 2845 478 
Q 3156 559 3463 722 
L 3463 178 
Q 3153 47 2828 -22 
Q 2503 -91 2169 -91 
Q 1331 -91 842 396 
Q 353 884 353 1716 
Q 353 2575 817 3079 
Q 1281 3584 2069 3584 
Q 2775 3584 3186 3129 
Q 3597 2675 3597 1894 
z
M 3022 2063 
Q 3016 2534 2758 2815 
Q 2500 3097 2075 3097 
Q 1594 3097 1305 2825 
Q 1016 2553 972 2059 
L 3022 2063 
z
" transform="scale(0.015625)"/>
       <path id="DejaVuSans-73" d="M 2834 3397 
L 2834 2853 
Q 2591 2978 2328 3040 
Q 2066 3103 1784 3103 
Q 1356 3103 1142 2972 
Q 928 2841 928 2578 
Q 928 2378 1081 2264 
Q 1234 2150 1697 2047 
L 1894 2003 
Q 2506 1872 2764 1633 
Q 3022 1394 3022 966 
Q 3022 478 2636 193 
Q 2250 -91 1575 -91 
Q 1294 -91 989 -36 
Q 684 19 347 128 
L 347 722 
Q 666 556 975 473 
Q 1284 391 1588 391 
Q 1994 391 2212 530 
Q 2431 669 2431 922 
Q 2431 1156 2273 1281 
Q 2116 1406 1581 1522 
L 1381 1569 
Q 847 1681 609 1914 
Q 372 2147 372 2553 
Q 372 3047 722 3315 
Q 1072 3584 1716 3584 
Q 2034 3584 2315 3537 
Q 2597 3491 2834 3397 
z
" transform="scale(0.015625)"/>
      </defs>
      <use xlink:href="#DejaVuSans-69"/>
      <use xlink:href="#DejaVuSans-6e" x="27.783203"/>
      <use xlink:href="#DejaVuSans-74" x="91.162109"/>
      <use xlink:href="#DejaVuSans-65" x="130.371094"/>
      <use xlink:href="#DejaVuSans-6e" x="191.894531"/>
      <use xlink:href="#DejaVuSans-73" x="255.273438"/>
      <use xlink:href="#DejaVuSans-69" x="307.373047"/>
      <use xlink:href="#DejaVuSans-74" x="335.15625"/>
      <use xlink:href="#DejaVuSans-69" x="374.365234"/>
      <use xlink:href="#DejaVuSans-65" x="402.148438"/>
      <use xlink:href="#DejaVuSans-73" x="463.671875"/>
     </g>
    </g>
    <g id="text_18">
     <!-- 1e7 -->
     <g transform="translate(57.6 38.472) scale(0.1 -0.1)">
      <use xlink:href="#DejaVuSans-31"/>
      <use xlink:href="#DejaVuSans-65" x="63.623047"/>
      <use xlink:href="#DejaVuSans-37" x="125.146484"/>
     </g>
    </g>
   </g>
   <g id="patch_82">
    <path d="M 57.6 307.584 
L 57.6 41.472 
" style="fill: none; stroke: #000000; stroke-width: 0.8; stroke-linejoin: miter; stroke-linecap: square"/>
   </g>
   <g id="patch_83">
    <path d="M 414.72 307.584 
L 414.72 41.472 
" style="fill: none; stroke: #000000; stroke-width: 0.8; stroke-linejoin: miter; stroke-linecap: square"/>
   </g>
   <g id="patch_84">
    <path d="M 57.6 307.584 
L 414.72 307.584 
" style="fill: none; stroke: #000000; stroke-width: 0.8; stroke-linejoin: miter; stroke-linecap: square"/>
   </g>
   <g id="patch_85">
    <path d="M 57.6 41.472 
L 414.72 41.472 
" style="fill: none; stroke: #000000; stroke-width: 0.8; stroke-linejoin: miter; stroke-linecap: square"/>
   </g>
   <g id="text_19">
    <!-- 109.0452 -->
    <g transform="translate(122.333551 96.983904) scale(0.06 -0.06)">
     <defs>
      <path id="DejaVuSans-39" d="M 703 97 
L 703 672 
Q 941 559 1184 500 
Q 1428 441 1663 441 
Q 2288 441 2617 861 
Q 2947 1281 2994 2138 
Q 2813 1869 2534 1725 
Q 2256 1581 1919 1581 
Q 1219 1581 811 2004 
Q 403 2428 403 3163 
Q 403 3881 828 4315 
Q 1253 4750 1959 4750 
Q 2769 4750 3195 4129 
Q 3622 3509 3622 2328 
Q 3622 1225 3098 567 
Q 2575 -91 1691 -91 
Q 1453 -91 1209 -44 
Q 966 3 703 97 
z
M 1959 2075 
Q 2384 2075 2632 2365 
Q 2881 2656 2881 3163 
Q 2881 3666 2632 3958 
Q 2384 4250 1959 4250 
Q 1534 4250 1286 3958 
Q 1038 3666 1038 3163 
Q 1038 2656 1286 2365 
Q 1534 2075 1959 2075 
z
" transform="scale(0.015625)"/>
      <path id="DejaVuSans-2e" d="M 684 794 
L 1344 794 
L 1344 0 
L 684 0 
L 684 794 
z
" transform="scale(0.015625)"/>
     </defs>
     <use xlink:href="#DejaVuSans-31"/>
     <use xlink:href="#DejaVuSans-30" x="63.623047"/>
     <use xlink:href="#DejaVuSans-39" x="127.246094"/>
     <use xlink:href="#DejaVuSans-2e" x="190.869141"/>
     <use xlink:href="#DejaVuSans-30" x="222.65625"/>
     <use xlink:href="#DejaVuSans-34" x="286.279297"/>
     <use xlink:href="#DejaVuSans-35" x="349.902344"/>
     <use xlink:href="#DejaVuSans-32" x="413.525391"/>
    </g>
   </g>
   <g id="text_20">
    <!-- 116.0497 -->
    <g transform="translate(130.179453 275.379015) scale(0.06 -0.06)">
     <use xlink:href="#DejaVuSans-31"/>
     <use xlink:href="#DejaVuSans-31" x="63.623047"/>
     <use xlink:href="#DejaVuSans-36" x="127.246094"/>
     <use xlink:href="#DejaVuSans-2e" x="190.869141"/>
     <use xlink:href="#DejaVuSans-30" x="222.65625"/>
     <use xlink:href="#DejaVuSans-34" x="286.279297"/>
     <use xlink:href="#DejaVuSans-39" x="349.902344"/>
     <use xlink:href="#DejaVuSans-37" x="413.525391"/>
    </g>
   </g>
   <g id="text_21">
    <!-- 262.1023 -->
    <g transform="translate(293.776151 219.890306) scale(0.06 -0.06)">
     <use xlink:href="#DejaVuSans-32"/>
     <use xlink:href="#DejaVuSans-36" x="63.623047"/>
     <use xlink:href="#DejaVuSans-32" x="127.246094"/>
     <use xlink:href="#DejaVuSans-2e" x="190.869141"/>
     <use xlink:href="#DejaVuSans-31" x="222.65625"/>
     <use xlink:href="#DejaVuSans-30" x="286.279297"/>
     <use xlink:href="#DejaVuSans-32" x="349.902344"/>
     <use xlink:href="#DejaVuSans-33" x="413.525391"/>
    </g>
   </g>
   <g id="text_22">
    <!-- 325.1707 -->
    <g transform="translate(364.420415 50.939625) scale(0.06 -0.06)">
     <use xlink:href="#DejaVuSans-33"/>
     <use xlink:href="#DejaVuSans-32" x="63.623047"/>
     <use xlink:href="#DejaVuSans-35" x="127.246094"/>
     <use xlink:href="#DejaVuSans-2e" x="190.869141"/>
     <use xlink:href="#DejaVuSans-31" x="222.65625"/>
     <use xlink:href="#DejaVuSans-37" x="286.279297"/>
     <use xlink:href="#DejaVuSans-30" x="349.902344"/>
     <use xlink:href="#DejaVuSans-37" x="413.525391"/>
    </g>
   </g>
   <g id="text_23">
    <!-- 326.1737 -->
    <g transform="translate(365.543887 270.217726) scale(0.06 -0.06)">
     <use xlink:href="#DejaVuSans-33"/>
     <use xlink:href="#DejaVuSans-32" x="63.623047"/>
     <use xlink:href="#DejaVuSans-36" x="127.246094"/>
     <use xlink:href="#DejaVuSans-2e" x="190.869141"/>
     <use xlink:href="#DejaVuSans-31" x="222.65625"/>
     <use xlink:href="#DejaVuSans-37" x="286.279297"/>
     <use xlink:href="#DejaVuSans-33" x="349.902344"/>
     <use xlink:href="#DejaVuSans-37" x="413.525391"/>
    </g>
   </g>
   <g id="text_24">
    <!-- MS2 spectrum of ${m/z}$ 325.1705, scan time 6.56 min. -->
    <g transform="translate(57.6 24.873562) scale(0.12 -0.12)">
     <defs>
      <path id="DejaVuSans-4d" d="M 628 4666 
L 1569 4666 
L 2759 1491 
L 3956 4666 
L 4897 4666 
L 4897 0 
L 4281 0 
L 4281 4097 
L 3078 897 
L 2444 897 
L 1241 4097 
L 1241 0 
L 628 0 
L 628 4666 
z
" transform="scale(0.015625)"/>
      <path id="DejaVuSans-53" d="M 3425 4513 
L 3425 3897 
Q 3066 4069 2747 4153 
Q 2428 4238 2131 4238 
Q 1616 4238 1336 4038 
Q 1056 3838 1056 3469 
Q 1056 3159 1242 3001 
Q 1428 2844 1947 2747 
L 2328 2669 
Q 3034 2534 3370 2195 
Q 3706 1856 3706 1288 
Q 3706 609 3251 259 
Q 2797 -91 1919 -91 
Q 1588 -91 1214 -16 
Q 841 59 441 206 
L 441 856 
Q 825 641 1194 531 
Q 1563 422 1919 422 
Q 2459 422 2753 634 
Q 3047 847 3047 1241 
Q 3047 1584 2836 1778 
Q 2625 1972 2144 2069 
L 1759 2144 
Q 1053 2284 737 2584 
Q 422 2884 422 3419 
Q 422 4038 858 4394 
Q 1294 4750 2059 4750 
Q 2388 4750 2728 4690 
Q 3069 4631 3425 4513 
z
" transform="scale(0.015625)"/>
      <path id="DejaVuSans-20" transform="scale(0.015625)"/>
      <path id="DejaVuSans-70" d="M 1159 525 
L 1159 -1331 
L 581 -1331 
L 581 3500 
L 1159 3500 
L 1159 2969 
Q 1341 3281 1617 3432 
Q 1894 3584 2278 3584 
Q 2916 3584 3314 3078 
Q 3713 2572 3713 1747 
Q 3713 922 3314 415 
Q 2916 -91 2278 -91 
Q 1894 -91 1617 61 
Q 1341 213 1159 525 
z
M 3116 1747 
Q 3116 2381 2855 2742 
Q 2594 3103 2138 3103 
Q 1681 3103 1420 2742 
Q 1159 2381 1159 1747 
Q 1159 1113 1420 752 
Q 1681 391 2138 391 
Q 2594 391 2855 752 
Q 3116 1113 3116 1747 
z
" transform="scale(0.015625)"/>
      <path id="DejaVuSans-63" d="M 3122 3366 
L 3122 2828 
Q 2878 2963 2633 3030 
Q 2388 3097 2138 3097 
Q 1578 3097 1268 2742 
Q 959 2388 959 1747 
Q 959 1106 1268 751 
Q 1578 397 2138 397 
Q 2388 397 2633 464 
Q 2878 531 3122 666 
L 3122 134 
Q 2881 22 2623 -34 
Q 2366 -91 2075 -91 
Q 1284 -91 818 406 
Q 353 903 353 1747 
Q 353 2603 823 3093 
Q 1294 3584 2113 3584 
Q 2378 3584 2631 3529 
Q 2884 3475 3122 3366 
z
" transform="scale(0.015625)"/>
      <path id="DejaVuSans-72" d="M 2631 2963 
Q 2534 3019 2420 3045 
Q 2306 3072 2169 3072 
Q 1681 3072 1420 2755 
Q 1159 2438 1159 1844 
L 1159 0 
L 581 0 
L 581 3500 
L 1159 3500 
L 1159 2956 
Q 1341 3275 1631 3429 
Q 1922 3584 2338 3584 
Q 2397 3584 2469 3576 
Q 2541 3569 2628 3553 
L 2631 2963 
z
" transform="scale(0.015625)"/>
      <path id="DejaVuSans-75" d="M 544 1381 
L 544 3500 
L 1119 3500 
L 1119 1403 
Q 1119 906 1312 657 
Q 1506 409 1894 409 
Q 2359 409 2629 706 
Q 2900 1003 2900 1516 
L 2900 3500 
L 3475 3500 
L 3475 0 
L 2900 0 
L 2900 538 
Q 2691 219 2414 64 
Q 2138 -91 1772 -91 
Q 1169 -91 856 284 
Q 544 659 544 1381 
z
M 1991 3584 
L 1991 3584 
z
" transform="scale(0.015625)"/>
      <path id="DejaVuSans-6d" d="M 3328 2828 
Q 3544 3216 3844 3400 
Q 4144 3584 4550 3584 
Q 5097 3584 5394 3201 
Q 5691 2819 5691 2113 
L 5691 0 
L 5113 0 
L 5113 2094 
Q 5113 2597 4934 2840 
Q 4756 3084 4391 3084 
Q 3944 3084 3684 2787 
Q 3425 2491 3425 1978 
L 3425 0 
L 2847 0 
L 2847 2094 
Q 2847 2600 2669 2842 
Q 2491 3084 2119 3084 
Q 1678 3084 1418 2786 
Q 1159 2488 1159 1978 
L 1159 0 
L 581 0 
L 581 3500 
L 1159 3500 
L 1159 2956 
Q 1356 3278 1631 3431 
Q 1906 3584 2284 3584 
Q 2666 3584 2933 3390 
Q 3200 3197 3328 2828 
z
" transform="scale(0.015625)"/>
      <path id="DejaVuSans-6f" d="M 1959 3097 
Q 1497 3097 1228 2736 
Q 959 2375 959 1747 
Q 959 1119 1226 758 
Q 1494 397 1959 397 
Q 2419 397 2687 759 
Q 2956 1122 2956 1747 
Q 2956 2369 2687 2733 
Q 2419 3097 1959 3097 
z
M 1959 3584 
Q 2709 3584 3137 3096 
Q 3566 2609 3566 1747 
Q 3566 888 3137 398 
Q 2709 -91 1959 -91 
Q 1206 -91 779 398 
Q 353 888 353 1747 
Q 353 2609 779 3096 
Q 1206 3584 1959 3584 
z
" transform="scale(0.015625)"/>
      <path id="DejaVuSans-66" d="M 2375 4863 
L 2375 4384 
L 1825 4384 
Q 1516 4384 1395 4259 
Q 1275 4134 1275 3809 
L 1275 3500 
L 2222 3500 
L 2222 3053 
L 1275 3053 
L 1275 0 
L 697 0 
L 697 3053 
L 147 3053 
L 147 3500 
L 697 3500 
L 697 3744 
Q 697 4328 969 4595 
Q 1241 4863 1831 4863 
L 2375 4863 
z
" transform="scale(0.015625)"/>
      <path id="DejaVuSans-2c" d="M 750 794 
L 1409 794 
L 1409 256 
L 897 -744 
L 494 -744 
L 750 256 
L 750 794 
z
" transform="scale(0.015625)"/>
      <path id="DejaVuSans-61" d="M 2194 1759 
Q 1497 1759 1228 1600 
Q 959 1441 959 1056 
Q 959 750 1161 570 
Q 1363 391 1709 391 
Q 2188 391 2477 730 
Q 2766 1069 2766 1631 
L 2766 1759 
L 2194 1759 
z
M 3341 1997 
L 3341 0 
L 2766 0 
L 2766 531 
Q 2569 213 2275 61 
Q 1981 -91 1556 -91 
Q 1019 -91 701 211 
Q 384 513 384 1019 
Q 384 1609 779 1909 
Q 1175 2209 1959 2209 
L 2766 2209 
L 2766 2266 
Q 2766 2663 2505 2880 
Q 2244 3097 1772 3097 
Q 1472 3097 1187 3025 
Q 903 2953 641 2809 
L 641 3341 
Q 956 3463 1253 3523 
Q 1550 3584 1831 3584 
Q 2591 3584 2966 3190 
Q 3341 2797 3341 1997 
z
" transform="scale(0.015625)"/>
     </defs>
     <use xlink:href="#DejaVuSans-4d" transform="translate(0 0.015625)"/>
     <use xlink:href="#DejaVuSans-53" transform="translate(86.279297 0.015625)"/>
     <use xlink:href="#DejaVuSans-32" transform="translate(149.755859 0.015625)"/>
     <use xlink:href="#DejaVuSans-20" transform="translate(213.378906 0.015625)"/>
     <use xlink:href="#DejaVuSans-73" transform="translate(245.166016 0.015625)"/>
     <use xlink:href="#DejaVuSans-70" transform="translate(297.265625 0.015625)"/>
     <use xlink:href="#DejaVuSans-65" transform="translate(360.742188 0.015625)"/>
     <use xlink:href="#DejaVuSans-63" transform="translate(422.265625 0.015625)"/>
     <use xlink:href="#DejaVuSans-74" transform="translate(477.246094 0.015625)"/>
     <use xlink:href="#DejaVuSans-72" transform="translate(516.455078 0.015625)"/>
     <use xlink:href="#DejaVuSans-75" transform="translate(557.568359 0.015625)"/>
     <use xlink:href="#DejaVuSans-6d" transform="translate(620.947266 0.015625)"/>
     <use xlink:href="#DejaVuSans-20" transform="translate(718.359375 0.015625)"/>
     <use xlink:href="#DejaVuSans-6f" transform="translate(750.146484 0.015625)"/>
     <use xlink:href="#DejaVuSans-66" transform="translate(811.328125 0.015625)"/>
     <use xlink:href="#DejaVuSans-20" transform="translate(846.533203 0.015625)"/>
     <use xlink:href="#DejaVuSans-Oblique-6d" transform="translate(878.320312 0.015625)"/>
     <use xlink:href="#DejaVuSans-2f" transform="translate(975.732422 0.015625)"/>
     <use xlink:href="#DejaVuSans-Oblique-7a" transform="translate(1009.423828 0.015625)"/>
     <use xlink:href="#DejaVuSans-20" transform="translate(1061.914062 0.015625)"/>
     <use xlink:href="#DejaVuSans-33" transform="translate(1093.701172 0.015625)"/>
     <use xlink:href="#DejaVuSans-32" transform="translate(1157.324219 0.015625)"/>
     <use xlink:href="#DejaVuSans-35" transform="translate(1220.947266 0.015625)"/>
     <use xlink:href="#DejaVuSans-2e" transform="translate(1284.570312 0.015625)"/>
     <use xlink:href="#DejaVuSans-31" transform="translate(1316.357422 0.015625)"/>
     <use xlink:href="#DejaVuSans-37" transform="translate(1379.980469 0.015625)"/>
     <use xlink:href="#DejaVuSans-30" transform="translate(1443.603516 0.015625)"/>
     <use xlink:href="#DejaVuSans-35" transform="translate(1507.226562 0.015625)"/>
     <use xlink:href="#DejaVuSans-2c" transform="translate(1570.849609 0.015625)"/>
     <use xlink:href="#DejaVuSans-20" transform="translate(1602.636719 0.015625)"/>
     <use xlink:href="#DejaVuSans-73" transform="translate(1634.423828 0.015625)"/>
     <use xlink:href="#DejaVuSans-63" transform="translate(1686.523438 0.015625)"/>
     <use xlink:href="#DejaVuSans-61" transform="translate(1741.503906 0.015625)"/>
     <use xlink:href="#DejaVuSans-6e" transform="translate(1802.783203 0.015625)"/>
     <use xlink:href="#DejaVuSans-20" transform="translate(1866.162109 0.015625)"/>
     <use xlink:href="#DejaVuSans-74" transform="translate(1897.949219 0.015625)"/>
     <use xlink:href="#DejaVuSans-69" transform="translate(1937.158203 0.015625)"/>
     <use xlink:href="#DejaVuSans-6d" transform="translate(1964.941406 0.015625)"/>
     <use xlink:href="#DejaVuSans-65" transform="translate(2062.353516 0.015625)"/>
     <use xlink:href="#DejaVuSans-20" transform="translate(2123.876953 0.015625)"/>
     <use xlink:href="#DejaVuSans-36" transform="translate(2155.664062 0.015625)"/>
     <use xlink:href="#DejaVuSans-2e" transform="translate(2219.287109 0.015625)"/>
     <use xlink:href="#DejaVuSans-35" transform="translate(2251.074219 0.015625)"/>
     <use xlink:href="#DejaVuSans-36" transform="translate(2314.697266 0.015625)"/>
     <use xlink:href="#DejaVuSans-20" transform="translate(2378.320312 0.015625)"/>
     <use xlink:href="#DejaVuSans-6d" transform="translate(2410.107422 0.015625)"/>
     <use xlink:href="#DejaVuSans-69" transform="translate(2507.519531 0.015625)"/>
     <use xlink:href="#DejaVuSans-6e" transform="translate(2535.302734 0.015625)"/>
     <use xlink:href="#DejaVuSans-2e" transform="translate(2598.681641 0.015625)"/>
    </g>
   </g>
  </g>
 </g>
 <defs>
  <clipPath id="p22dbc3a43b">
   <rect x="57.6" y="41.472" width="357.12" height="266.112"/>
  </clipPath>
 </defs>
</svg>
