<?xml version="1.0" encoding="utf-8" standalone="no"?>
<!DOCTYPE svg PUBLIC "-//W3C//DTD SVG 1.1//EN"
  "http://www.w3.org/Graphics/SVG/1.1/DTD/svg11.dtd">
<svg xmlns:xlink="http://www.w3.org/1999/xlink" width="460.8pt" height="345.6pt" viewBox="0 0 460.8 345.6" xmlns="http://www.w3.org/2000/svg" version="1.1">
 <metadata>
  <rdf:RDF xmlns:dc="http://purl.org/dc/elements/1.1/" xmlns:cc="http://creativecommons.org/ns#" xmlns:rdf="http://www.w3.org/1999/02/22-rdf-syntax-ns#">
   <cc:Work>
    <dc:type rdf:resource="http://purl.org/dc/dcmitype/StillImage"/>
    <dc:date>2025-01-11T11:48:36.496441</dc:date>
    <dc:format>image/svg+xml</dc:format>
    <dc:creator>
     <cc:Agent>
      <dc:title>Matplotlib v3.7.3, https://matplotlib.org/</dc:title>
     </cc:Agent>
    </dc:creator>
   </cc:Work>
  </rdf:RDF>
 </metadata>
 <defs>
  <style type="text/css">*{stroke-linejoin: round; stroke-linecap: butt}</style>
 </defs>
 <g id="figure_1">
  <g id="patch_1">
   <path d="M 0 345.6 
L 460.8 345.6 
L 460.8 0 
L 0 0 
z
" style="fill: #ffffff"/>
  </g>
  <g id="axes_1">
   <g id="patch_2">
    <path d="M 57.6 307.584 
L 414.72 307.584 
L 414.72 41.472 
L 57.6 41.472 
z
" style="fill: #ffffff"/>
   </g>
   <g id="patch_3">
    <path d="M 73.832727 307.584 
L 74.877769 307.584 
L 74.877769 307.171379 
L 73.832727 307.171379 
z
" clip-path="url(#p588442255b)" style="fill: #1f77b4"/>
   </g>
   <g id="patch_4">
    <path d="M 75.168893 307.584 
L 76.213935 307.584 
L 76.213935 307.210894 
L 75.168893 307.210894 
z
" clip-path="url(#p588442255b)" style="fill: #1f77b4"/>
   </g>
   <g id="patch_5">
    <path d="M 78.344697 307.584 
L 79.389739 307.584 
L 79.389739 306.844481 
L 78.344697 306.844481 
z
" clip-path="url(#p588442255b)" style="fill: #1f77b4"/>
   </g>
   <g id="patch_6">
    <path d="M 81.025595 307.584 
L 82.070637 307.584 
L 82.070637 263.018436 
L 81.025595 263.018436 
z
" clip-path="url(#p588442255b)" style="fill: #1f77b4"/>
   </g>
   <g id="patch_7">
    <path d="M 81.028829 307.584 
L 82.073871 307.584 
L 82.073871 307.003466 
L 81.028829 307.003466 
z
" clip-path="url(#p588442255b)" style="fill: #1f77b4"/>
   </g>
   <g id="patch_8">
    <path d="M 82.336248 307.584 
L 83.381289 307.584 
L 83.381289 306.548403 
L 82.336248 306.548403 
z
" clip-path="url(#p588442255b)" style="fill: #1f77b4"/>
   </g>
   <g id="patch_9">
    <path d="M 87.831866 307.584 
L 88.876908 307.584 
L 88.876908 306.891378 
L 87.831866 306.891378 
z
" clip-path="url(#p588442255b)" style="fill: #1f77b4"/>
   </g>
   <g id="patch_10">
    <path d="M 87.964198 307.584 
L 89.00924 307.584 
L 89.00924 307.185079 
L 87.964198 307.185079 
z
" clip-path="url(#p588442255b)" style="fill: #1f77b4"/>
   </g>
   <g id="patch_11">
    <path d="M 91.435144 307.584 
L 92.480186 307.584 
L 92.480186 306.246435 
L 91.435144 306.246435 
z
" clip-path="url(#p588442255b)" style="fill: #1f77b4"/>
   </g>
   <g id="patch_12">
    <path d="M 92.058396 307.584 
L 93.103438 307.584 
L 93.103438 307.215758 
L 92.058396 307.215758 
z
" clip-path="url(#p588442255b)" style="fill: #1f77b4"/>
   </g>
   <g id="patch_13">
    <path d="M 92.677821 307.584 
L 93.722863 307.584 
L 93.722863 306.749218 
L 92.677821 306.749218 
z
" clip-path="url(#p588442255b)" style="fill: #1f77b4"/>
   </g>
   <g id="patch_14">
    <path d="M 94.06794 307.584 
L 95.112982 307.584 
L 95.112982 307.126701 
L 94.06794 307.126701 
z
" clip-path="url(#p588442255b)" style="fill: #1f77b4"/>
   </g>
   <g id="patch_15">
    <path d="M 97.969465 307.584 
L 99.014506 307.584 
L 99.014506 306.684848 
L 97.969465 306.684848 
z
" clip-path="url(#p588442255b)" style="fill: #1f77b4"/>
   </g>
   <g id="patch_16">
    <path d="M 97.996374 307.584 
L 99.041415 307.584 
L 99.041415 306.922265 
L 97.996374 306.922265 
z
" clip-path="url(#p588442255b)" style="fill: #1f77b4"/>
   </g>
   <g id="patch_17">
    <path d="M 98.001148 307.584 
L 99.046189 307.584 
L 99.046189 292.561196 
L 98.001148 292.561196 
z
" clip-path="url(#p588442255b)" style="fill: #1f77b4"/>
   </g>
   <g id="patch_18">
    <path d="M 99.781686 307.584 
L 100.826727 307.584 
L 100.826727 307.209259 
L 99.781686 307.209259 
z
" clip-path="url(#p588442255b)" style="fill: #1f77b4"/>
   </g>
   <g id="patch_19">
    <path d="M 107.110628 307.584 
L 108.15567 307.584 
L 108.15567 306.663657 
L 107.110628 306.663657 
z
" clip-path="url(#p588442255b)" style="fill: #1f77b4"/>
   </g>
   <g id="patch_20">
    <path d="M 107.187947 307.584 
L 108.232989 307.584 
L 108.232989 307.068073 
L 107.187947 307.068073 
z
" clip-path="url(#p588442255b)" style="fill: #1f77b4"/>
   </g>
   <g id="patch_21">
    <path d="M 109.743314 307.584 
L 110.788356 307.584 
L 110.788356 305.811463 
L 109.743314 305.811463 
z
" clip-path="url(#p588442255b)" style="fill: #1f77b4"/>
   </g>
   <g id="patch_22">
    <path d="M 116.309676 307.584 
L 117.354718 307.584 
L 117.354718 307.01221 
L 116.309676 307.01221 
z
" clip-path="url(#p588442255b)" style="fill: #1f77b4"/>
   </g>
   <g id="patch_23">
    <path d="M 125.411394 307.584 
L 126.456435 307.584 
L 126.456435 306.382267 
L 125.411394 306.382267 
z
" clip-path="url(#p588442255b)" style="fill: #1f77b4"/>
   </g>
   <g id="patch_24">
    <path d="M 125.418958 307.584 
L 126.464 307.584 
L 126.464 273.847337 
L 125.418958 273.847337 
z
" clip-path="url(#p588442255b)" style="fill: #1f77b4"/>
   </g>
   <g id="patch_25">
    <path d="M 125.426642 307.584 
L 126.471684 307.584 
L 126.471684 306.626224 
L 125.426642 306.626224 
z
" clip-path="url(#p588442255b)" style="fill: #1f77b4"/>
   </g>
   <g id="patch_26">
    <path d="M 125.999664 307.584 
L 127.044706 307.584 
L 127.044706 306.860693 
L 125.999664 306.860693 
z
" clip-path="url(#p588442255b)" style="fill: #1f77b4"/>
   </g>
   <g id="patch_27">
    <path d="M 128.051923 307.584 
L 129.096965 307.584 
L 129.096965 301.969816 
L 128.051923 301.969816 
z
" clip-path="url(#p588442255b)" style="fill: #1f77b4"/>
   </g>
   <g id="patch_28">
    <path d="M 130.637269 307.584 
L 131.682311 307.584 
L 131.682311 306.92298 
L 130.637269 306.92298 
z
" clip-path="url(#p588442255b)" style="fill: #1f77b4"/>
   </g>
   <g id="patch_29">
    <path d="M 133.650867 307.584 
L 134.695909 307.584 
L 134.695909 307.19653 
L 133.650867 307.19653 
z
" clip-path="url(#p588442255b)" style="fill: #1f77b4"/>
   </g>
   <g id="patch_30">
    <path d="M 140.24939 307.584 
L 141.294432 307.584 
L 141.294432 307.116593 
L 140.24939 307.116593 
z
" clip-path="url(#p588442255b)" style="fill: #1f77b4"/>
   </g>
   <g id="patch_31">
    <path d="M 141.094263 307.584 
L 142.139304 307.584 
L 142.139304 304.165799 
L 141.094263 304.165799 
z
" clip-path="url(#p588442255b)" style="fill: #1f77b4"/>
   </g>
   <g id="patch_32">
    <path d="M 142.955986 307.584 
L 144.001028 307.584 
L 144.001028 307.144846 
L 142.955986 307.144846 
z
" clip-path="url(#p588442255b)" style="fill: #1f77b4"/>
   </g>
   <g id="patch_33">
    <path d="M 143.694349 307.584 
L 144.739391 307.584 
L 144.739391 306.12256 
L 143.694349 306.12256 
z
" clip-path="url(#p588442255b)" style="fill: #1f77b4"/>
   </g>
   <g id="patch_34">
    <path d="M 143.727407 307.584 
L 144.772449 307.584 
L 144.772449 262.510072 
L 143.727407 262.510072 
z
" clip-path="url(#p588442255b)" style="fill: #1f77b4"/>
   </g>
   <g id="patch_35">
    <path d="M 146.312903 307.584 
L 147.357944 307.584 
L 147.357944 243.632982 
L 146.312903 243.632982 
z
" clip-path="url(#p588442255b)" style="fill: #1f77b4"/>
   </g>
   <g id="patch_36">
    <path d="M 156.769647 307.584 
L 157.814689 307.584 
L 157.814689 304.6078 
L 156.769647 304.6078 
z
" clip-path="url(#p588442255b)" style="fill: #1f77b4"/>
   </g>
   <g id="patch_37">
    <path d="M 157.958546 307.584 
L 159.003588 307.584 
L 159.003588 306.711689 
L 157.958546 306.711689 
z
" clip-path="url(#p588442255b)" style="fill: #1f77b4"/>
   </g>
   <g id="patch_38">
    <path d="M 159.391739 307.584 
L 160.436781 307.584 
L 160.436781 306.480512 
L 159.391739 306.480512 
z
" clip-path="url(#p588442255b)" style="fill: #1f77b4"/>
   </g>
   <g id="patch_39">
    <path d="M 159.402832 307.584 
L 160.447873 307.584 
L 160.447873 279.645546 
L 159.402832 279.645546 
z
" clip-path="url(#p588442255b)" style="fill: #1f77b4"/>
   </g>
   <g id="patch_40">
    <path d="M 159.419156 307.584 
L 160.464198 307.584 
L 160.464198 306.9295 
L 159.419156 306.9295 
z
" clip-path="url(#p588442255b)" style="fill: #1f77b4"/>
   </g>
   <g id="patch_41">
    <path d="M 161.988387 307.584 
L 163.033429 307.584 
L 163.033429 295.464974 
L 161.988387 295.464974 
z
" clip-path="url(#p588442255b)" style="fill: #1f77b4"/>
   </g>
   <g id="patch_42">
    <path d="M 164.574162 307.584 
L 165.619203 307.584 
L 165.619203 304.777743 
L 164.574162 304.777743 
z
" clip-path="url(#p588442255b)" style="fill: #1f77b4"/>
   </g>
   <g id="patch_43">
    <path d="M 164.589191 307.584 
L 165.634232 307.584 
L 165.634232 306.58515 
L 164.589191 306.58515 
z
" clip-path="url(#p588442255b)" style="fill: #1f77b4"/>
   </g>
   <g id="patch_44">
    <path d="M 164.621342 307.584 
L 165.666384 307.584 
L 165.666384 236.719147 
L 164.621342 236.719147 
z
" clip-path="url(#p588442255b)" style="fill: #1f77b4"/>
   </g>
   <g id="patch_45">
    <path d="M 173.761778 307.584 
L 174.80682 307.584 
L 174.80682 305.45782 
L 173.761778 305.45782 
z
" clip-path="url(#p588442255b)" style="fill: #1f77b4"/>
   </g>
   <g id="patch_46">
    <path d="M 174.956538 307.584 
L 176.001579 307.584 
L 176.001579 307.160209 
L 174.956538 307.160209 
z
" clip-path="url(#p588442255b)" style="fill: #1f77b4"/>
   </g>
   <g id="patch_47">
    <path d="M 175.078346 307.584 
L 176.123387 307.584 
L 176.123387 296.486515 
L 175.078346 296.486515 
z
" clip-path="url(#p588442255b)" style="fill: #1f77b4"/>
   </g>
   <g id="patch_48">
    <path d="M 177.663961 307.584 
L 178.709002 307.584 
L 178.709002 305.814135 
L 177.663961 305.814135 
z
" clip-path="url(#p588442255b)" style="fill: #1f77b4"/>
   </g>
   <g id="patch_49">
    <path d="M 177.710683 307.584 
L 178.755724 307.584 
L 178.755724 305.23324 
L 177.710683 305.23324 
z
" clip-path="url(#p588442255b)" style="fill: #1f77b4"/>
   </g>
   <g id="patch_50">
    <path d="M 178.727703 307.584 
L 179.772745 307.584 
L 179.772745 307.178379 
L 178.727703 307.178379 
z
" clip-path="url(#p588442255b)" style="fill: #1f77b4"/>
   </g>
   <g id="patch_51">
    <path d="M 180.296756 307.584 
L 181.341798 307.584 
L 181.341798 278.714789 
L 180.296756 278.714789 
z
" clip-path="url(#p588442255b)" style="fill: #1f77b4"/>
   </g>
   <g id="patch_52">
    <path d="M 190.75375 307.584 
L 191.798792 307.584 
L 191.798792 301.405465 
L 190.75375 301.405465 
z
" clip-path="url(#p588442255b)" style="fill: #1f77b4"/>
   </g>
   <g id="patch_53">
    <path d="M 192.070337 307.584 
L 193.115379 307.584 
L 193.115379 305.847533 
L 192.070337 305.847533 
z
" clip-path="url(#p588442255b)" style="fill: #1f77b4"/>
   </g>
   <g id="patch_54">
    <path d="M 193.340422 307.584 
L 194.385463 307.584 
L 194.385463 307.091287 
L 193.340422 307.091287 
z
" clip-path="url(#p588442255b)" style="fill: #1f77b4"/>
   </g>
   <g id="patch_55">
    <path d="M 193.386446 307.584 
L 194.431488 307.584 
L 194.431488 303.894853 
L 193.386446 303.894853 
z
" clip-path="url(#p588442255b)" style="fill: #1f77b4"/>
   </g>
   <g id="patch_56">
    <path d="M 194.687107 307.584 
L 195.732149 307.584 
L 195.732149 307.041066 
L 194.687107 307.041066 
z
" clip-path="url(#p588442255b)" style="fill: #1f77b4"/>
   </g>
   <g id="patch_57">
    <path d="M 195.97236 307.584 
L 197.017402 307.584 
L 197.017402 299.329526 
L 195.97236 299.329526 
z
" clip-path="url(#p588442255b)" style="fill: #1f77b4"/>
   </g>
   <g id="patch_58">
    <path d="M 198.650323 307.584 
L 199.695365 307.584 
L 199.695365 307.12923 
L 198.650323 307.12923 
z
" clip-path="url(#p588442255b)" style="fill: #1f77b4"/>
   </g>
   <g id="patch_59">
    <path d="M 199.022225 307.584 
L 200.067267 307.584 
L 200.067267 307.134591 
L 199.022225 307.134591 
z
" clip-path="url(#p588442255b)" style="fill: #1f77b4"/>
   </g>
   <g id="patch_60">
    <path d="M 201.143451 307.584 
L 202.188493 307.584 
L 202.188493 54.144 
L 201.143451 54.144 
z
" clip-path="url(#p588442255b)" style="fill: #1f77b4"/>
   </g>
   <g id="patch_61">
    <path d="M 201.175303 307.584 
L 202.220345 307.584 
L 202.220345 306.145799 
L 201.175303 306.145799 
z
" clip-path="url(#p588442255b)" style="fill: #1f77b4"/>
   </g>
   <g id="patch_62">
    <path d="M 202.454098 307.584 
L 203.49914 307.584 
L 203.49914 294.955277 
L 202.454098 294.955277 
z
" clip-path="url(#p588442255b)" style="fill: #1f77b4"/>
   </g>
   <g id="patch_63">
    <path d="M 206.429772 307.584 
L 207.474814 307.584 
L 207.474814 305.013854 
L 206.429772 305.013854 
z
" clip-path="url(#p588442255b)" style="fill: #1f77b4"/>
   </g>
   <g id="patch_64">
    <path d="M 207.745801 307.584 
L 208.790843 307.584 
L 208.790843 306.875398 
L 207.745801 306.875398 
z
" clip-path="url(#p588442255b)" style="fill: #1f77b4"/>
   </g>
   <g id="patch_65">
    <path d="M 209.062249 307.584 
L 210.107291 307.584 
L 210.107291 276.426899 
L 209.062249 276.426899 
z
" clip-path="url(#p588442255b)" style="fill: #1f77b4"/>
   </g>
   <g id="patch_66">
    <path d="M 209.079331 307.584 
L 210.124373 307.584 
L 210.124373 306.514453 
L 209.079331 306.514453 
z
" clip-path="url(#p588442255b)" style="fill: #1f77b4"/>
   </g>
   <g id="patch_67">
    <path d="M 210.377939 307.584 
L 211.422981 307.584 
L 211.422981 306.81412 
L 210.377939 306.81412 
z
" clip-path="url(#p588442255b)" style="fill: #1f77b4"/>
   </g>
   <g id="patch_68">
    <path d="M 211.647505 307.584 
L 212.692547 307.584 
L 212.692547 304.468383 
L 211.647505 304.468383 
z
" clip-path="url(#p588442255b)" style="fill: #1f77b4"/>
   </g>
   <g id="patch_69">
    <path d="M 212.995407 307.584 
L 214.040448 307.584 
L 214.040448 306.722821 
L 212.995407 306.722821 
z
" clip-path="url(#p588442255b)" style="fill: #1f77b4"/>
   </g>
   <g id="patch_70">
    <path d="M 214.312412 307.584 
L 215.357454 307.584 
L 215.357454 306.128492 
L 214.312412 306.128492 
z
" clip-path="url(#p588442255b)" style="fill: #1f77b4"/>
   </g>
   <g id="patch_71">
    <path d="M 219.52578 307.584 
L 220.570822 307.584 
L 220.570822 307.026713 
L 219.52578 307.026713 
z
" clip-path="url(#p588442255b)" style="fill: #1f77b4"/>
   </g>
   <g id="patch_72">
    <path d="M 222.105974 307.584 
L 223.151016 307.584 
L 223.151016 306.547147 
L 222.105974 306.547147 
z
" clip-path="url(#p588442255b)" style="fill: #1f77b4"/>
   </g>
   <g id="patch_73">
    <path d="M 224.67054 307.584 
L 225.715582 307.584 
L 225.715582 304.987932 
L 224.67054 304.987932 
z
" clip-path="url(#p588442255b)" style="fill: #1f77b4"/>
   </g>
   <g id="patch_74">
    <path d="M 224.738331 307.584 
L 225.783373 307.584 
L 225.783373 305.43081 
L 224.738331 305.43081 
z
" clip-path="url(#p588442255b)" style="fill: #1f77b4"/>
   </g>
   <g id="patch_75">
    <path d="M 229.956403 307.584 
L 231.001445 307.584 
L 231.001445 298.605895 
L 229.956403 298.605895 
z
" clip-path="url(#p588442255b)" style="fill: #1f77b4"/>
   </g>
   <g id="patch_76">
    <path d="M 231.304025 307.584 
L 232.349067 307.584 
L 232.349067 299.13815 
L 231.304025 299.13815 
z
" clip-path="url(#p588442255b)" style="fill: #1f77b4"/>
   </g>
   <g id="patch_77">
    <path d="M 232.620533 307.584 
L 233.665574 307.584 
L 233.665574 306.021317 
L 232.620533 306.021317 
z
" clip-path="url(#p588442255b)" style="fill: #1f77b4"/>
   </g>
   <g id="patch_78">
    <path d="M 239.097447 307.584 
L 240.142489 307.584 
L 240.142489 306.343849 
L 239.097447 306.343849 
z
" clip-path="url(#p588442255b)" style="fill: #1f77b4"/>
   </g>
   <g id="patch_79">
    <path d="M 240.413895 307.584 
L 241.458937 307.584 
L 241.458937 304.724511 
L 240.413895 304.724511 
z
" clip-path="url(#p588442255b)" style="fill: #1f77b4"/>
   </g>
   <g id="patch_80">
    <path d="M 243.045853 307.584 
L 244.090895 307.584 
L 244.090895 306.888176 
L 243.045853 306.888176 
z
" clip-path="url(#p588442255b)" style="fill: #1f77b4"/>
   </g>
   <g id="patch_81">
    <path d="M 254.736096 307.584 
L 255.781138 307.584 
L 255.781138 306.249824 
L 254.736096 306.249824 
z
" clip-path="url(#p588442255b)" style="fill: #1f77b4"/>
   </g>
   <g id="patch_82">
    <path d="M 256.088941 307.584 
L 257.133982 307.584 
L 257.133982 306.660399 
L 256.088941 306.660399 
z
" clip-path="url(#p588442255b)" style="fill: #1f77b4"/>
   </g>
   <g id="patch_83">
    <path d="M 257.406943 307.584 
L 258.451985 307.584 
L 258.451985 306.833302 
L 257.406943 306.833302 
z
" clip-path="url(#p588442255b)" style="fill: #1f77b4"/>
   </g>
   <g id="patch_84">
    <path d="M 258.722733 307.584 
L 259.767774 307.584 
L 259.767774 304.632834 
L 258.722733 304.632834 
z
" clip-path="url(#p588442255b)" style="fill: #1f77b4"/>
   </g>
   <g id="patch_85">
    <path d="M 259.991203 307.584 
L 261.036244 307.584 
L 261.036244 301.793067 
L 259.991203 301.793067 
z
" clip-path="url(#p588442255b)" style="fill: #1f77b4"/>
   </g>
   <g id="patch_86">
    <path d="M 261.308029 307.584 
L 262.353071 307.584 
L 262.353071 302.931095 
L 261.308029 302.931095 
z
" clip-path="url(#p588442255b)" style="fill: #1f77b4"/>
   </g>
   <g id="patch_87">
    <path d="M 269.101052 307.584 
L 270.146094 307.584 
L 270.146094 306.113647 
L 269.101052 306.113647 
z
" clip-path="url(#p588442255b)" style="fill: #1f77b4"/>
   </g>
   <g id="patch_88">
    <path d="M 270.448894 307.584 
L 271.493935 307.584 
L 271.493935 306.309483 
L 270.448894 306.309483 
z
" clip-path="url(#p588442255b)" style="fill: #1f77b4"/>
   </g>
   <g id="patch_89">
    <path d="M 271.764305 307.584 
L 272.809347 307.584 
L 272.809347 304.497457 
L 271.764305 304.497457 
z
" clip-path="url(#p588442255b)" style="fill: #1f77b4"/>
   </g>
   <g id="patch_90">
    <path d="M 274.378105 307.584 
L 275.423147 307.584 
L 275.423147 305.885742 
L 274.378105 305.885742 
z
" clip-path="url(#p588442255b)" style="fill: #1f77b4"/>
   </g>
   <g id="patch_91">
    <path d="M 274.399831 307.584 
L 275.444873 307.584 
L 275.444873 306.581095 
L 274.399831 306.581095 
z
" clip-path="url(#p588442255b)" style="fill: #1f77b4"/>
   </g>
   <g id="patch_92">
    <path d="M 275.714067 307.584 
L 276.759108 307.584 
L 276.759108 306.37835 
L 275.714067 306.37835 
z
" clip-path="url(#p588442255b)" style="fill: #1f77b4"/>
   </g>
   <g id="patch_93">
    <path d="M 276.983274 307.584 
L 278.028316 307.584 
L 278.028316 284.868179 
L 276.983274 284.868179 
z
" clip-path="url(#p588442255b)" style="fill: #1f77b4"/>
   </g>
   <g id="patch_94">
    <path d="M 277.026448 307.584 
L 278.07149 307.584 
L 278.07149 306.687399 
L 277.026448 306.687399 
z
" clip-path="url(#p588442255b)" style="fill: #1f77b4"/>
   </g>
   <g id="patch_95">
    <path d="M 278.299343 307.584 
L 279.344385 307.584 
L 279.344385 303.210625 
L 278.299343 303.210625 
z
" clip-path="url(#p588442255b)" style="fill: #1f77b4"/>
   </g>
   <g id="patch_96">
    <path d="M 279.616249 307.584 
L 280.661291 307.584 
L 280.661291 301.289224 
L 279.616249 301.289224 
z
" clip-path="url(#p588442255b)" style="fill: #1f77b4"/>
   </g>
   <g id="patch_97">
    <path d="M 282.249822 307.584 
L 283.294864 307.584 
L 283.294864 307.000735 
L 282.249822 307.000735 
z
" clip-path="url(#p588442255b)" style="fill: #1f77b4"/>
   </g>
   <g id="patch_98">
    <path d="M 287.440347 307.584 
L 288.485389 307.584 
L 288.485389 306.448965 
L 287.440347 306.448965 
z
" clip-path="url(#p588442255b)" style="fill: #1f77b4"/>
   </g>
   <g id="patch_99">
    <path d="M 288.756356 307.584 
L 289.801398 307.584 
L 289.801398 303.396276 
L 288.756356 303.396276 
z
" clip-path="url(#p588442255b)" style="fill: #1f77b4"/>
   </g>
   <g id="patch_100">
    <path d="M 290.073601 307.584 
L 291.118643 307.584 
L 291.118643 307.008281 
L 290.073601 307.008281 
z
" clip-path="url(#p588442255b)" style="fill: #1f77b4"/>
   </g>
   <g id="patch_101">
    <path d="M 292.65836 307.584 
L 293.703401 307.584 
L 293.703401 304.111831 
L 292.65836 304.111831 
z
" clip-path="url(#p588442255b)" style="fill: #1f77b4"/>
   </g>
   <g id="patch_102">
    <path d="M 292.706437 307.584 
L 293.751478 307.584 
L 293.751478 306.696042 
L 292.706437 306.696042 
z
" clip-path="url(#p588442255b)" style="fill: #1f77b4"/>
   </g>
   <g id="patch_103">
    <path d="M 293.975664 307.584 
L 295.020706 307.584 
L 295.020706 301.436316 
L 293.975664 301.436316 
z
" clip-path="url(#p588442255b)" style="fill: #1f77b4"/>
   </g>
   <g id="patch_104">
    <path d="M 295.292072 307.584 
L 296.337114 307.584 
L 296.337114 294.846634 
L 295.292072 294.846634 
z
" clip-path="url(#p588442255b)" style="fill: #1f77b4"/>
   </g>
   <g id="patch_105">
    <path d="M 295.33702 307.584 
L 296.382062 307.584 
L 296.382062 303.722073 
L 295.33702 303.722073 
z
" clip-path="url(#p588442255b)" style="fill: #1f77b4"/>
   </g>
   <g id="patch_106">
    <path d="M 297.904058 307.584 
L 298.9491 307.584 
L 298.9491 306.887656 
L 297.904058 306.887656 
z
" clip-path="url(#p588442255b)" style="fill: #1f77b4"/>
   </g>
   <g id="patch_107">
    <path d="M 297.925625 307.584 
L 298.970667 307.584 
L 298.970667 300.006209 
L 297.925625 300.006209 
z
" clip-path="url(#p588442255b)" style="fill: #1f77b4"/>
   </g>
   <g id="patch_108">
    <path d="M 305.749903 307.584 
L 306.794944 307.584 
L 306.794944 307.06365 
L 305.749903 307.06365 
z
" clip-path="url(#p588442255b)" style="fill: #1f77b4"/>
   </g>
   <g id="patch_109">
    <path d="M 308.381363 307.584 
L 309.426405 307.584 
L 309.426405 301.83274 
L 308.381363 301.83274 
z
" clip-path="url(#p588442255b)" style="fill: #1f77b4"/>
   </g>
   <g id="patch_110">
    <path d="M 310.967676 307.584 
L 312.012717 307.584 
L 312.012717 305.572728 
L 310.967676 305.572728 
z
" clip-path="url(#p588442255b)" style="fill: #1f77b4"/>
   </g>
   <g id="patch_111">
    <path d="M 312.284044 307.584 
L 313.329085 307.584 
L 313.329085 282.959291 
L 312.284044 282.959291 
z
" clip-path="url(#p588442255b)" style="fill: #1f77b4"/>
   </g>
   <g id="patch_112">
    <path d="M 312.35622 307.584 
L 313.401261 307.584 
L 313.401261 306.582939 
L 312.35622 306.582939 
z
" clip-path="url(#p588442255b)" style="fill: #1f77b4"/>
   </g>
   <g id="patch_113">
    <path d="M 329.275896 307.584 
L 330.320937 307.584 
L 330.320937 305.454686 
L 329.275896 305.454686 
z
" clip-path="url(#p588442255b)" style="fill: #1f77b4"/>
   </g>
   <g id="patch_114">
    <path d="M 331.909369 307.584 
L 332.954411 307.584 
L 332.954411 95.217834 
L 331.909369 95.217834 
z
" clip-path="url(#p588442255b)" style="fill: #1f77b4"/>
   </g>
   <g id="patch_115">
    <path d="M 331.945925 307.584 
L 332.990967 307.584 
L 332.990967 306.818712 
L 331.945925 306.818712 
z
" clip-path="url(#p588442255b)" style="fill: #1f77b4"/>
   </g>
   <g id="patch_116">
    <path d="M 348.93122 307.584 
L 349.976261 307.584 
L 349.976261 307.012891 
L 348.93122 307.012891 
z
" clip-path="url(#p588442255b)" style="fill: #1f77b4"/>
   </g>
   <g id="patch_117">
    <path d="M 371.054198 307.584 
L 372.099239 307.584 
L 372.099239 303.640913 
L 371.054198 303.640913 
z
" clip-path="url(#p588442255b)" style="fill: #1f77b4"/>
   </g>
   <g id="patch_118">
    <path d="M 372.375409 307.584 
L 373.420451 307.584 
L 373.420451 305.668491 
L 372.375409 305.668491 
z
" clip-path="url(#p588442255b)" style="fill: #1f77b4"/>
   </g>
   <g id="patch_119">
    <path d="M 372.459764 307.584 
L 373.504806 307.584 
L 373.504806 76.761182 
L 372.459764 76.761182 
z
" clip-path="url(#p588442255b)" style="fill: #1f77b4"/>
   </g>
   <g id="patch_120">
    <path d="M 372.542205 307.584 
L 373.587247 307.584 
L 373.587247 305.978196 
L 372.542205 305.978196 
z
" clip-path="url(#p588442255b)" style="fill: #1f77b4"/>
   </g>
   <g id="patch_121">
    <path d="M 397.442231 307.584 
L 398.487273 307.584 
L 398.487273 307.132255 
L 397.442231 307.132255 
z
" clip-path="url(#p588442255b)" style="fill: #1f77b4"/>
   </g>
   <g id="matplotlib.axis_1">
    <g id="xtick_1">
     <g id="line2d_1">
      <defs>
       <path id="m7dde0a9983" d="M 0 0 
L 0 3.5 
" style="stroke: #000000; stroke-width: 0.8"/>
      </defs>
      <g>
       <use xlink:href="#m7dde0a9983" x="72.31154" y="307.584" style="stroke: #000000; stroke-width: 0.8"/>
      </g>
     </g>
     <g id="text_1">
      <!-- 50 -->
      <g transform="translate(65.94904 322.182437) scale(0.1 -0.1)">
       <defs>
        <path id="DejaVuSans-35" d="M 691 4666 
L 3169 4666 
L 3169 4134 
L 1269 4134 
L 1269 2991 
Q 1406 3038 1543 3061 
Q 1681 3084 1819 3084 
Q 2600 3084 3056 2656 
Q 3513 2228 3513 1497 
Q 3513 744 3044 326 
Q 2575 -91 1722 -91 
Q 1428 -91 1123 -41 
Q 819 9 494 109 
L 494 744 
Q 775 591 1075 516 
Q 1375 441 1709 441 
Q 2250 441 2565 725 
Q 2881 1009 2881 1497 
Q 2881 1984 2565 2268 
Q 2250 2553 1709 2553 
Q 1456 2553 1204 2497 
Q 953 2441 691 2322 
L 691 4666 
z
" transform="scale(0.015625)"/>
        <path id="DejaVuSans-30" d="M 2034 4250 
Q 1547 4250 1301 3770 
Q 1056 3291 1056 2328 
Q 1056 1369 1301 889 
Q 1547 409 2034 409 
Q 2525 409 2770 889 
Q 3016 1369 3016 2328 
Q 3016 3291 2770 3770 
Q 2525 4250 2034 4250 
z
M 2034 4750 
Q 2819 4750 3233 4129 
Q 3647 3509 3647 2328 
Q 3647 1150 3233 529 
Q 2819 -91 2034 -91 
Q 1250 -91 836 529 
Q 422 1150 422 2328 
Q 422 3509 836 4129 
Q 1250 4750 2034 4750 
z
" transform="scale(0.015625)"/>
       </defs>
       <use xlink:href="#DejaVuSans-35"/>
       <use xlink:href="#DejaVuSans-30" x="63.623047"/>
      </g>
     </g>
    </g>
    <g id="xtick_2">
     <g id="line2d_2">
      <g>
       <use xlink:href="#m7dde0a9983" x="137.626639" y="307.584" style="stroke: #000000; stroke-width: 0.8"/>
      </g>
     </g>
     <g id="text_2">
      <!-- 100 -->
      <g transform="translate(128.082889 322.182437) scale(0.1 -0.1)">
       <defs>
        <path id="DejaVuSans-31" d="M 794 531 
L 1825 531 
L 1825 4091 
L 703 3866 
L 703 4441 
L 1819 4666 
L 2450 4666 
L 2450 531 
L 3481 531 
L 3481 0 
L 794 0 
L 794 531 
z
" transform="scale(0.015625)"/>
       </defs>
       <use xlink:href="#DejaVuSans-31"/>
       <use xlink:href="#DejaVuSans-30" x="63.623047"/>
       <use xlink:href="#DejaVuSans-30" x="127.246094"/>
      </g>
     </g>
    </g>
    <g id="xtick_3">
     <g id="line2d_3">
      <g>
       <use xlink:href="#m7dde0a9983" x="202.941737" y="307.584" style="stroke: #000000; stroke-width: 0.8"/>
      </g>
     </g>
     <g id="text_3">
      <!-- 150 -->
      <g transform="translate(193.397987 322.182437) scale(0.1 -0.1)">
       <use xlink:href="#DejaVuSans-31"/>
       <use xlink:href="#DejaVuSans-35" x="63.623047"/>
       <use xlink:href="#DejaVuSans-30" x="127.246094"/>
      </g>
     </g>
    </g>
    <g id="xtick_4">
     <g id="line2d_4">
      <g>
       <use xlink:href="#m7dde0a9983" x="268.256836" y="307.584" style="stroke: #000000; stroke-width: 0.8"/>
      </g>
     </g>
     <g id="text_4">
      <!-- 200 -->
      <g transform="translate(258.713086 322.182437) scale(0.1 -0.1)">
       <defs>
        <path id="DejaVuSans-32" d="M 1228 531 
L 3431 531 
L 3431 0 
L 469 0 
L 469 531 
Q 828 903 1448 1529 
Q 2069 2156 2228 2338 
Q 2531 2678 2651 2914 
Q 2772 3150 2772 3378 
Q 2772 3750 2511 3984 
Q 2250 4219 1831 4219 
Q 1534 4219 1204 4116 
Q 875 4013 500 3803 
L 500 4441 
Q 881 4594 1212 4672 
Q 1544 4750 1819 4750 
Q 2544 4750 2975 4387 
Q 3406 4025 3406 3419 
Q 3406 3131 3298 2873 
Q 3191 2616 2906 2266 
Q 2828 2175 2409 1742 
Q 1991 1309 1228 531 
z
" transform="scale(0.015625)"/>
       </defs>
       <use xlink:href="#DejaVuSans-32"/>
       <use xlink:href="#DejaVuSans-30" x="63.623047"/>
       <use xlink:href="#DejaVuSans-30" x="127.246094"/>
      </g>
     </g>
    </g>
    <g id="xtick_5">
     <g id="line2d_5">
      <g>
       <use xlink:href="#m7dde0a9983" x="333.571934" y="307.584" style="stroke: #000000; stroke-width: 0.8"/>
      </g>
     </g>
     <g id="text_5">
      <!-- 250 -->
      <g transform="translate(324.028184 322.182437) scale(0.1 -0.1)">
       <use xlink:href="#DejaVuSans-32"/>
       <use xlink:href="#DejaVuSans-35" x="63.623047"/>
       <use xlink:href="#DejaVuSans-30" x="127.246094"/>
      </g>
     </g>
    </g>
    <g id="xtick_6">
     <g id="line2d_6">
      <g>
       <use xlink:href="#m7dde0a9983" x="398.887033" y="307.584" style="stroke: #000000; stroke-width: 0.8"/>
      </g>
     </g>
     <g id="text_6">
      <!-- 300 -->
      <g transform="translate(389.343283 322.182437) scale(0.1 -0.1)">
       <defs>
        <path id="DejaVuSans-33" d="M 2597 2516 
Q 3050 2419 3304 2112 
Q 3559 1806 3559 1356 
Q 3559 666 3084 287 
Q 2609 -91 1734 -91 
Q 1441 -91 1130 -33 
Q 819 25 488 141 
L 488 750 
Q 750 597 1062 519 
Q 1375 441 1716 441 
Q 2309 441 2620 675 
Q 2931 909 2931 1356 
Q 2931 1769 2642 2001 
Q 2353 2234 1838 2234 
L 1294 2234 
L 1294 2753 
L 1863 2753 
Q 2328 2753 2575 2939 
Q 2822 3125 2822 3475 
Q 2822 3834 2567 4026 
Q 2313 4219 1838 4219 
Q 1578 4219 1281 4162 
Q 984 4106 628 3988 
L 628 4550 
Q 988 4650 1302 4700 
Q 1616 4750 1894 4750 
Q 2613 4750 3031 4423 
Q 3450 4097 3450 3541 
Q 3450 3153 3228 2886 
Q 3006 2619 2597 2516 
z
" transform="scale(0.015625)"/>
       </defs>
       <use xlink:href="#DejaVuSans-33"/>
       <use xlink:href="#DejaVuSans-30" x="63.623047"/>
       <use xlink:href="#DejaVuSans-30" x="127.246094"/>
      </g>
     </g>
    </g>
    <g id="text_7">
     <!-- ${m/z}$ -->
     <g transform="translate(226.96 335.860562) scale(0.1 -0.1)">
      <defs>
       <path id="DejaVuSans-Oblique-6d" d="M 5747 2113 
L 5338 0 
L 4763 0 
L 5166 2094 
Q 5191 2228 5203 2325 
Q 5216 2422 5216 2491 
Q 5216 2772 5059 2928 
Q 4903 3084 4622 3084 
Q 4203 3084 3875 2770 
Q 3547 2456 3450 1953 
L 3066 0 
L 2491 0 
L 2900 2094 
Q 2925 2209 2937 2307 
Q 2950 2406 2950 2484 
Q 2950 2769 2794 2926 
Q 2638 3084 2363 3084 
Q 1938 3084 1609 2770 
Q 1281 2456 1184 1953 
L 800 0 
L 225 0 
L 909 3500 
L 1484 3500 
L 1375 2956 
Q 1609 3263 1923 3423 
Q 2238 3584 2597 3584 
Q 2978 3584 3223 3384 
Q 3469 3184 3519 2828 
Q 3781 3197 4126 3390 
Q 4472 3584 4856 3584 
Q 5306 3584 5551 3325 
Q 5797 3066 5797 2591 
Q 5797 2488 5784 2364 
Q 5772 2241 5747 2113 
z
" transform="scale(0.015625)"/>
       <path id="DejaVuSans-2f" d="M 1625 4666 
L 2156 4666 
L 531 -594 
L 0 -594 
L 1625 4666 
z
" transform="scale(0.015625)"/>
       <path id="DejaVuSans-Oblique-7a" d="M 744 3500 
L 3475 3500 
L 3372 2975 
L 738 459 
L 2913 459 
L 2822 0 
L -19 0 
L 84 525 
L 2719 3041 
L 653 3041 
L 744 3500 
z
" transform="scale(0.015625)"/>
      </defs>
      <use xlink:href="#DejaVuSans-Oblique-6d" transform="translate(0 0.09375)"/>
      <use xlink:href="#DejaVuSans-2f" transform="translate(97.412109 0.09375)"/>
      <use xlink:href="#DejaVuSans-Oblique-7a" transform="translate(131.103516 0.09375)"/>
     </g>
    </g>
   </g>
   <g id="matplotlib.axis_2">
    <g id="ytick_1">
     <g id="line2d_7">
      <defs>
       <path id="mf9738c9f1e" d="M 0 0 
L -3.5 0 
" style="stroke: #000000; stroke-width: 0.8"/>
      </defs>
      <g>
       <use xlink:href="#mf9738c9f1e" x="57.6" y="307.584" style="stroke: #000000; stroke-width: 0.8"/>
      </g>
     </g>
     <g id="text_8">
      <!-- 0.0 -->
      <g transform="translate(34.696875 311.383219) scale(0.1 -0.1)">
       <defs>
        <path id="DejaVuSans-2e" d="M 684 794 
L 1344 794 
L 1344 0 
L 684 0 
L 684 794 
z
" transform="scale(0.015625)"/>
       </defs>
       <use xlink:href="#DejaVuSans-30"/>
       <use xlink:href="#DejaVuSans-2e" x="63.623047"/>
       <use xlink:href="#DejaVuSans-30" x="95.410156"/>
      </g>
     </g>
    </g>
    <g id="ytick_2">
     <g id="line2d_8">
      <g>
       <use xlink:href="#mf9738c9f1e" x="57.6" y="255.194607" style="stroke: #000000; stroke-width: 0.8"/>
      </g>
     </g>
     <g id="text_9">
      <!-- 0.5 -->
      <g transform="translate(34.696875 258.993826) scale(0.1 -0.1)">
       <use xlink:href="#DejaVuSans-30"/>
       <use xlink:href="#DejaVuSans-2e" x="63.623047"/>
       <use xlink:href="#DejaVuSans-35" x="95.410156"/>
      </g>
     </g>
    </g>
    <g id="ytick_3">
     <g id="line2d_9">
      <g>
       <use xlink:href="#mf9738c9f1e" x="57.6" y="202.805215" style="stroke: #000000; stroke-width: 0.8"/>
      </g>
     </g>
     <g id="text_10">
      <!-- 1.0 -->
      <g transform="translate(34.696875 206.604433) scale(0.1 -0.1)">
       <use xlink:href="#DejaVuSans-31"/>
       <use xlink:href="#DejaVuSans-2e" x="63.623047"/>
       <use xlink:href="#DejaVuSans-30" x="95.410156"/>
      </g>
     </g>
    </g>
    <g id="ytick_4">
     <g id="line2d_10">
      <g>
       <use xlink:href="#mf9738c9f1e" x="57.6" y="150.415822" style="stroke: #000000; stroke-width: 0.8"/>
      </g>
     </g>
     <g id="text_11">
      <!-- 1.5 -->
      <g transform="translate(34.696875 154.215041) scale(0.1 -0.1)">
       <use xlink:href="#DejaVuSans-31"/>
       <use xlink:href="#DejaVuSans-2e" x="63.623047"/>
       <use xlink:href="#DejaVuSans-35" x="95.410156"/>
      </g>
     </g>
    </g>
    <g id="ytick_5">
     <g id="line2d_11">
      <g>
       <use xlink:href="#mf9738c9f1e" x="57.6" y="98.026429" style="stroke: #000000; stroke-width: 0.8"/>
      </g>
     </g>
     <g id="text_12">
      <!-- 2.0 -->
      <g transform="translate(34.696875 101.825648) scale(0.1 -0.1)">
       <use xlink:href="#DejaVuSans-32"/>
       <use xlink:href="#DejaVuSans-2e" x="63.623047"/>
       <use xlink:href="#DejaVuSans-30" x="95.410156"/>
      </g>
     </g>
    </g>
    <g id="ytick_6">
     <g id="line2d_12">
      <g>
       <use xlink:href="#mf9738c9f1e" x="57.6" y="45.637037" style="stroke: #000000; stroke-width: 0.8"/>
      </g>
     </g>
     <g id="text_13">
      <!-- 2.5 -->
      <g transform="translate(34.696875 49.436255) scale(0.1 -0.1)">
       <use xlink:href="#DejaVuSans-32"/>
       <use xlink:href="#DejaVuSans-2e" x="63.623047"/>
       <use xlink:href="#DejaVuSans-35" x="95.410156"/>
      </g>
     </g>
    </g>
    <g id="text_14">
     <!-- intensities -->
     <g transform="translate(28.617187 200.3155) rotate(-90) scale(0.1 -0.1)">
      <defs>
       <path id="DejaVuSans-69" d="M 603 3500 
L 1178 3500 
L 1178 0 
L 603 0 
L 603 3500 
z
M 603 4863 
L 1178 4863 
L 1178 4134 
L 603 4134 
L 603 4863 
z
" transform="scale(0.015625)"/>
       <path id="DejaVuSans-6e" d="M 3513 2113 
L 3513 0 
L 2938 0 
L 2938 2094 
Q 2938 2591 2744 2837 
Q 2550 3084 2163 3084 
Q 1697 3084 1428 2787 
Q 1159 2491 1159 1978 
L 1159 0 
L 581 0 
L 581 3500 
L 1159 3500 
L 1159 2956 
Q 1366 3272 1645 3428 
Q 1925 3584 2291 3584 
Q 2894 3584 3203 3211 
Q 3513 2838 3513 2113 
z
" transform="scale(0.015625)"/>
       <path id="DejaVuSans-74" d="M 1172 4494 
L 1172 3500 
L 2356 3500 
L 2356 3053 
L 1172 3053 
L 1172 1153 
Q 1172 725 1289 603 
Q 1406 481 1766 481 
L 2356 481 
L 2356 0 
L 1766 0 
Q 1100 0 847 248 
Q 594 497 594 1153 
L 594 3053 
L 172 3053 
L 172 3500 
L 594 3500 
L 594 4494 
L 1172 4494 
z
" transform="scale(0.015625)"/>
       <path id="DejaVuSans-65" d="M 3597 1894 
L 3597 1613 
L 953 1613 
Q 991 1019 1311 708 
Q 1631 397 2203 397 
Q 2534 397 2845 478 
Q 3156 559 3463 722 
L 3463 178 
Q 3153 47 2828 -22 
Q 2503 -91 2169 -91 
Q 1331 -91 842 396 
Q 353 884 353 1716 
Q 353 2575 817 3079 
Q 1281 3584 2069 3584 
Q 2775 3584 3186 3129 
Q 3597 2675 3597 1894 
z
M 3022 2063 
Q 3016 2534 2758 2815 
Q 2500 3097 2075 3097 
Q 1594 3097 1305 2825 
Q 1016 2553 972 2059 
L 3022 2063 
z
" transform="scale(0.015625)"/>
       <path id="DejaVuSans-73" d="M 2834 3397 
L 2834 2853 
Q 2591 2978 2328 3040 
Q 2066 3103 1784 3103 
Q 1356 3103 1142 2972 
Q 928 2841 928 2578 
Q 928 2378 1081 2264 
Q 1234 2150 1697 2047 
L 1894 2003 
Q 2506 1872 2764 1633 
Q 3022 1394 3022 966 
Q 3022 478 2636 193 
Q 2250 -91 1575 -91 
Q 1294 -91 989 -36 
Q 684 19 347 128 
L 347 722 
Q 666 556 975 473 
Q 1284 391 1588 391 
Q 1994 391 2212 530 
Q 2431 669 2431 922 
Q 2431 1156 2273 1281 
Q 2116 1406 1581 1522 
L 1381 1569 
Q 847 1681 609 1914 
Q 372 2147 372 2553 
Q 372 3047 722 3315 
Q 1072 3584 1716 3584 
Q 2034 3584 2315 3537 
Q 2597 3491 2834 3397 
z
" transform="scale(0.015625)"/>
      </defs>
      <use xlink:href="#DejaVuSans-69"/>
      <use xlink:href="#DejaVuSans-6e" x="27.783203"/>
      <use xlink:href="#DejaVuSans-74" x="91.162109"/>
      <use xlink:href="#DejaVuSans-65" x="130.371094"/>
      <use xlink:href="#DejaVuSans-6e" x="191.894531"/>
      <use xlink:href="#DejaVuSans-73" x="255.273438"/>
      <use xlink:href="#DejaVuSans-69" x="307.373047"/>
      <use xlink:href="#DejaVuSans-74" x="335.15625"/>
      <use xlink:href="#DejaVuSans-69" x="374.365234"/>
      <use xlink:href="#DejaVuSans-65" x="402.148438"/>
      <use xlink:href="#DejaVuSans-73" x="463.671875"/>
     </g>
    </g>
    <g id="text_15">
     <!-- 1e6 -->
     <g transform="translate(57.6 38.472) scale(0.1 -0.1)">
      <defs>
       <path id="DejaVuSans-36" d="M 2113 2584 
Q 1688 2584 1439 2293 
Q 1191 2003 1191 1497 
Q 1191 994 1439 701 
Q 1688 409 2113 409 
Q 2538 409 2786 701 
Q 3034 994 3034 1497 
Q 3034 2003 2786 2293 
Q 2538 2584 2113 2584 
z
M 3366 4563 
L 3366 3988 
Q 3128 4100 2886 4159 
Q 2644 4219 2406 4219 
Q 1781 4219 1451 3797 
Q 1122 3375 1075 2522 
Q 1259 2794 1537 2939 
Q 1816 3084 2150 3084 
Q 2853 3084 3261 2657 
Q 3669 2231 3669 1497 
Q 3669 778 3244 343 
Q 2819 -91 2113 -91 
Q 1303 -91 875 529 
Q 447 1150 447 2328 
Q 447 3434 972 4092 
Q 1497 4750 2381 4750 
Q 2619 4750 2861 4703 
Q 3103 4656 3366 4563 
z
" transform="scale(0.015625)"/>
      </defs>
      <use xlink:href="#DejaVuSans-31"/>
      <use xlink:href="#DejaVuSans-65" x="63.623047"/>
      <use xlink:href="#DejaVuSans-36" x="125.146484"/>
     </g>
    </g>
   </g>
   <g id="patch_122">
    <path d="M 57.6 307.584 
L 57.6 41.472 
" style="fill: none; stroke: #000000; stroke-width: 0.8; stroke-linejoin: miter; stroke-linecap: square"/>
   </g>
   <g id="patch_123">
    <path d="M 414.72 307.584 
L 414.72 41.472 
" style="fill: none; stroke: #000000; stroke-width: 0.8; stroke-linejoin: miter; stroke-linecap: square"/>
   </g>
   <g id="patch_124">
    <path d="M 57.6 307.584 
L 414.72 307.584 
" style="fill: none; stroke: #000000; stroke-width: 0.8; stroke-linejoin: miter; stroke-linecap: square"/>
   </g>
   <g id="patch_125">
    <path d="M 57.6 41.472 
L 414.72 41.472 
" style="fill: none; stroke: #000000; stroke-width: 0.8; stroke-linejoin: miter; stroke-linecap: square"/>
   </g>
   <g id="text_16">
    <!-- 57.0708 -->
    <g transform="translate(72.742179 259.814061) scale(0.06 -0.06)">
     <defs>
      <path id="DejaVuSans-37" d="M 525 4666 
L 3525 4666 
L 3525 4397 
L 1831 0 
L 1172 0 
L 2766 4134 
L 525 4134 
L 525 4666 
z
" transform="scale(0.015625)"/>
      <path id="DejaVuSans-38" d="M 2034 2216 
Q 1584 2216 1326 1975 
Q 1069 1734 1069 1313 
Q 1069 891 1326 650 
Q 1584 409 2034 409 
Q 2484 409 2743 651 
Q 3003 894 3003 1313 
Q 3003 1734 2745 1975 
Q 2488 2216 2034 2216 
z
M 1403 2484 
Q 997 2584 770 2862 
Q 544 3141 544 3541 
Q 544 4100 942 4425 
Q 1341 4750 2034 4750 
Q 2731 4750 3128 4425 
Q 3525 4100 3525 3541 
Q 3525 3141 3298 2862 
Q 3072 2584 2669 2484 
Q 3125 2378 3379 2068 
Q 3634 1759 3634 1313 
Q 3634 634 3220 271 
Q 2806 -91 2034 -91 
Q 1263 -91 848 271 
Q 434 634 434 1313 
Q 434 1759 690 2068 
Q 947 2378 1403 2484 
z
M 1172 3481 
Q 1172 3119 1398 2916 
Q 1625 2713 2034 2713 
Q 2441 2713 2670 2916 
Q 2900 3119 2900 3481 
Q 2900 3844 2670 4047 
Q 2441 4250 2034 4250 
Q 1625 4250 1398 4047 
Q 1172 3844 1172 3481 
z
" transform="scale(0.015625)"/>
     </defs>
     <use xlink:href="#DejaVuSans-35"/>
     <use xlink:href="#DejaVuSans-37" x="63.623047"/>
     <use xlink:href="#DejaVuSans-2e" x="127.246094"/>
     <use xlink:href="#DejaVuSans-30" x="159.033203"/>
     <use xlink:href="#DejaVuSans-37" x="222.65625"/>
     <use xlink:href="#DejaVuSans-30" x="286.279297"/>
     <use xlink:href="#DejaVuSans-38" x="349.902344"/>
    </g>
   </g>
   <g id="text_17">
    <!-- 91.0548 -->
    <g transform="translate(108.495541 278.742962) scale(0.06 -0.06)">
     <defs>
      <path id="DejaVuSans-39" d="M 703 97 
L 703 672 
Q 941 559 1184 500 
Q 1428 441 1663 441 
Q 2288 441 2617 861 
Q 2947 1281 2994 2138 
Q 2813 1869 2534 1725 
Q 2256 1581 1919 1581 
Q 1219 1581 811 2004 
Q 403 2428 403 3163 
Q 403 3881 828 4315 
Q 1253 4750 1959 4750 
Q 2769 4750 3195 4129 
Q 3622 3509 3622 2328 
Q 3622 1225 3098 567 
Q 2575 -91 1691 -91 
Q 1453 -91 1209 -44 
Q 966 3 703 97 
z
M 1959 2075 
Q 2384 2075 2632 2365 
Q 2881 2656 2881 3163 
Q 2881 3666 2632 3958 
Q 2384 4250 1959 4250 
Q 1534 4250 1286 3958 
Q 1038 3666 1038 3163 
Q 1038 2656 1286 2365 
Q 1534 2075 1959 2075 
z
" transform="scale(0.015625)"/>
      <path id="DejaVuSans-34" d="M 2419 4116 
L 825 1625 
L 2419 1625 
L 2419 4116 
z
M 2253 4666 
L 3047 4666 
L 3047 1625 
L 3713 1625 
L 3713 1100 
L 3047 1100 
L 3047 0 
L 2419 0 
L 2419 1100 
L 313 1100 
L 313 1709 
L 2253 4666 
z
" transform="scale(0.015625)"/>
     </defs>
     <use xlink:href="#DejaVuSans-39"/>
     <use xlink:href="#DejaVuSans-31" x="63.623047"/>
     <use xlink:href="#DejaVuSans-2e" x="127.246094"/>
     <use xlink:href="#DejaVuSans-30" x="159.033203"/>
     <use xlink:href="#DejaVuSans-35" x="222.65625"/>
     <use xlink:href="#DejaVuSans-34" x="286.279297"/>
     <use xlink:href="#DejaVuSans-38" x="349.902344"/>
    </g>
   </g>
   <g id="text_18">
    <!-- 105.0703 -->
    <g transform="translate(132.815241 257.325697) scale(0.06 -0.06)">
     <use xlink:href="#DejaVuSans-31"/>
     <use xlink:href="#DejaVuSans-30" x="63.623047"/>
     <use xlink:href="#DejaVuSans-35" x="127.246094"/>
     <use xlink:href="#DejaVuSans-2e" x="190.869141"/>
     <use xlink:href="#DejaVuSans-30" x="222.65625"/>
     <use xlink:href="#DejaVuSans-37" x="286.279297"/>
     <use xlink:href="#DejaVuSans-30" x="349.902344"/>
     <use xlink:href="#DejaVuSans-33" x="413.525391"/>
    </g>
   </g>
   <g id="text_19">
    <!-- 107.0495 -->
    <g transform="translate(135.400736 238.448607) scale(0.06 -0.06)">
     <use xlink:href="#DejaVuSans-31"/>
     <use xlink:href="#DejaVuSans-30" x="63.623047"/>
     <use xlink:href="#DejaVuSans-37" x="127.246094"/>
     <use xlink:href="#DejaVuSans-2e" x="190.869141"/>
     <use xlink:href="#DejaVuSans-30" x="222.65625"/>
     <use xlink:href="#DejaVuSans-34" x="286.279297"/>
     <use xlink:href="#DejaVuSans-39" x="349.902344"/>
     <use xlink:href="#DejaVuSans-35" x="413.525391"/>
    </g>
   </g>
   <g id="text_20">
    <!-- 117.0701 -->
    <g transform="translate(139.850665 284.541171) scale(0.06 -0.06)">
     <use xlink:href="#DejaVuSans-31"/>
     <use xlink:href="#DejaVuSans-31" x="63.623047"/>
     <use xlink:href="#DejaVuSans-37" x="127.246094"/>
     <use xlink:href="#DejaVuSans-2e" x="190.869141"/>
     <use xlink:href="#DejaVuSans-30" x="222.65625"/>
     <use xlink:href="#DejaVuSans-37" x="286.279297"/>
     <use xlink:href="#DejaVuSans-30" x="349.902344"/>
     <use xlink:href="#DejaVuSans-31" x="413.525391"/>
    </g>
   </g>
   <g id="text_21">
    <!-- 121.065 -->
    <g transform="translate(157.057925 231.534772) scale(0.06 -0.06)">
     <use xlink:href="#DejaVuSans-31"/>
     <use xlink:href="#DejaVuSans-32" x="63.623047"/>
     <use xlink:href="#DejaVuSans-31" x="127.246094"/>
     <use xlink:href="#DejaVuSans-2e" x="190.869141"/>
     <use xlink:href="#DejaVuSans-30" x="222.65625"/>
     <use xlink:href="#DejaVuSans-36" x="286.279297"/>
     <use xlink:href="#DejaVuSans-35" x="349.902344"/>
    </g>
   </g>
   <g id="text_22">
    <!-- 133.0648 -->
    <g transform="translate(170.82459 273.530414) scale(0.06 -0.06)">
     <use xlink:href="#DejaVuSans-31"/>
     <use xlink:href="#DejaVuSans-33" x="63.623047"/>
     <use xlink:href="#DejaVuSans-33" x="127.246094"/>
     <use xlink:href="#DejaVuSans-2e" x="190.869141"/>
     <use xlink:href="#DejaVuSans-30" x="222.65625"/>
     <use xlink:href="#DejaVuSans-36" x="286.279297"/>
     <use xlink:href="#DejaVuSans-34" x="349.902344"/>
     <use xlink:href="#DejaVuSans-38" x="413.525391"/>
    </g>
   </g>
   <g id="text_23">
    <!-- 149.0234 -->
    <g transform="translate(190.951284 50.939625) scale(0.06 -0.06)">
     <use xlink:href="#DejaVuSans-31"/>
     <use xlink:href="#DejaVuSans-34" x="63.623047"/>
     <use xlink:href="#DejaVuSans-39" x="127.246094"/>
     <use xlink:href="#DejaVuSans-2e" x="190.869141"/>
     <use xlink:href="#DejaVuSans-30" x="222.65625"/>
     <use xlink:href="#DejaVuSans-32" x="286.279297"/>
     <use xlink:href="#DejaVuSans-33" x="349.902344"/>
     <use xlink:href="#DejaVuSans-34" x="413.525391"/>
    </g>
   </g>
   <g id="text_24">
    <!-- 155.0854 -->
    <g transform="translate(198.870082 273.222524) scale(0.06 -0.06)">
     <use xlink:href="#DejaVuSans-31"/>
     <use xlink:href="#DejaVuSans-35" x="63.623047"/>
     <use xlink:href="#DejaVuSans-35" x="127.246094"/>
     <use xlink:href="#DejaVuSans-2e" x="190.869141"/>
     <use xlink:href="#DejaVuSans-30" x="222.65625"/>
     <use xlink:href="#DejaVuSans-38" x="286.279297"/>
     <use xlink:href="#DejaVuSans-35" x="349.902344"/>
     <use xlink:href="#DejaVuSans-34" x="413.525391"/>
    </g>
   </g>
   <g id="text_25">
    <!-- 249.1273 -->
    <g transform="translate(321.717202 92.013459) scale(0.06 -0.06)">
     <use xlink:href="#DejaVuSans-32"/>
     <use xlink:href="#DejaVuSans-34" x="63.623047"/>
     <use xlink:href="#DejaVuSans-39" x="127.246094"/>
     <use xlink:href="#DejaVuSans-2e" x="190.869141"/>
     <use xlink:href="#DejaVuSans-31" x="222.65625"/>
     <use xlink:href="#DejaVuSans-32" x="286.279297"/>
     <use xlink:href="#DejaVuSans-37" x="349.902344"/>
     <use xlink:href="#DejaVuSans-33" x="413.525391"/>
    </g>
   </g>
   <g id="text_26">
    <!-- 280.1694 -->
    <g transform="translate(362.267597 73.556807) scale(0.06 -0.06)">
     <use xlink:href="#DejaVuSans-32"/>
     <use xlink:href="#DejaVuSans-38" x="63.623047"/>
     <use xlink:href="#DejaVuSans-30" x="127.246094"/>
     <use xlink:href="#DejaVuSans-2e" x="190.869141"/>
     <use xlink:href="#DejaVuSans-31" x="222.65625"/>
     <use xlink:href="#DejaVuSans-36" x="286.279297"/>
     <use xlink:href="#DejaVuSans-39" x="349.902344"/>
     <use xlink:href="#DejaVuSans-34" x="413.525391"/>
    </g>
   </g>
   <g id="text_27">
    <!-- MS2 spectrum of ${m/z}$ 279.1581, scan time 5.7 min. -->
    <g transform="translate(57.6 24.873562) scale(0.12 -0.12)">
     <defs>
      <path id="DejaVuSans-4d" d="M 628 4666 
L 1569 4666 
L 2759 1491 
L 3956 4666 
L 4897 4666 
L 4897 0 
L 4281 0 
L 4281 4097 
L 3078 897 
L 2444 897 
L 1241 4097 
L 1241 0 
L 628 0 
L 628 4666 
z
" transform="scale(0.015625)"/>
      <path id="DejaVuSans-53" d="M 3425 4513 
L 3425 3897 
Q 3066 4069 2747 4153 
Q 2428 4238 2131 4238 
Q 1616 4238 1336 4038 
Q 1056 3838 1056 3469 
Q 1056 3159 1242 3001 
Q 1428 2844 1947 2747 
L 2328 2669 
Q 3034 2534 3370 2195 
Q 3706 1856 3706 1288 
Q 3706 609 3251 259 
Q 2797 -91 1919 -91 
Q 1588 -91 1214 -16 
Q 841 59 441 206 
L 441 856 
Q 825 641 1194 531 
Q 1563 422 1919 422 
Q 2459 422 2753 634 
Q 3047 847 3047 1241 
Q 3047 1584 2836 1778 
Q 2625 1972 2144 2069 
L 1759 2144 
Q 1053 2284 737 2584 
Q 422 2884 422 3419 
Q 422 4038 858 4394 
Q 1294 4750 2059 4750 
Q 2388 4750 2728 4690 
Q 3069 4631 3425 4513 
z
" transform="scale(0.015625)"/>
      <path id="DejaVuSans-20" transform="scale(0.015625)"/>
      <path id="DejaVuSans-70" d="M 1159 525 
L 1159 -1331 
L 581 -1331 
L 581 3500 
L 1159 3500 
L 1159 2969 
Q 1341 3281 1617 3432 
Q 1894 3584 2278 3584 
Q 2916 3584 3314 3078 
Q 3713 2572 3713 1747 
Q 3713 922 3314 415 
Q 2916 -91 2278 -91 
Q 1894 -91 1617 61 
Q 1341 213 1159 525 
z
M 3116 1747 
Q 3116 2381 2855 2742 
Q 2594 3103 2138 3103 
Q 1681 3103 1420 2742 
Q 1159 2381 1159 1747 
Q 1159 1113 1420 752 
Q 1681 391 2138 391 
Q 2594 391 2855 752 
Q 3116 1113 3116 1747 
z
" transform="scale(0.015625)"/>
      <path id="DejaVuSans-63" d="M 3122 3366 
L 3122 2828 
Q 2878 2963 2633 3030 
Q 2388 3097 2138 3097 
Q 1578 3097 1268 2742 
Q 959 2388 959 1747 
Q 959 1106 1268 751 
Q 1578 397 2138 397 
Q 2388 397 2633 464 
Q 2878 531 3122 666 
L 3122 134 
Q 2881 22 2623 -34 
Q 2366 -91 2075 -91 
Q 1284 -91 818 406 
Q 353 903 353 1747 
Q 353 2603 823 3093 
Q 1294 3584 2113 3584 
Q 2378 3584 2631 3529 
Q 2884 3475 3122 3366 
z
" transform="scale(0.015625)"/>
      <path id="DejaVuSans-72" d="M 2631 2963 
Q 2534 3019 2420 3045 
Q 2306 3072 2169 3072 
Q 1681 3072 1420 2755 
Q 1159 2438 1159 1844 
L 1159 0 
L 581 0 
L 581 3500 
L 1159 3500 
L 1159 2956 
Q 1341 3275 1631 3429 
Q 1922 3584 2338 3584 
Q 2397 3584 2469 3576 
Q 2541 3569 2628 3553 
L 2631 2963 
z
" transform="scale(0.015625)"/>
      <path id="DejaVuSans-75" d="M 544 1381 
L 544 3500 
L 1119 3500 
L 1119 1403 
Q 1119 906 1312 657 
Q 1506 409 1894 409 
Q 2359 409 2629 706 
Q 2900 1003 2900 1516 
L 2900 3500 
L 3475 3500 
L 3475 0 
L 2900 0 
L 2900 538 
Q 2691 219 2414 64 
Q 2138 -91 1772 -91 
Q 1169 -91 856 284 
Q 544 659 544 1381 
z
M 1991 3584 
L 1991 3584 
z
" transform="scale(0.015625)"/>
      <path id="DejaVuSans-6d" d="M 3328 2828 
Q 3544 3216 3844 3400 
Q 4144 3584 4550 3584 
Q 5097 3584 5394 3201 
Q 5691 2819 5691 2113 
L 5691 0 
L 5113 0 
L 5113 2094 
Q 5113 2597 4934 2840 
Q 4756 3084 4391 3084 
Q 3944 3084 3684 2787 
Q 3425 2491 3425 1978 
L 3425 0 
L 2847 0 
L 2847 2094 
Q 2847 2600 2669 2842 
Q 2491 3084 2119 3084 
Q 1678 3084 1418 2786 
Q 1159 2488 1159 1978 
L 1159 0 
L 581 0 
L 581 3500 
L 1159 3500 
L 1159 2956 
Q 1356 3278 1631 3431 
Q 1906 3584 2284 3584 
Q 2666 3584 2933 3390 
Q 3200 3197 3328 2828 
z
" transform="scale(0.015625)"/>
      <path id="DejaVuSans-6f" d="M 1959 3097 
Q 1497 3097 1228 2736 
Q 959 2375 959 1747 
Q 959 1119 1226 758 
Q 1494 397 1959 397 
Q 2419 397 2687 759 
Q 2956 1122 2956 1747 
Q 2956 2369 2687 2733 
Q 2419 3097 1959 3097 
z
M 1959 3584 
Q 2709 3584 3137 3096 
Q 3566 2609 3566 1747 
Q 3566 888 3137 398 
Q 2709 -91 1959 -91 
Q 1206 -91 779 398 
Q 353 888 353 1747 
Q 353 2609 779 3096 
Q 1206 3584 1959 3584 
z
" transform="scale(0.015625)"/>
      <path id="DejaVuSans-66" d="M 2375 4863 
L 2375 4384 
L 1825 4384 
Q 1516 4384 1395 4259 
Q 1275 4134 1275 3809 
L 1275 3500 
L 2222 3500 
L 2222 3053 
L 1275 3053 
L 1275 0 
L 697 0 
L 697 3053 
L 147 3053 
L 147 3500 
L 697 3500 
L 697 3744 
Q 697 4328 969 4595 
Q 1241 4863 1831 4863 
L 2375 4863 
z
" transform="scale(0.015625)"/>
      <path id="DejaVuSans-2c" d="M 750 794 
L 1409 794 
L 1409 256 
L 897 -744 
L 494 -744 
L 750 256 
L 750 794 
z
" transform="scale(0.015625)"/>
      <path id="DejaVuSans-61" d="M 2194 1759 
Q 1497 1759 1228 1600 
Q 959 1441 959 1056 
Q 959 750 1161 570 
Q 1363 391 1709 391 
Q 2188 391 2477 730 
Q 2766 1069 2766 1631 
L 2766 1759 
L 2194 1759 
z
M 3341 1997 
L 3341 0 
L 2766 0 
L 2766 531 
Q 2569 213 2275 61 
Q 1981 -91 1556 -91 
Q 1019 -91 701 211 
Q 384 513 384 1019 
Q 384 1609 779 1909 
Q 1175 2209 1959 2209 
L 2766 2209 
L 2766 2266 
Q 2766 2663 2505 2880 
Q 2244 3097 1772 3097 
Q 1472 3097 1187 3025 
Q 903 2953 641 2809 
L 641 3341 
Q 956 3463 1253 3523 
Q 1550 3584 1831 3584 
Q 2591 3584 2966 3190 
Q 3341 2797 3341 1997 
z
" transform="scale(0.015625)"/>
     </defs>
     <use xlink:href="#DejaVuSans-4d" transform="translate(0 0.015625)"/>
     <use xlink:href="#DejaVuSans-53" transform="translate(86.279297 0.015625)"/>
     <use xlink:href="#DejaVuSans-32" transform="translate(149.755859 0.015625)"/>
     <use xlink:href="#DejaVuSans-20" transform="translate(213.378906 0.015625)"/>
     <use xlink:href="#DejaVuSans-73" transform="translate(245.166016 0.015625)"/>
     <use xlink:href="#DejaVuSans-70" transform="translate(297.265625 0.015625)"/>
     <use xlink:href="#DejaVuSans-65" transform="translate(360.742188 0.015625)"/>
     <use xlink:href="#DejaVuSans-63" transform="translate(422.265625 0.015625)"/>
     <use xlink:href="#DejaVuSans-74" transform="translate(477.246094 0.015625)"/>
     <use xlink:href="#DejaVuSans-72" transform="translate(516.455078 0.015625)"/>
     <use xlink:href="#DejaVuSans-75" transform="translate(557.568359 0.015625)"/>
     <use xlink:href="#DejaVuSans-6d" transform="translate(620.947266 0.015625)"/>
     <use xlink:href="#DejaVuSans-20" transform="translate(718.359375 0.015625)"/>
     <use xlink:href="#DejaVuSans-6f" transform="translate(750.146484 0.015625)"/>
     <use xlink:href="#DejaVuSans-66" transform="translate(811.328125 0.015625)"/>
     <use xlink:href="#DejaVuSans-20" transform="translate(846.533203 0.015625)"/>
     <use xlink:href="#DejaVuSans-Oblique-6d" transform="translate(878.320312 0.015625)"/>
     <use xlink:href="#DejaVuSans-2f" transform="translate(975.732422 0.015625)"/>
     <use xlink:href="#DejaVuSans-Oblique-7a" transform="translate(1009.423828 0.015625)"/>
     <use xlink:href="#DejaVuSans-20" transform="translate(1061.914062 0.015625)"/>
     <use xlink:href="#DejaVuSans-32" transform="translate(1093.701172 0.015625)"/>
     <use xlink:href="#DejaVuSans-37" transform="translate(1157.324219 0.015625)"/>
     <use xlink:href="#DejaVuSans-39" transform="translate(1220.947266 0.015625)"/>
     <use xlink:href="#DejaVuSans-2e" transform="translate(1284.570312 0.015625)"/>
     <use xlink:href="#DejaVuSans-31" transform="translate(1316.357422 0.015625)"/>
     <use xlink:href="#DejaVuSans-35" transform="translate(1379.980469 0.015625)"/>
     <use xlink:href="#DejaVuSans-38" transform="translate(1443.603516 0.015625)"/>
     <use xlink:href="#DejaVuSans-31" transform="translate(1507.226562 0.015625)"/>
     <use xlink:href="#DejaVuSans-2c" transform="translate(1570.849609 0.015625)"/>
     <use xlink:href="#DejaVuSans-20" transform="translate(1602.636719 0.015625)"/>
     <use xlink:href="#DejaVuSans-73" transform="translate(1634.423828 0.015625)"/>
     <use xlink:href="#DejaVuSans-63" transform="translate(1686.523438 0.015625)"/>
     <use xlink:href="#DejaVuSans-61" transform="translate(1741.503906 0.015625)"/>
     <use xlink:href="#DejaVuSans-6e" transform="translate(1802.783203 0.015625)"/>
     <use xlink:href="#DejaVuSans-20" transform="translate(1866.162109 0.015625)"/>
     <use xlink:href="#DejaVuSans-74" transform="translate(1897.949219 0.015625)"/>
     <use xlink:href="#DejaVuSans-69" transform="translate(1937.158203 0.015625)"/>
     <use xlink:href="#DejaVuSans-6d" transform="translate(1964.941406 0.015625)"/>
     <use xlink:href="#DejaVuSans-65" transform="translate(2062.353516 0.015625)"/>
     <use xlink:href="#DejaVuSans-20" transform="translate(2123.876953 0.015625)"/>
     <use xlink:href="#DejaVuSans-35" transform="translate(2155.664062 0.015625)"/>
     <use xlink:href="#DejaVuSans-2e" transform="translate(2219.287109 0.015625)"/>
     <use xlink:href="#DejaVuSans-37" transform="translate(2243.324219 0.015625)"/>
     <use xlink:href="#DejaVuSans-20" transform="translate(2306.947266 0.015625)"/>
     <use xlink:href="#DejaVuSans-6d" transform="translate(2338.734375 0.015625)"/>
     <use xlink:href="#DejaVuSans-69" transform="translate(2436.146484 0.015625)"/>
     <use xlink:href="#DejaVuSans-6e" transform="translate(2463.929688 0.015625)"/>
     <use xlink:href="#DejaVuSans-2e" transform="translate(2527.308594 0.015625)"/>
    </g>
   </g>
  </g>
 </g>
 <defs>
  <clipPath id="p588442255b">
   <rect x="57.6" y="41.472" width="357.12" height="266.112"/>
  </clipPath>
 </defs>
</svg>
