<?xml version="1.0" encoding="utf-8" standalone="no"?>
<!DOCTYPE svg PUBLIC "-//W3C//DTD SVG 1.1//EN"
  "http://www.w3.org/Graphics/SVG/1.1/DTD/svg11.dtd">
<svg xmlns:xlink="http://www.w3.org/1999/xlink" width="460.8pt" height="345.6pt" viewBox="0 0 460.8 345.6" xmlns="http://www.w3.org/2000/svg" version="1.1">
 <metadata>
  <rdf:RDF xmlns:dc="http://purl.org/dc/elements/1.1/" xmlns:cc="http://creativecommons.org/ns#" xmlns:rdf="http://www.w3.org/1999/02/22-rdf-syntax-ns#">
   <cc:Work>
    <dc:type rdf:resource="http://purl.org/dc/dcmitype/StillImage"/>
    <dc:date>2025-01-11T12:37:30.136065</dc:date>
    <dc:format>image/svg+xml</dc:format>
    <dc:creator>
     <cc:Agent>
      <dc:title>Matplotlib v3.7.3, https://matplotlib.org/</dc:title>
     </cc:Agent>
    </dc:creator>
   </cc:Work>
  </rdf:RDF>
 </metadata>
 <defs>
  <style type="text/css">*{stroke-linejoin: round; stroke-linecap: butt}</style>
 </defs>
 <g id="figure_1">
  <g id="patch_1">
   <path d="M 0 345.6 
L 460.8 345.6 
L 460.8 0 
L 0 0 
z
" style="fill: #ffffff"/>
  </g>
  <g id="axes_1">
   <g id="patch_2">
    <path d="M 57.6 307.584 
L 414.72 307.584 
L 414.72 41.472 
L 57.6 41.472 
z
" style="fill: #ffffff"/>
   </g>
   <g id="patch_3">
    <path d="M 73.832727 307.584 
L 74.778643 307.584 
L 74.778643 307.362658 
L 73.832727 307.362658 
z
" clip-path="url(#p37e75bf6db)" style="fill: #1f77b4"/>
   </g>
   <g id="patch_4">
    <path d="M 78.74817 307.584 
L 79.694086 307.584 
L 79.694086 307.354271 
L 78.74817 307.354271 
z
" clip-path="url(#p37e75bf6db)" style="fill: #1f77b4"/>
   </g>
   <g id="patch_5">
    <path d="M 79.312205 307.584 
L 80.258121 307.584 
L 80.258121 306.83415 
L 79.312205 306.83415 
z
" clip-path="url(#p37e75bf6db)" style="fill: #1f77b4"/>
   </g>
   <g id="patch_6">
    <path d="M 79.354883 307.584 
L 80.300799 307.584 
L 80.300799 307.271408 
L 79.354883 307.271408 
z
" clip-path="url(#p37e75bf6db)" style="fill: #1f77b4"/>
   </g>
   <g id="patch_7">
    <path d="M 80.527026 307.584 
L 81.472941 307.584 
L 81.472941 307.314518 
L 80.527026 307.314518 
z
" clip-path="url(#p37e75bf6db)" style="fill: #1f77b4"/>
   </g>
   <g id="patch_8">
    <path d="M 80.532064 307.584 
L 81.47798 307.584 
L 81.47798 291.010228 
L 80.532064 291.010228 
z
" clip-path="url(#p37e75bf6db)" style="fill: #1f77b4"/>
   </g>
   <g id="patch_9">
    <path d="M 81.671983 307.584 
L 82.617899 307.584 
L 82.617899 307.297454 
L 81.671983 307.297454 
z
" clip-path="url(#p37e75bf6db)" style="fill: #1f77b4"/>
   </g>
   <g id="patch_10">
    <path d="M 92.620899 307.584 
L 93.566814 307.584 
L 93.566814 307.355873 
L 92.620899 307.355873 
z
" clip-path="url(#p37e75bf6db)" style="fill: #1f77b4"/>
   </g>
   <g id="patch_11">
    <path d="M 94.720183 307.584 
L 95.666099 307.584 
L 95.666099 307.232664 
L 94.720183 307.232664 
z
" clip-path="url(#p37e75bf6db)" style="fill: #1f77b4"/>
   </g>
   <g id="patch_12">
    <path d="M 96.830059 307.584 
L 97.775975 307.584 
L 97.775975 307.316662 
L 96.830059 307.316662 
z
" clip-path="url(#p37e75bf6db)" style="fill: #1f77b4"/>
   </g>
   <g id="patch_13">
    <path d="M 97.103962 307.584 
L 98.049878 307.584 
L 98.049878 306.657398 
L 97.103962 306.657398 
z
" clip-path="url(#p37e75bf6db)" style="fill: #1f77b4"/>
   </g>
   <g id="patch_14">
    <path d="M 97.920674 307.584 
L 98.86659 307.584 
L 98.86659 307.269778 
L 97.920674 307.269778 
z
" clip-path="url(#p37e75bf6db)" style="fill: #1f77b4"/>
   </g>
   <g id="patch_15">
    <path d="M 98.5797 307.584 
L 99.525616 307.584 
L 99.525616 307.353615 
L 98.5797 307.353615 
z
" clip-path="url(#p37e75bf6db)" style="fill: #1f77b4"/>
   </g>
   <g id="patch_16">
    <path d="M 107.993528 307.584 
L 108.939444 307.584 
L 108.939444 306.761979 
L 107.993528 306.761979 
z
" clip-path="url(#p37e75bf6db)" style="fill: #1f77b4"/>
   </g>
   <g id="patch_17">
    <path d="M 110.049287 307.584 
L 110.995203 307.584 
L 110.995203 306.503182 
L 110.049287 306.503182 
z
" clip-path="url(#p37e75bf6db)" style="fill: #1f77b4"/>
   </g>
   <g id="patch_18">
    <path d="M 110.100878 307.584 
L 111.046794 307.584 
L 111.046794 307.072399 
L 110.100878 307.072399 
z
" clip-path="url(#p37e75bf6db)" style="fill: #1f77b4"/>
   </g>
   <g id="patch_19">
    <path d="M 111.292366 307.584 
L 112.238282 307.584 
L 112.238282 305.222438 
L 111.292366 305.222438 
z
" clip-path="url(#p37e75bf6db)" style="fill: #1f77b4"/>
   </g>
   <g id="patch_20">
    <path d="M 117.154734 307.584 
L 118.100649 307.584 
L 118.100649 307.024206 
L 117.154734 307.024206 
z
" clip-path="url(#p37e75bf6db)" style="fill: #1f77b4"/>
   </g>
   <g id="patch_21">
    <path d="M 126.620757 307.584 
L 127.566673 307.584 
L 127.566673 307.235249 
L 126.620757 307.235249 
z
" clip-path="url(#p37e75bf6db)" style="fill: #1f77b4"/>
   </g>
   <g id="patch_22">
    <path d="M 133.726113 307.584 
L 134.672029 307.584 
L 134.672029 307.272003 
L 133.726113 307.272003 
z
" clip-path="url(#p37e75bf6db)" style="fill: #1f77b4"/>
   </g>
   <g id="patch_23">
    <path d="M 140.79101 307.584 
L 141.736926 307.584 
L 141.736926 305.961054 
L 140.79101 305.961054 
z
" clip-path="url(#p37e75bf6db)" style="fill: #1f77b4"/>
   </g>
   <g id="patch_24">
    <path d="M 140.794718 307.584 
L 141.740634 307.584 
L 141.740634 306.967001 
L 140.794718 306.967001 
z
" clip-path="url(#p37e75bf6db)" style="fill: #1f77b4"/>
   </g>
   <g id="patch_25">
    <path d="M 140.809648 307.584 
L 141.755564 307.584 
L 141.755564 88.440032 
L 140.809648 88.440032 
z
" clip-path="url(#p37e75bf6db)" style="fill: #1f77b4"/>
   </g>
   <g id="patch_26">
    <path d="M 141.99575 307.584 
L 142.941666 307.584 
L 142.941666 297.587473 
L 141.99575 297.587473 
z
" clip-path="url(#p37e75bf6db)" style="fill: #1f77b4"/>
   </g>
   <g id="patch_27">
    <path d="M 149.091634 307.584 
L 150.03755 307.584 
L 150.03755 277.113925 
L 149.091634 277.113925 
z
" clip-path="url(#p37e75bf6db)" style="fill: #1f77b4"/>
   </g>
   <g id="patch_28">
    <path d="M 150.277583 307.584 
L 151.223499 307.584 
L 151.223499 306.15683 
L 150.277583 306.15683 
z
" clip-path="url(#p37e75bf6db)" style="fill: #1f77b4"/>
   </g>
   <g id="patch_29">
    <path d="M 150.841844 307.584 
L 151.78776 307.584 
L 151.78776 307.315701 
L 150.841844 307.315701 
z
" clip-path="url(#p37e75bf6db)" style="fill: #1f77b4"/>
   </g>
   <g id="patch_30">
    <path d="M 154.998548 307.584 
L 155.944463 307.584 
L 155.944463 306.308696 
L 154.998548 306.308696 
z
" clip-path="url(#p37e75bf6db)" style="fill: #1f77b4"/>
   </g>
   <g id="patch_31">
    <path d="M 157.338124 307.584 
L 158.284039 307.584 
L 158.284039 304.546851 
L 157.338124 304.546851 
z
" clip-path="url(#p37e75bf6db)" style="fill: #1f77b4"/>
   </g>
   <g id="patch_32">
    <path d="M 157.381334 307.584 
L 158.32725 307.584 
L 158.32725 306.473566 
L 157.381334 306.473566 
z
" clip-path="url(#p37e75bf6db)" style="fill: #1f77b4"/>
   </g>
   <g id="patch_33">
    <path d="M 159.721424 307.584 
L 160.66734 307.584 
L 160.66734 306.788464 
L 159.721424 306.788464 
z
" clip-path="url(#p37e75bf6db)" style="fill: #1f77b4"/>
   </g>
   <g id="patch_34">
    <path d="M 164.486916 307.584 
L 165.432832 307.584 
L 165.432832 305.683625 
L 164.486916 305.683625 
z
" clip-path="url(#p37e75bf6db)" style="fill: #1f77b4"/>
   </g>
   <g id="patch_35">
    <path d="M 165.094622 307.584 
L 166.040537 307.584 
L 166.040537 307.316723 
L 165.094622 307.316723 
z
" clip-path="url(#p37e75bf6db)" style="fill: #1f77b4"/>
   </g>
   <g id="patch_36">
    <path d="M 165.663808 307.584 
L 166.609724 307.584 
L 166.609724 305.958588 
L 165.663808 305.958588 
z
" clip-path="url(#p37e75bf6db)" style="fill: #1f77b4"/>
   </g>
   <g id="patch_37">
    <path d="M 169.186437 307.584 
L 170.132353 307.584 
L 170.132353 306.618682 
L 169.186437 306.618682 
z
" clip-path="url(#p37e75bf6db)" style="fill: #1f77b4"/>
   </g>
   <g id="patch_38">
    <path d="M 173.953038 307.584 
L 174.898954 307.584 
L 174.898954 306.567468 
L 173.953038 306.567468 
z
" clip-path="url(#p37e75bf6db)" style="fill: #1f77b4"/>
   </g>
   <g id="patch_39">
    <path d="M 177.468433 307.584 
L 178.414349 307.584 
L 178.414349 305.468482 
L 177.468433 305.468482 
z
" clip-path="url(#p37e75bf6db)" style="fill: #1f77b4"/>
   </g>
   <g id="patch_40">
    <path d="M 177.478663 307.584 
L 178.424578 307.584 
L 178.424578 307.356424 
L 177.478663 307.356424 
z
" clip-path="url(#p37e75bf6db)" style="fill: #1f77b4"/>
   </g>
   <g id="patch_41">
    <path d="M 179.852058 307.584 
L 180.797974 307.584 
L 180.797974 306.154616 
L 179.852058 306.154616 
z
" clip-path="url(#p37e75bf6db)" style="fill: #1f77b4"/>
   </g>
   <g id="patch_42">
    <path d="M 182.192347 307.584 
L 183.138263 307.584 
L 183.138263 305.030008 
L 182.192347 305.030008 
z
" clip-path="url(#p37e75bf6db)" style="fill: #1f77b4"/>
   </g>
   <g id="patch_43">
    <path d="M 184.567096 307.584 
L 185.513011 307.584 
L 185.513011 306.855833 
L 184.567096 306.855833 
z
" clip-path="url(#p37e75bf6db)" style="fill: #1f77b4"/>
   </g>
   <g id="patch_44">
    <path d="M 185.7588 307.584 
L 186.704716 307.584 
L 186.704716 306.698827 
L 185.7588 306.698827 
z
" clip-path="url(#p37e75bf6db)" style="fill: #1f77b4"/>
   </g>
   <g id="patch_45">
    <path d="M 189.318993 307.584 
L 190.264908 307.584 
L 190.264908 307.261846 
L 189.318993 307.261846 
z
" clip-path="url(#p37e75bf6db)" style="fill: #1f77b4"/>
   </g>
   <g id="patch_46">
    <path d="M 193.821568 307.584 
L 194.767484 307.584 
L 194.767484 307.276888 
L 193.821568 307.276888 
z
" clip-path="url(#p37e75bf6db)" style="fill: #1f77b4"/>
   </g>
   <g id="patch_47">
    <path d="M 194.040453 307.584 
L 194.986369 307.584 
L 194.986369 306.338659 
L 194.040453 306.338659 
z
" clip-path="url(#p37e75bf6db)" style="fill: #1f77b4"/>
   </g>
   <g id="patch_48">
    <path d="M 196.424042 307.584 
L 197.369958 307.584 
L 197.369958 300.857877 
L 196.424042 300.857877 
z
" clip-path="url(#p37e75bf6db)" style="fill: #1f77b4"/>
   </g>
   <g id="patch_49">
    <path d="M 196.438043 307.584 
L 197.383959 307.584 
L 197.383959 307.101301 
L 196.438043 307.101301 
z
" clip-path="url(#p37e75bf6db)" style="fill: #1f77b4"/>
   </g>
   <g id="patch_50">
    <path d="M 197.612535 307.584 
L 198.558451 307.584 
L 198.558451 307.176356 
L 197.612535 307.176356 
z
" clip-path="url(#p37e75bf6db)" style="fill: #1f77b4"/>
   </g>
   <g id="patch_51">
    <path d="M 198.7648 307.584 
L 199.710716 307.584 
L 199.710716 307.293737 
L 198.7648 307.293737 
z
" clip-path="url(#p37e75bf6db)" style="fill: #1f77b4"/>
   </g>
   <g id="patch_52">
    <path d="M 199.947086 307.584 
L 200.893002 307.584 
L 200.893002 306.682287 
L 199.947086 306.682287 
z
" clip-path="url(#p37e75bf6db)" style="fill: #1f77b4"/>
   </g>
   <g id="patch_53">
    <path d="M 208.215785 307.584 
L 209.161701 307.584 
L 209.161701 307.338852 
L 208.215785 307.338852 
z
" clip-path="url(#p37e75bf6db)" style="fill: #1f77b4"/>
   </g>
   <g id="patch_54">
    <path d="M 208.229497 307.584 
L 209.175413 307.584 
L 209.175413 292.416923 
L 208.229497 292.416923 
z
" clip-path="url(#p37e75bf6db)" style="fill: #1f77b4"/>
   </g>
   <g id="patch_55">
    <path d="M 209.415969 307.584 
L 210.361885 307.584 
L 210.361885 306.422638 
L 209.415969 306.422638 
z
" clip-path="url(#p37e75bf6db)" style="fill: #1f77b4"/>
   </g>
   <g id="patch_56">
    <path d="M 210.612834 307.584 
L 211.55875 307.584 
L 211.55875 306.477769 
L 210.612834 306.477769 
z
" clip-path="url(#p37e75bf6db)" style="fill: #1f77b4"/>
   </g>
   <g id="patch_57">
    <path d="M 229.525377 307.584 
L 230.471293 307.584 
L 230.471293 305.884505 
L 229.525377 305.884505 
z
" clip-path="url(#p37e75bf6db)" style="fill: #1f77b4"/>
   </g>
   <g id="patch_58">
    <path d="M 236.607964 307.584 
L 237.55388 307.584 
L 237.55388 307.229207 
L 236.607964 307.229207 
z
" clip-path="url(#p37e75bf6db)" style="fill: #1f77b4"/>
   </g>
   <g id="patch_59">
    <path d="M 249.504847 307.584 
L 250.450763 307.584 
L 250.450763 307.337814 
L 249.504847 307.337814 
z
" clip-path="url(#p37e75bf6db)" style="fill: #1f77b4"/>
   </g>
   <g id="patch_60">
    <path d="M 266.190874 307.584 
L 267.13679 307.584 
L 267.13679 304.745018 
L 266.190874 304.745018 
z
" clip-path="url(#p37e75bf6db)" style="fill: #1f77b4"/>
   </g>
   <g id="patch_61">
    <path d="M 269.708487 307.584 
L 270.654403 307.584 
L 270.654403 306.172099 
L 269.708487 306.172099 
z
" clip-path="url(#p37e75bf6db)" style="fill: #1f77b4"/>
   </g>
   <g id="patch_62">
    <path d="M 272.084824 307.584 
L 273.03074 307.584 
L 273.03074 306.235335 
L 272.084824 306.235335 
z
" clip-path="url(#p37e75bf6db)" style="fill: #1f77b4"/>
   </g>
   <g id="patch_63">
    <path d="M 273.258937 307.584 
L 274.204853 307.584 
L 274.204853 300.551068 
L 273.258937 300.551068 
z
" clip-path="url(#p37e75bf6db)" style="fill: #1f77b4"/>
   </g>
   <g id="patch_64">
    <path d="M 274.450299 307.584 
L 275.396215 307.584 
L 275.396215 303.209224 
L 274.450299 303.209224 
z
" clip-path="url(#p37e75bf6db)" style="fill: #1f77b4"/>
   </g>
   <g id="patch_65">
    <path d="M 276.834339 307.584 
L 277.780255 307.584 
L 277.780255 306.951634 
L 276.834339 306.951634 
z
" clip-path="url(#p37e75bf6db)" style="fill: #1f77b4"/>
   </g>
   <g id="patch_66">
    <path d="M 280.364456 307.584 
L 281.310372 307.584 
L 281.310372 301.316969 
L 280.364456 301.316969 
z
" clip-path="url(#p37e75bf6db)" style="fill: #1f77b4"/>
   </g>
   <g id="patch_67">
    <path d="M 280.389137 307.584 
L 281.335053 307.584 
L 281.335053 307.187593 
L 280.389137 307.187593 
z
" clip-path="url(#p37e75bf6db)" style="fill: #1f77b4"/>
   </g>
   <g id="patch_68">
    <path d="M 281.550315 307.584 
L 282.496231 307.584 
L 282.496231 306.892444 
L 281.550315 306.892444 
z
" clip-path="url(#p37e75bf6db)" style="fill: #1f77b4"/>
   </g>
   <g id="patch_69">
    <path d="M 287.393567 307.584 
L 288.339483 307.584 
L 288.339483 307.249272 
L 287.393567 307.249272 
z
" clip-path="url(#p37e75bf6db)" style="fill: #1f77b4"/>
   </g>
   <g id="patch_70">
    <path d="M 287.463209 307.584 
L 288.409125 307.584 
L 288.409125 306.126785 
L 287.463209 306.126785 
z
" clip-path="url(#p37e75bf6db)" style="fill: #1f77b4"/>
   </g>
   <g id="patch_71">
    <path d="M 288.63947 307.584 
L 289.585385 307.584 
L 289.585385 277.256137 
L 288.63947 277.256137 
z
" clip-path="url(#p37e75bf6db)" style="fill: #1f77b4"/>
   </g>
   <g id="patch_72">
    <path d="M 289.825743 307.584 
L 290.771659 307.584 
L 290.771659 305.165087 
L 289.825743 305.165087 
z
" clip-path="url(#p37e75bf6db)" style="fill: #1f77b4"/>
   </g>
   <g id="patch_73">
    <path d="M 289.850641 307.584 
L 290.796557 307.584 
L 290.796557 304.240328 
L 289.850641 304.240328 
z
" clip-path="url(#p37e75bf6db)" style="fill: #1f77b4"/>
   </g>
   <g id="patch_74">
    <path d="M 291.022951 307.584 
L 291.968866 307.584 
L 291.968866 305.185318 
L 291.022951 305.185318 
z
" clip-path="url(#p37e75bf6db)" style="fill: #1f77b4"/>
   </g>
   <g id="patch_75">
    <path d="M 293.362734 307.584 
L 294.30865 307.584 
L 294.30865 303.096357 
L 293.362734 303.096357 
z
" clip-path="url(#p37e75bf6db)" style="fill: #1f77b4"/>
   </g>
   <g id="patch_76">
    <path d="M 295.745313 307.584 
L 296.691229 307.584 
L 296.691229 306.144833 
L 295.745313 306.144833 
z
" clip-path="url(#p37e75bf6db)" style="fill: #1f77b4"/>
   </g>
   <g id="patch_77">
    <path d="M 296.936314 307.584 
L 297.88223 307.584 
L 297.88223 305.658061 
L 296.936314 305.658061 
z
" clip-path="url(#p37e75bf6db)" style="fill: #1f77b4"/>
   </g>
   <g id="patch_78">
    <path d="M 298.128126 307.584 
L 299.074042 307.584 
L 299.074042 300.932049 
L 298.128126 300.932049 
z
" clip-path="url(#p37e75bf6db)" style="fill: #1f77b4"/>
   </g>
   <g id="patch_79">
    <path d="M 299.314075 307.584 
L 300.259991 307.584 
L 300.259991 306.819429 
L 299.314075 306.819429 
z
" clip-path="url(#p37e75bf6db)" style="fill: #1f77b4"/>
   </g>
   <g id="patch_80">
    <path d="M 301.65081 307.584 
L 302.596726 307.584 
L 302.596726 306.620582 
L 301.65081 306.620582 
z
" clip-path="url(#p37e75bf6db)" style="fill: #1f77b4"/>
   </g>
   <g id="patch_81">
    <path d="M 302.825699 307.584 
L 303.771615 307.584 
L 303.771615 305.473057 
L 302.825699 305.473057 
z
" clip-path="url(#p37e75bf6db)" style="fill: #1f77b4"/>
   </g>
   <g id="patch_82">
    <path d="M 303.988482 307.584 
L 304.934398 307.584 
L 304.934398 307.089448 
L 303.988482 307.089448 
z
" clip-path="url(#p37e75bf6db)" style="fill: #1f77b4"/>
   </g>
   <g id="patch_83">
    <path d="M 304.019857 307.584 
L 304.965773 307.584 
L 304.965773 290.717314 
L 304.019857 290.717314 
z
" clip-path="url(#p37e75bf6db)" style="fill: #1f77b4"/>
   </g>
   <g id="patch_84">
    <path d="M 304.051034 307.584 
L 304.99695 307.584 
L 304.99695 307.285653 
L 304.051034 307.285653 
z
" clip-path="url(#p37e75bf6db)" style="fill: #1f77b4"/>
   </g>
   <g id="patch_85">
    <path d="M 305.207142 307.584 
L 306.153057 307.584 
L 306.153057 306.049003 
L 305.207142 306.049003 
z
" clip-path="url(#p37e75bf6db)" style="fill: #1f77b4"/>
   </g>
   <g id="patch_86">
    <path d="M 307.594429 307.584 
L 308.540345 307.584 
L 308.540345 304.072893 
L 307.594429 304.072893 
z
" clip-path="url(#p37e75bf6db)" style="fill: #1f77b4"/>
   </g>
   <g id="patch_87">
    <path d="M 308.780829 307.584 
L 309.726745 307.584 
L 309.726745 307.059579 
L 308.780829 307.059579 
z
" clip-path="url(#p37e75bf6db)" style="fill: #1f77b4"/>
   </g>
   <g id="patch_88">
    <path d="M 319.399271 307.584 
L 320.345187 307.584 
L 320.345187 305.73101 
L 319.399271 305.73101 
z
" clip-path="url(#p37e75bf6db)" style="fill: #1f77b4"/>
   </g>
   <g id="patch_89">
    <path d="M 320.590795 307.584 
L 321.536711 307.584 
L 321.536711 305.715558 
L 320.590795 305.715558 
z
" clip-path="url(#p37e75bf6db)" style="fill: #1f77b4"/>
   </g>
   <g id="patch_90">
    <path d="M 321.78351 307.584 
L 322.729426 307.584 
L 322.729426 223.501372 
L 321.78351 223.501372 
z
" clip-path="url(#p37e75bf6db)" style="fill: #1f77b4"/>
   </g>
   <g id="patch_91">
    <path d="M 322.969874 307.584 
L 323.91579 307.584 
L 323.91579 296.977321 
L 322.969874 296.977321 
z
" clip-path="url(#p37e75bf6db)" style="fill: #1f77b4"/>
   </g>
   <g id="patch_92">
    <path d="M 343.078884 307.584 
L 344.0248 307.584 
L 344.0248 297.326704 
L 343.078884 297.326704 
z
" clip-path="url(#p37e75bf6db)" style="fill: #1f77b4"/>
   </g>
   <g id="patch_93">
    <path d="M 344.265934 307.584 
L 345.21185 307.584 
L 345.21185 306.501625 
L 344.265934 306.501625 
z
" clip-path="url(#p37e75bf6db)" style="fill: #1f77b4"/>
   </g>
   <g id="patch_94">
    <path d="M 375.059762 307.584 
L 376.005678 307.584 
L 376.005678 299.477638 
L 375.059762 299.477638 
z
" clip-path="url(#p37e75bf6db)" style="fill: #1f77b4"/>
   </g>
   <g id="patch_95">
    <path d="M 376.245802 307.584 
L 377.191718 307.584 
L 377.191718 306.486907 
L 376.245802 306.486907 
z
" clip-path="url(#p37e75bf6db)" style="fill: #1f77b4"/>
   </g>
   <g id="patch_96">
    <path d="M 396.259804 307.584 
L 397.20572 307.584 
L 397.20572 305.880821 
L 396.259804 305.880821 
z
" clip-path="url(#p37e75bf6db)" style="fill: #1f77b4"/>
   </g>
   <g id="patch_97">
    <path d="M 396.355354 307.584 
L 397.30127 307.584 
L 397.30127 54.144 
L 396.355354 54.144 
z
" clip-path="url(#p37e75bf6db)" style="fill: #1f77b4"/>
   </g>
   <g id="patch_98">
    <path d="M 396.449208 307.584 
L 397.395124 307.584 
L 397.395124 305.857699 
L 396.449208 305.857699 
z
" clip-path="url(#p37e75bf6db)" style="fill: #1f77b4"/>
   </g>
   <g id="patch_99">
    <path d="M 397.541357 307.584 
L 398.487273 307.584 
L 398.487273 271.617372 
L 397.541357 271.617372 
z
" clip-path="url(#p37e75bf6db)" style="fill: #1f77b4"/>
   </g>
   <g id="matplotlib.axis_1">
    <g id="xtick_1">
     <g id="line2d_1">
      <defs>
       <path id="mef6d650a9e" d="M 0 0 
L 0 3.5 
" style="stroke: #000000; stroke-width: 0.8"/>
      </defs>
      <g>
       <use xlink:href="#mef6d650a9e" x="71.467819" y="307.584" style="stroke: #000000; stroke-width: 0.8"/>
      </g>
     </g>
     <g id="text_1">
      <!-- 50 -->
      <g transform="translate(65.105319 322.182437) scale(0.1 -0.1)">
       <defs>
        <path id="DejaVuSans-35" d="M 691 4666 
L 3169 4666 
L 3169 4134 
L 1269 4134 
L 1269 2991 
Q 1406 3038 1543 3061 
Q 1681 3084 1819 3084 
Q 2600 3084 3056 2656 
Q 3513 2228 3513 1497 
Q 3513 744 3044 326 
Q 2575 -91 1722 -91 
Q 1428 -91 1123 -41 
Q 819 9 494 109 
L 494 744 
Q 775 591 1075 516 
Q 1375 441 1709 441 
Q 2250 441 2565 725 
Q 2881 1009 2881 1497 
Q 2881 1984 2565 2268 
Q 2250 2553 1709 2553 
Q 1456 2553 1204 2497 
Q 953 2441 691 2322 
L 691 4666 
z
" transform="scale(0.015625)"/>
        <path id="DejaVuSans-30" d="M 2034 4250 
Q 1547 4250 1301 3770 
Q 1056 3291 1056 2328 
Q 1056 1369 1301 889 
Q 1547 409 2034 409 
Q 2525 409 2770 889 
Q 3016 1369 3016 2328 
Q 3016 3291 2770 3770 
Q 2525 4250 2034 4250 
z
M 2034 4750 
Q 2819 4750 3233 4129 
Q 3647 3509 3647 2328 
Q 3647 1150 3233 529 
Q 2819 -91 2034 -91 
Q 1250 -91 836 529 
Q 422 1150 422 2328 
Q 422 3509 836 4129 
Q 1250 4750 2034 4750 
z
" transform="scale(0.015625)"/>
       </defs>
       <use xlink:href="#DejaVuSans-35"/>
       <use xlink:href="#DejaVuSans-30" x="63.623047"/>
      </g>
     </g>
    </g>
    <g id="xtick_2">
     <g id="line2d_2">
      <g>
       <use xlink:href="#mef6d650a9e" x="130.587558" y="307.584" style="stroke: #000000; stroke-width: 0.8"/>
      </g>
     </g>
     <g id="text_2">
      <!-- 100 -->
      <g transform="translate(121.043808 322.182437) scale(0.1 -0.1)">
       <defs>
        <path id="DejaVuSans-31" d="M 794 531 
L 1825 531 
L 1825 4091 
L 703 3866 
L 703 4441 
L 1819 4666 
L 2450 4666 
L 2450 531 
L 3481 531 
L 3481 0 
L 794 0 
L 794 531 
z
" transform="scale(0.015625)"/>
       </defs>
       <use xlink:href="#DejaVuSans-31"/>
       <use xlink:href="#DejaVuSans-30" x="63.623047"/>
       <use xlink:href="#DejaVuSans-30" x="127.246094"/>
      </g>
     </g>
    </g>
    <g id="xtick_3">
     <g id="line2d_3">
      <g>
       <use xlink:href="#mef6d650a9e" x="189.707298" y="307.584" style="stroke: #000000; stroke-width: 0.8"/>
      </g>
     </g>
     <g id="text_3">
      <!-- 150 -->
      <g transform="translate(180.163548 322.182437) scale(0.1 -0.1)">
       <use xlink:href="#DejaVuSans-31"/>
       <use xlink:href="#DejaVuSans-35" x="63.623047"/>
       <use xlink:href="#DejaVuSans-30" x="127.246094"/>
      </g>
     </g>
    </g>
    <g id="xtick_4">
     <g id="line2d_4">
      <g>
       <use xlink:href="#mef6d650a9e" x="248.827037" y="307.584" style="stroke: #000000; stroke-width: 0.8"/>
      </g>
     </g>
     <g id="text_4">
      <!-- 200 -->
      <g transform="translate(239.283287 322.182437) scale(0.1 -0.1)">
       <defs>
        <path id="DejaVuSans-32" d="M 1228 531 
L 3431 531 
L 3431 0 
L 469 0 
L 469 531 
Q 828 903 1448 1529 
Q 2069 2156 2228 2338 
Q 2531 2678 2651 2914 
Q 2772 3150 2772 3378 
Q 2772 3750 2511 3984 
Q 2250 4219 1831 4219 
Q 1534 4219 1204 4116 
Q 875 4013 500 3803 
L 500 4441 
Q 881 4594 1212 4672 
Q 1544 4750 1819 4750 
Q 2544 4750 2975 4387 
Q 3406 4025 3406 3419 
Q 3406 3131 3298 2873 
Q 3191 2616 2906 2266 
Q 2828 2175 2409 1742 
Q 1991 1309 1228 531 
z
" transform="scale(0.015625)"/>
       </defs>
       <use xlink:href="#DejaVuSans-32"/>
       <use xlink:href="#DejaVuSans-30" x="63.623047"/>
       <use xlink:href="#DejaVuSans-30" x="127.246094"/>
      </g>
     </g>
    </g>
    <g id="xtick_5">
     <g id="line2d_5">
      <g>
       <use xlink:href="#mef6d650a9e" x="307.946777" y="307.584" style="stroke: #000000; stroke-width: 0.8"/>
      </g>
     </g>
     <g id="text_5">
      <!-- 250 -->
      <g transform="translate(298.403027 322.182437) scale(0.1 -0.1)">
       <use xlink:href="#DejaVuSans-32"/>
       <use xlink:href="#DejaVuSans-35" x="63.623047"/>
       <use xlink:href="#DejaVuSans-30" x="127.246094"/>
      </g>
     </g>
    </g>
    <g id="xtick_6">
     <g id="line2d_6">
      <g>
       <use xlink:href="#mef6d650a9e" x="367.066517" y="307.584" style="stroke: #000000; stroke-width: 0.8"/>
      </g>
     </g>
     <g id="text_6">
      <!-- 300 -->
      <g transform="translate(357.522767 322.182437) scale(0.1 -0.1)">
       <defs>
        <path id="DejaVuSans-33" d="M 2597 2516 
Q 3050 2419 3304 2112 
Q 3559 1806 3559 1356 
Q 3559 666 3084 287 
Q 2609 -91 1734 -91 
Q 1441 -91 1130 -33 
Q 819 25 488 141 
L 488 750 
Q 750 597 1062 519 
Q 1375 441 1716 441 
Q 2309 441 2620 675 
Q 2931 909 2931 1356 
Q 2931 1769 2642 2001 
Q 2353 2234 1838 2234 
L 1294 2234 
L 1294 2753 
L 1863 2753 
Q 2328 2753 2575 2939 
Q 2822 3125 2822 3475 
Q 2822 3834 2567 4026 
Q 2313 4219 1838 4219 
Q 1578 4219 1281 4162 
Q 984 4106 628 3988 
L 628 4550 
Q 988 4650 1302 4700 
Q 1616 4750 1894 4750 
Q 2613 4750 3031 4423 
Q 3450 4097 3450 3541 
Q 3450 3153 3228 2886 
Q 3006 2619 2597 2516 
z
" transform="scale(0.015625)"/>
       </defs>
       <use xlink:href="#DejaVuSans-33"/>
       <use xlink:href="#DejaVuSans-30" x="63.623047"/>
       <use xlink:href="#DejaVuSans-30" x="127.246094"/>
      </g>
     </g>
    </g>
    <g id="text_7">
     <!-- ${m/z}$ -->
     <g transform="translate(226.96 335.860562) scale(0.1 -0.1)">
      <defs>
       <path id="DejaVuSans-Oblique-6d" d="M 5747 2113 
L 5338 0 
L 4763 0 
L 5166 2094 
Q 5191 2228 5203 2325 
Q 5216 2422 5216 2491 
Q 5216 2772 5059 2928 
Q 4903 3084 4622 3084 
Q 4203 3084 3875 2770 
Q 3547 2456 3450 1953 
L 3066 0 
L 2491 0 
L 2900 2094 
Q 2925 2209 2937 2307 
Q 2950 2406 2950 2484 
Q 2950 2769 2794 2926 
Q 2638 3084 2363 3084 
Q 1938 3084 1609 2770 
Q 1281 2456 1184 1953 
L 800 0 
L 225 0 
L 909 3500 
L 1484 3500 
L 1375 2956 
Q 1609 3263 1923 3423 
Q 2238 3584 2597 3584 
Q 2978 3584 3223 3384 
Q 3469 3184 3519 2828 
Q 3781 3197 4126 3390 
Q 4472 3584 4856 3584 
Q 5306 3584 5551 3325 
Q 5797 3066 5797 2591 
Q 5797 2488 5784 2364 
Q 5772 2241 5747 2113 
z
" transform="scale(0.015625)"/>
       <path id="DejaVuSans-2f" d="M 1625 4666 
L 2156 4666 
L 531 -594 
L 0 -594 
L 1625 4666 
z
" transform="scale(0.015625)"/>
       <path id="DejaVuSans-Oblique-7a" d="M 744 3500 
L 3475 3500 
L 3372 2975 
L 738 459 
L 2913 459 
L 2822 0 
L -19 0 
L 84 525 
L 2719 3041 
L 653 3041 
L 744 3500 
z
" transform="scale(0.015625)"/>
      </defs>
      <use xlink:href="#DejaVuSans-Oblique-6d" transform="translate(0 0.09375)"/>
      <use xlink:href="#DejaVuSans-2f" transform="translate(97.412109 0.09375)"/>
      <use xlink:href="#DejaVuSans-Oblique-7a" transform="translate(131.103516 0.09375)"/>
     </g>
    </g>
   </g>
   <g id="matplotlib.axis_2">
    <g id="ytick_1">
     <g id="line2d_7">
      <defs>
       <path id="m0c81839917" d="M 0 0 
L -3.5 0 
" style="stroke: #000000; stroke-width: 0.8"/>
      </defs>
      <g>
       <use xlink:href="#m0c81839917" x="57.6" y="307.584" style="stroke: #000000; stroke-width: 0.8"/>
      </g>
     </g>
     <g id="text_8">
      <!-- 0 -->
      <g transform="translate(44.2375 311.383219) scale(0.1 -0.1)">
       <use xlink:href="#DejaVuSans-30"/>
      </g>
     </g>
    </g>
    <g id="ytick_2">
     <g id="line2d_8">
      <g>
       <use xlink:href="#m0c81839917" x="57.6" y="254.071639" style="stroke: #000000; stroke-width: 0.8"/>
      </g>
     </g>
     <g id="text_9">
      <!-- 2 -->
      <g transform="translate(44.2375 257.870858) scale(0.1 -0.1)">
       <use xlink:href="#DejaVuSans-32"/>
      </g>
     </g>
    </g>
    <g id="ytick_3">
     <g id="line2d_9">
      <g>
       <use xlink:href="#m0c81839917" x="57.6" y="200.559278" style="stroke: #000000; stroke-width: 0.8"/>
      </g>
     </g>
     <g id="text_10">
      <!-- 4 -->
      <g transform="translate(44.2375 204.358497) scale(0.1 -0.1)">
       <defs>
        <path id="DejaVuSans-34" d="M 2419 4116 
L 825 1625 
L 2419 1625 
L 2419 4116 
z
M 2253 4666 
L 3047 4666 
L 3047 1625 
L 3713 1625 
L 3713 1100 
L 3047 1100 
L 3047 0 
L 2419 0 
L 2419 1100 
L 313 1100 
L 313 1709 
L 2253 4666 
z
" transform="scale(0.015625)"/>
       </defs>
       <use xlink:href="#DejaVuSans-34"/>
      </g>
     </g>
    </g>
    <g id="ytick_4">
     <g id="line2d_10">
      <g>
       <use xlink:href="#m0c81839917" x="57.6" y="147.046917" style="stroke: #000000; stroke-width: 0.8"/>
      </g>
     </g>
     <g id="text_11">
      <!-- 6 -->
      <g transform="translate(44.2375 150.846136) scale(0.1 -0.1)">
       <defs>
        <path id="DejaVuSans-36" d="M 2113 2584 
Q 1688 2584 1439 2293 
Q 1191 2003 1191 1497 
Q 1191 994 1439 701 
Q 1688 409 2113 409 
Q 2538 409 2786 701 
Q 3034 994 3034 1497 
Q 3034 2003 2786 2293 
Q 2538 2584 2113 2584 
z
M 3366 4563 
L 3366 3988 
Q 3128 4100 2886 4159 
Q 2644 4219 2406 4219 
Q 1781 4219 1451 3797 
Q 1122 3375 1075 2522 
Q 1259 2794 1537 2939 
Q 1816 3084 2150 3084 
Q 2853 3084 3261 2657 
Q 3669 2231 3669 1497 
Q 3669 778 3244 343 
Q 2819 -91 2113 -91 
Q 1303 -91 875 529 
Q 447 1150 447 2328 
Q 447 3434 972 4092 
Q 1497 4750 2381 4750 
Q 2619 4750 2861 4703 
Q 3103 4656 3366 4563 
z
" transform="scale(0.015625)"/>
       </defs>
       <use xlink:href="#DejaVuSans-36"/>
      </g>
     </g>
    </g>
    <g id="ytick_5">
     <g id="line2d_11">
      <g>
       <use xlink:href="#m0c81839917" x="57.6" y="93.534556" style="stroke: #000000; stroke-width: 0.8"/>
      </g>
     </g>
     <g id="text_12">
      <!-- 8 -->
      <g transform="translate(44.2375 97.333775) scale(0.1 -0.1)">
       <defs>
        <path id="DejaVuSans-38" d="M 2034 2216 
Q 1584 2216 1326 1975 
Q 1069 1734 1069 1313 
Q 1069 891 1326 650 
Q 1584 409 2034 409 
Q 2484 409 2743 651 
Q 3003 894 3003 1313 
Q 3003 1734 2745 1975 
Q 2488 2216 2034 2216 
z
M 1403 2484 
Q 997 2584 770 2862 
Q 544 3141 544 3541 
Q 544 4100 942 4425 
Q 1341 4750 2034 4750 
Q 2731 4750 3128 4425 
Q 3525 4100 3525 3541 
Q 3525 3141 3298 2862 
Q 3072 2584 2669 2484 
Q 3125 2378 3379 2068 
Q 3634 1759 3634 1313 
Q 3634 634 3220 271 
Q 2806 -91 2034 -91 
Q 1263 -91 848 271 
Q 434 634 434 1313 
Q 434 1759 690 2068 
Q 947 2378 1403 2484 
z
M 1172 3481 
Q 1172 3119 1398 2916 
Q 1625 2713 2034 2713 
Q 2441 2713 2670 2916 
Q 2900 3119 2900 3481 
Q 2900 3844 2670 4047 
Q 2441 4250 2034 4250 
Q 1625 4250 1398 4047 
Q 1172 3844 1172 3481 
z
" transform="scale(0.015625)"/>
       </defs>
       <use xlink:href="#DejaVuSans-38"/>
      </g>
     </g>
    </g>
    <g id="text_13">
     <!-- intensities -->
     <g transform="translate(38.157812 200.3155) rotate(-90) scale(0.1 -0.1)">
      <defs>
       <path id="DejaVuSans-69" d="M 603 3500 
L 1178 3500 
L 1178 0 
L 603 0 
L 603 3500 
z
M 603 4863 
L 1178 4863 
L 1178 4134 
L 603 4134 
L 603 4863 
z
" transform="scale(0.015625)"/>
       <path id="DejaVuSans-6e" d="M 3513 2113 
L 3513 0 
L 2938 0 
L 2938 2094 
Q 2938 2591 2744 2837 
Q 2550 3084 2163 3084 
Q 1697 3084 1428 2787 
Q 1159 2491 1159 1978 
L 1159 0 
L 581 0 
L 581 3500 
L 1159 3500 
L 1159 2956 
Q 1366 3272 1645 3428 
Q 1925 3584 2291 3584 
Q 2894 3584 3203 3211 
Q 3513 2838 3513 2113 
z
" transform="scale(0.015625)"/>
       <path id="DejaVuSans-74" d="M 1172 4494 
L 1172 3500 
L 2356 3500 
L 2356 3053 
L 1172 3053 
L 1172 1153 
Q 1172 725 1289 603 
Q 1406 481 1766 481 
L 2356 481 
L 2356 0 
L 1766 0 
Q 1100 0 847 248 
Q 594 497 594 1153 
L 594 3053 
L 172 3053 
L 172 3500 
L 594 3500 
L 594 4494 
L 1172 4494 
z
" transform="scale(0.015625)"/>
       <path id="DejaVuSans-65" d="M 3597 1894 
L 3597 1613 
L 953 1613 
Q 991 1019 1311 708 
Q 1631 397 2203 397 
Q 2534 397 2845 478 
Q 3156 559 3463 722 
L 3463 178 
Q 3153 47 2828 -22 
Q 2503 -91 2169 -91 
Q 1331 -91 842 396 
Q 353 884 353 1716 
Q 353 2575 817 3079 
Q 1281 3584 2069 3584 
Q 2775 3584 3186 3129 
Q 3597 2675 3597 1894 
z
M 3022 2063 
Q 3016 2534 2758 2815 
Q 2500 3097 2075 3097 
Q 1594 3097 1305 2825 
Q 1016 2553 972 2059 
L 3022 2063 
z
" transform="scale(0.015625)"/>
       <path id="DejaVuSans-73" d="M 2834 3397 
L 2834 2853 
Q 2591 2978 2328 3040 
Q 2066 3103 1784 3103 
Q 1356 3103 1142 2972 
Q 928 2841 928 2578 
Q 928 2378 1081 2264 
Q 1234 2150 1697 2047 
L 1894 2003 
Q 2506 1872 2764 1633 
Q 3022 1394 3022 966 
Q 3022 478 2636 193 
Q 2250 -91 1575 -91 
Q 1294 -91 989 -36 
Q 684 19 347 128 
L 347 722 
Q 666 556 975 473 
Q 1284 391 1588 391 
Q 1994 391 2212 530 
Q 2431 669 2431 922 
Q 2431 1156 2273 1281 
Q 2116 1406 1581 1522 
L 1381 1569 
Q 847 1681 609 1914 
Q 372 2147 372 2553 
Q 372 3047 722 3315 
Q 1072 3584 1716 3584 
Q 2034 3584 2315 3537 
Q 2597 3491 2834 3397 
z
" transform="scale(0.015625)"/>
      </defs>
      <use xlink:href="#DejaVuSans-69"/>
      <use xlink:href="#DejaVuSans-6e" x="27.783203"/>
      <use xlink:href="#DejaVuSans-74" x="91.162109"/>
      <use xlink:href="#DejaVuSans-65" x="130.371094"/>
      <use xlink:href="#DejaVuSans-6e" x="191.894531"/>
      <use xlink:href="#DejaVuSans-73" x="255.273438"/>
      <use xlink:href="#DejaVuSans-69" x="307.373047"/>
      <use xlink:href="#DejaVuSans-74" x="335.15625"/>
      <use xlink:href="#DejaVuSans-69" x="374.365234"/>
      <use xlink:href="#DejaVuSans-65" x="402.148438"/>
      <use xlink:href="#DejaVuSans-73" x="463.671875"/>
     </g>
    </g>
    <g id="text_14">
     <!-- 1e6 -->
     <g transform="translate(57.6 38.472) scale(0.1 -0.1)">
      <use xlink:href="#DejaVuSans-31"/>
      <use xlink:href="#DejaVuSans-65" x="63.623047"/>
      <use xlink:href="#DejaVuSans-36" x="125.146484"/>
     </g>
    </g>
   </g>
   <g id="patch_100">
    <path d="M 57.6 307.584 
L 57.6 41.472 
" style="fill: none; stroke: #000000; stroke-width: 0.8; stroke-linejoin: miter; stroke-linecap: square"/>
   </g>
   <g id="patch_101">
    <path d="M 414.72 307.584 
L 414.72 41.472 
" style="fill: none; stroke: #000000; stroke-width: 0.8; stroke-linejoin: miter; stroke-linecap: square"/>
   </g>
   <g id="patch_102">
    <path d="M 57.6 307.584 
L 414.72 307.584 
" style="fill: none; stroke: #000000; stroke-width: 0.8; stroke-linejoin: miter; stroke-linecap: square"/>
   </g>
   <g id="patch_103">
    <path d="M 57.6 41.472 
L 414.72 41.472 
" style="fill: none; stroke: #000000; stroke-width: 0.8; stroke-linejoin: miter; stroke-linecap: square"/>
   </g>
   <g id="text_15">
    <!-- 109.0452 -->
    <g transform="translate(127.687918 85.235657) scale(0.06 -0.06)">
     <defs>
      <path id="DejaVuSans-39" d="M 703 97 
L 703 672 
Q 941 559 1184 500 
Q 1428 441 1663 441 
Q 2288 441 2617 861 
Q 2947 1281 2994 2138 
Q 2813 1869 2534 1725 
Q 2256 1581 1919 1581 
Q 1219 1581 811 2004 
Q 403 2428 403 3163 
Q 403 3881 828 4315 
Q 1253 4750 1959 4750 
Q 2769 4750 3195 4129 
Q 3622 3509 3622 2328 
Q 3622 1225 3098 567 
Q 2575 -91 1691 -91 
Q 1453 -91 1209 -44 
Q 966 3 703 97 
z
M 1959 2075 
Q 2384 2075 2632 2365 
Q 2881 2656 2881 3163 
Q 2881 3666 2632 3958 
Q 2384 4250 1959 4250 
Q 1534 4250 1286 3958 
Q 1038 3666 1038 3163 
Q 1038 2656 1286 2365 
Q 1534 2075 1959 2075 
z
" transform="scale(0.015625)"/>
      <path id="DejaVuSans-2e" d="M 684 794 
L 1344 794 
L 1344 0 
L 684 0 
L 684 794 
z
" transform="scale(0.015625)"/>
     </defs>
     <use xlink:href="#DejaVuSans-31"/>
     <use xlink:href="#DejaVuSans-30" x="63.623047"/>
     <use xlink:href="#DejaVuSans-39" x="127.246094"/>
     <use xlink:href="#DejaVuSans-2e" x="190.869141"/>
     <use xlink:href="#DejaVuSans-30" x="222.65625"/>
     <use xlink:href="#DejaVuSans-34" x="286.279297"/>
     <use xlink:href="#DejaVuSans-35" x="349.902344"/>
     <use xlink:href="#DejaVuSans-32" x="413.525391"/>
    </g>
   </g>
   <g id="text_16">
    <!-- 116.0497 -->
    <g transform="translate(135.969905 273.90955) scale(0.06 -0.06)">
     <defs>
      <path id="DejaVuSans-37" d="M 525 4666 
L 3525 4666 
L 3525 4397 
L 1831 0 
L 1172 0 
L 2766 4134 
L 525 4134 
L 525 4666 
z
" transform="scale(0.015625)"/>
     </defs>
     <use xlink:href="#DejaVuSans-31"/>
     <use xlink:href="#DejaVuSans-31" x="63.623047"/>
     <use xlink:href="#DejaVuSans-36" x="127.246094"/>
     <use xlink:href="#DejaVuSans-2e" x="190.869141"/>
     <use xlink:href="#DejaVuSans-30" x="222.65625"/>
     <use xlink:href="#DejaVuSans-34" x="286.279297"/>
     <use xlink:href="#DejaVuSans-39" x="349.902344"/>
     <use xlink:href="#DejaVuSans-37" x="413.525391"/>
    </g>
   </g>
   <g id="text_17">
    <!-- 234.071 -->
    <g transform="translate(277.42649 274.051762) scale(0.06 -0.06)">
     <use xlink:href="#DejaVuSans-32"/>
     <use xlink:href="#DejaVuSans-33" x="63.623047"/>
     <use xlink:href="#DejaVuSans-34" x="127.246094"/>
     <use xlink:href="#DejaVuSans-2e" x="190.869141"/>
     <use xlink:href="#DejaVuSans-30" x="222.65625"/>
     <use xlink:href="#DejaVuSans-37" x="286.279297"/>
     <use xlink:href="#DejaVuSans-31" x="349.902344"/>
    </g>
   </g>
   <g id="text_18">
    <!-- 262.1023 -->
    <g transform="translate(308.66178 220.296997) scale(0.06 -0.06)">
     <use xlink:href="#DejaVuSans-32"/>
     <use xlink:href="#DejaVuSans-36" x="63.623047"/>
     <use xlink:href="#DejaVuSans-32" x="127.246094"/>
     <use xlink:href="#DejaVuSans-2e" x="190.869141"/>
     <use xlink:href="#DejaVuSans-31" x="222.65625"/>
     <use xlink:href="#DejaVuSans-30" x="286.279297"/>
     <use xlink:href="#DejaVuSans-32" x="349.902344"/>
     <use xlink:href="#DejaVuSans-33" x="413.525391"/>
    </g>
   </g>
   <g id="text_19">
    <!-- 325.1708 -->
    <g transform="translate(383.233624 50.939625) scale(0.06 -0.06)">
     <use xlink:href="#DejaVuSans-33"/>
     <use xlink:href="#DejaVuSans-32" x="63.623047"/>
     <use xlink:href="#DejaVuSans-35" x="127.246094"/>
     <use xlink:href="#DejaVuSans-2e" x="190.869141"/>
     <use xlink:href="#DejaVuSans-31" x="222.65625"/>
     <use xlink:href="#DejaVuSans-37" x="286.279297"/>
     <use xlink:href="#DejaVuSans-30" x="349.902344"/>
     <use xlink:href="#DejaVuSans-38" x="413.525391"/>
    </g>
   </g>
   <g id="text_20">
    <!-- 326.1738 -->
    <g transform="translate(384.419627 268.412997) scale(0.06 -0.06)">
     <use xlink:href="#DejaVuSans-33"/>
     <use xlink:href="#DejaVuSans-32" x="63.623047"/>
     <use xlink:href="#DejaVuSans-36" x="127.246094"/>
     <use xlink:href="#DejaVuSans-2e" x="190.869141"/>
     <use xlink:href="#DejaVuSans-31" x="222.65625"/>
     <use xlink:href="#DejaVuSans-37" x="286.279297"/>
     <use xlink:href="#DejaVuSans-33" x="349.902344"/>
     <use xlink:href="#DejaVuSans-38" x="413.525391"/>
    </g>
   </g>
   <g id="text_21">
    <!-- MS2 spectrum of ${m/z}$ 325.17, scan time 6.29 min. -->
    <g transform="translate(57.6 24.873562) scale(0.12 -0.12)">
     <defs>
      <path id="DejaVuSans-4d" d="M 628 4666 
L 1569 4666 
L 2759 1491 
L 3956 4666 
L 4897 4666 
L 4897 0 
L 4281 0 
L 4281 4097 
L 3078 897 
L 2444 897 
L 1241 4097 
L 1241 0 
L 628 0 
L 628 4666 
z
" transform="scale(0.015625)"/>
      <path id="DejaVuSans-53" d="M 3425 4513 
L 3425 3897 
Q 3066 4069 2747 4153 
Q 2428 4238 2131 4238 
Q 1616 4238 1336 4038 
Q 1056 3838 1056 3469 
Q 1056 3159 1242 3001 
Q 1428 2844 1947 2747 
L 2328 2669 
Q 3034 2534 3370 2195 
Q 3706 1856 3706 1288 
Q 3706 609 3251 259 
Q 2797 -91 1919 -91 
Q 1588 -91 1214 -16 
Q 841 59 441 206 
L 441 856 
Q 825 641 1194 531 
Q 1563 422 1919 422 
Q 2459 422 2753 634 
Q 3047 847 3047 1241 
Q 3047 1584 2836 1778 
Q 2625 1972 2144 2069 
L 1759 2144 
Q 1053 2284 737 2584 
Q 422 2884 422 3419 
Q 422 4038 858 4394 
Q 1294 4750 2059 4750 
Q 2388 4750 2728 4690 
Q 3069 4631 3425 4513 
z
" transform="scale(0.015625)"/>
      <path id="DejaVuSans-20" transform="scale(0.015625)"/>
      <path id="DejaVuSans-70" d="M 1159 525 
L 1159 -1331 
L 581 -1331 
L 581 3500 
L 1159 3500 
L 1159 2969 
Q 1341 3281 1617 3432 
Q 1894 3584 2278 3584 
Q 2916 3584 3314 3078 
Q 3713 2572 3713 1747 
Q 3713 922 3314 415 
Q 2916 -91 2278 -91 
Q 1894 -91 1617 61 
Q 1341 213 1159 525 
z
M 3116 1747 
Q 3116 2381 2855 2742 
Q 2594 3103 2138 3103 
Q 1681 3103 1420 2742 
Q 1159 2381 1159 1747 
Q 1159 1113 1420 752 
Q 1681 391 2138 391 
Q 2594 391 2855 752 
Q 3116 1113 3116 1747 
z
" transform="scale(0.015625)"/>
      <path id="DejaVuSans-63" d="M 3122 3366 
L 3122 2828 
Q 2878 2963 2633 3030 
Q 2388 3097 2138 3097 
Q 1578 3097 1268 2742 
Q 959 2388 959 1747 
Q 959 1106 1268 751 
Q 1578 397 2138 397 
Q 2388 397 2633 464 
Q 2878 531 3122 666 
L 3122 134 
Q 2881 22 2623 -34 
Q 2366 -91 2075 -91 
Q 1284 -91 818 406 
Q 353 903 353 1747 
Q 353 2603 823 3093 
Q 1294 3584 2113 3584 
Q 2378 3584 2631 3529 
Q 2884 3475 3122 3366 
z
" transform="scale(0.015625)"/>
      <path id="DejaVuSans-72" d="M 2631 2963 
Q 2534 3019 2420 3045 
Q 2306 3072 2169 3072 
Q 1681 3072 1420 2755 
Q 1159 2438 1159 1844 
L 1159 0 
L 581 0 
L 581 3500 
L 1159 3500 
L 1159 2956 
Q 1341 3275 1631 3429 
Q 1922 3584 2338 3584 
Q 2397 3584 2469 3576 
Q 2541 3569 2628 3553 
L 2631 2963 
z
" transform="scale(0.015625)"/>
      <path id="DejaVuSans-75" d="M 544 1381 
L 544 3500 
L 1119 3500 
L 1119 1403 
Q 1119 906 1312 657 
Q 1506 409 1894 409 
Q 2359 409 2629 706 
Q 2900 1003 2900 1516 
L 2900 3500 
L 3475 3500 
L 3475 0 
L 2900 0 
L 2900 538 
Q 2691 219 2414 64 
Q 2138 -91 1772 -91 
Q 1169 -91 856 284 
Q 544 659 544 1381 
z
M 1991 3584 
L 1991 3584 
z
" transform="scale(0.015625)"/>
      <path id="DejaVuSans-6d" d="M 3328 2828 
Q 3544 3216 3844 3400 
Q 4144 3584 4550 3584 
Q 5097 3584 5394 3201 
Q 5691 2819 5691 2113 
L 5691 0 
L 5113 0 
L 5113 2094 
Q 5113 2597 4934 2840 
Q 4756 3084 4391 3084 
Q 3944 3084 3684 2787 
Q 3425 2491 3425 1978 
L 3425 0 
L 2847 0 
L 2847 2094 
Q 2847 2600 2669 2842 
Q 2491 3084 2119 3084 
Q 1678 3084 1418 2786 
Q 1159 2488 1159 1978 
L 1159 0 
L 581 0 
L 581 3500 
L 1159 3500 
L 1159 2956 
Q 1356 3278 1631 3431 
Q 1906 3584 2284 3584 
Q 2666 3584 2933 3390 
Q 3200 3197 3328 2828 
z
" transform="scale(0.015625)"/>
      <path id="DejaVuSans-6f" d="M 1959 3097 
Q 1497 3097 1228 2736 
Q 959 2375 959 1747 
Q 959 1119 1226 758 
Q 1494 397 1959 397 
Q 2419 397 2687 759 
Q 2956 1122 2956 1747 
Q 2956 2369 2687 2733 
Q 2419 3097 1959 3097 
z
M 1959 3584 
Q 2709 3584 3137 3096 
Q 3566 2609 3566 1747 
Q 3566 888 3137 398 
Q 2709 -91 1959 -91 
Q 1206 -91 779 398 
Q 353 888 353 1747 
Q 353 2609 779 3096 
Q 1206 3584 1959 3584 
z
" transform="scale(0.015625)"/>
      <path id="DejaVuSans-66" d="M 2375 4863 
L 2375 4384 
L 1825 4384 
Q 1516 4384 1395 4259 
Q 1275 4134 1275 3809 
L 1275 3500 
L 2222 3500 
L 2222 3053 
L 1275 3053 
L 1275 0 
L 697 0 
L 697 3053 
L 147 3053 
L 147 3500 
L 697 3500 
L 697 3744 
Q 697 4328 969 4595 
Q 1241 4863 1831 4863 
L 2375 4863 
z
" transform="scale(0.015625)"/>
      <path id="DejaVuSans-2c" d="M 750 794 
L 1409 794 
L 1409 256 
L 897 -744 
L 494 -744 
L 750 256 
L 750 794 
z
" transform="scale(0.015625)"/>
      <path id="DejaVuSans-61" d="M 2194 1759 
Q 1497 1759 1228 1600 
Q 959 1441 959 1056 
Q 959 750 1161 570 
Q 1363 391 1709 391 
Q 2188 391 2477 730 
Q 2766 1069 2766 1631 
L 2766 1759 
L 2194 1759 
z
M 3341 1997 
L 3341 0 
L 2766 0 
L 2766 531 
Q 2569 213 2275 61 
Q 1981 -91 1556 -91 
Q 1019 -91 701 211 
Q 384 513 384 1019 
Q 384 1609 779 1909 
Q 1175 2209 1959 2209 
L 2766 2209 
L 2766 2266 
Q 2766 2663 2505 2880 
Q 2244 3097 1772 3097 
Q 1472 3097 1187 3025 
Q 903 2953 641 2809 
L 641 3341 
Q 956 3463 1253 3523 
Q 1550 3584 1831 3584 
Q 2591 3584 2966 3190 
Q 3341 2797 3341 1997 
z
" transform="scale(0.015625)"/>
     </defs>
     <use xlink:href="#DejaVuSans-4d" transform="translate(0 0.015625)"/>
     <use xlink:href="#DejaVuSans-53" transform="translate(86.279297 0.015625)"/>
     <use xlink:href="#DejaVuSans-32" transform="translate(149.755859 0.015625)"/>
     <use xlink:href="#DejaVuSans-20" transform="translate(213.378906 0.015625)"/>
     <use xlink:href="#DejaVuSans-73" transform="translate(245.166016 0.015625)"/>
     <use xlink:href="#DejaVuSans-70" transform="translate(297.265625 0.015625)"/>
     <use xlink:href="#DejaVuSans-65" transform="translate(360.742188 0.015625)"/>
     <use xlink:href="#DejaVuSans-63" transform="translate(422.265625 0.015625)"/>
     <use xlink:href="#DejaVuSans-74" transform="translate(477.246094 0.015625)"/>
     <use xlink:href="#DejaVuSans-72" transform="translate(516.455078 0.015625)"/>
     <use xlink:href="#DejaVuSans-75" transform="translate(557.568359 0.015625)"/>
     <use xlink:href="#DejaVuSans-6d" transform="translate(620.947266 0.015625)"/>
     <use xlink:href="#DejaVuSans-20" transform="translate(718.359375 0.015625)"/>
     <use xlink:href="#DejaVuSans-6f" transform="translate(750.146484 0.015625)"/>
     <use xlink:href="#DejaVuSans-66" transform="translate(811.328125 0.015625)"/>
     <use xlink:href="#DejaVuSans-20" transform="translate(846.533203 0.015625)"/>
     <use xlink:href="#DejaVuSans-Oblique-6d" transform="translate(878.320312 0.015625)"/>
     <use xlink:href="#DejaVuSans-2f" transform="translate(975.732422 0.015625)"/>
     <use xlink:href="#DejaVuSans-Oblique-7a" transform="translate(1009.423828 0.015625)"/>
     <use xlink:href="#DejaVuSans-20" transform="translate(1061.914062 0.015625)"/>
     <use xlink:href="#DejaVuSans-33" transform="translate(1093.701172 0.015625)"/>
     <use xlink:href="#DejaVuSans-32" transform="translate(1157.324219 0.015625)"/>
     <use xlink:href="#DejaVuSans-35" transform="translate(1220.947266 0.015625)"/>
     <use xlink:href="#DejaVuSans-2e" transform="translate(1284.570312 0.015625)"/>
     <use xlink:href="#DejaVuSans-31" transform="translate(1316.357422 0.015625)"/>
     <use xlink:href="#DejaVuSans-37" transform="translate(1379.980469 0.015625)"/>
     <use xlink:href="#DejaVuSans-2c" transform="translate(1443.603516 0.015625)"/>
     <use xlink:href="#DejaVuSans-20" transform="translate(1475.390625 0.015625)"/>
     <use xlink:href="#DejaVuSans-73" transform="translate(1507.177734 0.015625)"/>
     <use xlink:href="#DejaVuSans-63" transform="translate(1559.277344 0.015625)"/>
     <use xlink:href="#DejaVuSans-61" transform="translate(1614.257812 0.015625)"/>
     <use xlink:href="#DejaVuSans-6e" transform="translate(1675.537109 0.015625)"/>
     <use xlink:href="#DejaVuSans-20" transform="translate(1738.916016 0.015625)"/>
     <use xlink:href="#DejaVuSans-74" transform="translate(1770.703125 0.015625)"/>
     <use xlink:href="#DejaVuSans-69" transform="translate(1809.912109 0.015625)"/>
     <use xlink:href="#DejaVuSans-6d" transform="translate(1837.695312 0.015625)"/>
     <use xlink:href="#DejaVuSans-65" transform="translate(1935.107422 0.015625)"/>
     <use xlink:href="#DejaVuSans-20" transform="translate(1996.630859 0.015625)"/>
     <use xlink:href="#DejaVuSans-36" transform="translate(2028.417969 0.015625)"/>
     <use xlink:href="#DejaVuSans-2e" transform="translate(2092.041016 0.015625)"/>
     <use xlink:href="#DejaVuSans-32" transform="translate(2118.328125 0.015625)"/>
     <use xlink:href="#DejaVuSans-39" transform="translate(2180.201172 0.015625)"/>
     <use xlink:href="#DejaVuSans-20" transform="translate(2243.824219 0.015625)"/>
     <use xlink:href="#DejaVuSans-6d" transform="translate(2275.611328 0.015625)"/>
     <use xlink:href="#DejaVuSans-69" transform="translate(2373.023438 0.015625)"/>
     <use xlink:href="#DejaVuSans-6e" transform="translate(2400.806641 0.015625)"/>
     <use xlink:href="#DejaVuSans-2e" transform="translate(2464.185547 0.015625)"/>
    </g>
   </g>
  </g>
 </g>
 <defs>
  <clipPath id="p37e75bf6db">
   <rect x="57.6" y="41.472" width="357.12" height="266.112"/>
  </clipPath>
 </defs>
</svg>
