<?xml version="1.0" encoding="utf-8" standalone="no"?>
<!DOCTYPE svg PUBLIC "-//W3C//DTD SVG 1.1//EN"
  "http://www.w3.org/Graphics/SVG/1.1/DTD/svg11.dtd">
<svg xmlns:xlink="http://www.w3.org/1999/xlink" width="460.8pt" height="345.6pt" viewBox="0 0 460.8 345.6" xmlns="http://www.w3.org/2000/svg" version="1.1">
 <metadata>
  <rdf:RDF xmlns:dc="http://purl.org/dc/elements/1.1/" xmlns:cc="http://creativecommons.org/ns#" xmlns:rdf="http://www.w3.org/1999/02/22-rdf-syntax-ns#">
   <cc:Work>
    <dc:type rdf:resource="http://purl.org/dc/dcmitype/StillImage"/>
    <dc:date>2025-04-24T13:58:15.244956</dc:date>
    <dc:format>image/svg+xml</dc:format>
    <dc:creator>
     <cc:Agent>
      <dc:title>Matplotlib v3.7.3, https://matplotlib.org/</dc:title>
     </cc:Agent>
    </dc:creator>
   </cc:Work>
  </rdf:RDF>
 </metadata>
 <defs>
  <style type="text/css">*{stroke-linejoin: round; stroke-linecap: butt}</style>
 </defs>
 <g id="figure_1">
  <g id="patch_1">
   <path d="M 0 345.6 
L 460.8 345.6 
L 460.8 0 
L 0 0 
z
" style="fill: #ffffff"/>
  </g>
  <g id="axes_1">
   <g id="patch_2">
    <path d="M 57.6 307.584 
L 414.72 307.584 
L 414.72 41.472 
L 57.6 41.472 
z
" style="fill: #ffffff"/>
   </g>
   <g id="patch_3">
    <path d="M 73.832727 307.584 
L 74.43065 307.584 
L 74.43065 307.282149 
L 73.832727 307.282149 
z
" clip-path="url(#p4b4d41c49d)" style="fill: #1f77b4"/>
   </g>
   <g id="patch_4">
    <path d="M 74.977811 307.584 
L 75.575734 307.584 
L 75.575734 303.164577 
L 74.977811 303.164577 
z
" clip-path="url(#p4b4d41c49d)" style="fill: #1f77b4"/>
   </g>
   <g id="patch_5">
    <path d="M 75.059336 307.584 
L 75.657259 307.584 
L 75.657259 307.150189 
L 75.059336 307.150189 
z
" clip-path="url(#p4b4d41c49d)" style="fill: #1f77b4"/>
   </g>
   <g id="patch_6">
    <path d="M 75.061101 307.584 
L 75.659024 307.584 
L 75.659024 306.571207 
L 75.061101 306.571207 
z
" clip-path="url(#p4b4d41c49d)" style="fill: #1f77b4"/>
   </g>
   <g id="patch_7">
    <path d="M 75.795061 307.584 
L 76.392985 307.584 
L 76.392985 306.349362 
L 75.795061 306.349362 
z
" clip-path="url(#p4b4d41c49d)" style="fill: #1f77b4"/>
   </g>
   <g id="patch_8">
    <path d="M 76.083432 307.584 
L 76.681355 307.584 
L 76.681355 307.293301 
L 76.083432 307.293301 
z
" clip-path="url(#p4b4d41c49d)" style="fill: #1f77b4"/>
   </g>
   <g id="patch_9">
    <path d="M 76.827286 307.584 
L 77.42521 307.584 
L 77.42521 307.110669 
L 76.827286 307.110669 
z
" clip-path="url(#p4b4d41c49d)" style="fill: #1f77b4"/>
   </g>
   <g id="patch_10">
    <path d="M 77.580358 307.584 
L 78.178281 307.584 
L 78.178281 307.27702 
L 77.580358 307.27702 
z
" clip-path="url(#p4b4d41c49d)" style="fill: #1f77b4"/>
   </g>
   <g id="patch_11">
    <path d="M 77.683067 307.584 
L 78.28099 307.584 
L 78.28099 307.279684 
L 77.683067 307.279684 
z
" clip-path="url(#p4b4d41c49d)" style="fill: #1f77b4"/>
   </g>
   <g id="patch_12">
    <path d="M 78.33373 307.584 
L 78.931653 307.584 
L 78.931653 306.669183 
L 78.33373 306.669183 
z
" clip-path="url(#p4b4d41c49d)" style="fill: #1f77b4"/>
   </g>
   <g id="patch_13">
    <path d="M 79.069181 307.584 
L 79.667105 307.584 
L 79.667105 306.310329 
L 79.069181 306.310329 
z
" clip-path="url(#p4b4d41c49d)" style="fill: #1f77b4"/>
   </g>
   <g id="patch_14">
    <path d="M 79.812999 307.584 
L 80.410922 307.584 
L 80.410922 304.413612 
L 79.812999 304.413612 
z
" clip-path="url(#p4b4d41c49d)" style="fill: #1f77b4"/>
   </g>
   <g id="patch_15">
    <path d="M 84.289108 307.584 
L 84.887031 307.584 
L 84.887031 307.225132 
L 84.289108 307.225132 
z
" clip-path="url(#p4b4d41c49d)" style="fill: #1f77b4"/>
   </g>
   <g id="patch_16">
    <path d="M 85.052113 307.584 
L 85.650036 307.584 
L 85.650036 306.563253 
L 85.052113 306.563253 
z
" clip-path="url(#p4b4d41c49d)" style="fill: #1f77b4"/>
   </g>
   <g id="patch_17">
    <path d="M 85.796027 307.584 
L 86.39395 307.584 
L 86.39395 307.030085 
L 85.796027 307.030085 
z
" clip-path="url(#p4b4d41c49d)" style="fill: #1f77b4"/>
   </g>
   <g id="patch_18">
    <path d="M 86.55853 307.584 
L 87.156453 307.584 
L 87.156453 307.282204 
L 86.55853 307.282204 
z
" clip-path="url(#p4b4d41c49d)" style="fill: #1f77b4"/>
   </g>
   <g id="patch_19">
    <path d="M 87.302456 307.584 
L 87.900379 307.584 
L 87.900379 303.237904 
L 87.302456 303.237904 
z
" clip-path="url(#p4b4d41c49d)" style="fill: #1f77b4"/>
   </g>
   <g id="patch_20">
    <path d="M 87.485669 307.584 
L 88.083592 307.584 
L 88.083592 307.280673 
L 87.485669 307.280673 
z
" clip-path="url(#p4b4d41c49d)" style="fill: #1f77b4"/>
   </g>
   <g id="patch_21">
    <path d="M 88.037902 307.584 
L 88.635825 307.584 
L 88.635825 306.963077 
L 88.037902 306.963077 
z
" clip-path="url(#p4b4d41c49d)" style="fill: #1f77b4"/>
   </g>
   <g id="patch_22">
    <path d="M 88.808799 307.584 
L 89.406722 307.584 
L 89.406722 306.961597 
L 88.808799 306.961597 
z
" clip-path="url(#p4b4d41c49d)" style="fill: #1f77b4"/>
   </g>
   <g id="patch_23">
    <path d="M 90.90777 307.584 
L 91.505693 307.584 
L 91.505693 307.278762 
L 90.90777 307.278762 
z
" clip-path="url(#p4b4d41c49d)" style="fill: #1f77b4"/>
   </g>
   <g id="patch_24">
    <path d="M 92.081685 307.584 
L 92.679608 307.584 
L 92.679608 307.312938 
L 92.081685 307.312938 
z
" clip-path="url(#p4b4d41c49d)" style="fill: #1f77b4"/>
   </g>
   <g id="patch_25">
    <path d="M 93.258496 307.584 
L 93.856419 307.584 
L 93.856419 307.106984 
L 93.258496 307.106984 
z
" clip-path="url(#p4b4d41c49d)" style="fill: #1f77b4"/>
   </g>
   <g id="patch_26">
    <path d="M 94.764753 307.584 
L 95.362676 307.584 
L 95.362676 303.730095 
L 94.764753 303.730095 
z
" clip-path="url(#p4b4d41c49d)" style="fill: #1f77b4"/>
   </g>
   <g id="patch_27">
    <path d="M 96.271188 307.584 
L 96.869111 307.584 
L 96.869111 306.855396 
L 96.271188 306.855396 
z
" clip-path="url(#p4b4d41c49d)" style="fill: #1f77b4"/>
   </g>
   <g id="patch_28">
    <path d="M 97.750503 307.584 
L 98.348426 307.584 
L 98.348426 306.06866 
L 97.750503 306.06866 
z
" clip-path="url(#p4b4d41c49d)" style="fill: #1f77b4"/>
   </g>
   <g id="patch_29">
    <path d="M 97.759843 307.584 
L 98.357766 307.584 
L 98.357766 307.215927 
L 97.759843 307.215927 
z
" clip-path="url(#p4b4d41c49d)" style="fill: #1f77b4"/>
   </g>
   <g id="patch_30">
    <path d="M 98.503808 307.584 
L 99.101731 307.584 
L 99.101731 302.757758 
L 98.503808 302.757758 
z
" clip-path="url(#p4b4d41c49d)" style="fill: #1f77b4"/>
   </g>
   <g id="patch_31">
    <path d="M 98.513109 307.584 
L 99.111032 307.584 
L 99.111032 307.14766 
L 98.513109 307.14766 
z
" clip-path="url(#p4b4d41c49d)" style="fill: #1f77b4"/>
   </g>
   <g id="patch_32">
    <path d="M 99.25696 307.584 
L 99.854883 307.584 
L 99.854883 306.714324 
L 99.25696 306.714324 
z
" clip-path="url(#p4b4d41c49d)" style="fill: #1f77b4"/>
   </g>
   <g id="patch_33">
    <path d="M 100.763514 307.584 
L 101.361437 307.584 
L 101.361437 307.192442 
L 100.763514 307.192442 
z
" clip-path="url(#p4b4d41c49d)" style="fill: #1f77b4"/>
   </g>
   <g id="patch_34">
    <path d="M 102.226954 307.584 
L 102.824877 307.584 
L 102.824877 306.897413 
L 102.226954 306.897413 
z
" clip-path="url(#p4b4d41c49d)" style="fill: #1f77b4"/>
   </g>
   <g id="patch_35">
    <path d="M 103.733691 307.584 
L 104.331614 307.584 
L 104.331614 307.194807 
L 103.733691 307.194807 
z
" clip-path="url(#p4b4d41c49d)" style="fill: #1f77b4"/>
   </g>
   <g id="patch_36">
    <path d="M 104.486774 307.584 
L 105.084697 307.584 
L 105.084697 304.647358 
L 104.486774 304.647358 
z
" clip-path="url(#p4b4d41c49d)" style="fill: #1f77b4"/>
   </g>
   <g id="patch_37">
    <path d="M 105.239983 307.584 
L 105.837906 307.584 
L 105.837906 274.764584 
L 105.239983 274.764584 
z
" clip-path="url(#p4b4d41c49d)" style="fill: #1f77b4"/>
   </g>
   <g id="patch_38">
    <path d="M 105.246512 307.584 
L 105.844435 307.584 
L 105.844435 307.131505 
L 105.246512 307.131505 
z
" clip-path="url(#p4b4d41c49d)" style="fill: #1f77b4"/>
   </g>
   <g id="patch_39">
    <path d="M 105.96139 307.584 
L 106.559313 307.584 
L 106.559313 307.268362 
L 105.96139 307.268362 
z
" clip-path="url(#p4b4d41c49d)" style="fill: #1f77b4"/>
   </g>
   <g id="patch_40">
    <path d="M 105.975132 307.584 
L 106.573055 307.584 
L 106.573055 307.29241 
L 105.975132 307.29241 
z
" clip-path="url(#p4b4d41c49d)" style="fill: #1f77b4"/>
   </g>
   <g id="patch_41">
    <path d="M 105.985984 307.584 
L 106.583907 307.584 
L 106.583907 307.218882 
L 105.985984 307.218882 
z
" clip-path="url(#p4b4d41c49d)" style="fill: #1f77b4"/>
   </g>
   <g id="patch_42">
    <path d="M 105.993436 307.584 
L 106.59136 307.584 
L 106.59136 303.785099 
L 105.993436 303.785099 
z
" clip-path="url(#p4b4d41c49d)" style="fill: #1f77b4"/>
   </g>
   <g id="patch_43">
    <path d="M 106.746457 307.584 
L 107.34438 307.584 
L 107.34438 302.430175 
L 106.746457 302.430175 
z
" clip-path="url(#p4b4d41c49d)" style="fill: #1f77b4"/>
   </g>
   <g id="patch_44">
    <path d="M 107.467032 307.584 
L 108.064955 307.584 
L 108.064955 306.65137 
L 107.467032 306.65137 
z
" clip-path="url(#p4b4d41c49d)" style="fill: #1f77b4"/>
   </g>
   <g id="patch_45">
    <path d="M 107.48192 307.584 
L 108.079843 307.584 
L 108.079843 306.349618 
L 107.48192 306.349618 
z
" clip-path="url(#p4b4d41c49d)" style="fill: #1f77b4"/>
   </g>
   <g id="patch_46">
    <path d="M 107.49036 307.584 
L 108.088283 307.584 
L 108.088283 307.183947 
L 107.49036 307.183947 
z
" clip-path="url(#p4b4d41c49d)" style="fill: #1f77b4"/>
   </g>
   <g id="patch_47">
    <path d="M 108.22588 307.584 
L 108.823803 307.584 
L 108.823803 307.045006 
L 108.22588 307.045006 
z
" clip-path="url(#p4b4d41c49d)" style="fill: #1f77b4"/>
   </g>
   <g id="patch_48">
    <path d="M 108.988418 307.584 
L 109.586341 307.584 
L 109.586341 307.047915 
L 108.988418 307.047915 
z
" clip-path="url(#p4b4d41c49d)" style="fill: #1f77b4"/>
   </g>
   <g id="patch_49">
    <path d="M 109.73228 307.584 
L 110.330203 307.584 
L 110.330203 214.341558 
L 109.73228 214.341558 
z
" clip-path="url(#p4b4d41c49d)" style="fill: #1f77b4"/>
   </g>
   <g id="patch_50">
    <path d="M 110.467727 307.584 
L 111.06565 307.584 
L 111.06565 307.218816 
L 110.467727 307.218816 
z
" clip-path="url(#p4b4d41c49d)" style="fill: #1f77b4"/>
   </g>
   <g id="patch_51">
    <path d="M 110.482096 307.584 
L 111.080019 307.584 
L 111.080019 304.412431 
L 110.482096 304.412431 
z
" clip-path="url(#p4b4d41c49d)" style="fill: #1f77b4"/>
   </g>
   <g id="patch_52">
    <path d="M 111.238755 307.584 
L 111.836678 307.584 
L 111.836678 302.250586 
L 111.238755 302.250586 
z
" clip-path="url(#p4b4d41c49d)" style="fill: #1f77b4"/>
   </g>
   <g id="patch_53">
    <path d="M 114.208754 307.584 
L 114.806678 307.584 
L 114.806678 304.991868 
L 114.208754 304.991868 
z
" clip-path="url(#p4b4d41c49d)" style="fill: #1f77b4"/>
   </g>
   <g id="patch_54">
    <path d="M 115.715582 307.584 
L 116.313505 307.584 
L 116.313505 306.992747 
L 115.715582 306.992747 
z
" clip-path="url(#p4b4d41c49d)" style="fill: #1f77b4"/>
   </g>
   <g id="patch_55">
    <path d="M 116.673422 307.584 
L 117.271345 307.584 
L 117.271345 307.291142 
L 116.673422 307.291142 
z
" clip-path="url(#p4b4d41c49d)" style="fill: #1f77b4"/>
   </g>
   <g id="patch_56">
    <path d="M 117.194464 307.584 
L 117.792387 307.584 
L 117.792387 302.856779 
L 117.194464 302.856779 
z
" clip-path="url(#p4b4d41c49d)" style="fill: #1f77b4"/>
   </g>
   <g id="patch_57">
    <path d="M 117.221937 307.584 
L 117.81986 307.584 
L 117.81986 306.900481 
L 117.221937 306.900481 
z
" clip-path="url(#p4b4d41c49d)" style="fill: #1f77b4"/>
   </g>
   <g id="patch_58">
    <path d="M 117.947866 307.584 
L 118.545789 307.584 
L 118.545789 303.899331 
L 117.947866 303.899331 
z
" clip-path="url(#p4b4d41c49d)" style="fill: #1f77b4"/>
   </g>
   <g id="patch_59">
    <path d="M 117.965406 307.584 
L 118.563329 307.584 
L 118.563329 307.283604 
L 117.965406 307.283604 
z
" clip-path="url(#p4b4d41c49d)" style="fill: #1f77b4"/>
   </g>
   <g id="patch_60">
    <path d="M 118.70087 307.584 
L 119.298793 307.584 
L 119.298793 305.828437 
L 118.70087 305.828437 
z
" clip-path="url(#p4b4d41c49d)" style="fill: #1f77b4"/>
   </g>
   <g id="patch_61">
    <path d="M 119.394359 307.584 
L 119.992282 307.584 
L 119.992282 307.023318 
L 119.394359 307.023318 
z
" clip-path="url(#p4b4d41c49d)" style="fill: #1f77b4"/>
   </g>
   <g id="patch_62">
    <path d="M 124.677323 307.584 
L 125.275247 307.584 
L 125.275247 306.90164 
L 124.677323 306.90164 
z
" clip-path="url(#p4b4d41c49d)" style="fill: #1f77b4"/>
   </g>
   <g id="patch_63">
    <path d="M 124.683932 307.584 
L 125.281855 307.584 
L 125.281855 289.474295 
L 124.683932 289.474295 
z
" clip-path="url(#p4b4d41c49d)" style="fill: #1f77b4"/>
   </g>
   <g id="patch_64">
    <path d="M 125.437352 307.584 
L 126.035275 307.584 
L 126.035275 294.852173 
L 125.437352 294.852173 
z
" clip-path="url(#p4b4d41c49d)" style="fill: #1f77b4"/>
   </g>
   <g id="patch_65">
    <path d="M 126.190949 307.584 
L 126.788872 307.584 
L 126.788872 304.90941 
L 126.190949 304.90941 
z
" clip-path="url(#p4b4d41c49d)" style="fill: #1f77b4"/>
   </g>
   <g id="patch_66">
    <path d="M 126.892466 307.584 
L 127.49039 307.584 
L 127.49039 307.163323 
L 126.892466 307.163323 
z
" clip-path="url(#p4b4d41c49d)" style="fill: #1f77b4"/>
   </g>
   <g id="patch_67">
    <path d="M 127.669944 307.584 
L 128.267867 307.584 
L 128.267867 306.66311 
L 127.669944 306.66311 
z
" clip-path="url(#p4b4d41c49d)" style="fill: #1f77b4"/>
   </g>
   <g id="patch_68">
    <path d="M 128.390165 307.584 
L 128.988088 307.584 
L 128.988088 297.077961 
L 128.390165 297.077961 
z
" clip-path="url(#p4b4d41c49d)" style="fill: #1f77b4"/>
   </g>
   <g id="patch_69">
    <path d="M 128.423193 307.584 
L 129.021116 307.584 
L 129.021116 306.877329 
L 128.423193 306.877329 
z
" clip-path="url(#p4b4d41c49d)" style="fill: #1f77b4"/>
   </g>
   <g id="patch_70">
    <path d="M 129.109822 307.584 
L 129.707745 307.584 
L 129.707745 307.144305 
L 129.109822 307.144305 
z
" clip-path="url(#p4b4d41c49d)" style="fill: #1f77b4"/>
   </g>
   <g id="patch_71">
    <path d="M 129.115712 307.584 
L 129.713635 307.584 
L 129.713635 305.481967 
L 129.115712 305.481967 
z
" clip-path="url(#p4b4d41c49d)" style="fill: #1f77b4"/>
   </g>
   <g id="patch_72">
    <path d="M 129.140255 307.584 
L 129.738178 307.584 
L 129.738178 307.152204 
L 129.140255 307.152204 
z
" clip-path="url(#p4b4d41c49d)" style="fill: #1f77b4"/>
   </g>
   <g id="patch_73">
    <path d="M 129.168777 307.584 
L 129.7667 307.584 
L 129.7667 306.92631 
L 129.168777 306.92631 
z
" clip-path="url(#p4b4d41c49d)" style="fill: #1f77b4"/>
   </g>
   <g id="patch_74">
    <path d="M 129.176213 307.584 
L 129.774136 307.584 
L 129.774136 209.947546 
L 129.176213 209.947546 
z
" clip-path="url(#p4b4d41c49d)" style="fill: #1f77b4"/>
   </g>
   <g id="patch_75">
    <path d="M 129.190623 307.584 
L 129.788546 307.584 
L 129.788546 306.894001 
L 129.190623 306.894001 
z
" clip-path="url(#p4b4d41c49d)" style="fill: #1f77b4"/>
   </g>
   <g id="patch_76">
    <path d="M 129.926143 307.584 
L 130.524066 307.584 
L 130.524066 303.079173 
L 129.926143 303.079173 
z
" clip-path="url(#p4b4d41c49d)" style="fill: #1f77b4"/>
   </g>
   <g id="patch_77">
    <path d="M 130.207343 307.584 
L 130.805266 307.584 
L 130.805266 307.288883 
L 130.207343 307.288883 
z
" clip-path="url(#p4b4d41c49d)" style="fill: #1f77b4"/>
   </g>
   <g id="patch_78">
    <path d="M 130.622238 307.584 
L 131.220161 307.584 
L 131.220161 306.348964 
L 130.622238 306.348964 
z
" clip-path="url(#p4b4d41c49d)" style="fill: #1f77b4"/>
   </g>
   <g id="patch_79">
    <path d="M 138.144837 307.584 
L 138.74276 307.584 
L 138.74276 302.28117 
L 138.144837 302.28117 
z
" clip-path="url(#p4b4d41c49d)" style="fill: #1f77b4"/>
   </g>
   <g id="patch_80">
    <path d="M 140.316945 307.584 
L 140.914868 307.584 
L 140.914868 304.842226 
L 140.316945 304.842226 
z
" clip-path="url(#p4b4d41c49d)" style="fill: #1f77b4"/>
   </g>
   <g id="patch_81">
    <path d="M 142.577609 307.584 
L 143.175532 307.584 
L 143.175532 307.15867 
L 142.577609 307.15867 
z
" clip-path="url(#p4b4d41c49d)" style="fill: #1f77b4"/>
   </g>
   <g id="patch_82">
    <path d="M 142.637152 307.584 
L 143.235075 307.584 
L 143.235075 305.963954 
L 142.637152 305.963954 
z
" clip-path="url(#p4b4d41c49d)" style="fill: #1f77b4"/>
   </g>
   <g id="patch_83">
    <path d="M 147.11415 307.584 
L 147.712073 307.584 
L 147.712073 306.949794 
L 147.11415 306.949794 
z
" clip-path="url(#p4b4d41c49d)" style="fill: #1f77b4"/>
   </g>
   <g id="patch_84">
    <path d="M 147.834206 307.584 
L 148.432129 307.584 
L 148.432129 306.717007 
L 147.834206 306.717007 
z
" clip-path="url(#p4b4d41c49d)" style="fill: #1f77b4"/>
   </g>
   <g id="patch_85">
    <path d="M 148.620134 307.584 
L 149.218057 307.584 
L 149.218057 302.849864 
L 148.620134 302.849864 
z
" clip-path="url(#p4b4d41c49d)" style="fill: #1f77b4"/>
   </g>
   <g id="patch_86">
    <path d="M 149.340692 307.584 
L 149.938615 307.584 
L 149.938615 302.875701 
L 149.340692 302.875701 
z
" clip-path="url(#p4b4d41c49d)" style="fill: #1f77b4"/>
   </g>
   <g id="patch_87">
    <path d="M 150.039022 307.584 
L 150.636946 307.584 
L 150.636946 307.093876 
L 150.039022 307.093876 
z
" clip-path="url(#p4b4d41c49d)" style="fill: #1f77b4"/>
   </g>
   <g id="patch_88">
    <path d="M 151.545942 307.584 
L 152.143865 307.584 
L 152.143865 306.413945 
L 151.545942 306.413945 
z
" clip-path="url(#p4b4d41c49d)" style="fill: #1f77b4"/>
   </g>
   <g id="patch_89">
    <path d="M 161.240455 307.584 
L 161.838378 307.584 
L 161.838378 305.650499 
L 161.240455 305.650499 
z
" clip-path="url(#p4b4d41c49d)" style="fill: #1f77b4"/>
   </g>
   <g id="patch_90">
    <path d="M 172.444168 307.584 
L 173.042091 307.584 
L 173.042091 305.677668 
L 172.444168 305.677668 
z
" clip-path="url(#p4b4d41c49d)" style="fill: #1f77b4"/>
   </g>
   <g id="patch_91">
    <path d="M 172.469269 307.584 
L 173.067192 307.584 
L 173.067192 54.144 
L 172.469269 54.144 
z
" clip-path="url(#p4b4d41c49d)" style="fill: #1f77b4"/>
   </g>
   <g id="patch_92">
    <path d="M 172.494883 307.584 
L 173.092806 307.584 
L 173.092806 305.7837 
L 172.494883 305.7837 
z
" clip-path="url(#p4b4d41c49d)" style="fill: #1f77b4"/>
   </g>
   <g id="patch_93">
    <path d="M 173.219056 307.584 
L 173.816979 307.584 
L 173.816979 293.011935 
L 173.219056 293.011935 
z
" clip-path="url(#p4b4d41c49d)" style="fill: #1f77b4"/>
   </g>
   <g id="patch_94">
    <path d="M 182.990185 307.584 
L 183.588108 307.584 
L 183.588108 307.072867 
L 182.990185 307.072867 
z
" clip-path="url(#p4b4d41c49d)" style="fill: #1f77b4"/>
   </g>
   <g id="patch_95">
    <path d="M 185.194795 307.584 
L 185.792719 307.584 
L 185.792719 302.803279 
L 185.194795 302.803279 
z
" clip-path="url(#p4b4d41c49d)" style="fill: #1f77b4"/>
   </g>
   <g id="patch_96">
    <path d="M 185.943739 307.584 
L 186.541662 307.584 
L 186.541662 307.127087 
L 185.943739 307.127087 
z
" clip-path="url(#p4b4d41c49d)" style="fill: #1f77b4"/>
   </g>
   <g id="patch_97">
    <path d="M 190.479642 307.584 
L 191.077565 307.584 
L 191.077565 306.988012 
L 190.479642 306.988012 
z
" clip-path="url(#p4b4d41c49d)" style="fill: #1f77b4"/>
   </g>
   <g id="patch_98">
    <path d="M 208.417106 307.584 
L 209.015029 307.584 
L 209.015029 255.198936 
L 208.417106 255.198936 
z
" clip-path="url(#p4b4d41c49d)" style="fill: #1f77b4"/>
   </g>
   <g id="patch_99">
    <path d="M 209.168034 307.584 
L 209.765957 307.584 
L 209.765957 299.691709 
L 209.168034 299.691709 
z
" clip-path="url(#p4b4d41c49d)" style="fill: #1f77b4"/>
   </g>
   <g id="patch_100">
    <path d="M 209.923398 307.584 
L 210.521321 307.584 
L 210.521321 305.415361 
L 209.923398 305.415361 
z
" clip-path="url(#p4b4d41c49d)" style="fill: #1f77b4"/>
   </g>
   <g id="patch_101">
    <path d="M 212.909284 307.584 
L 213.507207 307.584 
L 213.507207 291.667124 
L 212.909284 291.667124 
z
" clip-path="url(#p4b4d41c49d)" style="fill: #1f77b4"/>
   </g>
   <g id="patch_102">
    <path d="M 213.608264 307.584 
L 214.206187 307.584 
L 214.206187 306.393825 
L 213.608264 306.393825 
z
" clip-path="url(#p4b4d41c49d)" style="fill: #1f77b4"/>
   </g>
   <g id="patch_103">
    <path d="M 213.659254 307.584 
L 214.257177 307.584 
L 214.257177 305.906699 
L 213.659254 305.906699 
z
" clip-path="url(#p4b4d41c49d)" style="fill: #1f77b4"/>
   </g>
   <g id="patch_104">
    <path d="M 221.14278 307.584 
L 221.740704 307.584 
L 221.740704 306.757169 
L 221.14278 306.757169 
z
" clip-path="url(#p4b4d41c49d)" style="fill: #1f77b4"/>
   </g>
   <g id="patch_105">
    <path d="M 221.878404 307.584 
L 222.476327 307.584 
L 222.476327 306.387033 
L 221.878404 306.387033 
z
" clip-path="url(#p4b4d41c49d)" style="fill: #1f77b4"/>
   </g>
   <g id="patch_106">
    <path d="M 224.083585 307.584 
L 224.681508 307.584 
L 224.681508 306.944588 
L 224.083585 306.944588 
z
" clip-path="url(#p4b4d41c49d)" style="fill: #1f77b4"/>
   </g>
   <g id="patch_107">
    <path d="M 227.068615 307.584 
L 227.666538 307.584 
L 227.666538 307.029238 
L 227.068615 307.029238 
z
" clip-path="url(#p4b4d41c49d)" style="fill: #1f77b4"/>
   </g>
   <g id="patch_108">
    <path d="M 230.845938 307.584 
L 231.443861 307.584 
L 231.443861 306.107246 
L 230.845938 306.107246 
z
" clip-path="url(#p4b4d41c49d)" style="fill: #1f77b4"/>
   </g>
   <g id="patch_109">
    <path d="M 232.310638 307.584 
L 232.908561 307.584 
L 232.908561 306.459942 
L 232.310638 306.459942 
z
" clip-path="url(#p4b4d41c49d)" style="fill: #1f77b4"/>
   </g>
   <g id="patch_110">
    <path d="M 232.353656 307.584 
L 232.951579 307.584 
L 232.951579 133.09526 
L 232.353656 133.09526 
z
" clip-path="url(#p4b4d41c49d)" style="fill: #1f77b4"/>
   </g>
   <g id="patch_111">
    <path d="M 233.054415 307.584 
L 233.652338 307.584 
L 233.652338 307.267074 
L 233.054415 307.267074 
z
" clip-path="url(#p4b4d41c49d)" style="fill: #1f77b4"/>
   </g>
   <g id="patch_112">
    <path d="M 233.086713 307.584 
L 233.684636 307.584 
L 233.684636 307.372597 
L 233.086713 307.372597 
z
" clip-path="url(#p4b4d41c49d)" style="fill: #1f77b4"/>
   </g>
   <g id="patch_113">
    <path d="M 233.103363 307.584 
L 233.701286 307.584 
L 233.701286 287.349702 
L 233.103363 287.349702 
z
" clip-path="url(#p4b4d41c49d)" style="fill: #1f77b4"/>
   </g>
   <g id="patch_114">
    <path d="M 236.037826 307.584 
L 236.635749 307.584 
L 236.635749 306.450103 
L 236.037826 306.450103 
z
" clip-path="url(#p4b4d41c49d)" style="fill: #1f77b4"/>
   </g>
   <g id="patch_115">
    <path d="M 244.271426 307.584 
L 244.869349 307.584 
L 244.869349 306.625713 
L 244.271426 306.625713 
z
" clip-path="url(#p4b4d41c49d)" style="fill: #1f77b4"/>
   </g>
   <g id="patch_116">
    <path d="M 245.814041 307.584 
L 246.411964 307.584 
L 246.411964 306.081047 
L 245.814041 306.081047 
z
" clip-path="url(#p4b4d41c49d)" style="fill: #1f77b4"/>
   </g>
   <g id="patch_117">
    <path d="M 246.511927 307.584 
L 247.10985 307.584 
L 247.10985 307.0027 
L 246.511927 307.0027 
z
" clip-path="url(#p4b4d41c49d)" style="fill: #1f77b4"/>
   </g>
   <g id="patch_118">
    <path d="M 256.988399 307.584 
L 257.586322 307.584 
L 257.586322 300.329087 
L 256.988399 300.329087 
z
" clip-path="url(#p4b4d41c49d)" style="fill: #1f77b4"/>
   </g>
   <g id="patch_119">
    <path d="M 257.738266 307.584 
L 258.336189 307.584 
L 258.336189 306.436563 
L 257.738266 306.436563 
z
" clip-path="url(#p4b4d41c49d)" style="fill: #1f77b4"/>
   </g>
   <g id="patch_120">
    <path d="M 268.943279 307.584 
L 269.541202 307.584 
L 269.541202 305.041223 
L 268.943279 305.041223 
z
" clip-path="url(#p4b4d41c49d)" style="fill: #1f77b4"/>
   </g>
   <g id="patch_121">
    <path d="M 269.695199 307.584 
L 270.293122 307.584 
L 270.293122 307.193469 
L 269.695199 307.193469 
z
" clip-path="url(#p4b4d41c49d)" style="fill: #1f77b4"/>
   </g>
   <g id="patch_122">
    <path d="M 274.190799 307.584 
L 274.788722 307.584 
L 274.788722 306.966418 
L 274.190799 306.966418 
z
" clip-path="url(#p4b4d41c49d)" style="fill: #1f77b4"/>
   </g>
   <g id="patch_123">
    <path d="M 281.670357 307.584 
L 282.26828 307.584 
L 282.26828 307.034419 
L 281.670357 307.034419 
z
" clip-path="url(#p4b4d41c49d)" style="fill: #1f77b4"/>
   </g>
   <g id="patch_124">
    <path d="M 298.126927 307.584 
L 298.72485 307.584 
L 298.72485 303.155019 
L 298.126927 303.155019 
z
" clip-path="url(#p4b4d41c49d)" style="fill: #1f77b4"/>
   </g>
   <g id="patch_125">
    <path d="M 298.877638 307.584 
L 299.475561 307.584 
L 299.475561 306.762764 
L 298.877638 306.762764 
z
" clip-path="url(#p4b4d41c49d)" style="fill: #1f77b4"/>
   </g>
   <g id="patch_126">
    <path d="M 330.529533 307.584 
L 331.127456 307.584 
L 331.127456 307.250992 
L 330.529533 307.250992 
z
" clip-path="url(#p4b4d41c49d)" style="fill: #1f77b4"/>
   </g>
   <g id="patch_127">
    <path d="M 356.538174 307.584 
L 357.136097 307.584 
L 357.136097 307.080635 
L 356.538174 307.080635 
z
" clip-path="url(#p4b4d41c49d)" style="fill: #1f77b4"/>
   </g>
   <g id="patch_128">
    <path d="M 371.384181 307.584 
L 371.982104 307.584 
L 371.982104 305.683706 
L 371.384181 305.683706 
z
" clip-path="url(#p4b4d41c49d)" style="fill: #1f77b4"/>
   </g>
   <g id="patch_129">
    <path d="M 372.135964 307.584 
L 372.733887 307.584 
L 372.733887 307.224227 
L 372.135964 307.224227 
z
" clip-path="url(#p4b4d41c49d)" style="fill: #1f77b4"/>
   </g>
   <g id="patch_130">
    <path d="M 395.321654 307.584 
L 395.919577 307.584 
L 395.919577 220.724102 
L 395.321654 220.724102 
z
" clip-path="url(#p4b4d41c49d)" style="fill: #1f77b4"/>
   </g>
   <g id="patch_131">
    <path d="M 396.071544 307.584 
L 396.669467 307.584 
L 396.669467 289.724568 
L 396.071544 289.724568 
z
" clip-path="url(#p4b4d41c49d)" style="fill: #1f77b4"/>
   </g>
   <g id="patch_132">
    <path d="M 396.1251 307.584 
L 396.723023 307.584 
L 396.723023 307.091921 
L 396.1251 307.091921 
z
" clip-path="url(#p4b4d41c49d)" style="fill: #1f77b4"/>
   </g>
   <g id="patch_133">
    <path d="M 397.88935 307.584 
L 398.487273 307.584 
L 398.487273 307.245593 
L 397.88935 307.245593 
z
" clip-path="url(#p4b4d41c49d)" style="fill: #1f77b4"/>
   </g>
   <g id="matplotlib.axis_1">
    <g id="xtick_1">
     <g id="line2d_1">
      <defs>
       <path id="m12f3efbe91" d="M 0 0 
L 0 3.5 
" style="stroke: #000000; stroke-width: 0.8"/>
      </defs>
      <g>
       <use xlink:href="#m12f3efbe91" x="109.974334" y="307.584" style="stroke: #000000; stroke-width: 0.8"/>
      </g>
     </g>
     <g id="text_1">
      <!-- 100 -->
      <g transform="translate(100.430584 322.182437) scale(0.1 -0.1)">
       <defs>
        <path id="DejaVuSans-31" d="M 794 531 
L 1825 531 
L 1825 4091 
L 703 3866 
L 703 4441 
L 1819 4666 
L 2450 4666 
L 2450 531 
L 3481 531 
L 3481 0 
L 794 0 
L 794 531 
z
" transform="scale(0.015625)"/>
        <path id="DejaVuSans-30" d="M 2034 4250 
Q 1547 4250 1301 3770 
Q 1056 3291 1056 2328 
Q 1056 1369 1301 889 
Q 1547 409 2034 409 
Q 2525 409 2770 889 
Q 3016 1369 3016 2328 
Q 3016 3291 2770 3770 
Q 2525 4250 2034 4250 
z
M 2034 4750 
Q 2819 4750 3233 4129 
Q 3647 3509 3647 2328 
Q 3647 1150 3233 529 
Q 2819 -91 2034 -91 
Q 1250 -91 836 529 
Q 422 1150 422 2328 
Q 422 3509 836 4129 
Q 1250 4750 2034 4750 
z
" transform="scale(0.015625)"/>
       </defs>
       <use xlink:href="#DejaVuSans-31"/>
       <use xlink:href="#DejaVuSans-30" x="63.623047"/>
       <use xlink:href="#DejaVuSans-30" x="127.246094"/>
      </g>
     </g>
    </g>
    <g id="xtick_2">
     <g id="line2d_2">
      <g>
       <use xlink:href="#m12f3efbe91" x="184.714717" y="307.584" style="stroke: #000000; stroke-width: 0.8"/>
      </g>
     </g>
     <g id="text_2">
      <!-- 200 -->
      <g transform="translate(175.170967 322.182437) scale(0.1 -0.1)">
       <defs>
        <path id="DejaVuSans-32" d="M 1228 531 
L 3431 531 
L 3431 0 
L 469 0 
L 469 531 
Q 828 903 1448 1529 
Q 2069 2156 2228 2338 
Q 2531 2678 2651 2914 
Q 2772 3150 2772 3378 
Q 2772 3750 2511 3984 
Q 2250 4219 1831 4219 
Q 1534 4219 1204 4116 
Q 875 4013 500 3803 
L 500 4441 
Q 881 4594 1212 4672 
Q 1544 4750 1819 4750 
Q 2544 4750 2975 4387 
Q 3406 4025 3406 3419 
Q 3406 3131 3298 2873 
Q 3191 2616 2906 2266 
Q 2828 2175 2409 1742 
Q 1991 1309 1228 531 
z
" transform="scale(0.015625)"/>
       </defs>
       <use xlink:href="#DejaVuSans-32"/>
       <use xlink:href="#DejaVuSans-30" x="63.623047"/>
       <use xlink:href="#DejaVuSans-30" x="127.246094"/>
      </g>
     </g>
    </g>
    <g id="xtick_3">
     <g id="line2d_3">
      <g>
       <use xlink:href="#m12f3efbe91" x="259.455101" y="307.584" style="stroke: #000000; stroke-width: 0.8"/>
      </g>
     </g>
     <g id="text_3">
      <!-- 300 -->
      <g transform="translate(249.911351 322.182437) scale(0.1 -0.1)">
       <defs>
        <path id="DejaVuSans-33" d="M 2597 2516 
Q 3050 2419 3304 2112 
Q 3559 1806 3559 1356 
Q 3559 666 3084 287 
Q 2609 -91 1734 -91 
Q 1441 -91 1130 -33 
Q 819 25 488 141 
L 488 750 
Q 750 597 1062 519 
Q 1375 441 1716 441 
Q 2309 441 2620 675 
Q 2931 909 2931 1356 
Q 2931 1769 2642 2001 
Q 2353 2234 1838 2234 
L 1294 2234 
L 1294 2753 
L 1863 2753 
Q 2328 2753 2575 2939 
Q 2822 3125 2822 3475 
Q 2822 3834 2567 4026 
Q 2313 4219 1838 4219 
Q 1578 4219 1281 4162 
Q 984 4106 628 3988 
L 628 4550 
Q 988 4650 1302 4700 
Q 1616 4750 1894 4750 
Q 2613 4750 3031 4423 
Q 3450 4097 3450 3541 
Q 3450 3153 3228 2886 
Q 3006 2619 2597 2516 
z
" transform="scale(0.015625)"/>
       </defs>
       <use xlink:href="#DejaVuSans-33"/>
       <use xlink:href="#DejaVuSans-30" x="63.623047"/>
       <use xlink:href="#DejaVuSans-30" x="127.246094"/>
      </g>
     </g>
    </g>
    <g id="xtick_4">
     <g id="line2d_4">
      <g>
       <use xlink:href="#m12f3efbe91" x="334.195484" y="307.584" style="stroke: #000000; stroke-width: 0.8"/>
      </g>
     </g>
     <g id="text_4">
      <!-- 400 -->
      <g transform="translate(324.651734 322.182437) scale(0.1 -0.1)">
       <defs>
        <path id="DejaVuSans-34" d="M 2419 4116 
L 825 1625 
L 2419 1625 
L 2419 4116 
z
M 2253 4666 
L 3047 4666 
L 3047 1625 
L 3713 1625 
L 3713 1100 
L 3047 1100 
L 3047 0 
L 2419 0 
L 2419 1100 
L 313 1100 
L 313 1709 
L 2253 4666 
z
" transform="scale(0.015625)"/>
       </defs>
       <use xlink:href="#DejaVuSans-34"/>
       <use xlink:href="#DejaVuSans-30" x="63.623047"/>
       <use xlink:href="#DejaVuSans-30" x="127.246094"/>
      </g>
     </g>
    </g>
    <g id="xtick_5">
     <g id="line2d_5">
      <g>
       <use xlink:href="#m12f3efbe91" x="408.935868" y="307.584" style="stroke: #000000; stroke-width: 0.8"/>
      </g>
     </g>
     <g id="text_5">
      <!-- 500 -->
      <g transform="translate(399.392118 322.182437) scale(0.1 -0.1)">
       <defs>
        <path id="DejaVuSans-35" d="M 691 4666 
L 3169 4666 
L 3169 4134 
L 1269 4134 
L 1269 2991 
Q 1406 3038 1543 3061 
Q 1681 3084 1819 3084 
Q 2600 3084 3056 2656 
Q 3513 2228 3513 1497 
Q 3513 744 3044 326 
Q 2575 -91 1722 -91 
Q 1428 -91 1123 -41 
Q 819 9 494 109 
L 494 744 
Q 775 591 1075 516 
Q 1375 441 1709 441 
Q 2250 441 2565 725 
Q 2881 1009 2881 1497 
Q 2881 1984 2565 2268 
Q 2250 2553 1709 2553 
Q 1456 2553 1204 2497 
Q 953 2441 691 2322 
L 691 4666 
z
" transform="scale(0.015625)"/>
       </defs>
       <use xlink:href="#DejaVuSans-35"/>
       <use xlink:href="#DejaVuSans-30" x="63.623047"/>
       <use xlink:href="#DejaVuSans-30" x="127.246094"/>
      </g>
     </g>
    </g>
    <g id="text_6">
     <!-- ${m/z}$ -->
     <g transform="translate(226.96 335.860562) scale(0.1 -0.1)">
      <defs>
       <path id="DejaVuSans-Oblique-6d" d="M 5747 2113 
L 5338 0 
L 4763 0 
L 5166 2094 
Q 5191 2228 5203 2325 
Q 5216 2422 5216 2491 
Q 5216 2772 5059 2928 
Q 4903 3084 4622 3084 
Q 4203 3084 3875 2770 
Q 3547 2456 3450 1953 
L 3066 0 
L 2491 0 
L 2900 2094 
Q 2925 2209 2937 2307 
Q 2950 2406 2950 2484 
Q 2950 2769 2794 2926 
Q 2638 3084 2363 3084 
Q 1938 3084 1609 2770 
Q 1281 2456 1184 1953 
L 800 0 
L 225 0 
L 909 3500 
L 1484 3500 
L 1375 2956 
Q 1609 3263 1923 3423 
Q 2238 3584 2597 3584 
Q 2978 3584 3223 3384 
Q 3469 3184 3519 2828 
Q 3781 3197 4126 3390 
Q 4472 3584 4856 3584 
Q 5306 3584 5551 3325 
Q 5797 3066 5797 2591 
Q 5797 2488 5784 2364 
Q 5772 2241 5747 2113 
z
" transform="scale(0.015625)"/>
       <path id="DejaVuSans-2f" d="M 1625 4666 
L 2156 4666 
L 531 -594 
L 0 -594 
L 1625 4666 
z
" transform="scale(0.015625)"/>
       <path id="DejaVuSans-Oblique-7a" d="M 744 3500 
L 3475 3500 
L 3372 2975 
L 738 459 
L 2913 459 
L 2822 0 
L -19 0 
L 84 525 
L 2719 3041 
L 653 3041 
L 744 3500 
z
" transform="scale(0.015625)"/>
      </defs>
      <use xlink:href="#DejaVuSans-Oblique-6d" transform="translate(0 0.09375)"/>
      <use xlink:href="#DejaVuSans-2f" transform="translate(97.412109 0.09375)"/>
      <use xlink:href="#DejaVuSans-Oblique-7a" transform="translate(131.103516 0.09375)"/>
     </g>
    </g>
   </g>
   <g id="matplotlib.axis_2">
    <g id="ytick_1">
     <g id="line2d_6">
      <defs>
       <path id="mcc9820e71b" d="M 0 0 
L -3.5 0 
" style="stroke: #000000; stroke-width: 0.8"/>
      </defs>
      <g>
       <use xlink:href="#mcc9820e71b" x="57.6" y="307.584" style="stroke: #000000; stroke-width: 0.8"/>
      </g>
     </g>
     <g id="text_7">
      <!-- 0.0 -->
      <g transform="translate(34.696875 311.383219) scale(0.1 -0.1)">
       <defs>
        <path id="DejaVuSans-2e" d="M 684 794 
L 1344 794 
L 1344 0 
L 684 0 
L 684 794 
z
" transform="scale(0.015625)"/>
       </defs>
       <use xlink:href="#DejaVuSans-30"/>
       <use xlink:href="#DejaVuSans-2e" x="63.623047"/>
       <use xlink:href="#DejaVuSans-30" x="95.410156"/>
      </g>
     </g>
    </g>
    <g id="ytick_2">
     <g id="line2d_7">
      <g>
       <use xlink:href="#mcc9820e71b" x="57.6" y="270.059931" style="stroke: #000000; stroke-width: 0.8"/>
      </g>
     </g>
     <g id="text_8">
      <!-- 0.2 -->
      <g transform="translate(34.696875 273.85915) scale(0.1 -0.1)">
       <use xlink:href="#DejaVuSans-30"/>
       <use xlink:href="#DejaVuSans-2e" x="63.623047"/>
       <use xlink:href="#DejaVuSans-32" x="95.410156"/>
      </g>
     </g>
    </g>
    <g id="ytick_3">
     <g id="line2d_8">
      <g>
       <use xlink:href="#mcc9820e71b" x="57.6" y="232.535862" style="stroke: #000000; stroke-width: 0.8"/>
      </g>
     </g>
     <g id="text_9">
      <!-- 0.4 -->
      <g transform="translate(34.696875 236.335081) scale(0.1 -0.1)">
       <use xlink:href="#DejaVuSans-30"/>
       <use xlink:href="#DejaVuSans-2e" x="63.623047"/>
       <use xlink:href="#DejaVuSans-34" x="95.410156"/>
      </g>
     </g>
    </g>
    <g id="ytick_4">
     <g id="line2d_9">
      <g>
       <use xlink:href="#mcc9820e71b" x="57.6" y="195.011793" style="stroke: #000000; stroke-width: 0.8"/>
      </g>
     </g>
     <g id="text_10">
      <!-- 0.6 -->
      <g transform="translate(34.696875 198.811012) scale(0.1 -0.1)">
       <defs>
        <path id="DejaVuSans-36" d="M 2113 2584 
Q 1688 2584 1439 2293 
Q 1191 2003 1191 1497 
Q 1191 994 1439 701 
Q 1688 409 2113 409 
Q 2538 409 2786 701 
Q 3034 994 3034 1497 
Q 3034 2003 2786 2293 
Q 2538 2584 2113 2584 
z
M 3366 4563 
L 3366 3988 
Q 3128 4100 2886 4159 
Q 2644 4219 2406 4219 
Q 1781 4219 1451 3797 
Q 1122 3375 1075 2522 
Q 1259 2794 1537 2939 
Q 1816 3084 2150 3084 
Q 2853 3084 3261 2657 
Q 3669 2231 3669 1497 
Q 3669 778 3244 343 
Q 2819 -91 2113 -91 
Q 1303 -91 875 529 
Q 447 1150 447 2328 
Q 447 3434 972 4092 
Q 1497 4750 2381 4750 
Q 2619 4750 2861 4703 
Q 3103 4656 3366 4563 
z
" transform="scale(0.015625)"/>
       </defs>
       <use xlink:href="#DejaVuSans-30"/>
       <use xlink:href="#DejaVuSans-2e" x="63.623047"/>
       <use xlink:href="#DejaVuSans-36" x="95.410156"/>
      </g>
     </g>
    </g>
    <g id="ytick_5">
     <g id="line2d_10">
      <g>
       <use xlink:href="#mcc9820e71b" x="57.6" y="157.487725" style="stroke: #000000; stroke-width: 0.8"/>
      </g>
     </g>
     <g id="text_11">
      <!-- 0.8 -->
      <g transform="translate(34.696875 161.286943) scale(0.1 -0.1)">
       <defs>
        <path id="DejaVuSans-38" d="M 2034 2216 
Q 1584 2216 1326 1975 
Q 1069 1734 1069 1313 
Q 1069 891 1326 650 
Q 1584 409 2034 409 
Q 2484 409 2743 651 
Q 3003 894 3003 1313 
Q 3003 1734 2745 1975 
Q 2488 2216 2034 2216 
z
M 1403 2484 
Q 997 2584 770 2862 
Q 544 3141 544 3541 
Q 544 4100 942 4425 
Q 1341 4750 2034 4750 
Q 2731 4750 3128 4425 
Q 3525 4100 3525 3541 
Q 3525 3141 3298 2862 
Q 3072 2584 2669 2484 
Q 3125 2378 3379 2068 
Q 3634 1759 3634 1313 
Q 3634 634 3220 271 
Q 2806 -91 2034 -91 
Q 1263 -91 848 271 
Q 434 634 434 1313 
Q 434 1759 690 2068 
Q 947 2378 1403 2484 
z
M 1172 3481 
Q 1172 3119 1398 2916 
Q 1625 2713 2034 2713 
Q 2441 2713 2670 2916 
Q 2900 3119 2900 3481 
Q 2900 3844 2670 4047 
Q 2441 4250 2034 4250 
Q 1625 4250 1398 4047 
Q 1172 3844 1172 3481 
z
" transform="scale(0.015625)"/>
       </defs>
       <use xlink:href="#DejaVuSans-30"/>
       <use xlink:href="#DejaVuSans-2e" x="63.623047"/>
       <use xlink:href="#DejaVuSans-38" x="95.410156"/>
      </g>
     </g>
    </g>
    <g id="ytick_6">
     <g id="line2d_11">
      <g>
       <use xlink:href="#mcc9820e71b" x="57.6" y="119.963656" style="stroke: #000000; stroke-width: 0.8"/>
      </g>
     </g>
     <g id="text_12">
      <!-- 1.0 -->
      <g transform="translate(34.696875 123.762875) scale(0.1 -0.1)">
       <use xlink:href="#DejaVuSans-31"/>
       <use xlink:href="#DejaVuSans-2e" x="63.623047"/>
       <use xlink:href="#DejaVuSans-30" x="95.410156"/>
      </g>
     </g>
    </g>
    <g id="ytick_7">
     <g id="line2d_12">
      <g>
       <use xlink:href="#mcc9820e71b" x="57.6" y="82.439587" style="stroke: #000000; stroke-width: 0.8"/>
      </g>
     </g>
     <g id="text_13">
      <!-- 1.2 -->
      <g transform="translate(34.696875 86.238806) scale(0.1 -0.1)">
       <use xlink:href="#DejaVuSans-31"/>
       <use xlink:href="#DejaVuSans-2e" x="63.623047"/>
       <use xlink:href="#DejaVuSans-32" x="95.410156"/>
      </g>
     </g>
    </g>
    <g id="ytick_8">
     <g id="line2d_13">
      <g>
       <use xlink:href="#mcc9820e71b" x="57.6" y="44.915518" style="stroke: #000000; stroke-width: 0.8"/>
      </g>
     </g>
     <g id="text_14">
      <!-- 1.4 -->
      <g transform="translate(34.696875 48.714737) scale(0.1 -0.1)">
       <use xlink:href="#DejaVuSans-31"/>
       <use xlink:href="#DejaVuSans-2e" x="63.623047"/>
       <use xlink:href="#DejaVuSans-34" x="95.410156"/>
      </g>
     </g>
    </g>
    <g id="text_15">
     <!-- intensities -->
     <g transform="translate(28.617187 200.3155) rotate(-90) scale(0.1 -0.1)">
      <defs>
       <path id="DejaVuSans-69" d="M 603 3500 
L 1178 3500 
L 1178 0 
L 603 0 
L 603 3500 
z
M 603 4863 
L 1178 4863 
L 1178 4134 
L 603 4134 
L 603 4863 
z
" transform="scale(0.015625)"/>
       <path id="DejaVuSans-6e" d="M 3513 2113 
L 3513 0 
L 2938 0 
L 2938 2094 
Q 2938 2591 2744 2837 
Q 2550 3084 2163 3084 
Q 1697 3084 1428 2787 
Q 1159 2491 1159 1978 
L 1159 0 
L 581 0 
L 581 3500 
L 1159 3500 
L 1159 2956 
Q 1366 3272 1645 3428 
Q 1925 3584 2291 3584 
Q 2894 3584 3203 3211 
Q 3513 2838 3513 2113 
z
" transform="scale(0.015625)"/>
       <path id="DejaVuSans-74" d="M 1172 4494 
L 1172 3500 
L 2356 3500 
L 2356 3053 
L 1172 3053 
L 1172 1153 
Q 1172 725 1289 603 
Q 1406 481 1766 481 
L 2356 481 
L 2356 0 
L 1766 0 
Q 1100 0 847 248 
Q 594 497 594 1153 
L 594 3053 
L 172 3053 
L 172 3500 
L 594 3500 
L 594 4494 
L 1172 4494 
z
" transform="scale(0.015625)"/>
       <path id="DejaVuSans-65" d="M 3597 1894 
L 3597 1613 
L 953 1613 
Q 991 1019 1311 708 
Q 1631 397 2203 397 
Q 2534 397 2845 478 
Q 3156 559 3463 722 
L 3463 178 
Q 3153 47 2828 -22 
Q 2503 -91 2169 -91 
Q 1331 -91 842 396 
Q 353 884 353 1716 
Q 353 2575 817 3079 
Q 1281 3584 2069 3584 
Q 2775 3584 3186 3129 
Q 3597 2675 3597 1894 
z
M 3022 2063 
Q 3016 2534 2758 2815 
Q 2500 3097 2075 3097 
Q 1594 3097 1305 2825 
Q 1016 2553 972 2059 
L 3022 2063 
z
" transform="scale(0.015625)"/>
       <path id="DejaVuSans-73" d="M 2834 3397 
L 2834 2853 
Q 2591 2978 2328 3040 
Q 2066 3103 1784 3103 
Q 1356 3103 1142 2972 
Q 928 2841 928 2578 
Q 928 2378 1081 2264 
Q 1234 2150 1697 2047 
L 1894 2003 
Q 2506 1872 2764 1633 
Q 3022 1394 3022 966 
Q 3022 478 2636 193 
Q 2250 -91 1575 -91 
Q 1294 -91 989 -36 
Q 684 19 347 128 
L 347 722 
Q 666 556 975 473 
Q 1284 391 1588 391 
Q 1994 391 2212 530 
Q 2431 669 2431 922 
Q 2431 1156 2273 1281 
Q 2116 1406 1581 1522 
L 1381 1569 
Q 847 1681 609 1914 
Q 372 2147 372 2553 
Q 372 3047 722 3315 
Q 1072 3584 1716 3584 
Q 2034 3584 2315 3537 
Q 2597 3491 2834 3397 
z
" transform="scale(0.015625)"/>
      </defs>
      <use xlink:href="#DejaVuSans-69"/>
      <use xlink:href="#DejaVuSans-6e" x="27.783203"/>
      <use xlink:href="#DejaVuSans-74" x="91.162109"/>
      <use xlink:href="#DejaVuSans-65" x="130.371094"/>
      <use xlink:href="#DejaVuSans-6e" x="191.894531"/>
      <use xlink:href="#DejaVuSans-73" x="255.273438"/>
      <use xlink:href="#DejaVuSans-69" x="307.373047"/>
      <use xlink:href="#DejaVuSans-74" x="335.15625"/>
      <use xlink:href="#DejaVuSans-69" x="374.365234"/>
      <use xlink:href="#DejaVuSans-65" x="402.148438"/>
      <use xlink:href="#DejaVuSans-73" x="463.671875"/>
     </g>
    </g>
    <g id="text_16">
     <!-- 1e7 -->
     <g transform="translate(57.6 38.472) scale(0.1 -0.1)">
      <defs>
       <path id="DejaVuSans-37" d="M 525 4666 
L 3525 4666 
L 3525 4397 
L 1831 0 
L 1172 0 
L 2766 4134 
L 525 4134 
L 525 4666 
z
" transform="scale(0.015625)"/>
      </defs>
      <use xlink:href="#DejaVuSans-31"/>
      <use xlink:href="#DejaVuSans-65" x="63.623047"/>
      <use xlink:href="#DejaVuSans-37" x="125.146484"/>
     </g>
    </g>
   </g>
   <g id="patch_134">
    <path d="M 57.6 307.584 
L 57.6 41.472 
" style="fill: none; stroke: #000000; stroke-width: 0.8; stroke-linejoin: miter; stroke-linecap: square"/>
   </g>
   <g id="patch_135">
    <path d="M 414.72 307.584 
L 414.72 41.472 
" style="fill: none; stroke: #000000; stroke-width: 0.8; stroke-linejoin: miter; stroke-linecap: square"/>
   </g>
   <g id="patch_136">
    <path d="M 57.6 307.584 
L 414.72 307.584 
" style="fill: none; stroke: #000000; stroke-width: 0.8; stroke-linejoin: miter; stroke-linecap: square"/>
   </g>
   <g id="patch_137">
    <path d="M 57.6 41.472 
L 414.72 41.472 
" style="fill: none; stroke: #000000; stroke-width: 0.8; stroke-linejoin: miter; stroke-linecap: square"/>
   </g>
   <g id="text_17">
    <!-- 94.0656 -->
    <g transform="translate(95.293007 271.560209) scale(0.06 -0.06)">
     <defs>
      <path id="DejaVuSans-39" d="M 703 97 
L 703 672 
Q 941 559 1184 500 
Q 1428 441 1663 441 
Q 2288 441 2617 861 
Q 2947 1281 2994 2138 
Q 2813 1869 2534 1725 
Q 2256 1581 1919 1581 
Q 1219 1581 811 2004 
Q 403 2428 403 3163 
Q 403 3881 828 4315 
Q 1253 4750 1959 4750 
Q 2769 4750 3195 4129 
Q 3622 3509 3622 2328 
Q 3622 1225 3098 567 
Q 2575 -91 1691 -91 
Q 1453 -91 1209 -44 
Q 966 3 703 97 
z
M 1959 2075 
Q 2384 2075 2632 2365 
Q 2881 2656 2881 3163 
Q 2881 3666 2632 3958 
Q 2384 4250 1959 4250 
Q 1534 4250 1286 3958 
Q 1038 3666 1038 3163 
Q 1038 2656 1286 2365 
Q 1534 2075 1959 2075 
z
" transform="scale(0.015625)"/>
     </defs>
     <use xlink:href="#DejaVuSans-39"/>
     <use xlink:href="#DejaVuSans-34" x="63.623047"/>
     <use xlink:href="#DejaVuSans-2e" x="127.246094"/>
     <use xlink:href="#DejaVuSans-30" x="159.033203"/>
     <use xlink:href="#DejaVuSans-36" x="222.65625"/>
     <use xlink:href="#DejaVuSans-35" x="286.279297"/>
     <use xlink:href="#DejaVuSans-36" x="349.902344"/>
    </g>
   </g>
   <g id="text_18">
    <!-- 100.0761 -->
    <g transform="translate(92.836554 212.471195) scale(0.06 -0.06)">
     <use xlink:href="#DejaVuSans-31"/>
     <use xlink:href="#DejaVuSans-30" x="63.623047"/>
     <use xlink:href="#DejaVuSans-30" x="127.246094"/>
     <use xlink:href="#DejaVuSans-2e" x="190.869141"/>
     <use xlink:href="#DejaVuSans-30" x="222.65625"/>
     <use xlink:href="#DejaVuSans-37" x="286.279297"/>
     <use xlink:href="#DejaVuSans-36" x="349.902344"/>
     <use xlink:href="#DejaVuSans-31" x="413.525391"/>
    </g>
   </g>
   <g id="text_19">
    <!-- 126.0914 -->
    <g transform="translate(118.040487 204.763171) scale(0.06 -0.06)">
     <use xlink:href="#DejaVuSans-31"/>
     <use xlink:href="#DejaVuSans-32" x="63.623047"/>
     <use xlink:href="#DejaVuSans-36" x="127.246094"/>
     <use xlink:href="#DejaVuSans-2e" x="190.869141"/>
     <use xlink:href="#DejaVuSans-30" x="222.65625"/>
     <use xlink:href="#DejaVuSans-39" x="286.279297"/>
     <use xlink:href="#DejaVuSans-31" x="349.902344"/>
     <use xlink:href="#DejaVuSans-34" x="413.525391"/>
    </g>
   </g>
   <g id="text_20">
    <!-- 184.016 -->
    <g transform="translate(162.522293 50.939625) scale(0.06 -0.06)">
     <use xlink:href="#DejaVuSans-31"/>
     <use xlink:href="#DejaVuSans-38" x="63.623047"/>
     <use xlink:href="#DejaVuSans-34" x="127.246094"/>
     <use xlink:href="#DejaVuSans-2e" x="190.869141"/>
     <use xlink:href="#DejaVuSans-30" x="222.65625"/>
     <use xlink:href="#DejaVuSans-31" x="286.279297"/>
     <use xlink:href="#DejaVuSans-36" x="349.902344"/>
    </g>
   </g>
   <g id="text_21">
    <!-- 232.113 -->
    <g transform="translate(198.47013 251.994561) scale(0.06 -0.06)">
     <use xlink:href="#DejaVuSans-32"/>
     <use xlink:href="#DejaVuSans-33" x="63.623047"/>
     <use xlink:href="#DejaVuSans-32" x="127.246094"/>
     <use xlink:href="#DejaVuSans-2e" x="190.869141"/>
     <use xlink:href="#DejaVuSans-31" x="222.65625"/>
     <use xlink:href="#DejaVuSans-31" x="286.279297"/>
     <use xlink:href="#DejaVuSans-33" x="349.902344"/>
    </g>
   </g>
   <g id="text_22">
    <!-- 264.1392 -->
    <g transform="translate(220.49793 129.890885) scale(0.06 -0.06)">
     <use xlink:href="#DejaVuSans-32"/>
     <use xlink:href="#DejaVuSans-36" x="63.623047"/>
     <use xlink:href="#DejaVuSans-34" x="127.246094"/>
     <use xlink:href="#DejaVuSans-2e" x="190.869141"/>
     <use xlink:href="#DejaVuSans-31" x="222.65625"/>
     <use xlink:href="#DejaVuSans-33" x="286.279297"/>
     <use xlink:href="#DejaVuSans-39" x="349.902344"/>
     <use xlink:href="#DejaVuSans-32" x="413.525391"/>
    </g>
   </g>
   <g id="text_23">
    <!-- 482.1847 -->
    <g transform="translate(383.465928 217.519727) scale(0.06 -0.06)">
     <use xlink:href="#DejaVuSans-34"/>
     <use xlink:href="#DejaVuSans-38" x="63.623047"/>
     <use xlink:href="#DejaVuSans-32" x="127.246094"/>
     <use xlink:href="#DejaVuSans-2e" x="190.869141"/>
     <use xlink:href="#DejaVuSans-31" x="222.65625"/>
     <use xlink:href="#DejaVuSans-38" x="286.279297"/>
     <use xlink:href="#DejaVuSans-34" x="349.902344"/>
     <use xlink:href="#DejaVuSans-37" x="413.525391"/>
    </g>
   </g>
   <g id="text_24">
    <!-- MS2 spectrum of ${m/z}$ 482.1836, scan time 7.14 min. -->
    <g transform="translate(57.6 24.873562) scale(0.12 -0.12)">
     <defs>
      <path id="DejaVuSans-4d" d="M 628 4666 
L 1569 4666 
L 2759 1491 
L 3956 4666 
L 4897 4666 
L 4897 0 
L 4281 0 
L 4281 4097 
L 3078 897 
L 2444 897 
L 1241 4097 
L 1241 0 
L 628 0 
L 628 4666 
z
" transform="scale(0.015625)"/>
      <path id="DejaVuSans-53" d="M 3425 4513 
L 3425 3897 
Q 3066 4069 2747 4153 
Q 2428 4238 2131 4238 
Q 1616 4238 1336 4038 
Q 1056 3838 1056 3469 
Q 1056 3159 1242 3001 
Q 1428 2844 1947 2747 
L 2328 2669 
Q 3034 2534 3370 2195 
Q 3706 1856 3706 1288 
Q 3706 609 3251 259 
Q 2797 -91 1919 -91 
Q 1588 -91 1214 -16 
Q 841 59 441 206 
L 441 856 
Q 825 641 1194 531 
Q 1563 422 1919 422 
Q 2459 422 2753 634 
Q 3047 847 3047 1241 
Q 3047 1584 2836 1778 
Q 2625 1972 2144 2069 
L 1759 2144 
Q 1053 2284 737 2584 
Q 422 2884 422 3419 
Q 422 4038 858 4394 
Q 1294 4750 2059 4750 
Q 2388 4750 2728 4690 
Q 3069 4631 3425 4513 
z
" transform="scale(0.015625)"/>
      <path id="DejaVuSans-20" transform="scale(0.015625)"/>
      <path id="DejaVuSans-70" d="M 1159 525 
L 1159 -1331 
L 581 -1331 
L 581 3500 
L 1159 3500 
L 1159 2969 
Q 1341 3281 1617 3432 
Q 1894 3584 2278 3584 
Q 2916 3584 3314 3078 
Q 3713 2572 3713 1747 
Q 3713 922 3314 415 
Q 2916 -91 2278 -91 
Q 1894 -91 1617 61 
Q 1341 213 1159 525 
z
M 3116 1747 
Q 3116 2381 2855 2742 
Q 2594 3103 2138 3103 
Q 1681 3103 1420 2742 
Q 1159 2381 1159 1747 
Q 1159 1113 1420 752 
Q 1681 391 2138 391 
Q 2594 391 2855 752 
Q 3116 1113 3116 1747 
z
" transform="scale(0.015625)"/>
      <path id="DejaVuSans-63" d="M 3122 3366 
L 3122 2828 
Q 2878 2963 2633 3030 
Q 2388 3097 2138 3097 
Q 1578 3097 1268 2742 
Q 959 2388 959 1747 
Q 959 1106 1268 751 
Q 1578 397 2138 397 
Q 2388 397 2633 464 
Q 2878 531 3122 666 
L 3122 134 
Q 2881 22 2623 -34 
Q 2366 -91 2075 -91 
Q 1284 -91 818 406 
Q 353 903 353 1747 
Q 353 2603 823 3093 
Q 1294 3584 2113 3584 
Q 2378 3584 2631 3529 
Q 2884 3475 3122 3366 
z
" transform="scale(0.015625)"/>
      <path id="DejaVuSans-72" d="M 2631 2963 
Q 2534 3019 2420 3045 
Q 2306 3072 2169 3072 
Q 1681 3072 1420 2755 
Q 1159 2438 1159 1844 
L 1159 0 
L 581 0 
L 581 3500 
L 1159 3500 
L 1159 2956 
Q 1341 3275 1631 3429 
Q 1922 3584 2338 3584 
Q 2397 3584 2469 3576 
Q 2541 3569 2628 3553 
L 2631 2963 
z
" transform="scale(0.015625)"/>
      <path id="DejaVuSans-75" d="M 544 1381 
L 544 3500 
L 1119 3500 
L 1119 1403 
Q 1119 906 1312 657 
Q 1506 409 1894 409 
Q 2359 409 2629 706 
Q 2900 1003 2900 1516 
L 2900 3500 
L 3475 3500 
L 3475 0 
L 2900 0 
L 2900 538 
Q 2691 219 2414 64 
Q 2138 -91 1772 -91 
Q 1169 -91 856 284 
Q 544 659 544 1381 
z
M 1991 3584 
L 1991 3584 
z
" transform="scale(0.015625)"/>
      <path id="DejaVuSans-6d" d="M 3328 2828 
Q 3544 3216 3844 3400 
Q 4144 3584 4550 3584 
Q 5097 3584 5394 3201 
Q 5691 2819 5691 2113 
L 5691 0 
L 5113 0 
L 5113 2094 
Q 5113 2597 4934 2840 
Q 4756 3084 4391 3084 
Q 3944 3084 3684 2787 
Q 3425 2491 3425 1978 
L 3425 0 
L 2847 0 
L 2847 2094 
Q 2847 2600 2669 2842 
Q 2491 3084 2119 3084 
Q 1678 3084 1418 2786 
Q 1159 2488 1159 1978 
L 1159 0 
L 581 0 
L 581 3500 
L 1159 3500 
L 1159 2956 
Q 1356 3278 1631 3431 
Q 1906 3584 2284 3584 
Q 2666 3584 2933 3390 
Q 3200 3197 3328 2828 
z
" transform="scale(0.015625)"/>
      <path id="DejaVuSans-6f" d="M 1959 3097 
Q 1497 3097 1228 2736 
Q 959 2375 959 1747 
Q 959 1119 1226 758 
Q 1494 397 1959 397 
Q 2419 397 2687 759 
Q 2956 1122 2956 1747 
Q 2956 2369 2687 2733 
Q 2419 3097 1959 3097 
z
M 1959 3584 
Q 2709 3584 3137 3096 
Q 3566 2609 3566 1747 
Q 3566 888 3137 398 
Q 2709 -91 1959 -91 
Q 1206 -91 779 398 
Q 353 888 353 1747 
Q 353 2609 779 3096 
Q 1206 3584 1959 3584 
z
" transform="scale(0.015625)"/>
      <path id="DejaVuSans-66" d="M 2375 4863 
L 2375 4384 
L 1825 4384 
Q 1516 4384 1395 4259 
Q 1275 4134 1275 3809 
L 1275 3500 
L 2222 3500 
L 2222 3053 
L 1275 3053 
L 1275 0 
L 697 0 
L 697 3053 
L 147 3053 
L 147 3500 
L 697 3500 
L 697 3744 
Q 697 4328 969 4595 
Q 1241 4863 1831 4863 
L 2375 4863 
z
" transform="scale(0.015625)"/>
      <path id="DejaVuSans-2c" d="M 750 794 
L 1409 794 
L 1409 256 
L 897 -744 
L 494 -744 
L 750 256 
L 750 794 
z
" transform="scale(0.015625)"/>
      <path id="DejaVuSans-61" d="M 2194 1759 
Q 1497 1759 1228 1600 
Q 959 1441 959 1056 
Q 959 750 1161 570 
Q 1363 391 1709 391 
Q 2188 391 2477 730 
Q 2766 1069 2766 1631 
L 2766 1759 
L 2194 1759 
z
M 3341 1997 
L 3341 0 
L 2766 0 
L 2766 531 
Q 2569 213 2275 61 
Q 1981 -91 1556 -91 
Q 1019 -91 701 211 
Q 384 513 384 1019 
Q 384 1609 779 1909 
Q 1175 2209 1959 2209 
L 2766 2209 
L 2766 2266 
Q 2766 2663 2505 2880 
Q 2244 3097 1772 3097 
Q 1472 3097 1187 3025 
Q 903 2953 641 2809 
L 641 3341 
Q 956 3463 1253 3523 
Q 1550 3584 1831 3584 
Q 2591 3584 2966 3190 
Q 3341 2797 3341 1997 
z
" transform="scale(0.015625)"/>
     </defs>
     <use xlink:href="#DejaVuSans-4d" transform="translate(0 0.015625)"/>
     <use xlink:href="#DejaVuSans-53" transform="translate(86.279297 0.015625)"/>
     <use xlink:href="#DejaVuSans-32" transform="translate(149.755859 0.015625)"/>
     <use xlink:href="#DejaVuSans-20" transform="translate(213.378906 0.015625)"/>
     <use xlink:href="#DejaVuSans-73" transform="translate(245.166016 0.015625)"/>
     <use xlink:href="#DejaVuSans-70" transform="translate(297.265625 0.015625)"/>
     <use xlink:href="#DejaVuSans-65" transform="translate(360.742188 0.015625)"/>
     <use xlink:href="#DejaVuSans-63" transform="translate(422.265625 0.015625)"/>
     <use xlink:href="#DejaVuSans-74" transform="translate(477.246094 0.015625)"/>
     <use xlink:href="#DejaVuSans-72" transform="translate(516.455078 0.015625)"/>
     <use xlink:href="#DejaVuSans-75" transform="translate(557.568359 0.015625)"/>
     <use xlink:href="#DejaVuSans-6d" transform="translate(620.947266 0.015625)"/>
     <use xlink:href="#DejaVuSans-20" transform="translate(718.359375 0.015625)"/>
     <use xlink:href="#DejaVuSans-6f" transform="translate(750.146484 0.015625)"/>
     <use xlink:href="#DejaVuSans-66" transform="translate(811.328125 0.015625)"/>
     <use xlink:href="#DejaVuSans-20" transform="translate(846.533203 0.015625)"/>
     <use xlink:href="#DejaVuSans-Oblique-6d" transform="translate(878.320312 0.015625)"/>
     <use xlink:href="#DejaVuSans-2f" transform="translate(975.732422 0.015625)"/>
     <use xlink:href="#DejaVuSans-Oblique-7a" transform="translate(1009.423828 0.015625)"/>
     <use xlink:href="#DejaVuSans-20" transform="translate(1061.914062 0.015625)"/>
     <use xlink:href="#DejaVuSans-34" transform="translate(1093.701172 0.015625)"/>
     <use xlink:href="#DejaVuSans-38" transform="translate(1157.324219 0.015625)"/>
     <use xlink:href="#DejaVuSans-32" transform="translate(1220.947266 0.015625)"/>
     <use xlink:href="#DejaVuSans-2e" transform="translate(1284.570312 0.015625)"/>
     <use xlink:href="#DejaVuSans-31" transform="translate(1316.357422 0.015625)"/>
     <use xlink:href="#DejaVuSans-38" transform="translate(1379.980469 0.015625)"/>
     <use xlink:href="#DejaVuSans-33" transform="translate(1443.603516 0.015625)"/>
     <use xlink:href="#DejaVuSans-36" transform="translate(1507.226562 0.015625)"/>
     <use xlink:href="#DejaVuSans-2c" transform="translate(1570.849609 0.015625)"/>
     <use xlink:href="#DejaVuSans-20" transform="translate(1602.636719 0.015625)"/>
     <use xlink:href="#DejaVuSans-73" transform="translate(1634.423828 0.015625)"/>
     <use xlink:href="#DejaVuSans-63" transform="translate(1686.523438 0.015625)"/>
     <use xlink:href="#DejaVuSans-61" transform="translate(1741.503906 0.015625)"/>
     <use xlink:href="#DejaVuSans-6e" transform="translate(1802.783203 0.015625)"/>
     <use xlink:href="#DejaVuSans-20" transform="translate(1866.162109 0.015625)"/>
     <use xlink:href="#DejaVuSans-74" transform="translate(1897.949219 0.015625)"/>
     <use xlink:href="#DejaVuSans-69" transform="translate(1937.158203 0.015625)"/>
     <use xlink:href="#DejaVuSans-6d" transform="translate(1964.941406 0.015625)"/>
     <use xlink:href="#DejaVuSans-65" transform="translate(2062.353516 0.015625)"/>
     <use xlink:href="#DejaVuSans-20" transform="translate(2123.876953 0.015625)"/>
     <use xlink:href="#DejaVuSans-37" transform="translate(2155.664062 0.015625)"/>
     <use xlink:href="#DejaVuSans-2e" transform="translate(2219.287109 0.015625)"/>
     <use xlink:href="#DejaVuSans-31" transform="translate(2251.074219 0.015625)"/>
     <use xlink:href="#DejaVuSans-34" transform="translate(2314.697266 0.015625)"/>
     <use xlink:href="#DejaVuSans-20" transform="translate(2378.320312 0.015625)"/>
     <use xlink:href="#DejaVuSans-6d" transform="translate(2410.107422 0.015625)"/>
     <use xlink:href="#DejaVuSans-69" transform="translate(2507.519531 0.015625)"/>
     <use xlink:href="#DejaVuSans-6e" transform="translate(2535.302734 0.015625)"/>
     <use xlink:href="#DejaVuSans-2e" transform="translate(2598.681641 0.015625)"/>
    </g>
   </g>
  </g>
 </g>
 <defs>
  <clipPath id="p4b4d41c49d">
   <rect x="57.6" y="41.472" width="357.12" height="266.112"/>
  </clipPath>
 </defs>
</svg>
