<?xml version="1.0" encoding="utf-8" standalone="no"?>
<!DOCTYPE svg PUBLIC "-//W3C//DTD SVG 1.1//EN"
  "http://www.w3.org/Graphics/SVG/1.1/DTD/svg11.dtd">
<svg xmlns:xlink="http://www.w3.org/1999/xlink" width="460.8pt" height="345.6pt" viewBox="0 0 460.8 345.6" xmlns="http://www.w3.org/2000/svg" version="1.1">
 <metadata>
  <rdf:RDF xmlns:dc="http://purl.org/dc/elements/1.1/" xmlns:cc="http://creativecommons.org/ns#" xmlns:rdf="http://www.w3.org/1999/02/22-rdf-syntax-ns#">
   <cc:Work>
    <dc:type rdf:resource="http://purl.org/dc/dcmitype/StillImage"/>
    <dc:date>2025-01-11T12:51:55.633250</dc:date>
    <dc:format>image/svg+xml</dc:format>
    <dc:creator>
     <cc:Agent>
      <dc:title>Matplotlib v3.7.3, https://matplotlib.org/</dc:title>
     </cc:Agent>
    </dc:creator>
   </cc:Work>
  </rdf:RDF>
 </metadata>
 <defs>
  <style type="text/css">*{stroke-linejoin: round; stroke-linecap: butt}</style>
 </defs>
 <g id="figure_1">
  <g id="patch_1">
   <path d="M 0 345.6 
L 460.8 345.6 
L 460.8 0 
L 0 0 
z
" style="fill: #ffffff"/>
  </g>
  <g id="axes_1">
   <g id="patch_2">
    <path d="M 57.6 307.584 
L 414.72 307.584 
L 414.72 41.472 
L 57.6 41.472 
z
" style="fill: #ffffff"/>
   </g>
   <g id="patch_3">
    <path d="M 73.832727 307.584 
L 74.566244 307.584 
L 74.566244 306.039572 
L 73.832727 306.039572 
z
" clip-path="url(#pa649a10c88)" style="fill: #1f77b4"/>
   </g>
   <g id="patch_4">
    <path d="M 85.857777 307.584 
L 86.591294 307.584 
L 86.591294 198.455031 
L 85.857777 198.455031 
z
" clip-path="url(#pa649a10c88)" style="fill: #1f77b4"/>
   </g>
   <g id="patch_5">
    <path d="M 85.861198 307.584 
L 86.594715 307.584 
L 86.594715 304.306676 
L 85.861198 304.306676 
z
" clip-path="url(#pa649a10c88)" style="fill: #1f77b4"/>
   </g>
   <g id="patch_6">
    <path d="M 89.664347 307.584 
L 90.397864 307.584 
L 90.397864 305.952301 
L 89.664347 305.952301 
z
" clip-path="url(#pa649a10c88)" style="fill: #1f77b4"/>
   </g>
   <g id="patch_7">
    <path d="M 93.796236 307.584 
L 94.529753 307.584 
L 94.529753 305.65869 
L 93.796236 305.65869 
z
" clip-path="url(#pa649a10c88)" style="fill: #1f77b4"/>
   </g>
   <g id="patch_8">
    <path d="M 95.041649 307.584 
L 95.775166 307.584 
L 95.775166 304.355177 
L 95.041649 304.355177 
z
" clip-path="url(#pa649a10c88)" style="fill: #1f77b4"/>
   </g>
   <g id="patch_9">
    <path d="M 95.045636 307.584 
L 95.779153 307.584 
L 95.779153 261.722555 
L 95.045636 261.722555 
z
" clip-path="url(#pa649a10c88)" style="fill: #1f77b4"/>
   </g>
   <g id="patch_10">
    <path d="M 95.078633 307.584 
L 95.81215 307.584 
L 95.81215 305.532287 
L 95.078633 305.532287 
z
" clip-path="url(#pa649a10c88)" style="fill: #1f77b4"/>
   </g>
   <g id="patch_11">
    <path d="M 102.371441 307.584 
L 103.104958 307.584 
L 103.104958 237.095051 
L 102.371441 237.095051 
z
" clip-path="url(#pa649a10c88)" style="fill: #1f77b4"/>
   </g>
   <g id="patch_12">
    <path d="M 107.896275 307.584 
L 108.629792 307.584 
L 108.629792 305.896229 
L 107.896275 305.896229 
z
" clip-path="url(#pa649a10c88)" style="fill: #1f77b4"/>
   </g>
   <g id="patch_13">
    <path d="M 107.929552 307.584 
L 108.663069 307.584 
L 108.663069 305.388377 
L 107.929552 305.388377 
z
" clip-path="url(#pa649a10c88)" style="fill: #1f77b4"/>
   </g>
   <g id="patch_14">
    <path d="M 109.744604 307.584 
L 110.478121 307.584 
L 110.478121 304.059114 
L 109.744604 304.059114 
z
" clip-path="url(#pa649a10c88)" style="fill: #1f77b4"/>
   </g>
   <g id="patch_15">
    <path d="M 111.359085 307.584 
L 112.092603 307.584 
L 112.092603 305.797852 
L 111.359085 305.797852 
z
" clip-path="url(#pa649a10c88)" style="fill: #1f77b4"/>
   </g>
   <g id="patch_16">
    <path d="M 111.592584 307.584 
L 112.326101 307.584 
L 112.326101 303.132242 
L 111.592584 303.132242 
z
" clip-path="url(#pa649a10c88)" style="fill: #1f77b4"/>
   </g>
   <g id="patch_17">
    <path d="M 114.766115 307.584 
L 115.499632 307.584 
L 115.499632 305.325431 
L 114.766115 305.325431 
z
" clip-path="url(#pa649a10c88)" style="fill: #1f77b4"/>
   </g>
   <g id="patch_18">
    <path d="M 118.898962 307.584 
L 119.63248 307.584 
L 119.63248 305.400255 
L 118.898962 305.400255 
z
" clip-path="url(#pa649a10c88)" style="fill: #1f77b4"/>
   </g>
   <g id="patch_19">
    <path d="M 120.728397 307.584 
L 121.461914 307.584 
L 121.461914 303.360054 
L 120.728397 303.360054 
z
" clip-path="url(#pa649a10c88)" style="fill: #1f77b4"/>
   </g>
   <g id="patch_20">
    <path d="M 132.643924 307.584 
L 133.377441 307.584 
L 133.377441 293.477624 
L 132.643924 293.477624 
z
" clip-path="url(#pa649a10c88)" style="fill: #1f77b4"/>
   </g>
   <g id="patch_21">
    <path d="M 133.564451 307.584 
L 134.297968 307.584 
L 134.297968 302.625377 
L 133.564451 302.625377 
z
" clip-path="url(#pa649a10c88)" style="fill: #1f77b4"/>
   </g>
   <g id="patch_22">
    <path d="M 139.075742 307.584 
L 139.809259 307.584 
L 139.809259 305.719021 
L 139.075742 305.719021 
z
" clip-path="url(#pa649a10c88)" style="fill: #1f77b4"/>
   </g>
   <g id="patch_23">
    <path d="M 150.078178 307.584 
L 150.811695 307.584 
L 150.811695 290.640678 
L 150.078178 290.640678 
z
" clip-path="url(#pa649a10c88)" style="fill: #1f77b4"/>
   </g>
   <g id="patch_24">
    <path d="M 165.6527 307.584 
L 166.386217 307.584 
L 166.386217 305.689149 
L 165.6527 305.689149 
z
" clip-path="url(#pa649a10c88)" style="fill: #1f77b4"/>
   </g>
   <g id="patch_25">
    <path d="M 166.60572 307.584 
L 167.339238 307.584 
L 167.339238 301.707053 
L 166.60572 301.707053 
z
" clip-path="url(#pa649a10c88)" style="fill: #1f77b4"/>
   </g>
   <g id="patch_26">
    <path d="M 169.366665 307.584 
L 170.100182 307.584 
L 170.100182 302.973854 
L 169.366665 302.973854 
z
" clip-path="url(#pa649a10c88)" style="fill: #1f77b4"/>
   </g>
   <g id="patch_27">
    <path d="M 184.794802 307.584 
L 185.528319 307.584 
L 185.528319 305.78471 
L 184.794802 305.78471 
z
" clip-path="url(#pa649a10c88)" style="fill: #1f77b4"/>
   </g>
   <g id="patch_28">
    <path d="M 189.524466 307.584 
L 190.257983 307.584 
L 190.257983 291.060784 
L 189.524466 291.060784 
z
" clip-path="url(#pa649a10c88)" style="fill: #1f77b4"/>
   </g>
   <g id="patch_29">
    <path d="M 190.443769 307.584 
L 191.177286 307.584 
L 191.177286 304.897626 
L 190.443769 304.897626 
z
" clip-path="url(#pa649a10c88)" style="fill: #1f77b4"/>
   </g>
   <g id="patch_30">
    <path d="M 191.354076 307.584 
L 192.087593 307.584 
L 192.087593 302.795466 
L 191.354076 302.795466 
z
" clip-path="url(#pa649a10c88)" style="fill: #1f77b4"/>
   </g>
   <g id="patch_31">
    <path d="M 211.528778 307.584 
L 212.262295 307.584 
L 212.262295 305.36786 
L 211.528778 305.36786 
z
" clip-path="url(#pa649a10c88)" style="fill: #1f77b4"/>
   </g>
   <g id="patch_32">
    <path d="M 214.282727 307.584 
L 215.016244 307.584 
L 215.016244 305.731893 
L 214.282727 305.731893 
z
" clip-path="url(#pa649a10c88)" style="fill: #1f77b4"/>
   </g>
   <g id="patch_33">
    <path d="M 228.076369 307.584 
L 228.809887 307.584 
L 228.809887 288.162981 
L 228.076369 288.162981 
z
" clip-path="url(#pa649a10c88)" style="fill: #1f77b4"/>
   </g>
   <g id="patch_34">
    <path d="M 228.948859 307.584 
L 229.682376 307.584 
L 229.682376 239.118564 
L 228.948859 239.118564 
z
" clip-path="url(#pa649a10c88)" style="fill: #1f77b4"/>
   </g>
   <g id="patch_35">
    <path d="M 229.872401 307.584 
L 230.605919 307.584 
L 230.605919 281.72604 
L 229.872401 281.72604 
z
" clip-path="url(#pa649a10c88)" style="fill: #1f77b4"/>
   </g>
   <g id="patch_36">
    <path d="M 230.793201 307.584 
L 231.526718 307.584 
L 231.526718 303.747988 
L 230.793201 303.747988 
z
" clip-path="url(#pa649a10c88)" style="fill: #1f77b4"/>
   </g>
   <g id="patch_37">
    <path d="M 239.027613 307.584 
L 239.76113 307.584 
L 239.76113 285.049335 
L 239.027613 285.049335 
z
" clip-path="url(#pa649a10c88)" style="fill: #1f77b4"/>
   </g>
   <g id="patch_38">
    <path d="M 239.949672 307.584 
L 240.683189 307.584 
L 240.683189 303.377027 
L 239.949672 303.377027 
z
" clip-path="url(#pa649a10c88)" style="fill: #1f77b4"/>
   </g>
   <g id="patch_39">
    <path d="M 240.8759 307.584 
L 241.609418 307.584 
L 241.609418 278.663173 
L 240.8759 278.663173 
z
" clip-path="url(#pa649a10c88)" style="fill: #1f77b4"/>
   </g>
   <g id="patch_40">
    <path d="M 241.795651 307.584 
L 242.529168 307.584 
L 242.529168 304.615726 
L 241.795651 304.615726 
z
" clip-path="url(#pa649a10c88)" style="fill: #1f77b4"/>
   </g>
   <g id="patch_41">
    <path d="M 248.215535 307.584 
L 248.949052 307.584 
L 248.949052 299.167506 
L 248.215535 299.167506 
z
" clip-path="url(#pa649a10c88)" style="fill: #1f77b4"/>
   </g>
   <g id="patch_42">
    <path d="M 250.954318 307.584 
L 251.687835 307.584 
L 251.687835 241.95792 
L 250.954318 241.95792 
z
" clip-path="url(#pa649a10c88)" style="fill: #1f77b4"/>
   </g>
   <g id="patch_43">
    <path d="M 251.878042 307.584 
L 252.611559 307.584 
L 252.611559 278.379676 
L 251.878042 278.379676 
z
" clip-path="url(#pa649a10c88)" style="fill: #1f77b4"/>
   </g>
   <g id="patch_44">
    <path d="M 251.912879 307.584 
L 252.646396 307.584 
L 252.646396 305.051391 
L 251.912879 305.051391 
z
" clip-path="url(#pa649a10c88)" style="fill: #1f77b4"/>
   </g>
   <g id="patch_45">
    <path d="M 252.799528 307.584 
L 253.533045 307.584 
L 253.533045 303.257112 
L 252.799528 303.257112 
z
" clip-path="url(#pa649a10c88)" style="fill: #1f77b4"/>
   </g>
   <g id="patch_46">
    <path d="M 253.729435 307.584 
L 254.462953 307.584 
L 254.462953 294.171587 
L 253.729435 294.171587 
z
" clip-path="url(#pa649a10c88)" style="fill: #1f77b4"/>
   </g>
   <g id="patch_47">
    <path d="M 260.14259 307.584 
L 260.876107 307.584 
L 260.876107 303.769251 
L 260.14259 303.769251 
z
" clip-path="url(#pa649a10c88)" style="fill: #1f77b4"/>
   </g>
   <g id="patch_48">
    <path d="M 261.066342 307.584 
L 261.799859 307.584 
L 261.799859 300.112464 
L 261.066342 300.112464 
z
" clip-path="url(#pa649a10c88)" style="fill: #1f77b4"/>
   </g>
   <g id="patch_49">
    <path d="M 261.968716 307.584 
L 262.702233 307.584 
L 262.702233 305.168645 
L 261.968716 305.168645 
z
" clip-path="url(#pa649a10c88)" style="fill: #1f77b4"/>
   </g>
   <g id="patch_50">
    <path d="M 262.881247 307.584 
L 263.614765 307.584 
L 263.614765 149.872656 
L 262.881247 149.872656 
z
" clip-path="url(#pa649a10c88)" style="fill: #1f77b4"/>
   </g>
   <g id="patch_51">
    <path d="M 263.803628 307.584 
L 264.537145 307.584 
L 264.537145 269.25123 
L 263.803628 269.25123 
z
" clip-path="url(#pa649a10c88)" style="fill: #1f77b4"/>
   </g>
   <g id="patch_52">
    <path d="M 264.729143 307.584 
L 265.46266 307.584 
L 265.46266 250.946914 
L 264.729143 250.946914 
z
" clip-path="url(#pa649a10c88)" style="fill: #1f77b4"/>
   </g>
   <g id="patch_53">
    <path d="M 265.651188 307.584 
L 266.384705 307.584 
L 266.384705 298.055427 
L 265.651188 298.055427 
z
" clip-path="url(#pa649a10c88)" style="fill: #1f77b4"/>
   </g>
   <g id="patch_54">
    <path d="M 267.501658 307.584 
L 268.235175 307.584 
L 268.235175 205.500349 
L 267.501658 205.500349 
z
" clip-path="url(#pa649a10c88)" style="fill: #1f77b4"/>
   </g>
   <g id="patch_55">
    <path d="M 267.529471 307.584 
L 268.262989 307.584 
L 268.262989 304.682413 
L 267.529471 304.682413 
z
" clip-path="url(#pa649a10c88)" style="fill: #1f77b4"/>
   </g>
   <g id="patch_56">
    <path d="M 268.391804 307.584 
L 269.125321 307.584 
L 269.125321 296.356613 
L 268.391804 296.356613 
z
" clip-path="url(#pa649a10c88)" style="fill: #1f77b4"/>
   </g>
   <g id="patch_57">
    <path d="M 268.424374 307.584 
L 269.157892 307.584 
L 269.157892 263.12292 
L 268.424374 263.12292 
z
" clip-path="url(#pa649a10c88)" style="fill: #1f77b4"/>
   </g>
   <g id="patch_58">
    <path d="M 269.345916 307.584 
L 270.079433 307.584 
L 270.079433 304.108099 
L 269.345916 304.108099 
z
" clip-path="url(#pa649a10c88)" style="fill: #1f77b4"/>
   </g>
   <g id="patch_59">
    <path d="M 270.220532 307.584 
L 270.954049 307.584 
L 270.954049 304.160083 
L 270.220532 304.160083 
z
" clip-path="url(#pa649a10c88)" style="fill: #1f77b4"/>
   </g>
   <g id="patch_60">
    <path d="M 272.961708 307.584 
L 273.695225 307.584 
L 273.695225 304.174946 
L 272.961708 304.174946 
z
" clip-path="url(#pa649a10c88)" style="fill: #1f77b4"/>
   </g>
   <g id="patch_61">
    <path d="M 273.883921 307.584 
L 274.617438 307.584 
L 274.617438 299.686402 
L 273.883921 299.686402 
z
" clip-path="url(#pa649a10c88)" style="fill: #1f77b4"/>
   </g>
   <g id="patch_62">
    <path d="M 274.807673 307.584 
L 275.54119 307.584 
L 275.54119 289.597393 
L 274.807673 289.597393 
z
" clip-path="url(#pa649a10c88)" style="fill: #1f77b4"/>
   </g>
   <g id="patch_63">
    <path d="M 275.732348 307.584 
L 276.465865 307.584 
L 276.465865 213.076495 
L 275.732348 213.076495 
z
" clip-path="url(#pa649a10c88)" style="fill: #1f77b4"/>
   </g>
   <g id="patch_64">
    <path d="M 276.654673 307.584 
L 277.38819 307.584 
L 277.38819 277.218297 
L 276.654673 277.218297 
z
" clip-path="url(#pa649a10c88)" style="fill: #1f77b4"/>
   </g>
   <g id="patch_65">
    <path d="M 277.58016 307.584 
L 278.313677 307.584 
L 278.313677 169.879026 
L 277.58016 169.879026 
z
" clip-path="url(#pa649a10c88)" style="fill: #1f77b4"/>
   </g>
   <g id="patch_66">
    <path d="M 278.50033 307.584 
L 279.233847 307.584 
L 279.233847 290.504387 
L 278.50033 290.504387 
z
" clip-path="url(#pa649a10c88)" style="fill: #1f77b4"/>
   </g>
   <g id="patch_67">
    <path d="M 279.428755 307.584 
L 280.162272 307.584 
L 280.162272 289.875049 
L 279.428755 289.875049 
z
" clip-path="url(#pa649a10c88)" style="fill: #1f77b4"/>
   </g>
   <g id="patch_68">
    <path d="M 281.242401 307.584 
L 281.975918 307.584 
L 281.975918 304.893294 
L 281.242401 304.893294 
z
" clip-path="url(#pa649a10c88)" style="fill: #1f77b4"/>
   </g>
   <g id="patch_69">
    <path d="M 284.886678 307.584 
L 285.620196 307.584 
L 285.620196 300.028089 
L 284.886678 300.028089 
z
" clip-path="url(#pa649a10c88)" style="fill: #1f77b4"/>
   </g>
   <g id="patch_70">
    <path d="M 285.810794 307.584 
L 286.544311 307.584 
L 286.544311 289.666306 
L 285.810794 289.666306 
z
" clip-path="url(#pa649a10c88)" style="fill: #1f77b4"/>
   </g>
   <g id="patch_71">
    <path d="M 286.734854 307.584 
L 287.468371 307.584 
L 287.468371 177.862507 
L 286.734854 177.862507 
z
" clip-path="url(#pa649a10c88)" style="fill: #1f77b4"/>
   </g>
   <g id="patch_72">
    <path d="M 286.758526 307.584 
L 287.492043 307.584 
L 287.492043 305.569304 
L 286.758526 305.569304 
z
" clip-path="url(#pa649a10c88)" style="fill: #1f77b4"/>
   </g>
   <g id="patch_73">
    <path d="M 287.656703 307.584 
L 288.39022 307.584 
L 288.39022 276.514141 
L 287.656703 276.514141 
z
" clip-path="url(#pa649a10c88)" style="fill: #1f77b4"/>
   </g>
   <g id="patch_74">
    <path d="M 288.58247 307.584 
L 289.315987 307.584 
L 289.315987 291.662191 
L 288.58247 291.662191 
z
" clip-path="url(#pa649a10c88)" style="fill: #1f77b4"/>
   </g>
   <g id="patch_75">
    <path d="M 289.507117 307.584 
L 290.240634 307.584 
L 290.240634 267.527692 
L 289.507117 267.527692 
z
" clip-path="url(#pa649a10c88)" style="fill: #1f77b4"/>
   </g>
   <g id="patch_76">
    <path d="M 290.429358 307.584 
L 291.162875 307.584 
L 291.162875 293.923005 
L 290.429358 293.923005 
z
" clip-path="url(#pa649a10c88)" style="fill: #1f77b4"/>
   </g>
   <g id="patch_77">
    <path d="M 291.349248 307.584 
L 292.082765 307.584 
L 292.082765 305.36346 
L 291.349248 305.36346 
z
" clip-path="url(#pa649a10c88)" style="fill: #1f77b4"/>
   </g>
   <g id="patch_78">
    <path d="M 297.736688 307.584 
L 298.470205 307.584 
L 298.470205 304.638831 
L 297.736688 304.638831 
z
" clip-path="url(#pa649a10c88)" style="fill: #1f77b4"/>
   </g>
   <g id="patch_79">
    <path d="M 298.630919 307.584 
L 299.364436 307.584 
L 299.364436 305.662458 
L 298.630919 305.662458 
z
" clip-path="url(#pa649a10c88)" style="fill: #1f77b4"/>
   </g>
   <g id="patch_80">
    <path d="M 298.662007 307.584 
L 299.395524 307.584 
L 299.395524 302.046233 
L 298.662007 302.046233 
z
" clip-path="url(#pa649a10c88)" style="fill: #1f77b4"/>
   </g>
   <g id="patch_81">
    <path d="M 299.5594 307.584 
L 300.292917 307.584 
L 300.292917 305.865567 
L 299.5594 305.865567 
z
" clip-path="url(#pa649a10c88)" style="fill: #1f77b4"/>
   </g>
   <g id="patch_82">
    <path d="M 299.585703 307.584 
L 300.31922 307.584 
L 300.31922 253.928352 
L 299.585703 253.928352 
z
" clip-path="url(#pa649a10c88)" style="fill: #1f77b4"/>
   </g>
   <g id="patch_83">
    <path d="M 299.617518 307.584 
L 300.351035 307.584 
L 300.351035 304.47135 
L 299.617518 304.47135 
z
" clip-path="url(#pa649a10c88)" style="fill: #1f77b4"/>
   </g>
   <g id="patch_84">
    <path d="M 300.507272 307.584 
L 301.240789 307.584 
L 301.240789 297.503128 
L 300.507272 297.503128 
z
" clip-path="url(#pa649a10c88)" style="fill: #1f77b4"/>
   </g>
   <g id="patch_85">
    <path d="M 301.433878 307.584 
L 302.167395 307.584 
L 302.167395 107.857739 
L 301.433878 107.857739 
z
" clip-path="url(#pa649a10c88)" style="fill: #1f77b4"/>
   </g>
   <g id="patch_86">
    <path d="M 301.468239 307.584 
L 302.201756 307.584 
L 302.201756 303.918288 
L 301.468239 303.918288 
z
" clip-path="url(#pa649a10c88)" style="fill: #1f77b4"/>
   </g>
   <g id="patch_87">
    <path d="M 302.353852 307.584 
L 303.08737 307.584 
L 303.08737 273.705402 
L 302.353852 273.705402 
z
" clip-path="url(#pa649a10c88)" style="fill: #1f77b4"/>
   </g>
   <g id="patch_88">
    <path d="M 303.248588 307.584 
L 303.982105 307.584 
L 303.982105 301.601496 
L 303.248588 301.601496 
z
" clip-path="url(#pa649a10c88)" style="fill: #1f77b4"/>
   </g>
   <g id="patch_89">
    <path d="M 303.281774 307.584 
L 304.015291 307.584 
L 304.015291 285.05853 
L 303.281774 285.05853 
z
" clip-path="url(#pa649a10c88)" style="fill: #1f77b4"/>
   </g>
   <g id="patch_90">
    <path d="M 304.138482 307.584 
L 304.871999 307.584 
L 304.871999 305.450709 
L 304.138482 305.450709 
z
" clip-path="url(#pa649a10c88)" style="fill: #1f77b4"/>
   </g>
   <g id="patch_91">
    <path d="M 304.200433 307.584 
L 304.93395 307.584 
L 304.93395 302.307151 
L 304.200433 302.307151 
z
" clip-path="url(#pa649a10c88)" style="fill: #1f77b4"/>
   </g>
   <g id="patch_92">
    <path d="M 312.438119 307.584 
L 313.171636 307.584 
L 313.171636 305.111412 
L 312.438119 305.111412 
z
" clip-path="url(#pa649a10c88)" style="fill: #1f77b4"/>
   </g>
   <g id="patch_93">
    <path d="M 313.359884 307.584 
L 314.093401 307.584 
L 314.093401 304.594146 
L 313.359884 304.594146 
z
" clip-path="url(#pa649a10c88)" style="fill: #1f77b4"/>
   </g>
   <g id="patch_94">
    <path d="M 314.284447 307.584 
L 315.017964 307.584 
L 315.017964 290.331818 
L 314.284447 290.331818 
z
" clip-path="url(#pa649a10c88)" style="fill: #1f77b4"/>
   </g>
   <g id="patch_95">
    <path d="M 315.208283 307.584 
L 315.9418 307.584 
L 315.9418 284.317921 
L 315.208283 284.317921 
z
" clip-path="url(#pa649a10c88)" style="fill: #1f77b4"/>
   </g>
   <g id="patch_96">
    <path d="M 316.097646 307.584 
L 316.831163 307.584 
L 316.831163 302.457766 
L 316.097646 302.457766 
z
" clip-path="url(#pa649a10c88)" style="fill: #1f77b4"/>
   </g>
   <g id="patch_97">
    <path d="M 316.132902 307.584 
L 316.866419 307.584 
L 316.866419 181.573063 
L 316.132902 181.573063 
z
" clip-path="url(#pa649a10c88)" style="fill: #1f77b4"/>
   </g>
   <g id="patch_98">
    <path d="M 316.16925 307.584 
L 316.902767 307.584 
L 316.902767 303.799897 
L 316.16925 303.799897 
z
" clip-path="url(#pa649a10c88)" style="fill: #1f77b4"/>
   </g>
   <g id="patch_99">
    <path d="M 317.022125 307.584 
L 317.755642 307.584 
L 317.755642 299.309979 
L 317.022125 299.309979 
z
" clip-path="url(#pa649a10c88)" style="fill: #1f77b4"/>
   </g>
   <g id="patch_100">
    <path d="M 317.053241 307.584 
L 317.786758 307.584 
L 317.786758 288.385694 
L 317.053241 288.385694 
z
" clip-path="url(#pa649a10c88)" style="fill: #1f77b4"/>
   </g>
   <g id="patch_101">
    <path d="M 317.947808 307.584 
L 318.681325 307.584 
L 318.681325 293.881843 
L 317.947808 293.881843 
z
" clip-path="url(#pa649a10c88)" style="fill: #1f77b4"/>
   </g>
   <g id="patch_102">
    <path d="M 324.327748 307.584 
L 325.061266 307.584 
L 325.061266 305.127834 
L 324.327748 305.127834 
z
" clip-path="url(#pa649a10c88)" style="fill: #1f77b4"/>
   </g>
   <g id="patch_103">
    <path d="M 325.253543 307.584 
L 325.98706 307.584 
L 325.98706 281.11018 
L 325.253543 281.11018 
z
" clip-path="url(#pa649a10c88)" style="fill: #1f77b4"/>
   </g>
   <g id="patch_104">
    <path d="M 325.287876 307.584 
L 326.021393 307.584 
L 326.021393 282.317246 
L 325.287876 282.317246 
z
" clip-path="url(#pa649a10c88)" style="fill: #1f77b4"/>
   </g>
   <g id="patch_105">
    <path d="M 326.175588 307.584 
L 326.909105 307.584 
L 326.909105 303.566842 
L 326.175588 303.566842 
z
" clip-path="url(#pa649a10c88)" style="fill: #1f77b4"/>
   </g>
   <g id="patch_106">
    <path d="M 326.210005 307.584 
L 326.943522 307.584 
L 326.943522 297.348861 
L 326.210005 297.348861 
z
" clip-path="url(#pa649a10c88)" style="fill: #1f77b4"/>
   </g>
   <g id="patch_107">
    <path d="M 338.13797 307.584 
L 338.871487 307.584 
L 338.871487 297.133962 
L 338.13797 297.133962 
z
" clip-path="url(#pa649a10c88)" style="fill: #1f77b4"/>
   </g>
   <g id="patch_108">
    <path d="M 339.059903 307.584 
L 339.79342 307.584 
L 339.79342 304.163069 
L 339.059903 304.163069 
z
" clip-path="url(#pa649a10c88)" style="fill: #1f77b4"/>
   </g>
   <g id="patch_109">
    <path d="M 339.921676 307.584 
L 340.655193 307.584 
L 340.655193 304.598718 
L 339.921676 304.598718 
z
" clip-path="url(#pa649a10c88)" style="fill: #1f77b4"/>
   </g>
   <g id="patch_110">
    <path d="M 339.985669 307.584 
L 340.719186 307.584 
L 340.719186 302.732671 
L 339.985669 302.732671 
z
" clip-path="url(#pa649a10c88)" style="fill: #1f77b4"/>
   </g>
   <g id="patch_111">
    <path d="M 340.843945 307.584 
L 341.577462 307.584 
L 341.577462 248.42658 
L 340.843945 248.42658 
z
" clip-path="url(#pa649a10c88)" style="fill: #1f77b4"/>
   </g>
   <g id="patch_112">
    <path d="M 341.767724 307.584 
L 342.501242 307.584 
L 342.501242 184.953078 
L 341.767724 184.953078 
z
" clip-path="url(#pa649a10c88)" style="fill: #1f77b4"/>
   </g>
   <g id="patch_113">
    <path d="M 341.801106 307.584 
L 342.534623 307.584 
L 342.534623 299.674476 
L 341.801106 299.674476 
z
" clip-path="url(#pa649a10c88)" style="fill: #1f77b4"/>
   </g>
   <g id="patch_114">
    <path d="M 342.687615 307.584 
L 343.421132 307.584 
L 343.421132 290.300623 
L 342.687615 290.300623 
z
" clip-path="url(#pa649a10c88)" style="fill: #1f77b4"/>
   </g>
   <g id="patch_115">
    <path d="M 356.500858 307.584 
L 357.234375 307.584 
L 357.234375 280.612511 
L 356.500858 280.612511 
z
" clip-path="url(#pa649a10c88)" style="fill: #1f77b4"/>
   </g>
   <g id="patch_116">
    <path d="M 357.357986 307.584 
L 358.091503 307.584 
L 358.091503 284.154156 
L 357.357986 284.154156 
z
" clip-path="url(#pa649a10c88)" style="fill: #1f77b4"/>
   </g>
   <g id="patch_117">
    <path d="M 357.421476 307.584 
L 358.154993 307.584 
L 358.154993 303.303355 
L 357.421476 303.303355 
z
" clip-path="url(#pa649a10c88)" style="fill: #1f77b4"/>
   </g>
   <g id="patch_118">
    <path d="M 358.281486 307.584 
L 359.015003 307.584 
L 359.015003 281.565648 
L 358.281486 281.565648 
z
" clip-path="url(#pa649a10c88)" style="fill: #1f77b4"/>
   </g>
   <g id="patch_119">
    <path d="M 359.203252 307.584 
L 359.936769 307.584 
L 359.936769 304.05454 
L 359.203252 304.05454 
z
" clip-path="url(#pa649a10c88)" style="fill: #1f77b4"/>
   </g>
   <g id="patch_120">
    <path d="M 363.807769 307.584 
L 364.541286 307.584 
L 364.541286 301.310612 
L 363.807769 301.310612 
z
" clip-path="url(#pa649a10c88)" style="fill: #1f77b4"/>
   </g>
   <g id="patch_121">
    <path d="M 380.320663 307.584 
L 381.05418 307.584 
L 381.05418 112.517925 
L 380.320663 112.517925 
z
" clip-path="url(#pa649a10c88)" style="fill: #1f77b4"/>
   </g>
   <g id="patch_122">
    <path d="M 381.240134 307.584 
L 381.973651 307.584 
L 381.973651 270.260943 
L 381.240134 270.260943 
z
" clip-path="url(#pa649a10c88)" style="fill: #1f77b4"/>
   </g>
   <g id="patch_123">
    <path d="M 395.908322 307.584 
L 396.64184 307.584 
L 396.64184 302.646704 
L 395.908322 302.646704 
z
" clip-path="url(#pa649a10c88)" style="fill: #1f77b4"/>
   </g>
   <g id="patch_124">
    <path d="M 396.834425 307.584 
L 397.567942 307.584 
L 397.567942 54.144 
L 396.834425 54.144 
z
" clip-path="url(#pa649a10c88)" style="fill: #1f77b4"/>
   </g>
   <g id="patch_125">
    <path d="M 397.071344 307.584 
L 397.804861 307.584 
L 397.804861 301.631331 
L 397.071344 301.631331 
z
" clip-path="url(#pa649a10c88)" style="fill: #1f77b4"/>
   </g>
   <g id="patch_126">
    <path d="M 397.753756 307.584 
L 398.487273 307.584 
L 398.487273 256.730598 
L 397.753756 256.730598 
z
" clip-path="url(#pa649a10c88)" style="fill: #1f77b4"/>
   </g>
   <g id="matplotlib.axis_1">
    <g id="xtick_1">
     <g id="line2d_1">
      <defs>
       <path id="mb7fcbbdd9d" d="M 0 0 
L 0 3.5 
" style="stroke: #000000; stroke-width: 0.8"/>
      </defs>
      <g>
       <use xlink:href="#mb7fcbbdd9d" x="66.957286" y="307.584" style="stroke: #000000; stroke-width: 0.8"/>
      </g>
     </g>
     <g id="text_1">
      <!-- 50 -->
      <g transform="translate(60.594786 322.182437) scale(0.1 -0.1)">
       <defs>
        <path id="DejaVuSans-35" d="M 691 4666 
L 3169 4666 
L 3169 4134 
L 1269 4134 
L 1269 2991 
Q 1406 3038 1543 3061 
Q 1681 3084 1819 3084 
Q 2600 3084 3056 2656 
Q 3513 2228 3513 1497 
Q 3513 744 3044 326 
Q 2575 -91 1722 -91 
Q 1428 -91 1123 -41 
Q 819 9 494 109 
L 494 744 
Q 775 591 1075 516 
Q 1375 441 1709 441 
Q 2250 441 2565 725 
Q 2881 1009 2881 1497 
Q 2881 1984 2565 2268 
Q 2250 2553 1709 2553 
Q 1456 2553 1204 2497 
Q 953 2441 691 2322 
L 691 4666 
z
" transform="scale(0.015625)"/>
        <path id="DejaVuSans-30" d="M 2034 4250 
Q 1547 4250 1301 3770 
Q 1056 3291 1056 2328 
Q 1056 1369 1301 889 
Q 1547 409 2034 409 
Q 2525 409 2770 889 
Q 3016 1369 3016 2328 
Q 3016 3291 2770 3770 
Q 2525 4250 2034 4250 
z
M 2034 4750 
Q 2819 4750 3233 4129 
Q 3647 3509 3647 2328 
Q 3647 1150 3233 529 
Q 2819 -91 2034 -91 
Q 1250 -91 836 529 
Q 422 1150 422 2328 
Q 422 3509 836 4129 
Q 1250 4750 2034 4750 
z
" transform="scale(0.015625)"/>
       </defs>
       <use xlink:href="#DejaVuSans-35"/>
       <use xlink:href="#DejaVuSans-30" x="63.623047"/>
      </g>
     </g>
    </g>
    <g id="xtick_2">
     <g id="line2d_2">
      <g>
       <use xlink:href="#mb7fcbbdd9d" x="112.802109" y="307.584" style="stroke: #000000; stroke-width: 0.8"/>
      </g>
     </g>
     <g id="text_2">
      <!-- 100 -->
      <g transform="translate(103.258359 322.182437) scale(0.1 -0.1)">
       <defs>
        <path id="DejaVuSans-31" d="M 794 531 
L 1825 531 
L 1825 4091 
L 703 3866 
L 703 4441 
L 1819 4666 
L 2450 4666 
L 2450 531 
L 3481 531 
L 3481 0 
L 794 0 
L 794 531 
z
" transform="scale(0.015625)"/>
       </defs>
       <use xlink:href="#DejaVuSans-31"/>
       <use xlink:href="#DejaVuSans-30" x="63.623047"/>
       <use xlink:href="#DejaVuSans-30" x="127.246094"/>
      </g>
     </g>
    </g>
    <g id="xtick_3">
     <g id="line2d_3">
      <g>
       <use xlink:href="#mb7fcbbdd9d" x="158.646932" y="307.584" style="stroke: #000000; stroke-width: 0.8"/>
      </g>
     </g>
     <g id="text_3">
      <!-- 150 -->
      <g transform="translate(149.103182 322.182437) scale(0.1 -0.1)">
       <use xlink:href="#DejaVuSans-31"/>
       <use xlink:href="#DejaVuSans-35" x="63.623047"/>
       <use xlink:href="#DejaVuSans-30" x="127.246094"/>
      </g>
     </g>
    </g>
    <g id="xtick_4">
     <g id="line2d_4">
      <g>
       <use xlink:href="#mb7fcbbdd9d" x="204.491754" y="307.584" style="stroke: #000000; stroke-width: 0.8"/>
      </g>
     </g>
     <g id="text_4">
      <!-- 200 -->
      <g transform="translate(194.948004 322.182437) scale(0.1 -0.1)">
       <defs>
        <path id="DejaVuSans-32" d="M 1228 531 
L 3431 531 
L 3431 0 
L 469 0 
L 469 531 
Q 828 903 1448 1529 
Q 2069 2156 2228 2338 
Q 2531 2678 2651 2914 
Q 2772 3150 2772 3378 
Q 2772 3750 2511 3984 
Q 2250 4219 1831 4219 
Q 1534 4219 1204 4116 
Q 875 4013 500 3803 
L 500 4441 
Q 881 4594 1212 4672 
Q 1544 4750 1819 4750 
Q 2544 4750 2975 4387 
Q 3406 4025 3406 3419 
Q 3406 3131 3298 2873 
Q 3191 2616 2906 2266 
Q 2828 2175 2409 1742 
Q 1991 1309 1228 531 
z
" transform="scale(0.015625)"/>
       </defs>
       <use xlink:href="#DejaVuSans-32"/>
       <use xlink:href="#DejaVuSans-30" x="63.623047"/>
       <use xlink:href="#DejaVuSans-30" x="127.246094"/>
      </g>
     </g>
    </g>
    <g id="xtick_5">
     <g id="line2d_5">
      <g>
       <use xlink:href="#mb7fcbbdd9d" x="250.336577" y="307.584" style="stroke: #000000; stroke-width: 0.8"/>
      </g>
     </g>
     <g id="text_5">
      <!-- 250 -->
      <g transform="translate(240.792827 322.182437) scale(0.1 -0.1)">
       <use xlink:href="#DejaVuSans-32"/>
       <use xlink:href="#DejaVuSans-35" x="63.623047"/>
       <use xlink:href="#DejaVuSans-30" x="127.246094"/>
      </g>
     </g>
    </g>
    <g id="xtick_6">
     <g id="line2d_6">
      <g>
       <use xlink:href="#mb7fcbbdd9d" x="296.1814" y="307.584" style="stroke: #000000; stroke-width: 0.8"/>
      </g>
     </g>
     <g id="text_6">
      <!-- 300 -->
      <g transform="translate(286.63765 322.182437) scale(0.1 -0.1)">
       <defs>
        <path id="DejaVuSans-33" d="M 2597 2516 
Q 3050 2419 3304 2112 
Q 3559 1806 3559 1356 
Q 3559 666 3084 287 
Q 2609 -91 1734 -91 
Q 1441 -91 1130 -33 
Q 819 25 488 141 
L 488 750 
Q 750 597 1062 519 
Q 1375 441 1716 441 
Q 2309 441 2620 675 
Q 2931 909 2931 1356 
Q 2931 1769 2642 2001 
Q 2353 2234 1838 2234 
L 1294 2234 
L 1294 2753 
L 1863 2753 
Q 2328 2753 2575 2939 
Q 2822 3125 2822 3475 
Q 2822 3834 2567 4026 
Q 2313 4219 1838 4219 
Q 1578 4219 1281 4162 
Q 984 4106 628 3988 
L 628 4550 
Q 988 4650 1302 4700 
Q 1616 4750 1894 4750 
Q 2613 4750 3031 4423 
Q 3450 4097 3450 3541 
Q 3450 3153 3228 2886 
Q 3006 2619 2597 2516 
z
" transform="scale(0.015625)"/>
       </defs>
       <use xlink:href="#DejaVuSans-33"/>
       <use xlink:href="#DejaVuSans-30" x="63.623047"/>
       <use xlink:href="#DejaVuSans-30" x="127.246094"/>
      </g>
     </g>
    </g>
    <g id="xtick_7">
     <g id="line2d_7">
      <g>
       <use xlink:href="#mb7fcbbdd9d" x="342.026223" y="307.584" style="stroke: #000000; stroke-width: 0.8"/>
      </g>
     </g>
     <g id="text_7">
      <!-- 350 -->
      <g transform="translate(332.482473 322.182437) scale(0.1 -0.1)">
       <use xlink:href="#DejaVuSans-33"/>
       <use xlink:href="#DejaVuSans-35" x="63.623047"/>
       <use xlink:href="#DejaVuSans-30" x="127.246094"/>
      </g>
     </g>
    </g>
    <g id="xtick_8">
     <g id="line2d_8">
      <g>
       <use xlink:href="#mb7fcbbdd9d" x="387.871046" y="307.584" style="stroke: #000000; stroke-width: 0.8"/>
      </g>
     </g>
     <g id="text_8">
      <!-- 400 -->
      <g transform="translate(378.327296 322.182437) scale(0.1 -0.1)">
       <defs>
        <path id="DejaVuSans-34" d="M 2419 4116 
L 825 1625 
L 2419 1625 
L 2419 4116 
z
M 2253 4666 
L 3047 4666 
L 3047 1625 
L 3713 1625 
L 3713 1100 
L 3047 1100 
L 3047 0 
L 2419 0 
L 2419 1100 
L 313 1100 
L 313 1709 
L 2253 4666 
z
" transform="scale(0.015625)"/>
       </defs>
       <use xlink:href="#DejaVuSans-34"/>
       <use xlink:href="#DejaVuSans-30" x="63.623047"/>
       <use xlink:href="#DejaVuSans-30" x="127.246094"/>
      </g>
     </g>
    </g>
    <g id="text_9">
     <!-- ${m/z}$ -->
     <g transform="translate(226.96 335.860562) scale(0.1 -0.1)">
      <defs>
       <path id="DejaVuSans-Oblique-6d" d="M 5747 2113 
L 5338 0 
L 4763 0 
L 5166 2094 
Q 5191 2228 5203 2325 
Q 5216 2422 5216 2491 
Q 5216 2772 5059 2928 
Q 4903 3084 4622 3084 
Q 4203 3084 3875 2770 
Q 3547 2456 3450 1953 
L 3066 0 
L 2491 0 
L 2900 2094 
Q 2925 2209 2937 2307 
Q 2950 2406 2950 2484 
Q 2950 2769 2794 2926 
Q 2638 3084 2363 3084 
Q 1938 3084 1609 2770 
Q 1281 2456 1184 1953 
L 800 0 
L 225 0 
L 909 3500 
L 1484 3500 
L 1375 2956 
Q 1609 3263 1923 3423 
Q 2238 3584 2597 3584 
Q 2978 3584 3223 3384 
Q 3469 3184 3519 2828 
Q 3781 3197 4126 3390 
Q 4472 3584 4856 3584 
Q 5306 3584 5551 3325 
Q 5797 3066 5797 2591 
Q 5797 2488 5784 2364 
Q 5772 2241 5747 2113 
z
" transform="scale(0.015625)"/>
       <path id="DejaVuSans-2f" d="M 1625 4666 
L 2156 4666 
L 531 -594 
L 0 -594 
L 1625 4666 
z
" transform="scale(0.015625)"/>
       <path id="DejaVuSans-Oblique-7a" d="M 744 3500 
L 3475 3500 
L 3372 2975 
L 738 459 
L 2913 459 
L 2822 0 
L -19 0 
L 84 525 
L 2719 3041 
L 653 3041 
L 744 3500 
z
" transform="scale(0.015625)"/>
      </defs>
      <use xlink:href="#DejaVuSans-Oblique-6d" transform="translate(0 0.09375)"/>
      <use xlink:href="#DejaVuSans-2f" transform="translate(97.412109 0.09375)"/>
      <use xlink:href="#DejaVuSans-Oblique-7a" transform="translate(131.103516 0.09375)"/>
     </g>
    </g>
   </g>
   <g id="matplotlib.axis_2">
    <g id="ytick_1">
     <g id="line2d_9">
      <defs>
       <path id="m8f77a3f411" d="M 0 0 
L -3.5 0 
" style="stroke: #000000; stroke-width: 0.8"/>
      </defs>
      <g>
       <use xlink:href="#m8f77a3f411" x="57.6" y="307.584" style="stroke: #000000; stroke-width: 0.8"/>
      </g>
     </g>
     <g id="text_10">
      <!-- 0 -->
      <g transform="translate(44.2375 311.383219) scale(0.1 -0.1)">
       <use xlink:href="#DejaVuSans-30"/>
      </g>
     </g>
    </g>
    <g id="ytick_2">
     <g id="line2d_10">
      <g>
       <use xlink:href="#m8f77a3f411" x="57.6" y="250.027964" style="stroke: #000000; stroke-width: 0.8"/>
      </g>
     </g>
     <g id="text_11">
      <!-- 200000 -->
      <g transform="translate(12.425 253.827183) scale(0.1 -0.1)">
       <use xlink:href="#DejaVuSans-32"/>
       <use xlink:href="#DejaVuSans-30" x="63.623047"/>
       <use xlink:href="#DejaVuSans-30" x="127.246094"/>
       <use xlink:href="#DejaVuSans-30" x="190.869141"/>
       <use xlink:href="#DejaVuSans-30" x="254.492188"/>
       <use xlink:href="#DejaVuSans-30" x="318.115234"/>
      </g>
     </g>
    </g>
    <g id="ytick_3">
     <g id="line2d_11">
      <g>
       <use xlink:href="#m8f77a3f411" x="57.6" y="192.471928" style="stroke: #000000; stroke-width: 0.8"/>
      </g>
     </g>
     <g id="text_12">
      <!-- 400000 -->
      <g transform="translate(12.425 196.271147) scale(0.1 -0.1)">
       <use xlink:href="#DejaVuSans-34"/>
       <use xlink:href="#DejaVuSans-30" x="63.623047"/>
       <use xlink:href="#DejaVuSans-30" x="127.246094"/>
       <use xlink:href="#DejaVuSans-30" x="190.869141"/>
       <use xlink:href="#DejaVuSans-30" x="254.492188"/>
       <use xlink:href="#DejaVuSans-30" x="318.115234"/>
      </g>
     </g>
    </g>
    <g id="ytick_4">
     <g id="line2d_12">
      <g>
       <use xlink:href="#m8f77a3f411" x="57.6" y="134.915892" style="stroke: #000000; stroke-width: 0.8"/>
      </g>
     </g>
     <g id="text_13">
      <!-- 600000 -->
      <g transform="translate(12.425 138.715111) scale(0.1 -0.1)">
       <defs>
        <path id="DejaVuSans-36" d="M 2113 2584 
Q 1688 2584 1439 2293 
Q 1191 2003 1191 1497 
Q 1191 994 1439 701 
Q 1688 409 2113 409 
Q 2538 409 2786 701 
Q 3034 994 3034 1497 
Q 3034 2003 2786 2293 
Q 2538 2584 2113 2584 
z
M 3366 4563 
L 3366 3988 
Q 3128 4100 2886 4159 
Q 2644 4219 2406 4219 
Q 1781 4219 1451 3797 
Q 1122 3375 1075 2522 
Q 1259 2794 1537 2939 
Q 1816 3084 2150 3084 
Q 2853 3084 3261 2657 
Q 3669 2231 3669 1497 
Q 3669 778 3244 343 
Q 2819 -91 2113 -91 
Q 1303 -91 875 529 
Q 447 1150 447 2328 
Q 447 3434 972 4092 
Q 1497 4750 2381 4750 
Q 2619 4750 2861 4703 
Q 3103 4656 3366 4563 
z
" transform="scale(0.015625)"/>
       </defs>
       <use xlink:href="#DejaVuSans-36"/>
       <use xlink:href="#DejaVuSans-30" x="63.623047"/>
       <use xlink:href="#DejaVuSans-30" x="127.246094"/>
       <use xlink:href="#DejaVuSans-30" x="190.869141"/>
       <use xlink:href="#DejaVuSans-30" x="254.492188"/>
       <use xlink:href="#DejaVuSans-30" x="318.115234"/>
      </g>
     </g>
    </g>
    <g id="ytick_5">
     <g id="line2d_13">
      <g>
       <use xlink:href="#m8f77a3f411" x="57.6" y="77.359857" style="stroke: #000000; stroke-width: 0.8"/>
      </g>
     </g>
     <g id="text_14">
      <!-- 800000 -->
      <g transform="translate(12.425 81.159075) scale(0.1 -0.1)">
       <defs>
        <path id="DejaVuSans-38" d="M 2034 2216 
Q 1584 2216 1326 1975 
Q 1069 1734 1069 1313 
Q 1069 891 1326 650 
Q 1584 409 2034 409 
Q 2484 409 2743 651 
Q 3003 894 3003 1313 
Q 3003 1734 2745 1975 
Q 2488 2216 2034 2216 
z
M 1403 2484 
Q 997 2584 770 2862 
Q 544 3141 544 3541 
Q 544 4100 942 4425 
Q 1341 4750 2034 4750 
Q 2731 4750 3128 4425 
Q 3525 4100 3525 3541 
Q 3525 3141 3298 2862 
Q 3072 2584 2669 2484 
Q 3125 2378 3379 2068 
Q 3634 1759 3634 1313 
Q 3634 634 3220 271 
Q 2806 -91 2034 -91 
Q 1263 -91 848 271 
Q 434 634 434 1313 
Q 434 1759 690 2068 
Q 947 2378 1403 2484 
z
M 1172 3481 
Q 1172 3119 1398 2916 
Q 1625 2713 2034 2713 
Q 2441 2713 2670 2916 
Q 2900 3119 2900 3481 
Q 2900 3844 2670 4047 
Q 2441 4250 2034 4250 
Q 1625 4250 1398 4047 
Q 1172 3844 1172 3481 
z
" transform="scale(0.015625)"/>
       </defs>
       <use xlink:href="#DejaVuSans-38"/>
       <use xlink:href="#DejaVuSans-30" x="63.623047"/>
       <use xlink:href="#DejaVuSans-30" x="127.246094"/>
       <use xlink:href="#DejaVuSans-30" x="190.869141"/>
       <use xlink:href="#DejaVuSans-30" x="254.492188"/>
       <use xlink:href="#DejaVuSans-30" x="318.115234"/>
      </g>
     </g>
    </g>
    <g id="text_15">
     <!-- intensities -->
     <g transform="translate(6.345312 200.3155) rotate(-90) scale(0.1 -0.1)">
      <defs>
       <path id="DejaVuSans-69" d="M 603 3500 
L 1178 3500 
L 1178 0 
L 603 0 
L 603 3500 
z
M 603 4863 
L 1178 4863 
L 1178 4134 
L 603 4134 
L 603 4863 
z
" transform="scale(0.015625)"/>
       <path id="DejaVuSans-6e" d="M 3513 2113 
L 3513 0 
L 2938 0 
L 2938 2094 
Q 2938 2591 2744 2837 
Q 2550 3084 2163 3084 
Q 1697 3084 1428 2787 
Q 1159 2491 1159 1978 
L 1159 0 
L 581 0 
L 581 3500 
L 1159 3500 
L 1159 2956 
Q 1366 3272 1645 3428 
Q 1925 3584 2291 3584 
Q 2894 3584 3203 3211 
Q 3513 2838 3513 2113 
z
" transform="scale(0.015625)"/>
       <path id="DejaVuSans-74" d="M 1172 4494 
L 1172 3500 
L 2356 3500 
L 2356 3053 
L 1172 3053 
L 1172 1153 
Q 1172 725 1289 603 
Q 1406 481 1766 481 
L 2356 481 
L 2356 0 
L 1766 0 
Q 1100 0 847 248 
Q 594 497 594 1153 
L 594 3053 
L 172 3053 
L 172 3500 
L 594 3500 
L 594 4494 
L 1172 4494 
z
" transform="scale(0.015625)"/>
       <path id="DejaVuSans-65" d="M 3597 1894 
L 3597 1613 
L 953 1613 
Q 991 1019 1311 708 
Q 1631 397 2203 397 
Q 2534 397 2845 478 
Q 3156 559 3463 722 
L 3463 178 
Q 3153 47 2828 -22 
Q 2503 -91 2169 -91 
Q 1331 -91 842 396 
Q 353 884 353 1716 
Q 353 2575 817 3079 
Q 1281 3584 2069 3584 
Q 2775 3584 3186 3129 
Q 3597 2675 3597 1894 
z
M 3022 2063 
Q 3016 2534 2758 2815 
Q 2500 3097 2075 3097 
Q 1594 3097 1305 2825 
Q 1016 2553 972 2059 
L 3022 2063 
z
" transform="scale(0.015625)"/>
       <path id="DejaVuSans-73" d="M 2834 3397 
L 2834 2853 
Q 2591 2978 2328 3040 
Q 2066 3103 1784 3103 
Q 1356 3103 1142 2972 
Q 928 2841 928 2578 
Q 928 2378 1081 2264 
Q 1234 2150 1697 2047 
L 1894 2003 
Q 2506 1872 2764 1633 
Q 3022 1394 3022 966 
Q 3022 478 2636 193 
Q 2250 -91 1575 -91 
Q 1294 -91 989 -36 
Q 684 19 347 128 
L 347 722 
Q 666 556 975 473 
Q 1284 391 1588 391 
Q 1994 391 2212 530 
Q 2431 669 2431 922 
Q 2431 1156 2273 1281 
Q 2116 1406 1581 1522 
L 1381 1569 
Q 847 1681 609 1914 
Q 372 2147 372 2553 
Q 372 3047 722 3315 
Q 1072 3584 1716 3584 
Q 2034 3584 2315 3537 
Q 2597 3491 2834 3397 
z
" transform="scale(0.015625)"/>
      </defs>
      <use xlink:href="#DejaVuSans-69"/>
      <use xlink:href="#DejaVuSans-6e" x="27.783203"/>
      <use xlink:href="#DejaVuSans-74" x="91.162109"/>
      <use xlink:href="#DejaVuSans-65" x="130.371094"/>
      <use xlink:href="#DejaVuSans-6e" x="191.894531"/>
      <use xlink:href="#DejaVuSans-73" x="255.273438"/>
      <use xlink:href="#DejaVuSans-69" x="307.373047"/>
      <use xlink:href="#DejaVuSans-74" x="335.15625"/>
      <use xlink:href="#DejaVuSans-69" x="374.365234"/>
      <use xlink:href="#DejaVuSans-65" x="402.148438"/>
      <use xlink:href="#DejaVuSans-73" x="463.671875"/>
     </g>
    </g>
   </g>
   <g id="patch_127">
    <path d="M 57.6 307.584 
L 57.6 41.472 
" style="fill: none; stroke: #000000; stroke-width: 0.8; stroke-linejoin: miter; stroke-linecap: square"/>
   </g>
   <g id="patch_128">
    <path d="M 414.72 307.584 
L 414.72 41.472 
" style="fill: none; stroke: #000000; stroke-width: 0.8; stroke-linejoin: miter; stroke-linecap: square"/>
   </g>
   <g id="patch_129">
    <path d="M 57.6 307.584 
L 414.72 307.584 
" style="fill: none; stroke: #000000; stroke-width: 0.8; stroke-linejoin: miter; stroke-linecap: square"/>
   </g>
   <g id="patch_130">
    <path d="M 57.6 41.472 
L 414.72 41.472 
" style="fill: none; stroke: #000000; stroke-width: 0.8; stroke-linejoin: miter; stroke-linecap: square"/>
   </g>
   <g id="text_16">
    <!-- 71.0135 -->
    <g transform="translate(79.578598 195.250656) scale(0.06 -0.06)">
     <defs>
      <path id="DejaVuSans-37" d="M 525 4666 
L 3525 4666 
L 3525 4397 
L 1831 0 
L 1172 0 
L 2766 4134 
L 525 4134 
L 525 4666 
z
" transform="scale(0.015625)"/>
      <path id="DejaVuSans-2e" d="M 684 794 
L 1344 794 
L 1344 0 
L 684 0 
L 684 794 
z
" transform="scale(0.015625)"/>
     </defs>
     <use xlink:href="#DejaVuSans-37"/>
     <use xlink:href="#DejaVuSans-31" x="63.623047"/>
     <use xlink:href="#DejaVuSans-2e" x="127.246094"/>
     <use xlink:href="#DejaVuSans-30" x="159.033203"/>
     <use xlink:href="#DejaVuSans-31" x="222.65625"/>
     <use xlink:href="#DejaVuSans-33" x="286.279297"/>
     <use xlink:href="#DejaVuSans-35" x="349.902344"/>
    </g>
   </g>
   <g id="text_17">
    <!-- 81.0342 -->
    <g transform="translate(88.766457 266.61818) scale(0.06 -0.06)">
     <use xlink:href="#DejaVuSans-38"/>
     <use xlink:href="#DejaVuSans-31" x="63.623047"/>
     <use xlink:href="#DejaVuSans-2e" x="127.246094"/>
     <use xlink:href="#DejaVuSans-30" x="159.033203"/>
     <use xlink:href="#DejaVuSans-33" x="222.65625"/>
     <use xlink:href="#DejaVuSans-34" x="286.279297"/>
     <use xlink:href="#DejaVuSans-32" x="349.902344"/>
    </g>
   </g>
   <g id="text_18">
    <!-- 89.0239 -->
    <g transform="translate(96.092262 233.890676) scale(0.06 -0.06)">
     <defs>
      <path id="DejaVuSans-39" d="M 703 97 
L 703 672 
Q 941 559 1184 500 
Q 1428 441 1663 441 
Q 2288 441 2617 861 
Q 2947 1281 2994 2138 
Q 2813 1869 2534 1725 
Q 2256 1581 1919 1581 
Q 1219 1581 811 2004 
Q 403 2428 403 3163 
Q 403 3881 828 4315 
Q 1253 4750 1959 4750 
Q 2769 4750 3195 4129 
Q 3622 3509 3622 2328 
Q 3622 1225 3098 567 
Q 2575 -91 1691 -91 
Q 1453 -91 1209 -44 
Q 966 3 703 97 
z
M 1959 2075 
Q 2384 2075 2632 2365 
Q 2881 2656 2881 3163 
Q 2881 3666 2632 3958 
Q 2384 4250 1959 4250 
Q 1534 4250 1286 3958 
Q 1038 3666 1038 3163 
Q 1038 2656 1286 2365 
Q 1534 2075 1959 2075 
z
" transform="scale(0.015625)"/>
     </defs>
     <use xlink:href="#DejaVuSans-38"/>
     <use xlink:href="#DejaVuSans-39" x="63.623047"/>
     <use xlink:href="#DejaVuSans-2e" x="127.246094"/>
     <use xlink:href="#DejaVuSans-30" x="159.033203"/>
     <use xlink:href="#DejaVuSans-32" x="222.65625"/>
     <use xlink:href="#DejaVuSans-33" x="286.279297"/>
     <use xlink:href="#DejaVuSans-39" x="349.902344"/>
    </g>
   </g>
   <g id="text_19">
    <!-- 227.0738 -->
    <g transform="translate(222.20093 231.774189) scale(0.06 -0.06)">
     <use xlink:href="#DejaVuSans-32"/>
     <use xlink:href="#DejaVuSans-32" x="63.623047"/>
     <use xlink:href="#DejaVuSans-37" x="127.246094"/>
     <use xlink:href="#DejaVuSans-2e" x="190.869141"/>
     <use xlink:href="#DejaVuSans-30" x="222.65625"/>
     <use xlink:href="#DejaVuSans-37" x="286.279297"/>
     <use xlink:href="#DejaVuSans-33" x="349.902344"/>
     <use xlink:href="#DejaVuSans-38" x="413.525391"/>
    </g>
   </g>
   <g id="text_20">
    <!-- 228.081 -->
    <g transform="translate(223.593222 275.210896) scale(0.06 -0.06)">
     <use xlink:href="#DejaVuSans-32"/>
     <use xlink:href="#DejaVuSans-32" x="63.623047"/>
     <use xlink:href="#DejaVuSans-38" x="127.246094"/>
     <use xlink:href="#DejaVuSans-2e" x="190.869141"/>
     <use xlink:href="#DejaVuSans-30" x="222.65625"/>
     <use xlink:href="#DejaVuSans-38" x="286.279297"/>
     <use xlink:href="#DejaVuSans-31" x="349.902344"/>
    </g>
   </g>
   <g id="text_21">
    <!-- 240.0818 -->
    <g transform="translate(245.647971 274.442805) scale(0.06 -0.06)">
     <use xlink:href="#DejaVuSans-32"/>
     <use xlink:href="#DejaVuSans-34" x="63.623047"/>
     <use xlink:href="#DejaVuSans-30" x="127.246094"/>
     <use xlink:href="#DejaVuSans-2e" x="190.869141"/>
     <use xlink:href="#DejaVuSans-30" x="222.65625"/>
     <use xlink:href="#DejaVuSans-38" x="286.279297"/>
     <use xlink:href="#DejaVuSans-31" x="349.902344"/>
     <use xlink:href="#DejaVuSans-38" x="413.525391"/>
    </g>
   </g>
   <g id="text_22">
    <!-- 251.0737 -->
    <g transform="translate(247.086389 238.933545) scale(0.06 -0.06)">
     <use xlink:href="#DejaVuSans-32"/>
     <use xlink:href="#DejaVuSans-35" x="63.623047"/>
     <use xlink:href="#DejaVuSans-31" x="127.246094"/>
     <use xlink:href="#DejaVuSans-2e" x="190.869141"/>
     <use xlink:href="#DejaVuSans-30" x="222.65625"/>
     <use xlink:href="#DejaVuSans-37" x="286.279297"/>
     <use xlink:href="#DejaVuSans-33" x="349.902344"/>
     <use xlink:href="#DejaVuSans-37" x="413.525391"/>
    </g>
   </g>
   <g id="text_23">
    <!-- 252.0812 -->
    <g transform="translate(243.690113 283.275301) scale(0.06 -0.06)">
     <use xlink:href="#DejaVuSans-32"/>
     <use xlink:href="#DejaVuSans-35" x="63.623047"/>
     <use xlink:href="#DejaVuSans-32" x="127.246094"/>
     <use xlink:href="#DejaVuSans-2e" x="190.869141"/>
     <use xlink:href="#DejaVuSans-30" x="222.65625"/>
     <use xlink:href="#DejaVuSans-38" x="286.279297"/>
     <use xlink:href="#DejaVuSans-31" x="349.902344"/>
     <use xlink:href="#DejaVuSans-32" x="413.525391"/>
    </g>
   </g>
   <g id="text_24">
    <!-- 264.0817 -->
    <g transform="translate(256.133318 144.688281) scale(0.06 -0.06)">
     <use xlink:href="#DejaVuSans-32"/>
     <use xlink:href="#DejaVuSans-36" x="63.623047"/>
     <use xlink:href="#DejaVuSans-34" x="127.246094"/>
     <use xlink:href="#DejaVuSans-2e" x="190.869141"/>
     <use xlink:href="#DejaVuSans-30" x="222.65625"/>
     <use xlink:href="#DejaVuSans-38" x="286.279297"/>
     <use xlink:href="#DejaVuSans-31" x="349.902344"/>
     <use xlink:href="#DejaVuSans-37" x="413.525391"/>
    </g>
   </g>
   <g id="text_25">
    <!-- 265.0876 -->
    <g transform="translate(240.495699 266.949505) scale(0.06 -0.06)">
     <use xlink:href="#DejaVuSans-32"/>
     <use xlink:href="#DejaVuSans-36" x="63.623047"/>
     <use xlink:href="#DejaVuSans-35" x="127.246094"/>
     <use xlink:href="#DejaVuSans-2e" x="190.869141"/>
     <use xlink:href="#DejaVuSans-30" x="222.65625"/>
     <use xlink:href="#DejaVuSans-38" x="286.279297"/>
     <use xlink:href="#DejaVuSans-37" x="349.902344"/>
     <use xlink:href="#DejaVuSans-36" x="413.525391"/>
    </g>
   </g>
   <g id="text_26">
    <!-- 266.097 -->
    <g transform="translate(258.449964 245.762539) scale(0.06 -0.06)">
     <use xlink:href="#DejaVuSans-32"/>
     <use xlink:href="#DejaVuSans-36" x="63.623047"/>
     <use xlink:href="#DejaVuSans-36" x="127.246094"/>
     <use xlink:href="#DejaVuSans-2e" x="190.869141"/>
     <use xlink:href="#DejaVuSans-30" x="222.65625"/>
     <use xlink:href="#DejaVuSans-39" x="286.279297"/>
     <use xlink:href="#DejaVuSans-37" x="349.902344"/>
    </g>
   </g>
   <g id="text_27">
    <!-- 269.1208 -->
    <g transform="translate(260.753729 200.315974) scale(0.06 -0.06)">
     <use xlink:href="#DejaVuSans-32"/>
     <use xlink:href="#DejaVuSans-36" x="63.623047"/>
     <use xlink:href="#DejaVuSans-39" x="127.246094"/>
     <use xlink:href="#DejaVuSans-2e" x="190.869141"/>
     <use xlink:href="#DejaVuSans-31" x="222.65625"/>
     <use xlink:href="#DejaVuSans-32" x="286.279297"/>
     <use xlink:href="#DejaVuSans-30" x="349.902344"/>
     <use xlink:href="#DejaVuSans-38" x="413.525391"/>
    </g>
   </g>
   <g id="text_28">
    <!-- 270.1272 -->
    <g transform="translate(261.676446 256.498545) scale(0.06 -0.06)">
     <use xlink:href="#DejaVuSans-32"/>
     <use xlink:href="#DejaVuSans-37" x="63.623047"/>
     <use xlink:href="#DejaVuSans-30" x="127.246094"/>
     <use xlink:href="#DejaVuSans-2e" x="190.869141"/>
     <use xlink:href="#DejaVuSans-31" x="222.65625"/>
     <use xlink:href="#DejaVuSans-32" x="286.279297"/>
     <use xlink:href="#DejaVuSans-37" x="349.902344"/>
     <use xlink:href="#DejaVuSans-32" x="413.525391"/>
    </g>
   </g>
   <g id="text_29">
    <!-- 278.0975 -->
    <g transform="translate(268.984419 211.320192) scale(0.06 -0.06)">
     <use xlink:href="#DejaVuSans-32"/>
     <use xlink:href="#DejaVuSans-37" x="63.623047"/>
     <use xlink:href="#DejaVuSans-38" x="127.246094"/>
     <use xlink:href="#DejaVuSans-2e" x="190.869141"/>
     <use xlink:href="#DejaVuSans-30" x="222.65625"/>
     <use xlink:href="#DejaVuSans-39" x="286.279297"/>
     <use xlink:href="#DejaVuSans-37" x="349.902344"/>
     <use xlink:href="#DejaVuSans-35" x="413.525391"/>
    </g>
   </g>
   <g id="text_30">
    <!-- 279.1035 -->
    <g transform="translate(272.786744 284.993922) scale(0.06 -0.06)">
     <use xlink:href="#DejaVuSans-32"/>
     <use xlink:href="#DejaVuSans-37" x="63.623047"/>
     <use xlink:href="#DejaVuSans-39" x="127.246094"/>
     <use xlink:href="#DejaVuSans-2e" x="190.869141"/>
     <use xlink:href="#DejaVuSans-31" x="222.65625"/>
     <use xlink:href="#DejaVuSans-30" x="286.279297"/>
     <use xlink:href="#DejaVuSans-33" x="349.902344"/>
     <use xlink:href="#DejaVuSans-35" x="413.525391"/>
    </g>
   </g>
   <g id="text_31">
    <!-- 280.1128 -->
    <g transform="translate(271.191183 165.454355) scale(0.06 -0.06)">
     <use xlink:href="#DejaVuSans-32"/>
     <use xlink:href="#DejaVuSans-38" x="63.623047"/>
     <use xlink:href="#DejaVuSans-30" x="127.246094"/>
     <use xlink:href="#DejaVuSans-2e" x="190.869141"/>
     <use xlink:href="#DejaVuSans-31" x="222.65625"/>
     <use xlink:href="#DejaVuSans-31" x="286.279297"/>
     <use xlink:href="#DejaVuSans-32" x="349.902344"/>
     <use xlink:href="#DejaVuSans-38" x="413.525391"/>
    </g>
   </g>
   <g id="text_32">
    <!-- 290.0973 -->
    <g transform="translate(279.986925 175.589872) scale(0.06 -0.06)">
     <use xlink:href="#DejaVuSans-32"/>
     <use xlink:href="#DejaVuSans-39" x="63.623047"/>
     <use xlink:href="#DejaVuSans-30" x="127.246094"/>
     <use xlink:href="#DejaVuSans-2e" x="190.869141"/>
     <use xlink:href="#DejaVuSans-30" x="222.65625"/>
     <use xlink:href="#DejaVuSans-39" x="286.279297"/>
     <use xlink:href="#DejaVuSans-37" x="349.902344"/>
     <use xlink:href="#DejaVuSans-33" x="413.525391"/>
    </g>
   </g>
   <g id="text_33">
    <!-- 291.1027 -->
    <g transform="translate(280.622205 277.089766) scale(0.06 -0.06)">
     <use xlink:href="#DejaVuSans-32"/>
     <use xlink:href="#DejaVuSans-39" x="63.623047"/>
     <use xlink:href="#DejaVuSans-31" x="127.246094"/>
     <use xlink:href="#DejaVuSans-2e" x="190.869141"/>
     <use xlink:href="#DejaVuSans-31" x="222.65625"/>
     <use xlink:href="#DejaVuSans-30" x="286.279297"/>
     <use xlink:href="#DejaVuSans-32" x="349.902344"/>
     <use xlink:href="#DejaVuSans-37" x="413.525391"/>
    </g>
   </g>
   <g id="text_34">
    <!-- 293.1208 -->
    <g transform="translate(287.799188 261.623317) scale(0.06 -0.06)">
     <use xlink:href="#DejaVuSans-32"/>
     <use xlink:href="#DejaVuSans-39" x="63.623047"/>
     <use xlink:href="#DejaVuSans-33" x="127.246094"/>
     <use xlink:href="#DejaVuSans-2e" x="190.869141"/>
     <use xlink:href="#DejaVuSans-31" x="222.65625"/>
     <use xlink:href="#DejaVuSans-32" x="286.279297"/>
     <use xlink:href="#DejaVuSans-30" x="349.902344"/>
     <use xlink:href="#DejaVuSans-38" x="413.525391"/>
    </g>
   </g>
   <g id="text_35">
    <!-- 304.1129 -->
    <g transform="translate(293.292002 248.743977) scale(0.06 -0.06)">
     <use xlink:href="#DejaVuSans-33"/>
     <use xlink:href="#DejaVuSans-30" x="63.623047"/>
     <use xlink:href="#DejaVuSans-34" x="127.246094"/>
     <use xlink:href="#DejaVuSans-2e" x="190.869141"/>
     <use xlink:href="#DejaVuSans-31" x="222.65625"/>
     <use xlink:href="#DejaVuSans-31" x="286.279297"/>
     <use xlink:href="#DejaVuSans-32" x="349.902344"/>
     <use xlink:href="#DejaVuSans-39" x="413.525391"/>
    </g>
   </g>
   <g id="text_36">
    <!-- 306.1285 -->
    <g transform="translate(294.685949 104.653364) scale(0.06 -0.06)">
     <use xlink:href="#DejaVuSans-33"/>
     <use xlink:href="#DejaVuSans-30" x="63.623047"/>
     <use xlink:href="#DejaVuSans-36" x="127.246094"/>
     <use xlink:href="#DejaVuSans-2e" x="190.869141"/>
     <use xlink:href="#DejaVuSans-31" x="222.65625"/>
     <use xlink:href="#DejaVuSans-32" x="286.279297"/>
     <use xlink:href="#DejaVuSans-38" x="349.902344"/>
     <use xlink:href="#DejaVuSans-35" x="413.525391"/>
    </g>
   </g>
   <g id="text_37">
    <!-- 307.1319 -->
    <g transform="translate(308.565924 269.961027) scale(0.06 -0.06)">
     <use xlink:href="#DejaVuSans-33"/>
     <use xlink:href="#DejaVuSans-30" x="63.623047"/>
     <use xlink:href="#DejaVuSans-37" x="127.246094"/>
     <use xlink:href="#DejaVuSans-2e" x="190.869141"/>
     <use xlink:href="#DejaVuSans-31" x="222.65625"/>
     <use xlink:href="#DejaVuSans-33" x="286.279297"/>
     <use xlink:href="#DejaVuSans-31" x="349.902344"/>
     <use xlink:href="#DejaVuSans-39" x="413.525391"/>
    </g>
   </g>
   <g id="text_38">
    <!-- 322.1598 -->
    <g transform="translate(309.384973 176.388688) scale(0.06 -0.06)">
     <use xlink:href="#DejaVuSans-33"/>
     <use xlink:href="#DejaVuSans-32" x="63.623047"/>
     <use xlink:href="#DejaVuSans-32" x="127.246094"/>
     <use xlink:href="#DejaVuSans-2e" x="190.869141"/>
     <use xlink:href="#DejaVuSans-31" x="222.65625"/>
     <use xlink:href="#DejaVuSans-35" x="286.279297"/>
     <use xlink:href="#DejaVuSans-39" x="349.902344"/>
     <use xlink:href="#DejaVuSans-38" x="413.525391"/>
    </g>
   </g>
   <g id="text_39">
    <!-- 332.1071 -->
    <g transform="translate(318.505614 279.268193) scale(0.06 -0.06)">
     <use xlink:href="#DejaVuSans-33"/>
     <use xlink:href="#DejaVuSans-33" x="63.623047"/>
     <use xlink:href="#DejaVuSans-32" x="127.246094"/>
     <use xlink:href="#DejaVuSans-2e" x="190.869141"/>
     <use xlink:href="#DejaVuSans-31" x="222.65625"/>
     <use xlink:href="#DejaVuSans-30" x="286.279297"/>
     <use xlink:href="#DejaVuSans-37" x="349.902344"/>
     <use xlink:href="#DejaVuSans-31" x="413.525391"/>
    </g>
   </g>
   <g id="text_40">
    <!-- 349.1106 -->
    <g transform="translate(334.096016 245.222205) scale(0.06 -0.06)">
     <use xlink:href="#DejaVuSans-33"/>
     <use xlink:href="#DejaVuSans-34" x="63.623047"/>
     <use xlink:href="#DejaVuSans-39" x="127.246094"/>
     <use xlink:href="#DejaVuSans-2e" x="190.869141"/>
     <use xlink:href="#DejaVuSans-31" x="222.65625"/>
     <use xlink:href="#DejaVuSans-31" x="286.279297"/>
     <use xlink:href="#DejaVuSans-30" x="349.902344"/>
     <use xlink:href="#DejaVuSans-36" x="413.525391"/>
    </g>
   </g>
   <g id="text_41">
    <!-- 350.1181 -->
    <g transform="translate(335.019796 181.81871) scale(0.06 -0.06)">
     <use xlink:href="#DejaVuSans-33"/>
     <use xlink:href="#DejaVuSans-35" x="63.623047"/>
     <use xlink:href="#DejaVuSans-30" x="127.246094"/>
     <use xlink:href="#DejaVuSans-2e" x="190.869141"/>
     <use xlink:href="#DejaVuSans-31" x="222.65625"/>
     <use xlink:href="#DejaVuSans-31" x="286.279297"/>
     <use xlink:href="#DejaVuSans-38" x="349.902344"/>
     <use xlink:href="#DejaVuSans-31" x="413.525391"/>
    </g>
   </g>
   <g id="text_42">
    <!-- 366.1866 -->
    <g transform="translate(349.752929 277.588136) scale(0.06 -0.06)">
     <use xlink:href="#DejaVuSans-33"/>
     <use xlink:href="#DejaVuSans-36" x="63.623047"/>
     <use xlink:href="#DejaVuSans-36" x="127.246094"/>
     <use xlink:href="#DejaVuSans-2e" x="190.869141"/>
     <use xlink:href="#DejaVuSans-31" x="222.65625"/>
     <use xlink:href="#DejaVuSans-38" x="286.279297"/>
     <use xlink:href="#DejaVuSans-36" x="349.902344"/>
     <use xlink:href="#DejaVuSans-36" x="413.525391"/>
    </g>
   </g>
   <g id="text_43">
    <!-- 368.1286 -->
    <g transform="translate(351.533557 286.461273) scale(0.06 -0.06)">
     <use xlink:href="#DejaVuSans-33"/>
     <use xlink:href="#DejaVuSans-36" x="63.623047"/>
     <use xlink:href="#DejaVuSans-38" x="127.246094"/>
     <use xlink:href="#DejaVuSans-2e" x="190.869141"/>
     <use xlink:href="#DejaVuSans-31" x="222.65625"/>
     <use xlink:href="#DejaVuSans-32" x="286.279297"/>
     <use xlink:href="#DejaVuSans-38" x="349.902344"/>
     <use xlink:href="#DejaVuSans-36" x="413.525391"/>
    </g>
   </g>
   <g id="text_44">
    <!-- 392.1653 -->
    <g transform="translate(373.572734 109.31355) scale(0.06 -0.06)">
     <use xlink:href="#DejaVuSans-33"/>
     <use xlink:href="#DejaVuSans-39" x="63.623047"/>
     <use xlink:href="#DejaVuSans-32" x="127.246094"/>
     <use xlink:href="#DejaVuSans-2e" x="190.869141"/>
     <use xlink:href="#DejaVuSans-31" x="222.65625"/>
     <use xlink:href="#DejaVuSans-36" x="286.279297"/>
     <use xlink:href="#DejaVuSans-35" x="349.902344"/>
     <use xlink:href="#DejaVuSans-33" x="413.525391"/>
    </g>
   </g>
   <g id="text_45">
    <!-- 393.1681 -->
    <g transform="translate(374.492205 268.094561) scale(0.06 -0.06)">
     <use xlink:href="#DejaVuSans-33"/>
     <use xlink:href="#DejaVuSans-39" x="63.623047"/>
     <use xlink:href="#DejaVuSans-33" x="127.246094"/>
     <use xlink:href="#DejaVuSans-2e" x="190.869141"/>
     <use xlink:href="#DejaVuSans-31" x="222.65625"/>
     <use xlink:href="#DejaVuSans-36" x="286.279297"/>
     <use xlink:href="#DejaVuSans-38" x="349.902344"/>
     <use xlink:href="#DejaVuSans-31" x="413.525391"/>
    </g>
   </g>
   <g id="text_46">
    <!-- 410.1758 -->
    <g transform="translate(386.230312 50.939625) scale(0.06 -0.06)">
     <use xlink:href="#DejaVuSans-34"/>
     <use xlink:href="#DejaVuSans-31" x="63.623047"/>
     <use xlink:href="#DejaVuSans-30" x="127.246094"/>
     <use xlink:href="#DejaVuSans-2e" x="190.869141"/>
     <use xlink:href="#DejaVuSans-31" x="222.65625"/>
     <use xlink:href="#DejaVuSans-37" x="286.279297"/>
     <use xlink:href="#DejaVuSans-35" x="349.902344"/>
     <use xlink:href="#DejaVuSans-38" x="413.525391"/>
    </g>
   </g>
   <g id="text_47">
    <!-- 411.1784 -->
    <g transform="translate(386.230312 251.546223) scale(0.06 -0.06)">
     <use xlink:href="#DejaVuSans-34"/>
     <use xlink:href="#DejaVuSans-31" x="63.623047"/>
     <use xlink:href="#DejaVuSans-31" x="127.246094"/>
     <use xlink:href="#DejaVuSans-2e" x="190.869141"/>
     <use xlink:href="#DejaVuSans-31" x="222.65625"/>
     <use xlink:href="#DejaVuSans-37" x="286.279297"/>
     <use xlink:href="#DejaVuSans-38" x="349.902344"/>
     <use xlink:href="#DejaVuSans-34" x="413.525391"/>
    </g>
   </g>
   <g id="text_48">
    <!-- MS2 spectrum of ${m/z}$ 410.1748, scan time 7.78 min. -->
    <g transform="translate(57.6 35.472) scale(0.12 -0.12)">
     <defs>
      <path id="DejaVuSans-4d" d="M 628 4666 
L 1569 4666 
L 2759 1491 
L 3956 4666 
L 4897 4666 
L 4897 0 
L 4281 0 
L 4281 4097 
L 3078 897 
L 2444 897 
L 1241 4097 
L 1241 0 
L 628 0 
L 628 4666 
z
" transform="scale(0.015625)"/>
      <path id="DejaVuSans-53" d="M 3425 4513 
L 3425 3897 
Q 3066 4069 2747 4153 
Q 2428 4238 2131 4238 
Q 1616 4238 1336 4038 
Q 1056 3838 1056 3469 
Q 1056 3159 1242 3001 
Q 1428 2844 1947 2747 
L 2328 2669 
Q 3034 2534 3370 2195 
Q 3706 1856 3706 1288 
Q 3706 609 3251 259 
Q 2797 -91 1919 -91 
Q 1588 -91 1214 -16 
Q 841 59 441 206 
L 441 856 
Q 825 641 1194 531 
Q 1563 422 1919 422 
Q 2459 422 2753 634 
Q 3047 847 3047 1241 
Q 3047 1584 2836 1778 
Q 2625 1972 2144 2069 
L 1759 2144 
Q 1053 2284 737 2584 
Q 422 2884 422 3419 
Q 422 4038 858 4394 
Q 1294 4750 2059 4750 
Q 2388 4750 2728 4690 
Q 3069 4631 3425 4513 
z
" transform="scale(0.015625)"/>
      <path id="DejaVuSans-20" transform="scale(0.015625)"/>
      <path id="DejaVuSans-70" d="M 1159 525 
L 1159 -1331 
L 581 -1331 
L 581 3500 
L 1159 3500 
L 1159 2969 
Q 1341 3281 1617 3432 
Q 1894 3584 2278 3584 
Q 2916 3584 3314 3078 
Q 3713 2572 3713 1747 
Q 3713 922 3314 415 
Q 2916 -91 2278 -91 
Q 1894 -91 1617 61 
Q 1341 213 1159 525 
z
M 3116 1747 
Q 3116 2381 2855 2742 
Q 2594 3103 2138 3103 
Q 1681 3103 1420 2742 
Q 1159 2381 1159 1747 
Q 1159 1113 1420 752 
Q 1681 391 2138 391 
Q 2594 391 2855 752 
Q 3116 1113 3116 1747 
z
" transform="scale(0.015625)"/>
      <path id="DejaVuSans-63" d="M 3122 3366 
L 3122 2828 
Q 2878 2963 2633 3030 
Q 2388 3097 2138 3097 
Q 1578 3097 1268 2742 
Q 959 2388 959 1747 
Q 959 1106 1268 751 
Q 1578 397 2138 397 
Q 2388 397 2633 464 
Q 2878 531 3122 666 
L 3122 134 
Q 2881 22 2623 -34 
Q 2366 -91 2075 -91 
Q 1284 -91 818 406 
Q 353 903 353 1747 
Q 353 2603 823 3093 
Q 1294 3584 2113 3584 
Q 2378 3584 2631 3529 
Q 2884 3475 3122 3366 
z
" transform="scale(0.015625)"/>
      <path id="DejaVuSans-72" d="M 2631 2963 
Q 2534 3019 2420 3045 
Q 2306 3072 2169 3072 
Q 1681 3072 1420 2755 
Q 1159 2438 1159 1844 
L 1159 0 
L 581 0 
L 581 3500 
L 1159 3500 
L 1159 2956 
Q 1341 3275 1631 3429 
Q 1922 3584 2338 3584 
Q 2397 3584 2469 3576 
Q 2541 3569 2628 3553 
L 2631 2963 
z
" transform="scale(0.015625)"/>
      <path id="DejaVuSans-75" d="M 544 1381 
L 544 3500 
L 1119 3500 
L 1119 1403 
Q 1119 906 1312 657 
Q 1506 409 1894 409 
Q 2359 409 2629 706 
Q 2900 1003 2900 1516 
L 2900 3500 
L 3475 3500 
L 3475 0 
L 2900 0 
L 2900 538 
Q 2691 219 2414 64 
Q 2138 -91 1772 -91 
Q 1169 -91 856 284 
Q 544 659 544 1381 
z
M 1991 3584 
L 1991 3584 
z
" transform="scale(0.015625)"/>
      <path id="DejaVuSans-6d" d="M 3328 2828 
Q 3544 3216 3844 3400 
Q 4144 3584 4550 3584 
Q 5097 3584 5394 3201 
Q 5691 2819 5691 2113 
L 5691 0 
L 5113 0 
L 5113 2094 
Q 5113 2597 4934 2840 
Q 4756 3084 4391 3084 
Q 3944 3084 3684 2787 
Q 3425 2491 3425 1978 
L 3425 0 
L 2847 0 
L 2847 2094 
Q 2847 2600 2669 2842 
Q 2491 3084 2119 3084 
Q 1678 3084 1418 2786 
Q 1159 2488 1159 1978 
L 1159 0 
L 581 0 
L 581 3500 
L 1159 3500 
L 1159 2956 
Q 1356 3278 1631 3431 
Q 1906 3584 2284 3584 
Q 2666 3584 2933 3390 
Q 3200 3197 3328 2828 
z
" transform="scale(0.015625)"/>
      <path id="DejaVuSans-6f" d="M 1959 3097 
Q 1497 3097 1228 2736 
Q 959 2375 959 1747 
Q 959 1119 1226 758 
Q 1494 397 1959 397 
Q 2419 397 2687 759 
Q 2956 1122 2956 1747 
Q 2956 2369 2687 2733 
Q 2419 3097 1959 3097 
z
M 1959 3584 
Q 2709 3584 3137 3096 
Q 3566 2609 3566 1747 
Q 3566 888 3137 398 
Q 2709 -91 1959 -91 
Q 1206 -91 779 398 
Q 353 888 353 1747 
Q 353 2609 779 3096 
Q 1206 3584 1959 3584 
z
" transform="scale(0.015625)"/>
      <path id="DejaVuSans-66" d="M 2375 4863 
L 2375 4384 
L 1825 4384 
Q 1516 4384 1395 4259 
Q 1275 4134 1275 3809 
L 1275 3500 
L 2222 3500 
L 2222 3053 
L 1275 3053 
L 1275 0 
L 697 0 
L 697 3053 
L 147 3053 
L 147 3500 
L 697 3500 
L 697 3744 
Q 697 4328 969 4595 
Q 1241 4863 1831 4863 
L 2375 4863 
z
" transform="scale(0.015625)"/>
      <path id="DejaVuSans-2c" d="M 750 794 
L 1409 794 
L 1409 256 
L 897 -744 
L 494 -744 
L 750 256 
L 750 794 
z
" transform="scale(0.015625)"/>
      <path id="DejaVuSans-61" d="M 2194 1759 
Q 1497 1759 1228 1600 
Q 959 1441 959 1056 
Q 959 750 1161 570 
Q 1363 391 1709 391 
Q 2188 391 2477 730 
Q 2766 1069 2766 1631 
L 2766 1759 
L 2194 1759 
z
M 3341 1997 
L 3341 0 
L 2766 0 
L 2766 531 
Q 2569 213 2275 61 
Q 1981 -91 1556 -91 
Q 1019 -91 701 211 
Q 384 513 384 1019 
Q 384 1609 779 1909 
Q 1175 2209 1959 2209 
L 2766 2209 
L 2766 2266 
Q 2766 2663 2505 2880 
Q 2244 3097 1772 3097 
Q 1472 3097 1187 3025 
Q 903 2953 641 2809 
L 641 3341 
Q 956 3463 1253 3523 
Q 1550 3584 1831 3584 
Q 2591 3584 2966 3190 
Q 3341 2797 3341 1997 
z
" transform="scale(0.015625)"/>
     </defs>
     <use xlink:href="#DejaVuSans-4d" transform="translate(0 0.015625)"/>
     <use xlink:href="#DejaVuSans-53" transform="translate(86.279297 0.015625)"/>
     <use xlink:href="#DejaVuSans-32" transform="translate(149.755859 0.015625)"/>
     <use xlink:href="#DejaVuSans-20" transform="translate(213.378906 0.015625)"/>
     <use xlink:href="#DejaVuSans-73" transform="translate(245.166016 0.015625)"/>
     <use xlink:href="#DejaVuSans-70" transform="translate(297.265625 0.015625)"/>
     <use xlink:href="#DejaVuSans-65" transform="translate(360.742188 0.015625)"/>
     <use xlink:href="#DejaVuSans-63" transform="translate(422.265625 0.015625)"/>
     <use xlink:href="#DejaVuSans-74" transform="translate(477.246094 0.015625)"/>
     <use xlink:href="#DejaVuSans-72" transform="translate(516.455078 0.015625)"/>
     <use xlink:href="#DejaVuSans-75" transform="translate(557.568359 0.015625)"/>
     <use xlink:href="#DejaVuSans-6d" transform="translate(620.947266 0.015625)"/>
     <use xlink:href="#DejaVuSans-20" transform="translate(718.359375 0.015625)"/>
     <use xlink:href="#DejaVuSans-6f" transform="translate(750.146484 0.015625)"/>
     <use xlink:href="#DejaVuSans-66" transform="translate(811.328125 0.015625)"/>
     <use xlink:href="#DejaVuSans-20" transform="translate(846.533203 0.015625)"/>
     <use xlink:href="#DejaVuSans-Oblique-6d" transform="translate(878.320312 0.015625)"/>
     <use xlink:href="#DejaVuSans-2f" transform="translate(975.732422 0.015625)"/>
     <use xlink:href="#DejaVuSans-Oblique-7a" transform="translate(1009.423828 0.015625)"/>
     <use xlink:href="#DejaVuSans-20" transform="translate(1061.914062 0.015625)"/>
     <use xlink:href="#DejaVuSans-34" transform="translate(1093.701172 0.015625)"/>
     <use xlink:href="#DejaVuSans-31" transform="translate(1157.324219 0.015625)"/>
     <use xlink:href="#DejaVuSans-30" transform="translate(1220.947266 0.015625)"/>
     <use xlink:href="#DejaVuSans-2e" transform="translate(1284.570312 0.015625)"/>
     <use xlink:href="#DejaVuSans-31" transform="translate(1316.357422 0.015625)"/>
     <use xlink:href="#DejaVuSans-37" transform="translate(1379.980469 0.015625)"/>
     <use xlink:href="#DejaVuSans-34" transform="translate(1443.603516 0.015625)"/>
     <use xlink:href="#DejaVuSans-38" transform="translate(1507.226562 0.015625)"/>
     <use xlink:href="#DejaVuSans-2c" transform="translate(1570.849609 0.015625)"/>
     <use xlink:href="#DejaVuSans-20" transform="translate(1602.636719 0.015625)"/>
     <use xlink:href="#DejaVuSans-73" transform="translate(1634.423828 0.015625)"/>
     <use xlink:href="#DejaVuSans-63" transform="translate(1686.523438 0.015625)"/>
     <use xlink:href="#DejaVuSans-61" transform="translate(1741.503906 0.015625)"/>
     <use xlink:href="#DejaVuSans-6e" transform="translate(1802.783203 0.015625)"/>
     <use xlink:href="#DejaVuSans-20" transform="translate(1866.162109 0.015625)"/>
     <use xlink:href="#DejaVuSans-74" transform="translate(1897.949219 0.015625)"/>
     <use xlink:href="#DejaVuSans-69" transform="translate(1937.158203 0.015625)"/>
     <use xlink:href="#DejaVuSans-6d" transform="translate(1964.941406 0.015625)"/>
     <use xlink:href="#DejaVuSans-65" transform="translate(2062.353516 0.015625)"/>
     <use xlink:href="#DejaVuSans-20" transform="translate(2123.876953 0.015625)"/>
     <use xlink:href="#DejaVuSans-37" transform="translate(2155.664062 0.015625)"/>
     <use xlink:href="#DejaVuSans-2e" transform="translate(2219.287109 0.015625)"/>
     <use xlink:href="#DejaVuSans-37" transform="translate(2243.324219 0.015625)"/>
     <use xlink:href="#DejaVuSans-38" transform="translate(2306.947266 0.015625)"/>
     <use xlink:href="#DejaVuSans-20" transform="translate(2370.570312 0.015625)"/>
     <use xlink:href="#DejaVuSans-6d" transform="translate(2402.357422 0.015625)"/>
     <use xlink:href="#DejaVuSans-69" transform="translate(2499.769531 0.015625)"/>
     <use xlink:href="#DejaVuSans-6e" transform="translate(2527.552734 0.015625)"/>
     <use xlink:href="#DejaVuSans-2e" transform="translate(2590.931641 0.015625)"/>
    </g>
   </g>
  </g>
 </g>
 <defs>
  <clipPath id="pa649a10c88">
   <rect x="57.6" y="41.472" width="357.12" height="266.112"/>
  </clipPath>
 </defs>
</svg>
