<?xml version="1.0" encoding="utf-8" standalone="no"?>
<!DOCTYPE svg PUBLIC "-//W3C//DTD SVG 1.1//EN"
  "http://www.w3.org/Graphics/SVG/1.1/DTD/svg11.dtd">
<svg xmlns:xlink="http://www.w3.org/1999/xlink" width="460.8pt" height="345.6pt" viewBox="0 0 460.8 345.6" xmlns="http://www.w3.org/2000/svg" version="1.1">
 <metadata>
  <rdf:RDF xmlns:dc="http://purl.org/dc/elements/1.1/" xmlns:cc="http://creativecommons.org/ns#" xmlns:rdf="http://www.w3.org/1999/02/22-rdf-syntax-ns#">
   <cc:Work>
    <dc:type rdf:resource="http://purl.org/dc/dcmitype/StillImage"/>
    <dc:date>2025-01-11T12:51:57.179592</dc:date>
    <dc:format>image/svg+xml</dc:format>
    <dc:creator>
     <cc:Agent>
      <dc:title>Matplotlib v3.7.3, https://matplotlib.org/</dc:title>
     </cc:Agent>
    </dc:creator>
   </cc:Work>
  </rdf:RDF>
 </metadata>
 <defs>
  <style type="text/css">*{stroke-linejoin: round; stroke-linecap: butt}</style>
 </defs>
 <g id="figure_1">
  <g id="patch_1">
   <path d="M 0 345.6 
L 460.8 345.6 
L 460.8 0 
L 0 0 
z
" style="fill: #ffffff"/>
  </g>
  <g id="axes_1">
   <g id="patch_2">
    <path d="M 57.6 307.584 
L 414.72 307.584 
L 414.72 41.472 
L 57.6 41.472 
z
" style="fill: #ffffff"/>
   </g>
   <g id="patch_3">
    <path d="M 73.832727 307.584 
L 74.583486 307.584 
L 74.583486 306.487991 
L 73.832727 306.487991 
z
" clip-path="url(#pb3c52960c2)" style="fill: #1f77b4"/>
   </g>
   <g id="patch_4">
    <path d="M 76.211244 307.584 
L 76.962003 307.584 
L 76.962003 306.129427 
L 76.211244 306.129427 
z
" clip-path="url(#pb3c52960c2)" style="fill: #1f77b4"/>
   </g>
   <g id="patch_5">
    <path d="M 76.650791 307.584 
L 77.40155 307.584 
L 77.40155 305.515665 
L 76.650791 305.515665 
z
" clip-path="url(#pb3c52960c2)" style="fill: #1f77b4"/>
   </g>
   <g id="patch_6">
    <path d="M 78.542556 307.584 
L 79.293315 307.584 
L 79.293315 306.144305 
L 78.542556 306.144305 
z
" clip-path="url(#pb3c52960c2)" style="fill: #1f77b4"/>
   </g>
   <g id="patch_7">
    <path d="M 79.888759 307.584 
L 80.639518 307.584 
L 80.639518 306.467066 
L 79.888759 306.467066 
z
" clip-path="url(#pb3c52960c2)" style="fill: #1f77b4"/>
   </g>
   <g id="patch_8">
    <path d="M 80.433909 307.584 
L 81.184668 307.584 
L 81.184668 305.897958 
L 80.433909 305.897958 
z
" clip-path="url(#pb3c52960c2)" style="fill: #1f77b4"/>
   </g>
   <g id="patch_9">
    <path d="M 89.803498 307.584 
L 90.554257 307.584 
L 90.554257 306.042441 
L 89.803498 306.042441 
z
" clip-path="url(#pb3c52960c2)" style="fill: #1f77b4"/>
   </g>
   <g id="patch_10">
    <path d="M 91.660993 307.584 
L 92.411752 307.584 
L 92.411752 305.433131 
L 91.660993 305.433131 
z
" clip-path="url(#pb3c52960c2)" style="fill: #1f77b4"/>
   </g>
   <g id="patch_11">
    <path d="M 93.024039 307.584 
L 93.774798 307.584 
L 93.774798 306.357297 
L 93.024039 306.357297 
z
" clip-path="url(#pb3c52960c2)" style="fill: #1f77b4"/>
   </g>
   <g id="patch_12">
    <path d="M 93.518738 307.584 
L 94.269497 307.584 
L 94.269497 208.168275 
L 93.518738 208.168275 
z
" clip-path="url(#pb3c52960c2)" style="fill: #1f77b4"/>
   </g>
   <g id="patch_13">
    <path d="M 94.460158 307.584 
L 95.210917 307.584 
L 95.210917 305.310758 
L 94.460158 305.310758 
z
" clip-path="url(#pb3c52960c2)" style="fill: #1f77b4"/>
   </g>
   <g id="patch_14">
    <path d="M 94.944067 307.584 
L 95.694826 307.584 
L 95.694826 306.021065 
L 94.944067 306.021065 
z
" clip-path="url(#pb3c52960c2)" style="fill: #1f77b4"/>
   </g>
   <g id="patch_15">
    <path d="M 99.831724 307.584 
L 100.582483 307.584 
L 100.582483 305.631925 
L 99.831724 305.631925 
z
" clip-path="url(#pb3c52960c2)" style="fill: #1f77b4"/>
   </g>
   <g id="patch_16">
    <path d="M 101.065128 307.584 
L 101.815887 307.584 
L 101.815887 305.235149 
L 101.065128 305.235149 
z
" clip-path="url(#pb3c52960c2)" style="fill: #1f77b4"/>
   </g>
   <g id="patch_17">
    <path d="M 102.922579 307.584 
L 103.673338 307.584 
L 103.673338 245.223016 
L 102.922579 245.223016 
z
" clip-path="url(#pb3c52960c2)" style="fill: #1f77b4"/>
   </g>
   <g id="patch_18">
    <path d="M 103.864064 307.584 
L 104.614823 307.584 
L 104.614823 305.881837 
L 103.864064 305.881837 
z
" clip-path="url(#pb3c52960c2)" style="fill: #1f77b4"/>
   </g>
   <g id="patch_19">
    <path d="M 104.056784 307.584 
L 104.807543 307.584 
L 104.807543 305.213648 
L 104.056784 305.213648 
z
" clip-path="url(#pb3c52960c2)" style="fill: #1f77b4"/>
   </g>
   <g id="patch_20">
    <path d="M 104.81419 307.584 
L 105.564949 307.584 
L 105.564949 305.870786 
L 104.81419 305.870786 
z
" clip-path="url(#pb3c52960c2)" style="fill: #1f77b4"/>
   </g>
   <g id="patch_21">
    <path d="M 106.671427 307.584 
L 107.422186 307.584 
L 107.422186 305.467912 
L 106.671427 305.467912 
z
" clip-path="url(#pb3c52960c2)" style="fill: #1f77b4"/>
   </g>
   <g id="patch_22">
    <path d="M 109.977721 307.584 
L 110.72848 307.584 
L 110.72848 305.892924 
L 109.977721 305.892924 
z
" clip-path="url(#pb3c52960c2)" style="fill: #1f77b4"/>
   </g>
   <g id="patch_23">
    <path d="M 110.420547 307.584 
L 111.171306 307.584 
L 111.171306 235.087132 
L 110.420547 235.087132 
z
" clip-path="url(#pb3c52960c2)" style="fill: #1f77b4"/>
   </g>
   <g id="patch_24">
    <path d="M 110.425724 307.584 
L 111.176483 307.584 
L 111.176483 303.724879 
L 110.425724 303.724879 
z
" clip-path="url(#pb3c52960c2)" style="fill: #1f77b4"/>
   </g>
   <g id="patch_25">
    <path d="M 111.362053 307.584 
L 112.112812 307.584 
L 112.112812 305.790817 
L 111.362053 305.790817 
z
" clip-path="url(#pb3c52960c2)" style="fill: #1f77b4"/>
   </g>
   <g id="patch_26">
    <path d="M 112.325869 307.584 
L 113.076628 307.584 
L 113.076628 305.605829 
L 112.325869 305.605829 
z
" clip-path="url(#pb3c52960c2)" style="fill: #1f77b4"/>
   </g>
   <g id="patch_27">
    <path d="M 114.218375 307.584 
L 114.969135 307.584 
L 114.969135 306.10519 
L 114.218375 306.10519 
z
" clip-path="url(#pb3c52960c2)" style="fill: #1f77b4"/>
   </g>
   <g id="patch_28">
    <path d="M 115.128593 307.584 
L 115.879352 307.584 
L 115.879352 306.104808 
L 115.128593 306.104808 
z
" clip-path="url(#pb3c52960c2)" style="fill: #1f77b4"/>
   </g>
   <g id="patch_29">
    <path d="M 116.075197 307.584 
L 116.825956 307.584 
L 116.825956 303.951602 
L 116.075197 303.951602 
z
" clip-path="url(#pb3c52960c2)" style="fill: #1f77b4"/>
   </g>
   <g id="patch_30">
    <path d="M 117.966801 307.584 
L 118.71756 307.584 
L 118.71756 300.864444 
L 117.966801 300.864444 
z
" clip-path="url(#pb3c52960c2)" style="fill: #1f77b4"/>
   </g>
   <g id="patch_31">
    <path d="M 119.824074 307.584 
L 120.574833 307.584 
L 120.574833 306.010688 
L 119.824074 306.010688 
z
" clip-path="url(#pb3c52960c2)" style="fill: #1f77b4"/>
   </g>
   <g id="patch_32">
    <path d="M 119.858269 307.584 
L 120.609028 307.584 
L 120.609028 301.744702 
L 119.858269 301.744702 
z
" clip-path="url(#pb3c52960c2)" style="fill: #1f77b4"/>
   </g>
   <g id="patch_33">
    <path d="M 129.209235 307.584 
L 129.959994 307.584 
L 129.959994 302.915548 
L 129.209235 302.915548 
z
" clip-path="url(#pb3c52960c2)" style="fill: #1f77b4"/>
   </g>
   <g id="patch_34">
    <path d="M 131.085897 307.584 
L 131.836656 307.584 
L 131.836656 298.186735 
L 131.085897 298.186735 
z
" clip-path="url(#pb3c52960c2)" style="fill: #1f77b4"/>
   </g>
   <g id="patch_35">
    <path d="M 137.67447 307.584 
L 138.425229 307.584 
L 138.425229 305.624399 
L 137.67447 305.624399 
z
" clip-path="url(#pb3c52960c2)" style="fill: #1f77b4"/>
   </g>
   <g id="patch_36">
    <path d="M 138.631685 307.584 
L 139.382444 307.584 
L 139.382444 305.33519 
L 138.631685 305.33519 
z
" clip-path="url(#pb3c52960c2)" style="fill: #1f77b4"/>
   </g>
   <g id="patch_37">
    <path d="M 141.404817 307.584 
L 142.155576 307.584 
L 142.155576 296.429479 
L 141.404817 296.429479 
z
" clip-path="url(#pb3c52960c2)" style="fill: #1f77b4"/>
   </g>
   <g id="patch_38">
    <path d="M 142.346545 307.584 
L 143.097304 307.584 
L 143.097304 302.438984 
L 142.346545 302.438984 
z
" clip-path="url(#pb3c52960c2)" style="fill: #1f77b4"/>
   </g>
   <g id="patch_39">
    <path d="M 147.056202 307.584 
L 147.806961 307.584 
L 147.806961 305.14022 
L 147.056202 305.14022 
z
" clip-path="url(#pb3c52960c2)" style="fill: #1f77b4"/>
   </g>
   <g id="patch_40">
    <path d="M 147.987205 307.584 
L 148.737964 307.584 
L 148.737964 301.491108 
L 147.987205 301.491108 
z
" clip-path="url(#pb3c52960c2)" style="fill: #1f77b4"/>
   </g>
   <g id="patch_41">
    <path d="M 149.880756 307.584 
L 150.631515 307.584 
L 150.631515 305.720328 
L 149.880756 305.720328 
z
" clip-path="url(#pb3c52960c2)" style="fill: #1f77b4"/>
   </g>
   <g id="patch_42">
    <path d="M 151.058428 307.584 
L 151.809187 307.584 
L 151.809187 306.002602 
L 151.058428 306.002602 
z
" clip-path="url(#pb3c52960c2)" style="fill: #1f77b4"/>
   </g>
   <g id="patch_43">
    <path d="M 159.248705 307.584 
L 159.999464 307.584 
L 159.999464 288.07078 
L 159.248705 288.07078 
z
" clip-path="url(#pb3c52960c2)" style="fill: #1f77b4"/>
   </g>
   <g id="patch_44">
    <path d="M 161.154614 307.584 
L 161.905374 307.584 
L 161.905374 305.27697 
L 161.154614 305.27697 
z
" clip-path="url(#pb3c52960c2)" style="fill: #1f77b4"/>
   </g>
   <g id="patch_45">
    <path d="M 171.457948 307.584 
L 172.208707 307.584 
L 172.208707 304.564702 
L 171.457948 304.564702 
z
" clip-path="url(#pb3c52960c2)" style="fill: #1f77b4"/>
   </g>
   <g id="patch_46">
    <path d="M 184.611554 307.584 
L 185.362313 307.584 
L 185.362313 294.152443 
L 184.611554 294.152443 
z
" clip-path="url(#pb3c52960c2)" style="fill: #1f77b4"/>
   </g>
   <g id="patch_47">
    <path d="M 195.873341 307.584 
L 196.6241 307.584 
L 196.6241 305.350625 
L 195.873341 305.350625 
z
" clip-path="url(#pb3c52960c2)" style="fill: #1f77b4"/>
   </g>
   <g id="patch_48">
    <path d="M 199.69882 307.584 
L 200.449579 307.584 
L 200.449579 305.590083 
L 199.69882 305.590083 
z
" clip-path="url(#pb3c52960c2)" style="fill: #1f77b4"/>
   </g>
   <g id="patch_49">
    <path d="M 201.494454 307.584 
L 202.245213 307.584 
L 202.245213 304.659489 
L 201.494454 304.659489 
z
" clip-path="url(#pb3c52960c2)" style="fill: #1f77b4"/>
   </g>
   <g id="patch_50">
    <path d="M 207.135314 307.584 
L 207.886073 307.584 
L 207.886073 305.789108 
L 207.135314 305.789108 
z
" clip-path="url(#pb3c52960c2)" style="fill: #1f77b4"/>
   </g>
   <g id="patch_51">
    <path d="M 209.026517 307.584 
L 209.777276 307.584 
L 209.777276 304.583178 
L 209.026517 304.583178 
z
" clip-path="url(#pb3c52960c2)" style="fill: #1f77b4"/>
   </g>
   <g id="patch_52">
    <path d="M 211.821644 307.584 
L 212.572404 307.584 
L 212.572404 304.973472 
L 211.821644 304.973472 
z
" clip-path="url(#pb3c52960c2)" style="fill: #1f77b4"/>
   </g>
   <g id="patch_53">
    <path d="M 214.955774 307.584 
L 215.706533 307.584 
L 215.706533 305.749813 
L 214.955774 305.749813 
z
" clip-path="url(#pb3c52960c2)" style="fill: #1f77b4"/>
   </g>
   <g id="patch_54">
    <path d="M 224.070009 307.584 
L 224.820768 307.584 
L 224.820768 304.165637 
L 224.070009 304.165637 
z
" clip-path="url(#pb3c52960c2)" style="fill: #1f77b4"/>
   </g>
   <g id="patch_55">
    <path d="M 224.96295 307.584 
L 225.713709 307.584 
L 225.713709 263.195499 
L 224.96295 263.195499 
z
" clip-path="url(#pb3c52960c2)" style="fill: #1f77b4"/>
   </g>
   <g id="patch_56">
    <path d="M 224.980878 307.584 
L 225.731637 307.584 
L 225.731637 304.387899 
L 224.980878 304.387899 
z
" clip-path="url(#pb3c52960c2)" style="fill: #1f77b4"/>
   </g>
   <g id="patch_57">
    <path d="M 225.908544 307.584 
L 226.659303 307.584 
L 226.659303 279.634471 
L 225.908544 279.634471 
z
" clip-path="url(#pb3c52960c2)" style="fill: #1f77b4"/>
   </g>
   <g id="patch_58">
    <path d="M 226.584858 307.584 
L 227.335617 307.584 
L 227.335617 306.112305 
L 226.584858 306.112305 
z
" clip-path="url(#pb3c52960c2)" style="fill: #1f77b4"/>
   </g>
   <g id="patch_59">
    <path d="M 226.850988 307.584 
L 227.601747 307.584 
L 227.601747 305.391834 
L 226.850988 305.391834 
z
" clip-path="url(#pb3c52960c2)" style="fill: #1f77b4"/>
   </g>
   <g id="patch_60">
    <path d="M 227.108941 307.584 
L 227.8597 307.584 
L 227.8597 306.211464 
L 227.108941 306.211464 
z
" clip-path="url(#pb3c52960c2)" style="fill: #1f77b4"/>
   </g>
   <g id="patch_61">
    <path d="M 229.44829 307.584 
L 230.199049 307.584 
L 230.199049 306.056365 
L 229.44829 306.056365 
z
" clip-path="url(#pb3c52960c2)" style="fill: #1f77b4"/>
   </g>
   <g id="patch_62">
    <path d="M 235.278498 307.584 
L 236.029257 307.584 
L 236.029257 283.724401 
L 235.278498 283.724401 
z
" clip-path="url(#pb3c52960c2)" style="fill: #1f77b4"/>
   </g>
   <g id="patch_63">
    <path d="M 236.22319 307.584 
L 236.973949 307.584 
L 236.973949 300.978148 
L 236.22319 300.978148 
z
" clip-path="url(#pb3c52960c2)" style="fill: #1f77b4"/>
   </g>
   <g id="patch_64">
    <path d="M 237.169987 307.584 
L 237.920746 307.584 
L 237.920746 277.224622 
L 237.169987 277.224622 
z
" clip-path="url(#pb3c52960c2)" style="fill: #1f77b4"/>
   </g>
   <g id="patch_65">
    <path d="M 238.113219 307.584 
L 238.863978 307.584 
L 238.863978 305.313354 
L 238.113219 305.313354 
z
" clip-path="url(#pb3c52960c2)" style="fill: #1f77b4"/>
   </g>
   <g id="patch_66">
    <path d="M 245.272672 307.584 
L 246.023431 307.584 
L 246.023431 306.085509 
L 245.272672 306.085509 
z
" clip-path="url(#pb3c52960c2)" style="fill: #1f77b4"/>
   </g>
   <g id="patch_67">
    <path d="M 246.539283 307.584 
L 247.290042 307.584 
L 247.290042 305.858549 
L 246.539283 305.858549 
z
" clip-path="url(#pb3c52960c2)" style="fill: #1f77b4"/>
   </g>
   <g id="patch_68">
    <path d="M 247.485736 307.584 
L 248.236495 307.584 
L 248.236495 234.84361 
L 247.485736 234.84361 
z
" clip-path="url(#pb3c52960c2)" style="fill: #1f77b4"/>
   </g>
   <g id="patch_69">
    <path d="M 248.430887 307.584 
L 249.181646 307.584 
L 249.181646 260.674883 
L 248.430887 260.674883 
z
" clip-path="url(#pb3c52960c2)" style="fill: #1f77b4"/>
   </g>
   <g id="patch_70">
    <path d="M 249.373961 307.584 
L 250.12472 307.584 
L 250.12472 302.528639 
L 249.373961 302.528639 
z
" clip-path="url(#pb3c52960c2)" style="fill: #1f77b4"/>
   </g>
   <g id="patch_71">
    <path d="M 250.303789 307.584 
L 251.054548 307.584 
L 251.054548 305.291945 
L 250.303789 305.291945 
z
" clip-path="url(#pb3c52960c2)" style="fill: #1f77b4"/>
   </g>
   <g id="patch_72">
    <path d="M 250.324939 307.584 
L 251.075698 307.584 
L 251.075698 289.55686 
L 250.324939 289.55686 
z
" clip-path="url(#pb3c52960c2)" style="fill: #1f77b4"/>
   </g>
   <g id="patch_73">
    <path d="M 253.069819 307.584 
L 253.820578 307.584 
L 253.820578 306.103727 
L 253.069819 306.103727 
z
" clip-path="url(#pb3c52960c2)" style="fill: #1f77b4"/>
   </g>
   <g id="patch_74">
    <path d="M 255.96262 307.584 
L 256.713379 307.584 
L 256.713379 303.19608 
L 255.96262 303.19608 
z
" clip-path="url(#pb3c52960c2)" style="fill: #1f77b4"/>
   </g>
   <g id="patch_75">
    <path d="M 258.748339 307.584 
L 259.499099 307.584 
L 259.499099 302.99799 
L 258.748339 302.99799 
z
" clip-path="url(#pb3c52960c2)" style="fill: #1f77b4"/>
   </g>
   <g id="patch_76">
    <path d="M 259.692888 307.584 
L 260.443648 307.584 
L 260.443648 106.861601 
L 259.692888 106.861601 
z
" clip-path="url(#pb3c52960c2)" style="fill: #1f77b4"/>
   </g>
   <g id="patch_77">
    <path d="M 260.636822 307.584 
L 261.387581 307.584 
L 261.387581 265.806378 
L 260.636822 265.806378 
z
" clip-path="url(#pb3c52960c2)" style="fill: #1f77b4"/>
   </g>
   <g id="patch_78">
    <path d="M 261.584378 307.584 
L 262.335137 307.584 
L 262.335137 239.307722 
L 261.584378 239.307722 
z
" clip-path="url(#pb3c52960c2)" style="fill: #1f77b4"/>
   </g>
   <g id="patch_79">
    <path d="M 262.527523 307.584 
L 263.278283 307.584 
L 263.278283 297.729588 
L 262.527523 297.729588 
z
" clip-path="url(#pb3c52960c2)" style="fill: #1f77b4"/>
   </g>
   <g id="patch_80">
    <path d="M 263.476741 307.584 
L 264.2275 307.584 
L 264.2275 305.812612 
L 263.476741 305.812612 
z
" clip-path="url(#pb3c52960c2)" style="fill: #1f77b4"/>
   </g>
   <g id="patch_81">
    <path d="M 264.421819 307.584 
L 265.172579 307.584 
L 265.172579 244.119762 
L 264.421819 244.119762 
z
" clip-path="url(#pb3c52960c2)" style="fill: #1f77b4"/>
   </g>
   <g id="patch_82">
    <path d="M 265.332474 307.584 
L 266.083233 307.584 
L 266.083233 290.452193 
L 265.332474 290.452193 
z
" clip-path="url(#pb3c52960c2)" style="fill: #1f77b4"/>
   </g>
   <g id="patch_83">
    <path d="M 265.366583 307.584 
L 266.117342 307.584 
L 266.117342 271.833308 
L 265.366583 271.833308 
z
" clip-path="url(#pb3c52960c2)" style="fill: #1f77b4"/>
   </g>
   <g id="patch_84">
    <path d="M 266.308755 307.584 
L 267.059514 307.584 
L 267.059514 305.465615 
L 266.308755 305.465615 
z
" clip-path="url(#pb3c52960c2)" style="fill: #1f77b4"/>
   </g>
   <g id="patch_85">
    <path d="M 270.008723 307.584 
L 270.759482 307.584 
L 270.759482 299.138278 
L 270.008723 299.138278 
z
" clip-path="url(#pb3c52960c2)" style="fill: #1f77b4"/>
   </g>
   <g id="patch_86">
    <path d="M 270.953301 307.584 
L 271.70406 307.584 
L 271.70406 296.915363 
L 270.953301 296.915363 
z
" clip-path="url(#pb3c52960c2)" style="fill: #1f77b4"/>
   </g>
   <g id="patch_87">
    <path d="M 271.900055 307.584 
L 272.650814 307.584 
L 272.650814 290.254651 
L 271.900055 290.254651 
z
" clip-path="url(#pb3c52960c2)" style="fill: #1f77b4"/>
   </g>
   <g id="patch_88">
    <path d="M 272.845721 307.584 
L 273.59648 307.584 
L 273.59648 228.827689 
L 272.845721 228.827689 
z
" clip-path="url(#pb3c52960c2)" style="fill: #1f77b4"/>
   </g>
   <g id="patch_89">
    <path d="M 273.789754 307.584 
L 274.540514 307.584 
L 274.540514 291.01683 
L 273.789754 291.01683 
z
" clip-path="url(#pb3c52960c2)" style="fill: #1f77b4"/>
   </g>
   <g id="patch_90">
    <path d="M 274.708929 307.584 
L 275.459688 307.584 
L 275.459688 305.63073 
L 274.708929 305.63073 
z
" clip-path="url(#pb3c52960c2)" style="fill: #1f77b4"/>
   </g>
   <g id="patch_91">
    <path d="M 274.737396 307.584 
L 275.488156 307.584 
L 275.488156 172.097582 
L 274.737396 172.097582 
z
" clip-path="url(#pb3c52960c2)" style="fill: #1f77b4"/>
   </g>
   <g id="patch_92">
    <path d="M 275.679683 307.584 
L 276.430442 307.584 
L 276.430442 287.945708 
L 275.679683 287.945708 
z
" clip-path="url(#pb3c52960c2)" style="fill: #1f77b4"/>
   </g>
   <g id="patch_93">
    <path d="M 276.629158 307.584 
L 277.379917 307.584 
L 277.379917 287.31868 
L 276.629158 287.31868 
z
" clip-path="url(#pb3c52960c2)" style="fill: #1f77b4"/>
   </g>
   <g id="patch_94">
    <path d="M 277.571158 307.584 
L 278.321917 307.584 
L 278.321917 304.762634 
L 277.571158 304.762634 
z
" clip-path="url(#pb3c52960c2)" style="fill: #1f77b4"/>
   </g>
   <g id="patch_95">
    <path d="M 278.485435 307.584 
L 279.236194 307.584 
L 279.236194 301.167098 
L 278.485435 301.167098 
z
" clip-path="url(#pb3c52960c2)" style="fill: #1f77b4"/>
   </g>
   <g id="patch_96">
    <path d="M 281.282854 307.584 
L 282.033613 307.584 
L 282.033613 305.87547 
L 281.282854 305.87547 
z
" clip-path="url(#pb3c52960c2)" style="fill: #1f77b4"/>
   </g>
   <g id="patch_97">
    <path d="M 282.215174 307.584 
L 282.965933 307.584 
L 282.965933 287.536737 
L 282.215174 287.536737 
z
" clip-path="url(#pb3c52960c2)" style="fill: #1f77b4"/>
   </g>
   <g id="patch_98">
    <path d="M 283.161155 307.584 
L 283.911914 307.584 
L 283.911914 279.127103 
L 283.161155 279.127103 
z
" clip-path="url(#pb3c52960c2)" style="fill: #1f77b4"/>
   </g>
   <g id="patch_99">
    <path d="M 284.10705 307.584 
L 284.857809 307.584 
L 284.857809 114.75603 
L 284.10705 114.75603 
z
" clip-path="url(#pb3c52960c2)" style="fill: #1f77b4"/>
   </g>
   <g id="patch_100">
    <path d="M 285.050253 307.584 
L 285.801012 307.584 
L 285.801012 273.250038 
L 285.050253 273.250038 
z
" clip-path="url(#pb3c52960c2)" style="fill: #1f77b4"/>
   </g>
   <g id="patch_101">
    <path d="M 285.998382 307.584 
L 286.749141 307.584 
L 286.749141 290.850779 
L 285.998382 290.850779 
z
" clip-path="url(#pb3c52960c2)" style="fill: #1f77b4"/>
   </g>
   <g id="patch_102">
    <path d="M 286.915036 307.584 
L 287.665795 307.584 
L 287.665795 304.255454 
L 286.915036 304.255454 
z
" clip-path="url(#pb3c52960c2)" style="fill: #1f77b4"/>
   </g>
   <g id="patch_103">
    <path d="M 286.944363 307.584 
L 287.695122 307.584 
L 287.695122 244.964217 
L 286.944363 244.964217 
z
" clip-path="url(#pb3c52960c2)" style="fill: #1f77b4"/>
   </g>
   <g id="patch_104">
    <path d="M 287.889083 307.584 
L 288.639842 307.584 
L 288.639842 284.268318 
L 287.889083 284.268318 
z
" clip-path="url(#pb3c52960c2)" style="fill: #1f77b4"/>
   </g>
   <g id="patch_105">
    <path d="M 288.832458 307.584 
L 289.583217 307.584 
L 289.583217 303.759078 
L 288.832458 303.759078 
z
" clip-path="url(#pb3c52960c2)" style="fill: #1f77b4"/>
   </g>
   <g id="patch_106">
    <path d="M 295.369181 307.584 
L 296.11994 307.584 
L 296.11994 301.166352 
L 295.369181 301.166352 
z
" clip-path="url(#pb3c52960c2)" style="fill: #1f77b4"/>
   </g>
   <g id="patch_107">
    <path d="M 296.31456 307.584 
L 297.065319 307.584 
L 297.065319 298.907273 
L 296.31456 298.907273 
z
" clip-path="url(#pb3c52960c2)" style="fill: #1f77b4"/>
   </g>
   <g id="patch_108">
    <path d="M 297.259997 307.584 
L 298.010756 307.584 
L 298.010756 214.970827 
L 297.259997 214.970827 
z
" clip-path="url(#pb3c52960c2)" style="fill: #1f77b4"/>
   </g>
   <g id="patch_109">
    <path d="M 298.201854 307.584 
L 298.952613 307.584 
L 298.952613 290.484743 
L 298.201854 290.484743 
z
" clip-path="url(#pb3c52960c2)" style="fill: #1f77b4"/>
   </g>
   <g id="patch_110">
    <path d="M 299.151672 307.584 
L 299.902431 307.584 
L 299.902431 54.144 
L 299.151672 54.144 
z
" clip-path="url(#pb3c52960c2)" style="fill: #1f77b4"/>
   </g>
   <g id="patch_111">
    <path d="M 300.093472 307.584 
L 300.844231 307.584 
L 300.844231 272.087081 
L 300.093472 272.087081 
z
" clip-path="url(#pb3c52960c2)" style="fill: #1f77b4"/>
   </g>
   <g id="patch_112">
    <path d="M 301.009725 307.584 
L 301.760485 307.584 
L 301.760485 296.040528 
L 301.009725 296.040528 
z
" clip-path="url(#pb3c52960c2)" style="fill: #1f77b4"/>
   </g>
   <g id="patch_113">
    <path d="M 301.043405 307.584 
L 301.794164 307.584 
L 301.794164 275.45085 
L 301.043405 275.45085 
z
" clip-path="url(#pb3c52960c2)" style="fill: #1f77b4"/>
   </g>
   <g id="patch_114">
    <path d="M 301.954504 307.584 
L 302.705263 307.584 
L 302.705263 305.502998 
L 301.954504 305.502998 
z
" clip-path="url(#pb3c52960c2)" style="fill: #1f77b4"/>
   </g>
   <g id="patch_115">
    <path d="M 301.985233 307.584 
L 302.735992 307.584 
L 302.735992 301.566988 
L 301.985233 301.566988 
z
" clip-path="url(#pb3c52960c2)" style="fill: #1f77b4"/>
   </g>
   <g id="patch_116">
    <path d="M 304.790585 307.584 
L 305.541344 307.584 
L 305.541344 305.070188 
L 304.790585 305.070188 
z
" clip-path="url(#pb3c52960c2)" style="fill: #1f77b4"/>
   </g>
   <g id="patch_117">
    <path d="M 306.628648 307.584 
L 307.379407 307.584 
L 307.379407 304.292549 
L 306.628648 304.292549 
z
" clip-path="url(#pb3c52960c2)" style="fill: #1f77b4"/>
   </g>
   <g id="patch_118">
    <path d="M 309.466276 307.584 
L 310.217035 307.584 
L 310.217035 305.661507 
L 309.466276 305.661507 
z
" clip-path="url(#pb3c52960c2)" style="fill: #1f77b4"/>
   </g>
   <g id="patch_119">
    <path d="M 310.413116 307.584 
L 311.163875 307.584 
L 311.163875 303.87904 
L 310.413116 303.87904 
z
" clip-path="url(#pb3c52960c2)" style="fill: #1f77b4"/>
   </g>
   <g id="patch_120">
    <path d="M 311.358438 307.584 
L 312.109197 307.584 
L 312.109197 303.524239 
L 311.358438 303.524239 
z
" clip-path="url(#pb3c52960c2)" style="fill: #1f77b4"/>
   </g>
   <g id="patch_121">
    <path d="M 312.303789 307.584 
L 313.054548 307.584 
L 313.054548 300.444023 
L 312.303789 300.444023 
z
" clip-path="url(#pb3c52960c2)" style="fill: #1f77b4"/>
   </g>
   <g id="patch_122">
    <path d="M 313.248137 307.584 
L 313.998896 307.584 
L 313.998896 301.41399 
L 313.248137 301.41399 
z
" clip-path="url(#pb3c52960c2)" style="fill: #1f77b4"/>
   </g>
   <g id="patch_123">
    <path d="M 314.1623 307.584 
L 314.913059 307.584 
L 314.913059 304.93058 
L 314.1623 304.93058 
z
" clip-path="url(#pb3c52960c2)" style="fill: #1f77b4"/>
   </g>
   <g id="patch_124">
    <path d="M 314.196123 307.584 
L 314.946882 307.584 
L 314.946882 203.306986 
L 314.196123 203.306986 
z
" clip-path="url(#pb3c52960c2)" style="fill: #1f77b4"/>
   </g>
   <g id="patch_125">
    <path d="M 314.230519 307.584 
L 314.981278 307.584 
L 314.981278 304.162053 
L 314.230519 304.162053 
z
" clip-path="url(#pb3c52960c2)" style="fill: #1f77b4"/>
   </g>
   <g id="patch_126">
    <path d="M 315.107823 307.584 
L 315.858582 307.584 
L 315.858582 304.002769 
L 315.107823 304.002769 
z
" clip-path="url(#pb3c52960c2)" style="fill: #1f77b4"/>
   </g>
   <g id="patch_127">
    <path d="M 315.138152 307.584 
L 315.888911 307.584 
L 315.888911 293.787392 
L 315.138152 293.787392 
z
" clip-path="url(#pb3c52960c2)" style="fill: #1f77b4"/>
   </g>
   <g id="patch_128">
    <path d="M 316.05346 307.584 
L 316.804219 307.584 
L 316.804219 290.647461 
L 316.05346 290.647461 
z
" clip-path="url(#pb3c52960c2)" style="fill: #1f77b4"/>
   </g>
   <g id="patch_129">
    <path d="M 321.67622 307.584 
L 322.426979 307.584 
L 322.426979 304.621954 
L 321.67622 304.621954 
z
" clip-path="url(#pb3c52960c2)" style="fill: #1f77b4"/>
   </g>
   <g id="patch_130">
    <path d="M 322.585285 307.584 
L 323.336044 307.584 
L 323.336044 305.696309 
L 322.585285 305.696309 
z
" clip-path="url(#pb3c52960c2)" style="fill: #1f77b4"/>
   </g>
   <g id="patch_131">
    <path d="M 322.617046 307.584 
L 323.367805 307.584 
L 323.367805 305.042793 
L 322.617046 305.042793 
z
" clip-path="url(#pb3c52960c2)" style="fill: #1f77b4"/>
   </g>
   <g id="patch_132">
    <path d="M 323.531638 307.584 
L 324.282398 307.584 
L 324.282398 260.911889 
L 323.531638 260.911889 
z
" clip-path="url(#pb3c52960c2)" style="fill: #1f77b4"/>
   </g>
   <g id="patch_133">
    <path d="M 323.566292 307.584 
L 324.317051 307.584 
L 324.317051 260.830425 
L 323.566292 260.830425 
z
" clip-path="url(#pb3c52960c2)" style="fill: #1f77b4"/>
   </g>
   <g id="patch_134">
    <path d="M 324.473037 307.584 
L 325.223796 307.584 
L 325.223796 301.784911 
L 324.473037 301.784911 
z
" clip-path="url(#pb3c52960c2)" style="fill: #1f77b4"/>
   </g>
   <g id="patch_135">
    <path d="M 324.509581 307.584 
L 325.26034 307.584 
L 325.26034 295.702093 
L 324.509581 295.702093 
z
" clip-path="url(#pb3c52960c2)" style="fill: #1f77b4"/>
   </g>
   <g id="patch_136">
    <path d="M 330.226564 307.584 
L 330.977323 307.584 
L 330.977323 305.724471 
L 330.226564 305.724471 
z
" clip-path="url(#pb3c52960c2)" style="fill: #1f77b4"/>
   </g>
   <g id="patch_137">
    <path d="M 336.718981 307.584 
L 337.46974 307.584 
L 337.46974 284.53484 
L 336.718981 284.53484 
z
" clip-path="url(#pb3c52960c2)" style="fill: #1f77b4"/>
   </g>
   <g id="patch_138">
    <path d="M 337.661497 307.584 
L 338.412256 307.584 
L 338.412256 304.821262 
L 337.661497 304.821262 
z
" clip-path="url(#pb3c52960c2)" style="fill: #1f77b4"/>
   </g>
   <g id="patch_139">
    <path d="M 338.544242 307.584 
L 339.295002 307.584 
L 339.295002 304.656452 
L 338.544242 304.656452 
z
" clip-path="url(#pb3c52960c2)" style="fill: #1f77b4"/>
   </g>
   <g id="patch_140">
    <path d="M 338.611144 307.584 
L 339.361903 307.584 
L 339.361903 301.792546 
L 338.611144 301.792546 
z
" clip-path="url(#pb3c52960c2)" style="fill: #1f77b4"/>
   </g>
   <g id="patch_141">
    <path d="M 339.488133 307.584 
L 340.238892 307.584 
L 340.238892 272.461726 
L 339.488133 272.461726 
z
" clip-path="url(#pb3c52960c2)" style="fill: #1f77b4"/>
   </g>
   <g id="patch_142">
    <path d="M 340.433827 307.584 
L 341.184586 307.584 
L 341.184586 117.665083 
L 340.433827 117.665083 
z
" clip-path="url(#pb3c52960c2)" style="fill: #1f77b4"/>
   </g>
   <g id="patch_143">
    <path d="M 340.467593 307.584 
L 341.218352 307.584 
L 341.218352 294.259096 
L 340.467593 294.259096 
z
" clip-path="url(#pb3c52960c2)" style="fill: #1f77b4"/>
   </g>
   <g id="patch_144">
    <path d="M 341.375484 307.584 
L 342.126243 307.584 
L 342.126243 274.291189 
L 341.375484 274.291189 
z
" clip-path="url(#pb3c52960c2)" style="fill: #1f77b4"/>
   </g>
   <g id="patch_145">
    <path d="M 341.412199 307.584 
L 342.162958 307.584 
L 342.162958 305.100662 
L 341.412199 305.100662 
z
" clip-path="url(#pb3c52960c2)" style="fill: #1f77b4"/>
   </g>
   <g id="patch_146">
    <path d="M 355.448493 307.584 
L 356.199252 307.584 
L 356.199252 305.116946 
L 355.448493 305.116946 
z
" clip-path="url(#pb3c52960c2)" style="fill: #1f77b4"/>
   </g>
   <g id="patch_147">
    <path d="M 355.51253 307.584 
L 356.26329 307.584 
L 356.26329 275.985355 
L 355.51253 275.985355 
z
" clip-path="url(#pb3c52960c2)" style="fill: #1f77b4"/>
   </g>
   <g id="patch_148">
    <path d="M 356.388546 307.584 
L 357.139305 307.584 
L 357.139305 301.255076 
L 356.388546 301.255076 
z
" clip-path="url(#pb3c52960c2)" style="fill: #1f77b4"/>
   </g>
   <g id="patch_149">
    <path d="M 356.45496 307.584 
L 357.205719 307.584 
L 357.205719 303.044907 
L 356.45496 303.044907 
z
" clip-path="url(#pb3c52960c2)" style="fill: #1f77b4"/>
   </g>
   <g id="patch_150">
    <path d="M 357.335443 307.584 
L 358.086202 307.584 
L 358.086202 283.59776 
L 357.335443 283.59776 
z
" clip-path="url(#pb3c52960c2)" style="fill: #1f77b4"/>
   </g>
   <g id="patch_151">
    <path d="M 358.276871 307.584 
L 359.02763 307.584 
L 359.02763 304.196153 
L 358.276871 304.196153 
z
" clip-path="url(#pb3c52960c2)" style="fill: #1f77b4"/>
   </g>
   <g id="patch_152">
    <path d="M 362.99068 307.584 
L 363.741439 307.584 
L 363.741439 296.727152 
L 362.99068 296.727152 
z
" clip-path="url(#pb3c52960c2)" style="fill: #1f77b4"/>
   </g>
   <g id="patch_153">
    <path d="M 379.892812 307.584 
L 380.643571 307.584 
L 380.643571 77.479401 
L 379.892812 77.479401 
z
" clip-path="url(#pb3c52960c2)" style="fill: #1f77b4"/>
   </g>
   <g id="patch_154">
    <path d="M 380.834554 307.584 
L 381.585313 307.584 
L 381.585313 269.151802 
L 380.834554 269.151802 
z
" clip-path="url(#pb3c52960c2)" style="fill: #1f77b4"/>
   </g>
   <g id="patch_155">
    <path d="M 395.848189 307.584 
L 396.598948 307.584 
L 396.598948 301.003055 
L 395.848189 301.003055 
z
" clip-path="url(#pb3c52960c2)" style="fill: #1f77b4"/>
   </g>
   <g id="patch_156">
    <path d="M 396.744968 307.584 
L 397.495727 307.584 
L 397.495727 304.60073 
L 396.744968 304.60073 
z
" clip-path="url(#pb3c52960c2)" style="fill: #1f77b4"/>
   </g>
   <g id="patch_157">
    <path d="M 396.794857 307.584 
L 397.545616 307.584 
L 397.545616 211.365358 
L 396.794857 211.365358 
z
" clip-path="url(#pb3c52960c2)" style="fill: #1f77b4"/>
   </g>
   <g id="patch_158">
    <path d="M 397.736514 307.584 
L 398.487273 307.584 
L 398.487273 293.709217 
L 397.736514 293.709217 
z
" clip-path="url(#pb3c52960c2)" style="fill: #1f77b4"/>
   </g>
   <g id="matplotlib.axis_1">
    <g id="xtick_1">
     <g id="line2d_1">
      <defs>
       <path id="m9e893d6872" d="M 0 0 
L 0 3.5 
" style="stroke: #000000; stroke-width: 0.8"/>
      </defs>
      <g>
       <use xlink:href="#m9e893d6872" x="74.174005" y="307.584" style="stroke: #000000; stroke-width: 0.8"/>
      </g>
     </g>
     <g id="text_1">
      <!-- 50 -->
      <g transform="translate(67.811505 322.182437) scale(0.1 -0.1)">
       <defs>
        <path id="DejaVuSans-35" d="M 691 4666 
L 3169 4666 
L 3169 4134 
L 1269 4134 
L 1269 2991 
Q 1406 3038 1543 3061 
Q 1681 3084 1819 3084 
Q 2600 3084 3056 2656 
Q 3513 2228 3513 1497 
Q 3513 744 3044 326 
Q 2575 -91 1722 -91 
Q 1428 -91 1123 -41 
Q 819 9 494 109 
L 494 744 
Q 775 591 1075 516 
Q 1375 441 1709 441 
Q 2250 441 2565 725 
Q 2881 1009 2881 1497 
Q 2881 1984 2565 2268 
Q 2250 2553 1709 2553 
Q 1456 2553 1204 2497 
Q 953 2441 691 2322 
L 691 4666 
z
" transform="scale(0.015625)"/>
        <path id="DejaVuSans-30" d="M 2034 4250 
Q 1547 4250 1301 3770 
Q 1056 3291 1056 2328 
Q 1056 1369 1301 889 
Q 1547 409 2034 409 
Q 2525 409 2770 889 
Q 3016 1369 3016 2328 
Q 3016 3291 2770 3770 
Q 2525 4250 2034 4250 
z
M 2034 4750 
Q 2819 4750 3233 4129 
Q 3647 3509 3647 2328 
Q 3647 1150 3233 529 
Q 2819 -91 2034 -91 
Q 1250 -91 836 529 
Q 422 1150 422 2328 
Q 422 3509 836 4129 
Q 1250 4750 2034 4750 
z
" transform="scale(0.015625)"/>
       </defs>
       <use xlink:href="#DejaVuSans-35"/>
       <use xlink:href="#DejaVuSans-30" x="63.623047"/>
      </g>
     </g>
    </g>
    <g id="xtick_2">
     <g id="line2d_2">
      <g>
       <use xlink:href="#m9e893d6872" x="121.096447" y="307.584" style="stroke: #000000; stroke-width: 0.8"/>
      </g>
     </g>
     <g id="text_2">
      <!-- 100 -->
      <g transform="translate(111.552697 322.182437) scale(0.1 -0.1)">
       <defs>
        <path id="DejaVuSans-31" d="M 794 531 
L 1825 531 
L 1825 4091 
L 703 3866 
L 703 4441 
L 1819 4666 
L 2450 4666 
L 2450 531 
L 3481 531 
L 3481 0 
L 794 0 
L 794 531 
z
" transform="scale(0.015625)"/>
       </defs>
       <use xlink:href="#DejaVuSans-31"/>
       <use xlink:href="#DejaVuSans-30" x="63.623047"/>
       <use xlink:href="#DejaVuSans-30" x="127.246094"/>
      </g>
     </g>
    </g>
    <g id="xtick_3">
     <g id="line2d_3">
      <g>
       <use xlink:href="#m9e893d6872" x="168.018889" y="307.584" style="stroke: #000000; stroke-width: 0.8"/>
      </g>
     </g>
     <g id="text_3">
      <!-- 150 -->
      <g transform="translate(158.475139 322.182437) scale(0.1 -0.1)">
       <use xlink:href="#DejaVuSans-31"/>
       <use xlink:href="#DejaVuSans-35" x="63.623047"/>
       <use xlink:href="#DejaVuSans-30" x="127.246094"/>
      </g>
     </g>
    </g>
    <g id="xtick_4">
     <g id="line2d_4">
      <g>
       <use xlink:href="#m9e893d6872" x="214.941331" y="307.584" style="stroke: #000000; stroke-width: 0.8"/>
      </g>
     </g>
     <g id="text_4">
      <!-- 200 -->
      <g transform="translate(205.397581 322.182437) scale(0.1 -0.1)">
       <defs>
        <path id="DejaVuSans-32" d="M 1228 531 
L 3431 531 
L 3431 0 
L 469 0 
L 469 531 
Q 828 903 1448 1529 
Q 2069 2156 2228 2338 
Q 2531 2678 2651 2914 
Q 2772 3150 2772 3378 
Q 2772 3750 2511 3984 
Q 2250 4219 1831 4219 
Q 1534 4219 1204 4116 
Q 875 4013 500 3803 
L 500 4441 
Q 881 4594 1212 4672 
Q 1544 4750 1819 4750 
Q 2544 4750 2975 4387 
Q 3406 4025 3406 3419 
Q 3406 3131 3298 2873 
Q 3191 2616 2906 2266 
Q 2828 2175 2409 1742 
Q 1991 1309 1228 531 
z
" transform="scale(0.015625)"/>
       </defs>
       <use xlink:href="#DejaVuSans-32"/>
       <use xlink:href="#DejaVuSans-30" x="63.623047"/>
       <use xlink:href="#DejaVuSans-30" x="127.246094"/>
      </g>
     </g>
    </g>
    <g id="xtick_5">
     <g id="line2d_5">
      <g>
       <use xlink:href="#m9e893d6872" x="261.863773" y="307.584" style="stroke: #000000; stroke-width: 0.8"/>
      </g>
     </g>
     <g id="text_5">
      <!-- 250 -->
      <g transform="translate(252.320023 322.182437) scale(0.1 -0.1)">
       <use xlink:href="#DejaVuSans-32"/>
       <use xlink:href="#DejaVuSans-35" x="63.623047"/>
       <use xlink:href="#DejaVuSans-30" x="127.246094"/>
      </g>
     </g>
    </g>
    <g id="xtick_6">
     <g id="line2d_6">
      <g>
       <use xlink:href="#m9e893d6872" x="308.786215" y="307.584" style="stroke: #000000; stroke-width: 0.8"/>
      </g>
     </g>
     <g id="text_6">
      <!-- 300 -->
      <g transform="translate(299.242465 322.182437) scale(0.1 -0.1)">
       <defs>
        <path id="DejaVuSans-33" d="M 2597 2516 
Q 3050 2419 3304 2112 
Q 3559 1806 3559 1356 
Q 3559 666 3084 287 
Q 2609 -91 1734 -91 
Q 1441 -91 1130 -33 
Q 819 25 488 141 
L 488 750 
Q 750 597 1062 519 
Q 1375 441 1716 441 
Q 2309 441 2620 675 
Q 2931 909 2931 1356 
Q 2931 1769 2642 2001 
Q 2353 2234 1838 2234 
L 1294 2234 
L 1294 2753 
L 1863 2753 
Q 2328 2753 2575 2939 
Q 2822 3125 2822 3475 
Q 2822 3834 2567 4026 
Q 2313 4219 1838 4219 
Q 1578 4219 1281 4162 
Q 984 4106 628 3988 
L 628 4550 
Q 988 4650 1302 4700 
Q 1616 4750 1894 4750 
Q 2613 4750 3031 4423 
Q 3450 4097 3450 3541 
Q 3450 3153 3228 2886 
Q 3006 2619 2597 2516 
z
" transform="scale(0.015625)"/>
       </defs>
       <use xlink:href="#DejaVuSans-33"/>
       <use xlink:href="#DejaVuSans-30" x="63.623047"/>
       <use xlink:href="#DejaVuSans-30" x="127.246094"/>
      </g>
     </g>
    </g>
    <g id="xtick_7">
     <g id="line2d_7">
      <g>
       <use xlink:href="#m9e893d6872" x="355.708657" y="307.584" style="stroke: #000000; stroke-width: 0.8"/>
      </g>
     </g>
     <g id="text_7">
      <!-- 350 -->
      <g transform="translate(346.164907 322.182437) scale(0.1 -0.1)">
       <use xlink:href="#DejaVuSans-33"/>
       <use xlink:href="#DejaVuSans-35" x="63.623047"/>
       <use xlink:href="#DejaVuSans-30" x="127.246094"/>
      </g>
     </g>
    </g>
    <g id="xtick_8">
     <g id="line2d_8">
      <g>
       <use xlink:href="#m9e893d6872" x="402.631099" y="307.584" style="stroke: #000000; stroke-width: 0.8"/>
      </g>
     </g>
     <g id="text_8">
      <!-- 400 -->
      <g transform="translate(393.087349 322.182437) scale(0.1 -0.1)">
       <defs>
        <path id="DejaVuSans-34" d="M 2419 4116 
L 825 1625 
L 2419 1625 
L 2419 4116 
z
M 2253 4666 
L 3047 4666 
L 3047 1625 
L 3713 1625 
L 3713 1100 
L 3047 1100 
L 3047 0 
L 2419 0 
L 2419 1100 
L 313 1100 
L 313 1709 
L 2253 4666 
z
" transform="scale(0.015625)"/>
       </defs>
       <use xlink:href="#DejaVuSans-34"/>
       <use xlink:href="#DejaVuSans-30" x="63.623047"/>
       <use xlink:href="#DejaVuSans-30" x="127.246094"/>
      </g>
     </g>
    </g>
    <g id="text_9">
     <!-- ${m/z}$ -->
     <g transform="translate(226.96 335.860562) scale(0.1 -0.1)">
      <defs>
       <path id="DejaVuSans-Oblique-6d" d="M 5747 2113 
L 5338 0 
L 4763 0 
L 5166 2094 
Q 5191 2228 5203 2325 
Q 5216 2422 5216 2491 
Q 5216 2772 5059 2928 
Q 4903 3084 4622 3084 
Q 4203 3084 3875 2770 
Q 3547 2456 3450 1953 
L 3066 0 
L 2491 0 
L 2900 2094 
Q 2925 2209 2937 2307 
Q 2950 2406 2950 2484 
Q 2950 2769 2794 2926 
Q 2638 3084 2363 3084 
Q 1938 3084 1609 2770 
Q 1281 2456 1184 1953 
L 800 0 
L 225 0 
L 909 3500 
L 1484 3500 
L 1375 2956 
Q 1609 3263 1923 3423 
Q 2238 3584 2597 3584 
Q 2978 3584 3223 3384 
Q 3469 3184 3519 2828 
Q 3781 3197 4126 3390 
Q 4472 3584 4856 3584 
Q 5306 3584 5551 3325 
Q 5797 3066 5797 2591 
Q 5797 2488 5784 2364 
Q 5772 2241 5747 2113 
z
" transform="scale(0.015625)"/>
       <path id="DejaVuSans-2f" d="M 1625 4666 
L 2156 4666 
L 531 -594 
L 0 -594 
L 1625 4666 
z
" transform="scale(0.015625)"/>
       <path id="DejaVuSans-Oblique-7a" d="M 744 3500 
L 3475 3500 
L 3372 2975 
L 738 459 
L 2913 459 
L 2822 0 
L -19 0 
L 84 525 
L 2719 3041 
L 653 3041 
L 744 3500 
z
" transform="scale(0.015625)"/>
      </defs>
      <use xlink:href="#DejaVuSans-Oblique-6d" transform="translate(0 0.09375)"/>
      <use xlink:href="#DejaVuSans-2f" transform="translate(97.412109 0.09375)"/>
      <use xlink:href="#DejaVuSans-Oblique-7a" transform="translate(131.103516 0.09375)"/>
     </g>
    </g>
   </g>
   <g id="matplotlib.axis_2">
    <g id="ytick_1">
     <g id="line2d_9">
      <defs>
       <path id="me8b66ee4cc" d="M 0 0 
L -3.5 0 
" style="stroke: #000000; stroke-width: 0.8"/>
      </defs>
      <g>
       <use xlink:href="#me8b66ee4cc" x="57.6" y="307.584" style="stroke: #000000; stroke-width: 0.8"/>
      </g>
     </g>
     <g id="text_10">
      <!-- 0 -->
      <g transform="translate(44.2375 311.383219) scale(0.1 -0.1)">
       <use xlink:href="#DejaVuSans-30"/>
      </g>
     </g>
    </g>
    <g id="ytick_2">
     <g id="line2d_10">
      <g>
       <use xlink:href="#me8b66ee4cc" x="57.6" y="275.746491" style="stroke: #000000; stroke-width: 0.8"/>
      </g>
     </g>
     <g id="text_11">
      <!-- 100000 -->
      <g transform="translate(12.425 279.54571) scale(0.1 -0.1)">
       <use xlink:href="#DejaVuSans-31"/>
       <use xlink:href="#DejaVuSans-30" x="63.623047"/>
       <use xlink:href="#DejaVuSans-30" x="127.246094"/>
       <use xlink:href="#DejaVuSans-30" x="190.869141"/>
       <use xlink:href="#DejaVuSans-30" x="254.492188"/>
       <use xlink:href="#DejaVuSans-30" x="318.115234"/>
      </g>
     </g>
    </g>
    <g id="ytick_3">
     <g id="line2d_11">
      <g>
       <use xlink:href="#me8b66ee4cc" x="57.6" y="243.908983" style="stroke: #000000; stroke-width: 0.8"/>
      </g>
     </g>
     <g id="text_12">
      <!-- 200000 -->
      <g transform="translate(12.425 247.708202) scale(0.1 -0.1)">
       <use xlink:href="#DejaVuSans-32"/>
       <use xlink:href="#DejaVuSans-30" x="63.623047"/>
       <use xlink:href="#DejaVuSans-30" x="127.246094"/>
       <use xlink:href="#DejaVuSans-30" x="190.869141"/>
       <use xlink:href="#DejaVuSans-30" x="254.492188"/>
       <use xlink:href="#DejaVuSans-30" x="318.115234"/>
      </g>
     </g>
    </g>
    <g id="ytick_4">
     <g id="line2d_12">
      <g>
       <use xlink:href="#me8b66ee4cc" x="57.6" y="212.071474" style="stroke: #000000; stroke-width: 0.8"/>
      </g>
     </g>
     <g id="text_13">
      <!-- 300000 -->
      <g transform="translate(12.425 215.870693) scale(0.1 -0.1)">
       <use xlink:href="#DejaVuSans-33"/>
       <use xlink:href="#DejaVuSans-30" x="63.623047"/>
       <use xlink:href="#DejaVuSans-30" x="127.246094"/>
       <use xlink:href="#DejaVuSans-30" x="190.869141"/>
       <use xlink:href="#DejaVuSans-30" x="254.492188"/>
       <use xlink:href="#DejaVuSans-30" x="318.115234"/>
      </g>
     </g>
    </g>
    <g id="ytick_5">
     <g id="line2d_13">
      <g>
       <use xlink:href="#me8b66ee4cc" x="57.6" y="180.233966" style="stroke: #000000; stroke-width: 0.8"/>
      </g>
     </g>
     <g id="text_14">
      <!-- 400000 -->
      <g transform="translate(12.425 184.033184) scale(0.1 -0.1)">
       <use xlink:href="#DejaVuSans-34"/>
       <use xlink:href="#DejaVuSans-30" x="63.623047"/>
       <use xlink:href="#DejaVuSans-30" x="127.246094"/>
       <use xlink:href="#DejaVuSans-30" x="190.869141"/>
       <use xlink:href="#DejaVuSans-30" x="254.492188"/>
       <use xlink:href="#DejaVuSans-30" x="318.115234"/>
      </g>
     </g>
    </g>
    <g id="ytick_6">
     <g id="line2d_14">
      <g>
       <use xlink:href="#me8b66ee4cc" x="57.6" y="148.396457" style="stroke: #000000; stroke-width: 0.8"/>
      </g>
     </g>
     <g id="text_15">
      <!-- 500000 -->
      <g transform="translate(12.425 152.195676) scale(0.1 -0.1)">
       <use xlink:href="#DejaVuSans-35"/>
       <use xlink:href="#DejaVuSans-30" x="63.623047"/>
       <use xlink:href="#DejaVuSans-30" x="127.246094"/>
       <use xlink:href="#DejaVuSans-30" x="190.869141"/>
       <use xlink:href="#DejaVuSans-30" x="254.492188"/>
       <use xlink:href="#DejaVuSans-30" x="318.115234"/>
      </g>
     </g>
    </g>
    <g id="ytick_7">
     <g id="line2d_15">
      <g>
       <use xlink:href="#me8b66ee4cc" x="57.6" y="116.558948" style="stroke: #000000; stroke-width: 0.8"/>
      </g>
     </g>
     <g id="text_16">
      <!-- 600000 -->
      <g transform="translate(12.425 120.358167) scale(0.1 -0.1)">
       <defs>
        <path id="DejaVuSans-36" d="M 2113 2584 
Q 1688 2584 1439 2293 
Q 1191 2003 1191 1497 
Q 1191 994 1439 701 
Q 1688 409 2113 409 
Q 2538 409 2786 701 
Q 3034 994 3034 1497 
Q 3034 2003 2786 2293 
Q 2538 2584 2113 2584 
z
M 3366 4563 
L 3366 3988 
Q 3128 4100 2886 4159 
Q 2644 4219 2406 4219 
Q 1781 4219 1451 3797 
Q 1122 3375 1075 2522 
Q 1259 2794 1537 2939 
Q 1816 3084 2150 3084 
Q 2853 3084 3261 2657 
Q 3669 2231 3669 1497 
Q 3669 778 3244 343 
Q 2819 -91 2113 -91 
Q 1303 -91 875 529 
Q 447 1150 447 2328 
Q 447 3434 972 4092 
Q 1497 4750 2381 4750 
Q 2619 4750 2861 4703 
Q 3103 4656 3366 4563 
z
" transform="scale(0.015625)"/>
       </defs>
       <use xlink:href="#DejaVuSans-36"/>
       <use xlink:href="#DejaVuSans-30" x="63.623047"/>
       <use xlink:href="#DejaVuSans-30" x="127.246094"/>
       <use xlink:href="#DejaVuSans-30" x="190.869141"/>
       <use xlink:href="#DejaVuSans-30" x="254.492188"/>
       <use xlink:href="#DejaVuSans-30" x="318.115234"/>
      </g>
     </g>
    </g>
    <g id="ytick_8">
     <g id="line2d_16">
      <g>
       <use xlink:href="#me8b66ee4cc" x="57.6" y="84.72144" style="stroke: #000000; stroke-width: 0.8"/>
      </g>
     </g>
     <g id="text_17">
      <!-- 700000 -->
      <g transform="translate(12.425 88.520658) scale(0.1 -0.1)">
       <defs>
        <path id="DejaVuSans-37" d="M 525 4666 
L 3525 4666 
L 3525 4397 
L 1831 0 
L 1172 0 
L 2766 4134 
L 525 4134 
L 525 4666 
z
" transform="scale(0.015625)"/>
       </defs>
       <use xlink:href="#DejaVuSans-37"/>
       <use xlink:href="#DejaVuSans-30" x="63.623047"/>
       <use xlink:href="#DejaVuSans-30" x="127.246094"/>
       <use xlink:href="#DejaVuSans-30" x="190.869141"/>
       <use xlink:href="#DejaVuSans-30" x="254.492188"/>
       <use xlink:href="#DejaVuSans-30" x="318.115234"/>
      </g>
     </g>
    </g>
    <g id="ytick_9">
     <g id="line2d_17">
      <g>
       <use xlink:href="#me8b66ee4cc" x="57.6" y="52.883931" style="stroke: #000000; stroke-width: 0.8"/>
      </g>
     </g>
     <g id="text_18">
      <!-- 800000 -->
      <g transform="translate(12.425 56.68315) scale(0.1 -0.1)">
       <defs>
        <path id="DejaVuSans-38" d="M 2034 2216 
Q 1584 2216 1326 1975 
Q 1069 1734 1069 1313 
Q 1069 891 1326 650 
Q 1584 409 2034 409 
Q 2484 409 2743 651 
Q 3003 894 3003 1313 
Q 3003 1734 2745 1975 
Q 2488 2216 2034 2216 
z
M 1403 2484 
Q 997 2584 770 2862 
Q 544 3141 544 3541 
Q 544 4100 942 4425 
Q 1341 4750 2034 4750 
Q 2731 4750 3128 4425 
Q 3525 4100 3525 3541 
Q 3525 3141 3298 2862 
Q 3072 2584 2669 2484 
Q 3125 2378 3379 2068 
Q 3634 1759 3634 1313 
Q 3634 634 3220 271 
Q 2806 -91 2034 -91 
Q 1263 -91 848 271 
Q 434 634 434 1313 
Q 434 1759 690 2068 
Q 947 2378 1403 2484 
z
M 1172 3481 
Q 1172 3119 1398 2916 
Q 1625 2713 2034 2713 
Q 2441 2713 2670 2916 
Q 2900 3119 2900 3481 
Q 2900 3844 2670 4047 
Q 2441 4250 2034 4250 
Q 1625 4250 1398 4047 
Q 1172 3844 1172 3481 
z
" transform="scale(0.015625)"/>
       </defs>
       <use xlink:href="#DejaVuSans-38"/>
       <use xlink:href="#DejaVuSans-30" x="63.623047"/>
       <use xlink:href="#DejaVuSans-30" x="127.246094"/>
       <use xlink:href="#DejaVuSans-30" x="190.869141"/>
       <use xlink:href="#DejaVuSans-30" x="254.492188"/>
       <use xlink:href="#DejaVuSans-30" x="318.115234"/>
      </g>
     </g>
    </g>
    <g id="text_19">
     <!-- intensities -->
     <g transform="translate(6.345312 200.3155) rotate(-90) scale(0.1 -0.1)">
      <defs>
       <path id="DejaVuSans-69" d="M 603 3500 
L 1178 3500 
L 1178 0 
L 603 0 
L 603 3500 
z
M 603 4863 
L 1178 4863 
L 1178 4134 
L 603 4134 
L 603 4863 
z
" transform="scale(0.015625)"/>
       <path id="DejaVuSans-6e" d="M 3513 2113 
L 3513 0 
L 2938 0 
L 2938 2094 
Q 2938 2591 2744 2837 
Q 2550 3084 2163 3084 
Q 1697 3084 1428 2787 
Q 1159 2491 1159 1978 
L 1159 0 
L 581 0 
L 581 3500 
L 1159 3500 
L 1159 2956 
Q 1366 3272 1645 3428 
Q 1925 3584 2291 3584 
Q 2894 3584 3203 3211 
Q 3513 2838 3513 2113 
z
" transform="scale(0.015625)"/>
       <path id="DejaVuSans-74" d="M 1172 4494 
L 1172 3500 
L 2356 3500 
L 2356 3053 
L 1172 3053 
L 1172 1153 
Q 1172 725 1289 603 
Q 1406 481 1766 481 
L 2356 481 
L 2356 0 
L 1766 0 
Q 1100 0 847 248 
Q 594 497 594 1153 
L 594 3053 
L 172 3053 
L 172 3500 
L 594 3500 
L 594 4494 
L 1172 4494 
z
" transform="scale(0.015625)"/>
       <path id="DejaVuSans-65" d="M 3597 1894 
L 3597 1613 
L 953 1613 
Q 991 1019 1311 708 
Q 1631 397 2203 397 
Q 2534 397 2845 478 
Q 3156 559 3463 722 
L 3463 178 
Q 3153 47 2828 -22 
Q 2503 -91 2169 -91 
Q 1331 -91 842 396 
Q 353 884 353 1716 
Q 353 2575 817 3079 
Q 1281 3584 2069 3584 
Q 2775 3584 3186 3129 
Q 3597 2675 3597 1894 
z
M 3022 2063 
Q 3016 2534 2758 2815 
Q 2500 3097 2075 3097 
Q 1594 3097 1305 2825 
Q 1016 2553 972 2059 
L 3022 2063 
z
" transform="scale(0.015625)"/>
       <path id="DejaVuSans-73" d="M 2834 3397 
L 2834 2853 
Q 2591 2978 2328 3040 
Q 2066 3103 1784 3103 
Q 1356 3103 1142 2972 
Q 928 2841 928 2578 
Q 928 2378 1081 2264 
Q 1234 2150 1697 2047 
L 1894 2003 
Q 2506 1872 2764 1633 
Q 3022 1394 3022 966 
Q 3022 478 2636 193 
Q 2250 -91 1575 -91 
Q 1294 -91 989 -36 
Q 684 19 347 128 
L 347 722 
Q 666 556 975 473 
Q 1284 391 1588 391 
Q 1994 391 2212 530 
Q 2431 669 2431 922 
Q 2431 1156 2273 1281 
Q 2116 1406 1581 1522 
L 1381 1569 
Q 847 1681 609 1914 
Q 372 2147 372 2553 
Q 372 3047 722 3315 
Q 1072 3584 1716 3584 
Q 2034 3584 2315 3537 
Q 2597 3491 2834 3397 
z
" transform="scale(0.015625)"/>
      </defs>
      <use xlink:href="#DejaVuSans-69"/>
      <use xlink:href="#DejaVuSans-6e" x="27.783203"/>
      <use xlink:href="#DejaVuSans-74" x="91.162109"/>
      <use xlink:href="#DejaVuSans-65" x="130.371094"/>
      <use xlink:href="#DejaVuSans-6e" x="191.894531"/>
      <use xlink:href="#DejaVuSans-73" x="255.273438"/>
      <use xlink:href="#DejaVuSans-69" x="307.373047"/>
      <use xlink:href="#DejaVuSans-74" x="335.15625"/>
      <use xlink:href="#DejaVuSans-69" x="374.365234"/>
      <use xlink:href="#DejaVuSans-65" x="402.148438"/>
      <use xlink:href="#DejaVuSans-73" x="463.671875"/>
     </g>
    </g>
   </g>
   <g id="patch_159">
    <path d="M 57.6 307.584 
L 57.6 41.472 
" style="fill: none; stroke: #000000; stroke-width: 0.8; stroke-linejoin: miter; stroke-linecap: square"/>
   </g>
   <g id="patch_160">
    <path d="M 414.72 307.584 
L 414.72 41.472 
" style="fill: none; stroke: #000000; stroke-width: 0.8; stroke-linejoin: miter; stroke-linecap: square"/>
   </g>
   <g id="patch_161">
    <path d="M 57.6 307.584 
L 414.72 307.584 
" style="fill: none; stroke: #000000; stroke-width: 0.8; stroke-linejoin: miter; stroke-linecap: square"/>
   </g>
   <g id="patch_162">
    <path d="M 57.6 41.472 
L 414.72 41.472 
" style="fill: none; stroke: #000000; stroke-width: 0.8; stroke-linejoin: miter; stroke-linecap: square"/>
   </g>
   <g id="text_20">
    <!-- 71.0135 -->
    <g transform="translate(87.24818 204.9639) scale(0.06 -0.06)">
     <defs>
      <path id="DejaVuSans-2e" d="M 684 794 
L 1344 794 
L 1344 0 
L 684 0 
L 684 794 
z
" transform="scale(0.015625)"/>
     </defs>
     <use xlink:href="#DejaVuSans-37"/>
     <use xlink:href="#DejaVuSans-31" x="63.623047"/>
     <use xlink:href="#DejaVuSans-2e" x="127.246094"/>
     <use xlink:href="#DejaVuSans-30" x="159.033203"/>
     <use xlink:href="#DejaVuSans-31" x="222.65625"/>
     <use xlink:href="#DejaVuSans-33" x="286.279297"/>
     <use xlink:href="#DejaVuSans-35" x="349.902344"/>
    </g>
   </g>
   <g id="text_21">
    <!-- 81.0341 -->
    <g transform="translate(96.652021 250.118641) scale(0.06 -0.06)">
     <use xlink:href="#DejaVuSans-38"/>
     <use xlink:href="#DejaVuSans-31" x="63.623047"/>
     <use xlink:href="#DejaVuSans-2e" x="127.246094"/>
     <use xlink:href="#DejaVuSans-30" x="159.033203"/>
     <use xlink:href="#DejaVuSans-33" x="222.65625"/>
     <use xlink:href="#DejaVuSans-34" x="286.279297"/>
     <use xlink:href="#DejaVuSans-31" x="349.902344"/>
    </g>
   </g>
   <g id="text_22">
    <!-- 89.0239 -->
    <g transform="translate(104.149989 229.902757) scale(0.06 -0.06)">
     <defs>
      <path id="DejaVuSans-39" d="M 703 97 
L 703 672 
Q 941 559 1184 500 
Q 1428 441 1663 441 
Q 2288 441 2617 861 
Q 2947 1281 2994 2138 
Q 2813 1869 2534 1725 
Q 2256 1581 1919 1581 
Q 1219 1581 811 2004 
Q 403 2428 403 3163 
Q 403 3881 828 4315 
Q 1253 4750 1959 4750 
Q 2769 4750 3195 4129 
Q 3622 3509 3622 2328 
Q 3622 1225 3098 567 
Q 2575 -91 1691 -91 
Q 1453 -91 1209 -44 
Q 966 3 703 97 
z
M 1959 2075 
Q 2384 2075 2632 2365 
Q 2881 2656 2881 3163 
Q 2881 3666 2632 3958 
Q 2384 4250 1959 4250 
Q 1534 4250 1286 3958 
Q 1038 3666 1038 3163 
Q 1038 2656 1286 2365 
Q 1534 2075 1959 2075 
z
" transform="scale(0.015625)"/>
     </defs>
     <use xlink:href="#DejaVuSans-38"/>
     <use xlink:href="#DejaVuSans-39" x="63.623047"/>
     <use xlink:href="#DejaVuSans-2e" x="127.246094"/>
     <use xlink:href="#DejaVuSans-30" x="159.033203"/>
     <use xlink:href="#DejaVuSans-32" x="222.65625"/>
     <use xlink:href="#DejaVuSans-33" x="286.279297"/>
     <use xlink:href="#DejaVuSans-39" x="349.902344"/>
    </g>
   </g>
   <g id="text_23">
    <!-- 211.0789 -->
    <g transform="translate(218.223642 255.131124) scale(0.06 -0.06)">
     <use xlink:href="#DejaVuSans-32"/>
     <use xlink:href="#DejaVuSans-31" x="63.623047"/>
     <use xlink:href="#DejaVuSans-31" x="127.246094"/>
     <use xlink:href="#DejaVuSans-2e" x="190.869141"/>
     <use xlink:href="#DejaVuSans-30" x="222.65625"/>
     <use xlink:href="#DejaVuSans-37" x="286.279297"/>
     <use xlink:href="#DejaVuSans-38" x="349.902344"/>
     <use xlink:href="#DejaVuSans-39" x="413.525391"/>
    </g>
   </g>
   <g id="text_24">
    <!-- 212.0865 -->
    <g transform="translate(222.049236 284.530096) scale(0.06 -0.06)">
     <use xlink:href="#DejaVuSans-32"/>
     <use xlink:href="#DejaVuSans-31" x="63.623047"/>
     <use xlink:href="#DejaVuSans-32" x="127.246094"/>
     <use xlink:href="#DejaVuSans-2e" x="190.869141"/>
     <use xlink:href="#DejaVuSans-30" x="222.65625"/>
     <use xlink:href="#DejaVuSans-38" x="286.279297"/>
     <use xlink:href="#DejaVuSans-36" x="349.902344"/>
     <use xlink:href="#DejaVuSans-35" x="413.525391"/>
    </g>
   </g>
   <g id="text_25">
    <!-- 224.0866 -->
    <g transform="translate(210.270679 275.640247) scale(0.06 -0.06)">
     <use xlink:href="#DejaVuSans-32"/>
     <use xlink:href="#DejaVuSans-32" x="63.623047"/>
     <use xlink:href="#DejaVuSans-34" x="127.246094"/>
     <use xlink:href="#DejaVuSans-2e" x="190.869141"/>
     <use xlink:href="#DejaVuSans-30" x="222.65625"/>
     <use xlink:href="#DejaVuSans-38" x="286.279297"/>
     <use xlink:href="#DejaVuSans-36" x="349.902344"/>
     <use xlink:href="#DejaVuSans-36" x="413.525391"/>
    </g>
   </g>
   <g id="text_26">
    <!-- 235.0789 -->
    <g transform="translate(240.746428 227.499235) scale(0.06 -0.06)">
     <use xlink:href="#DejaVuSans-32"/>
     <use xlink:href="#DejaVuSans-33" x="63.623047"/>
     <use xlink:href="#DejaVuSans-35" x="127.246094"/>
     <use xlink:href="#DejaVuSans-2e" x="190.869141"/>
     <use xlink:href="#DejaVuSans-30" x="222.65625"/>
     <use xlink:href="#DejaVuSans-37" x="286.279297"/>
     <use xlink:href="#DejaVuSans-38" x="349.902344"/>
     <use xlink:href="#DejaVuSans-39" x="413.525391"/>
    </g>
   </g>
   <g id="text_27">
    <!-- 236.0861 -->
    <g transform="translate(222.251579 261.250508) scale(0.06 -0.06)">
     <use xlink:href="#DejaVuSans-32"/>
     <use xlink:href="#DejaVuSans-33" x="63.623047"/>
     <use xlink:href="#DejaVuSans-36" x="127.246094"/>
     <use xlink:href="#DejaVuSans-2e" x="190.869141"/>
     <use xlink:href="#DejaVuSans-30" x="222.65625"/>
     <use xlink:href="#DejaVuSans-38" x="286.279297"/>
     <use xlink:href="#DejaVuSans-36" x="349.902344"/>
     <use xlink:href="#DejaVuSans-31" x="413.525391"/>
    </g>
   </g>
   <g id="text_28">
    <!-- 248.0867 -->
    <g transform="translate(252.953581 101.677226) scale(0.06 -0.06)">
     <use xlink:href="#DejaVuSans-32"/>
     <use xlink:href="#DejaVuSans-34" x="63.623047"/>
     <use xlink:href="#DejaVuSans-38" x="127.246094"/>
     <use xlink:href="#DejaVuSans-2e" x="190.869141"/>
     <use xlink:href="#DejaVuSans-30" x="222.65625"/>
     <use xlink:href="#DejaVuSans-38" x="286.279297"/>
     <use xlink:href="#DejaVuSans-36" x="349.902344"/>
     <use xlink:href="#DejaVuSans-37" x="413.525391"/>
    </g>
   </g>
   <g id="text_29">
    <!-- 249.0926 -->
    <g transform="translate(237.337514 270.702003) scale(0.06 -0.06)">
     <use xlink:href="#DejaVuSans-32"/>
     <use xlink:href="#DejaVuSans-34" x="63.623047"/>
     <use xlink:href="#DejaVuSans-39" x="127.246094"/>
     <use xlink:href="#DejaVuSans-2e" x="190.869141"/>
     <use xlink:href="#DejaVuSans-30" x="222.65625"/>
     <use xlink:href="#DejaVuSans-39" x="286.279297"/>
     <use xlink:href="#DejaVuSans-32" x="349.902344"/>
     <use xlink:href="#DejaVuSans-36" x="413.525391"/>
    </g>
   </g>
   <g id="text_30">
    <!-- 250.1023 -->
    <g transform="translate(254.84507 234.123347) scale(0.06 -0.06)">
     <use xlink:href="#DejaVuSans-32"/>
     <use xlink:href="#DejaVuSans-35" x="63.623047"/>
     <use xlink:href="#DejaVuSans-30" x="127.246094"/>
     <use xlink:href="#DejaVuSans-2e" x="190.869141"/>
     <use xlink:href="#DejaVuSans-31" x="222.65625"/>
     <use xlink:href="#DejaVuSans-30" x="286.279297"/>
     <use xlink:href="#DejaVuSans-32" x="349.902344"/>
     <use xlink:href="#DejaVuSans-33" x="413.525391"/>
    </g>
   </g>
   <g id="text_31">
    <!-- 253.1258 -->
    <g transform="translate(263.442512 242.535387) scale(0.06 -0.06)">
     <use xlink:href="#DejaVuSans-32"/>
     <use xlink:href="#DejaVuSans-35" x="63.623047"/>
     <use xlink:href="#DejaVuSans-33" x="127.246094"/>
     <use xlink:href="#DejaVuSans-2e" x="190.869141"/>
     <use xlink:href="#DejaVuSans-31" x="222.65625"/>
     <use xlink:href="#DejaVuSans-32" x="286.279297"/>
     <use xlink:href="#DejaVuSans-35" x="349.902344"/>
     <use xlink:href="#DejaVuSans-38" x="413.525391"/>
    </g>
   </g>
   <g id="text_32">
    <!-- 254.1326 -->
    <g transform="translate(259.347275 277.448933) scale(0.06 -0.06)">
     <use xlink:href="#DejaVuSans-32"/>
     <use xlink:href="#DejaVuSans-35" x="63.623047"/>
     <use xlink:href="#DejaVuSans-34" x="127.246094"/>
     <use xlink:href="#DejaVuSans-2e" x="190.869141"/>
     <use xlink:href="#DejaVuSans-31" x="222.65625"/>
     <use xlink:href="#DejaVuSans-33" x="286.279297"/>
     <use xlink:href="#DejaVuSans-32" x="349.902344"/>
     <use xlink:href="#DejaVuSans-36" x="413.525391"/>
    </g>
   </g>
   <g id="text_33">
    <!-- 262.1022 -->
    <g transform="translate(268.986413 224.363314) scale(0.06 -0.06)">
     <use xlink:href="#DejaVuSans-32"/>
     <use xlink:href="#DejaVuSans-36" x="63.623047"/>
     <use xlink:href="#DejaVuSans-32" x="127.246094"/>
     <use xlink:href="#DejaVuSans-2e" x="190.869141"/>
     <use xlink:href="#DejaVuSans-31" x="222.65625"/>
     <use xlink:href="#DejaVuSans-30" x="286.279297"/>
     <use xlink:href="#DejaVuSans-32" x="349.902344"/>
     <use xlink:href="#DejaVuSans-32" x="413.525391"/>
    </g>
   </g>
   <g id="text_34">
    <!-- 264.118 -->
    <g transform="translate(268.466839 168.893207) scale(0.06 -0.06)">
     <use xlink:href="#DejaVuSans-32"/>
     <use xlink:href="#DejaVuSans-36" x="63.623047"/>
     <use xlink:href="#DejaVuSans-34" x="127.246094"/>
     <use xlink:href="#DejaVuSans-2e" x="190.869141"/>
     <use xlink:href="#DejaVuSans-31" x="222.65625"/>
     <use xlink:href="#DejaVuSans-31" x="286.279297"/>
     <use xlink:href="#DejaVuSans-38" x="349.902344"/>
    </g>
   </g>
   <g id="text_35">
    <!-- 273.0942 -->
    <g transform="translate(287.941847 284.022728) scale(0.06 -0.06)">
     <use xlink:href="#DejaVuSans-32"/>
     <use xlink:href="#DejaVuSans-37" x="63.623047"/>
     <use xlink:href="#DejaVuSans-33" x="127.246094"/>
     <use xlink:href="#DejaVuSans-2e" x="190.869141"/>
     <use xlink:href="#DejaVuSans-30" x="222.65625"/>
     <use xlink:href="#DejaVuSans-39" x="286.279297"/>
     <use xlink:href="#DejaVuSans-34" x="349.902344"/>
     <use xlink:href="#DejaVuSans-32" x="413.525391"/>
    </g>
   </g>
   <g id="text_36">
    <!-- 274.1022 -->
    <g transform="translate(277.367742 113.158869) scale(0.06 -0.06)">
     <use xlink:href="#DejaVuSans-32"/>
     <use xlink:href="#DejaVuSans-37" x="63.623047"/>
     <use xlink:href="#DejaVuSans-34" x="127.246094"/>
     <use xlink:href="#DejaVuSans-2e" x="190.869141"/>
     <use xlink:href="#DejaVuSans-31" x="222.65625"/>
     <use xlink:href="#DejaVuSans-30" x="286.279297"/>
     <use xlink:href="#DejaVuSans-32" x="349.902344"/>
     <use xlink:href="#DejaVuSans-32" x="413.525391"/>
    </g>
   </g>
   <g id="text_37">
    <!-- 275.1072 -->
    <g transform="translate(278.310945 269.882379) scale(0.06 -0.06)">
     <use xlink:href="#DejaVuSans-32"/>
     <use xlink:href="#DejaVuSans-37" x="63.623047"/>
     <use xlink:href="#DejaVuSans-35" x="127.246094"/>
     <use xlink:href="#DejaVuSans-2e" x="190.869141"/>
     <use xlink:href="#DejaVuSans-31" x="222.65625"/>
     <use xlink:href="#DejaVuSans-30" x="286.279297"/>
     <use xlink:href="#DejaVuSans-37" x="349.902344"/>
     <use xlink:href="#DejaVuSans-32" x="413.525391"/>
    </g>
   </g>
   <g id="text_38">
    <!-- 277.1256 -->
    <g transform="translate(280.205055 249.859842) scale(0.06 -0.06)">
     <use xlink:href="#DejaVuSans-32"/>
     <use xlink:href="#DejaVuSans-37" x="63.623047"/>
     <use xlink:href="#DejaVuSans-37" x="127.246094"/>
     <use xlink:href="#DejaVuSans-2e" x="190.869141"/>
     <use xlink:href="#DejaVuSans-31" x="222.65625"/>
     <use xlink:href="#DejaVuSans-32" x="286.279297"/>
     <use xlink:href="#DejaVuSans-35" x="349.902344"/>
     <use xlink:href="#DejaVuSans-36" x="413.525391"/>
    </g>
   </g>
   <g id="text_39">
    <!-- 288.1178 -->
    <g transform="translate(271.080689 213.386452) scale(0.06 -0.06)">
     <use xlink:href="#DejaVuSans-32"/>
     <use xlink:href="#DejaVuSans-38" x="63.623047"/>
     <use xlink:href="#DejaVuSans-38" x="127.246094"/>
     <use xlink:href="#DejaVuSans-2e" x="190.869141"/>
     <use xlink:href="#DejaVuSans-31" x="222.65625"/>
     <use xlink:href="#DejaVuSans-31" x="286.279297"/>
     <use xlink:href="#DejaVuSans-37" x="349.902344"/>
     <use xlink:href="#DejaVuSans-38" x="413.525391"/>
    </g>
   </g>
   <g id="text_40">
    <!-- 290.1335 -->
    <g transform="translate(292.412364 50.939625) scale(0.06 -0.06)">
     <use xlink:href="#DejaVuSans-32"/>
     <use xlink:href="#DejaVuSans-39" x="63.623047"/>
     <use xlink:href="#DejaVuSans-30" x="127.246094"/>
     <use xlink:href="#DejaVuSans-2e" x="190.869141"/>
     <use xlink:href="#DejaVuSans-31" x="222.65625"/>
     <use xlink:href="#DejaVuSans-33" x="286.279297"/>
     <use xlink:href="#DejaVuSans-33" x="349.902344"/>
     <use xlink:href="#DejaVuSans-35" x="413.525391"/>
    </g>
   </g>
   <g id="text_41">
    <!-- 291.1371 -->
    <g transform="translate(304.154164 266.902706) scale(0.06 -0.06)">
     <use xlink:href="#DejaVuSans-32"/>
     <use xlink:href="#DejaVuSans-39" x="63.623047"/>
     <use xlink:href="#DejaVuSans-31" x="127.246094"/>
     <use xlink:href="#DejaVuSans-2e" x="190.869141"/>
     <use xlink:href="#DejaVuSans-31" x="222.65625"/>
     <use xlink:href="#DejaVuSans-33" x="286.279297"/>
     <use xlink:href="#DejaVuSans-37" x="349.902344"/>
     <use xlink:href="#DejaVuSans-31" x="413.525391"/>
    </g>
   </g>
   <g id="text_42">
    <!-- 292.1494 -->
    <g transform="translate(302.944097 276.746475) scale(0.06 -0.06)">
     <use xlink:href="#DejaVuSans-32"/>
     <use xlink:href="#DejaVuSans-39" x="63.623047"/>
     <use xlink:href="#DejaVuSans-32" x="127.246094"/>
     <use xlink:href="#DejaVuSans-2e" x="190.869141"/>
     <use xlink:href="#DejaVuSans-31" x="222.65625"/>
     <use xlink:href="#DejaVuSans-34" x="286.279297"/>
     <use xlink:href="#DejaVuSans-39" x="349.902344"/>
     <use xlink:href="#DejaVuSans-34" x="413.525391"/>
    </g>
   </g>
   <g id="text_43">
    <!-- 306.1647 -->
    <g transform="translate(307.456815 198.122611) scale(0.06 -0.06)">
     <use xlink:href="#DejaVuSans-33"/>
     <use xlink:href="#DejaVuSans-30" x="63.623047"/>
     <use xlink:href="#DejaVuSans-36" x="127.246094"/>
     <use xlink:href="#DejaVuSans-2e" x="190.869141"/>
     <use xlink:href="#DejaVuSans-31" x="222.65625"/>
     <use xlink:href="#DejaVuSans-36" x="286.279297"/>
     <use xlink:href="#DejaVuSans-34" x="349.902344"/>
     <use xlink:href="#DejaVuSans-37" x="413.525391"/>
    </g>
   </g>
   <g id="text_44">
    <!-- 316.1125 -->
    <g transform="translate(302.392331 258.607514) scale(0.06 -0.06)">
     <use xlink:href="#DejaVuSans-33"/>
     <use xlink:href="#DejaVuSans-31" x="63.623047"/>
     <use xlink:href="#DejaVuSans-36" x="127.246094"/>
     <use xlink:href="#DejaVuSans-2e" x="190.869141"/>
     <use xlink:href="#DejaVuSans-31" x="222.65625"/>
     <use xlink:href="#DejaVuSans-31" x="286.279297"/>
     <use xlink:href="#DejaVuSans-32" x="349.902344"/>
     <use xlink:href="#DejaVuSans-35" x="413.525391"/>
    </g>
   </g>
   <g id="text_45">
    <!-- 316.1495 -->
    <g transform="translate(330.506984 252.76605) scale(0.06 -0.06)">
     <use xlink:href="#DejaVuSans-33"/>
     <use xlink:href="#DejaVuSans-31" x="63.623047"/>
     <use xlink:href="#DejaVuSans-36" x="127.246094"/>
     <use xlink:href="#DejaVuSans-2e" x="190.869141"/>
     <use xlink:href="#DejaVuSans-31" x="222.65625"/>
     <use xlink:href="#DejaVuSans-34" x="286.279297"/>
     <use xlink:href="#DejaVuSans-39" x="349.902344"/>
     <use xlink:href="#DejaVuSans-35" x="413.525391"/>
    </g>
   </g>
   <g id="text_46">
    <!-- 333.1156 -->
    <g transform="translate(333.074309 266.134829) scale(0.06 -0.06)">
     <use xlink:href="#DejaVuSans-33"/>
     <use xlink:href="#DejaVuSans-33" x="63.623047"/>
     <use xlink:href="#DejaVuSans-33" x="127.246094"/>
     <use xlink:href="#DejaVuSans-2e" x="190.869141"/>
     <use xlink:href="#DejaVuSans-31" x="222.65625"/>
     <use xlink:href="#DejaVuSans-31" x="286.279297"/>
     <use xlink:href="#DejaVuSans-35" x="349.902344"/>
     <use xlink:href="#DejaVuSans-36" x="413.525391"/>
    </g>
   </g>
   <g id="text_47">
    <!-- 334.1233 -->
    <g transform="translate(333.694519 114.460708) scale(0.06 -0.06)">
     <use xlink:href="#DejaVuSans-33"/>
     <use xlink:href="#DejaVuSans-33" x="63.623047"/>
     <use xlink:href="#DejaVuSans-34" x="127.246094"/>
     <use xlink:href="#DejaVuSans-2e" x="190.869141"/>
     <use xlink:href="#DejaVuSans-31" x="222.65625"/>
     <use xlink:href="#DejaVuSans-32" x="286.279297"/>
     <use xlink:href="#DejaVuSans-33" x="349.902344"/>
     <use xlink:href="#DejaVuSans-33" x="413.525391"/>
    </g>
   </g>
   <g id="text_48">
    <!-- 335.1267 -->
    <g transform="translate(332.476176 280.626814) scale(0.06 -0.06)">
     <use xlink:href="#DejaVuSans-33"/>
     <use xlink:href="#DejaVuSans-33" x="63.623047"/>
     <use xlink:href="#DejaVuSans-35" x="127.246094"/>
     <use xlink:href="#DejaVuSans-2e" x="190.869141"/>
     <use xlink:href="#DejaVuSans-31" x="222.65625"/>
     <use xlink:href="#DejaVuSans-32" x="286.279297"/>
     <use xlink:href="#DejaVuSans-36" x="349.902344"/>
     <use xlink:href="#DejaVuSans-37" x="413.525391"/>
    </g>
   </g>
   <g id="text_49">
    <!-- 350.191 -->
    <g transform="translate(349.241972 273.76343) scale(0.06 -0.06)">
     <use xlink:href="#DejaVuSans-33"/>
     <use xlink:href="#DejaVuSans-35" x="63.623047"/>
     <use xlink:href="#DejaVuSans-30" x="127.246094"/>
     <use xlink:href="#DejaVuSans-2e" x="190.869141"/>
     <use xlink:href="#DejaVuSans-31" x="222.65625"/>
     <use xlink:href="#DejaVuSans-39" x="286.279297"/>
     <use xlink:href="#DejaVuSans-31" x="349.902344"/>
    </g>
   </g>
   <g id="text_50">
    <!-- 376.1703 -->
    <g transform="translate(373.153504 74.275026) scale(0.06 -0.06)">
     <use xlink:href="#DejaVuSans-33"/>
     <use xlink:href="#DejaVuSans-37" x="63.623047"/>
     <use xlink:href="#DejaVuSans-36" x="127.246094"/>
     <use xlink:href="#DejaVuSans-2e" x="190.869141"/>
     <use xlink:href="#DejaVuSans-31" x="222.65625"/>
     <use xlink:href="#DejaVuSans-37" x="286.279297"/>
     <use xlink:href="#DejaVuSans-30" x="349.902344"/>
     <use xlink:href="#DejaVuSans-33" x="413.525391"/>
    </g>
   </g>
   <g id="text_51">
    <!-- 377.1739 -->
    <g transform="translate(374.095246 263.967427) scale(0.06 -0.06)">
     <use xlink:href="#DejaVuSans-33"/>
     <use xlink:href="#DejaVuSans-37" x="63.623047"/>
     <use xlink:href="#DejaVuSans-37" x="127.246094"/>
     <use xlink:href="#DejaVuSans-2e" x="190.869141"/>
     <use xlink:href="#DejaVuSans-31" x="222.65625"/>
     <use xlink:href="#DejaVuSans-37" x="286.279297"/>
     <use xlink:href="#DejaVuSans-33" x="349.902344"/>
     <use xlink:href="#DejaVuSans-39" x="413.525391"/>
    </g>
   </g>
   <g id="text_52">
    <!-- 394.181 -->
    <g transform="translate(390.029063 208.160983) scale(0.06 -0.06)">
     <use xlink:href="#DejaVuSans-33"/>
     <use xlink:href="#DejaVuSans-39" x="63.623047"/>
     <use xlink:href="#DejaVuSans-34" x="127.246094"/>
     <use xlink:href="#DejaVuSans-2e" x="190.869141"/>
     <use xlink:href="#DejaVuSans-31" x="222.65625"/>
     <use xlink:href="#DejaVuSans-38" x="286.279297"/>
     <use xlink:href="#DejaVuSans-31" x="349.902344"/>
    </g>
   </g>
   <g id="text_53">
    <!-- MS2 spectrum of ${m/z}$ 394.18, scan time 10.1 min. -->
    <g transform="translate(57.6 35.472) scale(0.12 -0.12)">
     <defs>
      <path id="DejaVuSans-4d" d="M 628 4666 
L 1569 4666 
L 2759 1491 
L 3956 4666 
L 4897 4666 
L 4897 0 
L 4281 0 
L 4281 4097 
L 3078 897 
L 2444 897 
L 1241 4097 
L 1241 0 
L 628 0 
L 628 4666 
z
" transform="scale(0.015625)"/>
      <path id="DejaVuSans-53" d="M 3425 4513 
L 3425 3897 
Q 3066 4069 2747 4153 
Q 2428 4238 2131 4238 
Q 1616 4238 1336 4038 
Q 1056 3838 1056 3469 
Q 1056 3159 1242 3001 
Q 1428 2844 1947 2747 
L 2328 2669 
Q 3034 2534 3370 2195 
Q 3706 1856 3706 1288 
Q 3706 609 3251 259 
Q 2797 -91 1919 -91 
Q 1588 -91 1214 -16 
Q 841 59 441 206 
L 441 856 
Q 825 641 1194 531 
Q 1563 422 1919 422 
Q 2459 422 2753 634 
Q 3047 847 3047 1241 
Q 3047 1584 2836 1778 
Q 2625 1972 2144 2069 
L 1759 2144 
Q 1053 2284 737 2584 
Q 422 2884 422 3419 
Q 422 4038 858 4394 
Q 1294 4750 2059 4750 
Q 2388 4750 2728 4690 
Q 3069 4631 3425 4513 
z
" transform="scale(0.015625)"/>
      <path id="DejaVuSans-20" transform="scale(0.015625)"/>
      <path id="DejaVuSans-70" d="M 1159 525 
L 1159 -1331 
L 581 -1331 
L 581 3500 
L 1159 3500 
L 1159 2969 
Q 1341 3281 1617 3432 
Q 1894 3584 2278 3584 
Q 2916 3584 3314 3078 
Q 3713 2572 3713 1747 
Q 3713 922 3314 415 
Q 2916 -91 2278 -91 
Q 1894 -91 1617 61 
Q 1341 213 1159 525 
z
M 3116 1747 
Q 3116 2381 2855 2742 
Q 2594 3103 2138 3103 
Q 1681 3103 1420 2742 
Q 1159 2381 1159 1747 
Q 1159 1113 1420 752 
Q 1681 391 2138 391 
Q 2594 391 2855 752 
Q 3116 1113 3116 1747 
z
" transform="scale(0.015625)"/>
      <path id="DejaVuSans-63" d="M 3122 3366 
L 3122 2828 
Q 2878 2963 2633 3030 
Q 2388 3097 2138 3097 
Q 1578 3097 1268 2742 
Q 959 2388 959 1747 
Q 959 1106 1268 751 
Q 1578 397 2138 397 
Q 2388 397 2633 464 
Q 2878 531 3122 666 
L 3122 134 
Q 2881 22 2623 -34 
Q 2366 -91 2075 -91 
Q 1284 -91 818 406 
Q 353 903 353 1747 
Q 353 2603 823 3093 
Q 1294 3584 2113 3584 
Q 2378 3584 2631 3529 
Q 2884 3475 3122 3366 
z
" transform="scale(0.015625)"/>
      <path id="DejaVuSans-72" d="M 2631 2963 
Q 2534 3019 2420 3045 
Q 2306 3072 2169 3072 
Q 1681 3072 1420 2755 
Q 1159 2438 1159 1844 
L 1159 0 
L 581 0 
L 581 3500 
L 1159 3500 
L 1159 2956 
Q 1341 3275 1631 3429 
Q 1922 3584 2338 3584 
Q 2397 3584 2469 3576 
Q 2541 3569 2628 3553 
L 2631 2963 
z
" transform="scale(0.015625)"/>
      <path id="DejaVuSans-75" d="M 544 1381 
L 544 3500 
L 1119 3500 
L 1119 1403 
Q 1119 906 1312 657 
Q 1506 409 1894 409 
Q 2359 409 2629 706 
Q 2900 1003 2900 1516 
L 2900 3500 
L 3475 3500 
L 3475 0 
L 2900 0 
L 2900 538 
Q 2691 219 2414 64 
Q 2138 -91 1772 -91 
Q 1169 -91 856 284 
Q 544 659 544 1381 
z
M 1991 3584 
L 1991 3584 
z
" transform="scale(0.015625)"/>
      <path id="DejaVuSans-6d" d="M 3328 2828 
Q 3544 3216 3844 3400 
Q 4144 3584 4550 3584 
Q 5097 3584 5394 3201 
Q 5691 2819 5691 2113 
L 5691 0 
L 5113 0 
L 5113 2094 
Q 5113 2597 4934 2840 
Q 4756 3084 4391 3084 
Q 3944 3084 3684 2787 
Q 3425 2491 3425 1978 
L 3425 0 
L 2847 0 
L 2847 2094 
Q 2847 2600 2669 2842 
Q 2491 3084 2119 3084 
Q 1678 3084 1418 2786 
Q 1159 2488 1159 1978 
L 1159 0 
L 581 0 
L 581 3500 
L 1159 3500 
L 1159 2956 
Q 1356 3278 1631 3431 
Q 1906 3584 2284 3584 
Q 2666 3584 2933 3390 
Q 3200 3197 3328 2828 
z
" transform="scale(0.015625)"/>
      <path id="DejaVuSans-6f" d="M 1959 3097 
Q 1497 3097 1228 2736 
Q 959 2375 959 1747 
Q 959 1119 1226 758 
Q 1494 397 1959 397 
Q 2419 397 2687 759 
Q 2956 1122 2956 1747 
Q 2956 2369 2687 2733 
Q 2419 3097 1959 3097 
z
M 1959 3584 
Q 2709 3584 3137 3096 
Q 3566 2609 3566 1747 
Q 3566 888 3137 398 
Q 2709 -91 1959 -91 
Q 1206 -91 779 398 
Q 353 888 353 1747 
Q 353 2609 779 3096 
Q 1206 3584 1959 3584 
z
" transform="scale(0.015625)"/>
      <path id="DejaVuSans-66" d="M 2375 4863 
L 2375 4384 
L 1825 4384 
Q 1516 4384 1395 4259 
Q 1275 4134 1275 3809 
L 1275 3500 
L 2222 3500 
L 2222 3053 
L 1275 3053 
L 1275 0 
L 697 0 
L 697 3053 
L 147 3053 
L 147 3500 
L 697 3500 
L 697 3744 
Q 697 4328 969 4595 
Q 1241 4863 1831 4863 
L 2375 4863 
z
" transform="scale(0.015625)"/>
      <path id="DejaVuSans-2c" d="M 750 794 
L 1409 794 
L 1409 256 
L 897 -744 
L 494 -744 
L 750 256 
L 750 794 
z
" transform="scale(0.015625)"/>
      <path id="DejaVuSans-61" d="M 2194 1759 
Q 1497 1759 1228 1600 
Q 959 1441 959 1056 
Q 959 750 1161 570 
Q 1363 391 1709 391 
Q 2188 391 2477 730 
Q 2766 1069 2766 1631 
L 2766 1759 
L 2194 1759 
z
M 3341 1997 
L 3341 0 
L 2766 0 
L 2766 531 
Q 2569 213 2275 61 
Q 1981 -91 1556 -91 
Q 1019 -91 701 211 
Q 384 513 384 1019 
Q 384 1609 779 1909 
Q 1175 2209 1959 2209 
L 2766 2209 
L 2766 2266 
Q 2766 2663 2505 2880 
Q 2244 3097 1772 3097 
Q 1472 3097 1187 3025 
Q 903 2953 641 2809 
L 641 3341 
Q 956 3463 1253 3523 
Q 1550 3584 1831 3584 
Q 2591 3584 2966 3190 
Q 3341 2797 3341 1997 
z
" transform="scale(0.015625)"/>
     </defs>
     <use xlink:href="#DejaVuSans-4d" transform="translate(0 0.015625)"/>
     <use xlink:href="#DejaVuSans-53" transform="translate(86.279297 0.015625)"/>
     <use xlink:href="#DejaVuSans-32" transform="translate(149.755859 0.015625)"/>
     <use xlink:href="#DejaVuSans-20" transform="translate(213.378906 0.015625)"/>
     <use xlink:href="#DejaVuSans-73" transform="translate(245.166016 0.015625)"/>
     <use xlink:href="#DejaVuSans-70" transform="translate(297.265625 0.015625)"/>
     <use xlink:href="#DejaVuSans-65" transform="translate(360.742188 0.015625)"/>
     <use xlink:href="#DejaVuSans-63" transform="translate(422.265625 0.015625)"/>
     <use xlink:href="#DejaVuSans-74" transform="translate(477.246094 0.015625)"/>
     <use xlink:href="#DejaVuSans-72" transform="translate(516.455078 0.015625)"/>
     <use xlink:href="#DejaVuSans-75" transform="translate(557.568359 0.015625)"/>
     <use xlink:href="#DejaVuSans-6d" transform="translate(620.947266 0.015625)"/>
     <use xlink:href="#DejaVuSans-20" transform="translate(718.359375 0.015625)"/>
     <use xlink:href="#DejaVuSans-6f" transform="translate(750.146484 0.015625)"/>
     <use xlink:href="#DejaVuSans-66" transform="translate(811.328125 0.015625)"/>
     <use xlink:href="#DejaVuSans-20" transform="translate(846.533203 0.015625)"/>
     <use xlink:href="#DejaVuSans-Oblique-6d" transform="translate(878.320312 0.015625)"/>
     <use xlink:href="#DejaVuSans-2f" transform="translate(975.732422 0.015625)"/>
     <use xlink:href="#DejaVuSans-Oblique-7a" transform="translate(1009.423828 0.015625)"/>
     <use xlink:href="#DejaVuSans-20" transform="translate(1061.914062 0.015625)"/>
     <use xlink:href="#DejaVuSans-33" transform="translate(1093.701172 0.015625)"/>
     <use xlink:href="#DejaVuSans-39" transform="translate(1157.324219 0.015625)"/>
     <use xlink:href="#DejaVuSans-34" transform="translate(1220.947266 0.015625)"/>
     <use xlink:href="#DejaVuSans-2e" transform="translate(1284.570312 0.015625)"/>
     <use xlink:href="#DejaVuSans-31" transform="translate(1316.357422 0.015625)"/>
     <use xlink:href="#DejaVuSans-38" transform="translate(1379.980469 0.015625)"/>
     <use xlink:href="#DejaVuSans-2c" transform="translate(1443.603516 0.015625)"/>
     <use xlink:href="#DejaVuSans-20" transform="translate(1475.390625 0.015625)"/>
     <use xlink:href="#DejaVuSans-73" transform="translate(1507.177734 0.015625)"/>
     <use xlink:href="#DejaVuSans-63" transform="translate(1559.277344 0.015625)"/>
     <use xlink:href="#DejaVuSans-61" transform="translate(1614.257812 0.015625)"/>
     <use xlink:href="#DejaVuSans-6e" transform="translate(1675.537109 0.015625)"/>
     <use xlink:href="#DejaVuSans-20" transform="translate(1738.916016 0.015625)"/>
     <use xlink:href="#DejaVuSans-74" transform="translate(1770.703125 0.015625)"/>
     <use xlink:href="#DejaVuSans-69" transform="translate(1809.912109 0.015625)"/>
     <use xlink:href="#DejaVuSans-6d" transform="translate(1837.695312 0.015625)"/>
     <use xlink:href="#DejaVuSans-65" transform="translate(1935.107422 0.015625)"/>
     <use xlink:href="#DejaVuSans-20" transform="translate(1996.630859 0.015625)"/>
     <use xlink:href="#DejaVuSans-31" transform="translate(2028.417969 0.015625)"/>
     <use xlink:href="#DejaVuSans-30" transform="translate(2092.041016 0.015625)"/>
     <use xlink:href="#DejaVuSans-2e" transform="translate(2155.664062 0.015625)"/>
     <use xlink:href="#DejaVuSans-31" transform="translate(2187.451172 0.015625)"/>
     <use xlink:href="#DejaVuSans-20" transform="translate(2251.074219 0.015625)"/>
     <use xlink:href="#DejaVuSans-6d" transform="translate(2282.861328 0.015625)"/>
     <use xlink:href="#DejaVuSans-69" transform="translate(2380.273438 0.015625)"/>
     <use xlink:href="#DejaVuSans-6e" transform="translate(2408.056641 0.015625)"/>
     <use xlink:href="#DejaVuSans-2e" transform="translate(2471.435547 0.015625)"/>
    </g>
   </g>
  </g>
 </g>
 <defs>
  <clipPath id="pb3c52960c2">
   <rect x="57.6" y="41.472" width="357.12" height="266.112"/>
  </clipPath>
 </defs>
</svg>
