<?xml version="1.0" encoding="utf-8" standalone="no"?>
<!DOCTYPE svg PUBLIC "-//W3C//DTD SVG 1.1//EN"
  "http://www.w3.org/Graphics/SVG/1.1/DTD/svg11.dtd">
<svg xmlns:xlink="http://www.w3.org/1999/xlink" width="460.8pt" height="345.6pt" viewBox="0 0 460.8 345.6" xmlns="http://www.w3.org/2000/svg" version="1.1">
 <metadata>
  <rdf:RDF xmlns:dc="http://purl.org/dc/elements/1.1/" xmlns:cc="http://creativecommons.org/ns#" xmlns:rdf="http://www.w3.org/1999/02/22-rdf-syntax-ns#">
   <cc:Work>
    <dc:type rdf:resource="http://purl.org/dc/dcmitype/StillImage"/>
    <dc:date>2025-01-11T12:51:58.687388</dc:date>
    <dc:format>image/svg+xml</dc:format>
    <dc:creator>
     <cc:Agent>
      <dc:title>Matplotlib v3.7.3, https://matplotlib.org/</dc:title>
     </cc:Agent>
    </dc:creator>
   </cc:Work>
  </rdf:RDF>
 </metadata>
 <defs>
  <style type="text/css">*{stroke-linejoin: round; stroke-linecap: butt}</style>
 </defs>
 <g id="figure_1">
  <g id="patch_1">
   <path d="M 0 345.6 
L 460.8 345.6 
L 460.8 0 
L 0 0 
z
" style="fill: #ffffff"/>
  </g>
  <g id="axes_1">
   <g id="patch_2">
    <path d="M 57.6 307.584 
L 414.72 307.584 
L 414.72 41.472 
L 57.6 41.472 
z
" style="fill: #ffffff"/>
   </g>
   <g id="patch_3">
    <path d="M 73.832727 307.584 
L 74.59006 307.584 
L 74.59006 304.152814 
L 73.832727 304.152814 
z
" clip-path="url(#p4bf3895a7e)" style="fill: #1f77b4"/>
   </g>
   <g id="patch_4">
    <path d="M 77.637072 307.584 
L 78.394405 307.584 
L 78.394405 306.277825 
L 77.637072 306.277825 
z
" clip-path="url(#p4bf3895a7e)" style="fill: #1f77b4"/>
   </g>
   <g id="patch_5">
    <path d="M 79.105519 307.584 
L 79.862852 307.584 
L 79.862852 306.459331 
L 79.105519 306.459331 
z
" clip-path="url(#p4bf3895a7e)" style="fill: #1f77b4"/>
   </g>
   <g id="patch_6">
    <path d="M 80.350225 307.584 
L 81.107557 307.584 
L 81.107557 306.455866 
L 80.350225 306.455866 
z
" clip-path="url(#p4bf3895a7e)" style="fill: #1f77b4"/>
   </g>
   <g id="patch_7">
    <path d="M 81.098868 307.584 
L 81.856201 307.584 
L 81.856201 306.347489 
L 81.098868 306.347489 
z
" clip-path="url(#p4bf3895a7e)" style="fill: #1f77b4"/>
   </g>
   <g id="patch_8">
    <path d="M 84.188627 307.584 
L 84.94596 307.584 
L 84.94596 306.377771 
L 84.188627 306.377771 
z
" clip-path="url(#p4bf3895a7e)" style="fill: #1f77b4"/>
   </g>
   <g id="patch_9">
    <path d="M 87.019261 307.584 
L 87.776594 307.584 
L 87.776594 305.816946 
L 87.019261 305.816946 
z
" clip-path="url(#p4bf3895a7e)" style="fill: #1f77b4"/>
   </g>
   <g id="patch_10">
    <path d="M 87.100839 307.584 
L 87.858172 307.584 
L 87.858172 305.458269 
L 87.100839 305.458269 
z
" clip-path="url(#p4bf3895a7e)" style="fill: #1f77b4"/>
   </g>
   <g id="patch_11">
    <path d="M 88.974345 307.584 
L 89.731678 307.584 
L 89.731678 305.980322 
L 88.974345 305.980322 
z
" clip-path="url(#p4bf3895a7e)" style="fill: #1f77b4"/>
   </g>
   <g id="patch_12">
    <path d="M 89.008883 307.584 
L 89.766216 307.584 
L 89.766216 305.780964 
L 89.008883 305.780964 
z
" clip-path="url(#p4bf3895a7e)" style="fill: #1f77b4"/>
   </g>
   <g id="patch_13">
    <path d="M 90.848284 307.584 
L 91.605617 307.584 
L 91.605617 199.083791 
L 90.848284 199.083791 
z
" clip-path="url(#p4bf3895a7e)" style="fill: #1f77b4"/>
   </g>
   <g id="patch_14">
    <path d="M 91.383904 307.584 
L 92.141237 307.584 
L 92.141237 306.11722 
L 91.383904 306.11722 
z
" clip-path="url(#p4bf3895a7e)" style="fill: #1f77b4"/>
   </g>
   <g id="patch_15">
    <path d="M 91.798208 307.584 
L 92.555541 307.584 
L 92.555541 304.993842 
L 91.798208 304.993842 
z
" clip-path="url(#p4bf3895a7e)" style="fill: #1f77b4"/>
   </g>
   <g id="patch_16">
    <path d="M 95.143021 307.584 
L 95.900354 307.584 
L 95.900354 305.984514 
L 95.143021 305.984514 
z
" clip-path="url(#p4bf3895a7e)" style="fill: #1f77b4"/>
   </g>
   <g id="patch_17">
    <path d="M 97.216591 307.584 
L 97.973923 307.584 
L 97.973923 306.276438 
L 97.216591 306.276438 
z
" clip-path="url(#p4bf3895a7e)" style="fill: #1f77b4"/>
   </g>
   <g id="patch_18">
    <path d="M 98.460592 307.584 
L 99.217925 307.584 
L 99.217925 303.996797 
L 98.460592 303.996797 
z
" clip-path="url(#p4bf3895a7e)" style="fill: #1f77b4"/>
   </g>
   <g id="patch_19">
    <path d="M 100.334459 307.584 
L 101.091792 307.584 
L 101.091792 240.118305 
L 100.334459 240.118305 
z
" clip-path="url(#p4bf3895a7e)" style="fill: #1f77b4"/>
   </g>
   <g id="patch_20">
    <path d="M 100.339067 307.584 
L 101.0964 307.584 
L 101.0964 304.600223 
L 100.339067 304.600223 
z
" clip-path="url(#p4bf3895a7e)" style="fill: #1f77b4"/>
   </g>
   <g id="patch_21">
    <path d="M 102.242807 307.584 
L 103.000139 307.584 
L 103.000139 305.901657 
L 102.242807 305.901657 
z
" clip-path="url(#p4bf3895a7e)" style="fill: #1f77b4"/>
   </g>
   <g id="patch_22">
    <path d="M 104.150822 307.584 
L 104.908155 307.584 
L 104.908155 306.308943 
L 104.150822 306.308943 
z
" clip-path="url(#p4bf3895a7e)" style="fill: #1f77b4"/>
   </g>
   <g id="patch_23">
    <path d="M 107.451145 307.584 
L 108.208478 307.584 
L 108.208478 306.203089 
L 107.451145 306.203089 
z
" clip-path="url(#p4bf3895a7e)" style="fill: #1f77b4"/>
   </g>
   <g id="patch_24">
    <path d="M 107.898087 307.584 
L 108.65542 307.584 
L 108.65542 240.735598 
L 107.898087 240.735598 
z
" clip-path="url(#p4bf3895a7e)" style="fill: #1f77b4"/>
   </g>
   <g id="patch_25">
    <path d="M 113.602293 307.584 
L 114.359625 307.584 
L 114.359625 305.668921 
L 113.602293 305.668921 
z
" clip-path="url(#p4bf3895a7e)" style="fill: #1f77b4"/>
   </g>
   <g id="patch_26">
    <path d="M 113.636643 307.584 
L 114.393976 307.584 
L 114.393976 304.74852 
L 113.636643 304.74852 
z
" clip-path="url(#p4bf3895a7e)" style="fill: #1f77b4"/>
   </g>
   <g id="patch_27">
    <path d="M 115.510582 307.584 
L 116.267915 307.584 
L 116.267915 300.24416 
L 115.510582 300.24416 
z
" clip-path="url(#p4bf3895a7e)" style="fill: #1f77b4"/>
   </g>
   <g id="patch_28">
    <path d="M 117.418511 307.584 
L 118.175844 307.584 
L 118.175844 302.828007 
L 117.418511 302.828007 
z
" clip-path="url(#p4bf3895a7e)" style="fill: #1f77b4"/>
   </g>
   <g id="patch_29">
    <path d="M 123.054182 307.584 
L 123.811515 307.584 
L 123.811515 305.166879 
L 123.054182 305.166879 
z
" clip-path="url(#p4bf3895a7e)" style="fill: #1f77b4"/>
   </g>
   <g id="patch_30">
    <path d="M 126.851391 307.584 
L 127.608724 307.584 
L 127.608724 302.387543 
L 126.851391 302.387543 
z
" clip-path="url(#p4bf3895a7e)" style="fill: #1f77b4"/>
   </g>
   <g id="patch_31">
    <path d="M 128.744203 307.584 
L 129.501536 307.584 
L 129.501536 296.946361 
L 128.744203 296.946361 
z
" clip-path="url(#p4bf3895a7e)" style="fill: #1f77b4"/>
   </g>
   <g id="patch_32">
    <path d="M 136.35659 307.584 
L 137.113922 307.584 
L 137.113922 305.759914 
L 136.35659 305.759914 
z
" clip-path="url(#p4bf3895a7e)" style="fill: #1f77b4"/>
   </g>
   <g id="patch_33">
    <path d="M 139.153585 307.584 
L 139.910918 307.584 
L 139.910918 294.254213 
L 139.153585 294.254213 
z
" clip-path="url(#p4bf3895a7e)" style="fill: #1f77b4"/>
   </g>
   <g id="patch_34">
    <path d="M 140.103718 307.584 
L 140.86105 307.584 
L 140.86105 301.441993 
L 140.103718 301.441993 
z
" clip-path="url(#p4bf3895a7e)" style="fill: #1f77b4"/>
   </g>
   <g id="patch_35">
    <path d="M 145.793608 307.584 
L 146.550941 307.584 
L 146.550941 302.073462 
L 145.793608 302.073462 
z
" clip-path="url(#p4bf3895a7e)" style="fill: #1f77b4"/>
   </g>
   <g id="patch_36">
    <path d="M 153.168462 307.584 
L 153.925795 307.584 
L 153.925795 306.109822 
L 153.168462 306.109822 
z
" clip-path="url(#p4bf3895a7e)" style="fill: #1f77b4"/>
   </g>
   <g id="patch_37">
    <path d="M 157.153556 307.584 
L 157.910889 307.584 
L 157.910889 287.644266 
L 157.153556 287.644266 
z
" clip-path="url(#p4bf3895a7e)" style="fill: #1f77b4"/>
   </g>
   <g id="patch_38">
    <path d="M 159.076472 307.584 
L 159.833804 307.584 
L 159.833804 305.356679 
L 159.076472 305.356679 
z
" clip-path="url(#p4bf3895a7e)" style="fill: #1f77b4"/>
   </g>
   <g id="patch_39">
    <path d="M 159.452229 307.584 
L 160.209561 307.584 
L 160.209561 306.174363 
L 159.452229 306.174363 
z
" clip-path="url(#p4bf3895a7e)" style="fill: #1f77b4"/>
   </g>
   <g id="patch_40">
    <path d="M 161.925859 307.584 
L 162.683191 307.584 
L 162.683191 305.633487 
L 161.925859 305.633487 
z
" clip-path="url(#p4bf3895a7e)" style="fill: #1f77b4"/>
   </g>
   <g id="patch_41">
    <path d="M 162.838752 307.584 
L 163.596085 307.584 
L 163.596085 305.517482 
L 162.838752 305.517482 
z
" clip-path="url(#p4bf3895a7e)" style="fill: #1f77b4"/>
   </g>
   <g id="patch_42">
    <path d="M 169.470007 307.584 
L 170.22734 307.584 
L 170.22734 303.398931 
L 169.470007 303.398931 
z
" clip-path="url(#p4bf3895a7e)" style="fill: #1f77b4"/>
   </g>
   <g id="patch_43">
    <path d="M 181.783367 307.584 
L 182.5407 307.584 
L 182.5407 306.042238 
L 181.783367 306.042238 
z
" clip-path="url(#p4bf3895a7e)" style="fill: #1f77b4"/>
   </g>
   <g id="patch_44">
    <path d="M 182.738744 307.584 
L 183.496076 307.584 
L 183.496076 294.979516 
L 182.738744 294.979516 
z
" clip-path="url(#p4bf3895a7e)" style="fill: #1f77b4"/>
   </g>
   <g id="patch_45">
    <path d="M 194.098547 307.584 
L 194.85588 307.584 
L 194.85588 306.15128 
L 194.098547 306.15128 
z
" clip-path="url(#p4bf3895a7e)" style="fill: #1f77b4"/>
   </g>
   <g id="patch_46">
    <path d="M 199.769255 307.584 
L 200.526588 307.584 
L 200.526588 304.710528 
L 199.769255 304.710528 
z
" clip-path="url(#p4bf3895a7e)" style="fill: #1f77b4"/>
   </g>
   <g id="patch_47">
    <path d="M 205.458149 307.584 
L 206.215482 307.584 
L 206.215482 305.058417 
L 205.458149 305.058417 
z
" clip-path="url(#p4bf3895a7e)" style="fill: #1f77b4"/>
   </g>
   <g id="patch_48">
    <path d="M 207.366287 307.584 
L 208.12362 307.584 
L 208.12362 305.360854 
L 207.366287 305.360854 
z
" clip-path="url(#p4bf3895a7e)" style="fill: #1f77b4"/>
   </g>
   <g id="patch_49">
    <path d="M 210.187319 307.584 
L 210.944651 307.584 
L 210.944651 304.198139 
L 210.187319 304.198139 
z
" clip-path="url(#p4bf3895a7e)" style="fill: #1f77b4"/>
   </g>
   <g id="patch_50">
    <path d="M 222.541991 307.584 
L 223.299324 307.584 
L 223.299324 304.885117 
L 222.541991 304.885117 
z
" clip-path="url(#p4bf3895a7e)" style="fill: #1f77b4"/>
   </g>
   <g id="patch_51">
    <path d="M 223.443415 307.584 
L 224.200748 307.584 
L 224.200748 255.76911 
L 223.443415 255.76911 
z
" clip-path="url(#p4bf3895a7e)" style="fill: #1f77b4"/>
   </g>
   <g id="patch_52">
    <path d="M 224.397391 307.584 
L 225.154723 307.584 
L 225.154723 278.636947 
L 224.397391 278.636947 
z
" clip-path="url(#p4bf3895a7e)" style="fill: #1f77b4"/>
   </g>
   <g id="patch_53">
    <path d="M 225.346512 307.584 
L 226.103845 307.584 
L 226.103845 305.130777 
L 225.346512 305.130777 
z
" clip-path="url(#p4bf3895a7e)" style="fill: #1f77b4"/>
   </g>
   <g id="patch_54">
    <path d="M 232.910061 307.584 
L 233.667393 307.584 
L 233.667393 305.906061 
L 232.910061 305.906061 
z
" clip-path="url(#p4bf3895a7e)" style="fill: #1f77b4"/>
   </g>
   <g id="patch_55">
    <path d="M 233.848753 307.584 
L 234.606086 307.584 
L 234.606086 276.810977 
L 233.848753 276.810977 
z
" clip-path="url(#p4bf3895a7e)" style="fill: #1f77b4"/>
   </g>
   <g id="patch_56">
    <path d="M 234.800893 307.584 
L 235.558226 307.584 
L 235.558226 300.779075 
L 234.800893 300.779075 
z
" clip-path="url(#p4bf3895a7e)" style="fill: #1f77b4"/>
   </g>
   <g id="patch_57">
    <path d="M 235.757339 307.584 
L 236.514671 307.584 
L 236.514671 274.518164 
L 235.757339 274.518164 
z
" clip-path="url(#p4bf3895a7e)" style="fill: #1f77b4"/>
   </g>
   <g id="patch_58">
    <path d="M 236.707385 307.584 
L 237.464718 307.584 
L 237.464718 303.718355 
L 236.707385 303.718355 
z
" clip-path="url(#p4bf3895a7e)" style="fill: #1f77b4"/>
   </g>
   <g id="patch_59">
    <path d="M 244.268824 307.584 
L 245.026157 307.584 
L 245.026157 305.898347 
L 244.268824 305.898347 
z
" clip-path="url(#p4bf3895a7e)" style="fill: #1f77b4"/>
   </g>
   <g id="patch_60">
    <path d="M 245.209597 307.584 
L 245.966929 307.584 
L 245.966929 303.01071 
L 245.209597 303.01071 
z
" clip-path="url(#p4bf3895a7e)" style="fill: #1f77b4"/>
   </g>
   <g id="patch_61">
    <path d="M 246.163384 307.584 
L 246.920717 307.584 
L 246.920717 225.718728 
L 246.163384 225.718728 
z
" clip-path="url(#p4bf3895a7e)" style="fill: #1f77b4"/>
   </g>
   <g id="patch_62">
    <path d="M 246.183665 307.584 
L 246.940997 307.584 
L 246.940997 305.835025 
L 246.183665 305.835025 
z
" clip-path="url(#p4bf3895a7e)" style="fill: #1f77b4"/>
   </g>
   <g id="patch_63">
    <path d="M 247.116854 307.584 
L 247.874186 307.584 
L 247.874186 261.469091 
L 247.116854 261.469091 
z
" clip-path="url(#p4bf3895a7e)" style="fill: #1f77b4"/>
   </g>
   <g id="patch_64">
    <path d="M 248.067246 307.584 
L 248.824579 307.584 
L 248.824579 302.660985 
L 248.067246 302.660985 
z
" clip-path="url(#p4bf3895a7e)" style="fill: #1f77b4"/>
   </g>
   <g id="patch_65">
    <path d="M 249.026624 307.584 
L 249.783957 307.584 
L 249.783957 284.664016 
L 249.026624 284.664016 
z
" clip-path="url(#p4bf3895a7e)" style="fill: #1f77b4"/>
   </g>
   <g id="patch_66">
    <path d="M 249.975327 307.584 
L 250.732659 307.584 
L 250.732659 304.070138 
L 249.975327 304.070138 
z
" clip-path="url(#p4bf3895a7e)" style="fill: #1f77b4"/>
   </g>
   <g id="patch_67">
    <path d="M 252.804476 307.584 
L 253.561809 307.584 
L 253.561809 305.920848 
L 252.804476 305.920848 
z
" clip-path="url(#p4bf3895a7e)" style="fill: #1f77b4"/>
   </g>
   <g id="patch_68">
    <path d="M 254.715157 307.584 
L 255.472489 307.584 
L 255.472489 304.673835 
L 254.715157 304.673835 
z
" clip-path="url(#p4bf3895a7e)" style="fill: #1f77b4"/>
   </g>
   <g id="patch_69">
    <path d="M 256.569892 307.584 
L 257.327224 307.584 
L 257.327224 305.687115 
L 256.569892 305.687115 
z
" clip-path="url(#p4bf3895a7e)" style="fill: #1f77b4"/>
   </g>
   <g id="patch_70">
    <path d="M 257.523621 307.584 
L 258.280954 307.584 
L 258.280954 305.293158 
L 257.523621 305.293158 
z
" clip-path="url(#p4bf3895a7e)" style="fill: #1f77b4"/>
   </g>
   <g id="patch_71">
    <path d="M 258.477437 307.584 
L 259.23477 307.584 
L 259.23477 92.742341 
L 258.477437 92.742341 
z
" clip-path="url(#p4bf3895a7e)" style="fill: #1f77b4"/>
   </g>
   <g id="patch_72">
    <path d="M 259.429145 307.584 
L 260.186477 307.584 
L 260.186477 256.567877 
L 259.429145 256.567877 
z
" clip-path="url(#p4bf3895a7e)" style="fill: #1f77b4"/>
   </g>
   <g id="patch_73">
    <path d="M 260.385373 307.584 
L 261.142706 307.584 
L 261.142706 237.586657 
L 260.385373 237.586657 
z
" clip-path="url(#p4bf3895a7e)" style="fill: #1f77b4"/>
   </g>
   <g id="patch_74">
    <path d="M 261.336243 307.584 
L 262.093575 307.584 
L 262.093575 297.991779 
L 261.336243 297.991779 
z
" clip-path="url(#p4bf3895a7e)" style="fill: #1f77b4"/>
   </g>
   <g id="patch_75">
    <path d="M 262.293193 307.584 
L 263.050526 307.584 
L 263.050526 304.891164 
L 262.293193 304.891164 
z
" clip-path="url(#p4bf3895a7e)" style="fill: #1f77b4"/>
   </g>
   <g id="patch_76">
    <path d="M 263.247948 307.584 
L 264.005281 307.584 
L 264.005281 251.673966 
L 263.247948 251.673966 
z
" clip-path="url(#p4bf3895a7e)" style="fill: #1f77b4"/>
   </g>
   <g id="patch_77">
    <path d="M 264.166158 307.584 
L 264.923491 307.584 
L 264.923491 286.67519 
L 264.166158 286.67519 
z
" clip-path="url(#p4bf3895a7e)" style="fill: #1f77b4"/>
   </g>
   <g id="patch_78">
    <path d="M 264.201115 307.584 
L 264.958447 307.584 
L 264.958447 275.988118 
L 264.201115 275.988118 
z
" clip-path="url(#p4bf3895a7e)" style="fill: #1f77b4"/>
   </g>
   <g id="patch_79">
    <path d="M 265.116276 307.584 
L 265.873609 307.584 
L 265.873609 304.843972 
L 265.116276 304.843972 
z
" clip-path="url(#p4bf3895a7e)" style="fill: #1f77b4"/>
   </g>
   <g id="patch_80">
    <path d="M 265.152605 307.584 
L 265.909938 307.584 
L 265.909938 303.516486 
L 265.152605 303.516486 
z
" clip-path="url(#p4bf3895a7e)" style="fill: #1f77b4"/>
   </g>
   <g id="patch_81">
    <path d="M 268.882977 307.584 
L 269.64031 307.584 
L 269.64031 298.570162 
L 268.882977 298.570162 
z
" clip-path="url(#p4bf3895a7e)" style="fill: #1f77b4"/>
   </g>
   <g id="patch_82">
    <path d="M 269.836808 307.584 
L 270.59414 307.584 
L 270.59414 294.969136 
L 269.836808 294.969136 
z
" clip-path="url(#p4bf3895a7e)" style="fill: #1f77b4"/>
   </g>
   <g id="patch_83">
    <path d="M 270.790985 307.584 
L 271.548318 307.584 
L 271.548318 287.410346 
L 270.790985 287.410346 
z
" clip-path="url(#p4bf3895a7e)" style="fill: #1f77b4"/>
   </g>
   <g id="patch_84">
    <path d="M 271.745422 307.584 
L 272.502755 307.584 
L 272.502755 225.661226 
L 271.745422 225.661226 
z
" clip-path="url(#p4bf3895a7e)" style="fill: #1f77b4"/>
   </g>
   <g id="patch_85">
    <path d="M 271.772406 307.584 
L 272.529738 307.584 
L 272.529738 304.666178 
L 271.772406 304.666178 
z
" clip-path="url(#p4bf3895a7e)" style="fill: #1f77b4"/>
   </g>
   <g id="patch_86">
    <path d="M 272.697231 307.584 
L 273.454563 307.584 
L 273.454563 289.258157 
L 272.697231 289.258157 
z
" clip-path="url(#p4bf3895a7e)" style="fill: #1f77b4"/>
   </g>
   <g id="patch_87">
    <path d="M 273.653633 307.584 
L 274.410965 307.584 
L 274.410965 175.406485 
L 273.653633 175.406485 
z
" clip-path="url(#p4bf3895a7e)" style="fill: #1f77b4"/>
   </g>
   <g id="patch_88">
    <path d="M 274.603621 307.584 
L 275.360954 307.584 
L 275.360954 286.337734 
L 274.603621 286.337734 
z
" clip-path="url(#p4bf3895a7e)" style="fill: #1f77b4"/>
   </g>
   <g id="patch_89">
    <path d="M 275.561843 307.584 
L 276.319176 307.584 
L 276.319176 288.448665 
L 275.561843 288.448665 
z
" clip-path="url(#p4bf3895a7e)" style="fill: #1f77b4"/>
   </g>
   <g id="patch_90">
    <path d="M 276.51186 307.584 
L 277.269193 307.584 
L 277.269193 302.892563 
L 276.51186 302.892563 
z
" clip-path="url(#p4bf3895a7e)" style="fill: #1f77b4"/>
   </g>
   <g id="patch_91">
    <path d="M 277.43397 307.584 
L 278.191302 307.584 
L 278.191302 302.366723 
L 277.43397 302.366723 
z
" clip-path="url(#p4bf3895a7e)" style="fill: #1f77b4"/>
   </g>
   <g id="patch_92">
    <path d="M 280.255362 307.584 
L 281.012695 307.584 
L 281.012695 305.860131 
L 280.255362 305.860131 
z
" clip-path="url(#p4bf3895a7e)" style="fill: #1f77b4"/>
   </g>
   <g id="patch_93">
    <path d="M 281.197204 307.584 
L 281.954536 307.584 
L 281.954536 289.213802 
L 281.197204 289.213802 
z
" clip-path="url(#p4bf3895a7e)" style="fill: #1f77b4"/>
   </g>
   <g id="patch_94">
    <path d="M 282.150832 307.584 
L 282.908165 307.584 
L 282.908165 275.211018 
L 282.150832 275.211018 
z
" clip-path="url(#p4bf3895a7e)" style="fill: #1f77b4"/>
   </g>
   <g id="patch_95">
    <path d="M 283.105385 307.584 
L 283.862718 307.584 
L 283.862718 106.020735 
L 283.105385 106.020735 
z
" clip-path="url(#p4bf3895a7e)" style="fill: #1f77b4"/>
   </g>
   <g id="patch_96">
    <path d="M 284.056904 307.584 
L 284.814237 307.584 
L 284.814237 264.128066 
L 284.056904 264.128066 
z
" clip-path="url(#p4bf3895a7e)" style="fill: #1f77b4"/>
   </g>
   <g id="patch_97">
    <path d="M 285.0127 307.584 
L 285.770032 307.584 
L 285.770032 291.083134 
L 285.0127 291.083134 
z
" clip-path="url(#p4bf3895a7e)" style="fill: #1f77b4"/>
   </g>
   <g id="patch_98">
    <path d="M 285.967657 307.584 
L 286.72499 307.584 
L 286.72499 248.969775 
L 285.967657 248.969775 
z
" clip-path="url(#p4bf3895a7e)" style="fill: #1f77b4"/>
   </g>
   <g id="patch_99">
    <path d="M 286.919408 307.584 
L 287.67674 307.584 
L 287.67674 288.259494 
L 286.919408 288.259494 
z
" clip-path="url(#p4bf3895a7e)" style="fill: #1f77b4"/>
   </g>
   <g id="patch_100">
    <path d="M 287.870465 307.584 
L 288.627798 307.584 
L 288.627798 305.381179 
L 287.870465 305.381179 
z
" clip-path="url(#p4bf3895a7e)" style="fill: #1f77b4"/>
   </g>
   <g id="patch_101">
    <path d="M 294.465521 307.584 
L 295.222854 307.584 
L 295.222854 299.252055 
L 294.465521 299.252055 
z
" clip-path="url(#p4bf3895a7e)" style="fill: #1f77b4"/>
   </g>
   <g id="patch_102">
    <path d="M 295.418283 307.584 
L 296.175615 307.584 
L 296.175615 300.958155 
L 295.418283 300.958155 
z
" clip-path="url(#p4bf3895a7e)" style="fill: #1f77b4"/>
   </g>
   <g id="patch_103">
    <path d="M 296.342039 307.584 
L 297.099372 307.584 
L 297.099372 304.324473 
L 296.342039 304.324473 
z
" clip-path="url(#p4bf3895a7e)" style="fill: #1f77b4"/>
   </g>
   <g id="patch_104">
    <path d="M 296.373529 307.584 
L 297.130862 307.584 
L 297.130862 206.111825 
L 296.373529 206.111825 
z
" clip-path="url(#p4bf3895a7e)" style="fill: #1f77b4"/>
   </g>
   <g id="patch_105">
    <path d="M 297.323719 307.584 
L 298.081052 307.584 
L 298.081052 290.054834 
L 297.323719 290.054834 
z
" clip-path="url(#p4bf3895a7e)" style="fill: #1f77b4"/>
   </g>
   <g id="patch_106">
    <path d="M 298.28171 307.584 
L 299.039043 307.584 
L 299.039043 54.144 
L 298.28171 54.144 
z
" clip-path="url(#p4bf3895a7e)" style="fill: #1f77b4"/>
   </g>
   <g id="patch_107">
    <path d="M 299.231439 307.584 
L 299.988771 307.584 
L 299.988771 264.51581 
L 299.231439 264.51581 
z
" clip-path="url(#p4bf3895a7e)" style="fill: #1f77b4"/>
   </g>
   <g id="patch_108">
    <path d="M 300.155859 307.584 
L 300.913192 307.584 
L 300.913192 297.665858 
L 300.155859 297.665858 
z
" clip-path="url(#p4bf3895a7e)" style="fill: #1f77b4"/>
   </g>
   <g id="patch_109">
    <path d="M 300.189834 307.584 
L 300.947167 307.584 
L 300.947167 275.30943 
L 300.189834 275.30943 
z
" clip-path="url(#p4bf3895a7e)" style="fill: #1f77b4"/>
   </g>
   <g id="patch_110">
    <path d="M 300.217973 307.584 
L 300.975305 307.584 
L 300.975305 304.847654 
L 300.217973 304.847654 
z
" clip-path="url(#p4bf3895a7e)" style="fill: #1f77b4"/>
   </g>
   <g id="patch_111">
    <path d="M 301.107321 307.584 
L 301.864654 307.584 
L 301.864654 306.129209 
L 301.107321 306.129209 
z
" clip-path="url(#p4bf3895a7e)" style="fill: #1f77b4"/>
   </g>
   <g id="patch_112">
    <path d="M 301.139331 307.584 
L 301.896664 307.584 
L 301.896664 301.031439 
L 301.139331 301.031439 
z
" clip-path="url(#p4bf3895a7e)" style="fill: #1f77b4"/>
   </g>
   <g id="patch_113">
    <path d="M 308.686456 307.584 
L 309.443788 307.584 
L 309.443788 304.679717 
L 308.686456 304.679717 
z
" clip-path="url(#p4bf3895a7e)" style="fill: #1f77b4"/>
   </g>
   <g id="patch_114">
    <path d="M 309.64202 307.584 
L 310.399352 307.584 
L 310.399352 303.743455 
L 309.64202 303.743455 
z
" clip-path="url(#p4bf3895a7e)" style="fill: #1f77b4"/>
   </g>
   <g id="patch_115">
    <path d="M 310.594608 307.584 
L 311.351941 307.584 
L 311.351941 302.934458 
L 310.594608 302.934458 
z
" clip-path="url(#p4bf3895a7e)" style="fill: #1f77b4"/>
   </g>
   <g id="patch_116">
    <path d="M 311.549045 307.584 
L 312.306378 307.584 
L 312.306378 299.106794 
L 311.549045 299.106794 
z
" clip-path="url(#p4bf3895a7e)" style="fill: #1f77b4"/>
   </g>
   <g id="patch_117">
    <path d="M 312.503165 307.584 
L 313.260498 307.584 
L 313.260498 304.336871 
L 312.503165 304.336871 
z
" clip-path="url(#p4bf3895a7e)" style="fill: #1f77b4"/>
   </g>
   <g id="patch_118">
    <path d="M 313.433248 307.584 
L 314.190581 307.584 
L 314.190581 304.671308 
L 313.433248 304.671308 
z
" clip-path="url(#p4bf3895a7e)" style="fill: #1f77b4"/>
   </g>
   <g id="patch_119">
    <path d="M 313.45792 307.584 
L 314.215253 307.584 
L 314.215253 202.560179 
L 313.45792 202.560179 
z
" clip-path="url(#p4bf3895a7e)" style="fill: #1f77b4"/>
   </g>
   <g id="patch_120">
    <path d="M 313.492184 307.584 
L 314.249516 307.584 
L 314.249516 304.213882 
L 313.492184 304.213882 
z
" clip-path="url(#p4bf3895a7e)" style="fill: #1f77b4"/>
   </g>
   <g id="patch_121">
    <path d="M 314.377227 307.584 
L 315.13456 307.584 
L 315.13456 304.346916 
L 314.377227 304.346916 
z
" clip-path="url(#p4bf3895a7e)" style="fill: #1f77b4"/>
   </g>
   <g id="patch_122">
    <path d="M 314.407446 307.584 
L 315.164779 307.584 
L 315.164779 288.914239 
L 314.407446 288.914239 
z
" clip-path="url(#p4bf3895a7e)" style="fill: #1f77b4"/>
   </g>
   <g id="patch_123">
    <path d="M 315.330827 307.584 
L 316.08816 307.584 
L 316.08816 293.299479 
L 315.330827 293.299479 
z
" clip-path="url(#p4bf3895a7e)" style="fill: #1f77b4"/>
   </g>
   <g id="patch_124">
    <path d="M 316.282404 307.584 
L 317.039737 307.584 
L 317.039737 305.322896 
L 316.282404 305.322896 
z
" clip-path="url(#p4bf3895a7e)" style="fill: #1f77b4"/>
   </g>
   <g id="patch_125">
    <path d="M 321.002098 307.584 
L 321.759431 307.584 
L 321.759431 303.791814 
L 321.002098 303.791814 
z
" clip-path="url(#p4bf3895a7e)" style="fill: #1f77b4"/>
   </g>
   <g id="patch_126">
    <path d="M 321.954657 307.584 
L 322.71199 307.584 
L 322.71199 305.579739 
L 321.954657 305.579739 
z
" clip-path="url(#p4bf3895a7e)" style="fill: #1f77b4"/>
   </g>
   <g id="patch_127">
    <path d="M 322.875178 307.584 
L 323.632511 307.584 
L 323.632511 267.818064 
L 322.875178 267.818064 
z
" clip-path="url(#p4bf3895a7e)" style="fill: #1f77b4"/>
   </g>
   <g id="patch_128">
    <path d="M 322.910019 307.584 
L 323.667352 307.584 
L 323.667352 259.383141 
L 322.910019 259.383141 
z
" clip-path="url(#p4bf3895a7e)" style="fill: #1f77b4"/>
   </g>
   <g id="patch_129">
    <path d="M 323.825224 307.584 
L 324.582557 307.584 
L 324.582557 299.69672 
L 323.825224 299.69672 
z
" clip-path="url(#p4bf3895a7e)" style="fill: #1f77b4"/>
   </g>
   <g id="patch_130">
    <path d="M 323.861221 307.584 
L 324.618554 307.584 
L 324.618554 291.291723 
L 323.861221 291.291723 
z
" clip-path="url(#p4bf3895a7e)" style="fill: #1f77b4"/>
   </g>
   <g id="patch_131">
    <path d="M 336.177585 307.584 
L 336.934918 307.584 
L 336.934918 286.869812 
L 336.177585 286.869812 
z
" clip-path="url(#p4bf3895a7e)" style="fill: #1f77b4"/>
   </g>
   <g id="patch_132">
    <path d="M 337.127574 307.584 
L 337.884906 307.584 
L 337.884906 303.433607 
L 337.127574 303.433607 
z
" clip-path="url(#p4bf3895a7e)" style="fill: #1f77b4"/>
   </g>
   <g id="patch_133">
    <path d="M 338.017846 307.584 
L 338.775179 307.584 
L 338.775179 304.379151 
L 338.017846 304.379151 
z
" clip-path="url(#p4bf3895a7e)" style="fill: #1f77b4"/>
   </g>
   <g id="patch_134">
    <path d="M 338.085189 307.584 
L 338.842522 307.584 
L 338.842522 303.296014 
L 338.085189 303.296014 
z
" clip-path="url(#p4bf3895a7e)" style="fill: #1f77b4"/>
   </g>
   <g id="patch_135">
    <path d="M 338.971273 307.584 
L 339.728605 307.584 
L 339.728605 270.263316 
L 338.971273 270.263316 
z
" clip-path="url(#p4bf3895a7e)" style="fill: #1f77b4"/>
   </g>
   <g id="patch_136">
    <path d="M 339.925363 307.584 
L 340.682696 307.584 
L 340.682696 124.075711 
L 339.925363 124.075711 
z
" clip-path="url(#p4bf3895a7e)" style="fill: #1f77b4"/>
   </g>
   <g id="patch_137">
    <path d="M 339.959164 307.584 
L 340.716497 307.584 
L 340.716497 296.295934 
L 339.959164 296.295934 
z
" clip-path="url(#p4bf3895a7e)" style="fill: #1f77b4"/>
   </g>
   <g id="patch_138">
    <path d="M 340.875207 307.584 
L 341.63254 307.584 
L 341.63254 274.589008 
L 340.875207 274.589008 
z
" clip-path="url(#p4bf3895a7e)" style="fill: #1f77b4"/>
   </g>
   <g id="patch_139">
    <path d="M 340.909991 307.584 
L 341.667323 307.584 
L 341.667323 304.905714 
L 340.909991 304.905714 
z
" clip-path="url(#p4bf3895a7e)" style="fill: #1f77b4"/>
   </g>
   <g id="patch_140">
    <path d="M 355.136096 307.584 
L 355.893429 307.584 
L 355.893429 280.324904 
L 355.136096 280.324904 
z
" clip-path="url(#p4bf3895a7e)" style="fill: #1f77b4"/>
   </g>
   <g id="patch_141">
    <path d="M 356.021082 307.584 
L 356.778415 307.584 
L 356.778415 296.530383 
L 356.021082 296.530383 
z
" clip-path="url(#p4bf3895a7e)" style="fill: #1f77b4"/>
   </g>
   <g id="patch_142">
    <path d="M 356.085218 307.584 
L 356.842551 307.584 
L 356.842551 301.261971 
L 356.085218 301.261971 
z
" clip-path="url(#p4bf3895a7e)" style="fill: #1f77b4"/>
   </g>
   <g id="patch_143">
    <path d="M 356.974711 307.584 
L 357.732044 307.584 
L 357.732044 282.214857 
L 356.974711 282.214857 
z
" clip-path="url(#p4bf3895a7e)" style="fill: #1f77b4"/>
   </g>
   <g id="patch_144">
    <path d="M 357.924439 307.584 
L 358.681772 307.584 
L 358.681772 302.984002 
L 357.924439 302.984002 
z
" clip-path="url(#p4bf3895a7e)" style="fill: #1f77b4"/>
   </g>
   <g id="patch_145">
    <path d="M 362.681112 307.584 
L 363.438445 307.584 
L 363.438445 295.027087 
L 362.681112 295.027087 
z
" clip-path="url(#p4bf3895a7e)" style="fill: #1f77b4"/>
   </g>
   <g id="patch_146">
    <path d="M 363.629396 307.584 
L 364.386729 307.584 
L 364.386729 305.518607 
L 363.629396 305.518607 
z
" clip-path="url(#p4bf3895a7e)" style="fill: #1f77b4"/>
   </g>
   <g id="patch_147">
    <path d="M 377.820516 307.584 
L 378.577849 307.584 
L 378.577849 305.541798 
L 377.820516 305.541798 
z
" clip-path="url(#p4bf3895a7e)" style="fill: #1f77b4"/>
   </g>
   <g id="patch_148">
    <path d="M 379.729766 307.584 
L 380.487099 307.584 
L 380.487099 82.313005 
L 379.729766 82.313005 
z
" clip-path="url(#p4bf3895a7e)" style="fill: #1f77b4"/>
   </g>
   <g id="patch_149">
    <path d="M 380.679755 307.584 
L 381.437087 307.584 
L 381.437087 261.053357 
L 380.679755 261.053357 
z
" clip-path="url(#p4bf3895a7e)" style="fill: #1f77b4"/>
   </g>
   <g id="patch_150">
    <path d="M 395.82849 307.584 
L 396.585823 307.584 
L 396.585823 305.93148 
L 395.82849 305.93148 
z
" clip-path="url(#p4bf3895a7e)" style="fill: #1f77b4"/>
   </g>
   <g id="patch_151">
    <path d="M 396.779778 307.584 
L 397.537111 307.584 
L 397.537111 217.364081 
L 396.779778 217.364081 
z
" clip-path="url(#p4bf3895a7e)" style="fill: #1f77b4"/>
   </g>
   <g id="patch_152">
    <path d="M 397.72994 307.584 
L 398.487273 307.584 
L 398.487273 289.854578 
L 397.72994 289.854578 
z
" clip-path="url(#p4bf3895a7e)" style="fill: #1f77b4"/>
   </g>
   <g id="matplotlib.axis_1">
    <g id="xtick_1">
     <g id="line2d_1">
      <defs>
       <path id="m458940cdab" d="M 0 0 
L 0 3.5 
" style="stroke: #000000; stroke-width: 0.8"/>
      </defs>
      <g>
       <use xlink:href="#m458940cdab" x="71.334182" y="307.584" style="stroke: #000000; stroke-width: 0.8"/>
      </g>
     </g>
     <g id="text_1">
      <!-- 50 -->
      <g transform="translate(64.971682 322.182437) scale(0.1 -0.1)">
       <defs>
        <path id="DejaVuSans-35" d="M 691 4666 
L 3169 4666 
L 3169 4134 
L 1269 4134 
L 1269 2991 
Q 1406 3038 1543 3061 
Q 1681 3084 1819 3084 
Q 2600 3084 3056 2656 
Q 3513 2228 3513 1497 
Q 3513 744 3044 326 
Q 2575 -91 1722 -91 
Q 1428 -91 1123 -41 
Q 819 9 494 109 
L 494 744 
Q 775 591 1075 516 
Q 1375 441 1709 441 
Q 2250 441 2565 725 
Q 2881 1009 2881 1497 
Q 2881 1984 2565 2268 
Q 2250 2553 1709 2553 
Q 1456 2553 1204 2497 
Q 953 2441 691 2322 
L 691 4666 
z
" transform="scale(0.015625)"/>
        <path id="DejaVuSans-30" d="M 2034 4250 
Q 1547 4250 1301 3770 
Q 1056 3291 1056 2328 
Q 1056 1369 1301 889 
Q 1547 409 2034 409 
Q 2525 409 2770 889 
Q 3016 1369 3016 2328 
Q 3016 3291 2770 3770 
Q 2525 4250 2034 4250 
z
M 2034 4750 
Q 2819 4750 3233 4129 
Q 3647 3509 3647 2328 
Q 3647 1150 3233 529 
Q 2819 -91 2034 -91 
Q 1250 -91 836 529 
Q 422 1150 422 2328 
Q 422 3509 836 4129 
Q 1250 4750 2034 4750 
z
" transform="scale(0.015625)"/>
       </defs>
       <use xlink:href="#DejaVuSans-35"/>
       <use xlink:href="#DejaVuSans-30" x="63.623047"/>
      </g>
     </g>
    </g>
    <g id="xtick_2">
     <g id="line2d_2">
      <g>
       <use xlink:href="#m458940cdab" x="118.66748" y="307.584" style="stroke: #000000; stroke-width: 0.8"/>
      </g>
     </g>
     <g id="text_2">
      <!-- 100 -->
      <g transform="translate(109.12373 322.182437) scale(0.1 -0.1)">
       <defs>
        <path id="DejaVuSans-31" d="M 794 531 
L 1825 531 
L 1825 4091 
L 703 3866 
L 703 4441 
L 1819 4666 
L 2450 4666 
L 2450 531 
L 3481 531 
L 3481 0 
L 794 0 
L 794 531 
z
" transform="scale(0.015625)"/>
       </defs>
       <use xlink:href="#DejaVuSans-31"/>
       <use xlink:href="#DejaVuSans-30" x="63.623047"/>
       <use xlink:href="#DejaVuSans-30" x="127.246094"/>
      </g>
     </g>
    </g>
    <g id="xtick_3">
     <g id="line2d_3">
      <g>
       <use xlink:href="#m458940cdab" x="166.000778" y="307.584" style="stroke: #000000; stroke-width: 0.8"/>
      </g>
     </g>
     <g id="text_3">
      <!-- 150 -->
      <g transform="translate(156.457028 322.182437) scale(0.1 -0.1)">
       <use xlink:href="#DejaVuSans-31"/>
       <use xlink:href="#DejaVuSans-35" x="63.623047"/>
       <use xlink:href="#DejaVuSans-30" x="127.246094"/>
      </g>
     </g>
    </g>
    <g id="xtick_4">
     <g id="line2d_4">
      <g>
       <use xlink:href="#m458940cdab" x="213.334076" y="307.584" style="stroke: #000000; stroke-width: 0.8"/>
      </g>
     </g>
     <g id="text_4">
      <!-- 200 -->
      <g transform="translate(203.790326 322.182437) scale(0.1 -0.1)">
       <defs>
        <path id="DejaVuSans-32" d="M 1228 531 
L 3431 531 
L 3431 0 
L 469 0 
L 469 531 
Q 828 903 1448 1529 
Q 2069 2156 2228 2338 
Q 2531 2678 2651 2914 
Q 2772 3150 2772 3378 
Q 2772 3750 2511 3984 
Q 2250 4219 1831 4219 
Q 1534 4219 1204 4116 
Q 875 4013 500 3803 
L 500 4441 
Q 881 4594 1212 4672 
Q 1544 4750 1819 4750 
Q 2544 4750 2975 4387 
Q 3406 4025 3406 3419 
Q 3406 3131 3298 2873 
Q 3191 2616 2906 2266 
Q 2828 2175 2409 1742 
Q 1991 1309 1228 531 
z
" transform="scale(0.015625)"/>
       </defs>
       <use xlink:href="#DejaVuSans-32"/>
       <use xlink:href="#DejaVuSans-30" x="63.623047"/>
       <use xlink:href="#DejaVuSans-30" x="127.246094"/>
      </g>
     </g>
    </g>
    <g id="xtick_5">
     <g id="line2d_5">
      <g>
       <use xlink:href="#m458940cdab" x="260.667374" y="307.584" style="stroke: #000000; stroke-width: 0.8"/>
      </g>
     </g>
     <g id="text_5">
      <!-- 250 -->
      <g transform="translate(251.123624 322.182437) scale(0.1 -0.1)">
       <use xlink:href="#DejaVuSans-32"/>
       <use xlink:href="#DejaVuSans-35" x="63.623047"/>
       <use xlink:href="#DejaVuSans-30" x="127.246094"/>
      </g>
     </g>
    </g>
    <g id="xtick_6">
     <g id="line2d_6">
      <g>
       <use xlink:href="#m458940cdab" x="308.000672" y="307.584" style="stroke: #000000; stroke-width: 0.8"/>
      </g>
     </g>
     <g id="text_6">
      <!-- 300 -->
      <g transform="translate(298.456922 322.182437) scale(0.1 -0.1)">
       <defs>
        <path id="DejaVuSans-33" d="M 2597 2516 
Q 3050 2419 3304 2112 
Q 3559 1806 3559 1356 
Q 3559 666 3084 287 
Q 2609 -91 1734 -91 
Q 1441 -91 1130 -33 
Q 819 25 488 141 
L 488 750 
Q 750 597 1062 519 
Q 1375 441 1716 441 
Q 2309 441 2620 675 
Q 2931 909 2931 1356 
Q 2931 1769 2642 2001 
Q 2353 2234 1838 2234 
L 1294 2234 
L 1294 2753 
L 1863 2753 
Q 2328 2753 2575 2939 
Q 2822 3125 2822 3475 
Q 2822 3834 2567 4026 
Q 2313 4219 1838 4219 
Q 1578 4219 1281 4162 
Q 984 4106 628 3988 
L 628 4550 
Q 988 4650 1302 4700 
Q 1616 4750 1894 4750 
Q 2613 4750 3031 4423 
Q 3450 4097 3450 3541 
Q 3450 3153 3228 2886 
Q 3006 2619 2597 2516 
z
" transform="scale(0.015625)"/>
       </defs>
       <use xlink:href="#DejaVuSans-33"/>
       <use xlink:href="#DejaVuSans-30" x="63.623047"/>
       <use xlink:href="#DejaVuSans-30" x="127.246094"/>
      </g>
     </g>
    </g>
    <g id="xtick_7">
     <g id="line2d_7">
      <g>
       <use xlink:href="#m458940cdab" x="355.33397" y="307.584" style="stroke: #000000; stroke-width: 0.8"/>
      </g>
     </g>
     <g id="text_7">
      <!-- 350 -->
      <g transform="translate(345.79022 322.182437) scale(0.1 -0.1)">
       <use xlink:href="#DejaVuSans-33"/>
       <use xlink:href="#DejaVuSans-35" x="63.623047"/>
       <use xlink:href="#DejaVuSans-30" x="127.246094"/>
      </g>
     </g>
    </g>
    <g id="xtick_8">
     <g id="line2d_8">
      <g>
       <use xlink:href="#m458940cdab" x="402.667267" y="307.584" style="stroke: #000000; stroke-width: 0.8"/>
      </g>
     </g>
     <g id="text_8">
      <!-- 400 -->
      <g transform="translate(393.123517 322.182437) scale(0.1 -0.1)">
       <defs>
        <path id="DejaVuSans-34" d="M 2419 4116 
L 825 1625 
L 2419 1625 
L 2419 4116 
z
M 2253 4666 
L 3047 4666 
L 3047 1625 
L 3713 1625 
L 3713 1100 
L 3047 1100 
L 3047 0 
L 2419 0 
L 2419 1100 
L 313 1100 
L 313 1709 
L 2253 4666 
z
" transform="scale(0.015625)"/>
       </defs>
       <use xlink:href="#DejaVuSans-34"/>
       <use xlink:href="#DejaVuSans-30" x="63.623047"/>
       <use xlink:href="#DejaVuSans-30" x="127.246094"/>
      </g>
     </g>
    </g>
    <g id="text_9">
     <!-- ${m/z}$ -->
     <g transform="translate(226.96 335.860562) scale(0.1 -0.1)">
      <defs>
       <path id="DejaVuSans-Oblique-6d" d="M 5747 2113 
L 5338 0 
L 4763 0 
L 5166 2094 
Q 5191 2228 5203 2325 
Q 5216 2422 5216 2491 
Q 5216 2772 5059 2928 
Q 4903 3084 4622 3084 
Q 4203 3084 3875 2770 
Q 3547 2456 3450 1953 
L 3066 0 
L 2491 0 
L 2900 2094 
Q 2925 2209 2937 2307 
Q 2950 2406 2950 2484 
Q 2950 2769 2794 2926 
Q 2638 3084 2363 3084 
Q 1938 3084 1609 2770 
Q 1281 2456 1184 1953 
L 800 0 
L 225 0 
L 909 3500 
L 1484 3500 
L 1375 2956 
Q 1609 3263 1923 3423 
Q 2238 3584 2597 3584 
Q 2978 3584 3223 3384 
Q 3469 3184 3519 2828 
Q 3781 3197 4126 3390 
Q 4472 3584 4856 3584 
Q 5306 3584 5551 3325 
Q 5797 3066 5797 2591 
Q 5797 2488 5784 2364 
Q 5772 2241 5747 2113 
z
" transform="scale(0.015625)"/>
       <path id="DejaVuSans-2f" d="M 1625 4666 
L 2156 4666 
L 531 -594 
L 0 -594 
L 1625 4666 
z
" transform="scale(0.015625)"/>
       <path id="DejaVuSans-Oblique-7a" d="M 744 3500 
L 3475 3500 
L 3372 2975 
L 738 459 
L 2913 459 
L 2822 0 
L -19 0 
L 84 525 
L 2719 3041 
L 653 3041 
L 744 3500 
z
" transform="scale(0.015625)"/>
      </defs>
      <use xlink:href="#DejaVuSans-Oblique-6d" transform="translate(0 0.09375)"/>
      <use xlink:href="#DejaVuSans-2f" transform="translate(97.412109 0.09375)"/>
      <use xlink:href="#DejaVuSans-Oblique-7a" transform="translate(131.103516 0.09375)"/>
     </g>
    </g>
   </g>
   <g id="matplotlib.axis_2">
    <g id="ytick_1">
     <g id="line2d_9">
      <defs>
       <path id="m42e07d7ab6" d="M 0 0 
L -3.5 0 
" style="stroke: #000000; stroke-width: 0.8"/>
      </defs>
      <g>
       <use xlink:href="#m42e07d7ab6" x="57.6" y="307.584" style="stroke: #000000; stroke-width: 0.8"/>
      </g>
     </g>
     <g id="text_10">
      <!-- 0.0 -->
      <g transform="translate(34.696875 311.383219) scale(0.1 -0.1)">
       <defs>
        <path id="DejaVuSans-2e" d="M 684 794 
L 1344 794 
L 1344 0 
L 684 0 
L 684 794 
z
" transform="scale(0.015625)"/>
       </defs>
       <use xlink:href="#DejaVuSans-30"/>
       <use xlink:href="#DejaVuSans-2e" x="63.623047"/>
       <use xlink:href="#DejaVuSans-30" x="95.410156"/>
      </g>
     </g>
    </g>
    <g id="ytick_2">
     <g id="line2d_10">
      <g>
       <use xlink:href="#m42e07d7ab6" x="57.6" y="265.209684" style="stroke: #000000; stroke-width: 0.8"/>
      </g>
     </g>
     <g id="text_11">
      <!-- 0.5 -->
      <g transform="translate(34.696875 269.008903) scale(0.1 -0.1)">
       <use xlink:href="#DejaVuSans-30"/>
       <use xlink:href="#DejaVuSans-2e" x="63.623047"/>
       <use xlink:href="#DejaVuSans-35" x="95.410156"/>
      </g>
     </g>
    </g>
    <g id="ytick_3">
     <g id="line2d_11">
      <g>
       <use xlink:href="#m42e07d7ab6" x="57.6" y="222.835368" style="stroke: #000000; stroke-width: 0.8"/>
      </g>
     </g>
     <g id="text_12">
      <!-- 1.0 -->
      <g transform="translate(34.696875 226.634587) scale(0.1 -0.1)">
       <use xlink:href="#DejaVuSans-31"/>
       <use xlink:href="#DejaVuSans-2e" x="63.623047"/>
       <use xlink:href="#DejaVuSans-30" x="95.410156"/>
      </g>
     </g>
    </g>
    <g id="ytick_4">
     <g id="line2d_12">
      <g>
       <use xlink:href="#m42e07d7ab6" x="57.6" y="180.461052" style="stroke: #000000; stroke-width: 0.8"/>
      </g>
     </g>
     <g id="text_13">
      <!-- 1.5 -->
      <g transform="translate(34.696875 184.260271) scale(0.1 -0.1)">
       <use xlink:href="#DejaVuSans-31"/>
       <use xlink:href="#DejaVuSans-2e" x="63.623047"/>
       <use xlink:href="#DejaVuSans-35" x="95.410156"/>
      </g>
     </g>
    </g>
    <g id="ytick_5">
     <g id="line2d_13">
      <g>
       <use xlink:href="#m42e07d7ab6" x="57.6" y="138.086736" style="stroke: #000000; stroke-width: 0.8"/>
      </g>
     </g>
     <g id="text_14">
      <!-- 2.0 -->
      <g transform="translate(34.696875 141.885955) scale(0.1 -0.1)">
       <use xlink:href="#DejaVuSans-32"/>
       <use xlink:href="#DejaVuSans-2e" x="63.623047"/>
       <use xlink:href="#DejaVuSans-30" x="95.410156"/>
      </g>
     </g>
    </g>
    <g id="ytick_6">
     <g id="line2d_14">
      <g>
       <use xlink:href="#m42e07d7ab6" x="57.6" y="95.71242" style="stroke: #000000; stroke-width: 0.8"/>
      </g>
     </g>
     <g id="text_15">
      <!-- 2.5 -->
      <g transform="translate(34.696875 99.511639) scale(0.1 -0.1)">
       <use xlink:href="#DejaVuSans-32"/>
       <use xlink:href="#DejaVuSans-2e" x="63.623047"/>
       <use xlink:href="#DejaVuSans-35" x="95.410156"/>
      </g>
     </g>
    </g>
    <g id="ytick_7">
     <g id="line2d_15">
      <g>
       <use xlink:href="#m42e07d7ab6" x="57.6" y="53.338104" style="stroke: #000000; stroke-width: 0.8"/>
      </g>
     </g>
     <g id="text_16">
      <!-- 3.0 -->
      <g transform="translate(34.696875 57.137323) scale(0.1 -0.1)">
       <use xlink:href="#DejaVuSans-33"/>
       <use xlink:href="#DejaVuSans-2e" x="63.623047"/>
       <use xlink:href="#DejaVuSans-30" x="95.410156"/>
      </g>
     </g>
    </g>
    <g id="text_17">
     <!-- intensities -->
     <g transform="translate(28.617187 200.3155) rotate(-90) scale(0.1 -0.1)">
      <defs>
       <path id="DejaVuSans-69" d="M 603 3500 
L 1178 3500 
L 1178 0 
L 603 0 
L 603 3500 
z
M 603 4863 
L 1178 4863 
L 1178 4134 
L 603 4134 
L 603 4863 
z
" transform="scale(0.015625)"/>
       <path id="DejaVuSans-6e" d="M 3513 2113 
L 3513 0 
L 2938 0 
L 2938 2094 
Q 2938 2591 2744 2837 
Q 2550 3084 2163 3084 
Q 1697 3084 1428 2787 
Q 1159 2491 1159 1978 
L 1159 0 
L 581 0 
L 581 3500 
L 1159 3500 
L 1159 2956 
Q 1366 3272 1645 3428 
Q 1925 3584 2291 3584 
Q 2894 3584 3203 3211 
Q 3513 2838 3513 2113 
z
" transform="scale(0.015625)"/>
       <path id="DejaVuSans-74" d="M 1172 4494 
L 1172 3500 
L 2356 3500 
L 2356 3053 
L 1172 3053 
L 1172 1153 
Q 1172 725 1289 603 
Q 1406 481 1766 481 
L 2356 481 
L 2356 0 
L 1766 0 
Q 1100 0 847 248 
Q 594 497 594 1153 
L 594 3053 
L 172 3053 
L 172 3500 
L 594 3500 
L 594 4494 
L 1172 4494 
z
" transform="scale(0.015625)"/>
       <path id="DejaVuSans-65" d="M 3597 1894 
L 3597 1613 
L 953 1613 
Q 991 1019 1311 708 
Q 1631 397 2203 397 
Q 2534 397 2845 478 
Q 3156 559 3463 722 
L 3463 178 
Q 3153 47 2828 -22 
Q 2503 -91 2169 -91 
Q 1331 -91 842 396 
Q 353 884 353 1716 
Q 353 2575 817 3079 
Q 1281 3584 2069 3584 
Q 2775 3584 3186 3129 
Q 3597 2675 3597 1894 
z
M 3022 2063 
Q 3016 2534 2758 2815 
Q 2500 3097 2075 3097 
Q 1594 3097 1305 2825 
Q 1016 2553 972 2059 
L 3022 2063 
z
" transform="scale(0.015625)"/>
       <path id="DejaVuSans-73" d="M 2834 3397 
L 2834 2853 
Q 2591 2978 2328 3040 
Q 2066 3103 1784 3103 
Q 1356 3103 1142 2972 
Q 928 2841 928 2578 
Q 928 2378 1081 2264 
Q 1234 2150 1697 2047 
L 1894 2003 
Q 2506 1872 2764 1633 
Q 3022 1394 3022 966 
Q 3022 478 2636 193 
Q 2250 -91 1575 -91 
Q 1294 -91 989 -36 
Q 684 19 347 128 
L 347 722 
Q 666 556 975 473 
Q 1284 391 1588 391 
Q 1994 391 2212 530 
Q 2431 669 2431 922 
Q 2431 1156 2273 1281 
Q 2116 1406 1581 1522 
L 1381 1569 
Q 847 1681 609 1914 
Q 372 2147 372 2553 
Q 372 3047 722 3315 
Q 1072 3584 1716 3584 
Q 2034 3584 2315 3537 
Q 2597 3491 2834 3397 
z
" transform="scale(0.015625)"/>
      </defs>
      <use xlink:href="#DejaVuSans-69"/>
      <use xlink:href="#DejaVuSans-6e" x="27.783203"/>
      <use xlink:href="#DejaVuSans-74" x="91.162109"/>
      <use xlink:href="#DejaVuSans-65" x="130.371094"/>
      <use xlink:href="#DejaVuSans-6e" x="191.894531"/>
      <use xlink:href="#DejaVuSans-73" x="255.273438"/>
      <use xlink:href="#DejaVuSans-69" x="307.373047"/>
      <use xlink:href="#DejaVuSans-74" x="335.15625"/>
      <use xlink:href="#DejaVuSans-69" x="374.365234"/>
      <use xlink:href="#DejaVuSans-65" x="402.148438"/>
      <use xlink:href="#DejaVuSans-73" x="463.671875"/>
     </g>
    </g>
    <g id="text_18">
     <!-- 1e6 -->
     <g transform="translate(57.6 38.472) scale(0.1 -0.1)">
      <defs>
       <path id="DejaVuSans-36" d="M 2113 2584 
Q 1688 2584 1439 2293 
Q 1191 2003 1191 1497 
Q 1191 994 1439 701 
Q 1688 409 2113 409 
Q 2538 409 2786 701 
Q 3034 994 3034 1497 
Q 3034 2003 2786 2293 
Q 2538 2584 2113 2584 
z
M 3366 4563 
L 3366 3988 
Q 3128 4100 2886 4159 
Q 2644 4219 2406 4219 
Q 1781 4219 1451 3797 
Q 1122 3375 1075 2522 
Q 1259 2794 1537 2939 
Q 1816 3084 2150 3084 
Q 2853 3084 3261 2657 
Q 3669 2231 3669 1497 
Q 3669 778 3244 343 
Q 2819 -91 2113 -91 
Q 1303 -91 875 529 
Q 447 1150 447 2328 
Q 447 3434 972 4092 
Q 1497 4750 2381 4750 
Q 2619 4750 2861 4703 
Q 3103 4656 3366 4563 
z
" transform="scale(0.015625)"/>
      </defs>
      <use xlink:href="#DejaVuSans-31"/>
      <use xlink:href="#DejaVuSans-65" x="63.623047"/>
      <use xlink:href="#DejaVuSans-36" x="125.146484"/>
     </g>
    </g>
   </g>
   <g id="patch_153">
    <path d="M 57.6 307.584 
L 57.6 41.472 
" style="fill: none; stroke: #000000; stroke-width: 0.8; stroke-linejoin: miter; stroke-linecap: square"/>
   </g>
   <g id="patch_154">
    <path d="M 414.72 307.584 
L 414.72 41.472 
" style="fill: none; stroke: #000000; stroke-width: 0.8; stroke-linejoin: miter; stroke-linecap: square"/>
   </g>
   <g id="patch_155">
    <path d="M 57.6 307.584 
L 414.72 307.584 
" style="fill: none; stroke: #000000; stroke-width: 0.8; stroke-linejoin: miter; stroke-linecap: square"/>
   </g>
   <g id="patch_156">
    <path d="M 57.6 41.472 
L 414.72 41.472 
" style="fill: none; stroke: #000000; stroke-width: 0.8; stroke-linejoin: miter; stroke-linecap: square"/>
   </g>
   <g id="text_19">
    <!-- 71.0135 -->
    <g transform="translate(84.581013 195.879416) scale(0.06 -0.06)">
     <defs>
      <path id="DejaVuSans-37" d="M 525 4666 
L 3525 4666 
L 3525 4397 
L 1831 0 
L 1172 0 
L 2766 4134 
L 525 4134 
L 525 4666 
z
" transform="scale(0.015625)"/>
     </defs>
     <use xlink:href="#DejaVuSans-37"/>
     <use xlink:href="#DejaVuSans-31" x="63.623047"/>
     <use xlink:href="#DejaVuSans-2e" x="127.246094"/>
     <use xlink:href="#DejaVuSans-30" x="159.033203"/>
     <use xlink:href="#DejaVuSans-31" x="222.65625"/>
     <use xlink:href="#DejaVuSans-33" x="286.279297"/>
     <use xlink:href="#DejaVuSans-35" x="349.902344"/>
    </g>
   </g>
   <g id="text_20">
    <!-- 81.0341 -->
    <g transform="translate(94.067188 232.05393) scale(0.06 -0.06)">
     <defs>
      <path id="DejaVuSans-38" d="M 2034 2216 
Q 1584 2216 1326 1975 
Q 1069 1734 1069 1313 
Q 1069 891 1326 650 
Q 1584 409 2034 409 
Q 2484 409 2743 651 
Q 3003 894 3003 1313 
Q 3003 1734 2745 1975 
Q 2488 2216 2034 2216 
z
M 1403 2484 
Q 997 2584 770 2862 
Q 544 3141 544 3541 
Q 544 4100 942 4425 
Q 1341 4750 2034 4750 
Q 2731 4750 3128 4425 
Q 3525 4100 3525 3541 
Q 3525 3141 3298 2862 
Q 3072 2584 2669 2484 
Q 3125 2378 3379 2068 
Q 3634 1759 3634 1313 
Q 3634 634 3220 271 
Q 2806 -91 2034 -91 
Q 1263 -91 848 271 
Q 434 634 434 1313 
Q 434 1759 690 2068 
Q 947 2378 1403 2484 
z
M 1172 3481 
Q 1172 3119 1398 2916 
Q 1625 2713 2034 2713 
Q 2441 2713 2670 2916 
Q 2900 3119 2900 3481 
Q 2900 3844 2670 4047 
Q 2441 4250 2034 4250 
Q 1625 4250 1398 4047 
Q 1172 3844 1172 3481 
z
" transform="scale(0.015625)"/>
     </defs>
     <use xlink:href="#DejaVuSans-38"/>
     <use xlink:href="#DejaVuSans-31" x="63.623047"/>
     <use xlink:href="#DejaVuSans-2e" x="127.246094"/>
     <use xlink:href="#DejaVuSans-30" x="159.033203"/>
     <use xlink:href="#DejaVuSans-33" x="222.65625"/>
     <use xlink:href="#DejaVuSans-34" x="286.279297"/>
     <use xlink:href="#DejaVuSans-31" x="349.902344"/>
    </g>
   </g>
   <g id="text_21">
    <!-- 89.0239 -->
    <g transform="translate(101.630816 239.09987) scale(0.06 -0.06)">
     <defs>
      <path id="DejaVuSans-39" d="M 703 97 
L 703 672 
Q 941 559 1184 500 
Q 1428 441 1663 441 
Q 2288 441 2617 861 
Q 2947 1281 2994 2138 
Q 2813 1869 2534 1725 
Q 2256 1581 1919 1581 
Q 1219 1581 811 2004 
Q 403 2428 403 3163 
Q 403 3881 828 4315 
Q 1253 4750 1959 4750 
Q 2769 4750 3195 4129 
Q 3622 3509 3622 2328 
Q 3622 1225 3098 567 
Q 2575 -91 1691 -91 
Q 1453 -91 1209 -44 
Q 966 3 703 97 
z
M 1959 2075 
Q 2384 2075 2632 2365 
Q 2881 2656 2881 3163 
Q 2881 3666 2632 3958 
Q 2384 4250 1959 4250 
Q 1534 4250 1286 3958 
Q 1038 3666 1038 3163 
Q 1038 2656 1286 2365 
Q 1534 2075 1959 2075 
z
" transform="scale(0.015625)"/>
     </defs>
     <use xlink:href="#DejaVuSans-38"/>
     <use xlink:href="#DejaVuSans-39" x="63.623047"/>
     <use xlink:href="#DejaVuSans-2e" x="127.246094"/>
     <use xlink:href="#DejaVuSans-30" x="159.033203"/>
     <use xlink:href="#DejaVuSans-32" x="222.65625"/>
     <use xlink:href="#DejaVuSans-33" x="286.279297"/>
     <use xlink:href="#DejaVuSans-39" x="349.902344"/>
    </g>
   </g>
   <g id="text_22">
    <!-- 211.0789 -->
    <g transform="translate(216.707394 246.984735) scale(0.06 -0.06)">
     <use xlink:href="#DejaVuSans-32"/>
     <use xlink:href="#DejaVuSans-31" x="63.623047"/>
     <use xlink:href="#DejaVuSans-31" x="127.246094"/>
     <use xlink:href="#DejaVuSans-2e" x="190.869141"/>
     <use xlink:href="#DejaVuSans-30" x="222.65625"/>
     <use xlink:href="#DejaVuSans-37" x="286.279297"/>
     <use xlink:href="#DejaVuSans-38" x="349.902344"/>
     <use xlink:href="#DejaVuSans-39" x="413.525391"/>
    </g>
   </g>
   <g id="text_23">
    <!-- 212.0866 -->
    <g transform="translate(217.661369 283.532572) scale(0.06 -0.06)">
     <use xlink:href="#DejaVuSans-32"/>
     <use xlink:href="#DejaVuSans-31" x="63.623047"/>
     <use xlink:href="#DejaVuSans-32" x="127.246094"/>
     <use xlink:href="#DejaVuSans-2e" x="190.869141"/>
     <use xlink:href="#DejaVuSans-30" x="222.65625"/>
     <use xlink:href="#DejaVuSans-38" x="286.279297"/>
     <use xlink:href="#DejaVuSans-36" x="349.902344"/>
     <use xlink:href="#DejaVuSans-36" x="413.525391"/>
    </g>
   </g>
   <g id="text_24">
    <!-- 222.0704 -->
    <g transform="translate(207.672732 275.226602) scale(0.06 -0.06)">
     <use xlink:href="#DejaVuSans-32"/>
     <use xlink:href="#DejaVuSans-32" x="63.623047"/>
     <use xlink:href="#DejaVuSans-32" x="127.246094"/>
     <use xlink:href="#DejaVuSans-2e" x="190.869141"/>
     <use xlink:href="#DejaVuSans-30" x="222.65625"/>
     <use xlink:href="#DejaVuSans-37" x="286.279297"/>
     <use xlink:href="#DejaVuSans-30" x="349.902344"/>
     <use xlink:href="#DejaVuSans-34" x="413.525391"/>
    </g>
   </g>
   <g id="text_25">
    <!-- 224.0866 -->
    <g transform="translate(230.74766 267.893789) scale(0.06 -0.06)">
     <use xlink:href="#DejaVuSans-32"/>
     <use xlink:href="#DejaVuSans-32" x="63.623047"/>
     <use xlink:href="#DejaVuSans-34" x="127.246094"/>
     <use xlink:href="#DejaVuSans-2e" x="190.869141"/>
     <use xlink:href="#DejaVuSans-30" x="222.65625"/>
     <use xlink:href="#DejaVuSans-38" x="286.279297"/>
     <use xlink:href="#DejaVuSans-36" x="349.902344"/>
     <use xlink:href="#DejaVuSans-36" x="413.525391"/>
    </g>
   </g>
   <g id="text_26">
    <!-- 235.0789 -->
    <g transform="translate(239.427363 220.534353) scale(0.06 -0.06)">
     <use xlink:href="#DejaVuSans-32"/>
     <use xlink:href="#DejaVuSans-33" x="63.623047"/>
     <use xlink:href="#DejaVuSans-35" x="127.246094"/>
     <use xlink:href="#DejaVuSans-2e" x="190.869141"/>
     <use xlink:href="#DejaVuSans-30" x="222.65625"/>
     <use xlink:href="#DejaVuSans-37" x="286.279297"/>
     <use xlink:href="#DejaVuSans-38" x="349.902344"/>
     <use xlink:href="#DejaVuSans-39" x="413.525391"/>
    </g>
   </g>
   <g id="text_27">
    <!-- 236.0861 -->
    <g transform="translate(231.020832 259.638975) scale(0.06 -0.06)">
     <use xlink:href="#DejaVuSans-32"/>
     <use xlink:href="#DejaVuSans-33" x="63.623047"/>
     <use xlink:href="#DejaVuSans-36" x="127.246094"/>
     <use xlink:href="#DejaVuSans-2e" x="190.869141"/>
     <use xlink:href="#DejaVuSans-30" x="222.65625"/>
     <use xlink:href="#DejaVuSans-38" x="286.279297"/>
     <use xlink:href="#DejaVuSans-36" x="349.902344"/>
     <use xlink:href="#DejaVuSans-31" x="413.525391"/>
    </g>
   </g>
   <g id="text_28">
    <!-- 248.0867 -->
    <g transform="translate(251.741416 89.537966) scale(0.06 -0.06)">
     <use xlink:href="#DejaVuSans-32"/>
     <use xlink:href="#DejaVuSans-34" x="63.623047"/>
     <use xlink:href="#DejaVuSans-38" x="127.246094"/>
     <use xlink:href="#DejaVuSans-2e" x="190.869141"/>
     <use xlink:href="#DejaVuSans-30" x="222.65625"/>
     <use xlink:href="#DejaVuSans-38" x="286.279297"/>
     <use xlink:href="#DejaVuSans-36" x="349.902344"/>
     <use xlink:href="#DejaVuSans-37" x="413.525391"/>
    </g>
   </g>
   <g id="text_29">
    <!-- 249.092 -->
    <g transform="translate(245.241873 250.663502) scale(0.06 -0.06)">
     <use xlink:href="#DejaVuSans-32"/>
     <use xlink:href="#DejaVuSans-34" x="63.623047"/>
     <use xlink:href="#DejaVuSans-39" x="127.246094"/>
     <use xlink:href="#DejaVuSans-2e" x="190.869141"/>
     <use xlink:href="#DejaVuSans-30" x="222.65625"/>
     <use xlink:href="#DejaVuSans-39" x="286.279297"/>
     <use xlink:href="#DejaVuSans-32" x="349.902344"/>
    </g>
   </g>
   <g id="text_30">
    <!-- 250.1021 -->
    <g transform="translate(253.649352 232.402282) scale(0.06 -0.06)">
     <use xlink:href="#DejaVuSans-32"/>
     <use xlink:href="#DejaVuSans-35" x="63.623047"/>
     <use xlink:href="#DejaVuSans-30" x="127.246094"/>
     <use xlink:href="#DejaVuSans-2e" x="190.869141"/>
     <use xlink:href="#DejaVuSans-31" x="222.65625"/>
     <use xlink:href="#DejaVuSans-30" x="286.279297"/>
     <use xlink:href="#DejaVuSans-32" x="349.902344"/>
     <use xlink:href="#DejaVuSans-31" x="413.525391"/>
    </g>
   </g>
   <g id="text_31">
    <!-- 253.126 -->
    <g transform="translate(271.380677 240.729591) scale(0.06 -0.06)">
     <use xlink:href="#DejaVuSans-32"/>
     <use xlink:href="#DejaVuSans-35" x="63.623047"/>
     <use xlink:href="#DejaVuSans-33" x="127.246094"/>
     <use xlink:href="#DejaVuSans-2e" x="190.869141"/>
     <use xlink:href="#DejaVuSans-31" x="222.65625"/>
     <use xlink:href="#DejaVuSans-32" x="286.279297"/>
     <use xlink:href="#DejaVuSans-36" x="349.902344"/>
    </g>
   </g>
   <g id="text_32">
    <!-- 254.1328 -->
    <g transform="translate(257.465094 280.883743) scale(0.06 -0.06)">
     <use xlink:href="#DejaVuSans-32"/>
     <use xlink:href="#DejaVuSans-35" x="63.623047"/>
     <use xlink:href="#DejaVuSans-34" x="127.246094"/>
     <use xlink:href="#DejaVuSans-2e" x="190.869141"/>
     <use xlink:href="#DejaVuSans-31" x="222.65625"/>
     <use xlink:href="#DejaVuSans-33" x="286.279297"/>
     <use xlink:href="#DejaVuSans-32" x="349.902344"/>
     <use xlink:href="#DejaVuSans-38" x="413.525391"/>
    </g>
   </g>
   <g id="text_33">
    <!-- 262.1022 -->
    <g transform="translate(265.009401 220.476851) scale(0.06 -0.06)">
     <use xlink:href="#DejaVuSans-32"/>
     <use xlink:href="#DejaVuSans-36" x="63.623047"/>
     <use xlink:href="#DejaVuSans-32" x="127.246094"/>
     <use xlink:href="#DejaVuSans-2e" x="190.869141"/>
     <use xlink:href="#DejaVuSans-31" x="222.65625"/>
     <use xlink:href="#DejaVuSans-30" x="286.279297"/>
     <use xlink:href="#DejaVuSans-32" x="349.902344"/>
     <use xlink:href="#DejaVuSans-32" x="413.525391"/>
    </g>
   </g>
   <g id="text_34">
    <!-- 264.1179 -->
    <g transform="translate(266.917611 172.20211) scale(0.06 -0.06)">
     <use xlink:href="#DejaVuSans-32"/>
     <use xlink:href="#DejaVuSans-36" x="63.623047"/>
     <use xlink:href="#DejaVuSans-34" x="127.246094"/>
     <use xlink:href="#DejaVuSans-2e" x="190.869141"/>
     <use xlink:href="#DejaVuSans-31" x="222.65625"/>
     <use xlink:href="#DejaVuSans-31" x="286.279297"/>
     <use xlink:href="#DejaVuSans-37" x="349.902344"/>
     <use xlink:href="#DejaVuSans-39" x="413.525391"/>
    </g>
   </g>
   <g id="text_35">
    <!-- 273.0938 -->
    <g transform="translate(275.414811 272.906643) scale(0.06 -0.06)">
     <use xlink:href="#DejaVuSans-32"/>
     <use xlink:href="#DejaVuSans-37" x="63.623047"/>
     <use xlink:href="#DejaVuSans-33" x="127.246094"/>
     <use xlink:href="#DejaVuSans-2e" x="190.869141"/>
     <use xlink:href="#DejaVuSans-30" x="222.65625"/>
     <use xlink:href="#DejaVuSans-39" x="286.279297"/>
     <use xlink:href="#DejaVuSans-33" x="349.902344"/>
     <use xlink:href="#DejaVuSans-38" x="413.525391"/>
    </g>
   </g>
   <g id="text_36">
    <!-- 274.1021 -->
    <g transform="translate(276.369364 111.435557) scale(0.06 -0.06)">
     <use xlink:href="#DejaVuSans-32"/>
     <use xlink:href="#DejaVuSans-37" x="63.623047"/>
     <use xlink:href="#DejaVuSans-34" x="127.246094"/>
     <use xlink:href="#DejaVuSans-2e" x="190.869141"/>
     <use xlink:href="#DejaVuSans-31" x="222.65625"/>
     <use xlink:href="#DejaVuSans-30" x="286.279297"/>
     <use xlink:href="#DejaVuSans-32" x="349.902344"/>
     <use xlink:href="#DejaVuSans-31" x="413.525391"/>
    </g>
   </g>
   <g id="text_37">
    <!-- 275.1073 -->
    <g transform="translate(273.077098 256.063691) scale(0.06 -0.06)">
     <use xlink:href="#DejaVuSans-32"/>
     <use xlink:href="#DejaVuSans-37" x="63.623047"/>
     <use xlink:href="#DejaVuSans-35" x="127.246094"/>
     <use xlink:href="#DejaVuSans-2e" x="190.869141"/>
     <use xlink:href="#DejaVuSans-31" x="222.65625"/>
     <use xlink:href="#DejaVuSans-30" x="286.279297"/>
     <use xlink:href="#DejaVuSans-37" x="349.902344"/>
     <use xlink:href="#DejaVuSans-33" x="413.525391"/>
    </g>
   </g>
   <g id="text_38">
    <!-- 277.1257 -->
    <g transform="translate(295.071636 248.8254) scale(0.06 -0.06)">
     <use xlink:href="#DejaVuSans-32"/>
     <use xlink:href="#DejaVuSans-37" x="63.623047"/>
     <use xlink:href="#DejaVuSans-37" x="127.246094"/>
     <use xlink:href="#DejaVuSans-2e" x="190.869141"/>
     <use xlink:href="#DejaVuSans-31" x="222.65625"/>
     <use xlink:href="#DejaVuSans-32" x="286.279297"/>
     <use xlink:href="#DejaVuSans-35" x="349.902344"/>
     <use xlink:href="#DejaVuSans-37" x="413.525391"/>
    </g>
   </g>
   <g id="text_39">
    <!-- 288.1178 -->
    <g transform="translate(289.637508 200.519096) scale(0.06 -0.06)">
     <use xlink:href="#DejaVuSans-32"/>
     <use xlink:href="#DejaVuSans-38" x="63.623047"/>
     <use xlink:href="#DejaVuSans-38" x="127.246094"/>
     <use xlink:href="#DejaVuSans-2e" x="190.869141"/>
     <use xlink:href="#DejaVuSans-31" x="222.65625"/>
     <use xlink:href="#DejaVuSans-31" x="286.279297"/>
     <use xlink:href="#DejaVuSans-37" x="349.902344"/>
     <use xlink:href="#DejaVuSans-38" x="413.525391"/>
    </g>
   </g>
   <g id="text_40">
    <!-- 290.1335 -->
    <g transform="translate(291.545689 50.939625) scale(0.06 -0.06)">
     <use xlink:href="#DejaVuSans-32"/>
     <use xlink:href="#DejaVuSans-39" x="63.623047"/>
     <use xlink:href="#DejaVuSans-30" x="127.246094"/>
     <use xlink:href="#DejaVuSans-2e" x="190.869141"/>
     <use xlink:href="#DejaVuSans-31" x="222.65625"/>
     <use xlink:href="#DejaVuSans-33" x="286.279297"/>
     <use xlink:href="#DejaVuSans-33" x="349.902344"/>
     <use xlink:href="#DejaVuSans-35" x="413.525391"/>
    </g>
   </g>
   <g id="text_41">
    <!-- 291.1367 -->
    <g transform="translate(273.775417 261.491435) scale(0.06 -0.06)">
     <use xlink:href="#DejaVuSans-32"/>
     <use xlink:href="#DejaVuSans-39" x="63.623047"/>
     <use xlink:href="#DejaVuSans-31" x="127.246094"/>
     <use xlink:href="#DejaVuSans-2e" x="190.869141"/>
     <use xlink:href="#DejaVuSans-31" x="222.65625"/>
     <use xlink:href="#DejaVuSans-33" x="286.279297"/>
     <use xlink:href="#DejaVuSans-36" x="349.902344"/>
     <use xlink:href="#DejaVuSans-37" x="413.525391"/>
    </g>
   </g>
   <g id="text_42">
    <!-- 292.1491 -->
    <g transform="translate(293.453813 280.205055) scale(0.06 -0.06)">
     <use xlink:href="#DejaVuSans-32"/>
     <use xlink:href="#DejaVuSans-39" x="63.623047"/>
     <use xlink:href="#DejaVuSans-32" x="127.246094"/>
     <use xlink:href="#DejaVuSans-2e" x="190.869141"/>
     <use xlink:href="#DejaVuSans-31" x="222.65625"/>
     <use xlink:href="#DejaVuSans-34" x="286.279297"/>
     <use xlink:href="#DejaVuSans-39" x="349.902344"/>
     <use xlink:href="#DejaVuSans-31" x="413.525391"/>
    </g>
   </g>
   <g id="text_43">
    <!-- 306.1647 -->
    <g transform="translate(317.521899 194.495804) scale(0.06 -0.06)">
     <use xlink:href="#DejaVuSans-33"/>
     <use xlink:href="#DejaVuSans-30" x="63.623047"/>
     <use xlink:href="#DejaVuSans-36" x="127.246094"/>
     <use xlink:href="#DejaVuSans-2e" x="190.869141"/>
     <use xlink:href="#DejaVuSans-31" x="222.65625"/>
     <use xlink:href="#DejaVuSans-36" x="286.279297"/>
     <use xlink:href="#DejaVuSans-34" x="349.902344"/>
     <use xlink:href="#DejaVuSans-37" x="413.525391"/>
    </g>
   </g>
   <g id="text_44">
    <!-- 316.1125 -->
    <g transform="translate(303.179157 266.953689) scale(0.06 -0.06)">
     <use xlink:href="#DejaVuSans-33"/>
     <use xlink:href="#DejaVuSans-31" x="63.623047"/>
     <use xlink:href="#DejaVuSans-36" x="127.246094"/>
     <use xlink:href="#DejaVuSans-2e" x="190.869141"/>
     <use xlink:href="#DejaVuSans-31" x="222.65625"/>
     <use xlink:href="#DejaVuSans-31" x="286.279297"/>
     <use xlink:href="#DejaVuSans-32" x="349.902344"/>
     <use xlink:href="#DejaVuSans-35" x="413.525391"/>
    </g>
   </g>
   <g id="text_45">
    <!-- 316.1493 -->
    <g transform="translate(321.933998 255.638766) scale(0.06 -0.06)">
     <use xlink:href="#DejaVuSans-33"/>
     <use xlink:href="#DejaVuSans-31" x="63.623047"/>
     <use xlink:href="#DejaVuSans-36" x="127.246094"/>
     <use xlink:href="#DejaVuSans-2e" x="190.869141"/>
     <use xlink:href="#DejaVuSans-31" x="222.65625"/>
     <use xlink:href="#DejaVuSans-34" x="286.279297"/>
     <use xlink:href="#DejaVuSans-39" x="349.902344"/>
     <use xlink:href="#DejaVuSans-33" x="413.525391"/>
    </g>
   </g>
   <g id="text_46">
    <!-- 333.1154 -->
    <g transform="translate(340.155251 262.198941) scale(0.06 -0.06)">
     <use xlink:href="#DejaVuSans-33"/>
     <use xlink:href="#DejaVuSans-33" x="63.623047"/>
     <use xlink:href="#DejaVuSans-33" x="127.246094"/>
     <use xlink:href="#DejaVuSans-2e" x="190.869141"/>
     <use xlink:href="#DejaVuSans-31" x="222.65625"/>
     <use xlink:href="#DejaVuSans-31" x="286.279297"/>
     <use xlink:href="#DejaVuSans-35" x="349.902344"/>
     <use xlink:href="#DejaVuSans-34" x="413.525391"/>
    </g>
   </g>
   <g id="text_47">
    <!-- 334.1233 -->
    <g transform="translate(333.189342 120.871336) scale(0.06 -0.06)">
     <use xlink:href="#DejaVuSans-33"/>
     <use xlink:href="#DejaVuSans-33" x="63.623047"/>
     <use xlink:href="#DejaVuSans-34" x="127.246094"/>
     <use xlink:href="#DejaVuSans-2e" x="190.869141"/>
     <use xlink:href="#DejaVuSans-31" x="222.65625"/>
     <use xlink:href="#DejaVuSans-32" x="286.279297"/>
     <use xlink:href="#DejaVuSans-33" x="349.902344"/>
     <use xlink:href="#DejaVuSans-33" x="413.525391"/>
    </g>
   </g>
   <g id="text_48">
    <!-- 335.1266 -->
    <g transform="translate(338.459186 269.404633) scale(0.06 -0.06)">
     <use xlink:href="#DejaVuSans-33"/>
     <use xlink:href="#DejaVuSans-33" x="63.623047"/>
     <use xlink:href="#DejaVuSans-35" x="127.246094"/>
     <use xlink:href="#DejaVuSans-2e" x="190.869141"/>
     <use xlink:href="#DejaVuSans-31" x="222.65625"/>
     <use xlink:href="#DejaVuSans-32" x="286.279297"/>
     <use xlink:href="#DejaVuSans-36" x="349.902344"/>
     <use xlink:href="#DejaVuSans-36" x="413.525391"/>
    </g>
   </g>
   <g id="text_49">
    <!-- 350.191 -->
    <g transform="translate(348.868825 278.269319) scale(0.06 -0.06)">
     <use xlink:href="#DejaVuSans-33"/>
     <use xlink:href="#DejaVuSans-35" x="63.623047"/>
     <use xlink:href="#DejaVuSans-30" x="127.246094"/>
     <use xlink:href="#DejaVuSans-2e" x="190.869141"/>
     <use xlink:href="#DejaVuSans-31" x="222.65625"/>
     <use xlink:href="#DejaVuSans-39" x="286.279297"/>
     <use xlink:href="#DejaVuSans-31" x="349.902344"/>
    </g>
   </g>
   <g id="text_50">
    <!-- 352.1332 -->
    <g transform="translate(350.23869 287.110482) scale(0.06 -0.06)">
     <use xlink:href="#DejaVuSans-33"/>
     <use xlink:href="#DejaVuSans-35" x="63.623047"/>
     <use xlink:href="#DejaVuSans-32" x="127.246094"/>
     <use xlink:href="#DejaVuSans-2e" x="190.869141"/>
     <use xlink:href="#DejaVuSans-31" x="222.65625"/>
     <use xlink:href="#DejaVuSans-33" x="286.279297"/>
     <use xlink:href="#DejaVuSans-33" x="349.902344"/>
     <use xlink:href="#DejaVuSans-32" x="413.525391"/>
    </g>
   </g>
   <g id="text_51">
    <!-- 376.1702 -->
    <g transform="translate(372.993745 79.10863) scale(0.06 -0.06)">
     <use xlink:href="#DejaVuSans-33"/>
     <use xlink:href="#DejaVuSans-37" x="63.623047"/>
     <use xlink:href="#DejaVuSans-36" x="127.246094"/>
     <use xlink:href="#DejaVuSans-2e" x="190.869141"/>
     <use xlink:href="#DejaVuSans-31" x="222.65625"/>
     <use xlink:href="#DejaVuSans-37" x="286.279297"/>
     <use xlink:href="#DejaVuSans-30" x="349.902344"/>
     <use xlink:href="#DejaVuSans-32" x="413.525391"/>
    </g>
   </g>
   <g id="text_52">
    <!-- 377.1737 -->
    <g transform="translate(373.943733 257.848982) scale(0.06 -0.06)">
     <use xlink:href="#DejaVuSans-33"/>
     <use xlink:href="#DejaVuSans-37" x="63.623047"/>
     <use xlink:href="#DejaVuSans-37" x="127.246094"/>
     <use xlink:href="#DejaVuSans-2e" x="190.869141"/>
     <use xlink:href="#DejaVuSans-31" x="222.65625"/>
     <use xlink:href="#DejaVuSans-37" x="286.279297"/>
     <use xlink:href="#DejaVuSans-33" x="349.902344"/>
     <use xlink:href="#DejaVuSans-37" x="413.525391"/>
    </g>
   </g>
   <g id="text_53">
    <!-- 394.1808 -->
    <g transform="translate(386.230312 214.159706) scale(0.06 -0.06)">
     <use xlink:href="#DejaVuSans-33"/>
     <use xlink:href="#DejaVuSans-39" x="63.623047"/>
     <use xlink:href="#DejaVuSans-34" x="127.246094"/>
     <use xlink:href="#DejaVuSans-2e" x="190.869141"/>
     <use xlink:href="#DejaVuSans-31" x="222.65625"/>
     <use xlink:href="#DejaVuSans-38" x="286.279297"/>
     <use xlink:href="#DejaVuSans-30" x="349.902344"/>
     <use xlink:href="#DejaVuSans-38" x="413.525391"/>
    </g>
   </g>
   <g id="text_54">
    <!-- MS2 spectrum of ${m/z}$ 394.18, scan time 10.15 min. -->
    <g transform="translate(57.6 24.873562) scale(0.12 -0.12)">
     <defs>
      <path id="DejaVuSans-4d" d="M 628 4666 
L 1569 4666 
L 2759 1491 
L 3956 4666 
L 4897 4666 
L 4897 0 
L 4281 0 
L 4281 4097 
L 3078 897 
L 2444 897 
L 1241 4097 
L 1241 0 
L 628 0 
L 628 4666 
z
" transform="scale(0.015625)"/>
      <path id="DejaVuSans-53" d="M 3425 4513 
L 3425 3897 
Q 3066 4069 2747 4153 
Q 2428 4238 2131 4238 
Q 1616 4238 1336 4038 
Q 1056 3838 1056 3469 
Q 1056 3159 1242 3001 
Q 1428 2844 1947 2747 
L 2328 2669 
Q 3034 2534 3370 2195 
Q 3706 1856 3706 1288 
Q 3706 609 3251 259 
Q 2797 -91 1919 -91 
Q 1588 -91 1214 -16 
Q 841 59 441 206 
L 441 856 
Q 825 641 1194 531 
Q 1563 422 1919 422 
Q 2459 422 2753 634 
Q 3047 847 3047 1241 
Q 3047 1584 2836 1778 
Q 2625 1972 2144 2069 
L 1759 2144 
Q 1053 2284 737 2584 
Q 422 2884 422 3419 
Q 422 4038 858 4394 
Q 1294 4750 2059 4750 
Q 2388 4750 2728 4690 
Q 3069 4631 3425 4513 
z
" transform="scale(0.015625)"/>
      <path id="DejaVuSans-20" transform="scale(0.015625)"/>
      <path id="DejaVuSans-70" d="M 1159 525 
L 1159 -1331 
L 581 -1331 
L 581 3500 
L 1159 3500 
L 1159 2969 
Q 1341 3281 1617 3432 
Q 1894 3584 2278 3584 
Q 2916 3584 3314 3078 
Q 3713 2572 3713 1747 
Q 3713 922 3314 415 
Q 2916 -91 2278 -91 
Q 1894 -91 1617 61 
Q 1341 213 1159 525 
z
M 3116 1747 
Q 3116 2381 2855 2742 
Q 2594 3103 2138 3103 
Q 1681 3103 1420 2742 
Q 1159 2381 1159 1747 
Q 1159 1113 1420 752 
Q 1681 391 2138 391 
Q 2594 391 2855 752 
Q 3116 1113 3116 1747 
z
" transform="scale(0.015625)"/>
      <path id="DejaVuSans-63" d="M 3122 3366 
L 3122 2828 
Q 2878 2963 2633 3030 
Q 2388 3097 2138 3097 
Q 1578 3097 1268 2742 
Q 959 2388 959 1747 
Q 959 1106 1268 751 
Q 1578 397 2138 397 
Q 2388 397 2633 464 
Q 2878 531 3122 666 
L 3122 134 
Q 2881 22 2623 -34 
Q 2366 -91 2075 -91 
Q 1284 -91 818 406 
Q 353 903 353 1747 
Q 353 2603 823 3093 
Q 1294 3584 2113 3584 
Q 2378 3584 2631 3529 
Q 2884 3475 3122 3366 
z
" transform="scale(0.015625)"/>
      <path id="DejaVuSans-72" d="M 2631 2963 
Q 2534 3019 2420 3045 
Q 2306 3072 2169 3072 
Q 1681 3072 1420 2755 
Q 1159 2438 1159 1844 
L 1159 0 
L 581 0 
L 581 3500 
L 1159 3500 
L 1159 2956 
Q 1341 3275 1631 3429 
Q 1922 3584 2338 3584 
Q 2397 3584 2469 3576 
Q 2541 3569 2628 3553 
L 2631 2963 
z
" transform="scale(0.015625)"/>
      <path id="DejaVuSans-75" d="M 544 1381 
L 544 3500 
L 1119 3500 
L 1119 1403 
Q 1119 906 1312 657 
Q 1506 409 1894 409 
Q 2359 409 2629 706 
Q 2900 1003 2900 1516 
L 2900 3500 
L 3475 3500 
L 3475 0 
L 2900 0 
L 2900 538 
Q 2691 219 2414 64 
Q 2138 -91 1772 -91 
Q 1169 -91 856 284 
Q 544 659 544 1381 
z
M 1991 3584 
L 1991 3584 
z
" transform="scale(0.015625)"/>
      <path id="DejaVuSans-6d" d="M 3328 2828 
Q 3544 3216 3844 3400 
Q 4144 3584 4550 3584 
Q 5097 3584 5394 3201 
Q 5691 2819 5691 2113 
L 5691 0 
L 5113 0 
L 5113 2094 
Q 5113 2597 4934 2840 
Q 4756 3084 4391 3084 
Q 3944 3084 3684 2787 
Q 3425 2491 3425 1978 
L 3425 0 
L 2847 0 
L 2847 2094 
Q 2847 2600 2669 2842 
Q 2491 3084 2119 3084 
Q 1678 3084 1418 2786 
Q 1159 2488 1159 1978 
L 1159 0 
L 581 0 
L 581 3500 
L 1159 3500 
L 1159 2956 
Q 1356 3278 1631 3431 
Q 1906 3584 2284 3584 
Q 2666 3584 2933 3390 
Q 3200 3197 3328 2828 
z
" transform="scale(0.015625)"/>
      <path id="DejaVuSans-6f" d="M 1959 3097 
Q 1497 3097 1228 2736 
Q 959 2375 959 1747 
Q 959 1119 1226 758 
Q 1494 397 1959 397 
Q 2419 397 2687 759 
Q 2956 1122 2956 1747 
Q 2956 2369 2687 2733 
Q 2419 3097 1959 3097 
z
M 1959 3584 
Q 2709 3584 3137 3096 
Q 3566 2609 3566 1747 
Q 3566 888 3137 398 
Q 2709 -91 1959 -91 
Q 1206 -91 779 398 
Q 353 888 353 1747 
Q 353 2609 779 3096 
Q 1206 3584 1959 3584 
z
" transform="scale(0.015625)"/>
      <path id="DejaVuSans-66" d="M 2375 4863 
L 2375 4384 
L 1825 4384 
Q 1516 4384 1395 4259 
Q 1275 4134 1275 3809 
L 1275 3500 
L 2222 3500 
L 2222 3053 
L 1275 3053 
L 1275 0 
L 697 0 
L 697 3053 
L 147 3053 
L 147 3500 
L 697 3500 
L 697 3744 
Q 697 4328 969 4595 
Q 1241 4863 1831 4863 
L 2375 4863 
z
" transform="scale(0.015625)"/>
      <path id="DejaVuSans-2c" d="M 750 794 
L 1409 794 
L 1409 256 
L 897 -744 
L 494 -744 
L 750 256 
L 750 794 
z
" transform="scale(0.015625)"/>
      <path id="DejaVuSans-61" d="M 2194 1759 
Q 1497 1759 1228 1600 
Q 959 1441 959 1056 
Q 959 750 1161 570 
Q 1363 391 1709 391 
Q 2188 391 2477 730 
Q 2766 1069 2766 1631 
L 2766 1759 
L 2194 1759 
z
M 3341 1997 
L 3341 0 
L 2766 0 
L 2766 531 
Q 2569 213 2275 61 
Q 1981 -91 1556 -91 
Q 1019 -91 701 211 
Q 384 513 384 1019 
Q 384 1609 779 1909 
Q 1175 2209 1959 2209 
L 2766 2209 
L 2766 2266 
Q 2766 2663 2505 2880 
Q 2244 3097 1772 3097 
Q 1472 3097 1187 3025 
Q 903 2953 641 2809 
L 641 3341 
Q 956 3463 1253 3523 
Q 1550 3584 1831 3584 
Q 2591 3584 2966 3190 
Q 3341 2797 3341 1997 
z
" transform="scale(0.015625)"/>
     </defs>
     <use xlink:href="#DejaVuSans-4d" transform="translate(0 0.015625)"/>
     <use xlink:href="#DejaVuSans-53" transform="translate(86.279297 0.015625)"/>
     <use xlink:href="#DejaVuSans-32" transform="translate(149.755859 0.015625)"/>
     <use xlink:href="#DejaVuSans-20" transform="translate(213.378906 0.015625)"/>
     <use xlink:href="#DejaVuSans-73" transform="translate(245.166016 0.015625)"/>
     <use xlink:href="#DejaVuSans-70" transform="translate(297.265625 0.015625)"/>
     <use xlink:href="#DejaVuSans-65" transform="translate(360.742188 0.015625)"/>
     <use xlink:href="#DejaVuSans-63" transform="translate(422.265625 0.015625)"/>
     <use xlink:href="#DejaVuSans-74" transform="translate(477.246094 0.015625)"/>
     <use xlink:href="#DejaVuSans-72" transform="translate(516.455078 0.015625)"/>
     <use xlink:href="#DejaVuSans-75" transform="translate(557.568359 0.015625)"/>
     <use xlink:href="#DejaVuSans-6d" transform="translate(620.947266 0.015625)"/>
     <use xlink:href="#DejaVuSans-20" transform="translate(718.359375 0.015625)"/>
     <use xlink:href="#DejaVuSans-6f" transform="translate(750.146484 0.015625)"/>
     <use xlink:href="#DejaVuSans-66" transform="translate(811.328125 0.015625)"/>
     <use xlink:href="#DejaVuSans-20" transform="translate(846.533203 0.015625)"/>
     <use xlink:href="#DejaVuSans-Oblique-6d" transform="translate(878.320312 0.015625)"/>
     <use xlink:href="#DejaVuSans-2f" transform="translate(975.732422 0.015625)"/>
     <use xlink:href="#DejaVuSans-Oblique-7a" transform="translate(1009.423828 0.015625)"/>
     <use xlink:href="#DejaVuSans-20" transform="translate(1061.914062 0.015625)"/>
     <use xlink:href="#DejaVuSans-33" transform="translate(1093.701172 0.015625)"/>
     <use xlink:href="#DejaVuSans-39" transform="translate(1157.324219 0.015625)"/>
     <use xlink:href="#DejaVuSans-34" transform="translate(1220.947266 0.015625)"/>
     <use xlink:href="#DejaVuSans-2e" transform="translate(1284.570312 0.015625)"/>
     <use xlink:href="#DejaVuSans-31" transform="translate(1316.357422 0.015625)"/>
     <use xlink:href="#DejaVuSans-38" transform="translate(1379.980469 0.015625)"/>
     <use xlink:href="#DejaVuSans-2c" transform="translate(1443.603516 0.015625)"/>
     <use xlink:href="#DejaVuSans-20" transform="translate(1475.390625 0.015625)"/>
     <use xlink:href="#DejaVuSans-73" transform="translate(1507.177734 0.015625)"/>
     <use xlink:href="#DejaVuSans-63" transform="translate(1559.277344 0.015625)"/>
     <use xlink:href="#DejaVuSans-61" transform="translate(1614.257812 0.015625)"/>
     <use xlink:href="#DejaVuSans-6e" transform="translate(1675.537109 0.015625)"/>
     <use xlink:href="#DejaVuSans-20" transform="translate(1738.916016 0.015625)"/>
     <use xlink:href="#DejaVuSans-74" transform="translate(1770.703125 0.015625)"/>
     <use xlink:href="#DejaVuSans-69" transform="translate(1809.912109 0.015625)"/>
     <use xlink:href="#DejaVuSans-6d" transform="translate(1837.695312 0.015625)"/>
     <use xlink:href="#DejaVuSans-65" transform="translate(1935.107422 0.015625)"/>
     <use xlink:href="#DejaVuSans-20" transform="translate(1996.630859 0.015625)"/>
     <use xlink:href="#DejaVuSans-31" transform="translate(2028.417969 0.015625)"/>
     <use xlink:href="#DejaVuSans-30" transform="translate(2092.041016 0.015625)"/>
     <use xlink:href="#DejaVuSans-2e" transform="translate(2155.664062 0.015625)"/>
     <use xlink:href="#DejaVuSans-31" transform="translate(2187.451172 0.015625)"/>
     <use xlink:href="#DejaVuSans-35" transform="translate(2251.074219 0.015625)"/>
     <use xlink:href="#DejaVuSans-20" transform="translate(2314.697266 0.015625)"/>
     <use xlink:href="#DejaVuSans-6d" transform="translate(2346.484375 0.015625)"/>
     <use xlink:href="#DejaVuSans-69" transform="translate(2443.896484 0.015625)"/>
     <use xlink:href="#DejaVuSans-6e" transform="translate(2471.679688 0.015625)"/>
     <use xlink:href="#DejaVuSans-2e" transform="translate(2535.058594 0.015625)"/>
    </g>
   </g>
  </g>
 </g>
 <defs>
  <clipPath id="p4bf3895a7e">
   <rect x="57.6" y="41.472" width="357.12" height="266.112"/>
  </clipPath>
 </defs>
</svg>
