<?xml version="1.0" encoding="utf-8" standalone="no"?>
<!DOCTYPE svg PUBLIC "-//W3C//DTD SVG 1.1//EN"
  "http://www.w3.org/Graphics/SVG/1.1/DTD/svg11.dtd">
<svg xmlns:xlink="http://www.w3.org/1999/xlink" width="460.8pt" height="345.6pt" viewBox="0 0 460.8 345.6" xmlns="http://www.w3.org/2000/svg" version="1.1">
 <metadata>
  <rdf:RDF xmlns:dc="http://purl.org/dc/elements/1.1/" xmlns:cc="http://creativecommons.org/ns#" xmlns:rdf="http://www.w3.org/1999/02/22-rdf-syntax-ns#">
   <cc:Work>
    <dc:type rdf:resource="http://purl.org/dc/dcmitype/StillImage"/>
    <dc:date>2025-04-20T16:10:13.922330</dc:date>
    <dc:format>image/svg+xml</dc:format>
    <dc:creator>
     <cc:Agent>
      <dc:title>Matplotlib v3.7.3, https://matplotlib.org/</dc:title>
     </cc:Agent>
    </dc:creator>
   </cc:Work>
  </rdf:RDF>
 </metadata>
 <defs>
  <style type="text/css">*{stroke-linejoin: round; stroke-linecap: butt}</style>
 </defs>
 <g id="figure_1">
  <g id="patch_1">
   <path d="M 0 345.6 
L 460.8 345.6 
L 460.8 0 
L 0 0 
z
" style="fill: #ffffff"/>
  </g>
  <g id="axes_1">
   <g id="patch_2">
    <path d="M 57.6 307.584 
L 414.72 307.584 
L 414.72 41.472 
L 57.6 41.472 
z
" style="fill: #ffffff"/>
   </g>
   <g id="patch_3">
    <path d="M 73.832727 307.584 
L 74.406223 307.584 
L 74.406223 306.974491 
L 73.832727 306.974491 
z
" clip-path="url(#p25706635c4)" style="fill: #1f77b4"/>
   </g>
   <g id="patch_4">
    <path d="M 75.893254 307.584 
L 76.466749 307.584 
L 76.466749 306.464861 
L 75.893254 306.464861 
z
" clip-path="url(#p25706635c4)" style="fill: #1f77b4"/>
   </g>
   <g id="patch_5">
    <path d="M 75.895455 307.584 
L 76.468951 307.584 
L 76.468951 294.930466 
L 75.895455 294.930466 
z
" clip-path="url(#p25706635c4)" style="fill: #1f77b4"/>
   </g>
   <g id="patch_6">
    <path d="M 75.913903 307.584 
L 76.487399 307.584 
L 76.487399 307.117724 
L 75.913903 307.117724 
z
" clip-path="url(#p25706635c4)" style="fill: #1f77b4"/>
   </g>
   <g id="patch_7">
    <path d="M 75.921289 307.584 
L 76.494785 307.584 
L 76.494785 307.065282 
L 75.921289 307.065282 
z
" clip-path="url(#p25706635c4)" style="fill: #1f77b4"/>
   </g>
   <g id="patch_8">
    <path d="M 75.973499 307.584 
L 76.546995 307.584 
L 76.546995 306.704879 
L 75.973499 306.704879 
z
" clip-path="url(#p25706635c4)" style="fill: #1f77b4"/>
   </g>
   <g id="patch_9">
    <path d="M 75.9754 307.584 
L 76.548895 307.584 
L 76.548895 305.429569 
L 75.9754 305.429569 
z
" clip-path="url(#p25706635c4)" style="fill: #1f77b4"/>
   </g>
   <g id="patch_10">
    <path d="M 76.61941 307.584 
L 77.192906 307.584 
L 77.192906 278.578823 
L 76.61941 278.578823 
z
" clip-path="url(#p25706635c4)" style="fill: #1f77b4"/>
   </g>
   <g id="patch_11">
    <path d="M 76.621502 307.584 
L 77.194998 307.584 
L 77.194998 306.742255 
L 76.621502 306.742255 
z
" clip-path="url(#p25706635c4)" style="fill: #1f77b4"/>
   </g>
   <g id="patch_12">
    <path d="M 76.636442 307.584 
L 77.209937 307.584 
L 77.209937 307.123717 
L 76.636442 307.123717 
z
" clip-path="url(#p25706635c4)" style="fill: #1f77b4"/>
   </g>
   <g id="patch_13">
    <path d="M 76.942746 307.584 
L 77.516241 307.584 
L 77.516241 307.039094 
L 76.942746 307.039094 
z
" clip-path="url(#p25706635c4)" style="fill: #1f77b4"/>
   </g>
   <g id="patch_14">
    <path d="M 77.338514 307.584 
L 77.912009 307.584 
L 77.912009 307.160249 
L 77.338514 307.160249 
z
" clip-path="url(#p25706635c4)" style="fill: #1f77b4"/>
   </g>
   <g id="patch_15">
    <path d="M 77.358964 307.584 
L 77.932459 307.584 
L 77.932459 284.551241 
L 77.358964 284.551241 
z
" clip-path="url(#p25706635c4)" style="fill: #1f77b4"/>
   </g>
   <g id="patch_16">
    <path d="M 78.081417 307.584 
L 78.654913 307.584 
L 78.654913 306.880123 
L 78.081417 306.880123 
z
" clip-path="url(#p25706635c4)" style="fill: #1f77b4"/>
   </g>
   <g id="patch_17">
    <path d="M 84.897086 307.584 
L 85.470582 307.584 
L 85.470582 307.161388 
L 84.897086 307.161388 
z
" clip-path="url(#p25706635c4)" style="fill: #1f77b4"/>
   </g>
   <g id="patch_18">
    <path d="M 85.567029 307.584 
L 86.140525 307.584 
L 86.140525 307.165201 
L 85.567029 307.165201 
z
" clip-path="url(#p25706635c4)" style="fill: #1f77b4"/>
   </g>
   <g id="patch_19">
    <path d="M 85.961435 307.584 
L 86.534931 307.584 
L 86.534931 306.59823 
L 85.961435 306.59823 
z
" clip-path="url(#p25706635c4)" style="fill: #1f77b4"/>
   </g>
   <g id="patch_20">
    <path d="M 87.406266 307.584 
L 87.979762 307.584 
L 87.979762 283.177072 
L 87.406266 283.177072 
z
" clip-path="url(#p25706635c4)" style="fill: #1f77b4"/>
   </g>
   <g id="patch_21">
    <path d="M 88.082461 307.584 
L 88.655956 307.584 
L 88.655956 306.643977 
L 88.082461 306.643977 
z
" clip-path="url(#p25706635c4)" style="fill: #1f77b4"/>
   </g>
   <g id="patch_22">
    <path d="M 88.085578 307.584 
L 88.659074 307.584 
L 88.659074 221.03837 
L 88.085578 221.03837 
z
" clip-path="url(#p25706635c4)" style="fill: #1f77b4"/>
   </g>
   <g id="patch_23">
    <path d="M 88.12558 307.584 
L 88.699076 307.584 
L 88.699076 307.071707 
L 88.12558 307.071707 
z
" clip-path="url(#p25706635c4)" style="fill: #1f77b4"/>
   </g>
   <g id="patch_24">
    <path d="M 88.804854 307.584 
L 89.37835 307.584 
L 89.37835 306.281443 
L 88.804854 306.281443 
z
" clip-path="url(#p25706635c4)" style="fill: #1f77b4"/>
   </g>
   <g id="patch_25">
    <path d="M 94.139409 307.584 
L 94.712905 307.584 
L 94.712905 307.180392 
L 94.139409 307.180392 
z
" clip-path="url(#p25706635c4)" style="fill: #1f77b4"/>
   </g>
   <g id="patch_26">
    <path d="M 96.008618 307.584 
L 96.582113 307.584 
L 96.582113 301.109054 
L 96.008618 301.109054 
z
" clip-path="url(#p25706635c4)" style="fill: #1f77b4"/>
   </g>
   <g id="patch_27">
    <path d="M 99.577853 307.584 
L 100.151349 307.584 
L 100.151349 305.553662 
L 99.577853 305.553662 
z
" clip-path="url(#p25706635c4)" style="fill: #1f77b4"/>
   </g>
   <g id="patch_28">
    <path d="M 101.007775 307.584 
L 101.58127 307.584 
L 101.58127 306.15964 
L 101.007775 306.15964 
z
" clip-path="url(#p25706635c4)" style="fill: #1f77b4"/>
   </g>
   <g id="patch_29">
    <path d="M 101.325545 307.584 
L 101.899041 307.584 
L 101.899041 305.586656 
L 101.325545 305.586656 
z
" clip-path="url(#p25706635c4)" style="fill: #1f77b4"/>
   </g>
   <g id="patch_30">
    <path d="M 102.860111 307.584 
L 103.433606 307.584 
L 103.433606 307.152542 
L 102.860111 307.152542 
z
" clip-path="url(#p25706635c4)" style="fill: #1f77b4"/>
   </g>
   <g id="patch_31">
    <path d="M 108.91969 307.584 
L 109.493186 307.584 
L 109.493186 297.539664 
L 108.91969 297.539664 
z
" clip-path="url(#p25706635c4)" style="fill: #1f77b4"/>
   </g>
   <g id="patch_32">
    <path d="M 109.599046 307.584 
L 110.172541 307.584 
L 110.172541 303.685565 
L 109.599046 303.685565 
z
" clip-path="url(#p25706635c4)" style="fill: #1f77b4"/>
   </g>
   <g id="patch_33">
    <path d="M 111.054908 307.584 
L 111.628403 307.584 
L 111.628403 306.835137 
L 111.054908 306.835137 
z
" clip-path="url(#p25706635c4)" style="fill: #1f77b4"/>
   </g>
   <g id="patch_34">
    <path d="M 112.46846 307.584 
L 113.041955 307.584 
L 113.041955 307.021731 
L 112.46846 307.021731 
z
" clip-path="url(#p25706635c4)" style="fill: #1f77b4"/>
   </g>
   <g id="patch_35">
    <path d="M 112.469789 307.584 
L 113.043284 307.584 
L 113.043284 307.230147 
L 112.469789 307.230147 
z
" clip-path="url(#p25706635c4)" style="fill: #1f77b4"/>
   </g>
   <g id="patch_36">
    <path d="M 112.473738 307.584 
L 113.047233 307.584 
L 113.047233 288.909755 
L 112.473738 288.909755 
z
" clip-path="url(#p25706635c4)" style="fill: #1f77b4"/>
   </g>
   <g id="patch_37">
    <path d="M 113.193046 307.584 
L 113.766542 307.584 
L 113.766542 307.062994 
L 113.193046 307.062994 
z
" clip-path="url(#p25706635c4)" style="fill: #1f77b4"/>
   </g>
   <g id="patch_38">
    <path d="M 118.940778 307.584 
L 119.514274 307.584 
L 119.514274 304.232956 
L 118.940778 304.232956 
z
" clip-path="url(#p25706635c4)" style="fill: #1f77b4"/>
   </g>
   <g id="patch_39">
    <path d="M 119.271068 307.584 
L 119.844564 307.584 
L 119.844564 306.886426 
L 119.271068 306.886426 
z
" clip-path="url(#p25706635c4)" style="fill: #1f77b4"/>
   </g>
   <g id="patch_40">
    <path d="M 119.657227 307.584 
L 120.230722 307.584 
L 120.230722 307.009029 
L 119.657227 307.009029 
z
" clip-path="url(#p25706635c4)" style="fill: #1f77b4"/>
   </g>
   <g id="patch_41">
    <path d="M 120.385757 307.584 
L 120.959252 307.584 
L 120.959252 295.248054 
L 120.385757 295.248054 
z
" clip-path="url(#p25706635c4)" style="fill: #1f77b4"/>
   </g>
   <g id="patch_42">
    <path d="M 121.076292 307.584 
L 121.649787 307.584 
L 121.649787 306.189583 
L 121.076292 306.189583 
z
" clip-path="url(#p25706635c4)" style="fill: #1f77b4"/>
   </g>
   <g id="patch_43">
    <path d="M 122.521144 307.584 
L 123.09464 307.584 
L 123.09464 306.107541 
L 122.521144 306.107541 
z
" clip-path="url(#p25706635c4)" style="fill: #1f77b4"/>
   </g>
   <g id="patch_44">
    <path d="M 125.125413 307.584 
L 125.698908 307.584 
L 125.698908 307.126853 
L 125.125413 307.126853 
z
" clip-path="url(#p25706635c4)" style="fill: #1f77b4"/>
   </g>
   <g id="patch_45">
    <path d="M 125.979643 307.584 
L 126.553139 307.584 
L 126.553139 307.136994 
L 125.979643 307.136994 
z
" clip-path="url(#p25706635c4)" style="fill: #1f77b4"/>
   </g>
   <g id="patch_46">
    <path d="M 126.096713 307.584 
L 126.670209 307.584 
L 126.670209 304.432456 
L 126.096713 304.432456 
z
" clip-path="url(#p25706635c4)" style="fill: #1f77b4"/>
   </g>
   <g id="patch_47">
    <path d="M 126.186519 307.584 
L 126.760014 307.584 
L 126.760014 306.909848 
L 126.186519 306.909848 
z
" clip-path="url(#p25706635c4)" style="fill: #1f77b4"/>
   </g>
   <g id="patch_48">
    <path d="M 128.611636 307.584 
L 129.185131 307.584 
L 129.185131 307.145575 
L 128.611636 307.145575 
z
" clip-path="url(#p25706635c4)" style="fill: #1f77b4"/>
   </g>
   <g id="patch_49">
    <path d="M 129.01423 307.584 
L 129.587725 307.584 
L 129.587725 305.871877 
L 129.01423 305.871877 
z
" clip-path="url(#p25706635c4)" style="fill: #1f77b4"/>
   </g>
   <g id="patch_50">
    <path d="M 129.661573 307.584 
L 130.235069 307.584 
L 130.235069 306.724992 
L 129.661573 306.724992 
z
" clip-path="url(#p25706635c4)" style="fill: #1f77b4"/>
   </g>
   <g id="patch_51">
    <path d="M 129.667437 307.584 
L 130.240932 307.584 
L 130.240932 256.546063 
L 129.667437 256.546063 
z
" clip-path="url(#p25706635c4)" style="fill: #1f77b4"/>
   </g>
   <g id="patch_52">
    <path d="M 130.386767 307.584 
L 130.960263 307.584 
L 130.960263 305.839875 
L 130.386767 305.839875 
z
" clip-path="url(#p25706635c4)" style="fill: #1f77b4"/>
   </g>
   <g id="patch_53">
    <path d="M 131.123337 307.584 
L 131.696833 307.584 
L 131.696833 305.632671 
L 131.123337 305.632671 
z
" clip-path="url(#p25706635c4)" style="fill: #1f77b4"/>
   </g>
   <g id="patch_54">
    <path d="M 131.138607 307.584 
L 131.712103 307.584 
L 131.712103 306.840371 
L 131.138607 306.840371 
z
" clip-path="url(#p25706635c4)" style="fill: #1f77b4"/>
   </g>
   <g id="patch_55">
    <path d="M 132.568397 307.584 
L 133.141893 307.584 
L 133.141893 304.903487 
L 132.568397 304.903487 
z
" clip-path="url(#p25706635c4)" style="fill: #1f77b4"/>
   </g>
   <g id="patch_56">
    <path d="M 136.197866 307.584 
L 136.771362 307.584 
L 136.771362 307.148074 
L 136.197866 307.148074 
z
" clip-path="url(#p25706635c4)" style="fill: #1f77b4"/>
   </g>
   <g id="patch_57">
    <path d="M 139.725672 307.584 
L 140.299168 307.584 
L 140.299168 294.004373 
L 139.725672 294.004373 
z
" clip-path="url(#p25706635c4)" style="fill: #1f77b4"/>
   </g>
   <g id="patch_58">
    <path d="M 140.444773 307.584 
L 141.018269 307.584 
L 141.018269 306.585556 
L 140.444773 306.585556 
z
" clip-path="url(#p25706635c4)" style="fill: #1f77b4"/>
   </g>
   <g id="patch_59">
    <path d="M 149.082888 307.584 
L 149.656384 307.584 
L 149.656384 306.523646 
L 149.082888 306.523646 
z
" clip-path="url(#p25706635c4)" style="fill: #1f77b4"/>
   </g>
   <g id="patch_60">
    <path d="M 152.636837 307.584 
L 153.210333 307.584 
L 153.210333 298.875374 
L 152.636837 298.875374 
z
" clip-path="url(#p25706635c4)" style="fill: #1f77b4"/>
   </g>
   <g id="patch_61">
    <path d="M 153.356179 307.584 
L 153.929675 307.584 
L 153.929675 307.00268 
L 153.356179 307.00268 
z
" clip-path="url(#p25706635c4)" style="fill: #1f77b4"/>
   </g>
   <g id="patch_62">
    <path d="M 154.056761 307.584 
L 154.630257 307.584 
L 154.630257 307.065996 
L 154.056761 307.065996 
z
" clip-path="url(#p25706635c4)" style="fill: #1f77b4"/>
   </g>
   <g id="patch_63">
    <path d="M 159.819763 307.584 
L 160.393259 307.584 
L 160.393259 307.140915 
L 159.819763 307.140915 
z
" clip-path="url(#p25706635c4)" style="fill: #1f77b4"/>
   </g>
   <g id="patch_64">
    <path d="M 162.699952 307.584 
L 163.273447 307.584 
L 163.273447 306.688156 
L 162.699952 306.688156 
z
" clip-path="url(#p25706635c4)" style="fill: #1f77b4"/>
   </g>
   <g id="patch_65">
    <path d="M 172.17421 307.584 
L 172.747706 307.584 
L 172.747706 307.076325 
L 172.17421 307.076325 
z
" clip-path="url(#p25706635c4)" style="fill: #1f77b4"/>
   </g>
   <g id="patch_66">
    <path d="M 172.184777 307.584 
L 172.758273 307.584 
L 172.758273 306.976222 
L 172.184777 306.976222 
z
" clip-path="url(#p25706635c4)" style="fill: #1f77b4"/>
   </g>
   <g id="patch_67">
    <path d="M 172.705704 307.584 
L 173.2792 307.584 
L 173.2792 306.783715 
L 172.705704 306.783715 
z
" clip-path="url(#p25706635c4)" style="fill: #1f77b4"/>
   </g>
   <g id="patch_68">
    <path d="M 176.443859 307.584 
L 177.017354 307.584 
L 177.017354 307.100891 
L 176.443859 307.100891 
z
" clip-path="url(#p25706635c4)" style="fill: #1f77b4"/>
   </g>
   <g id="patch_69">
    <path d="M 188.692946 307.584 
L 189.266441 307.584 
L 189.266441 307.114823 
L 188.692946 307.114823 
z
" clip-path="url(#p25706635c4)" style="fill: #1f77b4"/>
   </g>
   <g id="patch_70">
    <path d="M 205.601564 307.584 
L 206.17506 307.584 
L 206.17506 307.148998 
L 205.601564 307.148998 
z
" clip-path="url(#p25706635c4)" style="fill: #1f77b4"/>
   </g>
   <g id="patch_71">
    <path d="M 205.687071 307.584 
L 206.260566 307.584 
L 206.260566 307.054589 
L 205.687071 307.054589 
z
" clip-path="url(#p25706635c4)" style="fill: #1f77b4"/>
   </g>
   <g id="patch_72">
    <path d="M 207.05869 307.584 
L 207.632185 307.584 
L 207.632185 307.062947 
L 207.05869 307.062947 
z
" clip-path="url(#p25706635c4)" style="fill: #1f77b4"/>
   </g>
   <g id="patch_73">
    <path d="M 215.743786 307.584 
L 216.317281 307.584 
L 216.317281 306.487992 
L 215.743786 306.487992 
z
" clip-path="url(#p25706635c4)" style="fill: #1f77b4"/>
   </g>
   <g id="patch_74">
    <path d="M 227.64297 307.584 
L 228.216466 307.584 
L 228.216466 306.809175 
L 227.64297 306.809175 
z
" clip-path="url(#p25706635c4)" style="fill: #1f77b4"/>
   </g>
   <g id="patch_75">
    <path d="M 232.549264 307.584 
L 233.12276 307.584 
L 233.12276 307.090024 
L 232.549264 307.090024 
z
" clip-path="url(#p25706635c4)" style="fill: #1f77b4"/>
   </g>
   <g id="patch_76">
    <path d="M 234.395475 307.584 
L 234.96897 307.584 
L 234.96897 307.101056 
L 234.395475 307.101056 
z
" clip-path="url(#p25706635c4)" style="fill: #1f77b4"/>
   </g>
   <g id="patch_77">
    <path d="M 243.279729 307.584 
L 243.853225 307.584 
L 243.853225 307.090172 
L 243.279729 307.090172 
z
" clip-path="url(#p25706635c4)" style="fill: #1f77b4"/>
   </g>
   <g id="patch_78">
    <path d="M 281.047974 307.584 
L 281.621469 307.584 
L 281.621469 306.744191 
L 281.047974 306.744191 
z
" clip-path="url(#p25706635c4)" style="fill: #1f77b4"/>
   </g>
   <g id="patch_79">
    <path d="M 303.261236 307.584 
L 303.834731 307.584 
L 303.834731 306.631419 
L 303.261236 306.631419 
z
" clip-path="url(#p25706635c4)" style="fill: #1f77b4"/>
   </g>
   <g id="patch_80">
    <path d="M 305.404253 307.584 
L 305.977748 307.584 
L 305.977748 307.067072 
L 305.404253 307.067072 
z
" clip-path="url(#p25706635c4)" style="fill: #1f77b4"/>
   </g>
   <g id="patch_81">
    <path d="M 332.650828 307.584 
L 333.224323 307.584 
L 333.224323 306.820433 
L 332.650828 306.820433 
z
" clip-path="url(#p25706635c4)" style="fill: #1f77b4"/>
   </g>
   <g id="patch_82">
    <path d="M 345.565132 307.584 
L 346.138628 307.584 
L 346.138628 254.310687 
L 345.565132 254.310687 
z
" clip-path="url(#p25706635c4)" style="fill: #1f77b4"/>
   </g>
   <g id="patch_83">
    <path d="M 346.284386 307.584 
L 346.857882 307.584 
L 346.857882 300.608584 
L 346.284386 300.608584 
z
" clip-path="url(#p25706635c4)" style="fill: #1f77b4"/>
   </g>
   <g id="patch_84">
    <path d="M 397.05405 307.584 
L 397.627546 307.584 
L 397.627546 306.798533 
L 397.05405 306.798533 
z
" clip-path="url(#p25706635c4)" style="fill: #1f77b4"/>
   </g>
   <g id="patch_85">
    <path d="M 397.0861 307.584 
L 397.659596 307.584 
L 397.659596 306.232279 
L 397.0861 306.232279 
z
" clip-path="url(#p25706635c4)" style="fill: #1f77b4"/>
   </g>
   <g id="patch_86">
    <path d="M 397.194698 307.584 
L 397.768194 307.584 
L 397.768194 54.144 
L 397.194698 54.144 
z
" clip-path="url(#p25706635c4)" style="fill: #1f77b4"/>
   </g>
   <g id="patch_87">
    <path d="M 397.858647 307.584 
L 398.432142 307.584 
L 398.432142 306.505222 
L 397.858647 306.505222 
z
" clip-path="url(#p25706635c4)" style="fill: #1f77b4"/>
   </g>
   <g id="patch_88">
    <path d="M 397.913777 307.584 
L 398.487273 307.584 
L 398.487273 266.144503 
L 397.913777 266.144503 
z
" clip-path="url(#p25706635c4)" style="fill: #1f77b4"/>
   </g>
   <g id="matplotlib.axis_1">
    <g id="xtick_1">
     <g id="line2d_1">
      <defs>
       <path id="m2add282f72" d="M 0 0 
L 0 3.5 
" style="stroke: #000000; stroke-width: 0.8"/>
      </defs>
      <g>
       <use xlink:href="#m2add282f72" x="107.706892" y="307.584" style="stroke: #000000; stroke-width: 0.8"/>
      </g>
     </g>
     <g id="text_1">
      <!-- 100 -->
      <g transform="translate(98.163142 322.182437) scale(0.1 -0.1)">
       <defs>
        <path id="DejaVuSans-31" d="M 794 531 
L 1825 531 
L 1825 4091 
L 703 3866 
L 703 4441 
L 1819 4666 
L 2450 4666 
L 2450 531 
L 3481 531 
L 3481 0 
L 794 0 
L 794 531 
z
" transform="scale(0.015625)"/>
        <path id="DejaVuSans-30" d="M 2034 4250 
Q 1547 4250 1301 3770 
Q 1056 3291 1056 2328 
Q 1056 1369 1301 889 
Q 1547 409 2034 409 
Q 2525 409 2770 889 
Q 3016 1369 3016 2328 
Q 3016 3291 2770 3770 
Q 2525 4250 2034 4250 
z
M 2034 4750 
Q 2819 4750 3233 4129 
Q 3647 3509 3647 2328 
Q 3647 1150 3233 529 
Q 2819 -91 2034 -91 
Q 1250 -91 836 529 
Q 422 1150 422 2328 
Q 422 3509 836 4129 
Q 1250 4750 2034 4750 
z
" transform="scale(0.015625)"/>
       </defs>
       <use xlink:href="#DejaVuSans-31"/>
       <use xlink:href="#DejaVuSans-30" x="63.623047"/>
       <use xlink:href="#DejaVuSans-30" x="127.246094"/>
      </g>
     </g>
    </g>
    <g id="xtick_2">
     <g id="line2d_2">
      <g>
       <use xlink:href="#m2add282f72" x="179.39384" y="307.584" style="stroke: #000000; stroke-width: 0.8"/>
      </g>
     </g>
     <g id="text_2">
      <!-- 200 -->
      <g transform="translate(169.85009 322.182437) scale(0.1 -0.1)">
       <defs>
        <path id="DejaVuSans-32" d="M 1228 531 
L 3431 531 
L 3431 0 
L 469 0 
L 469 531 
Q 828 903 1448 1529 
Q 2069 2156 2228 2338 
Q 2531 2678 2651 2914 
Q 2772 3150 2772 3378 
Q 2772 3750 2511 3984 
Q 2250 4219 1831 4219 
Q 1534 4219 1204 4116 
Q 875 4013 500 3803 
L 500 4441 
Q 881 4594 1212 4672 
Q 1544 4750 1819 4750 
Q 2544 4750 2975 4387 
Q 3406 4025 3406 3419 
Q 3406 3131 3298 2873 
Q 3191 2616 2906 2266 
Q 2828 2175 2409 1742 
Q 1991 1309 1228 531 
z
" transform="scale(0.015625)"/>
       </defs>
       <use xlink:href="#DejaVuSans-32"/>
       <use xlink:href="#DejaVuSans-30" x="63.623047"/>
       <use xlink:href="#DejaVuSans-30" x="127.246094"/>
      </g>
     </g>
    </g>
    <g id="xtick_3">
     <g id="line2d_3">
      <g>
       <use xlink:href="#m2add282f72" x="251.080787" y="307.584" style="stroke: #000000; stroke-width: 0.8"/>
      </g>
     </g>
     <g id="text_3">
      <!-- 300 -->
      <g transform="translate(241.537037 322.182437) scale(0.1 -0.1)">
       <defs>
        <path id="DejaVuSans-33" d="M 2597 2516 
Q 3050 2419 3304 2112 
Q 3559 1806 3559 1356 
Q 3559 666 3084 287 
Q 2609 -91 1734 -91 
Q 1441 -91 1130 -33 
Q 819 25 488 141 
L 488 750 
Q 750 597 1062 519 
Q 1375 441 1716 441 
Q 2309 441 2620 675 
Q 2931 909 2931 1356 
Q 2931 1769 2642 2001 
Q 2353 2234 1838 2234 
L 1294 2234 
L 1294 2753 
L 1863 2753 
Q 2328 2753 2575 2939 
Q 2822 3125 2822 3475 
Q 2822 3834 2567 4026 
Q 2313 4219 1838 4219 
Q 1578 4219 1281 4162 
Q 984 4106 628 3988 
L 628 4550 
Q 988 4650 1302 4700 
Q 1616 4750 1894 4750 
Q 2613 4750 3031 4423 
Q 3450 4097 3450 3541 
Q 3450 3153 3228 2886 
Q 3006 2619 2597 2516 
z
" transform="scale(0.015625)"/>
       </defs>
       <use xlink:href="#DejaVuSans-33"/>
       <use xlink:href="#DejaVuSans-30" x="63.623047"/>
       <use xlink:href="#DejaVuSans-30" x="127.246094"/>
      </g>
     </g>
    </g>
    <g id="xtick_4">
     <g id="line2d_4">
      <g>
       <use xlink:href="#m2add282f72" x="322.767734" y="307.584" style="stroke: #000000; stroke-width: 0.8"/>
      </g>
     </g>
     <g id="text_4">
      <!-- 400 -->
      <g transform="translate(313.223984 322.182437) scale(0.1 -0.1)">
       <defs>
        <path id="DejaVuSans-34" d="M 2419 4116 
L 825 1625 
L 2419 1625 
L 2419 4116 
z
M 2253 4666 
L 3047 4666 
L 3047 1625 
L 3713 1625 
L 3713 1100 
L 3047 1100 
L 3047 0 
L 2419 0 
L 2419 1100 
L 313 1100 
L 313 1709 
L 2253 4666 
z
" transform="scale(0.015625)"/>
       </defs>
       <use xlink:href="#DejaVuSans-34"/>
       <use xlink:href="#DejaVuSans-30" x="63.623047"/>
       <use xlink:href="#DejaVuSans-30" x="127.246094"/>
      </g>
     </g>
    </g>
    <g id="xtick_5">
     <g id="line2d_5">
      <g>
       <use xlink:href="#m2add282f72" x="394.454681" y="307.584" style="stroke: #000000; stroke-width: 0.8"/>
      </g>
     </g>
     <g id="text_5">
      <!-- 500 -->
      <g transform="translate(384.910931 322.182437) scale(0.1 -0.1)">
       <defs>
        <path id="DejaVuSans-35" d="M 691 4666 
L 3169 4666 
L 3169 4134 
L 1269 4134 
L 1269 2991 
Q 1406 3038 1543 3061 
Q 1681 3084 1819 3084 
Q 2600 3084 3056 2656 
Q 3513 2228 3513 1497 
Q 3513 744 3044 326 
Q 2575 -91 1722 -91 
Q 1428 -91 1123 -41 
Q 819 9 494 109 
L 494 744 
Q 775 591 1075 516 
Q 1375 441 1709 441 
Q 2250 441 2565 725 
Q 2881 1009 2881 1497 
Q 2881 1984 2565 2268 
Q 2250 2553 1709 2553 
Q 1456 2553 1204 2497 
Q 953 2441 691 2322 
L 691 4666 
z
" transform="scale(0.015625)"/>
       </defs>
       <use xlink:href="#DejaVuSans-35"/>
       <use xlink:href="#DejaVuSans-30" x="63.623047"/>
       <use xlink:href="#DejaVuSans-30" x="127.246094"/>
      </g>
     </g>
    </g>
    <g id="text_6">
     <!-- ${m/z}$ -->
     <g transform="translate(226.96 335.860562) scale(0.1 -0.1)">
      <defs>
       <path id="DejaVuSans-Oblique-6d" d="M 5747 2113 
L 5338 0 
L 4763 0 
L 5166 2094 
Q 5191 2228 5203 2325 
Q 5216 2422 5216 2491 
Q 5216 2772 5059 2928 
Q 4903 3084 4622 3084 
Q 4203 3084 3875 2770 
Q 3547 2456 3450 1953 
L 3066 0 
L 2491 0 
L 2900 2094 
Q 2925 2209 2937 2307 
Q 2950 2406 2950 2484 
Q 2950 2769 2794 2926 
Q 2638 3084 2363 3084 
Q 1938 3084 1609 2770 
Q 1281 2456 1184 1953 
L 800 0 
L 225 0 
L 909 3500 
L 1484 3500 
L 1375 2956 
Q 1609 3263 1923 3423 
Q 2238 3584 2597 3584 
Q 2978 3584 3223 3384 
Q 3469 3184 3519 2828 
Q 3781 3197 4126 3390 
Q 4472 3584 4856 3584 
Q 5306 3584 5551 3325 
Q 5797 3066 5797 2591 
Q 5797 2488 5784 2364 
Q 5772 2241 5747 2113 
z
" transform="scale(0.015625)"/>
       <path id="DejaVuSans-2f" d="M 1625 4666 
L 2156 4666 
L 531 -594 
L 0 -594 
L 1625 4666 
z
" transform="scale(0.015625)"/>
       <path id="DejaVuSans-Oblique-7a" d="M 744 3500 
L 3475 3500 
L 3372 2975 
L 738 459 
L 2913 459 
L 2822 0 
L -19 0 
L 84 525 
L 2719 3041 
L 653 3041 
L 744 3500 
z
" transform="scale(0.015625)"/>
      </defs>
      <use xlink:href="#DejaVuSans-Oblique-6d" transform="translate(0 0.09375)"/>
      <use xlink:href="#DejaVuSans-2f" transform="translate(97.412109 0.09375)"/>
      <use xlink:href="#DejaVuSans-Oblique-7a" transform="translate(131.103516 0.09375)"/>
     </g>
    </g>
   </g>
   <g id="matplotlib.axis_2">
    <g id="ytick_1">
     <g id="line2d_6">
      <defs>
       <path id="m34add04660" d="M 0 0 
L -3.5 0 
" style="stroke: #000000; stroke-width: 0.8"/>
      </defs>
      <g>
       <use xlink:href="#m34add04660" x="57.6" y="307.584" style="stroke: #000000; stroke-width: 0.8"/>
      </g>
     </g>
     <g id="text_7">
      <!-- 0 -->
      <g transform="translate(44.2375 311.383219) scale(0.1 -0.1)">
       <use xlink:href="#DejaVuSans-30"/>
      </g>
     </g>
    </g>
    <g id="ytick_2">
     <g id="line2d_7">
      <g>
       <use xlink:href="#m34add04660" x="57.6" y="259.631394" style="stroke: #000000; stroke-width: 0.8"/>
      </g>
     </g>
     <g id="text_8">
      <!-- 1 -->
      <g transform="translate(44.2375 263.430613) scale(0.1 -0.1)">
       <use xlink:href="#DejaVuSans-31"/>
      </g>
     </g>
    </g>
    <g id="ytick_3">
     <g id="line2d_8">
      <g>
       <use xlink:href="#m34add04660" x="57.6" y="211.678788" style="stroke: #000000; stroke-width: 0.8"/>
      </g>
     </g>
     <g id="text_9">
      <!-- 2 -->
      <g transform="translate(44.2375 215.478007) scale(0.1 -0.1)">
       <use xlink:href="#DejaVuSans-32"/>
      </g>
     </g>
    </g>
    <g id="ytick_4">
     <g id="line2d_9">
      <g>
       <use xlink:href="#m34add04660" x="57.6" y="163.726182" style="stroke: #000000; stroke-width: 0.8"/>
      </g>
     </g>
     <g id="text_10">
      <!-- 3 -->
      <g transform="translate(44.2375 167.525401) scale(0.1 -0.1)">
       <use xlink:href="#DejaVuSans-33"/>
      </g>
     </g>
    </g>
    <g id="ytick_5">
     <g id="line2d_10">
      <g>
       <use xlink:href="#m34add04660" x="57.6" y="115.773576" style="stroke: #000000; stroke-width: 0.8"/>
      </g>
     </g>
     <g id="text_11">
      <!-- 4 -->
      <g transform="translate(44.2375 119.572795) scale(0.1 -0.1)">
       <use xlink:href="#DejaVuSans-34"/>
      </g>
     </g>
    </g>
    <g id="ytick_6">
     <g id="line2d_11">
      <g>
       <use xlink:href="#m34add04660" x="57.6" y="67.82097" style="stroke: #000000; stroke-width: 0.8"/>
      </g>
     </g>
     <g id="text_12">
      <!-- 5 -->
      <g transform="translate(44.2375 71.620189) scale(0.1 -0.1)">
       <use xlink:href="#DejaVuSans-35"/>
      </g>
     </g>
    </g>
    <g id="text_13">
     <!-- intensities -->
     <g transform="translate(38.157812 200.3155) rotate(-90) scale(0.1 -0.1)">
      <defs>
       <path id="DejaVuSans-69" d="M 603 3500 
L 1178 3500 
L 1178 0 
L 603 0 
L 603 3500 
z
M 603 4863 
L 1178 4863 
L 1178 4134 
L 603 4134 
L 603 4863 
z
" transform="scale(0.015625)"/>
       <path id="DejaVuSans-6e" d="M 3513 2113 
L 3513 0 
L 2938 0 
L 2938 2094 
Q 2938 2591 2744 2837 
Q 2550 3084 2163 3084 
Q 1697 3084 1428 2787 
Q 1159 2491 1159 1978 
L 1159 0 
L 581 0 
L 581 3500 
L 1159 3500 
L 1159 2956 
Q 1366 3272 1645 3428 
Q 1925 3584 2291 3584 
Q 2894 3584 3203 3211 
Q 3513 2838 3513 2113 
z
" transform="scale(0.015625)"/>
       <path id="DejaVuSans-74" d="M 1172 4494 
L 1172 3500 
L 2356 3500 
L 2356 3053 
L 1172 3053 
L 1172 1153 
Q 1172 725 1289 603 
Q 1406 481 1766 481 
L 2356 481 
L 2356 0 
L 1766 0 
Q 1100 0 847 248 
Q 594 497 594 1153 
L 594 3053 
L 172 3053 
L 172 3500 
L 594 3500 
L 594 4494 
L 1172 4494 
z
" transform="scale(0.015625)"/>
       <path id="DejaVuSans-65" d="M 3597 1894 
L 3597 1613 
L 953 1613 
Q 991 1019 1311 708 
Q 1631 397 2203 397 
Q 2534 397 2845 478 
Q 3156 559 3463 722 
L 3463 178 
Q 3153 47 2828 -22 
Q 2503 -91 2169 -91 
Q 1331 -91 842 396 
Q 353 884 353 1716 
Q 353 2575 817 3079 
Q 1281 3584 2069 3584 
Q 2775 3584 3186 3129 
Q 3597 2675 3597 1894 
z
M 3022 2063 
Q 3016 2534 2758 2815 
Q 2500 3097 2075 3097 
Q 1594 3097 1305 2825 
Q 1016 2553 972 2059 
L 3022 2063 
z
" transform="scale(0.015625)"/>
       <path id="DejaVuSans-73" d="M 2834 3397 
L 2834 2853 
Q 2591 2978 2328 3040 
Q 2066 3103 1784 3103 
Q 1356 3103 1142 2972 
Q 928 2841 928 2578 
Q 928 2378 1081 2264 
Q 1234 2150 1697 2047 
L 1894 2003 
Q 2506 1872 2764 1633 
Q 3022 1394 3022 966 
Q 3022 478 2636 193 
Q 2250 -91 1575 -91 
Q 1294 -91 989 -36 
Q 684 19 347 128 
L 347 722 
Q 666 556 975 473 
Q 1284 391 1588 391 
Q 1994 391 2212 530 
Q 2431 669 2431 922 
Q 2431 1156 2273 1281 
Q 2116 1406 1581 1522 
L 1381 1569 
Q 847 1681 609 1914 
Q 372 2147 372 2553 
Q 372 3047 722 3315 
Q 1072 3584 1716 3584 
Q 2034 3584 2315 3537 
Q 2597 3491 2834 3397 
z
" transform="scale(0.015625)"/>
      </defs>
      <use xlink:href="#DejaVuSans-69"/>
      <use xlink:href="#DejaVuSans-6e" x="27.783203"/>
      <use xlink:href="#DejaVuSans-74" x="91.162109"/>
      <use xlink:href="#DejaVuSans-65" x="130.371094"/>
      <use xlink:href="#DejaVuSans-6e" x="191.894531"/>
      <use xlink:href="#DejaVuSans-73" x="255.273438"/>
      <use xlink:href="#DejaVuSans-69" x="307.373047"/>
      <use xlink:href="#DejaVuSans-74" x="335.15625"/>
      <use xlink:href="#DejaVuSans-69" x="374.365234"/>
      <use xlink:href="#DejaVuSans-65" x="402.148438"/>
      <use xlink:href="#DejaVuSans-73" x="463.671875"/>
     </g>
    </g>
    <g id="text_14">
     <!-- 1e6 -->
     <g transform="translate(57.6 38.472) scale(0.1 -0.1)">
      <defs>
       <path id="DejaVuSans-36" d="M 2113 2584 
Q 1688 2584 1439 2293 
Q 1191 2003 1191 1497 
Q 1191 994 1439 701 
Q 1688 409 2113 409 
Q 2538 409 2786 701 
Q 3034 994 3034 1497 
Q 3034 2003 2786 2293 
Q 2538 2584 2113 2584 
z
M 3366 4563 
L 3366 3988 
Q 3128 4100 2886 4159 
Q 2644 4219 2406 4219 
Q 1781 4219 1451 3797 
Q 1122 3375 1075 2522 
Q 1259 2794 1537 2939 
Q 1816 3084 2150 3084 
Q 2853 3084 3261 2657 
Q 3669 2231 3669 1497 
Q 3669 778 3244 343 
Q 2819 -91 2113 -91 
Q 1303 -91 875 529 
Q 447 1150 447 2328 
Q 447 3434 972 4092 
Q 1497 4750 2381 4750 
Q 2619 4750 2861 4703 
Q 3103 4656 3366 4563 
z
" transform="scale(0.015625)"/>
      </defs>
      <use xlink:href="#DejaVuSans-31"/>
      <use xlink:href="#DejaVuSans-65" x="63.623047"/>
      <use xlink:href="#DejaVuSans-36" x="125.146484"/>
     </g>
    </g>
   </g>
   <g id="patch_89">
    <path d="M 57.6 307.584 
L 57.6 41.472 
" style="fill: none; stroke: #000000; stroke-width: 0.8; stroke-linejoin: miter; stroke-linecap: square"/>
   </g>
   <g id="patch_90">
    <path d="M 414.72 307.584 
L 414.72 41.472 
" style="fill: none; stroke: #000000; stroke-width: 0.8; stroke-linejoin: miter; stroke-linecap: square"/>
   </g>
   <g id="patch_91">
    <path d="M 57.6 307.584 
L 414.72 307.584 
" style="fill: none; stroke: #000000; stroke-width: 0.8; stroke-linejoin: miter; stroke-linecap: square"/>
   </g>
   <g id="patch_92">
    <path d="M 57.6 41.472 
L 414.72 41.472 
" style="fill: none; stroke: #000000; stroke-width: 0.8; stroke-linejoin: miter; stroke-linecap: square"/>
   </g>
   <g id="text_15">
    <!-- 57.0344 -->
    <g transform="translate(65.220221 275.374448) scale(0.06 -0.06)">
     <defs>
      <path id="DejaVuSans-37" d="M 525 4666 
L 3525 4666 
L 3525 4397 
L 1831 0 
L 1172 0 
L 2766 4134 
L 525 4134 
L 525 4666 
z
" transform="scale(0.015625)"/>
      <path id="DejaVuSans-2e" d="M 684 794 
L 1344 794 
L 1344 0 
L 684 0 
L 684 794 
z
" transform="scale(0.015625)"/>
     </defs>
     <use xlink:href="#DejaVuSans-35"/>
     <use xlink:href="#DejaVuSans-37" x="63.623047"/>
     <use xlink:href="#DejaVuSans-2e" x="127.246094"/>
     <use xlink:href="#DejaVuSans-30" x="159.033203"/>
     <use xlink:href="#DejaVuSans-33" x="222.65625"/>
     <use xlink:href="#DejaVuSans-34" x="286.279297"/>
     <use xlink:href="#DejaVuSans-34" x="349.902344"/>
    </g>
   </g>
   <g id="text_16">
    <!-- 73.0292 -->
    <g transform="translate(76.686388 217.833995) scale(0.06 -0.06)">
     <defs>
      <path id="DejaVuSans-39" d="M 703 97 
L 703 672 
Q 941 559 1184 500 
Q 1428 441 1663 441 
Q 2288 441 2617 861 
Q 2947 1281 2994 2138 
Q 2813 1869 2534 1725 
Q 2256 1581 1919 1581 
Q 1219 1581 811 2004 
Q 403 2428 403 3163 
Q 403 3881 828 4315 
Q 1253 4750 1959 4750 
Q 2769 4750 3195 4129 
Q 3622 3509 3622 2328 
Q 3622 1225 3098 567 
Q 2575 -91 1691 -91 
Q 1453 -91 1209 -44 
Q 966 3 703 97 
z
M 1959 2075 
Q 2384 2075 2632 2365 
Q 2881 2656 2881 3163 
Q 2881 3666 2632 3958 
Q 2384 4250 1959 4250 
Q 1534 4250 1286 3958 
Q 1038 3666 1038 3163 
Q 1038 2656 1286 2365 
Q 1534 2075 1959 2075 
z
" transform="scale(0.015625)"/>
     </defs>
     <use xlink:href="#DejaVuSans-37"/>
     <use xlink:href="#DejaVuSans-33" x="63.623047"/>
     <use xlink:href="#DejaVuSans-2e" x="127.246094"/>
     <use xlink:href="#DejaVuSans-30" x="159.033203"/>
     <use xlink:href="#DejaVuSans-32" x="222.65625"/>
     <use xlink:href="#DejaVuSans-39" x="286.279297"/>
     <use xlink:href="#DejaVuSans-32" x="349.902344"/>
    </g>
   </g>
   <g id="text_17">
    <!-- 131.034 -->
    <g transform="translate(118.268247 253.341688) scale(0.06 -0.06)">
     <use xlink:href="#DejaVuSans-31"/>
     <use xlink:href="#DejaVuSans-33" x="63.623047"/>
     <use xlink:href="#DejaVuSans-31" x="127.246094"/>
     <use xlink:href="#DejaVuSans-2e" x="190.869141"/>
     <use xlink:href="#DejaVuSans-30" x="222.65625"/>
     <use xlink:href="#DejaVuSans-33" x="286.279297"/>
     <use xlink:href="#DejaVuSans-34" x="349.902344"/>
    </g>
   </g>
   <g id="text_18">
    <!-- 432.2013 -->
    <g transform="translate(332.257193 251.106312) scale(0.06 -0.06)">
     <use xlink:href="#DejaVuSans-34"/>
     <use xlink:href="#DejaVuSans-33" x="63.623047"/>
     <use xlink:href="#DejaVuSans-32" x="127.246094"/>
     <use xlink:href="#DejaVuSans-2e" x="190.869141"/>
     <use xlink:href="#DejaVuSans-32" x="222.65625"/>
     <use xlink:href="#DejaVuSans-30" x="286.279297"/>
     <use xlink:href="#DejaVuSans-31" x="349.902344"/>
     <use xlink:href="#DejaVuSans-33" x="413.525391"/>
    </g>
   </g>
   <g id="text_19">
    <!-- 504.2222 -->
    <g transform="translate(383.886758 50.939625) scale(0.06 -0.06)">
     <use xlink:href="#DejaVuSans-35"/>
     <use xlink:href="#DejaVuSans-30" x="63.623047"/>
     <use xlink:href="#DejaVuSans-34" x="127.246094"/>
     <use xlink:href="#DejaVuSans-2e" x="190.869141"/>
     <use xlink:href="#DejaVuSans-32" x="222.65625"/>
     <use xlink:href="#DejaVuSans-32" x="286.279297"/>
     <use xlink:href="#DejaVuSans-32" x="349.902344"/>
     <use xlink:href="#DejaVuSans-32" x="413.525391"/>
    </g>
   </g>
   <g id="text_20">
    <!-- 505.2253 -->
    <g transform="translate(384.605837 262.940128) scale(0.06 -0.06)">
     <use xlink:href="#DejaVuSans-35"/>
     <use xlink:href="#DejaVuSans-30" x="63.623047"/>
     <use xlink:href="#DejaVuSans-35" x="127.246094"/>
     <use xlink:href="#DejaVuSans-2e" x="190.869141"/>
     <use xlink:href="#DejaVuSans-32" x="222.65625"/>
     <use xlink:href="#DejaVuSans-32" x="286.279297"/>
     <use xlink:href="#DejaVuSans-35" x="349.902344"/>
     <use xlink:href="#DejaVuSans-33" x="413.525391"/>
    </g>
   </g>
   <g id="text_21">
    <!-- MS2 spectrum of ${m/z}$ 504.2592, scan time 5.12 min. -->
    <g transform="translate(57.6 24.873562) scale(0.12 -0.12)">
     <defs>
      <path id="DejaVuSans-4d" d="M 628 4666 
L 1569 4666 
L 2759 1491 
L 3956 4666 
L 4897 4666 
L 4897 0 
L 4281 0 
L 4281 4097 
L 3078 897 
L 2444 897 
L 1241 4097 
L 1241 0 
L 628 0 
L 628 4666 
z
" transform="scale(0.015625)"/>
      <path id="DejaVuSans-53" d="M 3425 4513 
L 3425 3897 
Q 3066 4069 2747 4153 
Q 2428 4238 2131 4238 
Q 1616 4238 1336 4038 
Q 1056 3838 1056 3469 
Q 1056 3159 1242 3001 
Q 1428 2844 1947 2747 
L 2328 2669 
Q 3034 2534 3370 2195 
Q 3706 1856 3706 1288 
Q 3706 609 3251 259 
Q 2797 -91 1919 -91 
Q 1588 -91 1214 -16 
Q 841 59 441 206 
L 441 856 
Q 825 641 1194 531 
Q 1563 422 1919 422 
Q 2459 422 2753 634 
Q 3047 847 3047 1241 
Q 3047 1584 2836 1778 
Q 2625 1972 2144 2069 
L 1759 2144 
Q 1053 2284 737 2584 
Q 422 2884 422 3419 
Q 422 4038 858 4394 
Q 1294 4750 2059 4750 
Q 2388 4750 2728 4690 
Q 3069 4631 3425 4513 
z
" transform="scale(0.015625)"/>
      <path id="DejaVuSans-20" transform="scale(0.015625)"/>
      <path id="DejaVuSans-70" d="M 1159 525 
L 1159 -1331 
L 581 -1331 
L 581 3500 
L 1159 3500 
L 1159 2969 
Q 1341 3281 1617 3432 
Q 1894 3584 2278 3584 
Q 2916 3584 3314 3078 
Q 3713 2572 3713 1747 
Q 3713 922 3314 415 
Q 2916 -91 2278 -91 
Q 1894 -91 1617 61 
Q 1341 213 1159 525 
z
M 3116 1747 
Q 3116 2381 2855 2742 
Q 2594 3103 2138 3103 
Q 1681 3103 1420 2742 
Q 1159 2381 1159 1747 
Q 1159 1113 1420 752 
Q 1681 391 2138 391 
Q 2594 391 2855 752 
Q 3116 1113 3116 1747 
z
" transform="scale(0.015625)"/>
      <path id="DejaVuSans-63" d="M 3122 3366 
L 3122 2828 
Q 2878 2963 2633 3030 
Q 2388 3097 2138 3097 
Q 1578 3097 1268 2742 
Q 959 2388 959 1747 
Q 959 1106 1268 751 
Q 1578 397 2138 397 
Q 2388 397 2633 464 
Q 2878 531 3122 666 
L 3122 134 
Q 2881 22 2623 -34 
Q 2366 -91 2075 -91 
Q 1284 -91 818 406 
Q 353 903 353 1747 
Q 353 2603 823 3093 
Q 1294 3584 2113 3584 
Q 2378 3584 2631 3529 
Q 2884 3475 3122 3366 
z
" transform="scale(0.015625)"/>
      <path id="DejaVuSans-72" d="M 2631 2963 
Q 2534 3019 2420 3045 
Q 2306 3072 2169 3072 
Q 1681 3072 1420 2755 
Q 1159 2438 1159 1844 
L 1159 0 
L 581 0 
L 581 3500 
L 1159 3500 
L 1159 2956 
Q 1341 3275 1631 3429 
Q 1922 3584 2338 3584 
Q 2397 3584 2469 3576 
Q 2541 3569 2628 3553 
L 2631 2963 
z
" transform="scale(0.015625)"/>
      <path id="DejaVuSans-75" d="M 544 1381 
L 544 3500 
L 1119 3500 
L 1119 1403 
Q 1119 906 1312 657 
Q 1506 409 1894 409 
Q 2359 409 2629 706 
Q 2900 1003 2900 1516 
L 2900 3500 
L 3475 3500 
L 3475 0 
L 2900 0 
L 2900 538 
Q 2691 219 2414 64 
Q 2138 -91 1772 -91 
Q 1169 -91 856 284 
Q 544 659 544 1381 
z
M 1991 3584 
L 1991 3584 
z
" transform="scale(0.015625)"/>
      <path id="DejaVuSans-6d" d="M 3328 2828 
Q 3544 3216 3844 3400 
Q 4144 3584 4550 3584 
Q 5097 3584 5394 3201 
Q 5691 2819 5691 2113 
L 5691 0 
L 5113 0 
L 5113 2094 
Q 5113 2597 4934 2840 
Q 4756 3084 4391 3084 
Q 3944 3084 3684 2787 
Q 3425 2491 3425 1978 
L 3425 0 
L 2847 0 
L 2847 2094 
Q 2847 2600 2669 2842 
Q 2491 3084 2119 3084 
Q 1678 3084 1418 2786 
Q 1159 2488 1159 1978 
L 1159 0 
L 581 0 
L 581 3500 
L 1159 3500 
L 1159 2956 
Q 1356 3278 1631 3431 
Q 1906 3584 2284 3584 
Q 2666 3584 2933 3390 
Q 3200 3197 3328 2828 
z
" transform="scale(0.015625)"/>
      <path id="DejaVuSans-6f" d="M 1959 3097 
Q 1497 3097 1228 2736 
Q 959 2375 959 1747 
Q 959 1119 1226 758 
Q 1494 397 1959 397 
Q 2419 397 2687 759 
Q 2956 1122 2956 1747 
Q 2956 2369 2687 2733 
Q 2419 3097 1959 3097 
z
M 1959 3584 
Q 2709 3584 3137 3096 
Q 3566 2609 3566 1747 
Q 3566 888 3137 398 
Q 2709 -91 1959 -91 
Q 1206 -91 779 398 
Q 353 888 353 1747 
Q 353 2609 779 3096 
Q 1206 3584 1959 3584 
z
" transform="scale(0.015625)"/>
      <path id="DejaVuSans-66" d="M 2375 4863 
L 2375 4384 
L 1825 4384 
Q 1516 4384 1395 4259 
Q 1275 4134 1275 3809 
L 1275 3500 
L 2222 3500 
L 2222 3053 
L 1275 3053 
L 1275 0 
L 697 0 
L 697 3053 
L 147 3053 
L 147 3500 
L 697 3500 
L 697 3744 
Q 697 4328 969 4595 
Q 1241 4863 1831 4863 
L 2375 4863 
z
" transform="scale(0.015625)"/>
      <path id="DejaVuSans-2c" d="M 750 794 
L 1409 794 
L 1409 256 
L 897 -744 
L 494 -744 
L 750 256 
L 750 794 
z
" transform="scale(0.015625)"/>
      <path id="DejaVuSans-61" d="M 2194 1759 
Q 1497 1759 1228 1600 
Q 959 1441 959 1056 
Q 959 750 1161 570 
Q 1363 391 1709 391 
Q 2188 391 2477 730 
Q 2766 1069 2766 1631 
L 2766 1759 
L 2194 1759 
z
M 3341 1997 
L 3341 0 
L 2766 0 
L 2766 531 
Q 2569 213 2275 61 
Q 1981 -91 1556 -91 
Q 1019 -91 701 211 
Q 384 513 384 1019 
Q 384 1609 779 1909 
Q 1175 2209 1959 2209 
L 2766 2209 
L 2766 2266 
Q 2766 2663 2505 2880 
Q 2244 3097 1772 3097 
Q 1472 3097 1187 3025 
Q 903 2953 641 2809 
L 641 3341 
Q 956 3463 1253 3523 
Q 1550 3584 1831 3584 
Q 2591 3584 2966 3190 
Q 3341 2797 3341 1997 
z
" transform="scale(0.015625)"/>
     </defs>
     <use xlink:href="#DejaVuSans-4d" transform="translate(0 0.015625)"/>
     <use xlink:href="#DejaVuSans-53" transform="translate(86.279297 0.015625)"/>
     <use xlink:href="#DejaVuSans-32" transform="translate(149.755859 0.015625)"/>
     <use xlink:href="#DejaVuSans-20" transform="translate(213.378906 0.015625)"/>
     <use xlink:href="#DejaVuSans-73" transform="translate(245.166016 0.015625)"/>
     <use xlink:href="#DejaVuSans-70" transform="translate(297.265625 0.015625)"/>
     <use xlink:href="#DejaVuSans-65" transform="translate(360.742188 0.015625)"/>
     <use xlink:href="#DejaVuSans-63" transform="translate(422.265625 0.015625)"/>
     <use xlink:href="#DejaVuSans-74" transform="translate(477.246094 0.015625)"/>
     <use xlink:href="#DejaVuSans-72" transform="translate(516.455078 0.015625)"/>
     <use xlink:href="#DejaVuSans-75" transform="translate(557.568359 0.015625)"/>
     <use xlink:href="#DejaVuSans-6d" transform="translate(620.947266 0.015625)"/>
     <use xlink:href="#DejaVuSans-20" transform="translate(718.359375 0.015625)"/>
     <use xlink:href="#DejaVuSans-6f" transform="translate(750.146484 0.015625)"/>
     <use xlink:href="#DejaVuSans-66" transform="translate(811.328125 0.015625)"/>
     <use xlink:href="#DejaVuSans-20" transform="translate(846.533203 0.015625)"/>
     <use xlink:href="#DejaVuSans-Oblique-6d" transform="translate(878.320312 0.015625)"/>
     <use xlink:href="#DejaVuSans-2f" transform="translate(975.732422 0.015625)"/>
     <use xlink:href="#DejaVuSans-Oblique-7a" transform="translate(1009.423828 0.015625)"/>
     <use xlink:href="#DejaVuSans-20" transform="translate(1061.914062 0.015625)"/>
     <use xlink:href="#DejaVuSans-35" transform="translate(1093.701172 0.015625)"/>
     <use xlink:href="#DejaVuSans-30" transform="translate(1157.324219 0.015625)"/>
     <use xlink:href="#DejaVuSans-34" transform="translate(1220.947266 0.015625)"/>
     <use xlink:href="#DejaVuSans-2e" transform="translate(1284.570312 0.015625)"/>
     <use xlink:href="#DejaVuSans-32" transform="translate(1310.857422 0.015625)"/>
     <use xlink:href="#DejaVuSans-35" transform="translate(1374.480469 0.015625)"/>
     <use xlink:href="#DejaVuSans-39" transform="translate(1432.603516 0.015625)"/>
     <use xlink:href="#DejaVuSans-32" transform="translate(1494.476562 0.015625)"/>
     <use xlink:href="#DejaVuSans-2c" transform="translate(1558.099609 0.015625)"/>
     <use xlink:href="#DejaVuSans-20" transform="translate(1589.886719 0.015625)"/>
     <use xlink:href="#DejaVuSans-73" transform="translate(1621.673828 0.015625)"/>
     <use xlink:href="#DejaVuSans-63" transform="translate(1673.773438 0.015625)"/>
     <use xlink:href="#DejaVuSans-61" transform="translate(1728.753906 0.015625)"/>
     <use xlink:href="#DejaVuSans-6e" transform="translate(1790.033203 0.015625)"/>
     <use xlink:href="#DejaVuSans-20" transform="translate(1853.412109 0.015625)"/>
     <use xlink:href="#DejaVuSans-74" transform="translate(1885.199219 0.015625)"/>
     <use xlink:href="#DejaVuSans-69" transform="translate(1924.408203 0.015625)"/>
     <use xlink:href="#DejaVuSans-6d" transform="translate(1952.191406 0.015625)"/>
     <use xlink:href="#DejaVuSans-65" transform="translate(2049.603516 0.015625)"/>
     <use xlink:href="#DejaVuSans-20" transform="translate(2111.126953 0.015625)"/>
     <use xlink:href="#DejaVuSans-35" transform="translate(2142.914062 0.015625)"/>
     <use xlink:href="#DejaVuSans-2e" transform="translate(2206.537109 0.015625)"/>
     <use xlink:href="#DejaVuSans-31" transform="translate(2238.324219 0.015625)"/>
     <use xlink:href="#DejaVuSans-32" transform="translate(2301.947266 0.015625)"/>
     <use xlink:href="#DejaVuSans-20" transform="translate(2365.570312 0.015625)"/>
     <use xlink:href="#DejaVuSans-6d" transform="translate(2397.357422 0.015625)"/>
     <use xlink:href="#DejaVuSans-69" transform="translate(2494.769531 0.015625)"/>
     <use xlink:href="#DejaVuSans-6e" transform="translate(2522.552734 0.015625)"/>
     <use xlink:href="#DejaVuSans-2e" transform="translate(2585.931641 0.015625)"/>
    </g>
   </g>
  </g>
 </g>
 <defs>
  <clipPath id="p25706635c4">
   <rect x="57.6" y="41.472" width="357.12" height="266.112"/>
  </clipPath>
 </defs>
</svg>
