<?xml version="1.0" encoding="utf-8" standalone="no"?>
<!DOCTYPE svg PUBLIC "-//W3C//DTD SVG 1.1//EN"
  "http://www.w3.org/Graphics/SVG/1.1/DTD/svg11.dtd">
<svg xmlns:xlink="http://www.w3.org/1999/xlink" width="460.8pt" height="345.6pt" viewBox="0 0 460.8 345.6" xmlns="http://www.w3.org/2000/svg" version="1.1">
 <metadata>
  <rdf:RDF xmlns:dc="http://purl.org/dc/elements/1.1/" xmlns:cc="http://creativecommons.org/ns#" xmlns:rdf="http://www.w3.org/1999/02/22-rdf-syntax-ns#">
   <cc:Work>
    <dc:type rdf:resource="http://purl.org/dc/dcmitype/StillImage"/>
    <dc:date>2025-04-24T13:44:48.903072</dc:date>
    <dc:format>image/svg+xml</dc:format>
    <dc:creator>
     <cc:Agent>
      <dc:title>Matplotlib v3.7.3, https://matplotlib.org/</dc:title>
     </cc:Agent>
    </dc:creator>
   </cc:Work>
  </rdf:RDF>
 </metadata>
 <defs>
  <style type="text/css">*{stroke-linejoin: round; stroke-linecap: butt}</style>
 </defs>
 <g id="figure_1">
  <g id="patch_1">
   <path d="M 0 345.6 
L 460.8 345.6 
L 460.8 0 
L 0 0 
z
" style="fill: #ffffff"/>
  </g>
  <g id="axes_1">
   <g id="patch_2">
    <path d="M 57.6 307.584 
L 414.72 307.584 
L 414.72 41.472 
L 57.6 41.472 
z
" style="fill: #ffffff"/>
   </g>
   <g id="patch_3">
    <path d="M 73.832727 307.584 
L 74.098945 307.584 
L 74.098945 306.828126 
L 73.832727 306.828126 
z
" clip-path="url(#p01842b6c61)" style="fill: #1f77b4"/>
   </g>
   <g id="patch_4">
    <path d="M 75.661293 307.584 
L 75.927511 307.584 
L 75.927511 305.829505 
L 75.661293 305.829505 
z
" clip-path="url(#p01842b6c61)" style="fill: #1f77b4"/>
   </g>
   <g id="patch_5">
    <path d="M 75.732695 307.584 
L 75.998913 307.584 
L 75.998913 306.674673 
L 75.732695 306.674673 
z
" clip-path="url(#p01842b6c61)" style="fill: #1f77b4"/>
   </g>
   <g id="patch_6">
    <path d="M 75.837685 307.584 
L 76.103903 307.584 
L 76.103903 306.842829 
L 75.837685 306.842829 
z
" clip-path="url(#p01842b6c61)" style="fill: #1f77b4"/>
   </g>
   <g id="patch_7">
    <path d="M 76.060098 307.584 
L 76.326316 307.584 
L 76.326316 305.106401 
L 76.060098 305.106401 
z
" clip-path="url(#p01842b6c61)" style="fill: #1f77b4"/>
   </g>
   <g id="patch_8">
    <path d="M 76.072267 307.584 
L 76.338485 307.584 
L 76.338485 300.93448 
L 76.072267 300.93448 
z
" clip-path="url(#p01842b6c61)" style="fill: #1f77b4"/>
   </g>
   <g id="patch_9">
    <path d="M 76.730838 307.584 
L 76.997056 307.584 
L 76.997056 305.011998 
L 76.730838 305.011998 
z
" clip-path="url(#p01842b6c61)" style="fill: #1f77b4"/>
   </g>
   <g id="patch_10">
    <path d="M 76.741389 307.584 
L 77.007607 307.584 
L 77.007607 306.424591 
L 76.741389 306.424591 
z
" clip-path="url(#p01842b6c61)" style="fill: #1f77b4"/>
   </g>
   <g id="patch_11">
    <path d="M 76.743032 307.584 
L 77.00925 307.584 
L 77.00925 290.861556 
L 76.743032 290.861556 
z
" clip-path="url(#p01842b6c61)" style="fill: #1f77b4"/>
   </g>
   <g id="patch_12">
    <path d="M 77.401768 307.584 
L 77.667986 307.584 
L 77.667986 306.852755 
L 77.401768 306.852755 
z
" clip-path="url(#p01842b6c61)" style="fill: #1f77b4"/>
   </g>
   <g id="patch_13">
    <path d="M 78.392811 307.584 
L 78.659029 307.584 
L 78.659029 306.860355 
L 78.392811 306.860355 
z
" clip-path="url(#p01842b6c61)" style="fill: #1f77b4"/>
   </g>
   <g id="patch_14">
    <path d="M 78.540745 307.584 
L 78.806963 307.584 
L 78.806963 304.774793 
L 78.540745 304.774793 
z
" clip-path="url(#p01842b6c61)" style="fill: #1f77b4"/>
   </g>
   <g id="patch_15">
    <path d="M 79.483421 307.584 
L 79.749639 307.584 
L 79.749639 306.733543 
L 79.483421 306.733543 
z
" clip-path="url(#p01842b6c61)" style="fill: #1f77b4"/>
   </g>
   <g id="patch_16">
    <path d="M 80.065496 307.584 
L 80.331714 307.584 
L 80.331714 300.704115 
L 80.065496 300.704115 
z
" clip-path="url(#p01842b6c61)" style="fill: #1f77b4"/>
   </g>
   <g id="patch_17">
    <path d="M 80.736259 307.584 
L 81.002477 307.584 
L 81.002477 241.340117 
L 80.736259 241.340117 
z
" clip-path="url(#p01842b6c61)" style="fill: #1f77b4"/>
   </g>
   <g id="patch_18">
    <path d="M 81.070148 307.584 
L 81.336366 307.584 
L 81.336366 305.807754 
L 81.070148 305.807754 
z
" clip-path="url(#p01842b6c61)" style="fill: #1f77b4"/>
   </g>
   <g id="patch_19">
    <path d="M 81.942752 307.584 
L 82.20897 307.584 
L 82.20897 306.333896 
L 81.942752 306.333896 
z
" clip-path="url(#p01842b6c61)" style="fill: #1f77b4"/>
   </g>
   <g id="patch_20">
    <path d="M 84.720963 307.584 
L 84.987181 307.584 
L 84.987181 303.292314 
L 84.720963 303.292314 
z
" clip-path="url(#p01842b6c61)" style="fill: #1f77b4"/>
   </g>
   <g id="patch_21">
    <path d="M 84.729435 307.584 
L 84.995653 307.584 
L 84.995653 306.73515 
L 84.729435 306.73515 
z
" clip-path="url(#p01842b6c61)" style="fill: #1f77b4"/>
   </g>
   <g id="patch_22">
    <path d="M 85.003169 307.584 
L 85.269387 307.584 
L 85.269387 306.923583 
L 85.003169 306.923583 
z
" clip-path="url(#p01842b6c61)" style="fill: #1f77b4"/>
   </g>
   <g id="patch_23">
    <path d="M 85.715444 307.584 
L 85.981662 307.584 
L 85.981662 305.216619 
L 85.715444 305.216619 
z
" clip-path="url(#p01842b6c61)" style="fill: #1f77b4"/>
   </g>
   <g id="patch_24">
    <path d="M 88.051991 307.584 
L 88.318209 307.584 
L 88.318209 303.686924 
L 88.051991 303.686924 
z
" clip-path="url(#p01842b6c61)" style="fill: #1f77b4"/>
   </g>
   <g id="patch_25">
    <path d="M 88.722588 307.584 
L 88.988806 307.584 
L 88.988806 306.186167 
L 88.722588 306.186167 
z
" clip-path="url(#p01842b6c61)" style="fill: #1f77b4"/>
   </g>
   <g id="patch_26">
    <path d="M 89.39334 307.584 
L 89.659558 307.584 
L 89.659558 302.710322 
L 89.39334 302.710322 
z
" clip-path="url(#p01842b6c61)" style="fill: #1f77b4"/>
   </g>
   <g id="patch_27">
    <path d="M 90.356337 307.584 
L 90.622555 307.584 
L 90.622555 306.844933 
L 90.356337 306.844933 
z
" clip-path="url(#p01842b6c61)" style="fill: #1f77b4"/>
   </g>
   <g id="patch_28">
    <path d="M 90.359666 307.584 
L 90.625884 307.584 
L 90.625884 306.929826 
L 90.359666 306.929826 
z
" clip-path="url(#p01842b6c61)" style="fill: #1f77b4"/>
   </g>
   <g id="patch_29">
    <path d="M 90.383397 307.584 
L 90.649615 307.584 
L 90.649615 306.688041 
L 90.383397 306.688041 
z
" clip-path="url(#p01842b6c61)" style="fill: #1f77b4"/>
   </g>
   <g id="patch_30">
    <path d="M 91.053915 307.584 
L 91.320133 307.584 
L 91.320133 304.826221 
L 91.053915 304.826221 
z
" clip-path="url(#p01842b6c61)" style="fill: #1f77b4"/>
   </g>
   <g id="patch_31">
    <path d="M 91.712463 307.584 
L 91.978681 307.584 
L 91.978681 303.833385 
L 91.712463 303.833385 
z
" clip-path="url(#p01842b6c61)" style="fill: #1f77b4"/>
   </g>
   <g id="patch_32">
    <path d="M 93.37463 307.584 
L 93.640848 307.584 
L 93.640848 305.105225 
L 93.37463 305.105225 
z
" clip-path="url(#p01842b6c61)" style="fill: #1f77b4"/>
   </g>
   <g id="patch_33">
    <path d="M 94.716043 307.584 
L 94.982261 307.584 
L 94.982261 300.514648 
L 94.716043 300.514648 
z
" clip-path="url(#p01842b6c61)" style="fill: #1f77b4"/>
   </g>
   <g id="patch_34">
    <path d="M 95.03642 307.584 
L 95.302638 307.584 
L 95.302638 304.925502 
L 95.03642 304.925502 
z
" clip-path="url(#p01842b6c61)" style="fill: #1f77b4"/>
   </g>
   <g id="patch_35">
    <path d="M 95.371808 307.584 
L 95.638026 307.584 
L 95.638026 304.705596 
L 95.371808 304.705596 
z
" clip-path="url(#p01842b6c61)" style="fill: #1f77b4"/>
   </g>
   <g id="patch_36">
    <path d="M 95.382898 307.584 
L 95.649116 307.584 
L 95.649116 306.626928 
L 95.382898 306.626928 
z
" clip-path="url(#p01842b6c61)" style="fill: #1f77b4"/>
   </g>
   <g id="patch_37">
    <path d="M 95.386782 307.584 
L 95.653 307.584 
L 95.653 287.812212 
L 95.386782 287.812212 
z
" clip-path="url(#p01842b6c61)" style="fill: #1f77b4"/>
   </g>
   <g id="patch_38">
    <path d="M 97.018782 307.584 
L 97.285 307.584 
L 97.285 306.761051 
L 97.018782 306.761051 
z
" clip-path="url(#p01842b6c61)" style="fill: #1f77b4"/>
   </g>
   <g id="patch_39">
    <path d="M 98.222828 307.584 
L 98.489046 307.584 
L 98.489046 306.757416 
L 98.222828 306.757416 
z
" clip-path="url(#p01842b6c61)" style="fill: #1f77b4"/>
   </g>
   <g id="patch_40">
    <path d="M 101.363622 307.584 
L 101.62984 307.584 
L 101.62984 304.260266 
L 101.363622 304.260266 
z
" clip-path="url(#p01842b6c61)" style="fill: #1f77b4"/>
   </g>
   <g id="patch_41">
    <path d="M 101.380252 307.584 
L 101.64647 307.584 
L 101.64647 305.978286 
L 101.380252 305.978286 
z
" clip-path="url(#p01842b6c61)" style="fill: #1f77b4"/>
   </g>
   <g id="patch_42">
    <path d="M 102.200784 307.584 
L 102.467002 307.584 
L 102.467002 306.832113 
L 102.200784 306.832113 
z
" clip-path="url(#p01842b6c61)" style="fill: #1f77b4"/>
   </g>
   <g id="patch_43">
    <path d="M 103.38556 307.584 
L 103.651778 307.584 
L 103.651778 306.101717 
L 103.38556 306.101717 
z
" clip-path="url(#p01842b6c61)" style="fill: #1f77b4"/>
   </g>
   <g id="patch_44">
    <path d="M 104.031997 307.584 
L 104.298215 307.584 
L 104.298215 306.687464 
L 104.031997 306.687464 
z
" clip-path="url(#p01842b6c61)" style="fill: #1f77b4"/>
   </g>
   <g id="patch_45">
    <path d="M 106.346771 307.584 
L 106.612989 307.584 
L 106.612989 302.244639 
L 106.346771 302.244639 
z
" clip-path="url(#p01842b6c61)" style="fill: #1f77b4"/>
   </g>
   <g id="patch_46">
    <path d="M 108.696073 307.584 
L 108.962291 307.584 
L 108.962291 306.495849 
L 108.696073 306.495849 
z
" clip-path="url(#p01842b6c61)" style="fill: #1f77b4"/>
   </g>
   <g id="patch_47">
    <path d="M 110.335826 307.584 
L 110.602044 307.584 
L 110.602044 306.482848 
L 110.335826 306.482848 
z
" clip-path="url(#p01842b6c61)" style="fill: #1f77b4"/>
   </g>
   <g id="patch_48">
    <path d="M 110.369029 307.584 
L 110.635247 307.584 
L 110.635247 306.758603 
L 110.369029 306.758603 
z
" clip-path="url(#p01842b6c61)" style="fill: #1f77b4"/>
   </g>
   <g id="patch_49">
    <path d="M 112.042986 307.584 
L 112.309204 307.584 
L 112.309204 306.452786 
L 112.042986 306.452786 
z
" clip-path="url(#p01842b6c61)" style="fill: #1f77b4"/>
   </g>
   <g id="patch_50">
    <path d="M 113.032667 307.584 
L 113.298885 307.584 
L 113.298885 304.82226 
L 113.032667 304.82226 
z
" clip-path="url(#p01842b6c61)" style="fill: #1f77b4"/>
   </g>
   <g id="patch_51">
    <path d="M 113.360219 307.584 
L 113.626437 307.584 
L 113.626437 300.955453 
L 113.360219 300.955453 
z
" clip-path="url(#p01842b6c61)" style="fill: #1f77b4"/>
   </g>
   <g id="patch_52">
    <path d="M 113.824972 307.584 
L 114.09119 307.584 
L 114.09119 306.733458 
L 113.824972 306.733458 
z
" clip-path="url(#p01842b6c61)" style="fill: #1f77b4"/>
   </g>
   <g id="patch_53">
    <path d="M 114.570298 307.584 
L 114.836516 307.584 
L 114.836516 306.858623 
L 114.570298 306.858623 
z
" clip-path="url(#p01842b6c61)" style="fill: #1f77b4"/>
   </g>
   <g id="patch_54">
    <path d="M 115.335122 307.584 
L 115.60134 307.584 
L 115.60134 214.935475 
L 115.335122 214.935475 
z
" clip-path="url(#p01842b6c61)" style="fill: #1f77b4"/>
   </g>
   <g id="patch_55">
    <path d="M 115.668956 307.584 
L 115.935174 307.584 
L 115.935174 301.707243 
L 115.668956 301.707243 
z
" clip-path="url(#p01842b6c61)" style="fill: #1f77b4"/>
   </g>
   <g id="patch_56">
    <path d="M 120.669967 307.584 
L 120.936185 307.584 
L 120.936185 306.46488 
L 120.669967 306.46488 
z
" clip-path="url(#p01842b6c61)" style="fill: #1f77b4"/>
   </g>
   <g id="patch_57">
    <path d="M 121.001237 307.584 
L 121.267455 307.584 
L 121.267455 306.186125 
L 121.001237 306.186125 
z
" clip-path="url(#p01842b6c61)" style="fill: #1f77b4"/>
   </g>
   <g id="patch_58">
    <path d="M 136.676002 307.584 
L 136.94222 307.584 
L 136.94222 306.049237 
L 136.676002 306.049237 
z
" clip-path="url(#p01842b6c61)" style="fill: #1f77b4"/>
   </g>
   <g id="patch_59">
    <path d="M 138.671662 307.584 
L 138.93788 307.584 
L 138.93788 306.50899 
L 138.671662 306.50899 
z
" clip-path="url(#p01842b6c61)" style="fill: #1f77b4"/>
   </g>
   <g id="patch_60">
    <path d="M 141.675338 307.584 
L 141.941556 307.584 
L 141.941556 245.677945 
L 141.675338 245.677945 
z
" clip-path="url(#p01842b6c61)" style="fill: #1f77b4"/>
   </g>
   <g id="patch_61">
    <path d="M 142.009218 307.584 
L 142.275436 307.584 
L 142.275436 303.329217 
L 142.009218 303.329217 
z
" clip-path="url(#p01842b6c61)" style="fill: #1f77b4"/>
   </g>
   <g id="patch_62">
    <path d="M 150.991272 307.584 
L 151.25749 307.584 
L 151.25749 287.180383 
L 150.991272 287.180383 
z
" clip-path="url(#p01842b6c61)" style="fill: #1f77b4"/>
   </g>
   <g id="patch_63">
    <path d="M 151.002311 307.584 
L 151.268529 307.584 
L 151.268529 306.082139 
L 151.002311 306.082139 
z
" clip-path="url(#p01842b6c61)" style="fill: #1f77b4"/>
   </g>
   <g id="patch_64">
    <path d="M 158.620149 307.584 
L 158.886367 307.584 
L 158.886367 294.689104 
L 158.620149 294.689104 
z
" clip-path="url(#p01842b6c61)" style="fill: #1f77b4"/>
   </g>
   <g id="patch_65">
    <path d="M 173.202659 307.584 
L 173.468877 307.584 
L 173.468877 306.834919 
L 173.202659 306.834919 
z
" clip-path="url(#p01842b6c61)" style="fill: #1f77b4"/>
   </g>
   <g id="patch_66">
    <path d="M 194.276873 307.584 
L 194.543091 307.584 
L 194.543091 306.138747 
L 194.276873 306.138747 
z
" clip-path="url(#p01842b6c61)" style="fill: #1f77b4"/>
   </g>
   <g id="patch_67">
    <path d="M 205.579602 307.584 
L 205.84582 307.584 
L 205.84582 301.050964 
L 205.579602 301.050964 
z
" clip-path="url(#p01842b6c61)" style="fill: #1f77b4"/>
   </g>
   <g id="patch_68">
    <path d="M 205.913248 307.584 
L 206.179466 307.584 
L 206.179466 305.823538 
L 205.913248 305.823538 
z
" clip-path="url(#p01842b6c61)" style="fill: #1f77b4"/>
   </g>
   <g id="patch_69">
    <path d="M 245.703316 307.584 
L 245.969534 307.584 
L 245.969534 306.656232 
L 245.703316 306.656232 
z
" clip-path="url(#p01842b6c61)" style="fill: #1f77b4"/>
   </g>
   <g id="patch_70">
    <path d="M 251.867894 307.584 
L 252.134112 307.584 
L 252.134112 304.79966 
L 251.867894 304.79966 
z
" clip-path="url(#p01842b6c61)" style="fill: #1f77b4"/>
   </g>
   <g id="patch_71">
    <path d="M 258.36561 307.584 
L 258.631828 307.584 
L 258.631828 306.683768 
L 258.36561 306.683768 
z
" clip-path="url(#p01842b6c61)" style="fill: #1f77b4"/>
   </g>
   <g id="patch_72">
    <path d="M 260.850172 307.584 
L 261.11639 307.584 
L 261.11639 305.97548 
L 260.850172 305.97548 
z
" clip-path="url(#p01842b6c61)" style="fill: #1f77b4"/>
   </g>
   <g id="patch_73">
    <path d="M 261.146304 307.584 
L 261.412522 307.584 
L 261.412522 305.98898 
L 261.146304 305.98898 
z
" clip-path="url(#p01842b6c61)" style="fill: #1f77b4"/>
   </g>
   <g id="patch_74">
    <path d="M 261.184021 307.584 
L 261.450239 307.584 
L 261.450239 54.144 
L 261.184021 54.144 
z
" clip-path="url(#p01842b6c61)" style="fill: #1f77b4"/>
   </g>
   <g id="patch_75">
    <path d="M 261.51787 307.584 
L 261.784088 307.584 
L 261.784088 264.173618 
L 261.51787 264.173618 
z
" clip-path="url(#p01842b6c61)" style="fill: #1f77b4"/>
   </g>
   <g id="patch_76">
    <path d="M 323.578439 307.584 
L 323.844657 307.584 
L 323.844657 306.826203 
L 323.578439 306.826203 
z
" clip-path="url(#p01842b6c61)" style="fill: #1f77b4"/>
   </g>
   <g id="patch_77">
    <path d="M 372.644815 307.584 
L 372.911033 307.584 
L 372.911033 306.609275 
L 372.644815 306.609275 
z
" clip-path="url(#p01842b6c61)" style="fill: #1f77b4"/>
   </g>
   <g id="patch_78">
    <path d="M 398.221055 307.584 
L 398.487273 307.584 
L 398.487273 305.86053 
L 398.221055 305.86053 
z
" clip-path="url(#p01842b6c61)" style="fill: #1f77b4"/>
   </g>
   <g id="matplotlib.axis_1">
    <g id="xtick_1">
     <g id="line2d_1">
      <defs>
       <path id="mcb1fc6daec" d="M 0 0 
L 0 3.5 
" style="stroke: #000000; stroke-width: 0.8"/>
      </defs>
      <g>
       <use xlink:href="#mcb1fc6daec" x="114.779912" y="307.584" style="stroke: #000000; stroke-width: 0.8"/>
      </g>
     </g>
     <g id="text_1">
      <!-- 200 -->
      <g transform="translate(105.236162 322.182437) scale(0.1 -0.1)">
       <defs>
        <path id="DejaVuSans-32" d="M 1228 531 
L 3431 531 
L 3431 0 
L 469 0 
L 469 531 
Q 828 903 1448 1529 
Q 2069 2156 2228 2338 
Q 2531 2678 2651 2914 
Q 2772 3150 2772 3378 
Q 2772 3750 2511 3984 
Q 2250 4219 1831 4219 
Q 1534 4219 1204 4116 
Q 875 4013 500 3803 
L 500 4441 
Q 881 4594 1212 4672 
Q 1544 4750 1819 4750 
Q 2544 4750 2975 4387 
Q 3406 4025 3406 3419 
Q 3406 3131 3298 2873 
Q 3191 2616 2906 2266 
Q 2828 2175 2409 1742 
Q 1991 1309 1228 531 
z
" transform="scale(0.015625)"/>
        <path id="DejaVuSans-30" d="M 2034 4250 
Q 1547 4250 1301 3770 
Q 1056 3291 1056 2328 
Q 1056 1369 1301 889 
Q 1547 409 2034 409 
Q 2525 409 2770 889 
Q 3016 1369 3016 2328 
Q 3016 3291 2770 3770 
Q 2525 4250 2034 4250 
z
M 2034 4750 
Q 2819 4750 3233 4129 
Q 3647 3509 3647 2328 
Q 3647 1150 3233 529 
Q 2819 -91 2034 -91 
Q 1250 -91 836 529 
Q 422 1150 422 2328 
Q 422 3509 836 4129 
Q 1250 4750 2034 4750 
z
" transform="scale(0.015625)"/>
       </defs>
       <use xlink:href="#DejaVuSans-32"/>
       <use xlink:href="#DejaVuSans-30" x="63.623047"/>
       <use xlink:href="#DejaVuSans-30" x="127.246094"/>
      </g>
     </g>
    </g>
    <g id="xtick_2">
     <g id="line2d_2">
      <g>
       <use xlink:href="#mcb1fc6daec" x="181.334413" y="307.584" style="stroke: #000000; stroke-width: 0.8"/>
      </g>
     </g>
     <g id="text_2">
      <!-- 400 -->
      <g transform="translate(171.790663 322.182437) scale(0.1 -0.1)">
       <defs>
        <path id="DejaVuSans-34" d="M 2419 4116 
L 825 1625 
L 2419 1625 
L 2419 4116 
z
M 2253 4666 
L 3047 4666 
L 3047 1625 
L 3713 1625 
L 3713 1100 
L 3047 1100 
L 3047 0 
L 2419 0 
L 2419 1100 
L 313 1100 
L 313 1709 
L 2253 4666 
z
" transform="scale(0.015625)"/>
       </defs>
       <use xlink:href="#DejaVuSans-34"/>
       <use xlink:href="#DejaVuSans-30" x="63.623047"/>
       <use xlink:href="#DejaVuSans-30" x="127.246094"/>
      </g>
     </g>
    </g>
    <g id="xtick_3">
     <g id="line2d_3">
      <g>
       <use xlink:href="#mcb1fc6daec" x="247.888914" y="307.584" style="stroke: #000000; stroke-width: 0.8"/>
      </g>
     </g>
     <g id="text_3">
      <!-- 600 -->
      <g transform="translate(238.345164 322.182437) scale(0.1 -0.1)">
       <defs>
        <path id="DejaVuSans-36" d="M 2113 2584 
Q 1688 2584 1439 2293 
Q 1191 2003 1191 1497 
Q 1191 994 1439 701 
Q 1688 409 2113 409 
Q 2538 409 2786 701 
Q 3034 994 3034 1497 
Q 3034 2003 2786 2293 
Q 2538 2584 2113 2584 
z
M 3366 4563 
L 3366 3988 
Q 3128 4100 2886 4159 
Q 2644 4219 2406 4219 
Q 1781 4219 1451 3797 
Q 1122 3375 1075 2522 
Q 1259 2794 1537 2939 
Q 1816 3084 2150 3084 
Q 2853 3084 3261 2657 
Q 3669 2231 3669 1497 
Q 3669 778 3244 343 
Q 2819 -91 2113 -91 
Q 1303 -91 875 529 
Q 447 1150 447 2328 
Q 447 3434 972 4092 
Q 1497 4750 2381 4750 
Q 2619 4750 2861 4703 
Q 3103 4656 3366 4563 
z
" transform="scale(0.015625)"/>
       </defs>
       <use xlink:href="#DejaVuSans-36"/>
       <use xlink:href="#DejaVuSans-30" x="63.623047"/>
       <use xlink:href="#DejaVuSans-30" x="127.246094"/>
      </g>
     </g>
    </g>
    <g id="xtick_4">
     <g id="line2d_4">
      <g>
       <use xlink:href="#mcb1fc6daec" x="314.443415" y="307.584" style="stroke: #000000; stroke-width: 0.8"/>
      </g>
     </g>
     <g id="text_4">
      <!-- 800 -->
      <g transform="translate(304.899665 322.182437) scale(0.1 -0.1)">
       <defs>
        <path id="DejaVuSans-38" d="M 2034 2216 
Q 1584 2216 1326 1975 
Q 1069 1734 1069 1313 
Q 1069 891 1326 650 
Q 1584 409 2034 409 
Q 2484 409 2743 651 
Q 3003 894 3003 1313 
Q 3003 1734 2745 1975 
Q 2488 2216 2034 2216 
z
M 1403 2484 
Q 997 2584 770 2862 
Q 544 3141 544 3541 
Q 544 4100 942 4425 
Q 1341 4750 2034 4750 
Q 2731 4750 3128 4425 
Q 3525 4100 3525 3541 
Q 3525 3141 3298 2862 
Q 3072 2584 2669 2484 
Q 3125 2378 3379 2068 
Q 3634 1759 3634 1313 
Q 3634 634 3220 271 
Q 2806 -91 2034 -91 
Q 1263 -91 848 271 
Q 434 634 434 1313 
Q 434 1759 690 2068 
Q 947 2378 1403 2484 
z
M 1172 3481 
Q 1172 3119 1398 2916 
Q 1625 2713 2034 2713 
Q 2441 2713 2670 2916 
Q 2900 3119 2900 3481 
Q 2900 3844 2670 4047 
Q 2441 4250 2034 4250 
Q 1625 4250 1398 4047 
Q 1172 3844 1172 3481 
z
" transform="scale(0.015625)"/>
       </defs>
       <use xlink:href="#DejaVuSans-38"/>
       <use xlink:href="#DejaVuSans-30" x="63.623047"/>
       <use xlink:href="#DejaVuSans-30" x="127.246094"/>
      </g>
     </g>
    </g>
    <g id="xtick_5">
     <g id="line2d_5">
      <g>
       <use xlink:href="#mcb1fc6daec" x="380.997917" y="307.584" style="stroke: #000000; stroke-width: 0.8"/>
      </g>
     </g>
     <g id="text_5">
      <!-- 1000 -->
      <g transform="translate(368.272917 322.182437) scale(0.1 -0.1)">
       <defs>
        <path id="DejaVuSans-31" d="M 794 531 
L 1825 531 
L 1825 4091 
L 703 3866 
L 703 4441 
L 1819 4666 
L 2450 4666 
L 2450 531 
L 3481 531 
L 3481 0 
L 794 0 
L 794 531 
z
" transform="scale(0.015625)"/>
       </defs>
       <use xlink:href="#DejaVuSans-31"/>
       <use xlink:href="#DejaVuSans-30" x="63.623047"/>
       <use xlink:href="#DejaVuSans-30" x="127.246094"/>
       <use xlink:href="#DejaVuSans-30" x="190.869141"/>
      </g>
     </g>
    </g>
    <g id="text_6">
     <!-- ${m/z}$ -->
     <g transform="translate(226.96 335.860562) scale(0.1 -0.1)">
      <defs>
       <path id="DejaVuSans-Oblique-6d" d="M 5747 2113 
L 5338 0 
L 4763 0 
L 5166 2094 
Q 5191 2228 5203 2325 
Q 5216 2422 5216 2491 
Q 5216 2772 5059 2928 
Q 4903 3084 4622 3084 
Q 4203 3084 3875 2770 
Q 3547 2456 3450 1953 
L 3066 0 
L 2491 0 
L 2900 2094 
Q 2925 2209 2937 2307 
Q 2950 2406 2950 2484 
Q 2950 2769 2794 2926 
Q 2638 3084 2363 3084 
Q 1938 3084 1609 2770 
Q 1281 2456 1184 1953 
L 800 0 
L 225 0 
L 909 3500 
L 1484 3500 
L 1375 2956 
Q 1609 3263 1923 3423 
Q 2238 3584 2597 3584 
Q 2978 3584 3223 3384 
Q 3469 3184 3519 2828 
Q 3781 3197 4126 3390 
Q 4472 3584 4856 3584 
Q 5306 3584 5551 3325 
Q 5797 3066 5797 2591 
Q 5797 2488 5784 2364 
Q 5772 2241 5747 2113 
z
" transform="scale(0.015625)"/>
       <path id="DejaVuSans-2f" d="M 1625 4666 
L 2156 4666 
L 531 -594 
L 0 -594 
L 1625 4666 
z
" transform="scale(0.015625)"/>
       <path id="DejaVuSans-Oblique-7a" d="M 744 3500 
L 3475 3500 
L 3372 2975 
L 738 459 
L 2913 459 
L 2822 0 
L -19 0 
L 84 525 
L 2719 3041 
L 653 3041 
L 744 3500 
z
" transform="scale(0.015625)"/>
      </defs>
      <use xlink:href="#DejaVuSans-Oblique-6d" transform="translate(0 0.09375)"/>
      <use xlink:href="#DejaVuSans-2f" transform="translate(97.412109 0.09375)"/>
      <use xlink:href="#DejaVuSans-Oblique-7a" transform="translate(131.103516 0.09375)"/>
     </g>
    </g>
   </g>
   <g id="matplotlib.axis_2">
    <g id="ytick_1">
     <g id="line2d_6">
      <defs>
       <path id="m027de3b0c7" d="M 0 0 
L -3.5 0 
" style="stroke: #000000; stroke-width: 0.8"/>
      </defs>
      <g>
       <use xlink:href="#m027de3b0c7" x="57.6" y="307.584" style="stroke: #000000; stroke-width: 0.8"/>
      </g>
     </g>
     <g id="text_7">
      <!-- 0.0 -->
      <g transform="translate(34.696875 311.383219) scale(0.1 -0.1)">
       <defs>
        <path id="DejaVuSans-2e" d="M 684 794 
L 1344 794 
L 1344 0 
L 684 0 
L 684 794 
z
" transform="scale(0.015625)"/>
       </defs>
       <use xlink:href="#DejaVuSans-30"/>
       <use xlink:href="#DejaVuSans-2e" x="63.623047"/>
       <use xlink:href="#DejaVuSans-30" x="95.410156"/>
      </g>
     </g>
    </g>
    <g id="ytick_2">
     <g id="line2d_7">
      <g>
       <use xlink:href="#m027de3b0c7" x="57.6" y="252.315098" style="stroke: #000000; stroke-width: 0.8"/>
      </g>
     </g>
     <g id="text_8">
      <!-- 0.5 -->
      <g transform="translate(34.696875 256.114317) scale(0.1 -0.1)">
       <defs>
        <path id="DejaVuSans-35" d="M 691 4666 
L 3169 4666 
L 3169 4134 
L 1269 4134 
L 1269 2991 
Q 1406 3038 1543 3061 
Q 1681 3084 1819 3084 
Q 2600 3084 3056 2656 
Q 3513 2228 3513 1497 
Q 3513 744 3044 326 
Q 2575 -91 1722 -91 
Q 1428 -91 1123 -41 
Q 819 9 494 109 
L 494 744 
Q 775 591 1075 516 
Q 1375 441 1709 441 
Q 2250 441 2565 725 
Q 2881 1009 2881 1497 
Q 2881 1984 2565 2268 
Q 2250 2553 1709 2553 
Q 1456 2553 1204 2497 
Q 953 2441 691 2322 
L 691 4666 
z
" transform="scale(0.015625)"/>
       </defs>
       <use xlink:href="#DejaVuSans-30"/>
       <use xlink:href="#DejaVuSans-2e" x="63.623047"/>
       <use xlink:href="#DejaVuSans-35" x="95.410156"/>
      </g>
     </g>
    </g>
    <g id="ytick_3">
     <g id="line2d_8">
      <g>
       <use xlink:href="#m027de3b0c7" x="57.6" y="197.046196" style="stroke: #000000; stroke-width: 0.8"/>
      </g>
     </g>
     <g id="text_9">
      <!-- 1.0 -->
      <g transform="translate(34.696875 200.845414) scale(0.1 -0.1)">
       <use xlink:href="#DejaVuSans-31"/>
       <use xlink:href="#DejaVuSans-2e" x="63.623047"/>
       <use xlink:href="#DejaVuSans-30" x="95.410156"/>
      </g>
     </g>
    </g>
    <g id="ytick_4">
     <g id="line2d_9">
      <g>
       <use xlink:href="#m027de3b0c7" x="57.6" y="141.777294" style="stroke: #000000; stroke-width: 0.8"/>
      </g>
     </g>
     <g id="text_10">
      <!-- 1.5 -->
      <g transform="translate(34.696875 145.576512) scale(0.1 -0.1)">
       <use xlink:href="#DejaVuSans-31"/>
       <use xlink:href="#DejaVuSans-2e" x="63.623047"/>
       <use xlink:href="#DejaVuSans-35" x="95.410156"/>
      </g>
     </g>
    </g>
    <g id="ytick_5">
     <g id="line2d_10">
      <g>
       <use xlink:href="#m027de3b0c7" x="57.6" y="86.508391" style="stroke: #000000; stroke-width: 0.8"/>
      </g>
     </g>
     <g id="text_11">
      <!-- 2.0 -->
      <g transform="translate(34.696875 90.30761) scale(0.1 -0.1)">
       <use xlink:href="#DejaVuSans-32"/>
       <use xlink:href="#DejaVuSans-2e" x="63.623047"/>
       <use xlink:href="#DejaVuSans-30" x="95.410156"/>
      </g>
     </g>
    </g>
    <g id="text_12">
     <!-- intensities -->
     <g transform="translate(28.617187 200.3155) rotate(-90) scale(0.1 -0.1)">
      <defs>
       <path id="DejaVuSans-69" d="M 603 3500 
L 1178 3500 
L 1178 0 
L 603 0 
L 603 3500 
z
M 603 4863 
L 1178 4863 
L 1178 4134 
L 603 4134 
L 603 4863 
z
" transform="scale(0.015625)"/>
       <path id="DejaVuSans-6e" d="M 3513 2113 
L 3513 0 
L 2938 0 
L 2938 2094 
Q 2938 2591 2744 2837 
Q 2550 3084 2163 3084 
Q 1697 3084 1428 2787 
Q 1159 2491 1159 1978 
L 1159 0 
L 581 0 
L 581 3500 
L 1159 3500 
L 1159 2956 
Q 1366 3272 1645 3428 
Q 1925 3584 2291 3584 
Q 2894 3584 3203 3211 
Q 3513 2838 3513 2113 
z
" transform="scale(0.015625)"/>
       <path id="DejaVuSans-74" d="M 1172 4494 
L 1172 3500 
L 2356 3500 
L 2356 3053 
L 1172 3053 
L 1172 1153 
Q 1172 725 1289 603 
Q 1406 481 1766 481 
L 2356 481 
L 2356 0 
L 1766 0 
Q 1100 0 847 248 
Q 594 497 594 1153 
L 594 3053 
L 172 3053 
L 172 3500 
L 594 3500 
L 594 4494 
L 1172 4494 
z
" transform="scale(0.015625)"/>
       <path id="DejaVuSans-65" d="M 3597 1894 
L 3597 1613 
L 953 1613 
Q 991 1019 1311 708 
Q 1631 397 2203 397 
Q 2534 397 2845 478 
Q 3156 559 3463 722 
L 3463 178 
Q 3153 47 2828 -22 
Q 2503 -91 2169 -91 
Q 1331 -91 842 396 
Q 353 884 353 1716 
Q 353 2575 817 3079 
Q 1281 3584 2069 3584 
Q 2775 3584 3186 3129 
Q 3597 2675 3597 1894 
z
M 3022 2063 
Q 3016 2534 2758 2815 
Q 2500 3097 2075 3097 
Q 1594 3097 1305 2825 
Q 1016 2553 972 2059 
L 3022 2063 
z
" transform="scale(0.015625)"/>
       <path id="DejaVuSans-73" d="M 2834 3397 
L 2834 2853 
Q 2591 2978 2328 3040 
Q 2066 3103 1784 3103 
Q 1356 3103 1142 2972 
Q 928 2841 928 2578 
Q 928 2378 1081 2264 
Q 1234 2150 1697 2047 
L 1894 2003 
Q 2506 1872 2764 1633 
Q 3022 1394 3022 966 
Q 3022 478 2636 193 
Q 2250 -91 1575 -91 
Q 1294 -91 989 -36 
Q 684 19 347 128 
L 347 722 
Q 666 556 975 473 
Q 1284 391 1588 391 
Q 1994 391 2212 530 
Q 2431 669 2431 922 
Q 2431 1156 2273 1281 
Q 2116 1406 1581 1522 
L 1381 1569 
Q 847 1681 609 1914 
Q 372 2147 372 2553 
Q 372 3047 722 3315 
Q 1072 3584 1716 3584 
Q 2034 3584 2315 3537 
Q 2597 3491 2834 3397 
z
" transform="scale(0.015625)"/>
      </defs>
      <use xlink:href="#DejaVuSans-69"/>
      <use xlink:href="#DejaVuSans-6e" x="27.783203"/>
      <use xlink:href="#DejaVuSans-74" x="91.162109"/>
      <use xlink:href="#DejaVuSans-65" x="130.371094"/>
      <use xlink:href="#DejaVuSans-6e" x="191.894531"/>
      <use xlink:href="#DejaVuSans-73" x="255.273438"/>
      <use xlink:href="#DejaVuSans-69" x="307.373047"/>
      <use xlink:href="#DejaVuSans-74" x="335.15625"/>
      <use xlink:href="#DejaVuSans-69" x="374.365234"/>
      <use xlink:href="#DejaVuSans-65" x="402.148438"/>
      <use xlink:href="#DejaVuSans-73" x="463.671875"/>
     </g>
    </g>
    <g id="text_13">
     <!-- 1e6 -->
     <g transform="translate(57.6 38.472) scale(0.1 -0.1)">
      <use xlink:href="#DejaVuSans-31"/>
      <use xlink:href="#DejaVuSans-65" x="63.623047"/>
      <use xlink:href="#DejaVuSans-36" x="125.146484"/>
     </g>
    </g>
   </g>
   <g id="patch_79">
    <path d="M 57.6 307.584 
L 57.6 41.472 
" style="fill: none; stroke: #000000; stroke-width: 0.8; stroke-linejoin: miter; stroke-linecap: square"/>
   </g>
   <g id="patch_80">
    <path d="M 414.72 307.584 
L 414.72 41.472 
" style="fill: none; stroke: #000000; stroke-width: 0.8; stroke-linejoin: miter; stroke-linecap: square"/>
   </g>
   <g id="patch_81">
    <path d="M 57.6 307.584 
L 414.72 307.584 
" style="fill: none; stroke: #000000; stroke-width: 0.8; stroke-linejoin: miter; stroke-linecap: square"/>
   </g>
   <g id="patch_82">
    <path d="M 57.6 41.472 
L 414.72 41.472 
" style="fill: none; stroke: #000000; stroke-width: 0.8; stroke-linejoin: miter; stroke-linecap: square"/>
   </g>
   <g id="text_14">
    <!-- 98.0969 -->
    <g transform="translate(69.18343 238.135742) scale(0.06 -0.06)">
     <defs>
      <path id="DejaVuSans-39" d="M 703 97 
L 703 672 
Q 941 559 1184 500 
Q 1428 441 1663 441 
Q 2288 441 2617 861 
Q 2947 1281 2994 2138 
Q 2813 1869 2534 1725 
Q 2256 1581 1919 1581 
Q 1219 1581 811 2004 
Q 403 2428 403 3163 
Q 403 3881 828 4315 
Q 1253 4750 1959 4750 
Q 2769 4750 3195 4129 
Q 3622 3509 3622 2328 
Q 3622 1225 3098 567 
Q 2575 -91 1691 -91 
Q 1453 -91 1209 -44 
Q 966 3 703 97 
z
M 1959 2075 
Q 2384 2075 2632 2365 
Q 2881 2656 2881 3163 
Q 2881 3666 2632 3958 
Q 2384 4250 1959 4250 
Q 1534 4250 1286 3958 
Q 1038 3666 1038 3163 
Q 1038 2656 1286 2365 
Q 1534 2075 1959 2075 
z
" transform="scale(0.015625)"/>
     </defs>
     <use xlink:href="#DejaVuSans-39"/>
     <use xlink:href="#DejaVuSans-38" x="63.623047"/>
     <use xlink:href="#DejaVuSans-2e" x="127.246094"/>
     <use xlink:href="#DejaVuSans-30" x="159.033203"/>
     <use xlink:href="#DejaVuSans-39" x="222.65625"/>
     <use xlink:href="#DejaVuSans-36" x="286.279297"/>
     <use xlink:href="#DejaVuSans-39" x="349.902344"/>
    </g>
   </g>
   <g id="text_15">
    <!-- 202.0684 -->
    <g transform="translate(101.873543 211.7311) scale(0.06 -0.06)">
     <use xlink:href="#DejaVuSans-32"/>
     <use xlink:href="#DejaVuSans-30" x="63.623047"/>
     <use xlink:href="#DejaVuSans-32" x="127.246094"/>
     <use xlink:href="#DejaVuSans-2e" x="190.869141"/>
     <use xlink:href="#DejaVuSans-30" x="222.65625"/>
     <use xlink:href="#DejaVuSans-36" x="286.279297"/>
     <use xlink:href="#DejaVuSans-38" x="349.902344"/>
     <use xlink:href="#DejaVuSans-34" x="413.525391"/>
    </g>
   </g>
   <g id="text_16">
    <!-- 281.2223 -->
    <g transform="translate(128.21376 242.47357) scale(0.06 -0.06)">
     <defs>
      <path id="DejaVuSans-33" d="M 2597 2516 
Q 3050 2419 3304 2112 
Q 3559 1806 3559 1356 
Q 3559 666 3084 287 
Q 2609 -91 1734 -91 
Q 1441 -91 1130 -33 
Q 819 25 488 141 
L 488 750 
Q 750 597 1062 519 
Q 1375 441 1716 441 
Q 2309 441 2620 675 
Q 2931 909 2931 1356 
Q 2931 1769 2642 2001 
Q 2353 2234 1838 2234 
L 1294 2234 
L 1294 2753 
L 1863 2753 
Q 2328 2753 2575 2939 
Q 2822 3125 2822 3475 
Q 2822 3834 2567 4026 
Q 2313 4219 1838 4219 
Q 1578 4219 1281 4162 
Q 984 4106 628 3988 
L 628 4550 
Q 988 4650 1302 4700 
Q 1616 4750 1894 4750 
Q 2613 4750 3031 4423 
Q 3450 4097 3450 3541 
Q 3450 3153 3228 2886 
Q 3006 2619 2597 2516 
z
" transform="scale(0.015625)"/>
     </defs>
     <use xlink:href="#DejaVuSans-32"/>
     <use xlink:href="#DejaVuSans-38" x="63.623047"/>
     <use xlink:href="#DejaVuSans-31" x="127.246094"/>
     <use xlink:href="#DejaVuSans-2e" x="190.869141"/>
     <use xlink:href="#DejaVuSans-32" x="222.65625"/>
     <use xlink:href="#DejaVuSans-32" x="286.279297"/>
     <use xlink:href="#DejaVuSans-32" x="349.902344"/>
     <use xlink:href="#DejaVuSans-33" x="413.525391"/>
    </g>
   </g>
   <g id="text_17">
    <!-- 640.3525 -->
    <g transform="translate(247.722442 50.939625) scale(0.06 -0.06)">
     <use xlink:href="#DejaVuSans-36"/>
     <use xlink:href="#DejaVuSans-34" x="63.623047"/>
     <use xlink:href="#DejaVuSans-30" x="127.246094"/>
     <use xlink:href="#DejaVuSans-2e" x="190.869141"/>
     <use xlink:href="#DejaVuSans-33" x="222.65625"/>
     <use xlink:href="#DejaVuSans-35" x="286.279297"/>
     <use xlink:href="#DejaVuSans-32" x="349.902344"/>
     <use xlink:href="#DejaVuSans-35" x="413.525391"/>
    </g>
   </g>
   <g id="text_18">
    <!-- 641.3558 -->
    <g transform="translate(248.056291 260.969243) scale(0.06 -0.06)">
     <use xlink:href="#DejaVuSans-36"/>
     <use xlink:href="#DejaVuSans-34" x="63.623047"/>
     <use xlink:href="#DejaVuSans-31" x="127.246094"/>
     <use xlink:href="#DejaVuSans-2e" x="190.869141"/>
     <use xlink:href="#DejaVuSans-33" x="222.65625"/>
     <use xlink:href="#DejaVuSans-35" x="286.279297"/>
     <use xlink:href="#DejaVuSans-35" x="349.902344"/>
     <use xlink:href="#DejaVuSans-38" x="413.525391"/>
    </g>
   </g>
   <g id="text_19">
    <!-- MS2 spectrum of ${m/z}$ 1120.5314, scan time 5.16 min. -->
    <g transform="translate(57.6 24.873562) scale(0.12 -0.12)">
     <defs>
      <path id="DejaVuSans-4d" d="M 628 4666 
L 1569 4666 
L 2759 1491 
L 3956 4666 
L 4897 4666 
L 4897 0 
L 4281 0 
L 4281 4097 
L 3078 897 
L 2444 897 
L 1241 4097 
L 1241 0 
L 628 0 
L 628 4666 
z
" transform="scale(0.015625)"/>
      <path id="DejaVuSans-53" d="M 3425 4513 
L 3425 3897 
Q 3066 4069 2747 4153 
Q 2428 4238 2131 4238 
Q 1616 4238 1336 4038 
Q 1056 3838 1056 3469 
Q 1056 3159 1242 3001 
Q 1428 2844 1947 2747 
L 2328 2669 
Q 3034 2534 3370 2195 
Q 3706 1856 3706 1288 
Q 3706 609 3251 259 
Q 2797 -91 1919 -91 
Q 1588 -91 1214 -16 
Q 841 59 441 206 
L 441 856 
Q 825 641 1194 531 
Q 1563 422 1919 422 
Q 2459 422 2753 634 
Q 3047 847 3047 1241 
Q 3047 1584 2836 1778 
Q 2625 1972 2144 2069 
L 1759 2144 
Q 1053 2284 737 2584 
Q 422 2884 422 3419 
Q 422 4038 858 4394 
Q 1294 4750 2059 4750 
Q 2388 4750 2728 4690 
Q 3069 4631 3425 4513 
z
" transform="scale(0.015625)"/>
      <path id="DejaVuSans-20" transform="scale(0.015625)"/>
      <path id="DejaVuSans-70" d="M 1159 525 
L 1159 -1331 
L 581 -1331 
L 581 3500 
L 1159 3500 
L 1159 2969 
Q 1341 3281 1617 3432 
Q 1894 3584 2278 3584 
Q 2916 3584 3314 3078 
Q 3713 2572 3713 1747 
Q 3713 922 3314 415 
Q 2916 -91 2278 -91 
Q 1894 -91 1617 61 
Q 1341 213 1159 525 
z
M 3116 1747 
Q 3116 2381 2855 2742 
Q 2594 3103 2138 3103 
Q 1681 3103 1420 2742 
Q 1159 2381 1159 1747 
Q 1159 1113 1420 752 
Q 1681 391 2138 391 
Q 2594 391 2855 752 
Q 3116 1113 3116 1747 
z
" transform="scale(0.015625)"/>
      <path id="DejaVuSans-63" d="M 3122 3366 
L 3122 2828 
Q 2878 2963 2633 3030 
Q 2388 3097 2138 3097 
Q 1578 3097 1268 2742 
Q 959 2388 959 1747 
Q 959 1106 1268 751 
Q 1578 397 2138 397 
Q 2388 397 2633 464 
Q 2878 531 3122 666 
L 3122 134 
Q 2881 22 2623 -34 
Q 2366 -91 2075 -91 
Q 1284 -91 818 406 
Q 353 903 353 1747 
Q 353 2603 823 3093 
Q 1294 3584 2113 3584 
Q 2378 3584 2631 3529 
Q 2884 3475 3122 3366 
z
" transform="scale(0.015625)"/>
      <path id="DejaVuSans-72" d="M 2631 2963 
Q 2534 3019 2420 3045 
Q 2306 3072 2169 3072 
Q 1681 3072 1420 2755 
Q 1159 2438 1159 1844 
L 1159 0 
L 581 0 
L 581 3500 
L 1159 3500 
L 1159 2956 
Q 1341 3275 1631 3429 
Q 1922 3584 2338 3584 
Q 2397 3584 2469 3576 
Q 2541 3569 2628 3553 
L 2631 2963 
z
" transform="scale(0.015625)"/>
      <path id="DejaVuSans-75" d="M 544 1381 
L 544 3500 
L 1119 3500 
L 1119 1403 
Q 1119 906 1312 657 
Q 1506 409 1894 409 
Q 2359 409 2629 706 
Q 2900 1003 2900 1516 
L 2900 3500 
L 3475 3500 
L 3475 0 
L 2900 0 
L 2900 538 
Q 2691 219 2414 64 
Q 2138 -91 1772 -91 
Q 1169 -91 856 284 
Q 544 659 544 1381 
z
M 1991 3584 
L 1991 3584 
z
" transform="scale(0.015625)"/>
      <path id="DejaVuSans-6d" d="M 3328 2828 
Q 3544 3216 3844 3400 
Q 4144 3584 4550 3584 
Q 5097 3584 5394 3201 
Q 5691 2819 5691 2113 
L 5691 0 
L 5113 0 
L 5113 2094 
Q 5113 2597 4934 2840 
Q 4756 3084 4391 3084 
Q 3944 3084 3684 2787 
Q 3425 2491 3425 1978 
L 3425 0 
L 2847 0 
L 2847 2094 
Q 2847 2600 2669 2842 
Q 2491 3084 2119 3084 
Q 1678 3084 1418 2786 
Q 1159 2488 1159 1978 
L 1159 0 
L 581 0 
L 581 3500 
L 1159 3500 
L 1159 2956 
Q 1356 3278 1631 3431 
Q 1906 3584 2284 3584 
Q 2666 3584 2933 3390 
Q 3200 3197 3328 2828 
z
" transform="scale(0.015625)"/>
      <path id="DejaVuSans-6f" d="M 1959 3097 
Q 1497 3097 1228 2736 
Q 959 2375 959 1747 
Q 959 1119 1226 758 
Q 1494 397 1959 397 
Q 2419 397 2687 759 
Q 2956 1122 2956 1747 
Q 2956 2369 2687 2733 
Q 2419 3097 1959 3097 
z
M 1959 3584 
Q 2709 3584 3137 3096 
Q 3566 2609 3566 1747 
Q 3566 888 3137 398 
Q 2709 -91 1959 -91 
Q 1206 -91 779 398 
Q 353 888 353 1747 
Q 353 2609 779 3096 
Q 1206 3584 1959 3584 
z
" transform="scale(0.015625)"/>
      <path id="DejaVuSans-66" d="M 2375 4863 
L 2375 4384 
L 1825 4384 
Q 1516 4384 1395 4259 
Q 1275 4134 1275 3809 
L 1275 3500 
L 2222 3500 
L 2222 3053 
L 1275 3053 
L 1275 0 
L 697 0 
L 697 3053 
L 147 3053 
L 147 3500 
L 697 3500 
L 697 3744 
Q 697 4328 969 4595 
Q 1241 4863 1831 4863 
L 2375 4863 
z
" transform="scale(0.015625)"/>
      <path id="DejaVuSans-2c" d="M 750 794 
L 1409 794 
L 1409 256 
L 897 -744 
L 494 -744 
L 750 256 
L 750 794 
z
" transform="scale(0.015625)"/>
      <path id="DejaVuSans-61" d="M 2194 1759 
Q 1497 1759 1228 1600 
Q 959 1441 959 1056 
Q 959 750 1161 570 
Q 1363 391 1709 391 
Q 2188 391 2477 730 
Q 2766 1069 2766 1631 
L 2766 1759 
L 2194 1759 
z
M 3341 1997 
L 3341 0 
L 2766 0 
L 2766 531 
Q 2569 213 2275 61 
Q 1981 -91 1556 -91 
Q 1019 -91 701 211 
Q 384 513 384 1019 
Q 384 1609 779 1909 
Q 1175 2209 1959 2209 
L 2766 2209 
L 2766 2266 
Q 2766 2663 2505 2880 
Q 2244 3097 1772 3097 
Q 1472 3097 1187 3025 
Q 903 2953 641 2809 
L 641 3341 
Q 956 3463 1253 3523 
Q 1550 3584 1831 3584 
Q 2591 3584 2966 3190 
Q 3341 2797 3341 1997 
z
" transform="scale(0.015625)"/>
     </defs>
     <use xlink:href="#DejaVuSans-4d" transform="translate(0 0.015625)"/>
     <use xlink:href="#DejaVuSans-53" transform="translate(86.279297 0.015625)"/>
     <use xlink:href="#DejaVuSans-32" transform="translate(149.755859 0.015625)"/>
     <use xlink:href="#DejaVuSans-20" transform="translate(213.378906 0.015625)"/>
     <use xlink:href="#DejaVuSans-73" transform="translate(245.166016 0.015625)"/>
     <use xlink:href="#DejaVuSans-70" transform="translate(297.265625 0.015625)"/>
     <use xlink:href="#DejaVuSans-65" transform="translate(360.742188 0.015625)"/>
     <use xlink:href="#DejaVuSans-63" transform="translate(422.265625 0.015625)"/>
     <use xlink:href="#DejaVuSans-74" transform="translate(477.246094 0.015625)"/>
     <use xlink:href="#DejaVuSans-72" transform="translate(516.455078 0.015625)"/>
     <use xlink:href="#DejaVuSans-75" transform="translate(557.568359 0.015625)"/>
     <use xlink:href="#DejaVuSans-6d" transform="translate(620.947266 0.015625)"/>
     <use xlink:href="#DejaVuSans-20" transform="translate(718.359375 0.015625)"/>
     <use xlink:href="#DejaVuSans-6f" transform="translate(750.146484 0.015625)"/>
     <use xlink:href="#DejaVuSans-66" transform="translate(811.328125 0.015625)"/>
     <use xlink:href="#DejaVuSans-20" transform="translate(846.533203 0.015625)"/>
     <use xlink:href="#DejaVuSans-Oblique-6d" transform="translate(878.320312 0.015625)"/>
     <use xlink:href="#DejaVuSans-2f" transform="translate(975.732422 0.015625)"/>
     <use xlink:href="#DejaVuSans-Oblique-7a" transform="translate(1009.423828 0.015625)"/>
     <use xlink:href="#DejaVuSans-20" transform="translate(1061.914062 0.015625)"/>
     <use xlink:href="#DejaVuSans-31" transform="translate(1093.701172 0.015625)"/>
     <use xlink:href="#DejaVuSans-31" transform="translate(1157.324219 0.015625)"/>
     <use xlink:href="#DejaVuSans-32" transform="translate(1220.947266 0.015625)"/>
     <use xlink:href="#DejaVuSans-30" transform="translate(1284.570312 0.015625)"/>
     <use xlink:href="#DejaVuSans-2e" transform="translate(1348.193359 0.015625)"/>
     <use xlink:href="#DejaVuSans-35" transform="translate(1379.980469 0.015625)"/>
     <use xlink:href="#DejaVuSans-33" transform="translate(1443.603516 0.015625)"/>
     <use xlink:href="#DejaVuSans-31" transform="translate(1507.226562 0.015625)"/>
     <use xlink:href="#DejaVuSans-34" transform="translate(1570.849609 0.015625)"/>
     <use xlink:href="#DejaVuSans-2c" transform="translate(1634.472656 0.015625)"/>
     <use xlink:href="#DejaVuSans-20" transform="translate(1666.259766 0.015625)"/>
     <use xlink:href="#DejaVuSans-73" transform="translate(1698.046875 0.015625)"/>
     <use xlink:href="#DejaVuSans-63" transform="translate(1750.146484 0.015625)"/>
     <use xlink:href="#DejaVuSans-61" transform="translate(1805.126953 0.015625)"/>
     <use xlink:href="#DejaVuSans-6e" transform="translate(1866.40625 0.015625)"/>
     <use xlink:href="#DejaVuSans-20" transform="translate(1929.785156 0.015625)"/>
     <use xlink:href="#DejaVuSans-74" transform="translate(1961.572266 0.015625)"/>
     <use xlink:href="#DejaVuSans-69" transform="translate(2000.78125 0.015625)"/>
     <use xlink:href="#DejaVuSans-6d" transform="translate(2028.564453 0.015625)"/>
     <use xlink:href="#DejaVuSans-65" transform="translate(2125.976562 0.015625)"/>
     <use xlink:href="#DejaVuSans-20" transform="translate(2187.5 0.015625)"/>
     <use xlink:href="#DejaVuSans-35" transform="translate(2219.287109 0.015625)"/>
     <use xlink:href="#DejaVuSans-2e" transform="translate(2282.910156 0.015625)"/>
     <use xlink:href="#DejaVuSans-31" transform="translate(2314.697266 0.015625)"/>
     <use xlink:href="#DejaVuSans-36" transform="translate(2378.320312 0.015625)"/>
     <use xlink:href="#DejaVuSans-20" transform="translate(2441.943359 0.015625)"/>
     <use xlink:href="#DejaVuSans-6d" transform="translate(2473.730469 0.015625)"/>
     <use xlink:href="#DejaVuSans-69" transform="translate(2571.142578 0.015625)"/>
     <use xlink:href="#DejaVuSans-6e" transform="translate(2598.925781 0.015625)"/>
     <use xlink:href="#DejaVuSans-2e" transform="translate(2662.304688 0.015625)"/>
    </g>
   </g>
  </g>
 </g>
 <defs>
  <clipPath id="p01842b6c61">
   <rect x="57.6" y="41.472" width="357.12" height="266.112"/>
  </clipPath>
 </defs>
</svg>
