<?xml version="1.0" encoding="utf-8" standalone="no"?>
<!DOCTYPE svg PUBLIC "-//W3C//DTD SVG 1.1//EN"
  "http://www.w3.org/Graphics/SVG/1.1/DTD/svg11.dtd">
<svg xmlns:xlink="http://www.w3.org/1999/xlink" width="460.8pt" height="345.6pt" viewBox="0 0 460.8 345.6" xmlns="http://www.w3.org/2000/svg" version="1.1">
 <metadata>
  <rdf:RDF xmlns:dc="http://purl.org/dc/elements/1.1/" xmlns:cc="http://creativecommons.org/ns#" xmlns:rdf="http://www.w3.org/1999/02/22-rdf-syntax-ns#">
   <cc:Work>
    <dc:type rdf:resource="http://purl.org/dc/dcmitype/StillImage"/>
    <dc:date>2025-01-11T12:17:14.843166</dc:date>
    <dc:format>image/svg+xml</dc:format>
    <dc:creator>
     <cc:Agent>
      <dc:title>Matplotlib v3.7.3, https://matplotlib.org/</dc:title>
     </cc:Agent>
    </dc:creator>
   </cc:Work>
  </rdf:RDF>
 </metadata>
 <defs>
  <style type="text/css">*{stroke-linejoin: round; stroke-linecap: butt}</style>
 </defs>
 <g id="figure_1">
  <g id="patch_1">
   <path d="M 0 345.6 
L 460.8 345.6 
L 460.8 0 
L 0 0 
z
" style="fill: #ffffff"/>
  </g>
  <g id="axes_1">
   <g id="patch_2">
    <path d="M 57.6 307.584 
L 414.72 307.584 
L 414.72 41.472 
L 57.6 41.472 
z
" style="fill: #ffffff"/>
   </g>
   <g id="patch_3">
    <path d="M 73.832727 307.584 
L 74.693396 307.584 
L 74.693396 307.424843 
L 73.832727 307.424843 
z
" clip-path="url(#p16d3e592f6)" style="fill: #1f77b4"/>
   </g>
   <g id="patch_4">
    <path d="M 76.65197 307.584 
L 77.512638 307.584 
L 77.512638 307.449181 
L 76.65197 307.449181 
z
" clip-path="url(#p16d3e592f6)" style="fill: #1f77b4"/>
   </g>
   <g id="patch_5">
    <path d="M 93.741914 307.584 
L 94.602583 307.584 
L 94.602583 306.590539 
L 93.741914 306.590539 
z
" clip-path="url(#p16d3e592f6)" style="fill: #1f77b4"/>
   </g>
   <g id="patch_6">
    <path d="M 98.153726 307.584 
L 99.014394 307.584 
L 99.014394 307.45077 
L 98.153726 307.45077 
z
" clip-path="url(#p16d3e592f6)" style="fill: #1f77b4"/>
   </g>
   <g id="patch_7">
    <path d="M 100.492342 307.584 
L 101.35301 307.584 
L 101.35301 307.400556 
L 100.492342 307.400556 
z
" clip-path="url(#p16d3e592f6)" style="fill: #1f77b4"/>
   </g>
   <g id="patch_8">
    <path d="M 113.42436 307.584 
L 114.285028 307.584 
L 114.285028 307.109613 
L 113.42436 307.109613 
z
" clip-path="url(#p16d3e592f6)" style="fill: #1f77b4"/>
   </g>
   <g id="patch_9">
    <path d="M 117.229273 307.584 
L 118.089942 307.584 
L 118.089942 307.405118 
L 117.229273 307.405118 
z
" clip-path="url(#p16d3e592f6)" style="fill: #1f77b4"/>
   </g>
   <g id="patch_10">
    <path d="M 124.101163 307.584 
L 124.961831 307.584 
L 124.961831 305.140426 
L 124.101163 305.140426 
z
" clip-path="url(#p16d3e592f6)" style="fill: #1f77b4"/>
   </g>
   <g id="patch_11">
    <path d="M 130.609225 307.584 
L 131.469894 307.584 
L 131.469894 307.220332 
L 130.609225 307.220332 
z
" clip-path="url(#p16d3e592f6)" style="fill: #1f77b4"/>
   </g>
   <g id="patch_12">
    <path d="M 131.605871 307.584 
L 132.466539 307.584 
L 132.466539 307.424368 
L 131.605871 307.424368 
z
" clip-path="url(#p16d3e592f6)" style="fill: #1f77b4"/>
   </g>
   <g id="patch_13">
    <path d="M 137.60082 307.584 
L 138.461488 307.584 
L 138.461488 307.427772 
L 137.60082 307.427772 
z
" clip-path="url(#p16d3e592f6)" style="fill: #1f77b4"/>
   </g>
   <g id="patch_14">
    <path d="M 146.256138 307.584 
L 147.116806 307.584 
L 147.116806 307.398842 
L 146.256138 307.398842 
z
" clip-path="url(#p16d3e592f6)" style="fill: #1f77b4"/>
   </g>
   <g id="patch_15">
    <path d="M 160.788662 307.584 
L 161.64933 307.584 
L 161.64933 307.314437 
L 160.788662 307.314437 
z
" clip-path="url(#p16d3e592f6)" style="fill: #1f77b4"/>
   </g>
   <g id="patch_16">
    <path d="M 192.991372 307.584 
L 193.852041 307.584 
L 193.852041 307.29006 
L 192.991372 307.29006 
z
" clip-path="url(#p16d3e592f6)" style="fill: #1f77b4"/>
   </g>
   <g id="patch_17">
    <path d="M 194.07517 307.584 
L 194.935838 307.584 
L 194.935838 307.309581 
L 194.07517 307.309581 
z
" clip-path="url(#p16d3e592f6)" style="fill: #1f77b4"/>
   </g>
   <g id="patch_18">
    <path d="M 197.353681 307.584 
L 198.21435 307.584 
L 198.21435 307.019563 
L 197.353681 307.019563 
z
" clip-path="url(#p16d3e592f6)" style="fill: #1f77b4"/>
   </g>
   <g id="patch_19">
    <path d="M 198.436806 307.584 
L 199.297474 307.584 
L 199.297474 307.365548 
L 198.436806 307.365548 
z
" clip-path="url(#p16d3e592f6)" style="fill: #1f77b4"/>
   </g>
   <g id="patch_20">
    <path d="M 203.581696 307.584 
L 204.442365 307.584 
L 204.442365 307.376909 
L 203.581696 307.376909 
z
" clip-path="url(#p16d3e592f6)" style="fill: #1f77b4"/>
   </g>
   <g id="patch_21">
    <path d="M 205.872641 307.584 
L 206.733309 307.584 
L 206.733309 307.28938 
L 205.872641 307.28938 
z
" clip-path="url(#p16d3e592f6)" style="fill: #1f77b4"/>
   </g>
   <g id="patch_22">
    <path d="M 206.135706 307.584 
L 206.996375 307.584 
L 206.996375 307.363559 
L 206.135706 307.363559 
z
" clip-path="url(#p16d3e592f6)" style="fill: #1f77b4"/>
   </g>
   <g id="patch_23">
    <path d="M 208.069357 307.584 
L 208.930026 307.584 
L 208.930026 306.594648 
L 208.069357 306.594648 
z
" clip-path="url(#p16d3e592f6)" style="fill: #1f77b4"/>
   </g>
   <g id="patch_24">
    <path d="M 210.224608 307.584 
L 211.085276 307.584 
L 211.085276 307.002751 
L 210.224608 307.002751 
z
" clip-path="url(#p16d3e592f6)" style="fill: #1f77b4"/>
   </g>
   <g id="patch_25">
    <path d="M 219.895638 307.584 
L 220.756307 307.584 
L 220.756307 306.91619 
L 219.895638 306.91619 
z
" clip-path="url(#p16d3e592f6)" style="fill: #1f77b4"/>
   </g>
   <g id="patch_26">
    <path d="M 220.964481 307.584 
L 221.825149 307.584 
L 221.825149 307.405137 
L 220.964481 307.405137 
z
" clip-path="url(#p16d3e592f6)" style="fill: #1f77b4"/>
   </g>
   <g id="patch_27">
    <path d="M 222.956458 307.584 
L 223.817126 307.584 
L 223.817126 307.354876 
L 222.956458 307.354876 
z
" clip-path="url(#p16d3e592f6)" style="fill: #1f77b4"/>
   </g>
   <g id="patch_28">
    <path d="M 224.934662 307.584 
L 225.79533 307.584 
L 225.79533 307.410496 
L 224.934662 307.410496 
z
" clip-path="url(#p16d3e592f6)" style="fill: #1f77b4"/>
   </g>
   <g id="patch_29">
    <path d="M 233.889678 307.584 
L 234.750346 307.584 
L 234.750346 307.069689 
L 233.889678 307.069689 
z
" clip-path="url(#p16d3e592f6)" style="fill: #1f77b4"/>
   </g>
   <g id="patch_30">
    <path d="M 234.972917 307.584 
L 235.833586 307.584 
L 235.833586 306.483863 
L 234.972917 306.483863 
z
" clip-path="url(#p16d3e592f6)" style="fill: #1f77b4"/>
   </g>
   <g id="patch_31">
    <path d="M 236.082094 307.584 
L 236.942762 307.584 
L 236.942762 307.35513 
L 236.082094 307.35513 
z
" clip-path="url(#p16d3e592f6)" style="fill: #1f77b4"/>
   </g>
   <g id="patch_32">
    <path d="M 247.883767 307.584 
L 248.744435 307.584 
L 248.744435 307.239143 
L 247.883767 307.239143 
z
" clip-path="url(#p16d3e592f6)" style="fill: #1f77b4"/>
   </g>
   <g id="patch_33">
    <path d="M 253.315838 307.584 
L 254.176506 307.584 
L 254.176506 306.31286 
L 253.315838 306.31286 
z
" clip-path="url(#p16d3e592f6)" style="fill: #1f77b4"/>
   </g>
   <g id="patch_34">
    <path d="M 254.377309 307.584 
L 255.237978 307.584 
L 255.237978 307.266685 
L 254.377309 307.266685 
z
" clip-path="url(#p16d3e592f6)" style="fill: #1f77b4"/>
   </g>
   <g id="patch_35">
    <path d="M 254.400341 307.584 
L 255.26101 307.584 
L 255.26101 305.742063 
L 254.400341 305.742063 
z
" clip-path="url(#p16d3e592f6)" style="fill: #1f77b4"/>
   </g>
   <g id="patch_36">
    <path d="M 255.45871 307.584 
L 256.319379 307.584 
L 256.319379 307.376106 
L 255.45871 307.376106 
z
" clip-path="url(#p16d3e592f6)" style="fill: #1f77b4"/>
   </g>
   <g id="patch_37">
    <path d="M 262.962408 307.584 
L 263.823077 307.584 
L 263.823077 306.738179 
L 262.962408 306.738179 
z
" clip-path="url(#p16d3e592f6)" style="fill: #1f77b4"/>
   </g>
   <g id="patch_38">
    <path d="M 273.703824 307.584 
L 274.564493 307.584 
L 274.564493 306.091547 
L 273.703824 306.091547 
z
" clip-path="url(#p16d3e592f6)" style="fill: #1f77b4"/>
   </g>
   <g id="patch_39">
    <path d="M 274.782828 307.584 
L 275.643497 307.584 
L 275.643497 307.312541 
L 274.782828 307.312541 
z
" clip-path="url(#p16d3e592f6)" style="fill: #1f77b4"/>
   </g>
   <g id="patch_40">
    <path d="M 275.859239 307.584 
L 276.719907 307.584 
L 276.719907 306.942003 
L 275.859239 306.942003 
z
" clip-path="url(#p16d3e592f6)" style="fill: #1f77b4"/>
   </g>
   <g id="patch_41">
    <path d="M 276.940262 307.584 
L 277.80093 307.584 
L 277.80093 307.396642 
L 276.940262 307.396642 
z
" clip-path="url(#p16d3e592f6)" style="fill: #1f77b4"/>
   </g>
   <g id="patch_42">
    <path d="M 277.493791 307.584 
L 278.35446 307.584 
L 278.35446 307.387696 
L 277.493791 307.387696 
z
" clip-path="url(#p16d3e592f6)" style="fill: #1f77b4"/>
   </g>
   <g id="patch_43">
    <path d="M 280.156787 307.584 
L 281.017455 307.584 
L 281.017455 307.335818 
L 280.156787 307.335818 
z
" clip-path="url(#p16d3e592f6)" style="fill: #1f77b4"/>
   </g>
   <g id="patch_44">
    <path d="M 283.433525 307.584 
L 284.294194 307.584 
L 284.294194 307.22811 
L 283.433525 307.22811 
z
" clip-path="url(#p16d3e592f6)" style="fill: #1f77b4"/>
   </g>
   <g id="patch_45">
    <path d="M 284.518521 307.584 
L 285.37919 307.584 
L 285.37919 306.141672 
L 284.518521 306.141672 
z
" clip-path="url(#p16d3e592f6)" style="fill: #1f77b4"/>
   </g>
   <g id="patch_46">
    <path d="M 289.853311 307.584 
L 290.71398 307.584 
L 290.71398 306.932168 
L 289.853311 306.932168 
z
" clip-path="url(#p16d3e592f6)" style="fill: #1f77b4"/>
   </g>
   <g id="patch_47">
    <path d="M 290.936813 307.584 
L 291.797482 307.584 
L 291.797482 306.884384 
L 290.936813 306.884384 
z
" clip-path="url(#p16d3e592f6)" style="fill: #1f77b4"/>
   </g>
   <g id="patch_48">
    <path d="M 292.021317 307.584 
L 292.881985 307.584 
L 292.881985 302.327085 
L 292.021317 302.327085 
z
" clip-path="url(#p16d3e592f6)" style="fill: #1f77b4"/>
   </g>
   <g id="patch_49">
    <path d="M 293.077519 307.584 
L 293.938187 307.584 
L 293.938187 306.834829 
L 293.077519 306.834829 
z
" clip-path="url(#p16d3e592f6)" style="fill: #1f77b4"/>
   </g>
   <g id="patch_50">
    <path d="M 293.103784 307.584 
L 293.964453 307.584 
L 293.964453 307.267513 
L 293.103784 307.267513 
z
" clip-path="url(#p16d3e592f6)" style="fill: #1f77b4"/>
   </g>
   <g id="patch_51">
    <path d="M 301.434124 307.584 
L 302.294793 307.584 
L 302.294793 307.423922 
L 301.434124 307.423922 
z
" clip-path="url(#p16d3e592f6)" style="fill: #1f77b4"/>
   </g>
   <g id="patch_52">
    <path d="M 302.569222 307.584 
L 303.42989 307.584 
L 303.42989 307.124976 
L 302.569222 307.124976 
z
" clip-path="url(#p16d3e592f6)" style="fill: #1f77b4"/>
   </g>
   <g id="patch_53">
    <path d="M 302.76247 307.584 
L 303.623139 307.584 
L 303.623139 307.30443 
L 302.76247 307.30443 
z
" clip-path="url(#p16d3e592f6)" style="fill: #1f77b4"/>
   </g>
   <g id="patch_54">
    <path d="M 303.846021 307.584 
L 304.70669 307.584 
L 304.70669 307.187711 
L 303.846021 307.187711 
z
" clip-path="url(#p16d3e592f6)" style="fill: #1f77b4"/>
   </g>
   <g id="patch_55">
    <path d="M 304.905343 307.584 
L 305.766011 307.584 
L 305.766011 307.289835 
L 304.905343 307.289835 
z
" clip-path="url(#p16d3e592f6)" style="fill: #1f77b4"/>
   </g>
   <g id="patch_56">
    <path d="M 305.97691 307.584 
L 306.837579 307.584 
L 306.837579 306.767255 
L 305.97691 306.767255 
z
" clip-path="url(#p16d3e592f6)" style="fill: #1f77b4"/>
   </g>
   <g id="patch_57">
    <path d="M 317.295183 307.584 
L 318.155851 307.584 
L 318.155851 307.36454 
L 317.295183 307.36454 
z
" clip-path="url(#p16d3e592f6)" style="fill: #1f77b4"/>
   </g>
   <g id="patch_58">
    <path d="M 319.97118 307.584 
L 320.831848 307.584 
L 320.831848 307.270534 
L 319.97118 307.270534 
z
" clip-path="url(#p16d3e592f6)" style="fill: #1f77b4"/>
   </g>
   <g id="patch_59">
    <path d="M 321.053483 307.584 
L 321.914152 307.584 
L 321.914152 306.737835 
L 321.053483 306.737835 
z
" clip-path="url(#p16d3e592f6)" style="fill: #1f77b4"/>
   </g>
   <g id="patch_60">
    <path d="M 322.030495 307.584 
L 322.891164 307.584 
L 322.891164 307.208572 
L 322.030495 307.208572 
z
" clip-path="url(#p16d3e592f6)" style="fill: #1f77b4"/>
   </g>
   <g id="patch_61">
    <path d="M 322.050654 307.584 
L 322.911322 307.584 
L 322.911322 307.006534 
L 322.050654 307.006534 
z
" clip-path="url(#p16d3e592f6)" style="fill: #1f77b4"/>
   </g>
   <g id="patch_62">
    <path d="M 322.069664 307.584 
L 322.930332 307.584 
L 322.930332 305.916451 
L 322.069664 305.916451 
z
" clip-path="url(#p16d3e592f6)" style="fill: #1f77b4"/>
   </g>
   <g id="patch_63">
    <path d="M 322.084011 307.584 
L 322.94468 307.584 
L 322.94468 306.016685 
L 322.084011 306.016685 
z
" clip-path="url(#p16d3e592f6)" style="fill: #1f77b4"/>
   </g>
   <g id="patch_64">
    <path d="M 322.139563 307.584 
L 323.000231 307.584 
L 323.000231 54.144 
L 322.139563 54.144 
z
" clip-path="url(#p16d3e592f6)" style="fill: #1f77b4"/>
   </g>
   <g id="patch_65">
    <path d="M 322.194129 307.584 
L 323.054798 307.584 
L 323.054798 306.587999 
L 322.194129 306.587999 
z
" clip-path="url(#p16d3e592f6)" style="fill: #1f77b4"/>
   </g>
   <g id="patch_66">
    <path d="M 322.209856 307.584 
L 323.070524 307.584 
L 323.070524 305.866466 
L 322.209856 305.866466 
z
" clip-path="url(#p16d3e592f6)" style="fill: #1f77b4"/>
   </g>
   <g id="patch_67">
    <path d="M 322.257922 307.584 
L 323.11859 307.584 
L 323.11859 306.957047 
L 322.257922 306.957047 
z
" clip-path="url(#p16d3e592f6)" style="fill: #1f77b4"/>
   </g>
   <g id="patch_68">
    <path d="M 323.218419 307.584 
L 324.079088 307.584 
L 324.079088 272.61636 
L 323.218419 272.61636 
z
" clip-path="url(#p16d3e592f6)" style="fill: #1f77b4"/>
   </g>
   <g id="patch_69">
    <path d="M 323.288384 307.584 
L 324.149052 307.584 
L 324.149052 307.347305 
L 323.288384 307.347305 
z
" clip-path="url(#p16d3e592f6)" style="fill: #1f77b4"/>
   </g>
   <g id="patch_70">
    <path d="M 324.287951 307.584 
L 325.14862 307.584 
L 325.14862 307.352972 
L 324.287951 307.352972 
z
" clip-path="url(#p16d3e592f6)" style="fill: #1f77b4"/>
   </g>
   <g id="patch_71">
    <path d="M 370.570524 307.584 
L 371.431192 307.584 
L 371.431192 307.370351 
L 370.570524 307.370351 
z
" clip-path="url(#p16d3e592f6)" style="fill: #1f77b4"/>
   </g>
   <g id="patch_72">
    <path d="M 370.613796 307.584 
L 371.474465 307.584 
L 371.474465 296.953326 
L 370.613796 296.953326 
z
" clip-path="url(#p16d3e592f6)" style="fill: #1f77b4"/>
   </g>
   <g id="patch_73">
    <path d="M 371.693276 307.584 
L 372.553945 307.584 
L 372.553945 305.610677 
L 371.693276 305.610677 
z
" clip-path="url(#p16d3e592f6)" style="fill: #1f77b4"/>
   </g>
   <g id="patch_74">
    <path d="M 387.43092 307.584 
L 388.291588 307.584 
L 388.291588 307.38521 
L 387.43092 307.38521 
z
" clip-path="url(#p16d3e592f6)" style="fill: #1f77b4"/>
   </g>
   <g id="patch_75">
    <path d="M 397.626604 307.584 
L 398.487273 307.584 
L 398.487273 307.394002 
L 397.626604 307.394002 
z
" clip-path="url(#p16d3e592f6)" style="fill: #1f77b4"/>
   </g>
   <g id="matplotlib.axis_1">
    <g id="xtick_1">
     <g id="line2d_1">
      <defs>
       <path id="ma1a41fc623" d="M 0 0 
L 0 3.5 
" style="stroke: #000000; stroke-width: 0.8"/>
      </defs>
      <g>
       <use xlink:href="#ma1a41fc623" x="71.83211" y="307.584" style="stroke: #000000; stroke-width: 0.8"/>
      </g>
     </g>
     <g id="text_1">
      <!-- 50 -->
      <g transform="translate(65.46961 322.182437) scale(0.1 -0.1)">
       <defs>
        <path id="DejaVuSans-35" d="M 691 4666 
L 3169 4666 
L 3169 4134 
L 1269 4134 
L 1269 2991 
Q 1406 3038 1543 3061 
Q 1681 3084 1819 3084 
Q 2600 3084 3056 2656 
Q 3513 2228 3513 1497 
Q 3513 744 3044 326 
Q 2575 -91 1722 -91 
Q 1428 -91 1123 -41 
Q 819 9 494 109 
L 494 744 
Q 775 591 1075 516 
Q 1375 441 1709 441 
Q 2250 441 2565 725 
Q 2881 1009 2881 1497 
Q 2881 1984 2565 2268 
Q 2250 2553 1709 2553 
Q 1456 2553 1204 2497 
Q 953 2441 691 2322 
L 691 4666 
z
" transform="scale(0.015625)"/>
        <path id="DejaVuSans-30" d="M 2034 4250 
Q 1547 4250 1301 3770 
Q 1056 3291 1056 2328 
Q 1056 1369 1301 889 
Q 1547 409 2034 409 
Q 2525 409 2770 889 
Q 3016 1369 3016 2328 
Q 3016 3291 2770 3770 
Q 2525 4250 2034 4250 
z
M 2034 4750 
Q 2819 4750 3233 4129 
Q 3647 3509 3647 2328 
Q 3647 1150 3233 529 
Q 2819 -91 2034 -91 
Q 1250 -91 836 529 
Q 422 1150 422 2328 
Q 422 3509 836 4129 
Q 1250 4750 2034 4750 
z
" transform="scale(0.015625)"/>
       </defs>
       <use xlink:href="#DejaVuSans-35"/>
       <use xlink:href="#DejaVuSans-30" x="63.623047"/>
      </g>
     </g>
    </g>
    <g id="xtick_2">
     <g id="line2d_2">
      <g>
       <use xlink:href="#ma1a41fc623" x="125.623896" y="307.584" style="stroke: #000000; stroke-width: 0.8"/>
      </g>
     </g>
     <g id="text_2">
      <!-- 100 -->
      <g transform="translate(116.080146 322.182437) scale(0.1 -0.1)">
       <defs>
        <path id="DejaVuSans-31" d="M 794 531 
L 1825 531 
L 1825 4091 
L 703 3866 
L 703 4441 
L 1819 4666 
L 2450 4666 
L 2450 531 
L 3481 531 
L 3481 0 
L 794 0 
L 794 531 
z
" transform="scale(0.015625)"/>
       </defs>
       <use xlink:href="#DejaVuSans-31"/>
       <use xlink:href="#DejaVuSans-30" x="63.623047"/>
       <use xlink:href="#DejaVuSans-30" x="127.246094"/>
      </g>
     </g>
    </g>
    <g id="xtick_3">
     <g id="line2d_3">
      <g>
       <use xlink:href="#ma1a41fc623" x="179.415683" y="307.584" style="stroke: #000000; stroke-width: 0.8"/>
      </g>
     </g>
     <g id="text_3">
      <!-- 150 -->
      <g transform="translate(169.871933 322.182437) scale(0.1 -0.1)">
       <use xlink:href="#DejaVuSans-31"/>
       <use xlink:href="#DejaVuSans-35" x="63.623047"/>
       <use xlink:href="#DejaVuSans-30" x="127.246094"/>
      </g>
     </g>
    </g>
    <g id="xtick_4">
     <g id="line2d_4">
      <g>
       <use xlink:href="#ma1a41fc623" x="233.20747" y="307.584" style="stroke: #000000; stroke-width: 0.8"/>
      </g>
     </g>
     <g id="text_4">
      <!-- 200 -->
      <g transform="translate(223.66372 322.182437) scale(0.1 -0.1)">
       <defs>
        <path id="DejaVuSans-32" d="M 1228 531 
L 3431 531 
L 3431 0 
L 469 0 
L 469 531 
Q 828 903 1448 1529 
Q 2069 2156 2228 2338 
Q 2531 2678 2651 2914 
Q 2772 3150 2772 3378 
Q 2772 3750 2511 3984 
Q 2250 4219 1831 4219 
Q 1534 4219 1204 4116 
Q 875 4013 500 3803 
L 500 4441 
Q 881 4594 1212 4672 
Q 1544 4750 1819 4750 
Q 2544 4750 2975 4387 
Q 3406 4025 3406 3419 
Q 3406 3131 3298 2873 
Q 3191 2616 2906 2266 
Q 2828 2175 2409 1742 
Q 1991 1309 1228 531 
z
" transform="scale(0.015625)"/>
       </defs>
       <use xlink:href="#DejaVuSans-32"/>
       <use xlink:href="#DejaVuSans-30" x="63.623047"/>
       <use xlink:href="#DejaVuSans-30" x="127.246094"/>
      </g>
     </g>
    </g>
    <g id="xtick_5">
     <g id="line2d_5">
      <g>
       <use xlink:href="#ma1a41fc623" x="286.999257" y="307.584" style="stroke: #000000; stroke-width: 0.8"/>
      </g>
     </g>
     <g id="text_5">
      <!-- 250 -->
      <g transform="translate(277.455507 322.182437) scale(0.1 -0.1)">
       <use xlink:href="#DejaVuSans-32"/>
       <use xlink:href="#DejaVuSans-35" x="63.623047"/>
       <use xlink:href="#DejaVuSans-30" x="127.246094"/>
      </g>
     </g>
    </g>
    <g id="xtick_6">
     <g id="line2d_6">
      <g>
       <use xlink:href="#ma1a41fc623" x="340.791044" y="307.584" style="stroke: #000000; stroke-width: 0.8"/>
      </g>
     </g>
     <g id="text_6">
      <!-- 300 -->
      <g transform="translate(331.247294 322.182437) scale(0.1 -0.1)">
       <defs>
        <path id="DejaVuSans-33" d="M 2597 2516 
Q 3050 2419 3304 2112 
Q 3559 1806 3559 1356 
Q 3559 666 3084 287 
Q 2609 -91 1734 -91 
Q 1441 -91 1130 -33 
Q 819 25 488 141 
L 488 750 
Q 750 597 1062 519 
Q 1375 441 1716 441 
Q 2309 441 2620 675 
Q 2931 909 2931 1356 
Q 2931 1769 2642 2001 
Q 2353 2234 1838 2234 
L 1294 2234 
L 1294 2753 
L 1863 2753 
Q 2328 2753 2575 2939 
Q 2822 3125 2822 3475 
Q 2822 3834 2567 4026 
Q 2313 4219 1838 4219 
Q 1578 4219 1281 4162 
Q 984 4106 628 3988 
L 628 4550 
Q 988 4650 1302 4700 
Q 1616 4750 1894 4750 
Q 2613 4750 3031 4423 
Q 3450 4097 3450 3541 
Q 3450 3153 3228 2886 
Q 3006 2619 2597 2516 
z
" transform="scale(0.015625)"/>
       </defs>
       <use xlink:href="#DejaVuSans-33"/>
       <use xlink:href="#DejaVuSans-30" x="63.623047"/>
       <use xlink:href="#DejaVuSans-30" x="127.246094"/>
      </g>
     </g>
    </g>
    <g id="xtick_7">
     <g id="line2d_7">
      <g>
       <use xlink:href="#ma1a41fc623" x="394.582831" y="307.584" style="stroke: #000000; stroke-width: 0.8"/>
      </g>
     </g>
     <g id="text_7">
      <!-- 350 -->
      <g transform="translate(385.039081 322.182437) scale(0.1 -0.1)">
       <use xlink:href="#DejaVuSans-33"/>
       <use xlink:href="#DejaVuSans-35" x="63.623047"/>
       <use xlink:href="#DejaVuSans-30" x="127.246094"/>
      </g>
     </g>
    </g>
    <g id="text_8">
     <!-- ${m/z}$ -->
     <g transform="translate(226.96 335.860562) scale(0.1 -0.1)">
      <defs>
       <path id="DejaVuSans-Oblique-6d" d="M 5747 2113 
L 5338 0 
L 4763 0 
L 5166 2094 
Q 5191 2228 5203 2325 
Q 5216 2422 5216 2491 
Q 5216 2772 5059 2928 
Q 4903 3084 4622 3084 
Q 4203 3084 3875 2770 
Q 3547 2456 3450 1953 
L 3066 0 
L 2491 0 
L 2900 2094 
Q 2925 2209 2937 2307 
Q 2950 2406 2950 2484 
Q 2950 2769 2794 2926 
Q 2638 3084 2363 3084 
Q 1938 3084 1609 2770 
Q 1281 2456 1184 1953 
L 800 0 
L 225 0 
L 909 3500 
L 1484 3500 
L 1375 2956 
Q 1609 3263 1923 3423 
Q 2238 3584 2597 3584 
Q 2978 3584 3223 3384 
Q 3469 3184 3519 2828 
Q 3781 3197 4126 3390 
Q 4472 3584 4856 3584 
Q 5306 3584 5551 3325 
Q 5797 3066 5797 2591 
Q 5797 2488 5784 2364 
Q 5772 2241 5747 2113 
z
" transform="scale(0.015625)"/>
       <path id="DejaVuSans-2f" d="M 1625 4666 
L 2156 4666 
L 531 -594 
L 0 -594 
L 1625 4666 
z
" transform="scale(0.015625)"/>
       <path id="DejaVuSans-Oblique-7a" d="M 744 3500 
L 3475 3500 
L 3372 2975 
L 738 459 
L 2913 459 
L 2822 0 
L -19 0 
L 84 525 
L 2719 3041 
L 653 3041 
L 744 3500 
z
" transform="scale(0.015625)"/>
      </defs>
      <use xlink:href="#DejaVuSans-Oblique-6d" transform="translate(0 0.09375)"/>
      <use xlink:href="#DejaVuSans-2f" transform="translate(97.412109 0.09375)"/>
      <use xlink:href="#DejaVuSans-Oblique-7a" transform="translate(131.103516 0.09375)"/>
     </g>
    </g>
   </g>
   <g id="matplotlib.axis_2">
    <g id="ytick_1">
     <g id="line2d_8">
      <defs>
       <path id="mc572504c7c" d="M 0 0 
L -3.5 0 
" style="stroke: #000000; stroke-width: 0.8"/>
      </defs>
      <g>
       <use xlink:href="#mc572504c7c" x="57.6" y="307.584" style="stroke: #000000; stroke-width: 0.8"/>
      </g>
     </g>
     <g id="text_9">
      <!-- 0 -->
      <g transform="translate(44.2375 311.383219) scale(0.1 -0.1)">
       <use xlink:href="#DejaVuSans-30"/>
      </g>
     </g>
    </g>
    <g id="ytick_2">
     <g id="line2d_9">
      <g>
       <use xlink:href="#mc572504c7c" x="57.6" y="252.011341" style="stroke: #000000; stroke-width: 0.8"/>
      </g>
     </g>
     <g id="text_10">
      <!-- 2 -->
      <g transform="translate(44.2375 255.81056) scale(0.1 -0.1)">
       <use xlink:href="#DejaVuSans-32"/>
      </g>
     </g>
    </g>
    <g id="ytick_3">
     <g id="line2d_10">
      <g>
       <use xlink:href="#mc572504c7c" x="57.6" y="196.438682" style="stroke: #000000; stroke-width: 0.8"/>
      </g>
     </g>
     <g id="text_11">
      <!-- 4 -->
      <g transform="translate(44.2375 200.237901) scale(0.1 -0.1)">
       <defs>
        <path id="DejaVuSans-34" d="M 2419 4116 
L 825 1625 
L 2419 1625 
L 2419 4116 
z
M 2253 4666 
L 3047 4666 
L 3047 1625 
L 3713 1625 
L 3713 1100 
L 3047 1100 
L 3047 0 
L 2419 0 
L 2419 1100 
L 313 1100 
L 313 1709 
L 2253 4666 
z
" transform="scale(0.015625)"/>
       </defs>
       <use xlink:href="#DejaVuSans-34"/>
      </g>
     </g>
    </g>
    <g id="ytick_4">
     <g id="line2d_11">
      <g>
       <use xlink:href="#mc572504c7c" x="57.6" y="140.866023" style="stroke: #000000; stroke-width: 0.8"/>
      </g>
     </g>
     <g id="text_12">
      <!-- 6 -->
      <g transform="translate(44.2375 144.665242) scale(0.1 -0.1)">
       <defs>
        <path id="DejaVuSans-36" d="M 2113 2584 
Q 1688 2584 1439 2293 
Q 1191 2003 1191 1497 
Q 1191 994 1439 701 
Q 1688 409 2113 409 
Q 2538 409 2786 701 
Q 3034 994 3034 1497 
Q 3034 2003 2786 2293 
Q 2538 2584 2113 2584 
z
M 3366 4563 
L 3366 3988 
Q 3128 4100 2886 4159 
Q 2644 4219 2406 4219 
Q 1781 4219 1451 3797 
Q 1122 3375 1075 2522 
Q 1259 2794 1537 2939 
Q 1816 3084 2150 3084 
Q 2853 3084 3261 2657 
Q 3669 2231 3669 1497 
Q 3669 778 3244 343 
Q 2819 -91 2113 -91 
Q 1303 -91 875 529 
Q 447 1150 447 2328 
Q 447 3434 972 4092 
Q 1497 4750 2381 4750 
Q 2619 4750 2861 4703 
Q 3103 4656 3366 4563 
z
" transform="scale(0.015625)"/>
       </defs>
       <use xlink:href="#DejaVuSans-36"/>
      </g>
     </g>
    </g>
    <g id="ytick_5">
     <g id="line2d_12">
      <g>
       <use xlink:href="#mc572504c7c" x="57.6" y="85.293364" style="stroke: #000000; stroke-width: 0.8"/>
      </g>
     </g>
     <g id="text_13">
      <!-- 8 -->
      <g transform="translate(44.2375 89.092583) scale(0.1 -0.1)">
       <defs>
        <path id="DejaVuSans-38" d="M 2034 2216 
Q 1584 2216 1326 1975 
Q 1069 1734 1069 1313 
Q 1069 891 1326 650 
Q 1584 409 2034 409 
Q 2484 409 2743 651 
Q 3003 894 3003 1313 
Q 3003 1734 2745 1975 
Q 2488 2216 2034 2216 
z
M 1403 2484 
Q 997 2584 770 2862 
Q 544 3141 544 3541 
Q 544 4100 942 4425 
Q 1341 4750 2034 4750 
Q 2731 4750 3128 4425 
Q 3525 4100 3525 3541 
Q 3525 3141 3298 2862 
Q 3072 2584 2669 2484 
Q 3125 2378 3379 2068 
Q 3634 1759 3634 1313 
Q 3634 634 3220 271 
Q 2806 -91 2034 -91 
Q 1263 -91 848 271 
Q 434 634 434 1313 
Q 434 1759 690 2068 
Q 947 2378 1403 2484 
z
M 1172 3481 
Q 1172 3119 1398 2916 
Q 1625 2713 2034 2713 
Q 2441 2713 2670 2916 
Q 2900 3119 2900 3481 
Q 2900 3844 2670 4047 
Q 2441 4250 2034 4250 
Q 1625 4250 1398 4047 
Q 1172 3844 1172 3481 
z
" transform="scale(0.015625)"/>
       </defs>
       <use xlink:href="#DejaVuSans-38"/>
      </g>
     </g>
    </g>
    <g id="text_14">
     <!-- intensities -->
     <g transform="translate(38.157812 200.3155) rotate(-90) scale(0.1 -0.1)">
      <defs>
       <path id="DejaVuSans-69" d="M 603 3500 
L 1178 3500 
L 1178 0 
L 603 0 
L 603 3500 
z
M 603 4863 
L 1178 4863 
L 1178 4134 
L 603 4134 
L 603 4863 
z
" transform="scale(0.015625)"/>
       <path id="DejaVuSans-6e" d="M 3513 2113 
L 3513 0 
L 2938 0 
L 2938 2094 
Q 2938 2591 2744 2837 
Q 2550 3084 2163 3084 
Q 1697 3084 1428 2787 
Q 1159 2491 1159 1978 
L 1159 0 
L 581 0 
L 581 3500 
L 1159 3500 
L 1159 2956 
Q 1366 3272 1645 3428 
Q 1925 3584 2291 3584 
Q 2894 3584 3203 3211 
Q 3513 2838 3513 2113 
z
" transform="scale(0.015625)"/>
       <path id="DejaVuSans-74" d="M 1172 4494 
L 1172 3500 
L 2356 3500 
L 2356 3053 
L 1172 3053 
L 1172 1153 
Q 1172 725 1289 603 
Q 1406 481 1766 481 
L 2356 481 
L 2356 0 
L 1766 0 
Q 1100 0 847 248 
Q 594 497 594 1153 
L 594 3053 
L 172 3053 
L 172 3500 
L 594 3500 
L 594 4494 
L 1172 4494 
z
" transform="scale(0.015625)"/>
       <path id="DejaVuSans-65" d="M 3597 1894 
L 3597 1613 
L 953 1613 
Q 991 1019 1311 708 
Q 1631 397 2203 397 
Q 2534 397 2845 478 
Q 3156 559 3463 722 
L 3463 178 
Q 3153 47 2828 -22 
Q 2503 -91 2169 -91 
Q 1331 -91 842 396 
Q 353 884 353 1716 
Q 353 2575 817 3079 
Q 1281 3584 2069 3584 
Q 2775 3584 3186 3129 
Q 3597 2675 3597 1894 
z
M 3022 2063 
Q 3016 2534 2758 2815 
Q 2500 3097 2075 3097 
Q 1594 3097 1305 2825 
Q 1016 2553 972 2059 
L 3022 2063 
z
" transform="scale(0.015625)"/>
       <path id="DejaVuSans-73" d="M 2834 3397 
L 2834 2853 
Q 2591 2978 2328 3040 
Q 2066 3103 1784 3103 
Q 1356 3103 1142 2972 
Q 928 2841 928 2578 
Q 928 2378 1081 2264 
Q 1234 2150 1697 2047 
L 1894 2003 
Q 2506 1872 2764 1633 
Q 3022 1394 3022 966 
Q 3022 478 2636 193 
Q 2250 -91 1575 -91 
Q 1294 -91 989 -36 
Q 684 19 347 128 
L 347 722 
Q 666 556 975 473 
Q 1284 391 1588 391 
Q 1994 391 2212 530 
Q 2431 669 2431 922 
Q 2431 1156 2273 1281 
Q 2116 1406 1581 1522 
L 1381 1569 
Q 847 1681 609 1914 
Q 372 2147 372 2553 
Q 372 3047 722 3315 
Q 1072 3584 1716 3584 
Q 2034 3584 2315 3537 
Q 2597 3491 2834 3397 
z
" transform="scale(0.015625)"/>
      </defs>
      <use xlink:href="#DejaVuSans-69"/>
      <use xlink:href="#DejaVuSans-6e" x="27.783203"/>
      <use xlink:href="#DejaVuSans-74" x="91.162109"/>
      <use xlink:href="#DejaVuSans-65" x="130.371094"/>
      <use xlink:href="#DejaVuSans-6e" x="191.894531"/>
      <use xlink:href="#DejaVuSans-73" x="255.273438"/>
      <use xlink:href="#DejaVuSans-69" x="307.373047"/>
      <use xlink:href="#DejaVuSans-74" x="335.15625"/>
      <use xlink:href="#DejaVuSans-69" x="374.365234"/>
      <use xlink:href="#DejaVuSans-65" x="402.148438"/>
      <use xlink:href="#DejaVuSans-73" x="463.671875"/>
     </g>
    </g>
    <g id="text_15">
     <!-- 1e6 -->
     <g transform="translate(57.6 38.472) scale(0.1 -0.1)">
      <use xlink:href="#DejaVuSans-31"/>
      <use xlink:href="#DejaVuSans-65" x="63.623047"/>
      <use xlink:href="#DejaVuSans-36" x="125.146484"/>
     </g>
    </g>
   </g>
   <g id="patch_76">
    <path d="M 57.6 307.584 
L 57.6 41.472 
" style="fill: none; stroke: #000000; stroke-width: 0.8; stroke-linejoin: miter; stroke-linecap: square"/>
   </g>
   <g id="patch_77">
    <path d="M 414.72 307.584 
L 414.72 41.472 
" style="fill: none; stroke: #000000; stroke-width: 0.8; stroke-linejoin: miter; stroke-linecap: square"/>
   </g>
   <g id="patch_78">
    <path d="M 57.6 307.584 
L 414.72 307.584 
" style="fill: none; stroke: #000000; stroke-width: 0.8; stroke-linejoin: miter; stroke-linecap: square"/>
   </g>
   <g id="patch_79">
    <path d="M 57.6 41.472 
L 414.72 41.472 
" style="fill: none; stroke: #000000; stroke-width: 0.8; stroke-linejoin: miter; stroke-linecap: square"/>
   </g>
   <g id="text_16">
    <!-- 283.0633 -->
    <g transform="translate(308.975209 50.939625) scale(0.06 -0.06)">
     <defs>
      <path id="DejaVuSans-2e" d="M 684 794 
L 1344 794 
L 1344 0 
L 684 0 
L 684 794 
z
" transform="scale(0.015625)"/>
     </defs>
     <use xlink:href="#DejaVuSans-32"/>
     <use xlink:href="#DejaVuSans-38" x="63.623047"/>
     <use xlink:href="#DejaVuSans-33" x="127.246094"/>
     <use xlink:href="#DejaVuSans-2e" x="190.869141"/>
     <use xlink:href="#DejaVuSans-30" x="222.65625"/>
     <use xlink:href="#DejaVuSans-36" x="286.279297"/>
     <use xlink:href="#DejaVuSans-33" x="349.902344"/>
     <use xlink:href="#DejaVuSans-33" x="413.525391"/>
    </g>
   </g>
   <g id="text_17">
    <!-- 284.0661 -->
    <g transform="translate(310.054066 269.411985) scale(0.06 -0.06)">
     <use xlink:href="#DejaVuSans-32"/>
     <use xlink:href="#DejaVuSans-38" x="63.623047"/>
     <use xlink:href="#DejaVuSans-34" x="127.246094"/>
     <use xlink:href="#DejaVuSans-2e" x="190.869141"/>
     <use xlink:href="#DejaVuSans-30" x="222.65625"/>
     <use xlink:href="#DejaVuSans-36" x="286.279297"/>
     <use xlink:href="#DejaVuSans-36" x="349.902344"/>
     <use xlink:href="#DejaVuSans-31" x="413.525391"/>
    </g>
   </g>
   <g id="text_18">
    <!-- MS2 spectrum of ${m/z}$ 328.1198, scan time 3.1 min. -->
    <g transform="translate(57.6 24.873562) scale(0.12 -0.12)">
     <defs>
      <path id="DejaVuSans-4d" d="M 628 4666 
L 1569 4666 
L 2759 1491 
L 3956 4666 
L 4897 4666 
L 4897 0 
L 4281 0 
L 4281 4097 
L 3078 897 
L 2444 897 
L 1241 4097 
L 1241 0 
L 628 0 
L 628 4666 
z
" transform="scale(0.015625)"/>
      <path id="DejaVuSans-53" d="M 3425 4513 
L 3425 3897 
Q 3066 4069 2747 4153 
Q 2428 4238 2131 4238 
Q 1616 4238 1336 4038 
Q 1056 3838 1056 3469 
Q 1056 3159 1242 3001 
Q 1428 2844 1947 2747 
L 2328 2669 
Q 3034 2534 3370 2195 
Q 3706 1856 3706 1288 
Q 3706 609 3251 259 
Q 2797 -91 1919 -91 
Q 1588 -91 1214 -16 
Q 841 59 441 206 
L 441 856 
Q 825 641 1194 531 
Q 1563 422 1919 422 
Q 2459 422 2753 634 
Q 3047 847 3047 1241 
Q 3047 1584 2836 1778 
Q 2625 1972 2144 2069 
L 1759 2144 
Q 1053 2284 737 2584 
Q 422 2884 422 3419 
Q 422 4038 858 4394 
Q 1294 4750 2059 4750 
Q 2388 4750 2728 4690 
Q 3069 4631 3425 4513 
z
" transform="scale(0.015625)"/>
      <path id="DejaVuSans-20" transform="scale(0.015625)"/>
      <path id="DejaVuSans-70" d="M 1159 525 
L 1159 -1331 
L 581 -1331 
L 581 3500 
L 1159 3500 
L 1159 2969 
Q 1341 3281 1617 3432 
Q 1894 3584 2278 3584 
Q 2916 3584 3314 3078 
Q 3713 2572 3713 1747 
Q 3713 922 3314 415 
Q 2916 -91 2278 -91 
Q 1894 -91 1617 61 
Q 1341 213 1159 525 
z
M 3116 1747 
Q 3116 2381 2855 2742 
Q 2594 3103 2138 3103 
Q 1681 3103 1420 2742 
Q 1159 2381 1159 1747 
Q 1159 1113 1420 752 
Q 1681 391 2138 391 
Q 2594 391 2855 752 
Q 3116 1113 3116 1747 
z
" transform="scale(0.015625)"/>
      <path id="DejaVuSans-63" d="M 3122 3366 
L 3122 2828 
Q 2878 2963 2633 3030 
Q 2388 3097 2138 3097 
Q 1578 3097 1268 2742 
Q 959 2388 959 1747 
Q 959 1106 1268 751 
Q 1578 397 2138 397 
Q 2388 397 2633 464 
Q 2878 531 3122 666 
L 3122 134 
Q 2881 22 2623 -34 
Q 2366 -91 2075 -91 
Q 1284 -91 818 406 
Q 353 903 353 1747 
Q 353 2603 823 3093 
Q 1294 3584 2113 3584 
Q 2378 3584 2631 3529 
Q 2884 3475 3122 3366 
z
" transform="scale(0.015625)"/>
      <path id="DejaVuSans-72" d="M 2631 2963 
Q 2534 3019 2420 3045 
Q 2306 3072 2169 3072 
Q 1681 3072 1420 2755 
Q 1159 2438 1159 1844 
L 1159 0 
L 581 0 
L 581 3500 
L 1159 3500 
L 1159 2956 
Q 1341 3275 1631 3429 
Q 1922 3584 2338 3584 
Q 2397 3584 2469 3576 
Q 2541 3569 2628 3553 
L 2631 2963 
z
" transform="scale(0.015625)"/>
      <path id="DejaVuSans-75" d="M 544 1381 
L 544 3500 
L 1119 3500 
L 1119 1403 
Q 1119 906 1312 657 
Q 1506 409 1894 409 
Q 2359 409 2629 706 
Q 2900 1003 2900 1516 
L 2900 3500 
L 3475 3500 
L 3475 0 
L 2900 0 
L 2900 538 
Q 2691 219 2414 64 
Q 2138 -91 1772 -91 
Q 1169 -91 856 284 
Q 544 659 544 1381 
z
M 1991 3584 
L 1991 3584 
z
" transform="scale(0.015625)"/>
      <path id="DejaVuSans-6d" d="M 3328 2828 
Q 3544 3216 3844 3400 
Q 4144 3584 4550 3584 
Q 5097 3584 5394 3201 
Q 5691 2819 5691 2113 
L 5691 0 
L 5113 0 
L 5113 2094 
Q 5113 2597 4934 2840 
Q 4756 3084 4391 3084 
Q 3944 3084 3684 2787 
Q 3425 2491 3425 1978 
L 3425 0 
L 2847 0 
L 2847 2094 
Q 2847 2600 2669 2842 
Q 2491 3084 2119 3084 
Q 1678 3084 1418 2786 
Q 1159 2488 1159 1978 
L 1159 0 
L 581 0 
L 581 3500 
L 1159 3500 
L 1159 2956 
Q 1356 3278 1631 3431 
Q 1906 3584 2284 3584 
Q 2666 3584 2933 3390 
Q 3200 3197 3328 2828 
z
" transform="scale(0.015625)"/>
      <path id="DejaVuSans-6f" d="M 1959 3097 
Q 1497 3097 1228 2736 
Q 959 2375 959 1747 
Q 959 1119 1226 758 
Q 1494 397 1959 397 
Q 2419 397 2687 759 
Q 2956 1122 2956 1747 
Q 2956 2369 2687 2733 
Q 2419 3097 1959 3097 
z
M 1959 3584 
Q 2709 3584 3137 3096 
Q 3566 2609 3566 1747 
Q 3566 888 3137 398 
Q 2709 -91 1959 -91 
Q 1206 -91 779 398 
Q 353 888 353 1747 
Q 353 2609 779 3096 
Q 1206 3584 1959 3584 
z
" transform="scale(0.015625)"/>
      <path id="DejaVuSans-66" d="M 2375 4863 
L 2375 4384 
L 1825 4384 
Q 1516 4384 1395 4259 
Q 1275 4134 1275 3809 
L 1275 3500 
L 2222 3500 
L 2222 3053 
L 1275 3053 
L 1275 0 
L 697 0 
L 697 3053 
L 147 3053 
L 147 3500 
L 697 3500 
L 697 3744 
Q 697 4328 969 4595 
Q 1241 4863 1831 4863 
L 2375 4863 
z
" transform="scale(0.015625)"/>
      <path id="DejaVuSans-39" d="M 703 97 
L 703 672 
Q 941 559 1184 500 
Q 1428 441 1663 441 
Q 2288 441 2617 861 
Q 2947 1281 2994 2138 
Q 2813 1869 2534 1725 
Q 2256 1581 1919 1581 
Q 1219 1581 811 2004 
Q 403 2428 403 3163 
Q 403 3881 828 4315 
Q 1253 4750 1959 4750 
Q 2769 4750 3195 4129 
Q 3622 3509 3622 2328 
Q 3622 1225 3098 567 
Q 2575 -91 1691 -91 
Q 1453 -91 1209 -44 
Q 966 3 703 97 
z
M 1959 2075 
Q 2384 2075 2632 2365 
Q 2881 2656 2881 3163 
Q 2881 3666 2632 3958 
Q 2384 4250 1959 4250 
Q 1534 4250 1286 3958 
Q 1038 3666 1038 3163 
Q 1038 2656 1286 2365 
Q 1534 2075 1959 2075 
z
" transform="scale(0.015625)"/>
      <path id="DejaVuSans-2c" d="M 750 794 
L 1409 794 
L 1409 256 
L 897 -744 
L 494 -744 
L 750 256 
L 750 794 
z
" transform="scale(0.015625)"/>
      <path id="DejaVuSans-61" d="M 2194 1759 
Q 1497 1759 1228 1600 
Q 959 1441 959 1056 
Q 959 750 1161 570 
Q 1363 391 1709 391 
Q 2188 391 2477 730 
Q 2766 1069 2766 1631 
L 2766 1759 
L 2194 1759 
z
M 3341 1997 
L 3341 0 
L 2766 0 
L 2766 531 
Q 2569 213 2275 61 
Q 1981 -91 1556 -91 
Q 1019 -91 701 211 
Q 384 513 384 1019 
Q 384 1609 779 1909 
Q 1175 2209 1959 2209 
L 2766 2209 
L 2766 2266 
Q 2766 2663 2505 2880 
Q 2244 3097 1772 3097 
Q 1472 3097 1187 3025 
Q 903 2953 641 2809 
L 641 3341 
Q 956 3463 1253 3523 
Q 1550 3584 1831 3584 
Q 2591 3584 2966 3190 
Q 3341 2797 3341 1997 
z
" transform="scale(0.015625)"/>
     </defs>
     <use xlink:href="#DejaVuSans-4d" transform="translate(0 0.015625)"/>
     <use xlink:href="#DejaVuSans-53" transform="translate(86.279297 0.015625)"/>
     <use xlink:href="#DejaVuSans-32" transform="translate(149.755859 0.015625)"/>
     <use xlink:href="#DejaVuSans-20" transform="translate(213.378906 0.015625)"/>
     <use xlink:href="#DejaVuSans-73" transform="translate(245.166016 0.015625)"/>
     <use xlink:href="#DejaVuSans-70" transform="translate(297.265625 0.015625)"/>
     <use xlink:href="#DejaVuSans-65" transform="translate(360.742188 0.015625)"/>
     <use xlink:href="#DejaVuSans-63" transform="translate(422.265625 0.015625)"/>
     <use xlink:href="#DejaVuSans-74" transform="translate(477.246094 0.015625)"/>
     <use xlink:href="#DejaVuSans-72" transform="translate(516.455078 0.015625)"/>
     <use xlink:href="#DejaVuSans-75" transform="translate(557.568359 0.015625)"/>
     <use xlink:href="#DejaVuSans-6d" transform="translate(620.947266 0.015625)"/>
     <use xlink:href="#DejaVuSans-20" transform="translate(718.359375 0.015625)"/>
     <use xlink:href="#DejaVuSans-6f" transform="translate(750.146484 0.015625)"/>
     <use xlink:href="#DejaVuSans-66" transform="translate(811.328125 0.015625)"/>
     <use xlink:href="#DejaVuSans-20" transform="translate(846.533203 0.015625)"/>
     <use xlink:href="#DejaVuSans-Oblique-6d" transform="translate(878.320312 0.015625)"/>
     <use xlink:href="#DejaVuSans-2f" transform="translate(975.732422 0.015625)"/>
     <use xlink:href="#DejaVuSans-Oblique-7a" transform="translate(1009.423828 0.015625)"/>
     <use xlink:href="#DejaVuSans-20" transform="translate(1061.914062 0.015625)"/>
     <use xlink:href="#DejaVuSans-33" transform="translate(1093.701172 0.015625)"/>
     <use xlink:href="#DejaVuSans-32" transform="translate(1157.324219 0.015625)"/>
     <use xlink:href="#DejaVuSans-38" transform="translate(1220.947266 0.015625)"/>
     <use xlink:href="#DejaVuSans-2e" transform="translate(1284.570312 0.015625)"/>
     <use xlink:href="#DejaVuSans-31" transform="translate(1316.357422 0.015625)"/>
     <use xlink:href="#DejaVuSans-31" transform="translate(1379.980469 0.015625)"/>
     <use xlink:href="#DejaVuSans-39" transform="translate(1443.603516 0.015625)"/>
     <use xlink:href="#DejaVuSans-38" transform="translate(1507.226562 0.015625)"/>
     <use xlink:href="#DejaVuSans-2c" transform="translate(1570.849609 0.015625)"/>
     <use xlink:href="#DejaVuSans-20" transform="translate(1602.636719 0.015625)"/>
     <use xlink:href="#DejaVuSans-73" transform="translate(1634.423828 0.015625)"/>
     <use xlink:href="#DejaVuSans-63" transform="translate(1686.523438 0.015625)"/>
     <use xlink:href="#DejaVuSans-61" transform="translate(1741.503906 0.015625)"/>
     <use xlink:href="#DejaVuSans-6e" transform="translate(1802.783203 0.015625)"/>
     <use xlink:href="#DejaVuSans-20" transform="translate(1866.162109 0.015625)"/>
     <use xlink:href="#DejaVuSans-74" transform="translate(1897.949219 0.015625)"/>
     <use xlink:href="#DejaVuSans-69" transform="translate(1937.158203 0.015625)"/>
     <use xlink:href="#DejaVuSans-6d" transform="translate(1964.941406 0.015625)"/>
     <use xlink:href="#DejaVuSans-65" transform="translate(2062.353516 0.015625)"/>
     <use xlink:href="#DejaVuSans-20" transform="translate(2123.876953 0.015625)"/>
     <use xlink:href="#DejaVuSans-33" transform="translate(2155.664062 0.015625)"/>
     <use xlink:href="#DejaVuSans-2e" transform="translate(2219.287109 0.015625)"/>
     <use xlink:href="#DejaVuSans-31" transform="translate(2251.074219 0.015625)"/>
     <use xlink:href="#DejaVuSans-20" transform="translate(2314.697266 0.015625)"/>
     <use xlink:href="#DejaVuSans-6d" transform="translate(2346.484375 0.015625)"/>
     <use xlink:href="#DejaVuSans-69" transform="translate(2443.896484 0.015625)"/>
     <use xlink:href="#DejaVuSans-6e" transform="translate(2471.679688 0.015625)"/>
     <use xlink:href="#DejaVuSans-2e" transform="translate(2535.058594 0.015625)"/>
    </g>
   </g>
  </g>
 </g>
 <defs>
  <clipPath id="p16d3e592f6">
   <rect x="57.6" y="41.472" width="357.12" height="266.112"/>
  </clipPath>
 </defs>
</svg>
