<?xml version="1.0" encoding="utf-8" standalone="no"?>
<!DOCTYPE svg PUBLIC "-//W3C//DTD SVG 1.1//EN"
  "http://www.w3.org/Graphics/SVG/1.1/DTD/svg11.dtd">
<svg xmlns:xlink="http://www.w3.org/1999/xlink" width="460.8pt" height="345.6pt" viewBox="0 0 460.8 345.6" xmlns="http://www.w3.org/2000/svg" version="1.1">
 <metadata>
  <rdf:RDF xmlns:dc="http://purl.org/dc/elements/1.1/" xmlns:cc="http://creativecommons.org/ns#" xmlns:rdf="http://www.w3.org/1999/02/22-rdf-syntax-ns#">
   <cc:Work>
    <dc:type rdf:resource="http://purl.org/dc/dcmitype/StillImage"/>
    <dc:date>2025-01-11T12:52:54.020110</dc:date>
    <dc:format>image/svg+xml</dc:format>
    <dc:creator>
     <cc:Agent>
      <dc:title>Matplotlib v3.7.3, https://matplotlib.org/</dc:title>
     </cc:Agent>
    </dc:creator>
   </cc:Work>
  </rdf:RDF>
 </metadata>
 <defs>
  <style type="text/css">*{stroke-linejoin: round; stroke-linecap: butt}</style>
 </defs>
 <g id="figure_1">
  <g id="patch_1">
   <path d="M 0 345.6 
L 460.8 345.6 
L 460.8 0 
L 0 0 
z
" style="fill: #ffffff"/>
  </g>
  <g id="axes_1">
   <g id="patch_2">
    <path d="M 57.6 307.584 
L 414.72 307.584 
L 414.72 41.472 
L 57.6 41.472 
z
" style="fill: #ffffff"/>
   </g>
   <g id="patch_3">
    <path d="M 73.832727 307.584 
L 74.586816 307.584 
L 74.586816 306.532022 
L 73.832727 306.532022 
z
" clip-path="url(#p51eb50bc9b)" style="fill: #1f77b4"/>
   </g>
   <g id="patch_4">
    <path d="M 75.223088 307.584 
L 75.977176 307.584 
L 75.977176 305.945982 
L 75.223088 305.945982 
z
" clip-path="url(#p51eb50bc9b)" style="fill: #1f77b4"/>
   </g>
   <g id="patch_5">
    <path d="M 75.320799 307.584 
L 76.074888 307.584 
L 76.074888 306.60286 
L 75.320799 306.60286 
z
" clip-path="url(#p51eb50bc9b)" style="fill: #1f77b4"/>
   </g>
   <g id="patch_6">
    <path d="M 75.715026 307.584 
L 76.469114 307.584 
L 76.469114 306.518757 
L 75.715026 306.518757 
z
" clip-path="url(#p51eb50bc9b)" style="fill: #1f77b4"/>
   </g>
   <g id="patch_7">
    <path d="M 77.123124 307.584 
L 77.877212 307.584 
L 77.877212 306.350219 
L 77.123124 306.350219 
z
" clip-path="url(#p51eb50bc9b)" style="fill: #1f77b4"/>
   </g>
   <g id="patch_8">
    <path d="M 83.444352 307.584 
L 84.198441 307.584 
L 84.198441 306.584973 
L 83.444352 306.584973 
z
" clip-path="url(#p51eb50bc9b)" style="fill: #1f77b4"/>
   </g>
   <g id="patch_9">
    <path d="M 86.640241 307.584 
L 87.39433 307.584 
L 87.39433 306.068859 
L 86.640241 306.068859 
z
" clip-path="url(#p51eb50bc9b)" style="fill: #1f77b4"/>
   </g>
   <g id="patch_10">
    <path d="M 88.434115 307.584 
L 89.188204 307.584 
L 89.188204 304.905995 
L 88.434115 304.905995 
z
" clip-path="url(#p51eb50bc9b)" style="fill: #1f77b4"/>
   </g>
   <g id="patch_11">
    <path d="M 90.299934 307.584 
L 91.054023 307.584 
L 91.054023 304.624938 
L 90.299934 304.624938 
z
" clip-path="url(#p51eb50bc9b)" style="fill: #1f77b4"/>
   </g>
   <g id="patch_12">
    <path d="M 91.668652 307.584 
L 92.42274 307.584 
L 92.42274 305.966031 
L 91.668652 305.966031 
z
" clip-path="url(#p51eb50bc9b)" style="fill: #1f77b4"/>
   </g>
   <g id="patch_13">
    <path d="M 92.165782 307.584 
L 92.91987 307.584 
L 92.91987 207.519805 
L 92.165782 207.519805 
z
" clip-path="url(#p51eb50bc9b)" style="fill: #1f77b4"/>
   </g>
   <g id="patch_14">
    <path d="M 92.169248 307.584 
L 92.923337 307.584 
L 92.923337 305.985333 
L 92.169248 305.985333 
z
" clip-path="url(#p51eb50bc9b)" style="fill: #1f77b4"/>
   </g>
   <g id="patch_15">
    <path d="M 92.199985 307.584 
L 92.954074 307.584 
L 92.954074 305.91211 
L 92.199985 305.91211 
z
" clip-path="url(#p51eb50bc9b)" style="fill: #1f77b4"/>
   </g>
   <g id="patch_16">
    <path d="M 93.111269 307.584 
L 93.865358 307.584 
L 93.865358 305.735526 
L 93.111269 305.735526 
z
" clip-path="url(#p51eb50bc9b)" style="fill: #1f77b4"/>
   </g>
   <g id="patch_17">
    <path d="M 93.490854 307.584 
L 94.244942 307.584 
L 94.244942 306.572251 
L 93.490854 306.572251 
z
" clip-path="url(#p51eb50bc9b)" style="fill: #1f77b4"/>
   </g>
   <g id="patch_18">
    <path d="M 96.367819 307.584 
L 97.121907 307.584 
L 97.121907 306.26535 
L 96.367819 306.26535 
z
" clip-path="url(#p51eb50bc9b)" style="fill: #1f77b4"/>
   </g>
   <g id="patch_19">
    <path d="M 98.506679 307.584 
L 99.260768 307.584 
L 99.260768 306.338277 
L 98.506679 306.338277 
z
" clip-path="url(#p51eb50bc9b)" style="fill: #1f77b4"/>
   </g>
   <g id="patch_20">
    <path d="M 99.745431 307.584 
L 100.499519 307.584 
L 100.499519 305.076056 
L 99.745431 305.076056 
z
" clip-path="url(#p51eb50bc9b)" style="fill: #1f77b4"/>
   </g>
   <g id="patch_21">
    <path d="M 101.611329 307.584 
L 102.365417 307.584 
L 102.365417 244.556494 
L 101.611329 244.556494 
z
" clip-path="url(#p51eb50bc9b)" style="fill: #1f77b4"/>
   </g>
   <g id="patch_22">
    <path d="M 101.64556 307.584 
L 102.399649 307.584 
L 102.399649 306.058464 
L 101.64556 306.058464 
z
" clip-path="url(#p51eb50bc9b)" style="fill: #1f77b4"/>
   </g>
   <g id="patch_23">
    <path d="M 102.557025 307.584 
L 103.311113 307.584 
L 103.311113 306.010401 
L 102.557025 306.010401 
z
" clip-path="url(#p51eb50bc9b)" style="fill: #1f77b4"/>
   </g>
   <g id="patch_24">
    <path d="M 103.510897 307.584 
L 104.264986 307.584 
L 104.264986 305.112106 
L 103.510897 305.112106 
z
" clip-path="url(#p51eb50bc9b)" style="fill: #1f77b4"/>
   </g>
   <g id="patch_25">
    <path d="M 105.376501 307.584 
L 106.130589 307.584 
L 106.130589 306.139924 
L 105.376501 306.139924 
z
" clip-path="url(#p51eb50bc9b)" style="fill: #1f77b4"/>
   </g>
   <g id="patch_26">
    <path d="M 109.14255 307.584 
L 109.896638 307.584 
L 109.896638 238.559616 
L 109.14255 238.559616 
z
" clip-path="url(#p51eb50bc9b)" style="fill: #1f77b4"/>
   </g>
   <g id="patch_27">
    <path d="M 110.088109 307.584 
L 110.842198 307.584 
L 110.842198 306.103296 
L 110.088109 306.103296 
z
" clip-path="url(#p51eb50bc9b)" style="fill: #1f77b4"/>
   </g>
   <g id="patch_28">
    <path d="M 111.475963 307.584 
L 112.230052 307.584 
L 112.230052 304.729374 
L 111.475963 304.729374 
z
" clip-path="url(#p51eb50bc9b)" style="fill: #1f77b4"/>
   </g>
   <g id="patch_29">
    <path d="M 114.822349 307.584 
L 115.576438 307.584 
L 115.576438 306.074837 
L 114.822349 306.074837 
z
" clip-path="url(#p51eb50bc9b)" style="fill: #1f77b4"/>
   </g>
   <g id="patch_30">
    <path d="M 114.856588 307.584 
L 115.610677 307.584 
L 115.610677 305.405521 
L 114.856588 305.405521 
z
" clip-path="url(#p51eb50bc9b)" style="fill: #1f77b4"/>
   </g>
   <g id="patch_31">
    <path d="M 116.722256 307.584 
L 117.476345 307.584 
L 117.476345 301.049985 
L 116.722256 301.049985 
z
" clip-path="url(#p51eb50bc9b)" style="fill: #1f77b4"/>
   </g>
   <g id="patch_32">
    <path d="M 118.622062 307.584 
L 119.376151 307.584 
L 119.376151 302.807342 
L 118.622062 302.807342 
z
" clip-path="url(#p51eb50bc9b)" style="fill: #1f77b4"/>
   </g>
   <g id="patch_33">
    <path d="M 124.233549 307.584 
L 124.987638 307.584 
L 124.987638 306.016652 
L 124.233549 306.016652 
z
" clip-path="url(#p51eb50bc9b)" style="fill: #1f77b4"/>
   </g>
   <g id="patch_34">
    <path d="M 124.267716 307.584 
L 125.021805 307.584 
L 125.021805 305.751924 
L 124.267716 305.751924 
z
" clip-path="url(#p51eb50bc9b)" style="fill: #1f77b4"/>
   </g>
   <g id="patch_35">
    <path d="M 128.01455 307.584 
L 128.768638 307.584 
L 128.768638 302.973924 
L 128.01455 302.973924 
z
" clip-path="url(#p51eb50bc9b)" style="fill: #1f77b4"/>
   </g>
   <g id="patch_36">
    <path d="M 129.080474 307.584 
L 129.834563 307.584 
L 129.834563 306.47958 
L 129.080474 306.47958 
z
" clip-path="url(#p51eb50bc9b)" style="fill: #1f77b4"/>
   </g>
   <g id="patch_37">
    <path d="M 129.899203 307.584 
L 130.653292 307.584 
L 130.653292 297.191923 
L 129.899203 297.191923 
z
" clip-path="url(#p51eb50bc9b)" style="fill: #1f77b4"/>
   </g>
   <g id="patch_38">
    <path d="M 137.478989 307.584 
L 138.233077 307.584 
L 138.233077 305.461124 
L 137.478989 305.461124 
z
" clip-path="url(#p51eb50bc9b)" style="fill: #1f77b4"/>
   </g>
   <g id="patch_39">
    <path d="M 140.264139 307.584 
L 141.018228 307.584 
L 141.018228 294.722477 
L 140.264139 294.722477 
z
" clip-path="url(#p51eb50bc9b)" style="fill: #1f77b4"/>
   </g>
   <g id="patch_40">
    <path d="M 141.209886 307.584 
L 141.963974 307.584 
L 141.963974 302.152383 
L 141.209886 302.152383 
z
" clip-path="url(#p51eb50bc9b)" style="fill: #1f77b4"/>
   </g>
   <g id="patch_41">
    <path d="M 143.091181 307.584 
L 143.845269 307.584 
L 143.845269 306.052391 
L 143.091181 306.052391 
z
" clip-path="url(#p51eb50bc9b)" style="fill: #1f77b4"/>
   </g>
   <g id="patch_42">
    <path d="M 145.940617 307.584 
L 146.694705 307.584 
L 146.694705 305.841555 
L 145.940617 305.841555 
z
" clip-path="url(#p51eb50bc9b)" style="fill: #1f77b4"/>
   </g>
   <g id="patch_43">
    <path d="M 146.876079 307.584 
L 147.630168 307.584 
L 147.630168 300.730448 
L 146.876079 300.730448 
z
" clip-path="url(#p51eb50bc9b)" style="fill: #1f77b4"/>
   </g>
   <g id="patch_44">
    <path d="M 147.828312 307.584 
L 148.582401 307.584 
L 148.582401 305.895469 
L 147.828312 305.895469 
z
" clip-path="url(#p51eb50bc9b)" style="fill: #1f77b4"/>
   </g>
   <g id="patch_45">
    <path d="M 151.203724 307.584 
L 151.957812 307.584 
L 151.957812 306.232817 
L 151.203724 306.232817 
z
" clip-path="url(#p51eb50bc9b)" style="fill: #1f77b4"/>
   </g>
   <g id="patch_46">
    <path d="M 158.187135 307.584 
L 158.941224 307.584 
L 158.941224 289.296459 
L 158.187135 289.296459 
z
" clip-path="url(#p51eb50bc9b)" style="fill: #1f77b4"/>
   </g>
   <g id="patch_47">
    <path d="M 159.151134 307.584 
L 159.905223 307.584 
L 159.905223 305.870264 
L 159.151134 305.870264 
z
" clip-path="url(#p51eb50bc9b)" style="fill: #1f77b4"/>
   </g>
   <g id="patch_48">
    <path d="M 160.10131 307.584 
L 160.855399 307.584 
L 160.855399 303.864417 
L 160.10131 303.864417 
z
" clip-path="url(#p51eb50bc9b)" style="fill: #1f77b4"/>
   </g>
   <g id="patch_49">
    <path d="M 161.039304 307.584 
L 161.793393 307.584 
L 161.793393 306.39654 
L 161.039304 306.39654 
z
" clip-path="url(#p51eb50bc9b)" style="fill: #1f77b4"/>
   </g>
   <g id="patch_50">
    <path d="M 163.847978 307.584 
L 164.602067 307.584 
L 164.602067 306.245845 
L 163.847978 306.245845 
z
" clip-path="url(#p51eb50bc9b)" style="fill: #1f77b4"/>
   </g>
   <g id="patch_51">
    <path d="M 170.450641 307.584 
L 171.204729 307.584 
L 171.204729 304.758156 
L 170.450641 304.758156 
z
" clip-path="url(#p51eb50bc9b)" style="fill: #1f77b4"/>
   </g>
   <g id="patch_52">
    <path d="M 171.400759 307.584 
L 172.154848 307.584 
L 172.154848 305.986607 
L 171.400759 305.986607 
z
" clip-path="url(#p51eb50bc9b)" style="fill: #1f77b4"/>
   </g>
   <g id="patch_53">
    <path d="M 175.90034 307.584 
L 176.654428 307.584 
L 176.654428 306.342595 
L 175.90034 306.342595 
z
" clip-path="url(#p51eb50bc9b)" style="fill: #1f77b4"/>
   </g>
   <g id="patch_54">
    <path d="M 182.711988 307.584 
L 183.466077 307.584 
L 183.466077 304.921206 
L 182.711988 304.921206 
z
" clip-path="url(#p51eb50bc9b)" style="fill: #1f77b4"/>
   </g>
   <g id="patch_55">
    <path d="M 183.662481 307.584 
L 184.41657 307.584 
L 184.41657 293.18295 
L 183.662481 293.18295 
z
" clip-path="url(#p51eb50bc9b)" style="fill: #1f77b4"/>
   </g>
   <g id="patch_56">
    <path d="M 184.60886 307.584 
L 185.362949 307.584 
L 185.362949 306.198334 
L 184.60886 306.198334 
z
" clip-path="url(#p51eb50bc9b)" style="fill: #1f77b4"/>
   </g>
   <g id="patch_57">
    <path d="M 194.97289 307.584 
L 195.726979 307.584 
L 195.726979 306.02881 
L 194.97289 306.02881 
z
" clip-path="url(#p51eb50bc9b)" style="fill: #1f77b4"/>
   </g>
   <g id="patch_58">
    <path d="M 197.782773 307.584 
L 198.536861 307.584 
L 198.536861 305.937257 
L 197.782773 305.937257 
z
" clip-path="url(#p51eb50bc9b)" style="fill: #1f77b4"/>
   </g>
   <g id="patch_59">
    <path d="M 200.61971 307.584 
L 201.373798 307.584 
L 201.373798 303.461618 
L 200.61971 303.461618 
z
" clip-path="url(#p51eb50bc9b)" style="fill: #1f77b4"/>
   </g>
   <g id="patch_60">
    <path d="M 206.285097 307.584 
L 207.039186 307.584 
L 207.039186 304.520041 
L 206.285097 304.520041 
z
" clip-path="url(#p51eb50bc9b)" style="fill: #1f77b4"/>
   </g>
   <g id="patch_61">
    <path d="M 208.185206 307.584 
L 208.939294 307.584 
L 208.939294 304.62178 
L 208.185206 304.62178 
z
" clip-path="url(#p51eb50bc9b)" style="fill: #1f77b4"/>
   </g>
   <g id="patch_62">
    <path d="M 210.044638 307.584 
L 210.798727 307.584 
L 210.798727 306.083875 
L 210.044638 306.083875 
z
" clip-path="url(#p51eb50bc9b)" style="fill: #1f77b4"/>
   </g>
   <g id="patch_63">
    <path d="M 210.993089 307.584 
L 211.747177 307.584 
L 211.747177 303.984439 
L 210.993089 303.984439 
z
" clip-path="url(#p51eb50bc9b)" style="fill: #1f77b4"/>
   </g>
   <g id="patch_64">
    <path d="M 217.597304 307.584 
L 218.351393 307.584 
L 218.351393 305.986808 
L 217.597304 305.986808 
z
" clip-path="url(#p51eb50bc9b)" style="fill: #1f77b4"/>
   </g>
   <g id="patch_65">
    <path d="M 223.243419 307.584 
L 223.997508 307.584 
L 223.997508 306.179017 
L 223.243419 306.179017 
z
" clip-path="url(#p51eb50bc9b)" style="fill: #1f77b4"/>
   </g>
   <g id="patch_66">
    <path d="M 223.296205 307.584 
L 224.050294 307.584 
L 224.050294 303.871829 
L 223.296205 303.871829 
z
" clip-path="url(#p51eb50bc9b)" style="fill: #1f77b4"/>
   </g>
   <g id="patch_67">
    <path d="M 224.173632 307.584 
L 224.92772 307.584 
L 224.92772 305.382196 
L 224.173632 305.382196 
z
" clip-path="url(#p51eb50bc9b)" style="fill: #1f77b4"/>
   </g>
   <g id="patch_68">
    <path d="M 224.192891 307.584 
L 224.946979 307.584 
L 224.946979 258.254644 
L 224.192891 258.254644 
z
" clip-path="url(#p51eb50bc9b)" style="fill: #1f77b4"/>
   </g>
   <g id="patch_69">
    <path d="M 225.142664 307.584 
L 225.896753 307.584 
L 225.896753 279.532595 
L 225.142664 279.532595 
z
" clip-path="url(#p51eb50bc9b)" style="fill: #1f77b4"/>
   </g>
   <g id="patch_70">
    <path d="M 226.089115 307.584 
L 226.843204 307.584 
L 226.843204 304.499233 
L 226.089115 304.499233 
z
" clip-path="url(#p51eb50bc9b)" style="fill: #1f77b4"/>
   </g>
   <g id="patch_71">
    <path d="M 234.553886 307.584 
L 235.307974 307.584 
L 235.307974 279.531408 
L 234.553886 279.531408 
z
" clip-path="url(#p51eb50bc9b)" style="fill: #1f77b4"/>
   </g>
   <g id="patch_72">
    <path d="M 235.503918 307.584 
L 236.258007 307.584 
L 236.258007 300.353519 
L 235.503918 300.353519 
z
" clip-path="url(#p51eb50bc9b)" style="fill: #1f77b4"/>
   </g>
   <g id="patch_73">
    <path d="M 236.454238 307.584 
L 237.208327 307.584 
L 237.208327 277.706315 
L 236.454238 277.706315 
z
" clip-path="url(#p51eb50bc9b)" style="fill: #1f77b4"/>
   </g>
   <g id="patch_74">
    <path d="M 237.4022 307.584 
L 238.156288 307.584 
L 238.156288 305.355708 
L 237.4022 305.355708 
z
" clip-path="url(#p51eb50bc9b)" style="fill: #1f77b4"/>
   </g>
   <g id="patch_75">
    <path d="M 242.118605 307.584 
L 242.872694 307.584 
L 242.872694 305.734518 
L 242.118605 305.734518 
z
" clip-path="url(#p51eb50bc9b)" style="fill: #1f77b4"/>
   </g>
   <g id="patch_76">
    <path d="M 244.925783 307.584 
L 245.679872 307.584 
L 245.679872 306.175975 
L 244.925783 306.175975 
z
" clip-path="url(#p51eb50bc9b)" style="fill: #1f77b4"/>
   </g>
   <g id="patch_77">
    <path d="M 245.865604 307.584 
L 246.619692 307.584 
L 246.619692 305.170982 
L 245.865604 305.170982 
z
" clip-path="url(#p51eb50bc9b)" style="fill: #1f77b4"/>
   </g>
   <g id="patch_78">
    <path d="M 246.815521 307.584 
L 247.56961 307.584 
L 247.56961 228.326619 
L 246.815521 228.326619 
z
" clip-path="url(#p51eb50bc9b)" style="fill: #1f77b4"/>
   </g>
   <g id="patch_79">
    <path d="M 247.765093 307.584 
L 248.519182 307.584 
L 248.519182 260.925674 
L 247.765093 260.925674 
z
" clip-path="url(#p51eb50bc9b)" style="fill: #1f77b4"/>
   </g>
   <g id="patch_80">
    <path d="M 247.788078 307.584 
L 248.542166 307.584 
L 248.542166 305.46544 
L 247.788078 305.46544 
z
" clip-path="url(#p51eb50bc9b)" style="fill: #1f77b4"/>
   </g>
   <g id="patch_81">
    <path d="M 248.711271 307.584 
L 249.46536 307.584 
L 249.46536 303.446856 
L 248.711271 303.446856 
z
" clip-path="url(#p51eb50bc9b)" style="fill: #1f77b4"/>
   </g>
   <g id="patch_82">
    <path d="M 249.650617 307.584 
L 250.404706 307.584 
L 250.404706 304.324282 
L 249.650617 304.324282 
z
" clip-path="url(#p51eb50bc9b)" style="fill: #1f77b4"/>
   </g>
   <g id="patch_83">
    <path d="M 249.667503 307.584 
L 250.421591 307.584 
L 250.421591 287.827839 
L 249.667503 287.827839 
z
" clip-path="url(#p51eb50bc9b)" style="fill: #1f77b4"/>
   </g>
   <g id="patch_84">
    <path d="M 250.611178 307.584 
L 251.365267 307.584 
L 251.365267 306.114274 
L 250.611178 306.114274 
z
" clip-path="url(#p51eb50bc9b)" style="fill: #1f77b4"/>
   </g>
   <g id="patch_85">
    <path d="M 255.330143 307.584 
L 256.084232 307.584 
L 256.084232 305.066429 
L 255.330143 305.066429 
z
" clip-path="url(#p51eb50bc9b)" style="fill: #1f77b4"/>
   </g>
   <g id="patch_86">
    <path d="M 257.17666 307.584 
L 257.930749 307.584 
L 257.930749 304.944878 
L 257.17666 304.944878 
z
" clip-path="url(#p51eb50bc9b)" style="fill: #1f77b4"/>
   </g>
   <g id="patch_87">
    <path d="M 258.127354 307.584 
L 258.881443 307.584 
L 258.881443 304.931332 
L 258.127354 304.931332 
z
" clip-path="url(#p51eb50bc9b)" style="fill: #1f77b4"/>
   </g>
   <g id="patch_88">
    <path d="M 259.076898 307.584 
L 259.830986 307.584 
L 259.830986 95.341081 
L 259.076898 95.341081 
z
" clip-path="url(#p51eb50bc9b)" style="fill: #1f77b4"/>
   </g>
   <g id="patch_89">
    <path d="M 260.024888 307.584 
L 260.778976 307.584 
L 260.778976 255.816589 
L 260.024888 255.816589 
z
" clip-path="url(#p51eb50bc9b)" style="fill: #1f77b4"/>
   </g>
   <g id="patch_90">
    <path d="M 260.95103 307.584 
L 261.705119 307.584 
L 261.705119 306.269577 
L 260.95103 306.269577 
z
" clip-path="url(#p51eb50bc9b)" style="fill: #1f77b4"/>
   </g>
   <g id="patch_91">
    <path d="M 260.976704 307.584 
L 261.730792 307.584 
L 261.730792 225.501012 
L 260.976704 225.501012 
z
" clip-path="url(#p51eb50bc9b)" style="fill: #1f77b4"/>
   </g>
   <g id="patch_92">
    <path d="M 261.923241 307.584 
L 262.67733 307.584 
L 262.67733 298.915401 
L 261.923241 298.915401 
z
" clip-path="url(#p51eb50bc9b)" style="fill: #1f77b4"/>
   </g>
   <g id="patch_93">
    <path d="M 263.826859 307.584 
L 264.580947 307.584 
L 264.580947 247.824563 
L 263.826859 247.824563 
z
" clip-path="url(#p51eb50bc9b)" style="fill: #1f77b4"/>
   </g>
   <g id="patch_94">
    <path d="M 263.852446 307.584 
L 264.606535 307.584 
L 264.606535 306.126417 
L 263.852446 306.126417 
z
" clip-path="url(#p51eb50bc9b)" style="fill: #1f77b4"/>
   </g>
   <g id="patch_95">
    <path d="M 264.741552 307.584 
L 265.495641 307.584 
L 265.495641 290.401365 
L 264.741552 290.401365 
z
" clip-path="url(#p51eb50bc9b)" style="fill: #1f77b4"/>
   </g>
   <g id="patch_96">
    <path d="M 264.775841 307.584 
L 265.52993 307.584 
L 265.52993 272.969438 
L 264.775841 272.969438 
z
" clip-path="url(#p51eb50bc9b)" style="fill: #1f77b4"/>
   </g>
   <g id="patch_97">
    <path d="M 265.688334 307.584 
L 266.442423 307.584 
L 266.442423 304.316887 
L 265.688334 304.316887 
z
" clip-path="url(#p51eb50bc9b)" style="fill: #1f77b4"/>
   </g>
   <g id="patch_98">
    <path d="M 265.723069 307.584 
L 266.477158 307.584 
L 266.477158 304.003271 
L 265.723069 304.003271 
z
" clip-path="url(#p51eb50bc9b)" style="fill: #1f77b4"/>
   </g>
   <g id="patch_99">
    <path d="M 269.437778 307.584 
L 270.191866 307.584 
L 270.191866 298.484635 
L 269.437778 298.484635 
z
" clip-path="url(#p51eb50bc9b)" style="fill: #1f77b4"/>
   </g>
   <g id="patch_100">
    <path d="M 270.387494 307.584 
L 271.141582 307.584 
L 271.141582 295.3409 
L 270.387494 295.3409 
z
" clip-path="url(#p51eb50bc9b)" style="fill: #1f77b4"/>
   </g>
   <g id="patch_101">
    <path d="M 271.337814 307.584 
L 272.091903 307.584 
L 272.091903 286.86871 
L 271.337814 286.86871 
z
" clip-path="url(#p51eb50bc9b)" style="fill: #1f77b4"/>
   </g>
   <g id="patch_102">
    <path d="M 272.288019 307.584 
L 273.042108 307.584 
L 273.042108 228.984108 
L 272.288019 228.984108 
z
" clip-path="url(#p51eb50bc9b)" style="fill: #1f77b4"/>
   </g>
   <g id="patch_103">
    <path d="M 273.235952 307.584 
L 273.99004 307.584 
L 273.99004 290.391822 
L 273.235952 290.391822 
z
" clip-path="url(#p51eb50bc9b)" style="fill: #1f77b4"/>
   </g>
   <g id="patch_104">
    <path d="M 274.15017 307.584 
L 274.904259 307.584 
L 274.904259 305.695204 
L 274.15017 305.695204 
z
" clip-path="url(#p51eb50bc9b)" style="fill: #1f77b4"/>
   </g>
   <g id="patch_105">
    <path d="M 274.157275 307.584 
L 274.911364 307.584 
L 274.911364 306.015911 
L 274.157275 306.015911 
z
" clip-path="url(#p51eb50bc9b)" style="fill: #1f77b4"/>
   </g>
   <g id="patch_106">
    <path d="M 274.188084 307.584 
L 274.942173 307.584 
L 274.942173 163.604503 
L 274.188084 163.604503 
z
" clip-path="url(#p51eb50bc9b)" style="fill: #1f77b4"/>
   </g>
   <g id="patch_107">
    <path d="M 275.134032 307.584 
L 275.88812 307.584 
L 275.88812 286.799478 
L 275.134032 286.799478 
z
" clip-path="url(#p51eb50bc9b)" style="fill: #1f77b4"/>
   </g>
   <g id="patch_108">
    <path d="M 276.088178 307.584 
L 276.842266 307.584 
L 276.842266 286.300533 
L 276.088178 286.300533 
z
" clip-path="url(#p51eb50bc9b)" style="fill: #1f77b4"/>
   </g>
   <g id="patch_109">
    <path d="M 277.003173 307.584 
L 277.757262 307.584 
L 277.757262 306.090949 
L 277.003173 306.090949 
z
" clip-path="url(#p51eb50bc9b)" style="fill: #1f77b4"/>
   </g>
   <g id="patch_110">
    <path d="M 277.033291 307.584 
L 277.78738 307.584 
L 277.78738 304.67269 
L 277.033291 304.67269 
z
" clip-path="url(#p51eb50bc9b)" style="fill: #1f77b4"/>
   </g>
   <g id="patch_111">
    <path d="M 277.952918 307.584 
L 278.707007 307.584 
L 278.707007 300.295022 
L 277.952918 300.295022 
z
" clip-path="url(#p51eb50bc9b)" style="fill: #1f77b4"/>
   </g>
   <g id="patch_112">
    <path d="M 278.8997 307.584 
L 279.653788 307.584 
L 279.653788 305.896133 
L 278.8997 305.896133 
z
" clip-path="url(#p51eb50bc9b)" style="fill: #1f77b4"/>
   </g>
   <g id="patch_113">
    <path d="M 281.699313 307.584 
L 282.453401 307.584 
L 282.453401 286.411029 
L 281.699313 286.411029 
z
" clip-path="url(#p51eb50bc9b)" style="fill: #1f77b4"/>
   </g>
   <g id="patch_114">
    <path d="M 282.649115 307.584 
L 283.403204 307.584 
L 283.403204 276.036174 
L 282.649115 276.036174 
z
" clip-path="url(#p51eb50bc9b)" style="fill: #1f77b4"/>
   </g>
   <g id="patch_115">
    <path d="M 283.599349 307.584 
L 284.353437 307.584 
L 284.353437 98.979776 
L 283.599349 98.979776 
z
" clip-path="url(#p51eb50bc9b)" style="fill: #1f77b4"/>
   </g>
   <g id="patch_116">
    <path d="M 284.54685 307.584 
L 285.300938 307.584 
L 285.300938 262.614759 
L 284.54685 262.614759 
z
" clip-path="url(#p51eb50bc9b)" style="fill: #1f77b4"/>
   </g>
   <g id="patch_117">
    <path d="M 285.499069 307.584 
L 286.253157 307.584 
L 286.253157 289.306739 
L 285.499069 289.306739 
z
" clip-path="url(#p51eb50bc9b)" style="fill: #1f77b4"/>
   </g>
   <g id="patch_118">
    <path d="M 286.44936 307.584 
L 287.203449 307.584 
L 287.203449 245.317606 
L 286.44936 245.317606 
z
" clip-path="url(#p51eb50bc9b)" style="fill: #1f77b4"/>
   </g>
   <g id="patch_119">
    <path d="M 286.478327 307.584 
L 287.232416 307.584 
L 287.232416 305.243586 
L 286.478327 305.243586 
z
" clip-path="url(#p51eb50bc9b)" style="fill: #1f77b4"/>
   </g>
   <g id="patch_120">
    <path d="M 287.397494 307.584 
L 288.151582 307.584 
L 288.151582 288.461617 
L 287.397494 288.461617 
z
" clip-path="url(#p51eb50bc9b)" style="fill: #1f77b4"/>
   </g>
   <g id="patch_121">
    <path d="M 288.346117 307.584 
L 289.100205 307.584 
L 289.100205 305.507231 
L 288.346117 305.507231 
z
" clip-path="url(#p51eb50bc9b)" style="fill: #1f77b4"/>
   </g>
   <g id="patch_122">
    <path d="M 294.909183 307.584 
L 295.663271 307.584 
L 295.663271 300.893302 
L 294.909183 300.893302 
z
" clip-path="url(#p51eb50bc9b)" style="fill: #1f77b4"/>
   </g>
   <g id="patch_123">
    <path d="M 295.859733 307.584 
L 296.613822 307.584 
L 296.613822 301.919862 
L 295.859733 301.919862 
z
" clip-path="url(#p51eb50bc9b)" style="fill: #1f77b4"/>
   </g>
   <g id="patch_124">
    <path d="M 296.810628 307.584 
L 297.564717 307.584 
L 297.564717 206.831299 
L 296.810628 206.831299 
z
" clip-path="url(#p51eb50bc9b)" style="fill: #1f77b4"/>
   </g>
   <g id="patch_125">
    <path d="M 297.75695 307.584 
L 298.511039 307.584 
L 298.511039 287.928044 
L 297.75695 287.928044 
z
" clip-path="url(#p51eb50bc9b)" style="fill: #1f77b4"/>
   </g>
   <g id="patch_126">
    <path d="M 298.710607 307.584 
L 299.464696 307.584 
L 299.464696 54.144 
L 298.710607 54.144 
z
" clip-path="url(#p51eb50bc9b)" style="fill: #1f77b4"/>
   </g>
   <g id="patch_127">
    <path d="M 299.656497 307.584 
L 300.410586 307.584 
L 300.410586 268.018873 
L 299.656497 268.018873 
z
" clip-path="url(#p51eb50bc9b)" style="fill: #1f77b4"/>
   </g>
   <g id="patch_128">
    <path d="M 300.576843 307.584 
L 301.330932 307.584 
L 301.330932 296.118491 
L 300.576843 296.118491 
z
" clip-path="url(#p51eb50bc9b)" style="fill: #1f77b4"/>
   </g>
   <g id="patch_129">
    <path d="M 300.610586 307.584 
L 301.364674 307.584 
L 301.364674 273.805528 
L 300.610586 273.805528 
z
" clip-path="url(#p51eb50bc9b)" style="fill: #1f77b4"/>
   </g>
   <g id="patch_130">
    <path d="M 301.557368 307.584 
L 302.311456 307.584 
L 302.311456 303.265173 
L 301.557368 303.265173 
z
" clip-path="url(#p51eb50bc9b)" style="fill: #1f77b4"/>
   </g>
   <g id="patch_131">
    <path d="M 304.375304 307.584 
L 305.129393 307.584 
L 305.129393 305.583346 
L 304.375304 305.583346 
z
" clip-path="url(#p51eb50bc9b)" style="fill: #1f77b4"/>
   </g>
   <g id="patch_132">
    <path d="M 306.221203 307.584 
L 306.975291 307.584 
L 306.975291 305.639998 
L 306.221203 305.639998 
z
" clip-path="url(#p51eb50bc9b)" style="fill: #1f77b4"/>
   </g>
   <g id="patch_133">
    <path d="M 309.070984 307.584 
L 309.825072 307.584 
L 309.825072 305.634359 
L 309.070984 305.634359 
z
" clip-path="url(#p51eb50bc9b)" style="fill: #1f77b4"/>
   </g>
   <g id="patch_134">
    <path d="M 310.021793 307.584 
L 310.775882 307.584 
L 310.775882 302.604594 
L 310.021793 302.604594 
z
" clip-path="url(#p51eb50bc9b)" style="fill: #1f77b4"/>
   </g>
   <g id="patch_135">
    <path d="M 310.97079 307.584 
L 311.724878 307.584 
L 311.724878 302.358472 
L 310.97079 302.358472 
z
" clip-path="url(#p51eb50bc9b)" style="fill: #1f77b4"/>
   </g>
   <g id="patch_136">
    <path d="M 311.922261 307.584 
L 312.676349 307.584 
L 312.676349 299.720757 
L 311.922261 299.720757 
z
" clip-path="url(#p51eb50bc9b)" style="fill: #1f77b4"/>
   </g>
   <g id="patch_137">
    <path d="M 312.869905 307.584 
L 313.623994 307.584 
L 313.623994 302.91407 
L 312.869905 302.91407 
z
" clip-path="url(#p51eb50bc9b)" style="fill: #1f77b4"/>
   </g>
   <g id="patch_138">
    <path d="M 313.787317 307.584 
L 314.541406 307.584 
L 314.541406 305.146482 
L 313.787317 305.146482 
z
" clip-path="url(#p51eb50bc9b)" style="fill: #1f77b4"/>
   </g>
   <g id="patch_139">
    <path d="M 313.821923 307.584 
L 314.576011 307.584 
L 314.576011 202.120967 
L 313.821923 202.120967 
z
" clip-path="url(#p51eb50bc9b)" style="fill: #1f77b4"/>
   </g>
   <g id="patch_140">
    <path d="M 314.737148 307.584 
L 315.491237 307.584 
L 315.491237 305.347524 
L 314.737148 305.347524 
z
" clip-path="url(#p51eb50bc9b)" style="fill: #1f77b4"/>
   </g>
   <g id="patch_141">
    <path d="M 314.767065 307.584 
L 315.521154 307.584 
L 315.521154 290.576362 
L 314.767065 290.576362 
z
" clip-path="url(#p51eb50bc9b)" style="fill: #1f77b4"/>
   </g>
   <g id="patch_142">
    <path d="M 315.687555 307.584 
L 316.441643 307.584 
L 316.441643 293.360816 
L 315.687555 293.360816 
z
" clip-path="url(#p51eb50bc9b)" style="fill: #1f77b4"/>
   </g>
   <g id="patch_143">
    <path d="M 316.634595 307.584 
L 317.388684 307.584 
L 317.388684 304.264077 
L 316.634595 304.264077 
z
" clip-path="url(#p51eb50bc9b)" style="fill: #1f77b4"/>
   </g>
   <g id="patch_144">
    <path d="M 321.333439 307.584 
L 322.087528 307.584 
L 322.087528 302.949715 
L 321.333439 302.949715 
z
" clip-path="url(#p51eb50bc9b)" style="fill: #1f77b4"/>
   </g>
   <g id="patch_145">
    <path d="M 322.249096 307.584 
L 323.003185 307.584 
L 323.003185 305.92119 
L 322.249096 305.92119 
z
" clip-path="url(#p51eb50bc9b)" style="fill: #1f77b4"/>
   </g>
   <g id="patch_146">
    <path d="M 322.281228 307.584 
L 323.035316 307.584 
L 323.035316 303.975581 
L 322.281228 303.975581 
z
" clip-path="url(#p51eb50bc9b)" style="fill: #1f77b4"/>
   </g>
   <g id="patch_147">
    <path d="M 323.198841 307.584 
L 323.952929 307.584 
L 323.952929 258.996022 
L 323.198841 258.996022 
z
" clip-path="url(#p51eb50bc9b)" style="fill: #1f77b4"/>
   </g>
   <g id="patch_148">
    <path d="M 323.233475 307.584 
L 323.987564 307.584 
L 323.987564 255.07232 
L 323.233475 255.07232 
z
" clip-path="url(#p51eb50bc9b)" style="fill: #1f77b4"/>
   </g>
   <g id="patch_149">
    <path d="M 324.144558 307.584 
L 324.898647 307.584 
L 324.898647 301.021548 
L 324.144558 301.021548 
z
" clip-path="url(#p51eb50bc9b)" style="fill: #1f77b4"/>
   </g>
   <g id="patch_150">
    <path d="M 324.181063 307.584 
L 324.935151 307.584 
L 324.935151 291.802162 
L 324.181063 291.802162 
z
" clip-path="url(#p51eb50bc9b)" style="fill: #1f77b4"/>
   </g>
   <g id="patch_151">
    <path d="M 336.444697 307.584 
L 337.198786 307.584 
L 337.198786 286.99604 
L 336.444697 286.99604 
z
" clip-path="url(#p51eb50bc9b)" style="fill: #1f77b4"/>
   </g>
   <g id="patch_152">
    <path d="M 337.391019 307.584 
L 338.145108 307.584 
L 338.145108 303.45716 
L 337.391019 303.45716 
z
" clip-path="url(#p51eb50bc9b)" style="fill: #1f77b4"/>
   </g>
   <g id="patch_153">
    <path d="M 338.2765 307.584 
L 339.030589 307.584 
L 339.030589 304.981048 
L 338.2765 304.981048 
z
" clip-path="url(#p51eb50bc9b)" style="fill: #1f77b4"/>
   </g>
   <g id="patch_154">
    <path d="M 338.343525 307.584 
L 339.097614 307.584 
L 339.097614 301.435232 
L 338.343525 301.435232 
z
" clip-path="url(#p51eb50bc9b)" style="fill: #1f77b4"/>
   </g>
   <g id="patch_155">
    <path d="M 339.225785 307.584 
L 339.979873 307.584 
L 339.979873 274.333975 
L 339.225785 274.333975 
z
" clip-path="url(#p51eb50bc9b)" style="fill: #1f77b4"/>
   </g>
   <g id="patch_156">
    <path d="M 340.17599 307.584 
L 340.930078 307.584 
L 340.930078 103.000069 
L 340.17599 103.000069 
z
" clip-path="url(#p51eb50bc9b)" style="fill: #1f77b4"/>
   </g>
   <g id="patch_157">
    <path d="M 340.209358 307.584 
L 340.963447 307.584 
L 340.963447 295.560665 
L 340.209358 295.560665 
z
" clip-path="url(#p51eb50bc9b)" style="fill: #1f77b4"/>
   </g>
   <g id="patch_158">
    <path d="M 341.121909 307.584 
L 341.875997 307.584 
L 341.875997 276.803625 
L 341.121909 276.803625 
z
" clip-path="url(#p51eb50bc9b)" style="fill: #1f77b4"/>
   </g>
   <g id="patch_159">
    <path d="M 341.158701 307.584 
L 341.912789 307.584 
L 341.912789 305.844055 
L 341.158701 305.844055 
z
" clip-path="url(#p51eb50bc9b)" style="fill: #1f77b4"/>
   </g>
   <g id="patch_160">
    <path d="M 355.258654 307.584 
L 356.012743 307.584 
L 356.012743 306.15683 
L 355.258654 306.15683 
z
" clip-path="url(#p51eb50bc9b)" style="fill: #1f77b4"/>
   </g>
   <g id="patch_161">
    <path d="M 355.321192 307.584 
L 356.075281 307.584 
L 356.075281 273.416379 
L 355.321192 273.416379 
z
" clip-path="url(#p51eb50bc9b)" style="fill: #1f77b4"/>
   </g>
   <g id="patch_162">
    <path d="M 356.202042 307.584 
L 356.956131 307.584 
L 356.956131 300.141972 
L 356.202042 300.141972 
z
" clip-path="url(#p51eb50bc9b)" style="fill: #1f77b4"/>
   </g>
   <g id="patch_163">
    <path d="M 356.266651 307.584 
L 357.020739 307.584 
L 357.020739 300.694616 
L 356.266651 300.694616 
z
" clip-path="url(#p51eb50bc9b)" style="fill: #1f77b4"/>
   </g>
   <g id="patch_164">
    <path d="M 357.152304 307.584 
L 357.906393 307.584 
L 357.906393 283.546182 
L 357.152304 283.546182 
z
" clip-path="url(#p51eb50bc9b)" style="fill: #1f77b4"/>
   </g>
   <g id="patch_165">
    <path d="M 358.099403 307.584 
L 358.853491 307.584 
L 358.853491 304.228366 
L 358.099403 304.228366 
z
" clip-path="url(#p51eb50bc9b)" style="fill: #1f77b4"/>
   </g>
   <g id="patch_166">
    <path d="M 362.833485 307.584 
L 363.587574 307.584 
L 363.587574 293.162562 
L 362.833485 293.162562 
z
" clip-path="url(#p51eb50bc9b)" style="fill: #1f77b4"/>
   </g>
   <g id="patch_167">
    <path d="M 363.779174 307.584 
L 364.533262 307.584 
L 364.533262 304.42013 
L 363.779174 304.42013 
z
" clip-path="url(#p51eb50bc9b)" style="fill: #1f77b4"/>
   </g>
   <g id="patch_168">
    <path d="M 377.90939 307.584 
L 378.663478 307.584 
L 378.663478 306.228505 
L 377.90939 306.228505 
z
" clip-path="url(#p51eb50bc9b)" style="fill: #1f77b4"/>
   </g>
   <g id="patch_169">
    <path d="M 379.809857 307.584 
L 380.563946 307.584 
L 380.563946 72.13623 
L 379.809857 72.13623 
z
" clip-path="url(#p51eb50bc9b)" style="fill: #1f77b4"/>
   </g>
   <g id="patch_170">
    <path d="M 380.75592 307.584 
L 381.510009 307.584 
L 381.510009 262.257851 
L 380.75592 262.257851 
z
" clip-path="url(#p51eb50bc9b)" style="fill: #1f77b4"/>
   </g>
   <g id="patch_171">
    <path d="M 395.83637 307.584 
L 396.590458 307.584 
L 396.590458 304.420348 
L 395.83637 304.420348 
z
" clip-path="url(#p51eb50bc9b)" style="fill: #1f77b4"/>
   </g>
   <g id="patch_172">
    <path d="M 396.786834 307.584 
L 397.540922 307.584 
L 397.540922 213.586843 
L 396.786834 213.586843 
z
" clip-path="url(#p51eb50bc9b)" style="fill: #1f77b4"/>
   </g>
   <g id="patch_173">
    <path d="M 396.83844 307.584 
L 397.592529 307.584 
L 397.592529 305.583833 
L 396.83844 305.583833 
z
" clip-path="url(#p51eb50bc9b)" style="fill: #1f77b4"/>
   </g>
   <g id="patch_174">
    <path d="M 397.733184 307.584 
L 398.487273 307.584 
L 398.487273 291.594622 
L 397.733184 291.594622 
z
" clip-path="url(#p51eb50bc9b)" style="fill: #1f77b4"/>
   </g>
   <g id="matplotlib.axis_1">
    <g id="xtick_1">
     <g id="line2d_1">
      <defs>
       <path id="m5f9f8f1c75" d="M 0 0 
L 0 3.5 
" style="stroke: #000000; stroke-width: 0.8"/>
      </defs>
      <g>
       <use xlink:href="#m5f9f8f1c75" x="72.735263" y="307.584" style="stroke: #000000; stroke-width: 0.8"/>
      </g>
     </g>
     <g id="text_1">
      <!-- 50 -->
      <g transform="translate(66.372763 322.182437) scale(0.1 -0.1)">
       <defs>
        <path id="DejaVuSans-35" d="M 691 4666 
L 3169 4666 
L 3169 4134 
L 1269 4134 
L 1269 2991 
Q 1406 3038 1543 3061 
Q 1681 3084 1819 3084 
Q 2600 3084 3056 2656 
Q 3513 2228 3513 1497 
Q 3513 744 3044 326 
Q 2575 -91 1722 -91 
Q 1428 -91 1123 -41 
Q 819 9 494 109 
L 494 744 
Q 775 591 1075 516 
Q 1375 441 1709 441 
Q 2250 441 2565 725 
Q 2881 1009 2881 1497 
Q 2881 1984 2565 2268 
Q 2250 2553 1709 2553 
Q 1456 2553 1204 2497 
Q 953 2441 691 2322 
L 691 4666 
z
" transform="scale(0.015625)"/>
        <path id="DejaVuSans-30" d="M 2034 4250 
Q 1547 4250 1301 3770 
Q 1056 3291 1056 2328 
Q 1056 1369 1301 889 
Q 1547 409 2034 409 
Q 2525 409 2770 889 
Q 3016 1369 3016 2328 
Q 3016 3291 2770 3770 
Q 2525 4250 2034 4250 
z
M 2034 4750 
Q 2819 4750 3233 4129 
Q 3647 3509 3647 2328 
Q 3647 1150 3233 529 
Q 2819 -91 2034 -91 
Q 1250 -91 836 529 
Q 422 1150 422 2328 
Q 422 3509 836 4129 
Q 1250 4750 2034 4750 
z
" transform="scale(0.015625)"/>
       </defs>
       <use xlink:href="#DejaVuSans-35"/>
       <use xlink:href="#DejaVuSans-30" x="63.623047"/>
      </g>
     </g>
    </g>
    <g id="xtick_2">
     <g id="line2d_2">
      <g>
       <use xlink:href="#m5f9f8f1c75" x="119.865803" y="307.584" style="stroke: #000000; stroke-width: 0.8"/>
      </g>
     </g>
     <g id="text_2">
      <!-- 100 -->
      <g transform="translate(110.322053 322.182437) scale(0.1 -0.1)">
       <defs>
        <path id="DejaVuSans-31" d="M 794 531 
L 1825 531 
L 1825 4091 
L 703 3866 
L 703 4441 
L 1819 4666 
L 2450 4666 
L 2450 531 
L 3481 531 
L 3481 0 
L 794 0 
L 794 531 
z
" transform="scale(0.015625)"/>
       </defs>
       <use xlink:href="#DejaVuSans-31"/>
       <use xlink:href="#DejaVuSans-30" x="63.623047"/>
       <use xlink:href="#DejaVuSans-30" x="127.246094"/>
      </g>
     </g>
    </g>
    <g id="xtick_3">
     <g id="line2d_3">
      <g>
       <use xlink:href="#m5f9f8f1c75" x="166.996344" y="307.584" style="stroke: #000000; stroke-width: 0.8"/>
      </g>
     </g>
     <g id="text_3">
      <!-- 150 -->
      <g transform="translate(157.452594 322.182437) scale(0.1 -0.1)">
       <use xlink:href="#DejaVuSans-31"/>
       <use xlink:href="#DejaVuSans-35" x="63.623047"/>
       <use xlink:href="#DejaVuSans-30" x="127.246094"/>
      </g>
     </g>
    </g>
    <g id="xtick_4">
     <g id="line2d_4">
      <g>
       <use xlink:href="#m5f9f8f1c75" x="214.126884" y="307.584" style="stroke: #000000; stroke-width: 0.8"/>
      </g>
     </g>
     <g id="text_4">
      <!-- 200 -->
      <g transform="translate(204.583134 322.182437) scale(0.1 -0.1)">
       <defs>
        <path id="DejaVuSans-32" d="M 1228 531 
L 3431 531 
L 3431 0 
L 469 0 
L 469 531 
Q 828 903 1448 1529 
Q 2069 2156 2228 2338 
Q 2531 2678 2651 2914 
Q 2772 3150 2772 3378 
Q 2772 3750 2511 3984 
Q 2250 4219 1831 4219 
Q 1534 4219 1204 4116 
Q 875 4013 500 3803 
L 500 4441 
Q 881 4594 1212 4672 
Q 1544 4750 1819 4750 
Q 2544 4750 2975 4387 
Q 3406 4025 3406 3419 
Q 3406 3131 3298 2873 
Q 3191 2616 2906 2266 
Q 2828 2175 2409 1742 
Q 1991 1309 1228 531 
z
" transform="scale(0.015625)"/>
       </defs>
       <use xlink:href="#DejaVuSans-32"/>
       <use xlink:href="#DejaVuSans-30" x="63.623047"/>
       <use xlink:href="#DejaVuSans-30" x="127.246094"/>
      </g>
     </g>
    </g>
    <g id="xtick_5">
     <g id="line2d_5">
      <g>
       <use xlink:href="#m5f9f8f1c75" x="261.257424" y="307.584" style="stroke: #000000; stroke-width: 0.8"/>
      </g>
     </g>
     <g id="text_5">
      <!-- 250 -->
      <g transform="translate(251.713674 322.182437) scale(0.1 -0.1)">
       <use xlink:href="#DejaVuSans-32"/>
       <use xlink:href="#DejaVuSans-35" x="63.623047"/>
       <use xlink:href="#DejaVuSans-30" x="127.246094"/>
      </g>
     </g>
    </g>
    <g id="xtick_6">
     <g id="line2d_6">
      <g>
       <use xlink:href="#m5f9f8f1c75" x="308.387965" y="307.584" style="stroke: #000000; stroke-width: 0.8"/>
      </g>
     </g>
     <g id="text_6">
      <!-- 300 -->
      <g transform="translate(298.844215 322.182437) scale(0.1 -0.1)">
       <defs>
        <path id="DejaVuSans-33" d="M 2597 2516 
Q 3050 2419 3304 2112 
Q 3559 1806 3559 1356 
Q 3559 666 3084 287 
Q 2609 -91 1734 -91 
Q 1441 -91 1130 -33 
Q 819 25 488 141 
L 488 750 
Q 750 597 1062 519 
Q 1375 441 1716 441 
Q 2309 441 2620 675 
Q 2931 909 2931 1356 
Q 2931 1769 2642 2001 
Q 2353 2234 1838 2234 
L 1294 2234 
L 1294 2753 
L 1863 2753 
Q 2328 2753 2575 2939 
Q 2822 3125 2822 3475 
Q 2822 3834 2567 4026 
Q 2313 4219 1838 4219 
Q 1578 4219 1281 4162 
Q 984 4106 628 3988 
L 628 4550 
Q 988 4650 1302 4700 
Q 1616 4750 1894 4750 
Q 2613 4750 3031 4423 
Q 3450 4097 3450 3541 
Q 3450 3153 3228 2886 
Q 3006 2619 2597 2516 
z
" transform="scale(0.015625)"/>
       </defs>
       <use xlink:href="#DejaVuSans-33"/>
       <use xlink:href="#DejaVuSans-30" x="63.623047"/>
       <use xlink:href="#DejaVuSans-30" x="127.246094"/>
      </g>
     </g>
    </g>
    <g id="xtick_7">
     <g id="line2d_7">
      <g>
       <use xlink:href="#m5f9f8f1c75" x="355.518505" y="307.584" style="stroke: #000000; stroke-width: 0.8"/>
      </g>
     </g>
     <g id="text_7">
      <!-- 350 -->
      <g transform="translate(345.974755 322.182437) scale(0.1 -0.1)">
       <use xlink:href="#DejaVuSans-33"/>
       <use xlink:href="#DejaVuSans-35" x="63.623047"/>
       <use xlink:href="#DejaVuSans-30" x="127.246094"/>
      </g>
     </g>
    </g>
    <g id="xtick_8">
     <g id="line2d_8">
      <g>
       <use xlink:href="#m5f9f8f1c75" x="402.649046" y="307.584" style="stroke: #000000; stroke-width: 0.8"/>
      </g>
     </g>
     <g id="text_8">
      <!-- 400 -->
      <g transform="translate(393.105296 322.182437) scale(0.1 -0.1)">
       <defs>
        <path id="DejaVuSans-34" d="M 2419 4116 
L 825 1625 
L 2419 1625 
L 2419 4116 
z
M 2253 4666 
L 3047 4666 
L 3047 1625 
L 3713 1625 
L 3713 1100 
L 3047 1100 
L 3047 0 
L 2419 0 
L 2419 1100 
L 313 1100 
L 313 1709 
L 2253 4666 
z
" transform="scale(0.015625)"/>
       </defs>
       <use xlink:href="#DejaVuSans-34"/>
       <use xlink:href="#DejaVuSans-30" x="63.623047"/>
       <use xlink:href="#DejaVuSans-30" x="127.246094"/>
      </g>
     </g>
    </g>
    <g id="text_9">
     <!-- ${m/z}$ -->
     <g transform="translate(226.96 335.860562) scale(0.1 -0.1)">
      <defs>
       <path id="DejaVuSans-Oblique-6d" d="M 5747 2113 
L 5338 0 
L 4763 0 
L 5166 2094 
Q 5191 2228 5203 2325 
Q 5216 2422 5216 2491 
Q 5216 2772 5059 2928 
Q 4903 3084 4622 3084 
Q 4203 3084 3875 2770 
Q 3547 2456 3450 1953 
L 3066 0 
L 2491 0 
L 2900 2094 
Q 2925 2209 2937 2307 
Q 2950 2406 2950 2484 
Q 2950 2769 2794 2926 
Q 2638 3084 2363 3084 
Q 1938 3084 1609 2770 
Q 1281 2456 1184 1953 
L 800 0 
L 225 0 
L 909 3500 
L 1484 3500 
L 1375 2956 
Q 1609 3263 1923 3423 
Q 2238 3584 2597 3584 
Q 2978 3584 3223 3384 
Q 3469 3184 3519 2828 
Q 3781 3197 4126 3390 
Q 4472 3584 4856 3584 
Q 5306 3584 5551 3325 
Q 5797 3066 5797 2591 
Q 5797 2488 5784 2364 
Q 5772 2241 5747 2113 
z
" transform="scale(0.015625)"/>
       <path id="DejaVuSans-2f" d="M 1625 4666 
L 2156 4666 
L 531 -594 
L 0 -594 
L 1625 4666 
z
" transform="scale(0.015625)"/>
       <path id="DejaVuSans-Oblique-7a" d="M 744 3500 
L 3475 3500 
L 3372 2975 
L 738 459 
L 2913 459 
L 2822 0 
L -19 0 
L 84 525 
L 2719 3041 
L 653 3041 
L 744 3500 
z
" transform="scale(0.015625)"/>
      </defs>
      <use xlink:href="#DejaVuSans-Oblique-6d" transform="translate(0 0.09375)"/>
      <use xlink:href="#DejaVuSans-2f" transform="translate(97.412109 0.09375)"/>
      <use xlink:href="#DejaVuSans-Oblique-7a" transform="translate(131.103516 0.09375)"/>
     </g>
    </g>
   </g>
   <g id="matplotlib.axis_2">
    <g id="ytick_1">
     <g id="line2d_9">
      <defs>
       <path id="m802a89594d" d="M 0 0 
L -3.5 0 
" style="stroke: #000000; stroke-width: 0.8"/>
      </defs>
      <g>
       <use xlink:href="#m802a89594d" x="57.6" y="307.584" style="stroke: #000000; stroke-width: 0.8"/>
      </g>
     </g>
     <g id="text_10">
      <!-- 0.0 -->
      <g transform="translate(34.696875 311.383219) scale(0.1 -0.1)">
       <defs>
        <path id="DejaVuSans-2e" d="M 684 794 
L 1344 794 
L 1344 0 
L 684 0 
L 684 794 
z
" transform="scale(0.015625)"/>
       </defs>
       <use xlink:href="#DejaVuSans-30"/>
       <use xlink:href="#DejaVuSans-2e" x="63.623047"/>
       <use xlink:href="#DejaVuSans-30" x="95.410156"/>
      </g>
     </g>
    </g>
    <g id="ytick_2">
     <g id="line2d_10">
      <g>
       <use xlink:href="#m802a89594d" x="57.6" y="274.416001" style="stroke: #000000; stroke-width: 0.8"/>
      </g>
     </g>
     <g id="text_11">
      <!-- 0.2 -->
      <g transform="translate(34.696875 278.215219) scale(0.1 -0.1)">
       <use xlink:href="#DejaVuSans-30"/>
       <use xlink:href="#DejaVuSans-2e" x="63.623047"/>
       <use xlink:href="#DejaVuSans-32" x="95.410156"/>
      </g>
     </g>
    </g>
    <g id="ytick_3">
     <g id="line2d_11">
      <g>
       <use xlink:href="#m802a89594d" x="57.6" y="241.248001" style="stroke: #000000; stroke-width: 0.8"/>
      </g>
     </g>
     <g id="text_12">
      <!-- 0.4 -->
      <g transform="translate(34.696875 245.04722) scale(0.1 -0.1)">
       <use xlink:href="#DejaVuSans-30"/>
       <use xlink:href="#DejaVuSans-2e" x="63.623047"/>
       <use xlink:href="#DejaVuSans-34" x="95.410156"/>
      </g>
     </g>
    </g>
    <g id="ytick_4">
     <g id="line2d_12">
      <g>
       <use xlink:href="#m802a89594d" x="57.6" y="208.080002" style="stroke: #000000; stroke-width: 0.8"/>
      </g>
     </g>
     <g id="text_13">
      <!-- 0.6 -->
      <g transform="translate(34.696875 211.879221) scale(0.1 -0.1)">
       <defs>
        <path id="DejaVuSans-36" d="M 2113 2584 
Q 1688 2584 1439 2293 
Q 1191 2003 1191 1497 
Q 1191 994 1439 701 
Q 1688 409 2113 409 
Q 2538 409 2786 701 
Q 3034 994 3034 1497 
Q 3034 2003 2786 2293 
Q 2538 2584 2113 2584 
z
M 3366 4563 
L 3366 3988 
Q 3128 4100 2886 4159 
Q 2644 4219 2406 4219 
Q 1781 4219 1451 3797 
Q 1122 3375 1075 2522 
Q 1259 2794 1537 2939 
Q 1816 3084 2150 3084 
Q 2853 3084 3261 2657 
Q 3669 2231 3669 1497 
Q 3669 778 3244 343 
Q 2819 -91 2113 -91 
Q 1303 -91 875 529 
Q 447 1150 447 2328 
Q 447 3434 972 4092 
Q 1497 4750 2381 4750 
Q 2619 4750 2861 4703 
Q 3103 4656 3366 4563 
z
" transform="scale(0.015625)"/>
       </defs>
       <use xlink:href="#DejaVuSans-30"/>
       <use xlink:href="#DejaVuSans-2e" x="63.623047"/>
       <use xlink:href="#DejaVuSans-36" x="95.410156"/>
      </g>
     </g>
    </g>
    <g id="ytick_5">
     <g id="line2d_13">
      <g>
       <use xlink:href="#m802a89594d" x="57.6" y="174.912003" style="stroke: #000000; stroke-width: 0.8"/>
      </g>
     </g>
     <g id="text_14">
      <!-- 0.8 -->
      <g transform="translate(34.696875 178.711221) scale(0.1 -0.1)">
       <defs>
        <path id="DejaVuSans-38" d="M 2034 2216 
Q 1584 2216 1326 1975 
Q 1069 1734 1069 1313 
Q 1069 891 1326 650 
Q 1584 409 2034 409 
Q 2484 409 2743 651 
Q 3003 894 3003 1313 
Q 3003 1734 2745 1975 
Q 2488 2216 2034 2216 
z
M 1403 2484 
Q 997 2584 770 2862 
Q 544 3141 544 3541 
Q 544 4100 942 4425 
Q 1341 4750 2034 4750 
Q 2731 4750 3128 4425 
Q 3525 4100 3525 3541 
Q 3525 3141 3298 2862 
Q 3072 2584 2669 2484 
Q 3125 2378 3379 2068 
Q 3634 1759 3634 1313 
Q 3634 634 3220 271 
Q 2806 -91 2034 -91 
Q 1263 -91 848 271 
Q 434 634 434 1313 
Q 434 1759 690 2068 
Q 947 2378 1403 2484 
z
M 1172 3481 
Q 1172 3119 1398 2916 
Q 1625 2713 2034 2713 
Q 2441 2713 2670 2916 
Q 2900 3119 2900 3481 
Q 2900 3844 2670 4047 
Q 2441 4250 2034 4250 
Q 1625 4250 1398 4047 
Q 1172 3844 1172 3481 
z
" transform="scale(0.015625)"/>
       </defs>
       <use xlink:href="#DejaVuSans-30"/>
       <use xlink:href="#DejaVuSans-2e" x="63.623047"/>
       <use xlink:href="#DejaVuSans-38" x="95.410156"/>
      </g>
     </g>
    </g>
    <g id="ytick_6">
     <g id="line2d_14">
      <g>
       <use xlink:href="#m802a89594d" x="57.6" y="141.744003" style="stroke: #000000; stroke-width: 0.8"/>
      </g>
     </g>
     <g id="text_15">
      <!-- 1.0 -->
      <g transform="translate(34.696875 145.543222) scale(0.1 -0.1)">
       <use xlink:href="#DejaVuSans-31"/>
       <use xlink:href="#DejaVuSans-2e" x="63.623047"/>
       <use xlink:href="#DejaVuSans-30" x="95.410156"/>
      </g>
     </g>
    </g>
    <g id="ytick_7">
     <g id="line2d_15">
      <g>
       <use xlink:href="#m802a89594d" x="57.6" y="108.576004" style="stroke: #000000; stroke-width: 0.8"/>
      </g>
     </g>
     <g id="text_16">
      <!-- 1.2 -->
      <g transform="translate(34.696875 112.375223) scale(0.1 -0.1)">
       <use xlink:href="#DejaVuSans-31"/>
       <use xlink:href="#DejaVuSans-2e" x="63.623047"/>
       <use xlink:href="#DejaVuSans-32" x="95.410156"/>
      </g>
     </g>
    </g>
    <g id="ytick_8">
     <g id="line2d_16">
      <g>
       <use xlink:href="#m802a89594d" x="57.6" y="75.408004" style="stroke: #000000; stroke-width: 0.8"/>
      </g>
     </g>
     <g id="text_17">
      <!-- 1.4 -->
      <g transform="translate(34.696875 79.207223) scale(0.1 -0.1)">
       <use xlink:href="#DejaVuSans-31"/>
       <use xlink:href="#DejaVuSans-2e" x="63.623047"/>
       <use xlink:href="#DejaVuSans-34" x="95.410156"/>
      </g>
     </g>
    </g>
    <g id="ytick_9">
     <g id="line2d_17">
      <g>
       <use xlink:href="#m802a89594d" x="57.6" y="42.240005" style="stroke: #000000; stroke-width: 0.8"/>
      </g>
     </g>
     <g id="text_18">
      <!-- 1.6 -->
      <g transform="translate(34.696875 46.039224) scale(0.1 -0.1)">
       <use xlink:href="#DejaVuSans-31"/>
       <use xlink:href="#DejaVuSans-2e" x="63.623047"/>
       <use xlink:href="#DejaVuSans-36" x="95.410156"/>
      </g>
     </g>
    </g>
    <g id="text_19">
     <!-- intensities -->
     <g transform="translate(28.617187 200.3155) rotate(-90) scale(0.1 -0.1)">
      <defs>
       <path id="DejaVuSans-69" d="M 603 3500 
L 1178 3500 
L 1178 0 
L 603 0 
L 603 3500 
z
M 603 4863 
L 1178 4863 
L 1178 4134 
L 603 4134 
L 603 4863 
z
" transform="scale(0.015625)"/>
       <path id="DejaVuSans-6e" d="M 3513 2113 
L 3513 0 
L 2938 0 
L 2938 2094 
Q 2938 2591 2744 2837 
Q 2550 3084 2163 3084 
Q 1697 3084 1428 2787 
Q 1159 2491 1159 1978 
L 1159 0 
L 581 0 
L 581 3500 
L 1159 3500 
L 1159 2956 
Q 1366 3272 1645 3428 
Q 1925 3584 2291 3584 
Q 2894 3584 3203 3211 
Q 3513 2838 3513 2113 
z
" transform="scale(0.015625)"/>
       <path id="DejaVuSans-74" d="M 1172 4494 
L 1172 3500 
L 2356 3500 
L 2356 3053 
L 1172 3053 
L 1172 1153 
Q 1172 725 1289 603 
Q 1406 481 1766 481 
L 2356 481 
L 2356 0 
L 1766 0 
Q 1100 0 847 248 
Q 594 497 594 1153 
L 594 3053 
L 172 3053 
L 172 3500 
L 594 3500 
L 594 4494 
L 1172 4494 
z
" transform="scale(0.015625)"/>
       <path id="DejaVuSans-65" d="M 3597 1894 
L 3597 1613 
L 953 1613 
Q 991 1019 1311 708 
Q 1631 397 2203 397 
Q 2534 397 2845 478 
Q 3156 559 3463 722 
L 3463 178 
Q 3153 47 2828 -22 
Q 2503 -91 2169 -91 
Q 1331 -91 842 396 
Q 353 884 353 1716 
Q 353 2575 817 3079 
Q 1281 3584 2069 3584 
Q 2775 3584 3186 3129 
Q 3597 2675 3597 1894 
z
M 3022 2063 
Q 3016 2534 2758 2815 
Q 2500 3097 2075 3097 
Q 1594 3097 1305 2825 
Q 1016 2553 972 2059 
L 3022 2063 
z
" transform="scale(0.015625)"/>
       <path id="DejaVuSans-73" d="M 2834 3397 
L 2834 2853 
Q 2591 2978 2328 3040 
Q 2066 3103 1784 3103 
Q 1356 3103 1142 2972 
Q 928 2841 928 2578 
Q 928 2378 1081 2264 
Q 1234 2150 1697 2047 
L 1894 2003 
Q 2506 1872 2764 1633 
Q 3022 1394 3022 966 
Q 3022 478 2636 193 
Q 2250 -91 1575 -91 
Q 1294 -91 989 -36 
Q 684 19 347 128 
L 347 722 
Q 666 556 975 473 
Q 1284 391 1588 391 
Q 1994 391 2212 530 
Q 2431 669 2431 922 
Q 2431 1156 2273 1281 
Q 2116 1406 1581 1522 
L 1381 1569 
Q 847 1681 609 1914 
Q 372 2147 372 2553 
Q 372 3047 722 3315 
Q 1072 3584 1716 3584 
Q 2034 3584 2315 3537 
Q 2597 3491 2834 3397 
z
" transform="scale(0.015625)"/>
      </defs>
      <use xlink:href="#DejaVuSans-69"/>
      <use xlink:href="#DejaVuSans-6e" x="27.783203"/>
      <use xlink:href="#DejaVuSans-74" x="91.162109"/>
      <use xlink:href="#DejaVuSans-65" x="130.371094"/>
      <use xlink:href="#DejaVuSans-6e" x="191.894531"/>
      <use xlink:href="#DejaVuSans-73" x="255.273438"/>
      <use xlink:href="#DejaVuSans-69" x="307.373047"/>
      <use xlink:href="#DejaVuSans-74" x="335.15625"/>
      <use xlink:href="#DejaVuSans-69" x="374.365234"/>
      <use xlink:href="#DejaVuSans-65" x="402.148438"/>
      <use xlink:href="#DejaVuSans-73" x="463.671875"/>
     </g>
    </g>
    <g id="text_20">
     <!-- 1e6 -->
     <g transform="translate(57.6 38.472) scale(0.1 -0.1)">
      <use xlink:href="#DejaVuSans-31"/>
      <use xlink:href="#DejaVuSans-65" x="63.623047"/>
      <use xlink:href="#DejaVuSans-36" x="125.146484"/>
     </g>
    </g>
   </g>
   <g id="patch_175">
    <path d="M 57.6 307.584 
L 57.6 41.472 
" style="fill: none; stroke: #000000; stroke-width: 0.8; stroke-linejoin: miter; stroke-linecap: square"/>
   </g>
   <g id="patch_176">
    <path d="M 414.72 307.584 
L 414.72 41.472 
" style="fill: none; stroke: #000000; stroke-width: 0.8; stroke-linejoin: miter; stroke-linecap: square"/>
   </g>
   <g id="patch_177">
    <path d="M 57.6 307.584 
L 414.72 307.584 
" style="fill: none; stroke: #000000; stroke-width: 0.8; stroke-linejoin: miter; stroke-linecap: square"/>
   </g>
   <g id="patch_178">
    <path d="M 57.6 41.472 
L 414.72 41.472 
" style="fill: none; stroke: #000000; stroke-width: 0.8; stroke-linejoin: miter; stroke-linecap: square"/>
   </g>
   <g id="text_21">
    <!-- 71.0135 -->
    <g transform="translate(85.896889 204.31543) scale(0.06 -0.06)">
     <defs>
      <path id="DejaVuSans-37" d="M 525 4666 
L 3525 4666 
L 3525 4397 
L 1831 0 
L 1172 0 
L 2766 4134 
L 525 4134 
L 525 4666 
z
" transform="scale(0.015625)"/>
     </defs>
     <use xlink:href="#DejaVuSans-37"/>
     <use xlink:href="#DejaVuSans-31" x="63.623047"/>
     <use xlink:href="#DejaVuSans-2e" x="127.246094"/>
     <use xlink:href="#DejaVuSans-30" x="159.033203"/>
     <use xlink:href="#DejaVuSans-31" x="222.65625"/>
     <use xlink:href="#DejaVuSans-33" x="286.279297"/>
     <use xlink:href="#DejaVuSans-35" x="349.902344"/>
    </g>
   </g>
   <g id="text_22">
    <!-- 81.0341 -->
    <g transform="translate(85.982436 242.848997) scale(0.06 -0.06)">
     <use xlink:href="#DejaVuSans-38"/>
     <use xlink:href="#DejaVuSans-31" x="63.623047"/>
     <use xlink:href="#DejaVuSans-2e" x="127.246094"/>
     <use xlink:href="#DejaVuSans-30" x="159.033203"/>
     <use xlink:href="#DejaVuSans-33" x="222.65625"/>
     <use xlink:href="#DejaVuSans-34" x="286.279297"/>
     <use xlink:href="#DejaVuSans-31" x="349.902344"/>
    </g>
   </g>
   <g id="text_23">
    <!-- 89.0239 -->
    <g transform="translate(102.873657 233.375241) scale(0.06 -0.06)">
     <defs>
      <path id="DejaVuSans-39" d="M 703 97 
L 703 672 
Q 941 559 1184 500 
Q 1428 441 1663 441 
Q 2288 441 2617 861 
Q 2947 1281 2994 2138 
Q 2813 1869 2534 1725 
Q 2256 1581 1919 1581 
Q 1219 1581 811 2004 
Q 403 2428 403 3163 
Q 403 3881 828 4315 
Q 1253 4750 1959 4750 
Q 2769 4750 3195 4129 
Q 3622 3509 3622 2328 
Q 3622 1225 3098 567 
Q 2575 -91 1691 -91 
Q 1453 -91 1209 -44 
Q 966 3 703 97 
z
M 1959 2075 
Q 2384 2075 2632 2365 
Q 2881 2656 2881 3163 
Q 2881 3666 2632 3958 
Q 2384 4250 1959 4250 
Q 1534 4250 1286 3958 
Q 1038 3666 1038 3163 
Q 1038 2656 1286 2365 
Q 1534 2075 1959 2075 
z
" transform="scale(0.015625)"/>
     </defs>
     <use xlink:href="#DejaVuSans-38"/>
     <use xlink:href="#DejaVuSans-39" x="63.623047"/>
     <use xlink:href="#DejaVuSans-2e" x="127.246094"/>
     <use xlink:href="#DejaVuSans-30" x="159.033203"/>
     <use xlink:href="#DejaVuSans-32" x="222.65625"/>
     <use xlink:href="#DejaVuSans-33" x="286.279297"/>
     <use xlink:href="#DejaVuSans-39" x="349.902344"/>
    </g>
   </g>
   <g id="text_24">
    <!-- 211.0789 -->
    <g transform="translate(217.455247 250.190269) scale(0.06 -0.06)">
     <use xlink:href="#DejaVuSans-32"/>
     <use xlink:href="#DejaVuSans-31" x="63.623047"/>
     <use xlink:href="#DejaVuSans-31" x="127.246094"/>
     <use xlink:href="#DejaVuSans-2e" x="190.869141"/>
     <use xlink:href="#DejaVuSans-30" x="222.65625"/>
     <use xlink:href="#DejaVuSans-37" x="286.279297"/>
     <use xlink:href="#DejaVuSans-38" x="349.902344"/>
     <use xlink:href="#DejaVuSans-39" x="413.525391"/>
    </g>
   </g>
   <g id="text_25">
    <!-- 212.0865 -->
    <g transform="translate(218.405021 284.42822) scale(0.06 -0.06)">
     <use xlink:href="#DejaVuSans-32"/>
     <use xlink:href="#DejaVuSans-31" x="63.623047"/>
     <use xlink:href="#DejaVuSans-32" x="127.246094"/>
     <use xlink:href="#DejaVuSans-2e" x="190.869141"/>
     <use xlink:href="#DejaVuSans-30" x="222.65625"/>
     <use xlink:href="#DejaVuSans-38" x="286.279297"/>
     <use xlink:href="#DejaVuSans-36" x="349.902344"/>
     <use xlink:href="#DejaVuSans-35" x="413.525391"/>
    </g>
   </g>
   <g id="text_26">
    <!-- 222.0707 -->
    <g transform="translate(245.816242 284.427033) scale(0.06 -0.06)">
     <use xlink:href="#DejaVuSans-32"/>
     <use xlink:href="#DejaVuSans-32" x="63.623047"/>
     <use xlink:href="#DejaVuSans-32" x="127.246094"/>
     <use xlink:href="#DejaVuSans-2e" x="190.869141"/>
     <use xlink:href="#DejaVuSans-30" x="222.65625"/>
     <use xlink:href="#DejaVuSans-37" x="286.279297"/>
     <use xlink:href="#DejaVuSans-30" x="349.902344"/>
     <use xlink:href="#DejaVuSans-37" x="413.525391"/>
    </g>
   </g>
   <g id="text_27">
    <!-- 224.0867 -->
    <g transform="translate(232.161752 275.40194) scale(0.06 -0.06)">
     <use xlink:href="#DejaVuSans-32"/>
     <use xlink:href="#DejaVuSans-32" x="63.623047"/>
     <use xlink:href="#DejaVuSans-34" x="127.246094"/>
     <use xlink:href="#DejaVuSans-2e" x="190.869141"/>
     <use xlink:href="#DejaVuSans-30" x="222.65625"/>
     <use xlink:href="#DejaVuSans-38" x="286.279297"/>
     <use xlink:href="#DejaVuSans-36" x="349.902344"/>
     <use xlink:href="#DejaVuSans-37" x="413.525391"/>
    </g>
   </g>
   <g id="text_28">
    <!-- 235.0788 -->
    <g transform="translate(240.077878 223.862244) scale(0.06 -0.06)">
     <use xlink:href="#DejaVuSans-32"/>
     <use xlink:href="#DejaVuSans-33" x="63.623047"/>
     <use xlink:href="#DejaVuSans-35" x="127.246094"/>
     <use xlink:href="#DejaVuSans-2e" x="190.869141"/>
     <use xlink:href="#DejaVuSans-30" x="222.65625"/>
     <use xlink:href="#DejaVuSans-37" x="286.279297"/>
     <use xlink:href="#DejaVuSans-38" x="349.902344"/>
     <use xlink:href="#DejaVuSans-38" x="413.525391"/>
    </g>
   </g>
   <g id="text_29">
    <!-- 236.0862 -->
    <g transform="translate(239.607245 260.712214) scale(0.06 -0.06)">
     <use xlink:href="#DejaVuSans-32"/>
     <use xlink:href="#DejaVuSans-33" x="63.623047"/>
     <use xlink:href="#DejaVuSans-36" x="127.246094"/>
     <use xlink:href="#DejaVuSans-2e" x="190.869141"/>
     <use xlink:href="#DejaVuSans-30" x="222.65625"/>
     <use xlink:href="#DejaVuSans-38" x="286.279297"/>
     <use xlink:href="#DejaVuSans-36" x="349.902344"/>
     <use xlink:href="#DejaVuSans-32" x="413.525391"/>
    </g>
   </g>
   <g id="text_30">
    <!-- 248.0867 -->
    <g transform="translate(252.339255 88.716706) scale(0.06 -0.06)">
     <use xlink:href="#DejaVuSans-32"/>
     <use xlink:href="#DejaVuSans-34" x="63.623047"/>
     <use xlink:href="#DejaVuSans-38" x="127.246094"/>
     <use xlink:href="#DejaVuSans-2e" x="190.869141"/>
     <use xlink:href="#DejaVuSans-30" x="222.65625"/>
     <use xlink:href="#DejaVuSans-38" x="286.279297"/>
     <use xlink:href="#DejaVuSans-36" x="349.902344"/>
     <use xlink:href="#DejaVuSans-37" x="413.525391"/>
    </g>
   </g>
   <g id="text_31">
    <!-- 249.0924 -->
    <g transform="translate(248.22745 252.861299) scale(0.06 -0.06)">
     <use xlink:href="#DejaVuSans-32"/>
     <use xlink:href="#DejaVuSans-34" x="63.623047"/>
     <use xlink:href="#DejaVuSans-39" x="127.246094"/>
     <use xlink:href="#DejaVuSans-2e" x="190.869141"/>
     <use xlink:href="#DejaVuSans-30" x="222.65625"/>
     <use xlink:href="#DejaVuSans-39" x="286.279297"/>
     <use xlink:href="#DejaVuSans-32" x="349.902344"/>
     <use xlink:href="#DejaVuSans-34" x="413.525391"/>
    </g>
   </g>
   <g id="text_32">
    <!-- 250.1022 -->
    <g transform="translate(267.919061 217.436637) scale(0.06 -0.06)">
     <use xlink:href="#DejaVuSans-32"/>
     <use xlink:href="#DejaVuSans-35" x="63.623047"/>
     <use xlink:href="#DejaVuSans-30" x="127.246094"/>
     <use xlink:href="#DejaVuSans-2e" x="190.869141"/>
     <use xlink:href="#DejaVuSans-31" x="222.65625"/>
     <use xlink:href="#DejaVuSans-30" x="286.279297"/>
     <use xlink:href="#DejaVuSans-32" x="349.902344"/>
     <use xlink:href="#DejaVuSans-32" x="413.525391"/>
    </g>
   </g>
   <g id="text_33">
    <!-- 253.1259 -->
    <g transform="translate(257.089216 244.800188) scale(0.06 -0.06)">
     <use xlink:href="#DejaVuSans-32"/>
     <use xlink:href="#DejaVuSans-35" x="63.623047"/>
     <use xlink:href="#DejaVuSans-33" x="127.246094"/>
     <use xlink:href="#DejaVuSans-2e" x="190.869141"/>
     <use xlink:href="#DejaVuSans-31" x="222.65625"/>
     <use xlink:href="#DejaVuSans-32" x="286.279297"/>
     <use xlink:href="#DejaVuSans-35" x="349.902344"/>
     <use xlink:href="#DejaVuSans-39" x="413.525391"/>
    </g>
   </g>
   <g id="text_34">
    <!-- 254.1326 -->
    <g transform="translate(252.998198 269.225063) scale(0.06 -0.06)">
     <use xlink:href="#DejaVuSans-32"/>
     <use xlink:href="#DejaVuSans-35" x="63.623047"/>
     <use xlink:href="#DejaVuSans-34" x="127.246094"/>
     <use xlink:href="#DejaVuSans-2e" x="190.869141"/>
     <use xlink:href="#DejaVuSans-31" x="222.65625"/>
     <use xlink:href="#DejaVuSans-33" x="286.279297"/>
     <use xlink:href="#DejaVuSans-32" x="349.902344"/>
     <use xlink:href="#DejaVuSans-36" x="413.525391"/>
    </g>
   </g>
   <g id="text_35">
    <!-- 262.1022 -->
    <g transform="translate(268.430376 226.679733) scale(0.06 -0.06)">
     <use xlink:href="#DejaVuSans-32"/>
     <use xlink:href="#DejaVuSans-36" x="63.623047"/>
     <use xlink:href="#DejaVuSans-32" x="127.246094"/>
     <use xlink:href="#DejaVuSans-2e" x="190.869141"/>
     <use xlink:href="#DejaVuSans-31" x="222.65625"/>
     <use xlink:href="#DejaVuSans-30" x="286.279297"/>
     <use xlink:href="#DejaVuSans-32" x="349.902344"/>
     <use xlink:href="#DejaVuSans-32" x="413.525391"/>
    </g>
   </g>
   <g id="text_36">
    <!-- 264.1179 -->
    <g transform="translate(267.450441 160.400128) scale(0.06 -0.06)">
     <use xlink:href="#DejaVuSans-32"/>
     <use xlink:href="#DejaVuSans-36" x="63.623047"/>
     <use xlink:href="#DejaVuSans-34" x="127.246094"/>
     <use xlink:href="#DejaVuSans-2e" x="190.869141"/>
     <use xlink:href="#DejaVuSans-31" x="222.65625"/>
     <use xlink:href="#DejaVuSans-31" x="286.279297"/>
     <use xlink:href="#DejaVuSans-37" x="349.902344"/>
     <use xlink:href="#DejaVuSans-39" x="413.525391"/>
    </g>
   </g>
   <g id="text_37">
    <!-- 273.0941 -->
    <g transform="translate(275.911472 280.931799) scale(0.06 -0.06)">
     <use xlink:href="#DejaVuSans-32"/>
     <use xlink:href="#DejaVuSans-37" x="63.623047"/>
     <use xlink:href="#DejaVuSans-33" x="127.246094"/>
     <use xlink:href="#DejaVuSans-2e" x="190.869141"/>
     <use xlink:href="#DejaVuSans-30" x="222.65625"/>
     <use xlink:href="#DejaVuSans-39" x="286.279297"/>
     <use xlink:href="#DejaVuSans-34" x="349.902344"/>
     <use xlink:href="#DejaVuSans-31" x="413.525391"/>
    </g>
   </g>
   <g id="text_38">
    <!-- 274.1022 -->
    <g transform="translate(280.461706 96.694749) scale(0.06 -0.06)">
     <use xlink:href="#DejaVuSans-32"/>
     <use xlink:href="#DejaVuSans-37" x="63.623047"/>
     <use xlink:href="#DejaVuSans-34" x="127.246094"/>
     <use xlink:href="#DejaVuSans-2e" x="190.869141"/>
     <use xlink:href="#DejaVuSans-31" x="222.65625"/>
     <use xlink:href="#DejaVuSans-30" x="286.279297"/>
     <use xlink:href="#DejaVuSans-32" x="349.902344"/>
     <use xlink:href="#DejaVuSans-32" x="413.525391"/>
    </g>
   </g>
   <g id="text_39">
    <!-- 275.1074 -->
    <g transform="translate(274.285098 258.870384) scale(0.06 -0.06)">
     <use xlink:href="#DejaVuSans-32"/>
     <use xlink:href="#DejaVuSans-37" x="63.623047"/>
     <use xlink:href="#DejaVuSans-35" x="127.246094"/>
     <use xlink:href="#DejaVuSans-2e" x="190.869141"/>
     <use xlink:href="#DejaVuSans-31" x="222.65625"/>
     <use xlink:href="#DejaVuSans-30" x="286.279297"/>
     <use xlink:href="#DejaVuSans-37" x="349.902344"/>
     <use xlink:href="#DejaVuSans-34" x="413.525391"/>
    </g>
   </g>
   <g id="text_40">
    <!-- 277.1257 -->
    <g transform="translate(282.591717 237.973231) scale(0.06 -0.06)">
     <use xlink:href="#DejaVuSans-32"/>
     <use xlink:href="#DejaVuSans-37" x="63.623047"/>
     <use xlink:href="#DejaVuSans-37" x="127.246094"/>
     <use xlink:href="#DejaVuSans-2e" x="190.869141"/>
     <use xlink:href="#DejaVuSans-31" x="222.65625"/>
     <use xlink:href="#DejaVuSans-32" x="286.279297"/>
     <use xlink:href="#DejaVuSans-35" x="349.902344"/>
     <use xlink:href="#DejaVuSans-37" x="413.525391"/>
    </g>
   </g>
   <g id="text_41">
    <!-- 288.1178 -->
    <g transform="translate(290.792985 206.717257) scale(0.06 -0.06)">
     <use xlink:href="#DejaVuSans-32"/>
     <use xlink:href="#DejaVuSans-38" x="63.623047"/>
     <use xlink:href="#DejaVuSans-38" x="127.246094"/>
     <use xlink:href="#DejaVuSans-2e" x="190.869141"/>
     <use xlink:href="#DejaVuSans-31" x="222.65625"/>
     <use xlink:href="#DejaVuSans-31" x="286.279297"/>
     <use xlink:href="#DejaVuSans-37" x="349.902344"/>
     <use xlink:href="#DejaVuSans-38" x="413.525391"/>
    </g>
   </g>
   <g id="text_42">
    <!-- 290.1335 -->
    <g transform="translate(291.972964 50.939625) scale(0.06 -0.06)">
     <use xlink:href="#DejaVuSans-32"/>
     <use xlink:href="#DejaVuSans-39" x="63.623047"/>
     <use xlink:href="#DejaVuSans-30" x="127.246094"/>
     <use xlink:href="#DejaVuSans-2e" x="190.869141"/>
     <use xlink:href="#DejaVuSans-31" x="222.65625"/>
     <use xlink:href="#DejaVuSans-33" x="286.279297"/>
     <use xlink:href="#DejaVuSans-33" x="349.902344"/>
     <use xlink:href="#DejaVuSans-35" x="413.525391"/>
    </g>
   </g>
   <g id="text_43">
    <!-- 291.1369 -->
    <g transform="translate(283.558854 267.874498) scale(0.06 -0.06)">
     <use xlink:href="#DejaVuSans-32"/>
     <use xlink:href="#DejaVuSans-39" x="63.623047"/>
     <use xlink:href="#DejaVuSans-31" x="127.246094"/>
     <use xlink:href="#DejaVuSans-2e" x="190.869141"/>
     <use xlink:href="#DejaVuSans-31" x="222.65625"/>
     <use xlink:href="#DejaVuSans-33" x="286.279297"/>
     <use xlink:href="#DejaVuSans-36" x="349.902344"/>
     <use xlink:href="#DejaVuSans-39" x="413.525391"/>
    </g>
   </g>
   <g id="text_44">
    <!-- 292.1491 -->
    <g transform="translate(302.512943 274.381153) scale(0.06 -0.06)">
     <use xlink:href="#DejaVuSans-32"/>
     <use xlink:href="#DejaVuSans-39" x="63.623047"/>
     <use xlink:href="#DejaVuSans-32" x="127.246094"/>
     <use xlink:href="#DejaVuSans-2e" x="190.869141"/>
     <use xlink:href="#DejaVuSans-31" x="222.65625"/>
     <use xlink:href="#DejaVuSans-34" x="286.279297"/>
     <use xlink:href="#DejaVuSans-39" x="349.902344"/>
     <use xlink:href="#DejaVuSans-31" x="413.525391"/>
    </g>
   </g>
   <g id="text_45">
    <!-- 306.1648 -->
    <g transform="translate(307.08428 196.936592) scale(0.06 -0.06)">
     <use xlink:href="#DejaVuSans-33"/>
     <use xlink:href="#DejaVuSans-30" x="63.623047"/>
     <use xlink:href="#DejaVuSans-36" x="127.246094"/>
     <use xlink:href="#DejaVuSans-2e" x="190.869141"/>
     <use xlink:href="#DejaVuSans-31" x="222.65625"/>
     <use xlink:href="#DejaVuSans-36" x="286.279297"/>
     <use xlink:href="#DejaVuSans-34" x="349.902344"/>
     <use xlink:href="#DejaVuSans-38" x="413.525391"/>
    </g>
   </g>
   <g id="text_46">
    <!-- 316.1126 -->
    <g transform="translate(306.381198 251.651647) scale(0.06 -0.06)">
     <use xlink:href="#DejaVuSans-33"/>
     <use xlink:href="#DejaVuSans-31" x="63.623047"/>
     <use xlink:href="#DejaVuSans-36" x="127.246094"/>
     <use xlink:href="#DejaVuSans-2e" x="190.869141"/>
     <use xlink:href="#DejaVuSans-31" x="222.65625"/>
     <use xlink:href="#DejaVuSans-31" x="286.279297"/>
     <use xlink:href="#DejaVuSans-32" x="349.902344"/>
     <use xlink:href="#DejaVuSans-36" x="413.525391"/>
    </g>
   </g>
   <g id="text_47">
    <!-- 316.1494 -->
    <g transform="translate(330.895832 247.007945) scale(0.06 -0.06)">
     <use xlink:href="#DejaVuSans-33"/>
     <use xlink:href="#DejaVuSans-31" x="63.623047"/>
     <use xlink:href="#DejaVuSans-36" x="127.246094"/>
     <use xlink:href="#DejaVuSans-2e" x="190.869141"/>
     <use xlink:href="#DejaVuSans-31" x="222.65625"/>
     <use xlink:href="#DejaVuSans-34" x="286.279297"/>
     <use xlink:href="#DejaVuSans-39" x="349.902344"/>
     <use xlink:href="#DejaVuSans-34" x="413.525391"/>
    </g>
   </g>
   <g id="text_48">
    <!-- 333.1153 -->
    <g transform="translate(316.97176 282.1096) scale(0.06 -0.06)">
     <use xlink:href="#DejaVuSans-33"/>
     <use xlink:href="#DejaVuSans-33" x="63.623047"/>
     <use xlink:href="#DejaVuSans-33" x="127.246094"/>
     <use xlink:href="#DejaVuSans-2e" x="190.869141"/>
     <use xlink:href="#DejaVuSans-31" x="222.65625"/>
     <use xlink:href="#DejaVuSans-31" x="286.279297"/>
     <use xlink:href="#DejaVuSans-35" x="349.902344"/>
     <use xlink:href="#DejaVuSans-33" x="413.525391"/>
    </g>
   </g>
   <g id="text_49">
    <!-- 334.1234 -->
    <g transform="translate(333.438347 99.795694) scale(0.06 -0.06)">
     <use xlink:href="#DejaVuSans-33"/>
     <use xlink:href="#DejaVuSans-33" x="63.623047"/>
     <use xlink:href="#DejaVuSans-34" x="127.246094"/>
     <use xlink:href="#DejaVuSans-2e" x="190.869141"/>
     <use xlink:href="#DejaVuSans-31" x="222.65625"/>
     <use xlink:href="#DejaVuSans-32" x="286.279297"/>
     <use xlink:href="#DejaVuSans-33" x="349.902344"/>
     <use xlink:href="#DejaVuSans-34" x="413.525391"/>
    </g>
   </g>
   <g id="text_50">
    <!-- 335.1269 -->
    <g transform="translate(343.744265 281.69925) scale(0.06 -0.06)">
     <use xlink:href="#DejaVuSans-33"/>
     <use xlink:href="#DejaVuSans-33" x="63.623047"/>
     <use xlink:href="#DejaVuSans-35" x="127.246094"/>
     <use xlink:href="#DejaVuSans-2e" x="190.869141"/>
     <use xlink:href="#DejaVuSans-31" x="222.65625"/>
     <use xlink:href="#DejaVuSans-32" x="286.279297"/>
     <use xlink:href="#DejaVuSans-36" x="349.902344"/>
     <use xlink:href="#DejaVuSans-39" x="413.525391"/>
    </g>
   </g>
   <g id="text_51">
    <!-- 350.1907 -->
    <g transform="translate(348.583549 270.758112) scale(0.06 -0.06)">
     <use xlink:href="#DejaVuSans-33"/>
     <use xlink:href="#DejaVuSans-35" x="63.623047"/>
     <use xlink:href="#DejaVuSans-30" x="127.246094"/>
     <use xlink:href="#DejaVuSans-2e" x="190.869141"/>
     <use xlink:href="#DejaVuSans-31" x="222.65625"/>
     <use xlink:href="#DejaVuSans-39" x="286.279297"/>
     <use xlink:href="#DejaVuSans-30" x="349.902344"/>
     <use xlink:href="#DejaVuSans-37" x="413.525391"/>
    </g>
   </g>
   <g id="text_52">
    <!-- 376.1703 -->
    <g transform="translate(373.072214 68.931855) scale(0.06 -0.06)">
     <use xlink:href="#DejaVuSans-33"/>
     <use xlink:href="#DejaVuSans-37" x="63.623047"/>
     <use xlink:href="#DejaVuSans-36" x="127.246094"/>
     <use xlink:href="#DejaVuSans-2e" x="190.869141"/>
     <use xlink:href="#DejaVuSans-31" x="222.65625"/>
     <use xlink:href="#DejaVuSans-37" x="286.279297"/>
     <use xlink:href="#DejaVuSans-30" x="349.902344"/>
     <use xlink:href="#DejaVuSans-33" x="413.525391"/>
    </g>
   </g>
   <g id="text_53">
    <!-- 377.174 -->
    <g transform="translate(374.487027 259.053476) scale(0.06 -0.06)">
     <use xlink:href="#DejaVuSans-33"/>
     <use xlink:href="#DejaVuSans-37" x="63.623047"/>
     <use xlink:href="#DejaVuSans-37" x="127.246094"/>
     <use xlink:href="#DejaVuSans-2e" x="190.869141"/>
     <use xlink:href="#DejaVuSans-31" x="222.65625"/>
     <use xlink:href="#DejaVuSans-37" x="286.279297"/>
     <use xlink:href="#DejaVuSans-34" x="349.902344"/>
    </g>
   </g>
   <g id="text_54">
    <!-- 394.1809 -->
    <g transform="translate(386.230312 210.382468) scale(0.06 -0.06)">
     <use xlink:href="#DejaVuSans-33"/>
     <use xlink:href="#DejaVuSans-39" x="63.623047"/>
     <use xlink:href="#DejaVuSans-34" x="127.246094"/>
     <use xlink:href="#DejaVuSans-2e" x="190.869141"/>
     <use xlink:href="#DejaVuSans-31" x="222.65625"/>
     <use xlink:href="#DejaVuSans-38" x="286.279297"/>
     <use xlink:href="#DejaVuSans-30" x="349.902344"/>
     <use xlink:href="#DejaVuSans-39" x="413.525391"/>
    </g>
   </g>
   <g id="text_55">
    <!-- MS2 spectrum of ${m/z}$ 394.1801, scan time 10.11 min. -->
    <g transform="translate(57.6 24.873562) scale(0.12 -0.12)">
     <defs>
      <path id="DejaVuSans-4d" d="M 628 4666 
L 1569 4666 
L 2759 1491 
L 3956 4666 
L 4897 4666 
L 4897 0 
L 4281 0 
L 4281 4097 
L 3078 897 
L 2444 897 
L 1241 4097 
L 1241 0 
L 628 0 
L 628 4666 
z
" transform="scale(0.015625)"/>
      <path id="DejaVuSans-53" d="M 3425 4513 
L 3425 3897 
Q 3066 4069 2747 4153 
Q 2428 4238 2131 4238 
Q 1616 4238 1336 4038 
Q 1056 3838 1056 3469 
Q 1056 3159 1242 3001 
Q 1428 2844 1947 2747 
L 2328 2669 
Q 3034 2534 3370 2195 
Q 3706 1856 3706 1288 
Q 3706 609 3251 259 
Q 2797 -91 1919 -91 
Q 1588 -91 1214 -16 
Q 841 59 441 206 
L 441 856 
Q 825 641 1194 531 
Q 1563 422 1919 422 
Q 2459 422 2753 634 
Q 3047 847 3047 1241 
Q 3047 1584 2836 1778 
Q 2625 1972 2144 2069 
L 1759 2144 
Q 1053 2284 737 2584 
Q 422 2884 422 3419 
Q 422 4038 858 4394 
Q 1294 4750 2059 4750 
Q 2388 4750 2728 4690 
Q 3069 4631 3425 4513 
z
" transform="scale(0.015625)"/>
      <path id="DejaVuSans-20" transform="scale(0.015625)"/>
      <path id="DejaVuSans-70" d="M 1159 525 
L 1159 -1331 
L 581 -1331 
L 581 3500 
L 1159 3500 
L 1159 2969 
Q 1341 3281 1617 3432 
Q 1894 3584 2278 3584 
Q 2916 3584 3314 3078 
Q 3713 2572 3713 1747 
Q 3713 922 3314 415 
Q 2916 -91 2278 -91 
Q 1894 -91 1617 61 
Q 1341 213 1159 525 
z
M 3116 1747 
Q 3116 2381 2855 2742 
Q 2594 3103 2138 3103 
Q 1681 3103 1420 2742 
Q 1159 2381 1159 1747 
Q 1159 1113 1420 752 
Q 1681 391 2138 391 
Q 2594 391 2855 752 
Q 3116 1113 3116 1747 
z
" transform="scale(0.015625)"/>
      <path id="DejaVuSans-63" d="M 3122 3366 
L 3122 2828 
Q 2878 2963 2633 3030 
Q 2388 3097 2138 3097 
Q 1578 3097 1268 2742 
Q 959 2388 959 1747 
Q 959 1106 1268 751 
Q 1578 397 2138 397 
Q 2388 397 2633 464 
Q 2878 531 3122 666 
L 3122 134 
Q 2881 22 2623 -34 
Q 2366 -91 2075 -91 
Q 1284 -91 818 406 
Q 353 903 353 1747 
Q 353 2603 823 3093 
Q 1294 3584 2113 3584 
Q 2378 3584 2631 3529 
Q 2884 3475 3122 3366 
z
" transform="scale(0.015625)"/>
      <path id="DejaVuSans-72" d="M 2631 2963 
Q 2534 3019 2420 3045 
Q 2306 3072 2169 3072 
Q 1681 3072 1420 2755 
Q 1159 2438 1159 1844 
L 1159 0 
L 581 0 
L 581 3500 
L 1159 3500 
L 1159 2956 
Q 1341 3275 1631 3429 
Q 1922 3584 2338 3584 
Q 2397 3584 2469 3576 
Q 2541 3569 2628 3553 
L 2631 2963 
z
" transform="scale(0.015625)"/>
      <path id="DejaVuSans-75" d="M 544 1381 
L 544 3500 
L 1119 3500 
L 1119 1403 
Q 1119 906 1312 657 
Q 1506 409 1894 409 
Q 2359 409 2629 706 
Q 2900 1003 2900 1516 
L 2900 3500 
L 3475 3500 
L 3475 0 
L 2900 0 
L 2900 538 
Q 2691 219 2414 64 
Q 2138 -91 1772 -91 
Q 1169 -91 856 284 
Q 544 659 544 1381 
z
M 1991 3584 
L 1991 3584 
z
" transform="scale(0.015625)"/>
      <path id="DejaVuSans-6d" d="M 3328 2828 
Q 3544 3216 3844 3400 
Q 4144 3584 4550 3584 
Q 5097 3584 5394 3201 
Q 5691 2819 5691 2113 
L 5691 0 
L 5113 0 
L 5113 2094 
Q 5113 2597 4934 2840 
Q 4756 3084 4391 3084 
Q 3944 3084 3684 2787 
Q 3425 2491 3425 1978 
L 3425 0 
L 2847 0 
L 2847 2094 
Q 2847 2600 2669 2842 
Q 2491 3084 2119 3084 
Q 1678 3084 1418 2786 
Q 1159 2488 1159 1978 
L 1159 0 
L 581 0 
L 581 3500 
L 1159 3500 
L 1159 2956 
Q 1356 3278 1631 3431 
Q 1906 3584 2284 3584 
Q 2666 3584 2933 3390 
Q 3200 3197 3328 2828 
z
" transform="scale(0.015625)"/>
      <path id="DejaVuSans-6f" d="M 1959 3097 
Q 1497 3097 1228 2736 
Q 959 2375 959 1747 
Q 959 1119 1226 758 
Q 1494 397 1959 397 
Q 2419 397 2687 759 
Q 2956 1122 2956 1747 
Q 2956 2369 2687 2733 
Q 2419 3097 1959 3097 
z
M 1959 3584 
Q 2709 3584 3137 3096 
Q 3566 2609 3566 1747 
Q 3566 888 3137 398 
Q 2709 -91 1959 -91 
Q 1206 -91 779 398 
Q 353 888 353 1747 
Q 353 2609 779 3096 
Q 1206 3584 1959 3584 
z
" transform="scale(0.015625)"/>
      <path id="DejaVuSans-66" d="M 2375 4863 
L 2375 4384 
L 1825 4384 
Q 1516 4384 1395 4259 
Q 1275 4134 1275 3809 
L 1275 3500 
L 2222 3500 
L 2222 3053 
L 1275 3053 
L 1275 0 
L 697 0 
L 697 3053 
L 147 3053 
L 147 3500 
L 697 3500 
L 697 3744 
Q 697 4328 969 4595 
Q 1241 4863 1831 4863 
L 2375 4863 
z
" transform="scale(0.015625)"/>
      <path id="DejaVuSans-2c" d="M 750 794 
L 1409 794 
L 1409 256 
L 897 -744 
L 494 -744 
L 750 256 
L 750 794 
z
" transform="scale(0.015625)"/>
      <path id="DejaVuSans-61" d="M 2194 1759 
Q 1497 1759 1228 1600 
Q 959 1441 959 1056 
Q 959 750 1161 570 
Q 1363 391 1709 391 
Q 2188 391 2477 730 
Q 2766 1069 2766 1631 
L 2766 1759 
L 2194 1759 
z
M 3341 1997 
L 3341 0 
L 2766 0 
L 2766 531 
Q 2569 213 2275 61 
Q 1981 -91 1556 -91 
Q 1019 -91 701 211 
Q 384 513 384 1019 
Q 384 1609 779 1909 
Q 1175 2209 1959 2209 
L 2766 2209 
L 2766 2266 
Q 2766 2663 2505 2880 
Q 2244 3097 1772 3097 
Q 1472 3097 1187 3025 
Q 903 2953 641 2809 
L 641 3341 
Q 956 3463 1253 3523 
Q 1550 3584 1831 3584 
Q 2591 3584 2966 3190 
Q 3341 2797 3341 1997 
z
" transform="scale(0.015625)"/>
     </defs>
     <use xlink:href="#DejaVuSans-4d" transform="translate(0 0.015625)"/>
     <use xlink:href="#DejaVuSans-53" transform="translate(86.279297 0.015625)"/>
     <use xlink:href="#DejaVuSans-32" transform="translate(149.755859 0.015625)"/>
     <use xlink:href="#DejaVuSans-20" transform="translate(213.378906 0.015625)"/>
     <use xlink:href="#DejaVuSans-73" transform="translate(245.166016 0.015625)"/>
     <use xlink:href="#DejaVuSans-70" transform="translate(297.265625 0.015625)"/>
     <use xlink:href="#DejaVuSans-65" transform="translate(360.742188 0.015625)"/>
     <use xlink:href="#DejaVuSans-63" transform="translate(422.265625 0.015625)"/>
     <use xlink:href="#DejaVuSans-74" transform="translate(477.246094 0.015625)"/>
     <use xlink:href="#DejaVuSans-72" transform="translate(516.455078 0.015625)"/>
     <use xlink:href="#DejaVuSans-75" transform="translate(557.568359 0.015625)"/>
     <use xlink:href="#DejaVuSans-6d" transform="translate(620.947266 0.015625)"/>
     <use xlink:href="#DejaVuSans-20" transform="translate(718.359375 0.015625)"/>
     <use xlink:href="#DejaVuSans-6f" transform="translate(750.146484 0.015625)"/>
     <use xlink:href="#DejaVuSans-66" transform="translate(811.328125 0.015625)"/>
     <use xlink:href="#DejaVuSans-20" transform="translate(846.533203 0.015625)"/>
     <use xlink:href="#DejaVuSans-Oblique-6d" transform="translate(878.320312 0.015625)"/>
     <use xlink:href="#DejaVuSans-2f" transform="translate(975.732422 0.015625)"/>
     <use xlink:href="#DejaVuSans-Oblique-7a" transform="translate(1009.423828 0.015625)"/>
     <use xlink:href="#DejaVuSans-20" transform="translate(1061.914062 0.015625)"/>
     <use xlink:href="#DejaVuSans-33" transform="translate(1093.701172 0.015625)"/>
     <use xlink:href="#DejaVuSans-39" transform="translate(1157.324219 0.015625)"/>
     <use xlink:href="#DejaVuSans-34" transform="translate(1220.947266 0.015625)"/>
     <use xlink:href="#DejaVuSans-2e" transform="translate(1284.570312 0.015625)"/>
     <use xlink:href="#DejaVuSans-31" transform="translate(1316.357422 0.015625)"/>
     <use xlink:href="#DejaVuSans-38" transform="translate(1379.980469 0.015625)"/>
     <use xlink:href="#DejaVuSans-30" transform="translate(1443.603516 0.015625)"/>
     <use xlink:href="#DejaVuSans-31" transform="translate(1507.226562 0.015625)"/>
     <use xlink:href="#DejaVuSans-2c" transform="translate(1570.849609 0.015625)"/>
     <use xlink:href="#DejaVuSans-20" transform="translate(1602.636719 0.015625)"/>
     <use xlink:href="#DejaVuSans-73" transform="translate(1634.423828 0.015625)"/>
     <use xlink:href="#DejaVuSans-63" transform="translate(1686.523438 0.015625)"/>
     <use xlink:href="#DejaVuSans-61" transform="translate(1741.503906 0.015625)"/>
     <use xlink:href="#DejaVuSans-6e" transform="translate(1802.783203 0.015625)"/>
     <use xlink:href="#DejaVuSans-20" transform="translate(1866.162109 0.015625)"/>
     <use xlink:href="#DejaVuSans-74" transform="translate(1897.949219 0.015625)"/>
     <use xlink:href="#DejaVuSans-69" transform="translate(1937.158203 0.015625)"/>
     <use xlink:href="#DejaVuSans-6d" transform="translate(1964.941406 0.015625)"/>
     <use xlink:href="#DejaVuSans-65" transform="translate(2062.353516 0.015625)"/>
     <use xlink:href="#DejaVuSans-20" transform="translate(2123.876953 0.015625)"/>
     <use xlink:href="#DejaVuSans-31" transform="translate(2155.664062 0.015625)"/>
     <use xlink:href="#DejaVuSans-30" transform="translate(2219.287109 0.015625)"/>
     <use xlink:href="#DejaVuSans-2e" transform="translate(2282.910156 0.015625)"/>
     <use xlink:href="#DejaVuSans-31" transform="translate(2314.697266 0.015625)"/>
     <use xlink:href="#DejaVuSans-31" transform="translate(2378.320312 0.015625)"/>
     <use xlink:href="#DejaVuSans-20" transform="translate(2441.943359 0.015625)"/>
     <use xlink:href="#DejaVuSans-6d" transform="translate(2473.730469 0.015625)"/>
     <use xlink:href="#DejaVuSans-69" transform="translate(2571.142578 0.015625)"/>
     <use xlink:href="#DejaVuSans-6e" transform="translate(2598.925781 0.015625)"/>
     <use xlink:href="#DejaVuSans-2e" transform="translate(2662.304688 0.015625)"/>
    </g>
   </g>
  </g>
 </g>
 <defs>
  <clipPath id="p51eb50bc9b">
   <rect x="57.6" y="41.472" width="357.12" height="266.112"/>
  </clipPath>
 </defs>
</svg>
