<?xml version="1.0" encoding="utf-8" standalone="no"?>
<!DOCTYPE svg PUBLIC "-//W3C//DTD SVG 1.1//EN"
  "http://www.w3.org/Graphics/SVG/1.1/DTD/svg11.dtd">
<svg xmlns:xlink="http://www.w3.org/1999/xlink" width="460.8pt" height="345.6pt" viewBox="0 0 460.8 345.6" xmlns="http://www.w3.org/2000/svg" version="1.1">
 <metadata>
  <rdf:RDF xmlns:dc="http://purl.org/dc/elements/1.1/" xmlns:cc="http://creativecommons.org/ns#" xmlns:rdf="http://www.w3.org/1999/02/22-rdf-syntax-ns#">
   <cc:Work>
    <dc:type rdf:resource="http://purl.org/dc/dcmitype/StillImage"/>
    <dc:date>2025-01-11T12:52:55.560528</dc:date>
    <dc:format>image/svg+xml</dc:format>
    <dc:creator>
     <cc:Agent>
      <dc:title>Matplotlib v3.7.3, https://matplotlib.org/</dc:title>
     </cc:Agent>
    </dc:creator>
   </cc:Work>
  </rdf:RDF>
 </metadata>
 <defs>
  <style type="text/css">*{stroke-linejoin: round; stroke-linecap: butt}</style>
 </defs>
 <g id="figure_1">
  <g id="patch_1">
   <path d="M 0 345.6 
L 460.8 345.6 
L 460.8 0 
L 0 0 
z
" style="fill: #ffffff"/>
  </g>
  <g id="axes_1">
   <g id="patch_2">
    <path d="M 57.6 307.584 
L 414.72 307.584 
L 414.72 41.472 
L 57.6 41.472 
z
" style="fill: #ffffff"/>
   </g>
   <g id="patch_3">
    <path d="M 73.832727 307.584 
L 74.59006 307.584 
L 74.59006 303.906474 
L 73.832727 303.906474 
z
" clip-path="url(#p39c2f5afea)" style="fill: #1f77b4"/>
   </g>
   <g id="patch_4">
    <path d="M 76.989938 307.584 
L 77.747271 307.584 
L 77.747271 306.549164 
L 76.989938 306.549164 
z
" clip-path="url(#p39c2f5afea)" style="fill: #1f77b4"/>
   </g>
   <g id="patch_5">
    <path d="M 79.899428 307.584 
L 80.656761 307.584 
L 80.656761 306.676362 
L 79.899428 306.676362 
z
" clip-path="url(#p39c2f5afea)" style="fill: #1f77b4"/>
   </g>
   <g id="patch_6">
    <path d="M 82.133792 307.584 
L 82.891126 307.584 
L 82.891126 306.602022 
L 82.133792 306.602022 
z
" clip-path="url(#p39c2f5afea)" style="fill: #1f77b4"/>
   </g>
   <g id="patch_7">
    <path d="M 82.335361 307.584 
L 83.092694 307.584 
L 83.092694 306.506144 
L 82.335361 306.506144 
z
" clip-path="url(#p39c2f5afea)" style="fill: #1f77b4"/>
   </g>
   <g id="patch_8">
    <path d="M 87.019472 307.584 
L 87.776805 307.584 
L 87.776805 306.063102 
L 87.019472 306.063102 
z
" clip-path="url(#p39c2f5afea)" style="fill: #1f77b4"/>
   </g>
   <g id="patch_9">
    <path d="M 87.100746 307.584 
L 87.858079 307.584 
L 87.858079 305.471268 
L 87.100746 305.471268 
z
" clip-path="url(#p39c2f5afea)" style="fill: #1f77b4"/>
   </g>
   <g id="patch_10">
    <path d="M 87.29462 307.584 
L 88.051953 307.584 
L 88.051953 305.995496 
L 87.29462 305.995496 
z
" clip-path="url(#p39c2f5afea)" style="fill: #1f77b4"/>
   </g>
   <g id="patch_11">
    <path d="M 88.974513 307.584 
L 89.731846 307.584 
L 89.731846 305.264874 
L 88.974513 305.264874 
z
" clip-path="url(#p39c2f5afea)" style="fill: #1f77b4"/>
   </g>
   <g id="patch_12">
    <path d="M 89.099889 307.584 
L 89.857222 307.584 
L 89.857222 306.36312 
L 89.099889 306.36312 
z
" clip-path="url(#p39c2f5afea)" style="fill: #1f77b4"/>
   </g>
   <g id="patch_13">
    <path d="M 89.309471 307.584 
L 90.066804 307.584 
L 90.066804 306.632291 
L 89.309471 306.632291 
z
" clip-path="url(#p39c2f5afea)" style="fill: #1f77b4"/>
   </g>
   <g id="patch_14">
    <path d="M 90.84836 307.584 
L 91.605693 307.584 
L 91.605693 217.830241 
L 90.84836 217.830241 
z
" clip-path="url(#p39c2f5afea)" style="fill: #1f77b4"/>
   </g>
   <g id="patch_15">
    <path d="M 90.852195 307.584 
L 91.609528 307.584 
L 91.609528 305.966562 
L 90.852195 305.966562 
z
" clip-path="url(#p39c2f5afea)" style="fill: #1f77b4"/>
   </g>
   <g id="patch_16">
    <path d="M 90.853748 307.584 
L 91.611081 307.584 
L 91.611081 305.538547 
L 90.853748 305.538547 
z
" clip-path="url(#p39c2f5afea)" style="fill: #1f77b4"/>
   </g>
   <g id="patch_17">
    <path d="M 90.882515 307.584 
L 91.639848 307.584 
L 91.639848 306.022445 
L 90.882515 306.022445 
z
" clip-path="url(#p39c2f5afea)" style="fill: #1f77b4"/>
   </g>
   <g id="patch_18">
    <path d="M 91.798023 307.584 
L 92.555356 307.584 
L 92.555356 306.095415 
L 91.798023 306.095415 
z
" clip-path="url(#p39c2f5afea)" style="fill: #1f77b4"/>
   </g>
   <g id="patch_19">
    <path d="M 92.286163 307.584 
L 93.043496 307.584 
L 93.043496 306.19248 
L 92.286163 306.19248 
z
" clip-path="url(#p39c2f5afea)" style="fill: #1f77b4"/>
   </g>
   <g id="patch_20">
    <path d="M 97.216668 307.584 
L 97.974001 307.584 
L 97.974001 306.389065 
L 97.216668 306.389065 
z
" clip-path="url(#p39c2f5afea)" style="fill: #1f77b4"/>
   </g>
   <g id="patch_21">
    <path d="M 98.460764 307.584 
L 99.218097 307.584 
L 99.218097 305.72727 
L 98.460764 305.72727 
z
" clip-path="url(#p39c2f5afea)" style="fill: #1f77b4"/>
   </g>
   <g id="patch_22">
    <path d="M 99.142856 307.584 
L 99.900189 307.584 
L 99.900189 306.368918 
L 99.142856 306.368918 
z
" clip-path="url(#p39c2f5afea)" style="fill: #1f77b4"/>
   </g>
   <g id="patch_23">
    <path d="M 100.334538 307.584 
L 101.091871 307.584 
L 101.091871 248.570303 
L 100.334538 248.570303 
z
" clip-path="url(#p39c2f5afea)" style="fill: #1f77b4"/>
   </g>
   <g id="patch_24">
    <path d="M 100.368607 307.584 
L 101.12594 307.584 
L 101.12594 306.24706 
L 100.368607 306.24706 
z
" clip-path="url(#p39c2f5afea)" style="fill: #1f77b4"/>
   </g>
   <g id="patch_25">
    <path d="M 101.284202 307.584 
L 102.041535 307.584 
L 102.041535 305.914333 
L 101.284202 305.914333 
z
" clip-path="url(#p39c2f5afea)" style="fill: #1f77b4"/>
   </g>
   <g id="patch_26">
    <path d="M 101.47848 307.584 
L 102.235813 307.584 
L 102.235813 306.3425 
L 101.47848 306.3425 
z
" clip-path="url(#p39c2f5afea)" style="fill: #1f77b4"/>
   </g>
   <g id="patch_27">
    <path d="M 102.242345 307.584 
L 102.999678 307.584 
L 102.999678 305.81561 
L 102.242345 305.81561 
z
" clip-path="url(#p39c2f5afea)" style="fill: #1f77b4"/>
   </g>
   <g id="patch_28">
    <path d="M 104.150707 307.584 
L 104.90804 307.584 
L 104.90804 306.099194 
L 104.150707 306.099194 
z
" clip-path="url(#p39c2f5afea)" style="fill: #1f77b4"/>
   </g>
   <g id="patch_29">
    <path d="M 107.898169 307.584 
L 108.655502 307.584 
L 108.655502 235.182876 
L 107.898169 235.182876 
z
" clip-path="url(#p39c2f5afea)" style="fill: #1f77b4"/>
   </g>
   <g id="patch_30">
    <path d="M 108.847623 307.584 
L 109.604956 307.584 
L 109.604956 306.104646 
L 108.847623 306.104646 
z
" clip-path="url(#p39c2f5afea)" style="fill: #1f77b4"/>
   </g>
   <g id="patch_31">
    <path d="M 109.820471 307.584 
L 110.577804 307.584 
L 110.577804 306.172983 
L 109.820471 306.172983 
z
" clip-path="url(#p39c2f5afea)" style="fill: #1f77b4"/>
   </g>
   <g id="patch_32">
    <path d="M 110.244857 307.584 
L 111.00219 307.584 
L 111.00219 306.457679 
L 110.244857 306.457679 
z
" clip-path="url(#p39c2f5afea)" style="fill: #1f77b4"/>
   </g>
   <g id="patch_33">
    <path d="M 111.10138 307.584 
L 111.858713 307.584 
L 111.858713 306.548508 
L 111.10138 306.548508 
z
" clip-path="url(#p39c2f5afea)" style="fill: #1f77b4"/>
   </g>
   <g id="patch_34">
    <path d="M 112.909993 307.584 
L 113.667326 307.584 
L 113.667326 306.345411 
L 112.909993 306.345411 
z
" clip-path="url(#p39c2f5afea)" style="fill: #1f77b4"/>
   </g>
   <g id="patch_35">
    <path d="M 113.602601 307.584 
L 114.359934 307.584 
L 114.359934 305.382703 
L 113.602601 305.382703 
z
" clip-path="url(#p39c2f5afea)" style="fill: #1f77b4"/>
   </g>
   <g id="patch_36">
    <path d="M 115.510812 307.584 
L 116.268145 307.584 
L 116.268145 300.032503 
L 115.510812 300.032503 
z
" clip-path="url(#p39c2f5afea)" style="fill: #1f77b4"/>
   </g>
   <g id="patch_37">
    <path d="M 117.41851 307.584 
L 118.175843 307.584 
L 118.175843 304.282153 
L 117.41851 304.282153 
z
" clip-path="url(#p39c2f5afea)" style="fill: #1f77b4"/>
   </g>
   <g id="patch_38">
    <path d="M 123.054537 307.584 
L 123.81187 307.584 
L 123.81187 306.136504 
L 123.054537 306.136504 
z
" clip-path="url(#p39c2f5afea)" style="fill: #1f77b4"/>
   </g>
   <g id="patch_39">
    <path d="M 126.851386 307.584 
L 127.608719 307.584 
L 127.608719 304.030434 
L 126.851386 304.030434 
z
" clip-path="url(#p39c2f5afea)" style="fill: #1f77b4"/>
   </g>
   <g id="patch_40">
    <path d="M 128.744177 307.584 
L 129.50151 307.584 
L 129.50151 296.959574 
L 128.744177 296.959574 
z
" clip-path="url(#p39c2f5afea)" style="fill: #1f77b4"/>
   </g>
   <g id="patch_41">
    <path d="M 136.356452 307.584 
L 137.113785 307.584 
L 137.113785 304.870672 
L 136.356452 304.870672 
z
" clip-path="url(#p39c2f5afea)" style="fill: #1f77b4"/>
   </g>
   <g id="patch_42">
    <path d="M 139.153657 307.584 
L 139.91099 307.584 
L 139.91099 294.839923 
L 139.153657 294.839923 
z
" clip-path="url(#p39c2f5afea)" style="fill: #1f77b4"/>
   </g>
   <g id="patch_43">
    <path d="M 140.104021 307.584 
L 140.861355 307.584 
L 140.861355 302.02562 
L 140.104021 302.02562 
z
" clip-path="url(#p39c2f5afea)" style="fill: #1f77b4"/>
   </g>
   <g id="patch_44">
    <path d="M 141.992717 307.584 
L 142.75005 307.584 
L 142.75005 305.258238 
L 141.992717 305.258238 
z
" clip-path="url(#p39c2f5afea)" style="fill: #1f77b4"/>
   </g>
   <g id="patch_45">
    <path d="M 145.793611 307.584 
L 146.550944 307.584 
L 146.550944 302.503478 
L 145.793611 302.503478 
z
" clip-path="url(#p39c2f5afea)" style="fill: #1f77b4"/>
   </g>
   <g id="patch_46">
    <path d="M 157.153694 307.584 
L 157.911027 307.584 
L 157.911027 287.814102 
L 157.153694 287.814102 
z
" clip-path="url(#p39c2f5afea)" style="fill: #1f77b4"/>
   </g>
   <g id="patch_47">
    <path d="M 158.102368 307.584 
L 158.859701 307.584 
L 158.859701 306.057582 
L 158.102368 306.057582 
z
" clip-path="url(#p39c2f5afea)" style="fill: #1f77b4"/>
   </g>
   <g id="patch_48">
    <path d="M 159.076205 307.584 
L 159.833538 307.584 
L 159.833538 305.085402 
L 159.076205 305.085402 
z
" clip-path="url(#p39c2f5afea)" style="fill: #1f77b4"/>
   </g>
   <g id="patch_49">
    <path d="M 161.92633 307.584 
L 162.683663 307.584 
L 162.683663 305.658995 
L 161.92633 305.658995 
z
" clip-path="url(#p39c2f5afea)" style="fill: #1f77b4"/>
   </g>
   <g id="patch_50">
    <path d="M 162.839744 307.584 
L 163.597077 307.584 
L 163.597077 305.807911 
L 162.839744 305.807911 
z
" clip-path="url(#p39c2f5afea)" style="fill: #1f77b4"/>
   </g>
   <g id="patch_51">
    <path d="M 169.470366 307.584 
L 170.227699 307.584 
L 170.227699 304.391016 
L 169.470366 304.391016 
z
" clip-path="url(#p39c2f5afea)" style="fill: #1f77b4"/>
   </g>
   <g id="patch_52">
    <path d="M 170.424284 307.584 
L 171.181617 307.584 
L 171.181617 305.099812 
L 170.424284 305.099812 
z
" clip-path="url(#p39c2f5afea)" style="fill: #1f77b4"/>
   </g>
   <g id="patch_53">
    <path d="M 181.784034 307.584 
L 182.541367 307.584 
L 182.541367 305.650423 
L 181.784034 305.650423 
z
" clip-path="url(#p39c2f5afea)" style="fill: #1f77b4"/>
   </g>
   <g id="patch_54">
    <path d="M 181.796601 307.584 
L 182.553934 307.584 
L 182.553934 305.605643 
L 181.796601 305.605643 
z
" clip-path="url(#p39c2f5afea)" style="fill: #1f77b4"/>
   </g>
   <g id="patch_55">
    <path d="M 182.738472 307.584 
L 183.495805 307.584 
L 183.495805 292.637229 
L 182.738472 292.637229 
z
" clip-path="url(#p39c2f5afea)" style="fill: #1f77b4"/>
   </g>
   <g id="patch_56">
    <path d="M 183.689284 307.584 
L 184.446617 307.584 
L 184.446617 306.099967 
L 183.689284 306.099967 
z
" clip-path="url(#p39c2f5afea)" style="fill: #1f77b4"/>
   </g>
   <g id="patch_57">
    <path d="M 185.187431 307.584 
L 185.944764 307.584 
L 185.944764 306.097175 
L 185.187431 306.097175 
z
" clip-path="url(#p39c2f5afea)" style="fill: #1f77b4"/>
   </g>
   <g id="patch_58">
    <path d="M 186.895088 307.584 
L 187.652421 307.584 
L 187.652421 306.403754 
L 186.895088 306.403754 
z
" clip-path="url(#p39c2f5afea)" style="fill: #1f77b4"/>
   </g>
   <g id="patch_59">
    <path d="M 194.098165 307.584 
L 194.855498 307.584 
L 194.855498 305.696747 
L 194.098165 305.696747 
z
" clip-path="url(#p39c2f5afea)" style="fill: #1f77b4"/>
   </g>
   <g id="patch_60">
    <path d="M 196.918981 307.584 
L 197.676314 307.584 
L 197.676314 306.119303 
L 196.918981 306.119303 
z
" clip-path="url(#p39c2f5afea)" style="fill: #1f77b4"/>
   </g>
   <g id="patch_61">
    <path d="M 199.769568 307.584 
L 200.526901 307.584 
L 200.526901 304.324577 
L 199.769568 304.324577 
z
" clip-path="url(#p39c2f5afea)" style="fill: #1f77b4"/>
   </g>
   <g id="patch_62">
    <path d="M 205.458868 307.584 
L 206.216201 307.584 
L 206.216201 305.08695 
L 205.458868 305.08695 
z
" clip-path="url(#p39c2f5afea)" style="fill: #1f77b4"/>
   </g>
   <g id="patch_63">
    <path d="M 206.412757 307.584 
L 207.17009 307.584 
L 207.17009 306.27023 
L 206.412757 306.27023 
z
" clip-path="url(#p39c2f5afea)" style="fill: #1f77b4"/>
   </g>
   <g id="patch_64">
    <path d="M 207.366285 307.584 
L 208.123618 307.584 
L 208.123618 305.34708 
L 207.366285 305.34708 
z
" clip-path="url(#p39c2f5afea)" style="fill: #1f77b4"/>
   </g>
   <g id="patch_65">
    <path d="M 210.187549 307.584 
L 210.944882 307.584 
L 210.944882 304.777931 
L 210.187549 304.777931 
z
" clip-path="url(#p39c2f5afea)" style="fill: #1f77b4"/>
   </g>
   <g id="patch_66">
    <path d="M 222.542717 307.584 
L 223.30005 307.584 
L 223.30005 303.778018 
L 222.542717 303.778018 
z
" clip-path="url(#p39c2f5afea)" style="fill: #1f77b4"/>
   </g>
   <g id="patch_67">
    <path d="M 223.443593 307.584 
L 224.200926 307.584 
L 224.200926 261.867309 
L 223.443593 261.867309 
z
" clip-path="url(#p39c2f5afea)" style="fill: #1f77b4"/>
   </g>
   <g id="patch_68">
    <path d="M 224.397568 307.584 
L 225.154901 307.584 
L 225.154901 281.323753 
L 224.397568 281.323753 
z
" clip-path="url(#p39c2f5afea)" style="fill: #1f77b4"/>
   </g>
   <g id="patch_69">
    <path d="M 225.34786 307.584 
L 226.105193 307.584 
L 226.105193 304.864238 
L 225.34786 304.864238 
z
" clip-path="url(#p39c2f5afea)" style="fill: #1f77b4"/>
   </g>
   <g id="patch_70">
    <path d="M 233.84931 307.584 
L 234.606643 307.584 
L 234.606643 280.427736 
L 233.84931 280.427736 
z
" clip-path="url(#p39c2f5afea)" style="fill: #1f77b4"/>
   </g>
   <g id="patch_71">
    <path d="M 234.802505 307.584 
L 235.559838 307.584 
L 235.559838 301.226422 
L 234.802505 301.226422 
z
" clip-path="url(#p39c2f5afea)" style="fill: #1f77b4"/>
   </g>
   <g id="patch_72">
    <path d="M 235.757665 307.584 
L 236.514998 307.584 
L 236.514998 276.134321 
L 235.757665 276.134321 
z
" clip-path="url(#p39c2f5afea)" style="fill: #1f77b4"/>
   </g>
   <g id="patch_73">
    <path d="M 236.708651 307.584 
L 237.465984 307.584 
L 237.465984 305.131042 
L 236.708651 305.131042 
z
" clip-path="url(#p39c2f5afea)" style="fill: #1f77b4"/>
   </g>
   <g id="patch_74">
    <path d="M 245.210129 307.584 
L 245.967462 307.584 
L 245.967462 305.671737 
L 245.210129 305.671737 
z
" clip-path="url(#p39c2f5afea)" style="fill: #1f77b4"/>
   </g>
   <g id="patch_75">
    <path d="M 246.163426 307.584 
L 246.920759 307.584 
L 246.920759 236.232132 
L 246.163426 236.232132 
z
" clip-path="url(#p39c2f5afea)" style="fill: #1f77b4"/>
   </g>
   <g id="patch_76">
    <path d="M 247.117199 307.584 
L 247.874532 307.584 
L 247.874532 265.38908 
L 247.117199 265.38908 
z
" clip-path="url(#p39c2f5afea)" style="fill: #1f77b4"/>
   </g>
   <g id="patch_77">
    <path d="M 248.068286 307.584 
L 248.825619 307.584 
L 248.825619 303.040139 
L 248.068286 303.040139 
z
" clip-path="url(#p39c2f5afea)" style="fill: #1f77b4"/>
   </g>
   <g id="patch_78">
    <path d="M 249.026667 307.584 
L 249.784 307.584 
L 249.784 286.515917 
L 249.026667 286.515917 
z
" clip-path="url(#p39c2f5afea)" style="fill: #1f77b4"/>
   </g>
   <g id="patch_79">
    <path d="M 249.97524 307.584 
L 250.732573 307.584 
L 250.732573 305.176435 
L 249.97524 305.176435 
z
" clip-path="url(#p39c2f5afea)" style="fill: #1f77b4"/>
   </g>
   <g id="patch_80">
    <path d="M 254.715014 307.584 
L 255.472347 307.584 
L 255.472347 304.590949 
L 254.715014 304.590949 
z
" clip-path="url(#p39c2f5afea)" style="fill: #1f77b4"/>
   </g>
   <g id="patch_81">
    <path d="M 257.523942 307.584 
L 258.281275 307.584 
L 258.281275 303.643193 
L 257.523942 303.643193 
z
" clip-path="url(#p39c2f5afea)" style="fill: #1f77b4"/>
   </g>
   <g id="patch_82">
    <path d="M 258.477643 307.584 
L 259.234976 307.584 
L 259.234976 103.337438 
L 258.477643 103.337438 
z
" clip-path="url(#p39c2f5afea)" style="fill: #1f77b4"/>
   </g>
   <g id="patch_83">
    <path d="M 259.429755 307.584 
L 260.187088 307.584 
L 260.187088 261.324409 
L 259.429755 261.324409 
z
" clip-path="url(#p39c2f5afea)" style="fill: #1f77b4"/>
   </g>
   <g id="patch_84">
    <path d="M 260.359723 307.584 
L 261.117056 307.584 
L 261.117056 306.271281 
L 260.359723 306.271281 
z
" clip-path="url(#p39c2f5afea)" style="fill: #1f77b4"/>
   </g>
   <g id="patch_85">
    <path d="M 260.367046 307.584 
L 261.124379 307.584 
L 261.124379 306.462169 
L 260.367046 306.462169 
z
" clip-path="url(#p39c2f5afea)" style="fill: #1f77b4"/>
   </g>
   <g id="patch_86">
    <path d="M 260.385565 307.584 
L 261.142898 307.584 
L 261.142898 235.163723 
L 260.385565 235.163723 
z
" clip-path="url(#p39c2f5afea)" style="fill: #1f77b4"/>
   </g>
   <g id="patch_87">
    <path d="M 261.336435 307.584 
L 262.093768 307.584 
L 262.093768 297.91533 
L 261.336435 297.91533 
z
" clip-path="url(#p39c2f5afea)" style="fill: #1f77b4"/>
   </g>
   <g id="patch_88">
    <path d="M 263.247968 307.584 
L 264.005301 307.584 
L 264.005301 251.915641 
L 263.247968 251.915641 
z
" clip-path="url(#p39c2f5afea)" style="fill: #1f77b4"/>
   </g>
   <g id="patch_89">
    <path d="M 263.273969 307.584 
L 264.031302 307.584 
L 264.031302 305.762144 
L 263.273969 305.762144 
z
" clip-path="url(#p39c2f5afea)" style="fill: #1f77b4"/>
   </g>
   <g id="patch_90">
    <path d="M 264.166784 307.584 
L 264.924117 307.584 
L 264.924117 289.552151 
L 264.166784 289.552151 
z
" clip-path="url(#p39c2f5afea)" style="fill: #1f77b4"/>
   </g>
   <g id="patch_91">
    <path d="M 264.201409 307.584 
L 264.958742 307.584 
L 264.958742 275.69704 
L 264.201409 275.69704 
z
" clip-path="url(#p39c2f5afea)" style="fill: #1f77b4"/>
   </g>
   <g id="patch_92">
    <path d="M 265.116282 307.584 
L 265.873615 307.584 
L 265.873615 305.047481 
L 265.116282 305.047481 
z
" clip-path="url(#p39c2f5afea)" style="fill: #1f77b4"/>
   </g>
   <g id="patch_93">
    <path d="M 265.152943 307.584 
L 265.910276 307.584 
L 265.910276 304.594658 
L 265.152943 304.594658 
z
" clip-path="url(#p39c2f5afea)" style="fill: #1f77b4"/>
   </g>
   <g id="patch_94">
    <path d="M 268.883504 307.584 
L 269.640837 307.584 
L 269.640837 296.361568 
L 268.883504 296.361568 
z
" clip-path="url(#p39c2f5afea)" style="fill: #1f77b4"/>
   </g>
   <g id="patch_95">
    <path d="M 269.836613 307.584 
L 270.593946 307.584 
L 270.593946 298.195025 
L 269.836613 298.195025 
z
" clip-path="url(#p39c2f5afea)" style="fill: #1f77b4"/>
   </g>
   <g id="patch_96">
    <path d="M 270.791138 307.584 
L 271.548471 307.584 
L 271.548471 289.988541 
L 270.791138 289.988541 
z
" clip-path="url(#p39c2f5afea)" style="fill: #1f77b4"/>
   </g>
   <g id="patch_97">
    <path d="M 271.745575 307.584 
L 272.502908 307.584 
L 272.502908 230.637841 
L 271.745575 230.637841 
z
" clip-path="url(#p39c2f5afea)" style="fill: #1f77b4"/>
   </g>
   <g id="patch_98">
    <path d="M 272.698077 307.584 
L 273.45541 307.584 
L 273.45541 287.009409 
L 272.698077 287.009409 
z
" clip-path="url(#p39c2f5afea)" style="fill: #1f77b4"/>
   </g>
   <g id="patch_99">
    <path d="M 273.653844 307.584 
L 274.411177 307.584 
L 274.411177 161.604042 
L 273.653844 161.604042 
z
" clip-path="url(#p39c2f5afea)" style="fill: #1f77b4"/>
   </g>
   <g id="patch_100">
    <path d="M 274.603804 307.584 
L 275.361137 307.584 
L 275.361137 287.208013 
L 274.603804 287.208013 
z
" clip-path="url(#p39c2f5afea)" style="fill: #1f77b4"/>
   </g>
   <g id="patch_101">
    <path d="M 275.562171 307.584 
L 276.319504 307.584 
L 276.319504 288.924743 
L 275.562171 288.924743 
z
" clip-path="url(#p39c2f5afea)" style="fill: #1f77b4"/>
   </g>
   <g id="patch_102">
    <path d="M 276.511957 307.584 
L 277.26929 307.584 
L 277.26929 304.050211 
L 276.511957 304.050211 
z
" clip-path="url(#p39c2f5afea)" style="fill: #1f77b4"/>
   </g>
   <g id="patch_103">
    <path d="M 277.433894 307.584 
L 278.191227 307.584 
L 278.191227 300.252988 
L 277.433894 300.252988 
z
" clip-path="url(#p39c2f5afea)" style="fill: #1f77b4"/>
   </g>
   <g id="patch_104">
    <path d="M 281.197678 307.584 
L 281.955011 307.584 
L 281.955011 286.786266 
L 281.197678 286.786266 
z
" clip-path="url(#p39c2f5afea)" style="fill: #1f77b4"/>
   </g>
   <g id="patch_105">
    <path d="M 282.15096 307.584 
L 282.908293 307.584 
L 282.908293 275.536151 
L 282.15096 275.536151 
z
" clip-path="url(#p39c2f5afea)" style="fill: #1f77b4"/>
   </g>
   <g id="patch_106">
    <path d="M 283.1056 307.584 
L 283.862933 307.584 
L 283.862933 108.038522 
L 283.1056 108.038522 
z
" clip-path="url(#p39c2f5afea)" style="fill: #1f77b4"/>
   </g>
   <g id="patch_107">
    <path d="M 284.056802 307.584 
L 284.814135 307.584 
L 284.814135 263.022525 
L 284.056802 263.022525 
z
" clip-path="url(#p39c2f5afea)" style="fill: #1f77b4"/>
   </g>
   <g id="patch_108">
    <path d="M 285.013407 307.584 
L 285.77074 307.584 
L 285.77074 290.528636 
L 285.013407 290.528636 
z
" clip-path="url(#p39c2f5afea)" style="fill: #1f77b4"/>
   </g>
   <g id="patch_109">
    <path d="M 285.967844 307.584 
L 286.725177 307.584 
L 286.725177 243.674611 
L 285.967844 243.674611 
z
" clip-path="url(#p39c2f5afea)" style="fill: #1f77b4"/>
   </g>
   <g id="patch_110">
    <path d="M 286.920115 307.584 
L 287.677448 307.584 
L 287.677448 289.380059 
L 286.920115 289.380059 
z
" clip-path="url(#p39c2f5afea)" style="fill: #1f77b4"/>
   </g>
   <g id="patch_111">
    <path d="M 291.139032 307.584 
L 291.896365 307.584 
L 291.896365 306.414189 
L 291.139032 306.414189 
z
" clip-path="url(#p39c2f5afea)" style="fill: #1f77b4"/>
   </g>
   <g id="patch_112">
    <path d="M 294.46704 307.584 
L 295.224374 307.584 
L 295.224374 301.737071 
L 294.46704 301.737071 
z
" clip-path="url(#p39c2f5afea)" style="fill: #1f77b4"/>
   </g>
   <g id="patch_113">
    <path d="M 295.418416 307.584 
L 296.175749 307.584 
L 296.175749 299.862914 
L 295.418416 299.862914 
z
" clip-path="url(#p39c2f5afea)" style="fill: #1f77b4"/>
   </g>
   <g id="patch_114">
    <path d="M 296.34639 307.584 
L 297.103723 307.584 
L 297.103723 305.770813 
L 296.34639 305.770813 
z
" clip-path="url(#p39c2f5afea)" style="fill: #1f77b4"/>
   </g>
   <g id="patch_115">
    <path d="M 296.37372 307.584 
L 297.131053 307.584 
L 297.131053 211.420313 
L 296.37372 211.420313 
z
" clip-path="url(#p39c2f5afea)" style="fill: #1f77b4"/>
   </g>
   <g id="patch_116">
    <path d="M 297.324287 307.584 
L 298.08162 307.584 
L 298.08162 291.485503 
L 297.324287 291.485503 
z
" clip-path="url(#p39c2f5afea)" style="fill: #1f77b4"/>
   </g>
   <g id="patch_117">
    <path d="M 298.281874 307.584 
L 299.039207 307.584 
L 299.039207 54.144 
L 298.281874 54.144 
z
" clip-path="url(#p39c2f5afea)" style="fill: #1f77b4"/>
   </g>
   <g id="patch_118">
    <path d="M 299.231949 307.584 
L 299.989282 307.584 
L 299.989282 270.510973 
L 299.231949 270.510973 
z
" clip-path="url(#p39c2f5afea)" style="fill: #1f77b4"/>
   </g>
   <g id="patch_119">
    <path d="M 300.155908 307.584 
L 300.913241 307.584 
L 300.913241 295.947361 
L 300.155908 295.947361 
z
" clip-path="url(#p39c2f5afea)" style="fill: #1f77b4"/>
   </g>
   <g id="patch_120">
    <path d="M 300.190373 307.584 
L 300.947706 307.584 
L 300.947706 278.724744 
L 300.190373 278.724744 
z
" clip-path="url(#p39c2f5afea)" style="fill: #1f77b4"/>
   </g>
   <g id="patch_121">
    <path d="M 301.140131 307.584 
L 301.897464 307.584 
L 301.897464 301.785655 
L 301.140131 301.785655 
z
" clip-path="url(#p39c2f5afea)" style="fill: #1f77b4"/>
   </g>
   <g id="patch_122">
    <path d="M 303.971636 307.584 
L 304.728969 307.584 
L 304.728969 305.620232 
L 303.971636 305.620232 
z
" clip-path="url(#p39c2f5afea)" style="fill: #1f77b4"/>
   </g>
   <g id="patch_123">
    <path d="M 305.825447 307.584 
L 306.582781 307.584 
L 306.582781 304.335436 
L 305.825447 304.335436 
z
" clip-path="url(#p39c2f5afea)" style="fill: #1f77b4"/>
   </g>
   <g id="patch_124">
    <path d="M 306.77821 307.584 
L 307.535543 307.584 
L 307.535543 304.690644 
L 306.77821 304.690644 
z
" clip-path="url(#p39c2f5afea)" style="fill: #1f77b4"/>
   </g>
   <g id="patch_125">
    <path d="M 308.657155 307.584 
L 309.414488 307.584 
L 309.414488 306.351063 
L 308.657155 306.351063 
z
" clip-path="url(#p39c2f5afea)" style="fill: #1f77b4"/>
   </g>
   <g id="patch_126">
    <path d="M 308.687201 307.584 
L 309.444534 307.584 
L 309.444534 303.625409 
L 308.687201 303.625409 
z
" clip-path="url(#p39c2f5afea)" style="fill: #1f77b4"/>
   </g>
   <g id="patch_127">
    <path d="M 309.642303 307.584 
L 310.399636 307.584 
L 310.399636 302.212377 
L 309.642303 302.212377 
z
" clip-path="url(#p39c2f5afea)" style="fill: #1f77b4"/>
   </g>
   <g id="patch_128">
    <path d="M 310.596076 307.584 
L 311.353409 307.584 
L 311.353409 304.299285 
L 310.596076 304.299285 
z
" clip-path="url(#p39c2f5afea)" style="fill: #1f77b4"/>
   </g>
   <g id="patch_129">
    <path d="M 311.549734 307.584 
L 312.307067 307.584 
L 312.307067 301.533875 
L 311.549734 301.533875 
z
" clip-path="url(#p39c2f5afea)" style="fill: #1f77b4"/>
   </g>
   <g id="patch_130">
    <path d="M 312.503276 307.584 
L 313.260609 307.584 
L 313.260609 305.261092 
L 312.503276 305.261092 
z
" clip-path="url(#p39c2f5afea)" style="fill: #1f77b4"/>
   </g>
   <g id="patch_131">
    <path d="M 313.430441 307.584 
L 314.187775 307.584 
L 314.187775 305.226023 
L 313.430441 305.226023 
z
" clip-path="url(#p39c2f5afea)" style="fill: #1f77b4"/>
   </g>
   <g id="patch_132">
    <path d="M 313.458147 307.584 
L 314.21548 307.584 
L 314.21548 206.738147 
L 313.458147 206.738147 
z
" clip-path="url(#p39c2f5afea)" style="fill: #1f77b4"/>
   </g>
   <g id="patch_133">
    <path d="M 314.376877 307.584 
L 315.13421 307.584 
L 315.13421 305.250266 
L 314.376877 305.250266 
z
" clip-path="url(#p39c2f5afea)" style="fill: #1f77b4"/>
   </g>
   <g id="patch_134">
    <path d="M 314.407818 307.584 
L 315.165151 307.584 
L 315.165151 292.600574 
L 314.407818 292.600574 
z
" clip-path="url(#p39c2f5afea)" style="fill: #1f77b4"/>
   </g>
   <g id="patch_135">
    <path d="M 315.331343 307.584 
L 316.088676 307.584 
L 316.088676 292.844898 
L 315.331343 292.844898 
z
" clip-path="url(#p39c2f5afea)" style="fill: #1f77b4"/>
   </g>
   <g id="patch_136">
    <path d="M 321.001894 307.584 
L 321.759227 307.584 
L 321.759227 302.524022 
L 321.001894 302.524022 
z
" clip-path="url(#p39c2f5afea)" style="fill: #1f77b4"/>
   </g>
   <g id="patch_137">
    <path d="M 322.875697 307.584 
L 323.63303 307.584 
L 323.63303 262.263891 
L 322.875697 262.263891 
z
" clip-path="url(#p39c2f5afea)" style="fill: #1f77b4"/>
   </g>
   <g id="patch_138">
    <path d="M 322.910596 307.584 
L 323.667929 307.584 
L 323.667929 258.89099 
L 322.910596 258.89099 
z
" clip-path="url(#p39c2f5afea)" style="fill: #1f77b4"/>
   </g>
   <g id="patch_139">
    <path d="M 323.82557 307.584 
L 324.582903 307.584 
L 324.582903 301.869649 
L 323.82557 301.869649 
z
" clip-path="url(#p39c2f5afea)" style="fill: #1f77b4"/>
   </g>
   <g id="patch_140">
    <path d="M 323.861827 307.584 
L 324.61916 307.584 
L 324.61916 291.029151 
L 323.861827 291.029151 
z
" clip-path="url(#p39c2f5afea)" style="fill: #1f77b4"/>
   </g>
   <g id="patch_141">
    <path d="M 336.177908 307.584 
L 336.935241 307.584 
L 336.935241 285.922988 
L 336.177908 285.922988 
z
" clip-path="url(#p39c2f5afea)" style="fill: #1f77b4"/>
   </g>
   <g id="patch_142">
    <path d="M 337.128214 307.584 
L 337.885547 307.584 
L 337.885547 304.342569 
L 337.128214 304.342569 
z
" clip-path="url(#p39c2f5afea)" style="fill: #1f77b4"/>
   </g>
   <g id="patch_143">
    <path d="M 338.016725 307.584 
L 338.774058 307.584 
L 338.774058 304.64346 
L 338.016725 304.64346 
z
" clip-path="url(#p39c2f5afea)" style="fill: #1f77b4"/>
   </g>
   <g id="patch_144">
    <path d="M 338.084154 307.584 
L 338.841487 307.584 
L 338.841487 301.906591 
L 338.084154 301.906591 
z
" clip-path="url(#p39c2f5afea)" style="fill: #1f77b4"/>
   </g>
   <g id="patch_145">
    <path d="M 338.971336 307.584 
L 339.728669 307.584 
L 339.728669 274.014899 
L 338.971336 274.014899 
z
" clip-path="url(#p39c2f5afea)" style="fill: #1f77b4"/>
   </g>
   <g id="patch_146">
    <path d="M 339.925716 307.584 
L 340.683049 307.584 
L 340.683049 123.039104 
L 339.925716 123.039104 
z
" clip-path="url(#p39c2f5afea)" style="fill: #1f77b4"/>
   </g>
   <g id="patch_147">
    <path d="M 339.959431 307.584 
L 340.716764 307.584 
L 340.716764 294.150165 
L 339.959431 294.150165 
z
" clip-path="url(#p39c2f5afea)" style="fill: #1f77b4"/>
   </g>
   <g id="patch_148">
    <path d="M 340.875214 307.584 
L 341.632547 307.584 
L 341.632547 275.43965 
L 340.875214 275.43965 
z
" clip-path="url(#p39c2f5afea)" style="fill: #1f77b4"/>
   </g>
   <g id="patch_149">
    <path d="M 340.909621 307.584 
L 341.666955 307.584 
L 341.666955 305.007991 
L 340.909621 305.007991 
z
" clip-path="url(#p39c2f5afea)" style="fill: #1f77b4"/>
   </g>
   <g id="patch_150">
    <path d="M 355.072811 307.584 
L 355.830144 307.584 
L 355.830144 306.157134 
L 355.072811 306.157134 
z
" clip-path="url(#p39c2f5afea)" style="fill: #1f77b4"/>
   </g>
   <g id="patch_151">
    <path d="M 355.136369 307.584 
L 355.893702 307.584 
L 355.893702 279.375283 
L 355.136369 279.375283 
z
" clip-path="url(#p39c2f5afea)" style="fill: #1f77b4"/>
   </g>
   <g id="patch_152">
    <path d="M 356.021441 307.584 
L 356.778774 307.584 
L 356.778774 298.799461 
L 356.021441 298.799461 
z
" clip-path="url(#p39c2f5afea)" style="fill: #1f77b4"/>
   </g>
   <g id="patch_153">
    <path d="M 356.085519 307.584 
L 356.842852 307.584 
L 356.842852 302.798507 
L 356.085519 302.798507 
z
" clip-path="url(#p39c2f5afea)" style="fill: #1f77b4"/>
   </g>
   <g id="patch_154">
    <path d="M 356.975677 307.584 
L 357.73301 307.584 
L 357.73301 283.940394 
L 356.975677 283.940394 
z
" clip-path="url(#p39c2f5afea)" style="fill: #1f77b4"/>
   </g>
   <g id="patch_155">
    <path d="M 357.92295 307.584 
L 358.680283 307.584 
L 358.680283 305.313738 
L 357.92295 305.313738 
z
" clip-path="url(#p39c2f5afea)" style="fill: #1f77b4"/>
   </g>
   <g id="patch_156">
    <path d="M 360.0446 307.584 
L 360.801933 307.584 
L 360.801933 306.010344 
L 360.0446 306.010344 
z
" clip-path="url(#p39c2f5afea)" style="fill: #1f77b4"/>
   </g>
   <g id="patch_157">
    <path d="M 362.681156 307.584 
L 363.438489 307.584 
L 363.438489 297.588063 
L 362.681156 297.588063 
z
" clip-path="url(#p39c2f5afea)" style="fill: #1f77b4"/>
   </g>
   <g id="patch_158">
    <path d="M 363.631693 307.584 
L 364.389026 307.584 
L 364.389026 305.348867 
L 363.631693 305.348867 
z
" clip-path="url(#p39c2f5afea)" style="fill: #1f77b4"/>
   </g>
   <g id="patch_159">
    <path d="M 377.819497 307.584 
L 378.57683 307.584 
L 378.57683 305.946392 
L 377.819497 305.946392 
z
" clip-path="url(#p39c2f5afea)" style="fill: #1f77b4"/>
   </g>
   <g id="patch_160">
    <path d="M 379.730077 307.584 
L 380.48741 307.584 
L 380.48741 90.50665 
L 379.730077 90.50665 
z
" clip-path="url(#p39c2f5afea)" style="fill: #1f77b4"/>
   </g>
   <g id="patch_161">
    <path d="M 380.680037 307.584 
L 381.43737 307.584 
L 381.43737 266.668331 
L 380.680037 266.668331 
z
" clip-path="url(#p39c2f5afea)" style="fill: #1f77b4"/>
   </g>
   <g id="patch_162">
    <path d="M 396.729942 307.584 
L 397.487276 307.584 
L 397.487276 305.137985 
L 396.729942 305.137985 
z
" clip-path="url(#p39c2f5afea)" style="fill: #1f77b4"/>
   </g>
   <g id="patch_163">
    <path d="M 396.780153 307.584 
L 397.537486 307.584 
L 397.537486 226.10961 
L 396.780153 226.10961 
z
" clip-path="url(#p39c2f5afea)" style="fill: #1f77b4"/>
   </g>
   <g id="patch_164">
    <path d="M 397.72994 307.584 
L 398.487273 307.584 
L 398.487273 291.185879 
L 397.72994 291.185879 
z
" clip-path="url(#p39c2f5afea)" style="fill: #1f77b4"/>
   </g>
   <g id="matplotlib.axis_1">
    <g id="xtick_1">
     <g id="line2d_1">
      <defs>
       <path id="me9a8c94411" d="M 0 0 
L 0 3.5 
" style="stroke: #000000; stroke-width: 0.8"/>
      </defs>
      <g>
       <use xlink:href="#me9a8c94411" x="71.334228" y="307.584" style="stroke: #000000; stroke-width: 0.8"/>
      </g>
     </g>
     <g id="text_1">
      <!-- 50 -->
      <g transform="translate(64.971728 322.182437) scale(0.1 -0.1)">
       <defs>
        <path id="DejaVuSans-35" d="M 691 4666 
L 3169 4666 
L 3169 4134 
L 1269 4134 
L 1269 2991 
Q 1406 3038 1543 3061 
Q 1681 3084 1819 3084 
Q 2600 3084 3056 2656 
Q 3513 2228 3513 1497 
Q 3513 744 3044 326 
Q 2575 -91 1722 -91 
Q 1428 -91 1123 -41 
Q 819 9 494 109 
L 494 744 
Q 775 591 1075 516 
Q 1375 441 1709 441 
Q 2250 441 2565 725 
Q 2881 1009 2881 1497 
Q 2881 1984 2565 2268 
Q 2250 2553 1709 2553 
Q 1456 2553 1204 2497 
Q 953 2441 691 2322 
L 691 4666 
z
" transform="scale(0.015625)"/>
        <path id="DejaVuSans-30" d="M 2034 4250 
Q 1547 4250 1301 3770 
Q 1056 3291 1056 2328 
Q 1056 1369 1301 889 
Q 1547 409 2034 409 
Q 2525 409 2770 889 
Q 3016 1369 3016 2328 
Q 3016 3291 2770 3770 
Q 2525 4250 2034 4250 
z
M 2034 4750 
Q 2819 4750 3233 4129 
Q 3647 3509 3647 2328 
Q 3647 1150 3233 529 
Q 2819 -91 2034 -91 
Q 1250 -91 836 529 
Q 422 1150 422 2328 
Q 422 3509 836 4129 
Q 1250 4750 2034 4750 
z
" transform="scale(0.015625)"/>
       </defs>
       <use xlink:href="#DejaVuSans-35"/>
       <use xlink:href="#DejaVuSans-30" x="63.623047"/>
      </g>
     </g>
    </g>
    <g id="xtick_2">
     <g id="line2d_2">
      <g>
       <use xlink:href="#me9a8c94411" x="118.667544" y="307.584" style="stroke: #000000; stroke-width: 0.8"/>
      </g>
     </g>
     <g id="text_2">
      <!-- 100 -->
      <g transform="translate(109.123794 322.182437) scale(0.1 -0.1)">
       <defs>
        <path id="DejaVuSans-31" d="M 794 531 
L 1825 531 
L 1825 4091 
L 703 3866 
L 703 4441 
L 1819 4666 
L 2450 4666 
L 2450 531 
L 3481 531 
L 3481 0 
L 794 0 
L 794 531 
z
" transform="scale(0.015625)"/>
       </defs>
       <use xlink:href="#DejaVuSans-31"/>
       <use xlink:href="#DejaVuSans-30" x="63.623047"/>
       <use xlink:href="#DejaVuSans-30" x="127.246094"/>
      </g>
     </g>
    </g>
    <g id="xtick_3">
     <g id="line2d_3">
      <g>
       <use xlink:href="#me9a8c94411" x="166.000861" y="307.584" style="stroke: #000000; stroke-width: 0.8"/>
      </g>
     </g>
     <g id="text_3">
      <!-- 150 -->
      <g transform="translate(156.457111 322.182437) scale(0.1 -0.1)">
       <use xlink:href="#DejaVuSans-31"/>
       <use xlink:href="#DejaVuSans-35" x="63.623047"/>
       <use xlink:href="#DejaVuSans-30" x="127.246094"/>
      </g>
     </g>
    </g>
    <g id="xtick_4">
     <g id="line2d_4">
      <g>
       <use xlink:href="#me9a8c94411" x="213.334177" y="307.584" style="stroke: #000000; stroke-width: 0.8"/>
      </g>
     </g>
     <g id="text_4">
      <!-- 200 -->
      <g transform="translate(203.790427 322.182437) scale(0.1 -0.1)">
       <defs>
        <path id="DejaVuSans-32" d="M 1228 531 
L 3431 531 
L 3431 0 
L 469 0 
L 469 531 
Q 828 903 1448 1529 
Q 2069 2156 2228 2338 
Q 2531 2678 2651 2914 
Q 2772 3150 2772 3378 
Q 2772 3750 2511 3984 
Q 2250 4219 1831 4219 
Q 1534 4219 1204 4116 
Q 875 4013 500 3803 
L 500 4441 
Q 881 4594 1212 4672 
Q 1544 4750 1819 4750 
Q 2544 4750 2975 4387 
Q 3406 4025 3406 3419 
Q 3406 3131 3298 2873 
Q 3191 2616 2906 2266 
Q 2828 2175 2409 1742 
Q 1991 1309 1228 531 
z
" transform="scale(0.015625)"/>
       </defs>
       <use xlink:href="#DejaVuSans-32"/>
       <use xlink:href="#DejaVuSans-30" x="63.623047"/>
       <use xlink:href="#DejaVuSans-30" x="127.246094"/>
      </g>
     </g>
    </g>
    <g id="xtick_5">
     <g id="line2d_5">
      <g>
       <use xlink:href="#me9a8c94411" x="260.667493" y="307.584" style="stroke: #000000; stroke-width: 0.8"/>
      </g>
     </g>
     <g id="text_5">
      <!-- 250 -->
      <g transform="translate(251.123743 322.182437) scale(0.1 -0.1)">
       <use xlink:href="#DejaVuSans-32"/>
       <use xlink:href="#DejaVuSans-35" x="63.623047"/>
       <use xlink:href="#DejaVuSans-30" x="127.246094"/>
      </g>
     </g>
    </g>
    <g id="xtick_6">
     <g id="line2d_6">
      <g>
       <use xlink:href="#me9a8c94411" x="308.00081" y="307.584" style="stroke: #000000; stroke-width: 0.8"/>
      </g>
     </g>
     <g id="text_6">
      <!-- 300 -->
      <g transform="translate(298.45706 322.182437) scale(0.1 -0.1)">
       <defs>
        <path id="DejaVuSans-33" d="M 2597 2516 
Q 3050 2419 3304 2112 
Q 3559 1806 3559 1356 
Q 3559 666 3084 287 
Q 2609 -91 1734 -91 
Q 1441 -91 1130 -33 
Q 819 25 488 141 
L 488 750 
Q 750 597 1062 519 
Q 1375 441 1716 441 
Q 2309 441 2620 675 
Q 2931 909 2931 1356 
Q 2931 1769 2642 2001 
Q 2353 2234 1838 2234 
L 1294 2234 
L 1294 2753 
L 1863 2753 
Q 2328 2753 2575 2939 
Q 2822 3125 2822 3475 
Q 2822 3834 2567 4026 
Q 2313 4219 1838 4219 
Q 1578 4219 1281 4162 
Q 984 4106 628 3988 
L 628 4550 
Q 988 4650 1302 4700 
Q 1616 4750 1894 4750 
Q 2613 4750 3031 4423 
Q 3450 4097 3450 3541 
Q 3450 3153 3228 2886 
Q 3006 2619 2597 2516 
z
" transform="scale(0.015625)"/>
       </defs>
       <use xlink:href="#DejaVuSans-33"/>
       <use xlink:href="#DejaVuSans-30" x="63.623047"/>
       <use xlink:href="#DejaVuSans-30" x="127.246094"/>
      </g>
     </g>
    </g>
    <g id="xtick_7">
     <g id="line2d_7">
      <g>
       <use xlink:href="#me9a8c94411" x="355.334126" y="307.584" style="stroke: #000000; stroke-width: 0.8"/>
      </g>
     </g>
     <g id="text_7">
      <!-- 350 -->
      <g transform="translate(345.790376 322.182437) scale(0.1 -0.1)">
       <use xlink:href="#DejaVuSans-33"/>
       <use xlink:href="#DejaVuSans-35" x="63.623047"/>
       <use xlink:href="#DejaVuSans-30" x="127.246094"/>
      </g>
     </g>
    </g>
    <g id="xtick_8">
     <g id="line2d_8">
      <g>
       <use xlink:href="#me9a8c94411" x="402.667442" y="307.584" style="stroke: #000000; stroke-width: 0.8"/>
      </g>
     </g>
     <g id="text_8">
      <!-- 400 -->
      <g transform="translate(393.123692 322.182437) scale(0.1 -0.1)">
       <defs>
        <path id="DejaVuSans-34" d="M 2419 4116 
L 825 1625 
L 2419 1625 
L 2419 4116 
z
M 2253 4666 
L 3047 4666 
L 3047 1625 
L 3713 1625 
L 3713 1100 
L 3047 1100 
L 3047 0 
L 2419 0 
L 2419 1100 
L 313 1100 
L 313 1709 
L 2253 4666 
z
" transform="scale(0.015625)"/>
       </defs>
       <use xlink:href="#DejaVuSans-34"/>
       <use xlink:href="#DejaVuSans-30" x="63.623047"/>
       <use xlink:href="#DejaVuSans-30" x="127.246094"/>
      </g>
     </g>
    </g>
    <g id="text_9">
     <!-- ${m/z}$ -->
     <g transform="translate(226.96 335.860562) scale(0.1 -0.1)">
      <defs>
       <path id="DejaVuSans-Oblique-6d" d="M 5747 2113 
L 5338 0 
L 4763 0 
L 5166 2094 
Q 5191 2228 5203 2325 
Q 5216 2422 5216 2491 
Q 5216 2772 5059 2928 
Q 4903 3084 4622 3084 
Q 4203 3084 3875 2770 
Q 3547 2456 3450 1953 
L 3066 0 
L 2491 0 
L 2900 2094 
Q 2925 2209 2937 2307 
Q 2950 2406 2950 2484 
Q 2950 2769 2794 2926 
Q 2638 3084 2363 3084 
Q 1938 3084 1609 2770 
Q 1281 2456 1184 1953 
L 800 0 
L 225 0 
L 909 3500 
L 1484 3500 
L 1375 2956 
Q 1609 3263 1923 3423 
Q 2238 3584 2597 3584 
Q 2978 3584 3223 3384 
Q 3469 3184 3519 2828 
Q 3781 3197 4126 3390 
Q 4472 3584 4856 3584 
Q 5306 3584 5551 3325 
Q 5797 3066 5797 2591 
Q 5797 2488 5784 2364 
Q 5772 2241 5747 2113 
z
" transform="scale(0.015625)"/>
       <path id="DejaVuSans-2f" d="M 1625 4666 
L 2156 4666 
L 531 -594 
L 0 -594 
L 1625 4666 
z
" transform="scale(0.015625)"/>
       <path id="DejaVuSans-Oblique-7a" d="M 744 3500 
L 3475 3500 
L 3372 2975 
L 738 459 
L 2913 459 
L 2822 0 
L -19 0 
L 84 525 
L 2719 3041 
L 653 3041 
L 744 3500 
z
" transform="scale(0.015625)"/>
      </defs>
      <use xlink:href="#DejaVuSans-Oblique-6d" transform="translate(0 0.09375)"/>
      <use xlink:href="#DejaVuSans-2f" transform="translate(97.412109 0.09375)"/>
      <use xlink:href="#DejaVuSans-Oblique-7a" transform="translate(131.103516 0.09375)"/>
     </g>
    </g>
   </g>
   <g id="matplotlib.axis_2">
    <g id="ytick_1">
     <g id="line2d_9">
      <defs>
       <path id="m36340eb2fa" d="M 0 0 
L -3.5 0 
" style="stroke: #000000; stroke-width: 0.8"/>
      </defs>
      <g>
       <use xlink:href="#m36340eb2fa" x="57.6" y="307.584" style="stroke: #000000; stroke-width: 0.8"/>
      </g>
     </g>
     <g id="text_10">
      <!-- 0 -->
      <g transform="translate(44.2375 311.383219) scale(0.1 -0.1)">
       <use xlink:href="#DejaVuSans-30"/>
      </g>
     </g>
    </g>
    <g id="ytick_2">
     <g id="line2d_10">
      <g>
       <use xlink:href="#m36340eb2fa" x="57.6" y="265.615466" style="stroke: #000000; stroke-width: 0.8"/>
      </g>
     </g>
     <g id="text_11">
      <!-- 1 -->
      <g transform="translate(44.2375 269.414685) scale(0.1 -0.1)">
       <use xlink:href="#DejaVuSans-31"/>
      </g>
     </g>
    </g>
    <g id="ytick_3">
     <g id="line2d_11">
      <g>
       <use xlink:href="#m36340eb2fa" x="57.6" y="223.646933" style="stroke: #000000; stroke-width: 0.8"/>
      </g>
     </g>
     <g id="text_12">
      <!-- 2 -->
      <g transform="translate(44.2375 227.446152) scale(0.1 -0.1)">
       <use xlink:href="#DejaVuSans-32"/>
      </g>
     </g>
    </g>
    <g id="ytick_4">
     <g id="line2d_12">
      <g>
       <use xlink:href="#m36340eb2fa" x="57.6" y="181.678399" style="stroke: #000000; stroke-width: 0.8"/>
      </g>
     </g>
     <g id="text_13">
      <!-- 3 -->
      <g transform="translate(44.2375 185.477618) scale(0.1 -0.1)">
       <use xlink:href="#DejaVuSans-33"/>
      </g>
     </g>
    </g>
    <g id="ytick_5">
     <g id="line2d_13">
      <g>
       <use xlink:href="#m36340eb2fa" x="57.6" y="139.709866" style="stroke: #000000; stroke-width: 0.8"/>
      </g>
     </g>
     <g id="text_14">
      <!-- 4 -->
      <g transform="translate(44.2375 143.509085) scale(0.1 -0.1)">
       <use xlink:href="#DejaVuSans-34"/>
      </g>
     </g>
    </g>
    <g id="ytick_6">
     <g id="line2d_14">
      <g>
       <use xlink:href="#m36340eb2fa" x="57.6" y="97.741332" style="stroke: #000000; stroke-width: 0.8"/>
      </g>
     </g>
     <g id="text_15">
      <!-- 5 -->
      <g transform="translate(44.2375 101.540551) scale(0.1 -0.1)">
       <use xlink:href="#DejaVuSans-35"/>
      </g>
     </g>
    </g>
    <g id="ytick_7">
     <g id="line2d_15">
      <g>
       <use xlink:href="#m36340eb2fa" x="57.6" y="55.772799" style="stroke: #000000; stroke-width: 0.8"/>
      </g>
     </g>
     <g id="text_16">
      <!-- 6 -->
      <g transform="translate(44.2375 59.572018) scale(0.1 -0.1)">
       <defs>
        <path id="DejaVuSans-36" d="M 2113 2584 
Q 1688 2584 1439 2293 
Q 1191 2003 1191 1497 
Q 1191 994 1439 701 
Q 1688 409 2113 409 
Q 2538 409 2786 701 
Q 3034 994 3034 1497 
Q 3034 2003 2786 2293 
Q 2538 2584 2113 2584 
z
M 3366 4563 
L 3366 3988 
Q 3128 4100 2886 4159 
Q 2644 4219 2406 4219 
Q 1781 4219 1451 3797 
Q 1122 3375 1075 2522 
Q 1259 2794 1537 2939 
Q 1816 3084 2150 3084 
Q 2853 3084 3261 2657 
Q 3669 2231 3669 1497 
Q 3669 778 3244 343 
Q 2819 -91 2113 -91 
Q 1303 -91 875 529 
Q 447 1150 447 2328 
Q 447 3434 972 4092 
Q 1497 4750 2381 4750 
Q 2619 4750 2861 4703 
Q 3103 4656 3366 4563 
z
" transform="scale(0.015625)"/>
       </defs>
       <use xlink:href="#DejaVuSans-36"/>
      </g>
     </g>
    </g>
    <g id="text_17">
     <!-- intensities -->
     <g transform="translate(38.157812 200.3155) rotate(-90) scale(0.1 -0.1)">
      <defs>
       <path id="DejaVuSans-69" d="M 603 3500 
L 1178 3500 
L 1178 0 
L 603 0 
L 603 3500 
z
M 603 4863 
L 1178 4863 
L 1178 4134 
L 603 4134 
L 603 4863 
z
" transform="scale(0.015625)"/>
       <path id="DejaVuSans-6e" d="M 3513 2113 
L 3513 0 
L 2938 0 
L 2938 2094 
Q 2938 2591 2744 2837 
Q 2550 3084 2163 3084 
Q 1697 3084 1428 2787 
Q 1159 2491 1159 1978 
L 1159 0 
L 581 0 
L 581 3500 
L 1159 3500 
L 1159 2956 
Q 1366 3272 1645 3428 
Q 1925 3584 2291 3584 
Q 2894 3584 3203 3211 
Q 3513 2838 3513 2113 
z
" transform="scale(0.015625)"/>
       <path id="DejaVuSans-74" d="M 1172 4494 
L 1172 3500 
L 2356 3500 
L 2356 3053 
L 1172 3053 
L 1172 1153 
Q 1172 725 1289 603 
Q 1406 481 1766 481 
L 2356 481 
L 2356 0 
L 1766 0 
Q 1100 0 847 248 
Q 594 497 594 1153 
L 594 3053 
L 172 3053 
L 172 3500 
L 594 3500 
L 594 4494 
L 1172 4494 
z
" transform="scale(0.015625)"/>
       <path id="DejaVuSans-65" d="M 3597 1894 
L 3597 1613 
L 953 1613 
Q 991 1019 1311 708 
Q 1631 397 2203 397 
Q 2534 397 2845 478 
Q 3156 559 3463 722 
L 3463 178 
Q 3153 47 2828 -22 
Q 2503 -91 2169 -91 
Q 1331 -91 842 396 
Q 353 884 353 1716 
Q 353 2575 817 3079 
Q 1281 3584 2069 3584 
Q 2775 3584 3186 3129 
Q 3597 2675 3597 1894 
z
M 3022 2063 
Q 3016 2534 2758 2815 
Q 2500 3097 2075 3097 
Q 1594 3097 1305 2825 
Q 1016 2553 972 2059 
L 3022 2063 
z
" transform="scale(0.015625)"/>
       <path id="DejaVuSans-73" d="M 2834 3397 
L 2834 2853 
Q 2591 2978 2328 3040 
Q 2066 3103 1784 3103 
Q 1356 3103 1142 2972 
Q 928 2841 928 2578 
Q 928 2378 1081 2264 
Q 1234 2150 1697 2047 
L 1894 2003 
Q 2506 1872 2764 1633 
Q 3022 1394 3022 966 
Q 3022 478 2636 193 
Q 2250 -91 1575 -91 
Q 1294 -91 989 -36 
Q 684 19 347 128 
L 347 722 
Q 666 556 975 473 
Q 1284 391 1588 391 
Q 1994 391 2212 530 
Q 2431 669 2431 922 
Q 2431 1156 2273 1281 
Q 2116 1406 1581 1522 
L 1381 1569 
Q 847 1681 609 1914 
Q 372 2147 372 2553 
Q 372 3047 722 3315 
Q 1072 3584 1716 3584 
Q 2034 3584 2315 3537 
Q 2597 3491 2834 3397 
z
" transform="scale(0.015625)"/>
      </defs>
      <use xlink:href="#DejaVuSans-69"/>
      <use xlink:href="#DejaVuSans-6e" x="27.783203"/>
      <use xlink:href="#DejaVuSans-74" x="91.162109"/>
      <use xlink:href="#DejaVuSans-65" x="130.371094"/>
      <use xlink:href="#DejaVuSans-6e" x="191.894531"/>
      <use xlink:href="#DejaVuSans-73" x="255.273438"/>
      <use xlink:href="#DejaVuSans-69" x="307.373047"/>
      <use xlink:href="#DejaVuSans-74" x="335.15625"/>
      <use xlink:href="#DejaVuSans-69" x="374.365234"/>
      <use xlink:href="#DejaVuSans-65" x="402.148438"/>
      <use xlink:href="#DejaVuSans-73" x="463.671875"/>
     </g>
    </g>
    <g id="text_18">
     <!-- 1e6 -->
     <g transform="translate(57.6 38.472) scale(0.1 -0.1)">
      <use xlink:href="#DejaVuSans-31"/>
      <use xlink:href="#DejaVuSans-65" x="63.623047"/>
      <use xlink:href="#DejaVuSans-36" x="125.146484"/>
     </g>
    </g>
   </g>
   <g id="patch_165">
    <path d="M 57.6 307.584 
L 57.6 41.472 
" style="fill: none; stroke: #000000; stroke-width: 0.8; stroke-linejoin: miter; stroke-linecap: square"/>
   </g>
   <g id="patch_166">
    <path d="M 414.72 307.584 
L 414.72 41.472 
" style="fill: none; stroke: #000000; stroke-width: 0.8; stroke-linejoin: miter; stroke-linecap: square"/>
   </g>
   <g id="patch_167">
    <path d="M 57.6 307.584 
L 414.72 307.584 
" style="fill: none; stroke: #000000; stroke-width: 0.8; stroke-linejoin: miter; stroke-linecap: square"/>
   </g>
   <g id="patch_168">
    <path d="M 57.6 41.472 
L 414.72 41.472 
" style="fill: none; stroke: #000000; stroke-width: 0.8; stroke-linejoin: miter; stroke-linecap: square"/>
   </g>
   <g id="text_19">
    <!-- 71.0135 -->
    <g transform="translate(84.581089 212.645866) scale(0.06 -0.06)">
     <defs>
      <path id="DejaVuSans-37" d="M 525 4666 
L 3525 4666 
L 3525 4397 
L 1831 0 
L 1172 0 
L 2766 4134 
L 525 4134 
L 525 4666 
z
" transform="scale(0.015625)"/>
      <path id="DejaVuSans-2e" d="M 684 794 
L 1344 794 
L 1344 0 
L 684 0 
L 684 794 
z
" transform="scale(0.015625)"/>
     </defs>
     <use xlink:href="#DejaVuSans-37"/>
     <use xlink:href="#DejaVuSans-31" x="63.623047"/>
     <use xlink:href="#DejaVuSans-2e" x="127.246094"/>
     <use xlink:href="#DejaVuSans-30" x="159.033203"/>
     <use xlink:href="#DejaVuSans-31" x="222.65625"/>
     <use xlink:href="#DejaVuSans-33" x="286.279297"/>
     <use xlink:href="#DejaVuSans-35" x="349.902344"/>
    </g>
   </g>
   <g id="text_20">
    <!-- 81.0341 -->
    <g transform="translate(94.067267 253.465928) scale(0.06 -0.06)">
     <defs>
      <path id="DejaVuSans-38" d="M 2034 2216 
Q 1584 2216 1326 1975 
Q 1069 1734 1069 1313 
Q 1069 891 1326 650 
Q 1584 409 2034 409 
Q 2484 409 2743 651 
Q 3003 894 3003 1313 
Q 3003 1734 2745 1975 
Q 2488 2216 2034 2216 
z
M 1403 2484 
Q 997 2584 770 2862 
Q 544 3141 544 3541 
Q 544 4100 942 4425 
Q 1341 4750 2034 4750 
Q 2731 4750 3128 4425 
Q 3525 4100 3525 3541 
Q 3525 3141 3298 2862 
Q 3072 2584 2669 2484 
Q 3125 2378 3379 2068 
Q 3634 1759 3634 1313 
Q 3634 634 3220 271 
Q 2806 -91 2034 -91 
Q 1263 -91 848 271 
Q 434 634 434 1313 
Q 434 1759 690 2068 
Q 947 2378 1403 2484 
z
M 1172 3481 
Q 1172 3119 1398 2916 
Q 1625 2713 2034 2713 
Q 2441 2713 2670 2916 
Q 2900 3119 2900 3481 
Q 2900 3844 2670 4047 
Q 2441 4250 2034 4250 
Q 1625 4250 1398 4047 
Q 1172 3844 1172 3481 
z
" transform="scale(0.015625)"/>
     </defs>
     <use xlink:href="#DejaVuSans-38"/>
     <use xlink:href="#DejaVuSans-31" x="63.623047"/>
     <use xlink:href="#DejaVuSans-2e" x="127.246094"/>
     <use xlink:href="#DejaVuSans-30" x="159.033203"/>
     <use xlink:href="#DejaVuSans-33" x="222.65625"/>
     <use xlink:href="#DejaVuSans-34" x="286.279297"/>
     <use xlink:href="#DejaVuSans-31" x="349.902344"/>
    </g>
   </g>
   <g id="text_21">
    <!-- 89.0239 -->
    <g transform="translate(101.630898 230.721105) scale(0.06 -0.06)">
     <defs>
      <path id="DejaVuSans-39" d="M 703 97 
L 703 672 
Q 941 559 1184 500 
Q 1428 441 1663 441 
Q 2288 441 2617 861 
Q 2947 1281 2994 2138 
Q 2813 1869 2534 1725 
Q 2256 1581 1919 1581 
Q 1219 1581 811 2004 
Q 403 2428 403 3163 
Q 403 3881 828 4315 
Q 1253 4750 1959 4750 
Q 2769 4750 3195 4129 
Q 3622 3509 3622 2328 
Q 3622 1225 3098 567 
Q 2575 -91 1691 -91 
Q 1453 -91 1209 -44 
Q 966 3 703 97 
z
M 1959 2075 
Q 2384 2075 2632 2365 
Q 2881 2656 2881 3163 
Q 2881 3666 2632 3958 
Q 2384 4250 1959 4250 
Q 1534 4250 1286 3958 
Q 1038 3666 1038 3163 
Q 1038 2656 1286 2365 
Q 1534 2075 1959 2075 
z
" transform="scale(0.015625)"/>
     </defs>
     <use xlink:href="#DejaVuSans-38"/>
     <use xlink:href="#DejaVuSans-39" x="63.623047"/>
     <use xlink:href="#DejaVuSans-2e" x="127.246094"/>
     <use xlink:href="#DejaVuSans-30" x="159.033203"/>
     <use xlink:href="#DejaVuSans-32" x="222.65625"/>
     <use xlink:href="#DejaVuSans-33" x="286.279297"/>
     <use xlink:href="#DejaVuSans-39" x="349.902344"/>
    </g>
   </g>
   <g id="text_22">
    <!-- 211.079 -->
    <g transform="translate(217.176322 253.802934) scale(0.06 -0.06)">
     <use xlink:href="#DejaVuSans-32"/>
     <use xlink:href="#DejaVuSans-31" x="63.623047"/>
     <use xlink:href="#DejaVuSans-31" x="127.246094"/>
     <use xlink:href="#DejaVuSans-2e" x="190.869141"/>
     <use xlink:href="#DejaVuSans-30" x="222.65625"/>
     <use xlink:href="#DejaVuSans-37" x="286.279297"/>
     <use xlink:href="#DejaVuSans-39" x="349.902344"/>
    </g>
   </g>
   <g id="text_23">
    <!-- 212.0867 -->
    <g transform="translate(210.461547 286.219378) scale(0.06 -0.06)">
     <use xlink:href="#DejaVuSans-32"/>
     <use xlink:href="#DejaVuSans-31" x="63.623047"/>
     <use xlink:href="#DejaVuSans-32" x="127.246094"/>
     <use xlink:href="#DejaVuSans-2e" x="190.869141"/>
     <use xlink:href="#DejaVuSans-30" x="222.65625"/>
     <use xlink:href="#DejaVuSans-38" x="286.279297"/>
     <use xlink:href="#DejaVuSans-36" x="349.902344"/>
     <use xlink:href="#DejaVuSans-37" x="413.525391"/>
    </g>
   </g>
   <g id="text_24">
    <!-- 222.0709 -->
    <g transform="translate(237.913289 287.483361) scale(0.06 -0.06)">
     <use xlink:href="#DejaVuSans-32"/>
     <use xlink:href="#DejaVuSans-32" x="63.623047"/>
     <use xlink:href="#DejaVuSans-32" x="127.246094"/>
     <use xlink:href="#DejaVuSans-2e" x="190.869141"/>
     <use xlink:href="#DejaVuSans-30" x="222.65625"/>
     <use xlink:href="#DejaVuSans-37" x="286.279297"/>
     <use xlink:href="#DejaVuSans-30" x="349.902344"/>
     <use xlink:href="#DejaVuSans-39" x="413.525391"/>
    </g>
   </g>
   <g id="text_25">
    <!-- 224.0868 -->
    <g transform="translate(229.021644 273.109946) scale(0.06 -0.06)">
     <use xlink:href="#DejaVuSans-32"/>
     <use xlink:href="#DejaVuSans-32" x="63.623047"/>
     <use xlink:href="#DejaVuSans-34" x="127.246094"/>
     <use xlink:href="#DejaVuSans-2e" x="190.869141"/>
     <use xlink:href="#DejaVuSans-30" x="222.65625"/>
     <use xlink:href="#DejaVuSans-38" x="286.279297"/>
     <use xlink:href="#DejaVuSans-36" x="349.902344"/>
     <use xlink:href="#DejaVuSans-38" x="413.525391"/>
    </g>
   </g>
   <g id="text_26">
    <!-- 235.0788 -->
    <g transform="translate(219.987405 234.647757) scale(0.06 -0.06)">
     <use xlink:href="#DejaVuSans-32"/>
     <use xlink:href="#DejaVuSans-33" x="63.623047"/>
     <use xlink:href="#DejaVuSans-35" x="127.246094"/>
     <use xlink:href="#DejaVuSans-2e" x="190.869141"/>
     <use xlink:href="#DejaVuSans-30" x="222.65625"/>
     <use xlink:href="#DejaVuSans-37" x="286.279297"/>
     <use xlink:href="#DejaVuSans-38" x="349.902344"/>
     <use xlink:href="#DejaVuSans-38" x="413.525391"/>
    </g>
   </g>
   <g id="text_27">
    <!-- 236.0863 -->
    <g transform="translate(241.101178 257.202267) scale(0.06 -0.06)">
     <use xlink:href="#DejaVuSans-32"/>
     <use xlink:href="#DejaVuSans-33" x="63.623047"/>
     <use xlink:href="#DejaVuSans-36" x="127.246094"/>
     <use xlink:href="#DejaVuSans-2e" x="190.869141"/>
     <use xlink:href="#DejaVuSans-30" x="222.65625"/>
     <use xlink:href="#DejaVuSans-38" x="286.279297"/>
     <use xlink:href="#DejaVuSans-36" x="349.902344"/>
     <use xlink:href="#DejaVuSans-33" x="413.525391"/>
    </g>
   </g>
   <g id="text_28">
    <!-- 248.0868 -->
    <g transform="translate(251.741622 98.153063) scale(0.06 -0.06)">
     <use xlink:href="#DejaVuSans-32"/>
     <use xlink:href="#DejaVuSans-34" x="63.623047"/>
     <use xlink:href="#DejaVuSans-38" x="127.246094"/>
     <use xlink:href="#DejaVuSans-2e" x="190.869141"/>
     <use xlink:href="#DejaVuSans-30" x="222.65625"/>
     <use xlink:href="#DejaVuSans-38" x="286.279297"/>
     <use xlink:href="#DejaVuSans-36" x="349.902344"/>
     <use xlink:href="#DejaVuSans-38" x="413.525391"/>
    </g>
   </g>
   <g id="text_29">
    <!-- 249.0925 -->
    <g transform="translate(251.973734 266.220034) scale(0.06 -0.06)">
     <use xlink:href="#DejaVuSans-32"/>
     <use xlink:href="#DejaVuSans-34" x="63.623047"/>
     <use xlink:href="#DejaVuSans-39" x="127.246094"/>
     <use xlink:href="#DejaVuSans-2e" x="190.869141"/>
     <use xlink:href="#DejaVuSans-30" x="222.65625"/>
     <use xlink:href="#DejaVuSans-39" x="286.279297"/>
     <use xlink:href="#DejaVuSans-32" x="349.902344"/>
     <use xlink:href="#DejaVuSans-35" x="413.525391"/>
    </g>
   </g>
   <g id="text_30">
    <!-- 250.1022 -->
    <g transform="translate(250.769544 229.979348) scale(0.06 -0.06)">
     <use xlink:href="#DejaVuSans-32"/>
     <use xlink:href="#DejaVuSans-35" x="63.623047"/>
     <use xlink:href="#DejaVuSans-30" x="127.246094"/>
     <use xlink:href="#DejaVuSans-2e" x="190.869141"/>
     <use xlink:href="#DejaVuSans-31" x="222.65625"/>
     <use xlink:href="#DejaVuSans-30" x="286.279297"/>
     <use xlink:href="#DejaVuSans-32" x="349.902344"/>
     <use xlink:href="#DejaVuSans-32" x="413.525391"/>
    </g>
   </g>
   <g id="text_31">
    <!-- 253.1259 -->
    <g transform="translate(256.511947 246.731266) scale(0.06 -0.06)">
     <use xlink:href="#DejaVuSans-32"/>
     <use xlink:href="#DejaVuSans-35" x="63.623047"/>
     <use xlink:href="#DejaVuSans-33" x="127.246094"/>
     <use xlink:href="#DejaVuSans-2e" x="190.869141"/>
     <use xlink:href="#DejaVuSans-31" x="222.65625"/>
     <use xlink:href="#DejaVuSans-32" x="286.279297"/>
     <use xlink:href="#DejaVuSans-35" x="349.902344"/>
     <use xlink:href="#DejaVuSans-39" x="413.525391"/>
    </g>
   </g>
   <g id="text_32">
    <!-- 254.133 -->
    <g transform="translate(265.134138 279.872665) scale(0.06 -0.06)">
     <use xlink:href="#DejaVuSans-32"/>
     <use xlink:href="#DejaVuSans-35" x="63.623047"/>
     <use xlink:href="#DejaVuSans-34" x="127.246094"/>
     <use xlink:href="#DejaVuSans-2e" x="190.869141"/>
     <use xlink:href="#DejaVuSans-31" x="222.65625"/>
     <use xlink:href="#DejaVuSans-33" x="286.279297"/>
     <use xlink:href="#DejaVuSans-33" x="349.902344"/>
    </g>
   </g>
   <g id="text_33">
    <!-- 262.1022 -->
    <g transform="translate(281.569554 221.133466) scale(0.06 -0.06)">
     <use xlink:href="#DejaVuSans-32"/>
     <use xlink:href="#DejaVuSans-36" x="63.623047"/>
     <use xlink:href="#DejaVuSans-32" x="127.246094"/>
     <use xlink:href="#DejaVuSans-2e" x="190.869141"/>
     <use xlink:href="#DejaVuSans-31" x="222.65625"/>
     <use xlink:href="#DejaVuSans-30" x="286.279297"/>
     <use xlink:href="#DejaVuSans-32" x="349.902344"/>
     <use xlink:href="#DejaVuSans-32" x="413.525391"/>
    </g>
   </g>
   <g id="text_34">
    <!-- 264.118 -->
    <g transform="translate(267.386573 158.399667) scale(0.06 -0.06)">
     <use xlink:href="#DejaVuSans-32"/>
     <use xlink:href="#DejaVuSans-36" x="63.623047"/>
     <use xlink:href="#DejaVuSans-34" x="127.246094"/>
     <use xlink:href="#DejaVuSans-2e" x="190.869141"/>
     <use xlink:href="#DejaVuSans-31" x="222.65625"/>
     <use xlink:href="#DejaVuSans-31" x="286.279297"/>
     <use xlink:href="#DejaVuSans-38" x="349.902344"/>
    </g>
   </g>
   <g id="text_35">
    <!-- 273.0938 -->
    <g transform="translate(291.974939 283.311776) scale(0.06 -0.06)">
     <use xlink:href="#DejaVuSans-32"/>
     <use xlink:href="#DejaVuSans-37" x="63.623047"/>
     <use xlink:href="#DejaVuSans-33" x="127.246094"/>
     <use xlink:href="#DejaVuSans-2e" x="190.869141"/>
     <use xlink:href="#DejaVuSans-30" x="222.65625"/>
     <use xlink:href="#DejaVuSans-39" x="286.279297"/>
     <use xlink:href="#DejaVuSans-33" x="349.902344"/>
     <use xlink:href="#DejaVuSans-38" x="413.525391"/>
    </g>
   </g>
   <g id="text_36">
    <!-- 274.1022 -->
    <g transform="translate(276.369579 105.564689) scale(0.06 -0.06)">
     <use xlink:href="#DejaVuSans-32"/>
     <use xlink:href="#DejaVuSans-37" x="63.623047"/>
     <use xlink:href="#DejaVuSans-34" x="127.246094"/>
     <use xlink:href="#DejaVuSans-2e" x="190.869141"/>
     <use xlink:href="#DejaVuSans-31" x="222.65625"/>
     <use xlink:href="#DejaVuSans-30" x="286.279297"/>
     <use xlink:href="#DejaVuSans-32" x="349.902344"/>
     <use xlink:href="#DejaVuSans-32" x="413.525391"/>
    </g>
   </g>
   <g id="text_37">
    <!-- 275.107 -->
    <g transform="translate(277.145291 256.39815) scale(0.06 -0.06)">
     <use xlink:href="#DejaVuSans-32"/>
     <use xlink:href="#DejaVuSans-37" x="63.623047"/>
     <use xlink:href="#DejaVuSans-35" x="127.246094"/>
     <use xlink:href="#DejaVuSans-2e" x="190.869141"/>
     <use xlink:href="#DejaVuSans-31" x="222.65625"/>
     <use xlink:href="#DejaVuSans-30" x="286.279297"/>
     <use xlink:href="#DejaVuSans-37" x="349.902344"/>
    </g>
   </g>
   <g id="text_38">
    <!-- 277.1257 -->
    <g transform="translate(279.231823 238.490236) scale(0.06 -0.06)">
     <use xlink:href="#DejaVuSans-32"/>
     <use xlink:href="#DejaVuSans-37" x="63.623047"/>
     <use xlink:href="#DejaVuSans-37" x="127.246094"/>
     <use xlink:href="#DejaVuSans-2e" x="190.869141"/>
     <use xlink:href="#DejaVuSans-31" x="222.65625"/>
     <use xlink:href="#DejaVuSans-32" x="286.279297"/>
     <use xlink:href="#DejaVuSans-35" x="349.902344"/>
     <use xlink:href="#DejaVuSans-37" x="413.525391"/>
    </g>
   </g>
   <g id="text_39">
    <!-- 288.1179 -->
    <g transform="translate(291.077699 210.558105) scale(0.06 -0.06)">
     <use xlink:href="#DejaVuSans-32"/>
     <use xlink:href="#DejaVuSans-38" x="63.623047"/>
     <use xlink:href="#DejaVuSans-38" x="127.246094"/>
     <use xlink:href="#DejaVuSans-2e" x="190.869141"/>
     <use xlink:href="#DejaVuSans-31" x="222.65625"/>
     <use xlink:href="#DejaVuSans-31" x="286.279297"/>
     <use xlink:href="#DejaVuSans-37" x="349.902344"/>
     <use xlink:href="#DejaVuSans-39" x="413.525391"/>
    </g>
   </g>
   <g id="text_40">
    <!-- 290.1335 -->
    <g transform="translate(291.545853 50.939625) scale(0.06 -0.06)">
     <use xlink:href="#DejaVuSans-32"/>
     <use xlink:href="#DejaVuSans-39" x="63.623047"/>
     <use xlink:href="#DejaVuSans-30" x="127.246094"/>
     <use xlink:href="#DejaVuSans-2e" x="190.869141"/>
     <use xlink:href="#DejaVuSans-31" x="222.65625"/>
     <use xlink:href="#DejaVuSans-33" x="286.279297"/>
     <use xlink:href="#DejaVuSans-33" x="349.902344"/>
     <use xlink:href="#DejaVuSans-35" x="413.525391"/>
    </g>
   </g>
   <g id="text_41">
    <!-- 291.1371 -->
    <g transform="translate(278.095928 268.926598) scale(0.06 -0.06)">
     <use xlink:href="#DejaVuSans-32"/>
     <use xlink:href="#DejaVuSans-39" x="63.623047"/>
     <use xlink:href="#DejaVuSans-31" x="127.246094"/>
     <use xlink:href="#DejaVuSans-2e" x="190.869141"/>
     <use xlink:href="#DejaVuSans-31" x="222.65625"/>
     <use xlink:href="#DejaVuSans-33" x="286.279297"/>
     <use xlink:href="#DejaVuSans-37" x="349.902344"/>
     <use xlink:href="#DejaVuSans-31" x="413.525391"/>
    </g>
   </g>
   <g id="text_42">
    <!-- 292.1495 -->
    <g transform="translate(307.134352 276.420369) scale(0.06 -0.06)">
     <use xlink:href="#DejaVuSans-32"/>
     <use xlink:href="#DejaVuSans-39" x="63.623047"/>
     <use xlink:href="#DejaVuSans-32" x="127.246094"/>
     <use xlink:href="#DejaVuSans-2e" x="190.869141"/>
     <use xlink:href="#DejaVuSans-31" x="222.65625"/>
     <use xlink:href="#DejaVuSans-34" x="286.279297"/>
     <use xlink:href="#DejaVuSans-39" x="349.902344"/>
     <use xlink:href="#DejaVuSans-35" x="413.525391"/>
    </g>
   </g>
   <g id="text_43">
    <!-- 306.1648 -->
    <g transform="translate(306.722126 201.553772) scale(0.06 -0.06)">
     <use xlink:href="#DejaVuSans-33"/>
     <use xlink:href="#DejaVuSans-30" x="63.623047"/>
     <use xlink:href="#DejaVuSans-36" x="127.246094"/>
     <use xlink:href="#DejaVuSans-2e" x="190.869141"/>
     <use xlink:href="#DejaVuSans-31" x="222.65625"/>
     <use xlink:href="#DejaVuSans-36" x="286.279297"/>
     <use xlink:href="#DejaVuSans-34" x="349.902344"/>
     <use xlink:href="#DejaVuSans-38" x="413.525391"/>
    </g>
   </g>
   <g id="text_44">
    <!-- 316.1129 -->
    <g transform="translate(304.619676 257.079516) scale(0.06 -0.06)">
     <use xlink:href="#DejaVuSans-33"/>
     <use xlink:href="#DejaVuSans-31" x="63.623047"/>
     <use xlink:href="#DejaVuSans-36" x="127.246094"/>
     <use xlink:href="#DejaVuSans-2e" x="190.869141"/>
     <use xlink:href="#DejaVuSans-31" x="222.65625"/>
     <use xlink:href="#DejaVuSans-31" x="286.279297"/>
     <use xlink:href="#DejaVuSans-32" x="349.902344"/>
     <use xlink:href="#DejaVuSans-39" x="413.525391"/>
    </g>
   </g>
   <g id="text_45">
    <!-- 316.1498 -->
    <g transform="translate(329.854575 250.826615) scale(0.06 -0.06)">
     <use xlink:href="#DejaVuSans-33"/>
     <use xlink:href="#DejaVuSans-31" x="63.623047"/>
     <use xlink:href="#DejaVuSans-36" x="127.246094"/>
     <use xlink:href="#DejaVuSans-2e" x="190.869141"/>
     <use xlink:href="#DejaVuSans-31" x="222.65625"/>
     <use xlink:href="#DejaVuSans-34" x="286.279297"/>
     <use xlink:href="#DejaVuSans-39" x="349.902344"/>
     <use xlink:href="#DejaVuSans-38" x="413.525391"/>
    </g>
   </g>
   <g id="text_46">
    <!-- 333.1154 -->
    <g transform="translate(332.557171 269.542849) scale(0.06 -0.06)">
     <use xlink:href="#DejaVuSans-33"/>
     <use xlink:href="#DejaVuSans-33" x="63.623047"/>
     <use xlink:href="#DejaVuSans-33" x="127.246094"/>
     <use xlink:href="#DejaVuSans-2e" x="190.869141"/>
     <use xlink:href="#DejaVuSans-31" x="222.65625"/>
     <use xlink:href="#DejaVuSans-31" x="286.279297"/>
     <use xlink:href="#DejaVuSans-35" x="349.902344"/>
     <use xlink:href="#DejaVuSans-34" x="413.525391"/>
    </g>
   </g>
   <g id="text_47">
    <!-- 334.1235 -->
    <g transform="translate(333.189695 119.834729) scale(0.06 -0.06)">
     <use xlink:href="#DejaVuSans-33"/>
     <use xlink:href="#DejaVuSans-33" x="63.623047"/>
     <use xlink:href="#DejaVuSans-34" x="127.246094"/>
     <use xlink:href="#DejaVuSans-2e" x="190.869141"/>
     <use xlink:href="#DejaVuSans-31" x="222.65625"/>
     <use xlink:href="#DejaVuSans-32" x="286.279297"/>
     <use xlink:href="#DejaVuSans-33" x="349.902344"/>
     <use xlink:href="#DejaVuSans-35" x="413.525391"/>
    </g>
   </g>
   <g id="text_48">
    <!-- 335.1265 -->
    <g transform="translate(335.579193 279.554226) scale(0.06 -0.06)">
     <use xlink:href="#DejaVuSans-33"/>
     <use xlink:href="#DejaVuSans-33" x="63.623047"/>
     <use xlink:href="#DejaVuSans-35" x="127.246094"/>
     <use xlink:href="#DejaVuSans-2e" x="190.869141"/>
     <use xlink:href="#DejaVuSans-31" x="222.65625"/>
     <use xlink:href="#DejaVuSans-32" x="286.279297"/>
     <use xlink:href="#DejaVuSans-36" x="349.902344"/>
     <use xlink:href="#DejaVuSans-35" x="413.525391"/>
    </g>
   </g>
   <g id="text_49">
    <!-- 350.1911 -->
    <g transform="translate(362.568599 284.270908) scale(0.06 -0.06)">
     <use xlink:href="#DejaVuSans-33"/>
     <use xlink:href="#DejaVuSans-35" x="63.623047"/>
     <use xlink:href="#DejaVuSans-30" x="127.246094"/>
     <use xlink:href="#DejaVuSans-2e" x="190.869141"/>
     <use xlink:href="#DejaVuSans-31" x="222.65625"/>
     <use xlink:href="#DejaVuSans-39" x="286.279297"/>
     <use xlink:href="#DejaVuSans-31" x="349.902344"/>
     <use xlink:href="#DejaVuSans-31" x="413.525391"/>
    </g>
   </g>
   <g id="text_50">
    <!-- 376.1704 -->
    <g transform="translate(372.994056 87.302275) scale(0.06 -0.06)">
     <use xlink:href="#DejaVuSans-33"/>
     <use xlink:href="#DejaVuSans-37" x="63.623047"/>
     <use xlink:href="#DejaVuSans-36" x="127.246094"/>
     <use xlink:href="#DejaVuSans-2e" x="190.869141"/>
     <use xlink:href="#DejaVuSans-31" x="222.65625"/>
     <use xlink:href="#DejaVuSans-37" x="286.279297"/>
     <use xlink:href="#DejaVuSans-30" x="349.902344"/>
     <use xlink:href="#DejaVuSans-34" x="413.525391"/>
    </g>
   </g>
   <g id="text_51">
    <!-- 377.1739 -->
    <g transform="translate(373.944016 263.463956) scale(0.06 -0.06)">
     <use xlink:href="#DejaVuSans-33"/>
     <use xlink:href="#DejaVuSans-37" x="63.623047"/>
     <use xlink:href="#DejaVuSans-37" x="127.246094"/>
     <use xlink:href="#DejaVuSans-2e" x="190.869141"/>
     <use xlink:href="#DejaVuSans-31" x="222.65625"/>
     <use xlink:href="#DejaVuSans-37" x="286.279297"/>
     <use xlink:href="#DejaVuSans-33" x="349.902344"/>
     <use xlink:href="#DejaVuSans-39" x="413.525391"/>
    </g>
   </g>
   <g id="text_52">
    <!-- 394.181 -->
    <g transform="translate(390.029063 222.905235) scale(0.06 -0.06)">
     <use xlink:href="#DejaVuSans-33"/>
     <use xlink:href="#DejaVuSans-39" x="63.623047"/>
     <use xlink:href="#DejaVuSans-34" x="127.246094"/>
     <use xlink:href="#DejaVuSans-2e" x="190.869141"/>
     <use xlink:href="#DejaVuSans-31" x="222.65625"/>
     <use xlink:href="#DejaVuSans-38" x="286.279297"/>
     <use xlink:href="#DejaVuSans-31" x="349.902344"/>
    </g>
   </g>
   <g id="text_53">
    <!-- MS2 spectrum of ${m/z}$ 394.1803, scan time 10.15 min. -->
    <g transform="translate(57.6 24.873562) scale(0.12 -0.12)">
     <defs>
      <path id="DejaVuSans-4d" d="M 628 4666 
L 1569 4666 
L 2759 1491 
L 3956 4666 
L 4897 4666 
L 4897 0 
L 4281 0 
L 4281 4097 
L 3078 897 
L 2444 897 
L 1241 4097 
L 1241 0 
L 628 0 
L 628 4666 
z
" transform="scale(0.015625)"/>
      <path id="DejaVuSans-53" d="M 3425 4513 
L 3425 3897 
Q 3066 4069 2747 4153 
Q 2428 4238 2131 4238 
Q 1616 4238 1336 4038 
Q 1056 3838 1056 3469 
Q 1056 3159 1242 3001 
Q 1428 2844 1947 2747 
L 2328 2669 
Q 3034 2534 3370 2195 
Q 3706 1856 3706 1288 
Q 3706 609 3251 259 
Q 2797 -91 1919 -91 
Q 1588 -91 1214 -16 
Q 841 59 441 206 
L 441 856 
Q 825 641 1194 531 
Q 1563 422 1919 422 
Q 2459 422 2753 634 
Q 3047 847 3047 1241 
Q 3047 1584 2836 1778 
Q 2625 1972 2144 2069 
L 1759 2144 
Q 1053 2284 737 2584 
Q 422 2884 422 3419 
Q 422 4038 858 4394 
Q 1294 4750 2059 4750 
Q 2388 4750 2728 4690 
Q 3069 4631 3425 4513 
z
" transform="scale(0.015625)"/>
      <path id="DejaVuSans-20" transform="scale(0.015625)"/>
      <path id="DejaVuSans-70" d="M 1159 525 
L 1159 -1331 
L 581 -1331 
L 581 3500 
L 1159 3500 
L 1159 2969 
Q 1341 3281 1617 3432 
Q 1894 3584 2278 3584 
Q 2916 3584 3314 3078 
Q 3713 2572 3713 1747 
Q 3713 922 3314 415 
Q 2916 -91 2278 -91 
Q 1894 -91 1617 61 
Q 1341 213 1159 525 
z
M 3116 1747 
Q 3116 2381 2855 2742 
Q 2594 3103 2138 3103 
Q 1681 3103 1420 2742 
Q 1159 2381 1159 1747 
Q 1159 1113 1420 752 
Q 1681 391 2138 391 
Q 2594 391 2855 752 
Q 3116 1113 3116 1747 
z
" transform="scale(0.015625)"/>
      <path id="DejaVuSans-63" d="M 3122 3366 
L 3122 2828 
Q 2878 2963 2633 3030 
Q 2388 3097 2138 3097 
Q 1578 3097 1268 2742 
Q 959 2388 959 1747 
Q 959 1106 1268 751 
Q 1578 397 2138 397 
Q 2388 397 2633 464 
Q 2878 531 3122 666 
L 3122 134 
Q 2881 22 2623 -34 
Q 2366 -91 2075 -91 
Q 1284 -91 818 406 
Q 353 903 353 1747 
Q 353 2603 823 3093 
Q 1294 3584 2113 3584 
Q 2378 3584 2631 3529 
Q 2884 3475 3122 3366 
z
" transform="scale(0.015625)"/>
      <path id="DejaVuSans-72" d="M 2631 2963 
Q 2534 3019 2420 3045 
Q 2306 3072 2169 3072 
Q 1681 3072 1420 2755 
Q 1159 2438 1159 1844 
L 1159 0 
L 581 0 
L 581 3500 
L 1159 3500 
L 1159 2956 
Q 1341 3275 1631 3429 
Q 1922 3584 2338 3584 
Q 2397 3584 2469 3576 
Q 2541 3569 2628 3553 
L 2631 2963 
z
" transform="scale(0.015625)"/>
      <path id="DejaVuSans-75" d="M 544 1381 
L 544 3500 
L 1119 3500 
L 1119 1403 
Q 1119 906 1312 657 
Q 1506 409 1894 409 
Q 2359 409 2629 706 
Q 2900 1003 2900 1516 
L 2900 3500 
L 3475 3500 
L 3475 0 
L 2900 0 
L 2900 538 
Q 2691 219 2414 64 
Q 2138 -91 1772 -91 
Q 1169 -91 856 284 
Q 544 659 544 1381 
z
M 1991 3584 
L 1991 3584 
z
" transform="scale(0.015625)"/>
      <path id="DejaVuSans-6d" d="M 3328 2828 
Q 3544 3216 3844 3400 
Q 4144 3584 4550 3584 
Q 5097 3584 5394 3201 
Q 5691 2819 5691 2113 
L 5691 0 
L 5113 0 
L 5113 2094 
Q 5113 2597 4934 2840 
Q 4756 3084 4391 3084 
Q 3944 3084 3684 2787 
Q 3425 2491 3425 1978 
L 3425 0 
L 2847 0 
L 2847 2094 
Q 2847 2600 2669 2842 
Q 2491 3084 2119 3084 
Q 1678 3084 1418 2786 
Q 1159 2488 1159 1978 
L 1159 0 
L 581 0 
L 581 3500 
L 1159 3500 
L 1159 2956 
Q 1356 3278 1631 3431 
Q 1906 3584 2284 3584 
Q 2666 3584 2933 3390 
Q 3200 3197 3328 2828 
z
" transform="scale(0.015625)"/>
      <path id="DejaVuSans-6f" d="M 1959 3097 
Q 1497 3097 1228 2736 
Q 959 2375 959 1747 
Q 959 1119 1226 758 
Q 1494 397 1959 397 
Q 2419 397 2687 759 
Q 2956 1122 2956 1747 
Q 2956 2369 2687 2733 
Q 2419 3097 1959 3097 
z
M 1959 3584 
Q 2709 3584 3137 3096 
Q 3566 2609 3566 1747 
Q 3566 888 3137 398 
Q 2709 -91 1959 -91 
Q 1206 -91 779 398 
Q 353 888 353 1747 
Q 353 2609 779 3096 
Q 1206 3584 1959 3584 
z
" transform="scale(0.015625)"/>
      <path id="DejaVuSans-66" d="M 2375 4863 
L 2375 4384 
L 1825 4384 
Q 1516 4384 1395 4259 
Q 1275 4134 1275 3809 
L 1275 3500 
L 2222 3500 
L 2222 3053 
L 1275 3053 
L 1275 0 
L 697 0 
L 697 3053 
L 147 3053 
L 147 3500 
L 697 3500 
L 697 3744 
Q 697 4328 969 4595 
Q 1241 4863 1831 4863 
L 2375 4863 
z
" transform="scale(0.015625)"/>
      <path id="DejaVuSans-2c" d="M 750 794 
L 1409 794 
L 1409 256 
L 897 -744 
L 494 -744 
L 750 256 
L 750 794 
z
" transform="scale(0.015625)"/>
      <path id="DejaVuSans-61" d="M 2194 1759 
Q 1497 1759 1228 1600 
Q 959 1441 959 1056 
Q 959 750 1161 570 
Q 1363 391 1709 391 
Q 2188 391 2477 730 
Q 2766 1069 2766 1631 
L 2766 1759 
L 2194 1759 
z
M 3341 1997 
L 3341 0 
L 2766 0 
L 2766 531 
Q 2569 213 2275 61 
Q 1981 -91 1556 -91 
Q 1019 -91 701 211 
Q 384 513 384 1019 
Q 384 1609 779 1909 
Q 1175 2209 1959 2209 
L 2766 2209 
L 2766 2266 
Q 2766 2663 2505 2880 
Q 2244 3097 1772 3097 
Q 1472 3097 1187 3025 
Q 903 2953 641 2809 
L 641 3341 
Q 956 3463 1253 3523 
Q 1550 3584 1831 3584 
Q 2591 3584 2966 3190 
Q 3341 2797 3341 1997 
z
" transform="scale(0.015625)"/>
     </defs>
     <use xlink:href="#DejaVuSans-4d" transform="translate(0 0.015625)"/>
     <use xlink:href="#DejaVuSans-53" transform="translate(86.279297 0.015625)"/>
     <use xlink:href="#DejaVuSans-32" transform="translate(149.755859 0.015625)"/>
     <use xlink:href="#DejaVuSans-20" transform="translate(213.378906 0.015625)"/>
     <use xlink:href="#DejaVuSans-73" transform="translate(245.166016 0.015625)"/>
     <use xlink:href="#DejaVuSans-70" transform="translate(297.265625 0.015625)"/>
     <use xlink:href="#DejaVuSans-65" transform="translate(360.742188 0.015625)"/>
     <use xlink:href="#DejaVuSans-63" transform="translate(422.265625 0.015625)"/>
     <use xlink:href="#DejaVuSans-74" transform="translate(477.246094 0.015625)"/>
     <use xlink:href="#DejaVuSans-72" transform="translate(516.455078 0.015625)"/>
     <use xlink:href="#DejaVuSans-75" transform="translate(557.568359 0.015625)"/>
     <use xlink:href="#DejaVuSans-6d" transform="translate(620.947266 0.015625)"/>
     <use xlink:href="#DejaVuSans-20" transform="translate(718.359375 0.015625)"/>
     <use xlink:href="#DejaVuSans-6f" transform="translate(750.146484 0.015625)"/>
     <use xlink:href="#DejaVuSans-66" transform="translate(811.328125 0.015625)"/>
     <use xlink:href="#DejaVuSans-20" transform="translate(846.533203 0.015625)"/>
     <use xlink:href="#DejaVuSans-Oblique-6d" transform="translate(878.320312 0.015625)"/>
     <use xlink:href="#DejaVuSans-2f" transform="translate(975.732422 0.015625)"/>
     <use xlink:href="#DejaVuSans-Oblique-7a" transform="translate(1009.423828 0.015625)"/>
     <use xlink:href="#DejaVuSans-20" transform="translate(1061.914062 0.015625)"/>
     <use xlink:href="#DejaVuSans-33" transform="translate(1093.701172 0.015625)"/>
     <use xlink:href="#DejaVuSans-39" transform="translate(1157.324219 0.015625)"/>
     <use xlink:href="#DejaVuSans-34" transform="translate(1220.947266 0.015625)"/>
     <use xlink:href="#DejaVuSans-2e" transform="translate(1284.570312 0.015625)"/>
     <use xlink:href="#DejaVuSans-31" transform="translate(1316.357422 0.015625)"/>
     <use xlink:href="#DejaVuSans-38" transform="translate(1379.980469 0.015625)"/>
     <use xlink:href="#DejaVuSans-30" transform="translate(1443.603516 0.015625)"/>
     <use xlink:href="#DejaVuSans-33" transform="translate(1507.226562 0.015625)"/>
     <use xlink:href="#DejaVuSans-2c" transform="translate(1570.849609 0.015625)"/>
     <use xlink:href="#DejaVuSans-20" transform="translate(1602.636719 0.015625)"/>
     <use xlink:href="#DejaVuSans-73" transform="translate(1634.423828 0.015625)"/>
     <use xlink:href="#DejaVuSans-63" transform="translate(1686.523438 0.015625)"/>
     <use xlink:href="#DejaVuSans-61" transform="translate(1741.503906 0.015625)"/>
     <use xlink:href="#DejaVuSans-6e" transform="translate(1802.783203 0.015625)"/>
     <use xlink:href="#DejaVuSans-20" transform="translate(1866.162109 0.015625)"/>
     <use xlink:href="#DejaVuSans-74" transform="translate(1897.949219 0.015625)"/>
     <use xlink:href="#DejaVuSans-69" transform="translate(1937.158203 0.015625)"/>
     <use xlink:href="#DejaVuSans-6d" transform="translate(1964.941406 0.015625)"/>
     <use xlink:href="#DejaVuSans-65" transform="translate(2062.353516 0.015625)"/>
     <use xlink:href="#DejaVuSans-20" transform="translate(2123.876953 0.015625)"/>
     <use xlink:href="#DejaVuSans-31" transform="translate(2155.664062 0.015625)"/>
     <use xlink:href="#DejaVuSans-30" transform="translate(2219.287109 0.015625)"/>
     <use xlink:href="#DejaVuSans-2e" transform="translate(2282.910156 0.015625)"/>
     <use xlink:href="#DejaVuSans-31" transform="translate(2314.697266 0.015625)"/>
     <use xlink:href="#DejaVuSans-35" transform="translate(2378.320312 0.015625)"/>
     <use xlink:href="#DejaVuSans-20" transform="translate(2441.943359 0.015625)"/>
     <use xlink:href="#DejaVuSans-6d" transform="translate(2473.730469 0.015625)"/>
     <use xlink:href="#DejaVuSans-69" transform="translate(2571.142578 0.015625)"/>
     <use xlink:href="#DejaVuSans-6e" transform="translate(2598.925781 0.015625)"/>
     <use xlink:href="#DejaVuSans-2e" transform="translate(2662.304688 0.015625)"/>
    </g>
   </g>
  </g>
 </g>
 <defs>
  <clipPath id="p39c2f5afea">
   <rect x="57.6" y="41.472" width="357.12" height="266.112"/>
  </clipPath>
 </defs>
</svg>
