<?xml version="1.0" encoding="utf-8" standalone="no"?>
<!DOCTYPE svg PUBLIC "-//W3C//DTD SVG 1.1//EN"
  "http://www.w3.org/Graphics/SVG/1.1/DTD/svg11.dtd">
<svg xmlns:xlink="http://www.w3.org/1999/xlink" width="460.8pt" height="345.6pt" viewBox="0 0 460.8 345.6" xmlns="http://www.w3.org/2000/svg" version="1.1">
 <metadata>
  <rdf:RDF xmlns:dc="http://purl.org/dc/elements/1.1/" xmlns:cc="http://creativecommons.org/ns#" xmlns:rdf="http://www.w3.org/1999/02/22-rdf-syntax-ns#">
   <cc:Work>
    <dc:type rdf:resource="http://purl.org/dc/dcmitype/StillImage"/>
    <dc:date>2025-01-11T15:07:51.344560</dc:date>
    <dc:format>image/svg+xml</dc:format>
    <dc:creator>
     <cc:Agent>
      <dc:title>Matplotlib v3.7.3, https://matplotlib.org/</dc:title>
     </cc:Agent>
    </dc:creator>
   </cc:Work>
  </rdf:RDF>
 </metadata>
 <defs>
  <style type="text/css">*{stroke-linejoin: round; stroke-linecap: butt}</style>
 </defs>
 <g id="figure_1">
  <g id="patch_1">
   <path d="M 0 345.6 
L 460.8 345.6 
L 460.8 0 
L 0 0 
z
" style="fill: #ffffff"/>
  </g>
  <g id="axes_1">
   <g id="patch_2">
    <path d="M 57.6 307.584 
L 414.72 307.584 
L 414.72 41.472 
L 57.6 41.472 
z
" style="fill: #ffffff"/>
   </g>
   <g id="patch_3">
    <path d="M 73.832727 307.584 
L 74.498621 307.584 
L 74.498621 307.481726 
L 73.832727 307.481726 
z
" clip-path="url(#p90421a4a89)" style="fill: #1f77b4"/>
   </g>
   <g id="patch_4">
    <path d="M 75.48011 307.584 
L 76.146004 307.584 
L 76.146004 307.369658 
L 75.48011 307.369658 
z
" clip-path="url(#p90421a4a89)" style="fill: #1f77b4"/>
   </g>
   <g id="patch_5">
    <path d="M 75.510214 307.584 
L 76.176108 307.584 
L 76.176108 307.483877 
L 75.510214 307.483877 
z
" clip-path="url(#p90421a4a89)" style="fill: #1f77b4"/>
   </g>
   <g id="patch_6">
    <path d="M 77.157726 307.584 
L 77.82362 307.584 
L 77.82362 307.256094 
L 77.157726 307.256094 
z
" clip-path="url(#p90421a4a89)" style="fill: #1f77b4"/>
   </g>
   <g id="patch_7">
    <path d="M 81.507613 307.584 
L 82.173507 307.584 
L 82.173507 307.48745 
L 81.507613 307.48745 
z
" clip-path="url(#p90421a4a89)" style="fill: #1f77b4"/>
   </g>
   <g id="patch_8">
    <path d="M 82.588811 307.584 
L 83.254705 307.584 
L 83.254705 307.417496 
L 82.588811 307.417496 
z
" clip-path="url(#p90421a4a89)" style="fill: #1f77b4"/>
   </g>
   <g id="patch_9">
    <path d="M 83.821089 307.584 
L 84.486983 307.584 
L 84.486983 307.449595 
L 83.821089 307.449595 
z
" clip-path="url(#p90421a4a89)" style="fill: #1f77b4"/>
   </g>
   <g id="patch_10">
    <path d="M 85.498703 307.584 
L 86.164597 307.584 
L 86.164597 307.474233 
L 85.498703 307.474233 
z
" clip-path="url(#p90421a4a89)" style="fill: #1f77b4"/>
   </g>
   <g id="patch_11">
    <path d="M 88.004753 307.584 
L 88.670647 307.584 
L 88.670647 307.447965 
L 88.004753 307.447965 
z
" clip-path="url(#p90421a4a89)" style="fill: #1f77b4"/>
   </g>
   <g id="patch_12">
    <path d="M 93.809187 307.584 
L 94.475081 307.584 
L 94.475081 306.839737 
L 93.809187 306.839737 
z
" clip-path="url(#p90421a4a89)" style="fill: #1f77b4"/>
   </g>
   <g id="patch_13">
    <path d="M 94.648204 307.584 
L 95.314098 307.584 
L 95.314098 307.441065 
L 94.648204 307.441065 
z
" clip-path="url(#p90421a4a89)" style="fill: #1f77b4"/>
   </g>
   <g id="patch_14">
    <path d="M 95.077514 307.584 
L 95.743408 307.584 
L 95.743408 307.462511 
L 95.077514 307.462511 
z
" clip-path="url(#p90421a4a89)" style="fill: #1f77b4"/>
   </g>
   <g id="patch_15">
    <path d="M 95.487004 307.584 
L 96.152898 307.584 
L 96.152898 303.512312 
L 95.487004 303.512312 
z
" clip-path="url(#p90421a4a89)" style="fill: #1f77b4"/>
   </g>
   <g id="patch_16">
    <path d="M 97.134783 307.584 
L 97.800677 307.584 
L 97.800677 307.452668 
L 97.134783 307.452668 
z
" clip-path="url(#p90421a4a89)" style="fill: #1f77b4"/>
   </g>
   <g id="patch_17">
    <path d="M 97.164993 307.584 
L 97.830886 307.584 
L 97.830886 307.433589 
L 97.164993 307.433589 
z
" clip-path="url(#p90421a4a89)" style="fill: #1f77b4"/>
   </g>
   <g id="patch_18">
    <path d="M 98.809088 307.584 
L 99.474982 307.584 
L 99.474982 307.48161 
L 98.809088 307.48161 
z
" clip-path="url(#p90421a4a89)" style="fill: #1f77b4"/>
   </g>
   <g id="patch_19">
    <path d="M 98.977877 307.584 
L 99.643771 307.584 
L 99.643771 307.481819 
L 98.977877 307.481819 
z
" clip-path="url(#p90421a4a89)" style="fill: #1f77b4"/>
   </g>
   <g id="patch_20">
    <path d="M 100.519248 307.584 
L 101.185142 307.584 
L 101.185142 307.470106 
L 100.519248 307.470106 
z
" clip-path="url(#p90421a4a89)" style="fill: #1f77b4"/>
   </g>
   <g id="patch_21">
    <path d="M 104.636562 307.584 
L 105.302456 307.584 
L 105.302456 307.292497 
L 104.636562 307.292497 
z
" clip-path="url(#p90421a4a89)" style="fill: #1f77b4"/>
   </g>
   <g id="patch_22">
    <path d="M 105.475236 307.584 
L 106.14113 307.584 
L 106.14113 306.298969 
L 105.475236 306.298969 
z
" clip-path="url(#p90421a4a89)" style="fill: #1f77b4"/>
   </g>
   <g id="patch_23">
    <path d="M 106.313979 307.584 
L 106.979873 307.584 
L 106.979873 307.392313 
L 106.313979 307.392313 
z
" clip-path="url(#p90421a4a89)" style="fill: #1f77b4"/>
   </g>
   <g id="patch_24">
    <path d="M 106.399825 307.584 
L 107.065719 307.584 
L 107.065719 307.479578 
L 106.399825 307.479578 
z
" clip-path="url(#p90421a4a89)" style="fill: #1f77b4"/>
   </g>
   <g id="patch_25">
    <path d="M 107.152761 307.584 
L 107.818655 307.584 
L 107.818655 307.338451 
L 107.152761 307.338451 
z
" clip-path="url(#p90421a4a89)" style="fill: #1f77b4"/>
   </g>
   <g id="patch_26">
    <path d="M 107.961327 307.584 
L 108.62722 307.584 
L 108.62722 307.455243 
L 107.961327 307.455243 
z
" clip-path="url(#p90421a4a89)" style="fill: #1f77b4"/>
   </g>
   <g id="patch_27">
    <path d="M 107.981324 307.584 
L 108.647218 307.584 
L 108.647218 307.350275 
L 107.981324 307.350275 
z
" clip-path="url(#p90421a4a89)" style="fill: #1f77b4"/>
   </g>
   <g id="patch_28">
    <path d="M 108.800419 307.584 
L 109.466313 307.584 
L 109.466313 307.424885 
L 108.800419 307.424885 
z
" clip-path="url(#p90421a4a89)" style="fill: #1f77b4"/>
   </g>
   <g id="patch_29">
    <path d="M 108.830482 307.584 
L 109.496376 307.584 
L 109.496376 307.395166 
L 108.830482 307.395166 
z
" clip-path="url(#p90421a4a89)" style="fill: #1f77b4"/>
   </g>
   <g id="patch_30">
    <path d="M 109.658976 307.584 
L 110.32487 307.584 
L 110.32487 306.987655 
L 109.658976 306.987655 
z
" clip-path="url(#p90421a4a89)" style="fill: #1f77b4"/>
   </g>
   <g id="patch_31">
    <path d="M 115.458082 307.584 
L 116.123976 307.584 
L 116.123976 307.34033 
L 115.458082 307.34033 
z
" clip-path="url(#p90421a4a89)" style="fill: #1f77b4"/>
   </g>
   <g id="patch_32">
    <path d="M 115.463569 307.584 
L 116.129463 307.584 
L 116.129463 303.797514 
L 115.463569 303.797514 
z
" clip-path="url(#p90421a4a89)" style="fill: #1f77b4"/>
   </g>
   <g id="patch_33">
    <path d="M 116.30263 307.584 
L 116.968524 307.584 
L 116.968524 307.229542 
L 116.30263 307.229542 
z
" clip-path="url(#p90421a4a89)" style="fill: #1f77b4"/>
   </g>
   <g id="patch_34">
    <path d="M 117.120245 307.584 
L 117.786139 307.584 
L 117.786139 307.123506 
L 117.120245 307.123506 
z
" clip-path="url(#p90421a4a89)" style="fill: #1f77b4"/>
   </g>
   <g id="patch_35">
    <path d="M 117.14131 307.584 
L 117.807204 307.584 
L 117.807204 293.404867 
L 117.14131 293.404867 
z
" clip-path="url(#p90421a4a89)" style="fill: #1f77b4"/>
   </g>
   <g id="patch_36">
    <path d="M 117.976389 307.584 
L 118.642283 307.584 
L 118.642283 306.863537 
L 117.976389 306.863537 
z
" clip-path="url(#p90421a4a89)" style="fill: #1f77b4"/>
   </g>
   <g id="patch_37">
    <path d="M 118.788746 307.584 
L 119.45464 307.584 
L 119.45464 305.987107 
L 118.788746 305.987107 
z
" clip-path="url(#p90421a4a89)" style="fill: #1f77b4"/>
   </g>
   <g id="patch_38">
    <path d="M 118.819082 307.584 
L 119.484976 307.584 
L 119.484976 306.864198 
L 118.819082 306.864198 
z
" clip-path="url(#p90421a4a89)" style="fill: #1f77b4"/>
   </g>
   <g id="patch_39">
    <path d="M 120.466499 307.584 
L 121.132393 307.584 
L 121.132393 307.070171 
L 120.466499 307.070171 
z
" clip-path="url(#p90421a4a89)" style="fill: #1f77b4"/>
   </g>
   <g id="patch_40">
    <path d="M 121.325443 307.584 
L 121.991337 307.584 
L 121.991337 307.338087 
L 121.325443 307.338087 
z
" clip-path="url(#p90421a4a89)" style="fill: #1f77b4"/>
   </g>
   <g id="patch_41">
    <path d="M 121.50814 307.584 
L 122.174034 307.584 
L 122.174034 307.413941 
L 121.50814 307.413941 
z
" clip-path="url(#p90421a4a89)" style="fill: #1f77b4"/>
   </g>
   <g id="patch_42">
    <path d="M 125.451947 307.584 
L 126.117841 307.584 
L 126.117841 307.1762 
L 125.451947 307.1762 
z
" clip-path="url(#p90421a4a89)" style="fill: #1f77b4"/>
   </g>
   <g id="patch_43">
    <path d="M 127.129579 307.584 
L 127.795473 307.584 
L 127.795473 307.361529 
L 127.129579 307.361529 
z
" clip-path="url(#p90421a4a89)" style="fill: #1f77b4"/>
   </g>
   <g id="patch_44">
    <path d="M 127.938171 307.584 
L 128.604065 307.584 
L 128.604065 305.536872 
L 127.938171 305.536872 
z
" clip-path="url(#p90421a4a89)" style="fill: #1f77b4"/>
   </g>
   <g id="patch_45">
    <path d="M 128.048358 307.584 
L 128.714252 307.584 
L 128.714252 307.445557 
L 128.048358 307.445557 
z
" clip-path="url(#p90421a4a89)" style="fill: #1f77b4"/>
   </g>
   <g id="patch_46">
    <path d="M 128.777206 307.584 
L 129.4431 307.584 
L 129.4431 306.387188 
L 128.777206 306.387188 
z
" clip-path="url(#p90421a4a89)" style="fill: #1f77b4"/>
   </g>
   <g id="patch_47">
    <path d="M 129.615981 307.584 
L 130.281875 307.584 
L 130.281875 305.342662 
L 129.615981 305.342662 
z
" clip-path="url(#p90421a4a89)" style="fill: #1f77b4"/>
   </g>
   <g id="patch_48">
    <path d="M 130.454902 307.584 
L 131.120796 307.584 
L 131.120796 305.200523 
L 130.454902 305.200523 
z
" clip-path="url(#p90421a4a89)" style="fill: #1f77b4"/>
   </g>
   <g id="patch_49">
    <path d="M 131.293824 307.584 
L 131.959718 307.584 
L 131.959718 306.619082 
L 131.293824 306.619082 
z
" clip-path="url(#p90421a4a89)" style="fill: #1f77b4"/>
   </g>
   <g id="patch_50">
    <path d="M 131.313129 307.584 
L 131.979023 307.584 
L 131.979023 306.665794 
L 131.313129 306.665794 
z
" clip-path="url(#p90421a4a89)" style="fill: #1f77b4"/>
   </g>
   <g id="patch_51">
    <path d="M 132.102053 307.584 
L 132.767947 307.584 
L 132.767947 307.365573 
L 132.102053 307.365573 
z
" clip-path="url(#p90421a4a89)" style="fill: #1f77b4"/>
   </g>
   <g id="patch_52">
    <path d="M 132.132541 307.584 
L 132.798435 307.584 
L 132.798435 307.345344 
L 132.132541 307.345344 
z
" clip-path="url(#p90421a4a89)" style="fill: #1f77b4"/>
   </g>
   <g id="patch_53">
    <path d="M 132.941412 307.584 
L 133.607306 307.584 
L 133.607306 307.259029 
L 132.941412 307.259029 
z
" clip-path="url(#p90421a4a89)" style="fill: #1f77b4"/>
   </g>
   <g id="patch_54">
    <path d="M 138.765463 307.584 
L 139.431357 307.584 
L 139.431357 306.998454 
L 138.765463 306.998454 
z
" clip-path="url(#p90421a4a89)" style="fill: #1f77b4"/>
   </g>
   <g id="patch_55">
    <path d="M 139.604321 307.584 
L 140.270215 307.584 
L 140.270215 307.376838 
L 139.604321 307.376838 
z
" clip-path="url(#p90421a4a89)" style="fill: #1f77b4"/>
   </g>
   <g id="patch_56">
    <path d="M 140.44314 307.584 
L 141.109034 307.584 
L 141.109034 295.758559 
L 140.44314 295.758559 
z
" clip-path="url(#p90421a4a89)" style="fill: #1f77b4"/>
   </g>
   <g id="patch_57">
    <path d="M 140.452095 307.584 
L 141.117989 307.584 
L 141.117989 306.661154 
L 140.452095 306.661154 
z
" clip-path="url(#p90421a4a89)" style="fill: #1f77b4"/>
   </g>
   <g id="patch_58">
    <path d="M 141.282087 307.584 
L 141.947981 307.584 
L 141.947981 300.489574 
L 141.282087 300.489574 
z
" clip-path="url(#p90421a4a89)" style="fill: #1f77b4"/>
   </g>
   <g id="patch_59">
    <path d="M 142.090488 307.584 
L 142.756382 307.584 
L 142.756382 303.141201 
L 142.090488 303.141201 
z
" clip-path="url(#p90421a4a89)" style="fill: #1f77b4"/>
   </g>
   <g id="patch_60">
    <path d="M 142.120906 307.584 
L 142.7868 307.584 
L 142.7868 302.072795 
L 142.120906 302.072795 
z
" clip-path="url(#p90421a4a89)" style="fill: #1f77b4"/>
   </g>
   <g id="patch_61">
    <path d="M 142.928736 307.584 
L 143.59463 307.584 
L 143.59463 307.19258 
L 142.928736 307.19258 
z
" clip-path="url(#p90421a4a89)" style="fill: #1f77b4"/>
   </g>
   <g id="patch_62">
    <path d="M 142.955992 307.584 
L 143.621886 307.584 
L 143.621886 307.389757 
L 142.955992 307.389757 
z
" clip-path="url(#p90421a4a89)" style="fill: #1f77b4"/>
   </g>
   <g id="patch_63">
    <path d="M 143.768279 307.584 
L 144.434173 307.584 
L 144.434173 307.023898 
L 143.768279 307.023898 
z
" clip-path="url(#p90421a4a89)" style="fill: #1f77b4"/>
   </g>
   <g id="patch_64">
    <path d="M 143.79899 307.584 
L 144.464884 307.584 
L 144.464884 306.99076 
L 143.79899 306.99076 
z
" clip-path="url(#p90421a4a89)" style="fill: #1f77b4"/>
   </g>
   <g id="patch_65">
    <path d="M 144.607073 307.584 
L 145.272967 307.584 
L 145.272967 307.054418 
L 144.607073 307.054418 
z
" clip-path="url(#p90421a4a89)" style="fill: #1f77b4"/>
   </g>
   <g id="patch_66">
    <path d="M 145.445779 307.584 
L 146.111673 307.584 
L 146.111673 307.257128 
L 145.445779 307.257128 
z
" clip-path="url(#p90421a4a89)" style="fill: #1f77b4"/>
   </g>
   <g id="patch_67">
    <path d="M 151.270395 307.584 
L 151.936289 307.584 
L 151.936289 307.38239 
L 151.270395 307.38239 
z
" clip-path="url(#p90421a4a89)" style="fill: #1f77b4"/>
   </g>
   <g id="patch_68">
    <path d="M 152.109252 307.584 
L 152.775146 307.584 
L 152.775146 307.448625 
L 152.109252 307.448625 
z
" clip-path="url(#p90421a4a89)" style="fill: #1f77b4"/>
   </g>
   <g id="patch_69">
    <path d="M 153.756562 307.584 
L 154.422456 307.584 
L 154.422456 306.638911 
L 153.756562 306.638911 
z
" clip-path="url(#p90421a4a89)" style="fill: #1f77b4"/>
   </g>
   <g id="patch_70">
    <path d="M 154.575352 307.584 
L 155.241246 307.584 
L 155.241246 307.32327 
L 154.575352 307.32327 
z
" clip-path="url(#p90421a4a89)" style="fill: #1f77b4"/>
   </g>
   <g id="patch_71">
    <path d="M 154.579149 307.584 
L 155.245043 307.584 
L 155.245043 307.330576 
L 154.579149 307.330576 
z
" clip-path="url(#p90421a4a89)" style="fill: #1f77b4"/>
   </g>
   <g id="patch_72">
    <path d="M 154.584725 307.584 
L 155.250619 307.584 
L 155.250619 307.348007 
L 154.584725 307.348007 
z
" clip-path="url(#p90421a4a89)" style="fill: #1f77b4"/>
   </g>
   <g id="patch_73">
    <path d="M 154.595559 307.584 
L 155.261453 307.584 
L 155.261453 250.9385 
L 154.595559 250.9385 
z
" clip-path="url(#p90421a4a89)" style="fill: #1f77b4"/>
   </g>
   <g id="patch_74">
    <path d="M 155.432372 307.584 
L 156.098266 307.584 
L 156.098266 303.493046 
L 155.432372 303.493046 
z
" clip-path="url(#p90421a4a89)" style="fill: #1f77b4"/>
   </g>
   <g id="patch_75">
    <path d="M 155.474679 307.584 
L 156.140572 307.584 
L 156.140572 307.417806 
L 155.474679 307.417806 
z
" clip-path="url(#p90421a4a89)" style="fill: #1f77b4"/>
   </g>
   <g id="patch_76">
    <path d="M 156.270556 307.584 
L 156.93645 307.584 
L 156.93645 307.23057 
L 156.270556 307.23057 
z
" clip-path="url(#p90421a4a89)" style="fill: #1f77b4"/>
   </g>
   <g id="patch_77">
    <path d="M 157.112018 307.584 
L 157.777912 307.584 
L 157.777912 306.825433 
L 157.112018 306.825433 
z
" clip-path="url(#p90421a4a89)" style="fill: #1f77b4"/>
   </g>
   <g id="patch_78">
    <path d="M 165.423042 307.584 
L 166.088936 307.584 
L 166.088936 307.409522 
L 165.423042 307.409522 
z
" clip-path="url(#p90421a4a89)" style="fill: #1f77b4"/>
   </g>
   <g id="patch_79">
    <path d="M 167.050335 307.584 
L 167.716229 307.584 
L 167.716229 307.457343 
L 167.050335 307.457343 
z
" clip-path="url(#p90421a4a89)" style="fill: #1f77b4"/>
   </g>
   <g id="patch_80">
    <path d="M 167.055859 307.584 
L 167.721753 307.584 
L 167.721753 307.391096 
L 167.055859 307.391096 
z
" clip-path="url(#p90421a4a89)" style="fill: #1f77b4"/>
   </g>
   <g id="patch_81">
    <path d="M 167.076778 307.584 
L 167.742672 307.584 
L 167.742672 306.056684 
L 167.076778 306.056684 
z
" clip-path="url(#p90421a4a89)" style="fill: #1f77b4"/>
   </g>
   <g id="patch_82">
    <path d="M 167.081414 307.584 
L 167.747308 307.584 
L 167.747308 306.243447 
L 167.081414 306.243447 
z
" clip-path="url(#p90421a4a89)" style="fill: #1f77b4"/>
   </g>
   <g id="patch_83">
    <path d="M 167.100706 307.584 
L 167.7666 307.584 
L 167.7666 54.144 
L 167.100706 54.144 
z
" clip-path="url(#p90421a4a89)" style="fill: #1f77b4"/>
   </g>
   <g id="patch_84">
    <path d="M 167.119415 307.584 
L 167.785309 307.584 
L 167.785309 306.433902 
L 167.119415 306.433902 
z
" clip-path="url(#p90421a4a89)" style="fill: #1f77b4"/>
   </g>
   <g id="patch_85">
    <path d="M 167.125245 307.584 
L 167.791139 307.584 
L 167.791139 305.934743 
L 167.125245 305.934743 
z
" clip-path="url(#p90421a4a89)" style="fill: #1f77b4"/>
   </g>
   <g id="patch_86">
    <path d="M 167.282558 307.584 
L 167.948452 307.584 
L 167.948452 307.446667 
L 167.282558 307.446667 
z
" clip-path="url(#p90421a4a89)" style="fill: #1f77b4"/>
   </g>
   <g id="patch_87">
    <path d="M 167.935678 307.584 
L 168.601572 307.584 
L 168.601572 290.522967 
L 167.935678 290.522967 
z
" clip-path="url(#p90421a4a89)" style="fill: #1f77b4"/>
   </g>
   <g id="patch_88">
    <path d="M 175.411807 307.584 
L 176.077701 307.584 
L 176.077701 307.424961 
L 175.411807 307.424961 
z
" clip-path="url(#p90421a4a89)" style="fill: #1f77b4"/>
   </g>
   <g id="patch_89">
    <path d="M 177.088798 307.584 
L 177.754692 307.584 
L 177.754692 305.717144 
L 177.088798 305.717144 
z
" clip-path="url(#p90421a4a89)" style="fill: #1f77b4"/>
   </g>
   <g id="patch_90">
    <path d="M 178.76692 307.584 
L 179.432814 307.584 
L 179.432814 307.180803 
L 178.76692 307.180803 
z
" clip-path="url(#p90421a4a89)" style="fill: #1f77b4"/>
   </g>
   <g id="patch_91">
    <path d="M 188.754974 307.584 
L 189.420868 307.584 
L 189.420868 307.280553 
L 188.754974 307.280553 
z
" clip-path="url(#p90421a4a89)" style="fill: #1f77b4"/>
   </g>
   <g id="patch_92">
    <path d="M 190.433032 307.584 
L 191.098926 307.584 
L 191.098926 307.212912 
L 190.433032 307.212912 
z
" clip-path="url(#p90421a4a89)" style="fill: #1f77b4"/>
   </g>
   <g id="patch_93">
    <path d="M 197.893743 307.584 
L 198.559637 307.584 
L 198.559637 307.437218 
L 197.893743 307.437218 
z
" clip-path="url(#p90421a4a89)" style="fill: #1f77b4"/>
   </g>
   <g id="patch_94">
    <path d="M 207.912482 307.584 
L 208.578376 307.584 
L 208.578376 307.418711 
L 207.912482 307.418711 
z
" clip-path="url(#p90421a4a89)" style="fill: #1f77b4"/>
   </g>
   <g id="patch_95">
    <path d="M 210.398318 307.584 
L 211.064212 307.584 
L 211.064212 307.307271 
L 210.398318 307.307271 
z
" clip-path="url(#p90421a4a89)" style="fill: #1f77b4"/>
   </g>
   <g id="patch_96">
    <path d="M 211.237875 307.584 
L 211.903769 307.584 
L 211.903769 307.042311 
L 211.237875 307.042311 
z
" clip-path="url(#p90421a4a89)" style="fill: #1f77b4"/>
   </g>
   <g id="patch_97">
    <path d="M 212.915107 307.584 
L 213.581001 307.584 
L 213.581001 306.657197 
L 212.915107 306.657197 
z
" clip-path="url(#p90421a4a89)" style="fill: #1f77b4"/>
   </g>
   <g id="patch_98">
    <path d="M 223.753513 307.584 
L 224.419407 307.584 
L 224.419407 307.046942 
L 223.753513 307.046942 
z
" clip-path="url(#p90421a4a89)" style="fill: #1f77b4"/>
   </g>
   <g id="patch_99">
    <path d="M 232.064423 307.584 
L 232.730317 307.584 
L 232.730317 307.277287 
L 232.064423 307.277287 
z
" clip-path="url(#p90421a4a89)" style="fill: #1f77b4"/>
   </g>
   <g id="patch_100">
    <path d="M 232.259281 307.584 
L 232.925175 307.584 
L 232.925175 307.455011 
L 232.259281 307.455011 
z
" clip-path="url(#p90421a4a89)" style="fill: #1f77b4"/>
   </g>
   <g id="patch_101">
    <path d="M 233.731203 307.584 
L 234.397097 307.584 
L 234.397097 307.367879 
L 233.731203 307.367879 
z
" clip-path="url(#p90421a4a89)" style="fill: #1f77b4"/>
   </g>
   <g id="patch_102">
    <path d="M 235.398605 307.584 
L 236.064499 307.584 
L 236.064499 306.096253 
L 235.398605 306.096253 
z
" clip-path="url(#p90421a4a89)" style="fill: #1f77b4"/>
   </g>
   <g id="patch_103">
    <path d="M 237.926177 307.584 
L 238.592071 307.584 
L 238.592071 307.373356 
L 237.926177 307.373356 
z
" clip-path="url(#p90421a4a89)" style="fill: #1f77b4"/>
   </g>
   <g id="patch_104">
    <path d="M 246.236363 307.584 
L 246.902257 307.584 
L 246.902257 303.514835 
L 246.236363 303.514835 
z
" clip-path="url(#p90421a4a89)" style="fill: #1f77b4"/>
   </g>
   <g id="patch_105">
    <path d="M 247.071677 307.584 
L 247.737571 307.584 
L 247.737571 307.252137 
L 247.071677 307.252137 
z
" clip-path="url(#p90421a4a89)" style="fill: #1f77b4"/>
   </g>
   <g id="patch_106">
    <path d="M 265.784373 307.584 
L 266.450267 307.584 
L 266.450267 307.445543 
L 265.784373 307.445543 
z
" clip-path="url(#p90421a4a89)" style="fill: #1f77b4"/>
   </g>
   <g id="patch_107">
    <path d="M 270.369583 307.584 
L 271.035477 307.584 
L 271.035477 307.310597 
L 270.369583 307.310597 
z
" clip-path="url(#p90421a4a89)" style="fill: #1f77b4"/>
   </g>
   <g id="patch_108">
    <path d="M 270.396992 307.584 
L 271.062886 307.584 
L 271.062886 299.867872 
L 270.396992 299.867872 
z
" clip-path="url(#p90421a4a89)" style="fill: #1f77b4"/>
   </g>
   <g id="patch_109">
    <path d="M 271.232052 307.584 
L 271.897946 307.584 
L 271.897946 306.820161 
L 271.232052 306.820161 
z
" clip-path="url(#p90421a4a89)" style="fill: #1f77b4"/>
   </g>
   <g id="patch_110">
    <path d="M 282.062812 307.584 
L 282.728706 307.584 
L 282.728706 307.46371 
L 282.062812 307.46371 
z
" clip-path="url(#p90421a4a89)" style="fill: #1f77b4"/>
   </g>
   <g id="patch_111">
    <path d="M 361.148465 307.584 
L 361.814359 307.584 
L 361.814359 307.115163 
L 361.148465 307.115163 
z
" clip-path="url(#p90421a4a89)" style="fill: #1f77b4"/>
   </g>
   <g id="patch_112">
    <path d="M 366.370371 307.584 
L 367.036265 307.584 
L 367.036265 307.443185 
L 366.370371 307.443185 
z
" clip-path="url(#p90421a4a89)" style="fill: #1f77b4"/>
   </g>
   <g id="patch_113">
    <path d="M 396.144603 307.584 
L 396.810497 307.584 
L 396.810497 307.361868 
L 396.144603 307.361868 
z
" clip-path="url(#p90421a4a89)" style="fill: #1f77b4"/>
   </g>
   <g id="patch_114">
    <path d="M 396.88146 307.584 
L 397.547354 307.584 
L 397.547354 307.164368 
L 396.88146 307.164368 
z
" clip-path="url(#p90421a4a89)" style="fill: #1f77b4"/>
   </g>
   <g id="patch_115">
    <path d="M 396.903915 307.584 
L 397.569809 307.584 
L 397.569809 307.277822 
L 396.903915 307.277822 
z
" clip-path="url(#p90421a4a89)" style="fill: #1f77b4"/>
   </g>
   <g id="patch_116">
    <path d="M 396.986497 307.584 
L 397.65239 307.584 
L 397.65239 228.197233 
L 396.986497 228.197233 
z
" clip-path="url(#p90421a4a89)" style="fill: #1f77b4"/>
   </g>
   <g id="patch_117">
    <path d="M 397.092041 307.584 
L 397.757935 307.584 
L 397.757935 307.119692 
L 397.092041 307.119692 
z
" clip-path="url(#p90421a4a89)" style="fill: #1f77b4"/>
   </g>
   <g id="patch_118">
    <path d="M 397.821379 307.584 
L 398.487273 307.584 
L 398.487273 292.37321 
L 397.821379 292.37321 
z
" clip-path="url(#p90421a4a89)" style="fill: #1f77b4"/>
   </g>
   <g id="matplotlib.axis_1">
    <g id="xtick_1">
     <g id="line2d_1">
      <defs>
       <path id="m93d31ba12b" d="M 0 0 
L 0 3.5 
" style="stroke: #000000; stroke-width: 0.8"/>
      </defs>
      <g>
       <use xlink:href="#m93d31ba12b" x="71.635661" y="307.584" style="stroke: #000000; stroke-width: 0.8"/>
      </g>
     </g>
     <g id="text_1">
      <!-- 50 -->
      <g transform="translate(65.273161 322.182437) scale(0.1 -0.1)">
       <defs>
        <path id="DejaVuSans-35" d="M 691 4666 
L 3169 4666 
L 3169 4134 
L 1269 4134 
L 1269 2991 
Q 1406 3038 1543 3061 
Q 1681 3084 1819 3084 
Q 2600 3084 3056 2656 
Q 3513 2228 3513 1497 
Q 3513 744 3044 326 
Q 2575 -91 1722 -91 
Q 1428 -91 1123 -41 
Q 819 9 494 109 
L 494 744 
Q 775 591 1075 516 
Q 1375 441 1709 441 
Q 2250 441 2565 725 
Q 2881 1009 2881 1497 
Q 2881 1984 2565 2268 
Q 2250 2553 1709 2553 
Q 1456 2553 1204 2497 
Q 953 2441 691 2322 
L 691 4666 
z
" transform="scale(0.015625)"/>
        <path id="DejaVuSans-30" d="M 2034 4250 
Q 1547 4250 1301 3770 
Q 1056 3291 1056 2328 
Q 1056 1369 1301 889 
Q 1547 409 2034 409 
Q 2525 409 2770 889 
Q 3016 1369 3016 2328 
Q 3016 3291 2770 3770 
Q 2525 4250 2034 4250 
z
M 2034 4750 
Q 2819 4750 3233 4129 
Q 3647 3509 3647 2328 
Q 3647 1150 3233 529 
Q 2819 -91 2034 -91 
Q 1250 -91 836 529 
Q 422 1150 422 2328 
Q 422 3509 836 4129 
Q 1250 4750 2034 4750 
z
" transform="scale(0.015625)"/>
       </defs>
       <use xlink:href="#DejaVuSans-35"/>
       <use xlink:href="#DejaVuSans-30" x="63.623047"/>
      </g>
     </g>
    </g>
    <g id="xtick_2">
     <g id="line2d_2">
      <g>
       <use xlink:href="#m93d31ba12b" x="113.254033" y="307.584" style="stroke: #000000; stroke-width: 0.8"/>
      </g>
     </g>
     <g id="text_2">
      <!-- 100 -->
      <g transform="translate(103.710283 322.182437) scale(0.1 -0.1)">
       <defs>
        <path id="DejaVuSans-31" d="M 794 531 
L 1825 531 
L 1825 4091 
L 703 3866 
L 703 4441 
L 1819 4666 
L 2450 4666 
L 2450 531 
L 3481 531 
L 3481 0 
L 794 0 
L 794 531 
z
" transform="scale(0.015625)"/>
       </defs>
       <use xlink:href="#DejaVuSans-31"/>
       <use xlink:href="#DejaVuSans-30" x="63.623047"/>
       <use xlink:href="#DejaVuSans-30" x="127.246094"/>
      </g>
     </g>
    </g>
    <g id="xtick_3">
     <g id="line2d_3">
      <g>
       <use xlink:href="#m93d31ba12b" x="154.872406" y="307.584" style="stroke: #000000; stroke-width: 0.8"/>
      </g>
     </g>
     <g id="text_3">
      <!-- 150 -->
      <g transform="translate(145.328656 322.182437) scale(0.1 -0.1)">
       <use xlink:href="#DejaVuSans-31"/>
       <use xlink:href="#DejaVuSans-35" x="63.623047"/>
       <use xlink:href="#DejaVuSans-30" x="127.246094"/>
      </g>
     </g>
    </g>
    <g id="xtick_4">
     <g id="line2d_4">
      <g>
       <use xlink:href="#m93d31ba12b" x="196.490779" y="307.584" style="stroke: #000000; stroke-width: 0.8"/>
      </g>
     </g>
     <g id="text_4">
      <!-- 200 -->
      <g transform="translate(186.947029 322.182437) scale(0.1 -0.1)">
       <defs>
        <path id="DejaVuSans-32" d="M 1228 531 
L 3431 531 
L 3431 0 
L 469 0 
L 469 531 
Q 828 903 1448 1529 
Q 2069 2156 2228 2338 
Q 2531 2678 2651 2914 
Q 2772 3150 2772 3378 
Q 2772 3750 2511 3984 
Q 2250 4219 1831 4219 
Q 1534 4219 1204 4116 
Q 875 4013 500 3803 
L 500 4441 
Q 881 4594 1212 4672 
Q 1544 4750 1819 4750 
Q 2544 4750 2975 4387 
Q 3406 4025 3406 3419 
Q 3406 3131 3298 2873 
Q 3191 2616 2906 2266 
Q 2828 2175 2409 1742 
Q 1991 1309 1228 531 
z
" transform="scale(0.015625)"/>
       </defs>
       <use xlink:href="#DejaVuSans-32"/>
       <use xlink:href="#DejaVuSans-30" x="63.623047"/>
       <use xlink:href="#DejaVuSans-30" x="127.246094"/>
      </g>
     </g>
    </g>
    <g id="xtick_5">
     <g id="line2d_5">
      <g>
       <use xlink:href="#m93d31ba12b" x="238.109151" y="307.584" style="stroke: #000000; stroke-width: 0.8"/>
      </g>
     </g>
     <g id="text_5">
      <!-- 250 -->
      <g transform="translate(228.565401 322.182437) scale(0.1 -0.1)">
       <use xlink:href="#DejaVuSans-32"/>
       <use xlink:href="#DejaVuSans-35" x="63.623047"/>
       <use xlink:href="#DejaVuSans-30" x="127.246094"/>
      </g>
     </g>
    </g>
    <g id="xtick_6">
     <g id="line2d_6">
      <g>
       <use xlink:href="#m93d31ba12b" x="279.727524" y="307.584" style="stroke: #000000; stroke-width: 0.8"/>
      </g>
     </g>
     <g id="text_6">
      <!-- 300 -->
      <g transform="translate(270.183774 322.182437) scale(0.1 -0.1)">
       <defs>
        <path id="DejaVuSans-33" d="M 2597 2516 
Q 3050 2419 3304 2112 
Q 3559 1806 3559 1356 
Q 3559 666 3084 287 
Q 2609 -91 1734 -91 
Q 1441 -91 1130 -33 
Q 819 25 488 141 
L 488 750 
Q 750 597 1062 519 
Q 1375 441 1716 441 
Q 2309 441 2620 675 
Q 2931 909 2931 1356 
Q 2931 1769 2642 2001 
Q 2353 2234 1838 2234 
L 1294 2234 
L 1294 2753 
L 1863 2753 
Q 2328 2753 2575 2939 
Q 2822 3125 2822 3475 
Q 2822 3834 2567 4026 
Q 2313 4219 1838 4219 
Q 1578 4219 1281 4162 
Q 984 4106 628 3988 
L 628 4550 
Q 988 4650 1302 4700 
Q 1616 4750 1894 4750 
Q 2613 4750 3031 4423 
Q 3450 4097 3450 3541 
Q 3450 3153 3228 2886 
Q 3006 2619 2597 2516 
z
" transform="scale(0.015625)"/>
       </defs>
       <use xlink:href="#DejaVuSans-33"/>
       <use xlink:href="#DejaVuSans-30" x="63.623047"/>
       <use xlink:href="#DejaVuSans-30" x="127.246094"/>
      </g>
     </g>
    </g>
    <g id="xtick_7">
     <g id="line2d_7">
      <g>
       <use xlink:href="#m93d31ba12b" x="321.345897" y="307.584" style="stroke: #000000; stroke-width: 0.8"/>
      </g>
     </g>
     <g id="text_7">
      <!-- 350 -->
      <g transform="translate(311.802147 322.182437) scale(0.1 -0.1)">
       <use xlink:href="#DejaVuSans-33"/>
       <use xlink:href="#DejaVuSans-35" x="63.623047"/>
       <use xlink:href="#DejaVuSans-30" x="127.246094"/>
      </g>
     </g>
    </g>
    <g id="xtick_8">
     <g id="line2d_8">
      <g>
       <use xlink:href="#m93d31ba12b" x="362.964269" y="307.584" style="stroke: #000000; stroke-width: 0.8"/>
      </g>
     </g>
     <g id="text_8">
      <!-- 400 -->
      <g transform="translate(353.420519 322.182437) scale(0.1 -0.1)">
       <defs>
        <path id="DejaVuSans-34" d="M 2419 4116 
L 825 1625 
L 2419 1625 
L 2419 4116 
z
M 2253 4666 
L 3047 4666 
L 3047 1625 
L 3713 1625 
L 3713 1100 
L 3047 1100 
L 3047 0 
L 2419 0 
L 2419 1100 
L 313 1100 
L 313 1709 
L 2253 4666 
z
" transform="scale(0.015625)"/>
       </defs>
       <use xlink:href="#DejaVuSans-34"/>
       <use xlink:href="#DejaVuSans-30" x="63.623047"/>
       <use xlink:href="#DejaVuSans-30" x="127.246094"/>
      </g>
     </g>
    </g>
    <g id="xtick_9">
     <g id="line2d_9">
      <g>
       <use xlink:href="#m93d31ba12b" x="404.582642" y="307.584" style="stroke: #000000; stroke-width: 0.8"/>
      </g>
     </g>
     <g id="text_9">
      <!-- 450 -->
      <g transform="translate(395.038892 322.182437) scale(0.1 -0.1)">
       <use xlink:href="#DejaVuSans-34"/>
       <use xlink:href="#DejaVuSans-35" x="63.623047"/>
       <use xlink:href="#DejaVuSans-30" x="127.246094"/>
      </g>
     </g>
    </g>
    <g id="text_10">
     <!-- ${m/z}$ -->
     <g transform="translate(226.96 335.860562) scale(0.1 -0.1)">
      <defs>
       <path id="DejaVuSans-Oblique-6d" d="M 5747 2113 
L 5338 0 
L 4763 0 
L 5166 2094 
Q 5191 2228 5203 2325 
Q 5216 2422 5216 2491 
Q 5216 2772 5059 2928 
Q 4903 3084 4622 3084 
Q 4203 3084 3875 2770 
Q 3547 2456 3450 1953 
L 3066 0 
L 2491 0 
L 2900 2094 
Q 2925 2209 2937 2307 
Q 2950 2406 2950 2484 
Q 2950 2769 2794 2926 
Q 2638 3084 2363 3084 
Q 1938 3084 1609 2770 
Q 1281 2456 1184 1953 
L 800 0 
L 225 0 
L 909 3500 
L 1484 3500 
L 1375 2956 
Q 1609 3263 1923 3423 
Q 2238 3584 2597 3584 
Q 2978 3584 3223 3384 
Q 3469 3184 3519 2828 
Q 3781 3197 4126 3390 
Q 4472 3584 4856 3584 
Q 5306 3584 5551 3325 
Q 5797 3066 5797 2591 
Q 5797 2488 5784 2364 
Q 5772 2241 5747 2113 
z
" transform="scale(0.015625)"/>
       <path id="DejaVuSans-2f" d="M 1625 4666 
L 2156 4666 
L 531 -594 
L 0 -594 
L 1625 4666 
z
" transform="scale(0.015625)"/>
       <path id="DejaVuSans-Oblique-7a" d="M 744 3500 
L 3475 3500 
L 3372 2975 
L 738 459 
L 2913 459 
L 2822 0 
L -19 0 
L 84 525 
L 2719 3041 
L 653 3041 
L 744 3500 
z
" transform="scale(0.015625)"/>
      </defs>
      <use xlink:href="#DejaVuSans-Oblique-6d" transform="translate(0 0.09375)"/>
      <use xlink:href="#DejaVuSans-2f" transform="translate(97.412109 0.09375)"/>
      <use xlink:href="#DejaVuSans-Oblique-7a" transform="translate(131.103516 0.09375)"/>
     </g>
    </g>
   </g>
   <g id="matplotlib.axis_2">
    <g id="ytick_1">
     <g id="line2d_10">
      <defs>
       <path id="m0b460c12d4" d="M 0 0 
L -3.5 0 
" style="stroke: #000000; stroke-width: 0.8"/>
      </defs>
      <g>
       <use xlink:href="#m0b460c12d4" x="57.6" y="307.584" style="stroke: #000000; stroke-width: 0.8"/>
      </g>
     </g>
     <g id="text_11">
      <!-- 0.0 -->
      <g transform="translate(34.696875 311.383219) scale(0.1 -0.1)">
       <defs>
        <path id="DejaVuSans-2e" d="M 684 794 
L 1344 794 
L 1344 0 
L 684 0 
L 684 794 
z
" transform="scale(0.015625)"/>
       </defs>
       <use xlink:href="#DejaVuSans-30"/>
       <use xlink:href="#DejaVuSans-2e" x="63.623047"/>
       <use xlink:href="#DejaVuSans-30" x="95.410156"/>
      </g>
     </g>
    </g>
    <g id="ytick_2">
     <g id="line2d_11">
      <g>
       <use xlink:href="#m0b460c12d4" x="57.6" y="274.534954" style="stroke: #000000; stroke-width: 0.8"/>
      </g>
     </g>
     <g id="text_12">
      <!-- 0.2 -->
      <g transform="translate(34.696875 278.334172) scale(0.1 -0.1)">
       <use xlink:href="#DejaVuSans-30"/>
       <use xlink:href="#DejaVuSans-2e" x="63.623047"/>
       <use xlink:href="#DejaVuSans-32" x="95.410156"/>
      </g>
     </g>
    </g>
    <g id="ytick_3">
     <g id="line2d_12">
      <g>
       <use xlink:href="#m0b460c12d4" x="57.6" y="241.485907" style="stroke: #000000; stroke-width: 0.8"/>
      </g>
     </g>
     <g id="text_13">
      <!-- 0.4 -->
      <g transform="translate(34.696875 245.285126) scale(0.1 -0.1)">
       <use xlink:href="#DejaVuSans-30"/>
       <use xlink:href="#DejaVuSans-2e" x="63.623047"/>
       <use xlink:href="#DejaVuSans-34" x="95.410156"/>
      </g>
     </g>
    </g>
    <g id="ytick_4">
     <g id="line2d_13">
      <g>
       <use xlink:href="#m0b460c12d4" x="57.6" y="208.436861" style="stroke: #000000; stroke-width: 0.8"/>
      </g>
     </g>
     <g id="text_14">
      <!-- 0.6 -->
      <g transform="translate(34.696875 212.236079) scale(0.1 -0.1)">
       <defs>
        <path id="DejaVuSans-36" d="M 2113 2584 
Q 1688 2584 1439 2293 
Q 1191 2003 1191 1497 
Q 1191 994 1439 701 
Q 1688 409 2113 409 
Q 2538 409 2786 701 
Q 3034 994 3034 1497 
Q 3034 2003 2786 2293 
Q 2538 2584 2113 2584 
z
M 3366 4563 
L 3366 3988 
Q 3128 4100 2886 4159 
Q 2644 4219 2406 4219 
Q 1781 4219 1451 3797 
Q 1122 3375 1075 2522 
Q 1259 2794 1537 2939 
Q 1816 3084 2150 3084 
Q 2853 3084 3261 2657 
Q 3669 2231 3669 1497 
Q 3669 778 3244 343 
Q 2819 -91 2113 -91 
Q 1303 -91 875 529 
Q 447 1150 447 2328 
Q 447 3434 972 4092 
Q 1497 4750 2381 4750 
Q 2619 4750 2861 4703 
Q 3103 4656 3366 4563 
z
" transform="scale(0.015625)"/>
       </defs>
       <use xlink:href="#DejaVuSans-30"/>
       <use xlink:href="#DejaVuSans-2e" x="63.623047"/>
       <use xlink:href="#DejaVuSans-36" x="95.410156"/>
      </g>
     </g>
    </g>
    <g id="ytick_5">
     <g id="line2d_14">
      <g>
       <use xlink:href="#m0b460c12d4" x="57.6" y="175.387814" style="stroke: #000000; stroke-width: 0.8"/>
      </g>
     </g>
     <g id="text_15">
      <!-- 0.8 -->
      <g transform="translate(34.696875 179.187033) scale(0.1 -0.1)">
       <defs>
        <path id="DejaVuSans-38" d="M 2034 2216 
Q 1584 2216 1326 1975 
Q 1069 1734 1069 1313 
Q 1069 891 1326 650 
Q 1584 409 2034 409 
Q 2484 409 2743 651 
Q 3003 894 3003 1313 
Q 3003 1734 2745 1975 
Q 2488 2216 2034 2216 
z
M 1403 2484 
Q 997 2584 770 2862 
Q 544 3141 544 3541 
Q 544 4100 942 4425 
Q 1341 4750 2034 4750 
Q 2731 4750 3128 4425 
Q 3525 4100 3525 3541 
Q 3525 3141 3298 2862 
Q 3072 2584 2669 2484 
Q 3125 2378 3379 2068 
Q 3634 1759 3634 1313 
Q 3634 634 3220 271 
Q 2806 -91 2034 -91 
Q 1263 -91 848 271 
Q 434 634 434 1313 
Q 434 1759 690 2068 
Q 947 2378 1403 2484 
z
M 1172 3481 
Q 1172 3119 1398 2916 
Q 1625 2713 2034 2713 
Q 2441 2713 2670 2916 
Q 2900 3119 2900 3481 
Q 2900 3844 2670 4047 
Q 2441 4250 2034 4250 
Q 1625 4250 1398 4047 
Q 1172 3844 1172 3481 
z
" transform="scale(0.015625)"/>
       </defs>
       <use xlink:href="#DejaVuSans-30"/>
       <use xlink:href="#DejaVuSans-2e" x="63.623047"/>
       <use xlink:href="#DejaVuSans-38" x="95.410156"/>
      </g>
     </g>
    </g>
    <g id="ytick_6">
     <g id="line2d_15">
      <g>
       <use xlink:href="#m0b460c12d4" x="57.6" y="142.338768" style="stroke: #000000; stroke-width: 0.8"/>
      </g>
     </g>
     <g id="text_16">
      <!-- 1.0 -->
      <g transform="translate(34.696875 146.137987) scale(0.1 -0.1)">
       <use xlink:href="#DejaVuSans-31"/>
       <use xlink:href="#DejaVuSans-2e" x="63.623047"/>
       <use xlink:href="#DejaVuSans-30" x="95.410156"/>
      </g>
     </g>
    </g>
    <g id="ytick_7">
     <g id="line2d_16">
      <g>
       <use xlink:href="#m0b460c12d4" x="57.6" y="109.289721" style="stroke: #000000; stroke-width: 0.8"/>
      </g>
     </g>
     <g id="text_17">
      <!-- 1.2 -->
      <g transform="translate(34.696875 113.08894) scale(0.1 -0.1)">
       <use xlink:href="#DejaVuSans-31"/>
       <use xlink:href="#DejaVuSans-2e" x="63.623047"/>
       <use xlink:href="#DejaVuSans-32" x="95.410156"/>
      </g>
     </g>
    </g>
    <g id="ytick_8">
     <g id="line2d_17">
      <g>
       <use xlink:href="#m0b460c12d4" x="57.6" y="76.240675" style="stroke: #000000; stroke-width: 0.8"/>
      </g>
     </g>
     <g id="text_18">
      <!-- 1.4 -->
      <g transform="translate(34.696875 80.039894) scale(0.1 -0.1)">
       <use xlink:href="#DejaVuSans-31"/>
       <use xlink:href="#DejaVuSans-2e" x="63.623047"/>
       <use xlink:href="#DejaVuSans-34" x="95.410156"/>
      </g>
     </g>
    </g>
    <g id="ytick_9">
     <g id="line2d_18">
      <g>
       <use xlink:href="#m0b460c12d4" x="57.6" y="43.191629" style="stroke: #000000; stroke-width: 0.8"/>
      </g>
     </g>
     <g id="text_19">
      <!-- 1.6 -->
      <g transform="translate(34.696875 46.990847) scale(0.1 -0.1)">
       <use xlink:href="#DejaVuSans-31"/>
       <use xlink:href="#DejaVuSans-2e" x="63.623047"/>
       <use xlink:href="#DejaVuSans-36" x="95.410156"/>
      </g>
     </g>
    </g>
    <g id="text_20">
     <!-- intensities -->
     <g transform="translate(28.617187 200.3155) rotate(-90) scale(0.1 -0.1)">
      <defs>
       <path id="DejaVuSans-69" d="M 603 3500 
L 1178 3500 
L 1178 0 
L 603 0 
L 603 3500 
z
M 603 4863 
L 1178 4863 
L 1178 4134 
L 603 4134 
L 603 4863 
z
" transform="scale(0.015625)"/>
       <path id="DejaVuSans-6e" d="M 3513 2113 
L 3513 0 
L 2938 0 
L 2938 2094 
Q 2938 2591 2744 2837 
Q 2550 3084 2163 3084 
Q 1697 3084 1428 2787 
Q 1159 2491 1159 1978 
L 1159 0 
L 581 0 
L 581 3500 
L 1159 3500 
L 1159 2956 
Q 1366 3272 1645 3428 
Q 1925 3584 2291 3584 
Q 2894 3584 3203 3211 
Q 3513 2838 3513 2113 
z
" transform="scale(0.015625)"/>
       <path id="DejaVuSans-74" d="M 1172 4494 
L 1172 3500 
L 2356 3500 
L 2356 3053 
L 1172 3053 
L 1172 1153 
Q 1172 725 1289 603 
Q 1406 481 1766 481 
L 2356 481 
L 2356 0 
L 1766 0 
Q 1100 0 847 248 
Q 594 497 594 1153 
L 594 3053 
L 172 3053 
L 172 3500 
L 594 3500 
L 594 4494 
L 1172 4494 
z
" transform="scale(0.015625)"/>
       <path id="DejaVuSans-65" d="M 3597 1894 
L 3597 1613 
L 953 1613 
Q 991 1019 1311 708 
Q 1631 397 2203 397 
Q 2534 397 2845 478 
Q 3156 559 3463 722 
L 3463 178 
Q 3153 47 2828 -22 
Q 2503 -91 2169 -91 
Q 1331 -91 842 396 
Q 353 884 353 1716 
Q 353 2575 817 3079 
Q 1281 3584 2069 3584 
Q 2775 3584 3186 3129 
Q 3597 2675 3597 1894 
z
M 3022 2063 
Q 3016 2534 2758 2815 
Q 2500 3097 2075 3097 
Q 1594 3097 1305 2825 
Q 1016 2553 972 2059 
L 3022 2063 
z
" transform="scale(0.015625)"/>
       <path id="DejaVuSans-73" d="M 2834 3397 
L 2834 2853 
Q 2591 2978 2328 3040 
Q 2066 3103 1784 3103 
Q 1356 3103 1142 2972 
Q 928 2841 928 2578 
Q 928 2378 1081 2264 
Q 1234 2150 1697 2047 
L 1894 2003 
Q 2506 1872 2764 1633 
Q 3022 1394 3022 966 
Q 3022 478 2636 193 
Q 2250 -91 1575 -91 
Q 1294 -91 989 -36 
Q 684 19 347 128 
L 347 722 
Q 666 556 975 473 
Q 1284 391 1588 391 
Q 1994 391 2212 530 
Q 2431 669 2431 922 
Q 2431 1156 2273 1281 
Q 2116 1406 1581 1522 
L 1381 1569 
Q 847 1681 609 1914 
Q 372 2147 372 2553 
Q 372 3047 722 3315 
Q 1072 3584 1716 3584 
Q 2034 3584 2315 3537 
Q 2597 3491 2834 3397 
z
" transform="scale(0.015625)"/>
      </defs>
      <use xlink:href="#DejaVuSans-69"/>
      <use xlink:href="#DejaVuSans-6e" x="27.783203"/>
      <use xlink:href="#DejaVuSans-74" x="91.162109"/>
      <use xlink:href="#DejaVuSans-65" x="130.371094"/>
      <use xlink:href="#DejaVuSans-6e" x="191.894531"/>
      <use xlink:href="#DejaVuSans-73" x="255.273438"/>
      <use xlink:href="#DejaVuSans-69" x="307.373047"/>
      <use xlink:href="#DejaVuSans-74" x="335.15625"/>
      <use xlink:href="#DejaVuSans-69" x="374.365234"/>
      <use xlink:href="#DejaVuSans-65" x="402.148438"/>
      <use xlink:href="#DejaVuSans-73" x="463.671875"/>
     </g>
    </g>
    <g id="text_21">
     <!-- 1e7 -->
     <g transform="translate(57.6 38.472) scale(0.1 -0.1)">
      <defs>
       <path id="DejaVuSans-37" d="M 525 4666 
L 3525 4666 
L 3525 4397 
L 1831 0 
L 1172 0 
L 2766 4134 
L 525 4134 
L 525 4666 
z
" transform="scale(0.015625)"/>
      </defs>
      <use xlink:href="#DejaVuSans-31"/>
      <use xlink:href="#DejaVuSans-65" x="63.623047"/>
      <use xlink:href="#DejaVuSans-37" x="125.146484"/>
     </g>
    </g>
   </g>
   <g id="patch_119">
    <path d="M 57.6 307.584 
L 57.6 41.472 
" style="fill: none; stroke: #000000; stroke-width: 0.8; stroke-linejoin: miter; stroke-linecap: square"/>
   </g>
   <g id="patch_120">
    <path d="M 414.72 307.584 
L 414.72 41.472 
" style="fill: none; stroke: #000000; stroke-width: 0.8; stroke-linejoin: miter; stroke-linecap: square"/>
   </g>
   <g id="patch_121">
    <path d="M 57.6 307.584 
L 414.72 307.584 
" style="fill: none; stroke: #000000; stroke-width: 0.8; stroke-linejoin: miter; stroke-linecap: square"/>
   </g>
   <g id="patch_122">
    <path d="M 57.6 41.472 
L 414.72 41.472 
" style="fill: none; stroke: #000000; stroke-width: 0.8; stroke-linejoin: miter; stroke-linecap: square"/>
   </g>
   <g id="text_22">
    <!-- 150.0674 -->
    <g transform="translate(141.333818 247.734125) scale(0.06 -0.06)">
     <use xlink:href="#DejaVuSans-31"/>
     <use xlink:href="#DejaVuSans-35" x="63.623047"/>
     <use xlink:href="#DejaVuSans-30" x="127.246094"/>
     <use xlink:href="#DejaVuSans-2e" x="190.869141"/>
     <use xlink:href="#DejaVuSans-30" x="222.65625"/>
     <use xlink:href="#DejaVuSans-36" x="286.279297"/>
     <use xlink:href="#DejaVuSans-37" x="349.902344"/>
     <use xlink:href="#DejaVuSans-34" x="413.525391"/>
    </g>
   </g>
   <g id="text_23">
    <!-- 165.091 -->
    <g transform="translate(155.747716 50.939625) scale(0.06 -0.06)">
     <defs>
      <path id="DejaVuSans-39" d="M 703 97 
L 703 672 
Q 941 559 1184 500 
Q 1428 441 1663 441 
Q 2288 441 2617 861 
Q 2947 1281 2994 2138 
Q 2813 1869 2534 1725 
Q 2256 1581 1919 1581 
Q 1219 1581 811 2004 
Q 403 2428 403 3163 
Q 403 3881 828 4315 
Q 1253 4750 1959 4750 
Q 2769 4750 3195 4129 
Q 3622 3509 3622 2328 
Q 3622 1225 3098 567 
Q 2575 -91 1691 -91 
Q 1453 -91 1209 -44 
Q 966 3 703 97 
z
M 1959 2075 
Q 2384 2075 2632 2365 
Q 2881 2656 2881 3163 
Q 2881 3666 2632 3958 
Q 2384 4250 1959 4250 
Q 1534 4250 1286 3958 
Q 1038 3666 1038 3163 
Q 1038 2656 1286 2365 
Q 1534 2075 1959 2075 
z
" transform="scale(0.015625)"/>
     </defs>
     <use xlink:href="#DejaVuSans-31"/>
     <use xlink:href="#DejaVuSans-36" x="63.623047"/>
     <use xlink:href="#DejaVuSans-35" x="127.246094"/>
     <use xlink:href="#DejaVuSans-2e" x="190.869141"/>
     <use xlink:href="#DejaVuSans-30" x="222.65625"/>
     <use xlink:href="#DejaVuSans-39" x="286.279297"/>
     <use xlink:href="#DejaVuSans-31" x="349.902344"/>
    </g>
   </g>
   <g id="text_24">
    <!-- 441.274 -->
    <g transform="translate(385.633506 224.992858) scale(0.06 -0.06)">
     <use xlink:href="#DejaVuSans-34"/>
     <use xlink:href="#DejaVuSans-34" x="63.623047"/>
     <use xlink:href="#DejaVuSans-31" x="127.246094"/>
     <use xlink:href="#DejaVuSans-2e" x="190.869141"/>
     <use xlink:href="#DejaVuSans-32" x="222.65625"/>
     <use xlink:href="#DejaVuSans-37" x="286.279297"/>
     <use xlink:href="#DejaVuSans-34" x="349.902344"/>
    </g>
   </g>
   <g id="text_25">
    <!-- MS2 spectrum of ${m/z}$ 441.273, scan time 7.07 min. -->
    <g transform="translate(57.6 24.873562) scale(0.12 -0.12)">
     <defs>
      <path id="DejaVuSans-4d" d="M 628 4666 
L 1569 4666 
L 2759 1491 
L 3956 4666 
L 4897 4666 
L 4897 0 
L 4281 0 
L 4281 4097 
L 3078 897 
L 2444 897 
L 1241 4097 
L 1241 0 
L 628 0 
L 628 4666 
z
" transform="scale(0.015625)"/>
      <path id="DejaVuSans-53" d="M 3425 4513 
L 3425 3897 
Q 3066 4069 2747 4153 
Q 2428 4238 2131 4238 
Q 1616 4238 1336 4038 
Q 1056 3838 1056 3469 
Q 1056 3159 1242 3001 
Q 1428 2844 1947 2747 
L 2328 2669 
Q 3034 2534 3370 2195 
Q 3706 1856 3706 1288 
Q 3706 609 3251 259 
Q 2797 -91 1919 -91 
Q 1588 -91 1214 -16 
Q 841 59 441 206 
L 441 856 
Q 825 641 1194 531 
Q 1563 422 1919 422 
Q 2459 422 2753 634 
Q 3047 847 3047 1241 
Q 3047 1584 2836 1778 
Q 2625 1972 2144 2069 
L 1759 2144 
Q 1053 2284 737 2584 
Q 422 2884 422 3419 
Q 422 4038 858 4394 
Q 1294 4750 2059 4750 
Q 2388 4750 2728 4690 
Q 3069 4631 3425 4513 
z
" transform="scale(0.015625)"/>
      <path id="DejaVuSans-20" transform="scale(0.015625)"/>
      <path id="DejaVuSans-70" d="M 1159 525 
L 1159 -1331 
L 581 -1331 
L 581 3500 
L 1159 3500 
L 1159 2969 
Q 1341 3281 1617 3432 
Q 1894 3584 2278 3584 
Q 2916 3584 3314 3078 
Q 3713 2572 3713 1747 
Q 3713 922 3314 415 
Q 2916 -91 2278 -91 
Q 1894 -91 1617 61 
Q 1341 213 1159 525 
z
M 3116 1747 
Q 3116 2381 2855 2742 
Q 2594 3103 2138 3103 
Q 1681 3103 1420 2742 
Q 1159 2381 1159 1747 
Q 1159 1113 1420 752 
Q 1681 391 2138 391 
Q 2594 391 2855 752 
Q 3116 1113 3116 1747 
z
" transform="scale(0.015625)"/>
      <path id="DejaVuSans-63" d="M 3122 3366 
L 3122 2828 
Q 2878 2963 2633 3030 
Q 2388 3097 2138 3097 
Q 1578 3097 1268 2742 
Q 959 2388 959 1747 
Q 959 1106 1268 751 
Q 1578 397 2138 397 
Q 2388 397 2633 464 
Q 2878 531 3122 666 
L 3122 134 
Q 2881 22 2623 -34 
Q 2366 -91 2075 -91 
Q 1284 -91 818 406 
Q 353 903 353 1747 
Q 353 2603 823 3093 
Q 1294 3584 2113 3584 
Q 2378 3584 2631 3529 
Q 2884 3475 3122 3366 
z
" transform="scale(0.015625)"/>
      <path id="DejaVuSans-72" d="M 2631 2963 
Q 2534 3019 2420 3045 
Q 2306 3072 2169 3072 
Q 1681 3072 1420 2755 
Q 1159 2438 1159 1844 
L 1159 0 
L 581 0 
L 581 3500 
L 1159 3500 
L 1159 2956 
Q 1341 3275 1631 3429 
Q 1922 3584 2338 3584 
Q 2397 3584 2469 3576 
Q 2541 3569 2628 3553 
L 2631 2963 
z
" transform="scale(0.015625)"/>
      <path id="DejaVuSans-75" d="M 544 1381 
L 544 3500 
L 1119 3500 
L 1119 1403 
Q 1119 906 1312 657 
Q 1506 409 1894 409 
Q 2359 409 2629 706 
Q 2900 1003 2900 1516 
L 2900 3500 
L 3475 3500 
L 3475 0 
L 2900 0 
L 2900 538 
Q 2691 219 2414 64 
Q 2138 -91 1772 -91 
Q 1169 -91 856 284 
Q 544 659 544 1381 
z
M 1991 3584 
L 1991 3584 
z
" transform="scale(0.015625)"/>
      <path id="DejaVuSans-6d" d="M 3328 2828 
Q 3544 3216 3844 3400 
Q 4144 3584 4550 3584 
Q 5097 3584 5394 3201 
Q 5691 2819 5691 2113 
L 5691 0 
L 5113 0 
L 5113 2094 
Q 5113 2597 4934 2840 
Q 4756 3084 4391 3084 
Q 3944 3084 3684 2787 
Q 3425 2491 3425 1978 
L 3425 0 
L 2847 0 
L 2847 2094 
Q 2847 2600 2669 2842 
Q 2491 3084 2119 3084 
Q 1678 3084 1418 2786 
Q 1159 2488 1159 1978 
L 1159 0 
L 581 0 
L 581 3500 
L 1159 3500 
L 1159 2956 
Q 1356 3278 1631 3431 
Q 1906 3584 2284 3584 
Q 2666 3584 2933 3390 
Q 3200 3197 3328 2828 
z
" transform="scale(0.015625)"/>
      <path id="DejaVuSans-6f" d="M 1959 3097 
Q 1497 3097 1228 2736 
Q 959 2375 959 1747 
Q 959 1119 1226 758 
Q 1494 397 1959 397 
Q 2419 397 2687 759 
Q 2956 1122 2956 1747 
Q 2956 2369 2687 2733 
Q 2419 3097 1959 3097 
z
M 1959 3584 
Q 2709 3584 3137 3096 
Q 3566 2609 3566 1747 
Q 3566 888 3137 398 
Q 2709 -91 1959 -91 
Q 1206 -91 779 398 
Q 353 888 353 1747 
Q 353 2609 779 3096 
Q 1206 3584 1959 3584 
z
" transform="scale(0.015625)"/>
      <path id="DejaVuSans-66" d="M 2375 4863 
L 2375 4384 
L 1825 4384 
Q 1516 4384 1395 4259 
Q 1275 4134 1275 3809 
L 1275 3500 
L 2222 3500 
L 2222 3053 
L 1275 3053 
L 1275 0 
L 697 0 
L 697 3053 
L 147 3053 
L 147 3500 
L 697 3500 
L 697 3744 
Q 697 4328 969 4595 
Q 1241 4863 1831 4863 
L 2375 4863 
z
" transform="scale(0.015625)"/>
      <path id="DejaVuSans-2c" d="M 750 794 
L 1409 794 
L 1409 256 
L 897 -744 
L 494 -744 
L 750 256 
L 750 794 
z
" transform="scale(0.015625)"/>
      <path id="DejaVuSans-61" d="M 2194 1759 
Q 1497 1759 1228 1600 
Q 959 1441 959 1056 
Q 959 750 1161 570 
Q 1363 391 1709 391 
Q 2188 391 2477 730 
Q 2766 1069 2766 1631 
L 2766 1759 
L 2194 1759 
z
M 3341 1997 
L 3341 0 
L 2766 0 
L 2766 531 
Q 2569 213 2275 61 
Q 1981 -91 1556 -91 
Q 1019 -91 701 211 
Q 384 513 384 1019 
Q 384 1609 779 1909 
Q 1175 2209 1959 2209 
L 2766 2209 
L 2766 2266 
Q 2766 2663 2505 2880 
Q 2244 3097 1772 3097 
Q 1472 3097 1187 3025 
Q 903 2953 641 2809 
L 641 3341 
Q 956 3463 1253 3523 
Q 1550 3584 1831 3584 
Q 2591 3584 2966 3190 
Q 3341 2797 3341 1997 
z
" transform="scale(0.015625)"/>
     </defs>
     <use xlink:href="#DejaVuSans-4d" transform="translate(0 0.015625)"/>
     <use xlink:href="#DejaVuSans-53" transform="translate(86.279297 0.015625)"/>
     <use xlink:href="#DejaVuSans-32" transform="translate(149.755859 0.015625)"/>
     <use xlink:href="#DejaVuSans-20" transform="translate(213.378906 0.015625)"/>
     <use xlink:href="#DejaVuSans-73" transform="translate(245.166016 0.015625)"/>
     <use xlink:href="#DejaVuSans-70" transform="translate(297.265625 0.015625)"/>
     <use xlink:href="#DejaVuSans-65" transform="translate(360.742188 0.015625)"/>
     <use xlink:href="#DejaVuSans-63" transform="translate(422.265625 0.015625)"/>
     <use xlink:href="#DejaVuSans-74" transform="translate(477.246094 0.015625)"/>
     <use xlink:href="#DejaVuSans-72" transform="translate(516.455078 0.015625)"/>
     <use xlink:href="#DejaVuSans-75" transform="translate(557.568359 0.015625)"/>
     <use xlink:href="#DejaVuSans-6d" transform="translate(620.947266 0.015625)"/>
     <use xlink:href="#DejaVuSans-20" transform="translate(718.359375 0.015625)"/>
     <use xlink:href="#DejaVuSans-6f" transform="translate(750.146484 0.015625)"/>
     <use xlink:href="#DejaVuSans-66" transform="translate(811.328125 0.015625)"/>
     <use xlink:href="#DejaVuSans-20" transform="translate(846.533203 0.015625)"/>
     <use xlink:href="#DejaVuSans-Oblique-6d" transform="translate(878.320312 0.015625)"/>
     <use xlink:href="#DejaVuSans-2f" transform="translate(975.732422 0.015625)"/>
     <use xlink:href="#DejaVuSans-Oblique-7a" transform="translate(1009.423828 0.015625)"/>
     <use xlink:href="#DejaVuSans-20" transform="translate(1061.914062 0.015625)"/>
     <use xlink:href="#DejaVuSans-34" transform="translate(1093.701172 0.015625)"/>
     <use xlink:href="#DejaVuSans-34" transform="translate(1157.324219 0.015625)"/>
     <use xlink:href="#DejaVuSans-31" transform="translate(1220.947266 0.015625)"/>
     <use xlink:href="#DejaVuSans-2e" transform="translate(1284.570312 0.015625)"/>
     <use xlink:href="#DejaVuSans-32" transform="translate(1310.857422 0.015625)"/>
     <use xlink:href="#DejaVuSans-37" transform="translate(1374.480469 0.015625)"/>
     <use xlink:href="#DejaVuSans-33" transform="translate(1438.103516 0.015625)"/>
     <use xlink:href="#DejaVuSans-2c" transform="translate(1501.726562 0.015625)"/>
     <use xlink:href="#DejaVuSans-20" transform="translate(1533.513672 0.015625)"/>
     <use xlink:href="#DejaVuSans-73" transform="translate(1565.300781 0.015625)"/>
     <use xlink:href="#DejaVuSans-63" transform="translate(1617.400391 0.015625)"/>
     <use xlink:href="#DejaVuSans-61" transform="translate(1672.380859 0.015625)"/>
     <use xlink:href="#DejaVuSans-6e" transform="translate(1733.660156 0.015625)"/>
     <use xlink:href="#DejaVuSans-20" transform="translate(1797.039062 0.015625)"/>
     <use xlink:href="#DejaVuSans-74" transform="translate(1828.826172 0.015625)"/>
     <use xlink:href="#DejaVuSans-69" transform="translate(1868.035156 0.015625)"/>
     <use xlink:href="#DejaVuSans-6d" transform="translate(1895.818359 0.015625)"/>
     <use xlink:href="#DejaVuSans-65" transform="translate(1993.230469 0.015625)"/>
     <use xlink:href="#DejaVuSans-20" transform="translate(2054.753906 0.015625)"/>
     <use xlink:href="#DejaVuSans-37" transform="translate(2086.541016 0.015625)"/>
     <use xlink:href="#DejaVuSans-2e" transform="translate(2150.164062 0.015625)"/>
     <use xlink:href="#DejaVuSans-30" transform="translate(2181.951172 0.015625)"/>
     <use xlink:href="#DejaVuSans-37" transform="translate(2245.574219 0.015625)"/>
     <use xlink:href="#DejaVuSans-20" transform="translate(2309.197266 0.015625)"/>
     <use xlink:href="#DejaVuSans-6d" transform="translate(2340.984375 0.015625)"/>
     <use xlink:href="#DejaVuSans-69" transform="translate(2438.396484 0.015625)"/>
     <use xlink:href="#DejaVuSans-6e" transform="translate(2466.179688 0.015625)"/>
     <use xlink:href="#DejaVuSans-2e" transform="translate(2529.558594 0.015625)"/>
    </g>
   </g>
  </g>
 </g>
 <defs>
  <clipPath id="p90421a4a89">
   <rect x="57.6" y="41.472" width="357.12" height="266.112"/>
  </clipPath>
 </defs>
</svg>
