<?xml version="1.0" encoding="utf-8" standalone="no"?>
<!DOCTYPE svg PUBLIC "-//W3C//DTD SVG 1.1//EN"
  "http://www.w3.org/Graphics/SVG/1.1/DTD/svg11.dtd">
<svg xmlns:xlink="http://www.w3.org/1999/xlink" width="460.8pt" height="345.6pt" viewBox="0 0 460.8 345.6" xmlns="http://www.w3.org/2000/svg" version="1.1">
 <metadata>
  <rdf:RDF xmlns:dc="http://purl.org/dc/elements/1.1/" xmlns:cc="http://creativecommons.org/ns#" xmlns:rdf="http://www.w3.org/1999/02/22-rdf-syntax-ns#">
   <cc:Work>
    <dc:type rdf:resource="http://purl.org/dc/dcmitype/StillImage"/>
    <dc:date>2025-01-11T12:52:27.878029</dc:date>
    <dc:format>image/svg+xml</dc:format>
    <dc:creator>
     <cc:Agent>
      <dc:title>Matplotlib v3.7.3, https://matplotlib.org/</dc:title>
     </cc:Agent>
    </dc:creator>
   </cc:Work>
  </rdf:RDF>
 </metadata>
 <defs>
  <style type="text/css">*{stroke-linejoin: round; stroke-linecap: butt}</style>
 </defs>
 <g id="figure_1">
  <g id="patch_1">
   <path d="M 0 345.6 
L 460.8 345.6 
L 460.8 0 
L 0 0 
z
" style="fill: #ffffff"/>
  </g>
  <g id="axes_1">
   <g id="patch_2">
    <path d="M 57.6 307.584 
L 414.72 307.584 
L 414.72 41.472 
L 57.6 41.472 
z
" style="fill: #ffffff"/>
   </g>
   <g id="patch_3">
    <path d="M 73.832727 307.584 
L 74.556312 307.584 
L 74.556312 304.186722 
L 73.832727 304.186722 
z
" clip-path="url(#p60aef5e852)" style="fill: #1f77b4"/>
   </g>
   <g id="patch_4">
    <path d="M 76.747929 307.584 
L 77.471514 307.584 
L 77.471514 304.668672 
L 76.747929 304.668672 
z
" clip-path="url(#p60aef5e852)" style="fill: #1f77b4"/>
   </g>
   <g id="patch_5">
    <path d="M 82.043235 307.584 
L 82.76682 307.584 
L 82.76682 304.053303 
L 82.043235 304.053303 
z
" clip-path="url(#p60aef5e852)" style="fill: #1f77b4"/>
   </g>
   <g id="patch_6">
    <path d="M 86.797527 307.584 
L 87.521112 307.584 
L 87.521112 304.574846 
L 86.797527 304.574846 
z
" clip-path="url(#p60aef5e852)" style="fill: #1f77b4"/>
   </g>
   <g id="patch_7">
    <path d="M 88.299507 307.584 
L 89.023092 307.584 
L 89.023092 301.878265 
L 88.299507 301.878265 
z
" clip-path="url(#p60aef5e852)" style="fill: #1f77b4"/>
   </g>
   <g id="patch_8">
    <path d="M 90.08645 307.584 
L 90.810035 307.584 
L 90.810035 303.981706 
L 90.08645 303.981706 
z
" clip-path="url(#p60aef5e852)" style="fill: #1f77b4"/>
   </g>
   <g id="patch_9">
    <path d="M 90.08999 307.584 
L 90.813575 307.584 
L 90.813575 195.487775 
L 90.08999 195.487775 
z
" clip-path="url(#p60aef5e852)" style="fill: #1f77b4"/>
   </g>
   <g id="patch_10">
    <path d="M 90.996941 307.584 
L 91.720526 307.584 
L 91.720526 303.825124 
L 90.996941 303.825124 
z
" clip-path="url(#p60aef5e852)" style="fill: #1f77b4"/>
   </g>
   <g id="patch_11">
    <path d="M 97.363103 307.584 
L 98.086688 307.584 
L 98.086688 300.758795 
L 97.363103 300.758795 
z
" clip-path="url(#p60aef5e852)" style="fill: #1f77b4"/>
   </g>
   <g id="patch_12">
    <path d="M 99.153448 307.584 
L 99.877033 307.584 
L 99.877033 250.271915 
L 99.153448 250.271915 
z
" clip-path="url(#p60aef5e852)" style="fill: #1f77b4"/>
   </g>
   <g id="patch_13">
    <path d="M 106.375255 307.584 
L 107.09884 307.584 
L 107.09884 303.638569 
L 106.375255 303.638569 
z
" clip-path="url(#p60aef5e852)" style="fill: #1f77b4"/>
   </g>
   <g id="patch_14">
    <path d="M 106.38003 307.584 
L 107.103615 307.584 
L 107.103615 223.442952 
L 106.38003 223.442952 
z
" clip-path="url(#p60aef5e852)" style="fill: #1f77b4"/>
   </g>
   <g id="patch_15">
    <path d="M 108.618357 307.584 
L 109.341942 307.584 
L 109.341942 299.802253 
L 108.618357 299.802253 
z
" clip-path="url(#p60aef5e852)" style="fill: #1f77b4"/>
   </g>
   <g id="patch_16">
    <path d="M 113.653178 307.584 
L 114.376763 307.584 
L 114.376763 297.260373 
L 113.653178 297.260373 
z
" clip-path="url(#p60aef5e852)" style="fill: #1f77b4"/>
   </g>
   <g id="patch_17">
    <path d="M 115.476031 307.584 
L 116.199616 307.584 
L 116.199616 301.181591 
L 115.476031 301.181591 
z
" clip-path="url(#p60aef5e852)" style="fill: #1f77b4"/>
   </g>
   <g id="patch_18">
    <path d="M 116.000384 307.584 
L 116.723969 307.584 
L 116.723969 304.505159 
L 116.000384 304.505159 
z
" clip-path="url(#p60aef5e852)" style="fill: #1f77b4"/>
   </g>
   <g id="patch_19">
    <path d="M 120.17557 307.584 
L 120.899155 307.584 
L 120.899155 304.491902 
L 120.17557 304.491902 
z
" clip-path="url(#p60aef5e852)" style="fill: #1f77b4"/>
   </g>
   <g id="patch_20">
    <path d="M 124.488756 307.584 
L 125.212341 307.584 
L 125.212341 302.274751 
L 124.488756 302.274751 
z
" clip-path="url(#p60aef5e852)" style="fill: #1f77b4"/>
   </g>
   <g id="patch_21">
    <path d="M 126.296904 307.584 
L 127.020489 307.584 
L 127.020489 294.060013 
L 126.296904 294.060013 
z
" clip-path="url(#p60aef5e852)" style="fill: #1f77b4"/>
   </g>
   <g id="patch_22">
    <path d="M 126.543057 307.584 
L 127.266642 307.584 
L 127.266642 304.592466 
L 126.543057 304.592466 
z
" clip-path="url(#p60aef5e852)" style="fill: #1f77b4"/>
   </g>
   <g id="patch_23">
    <path d="M 133.569597 307.584 
L 134.293182 307.584 
L 134.293182 302.555286 
L 133.569597 302.555286 
z
" clip-path="url(#p60aef5e852)" style="fill: #1f77b4"/>
   </g>
   <g id="patch_24">
    <path d="M 136.242409 307.584 
L 136.965994 307.584 
L 136.965994 298.660201 
L 136.242409 298.660201 
z
" clip-path="url(#p60aef5e852)" style="fill: #1f77b4"/>
   </g>
   <g id="patch_25">
    <path d="M 142.586931 307.584 
L 143.310516 307.584 
L 143.310516 300.658367 
L 142.586931 300.658367 
z
" clip-path="url(#p60aef5e852)" style="fill: #1f77b4"/>
   </g>
   <g id="patch_26">
    <path d="M 153.440637 307.584 
L 154.164222 307.584 
L 154.164222 289.891152 
L 153.440637 289.891152 
z
" clip-path="url(#p60aef5e852)" style="fill: #1f77b4"/>
   </g>
   <g id="patch_27">
    <path d="M 157.955107 307.584 
L 158.678692 307.584 
L 158.678692 304.553811 
L 157.955107 304.553811 
z
" clip-path="url(#p60aef5e852)" style="fill: #1f77b4"/>
   </g>
   <g id="patch_28">
    <path d="M 157.966189 307.584 
L 158.689774 307.584 
L 158.689774 304.615902 
L 157.966189 304.615902 
z
" clip-path="url(#p60aef5e852)" style="fill: #1f77b4"/>
   </g>
   <g id="patch_29">
    <path d="M 168.833476 307.584 
L 169.557061 307.584 
L 169.557061 302.795604 
L 168.833476 302.795604 
z
" clip-path="url(#p60aef5e852)" style="fill: #1f77b4"/>
   </g>
   <g id="patch_30">
    <path d="M 192.352666 307.584 
L 193.076251 307.584 
L 193.076251 296.308229 
L 192.352666 296.308229 
z
" clip-path="url(#p60aef5e852)" style="fill: #1f77b4"/>
   </g>
   <g id="patch_31">
    <path d="M 193.246437 307.584 
L 193.970022 307.584 
L 193.970022 304.441432 
L 193.246437 304.441432 
z
" clip-path="url(#p60aef5e852)" style="fill: #1f77b4"/>
   </g>
   <g id="patch_32">
    <path d="M 194.157847 307.584 
L 194.881432 307.584 
L 194.881432 297.836838 
L 194.157847 297.836838 
z
" clip-path="url(#p60aef5e852)" style="fill: #1f77b4"/>
   </g>
   <g id="patch_33">
    <path d="M 210.514664 307.584 
L 211.238249 307.584 
L 211.238249 304.508911 
L 210.514664 304.508911 
z
" clip-path="url(#p60aef5e852)" style="fill: #1f77b4"/>
   </g>
   <g id="patch_34">
    <path d="M 214.060243 307.584 
L 214.783828 307.584 
L 214.783828 303.529422 
L 214.060243 303.529422 
z
" clip-path="url(#p60aef5e852)" style="fill: #1f77b4"/>
   </g>
   <g id="patch_35">
    <path d="M 226.717943 307.584 
L 227.441528 307.584 
L 227.441528 302.37349 
L 226.717943 302.37349 
z
" clip-path="url(#p60aef5e852)" style="fill: #1f77b4"/>
   </g>
   <g id="patch_36">
    <path d="M 228.542335 307.584 
L 229.26592 307.584 
L 229.26592 302.19761 
L 228.542335 302.19761 
z
" clip-path="url(#p60aef5e852)" style="fill: #1f77b4"/>
   </g>
   <g id="patch_37">
    <path d="M 230.383855 307.584 
L 231.10744 307.584 
L 231.10744 302.997662 
L 230.383855 302.997662 
z
" clip-path="url(#p60aef5e852)" style="fill: #1f77b4"/>
   </g>
   <g id="patch_38">
    <path d="M 231.243606 307.584 
L 231.967191 307.584 
L 231.967191 251.339565 
L 231.243606 251.339565 
z
" clip-path="url(#p60aef5e852)" style="fill: #1f77b4"/>
   </g>
   <g id="patch_39">
    <path d="M 232.154574 307.584 
L 232.878159 307.584 
L 232.878159 278.999701 
L 232.154574 278.999701 
z
" clip-path="url(#p60aef5e852)" style="fill: #1f77b4"/>
   </g>
   <g id="patch_40">
    <path d="M 237.571552 307.584 
L 238.295137 307.584 
L 238.295137 303.810222 
L 237.571552 303.810222 
z
" clip-path="url(#p60aef5e852)" style="fill: #1f77b4"/>
   </g>
   <g id="patch_41">
    <path d="M 239.396621 307.584 
L 240.120206 307.584 
L 240.120206 304.013656 
L 239.396621 304.013656 
z
" clip-path="url(#p60aef5e852)" style="fill: #1f77b4"/>
   </g>
   <g id="patch_42">
    <path d="M 241.185585 307.584 
L 241.90917 307.584 
L 241.90917 268.73848 
L 241.185585 268.73848 
z
" clip-path="url(#p60aef5e852)" style="fill: #1f77b4"/>
   </g>
   <g id="patch_43">
    <path d="M 242.096622 307.584 
L 242.820207 307.584 
L 242.820207 294.344408 
L 242.096622 294.344408 
z
" clip-path="url(#p60aef5e852)" style="fill: #1f77b4"/>
   </g>
   <g id="patch_44">
    <path d="M 243.00915 307.584 
L 243.732735 307.584 
L 243.732735 275.987422 
L 243.00915 275.987422 
z
" clip-path="url(#p60aef5e852)" style="fill: #1f77b4"/>
   </g>
   <g id="patch_45">
    <path d="M 250.248974 307.584 
L 250.972559 307.584 
L 250.972559 300.372703 
L 250.248974 300.372703 
z
" clip-path="url(#p60aef5e852)" style="fill: #1f77b4"/>
   </g>
   <g id="patch_46">
    <path d="M 252.040064 307.584 
L 252.763649 307.584 
L 252.763649 302.595662 
L 252.040064 302.595662 
z
" clip-path="url(#p60aef5e852)" style="fill: #1f77b4"/>
   </g>
   <g id="patch_47">
    <path d="M 252.951225 307.584 
L 253.67481 307.584 
L 253.67481 233.165363 
L 252.951225 233.165363 
z
" clip-path="url(#p60aef5e852)" style="fill: #1f77b4"/>
   </g>
   <g id="patch_48">
    <path d="M 252.983948 307.584 
L 253.707533 307.584 
L 253.707533 302.427007 
L 252.983948 302.427007 
z
" clip-path="url(#p60aef5e852)" style="fill: #1f77b4"/>
   </g>
   <g id="patch_49">
    <path d="M 253.861945 307.584 
L 254.58553 307.584 
L 254.58553 274.503064 
L 253.861945 274.503064 
z
" clip-path="url(#p60aef5e852)" style="fill: #1f77b4"/>
   </g>
   <g id="patch_50">
    <path d="M 253.894736 307.584 
L 254.618321 307.584 
L 254.618321 301.002996 
L 253.894736 301.002996 
z
" clip-path="url(#p60aef5e852)" style="fill: #1f77b4"/>
   </g>
   <g id="patch_51">
    <path d="M 255.687206 307.584 
L 256.410791 307.584 
L 256.410791 285.043623 
L 255.687206 285.043623 
z
" clip-path="url(#p60aef5e852)" style="fill: #1f77b4"/>
   </g>
   <g id="patch_52">
    <path d="M 262.015097 307.584 
L 262.738682 307.584 
L 262.738682 304.237918 
L 262.015097 304.237918 
z
" clip-path="url(#p60aef5e852)" style="fill: #1f77b4"/>
   </g>
   <g id="patch_53">
    <path d="M 262.926424 307.584 
L 263.650009 307.584 
L 263.650009 294.853175 
L 262.926424 294.853175 
z
" clip-path="url(#p60aef5e852)" style="fill: #1f77b4"/>
   </g>
   <g id="patch_54">
    <path d="M 263.804324 307.584 
L 264.527909 307.584 
L 264.527909 301.736335 
L 263.804324 301.736335 
z
" clip-path="url(#p60aef5e852)" style="fill: #1f77b4"/>
   </g>
   <g id="patch_55">
    <path d="M 264.716341 307.584 
L 265.439926 307.584 
L 265.439926 69.731932 
L 264.716341 69.731932 
z
" clip-path="url(#p60aef5e852)" style="fill: #1f77b4"/>
   </g>
   <g id="patch_56">
    <path d="M 265.625928 307.584 
L 266.349513 307.584 
L 266.349513 262.703167 
L 265.625928 262.703167 
z
" clip-path="url(#p60aef5e852)" style="fill: #1f77b4"/>
   </g>
   <g id="patch_57">
    <path d="M 266.539436 307.584 
L 267.263021 307.584 
L 267.263021 226.929038 
L 266.539436 226.929038 
z
" clip-path="url(#p60aef5e852)" style="fill: #1f77b4"/>
   </g>
   <g id="patch_58">
    <path d="M 267.447864 307.584 
L 268.171449 307.584 
L 268.171449 296.539501 
L 267.447864 296.539501 
z
" clip-path="url(#p60aef5e852)" style="fill: #1f77b4"/>
   </g>
   <g id="patch_59">
    <path d="M 269.274327 307.584 
L 269.997912 307.584 
L 269.997912 242.990802 
L 269.274327 242.990802 
z
" clip-path="url(#p60aef5e852)" style="fill: #1f77b4"/>
   </g>
   <g id="patch_60">
    <path d="M 270.152199 307.584 
L 270.875784 307.584 
L 270.875784 290.788639 
L 270.152199 290.788639 
z
" clip-path="url(#p60aef5e852)" style="fill: #1f77b4"/>
   </g>
   <g id="patch_61">
    <path d="M 270.185101 307.584 
L 270.908686 307.584 
L 270.908686 262.307918 
L 270.185101 262.307918 
z
" clip-path="url(#p60aef5e852)" style="fill: #1f77b4"/>
   </g>
   <g id="patch_62">
    <path d="M 271.093695 307.584 
L 271.81728 307.584 
L 271.81728 301.654389 
L 271.093695 301.654389 
z
" clip-path="url(#p60aef5e852)" style="fill: #1f77b4"/>
   </g>
   <g id="patch_63">
    <path d="M 271.95749 307.584 
L 272.681075 307.584 
L 272.681075 300.710443 
L 271.95749 300.710443 
z
" clip-path="url(#p60aef5e852)" style="fill: #1f77b4"/>
   </g>
   <g id="patch_64">
    <path d="M 274.658237 307.584 
L 275.381822 307.584 
L 275.381822 297.351685 
L 274.658237 297.351685 
z
" clip-path="url(#p60aef5e852)" style="fill: #1f77b4"/>
   </g>
   <g id="patch_65">
    <path d="M 275.570364 307.584 
L 276.293949 307.584 
L 276.293949 301.018539 
L 275.570364 301.018539 
z
" clip-path="url(#p60aef5e852)" style="fill: #1f77b4"/>
   </g>
   <g id="patch_66">
    <path d="M 275.600865 307.584 
L 276.32445 307.584 
L 276.32445 301.578728 
L 275.600865 301.578728 
z
" clip-path="url(#p60aef5e852)" style="fill: #1f77b4"/>
   </g>
   <g id="patch_67">
    <path d="M 276.481083 307.584 
L 277.204668 307.584 
L 277.204668 287.919597 
L 276.481083 287.919597 
z
" clip-path="url(#p60aef5e852)" style="fill: #1f77b4"/>
   </g>
   <g id="patch_68">
    <path d="M 277.393293 307.584 
L 278.116878 307.584 
L 278.116878 216.183231 
L 277.393293 216.183231 
z
" clip-path="url(#p60aef5e852)" style="fill: #1f77b4"/>
   </g>
   <g id="patch_69">
    <path d="M 278.303737 307.584 
L 279.027322 307.584 
L 279.027322 285.139463 
L 278.303737 285.139463 
z
" clip-path="url(#p60aef5e852)" style="fill: #1f77b4"/>
   </g>
   <g id="patch_70">
    <path d="M 279.193975 307.584 
L 279.91756 307.584 
L 279.91756 304.542203 
L 279.193975 304.542203 
z
" clip-path="url(#p60aef5e852)" style="fill: #1f77b4"/>
   </g>
   <g id="patch_71">
    <path d="M 279.216388 307.584 
L 279.939973 307.584 
L 279.939973 129.904067 
L 279.216388 129.904067 
z
" clip-path="url(#p60aef5e852)" style="fill: #1f77b4"/>
   </g>
   <g id="patch_72">
    <path d="M 280.125203 307.584 
L 280.848788 307.584 
L 280.848788 284.963923 
L 280.125203 284.963923 
z
" clip-path="url(#p60aef5e852)" style="fill: #1f77b4"/>
   </g>
   <g id="patch_73">
    <path d="M 281.039483 307.584 
L 281.763068 307.584 
L 281.763068 281.064985 
L 281.039483 281.064985 
z
" clip-path="url(#p60aef5e852)" style="fill: #1f77b4"/>
   </g>
   <g id="patch_74">
    <path d="M 282.830256 307.584 
L 283.553841 307.584 
L 283.553841 303.778929 
L 282.830256 303.778929 
z
" clip-path="url(#p60aef5e852)" style="fill: #1f77b4"/>
   </g>
   <g id="patch_75">
    <path d="M 286.423173 307.584 
L 287.146758 307.584 
L 287.146758 290.213417 
L 286.423173 290.213417 
z
" clip-path="url(#p60aef5e852)" style="fill: #1f77b4"/>
   </g>
   <g id="patch_76">
    <path d="M 286.449892 307.584 
L 287.173477 307.584 
L 287.173477 304.170421 
L 286.449892 304.170421 
z
" clip-path="url(#p60aef5e852)" style="fill: #1f77b4"/>
   </g>
   <g id="patch_77">
    <path d="M 287.335493 307.584 
L 288.059078 307.584 
L 288.059078 279.518547 
L 287.335493 279.518547 
z
" clip-path="url(#p60aef5e852)" style="fill: #1f77b4"/>
   </g>
   <g id="patch_78">
    <path d="M 288.246985 307.584 
L 288.97057 307.584 
L 288.97057 116.147039 
L 288.246985 116.147039 
z
" clip-path="url(#p60aef5e852)" style="fill: #1f77b4"/>
   </g>
   <g id="patch_79">
    <path d="M 289.155828 307.584 
L 289.879413 307.584 
L 289.879413 262.014602 
L 289.155828 262.014602 
z
" clip-path="url(#p60aef5e852)" style="fill: #1f77b4"/>
   </g>
   <g id="patch_80">
    <path d="M 290.069501 307.584 
L 290.793086 307.584 
L 290.793086 284.862672 
L 290.069501 284.862672 
z
" clip-path="url(#p60aef5e852)" style="fill: #1f77b4"/>
   </g>
   <g id="patch_81">
    <path d="M 290.98138 307.584 
L 291.704965 307.584 
L 291.704965 226.202952 
L 290.98138 226.202952 
z
" clip-path="url(#p60aef5e852)" style="fill: #1f77b4"/>
   </g>
   <g id="patch_82">
    <path d="M 291.889256 307.584 
L 292.612841 307.584 
L 292.612841 290.907116 
L 291.889256 290.907116 
z
" clip-path="url(#p60aef5e852)" style="fill: #1f77b4"/>
   </g>
   <g id="patch_83">
    <path d="M 299.101837 307.584 
L 299.825422 307.584 
L 299.825422 302.723439 
L 299.101837 302.723439 
z
" clip-path="url(#p60aef5e852)" style="fill: #1f77b4"/>
   </g>
   <g id="patch_84">
    <path d="M 299.677958 307.584 
L 300.401543 307.584 
L 300.401543 304.593206 
L 299.677958 304.593206 
z
" clip-path="url(#p60aef5e852)" style="fill: #1f77b4"/>
   </g>
   <g id="patch_85">
    <path d="M 300.896694 307.584 
L 301.620279 307.584 
L 301.620279 304.176311 
L 300.896694 304.176311 
z
" clip-path="url(#p60aef5e852)" style="fill: #1f77b4"/>
   </g>
   <g id="patch_86">
    <path d="M 300.9238 307.584 
L 301.647385 307.584 
L 301.647385 204.278287 
L 300.9238 204.278287 
z
" clip-path="url(#p60aef5e852)" style="fill: #1f77b4"/>
   </g>
   <g id="patch_87">
    <path d="M 300.955626 307.584 
L 301.679211 307.584 
L 301.679211 301.654839 
L 300.955626 301.654839 
z
" clip-path="url(#p60aef5e852)" style="fill: #1f77b4"/>
   </g>
   <g id="patch_88">
    <path d="M 301.833001 307.584 
L 302.556586 307.584 
L 302.556586 289.170362 
L 301.833001 289.170362 
z
" clip-path="url(#p60aef5e852)" style="fill: #1f77b4"/>
   </g>
   <g id="patch_89">
    <path d="M 302.714324 307.584 
L 303.437909 307.584 
L 303.437909 300.204819 
L 302.714324 300.204819 
z
" clip-path="url(#p60aef5e852)" style="fill: #1f77b4"/>
   </g>
   <g id="patch_90">
    <path d="M 302.747033 307.584 
L 303.470618 307.584 
L 303.470618 56.201421 
L 302.747033 56.201421 
z
" clip-path="url(#p60aef5e852)" style="fill: #1f77b4"/>
   </g>
   <g id="patch_91">
    <path d="M 302.77977 307.584 
L 303.503355 307.584 
L 303.503355 301.248963 
L 302.77977 301.248963 
z
" clip-path="url(#p60aef5e852)" style="fill: #1f77b4"/>
   </g>
   <g id="patch_92">
    <path d="M 303.654661 307.584 
L 304.378246 307.584 
L 304.378246 261.343887 
L 303.654661 261.343887 
z
" clip-path="url(#p60aef5e852)" style="fill: #1f77b4"/>
   </g>
   <g id="patch_93">
    <path d="M 304.537419 307.584 
L 305.261004 307.584 
L 305.261004 295.297117 
L 304.537419 295.297117 
z
" clip-path="url(#p60aef5e852)" style="fill: #1f77b4"/>
   </g>
   <g id="patch_94">
    <path d="M 304.570515 307.584 
L 305.2941 307.584 
L 305.2941 279.138679 
L 304.570515 279.138679 
z
" clip-path="url(#p60aef5e852)" style="fill: #1f77b4"/>
   </g>
   <g id="patch_95">
    <path d="M 305.446979 307.584 
L 306.170564 307.584 
L 306.170564 304.286624 
L 305.446979 304.286624 
z
" clip-path="url(#p60aef5e852)" style="fill: #1f77b4"/>
   </g>
   <g id="patch_96">
    <path d="M 305.478584 307.584 
L 306.202169 307.584 
L 306.202169 303.270256 
L 305.478584 303.270256 
z
" clip-path="url(#p60aef5e852)" style="fill: #1f77b4"/>
   </g>
   <g id="patch_97">
    <path d="M 315.423655 307.584 
L 316.14724 307.584 
L 316.14724 297.69446 
L 315.423655 297.69446 
z
" clip-path="url(#p60aef5e852)" style="fill: #1f77b4"/>
   </g>
   <g id="patch_98">
    <path d="M 317.247053 307.584 
L 317.970638 307.584 
L 317.970638 179.076358 
L 317.247053 179.076358 
z
" clip-path="url(#p60aef5e852)" style="fill: #1f77b4"/>
   </g>
   <g id="patch_99">
    <path d="M 318.15504 307.584 
L 318.878625 307.584 
L 318.878625 290.621613 
L 318.15504 290.621613 
z
" clip-path="url(#p60aef5e852)" style="fill: #1f77b4"/>
   </g>
   <g id="patch_100">
    <path d="M 319.037329 307.584 
L 319.760914 307.584 
L 319.760914 284.667482 
L 319.037329 284.667482 
z
" clip-path="url(#p60aef5e852)" style="fill: #1f77b4"/>
   </g>
   <g id="patch_101">
    <path d="M 326.244334 307.584 
L 326.967919 307.584 
L 326.967919 252.969179 
L 326.244334 252.969179 
z
" clip-path="url(#p60aef5e852)" style="fill: #1f77b4"/>
   </g>
   <g id="patch_102">
    <path d="M 326.277954 307.584 
L 327.001539 307.584 
L 327.001539 268.234155 
L 326.277954 268.234155 
z
" clip-path="url(#p60aef5e852)" style="fill: #1f77b4"/>
   </g>
   <g id="patch_103">
    <path d="M 327.150941 307.584 
L 327.874526 307.584 
L 327.874526 298.512789 
L 327.150941 298.512789 
z
" clip-path="url(#p60aef5e852)" style="fill: #1f77b4"/>
   </g>
   <g id="patch_104">
    <path d="M 327.187293 307.584 
L 327.910878 307.584 
L 327.910878 295.009611 
L 327.187293 295.009611 
z
" clip-path="url(#p60aef5e852)" style="fill: #1f77b4"/>
   </g>
   <g id="patch_105">
    <path d="M 338.954189 307.584 
L 339.677774 307.584 
L 339.677774 287.755249 
L 338.954189 287.755249 
z
" clip-path="url(#p60aef5e852)" style="fill: #1f77b4"/>
   </g>
   <g id="patch_106">
    <path d="M 339.863611 307.584 
L 340.587196 307.584 
L 340.587196 302.752266 
L 339.863611 302.752266 
z
" clip-path="url(#p60aef5e852)" style="fill: #1f77b4"/>
   </g>
   <g id="patch_107">
    <path d="M 340.711148 307.584 
L 341.434733 307.584 
L 341.434733 303.030868 
L 340.711148 303.030868 
z
" clip-path="url(#p60aef5e852)" style="fill: #1f77b4"/>
   </g>
   <g id="patch_108">
    <path d="M 341.623524 307.584 
L 342.347109 307.584 
L 342.347109 273.89038 
L 341.623524 273.89038 
z
" clip-path="url(#p60aef5e852)" style="fill: #1f77b4"/>
   </g>
   <g id="patch_109">
    <path d="M 342.53474 307.584 
L 343.258325 307.584 
L 343.258325 90.759064 
L 342.53474 90.759064 
z
" clip-path="url(#p60aef5e852)" style="fill: #1f77b4"/>
   </g>
   <g id="patch_110">
    <path d="M 342.567146 307.584 
L 343.290731 307.584 
L 343.290731 293.911602 
L 342.567146 293.911602 
z
" clip-path="url(#p60aef5e852)" style="fill: #1f77b4"/>
   </g>
   <g id="patch_111">
    <path d="M 343.442147 307.584 
L 344.165732 307.584 
L 344.165732 274.926619 
L 343.442147 274.926619 
z
" clip-path="url(#p60aef5e852)" style="fill: #1f77b4"/>
   </g>
   <g id="patch_112">
    <path d="M 357.067663 307.584 
L 357.791248 307.584 
L 357.791248 270.544909 
L 357.067663 270.544909 
z
" clip-path="url(#p60aef5e852)" style="fill: #1f77b4"/>
   </g>
   <g id="patch_113">
    <path d="M 357.914096 307.584 
L 358.637681 307.584 
L 358.637681 293.75451 
L 357.914096 293.75451 
z
" clip-path="url(#p60aef5e852)" style="fill: #1f77b4"/>
   </g>
   <g id="patch_114">
    <path d="M 357.97518 307.584 
L 358.698765 307.584 
L 358.698765 300.610823 
L 357.97518 300.610823 
z
" clip-path="url(#p60aef5e852)" style="fill: #1f77b4"/>
   </g>
   <g id="patch_115">
    <path d="M 358.82603 307.584 
L 359.549615 307.584 
L 359.549615 267.474892 
L 358.82603 267.474892 
z
" clip-path="url(#p60aef5e852)" style="fill: #1f77b4"/>
   </g>
   <g id="patch_116">
    <path d="M 359.732305 307.584 
L 360.45589 307.584 
L 360.45589 299.116267 
L 359.732305 299.116267 
z
" clip-path="url(#p60aef5e852)" style="fill: #1f77b4"/>
   </g>
   <g id="patch_117">
    <path d="M 364.275855 307.584 
L 364.99944 307.584 
L 364.99944 287.444455 
L 364.275855 287.444455 
z
" clip-path="url(#p60aef5e852)" style="fill: #1f77b4"/>
   </g>
   <g id="patch_118">
    <path d="M 365.18144 307.584 
L 365.905025 307.584 
L 365.905025 301.982385 
L 365.18144 301.982385 
z
" clip-path="url(#p60aef5e852)" style="fill: #1f77b4"/>
   </g>
   <g id="patch_119">
    <path d="M 380.565516 307.584 
L 381.289101 307.584 
L 381.289101 54.144 
L 380.565516 54.144 
z
" clip-path="url(#p60aef5e852)" style="fill: #1f77b4"/>
   </g>
   <g id="patch_120">
    <path d="M 381.47295 307.584 
L 382.196535 307.584 
L 382.196535 262.064436 
L 381.47295 262.064436 
z
" clip-path="url(#p60aef5e852)" style="fill: #1f77b4"/>
   </g>
   <g id="patch_121">
    <path d="M 396.855839 307.584 
L 397.579424 307.584 
L 397.579424 172.238502 
L 396.855839 172.238502 
z
" clip-path="url(#p60aef5e852)" style="fill: #1f77b4"/>
   </g>
   <g id="patch_122">
    <path d="M 396.904972 307.584 
L 397.628557 307.584 
L 397.628557 300.680697 
L 396.904972 300.680697 
z
" clip-path="url(#p60aef5e852)" style="fill: #1f77b4"/>
   </g>
   <g id="patch_123">
    <path d="M 397.089578 307.584 
L 397.813163 307.584 
L 397.813163 297.773255 
L 397.089578 297.773255 
z
" clip-path="url(#p60aef5e852)" style="fill: #1f77b4"/>
   </g>
   <g id="patch_124">
    <path d="M 397.763688 307.584 
L 398.487273 307.584 
L 398.487273 282.115878 
L 397.763688 282.115878 
z
" clip-path="url(#p60aef5e852)" style="fill: #1f77b4"/>
   </g>
   <g id="matplotlib.axis_1">
    <g id="xtick_1">
     <g id="line2d_1">
      <defs>
       <path id="maaed4172f3" d="M 0 0 
L 0 3.5 
" style="stroke: #000000; stroke-width: 0.8"/>
      </defs>
      <g>
       <use xlink:href="#maaed4172f3" x="71.445448" y="307.584" style="stroke: #000000; stroke-width: 0.8"/>
      </g>
     </g>
     <g id="text_1">
      <!-- 50 -->
      <g transform="translate(65.082948 322.182437) scale(0.1 -0.1)">
       <defs>
        <path id="DejaVuSans-35" d="M 691 4666 
L 3169 4666 
L 3169 4134 
L 1269 4134 
L 1269 2991 
Q 1406 3038 1543 3061 
Q 1681 3084 1819 3084 
Q 2600 3084 3056 2656 
Q 3513 2228 3513 1497 
Q 3513 744 3044 326 
Q 2575 -91 1722 -91 
Q 1428 -91 1123 -41 
Q 819 9 494 109 
L 494 744 
Q 775 591 1075 516 
Q 1375 441 1709 441 
Q 2250 441 2565 725 
Q 2881 1009 2881 1497 
Q 2881 1984 2565 2268 
Q 2250 2553 1709 2553 
Q 1456 2553 1204 2497 
Q 953 2441 691 2322 
L 691 4666 
z
" transform="scale(0.015625)"/>
        <path id="DejaVuSans-30" d="M 2034 4250 
Q 1547 4250 1301 3770 
Q 1056 3291 1056 2328 
Q 1056 1369 1301 889 
Q 1547 409 2034 409 
Q 2525 409 2770 889 
Q 3016 1369 3016 2328 
Q 3016 3291 2770 3770 
Q 2525 4250 2034 4250 
z
M 2034 4750 
Q 2819 4750 3233 4129 
Q 3647 3509 3647 2328 
Q 3647 1150 3233 529 
Q 2819 -91 2034 -91 
Q 1250 -91 836 529 
Q 422 1150 422 2328 
Q 422 3509 836 4129 
Q 1250 4750 2034 4750 
z
" transform="scale(0.015625)"/>
       </defs>
       <use xlink:href="#DejaVuSans-35"/>
       <use xlink:href="#DejaVuSans-30" x="63.623047"/>
      </g>
     </g>
    </g>
    <g id="xtick_2">
     <g id="line2d_2">
      <g>
       <use xlink:href="#maaed4172f3" x="116.66951" y="307.584" style="stroke: #000000; stroke-width: 0.8"/>
      </g>
     </g>
     <g id="text_2">
      <!-- 100 -->
      <g transform="translate(107.12576 322.182437) scale(0.1 -0.1)">
       <defs>
        <path id="DejaVuSans-31" d="M 794 531 
L 1825 531 
L 1825 4091 
L 703 3866 
L 703 4441 
L 1819 4666 
L 2450 4666 
L 2450 531 
L 3481 531 
L 3481 0 
L 794 0 
L 794 531 
z
" transform="scale(0.015625)"/>
       </defs>
       <use xlink:href="#DejaVuSans-31"/>
       <use xlink:href="#DejaVuSans-30" x="63.623047"/>
       <use xlink:href="#DejaVuSans-30" x="127.246094"/>
      </g>
     </g>
    </g>
    <g id="xtick_3">
     <g id="line2d_3">
      <g>
       <use xlink:href="#maaed4172f3" x="161.893572" y="307.584" style="stroke: #000000; stroke-width: 0.8"/>
      </g>
     </g>
     <g id="text_3">
      <!-- 150 -->
      <g transform="translate(152.349822 322.182437) scale(0.1 -0.1)">
       <use xlink:href="#DejaVuSans-31"/>
       <use xlink:href="#DejaVuSans-35" x="63.623047"/>
       <use xlink:href="#DejaVuSans-30" x="127.246094"/>
      </g>
     </g>
    </g>
    <g id="xtick_4">
     <g id="line2d_4">
      <g>
       <use xlink:href="#maaed4172f3" x="207.117635" y="307.584" style="stroke: #000000; stroke-width: 0.8"/>
      </g>
     </g>
     <g id="text_4">
      <!-- 200 -->
      <g transform="translate(197.573885 322.182437) scale(0.1 -0.1)">
       <defs>
        <path id="DejaVuSans-32" d="M 1228 531 
L 3431 531 
L 3431 0 
L 469 0 
L 469 531 
Q 828 903 1448 1529 
Q 2069 2156 2228 2338 
Q 2531 2678 2651 2914 
Q 2772 3150 2772 3378 
Q 2772 3750 2511 3984 
Q 2250 4219 1831 4219 
Q 1534 4219 1204 4116 
Q 875 4013 500 3803 
L 500 4441 
Q 881 4594 1212 4672 
Q 1544 4750 1819 4750 
Q 2544 4750 2975 4387 
Q 3406 4025 3406 3419 
Q 3406 3131 3298 2873 
Q 3191 2616 2906 2266 
Q 2828 2175 2409 1742 
Q 1991 1309 1228 531 
z
" transform="scale(0.015625)"/>
       </defs>
       <use xlink:href="#DejaVuSans-32"/>
       <use xlink:href="#DejaVuSans-30" x="63.623047"/>
       <use xlink:href="#DejaVuSans-30" x="127.246094"/>
      </g>
     </g>
    </g>
    <g id="xtick_5">
     <g id="line2d_5">
      <g>
       <use xlink:href="#maaed4172f3" x="252.341697" y="307.584" style="stroke: #000000; stroke-width: 0.8"/>
      </g>
     </g>
     <g id="text_5">
      <!-- 250 -->
      <g transform="translate(242.797947 322.182437) scale(0.1 -0.1)">
       <use xlink:href="#DejaVuSans-32"/>
       <use xlink:href="#DejaVuSans-35" x="63.623047"/>
       <use xlink:href="#DejaVuSans-30" x="127.246094"/>
      </g>
     </g>
    </g>
    <g id="xtick_6">
     <g id="line2d_6">
      <g>
       <use xlink:href="#maaed4172f3" x="297.565759" y="307.584" style="stroke: #000000; stroke-width: 0.8"/>
      </g>
     </g>
     <g id="text_6">
      <!-- 300 -->
      <g transform="translate(288.022009 322.182437) scale(0.1 -0.1)">
       <defs>
        <path id="DejaVuSans-33" d="M 2597 2516 
Q 3050 2419 3304 2112 
Q 3559 1806 3559 1356 
Q 3559 666 3084 287 
Q 2609 -91 1734 -91 
Q 1441 -91 1130 -33 
Q 819 25 488 141 
L 488 750 
Q 750 597 1062 519 
Q 1375 441 1716 441 
Q 2309 441 2620 675 
Q 2931 909 2931 1356 
Q 2931 1769 2642 2001 
Q 2353 2234 1838 2234 
L 1294 2234 
L 1294 2753 
L 1863 2753 
Q 2328 2753 2575 2939 
Q 2822 3125 2822 3475 
Q 2822 3834 2567 4026 
Q 2313 4219 1838 4219 
Q 1578 4219 1281 4162 
Q 984 4106 628 3988 
L 628 4550 
Q 988 4650 1302 4700 
Q 1616 4750 1894 4750 
Q 2613 4750 3031 4423 
Q 3450 4097 3450 3541 
Q 3450 3153 3228 2886 
Q 3006 2619 2597 2516 
z
" transform="scale(0.015625)"/>
       </defs>
       <use xlink:href="#DejaVuSans-33"/>
       <use xlink:href="#DejaVuSans-30" x="63.623047"/>
       <use xlink:href="#DejaVuSans-30" x="127.246094"/>
      </g>
     </g>
    </g>
    <g id="xtick_7">
     <g id="line2d_7">
      <g>
       <use xlink:href="#maaed4172f3" x="342.789821" y="307.584" style="stroke: #000000; stroke-width: 0.8"/>
      </g>
     </g>
     <g id="text_7">
      <!-- 350 -->
      <g transform="translate(333.246071 322.182437) scale(0.1 -0.1)">
       <use xlink:href="#DejaVuSans-33"/>
       <use xlink:href="#DejaVuSans-35" x="63.623047"/>
       <use xlink:href="#DejaVuSans-30" x="127.246094"/>
      </g>
     </g>
    </g>
    <g id="xtick_8">
     <g id="line2d_8">
      <g>
       <use xlink:href="#maaed4172f3" x="388.013883" y="307.584" style="stroke: #000000; stroke-width: 0.8"/>
      </g>
     </g>
     <g id="text_8">
      <!-- 400 -->
      <g transform="translate(378.470133 322.182437) scale(0.1 -0.1)">
       <defs>
        <path id="DejaVuSans-34" d="M 2419 4116 
L 825 1625 
L 2419 1625 
L 2419 4116 
z
M 2253 4666 
L 3047 4666 
L 3047 1625 
L 3713 1625 
L 3713 1100 
L 3047 1100 
L 3047 0 
L 2419 0 
L 2419 1100 
L 313 1100 
L 313 1709 
L 2253 4666 
z
" transform="scale(0.015625)"/>
       </defs>
       <use xlink:href="#DejaVuSans-34"/>
       <use xlink:href="#DejaVuSans-30" x="63.623047"/>
       <use xlink:href="#DejaVuSans-30" x="127.246094"/>
      </g>
     </g>
    </g>
    <g id="text_9">
     <!-- ${m/z}$ -->
     <g transform="translate(226.96 335.860562) scale(0.1 -0.1)">
      <defs>
       <path id="DejaVuSans-Oblique-6d" d="M 5747 2113 
L 5338 0 
L 4763 0 
L 5166 2094 
Q 5191 2228 5203 2325 
Q 5216 2422 5216 2491 
Q 5216 2772 5059 2928 
Q 4903 3084 4622 3084 
Q 4203 3084 3875 2770 
Q 3547 2456 3450 1953 
L 3066 0 
L 2491 0 
L 2900 2094 
Q 2925 2209 2937 2307 
Q 2950 2406 2950 2484 
Q 2950 2769 2794 2926 
Q 2638 3084 2363 3084 
Q 1938 3084 1609 2770 
Q 1281 2456 1184 1953 
L 800 0 
L 225 0 
L 909 3500 
L 1484 3500 
L 1375 2956 
Q 1609 3263 1923 3423 
Q 2238 3584 2597 3584 
Q 2978 3584 3223 3384 
Q 3469 3184 3519 2828 
Q 3781 3197 4126 3390 
Q 4472 3584 4856 3584 
Q 5306 3584 5551 3325 
Q 5797 3066 5797 2591 
Q 5797 2488 5784 2364 
Q 5772 2241 5747 2113 
z
" transform="scale(0.015625)"/>
       <path id="DejaVuSans-2f" d="M 1625 4666 
L 2156 4666 
L 531 -594 
L 0 -594 
L 1625 4666 
z
" transform="scale(0.015625)"/>
       <path id="DejaVuSans-Oblique-7a" d="M 744 3500 
L 3475 3500 
L 3372 2975 
L 738 459 
L 2913 459 
L 2822 0 
L -19 0 
L 84 525 
L 2719 3041 
L 653 3041 
L 744 3500 
z
" transform="scale(0.015625)"/>
      </defs>
      <use xlink:href="#DejaVuSans-Oblique-6d" transform="translate(0 0.09375)"/>
      <use xlink:href="#DejaVuSans-2f" transform="translate(97.412109 0.09375)"/>
      <use xlink:href="#DejaVuSans-Oblique-7a" transform="translate(131.103516 0.09375)"/>
     </g>
    </g>
   </g>
   <g id="matplotlib.axis_2">
    <g id="ytick_1">
     <g id="line2d_9">
      <defs>
       <path id="m088b2458ac" d="M 0 0 
L -3.5 0 
" style="stroke: #000000; stroke-width: 0.8"/>
      </defs>
      <g>
       <use xlink:href="#m088b2458ac" x="57.6" y="307.584" style="stroke: #000000; stroke-width: 0.8"/>
      </g>
     </g>
     <g id="text_10">
      <!-- 0 -->
      <g transform="translate(44.2375 311.383219) scale(0.1 -0.1)">
       <use xlink:href="#DejaVuSans-30"/>
      </g>
     </g>
    </g>
    <g id="ytick_2">
     <g id="line2d_10">
      <g>
       <use xlink:href="#m088b2458ac" x="57.6" y="270.046235" style="stroke: #000000; stroke-width: 0.8"/>
      </g>
     </g>
     <g id="text_11">
      <!-- 50000 -->
      <g transform="translate(18.7875 273.845453) scale(0.1 -0.1)">
       <use xlink:href="#DejaVuSans-35"/>
       <use xlink:href="#DejaVuSans-30" x="63.623047"/>
       <use xlink:href="#DejaVuSans-30" x="127.246094"/>
       <use xlink:href="#DejaVuSans-30" x="190.869141"/>
       <use xlink:href="#DejaVuSans-30" x="254.492188"/>
      </g>
     </g>
    </g>
    <g id="ytick_3">
     <g id="line2d_11">
      <g>
       <use xlink:href="#m088b2458ac" x="57.6" y="232.508469" style="stroke: #000000; stroke-width: 0.8"/>
      </g>
     </g>
     <g id="text_12">
      <!-- 100000 -->
      <g transform="translate(12.425 236.307688) scale(0.1 -0.1)">
       <use xlink:href="#DejaVuSans-31"/>
       <use xlink:href="#DejaVuSans-30" x="63.623047"/>
       <use xlink:href="#DejaVuSans-30" x="127.246094"/>
       <use xlink:href="#DejaVuSans-30" x="190.869141"/>
       <use xlink:href="#DejaVuSans-30" x="254.492188"/>
       <use xlink:href="#DejaVuSans-30" x="318.115234"/>
      </g>
     </g>
    </g>
    <g id="ytick_4">
     <g id="line2d_12">
      <g>
       <use xlink:href="#m088b2458ac" x="57.6" y="194.970704" style="stroke: #000000; stroke-width: 0.8"/>
      </g>
     </g>
     <g id="text_13">
      <!-- 150000 -->
      <g transform="translate(12.425 198.769923) scale(0.1 -0.1)">
       <use xlink:href="#DejaVuSans-31"/>
       <use xlink:href="#DejaVuSans-35" x="63.623047"/>
       <use xlink:href="#DejaVuSans-30" x="127.246094"/>
       <use xlink:href="#DejaVuSans-30" x="190.869141"/>
       <use xlink:href="#DejaVuSans-30" x="254.492188"/>
       <use xlink:href="#DejaVuSans-30" x="318.115234"/>
      </g>
     </g>
    </g>
    <g id="ytick_5">
     <g id="line2d_13">
      <g>
       <use xlink:href="#m088b2458ac" x="57.6" y="157.432939" style="stroke: #000000; stroke-width: 0.8"/>
      </g>
     </g>
     <g id="text_14">
      <!-- 200000 -->
      <g transform="translate(12.425 161.232157) scale(0.1 -0.1)">
       <use xlink:href="#DejaVuSans-32"/>
       <use xlink:href="#DejaVuSans-30" x="63.623047"/>
       <use xlink:href="#DejaVuSans-30" x="127.246094"/>
       <use xlink:href="#DejaVuSans-30" x="190.869141"/>
       <use xlink:href="#DejaVuSans-30" x="254.492188"/>
       <use xlink:href="#DejaVuSans-30" x="318.115234"/>
      </g>
     </g>
    </g>
    <g id="ytick_6">
     <g id="line2d_14">
      <g>
       <use xlink:href="#m088b2458ac" x="57.6" y="119.895173" style="stroke: #000000; stroke-width: 0.8"/>
      </g>
     </g>
     <g id="text_15">
      <!-- 250000 -->
      <g transform="translate(12.425 123.694392) scale(0.1 -0.1)">
       <use xlink:href="#DejaVuSans-32"/>
       <use xlink:href="#DejaVuSans-35" x="63.623047"/>
       <use xlink:href="#DejaVuSans-30" x="127.246094"/>
       <use xlink:href="#DejaVuSans-30" x="190.869141"/>
       <use xlink:href="#DejaVuSans-30" x="254.492188"/>
       <use xlink:href="#DejaVuSans-30" x="318.115234"/>
      </g>
     </g>
    </g>
    <g id="ytick_7">
     <g id="line2d_15">
      <g>
       <use xlink:href="#m088b2458ac" x="57.6" y="82.357408" style="stroke: #000000; stroke-width: 0.8"/>
      </g>
     </g>
     <g id="text_16">
      <!-- 300000 -->
      <g transform="translate(12.425 86.156627) scale(0.1 -0.1)">
       <use xlink:href="#DejaVuSans-33"/>
       <use xlink:href="#DejaVuSans-30" x="63.623047"/>
       <use xlink:href="#DejaVuSans-30" x="127.246094"/>
       <use xlink:href="#DejaVuSans-30" x="190.869141"/>
       <use xlink:href="#DejaVuSans-30" x="254.492188"/>
       <use xlink:href="#DejaVuSans-30" x="318.115234"/>
      </g>
     </g>
    </g>
    <g id="ytick_8">
     <g id="line2d_16">
      <g>
       <use xlink:href="#m088b2458ac" x="57.6" y="44.819643" style="stroke: #000000; stroke-width: 0.8"/>
      </g>
     </g>
     <g id="text_17">
      <!-- 350000 -->
      <g transform="translate(12.425 48.618861) scale(0.1 -0.1)">
       <use xlink:href="#DejaVuSans-33"/>
       <use xlink:href="#DejaVuSans-35" x="63.623047"/>
       <use xlink:href="#DejaVuSans-30" x="127.246094"/>
       <use xlink:href="#DejaVuSans-30" x="190.869141"/>
       <use xlink:href="#DejaVuSans-30" x="254.492188"/>
       <use xlink:href="#DejaVuSans-30" x="318.115234"/>
      </g>
     </g>
    </g>
    <g id="text_18">
     <!-- intensities -->
     <g transform="translate(6.345312 200.3155) rotate(-90) scale(0.1 -0.1)">
      <defs>
       <path id="DejaVuSans-69" d="M 603 3500 
L 1178 3500 
L 1178 0 
L 603 0 
L 603 3500 
z
M 603 4863 
L 1178 4863 
L 1178 4134 
L 603 4134 
L 603 4863 
z
" transform="scale(0.015625)"/>
       <path id="DejaVuSans-6e" d="M 3513 2113 
L 3513 0 
L 2938 0 
L 2938 2094 
Q 2938 2591 2744 2837 
Q 2550 3084 2163 3084 
Q 1697 3084 1428 2787 
Q 1159 2491 1159 1978 
L 1159 0 
L 581 0 
L 581 3500 
L 1159 3500 
L 1159 2956 
Q 1366 3272 1645 3428 
Q 1925 3584 2291 3584 
Q 2894 3584 3203 3211 
Q 3513 2838 3513 2113 
z
" transform="scale(0.015625)"/>
       <path id="DejaVuSans-74" d="M 1172 4494 
L 1172 3500 
L 2356 3500 
L 2356 3053 
L 1172 3053 
L 1172 1153 
Q 1172 725 1289 603 
Q 1406 481 1766 481 
L 2356 481 
L 2356 0 
L 1766 0 
Q 1100 0 847 248 
Q 594 497 594 1153 
L 594 3053 
L 172 3053 
L 172 3500 
L 594 3500 
L 594 4494 
L 1172 4494 
z
" transform="scale(0.015625)"/>
       <path id="DejaVuSans-65" d="M 3597 1894 
L 3597 1613 
L 953 1613 
Q 991 1019 1311 708 
Q 1631 397 2203 397 
Q 2534 397 2845 478 
Q 3156 559 3463 722 
L 3463 178 
Q 3153 47 2828 -22 
Q 2503 -91 2169 -91 
Q 1331 -91 842 396 
Q 353 884 353 1716 
Q 353 2575 817 3079 
Q 1281 3584 2069 3584 
Q 2775 3584 3186 3129 
Q 3597 2675 3597 1894 
z
M 3022 2063 
Q 3016 2534 2758 2815 
Q 2500 3097 2075 3097 
Q 1594 3097 1305 2825 
Q 1016 2553 972 2059 
L 3022 2063 
z
" transform="scale(0.015625)"/>
       <path id="DejaVuSans-73" d="M 2834 3397 
L 2834 2853 
Q 2591 2978 2328 3040 
Q 2066 3103 1784 3103 
Q 1356 3103 1142 2972 
Q 928 2841 928 2578 
Q 928 2378 1081 2264 
Q 1234 2150 1697 2047 
L 1894 2003 
Q 2506 1872 2764 1633 
Q 3022 1394 3022 966 
Q 3022 478 2636 193 
Q 2250 -91 1575 -91 
Q 1294 -91 989 -36 
Q 684 19 347 128 
L 347 722 
Q 666 556 975 473 
Q 1284 391 1588 391 
Q 1994 391 2212 530 
Q 2431 669 2431 922 
Q 2431 1156 2273 1281 
Q 2116 1406 1581 1522 
L 1381 1569 
Q 847 1681 609 1914 
Q 372 2147 372 2553 
Q 372 3047 722 3315 
Q 1072 3584 1716 3584 
Q 2034 3584 2315 3537 
Q 2597 3491 2834 3397 
z
" transform="scale(0.015625)"/>
      </defs>
      <use xlink:href="#DejaVuSans-69"/>
      <use xlink:href="#DejaVuSans-6e" x="27.783203"/>
      <use xlink:href="#DejaVuSans-74" x="91.162109"/>
      <use xlink:href="#DejaVuSans-65" x="130.371094"/>
      <use xlink:href="#DejaVuSans-6e" x="191.894531"/>
      <use xlink:href="#DejaVuSans-73" x="255.273438"/>
      <use xlink:href="#DejaVuSans-69" x="307.373047"/>
      <use xlink:href="#DejaVuSans-74" x="335.15625"/>
      <use xlink:href="#DejaVuSans-69" x="374.365234"/>
      <use xlink:href="#DejaVuSans-65" x="402.148438"/>
      <use xlink:href="#DejaVuSans-73" x="463.671875"/>
     </g>
    </g>
   </g>
   <g id="patch_125">
    <path d="M 57.6 307.584 
L 57.6 41.472 
" style="fill: none; stroke: #000000; stroke-width: 0.8; stroke-linejoin: miter; stroke-linecap: square"/>
   </g>
   <g id="patch_126">
    <path d="M 414.72 307.584 
L 414.72 41.472 
" style="fill: none; stroke: #000000; stroke-width: 0.8; stroke-linejoin: miter; stroke-linecap: square"/>
   </g>
   <g id="patch_127">
    <path d="M 57.6 307.584 
L 414.72 307.584 
" style="fill: none; stroke: #000000; stroke-width: 0.8; stroke-linejoin: miter; stroke-linecap: square"/>
   </g>
   <g id="patch_128">
    <path d="M 57.6 41.472 
L 414.72 41.472 
" style="fill: none; stroke: #000000; stroke-width: 0.8; stroke-linejoin: miter; stroke-linecap: square"/>
   </g>
   <g id="text_19">
    <!-- 71.0135 -->
    <g transform="translate(83.805845 192.2834) scale(0.06 -0.06)">
     <defs>
      <path id="DejaVuSans-37" d="M 525 4666 
L 3525 4666 
L 3525 4397 
L 1831 0 
L 1172 0 
L 2766 4134 
L 525 4134 
L 525 4666 
z
" transform="scale(0.015625)"/>
      <path id="DejaVuSans-2e" d="M 684 794 
L 1344 794 
L 1344 0 
L 684 0 
L 684 794 
z
" transform="scale(0.015625)"/>
     </defs>
     <use xlink:href="#DejaVuSans-37"/>
     <use xlink:href="#DejaVuSans-31" x="63.623047"/>
     <use xlink:href="#DejaVuSans-2e" x="127.246094"/>
     <use xlink:href="#DejaVuSans-30" x="159.033203"/>
     <use xlink:href="#DejaVuSans-31" x="222.65625"/>
     <use xlink:href="#DejaVuSans-33" x="286.279297"/>
     <use xlink:href="#DejaVuSans-35" x="349.902344"/>
    </g>
   </g>
   <g id="text_20">
    <!-- 81.0341 -->
    <g transform="translate(92.869303 255.16754) scale(0.06 -0.06)">
     <defs>
      <path id="DejaVuSans-38" d="M 2034 2216 
Q 1584 2216 1326 1975 
Q 1069 1734 1069 1313 
Q 1069 891 1326 650 
Q 1584 409 2034 409 
Q 2484 409 2743 651 
Q 3003 894 3003 1313 
Q 3003 1734 2745 1975 
Q 2488 2216 2034 2216 
z
M 1403 2484 
Q 997 2584 770 2862 
Q 544 3141 544 3541 
Q 544 4100 942 4425 
Q 1341 4750 2034 4750 
Q 2731 4750 3128 4425 
Q 3525 4100 3525 3541 
Q 3525 3141 3298 2862 
Q 3072 2584 2669 2484 
Q 3125 2378 3379 2068 
Q 3634 1759 3634 1313 
Q 3634 634 3220 271 
Q 2806 -91 2034 -91 
Q 1263 -91 848 271 
Q 434 634 434 1313 
Q 434 1759 690 2068 
Q 947 2378 1403 2484 
z
M 1172 3481 
Q 1172 3119 1398 2916 
Q 1625 2713 2034 2713 
Q 2441 2713 2670 2916 
Q 2900 3119 2900 3481 
Q 2900 3844 2670 4047 
Q 2441 4250 2034 4250 
Q 1625 4250 1398 4047 
Q 1172 3844 1172 3481 
z
" transform="scale(0.015625)"/>
     </defs>
     <use xlink:href="#DejaVuSans-38"/>
     <use xlink:href="#DejaVuSans-31" x="63.623047"/>
     <use xlink:href="#DejaVuSans-2e" x="127.246094"/>
     <use xlink:href="#DejaVuSans-30" x="159.033203"/>
     <use xlink:href="#DejaVuSans-33" x="222.65625"/>
     <use xlink:href="#DejaVuSans-34" x="286.279297"/>
     <use xlink:href="#DejaVuSans-31" x="349.902344"/>
    </g>
   </g>
   <g id="text_21">
    <!-- 89.0239 -->
    <g transform="translate(100.095885 220.238577) scale(0.06 -0.06)">
     <defs>
      <path id="DejaVuSans-39" d="M 703 97 
L 703 672 
Q 941 559 1184 500 
Q 1428 441 1663 441 
Q 2288 441 2617 861 
Q 2947 1281 2994 2138 
Q 2813 1869 2534 1725 
Q 2256 1581 1919 1581 
Q 1219 1581 811 2004 
Q 403 2428 403 3163 
Q 403 3881 828 4315 
Q 1253 4750 1959 4750 
Q 2769 4750 3195 4129 
Q 3622 3509 3622 2328 
Q 3622 1225 3098 567 
Q 2575 -91 1691 -91 
Q 1453 -91 1209 -44 
Q 966 3 703 97 
z
M 1959 2075 
Q 2384 2075 2632 2365 
Q 2881 2656 2881 3163 
Q 2881 3666 2632 3958 
Q 2384 4250 1959 4250 
Q 1534 4250 1286 3958 
Q 1038 3666 1038 3163 
Q 1038 2656 1286 2365 
Q 1534 2075 1959 2075 
z
" transform="scale(0.015625)"/>
     </defs>
     <use xlink:href="#DejaVuSans-38"/>
     <use xlink:href="#DejaVuSans-39" x="63.623047"/>
     <use xlink:href="#DejaVuSans-2e" x="127.246094"/>
     <use xlink:href="#DejaVuSans-30" x="159.033203"/>
     <use xlink:href="#DejaVuSans-32" x="222.65625"/>
     <use xlink:href="#DejaVuSans-33" x="286.279297"/>
     <use xlink:href="#DejaVuSans-39" x="349.902344"/>
    </g>
   </g>
   <g id="text_22">
    <!-- 227.0738 -->
    <g transform="translate(224.490711 244.71519) scale(0.06 -0.06)">
     <use xlink:href="#DejaVuSans-32"/>
     <use xlink:href="#DejaVuSans-32" x="63.623047"/>
     <use xlink:href="#DejaVuSans-37" x="127.246094"/>
     <use xlink:href="#DejaVuSans-2e" x="190.869141"/>
     <use xlink:href="#DejaVuSans-30" x="222.65625"/>
     <use xlink:href="#DejaVuSans-37" x="286.279297"/>
     <use xlink:href="#DejaVuSans-33" x="349.902344"/>
     <use xlink:href="#DejaVuSans-38" x="413.525391"/>
    </g>
   </g>
   <g id="text_23">
    <!-- 228.081 -->
    <g transform="translate(212.910429 284.615326) scale(0.06 -0.06)">
     <use xlink:href="#DejaVuSans-32"/>
     <use xlink:href="#DejaVuSans-32" x="63.623047"/>
     <use xlink:href="#DejaVuSans-38" x="127.246094"/>
     <use xlink:href="#DejaVuSans-2e" x="190.869141"/>
     <use xlink:href="#DejaVuSans-30" x="222.65625"/>
     <use xlink:href="#DejaVuSans-38" x="286.279297"/>
     <use xlink:href="#DejaVuSans-31" x="349.902344"/>
    </g>
   </g>
   <g id="text_24">
    <!-- 238.0657 -->
    <g transform="translate(214.99269 267.154105) scale(0.06 -0.06)">
     <defs>
      <path id="DejaVuSans-36" d="M 2113 2584 
Q 1688 2584 1439 2293 
Q 1191 2003 1191 1497 
Q 1191 994 1439 701 
Q 1688 409 2113 409 
Q 2538 409 2786 701 
Q 3034 994 3034 1497 
Q 3034 2003 2786 2293 
Q 2538 2584 2113 2584 
z
M 3366 4563 
L 3366 3988 
Q 3128 4100 2886 4159 
Q 2644 4219 2406 4219 
Q 1781 4219 1451 3797 
Q 1122 3375 1075 2522 
Q 1259 2794 1537 2939 
Q 1816 3084 2150 3084 
Q 2853 3084 3261 2657 
Q 3669 2231 3669 1497 
Q 3669 778 3244 343 
Q 2819 -91 2113 -91 
Q 1303 -91 875 529 
Q 447 1150 447 2328 
Q 447 3434 972 4092 
Q 1497 4750 2381 4750 
Q 2619 4750 2861 4703 
Q 3103 4656 3366 4563 
z
" transform="scale(0.015625)"/>
     </defs>
     <use xlink:href="#DejaVuSans-32"/>
     <use xlink:href="#DejaVuSans-33" x="63.623047"/>
     <use xlink:href="#DejaVuSans-38" x="127.246094"/>
     <use xlink:href="#DejaVuSans-2e" x="190.869141"/>
     <use xlink:href="#DejaVuSans-30" x="222.65625"/>
     <use xlink:href="#DejaVuSans-36" x="286.279297"/>
     <use xlink:href="#DejaVuSans-35" x="349.902344"/>
     <use xlink:href="#DejaVuSans-37" x="413.525391"/>
    </g>
   </g>
   <g id="text_25">
    <!-- 240.0819 -->
    <g transform="translate(224.016255 279.443047) scale(0.06 -0.06)">
     <use xlink:href="#DejaVuSans-32"/>
     <use xlink:href="#DejaVuSans-34" x="63.623047"/>
     <use xlink:href="#DejaVuSans-30" x="127.246094"/>
     <use xlink:href="#DejaVuSans-2e" x="190.869141"/>
     <use xlink:href="#DejaVuSans-30" x="222.65625"/>
     <use xlink:href="#DejaVuSans-38" x="286.279297"/>
     <use xlink:href="#DejaVuSans-31" x="349.902344"/>
     <use xlink:href="#DejaVuSans-39" x="413.525391"/>
    </g>
   </g>
   <g id="text_26">
    <!-- 251.0739 -->
    <g transform="translate(246.19833 232.300988) scale(0.06 -0.06)">
     <use xlink:href="#DejaVuSans-32"/>
     <use xlink:href="#DejaVuSans-35" x="63.623047"/>
     <use xlink:href="#DejaVuSans-31" x="127.246094"/>
     <use xlink:href="#DejaVuSans-2e" x="190.869141"/>
     <use xlink:href="#DejaVuSans-30" x="222.65625"/>
     <use xlink:href="#DejaVuSans-37" x="286.279297"/>
     <use xlink:href="#DejaVuSans-33" x="349.902344"/>
     <use xlink:href="#DejaVuSans-39" x="413.525391"/>
    </g>
   </g>
   <g id="text_27">
    <!-- 252.0808 -->
    <g transform="translate(248.54905 270.758689) scale(0.06 -0.06)">
     <use xlink:href="#DejaVuSans-32"/>
     <use xlink:href="#DejaVuSans-35" x="63.623047"/>
     <use xlink:href="#DejaVuSans-32" x="127.246094"/>
     <use xlink:href="#DejaVuSans-2e" x="190.869141"/>
     <use xlink:href="#DejaVuSans-30" x="222.65625"/>
     <use xlink:href="#DejaVuSans-38" x="286.279297"/>
     <use xlink:href="#DejaVuSans-30" x="349.902344"/>
     <use xlink:href="#DejaVuSans-38" x="413.525391"/>
    </g>
   </g>
   <g id="text_28">
    <!-- 264.0815 -->
    <g transform="translate(257.963446 66.527557) scale(0.06 -0.06)">
     <use xlink:href="#DejaVuSans-32"/>
     <use xlink:href="#DejaVuSans-36" x="63.623047"/>
     <use xlink:href="#DejaVuSans-34" x="127.246094"/>
     <use xlink:href="#DejaVuSans-2e" x="190.869141"/>
     <use xlink:href="#DejaVuSans-30" x="222.65625"/>
     <use xlink:href="#DejaVuSans-38" x="286.279297"/>
     <use xlink:href="#DejaVuSans-31" x="349.902344"/>
     <use xlink:href="#DejaVuSans-35" x="413.525391"/>
    </g>
   </g>
   <g id="text_29">
    <!-- 265.0871 -->
    <g transform="translate(243.992206 260.723543) scale(0.06 -0.06)">
     <use xlink:href="#DejaVuSans-32"/>
     <use xlink:href="#DejaVuSans-36" x="63.623047"/>
     <use xlink:href="#DejaVuSans-35" x="127.246094"/>
     <use xlink:href="#DejaVuSans-2e" x="190.869141"/>
     <use xlink:href="#DejaVuSans-30" x="222.65625"/>
     <use xlink:href="#DejaVuSans-38" x="286.279297"/>
     <use xlink:href="#DejaVuSans-37" x="349.902344"/>
     <use xlink:href="#DejaVuSans-31" x="413.525391"/>
    </g>
   </g>
   <g id="text_30">
    <!-- 266.0971 -->
    <g transform="translate(259.786541 221.744663) scale(0.06 -0.06)">
     <use xlink:href="#DejaVuSans-32"/>
     <use xlink:href="#DejaVuSans-36" x="63.623047"/>
     <use xlink:href="#DejaVuSans-36" x="127.246094"/>
     <use xlink:href="#DejaVuSans-2e" x="190.869141"/>
     <use xlink:href="#DejaVuSans-30" x="222.65625"/>
     <use xlink:href="#DejaVuSans-39" x="286.279297"/>
     <use xlink:href="#DejaVuSans-37" x="349.902344"/>
     <use xlink:href="#DejaVuSans-31" x="413.525391"/>
    </g>
   </g>
   <g id="text_31">
    <!-- 269.1208 -->
    <g transform="translate(265.401432 239.246427) scale(0.06 -0.06)">
     <use xlink:href="#DejaVuSans-32"/>
     <use xlink:href="#DejaVuSans-36" x="63.623047"/>
     <use xlink:href="#DejaVuSans-39" x="127.246094"/>
     <use xlink:href="#DejaVuSans-2e" x="190.869141"/>
     <use xlink:href="#DejaVuSans-31" x="222.65625"/>
     <use xlink:href="#DejaVuSans-32" x="286.279297"/>
     <use xlink:href="#DejaVuSans-30" x="349.902344"/>
     <use xlink:href="#DejaVuSans-38" x="413.525391"/>
    </g>
   </g>
   <g id="text_32">
    <!-- 270.1278 -->
    <g transform="translate(258.873033 253.918792) scale(0.06 -0.06)">
     <use xlink:href="#DejaVuSans-32"/>
     <use xlink:href="#DejaVuSans-37" x="63.623047"/>
     <use xlink:href="#DejaVuSans-30" x="127.246094"/>
     <use xlink:href="#DejaVuSans-2e" x="190.869141"/>
     <use xlink:href="#DejaVuSans-31" x="222.65625"/>
     <use xlink:href="#DejaVuSans-32" x="286.279297"/>
     <use xlink:href="#DejaVuSans-37" x="349.902344"/>
     <use xlink:href="#DejaVuSans-38" x="413.525391"/>
    </g>
   </g>
   <g id="text_33">
    <!-- 278.0972 -->
    <g transform="translate(270.640398 210.998856) scale(0.06 -0.06)">
     <use xlink:href="#DejaVuSans-32"/>
     <use xlink:href="#DejaVuSans-37" x="63.623047"/>
     <use xlink:href="#DejaVuSans-38" x="127.246094"/>
     <use xlink:href="#DejaVuSans-2e" x="190.869141"/>
     <use xlink:href="#DejaVuSans-30" x="222.65625"/>
     <use xlink:href="#DejaVuSans-39" x="286.279297"/>
     <use xlink:href="#DejaVuSans-37" x="349.902344"/>
     <use xlink:href="#DejaVuSans-32" x="413.525391"/>
    </g>
   </g>
   <g id="text_34">
    <!-- 280.1128 -->
    <g transform="translate(272.463493 134.799692) scale(0.06 -0.06)">
     <use xlink:href="#DejaVuSans-32"/>
     <use xlink:href="#DejaVuSans-38" x="63.623047"/>
     <use xlink:href="#DejaVuSans-30" x="127.246094"/>
     <use xlink:href="#DejaVuSans-2e" x="190.869141"/>
     <use xlink:href="#DejaVuSans-31" x="222.65625"/>
     <use xlink:href="#DejaVuSans-31" x="286.279297"/>
     <use xlink:href="#DejaVuSans-32" x="349.902344"/>
     <use xlink:href="#DejaVuSans-38" x="413.525391"/>
    </g>
   </g>
   <g id="text_35">
    <!-- 282.1284 -->
    <g transform="translate(272.846588 285.96061) scale(0.06 -0.06)">
     <use xlink:href="#DejaVuSans-32"/>
     <use xlink:href="#DejaVuSans-38" x="63.623047"/>
     <use xlink:href="#DejaVuSans-32" x="127.246094"/>
     <use xlink:href="#DejaVuSans-2e" x="190.869141"/>
     <use xlink:href="#DejaVuSans-31" x="222.65625"/>
     <use xlink:href="#DejaVuSans-32" x="286.279297"/>
     <use xlink:href="#DejaVuSans-38" x="349.902344"/>
     <use xlink:href="#DejaVuSans-34" x="413.525391"/>
    </g>
   </g>
   <g id="text_36">
    <!-- 289.0894 -->
    <g transform="translate(261.142598 277.934172) scale(0.06 -0.06)">
     <use xlink:href="#DejaVuSans-32"/>
     <use xlink:href="#DejaVuSans-38" x="63.623047"/>
     <use xlink:href="#DejaVuSans-39" x="127.246094"/>
     <use xlink:href="#DejaVuSans-2e" x="190.869141"/>
     <use xlink:href="#DejaVuSans-30" x="222.65625"/>
     <use xlink:href="#DejaVuSans-38" x="286.279297"/>
     <use xlink:href="#DejaVuSans-39" x="349.902344"/>
     <use xlink:href="#DejaVuSans-34" x="413.525391"/>
    </g>
   </g>
   <g id="text_37">
    <!-- 290.0971 -->
    <g transform="translate(281.49409 110.962664) scale(0.06 -0.06)">
     <use xlink:href="#DejaVuSans-32"/>
     <use xlink:href="#DejaVuSans-39" x="63.623047"/>
     <use xlink:href="#DejaVuSans-30" x="127.246094"/>
     <use xlink:href="#DejaVuSans-2e" x="190.869141"/>
     <use xlink:href="#DejaVuSans-30" x="222.65625"/>
     <use xlink:href="#DejaVuSans-39" x="286.279297"/>
     <use xlink:href="#DejaVuSans-37" x="349.902344"/>
     <use xlink:href="#DejaVuSans-31" x="413.525391"/>
    </g>
   </g>
   <g id="text_38">
    <!-- 291.1019 -->
    <g transform="translate(283.842933 259.710227) scale(0.06 -0.06)">
     <use xlink:href="#DejaVuSans-32"/>
     <use xlink:href="#DejaVuSans-39" x="63.623047"/>
     <use xlink:href="#DejaVuSans-31" x="127.246094"/>
     <use xlink:href="#DejaVuSans-2e" x="190.869141"/>
     <use xlink:href="#DejaVuSans-31" x="222.65625"/>
     <use xlink:href="#DejaVuSans-30" x="286.279297"/>
     <use xlink:href="#DejaVuSans-31" x="349.902344"/>
     <use xlink:href="#DejaVuSans-39" x="413.525391"/>
    </g>
   </g>
   <g id="text_39">
    <!-- 293.1203 -->
    <g transform="translate(284.228485 231.098577) scale(0.06 -0.06)">
     <use xlink:href="#DejaVuSans-32"/>
     <use xlink:href="#DejaVuSans-39" x="63.623047"/>
     <use xlink:href="#DejaVuSans-33" x="127.246094"/>
     <use xlink:href="#DejaVuSans-2e" x="190.869141"/>
     <use xlink:href="#DejaVuSans-31" x="222.65625"/>
     <use xlink:href="#DejaVuSans-32" x="286.279297"/>
     <use xlink:href="#DejaVuSans-30" x="349.902344"/>
     <use xlink:href="#DejaVuSans-33" x="413.525391"/>
    </g>
   </g>
   <g id="text_40">
    <!-- 304.1127 -->
    <g transform="translate(294.252822 199.472544) scale(0.06 -0.06)">
     <use xlink:href="#DejaVuSans-33"/>
     <use xlink:href="#DejaVuSans-30" x="63.623047"/>
     <use xlink:href="#DejaVuSans-34" x="127.246094"/>
     <use xlink:href="#DejaVuSans-2e" x="190.869141"/>
     <use xlink:href="#DejaVuSans-31" x="222.65625"/>
     <use xlink:href="#DejaVuSans-31" x="286.279297"/>
     <use xlink:href="#DejaVuSans-32" x="349.902344"/>
     <use xlink:href="#DejaVuSans-37" x="413.525391"/>
    </g>
   </g>
   <g id="text_41">
    <!-- 306.1284 -->
    <g transform="translate(295.994138 52.997046) scale(0.06 -0.06)">
     <use xlink:href="#DejaVuSans-33"/>
     <use xlink:href="#DejaVuSans-30" x="63.623047"/>
     <use xlink:href="#DejaVuSans-36" x="127.246094"/>
     <use xlink:href="#DejaVuSans-2e" x="190.869141"/>
     <use xlink:href="#DejaVuSans-31" x="222.65625"/>
     <use xlink:href="#DejaVuSans-32" x="286.279297"/>
     <use xlink:href="#DejaVuSans-38" x="349.902344"/>
     <use xlink:href="#DejaVuSans-34" x="413.525391"/>
    </g>
   </g>
   <g id="text_42">
    <!-- 307.1319 -->
    <g transform="translate(296.901766 252.559512) scale(0.06 -0.06)">
     <use xlink:href="#DejaVuSans-33"/>
     <use xlink:href="#DejaVuSans-30" x="63.623047"/>
     <use xlink:href="#DejaVuSans-37" x="127.246094"/>
     <use xlink:href="#DejaVuSans-2e" x="190.869141"/>
     <use xlink:href="#DejaVuSans-31" x="222.65625"/>
     <use xlink:href="#DejaVuSans-33" x="286.279297"/>
     <use xlink:href="#DejaVuSans-31" x="349.902344"/>
     <use xlink:href="#DejaVuSans-39" x="413.525391"/>
    </g>
   </g>
   <g id="text_43">
    <!-- 308.1445 -->
    <g transform="translate(299.97762 287.634304) scale(0.06 -0.06)">
     <use xlink:href="#DejaVuSans-33"/>
     <use xlink:href="#DejaVuSans-30" x="63.623047"/>
     <use xlink:href="#DejaVuSans-38" x="127.246094"/>
     <use xlink:href="#DejaVuSans-2e" x="190.869141"/>
     <use xlink:href="#DejaVuSans-31" x="222.65625"/>
     <use xlink:href="#DejaVuSans-34" x="286.279297"/>
     <use xlink:href="#DejaVuSans-34" x="349.902344"/>
     <use xlink:href="#DejaVuSans-35" x="413.525391"/>
    </g>
   </g>
   <g id="text_44">
    <!-- 322.1598 -->
    <g transform="translate(310.494158 175.871983) scale(0.06 -0.06)">
     <use xlink:href="#DejaVuSans-33"/>
     <use xlink:href="#DejaVuSans-32" x="63.623047"/>
     <use xlink:href="#DejaVuSans-32" x="127.246094"/>
     <use xlink:href="#DejaVuSans-2e" x="190.869141"/>
     <use xlink:href="#DejaVuSans-31" x="222.65625"/>
     <use xlink:href="#DejaVuSans-35" x="286.279297"/>
     <use xlink:href="#DejaVuSans-39" x="349.902344"/>
     <use xlink:href="#DejaVuSans-38" x="413.525391"/>
    </g>
   </g>
   <g id="text_45">
    <!-- 332.1072 -->
    <g transform="translate(328.125763 244.904804) scale(0.06 -0.06)">
     <use xlink:href="#DejaVuSans-33"/>
     <use xlink:href="#DejaVuSans-33" x="63.623047"/>
     <use xlink:href="#DejaVuSans-32" x="127.246094"/>
     <use xlink:href="#DejaVuSans-2e" x="190.869141"/>
     <use xlink:href="#DejaVuSans-31" x="222.65625"/>
     <use xlink:href="#DejaVuSans-30" x="286.279297"/>
     <use xlink:href="#DejaVuSans-37" x="349.902344"/>
     <use xlink:href="#DejaVuSans-32" x="413.525391"/>
    </g>
   </g>
   <g id="text_46">
    <!-- 332.1444 -->
    <g transform="translate(318.085059 259.44978) scale(0.06 -0.06)">
     <use xlink:href="#DejaVuSans-33"/>
     <use xlink:href="#DejaVuSans-33" x="63.623047"/>
     <use xlink:href="#DejaVuSans-32" x="127.246094"/>
     <use xlink:href="#DejaVuSans-2e" x="190.869141"/>
     <use xlink:href="#DejaVuSans-31" x="222.65625"/>
     <use xlink:href="#DejaVuSans-34" x="286.279297"/>
     <use xlink:href="#DejaVuSans-34" x="349.902344"/>
     <use xlink:href="#DejaVuSans-34" x="413.525391"/>
    </g>
   </g>
   <g id="text_47">
    <!-- 349.1105 -->
    <g transform="translate(322.630629 280.226005) scale(0.06 -0.06)">
     <use xlink:href="#DejaVuSans-33"/>
     <use xlink:href="#DejaVuSans-34" x="63.623047"/>
     <use xlink:href="#DejaVuSans-39" x="127.246094"/>
     <use xlink:href="#DejaVuSans-2e" x="190.869141"/>
     <use xlink:href="#DejaVuSans-31" x="222.65625"/>
     <use xlink:href="#DejaVuSans-31" x="286.279297"/>
     <use xlink:href="#DejaVuSans-30" x="349.902344"/>
     <use xlink:href="#DejaVuSans-35" x="413.525391"/>
    </g>
   </g>
   <g id="text_48">
    <!-- 350.118 -->
    <g transform="translate(336.250595 87.554689) scale(0.06 -0.06)">
     <use xlink:href="#DejaVuSans-33"/>
     <use xlink:href="#DejaVuSans-35" x="63.623047"/>
     <use xlink:href="#DejaVuSans-30" x="127.246094"/>
     <use xlink:href="#DejaVuSans-2e" x="190.869141"/>
     <use xlink:href="#DejaVuSans-31" x="222.65625"/>
     <use xlink:href="#DejaVuSans-31" x="286.279297"/>
     <use xlink:href="#DejaVuSans-38" x="349.902344"/>
    </g>
   </g>
   <g id="text_49">
    <!-- 351.1212 -->
    <g transform="translate(350.369252 279.822244) scale(0.06 -0.06)">
     <use xlink:href="#DejaVuSans-33"/>
     <use xlink:href="#DejaVuSans-35" x="63.623047"/>
     <use xlink:href="#DejaVuSans-31" x="127.246094"/>
     <use xlink:href="#DejaVuSans-2e" x="190.869141"/>
     <use xlink:href="#DejaVuSans-31" x="222.65625"/>
     <use xlink:href="#DejaVuSans-32" x="286.279297"/>
     <use xlink:href="#DejaVuSans-31" x="349.902344"/>
     <use xlink:href="#DejaVuSans-32" x="413.525391"/>
    </g>
   </g>
   <g id="text_50">
    <!-- 366.1857 -->
    <g transform="translate(338.074768 267.107434) scale(0.06 -0.06)">
     <use xlink:href="#DejaVuSans-33"/>
     <use xlink:href="#DejaVuSans-36" x="63.623047"/>
     <use xlink:href="#DejaVuSans-36" x="127.246094"/>
     <use xlink:href="#DejaVuSans-2e" x="190.869141"/>
     <use xlink:href="#DejaVuSans-31" x="222.65625"/>
     <use xlink:href="#DejaVuSans-38" x="286.279297"/>
     <use xlink:href="#DejaVuSans-35" x="349.902344"/>
     <use xlink:href="#DejaVuSans-37" x="413.525391"/>
    </g>
   </g>
   <g id="text_51">
    <!-- 368.1297 -->
    <g transform="translate(360.713135 259.410517) scale(0.06 -0.06)">
     <use xlink:href="#DejaVuSans-33"/>
     <use xlink:href="#DejaVuSans-36" x="63.623047"/>
     <use xlink:href="#DejaVuSans-38" x="127.246094"/>
     <use xlink:href="#DejaVuSans-2e" x="190.869141"/>
     <use xlink:href="#DejaVuSans-31" x="222.65625"/>
     <use xlink:href="#DejaVuSans-32" x="286.279297"/>
     <use xlink:href="#DejaVuSans-39" x="349.902344"/>
     <use xlink:href="#DejaVuSans-37" x="413.525391"/>
    </g>
   </g>
   <g id="text_52">
    <!-- 392.165 -->
    <g transform="translate(374.281371 50.939625) scale(0.06 -0.06)">
     <use xlink:href="#DejaVuSans-33"/>
     <use xlink:href="#DejaVuSans-39" x="63.623047"/>
     <use xlink:href="#DejaVuSans-32" x="127.246094"/>
     <use xlink:href="#DejaVuSans-2e" x="190.869141"/>
     <use xlink:href="#DejaVuSans-31" x="222.65625"/>
     <use xlink:href="#DejaVuSans-36" x="286.279297"/>
     <use xlink:href="#DejaVuSans-35" x="349.902344"/>
    </g>
   </g>
   <g id="text_53">
    <!-- 393.1683 -->
    <g transform="translate(386.230313 254.000061) scale(0.06 -0.06)">
     <use xlink:href="#DejaVuSans-33"/>
     <use xlink:href="#DejaVuSans-39" x="63.623047"/>
     <use xlink:href="#DejaVuSans-33" x="127.246094"/>
     <use xlink:href="#DejaVuSans-2e" x="190.869141"/>
     <use xlink:href="#DejaVuSans-31" x="222.65625"/>
     <use xlink:href="#DejaVuSans-36" x="286.279297"/>
     <use xlink:href="#DejaVuSans-38" x="349.902344"/>
     <use xlink:href="#DejaVuSans-33" x="413.525391"/>
    </g>
   </g>
   <g id="text_54">
    <!-- 410.1757 -->
    <g transform="translate(386.230313 169.034127) scale(0.06 -0.06)">
     <use xlink:href="#DejaVuSans-34"/>
     <use xlink:href="#DejaVuSans-31" x="63.623047"/>
     <use xlink:href="#DejaVuSans-30" x="127.246094"/>
     <use xlink:href="#DejaVuSans-2e" x="190.869141"/>
     <use xlink:href="#DejaVuSans-31" x="222.65625"/>
     <use xlink:href="#DejaVuSans-37" x="286.279297"/>
     <use xlink:href="#DejaVuSans-35" x="349.902344"/>
     <use xlink:href="#DejaVuSans-37" x="413.525391"/>
    </g>
   </g>
   <g id="text_55">
    <!-- 411.1794 -->
    <g transform="translate(386.230313 287.011503) scale(0.06 -0.06)">
     <use xlink:href="#DejaVuSans-34"/>
     <use xlink:href="#DejaVuSans-31" x="63.623047"/>
     <use xlink:href="#DejaVuSans-31" x="127.246094"/>
     <use xlink:href="#DejaVuSans-2e" x="190.869141"/>
     <use xlink:href="#DejaVuSans-31" x="222.65625"/>
     <use xlink:href="#DejaVuSans-37" x="286.279297"/>
     <use xlink:href="#DejaVuSans-39" x="349.902344"/>
     <use xlink:href="#DejaVuSans-34" x="413.525391"/>
    </g>
   </g>
   <g id="text_56">
    <!-- MS2 spectrum of ${m/z}$ 410.1749, scan time 7.45 min. -->
    <g transform="translate(57.6 35.472) scale(0.12 -0.12)">
     <defs>
      <path id="DejaVuSans-4d" d="M 628 4666 
L 1569 4666 
L 2759 1491 
L 3956 4666 
L 4897 4666 
L 4897 0 
L 4281 0 
L 4281 4097 
L 3078 897 
L 2444 897 
L 1241 4097 
L 1241 0 
L 628 0 
L 628 4666 
z
" transform="scale(0.015625)"/>
      <path id="DejaVuSans-53" d="M 3425 4513 
L 3425 3897 
Q 3066 4069 2747 4153 
Q 2428 4238 2131 4238 
Q 1616 4238 1336 4038 
Q 1056 3838 1056 3469 
Q 1056 3159 1242 3001 
Q 1428 2844 1947 2747 
L 2328 2669 
Q 3034 2534 3370 2195 
Q 3706 1856 3706 1288 
Q 3706 609 3251 259 
Q 2797 -91 1919 -91 
Q 1588 -91 1214 -16 
Q 841 59 441 206 
L 441 856 
Q 825 641 1194 531 
Q 1563 422 1919 422 
Q 2459 422 2753 634 
Q 3047 847 3047 1241 
Q 3047 1584 2836 1778 
Q 2625 1972 2144 2069 
L 1759 2144 
Q 1053 2284 737 2584 
Q 422 2884 422 3419 
Q 422 4038 858 4394 
Q 1294 4750 2059 4750 
Q 2388 4750 2728 4690 
Q 3069 4631 3425 4513 
z
" transform="scale(0.015625)"/>
      <path id="DejaVuSans-20" transform="scale(0.015625)"/>
      <path id="DejaVuSans-70" d="M 1159 525 
L 1159 -1331 
L 581 -1331 
L 581 3500 
L 1159 3500 
L 1159 2969 
Q 1341 3281 1617 3432 
Q 1894 3584 2278 3584 
Q 2916 3584 3314 3078 
Q 3713 2572 3713 1747 
Q 3713 922 3314 415 
Q 2916 -91 2278 -91 
Q 1894 -91 1617 61 
Q 1341 213 1159 525 
z
M 3116 1747 
Q 3116 2381 2855 2742 
Q 2594 3103 2138 3103 
Q 1681 3103 1420 2742 
Q 1159 2381 1159 1747 
Q 1159 1113 1420 752 
Q 1681 391 2138 391 
Q 2594 391 2855 752 
Q 3116 1113 3116 1747 
z
" transform="scale(0.015625)"/>
      <path id="DejaVuSans-63" d="M 3122 3366 
L 3122 2828 
Q 2878 2963 2633 3030 
Q 2388 3097 2138 3097 
Q 1578 3097 1268 2742 
Q 959 2388 959 1747 
Q 959 1106 1268 751 
Q 1578 397 2138 397 
Q 2388 397 2633 464 
Q 2878 531 3122 666 
L 3122 134 
Q 2881 22 2623 -34 
Q 2366 -91 2075 -91 
Q 1284 -91 818 406 
Q 353 903 353 1747 
Q 353 2603 823 3093 
Q 1294 3584 2113 3584 
Q 2378 3584 2631 3529 
Q 2884 3475 3122 3366 
z
" transform="scale(0.015625)"/>
      <path id="DejaVuSans-72" d="M 2631 2963 
Q 2534 3019 2420 3045 
Q 2306 3072 2169 3072 
Q 1681 3072 1420 2755 
Q 1159 2438 1159 1844 
L 1159 0 
L 581 0 
L 581 3500 
L 1159 3500 
L 1159 2956 
Q 1341 3275 1631 3429 
Q 1922 3584 2338 3584 
Q 2397 3584 2469 3576 
Q 2541 3569 2628 3553 
L 2631 2963 
z
" transform="scale(0.015625)"/>
      <path id="DejaVuSans-75" d="M 544 1381 
L 544 3500 
L 1119 3500 
L 1119 1403 
Q 1119 906 1312 657 
Q 1506 409 1894 409 
Q 2359 409 2629 706 
Q 2900 1003 2900 1516 
L 2900 3500 
L 3475 3500 
L 3475 0 
L 2900 0 
L 2900 538 
Q 2691 219 2414 64 
Q 2138 -91 1772 -91 
Q 1169 -91 856 284 
Q 544 659 544 1381 
z
M 1991 3584 
L 1991 3584 
z
" transform="scale(0.015625)"/>
      <path id="DejaVuSans-6d" d="M 3328 2828 
Q 3544 3216 3844 3400 
Q 4144 3584 4550 3584 
Q 5097 3584 5394 3201 
Q 5691 2819 5691 2113 
L 5691 0 
L 5113 0 
L 5113 2094 
Q 5113 2597 4934 2840 
Q 4756 3084 4391 3084 
Q 3944 3084 3684 2787 
Q 3425 2491 3425 1978 
L 3425 0 
L 2847 0 
L 2847 2094 
Q 2847 2600 2669 2842 
Q 2491 3084 2119 3084 
Q 1678 3084 1418 2786 
Q 1159 2488 1159 1978 
L 1159 0 
L 581 0 
L 581 3500 
L 1159 3500 
L 1159 2956 
Q 1356 3278 1631 3431 
Q 1906 3584 2284 3584 
Q 2666 3584 2933 3390 
Q 3200 3197 3328 2828 
z
" transform="scale(0.015625)"/>
      <path id="DejaVuSans-6f" d="M 1959 3097 
Q 1497 3097 1228 2736 
Q 959 2375 959 1747 
Q 959 1119 1226 758 
Q 1494 397 1959 397 
Q 2419 397 2687 759 
Q 2956 1122 2956 1747 
Q 2956 2369 2687 2733 
Q 2419 3097 1959 3097 
z
M 1959 3584 
Q 2709 3584 3137 3096 
Q 3566 2609 3566 1747 
Q 3566 888 3137 398 
Q 2709 -91 1959 -91 
Q 1206 -91 779 398 
Q 353 888 353 1747 
Q 353 2609 779 3096 
Q 1206 3584 1959 3584 
z
" transform="scale(0.015625)"/>
      <path id="DejaVuSans-66" d="M 2375 4863 
L 2375 4384 
L 1825 4384 
Q 1516 4384 1395 4259 
Q 1275 4134 1275 3809 
L 1275 3500 
L 2222 3500 
L 2222 3053 
L 1275 3053 
L 1275 0 
L 697 0 
L 697 3053 
L 147 3053 
L 147 3500 
L 697 3500 
L 697 3744 
Q 697 4328 969 4595 
Q 1241 4863 1831 4863 
L 2375 4863 
z
" transform="scale(0.015625)"/>
      <path id="DejaVuSans-2c" d="M 750 794 
L 1409 794 
L 1409 256 
L 897 -744 
L 494 -744 
L 750 256 
L 750 794 
z
" transform="scale(0.015625)"/>
      <path id="DejaVuSans-61" d="M 2194 1759 
Q 1497 1759 1228 1600 
Q 959 1441 959 1056 
Q 959 750 1161 570 
Q 1363 391 1709 391 
Q 2188 391 2477 730 
Q 2766 1069 2766 1631 
L 2766 1759 
L 2194 1759 
z
M 3341 1997 
L 3341 0 
L 2766 0 
L 2766 531 
Q 2569 213 2275 61 
Q 1981 -91 1556 -91 
Q 1019 -91 701 211 
Q 384 513 384 1019 
Q 384 1609 779 1909 
Q 1175 2209 1959 2209 
L 2766 2209 
L 2766 2266 
Q 2766 2663 2505 2880 
Q 2244 3097 1772 3097 
Q 1472 3097 1187 3025 
Q 903 2953 641 2809 
L 641 3341 
Q 956 3463 1253 3523 
Q 1550 3584 1831 3584 
Q 2591 3584 2966 3190 
Q 3341 2797 3341 1997 
z
" transform="scale(0.015625)"/>
     </defs>
     <use xlink:href="#DejaVuSans-4d" transform="translate(0 0.015625)"/>
     <use xlink:href="#DejaVuSans-53" transform="translate(86.279297 0.015625)"/>
     <use xlink:href="#DejaVuSans-32" transform="translate(149.755859 0.015625)"/>
     <use xlink:href="#DejaVuSans-20" transform="translate(213.378906 0.015625)"/>
     <use xlink:href="#DejaVuSans-73" transform="translate(245.166016 0.015625)"/>
     <use xlink:href="#DejaVuSans-70" transform="translate(297.265625 0.015625)"/>
     <use xlink:href="#DejaVuSans-65" transform="translate(360.742188 0.015625)"/>
     <use xlink:href="#DejaVuSans-63" transform="translate(422.265625 0.015625)"/>
     <use xlink:href="#DejaVuSans-74" transform="translate(477.246094 0.015625)"/>
     <use xlink:href="#DejaVuSans-72" transform="translate(516.455078 0.015625)"/>
     <use xlink:href="#DejaVuSans-75" transform="translate(557.568359 0.015625)"/>
     <use xlink:href="#DejaVuSans-6d" transform="translate(620.947266 0.015625)"/>
     <use xlink:href="#DejaVuSans-20" transform="translate(718.359375 0.015625)"/>
     <use xlink:href="#DejaVuSans-6f" transform="translate(750.146484 0.015625)"/>
     <use xlink:href="#DejaVuSans-66" transform="translate(811.328125 0.015625)"/>
     <use xlink:href="#DejaVuSans-20" transform="translate(846.533203 0.015625)"/>
     <use xlink:href="#DejaVuSans-Oblique-6d" transform="translate(878.320312 0.015625)"/>
     <use xlink:href="#DejaVuSans-2f" transform="translate(975.732422 0.015625)"/>
     <use xlink:href="#DejaVuSans-Oblique-7a" transform="translate(1009.423828 0.015625)"/>
     <use xlink:href="#DejaVuSans-20" transform="translate(1061.914062 0.015625)"/>
     <use xlink:href="#DejaVuSans-34" transform="translate(1093.701172 0.015625)"/>
     <use xlink:href="#DejaVuSans-31" transform="translate(1157.324219 0.015625)"/>
     <use xlink:href="#DejaVuSans-30" transform="translate(1220.947266 0.015625)"/>
     <use xlink:href="#DejaVuSans-2e" transform="translate(1284.570312 0.015625)"/>
     <use xlink:href="#DejaVuSans-31" transform="translate(1316.357422 0.015625)"/>
     <use xlink:href="#DejaVuSans-37" transform="translate(1379.980469 0.015625)"/>
     <use xlink:href="#DejaVuSans-34" transform="translate(1443.603516 0.015625)"/>
     <use xlink:href="#DejaVuSans-39" transform="translate(1507.226562 0.015625)"/>
     <use xlink:href="#DejaVuSans-2c" transform="translate(1570.849609 0.015625)"/>
     <use xlink:href="#DejaVuSans-20" transform="translate(1602.636719 0.015625)"/>
     <use xlink:href="#DejaVuSans-73" transform="translate(1634.423828 0.015625)"/>
     <use xlink:href="#DejaVuSans-63" transform="translate(1686.523438 0.015625)"/>
     <use xlink:href="#DejaVuSans-61" transform="translate(1741.503906 0.015625)"/>
     <use xlink:href="#DejaVuSans-6e" transform="translate(1802.783203 0.015625)"/>
     <use xlink:href="#DejaVuSans-20" transform="translate(1866.162109 0.015625)"/>
     <use xlink:href="#DejaVuSans-74" transform="translate(1897.949219 0.015625)"/>
     <use xlink:href="#DejaVuSans-69" transform="translate(1937.158203 0.015625)"/>
     <use xlink:href="#DejaVuSans-6d" transform="translate(1964.941406 0.015625)"/>
     <use xlink:href="#DejaVuSans-65" transform="translate(2062.353516 0.015625)"/>
     <use xlink:href="#DejaVuSans-20" transform="translate(2123.876953 0.015625)"/>
     <use xlink:href="#DejaVuSans-37" transform="translate(2155.664062 0.015625)"/>
     <use xlink:href="#DejaVuSans-2e" transform="translate(2219.287109 0.015625)"/>
     <use xlink:href="#DejaVuSans-34" transform="translate(2251.074219 0.015625)"/>
     <use xlink:href="#DejaVuSans-35" transform="translate(2314.697266 0.015625)"/>
     <use xlink:href="#DejaVuSans-20" transform="translate(2378.320312 0.015625)"/>
     <use xlink:href="#DejaVuSans-6d" transform="translate(2410.107422 0.015625)"/>
     <use xlink:href="#DejaVuSans-69" transform="translate(2507.519531 0.015625)"/>
     <use xlink:href="#DejaVuSans-6e" transform="translate(2535.302734 0.015625)"/>
     <use xlink:href="#DejaVuSans-2e" transform="translate(2598.681641 0.015625)"/>
    </g>
   </g>
  </g>
 </g>
 <defs>
  <clipPath id="p60aef5e852">
   <rect x="57.6" y="41.472" width="357.12" height="266.112"/>
  </clipPath>
 </defs>
</svg>
