<?xml version="1.0" encoding="utf-8" standalone="no"?>
<!DOCTYPE svg PUBLIC "-//W3C//DTD SVG 1.1//EN"
  "http://www.w3.org/Graphics/SVG/1.1/DTD/svg11.dtd">
<svg xmlns:xlink="http://www.w3.org/1999/xlink" width="460.8pt" height="345.6pt" viewBox="0 0 460.8 345.6" xmlns="http://www.w3.org/2000/svg" version="1.1">
 <metadata>
  <rdf:RDF xmlns:dc="http://purl.org/dc/elements/1.1/" xmlns:cc="http://creativecommons.org/ns#" xmlns:rdf="http://www.w3.org/1999/02/22-rdf-syntax-ns#">
   <cc:Work>
    <dc:type rdf:resource="http://purl.org/dc/dcmitype/StillImage"/>
    <dc:date>2025-01-11T12:52:29.460332</dc:date>
    <dc:format>image/svg+xml</dc:format>
    <dc:creator>
     <cc:Agent>
      <dc:title>Matplotlib v3.7.3, https://matplotlib.org/</dc:title>
     </cc:Agent>
    </dc:creator>
   </cc:Work>
  </rdf:RDF>
 </metadata>
 <defs>
  <style type="text/css">*{stroke-linejoin: round; stroke-linecap: butt}</style>
 </defs>
 <g id="figure_1">
  <g id="patch_1">
   <path d="M 0 345.6 
L 460.8 345.6 
L 460.8 0 
L 0 0 
z
" style="fill: #ffffff"/>
  </g>
  <g id="axes_1">
   <g id="patch_2">
    <path d="M 57.6 307.584 
L 414.72 307.584 
L 414.72 41.472 
L 57.6 41.472 
z
" style="fill: #ffffff"/>
   </g>
   <g id="patch_3">
    <path d="M 73.832727 307.584 
L 74.556312 307.584 
L 74.556312 304.614584 
L 73.832727 304.614584 
z
" clip-path="url(#pee31ca4d1c)" style="fill: #1f77b4"/>
   </g>
   <g id="patch_4">
    <path d="M 81.50425 307.584 
L 82.227835 307.584 
L 82.227835 306.266322 
L 81.50425 306.266322 
z
" clip-path="url(#pee31ca4d1c)" style="fill: #1f77b4"/>
   </g>
   <g id="patch_5">
    <path d="M 86.541375 307.584 
L 87.26496 307.584 
L 87.26496 306.115482 
L 86.541375 306.115482 
z
" clip-path="url(#pee31ca4d1c)" style="fill: #1f77b4"/>
   </g>
   <g id="patch_6">
    <path d="M 90.064126 307.584 
L 90.787711 307.584 
L 90.787711 306.003802 
L 90.064126 306.003802 
z
" clip-path="url(#pee31ca4d1c)" style="fill: #1f77b4"/>
   </g>
   <g id="patch_7">
    <path d="M 90.084711 307.584 
L 90.808296 307.584 
L 90.808296 305.892241 
L 90.084711 305.892241 
z
" clip-path="url(#pee31ca4d1c)" style="fill: #1f77b4"/>
   </g>
   <g id="patch_8">
    <path d="M 90.090011 307.584 
L 90.813596 307.584 
L 90.813596 198.410986 
L 90.090011 198.410986 
z
" clip-path="url(#pee31ca4d1c)" style="fill: #1f77b4"/>
   </g>
   <g id="patch_9">
    <path d="M 90.093778 307.584 
L 90.817363 307.584 
L 90.817363 304.755587 
L 90.093778 304.755587 
z
" clip-path="url(#pee31ca4d1c)" style="fill: #1f77b4"/>
   </g>
   <g id="patch_10">
    <path d="M 90.997183 307.584 
L 91.720768 307.584 
L 91.720768 305.642985 
L 90.997183 305.642985 
z
" clip-path="url(#pee31ca4d1c)" style="fill: #1f77b4"/>
   </g>
   <g id="patch_11">
    <path d="M 93.231957 307.584 
L 93.955542 307.584 
L 93.955542 306.387911 
L 93.231957 306.387911 
z
" clip-path="url(#pee31ca4d1c)" style="fill: #1f77b4"/>
   </g>
   <g id="patch_12">
    <path d="M 97.363221 307.584 
L 98.086806 307.584 
L 98.086806 305.068639 
L 97.363221 305.068639 
z
" clip-path="url(#pee31ca4d1c)" style="fill: #1f77b4"/>
   </g>
   <g id="patch_13">
    <path d="M 99.149425 307.584 
L 99.87301 307.584 
L 99.87301 305.368253 
L 99.149425 305.368253 
z
" clip-path="url(#pee31ca4d1c)" style="fill: #1f77b4"/>
   </g>
   <g id="patch_14">
    <path d="M 99.153476 307.584 
L 99.877061 307.584 
L 99.877061 258.869027 
L 99.153476 258.869027 
z
" clip-path="url(#pee31ca4d1c)" style="fill: #1f77b4"/>
   </g>
   <g id="patch_15">
    <path d="M 105.55835 307.584 
L 106.281935 307.584 
L 106.281935 306.075828 
L 105.55835 306.075828 
z
" clip-path="url(#pee31ca4d1c)" style="fill: #1f77b4"/>
   </g>
   <g id="patch_16">
    <path d="M 106.380058 307.584 
L 107.103643 307.584 
L 107.103643 226.860627 
L 106.380058 226.860627 
z
" clip-path="url(#pee31ca4d1c)" style="fill: #1f77b4"/>
   </g>
   <g id="patch_17">
    <path d="M 106.390237 307.584 
L 107.113822 307.584 
L 107.113822 306.175576 
L 106.390237 306.175576 
z
" clip-path="url(#pee31ca4d1c)" style="fill: #1f77b4"/>
   </g>
   <g id="patch_18">
    <path d="M 107.628751 307.584 
L 108.352336 307.584 
L 108.352336 306.049842 
L 107.628751 306.049842 
z
" clip-path="url(#pee31ca4d1c)" style="fill: #1f77b4"/>
   </g>
   <g id="patch_19">
    <path d="M 108.621132 307.584 
L 109.344717 307.584 
L 109.344717 306.029317 
L 108.621132 306.029317 
z
" clip-path="url(#pee31ca4d1c)" style="fill: #1f77b4"/>
   </g>
   <g id="patch_20">
    <path d="M 110.438224 307.584 
L 111.161809 307.584 
L 111.161809 306.207514 
L 110.438224 306.207514 
z
" clip-path="url(#pee31ca4d1c)" style="fill: #1f77b4"/>
   </g>
   <g id="patch_21">
    <path d="M 111.86282 307.584 
L 112.586405 307.584 
L 112.586405 305.490148 
L 111.86282 305.490148 
z
" clip-path="url(#pee31ca4d1c)" style="fill: #1f77b4"/>
   </g>
   <g id="patch_22">
    <path d="M 113.653462 307.584 
L 114.377047 307.584 
L 114.377047 300.636306 
L 113.653462 300.636306 
z
" clip-path="url(#pee31ca4d1c)" style="fill: #1f77b4"/>
   </g>
   <g id="patch_23">
    <path d="M 115.476136 307.584 
L 116.199721 307.584 
L 116.199721 302.844361 
L 115.476136 302.844361 
z
" clip-path="url(#pee31ca4d1c)" style="fill: #1f77b4"/>
   </g>
   <g id="patch_24">
    <path d="M 124.488771 307.584 
L 125.212356 307.584 
L 125.212356 303.02377 
L 124.488771 303.02377 
z
" clip-path="url(#pee31ca4d1c)" style="fill: #1f77b4"/>
   </g>
   <g id="patch_25">
    <path d="M 126.297029 307.584 
L 127.020614 307.584 
L 127.020614 304.749958 
L 126.297029 304.749958 
z
" clip-path="url(#pee31ca4d1c)" style="fill: #1f77b4"/>
   </g>
   <g id="patch_26">
    <path d="M 129.789583 307.584 
L 130.513169 307.584 
L 130.513169 305.926192 
L 129.789583 305.926192 
z
" clip-path="url(#pee31ca4d1c)" style="fill: #1f77b4"/>
   </g>
   <g id="patch_27">
    <path d="M 136.242652 307.584 
L 136.966237 307.584 
L 136.966237 291.689209 
L 136.242652 291.689209 
z
" clip-path="url(#pee31ca4d1c)" style="fill: #1f77b4"/>
   </g>
   <g id="patch_28">
    <path d="M 137.150639 307.584 
L 137.874224 307.584 
L 137.874224 302.798433 
L 137.150639 302.798433 
z
" clip-path="url(#pee31ca4d1c)" style="fill: #1f77b4"/>
   </g>
   <g id="patch_29">
    <path d="M 144.423877 307.584 
L 145.147462 307.584 
L 145.147462 304.503698 
L 144.423877 304.503698 
z
" clip-path="url(#pee31ca4d1c)" style="fill: #1f77b4"/>
   </g>
   <g id="patch_30">
    <path d="M 153.440797 307.584 
L 154.164382 307.584 
L 154.164382 287.79031 
L 153.440797 287.79031 
z
" clip-path="url(#pee31ca4d1c)" style="fill: #1f77b4"/>
   </g>
   <g id="patch_31">
    <path d="M 157.968448 307.584 
L 158.692033 307.584 
L 158.692033 305.925344 
L 157.968448 305.925344 
z
" clip-path="url(#pee31ca4d1c)" style="fill: #1f77b4"/>
   </g>
   <g id="patch_32">
    <path d="M 168.832988 307.584 
L 169.556573 307.584 
L 169.556573 306.120548 
L 168.832988 306.120548 
z
" clip-path="url(#pee31ca4d1c)" style="fill: #1f77b4"/>
   </g>
   <g id="patch_33">
    <path d="M 169.744756 307.584 
L 170.468341 307.584 
L 170.468341 301.522139 
L 169.744756 301.522139 
z
" clip-path="url(#pee31ca4d1c)" style="fill: #1f77b4"/>
   </g>
   <g id="patch_34">
    <path d="M 172.467847 307.584 
L 173.191432 307.584 
L 173.191432 305.005417 
L 172.467847 305.005417 
z
" clip-path="url(#pee31ca4d1c)" style="fill: #1f77b4"/>
   </g>
   <g id="patch_35">
    <path d="M 179.675432 307.584 
L 180.399017 307.584 
L 180.399017 305.533209 
L 179.675432 305.533209 
z
" clip-path="url(#pee31ca4d1c)" style="fill: #1f77b4"/>
   </g>
   <g id="patch_36">
    <path d="M 191.439347 307.584 
L 192.162932 307.584 
L 192.162932 305.861751 
L 191.439347 305.861751 
z
" clip-path="url(#pee31ca4d1c)" style="fill: #1f77b4"/>
   </g>
   <g id="patch_37">
    <path d="M 192.35244 307.584 
L 193.076025 307.584 
L 193.076025 285.406869 
L 192.35244 285.406869 
z
" clip-path="url(#pee31ca4d1c)" style="fill: #1f77b4"/>
   </g>
   <g id="patch_38">
    <path d="M 194.157442 307.584 
L 194.881027 307.584 
L 194.881027 300.786272 
L 194.157442 300.786272 
z
" clip-path="url(#pee31ca4d1c)" style="fill: #1f77b4"/>
   </g>
   <g id="patch_39">
    <path d="M 203.205608 307.584 
L 203.929193 307.584 
L 203.929193 305.941653 
L 203.205608 305.941653 
z
" clip-path="url(#pee31ca4d1c)" style="fill: #1f77b4"/>
   </g>
   <g id="patch_40">
    <path d="M 216.775643 307.584 
L 217.499228 307.584 
L 217.499228 305.37332 
L 216.775643 305.37332 
z
" clip-path="url(#pee31ca4d1c)" style="fill: #1f77b4"/>
   </g>
   <g id="patch_41">
    <path d="M 217.688308 307.584 
L 218.411893 307.584 
L 218.411893 305.915517 
L 217.688308 305.915517 
z
" clip-path="url(#pee31ca4d1c)" style="fill: #1f77b4"/>
   </g>
   <g id="patch_42">
    <path d="M 226.717967 307.584 
L 227.441552 307.584 
L 227.441552 303.788805 
L 226.717967 303.788805 
z
" clip-path="url(#pee31ca4d1c)" style="fill: #1f77b4"/>
   </g>
   <g id="patch_43">
    <path d="M 228.542566 307.584 
L 229.266151 307.584 
L 229.266151 304.087125 
L 228.542566 304.087125 
z
" clip-path="url(#pee31ca4d1c)" style="fill: #1f77b4"/>
   </g>
   <g id="patch_44">
    <path d="M 230.332248 307.584 
L 231.055833 307.584 
L 231.055833 305.013988 
L 230.332248 305.013988 
z
" clip-path="url(#pee31ca4d1c)" style="fill: #1f77b4"/>
   </g>
   <g id="patch_45">
    <path d="M 230.38301 307.584 
L 231.106595 307.584 
L 231.106595 285.487992 
L 230.38301 285.487992 
z
" clip-path="url(#pee31ca4d1c)" style="fill: #1f77b4"/>
   </g>
   <g id="patch_46">
    <path d="M 231.243492 307.584 
L 231.967077 307.584 
L 231.967077 231.571068 
L 231.243492 231.571068 
z
" clip-path="url(#pee31ca4d1c)" style="fill: #1f77b4"/>
   </g>
   <g id="patch_47">
    <path d="M 231.264498 307.584 
L 231.988083 307.584 
L 231.988083 304.825885 
L 231.264498 304.825885 
z
" clip-path="url(#pee31ca4d1c)" style="fill: #1f77b4"/>
   </g>
   <g id="patch_48">
    <path d="M 232.154571 307.584 
L 232.878156 307.584 
L 232.878156 278.253016 
L 232.154571 278.253016 
z
" clip-path="url(#pee31ca4d1c)" style="fill: #1f77b4"/>
   </g>
   <g id="patch_49">
    <path d="M 237.570417 307.584 
L 238.294002 307.584 
L 238.294002 305.690348 
L 237.570417 305.690348 
z
" clip-path="url(#pee31ca4d1c)" style="fill: #1f77b4"/>
   </g>
   <g id="patch_50">
    <path d="M 238.482061 307.584 
L 239.205646 307.584 
L 239.205646 305.243612 
L 238.482061 305.243612 
z
" clip-path="url(#pee31ca4d1c)" style="fill: #1f77b4"/>
   </g>
   <g id="patch_51">
    <path d="M 240.306536 307.584 
L 241.030122 307.584 
L 241.030122 305.515005 
L 240.306536 305.515005 
z
" clip-path="url(#pee31ca4d1c)" style="fill: #1f77b4"/>
   </g>
   <g id="patch_52">
    <path d="M 241.185748 307.584 
L 241.909333 307.584 
L 241.909333 285.392258 
L 241.185748 285.392258 
z
" clip-path="url(#pee31ca4d1c)" style="fill: #1f77b4"/>
   </g>
   <g id="patch_53">
    <path d="M 242.094963 307.584 
L 242.818548 307.584 
L 242.818548 299.958001 
L 242.094963 299.958001 
z
" clip-path="url(#pee31ca4d1c)" style="fill: #1f77b4"/>
   </g>
   <g id="patch_54">
    <path d="M 243.008691 307.584 
L 243.732276 307.584 
L 243.732276 272.272497 
L 243.008691 272.272497 
z
" clip-path="url(#pee31ca4d1c)" style="fill: #1f77b4"/>
   </g>
   <g id="patch_55">
    <path d="M 243.917202 307.584 
L 244.640787 307.584 
L 244.640787 305.76234 
L 243.917202 305.76234 
z
" clip-path="url(#pee31ca4d1c)" style="fill: #1f77b4"/>
   </g>
   <g id="patch_56">
    <path d="M 244.831731 307.584 
L 245.555316 307.584 
L 245.555316 305.959648 
L 244.831731 305.959648 
z
" clip-path="url(#pee31ca4d1c)" style="fill: #1f77b4"/>
   </g>
   <g id="patch_57">
    <path d="M 250.228849 307.584 
L 250.952434 307.584 
L 250.952434 305.561693 
L 250.228849 305.561693 
z
" clip-path="url(#pee31ca4d1c)" style="fill: #1f77b4"/>
   </g>
   <g id="patch_58">
    <path d="M 250.249399 307.584 
L 250.972984 307.584 
L 250.972984 300.828511 
L 250.249399 300.828511 
z
" clip-path="url(#pee31ca4d1c)" style="fill: #1f77b4"/>
   </g>
   <g id="patch_59">
    <path d="M 252.07266 307.584 
L 252.796245 307.584 
L 252.796245 305.182085 
L 252.07266 305.182085 
z
" clip-path="url(#pee31ca4d1c)" style="fill: #1f77b4"/>
   </g>
   <g id="patch_60">
    <path d="M 252.951043 307.584 
L 253.674628 307.584 
L 253.674628 230.307728 
L 252.951043 230.307728 
z
" clip-path="url(#pee31ca4d1c)" style="fill: #1f77b4"/>
   </g>
   <g id="patch_61">
    <path d="M 253.862369 307.584 
L 254.585954 307.584 
L 254.585954 268.083286 
L 253.862369 268.083286 
z
" clip-path="url(#pee31ca4d1c)" style="fill: #1f77b4"/>
   </g>
   <g id="patch_62">
    <path d="M 253.890607 307.584 
L 254.614192 307.584 
L 254.614192 304.886607 
L 253.890607 304.886607 
z
" clip-path="url(#pee31ca4d1c)" style="fill: #1f77b4"/>
   </g>
   <g id="patch_63">
    <path d="M 254.771322 307.584 
L 255.494907 307.584 
L 255.494907 301.470719 
L 254.771322 301.470719 
z
" clip-path="url(#pee31ca4d1c)" style="fill: #1f77b4"/>
   </g>
   <g id="patch_64">
    <path d="M 255.687617 307.584 
L 256.411202 307.584 
L 256.411202 292.815388 
L 255.687617 292.815388 
z
" clip-path="url(#pee31ca4d1c)" style="fill: #1f77b4"/>
   </g>
   <g id="patch_65">
    <path d="M 256.593506 307.584 
L 257.317091 307.584 
L 257.317091 305.511288 
L 256.593506 305.511288 
z
" clip-path="url(#pee31ca4d1c)" style="fill: #1f77b4"/>
   </g>
   <g id="patch_66">
    <path d="M 257.475685 307.584 
L 258.19927 307.584 
L 258.19927 304.608839 
L 257.475685 304.608839 
z
" clip-path="url(#pee31ca4d1c)" style="fill: #1f77b4"/>
   </g>
   <g id="patch_67">
    <path d="M 261.101835 307.584 
L 261.82542 307.584 
L 261.82542 305.434781 
L 261.101835 305.434781 
z
" clip-path="url(#pee31ca4d1c)" style="fill: #1f77b4"/>
   </g>
   <g id="patch_68">
    <path d="M 262.014515 307.584 
L 262.7381 307.584 
L 262.7381 304.962711 
L 262.014515 304.962711 
z
" clip-path="url(#pee31ca4d1c)" style="fill: #1f77b4"/>
   </g>
   <g id="patch_69">
    <path d="M 262.901772 307.584 
L 263.625357 307.584 
L 263.625357 305.98328 
L 262.901772 305.98328 
z
" clip-path="url(#pee31ca4d1c)" style="fill: #1f77b4"/>
   </g>
   <g id="patch_70">
    <path d="M 262.926614 307.584 
L 263.650199 307.584 
L 263.650199 298.88828 
L 262.926614 298.88828 
z
" clip-path="url(#pee31ca4d1c)" style="fill: #1f77b4"/>
   </g>
   <g id="patch_71">
    <path d="M 263.804763 307.584 
L 264.528348 307.584 
L 264.528348 305.436193 
L 263.804763 305.436193 
z
" clip-path="url(#pee31ca4d1c)" style="fill: #1f77b4"/>
   </g>
   <g id="patch_72">
    <path d="M 264.716476 307.584 
L 265.440061 307.584 
L 265.440061 125.667117 
L 264.716476 125.667117 
z
" clip-path="url(#pee31ca4d1c)" style="fill: #1f77b4"/>
   </g>
   <g id="patch_73">
    <path d="M 265.626478 307.584 
L 266.350063 307.584 
L 266.350063 263.949679 
L 265.626478 263.949679 
z
" clip-path="url(#pee31ca4d1c)" style="fill: #1f77b4"/>
   </g>
   <g id="patch_74">
    <path d="M 266.539488 307.584 
L 267.263073 307.584 
L 267.263073 243.232493 
L 266.539488 243.232493 
z
" clip-path="url(#pee31ca4d1c)" style="fill: #1f77b4"/>
   </g>
   <g id="patch_75">
    <path d="M 267.4488 307.584 
L 268.172385 307.584 
L 268.172385 299.875789 
L 267.4488 299.875789 
z
" clip-path="url(#pee31ca4d1c)" style="fill: #1f77b4"/>
   </g>
   <g id="patch_76">
    <path d="M 268.363687 307.584 
L 269.087272 307.584 
L 269.087272 305.205959 
L 268.363687 305.205959 
z
" clip-path="url(#pee31ca4d1c)" style="fill: #1f77b4"/>
   </g>
   <g id="patch_77">
    <path d="M 269.24719 307.584 
L 269.970775 307.584 
L 269.970775 305.161271 
L 269.24719 305.161271 
z
" clip-path="url(#pee31ca4d1c)" style="fill: #1f77b4"/>
   </g>
   <g id="patch_78">
    <path d="M 269.274213 307.584 
L 269.997798 307.584 
L 269.997798 193.70305 
L 269.274213 193.70305 
z
" clip-path="url(#pee31ca4d1c)" style="fill: #1f77b4"/>
   </g>
   <g id="patch_79">
    <path d="M 270.152141 307.584 
L 270.875726 307.584 
L 270.875726 298.425762 
L 270.152141 298.425762 
z
" clip-path="url(#pee31ca4d1c)" style="fill: #1f77b4"/>
   </g>
   <g id="patch_80">
    <path d="M 270.184795 307.584 
L 270.90838 307.584 
L 270.90838 263.931687 
L 270.184795 263.931687 
z
" clip-path="url(#pee31ca4d1c)" style="fill: #1f77b4"/>
   </g>
   <g id="patch_81">
    <path d="M 271.064875 307.584 
L 271.78846 307.584 
L 271.78846 305.965503 
L 271.064875 305.965503 
z
" clip-path="url(#pee31ca4d1c)" style="fill: #1f77b4"/>
   </g>
   <g id="patch_82">
    <path d="M 271.09303 307.584 
L 271.816615 307.584 
L 271.816615 302.162041 
L 271.09303 302.162041 
z
" clip-path="url(#pee31ca4d1c)" style="fill: #1f77b4"/>
   </g>
   <g id="patch_83">
    <path d="M 271.956163 307.584 
L 272.679748 307.584 
L 272.679748 304.618828 
L 271.956163 304.618828 
z
" clip-path="url(#pee31ca4d1c)" style="fill: #1f77b4"/>
   </g>
   <g id="patch_84">
    <path d="M 274.658676 307.584 
L 275.382261 307.584 
L 275.382261 303.799077 
L 274.658676 303.799077 
z
" clip-path="url(#pee31ca4d1c)" style="fill: #1f77b4"/>
   </g>
   <g id="patch_85">
    <path d="M 275.570361 307.584 
L 276.293946 307.584 
L 276.293946 299.444005 
L 275.570361 299.444005 
z
" clip-path="url(#pee31ca4d1c)" style="fill: #1f77b4"/>
   </g>
   <g id="patch_86">
    <path d="M 275.602656 307.584 
L 276.326241 307.584 
L 276.326241 305.099709 
L 275.602656 305.099709 
z
" clip-path="url(#pee31ca4d1c)" style="fill: #1f77b4"/>
   </g>
   <g id="patch_87">
    <path d="M 276.481495 307.584 
L 277.20508 307.584 
L 277.20508 286.4578 
L 276.481495 286.4578 
z
" clip-path="url(#pee31ca4d1c)" style="fill: #1f77b4"/>
   </g>
   <g id="patch_88">
    <path d="M 277.352549 307.584 
L 278.076134 307.584 
L 278.076134 305.524106 
L 277.352549 305.524106 
z
" clip-path="url(#pee31ca4d1c)" style="fill: #1f77b4"/>
   </g>
   <g id="patch_89">
    <path d="M 277.393374 307.584 
L 278.116959 307.584 
L 278.116959 191.693177 
L 277.393374 191.693177 
z
" clip-path="url(#pee31ca4d1c)" style="fill: #1f77b4"/>
   </g>
   <g id="patch_90">
    <path d="M 277.422798 307.584 
L 278.146383 307.584 
L 278.146383 305.388631 
L 277.422798 305.388631 
z
" clip-path="url(#pee31ca4d1c)" style="fill: #1f77b4"/>
   </g>
   <g id="patch_91">
    <path d="M 278.303513 307.584 
L 279.027098 307.584 
L 279.027098 272.42171 
L 278.303513 272.42171 
z
" clip-path="url(#pee31ca4d1c)" style="fill: #1f77b4"/>
   </g>
   <g id="patch_92">
    <path d="M 279.216441 307.584 
L 279.940026 307.584 
L 279.940026 156.429391 
L 279.216441 156.429391 
z
" clip-path="url(#pee31ca4d1c)" style="fill: #1f77b4"/>
   </g>
   <g id="patch_93">
    <path d="M 280.124511 307.584 
L 280.848096 307.584 
L 280.848096 285.976971 
L 280.124511 285.976971 
z
" clip-path="url(#pee31ca4d1c)" style="fill: #1f77b4"/>
   </g>
   <g id="patch_94">
    <path d="M 281.039122 307.584 
L 281.762707 307.584 
L 281.762707 286.89096 
L 281.039122 286.89096 
z
" clip-path="url(#pee31ca4d1c)" style="fill: #1f77b4"/>
   </g>
   <g id="patch_95">
    <path d="M 281.946584 307.584 
L 282.670169 307.584 
L 282.670169 304.758541 
L 281.946584 304.758541 
z
" clip-path="url(#pee31ca4d1c)" style="fill: #1f77b4"/>
   </g>
   <g id="patch_96">
    <path d="M 282.829756 307.584 
L 283.553341 307.584 
L 283.553341 305.438381 
L 282.829756 305.438381 
z
" clip-path="url(#pee31ca4d1c)" style="fill: #1f77b4"/>
   </g>
   <g id="patch_97">
    <path d="M 284.634468 307.584 
L 285.358053 307.584 
L 285.358053 305.872618 
L 284.634468 305.872618 
z
" clip-path="url(#pee31ca4d1c)" style="fill: #1f77b4"/>
   </g>
   <g id="patch_98">
    <path d="M 286.42513 307.584 
L 287.148715 307.584 
L 287.148715 297.096942 
L 286.42513 297.096942 
z
" clip-path="url(#pee31ca4d1c)" style="fill: #1f77b4"/>
   </g>
   <g id="patch_99">
    <path d="M 287.335215 307.584 
L 288.0588 307.584 
L 288.0588 286.079837 
L 287.335215 286.079837 
z
" clip-path="url(#pee31ca4d1c)" style="fill: #1f77b4"/>
   </g>
   <g id="patch_100">
    <path d="M 288.247066 307.584 
L 288.970651 307.584 
L 288.970651 165.071043 
L 288.247066 165.071043 
z
" clip-path="url(#pee31ca4d1c)" style="fill: #1f77b4"/>
   </g>
   <g id="patch_101">
    <path d="M 289.156764 307.584 
L 289.880349 307.584 
L 289.880349 272.04185 
L 289.156764 272.04185 
z
" clip-path="url(#pee31ca4d1c)" style="fill: #1f77b4"/>
   </g>
   <g id="patch_102">
    <path d="M 290.069526 307.584 
L 290.793111 307.584 
L 290.793111 290.777701 
L 290.069526 290.777701 
z
" clip-path="url(#pee31ca4d1c)" style="fill: #1f77b4"/>
   </g>
   <g id="patch_103">
    <path d="M 290.981736 307.584 
L 291.705321 307.584 
L 291.705321 261.912744 
L 290.981736 261.912744 
z
" clip-path="url(#pee31ca4d1c)" style="fill: #1f77b4"/>
   </g>
   <g id="patch_104">
    <path d="M 291.892483 307.584 
L 292.616068 307.584 
L 292.616068 289.513963 
L 291.892483 289.513963 
z
" clip-path="url(#pee31ca4d1c)" style="fill: #1f77b4"/>
   </g>
   <g id="patch_105">
    <path d="M 299.10189 307.584 
L 299.825475 307.584 
L 299.825475 305.085056 
L 299.10189 305.085056 
z
" clip-path="url(#pee31ca4d1c)" style="fill: #1f77b4"/>
   </g>
   <g id="patch_106">
    <path d="M 300.012361 307.584 
L 300.735946 307.584 
L 300.735946 302.366021 
L 300.012361 302.366021 
z
" clip-path="url(#pee31ca4d1c)" style="fill: #1f77b4"/>
   </g>
   <g id="patch_107">
    <path d="M 300.894236 307.584 
L 301.617821 307.584 
L 301.617821 305.411787 
L 300.894236 305.411787 
z
" clip-path="url(#pee31ca4d1c)" style="fill: #1f77b4"/>
   </g>
   <g id="patch_108">
    <path d="M 300.923771 307.584 
L 301.647356 307.584 
L 301.647356 249.32019 
L 300.923771 249.32019 
z
" clip-path="url(#pee31ca4d1c)" style="fill: #1f77b4"/>
   </g>
   <g id="patch_109">
    <path d="M 300.955624 307.584 
L 301.679209 307.584 
L 301.679209 304.024479 
L 300.955624 304.024479 
z
" clip-path="url(#pee31ca4d1c)" style="fill: #1f77b4"/>
   </g>
   <g id="patch_110">
    <path d="M 301.833165 307.584 
L 302.55675 307.584 
L 302.55675 299.373732 
L 301.833165 299.373732 
z
" clip-path="url(#pee31ca4d1c)" style="fill: #1f77b4"/>
   </g>
   <g id="patch_111">
    <path d="M 302.747086 307.584 
L 303.470671 307.584 
L 303.470671 81.546943 
L 302.747086 81.546943 
z
" clip-path="url(#pee31ca4d1c)" style="fill: #1f77b4"/>
   </g>
   <g id="patch_112">
    <path d="M 303.654797 307.584 
L 304.378382 307.584 
L 304.378382 273.529582 
L 303.654797 273.529582 
z
" clip-path="url(#pee31ca4d1c)" style="fill: #1f77b4"/>
   </g>
   <g id="patch_113">
    <path d="M 304.537031 307.584 
L 305.260616 307.584 
L 305.260616 297.804207 
L 304.537031 297.804207 
z
" clip-path="url(#pee31ca4d1c)" style="fill: #1f77b4"/>
   </g>
   <g id="patch_114">
    <path d="M 304.570099 307.584 
L 305.293684 307.584 
L 305.293684 285.671116 
L 304.570099 285.671116 
z
" clip-path="url(#pee31ca4d1c)" style="fill: #1f77b4"/>
   </g>
   <g id="patch_115">
    <path d="M 305.477533 307.584 
L 306.201118 307.584 
L 306.201118 303.623377 
L 305.477533 303.623377 
z
" clip-path="url(#pee31ca4d1c)" style="fill: #1f77b4"/>
   </g>
   <g id="patch_116">
    <path d="M 309.953843 307.584 
L 310.677428 307.584 
L 310.677428 306.007862 
L 309.953843 306.007862 
z
" clip-path="url(#pee31ca4d1c)" style="fill: #1f77b4"/>
   </g>
   <g id="patch_117">
    <path d="M 313.600171 307.584 
L 314.323756 307.584 
L 314.323756 305.273579 
L 313.600171 305.273579 
z
" clip-path="url(#pee31ca4d1c)" style="fill: #1f77b4"/>
   </g>
   <g id="patch_118">
    <path d="M 314.511388 307.584 
L 315.234973 307.584 
L 315.234973 303.314981 
L 314.511388 303.314981 
z
" clip-path="url(#pee31ca4d1c)" style="fill: #1f77b4"/>
   </g>
   <g id="patch_119">
    <path d="M 315.423984 307.584 
L 316.147569 307.584 
L 316.147569 288.435866 
L 315.423984 288.435866 
z
" clip-path="url(#pee31ca4d1c)" style="fill: #1f77b4"/>
   </g>
   <g id="patch_120">
    <path d="M 316.33498 307.584 
L 317.058565 307.584 
L 317.058565 282.927814 
L 316.33498 282.927814 
z
" clip-path="url(#pee31ca4d1c)" style="fill: #1f77b4"/>
   </g>
   <g id="patch_121">
    <path d="M 317.247024 307.584 
L 317.970609 307.584 
L 317.970609 149.718232 
L 317.247024 149.718232 
z
" clip-path="url(#pee31ca4d1c)" style="fill: #1f77b4"/>
   </g>
   <g id="patch_122">
    <path d="M 317.318736 307.584 
L 318.042321 307.584 
L 318.042321 305.740267 
L 317.318736 305.740267 
z
" clip-path="url(#pee31ca4d1c)" style="fill: #1f77b4"/>
   </g>
   <g id="patch_123">
    <path d="M 318.124124 307.584 
L 318.847709 307.584 
L 318.847709 300.466644 
L 318.124124 300.466644 
z
" clip-path="url(#pee31ca4d1c)" style="fill: #1f77b4"/>
   </g>
   <g id="patch_124">
    <path d="M 318.154818 307.584 
L 318.878403 307.584 
L 318.878403 282.376948 
L 318.154818 282.376948 
z
" clip-path="url(#pee31ca4d1c)" style="fill: #1f77b4"/>
   </g>
   <g id="patch_125">
    <path d="M 319.037244 307.584 
L 319.760829 307.584 
L 319.760829 290.704674 
L 319.037244 290.704674 
z
" clip-path="url(#pee31ca4d1c)" style="fill: #1f77b4"/>
   </g>
   <g id="patch_126">
    <path d="M 319.944569 307.584 
L 320.668154 307.584 
L 320.668154 305.542432 
L 319.944569 305.542432 
z
" clip-path="url(#pee31ca4d1c)" style="fill: #1f77b4"/>
   </g>
   <g id="patch_127">
    <path d="M 324.454609 307.584 
L 325.178194 307.584 
L 325.178194 304.514736 
L 324.454609 304.514736 
z
" clip-path="url(#pee31ca4d1c)" style="fill: #1f77b4"/>
   </g>
   <g id="patch_128">
    <path d="M 325.331791 307.584 
L 326.055376 307.584 
L 326.055376 305.175906 
L 325.331791 305.175906 
z
" clip-path="url(#pee31ca4d1c)" style="fill: #1f77b4"/>
   </g>
   <g id="patch_129">
    <path d="M 325.365135 307.584 
L 326.08872 307.584 
L 326.08872 305.084464 
L 325.365135 305.084464 
z
" clip-path="url(#pee31ca4d1c)" style="fill: #1f77b4"/>
   </g>
   <g id="patch_130">
    <path d="M 326.244415 307.584 
L 326.968 307.584 
L 326.968 277.129734 
L 326.244415 277.129734 
z
" clip-path="url(#pee31ca4d1c)" style="fill: #1f77b4"/>
   </g>
   <g id="patch_131">
    <path d="M 326.278118 307.584 
L 327.001703 307.584 
L 327.001703 274.927704 
L 326.278118 274.927704 
z
" clip-path="url(#pee31ca4d1c)" style="fill: #1f77b4"/>
   </g>
   <g id="patch_132">
    <path d="M 327.151381 307.584 
L 327.874966 307.584 
L 327.874966 302.487248 
L 327.151381 302.487248 
z
" clip-path="url(#pee31ca4d1c)" style="fill: #1f77b4"/>
   </g>
   <g id="patch_133">
    <path d="M 327.188617 307.584 
L 327.912202 307.584 
L 327.912202 299.398239 
L 327.188617 299.398239 
z
" clip-path="url(#pee31ca4d1c)" style="fill: #1f77b4"/>
   </g>
   <g id="patch_134">
    <path d="M 338.953939 307.584 
L 339.677524 307.584 
L 339.677524 297.104967 
L 338.953939 297.104967 
z
" clip-path="url(#pee31ca4d1c)" style="fill: #1f77b4"/>
   </g>
   <g id="patch_135">
    <path d="M 339.862644 307.584 
L 340.586229 307.584 
L 340.586229 304.996285 
L 339.862644 304.996285 
z
" clip-path="url(#pee31ca4d1c)" style="fill: #1f77b4"/>
   </g>
   <g id="patch_136">
    <path d="M 340.710982 307.584 
L 341.434567 307.584 
L 341.434567 305.441393 
L 340.710982 305.441393 
z
" clip-path="url(#pee31ca4d1c)" style="fill: #1f77b4"/>
   </g>
   <g id="patch_137">
    <path d="M 340.777807 307.584 
L 341.501392 307.584 
L 341.501392 301.557633 
L 340.777807 301.557633 
z
" clip-path="url(#pee31ca4d1c)" style="fill: #1f77b4"/>
   </g>
   <g id="patch_138">
    <path d="M 341.623468 307.584 
L 342.347053 307.584 
L 342.347053 251.470121 
L 341.623468 251.470121 
z
" clip-path="url(#pee31ca4d1c)" style="fill: #1f77b4"/>
   </g>
   <g id="patch_139">
    <path d="M 342.534767 307.584 
L 343.258352 307.584 
L 343.258352 165.370395 
L 342.534767 165.370395 
z
" clip-path="url(#pee31ca4d1c)" style="fill: #1f77b4"/>
   </g>
   <g id="patch_140">
    <path d="M 342.567697 307.584 
L 343.291282 307.584 
L 343.291282 298.584679 
L 342.567697 298.584679 
z
" clip-path="url(#pee31ca4d1c)" style="fill: #1f77b4"/>
   </g>
   <g id="patch_141">
    <path d="M 343.44245 307.584 
L 344.166035 307.584 
L 344.166035 284.638161 
L 343.44245 284.638161 
z
" clip-path="url(#pee31ca4d1c)" style="fill: #1f77b4"/>
   </g>
   <g id="patch_142">
    <path d="M 343.477643 307.584 
L 344.201228 307.584 
L 344.201228 305.371046 
L 343.477643 305.371046 
z
" clip-path="url(#pee31ca4d1c)" style="fill: #1f77b4"/>
   </g>
   <g id="patch_143">
    <path d="M 357.002409 307.584 
L 357.725994 307.584 
L 357.725994 305.345358 
L 357.002409 305.345358 
z
" clip-path="url(#pee31ca4d1c)" style="fill: #1f77b4"/>
   </g>
   <g id="patch_144">
    <path d="M 357.067579 307.584 
L 357.791164 307.584 
L 357.791164 276.979589 
L 357.067579 276.979589 
z
" clip-path="url(#pee31ca4d1c)" style="fill: #1f77b4"/>
   </g>
   <g id="patch_145">
    <path d="M 357.913377 307.584 
L 358.636962 307.584 
L 358.636962 280.614963 
L 357.913377 280.614963 
z
" clip-path="url(#pee31ca4d1c)" style="fill: #1f77b4"/>
   </g>
   <g id="patch_146">
    <path d="M 357.977194 307.584 
L 358.700779 307.584 
L 358.700779 303.675505 
L 357.977194 303.675505 
z
" clip-path="url(#pee31ca4d1c)" style="fill: #1f77b4"/>
   </g>
   <g id="patch_147">
    <path d="M 358.824897 307.584 
L 359.548482 307.584 
L 359.548482 277.636305 
L 358.824897 277.636305 
z
" clip-path="url(#pee31ca4d1c)" style="fill: #1f77b4"/>
   </g>
   <g id="patch_148">
    <path d="M 359.732056 307.584 
L 360.455641 307.584 
L 360.455641 303.559679 
L 359.732056 303.559679 
z
" clip-path="url(#pee31ca4d1c)" style="fill: #1f77b4"/>
   </g>
   <g id="patch_149">
    <path d="M 364.27602 307.584 
L 364.999605 307.584 
L 364.999605 297.787981 
L 364.27602 297.787981 
z
" clip-path="url(#pee31ca4d1c)" style="fill: #1f77b4"/>
   </g>
   <g id="patch_150">
    <path d="M 378.740543 307.584 
L 379.464128 307.584 
L 379.464128 305.548192 
L 378.740543 305.548192 
z
" clip-path="url(#pee31ca4d1c)" style="fill: #1f77b4"/>
   </g>
   <g id="patch_151">
    <path d="M 380.565543 307.584 
L 381.289128 307.584 
L 381.289128 92.486765 
L 380.565543 92.486765 
z
" clip-path="url(#pee31ca4d1c)" style="fill: #1f77b4"/>
   </g>
   <g id="patch_152">
    <path d="M 381.428399 307.584 
L 382.151984 307.584 
L 382.151984 304.67969 
L 381.428399 304.67969 
z
" clip-path="url(#pee31ca4d1c)" style="fill: #1f77b4"/>
   </g>
   <g id="patch_153">
    <path d="M 381.473143 307.584 
L 382.196728 307.584 
L 382.196728 270.423981 
L 381.473143 270.423981 
z
" clip-path="url(#pee31ca4d1c)" style="fill: #1f77b4"/>
   </g>
   <g id="patch_154">
    <path d="M 396.855867 307.584 
L 397.579452 307.584 
L 397.579452 54.144 
L 396.855867 54.144 
z
" clip-path="url(#pee31ca4d1c)" style="fill: #1f77b4"/>
   </g>
   <g id="patch_155">
    <path d="M 397.763688 307.584 
L 398.487273 307.584 
L 398.487273 258.662223 
L 397.763688 258.662223 
z
" clip-path="url(#pee31ca4d1c)" style="fill: #1f77b4"/>
   </g>
   <g id="matplotlib.axis_1">
    <g id="xtick_1">
     <g id="line2d_1">
      <defs>
       <path id="m38c21be59d" d="M 0 0 
L 0 3.5 
" style="stroke: #000000; stroke-width: 0.8"/>
      </defs>
      <g>
       <use xlink:href="#m38c21be59d" x="71.445469" y="307.584" style="stroke: #000000; stroke-width: 0.8"/>
      </g>
     </g>
     <g id="text_1">
      <!-- 50 -->
      <g transform="translate(65.082969 322.182437) scale(0.1 -0.1)">
       <defs>
        <path id="DejaVuSans-35" d="M 691 4666 
L 3169 4666 
L 3169 4134 
L 1269 4134 
L 1269 2991 
Q 1406 3038 1543 3061 
Q 1681 3084 1819 3084 
Q 2600 3084 3056 2656 
Q 3513 2228 3513 1497 
Q 3513 744 3044 326 
Q 2575 -91 1722 -91 
Q 1428 -91 1123 -41 
Q 819 9 494 109 
L 494 744 
Q 775 591 1075 516 
Q 1375 441 1709 441 
Q 2250 441 2565 725 
Q 2881 1009 2881 1497 
Q 2881 1984 2565 2268 
Q 2250 2553 1709 2553 
Q 1456 2553 1204 2497 
Q 953 2441 691 2322 
L 691 4666 
z
" transform="scale(0.015625)"/>
        <path id="DejaVuSans-30" d="M 2034 4250 
Q 1547 4250 1301 3770 
Q 1056 3291 1056 2328 
Q 1056 1369 1301 889 
Q 1547 409 2034 409 
Q 2525 409 2770 889 
Q 3016 1369 3016 2328 
Q 3016 3291 2770 3770 
Q 2525 4250 2034 4250 
z
M 2034 4750 
Q 2819 4750 3233 4129 
Q 3647 3509 3647 2328 
Q 3647 1150 3233 529 
Q 2819 -91 2034 -91 
Q 1250 -91 836 529 
Q 422 1150 422 2328 
Q 422 3509 836 4129 
Q 1250 4750 2034 4750 
z
" transform="scale(0.015625)"/>
       </defs>
       <use xlink:href="#DejaVuSans-35"/>
       <use xlink:href="#DejaVuSans-30" x="63.623047"/>
      </g>
     </g>
    </g>
    <g id="xtick_2">
     <g id="line2d_2">
      <g>
       <use xlink:href="#m38c21be59d" x="116.669532" y="307.584" style="stroke: #000000; stroke-width: 0.8"/>
      </g>
     </g>
     <g id="text_2">
      <!-- 100 -->
      <g transform="translate(107.125782 322.182437) scale(0.1 -0.1)">
       <defs>
        <path id="DejaVuSans-31" d="M 794 531 
L 1825 531 
L 1825 4091 
L 703 3866 
L 703 4441 
L 1819 4666 
L 2450 4666 
L 2450 531 
L 3481 531 
L 3481 0 
L 794 0 
L 794 531 
z
" transform="scale(0.015625)"/>
       </defs>
       <use xlink:href="#DejaVuSans-31"/>
       <use xlink:href="#DejaVuSans-30" x="63.623047"/>
       <use xlink:href="#DejaVuSans-30" x="127.246094"/>
      </g>
     </g>
    </g>
    <g id="xtick_3">
     <g id="line2d_3">
      <g>
       <use xlink:href="#m38c21be59d" x="161.893595" y="307.584" style="stroke: #000000; stroke-width: 0.8"/>
      </g>
     </g>
     <g id="text_3">
      <!-- 150 -->
      <g transform="translate(152.349845 322.182437) scale(0.1 -0.1)">
       <use xlink:href="#DejaVuSans-31"/>
       <use xlink:href="#DejaVuSans-35" x="63.623047"/>
       <use xlink:href="#DejaVuSans-30" x="127.246094"/>
      </g>
     </g>
    </g>
    <g id="xtick_4">
     <g id="line2d_4">
      <g>
       <use xlink:href="#m38c21be59d" x="207.117658" y="307.584" style="stroke: #000000; stroke-width: 0.8"/>
      </g>
     </g>
     <g id="text_4">
      <!-- 200 -->
      <g transform="translate(197.573908 322.182437) scale(0.1 -0.1)">
       <defs>
        <path id="DejaVuSans-32" d="M 1228 531 
L 3431 531 
L 3431 0 
L 469 0 
L 469 531 
Q 828 903 1448 1529 
Q 2069 2156 2228 2338 
Q 2531 2678 2651 2914 
Q 2772 3150 2772 3378 
Q 2772 3750 2511 3984 
Q 2250 4219 1831 4219 
Q 1534 4219 1204 4116 
Q 875 4013 500 3803 
L 500 4441 
Q 881 4594 1212 4672 
Q 1544 4750 1819 4750 
Q 2544 4750 2975 4387 
Q 3406 4025 3406 3419 
Q 3406 3131 3298 2873 
Q 3191 2616 2906 2266 
Q 2828 2175 2409 1742 
Q 1991 1309 1228 531 
z
" transform="scale(0.015625)"/>
       </defs>
       <use xlink:href="#DejaVuSans-32"/>
       <use xlink:href="#DejaVuSans-30" x="63.623047"/>
       <use xlink:href="#DejaVuSans-30" x="127.246094"/>
      </g>
     </g>
    </g>
    <g id="xtick_5">
     <g id="line2d_5">
      <g>
       <use xlink:href="#m38c21be59d" x="252.341721" y="307.584" style="stroke: #000000; stroke-width: 0.8"/>
      </g>
     </g>
     <g id="text_5">
      <!-- 250 -->
      <g transform="translate(242.797971 322.182437) scale(0.1 -0.1)">
       <use xlink:href="#DejaVuSans-32"/>
       <use xlink:href="#DejaVuSans-35" x="63.623047"/>
       <use xlink:href="#DejaVuSans-30" x="127.246094"/>
      </g>
     </g>
    </g>
    <g id="xtick_6">
     <g id="line2d_6">
      <g>
       <use xlink:href="#m38c21be59d" x="297.565784" y="307.584" style="stroke: #000000; stroke-width: 0.8"/>
      </g>
     </g>
     <g id="text_6">
      <!-- 300 -->
      <g transform="translate(288.022034 322.182437) scale(0.1 -0.1)">
       <defs>
        <path id="DejaVuSans-33" d="M 2597 2516 
Q 3050 2419 3304 2112 
Q 3559 1806 3559 1356 
Q 3559 666 3084 287 
Q 2609 -91 1734 -91 
Q 1441 -91 1130 -33 
Q 819 25 488 141 
L 488 750 
Q 750 597 1062 519 
Q 1375 441 1716 441 
Q 2309 441 2620 675 
Q 2931 909 2931 1356 
Q 2931 1769 2642 2001 
Q 2353 2234 1838 2234 
L 1294 2234 
L 1294 2753 
L 1863 2753 
Q 2328 2753 2575 2939 
Q 2822 3125 2822 3475 
Q 2822 3834 2567 4026 
Q 2313 4219 1838 4219 
Q 1578 4219 1281 4162 
Q 984 4106 628 3988 
L 628 4550 
Q 988 4650 1302 4700 
Q 1616 4750 1894 4750 
Q 2613 4750 3031 4423 
Q 3450 4097 3450 3541 
Q 3450 3153 3228 2886 
Q 3006 2619 2597 2516 
z
" transform="scale(0.015625)"/>
       </defs>
       <use xlink:href="#DejaVuSans-33"/>
       <use xlink:href="#DejaVuSans-30" x="63.623047"/>
       <use xlink:href="#DejaVuSans-30" x="127.246094"/>
      </g>
     </g>
    </g>
    <g id="xtick_7">
     <g id="line2d_7">
      <g>
       <use xlink:href="#m38c21be59d" x="342.789848" y="307.584" style="stroke: #000000; stroke-width: 0.8"/>
      </g>
     </g>
     <g id="text_7">
      <!-- 350 -->
      <g transform="translate(333.246098 322.182437) scale(0.1 -0.1)">
       <use xlink:href="#DejaVuSans-33"/>
       <use xlink:href="#DejaVuSans-35" x="63.623047"/>
       <use xlink:href="#DejaVuSans-30" x="127.246094"/>
      </g>
     </g>
    </g>
    <g id="xtick_8">
     <g id="line2d_8">
      <g>
       <use xlink:href="#m38c21be59d" x="388.013911" y="307.584" style="stroke: #000000; stroke-width: 0.8"/>
      </g>
     </g>
     <g id="text_8">
      <!-- 400 -->
      <g transform="translate(378.470161 322.182437) scale(0.1 -0.1)">
       <defs>
        <path id="DejaVuSans-34" d="M 2419 4116 
L 825 1625 
L 2419 1625 
L 2419 4116 
z
M 2253 4666 
L 3047 4666 
L 3047 1625 
L 3713 1625 
L 3713 1100 
L 3047 1100 
L 3047 0 
L 2419 0 
L 2419 1100 
L 313 1100 
L 313 1709 
L 2253 4666 
z
" transform="scale(0.015625)"/>
       </defs>
       <use xlink:href="#DejaVuSans-34"/>
       <use xlink:href="#DejaVuSans-30" x="63.623047"/>
       <use xlink:href="#DejaVuSans-30" x="127.246094"/>
      </g>
     </g>
    </g>
    <g id="text_9">
     <!-- ${m/z}$ -->
     <g transform="translate(226.96 335.860562) scale(0.1 -0.1)">
      <defs>
       <path id="DejaVuSans-Oblique-6d" d="M 5747 2113 
L 5338 0 
L 4763 0 
L 5166 2094 
Q 5191 2228 5203 2325 
Q 5216 2422 5216 2491 
Q 5216 2772 5059 2928 
Q 4903 3084 4622 3084 
Q 4203 3084 3875 2770 
Q 3547 2456 3450 1953 
L 3066 0 
L 2491 0 
L 2900 2094 
Q 2925 2209 2937 2307 
Q 2950 2406 2950 2484 
Q 2950 2769 2794 2926 
Q 2638 3084 2363 3084 
Q 1938 3084 1609 2770 
Q 1281 2456 1184 1953 
L 800 0 
L 225 0 
L 909 3500 
L 1484 3500 
L 1375 2956 
Q 1609 3263 1923 3423 
Q 2238 3584 2597 3584 
Q 2978 3584 3223 3384 
Q 3469 3184 3519 2828 
Q 3781 3197 4126 3390 
Q 4472 3584 4856 3584 
Q 5306 3584 5551 3325 
Q 5797 3066 5797 2591 
Q 5797 2488 5784 2364 
Q 5772 2241 5747 2113 
z
" transform="scale(0.015625)"/>
       <path id="DejaVuSans-2f" d="M 1625 4666 
L 2156 4666 
L 531 -594 
L 0 -594 
L 1625 4666 
z
" transform="scale(0.015625)"/>
       <path id="DejaVuSans-Oblique-7a" d="M 744 3500 
L 3475 3500 
L 3372 2975 
L 738 459 
L 2913 459 
L 2822 0 
L -19 0 
L 84 525 
L 2719 3041 
L 653 3041 
L 744 3500 
z
" transform="scale(0.015625)"/>
      </defs>
      <use xlink:href="#DejaVuSans-Oblique-6d" transform="translate(0 0.09375)"/>
      <use xlink:href="#DejaVuSans-2f" transform="translate(97.412109 0.09375)"/>
      <use xlink:href="#DejaVuSans-Oblique-7a" transform="translate(131.103516 0.09375)"/>
     </g>
    </g>
   </g>
   <g id="matplotlib.axis_2">
    <g id="ytick_1">
     <g id="line2d_9">
      <defs>
       <path id="maef6d09798" d="M 0 0 
L -3.5 0 
" style="stroke: #000000; stroke-width: 0.8"/>
      </defs>
      <g>
       <use xlink:href="#maef6d09798" x="57.6" y="307.584" style="stroke: #000000; stroke-width: 0.8"/>
      </g>
     </g>
     <g id="text_10">
      <!-- 0.0 -->
      <g transform="translate(34.696875 311.383219) scale(0.1 -0.1)">
       <defs>
        <path id="DejaVuSans-2e" d="M 684 794 
L 1344 794 
L 1344 0 
L 684 0 
L 684 794 
z
" transform="scale(0.015625)"/>
       </defs>
       <use xlink:href="#DejaVuSans-30"/>
       <use xlink:href="#DejaVuSans-2e" x="63.623047"/>
       <use xlink:href="#DejaVuSans-30" x="95.410156"/>
      </g>
     </g>
    </g>
    <g id="ytick_2">
     <g id="line2d_10">
      <g>
       <use xlink:href="#maef6d09798" x="57.6" y="269.586137" style="stroke: #000000; stroke-width: 0.8"/>
      </g>
     </g>
     <g id="text_11">
      <!-- 0.2 -->
      <g transform="translate(34.696875 273.385356) scale(0.1 -0.1)">
       <use xlink:href="#DejaVuSans-30"/>
       <use xlink:href="#DejaVuSans-2e" x="63.623047"/>
       <use xlink:href="#DejaVuSans-32" x="95.410156"/>
      </g>
     </g>
    </g>
    <g id="ytick_3">
     <g id="line2d_11">
      <g>
       <use xlink:href="#maef6d09798" x="57.6" y="231.588274" style="stroke: #000000; stroke-width: 0.8"/>
      </g>
     </g>
     <g id="text_12">
      <!-- 0.4 -->
      <g transform="translate(34.696875 235.387492) scale(0.1 -0.1)">
       <use xlink:href="#DejaVuSans-30"/>
       <use xlink:href="#DejaVuSans-2e" x="63.623047"/>
       <use xlink:href="#DejaVuSans-34" x="95.410156"/>
      </g>
     </g>
    </g>
    <g id="ytick_4">
     <g id="line2d_12">
      <g>
       <use xlink:href="#maef6d09798" x="57.6" y="193.590411" style="stroke: #000000; stroke-width: 0.8"/>
      </g>
     </g>
     <g id="text_13">
      <!-- 0.6 -->
      <g transform="translate(34.696875 197.389629) scale(0.1 -0.1)">
       <defs>
        <path id="DejaVuSans-36" d="M 2113 2584 
Q 1688 2584 1439 2293 
Q 1191 2003 1191 1497 
Q 1191 994 1439 701 
Q 1688 409 2113 409 
Q 2538 409 2786 701 
Q 3034 994 3034 1497 
Q 3034 2003 2786 2293 
Q 2538 2584 2113 2584 
z
M 3366 4563 
L 3366 3988 
Q 3128 4100 2886 4159 
Q 2644 4219 2406 4219 
Q 1781 4219 1451 3797 
Q 1122 3375 1075 2522 
Q 1259 2794 1537 2939 
Q 1816 3084 2150 3084 
Q 2853 3084 3261 2657 
Q 3669 2231 3669 1497 
Q 3669 778 3244 343 
Q 2819 -91 2113 -91 
Q 1303 -91 875 529 
Q 447 1150 447 2328 
Q 447 3434 972 4092 
Q 1497 4750 2381 4750 
Q 2619 4750 2861 4703 
Q 3103 4656 3366 4563 
z
" transform="scale(0.015625)"/>
       </defs>
       <use xlink:href="#DejaVuSans-30"/>
       <use xlink:href="#DejaVuSans-2e" x="63.623047"/>
       <use xlink:href="#DejaVuSans-36" x="95.410156"/>
      </g>
     </g>
    </g>
    <g id="ytick_5">
     <g id="line2d_13">
      <g>
       <use xlink:href="#maef6d09798" x="57.6" y="155.592547" style="stroke: #000000; stroke-width: 0.8"/>
      </g>
     </g>
     <g id="text_14">
      <!-- 0.8 -->
      <g transform="translate(34.696875 159.391766) scale(0.1 -0.1)">
       <defs>
        <path id="DejaVuSans-38" d="M 2034 2216 
Q 1584 2216 1326 1975 
Q 1069 1734 1069 1313 
Q 1069 891 1326 650 
Q 1584 409 2034 409 
Q 2484 409 2743 651 
Q 3003 894 3003 1313 
Q 3003 1734 2745 1975 
Q 2488 2216 2034 2216 
z
M 1403 2484 
Q 997 2584 770 2862 
Q 544 3141 544 3541 
Q 544 4100 942 4425 
Q 1341 4750 2034 4750 
Q 2731 4750 3128 4425 
Q 3525 4100 3525 3541 
Q 3525 3141 3298 2862 
Q 3072 2584 2669 2484 
Q 3125 2378 3379 2068 
Q 3634 1759 3634 1313 
Q 3634 634 3220 271 
Q 2806 -91 2034 -91 
Q 1263 -91 848 271 
Q 434 634 434 1313 
Q 434 1759 690 2068 
Q 947 2378 1403 2484 
z
M 1172 3481 
Q 1172 3119 1398 2916 
Q 1625 2713 2034 2713 
Q 2441 2713 2670 2916 
Q 2900 3119 2900 3481 
Q 2900 3844 2670 4047 
Q 2441 4250 2034 4250 
Q 1625 4250 1398 4047 
Q 1172 3844 1172 3481 
z
" transform="scale(0.015625)"/>
       </defs>
       <use xlink:href="#DejaVuSans-30"/>
       <use xlink:href="#DejaVuSans-2e" x="63.623047"/>
       <use xlink:href="#DejaVuSans-38" x="95.410156"/>
      </g>
     </g>
    </g>
    <g id="ytick_6">
     <g id="line2d_14">
      <g>
       <use xlink:href="#maef6d09798" x="57.6" y="117.594684" style="stroke: #000000; stroke-width: 0.8"/>
      </g>
     </g>
     <g id="text_15">
      <!-- 1.0 -->
      <g transform="translate(34.696875 121.393903) scale(0.1 -0.1)">
       <use xlink:href="#DejaVuSans-31"/>
       <use xlink:href="#DejaVuSans-2e" x="63.623047"/>
       <use xlink:href="#DejaVuSans-30" x="95.410156"/>
      </g>
     </g>
    </g>
    <g id="ytick_7">
     <g id="line2d_15">
      <g>
       <use xlink:href="#maef6d09798" x="57.6" y="79.596821" style="stroke: #000000; stroke-width: 0.8"/>
      </g>
     </g>
     <g id="text_16">
      <!-- 1.2 -->
      <g transform="translate(34.696875 83.39604) scale(0.1 -0.1)">
       <use xlink:href="#DejaVuSans-31"/>
       <use xlink:href="#DejaVuSans-2e" x="63.623047"/>
       <use xlink:href="#DejaVuSans-32" x="95.410156"/>
      </g>
     </g>
    </g>
    <g id="ytick_8">
     <g id="line2d_16">
      <g>
       <use xlink:href="#maef6d09798" x="57.6" y="41.598958" style="stroke: #000000; stroke-width: 0.8"/>
      </g>
     </g>
     <g id="text_17">
      <!-- 1.4 -->
      <g transform="translate(34.696875 45.398177) scale(0.1 -0.1)">
       <use xlink:href="#DejaVuSans-31"/>
       <use xlink:href="#DejaVuSans-2e" x="63.623047"/>
       <use xlink:href="#DejaVuSans-34" x="95.410156"/>
      </g>
     </g>
    </g>
    <g id="text_18">
     <!-- intensities -->
     <g transform="translate(28.617187 200.3155) rotate(-90) scale(0.1 -0.1)">
      <defs>
       <path id="DejaVuSans-69" d="M 603 3500 
L 1178 3500 
L 1178 0 
L 603 0 
L 603 3500 
z
M 603 4863 
L 1178 4863 
L 1178 4134 
L 603 4134 
L 603 4863 
z
" transform="scale(0.015625)"/>
       <path id="DejaVuSans-6e" d="M 3513 2113 
L 3513 0 
L 2938 0 
L 2938 2094 
Q 2938 2591 2744 2837 
Q 2550 3084 2163 3084 
Q 1697 3084 1428 2787 
Q 1159 2491 1159 1978 
L 1159 0 
L 581 0 
L 581 3500 
L 1159 3500 
L 1159 2956 
Q 1366 3272 1645 3428 
Q 1925 3584 2291 3584 
Q 2894 3584 3203 3211 
Q 3513 2838 3513 2113 
z
" transform="scale(0.015625)"/>
       <path id="DejaVuSans-74" d="M 1172 4494 
L 1172 3500 
L 2356 3500 
L 2356 3053 
L 1172 3053 
L 1172 1153 
Q 1172 725 1289 603 
Q 1406 481 1766 481 
L 2356 481 
L 2356 0 
L 1766 0 
Q 1100 0 847 248 
Q 594 497 594 1153 
L 594 3053 
L 172 3053 
L 172 3500 
L 594 3500 
L 594 4494 
L 1172 4494 
z
" transform="scale(0.015625)"/>
       <path id="DejaVuSans-65" d="M 3597 1894 
L 3597 1613 
L 953 1613 
Q 991 1019 1311 708 
Q 1631 397 2203 397 
Q 2534 397 2845 478 
Q 3156 559 3463 722 
L 3463 178 
Q 3153 47 2828 -22 
Q 2503 -91 2169 -91 
Q 1331 -91 842 396 
Q 353 884 353 1716 
Q 353 2575 817 3079 
Q 1281 3584 2069 3584 
Q 2775 3584 3186 3129 
Q 3597 2675 3597 1894 
z
M 3022 2063 
Q 3016 2534 2758 2815 
Q 2500 3097 2075 3097 
Q 1594 3097 1305 2825 
Q 1016 2553 972 2059 
L 3022 2063 
z
" transform="scale(0.015625)"/>
       <path id="DejaVuSans-73" d="M 2834 3397 
L 2834 2853 
Q 2591 2978 2328 3040 
Q 2066 3103 1784 3103 
Q 1356 3103 1142 2972 
Q 928 2841 928 2578 
Q 928 2378 1081 2264 
Q 1234 2150 1697 2047 
L 1894 2003 
Q 2506 1872 2764 1633 
Q 3022 1394 3022 966 
Q 3022 478 2636 193 
Q 2250 -91 1575 -91 
Q 1294 -91 989 -36 
Q 684 19 347 128 
L 347 722 
Q 666 556 975 473 
Q 1284 391 1588 391 
Q 1994 391 2212 530 
Q 2431 669 2431 922 
Q 2431 1156 2273 1281 
Q 2116 1406 1581 1522 
L 1381 1569 
Q 847 1681 609 1914 
Q 372 2147 372 2553 
Q 372 3047 722 3315 
Q 1072 3584 1716 3584 
Q 2034 3584 2315 3537 
Q 2597 3491 2834 3397 
z
" transform="scale(0.015625)"/>
      </defs>
      <use xlink:href="#DejaVuSans-69"/>
      <use xlink:href="#DejaVuSans-6e" x="27.783203"/>
      <use xlink:href="#DejaVuSans-74" x="91.162109"/>
      <use xlink:href="#DejaVuSans-65" x="130.371094"/>
      <use xlink:href="#DejaVuSans-6e" x="191.894531"/>
      <use xlink:href="#DejaVuSans-73" x="255.273438"/>
      <use xlink:href="#DejaVuSans-69" x="307.373047"/>
      <use xlink:href="#DejaVuSans-74" x="335.15625"/>
      <use xlink:href="#DejaVuSans-69" x="374.365234"/>
      <use xlink:href="#DejaVuSans-65" x="402.148438"/>
      <use xlink:href="#DejaVuSans-73" x="463.671875"/>
     </g>
    </g>
    <g id="text_19">
     <!-- 1e6 -->
     <g transform="translate(57.6 38.472) scale(0.1 -0.1)">
      <use xlink:href="#DejaVuSans-31"/>
      <use xlink:href="#DejaVuSans-65" x="63.623047"/>
      <use xlink:href="#DejaVuSans-36" x="125.146484"/>
     </g>
    </g>
   </g>
   <g id="patch_156">
    <path d="M 57.6 307.584 
L 57.6 41.472 
" style="fill: none; stroke: #000000; stroke-width: 0.8; stroke-linejoin: miter; stroke-linecap: square"/>
   </g>
   <g id="patch_157">
    <path d="M 414.72 307.584 
L 414.72 41.472 
" style="fill: none; stroke: #000000; stroke-width: 0.8; stroke-linejoin: miter; stroke-linecap: square"/>
   </g>
   <g id="patch_158">
    <path d="M 57.6 307.584 
L 414.72 307.584 
" style="fill: none; stroke: #000000; stroke-width: 0.8; stroke-linejoin: miter; stroke-linecap: square"/>
   </g>
   <g id="patch_159">
    <path d="M 57.6 41.472 
L 414.72 41.472 
" style="fill: none; stroke: #000000; stroke-width: 0.8; stroke-linejoin: miter; stroke-linecap: square"/>
   </g>
   <g id="text_20">
    <!-- 71.0135 -->
    <g transform="translate(83.805866 195.206611) scale(0.06 -0.06)">
     <defs>
      <path id="DejaVuSans-37" d="M 525 4666 
L 3525 4666 
L 3525 4397 
L 1831 0 
L 1172 0 
L 2766 4134 
L 525 4134 
L 525 4666 
z
" transform="scale(0.015625)"/>
     </defs>
     <use xlink:href="#DejaVuSans-37"/>
     <use xlink:href="#DejaVuSans-31" x="63.623047"/>
     <use xlink:href="#DejaVuSans-2e" x="127.246094"/>
     <use xlink:href="#DejaVuSans-30" x="159.033203"/>
     <use xlink:href="#DejaVuSans-31" x="222.65625"/>
     <use xlink:href="#DejaVuSans-33" x="286.279297"/>
     <use xlink:href="#DejaVuSans-35" x="349.902344"/>
    </g>
   </g>
   <g id="text_21">
    <!-- 81.0341 -->
    <g transform="translate(92.869331 255.664652) scale(0.06 -0.06)">
     <use xlink:href="#DejaVuSans-38"/>
     <use xlink:href="#DejaVuSans-31" x="63.623047"/>
     <use xlink:href="#DejaVuSans-2e" x="127.246094"/>
     <use xlink:href="#DejaVuSans-30" x="159.033203"/>
     <use xlink:href="#DejaVuSans-33" x="222.65625"/>
     <use xlink:href="#DejaVuSans-34" x="286.279297"/>
     <use xlink:href="#DejaVuSans-31" x="349.902344"/>
    </g>
   </g>
   <g id="text_22">
    <!-- 89.0239 -->
    <g transform="translate(100.095913 223.656252) scale(0.06 -0.06)">
     <defs>
      <path id="DejaVuSans-39" d="M 703 97 
L 703 672 
Q 941 559 1184 500 
Q 1428 441 1663 441 
Q 2288 441 2617 861 
Q 2947 1281 2994 2138 
Q 2813 1869 2534 1725 
Q 2256 1581 1919 1581 
Q 1219 1581 811 2004 
Q 403 2428 403 3163 
Q 403 3881 828 4315 
Q 1253 4750 1959 4750 
Q 2769 4750 3195 4129 
Q 3622 3509 3622 2328 
Q 3622 1225 3098 567 
Q 2575 -91 1691 -91 
Q 1453 -91 1209 -44 
Q 966 3 703 97 
z
M 1959 2075 
Q 2384 2075 2632 2365 
Q 2881 2656 2881 3163 
Q 2881 3666 2632 3958 
Q 2384 4250 1959 4250 
Q 1534 4250 1286 3958 
Q 1038 3666 1038 3163 
Q 1038 2656 1286 2365 
Q 1534 2075 1959 2075 
z
" transform="scale(0.015625)"/>
     </defs>
     <use xlink:href="#DejaVuSans-38"/>
     <use xlink:href="#DejaVuSans-39" x="63.623047"/>
     <use xlink:href="#DejaVuSans-2e" x="127.246094"/>
     <use xlink:href="#DejaVuSans-30" x="159.033203"/>
     <use xlink:href="#DejaVuSans-32" x="222.65625"/>
     <use xlink:href="#DejaVuSans-33" x="286.279297"/>
     <use xlink:href="#DejaVuSans-39" x="349.902344"/>
    </g>
   </g>
   <g id="text_23">
    <!-- 227.0737 -->
    <g transform="translate(224.490597 229.450033) scale(0.06 -0.06)">
     <use xlink:href="#DejaVuSans-32"/>
     <use xlink:href="#DejaVuSans-32" x="63.623047"/>
     <use xlink:href="#DejaVuSans-37" x="127.246094"/>
     <use xlink:href="#DejaVuSans-2e" x="190.869141"/>
     <use xlink:href="#DejaVuSans-30" x="222.65625"/>
     <use xlink:href="#DejaVuSans-37" x="286.279297"/>
     <use xlink:href="#DejaVuSans-33" x="349.902344"/>
     <use xlink:href="#DejaVuSans-37" x="413.525391"/>
    </g>
   </g>
   <g id="text_24">
    <!-- 228.081 -->
    <g transform="translate(225.870426 283.148641) scale(0.06 -0.06)">
     <use xlink:href="#DejaVuSans-32"/>
     <use xlink:href="#DejaVuSans-32" x="63.623047"/>
     <use xlink:href="#DejaVuSans-38" x="127.246094"/>
     <use xlink:href="#DejaVuSans-2e" x="190.869141"/>
     <use xlink:href="#DejaVuSans-30" x="222.65625"/>
     <use xlink:href="#DejaVuSans-38" x="286.279297"/>
     <use xlink:href="#DejaVuSans-31" x="349.902344"/>
    </g>
   </g>
   <g id="text_25">
    <!-- 240.0813 -->
    <g transform="translate(227.615796 270.12989) scale(0.06 -0.06)">
     <use xlink:href="#DejaVuSans-32"/>
     <use xlink:href="#DejaVuSans-34" x="63.623047"/>
     <use xlink:href="#DejaVuSans-30" x="127.246094"/>
     <use xlink:href="#DejaVuSans-2e" x="190.869141"/>
     <use xlink:href="#DejaVuSans-30" x="222.65625"/>
     <use xlink:href="#DejaVuSans-38" x="286.279297"/>
     <use xlink:href="#DejaVuSans-31" x="349.902344"/>
     <use xlink:href="#DejaVuSans-33" x="413.525391"/>
    </g>
   </g>
   <g id="text_26">
    <!-- 251.0737 -->
    <g transform="translate(249.251214 222.963353) scale(0.06 -0.06)">
     <use xlink:href="#DejaVuSans-32"/>
     <use xlink:href="#DejaVuSans-35" x="63.623047"/>
     <use xlink:href="#DejaVuSans-31" x="127.246094"/>
     <use xlink:href="#DejaVuSans-2e" x="190.869141"/>
     <use xlink:href="#DejaVuSans-30" x="222.65625"/>
     <use xlink:href="#DejaVuSans-37" x="286.279297"/>
     <use xlink:href="#DejaVuSans-33" x="349.902344"/>
     <use xlink:href="#DejaVuSans-37" x="413.525391"/>
    </g>
   </g>
   <g id="text_27">
    <!-- 252.0812 -->
    <g transform="translate(242.789474 262.191618) scale(0.06 -0.06)">
     <use xlink:href="#DejaVuSans-32"/>
     <use xlink:href="#DejaVuSans-35" x="63.623047"/>
     <use xlink:href="#DejaVuSans-32" x="127.246094"/>
     <use xlink:href="#DejaVuSans-2e" x="190.869141"/>
     <use xlink:href="#DejaVuSans-30" x="222.65625"/>
     <use xlink:href="#DejaVuSans-38" x="286.279297"/>
     <use xlink:href="#DejaVuSans-31" x="349.902344"/>
     <use xlink:href="#DejaVuSans-32" x="413.525391"/>
    </g>
   </g>
   <g id="text_28">
    <!-- 264.0816 -->
    <g transform="translate(257.963581 122.462742) scale(0.06 -0.06)">
     <use xlink:href="#DejaVuSans-32"/>
     <use xlink:href="#DejaVuSans-36" x="63.623047"/>
     <use xlink:href="#DejaVuSans-34" x="127.246094"/>
     <use xlink:href="#DejaVuSans-2e" x="190.869141"/>
     <use xlink:href="#DejaVuSans-30" x="222.65625"/>
     <use xlink:href="#DejaVuSans-38" x="286.279297"/>
     <use xlink:href="#DejaVuSans-31" x="349.902344"/>
     <use xlink:href="#DejaVuSans-36" x="413.525391"/>
    </g>
   </g>
   <g id="text_29">
    <!-- 265.0877 -->
    <g transform="translate(259.1119 255.147312) scale(0.06 -0.06)">
     <use xlink:href="#DejaVuSans-32"/>
     <use xlink:href="#DejaVuSans-36" x="63.623047"/>
     <use xlink:href="#DejaVuSans-35" x="127.246094"/>
     <use xlink:href="#DejaVuSans-2e" x="190.869141"/>
     <use xlink:href="#DejaVuSans-30" x="222.65625"/>
     <use xlink:href="#DejaVuSans-38" x="286.279297"/>
     <use xlink:href="#DejaVuSans-37" x="349.902344"/>
     <use xlink:href="#DejaVuSans-37" x="413.525391"/>
    </g>
   </g>
   <g id="text_30">
    <!-- 266.0971 -->
    <g transform="translate(259.786593 238.048118) scale(0.06 -0.06)">
     <use xlink:href="#DejaVuSans-32"/>
     <use xlink:href="#DejaVuSans-36" x="63.623047"/>
     <use xlink:href="#DejaVuSans-36" x="127.246094"/>
     <use xlink:href="#DejaVuSans-2e" x="190.869141"/>
     <use xlink:href="#DejaVuSans-30" x="222.65625"/>
     <use xlink:href="#DejaVuSans-39" x="286.279297"/>
     <use xlink:href="#DejaVuSans-37" x="349.902344"/>
     <use xlink:href="#DejaVuSans-31" x="413.525391"/>
    </g>
   </g>
   <g id="text_31">
    <!-- 269.1207 -->
    <g transform="translate(262.521318 188.728549) scale(0.06 -0.06)">
     <use xlink:href="#DejaVuSans-32"/>
     <use xlink:href="#DejaVuSans-36" x="63.623047"/>
     <use xlink:href="#DejaVuSans-39" x="127.246094"/>
     <use xlink:href="#DejaVuSans-2e" x="190.869141"/>
     <use xlink:href="#DejaVuSans-31" x="222.65625"/>
     <use xlink:href="#DejaVuSans-32" x="286.279297"/>
     <use xlink:href="#DejaVuSans-30" x="349.902344"/>
     <use xlink:href="#DejaVuSans-37" x="413.525391"/>
    </g>
   </g>
   <g id="text_32">
    <!-- 270.1274 -->
    <g transform="translate(270.393583 260.925304) scale(0.06 -0.06)">
     <use xlink:href="#DejaVuSans-32"/>
     <use xlink:href="#DejaVuSans-37" x="63.623047"/>
     <use xlink:href="#DejaVuSans-30" x="127.246094"/>
     <use xlink:href="#DejaVuSans-2e" x="190.869141"/>
     <use xlink:href="#DejaVuSans-31" x="222.65625"/>
     <use xlink:href="#DejaVuSans-32" x="286.279297"/>
     <use xlink:href="#DejaVuSans-37" x="349.902344"/>
     <use xlink:href="#DejaVuSans-34" x="413.525391"/>
    </g>
   </g>
   <g id="text_33">
    <!-- 278.0973 -->
    <g transform="translate(271.087025 196.588802) scale(0.06 -0.06)">
     <use xlink:href="#DejaVuSans-32"/>
     <use xlink:href="#DejaVuSans-37" x="63.623047"/>
     <use xlink:href="#DejaVuSans-38" x="127.246094"/>
     <use xlink:href="#DejaVuSans-2e" x="190.869141"/>
     <use xlink:href="#DejaVuSans-30" x="222.65625"/>
     <use xlink:href="#DejaVuSans-39" x="286.279297"/>
     <use xlink:href="#DejaVuSans-37" x="349.902344"/>
     <use xlink:href="#DejaVuSans-33" x="413.525391"/>
    </g>
   </g>
   <g id="text_34">
    <!-- 279.1035 -->
    <g transform="translate(271.550618 277.317335) scale(0.06 -0.06)">
     <use xlink:href="#DejaVuSans-32"/>
     <use xlink:href="#DejaVuSans-37" x="63.623047"/>
     <use xlink:href="#DejaVuSans-39" x="127.246094"/>
     <use xlink:href="#DejaVuSans-2e" x="190.869141"/>
     <use xlink:href="#DejaVuSans-31" x="222.65625"/>
     <use xlink:href="#DejaVuSans-30" x="286.279297"/>
     <use xlink:href="#DejaVuSans-33" x="349.902344"/>
     <use xlink:href="#DejaVuSans-35" x="413.525391"/>
    </g>
   </g>
   <g id="text_35">
    <!-- 280.1129 -->
    <g transform="translate(272.463546 151.245016) scale(0.06 -0.06)">
     <use xlink:href="#DejaVuSans-32"/>
     <use xlink:href="#DejaVuSans-38" x="63.623047"/>
     <use xlink:href="#DejaVuSans-30" x="127.246094"/>
     <use xlink:href="#DejaVuSans-2e" x="190.869141"/>
     <use xlink:href="#DejaVuSans-31" x="222.65625"/>
     <use xlink:href="#DejaVuSans-31" x="286.279297"/>
     <use xlink:href="#DejaVuSans-32" x="349.902344"/>
     <use xlink:href="#DejaVuSans-39" x="413.525391"/>
    </g>
   </g>
   <g id="text_36">
    <!-- 290.0972 -->
    <g transform="translate(281.494171 163.127494) scale(0.06 -0.06)">
     <use xlink:href="#DejaVuSans-32"/>
     <use xlink:href="#DejaVuSans-39" x="63.623047"/>
     <use xlink:href="#DejaVuSans-30" x="127.246094"/>
     <use xlink:href="#DejaVuSans-2e" x="190.869141"/>
     <use xlink:href="#DejaVuSans-30" x="222.65625"/>
     <use xlink:href="#DejaVuSans-39" x="286.279297"/>
     <use xlink:href="#DejaVuSans-37" x="349.902344"/>
     <use xlink:href="#DejaVuSans-32" x="413.525391"/>
    </g>
   </g>
   <g id="text_37">
    <!-- 291.1029 -->
    <g transform="translate(293.641417 269.737475) scale(0.06 -0.06)">
     <use xlink:href="#DejaVuSans-32"/>
     <use xlink:href="#DejaVuSans-39" x="63.623047"/>
     <use xlink:href="#DejaVuSans-31" x="127.246094"/>
     <use xlink:href="#DejaVuSans-2e" x="190.869141"/>
     <use xlink:href="#DejaVuSans-31" x="222.65625"/>
     <use xlink:href="#DejaVuSans-30" x="286.279297"/>
     <use xlink:href="#DejaVuSans-32" x="349.902344"/>
     <use xlink:href="#DejaVuSans-39" x="413.525391"/>
    </g>
   </g>
   <g id="text_38">
    <!-- 293.1206 -->
    <g transform="translate(297.908841 255.288369) scale(0.06 -0.06)">
     <use xlink:href="#DejaVuSans-32"/>
     <use xlink:href="#DejaVuSans-39" x="63.623047"/>
     <use xlink:href="#DejaVuSans-33" x="127.246094"/>
     <use xlink:href="#DejaVuSans-2e" x="190.869141"/>
     <use xlink:href="#DejaVuSans-31" x="222.65625"/>
     <use xlink:href="#DejaVuSans-32" x="286.279297"/>
     <use xlink:href="#DejaVuSans-30" x="349.902344"/>
     <use xlink:href="#DejaVuSans-36" x="413.525391"/>
    </g>
   </g>
   <g id="text_39">
    <!-- 304.1126 -->
    <g transform="translate(294.170876 244.135815) scale(0.06 -0.06)">
     <use xlink:href="#DejaVuSans-33"/>
     <use xlink:href="#DejaVuSans-30" x="63.623047"/>
     <use xlink:href="#DejaVuSans-34" x="127.246094"/>
     <use xlink:href="#DejaVuSans-2e" x="190.869141"/>
     <use xlink:href="#DejaVuSans-31" x="222.65625"/>
     <use xlink:href="#DejaVuSans-31" x="286.279297"/>
     <use xlink:href="#DejaVuSans-32" x="349.902344"/>
     <use xlink:href="#DejaVuSans-36" x="413.525391"/>
    </g>
   </g>
   <g id="text_40">
    <!-- 306.1285 -->
    <g transform="translate(295.994191 78.342568) scale(0.06 -0.06)">
     <use xlink:href="#DejaVuSans-33"/>
     <use xlink:href="#DejaVuSans-30" x="63.623047"/>
     <use xlink:href="#DejaVuSans-36" x="127.246094"/>
     <use xlink:href="#DejaVuSans-2e" x="190.869141"/>
     <use xlink:href="#DejaVuSans-31" x="222.65625"/>
     <use xlink:href="#DejaVuSans-32" x="286.279297"/>
     <use xlink:href="#DejaVuSans-38" x="349.902344"/>
     <use xlink:href="#DejaVuSans-35" x="413.525391"/>
    </g>
   </g>
   <g id="text_41">
    <!-- 307.132 -->
    <g transform="translate(298.810652 279.137849) scale(0.06 -0.06)">
     <use xlink:href="#DejaVuSans-33"/>
     <use xlink:href="#DejaVuSans-30" x="63.623047"/>
     <use xlink:href="#DejaVuSans-37" x="127.246094"/>
     <use xlink:href="#DejaVuSans-2e" x="190.869141"/>
     <use xlink:href="#DejaVuSans-31" x="222.65625"/>
     <use xlink:href="#DejaVuSans-33" x="286.279297"/>
     <use xlink:href="#DejaVuSans-32" x="349.902344"/>
    </g>
   </g>
   <g id="text_42">
    <!-- 322.1597 -->
    <g transform="translate(310.494129 146.513857) scale(0.06 -0.06)">
     <use xlink:href="#DejaVuSans-33"/>
     <use xlink:href="#DejaVuSans-32" x="63.623047"/>
     <use xlink:href="#DejaVuSans-32" x="127.246094"/>
     <use xlink:href="#DejaVuSans-2e" x="190.869141"/>
     <use xlink:href="#DejaVuSans-31" x="222.65625"/>
     <use xlink:href="#DejaVuSans-35" x="286.279297"/>
     <use xlink:href="#DejaVuSans-39" x="349.902344"/>
     <use xlink:href="#DejaVuSans-37" x="413.525391"/>
    </g>
   </g>
   <g id="text_43">
    <!-- 332.1073 -->
    <g transform="translate(325.245837 282.025359) scale(0.06 -0.06)">
     <use xlink:href="#DejaVuSans-33"/>
     <use xlink:href="#DejaVuSans-33" x="63.623047"/>
     <use xlink:href="#DejaVuSans-32" x="127.246094"/>
     <use xlink:href="#DejaVuSans-2e" x="190.869141"/>
     <use xlink:href="#DejaVuSans-31" x="222.65625"/>
     <use xlink:href="#DejaVuSans-30" x="286.279297"/>
     <use xlink:href="#DejaVuSans-37" x="349.902344"/>
     <use xlink:href="#DejaVuSans-33" x="413.525391"/>
    </g>
   </g>
   <g id="text_44">
    <!-- 332.1445 -->
    <g transform="translate(322.405223 266.863329) scale(0.06 -0.06)">
     <use xlink:href="#DejaVuSans-33"/>
     <use xlink:href="#DejaVuSans-33" x="63.623047"/>
     <use xlink:href="#DejaVuSans-32" x="127.246094"/>
     <use xlink:href="#DejaVuSans-2e" x="190.869141"/>
     <use xlink:href="#DejaVuSans-31" x="222.65625"/>
     <use xlink:href="#DejaVuSans-34" x="286.279297"/>
     <use xlink:href="#DejaVuSans-34" x="349.902344"/>
     <use xlink:href="#DejaVuSans-35" x="413.525391"/>
    </g>
   </g>
   <g id="text_45">
    <!-- 349.1104 -->
    <g transform="translate(334.870573 248.265746) scale(0.06 -0.06)">
     <use xlink:href="#DejaVuSans-33"/>
     <use xlink:href="#DejaVuSans-34" x="63.623047"/>
     <use xlink:href="#DejaVuSans-39" x="127.246094"/>
     <use xlink:href="#DejaVuSans-2e" x="190.869141"/>
     <use xlink:href="#DejaVuSans-31" x="222.65625"/>
     <use xlink:href="#DejaVuSans-31" x="286.279297"/>
     <use xlink:href="#DejaVuSans-30" x="349.902344"/>
     <use xlink:href="#DejaVuSans-34" x="413.525391"/>
    </g>
   </g>
   <g id="text_46">
    <!-- 350.118 -->
    <g transform="translate(336.250622 162.16602) scale(0.06 -0.06)">
     <use xlink:href="#DejaVuSans-33"/>
     <use xlink:href="#DejaVuSans-35" x="63.623047"/>
     <use xlink:href="#DejaVuSans-30" x="127.246094"/>
     <use xlink:href="#DejaVuSans-2e" x="190.869141"/>
     <use xlink:href="#DejaVuSans-31" x="222.65625"/>
     <use xlink:href="#DejaVuSans-31" x="286.279297"/>
     <use xlink:href="#DejaVuSans-38" x="349.902344"/>
    </g>
   </g>
   <g id="text_47">
    <!-- 366.1855 -->
    <g transform="translate(325.834684 273.955214) scale(0.06 -0.06)">
     <use xlink:href="#DejaVuSans-33"/>
     <use xlink:href="#DejaVuSans-36" x="63.623047"/>
     <use xlink:href="#DejaVuSans-36" x="127.246094"/>
     <use xlink:href="#DejaVuSans-2e" x="190.869141"/>
     <use xlink:href="#DejaVuSans-31" x="222.65625"/>
     <use xlink:href="#DejaVuSans-38" x="286.279297"/>
     <use xlink:href="#DejaVuSans-35" x="349.902344"/>
     <use xlink:href="#DejaVuSans-35" x="413.525391"/>
    </g>
   </g>
   <g id="text_48">
    <!-- 367.1207 -->
    <g transform="translate(351.160482 285.510588) scale(0.06 -0.06)">
     <use xlink:href="#DejaVuSans-33"/>
     <use xlink:href="#DejaVuSans-36" x="63.623047"/>
     <use xlink:href="#DejaVuSans-37" x="127.246094"/>
     <use xlink:href="#DejaVuSans-2e" x="190.869141"/>
     <use xlink:href="#DejaVuSans-31" x="222.65625"/>
     <use xlink:href="#DejaVuSans-32" x="286.279297"/>
     <use xlink:href="#DejaVuSans-30" x="349.902344"/>
     <use xlink:href="#DejaVuSans-37" x="413.525391"/>
    </g>
   </g>
   <g id="text_49">
    <!-- 368.1284 -->
    <g transform="translate(351.352002 271.303282) scale(0.06 -0.06)">
     <use xlink:href="#DejaVuSans-33"/>
     <use xlink:href="#DejaVuSans-36" x="63.623047"/>
     <use xlink:href="#DejaVuSans-38" x="127.246094"/>
     <use xlink:href="#DejaVuSans-2e" x="190.869141"/>
     <use xlink:href="#DejaVuSans-31" x="222.65625"/>
     <use xlink:href="#DejaVuSans-32" x="286.279297"/>
     <use xlink:href="#DejaVuSans-38" x="349.902344"/>
     <use xlink:href="#DejaVuSans-34" x="413.525391"/>
    </g>
   </g>
   <g id="text_50">
    <!-- 392.165 -->
    <g transform="translate(374.281398 89.28239) scale(0.06 -0.06)">
     <use xlink:href="#DejaVuSans-33"/>
     <use xlink:href="#DejaVuSans-39" x="63.623047"/>
     <use xlink:href="#DejaVuSans-32" x="127.246094"/>
     <use xlink:href="#DejaVuSans-2e" x="190.869141"/>
     <use xlink:href="#DejaVuSans-31" x="222.65625"/>
     <use xlink:href="#DejaVuSans-36" x="286.279297"/>
     <use xlink:href="#DejaVuSans-35" x="349.902344"/>
    </g>
   </g>
   <g id="text_51">
    <!-- 393.1685 -->
    <g transform="translate(379.760248 262.359606) scale(0.06 -0.06)">
     <use xlink:href="#DejaVuSans-33"/>
     <use xlink:href="#DejaVuSans-39" x="63.623047"/>
     <use xlink:href="#DejaVuSans-33" x="127.246094"/>
     <use xlink:href="#DejaVuSans-2e" x="190.869141"/>
     <use xlink:href="#DejaVuSans-31" x="222.65625"/>
     <use xlink:href="#DejaVuSans-36" x="286.279297"/>
     <use xlink:href="#DejaVuSans-38" x="349.902344"/>
     <use xlink:href="#DejaVuSans-35" x="413.525391"/>
    </g>
   </g>
   <g id="text_52">
    <!-- 410.1757 -->
    <g transform="translate(386.230312 50.939625) scale(0.06 -0.06)">
     <use xlink:href="#DejaVuSans-34"/>
     <use xlink:href="#DejaVuSans-31" x="63.623047"/>
     <use xlink:href="#DejaVuSans-30" x="127.246094"/>
     <use xlink:href="#DejaVuSans-2e" x="190.869141"/>
     <use xlink:href="#DejaVuSans-31" x="222.65625"/>
     <use xlink:href="#DejaVuSans-37" x="286.279297"/>
     <use xlink:href="#DejaVuSans-35" x="349.902344"/>
     <use xlink:href="#DejaVuSans-37" x="413.525391"/>
    </g>
   </g>
   <g id="text_53">
    <!-- 411.1794 -->
    <g transform="translate(386.230312 253.477848) scale(0.06 -0.06)">
     <use xlink:href="#DejaVuSans-34"/>
     <use xlink:href="#DejaVuSans-31" x="63.623047"/>
     <use xlink:href="#DejaVuSans-31" x="127.246094"/>
     <use xlink:href="#DejaVuSans-2e" x="190.869141"/>
     <use xlink:href="#DejaVuSans-31" x="222.65625"/>
     <use xlink:href="#DejaVuSans-37" x="286.279297"/>
     <use xlink:href="#DejaVuSans-39" x="349.902344"/>
     <use xlink:href="#DejaVuSans-34" x="413.525391"/>
    </g>
   </g>
   <g id="text_54">
    <!-- MS2 spectrum of ${m/z}$ 410.1748, scan time 7.79 min. -->
    <g transform="translate(57.6 24.873562) scale(0.12 -0.12)">
     <defs>
      <path id="DejaVuSans-4d" d="M 628 4666 
L 1569 4666 
L 2759 1491 
L 3956 4666 
L 4897 4666 
L 4897 0 
L 4281 0 
L 4281 4097 
L 3078 897 
L 2444 897 
L 1241 4097 
L 1241 0 
L 628 0 
L 628 4666 
z
" transform="scale(0.015625)"/>
      <path id="DejaVuSans-53" d="M 3425 4513 
L 3425 3897 
Q 3066 4069 2747 4153 
Q 2428 4238 2131 4238 
Q 1616 4238 1336 4038 
Q 1056 3838 1056 3469 
Q 1056 3159 1242 3001 
Q 1428 2844 1947 2747 
L 2328 2669 
Q 3034 2534 3370 2195 
Q 3706 1856 3706 1288 
Q 3706 609 3251 259 
Q 2797 -91 1919 -91 
Q 1588 -91 1214 -16 
Q 841 59 441 206 
L 441 856 
Q 825 641 1194 531 
Q 1563 422 1919 422 
Q 2459 422 2753 634 
Q 3047 847 3047 1241 
Q 3047 1584 2836 1778 
Q 2625 1972 2144 2069 
L 1759 2144 
Q 1053 2284 737 2584 
Q 422 2884 422 3419 
Q 422 4038 858 4394 
Q 1294 4750 2059 4750 
Q 2388 4750 2728 4690 
Q 3069 4631 3425 4513 
z
" transform="scale(0.015625)"/>
      <path id="DejaVuSans-20" transform="scale(0.015625)"/>
      <path id="DejaVuSans-70" d="M 1159 525 
L 1159 -1331 
L 581 -1331 
L 581 3500 
L 1159 3500 
L 1159 2969 
Q 1341 3281 1617 3432 
Q 1894 3584 2278 3584 
Q 2916 3584 3314 3078 
Q 3713 2572 3713 1747 
Q 3713 922 3314 415 
Q 2916 -91 2278 -91 
Q 1894 -91 1617 61 
Q 1341 213 1159 525 
z
M 3116 1747 
Q 3116 2381 2855 2742 
Q 2594 3103 2138 3103 
Q 1681 3103 1420 2742 
Q 1159 2381 1159 1747 
Q 1159 1113 1420 752 
Q 1681 391 2138 391 
Q 2594 391 2855 752 
Q 3116 1113 3116 1747 
z
" transform="scale(0.015625)"/>
      <path id="DejaVuSans-63" d="M 3122 3366 
L 3122 2828 
Q 2878 2963 2633 3030 
Q 2388 3097 2138 3097 
Q 1578 3097 1268 2742 
Q 959 2388 959 1747 
Q 959 1106 1268 751 
Q 1578 397 2138 397 
Q 2388 397 2633 464 
Q 2878 531 3122 666 
L 3122 134 
Q 2881 22 2623 -34 
Q 2366 -91 2075 -91 
Q 1284 -91 818 406 
Q 353 903 353 1747 
Q 353 2603 823 3093 
Q 1294 3584 2113 3584 
Q 2378 3584 2631 3529 
Q 2884 3475 3122 3366 
z
" transform="scale(0.015625)"/>
      <path id="DejaVuSans-72" d="M 2631 2963 
Q 2534 3019 2420 3045 
Q 2306 3072 2169 3072 
Q 1681 3072 1420 2755 
Q 1159 2438 1159 1844 
L 1159 0 
L 581 0 
L 581 3500 
L 1159 3500 
L 1159 2956 
Q 1341 3275 1631 3429 
Q 1922 3584 2338 3584 
Q 2397 3584 2469 3576 
Q 2541 3569 2628 3553 
L 2631 2963 
z
" transform="scale(0.015625)"/>
      <path id="DejaVuSans-75" d="M 544 1381 
L 544 3500 
L 1119 3500 
L 1119 1403 
Q 1119 906 1312 657 
Q 1506 409 1894 409 
Q 2359 409 2629 706 
Q 2900 1003 2900 1516 
L 2900 3500 
L 3475 3500 
L 3475 0 
L 2900 0 
L 2900 538 
Q 2691 219 2414 64 
Q 2138 -91 1772 -91 
Q 1169 -91 856 284 
Q 544 659 544 1381 
z
M 1991 3584 
L 1991 3584 
z
" transform="scale(0.015625)"/>
      <path id="DejaVuSans-6d" d="M 3328 2828 
Q 3544 3216 3844 3400 
Q 4144 3584 4550 3584 
Q 5097 3584 5394 3201 
Q 5691 2819 5691 2113 
L 5691 0 
L 5113 0 
L 5113 2094 
Q 5113 2597 4934 2840 
Q 4756 3084 4391 3084 
Q 3944 3084 3684 2787 
Q 3425 2491 3425 1978 
L 3425 0 
L 2847 0 
L 2847 2094 
Q 2847 2600 2669 2842 
Q 2491 3084 2119 3084 
Q 1678 3084 1418 2786 
Q 1159 2488 1159 1978 
L 1159 0 
L 581 0 
L 581 3500 
L 1159 3500 
L 1159 2956 
Q 1356 3278 1631 3431 
Q 1906 3584 2284 3584 
Q 2666 3584 2933 3390 
Q 3200 3197 3328 2828 
z
" transform="scale(0.015625)"/>
      <path id="DejaVuSans-6f" d="M 1959 3097 
Q 1497 3097 1228 2736 
Q 959 2375 959 1747 
Q 959 1119 1226 758 
Q 1494 397 1959 397 
Q 2419 397 2687 759 
Q 2956 1122 2956 1747 
Q 2956 2369 2687 2733 
Q 2419 3097 1959 3097 
z
M 1959 3584 
Q 2709 3584 3137 3096 
Q 3566 2609 3566 1747 
Q 3566 888 3137 398 
Q 2709 -91 1959 -91 
Q 1206 -91 779 398 
Q 353 888 353 1747 
Q 353 2609 779 3096 
Q 1206 3584 1959 3584 
z
" transform="scale(0.015625)"/>
      <path id="DejaVuSans-66" d="M 2375 4863 
L 2375 4384 
L 1825 4384 
Q 1516 4384 1395 4259 
Q 1275 4134 1275 3809 
L 1275 3500 
L 2222 3500 
L 2222 3053 
L 1275 3053 
L 1275 0 
L 697 0 
L 697 3053 
L 147 3053 
L 147 3500 
L 697 3500 
L 697 3744 
Q 697 4328 969 4595 
Q 1241 4863 1831 4863 
L 2375 4863 
z
" transform="scale(0.015625)"/>
      <path id="DejaVuSans-2c" d="M 750 794 
L 1409 794 
L 1409 256 
L 897 -744 
L 494 -744 
L 750 256 
L 750 794 
z
" transform="scale(0.015625)"/>
      <path id="DejaVuSans-61" d="M 2194 1759 
Q 1497 1759 1228 1600 
Q 959 1441 959 1056 
Q 959 750 1161 570 
Q 1363 391 1709 391 
Q 2188 391 2477 730 
Q 2766 1069 2766 1631 
L 2766 1759 
L 2194 1759 
z
M 3341 1997 
L 3341 0 
L 2766 0 
L 2766 531 
Q 2569 213 2275 61 
Q 1981 -91 1556 -91 
Q 1019 -91 701 211 
Q 384 513 384 1019 
Q 384 1609 779 1909 
Q 1175 2209 1959 2209 
L 2766 2209 
L 2766 2266 
Q 2766 2663 2505 2880 
Q 2244 3097 1772 3097 
Q 1472 3097 1187 3025 
Q 903 2953 641 2809 
L 641 3341 
Q 956 3463 1253 3523 
Q 1550 3584 1831 3584 
Q 2591 3584 2966 3190 
Q 3341 2797 3341 1997 
z
" transform="scale(0.015625)"/>
     </defs>
     <use xlink:href="#DejaVuSans-4d" transform="translate(0 0.015625)"/>
     <use xlink:href="#DejaVuSans-53" transform="translate(86.279297 0.015625)"/>
     <use xlink:href="#DejaVuSans-32" transform="translate(149.755859 0.015625)"/>
     <use xlink:href="#DejaVuSans-20" transform="translate(213.378906 0.015625)"/>
     <use xlink:href="#DejaVuSans-73" transform="translate(245.166016 0.015625)"/>
     <use xlink:href="#DejaVuSans-70" transform="translate(297.265625 0.015625)"/>
     <use xlink:href="#DejaVuSans-65" transform="translate(360.742188 0.015625)"/>
     <use xlink:href="#DejaVuSans-63" transform="translate(422.265625 0.015625)"/>
     <use xlink:href="#DejaVuSans-74" transform="translate(477.246094 0.015625)"/>
     <use xlink:href="#DejaVuSans-72" transform="translate(516.455078 0.015625)"/>
     <use xlink:href="#DejaVuSans-75" transform="translate(557.568359 0.015625)"/>
     <use xlink:href="#DejaVuSans-6d" transform="translate(620.947266 0.015625)"/>
     <use xlink:href="#DejaVuSans-20" transform="translate(718.359375 0.015625)"/>
     <use xlink:href="#DejaVuSans-6f" transform="translate(750.146484 0.015625)"/>
     <use xlink:href="#DejaVuSans-66" transform="translate(811.328125 0.015625)"/>
     <use xlink:href="#DejaVuSans-20" transform="translate(846.533203 0.015625)"/>
     <use xlink:href="#DejaVuSans-Oblique-6d" transform="translate(878.320312 0.015625)"/>
     <use xlink:href="#DejaVuSans-2f" transform="translate(975.732422 0.015625)"/>
     <use xlink:href="#DejaVuSans-Oblique-7a" transform="translate(1009.423828 0.015625)"/>
     <use xlink:href="#DejaVuSans-20" transform="translate(1061.914062 0.015625)"/>
     <use xlink:href="#DejaVuSans-34" transform="translate(1093.701172 0.015625)"/>
     <use xlink:href="#DejaVuSans-31" transform="translate(1157.324219 0.015625)"/>
     <use xlink:href="#DejaVuSans-30" transform="translate(1220.947266 0.015625)"/>
     <use xlink:href="#DejaVuSans-2e" transform="translate(1284.570312 0.015625)"/>
     <use xlink:href="#DejaVuSans-31" transform="translate(1316.357422 0.015625)"/>
     <use xlink:href="#DejaVuSans-37" transform="translate(1379.980469 0.015625)"/>
     <use xlink:href="#DejaVuSans-34" transform="translate(1443.603516 0.015625)"/>
     <use xlink:href="#DejaVuSans-38" transform="translate(1507.226562 0.015625)"/>
     <use xlink:href="#DejaVuSans-2c" transform="translate(1570.849609 0.015625)"/>
     <use xlink:href="#DejaVuSans-20" transform="translate(1602.636719 0.015625)"/>
     <use xlink:href="#DejaVuSans-73" transform="translate(1634.423828 0.015625)"/>
     <use xlink:href="#DejaVuSans-63" transform="translate(1686.523438 0.015625)"/>
     <use xlink:href="#DejaVuSans-61" transform="translate(1741.503906 0.015625)"/>
     <use xlink:href="#DejaVuSans-6e" transform="translate(1802.783203 0.015625)"/>
     <use xlink:href="#DejaVuSans-20" transform="translate(1866.162109 0.015625)"/>
     <use xlink:href="#DejaVuSans-74" transform="translate(1897.949219 0.015625)"/>
     <use xlink:href="#DejaVuSans-69" transform="translate(1937.158203 0.015625)"/>
     <use xlink:href="#DejaVuSans-6d" transform="translate(1964.941406 0.015625)"/>
     <use xlink:href="#DejaVuSans-65" transform="translate(2062.353516 0.015625)"/>
     <use xlink:href="#DejaVuSans-20" transform="translate(2123.876953 0.015625)"/>
     <use xlink:href="#DejaVuSans-37" transform="translate(2155.664062 0.015625)"/>
     <use xlink:href="#DejaVuSans-2e" transform="translate(2219.287109 0.015625)"/>
     <use xlink:href="#DejaVuSans-37" transform="translate(2243.324219 0.015625)"/>
     <use xlink:href="#DejaVuSans-39" transform="translate(2306.947266 0.015625)"/>
     <use xlink:href="#DejaVuSans-20" transform="translate(2370.570312 0.015625)"/>
     <use xlink:href="#DejaVuSans-6d" transform="translate(2402.357422 0.015625)"/>
     <use xlink:href="#DejaVuSans-69" transform="translate(2499.769531 0.015625)"/>
     <use xlink:href="#DejaVuSans-6e" transform="translate(2527.552734 0.015625)"/>
     <use xlink:href="#DejaVuSans-2e" transform="translate(2590.931641 0.015625)"/>
    </g>
   </g>
  </g>
 </g>
 <defs>
  <clipPath id="pee31ca4d1c">
   <rect x="57.6" y="41.472" width="357.12" height="266.112"/>
  </clipPath>
 </defs>
</svg>
