<?xml version="1.0" encoding="utf-8" standalone="no"?>
<!DOCTYPE svg PUBLIC "-//W3C//DTD SVG 1.1//EN"
  "http://www.w3.org/Graphics/SVG/1.1/DTD/svg11.dtd">
<svg xmlns:xlink="http://www.w3.org/1999/xlink" width="460.8pt" height="345.6pt" viewBox="0 0 460.8 345.6" xmlns="http://www.w3.org/2000/svg" version="1.1">
 <metadata>
  <rdf:RDF xmlns:dc="http://purl.org/dc/elements/1.1/" xmlns:cc="http://creativecommons.org/ns#" xmlns:rdf="http://www.w3.org/1999/02/22-rdf-syntax-ns#">
   <cc:Work>
    <dc:type rdf:resource="http://purl.org/dc/dcmitype/StillImage"/>
    <dc:date>2025-01-11T12:52:29.935264</dc:date>
    <dc:format>image/svg+xml</dc:format>
    <dc:creator>
     <cc:Agent>
      <dc:title>Matplotlib v3.7.3, https://matplotlib.org/</dc:title>
     </cc:Agent>
    </dc:creator>
   </cc:Work>
  </rdf:RDF>
 </metadata>
 <defs>
  <style type="text/css">*{stroke-linejoin: round; stroke-linecap: butt}</style>
 </defs>
 <g id="figure_1">
  <g id="patch_1">
   <path d="M 0 345.6 
L 460.8 345.6 
L 460.8 0 
L 0 0 
z
" style="fill: #ffffff"/>
  </g>
  <g id="axes_1">
   <g id="patch_2">
    <path d="M 57.6 307.584 
L 414.72 307.584 
L 414.72 41.472 
L 57.6 41.472 
z
" style="fill: #ffffff"/>
   </g>
   <g id="patch_3">
    <path d="M 73.832727 307.584 
L 74.688287 307.584 
L 74.688287 305.983648 
L 73.832727 305.983648 
z
" clip-path="url(#pee42ae3043)" style="fill: #1f77b4"/>
   </g>
   <g id="patch_4">
    <path d="M 76.691617 307.584 
L 77.547177 307.584 
L 77.547177 302.944545 
L 76.691617 302.944545 
z
" clip-path="url(#pee42ae3043)" style="fill: #1f77b4"/>
   </g>
   <g id="patch_5">
    <path d="M 81.953419 307.584 
L 82.808979 307.584 
L 82.808979 305.820943 
L 81.953419 305.820943 
z
" clip-path="url(#pee42ae3043)" style="fill: #1f77b4"/>
   </g>
   <g id="patch_6">
    <path d="M 82.912699 307.584 
L 83.768259 307.584 
L 83.768259 305.377149 
L 82.912699 305.377149 
z
" clip-path="url(#pee42ae3043)" style="fill: #1f77b4"/>
   </g>
   <g id="patch_7">
    <path d="M 84.624397 307.584 
L 85.479957 307.584 
L 85.479957 305.473478 
L 84.624397 305.473478 
z
" clip-path="url(#pee42ae3043)" style="fill: #1f77b4"/>
   </g>
   <g id="patch_8">
    <path d="M 91.436818 307.584 
L 92.292378 307.584 
L 92.292378 305.330538 
L 91.436818 305.330538 
z
" clip-path="url(#pee42ae3043)" style="fill: #1f77b4"/>
   </g>
   <g id="patch_9">
    <path d="M 95.913973 307.584 
L 96.769533 307.584 
L 96.769533 185.396548 
L 95.913973 185.396548 
z
" clip-path="url(#pee42ae3043)" style="fill: #1f77b4"/>
   </g>
   <g id="patch_10">
    <path d="M 95.917898 307.584 
L 96.773458 307.584 
L 96.773458 305.594594 
L 95.917898 305.594594 
z
" clip-path="url(#pee42ae3043)" style="fill: #1f77b4"/>
   </g>
   <g id="patch_11">
    <path d="M 96.98703 307.584 
L 97.84259 307.584 
L 97.84259 303.873892 
L 96.98703 303.873892 
z
" clip-path="url(#pee42ae3043)" style="fill: #1f77b4"/>
   </g>
   <g id="patch_12">
    <path d="M 98.892812 307.584 
L 99.748372 307.584 
L 99.748372 305.832595 
L 98.892812 305.832595 
z
" clip-path="url(#pee42ae3043)" style="fill: #1f77b4"/>
   </g>
   <g id="patch_13">
    <path d="M 104.51321 307.584 
L 105.36877 307.584 
L 105.36877 305.328044 
L 104.51321 305.328044 
z
" clip-path="url(#pee42ae3043)" style="fill: #1f77b4"/>
   </g>
   <g id="patch_14">
    <path d="M 106.630529 307.584 
L 107.486089 307.584 
L 107.486089 236.099186 
L 106.630529 236.099186 
z
" clip-path="url(#pee42ae3043)" style="fill: #1f77b4"/>
   </g>
   <g id="patch_15">
    <path d="M 115.175155 307.584 
L 116.030715 307.584 
L 116.030715 215.110724 
L 115.175155 215.110724 
z
" clip-path="url(#pee42ae3043)" style="fill: #1f77b4"/>
   </g>
   <g id="patch_16">
    <path d="M 116.248032 307.584 
L 117.103592 307.584 
L 117.103592 305.310143 
L 116.248032 305.310143 
z
" clip-path="url(#pee42ae3043)" style="fill: #1f77b4"/>
   </g>
   <g id="patch_17">
    <path d="M 121.619026 307.584 
L 122.474586 307.584 
L 122.474586 301.945219 
L 121.619026 301.945219 
z
" clip-path="url(#pee42ae3043)" style="fill: #1f77b4"/>
   </g>
   <g id="patch_18">
    <path d="M 123.774963 307.584 
L 124.630523 307.584 
L 124.630523 284.668661 
L 123.774963 284.668661 
z
" clip-path="url(#pee42ae3043)" style="fill: #1f77b4"/>
   </g>
   <g id="patch_19">
    <path d="M 132.296793 307.584 
L 133.152353 307.584 
L 133.152353 301.66656 
L 132.296793 301.66656 
z
" clip-path="url(#pee42ae3043)" style="fill: #1f77b4"/>
   </g>
   <g id="patch_20">
    <path d="M 136.58693 307.584 
L 137.44249 307.584 
L 137.44249 304.53171 
L 136.58693 304.53171 
z
" clip-path="url(#pee42ae3043)" style="fill: #1f77b4"/>
   </g>
   <g id="patch_21">
    <path d="M 142.841523 307.584 
L 143.697083 307.584 
L 143.697083 305.745383 
L 142.841523 305.745383 
z
" clip-path="url(#pee42ae3043)" style="fill: #1f77b4"/>
   </g>
   <g id="patch_22">
    <path d="M 146.880616 307.584 
L 147.736176 307.584 
L 147.736176 305.616366 
L 146.880616 305.616366 
z
" clip-path="url(#pee42ae3043)" style="fill: #1f77b4"/>
   </g>
   <g id="patch_23">
    <path d="M 150.484486 307.584 
L 151.340046 307.584 
L 151.340046 290.512996 
L 150.484486 290.512996 
z
" clip-path="url(#pee42ae3043)" style="fill: #1f77b4"/>
   </g>
   <g id="patch_24">
    <path d="M 151.557755 307.584 
L 152.413315 307.584 
L 152.413315 298.178429 
L 151.557755 298.178429 
z
" clip-path="url(#pee42ae3043)" style="fill: #1f77b4"/>
   </g>
   <g id="patch_25">
    <path d="M 159.066662 307.584 
L 159.922222 307.584 
L 159.922222 304.411915 
L 159.066662 304.411915 
z
" clip-path="url(#pee42ae3043)" style="fill: #1f77b4"/>
   </g>
   <g id="patch_26">
    <path d="M 170.819549 307.584 
L 171.675109 307.584 
L 171.675109 280.028255 
L 170.819549 280.028255 
z
" clip-path="url(#pee42ae3043)" style="fill: #1f77b4"/>
   </g>
   <g id="patch_27">
    <path d="M 170.835721 307.584 
L 171.691281 307.584 
L 171.691281 292.207153 
L 170.835721 292.207153 
z
" clip-path="url(#pee42ae3043)" style="fill: #1f77b4"/>
   </g>
   <g id="patch_28">
    <path d="M 172.990727 307.584 
L 173.846287 307.584 
L 173.846287 303.864122 
L 172.990727 303.864122 
z
" clip-path="url(#pee42ae3043)" style="fill: #1f77b4"/>
   </g>
   <g id="patch_29">
    <path d="M 177.240688 307.584 
L 178.096248 307.584 
L 178.096248 304.899672 
L 177.240688 304.899672 
z
" clip-path="url(#pee42ae3043)" style="fill: #1f77b4"/>
   </g>
   <g id="patch_30">
    <path d="M 184.733187 307.584 
L 185.588747 307.584 
L 185.588747 303.965127 
L 184.733187 303.965127 
z
" clip-path="url(#pee42ae3043)" style="fill: #1f77b4"/>
   </g>
   <g id="patch_31">
    <path d="M 185.824129 307.584 
L 186.679689 307.584 
L 186.679689 304.260409 
L 185.824129 304.260409 
z
" clip-path="url(#pee42ae3043)" style="fill: #1f77b4"/>
   </g>
   <g id="patch_32">
    <path d="M 196.502376 307.584 
L 197.357937 307.584 
L 197.357937 304.567732 
L 196.502376 304.567732 
z
" clip-path="url(#pee42ae3043)" style="fill: #1f77b4"/>
   </g>
   <g id="patch_33">
    <path d="M 198.367942 307.584 
L 199.223502 307.584 
L 199.223502 305.654771 
L 198.367942 305.654771 
z
" clip-path="url(#pee42ae3043)" style="fill: #1f77b4"/>
   </g>
   <g id="patch_34">
    <path d="M 198.657073 307.584 
L 199.512633 307.584 
L 199.512633 304.913858 
L 198.657073 304.913858 
z
" clip-path="url(#pee42ae3043)" style="fill: #1f77b4"/>
   </g>
   <g id="patch_35">
    <path d="M 199.722166 307.584 
L 200.577726 307.584 
L 200.577726 299.22536 
L 199.722166 299.22536 
z
" clip-path="url(#pee42ae3043)" style="fill: #1f77b4"/>
   </g>
   <g id="patch_36">
    <path d="M 212.557003 307.584 
L 213.412564 307.584 
L 213.412564 305.232063 
L 212.557003 305.232063 
z
" clip-path="url(#pee42ae3043)" style="fill: #1f77b4"/>
   </g>
   <g id="patch_37">
    <path d="M 225.389736 307.584 
L 226.245296 307.584 
L 226.245296 305.05012 
L 225.389736 305.05012 
z
" clip-path="url(#pee42ae3043)" style="fill: #1f77b4"/>
   </g>
   <g id="patch_38">
    <path d="M 230.73072 307.584 
L 231.58628 307.584 
L 231.58628 301.070982 
L 230.73072 301.070982 
z
" clip-path="url(#pee42ae3043)" style="fill: #1f77b4"/>
   </g>
   <g id="patch_39">
    <path d="M 240.949308 307.584 
L 241.804868 307.584 
L 241.804868 305.412703 
L 240.949308 305.412703 
z
" clip-path="url(#pee42ae3043)" style="fill: #1f77b4"/>
   </g>
   <g id="patch_40">
    <path d="M 245.706971 307.584 
L 246.562531 307.584 
L 246.562531 104.831826 
L 245.706971 104.831826 
z
" clip-path="url(#pee42ae3043)" style="fill: #1f77b4"/>
   </g>
   <g id="patch_41">
    <path d="M 246.783911 307.584 
L 247.639471 307.584 
L 247.639471 242.763803 
L 246.783911 242.763803 
z
" clip-path="url(#pee42ae3043)" style="fill: #1f77b4"/>
   </g>
   <g id="patch_42">
    <path d="M 247.857898 307.584 
L 248.713458 307.584 
L 248.713458 302.57318 
L 247.857898 302.57318 
z
" clip-path="url(#pee42ae3043)" style="fill: #1f77b4"/>
   </g>
   <g id="patch_43">
    <path d="M 257.462648 307.584 
L 258.318208 307.584 
L 258.318208 260.394277 
L 257.462648 260.394277 
z
" clip-path="url(#pee42ae3043)" style="fill: #1f77b4"/>
   </g>
   <g id="patch_44">
    <path d="M 258.53794 307.584 
L 259.393501 307.584 
L 259.393501 298.587949 
L 258.53794 298.587949 
z
" clip-path="url(#pee42ae3043)" style="fill: #1f77b4"/>
   </g>
   <g id="patch_45">
    <path d="M 259.618063 307.584 
L 260.473623 307.584 
L 260.473623 265.144447 
L 259.618063 265.144447 
z
" clip-path="url(#pee42ae3043)" style="fill: #1f77b4"/>
   </g>
   <g id="patch_46">
    <path d="M 260.690467 307.584 
L 261.546027 307.584 
L 261.546027 300.058377 
L 260.690467 300.058377 
z
" clip-path="url(#pee42ae3043)" style="fill: #1f77b4"/>
   </g>
   <g id="patch_47">
    <path d="M 261.355511 307.584 
L 262.211071 307.584 
L 262.211071 305.4932 
L 261.355511 305.4932 
z
" clip-path="url(#pee42ae3043)" style="fill: #1f77b4"/>
   </g>
   <g id="patch_48">
    <path d="M 271.373773 307.584 
L 272.229333 307.584 
L 272.229333 213.061725 
L 271.373773 213.061725 
z
" clip-path="url(#pee42ae3043)" style="fill: #1f77b4"/>
   </g>
   <g id="patch_49">
    <path d="M 272.45055 307.584 
L 273.30611 307.584 
L 273.30611 260.852637 
L 272.45055 260.852637 
z
" clip-path="url(#pee42ae3043)" style="fill: #1f77b4"/>
   </g>
   <g id="patch_50">
    <path d="M 273.52457 307.584 
L 274.38013 307.584 
L 274.38013 303.185613 
L 273.52457 303.185613 
z
" clip-path="url(#pee42ae3043)" style="fill: #1f77b4"/>
   </g>
   <g id="patch_51">
    <path d="M 278.875557 307.584 
L 279.731117 307.584 
L 279.731117 305.586006 
L 278.875557 305.586006 
z
" clip-path="url(#pee42ae3043)" style="fill: #1f77b4"/>
   </g>
   <g id="patch_52">
    <path d="M 285.284931 307.584 
L 286.140491 307.584 
L 286.140491 203.47975 
L 285.284931 203.47975 
z
" clip-path="url(#pee42ae3043)" style="fill: #1f77b4"/>
   </g>
   <g id="patch_53">
    <path d="M 286.361675 307.584 
L 287.217235 307.584 
L 287.217235 270.052268 
L 286.361675 270.052268 
z
" clip-path="url(#pee42ae3043)" style="fill: #1f77b4"/>
   </g>
   <g id="patch_54">
    <path d="M 287.440541 307.584 
L 288.296101 307.584 
L 288.296101 230.474951 
L 287.440541 230.474951 
z
" clip-path="url(#pee42ae3043)" style="fill: #1f77b4"/>
   </g>
   <g id="patch_55">
    <path d="M 288.5135 307.584 
L 289.36906 307.584 
L 289.36906 296.812271 
L 288.5135 296.812271 
z
" clip-path="url(#pee42ae3043)" style="fill: #1f77b4"/>
   </g>
   <g id="patch_56">
    <path d="M 291.711341 307.584 
L 292.566901 307.584 
L 292.566901 283.854707 
L 291.711341 283.854707 
z
" clip-path="url(#pee42ae3043)" style="fill: #1f77b4"/>
   </g>
   <g id="patch_57">
    <path d="M 292.787335 307.584 
L 293.642895 307.584 
L 293.642895 303.753857 
L 292.787335 303.753857 
z
" clip-path="url(#pee42ae3043)" style="fill: #1f77b4"/>
   </g>
   <g id="patch_58">
    <path d="M 297.040413 307.584 
L 297.895973 307.584 
L 297.895973 293.426168 
L 297.040413 293.426168 
z
" clip-path="url(#pee42ae3043)" style="fill: #1f77b4"/>
   </g>
   <g id="patch_59">
    <path d="M 298.117369 307.584 
L 298.972929 307.584 
L 298.972929 298.353174 
L 298.117369 298.353174 
z
" clip-path="url(#pee42ae3043)" style="fill: #1f77b4"/>
   </g>
   <g id="patch_60">
    <path d="M 299.196154 307.584 
L 300.051714 307.584 
L 300.051714 293.13014 
L 299.196154 293.13014 
z
" clip-path="url(#pee42ae3043)" style="fill: #1f77b4"/>
   </g>
   <g id="patch_61">
    <path d="M 300.273469 307.584 
L 301.129029 307.584 
L 301.129029 282.274485 
L 300.273469 282.274485 
z
" clip-path="url(#pee42ae3043)" style="fill: #1f77b4"/>
   </g>
   <g id="patch_62">
    <path d="M 301.347946 307.584 
L 302.203506 307.584 
L 302.203506 305.384505 
L 301.347946 305.384505 
z
" clip-path="url(#pee42ae3043)" style="fill: #1f77b4"/>
   </g>
   <g id="patch_63">
    <path d="M 302.429635 307.584 
L 303.285195 307.584 
L 303.285195 155.21245 
L 302.429635 155.21245 
z
" clip-path="url(#pee42ae3043)" style="fill: #1f77b4"/>
   </g>
   <g id="patch_64">
    <path d="M 302.473694 307.584 
L 303.329255 307.584 
L 303.329255 304.859232 
L 302.473694 304.859232 
z
" clip-path="url(#pee42ae3043)" style="fill: #1f77b4"/>
   </g>
   <g id="patch_65">
    <path d="M 303.50212 307.584 
L 304.35768 307.584 
L 304.35768 290.16824 
L 303.50212 290.16824 
z
" clip-path="url(#pee42ae3043)" style="fill: #1f77b4"/>
   </g>
   <g id="patch_66">
    <path d="M 306.700255 307.584 
L 307.555815 307.584 
L 307.555815 294.554623 
L 306.700255 294.554623 
z
" clip-path="url(#pee42ae3043)" style="fill: #1f77b4"/>
   </g>
   <g id="patch_67">
    <path d="M 309.887261 307.584 
L 310.742821 307.584 
L 310.742821 304.568088 
L 309.887261 304.568088 
z
" clip-path="url(#pee42ae3043)" style="fill: #1f77b4"/>
   </g>
   <g id="patch_68">
    <path d="M 310.950738 307.584 
L 311.806298 307.584 
L 311.806298 289.119268 
L 310.950738 289.119268 
z
" clip-path="url(#pee42ae3043)" style="fill: #1f77b4"/>
   </g>
   <g id="patch_69">
    <path d="M 312.028706 307.584 
L 312.884267 307.584 
L 312.884267 273.911464 
L 312.028706 273.911464 
z
" clip-path="url(#pee42ae3043)" style="fill: #1f77b4"/>
   </g>
   <g id="patch_70">
    <path d="M 313.107132 307.584 
L 313.962692 307.584 
L 313.962692 98.282828 
L 313.107132 98.282828 
z
" clip-path="url(#pee42ae3043)" style="fill: #1f77b4"/>
   </g>
   <g id="patch_71">
    <path d="M 314.181673 307.584 
L 315.037233 307.584 
L 315.037233 258.115802 
L 314.181673 258.115802 
z
" clip-path="url(#pee42ae3043)" style="fill: #1f77b4"/>
   </g>
   <g id="patch_72">
    <path d="M 325.941153 307.584 
L 326.796713 307.584 
L 326.796713 300.705435 
L 325.941153 300.705435 
z
" clip-path="url(#pee42ae3043)" style="fill: #1f77b4"/>
   </g>
   <g id="patch_73">
    <path d="M 327.016935 307.584 
L 327.872495 307.584 
L 327.872495 301.873906 
L 327.016935 301.873906 
z
" clip-path="url(#pee42ae3043)" style="fill: #1f77b4"/>
   </g>
   <g id="patch_74">
    <path d="M 328.060863 307.584 
L 328.916423 307.584 
L 328.916423 303.006902 
L 328.060863 303.006902 
z
" clip-path="url(#pee42ae3043)" style="fill: #1f77b4"/>
   </g>
   <g id="patch_75">
    <path d="M 328.096307 307.584 
L 328.951867 307.584 
L 328.951867 141.776271 
L 328.096307 141.776271 
z
" clip-path="url(#pee42ae3043)" style="fill: #1f77b4"/>
   </g>
   <g id="patch_76">
    <path d="M 328.13162 307.584 
L 328.98718 307.584 
L 328.98718 302.758037 
L 328.13162 302.758037 
z
" clip-path="url(#pee42ae3043)" style="fill: #1f77b4"/>
   </g>
   <g id="patch_77">
    <path d="M 329.169379 307.584 
L 330.02494 307.584 
L 330.02494 282.128671 
L 329.169379 282.128671 
z
" clip-path="url(#pee42ae3043)" style="fill: #1f77b4"/>
   </g>
   <g id="patch_78">
    <path d="M 330.251427 307.584 
L 331.106988 307.584 
L 331.106988 301.211383 
L 330.251427 301.211383 
z
" clip-path="url(#pee42ae3043)" style="fill: #1f77b4"/>
   </g>
   <g id="patch_79">
    <path d="M 332.368657 307.584 
L 333.224217 307.584 
L 333.224217 302.997139 
L 332.368657 302.997139 
z
" clip-path="url(#pee42ae3043)" style="fill: #1f77b4"/>
   </g>
   <g id="patch_80">
    <path d="M 333.408081 307.584 
L 334.263641 307.584 
L 334.263641 304.267424 
L 333.408081 304.267424 
z
" clip-path="url(#pee42ae3043)" style="fill: #1f77b4"/>
   </g>
   <g id="patch_81">
    <path d="M 339.8536 307.584 
L 340.70916 307.584 
L 340.70916 305.017548 
L 339.8536 305.017548 
z
" clip-path="url(#pee42ae3043)" style="fill: #1f77b4"/>
   </g>
   <g id="patch_82">
    <path d="M 349.512593 307.584 
L 350.368153 307.584 
L 350.368153 302.541711 
L 349.512593 302.541711 
z
" clip-path="url(#pee42ae3043)" style="fill: #1f77b4"/>
   </g>
   <g id="patch_83">
    <path d="M 358.035655 307.584 
L 358.891215 307.584 
L 358.891215 249.960612 
L 358.035655 249.960612 
z
" clip-path="url(#pee42ae3043)" style="fill: #1f77b4"/>
   </g>
   <g id="patch_84">
    <path d="M 359.108597 307.584 
L 359.964158 307.584 
L 359.964158 298.33612 
L 359.108597 298.33612 
z
" clip-path="url(#pee42ae3043)" style="fill: #1f77b4"/>
   </g>
   <g id="patch_85">
    <path d="M 377.296854 307.584 
L 378.152414 307.584 
L 378.152414 54.144 
L 377.296854 54.144 
z
" clip-path="url(#pee42ae3043)" style="fill: #1f77b4"/>
   </g>
   <g id="patch_86">
    <path d="M 378.369894 307.584 
L 379.225454 307.584 
L 379.225454 257.408195 
L 378.369894 257.408195 
z
" clip-path="url(#pee42ae3043)" style="fill: #1f77b4"/>
   </g>
   <g id="patch_87">
    <path d="M 392.549246 307.584 
L 393.404806 307.584 
L 393.404806 305.592985 
L 392.549246 305.592985 
z
" clip-path="url(#pee42ae3043)" style="fill: #1f77b4"/>
   </g>
   <g id="patch_88">
    <path d="M 396.557791 307.584 
L 397.413351 307.584 
L 397.413351 278.087716 
L 396.557791 278.087716 
z
" clip-path="url(#pee42ae3043)" style="fill: #1f77b4"/>
   </g>
   <g id="patch_89">
    <path d="M 397.631713 307.584 
L 398.487273 307.584 
L 398.487273 300.997198 
L 397.631713 300.997198 
z
" clip-path="url(#pee42ae3043)" style="fill: #1f77b4"/>
   </g>
   <g id="matplotlib.axis_1">
    <g id="xtick_1">
     <g id="line2d_1">
      <defs>
       <path id="me73b6025f4" d="M 0 0 
L 0 3.5 
" style="stroke: #000000; stroke-width: 0.8"/>
      </defs>
      <g>
       <use xlink:href="#me73b6025f4" x="73.868818" y="307.584" style="stroke: #000000; stroke-width: 0.8"/>
      </g>
     </g>
     <g id="text_1">
      <!-- 50 -->
      <g transform="translate(67.506318 322.182437) scale(0.1 -0.1)">
       <defs>
        <path id="DejaVuSans-35" d="M 691 4666 
L 3169 4666 
L 3169 4134 
L 1269 4134 
L 1269 2991 
Q 1406 3038 1543 3061 
Q 1681 3084 1819 3084 
Q 2600 3084 3056 2656 
Q 3513 2228 3513 1497 
Q 3513 744 3044 326 
Q 2575 -91 1722 -91 
Q 1428 -91 1123 -41 
Q 819 9 494 109 
L 494 744 
Q 775 591 1075 516 
Q 1375 441 1709 441 
Q 2250 441 2565 725 
Q 2881 1009 2881 1497 
Q 2881 1984 2565 2268 
Q 2250 2553 1709 2553 
Q 1456 2553 1204 2497 
Q 953 2441 691 2322 
L 691 4666 
z
" transform="scale(0.015625)"/>
        <path id="DejaVuSans-30" d="M 2034 4250 
Q 1547 4250 1301 3770 
Q 1056 3291 1056 2328 
Q 1056 1369 1301 889 
Q 1547 409 2034 409 
Q 2525 409 2770 889 
Q 3016 1369 3016 2328 
Q 3016 3291 2770 3770 
Q 2525 4250 2034 4250 
z
M 2034 4750 
Q 2819 4750 3233 4129 
Q 3647 3509 3647 2328 
Q 3647 1150 3233 529 
Q 2819 -91 2034 -91 
Q 1250 -91 836 529 
Q 422 1150 422 2328 
Q 422 3509 836 4129 
Q 1250 4750 2034 4750 
z
" transform="scale(0.015625)"/>
       </defs>
       <use xlink:href="#DejaVuSans-35"/>
       <use xlink:href="#DejaVuSans-30" x="63.623047"/>
      </g>
     </g>
    </g>
    <g id="xtick_2">
     <g id="line2d_2">
      <g>
       <use xlink:href="#me73b6025f4" x="127.341324" y="307.584" style="stroke: #000000; stroke-width: 0.8"/>
      </g>
     </g>
     <g id="text_2">
      <!-- 100 -->
      <g transform="translate(117.797574 322.182437) scale(0.1 -0.1)">
       <defs>
        <path id="DejaVuSans-31" d="M 794 531 
L 1825 531 
L 1825 4091 
L 703 3866 
L 703 4441 
L 1819 4666 
L 2450 4666 
L 2450 531 
L 3481 531 
L 3481 0 
L 794 0 
L 794 531 
z
" transform="scale(0.015625)"/>
       </defs>
       <use xlink:href="#DejaVuSans-31"/>
       <use xlink:href="#DejaVuSans-30" x="63.623047"/>
       <use xlink:href="#DejaVuSans-30" x="127.246094"/>
      </g>
     </g>
    </g>
    <g id="xtick_3">
     <g id="line2d_3">
      <g>
       <use xlink:href="#me73b6025f4" x="180.813829" y="307.584" style="stroke: #000000; stroke-width: 0.8"/>
      </g>
     </g>
     <g id="text_3">
      <!-- 150 -->
      <g transform="translate(171.270079 322.182437) scale(0.1 -0.1)">
       <use xlink:href="#DejaVuSans-31"/>
       <use xlink:href="#DejaVuSans-35" x="63.623047"/>
       <use xlink:href="#DejaVuSans-30" x="127.246094"/>
      </g>
     </g>
    </g>
    <g id="xtick_4">
     <g id="line2d_4">
      <g>
       <use xlink:href="#me73b6025f4" x="234.286335" y="307.584" style="stroke: #000000; stroke-width: 0.8"/>
      </g>
     </g>
     <g id="text_4">
      <!-- 200 -->
      <g transform="translate(224.742585 322.182437) scale(0.1 -0.1)">
       <defs>
        <path id="DejaVuSans-32" d="M 1228 531 
L 3431 531 
L 3431 0 
L 469 0 
L 469 531 
Q 828 903 1448 1529 
Q 2069 2156 2228 2338 
Q 2531 2678 2651 2914 
Q 2772 3150 2772 3378 
Q 2772 3750 2511 3984 
Q 2250 4219 1831 4219 
Q 1534 4219 1204 4116 
Q 875 4013 500 3803 
L 500 4441 
Q 881 4594 1212 4672 
Q 1544 4750 1819 4750 
Q 2544 4750 2975 4387 
Q 3406 4025 3406 3419 
Q 3406 3131 3298 2873 
Q 3191 2616 2906 2266 
Q 2828 2175 2409 1742 
Q 1991 1309 1228 531 
z
" transform="scale(0.015625)"/>
       </defs>
       <use xlink:href="#DejaVuSans-32"/>
       <use xlink:href="#DejaVuSans-30" x="63.623047"/>
       <use xlink:href="#DejaVuSans-30" x="127.246094"/>
      </g>
     </g>
    </g>
    <g id="xtick_5">
     <g id="line2d_5">
      <g>
       <use xlink:href="#me73b6025f4" x="287.75884" y="307.584" style="stroke: #000000; stroke-width: 0.8"/>
      </g>
     </g>
     <g id="text_5">
      <!-- 250 -->
      <g transform="translate(278.21509 322.182437) scale(0.1 -0.1)">
       <use xlink:href="#DejaVuSans-32"/>
       <use xlink:href="#DejaVuSans-35" x="63.623047"/>
       <use xlink:href="#DejaVuSans-30" x="127.246094"/>
      </g>
     </g>
    </g>
    <g id="xtick_6">
     <g id="line2d_6">
      <g>
       <use xlink:href="#me73b6025f4" x="341.231346" y="307.584" style="stroke: #000000; stroke-width: 0.8"/>
      </g>
     </g>
     <g id="text_6">
      <!-- 300 -->
      <g transform="translate(331.687596 322.182437) scale(0.1 -0.1)">
       <defs>
        <path id="DejaVuSans-33" d="M 2597 2516 
Q 3050 2419 3304 2112 
Q 3559 1806 3559 1356 
Q 3559 666 3084 287 
Q 2609 -91 1734 -91 
Q 1441 -91 1130 -33 
Q 819 25 488 141 
L 488 750 
Q 750 597 1062 519 
Q 1375 441 1716 441 
Q 2309 441 2620 675 
Q 2931 909 2931 1356 
Q 2931 1769 2642 2001 
Q 2353 2234 1838 2234 
L 1294 2234 
L 1294 2753 
L 1863 2753 
Q 2328 2753 2575 2939 
Q 2822 3125 2822 3475 
Q 2822 3834 2567 4026 
Q 2313 4219 1838 4219 
Q 1578 4219 1281 4162 
Q 984 4106 628 3988 
L 628 4550 
Q 988 4650 1302 4700 
Q 1616 4750 1894 4750 
Q 2613 4750 3031 4423 
Q 3450 4097 3450 3541 
Q 3450 3153 3228 2886 
Q 3006 2619 2597 2516 
z
" transform="scale(0.015625)"/>
       </defs>
       <use xlink:href="#DejaVuSans-33"/>
       <use xlink:href="#DejaVuSans-30" x="63.623047"/>
       <use xlink:href="#DejaVuSans-30" x="127.246094"/>
      </g>
     </g>
    </g>
    <g id="xtick_7">
     <g id="line2d_7">
      <g>
       <use xlink:href="#me73b6025f4" x="394.703851" y="307.584" style="stroke: #000000; stroke-width: 0.8"/>
      </g>
     </g>
     <g id="text_7">
      <!-- 350 -->
      <g transform="translate(385.160101 322.182437) scale(0.1 -0.1)">
       <use xlink:href="#DejaVuSans-33"/>
       <use xlink:href="#DejaVuSans-35" x="63.623047"/>
       <use xlink:href="#DejaVuSans-30" x="127.246094"/>
      </g>
     </g>
    </g>
    <g id="text_8">
     <!-- ${m/z}$ -->
     <g transform="translate(226.96 335.860562) scale(0.1 -0.1)">
      <defs>
       <path id="DejaVuSans-Oblique-6d" d="M 5747 2113 
L 5338 0 
L 4763 0 
L 5166 2094 
Q 5191 2228 5203 2325 
Q 5216 2422 5216 2491 
Q 5216 2772 5059 2928 
Q 4903 3084 4622 3084 
Q 4203 3084 3875 2770 
Q 3547 2456 3450 1953 
L 3066 0 
L 2491 0 
L 2900 2094 
Q 2925 2209 2937 2307 
Q 2950 2406 2950 2484 
Q 2950 2769 2794 2926 
Q 2638 3084 2363 3084 
Q 1938 3084 1609 2770 
Q 1281 2456 1184 1953 
L 800 0 
L 225 0 
L 909 3500 
L 1484 3500 
L 1375 2956 
Q 1609 3263 1923 3423 
Q 2238 3584 2597 3584 
Q 2978 3584 3223 3384 
Q 3469 3184 3519 2828 
Q 3781 3197 4126 3390 
Q 4472 3584 4856 3584 
Q 5306 3584 5551 3325 
Q 5797 3066 5797 2591 
Q 5797 2488 5784 2364 
Q 5772 2241 5747 2113 
z
" transform="scale(0.015625)"/>
       <path id="DejaVuSans-2f" d="M 1625 4666 
L 2156 4666 
L 531 -594 
L 0 -594 
L 1625 4666 
z
" transform="scale(0.015625)"/>
       <path id="DejaVuSans-Oblique-7a" d="M 744 3500 
L 3475 3500 
L 3372 2975 
L 738 459 
L 2913 459 
L 2822 0 
L -19 0 
L 84 525 
L 2719 3041 
L 653 3041 
L 744 3500 
z
" transform="scale(0.015625)"/>
      </defs>
      <use xlink:href="#DejaVuSans-Oblique-6d" transform="translate(0 0.09375)"/>
      <use xlink:href="#DejaVuSans-2f" transform="translate(97.412109 0.09375)"/>
      <use xlink:href="#DejaVuSans-Oblique-7a" transform="translate(131.103516 0.09375)"/>
     </g>
    </g>
   </g>
   <g id="matplotlib.axis_2">
    <g id="ytick_1">
     <g id="line2d_8">
      <defs>
       <path id="m24b3c4908b" d="M 0 0 
L -3.5 0 
" style="stroke: #000000; stroke-width: 0.8"/>
      </defs>
      <g>
       <use xlink:href="#m24b3c4908b" x="57.6" y="307.584" style="stroke: #000000; stroke-width: 0.8"/>
      </g>
     </g>
     <g id="text_9">
      <!-- 0 -->
      <g transform="translate(44.2375 311.383219) scale(0.1 -0.1)">
       <use xlink:href="#DejaVuSans-30"/>
      </g>
     </g>
    </g>
    <g id="ytick_2">
     <g id="line2d_9">
      <g>
       <use xlink:href="#m24b3c4908b" x="57.6" y="257.109052" style="stroke: #000000; stroke-width: 0.8"/>
      </g>
     </g>
     <g id="text_10">
      <!-- 100000 -->
      <g transform="translate(12.425 260.90827) scale(0.1 -0.1)">
       <use xlink:href="#DejaVuSans-31"/>
       <use xlink:href="#DejaVuSans-30" x="63.623047"/>
       <use xlink:href="#DejaVuSans-30" x="127.246094"/>
       <use xlink:href="#DejaVuSans-30" x="190.869141"/>
       <use xlink:href="#DejaVuSans-30" x="254.492188"/>
       <use xlink:href="#DejaVuSans-30" x="318.115234"/>
      </g>
     </g>
    </g>
    <g id="ytick_3">
     <g id="line2d_10">
      <g>
       <use xlink:href="#m24b3c4908b" x="57.6" y="206.634103" style="stroke: #000000; stroke-width: 0.8"/>
      </g>
     </g>
     <g id="text_11">
      <!-- 200000 -->
      <g transform="translate(12.425 210.433322) scale(0.1 -0.1)">
       <use xlink:href="#DejaVuSans-32"/>
       <use xlink:href="#DejaVuSans-30" x="63.623047"/>
       <use xlink:href="#DejaVuSans-30" x="127.246094"/>
       <use xlink:href="#DejaVuSans-30" x="190.869141"/>
       <use xlink:href="#DejaVuSans-30" x="254.492188"/>
       <use xlink:href="#DejaVuSans-30" x="318.115234"/>
      </g>
     </g>
    </g>
    <g id="ytick_4">
     <g id="line2d_11">
      <g>
       <use xlink:href="#m24b3c4908b" x="57.6" y="156.159155" style="stroke: #000000; stroke-width: 0.8"/>
      </g>
     </g>
     <g id="text_12">
      <!-- 300000 -->
      <g transform="translate(12.425 159.958374) scale(0.1 -0.1)">
       <use xlink:href="#DejaVuSans-33"/>
       <use xlink:href="#DejaVuSans-30" x="63.623047"/>
       <use xlink:href="#DejaVuSans-30" x="127.246094"/>
       <use xlink:href="#DejaVuSans-30" x="190.869141"/>
       <use xlink:href="#DejaVuSans-30" x="254.492188"/>
       <use xlink:href="#DejaVuSans-30" x="318.115234"/>
      </g>
     </g>
    </g>
    <g id="ytick_5">
     <g id="line2d_12">
      <g>
       <use xlink:href="#m24b3c4908b" x="57.6" y="105.684206" style="stroke: #000000; stroke-width: 0.8"/>
      </g>
     </g>
     <g id="text_13">
      <!-- 400000 -->
      <g transform="translate(12.425 109.483425) scale(0.1 -0.1)">
       <defs>
        <path id="DejaVuSans-34" d="M 2419 4116 
L 825 1625 
L 2419 1625 
L 2419 4116 
z
M 2253 4666 
L 3047 4666 
L 3047 1625 
L 3713 1625 
L 3713 1100 
L 3047 1100 
L 3047 0 
L 2419 0 
L 2419 1100 
L 313 1100 
L 313 1709 
L 2253 4666 
z
" transform="scale(0.015625)"/>
       </defs>
       <use xlink:href="#DejaVuSans-34"/>
       <use xlink:href="#DejaVuSans-30" x="63.623047"/>
       <use xlink:href="#DejaVuSans-30" x="127.246094"/>
       <use xlink:href="#DejaVuSans-30" x="190.869141"/>
       <use xlink:href="#DejaVuSans-30" x="254.492188"/>
       <use xlink:href="#DejaVuSans-30" x="318.115234"/>
      </g>
     </g>
    </g>
    <g id="ytick_6">
     <g id="line2d_13">
      <g>
       <use xlink:href="#m24b3c4908b" x="57.6" y="55.209258" style="stroke: #000000; stroke-width: 0.8"/>
      </g>
     </g>
     <g id="text_14">
      <!-- 500000 -->
      <g transform="translate(12.425 59.008477) scale(0.1 -0.1)">
       <use xlink:href="#DejaVuSans-35"/>
       <use xlink:href="#DejaVuSans-30" x="63.623047"/>
       <use xlink:href="#DejaVuSans-30" x="127.246094"/>
       <use xlink:href="#DejaVuSans-30" x="190.869141"/>
       <use xlink:href="#DejaVuSans-30" x="254.492188"/>
       <use xlink:href="#DejaVuSans-30" x="318.115234"/>
      </g>
     </g>
    </g>
    <g id="text_15">
     <!-- intensities -->
     <g transform="translate(6.345312 200.3155) rotate(-90) scale(0.1 -0.1)">
      <defs>
       <path id="DejaVuSans-69" d="M 603 3500 
L 1178 3500 
L 1178 0 
L 603 0 
L 603 3500 
z
M 603 4863 
L 1178 4863 
L 1178 4134 
L 603 4134 
L 603 4863 
z
" transform="scale(0.015625)"/>
       <path id="DejaVuSans-6e" d="M 3513 2113 
L 3513 0 
L 2938 0 
L 2938 2094 
Q 2938 2591 2744 2837 
Q 2550 3084 2163 3084 
Q 1697 3084 1428 2787 
Q 1159 2491 1159 1978 
L 1159 0 
L 581 0 
L 581 3500 
L 1159 3500 
L 1159 2956 
Q 1366 3272 1645 3428 
Q 1925 3584 2291 3584 
Q 2894 3584 3203 3211 
Q 3513 2838 3513 2113 
z
" transform="scale(0.015625)"/>
       <path id="DejaVuSans-74" d="M 1172 4494 
L 1172 3500 
L 2356 3500 
L 2356 3053 
L 1172 3053 
L 1172 1153 
Q 1172 725 1289 603 
Q 1406 481 1766 481 
L 2356 481 
L 2356 0 
L 1766 0 
Q 1100 0 847 248 
Q 594 497 594 1153 
L 594 3053 
L 172 3053 
L 172 3500 
L 594 3500 
L 594 4494 
L 1172 4494 
z
" transform="scale(0.015625)"/>
       <path id="DejaVuSans-65" d="M 3597 1894 
L 3597 1613 
L 953 1613 
Q 991 1019 1311 708 
Q 1631 397 2203 397 
Q 2534 397 2845 478 
Q 3156 559 3463 722 
L 3463 178 
Q 3153 47 2828 -22 
Q 2503 -91 2169 -91 
Q 1331 -91 842 396 
Q 353 884 353 1716 
Q 353 2575 817 3079 
Q 1281 3584 2069 3584 
Q 2775 3584 3186 3129 
Q 3597 2675 3597 1894 
z
M 3022 2063 
Q 3016 2534 2758 2815 
Q 2500 3097 2075 3097 
Q 1594 3097 1305 2825 
Q 1016 2553 972 2059 
L 3022 2063 
z
" transform="scale(0.015625)"/>
       <path id="DejaVuSans-73" d="M 2834 3397 
L 2834 2853 
Q 2591 2978 2328 3040 
Q 2066 3103 1784 3103 
Q 1356 3103 1142 2972 
Q 928 2841 928 2578 
Q 928 2378 1081 2264 
Q 1234 2150 1697 2047 
L 1894 2003 
Q 2506 1872 2764 1633 
Q 3022 1394 3022 966 
Q 3022 478 2636 193 
Q 2250 -91 1575 -91 
Q 1294 -91 989 -36 
Q 684 19 347 128 
L 347 722 
Q 666 556 975 473 
Q 1284 391 1588 391 
Q 1994 391 2212 530 
Q 2431 669 2431 922 
Q 2431 1156 2273 1281 
Q 2116 1406 1581 1522 
L 1381 1569 
Q 847 1681 609 1914 
Q 372 2147 372 2553 
Q 372 3047 722 3315 
Q 1072 3584 1716 3584 
Q 2034 3584 2315 3537 
Q 2597 3491 2834 3397 
z
" transform="scale(0.015625)"/>
      </defs>
      <use xlink:href="#DejaVuSans-69"/>
      <use xlink:href="#DejaVuSans-6e" x="27.783203"/>
      <use xlink:href="#DejaVuSans-74" x="91.162109"/>
      <use xlink:href="#DejaVuSans-65" x="130.371094"/>
      <use xlink:href="#DejaVuSans-6e" x="191.894531"/>
      <use xlink:href="#DejaVuSans-73" x="255.273438"/>
      <use xlink:href="#DejaVuSans-69" x="307.373047"/>
      <use xlink:href="#DejaVuSans-74" x="335.15625"/>
      <use xlink:href="#DejaVuSans-69" x="374.365234"/>
      <use xlink:href="#DejaVuSans-65" x="402.148438"/>
      <use xlink:href="#DejaVuSans-73" x="463.671875"/>
     </g>
    </g>
   </g>
   <g id="patch_90">
    <path d="M 57.6 307.584 
L 57.6 41.472 
" style="fill: none; stroke: #000000; stroke-width: 0.8; stroke-linejoin: miter; stroke-linecap: square"/>
   </g>
   <g id="patch_91">
    <path d="M 414.72 307.584 
L 414.72 41.472 
" style="fill: none; stroke: #000000; stroke-width: 0.8; stroke-linejoin: miter; stroke-linecap: square"/>
   </g>
   <g id="patch_92">
    <path d="M 57.6 307.584 
L 414.72 307.584 
" style="fill: none; stroke: #000000; stroke-width: 0.8; stroke-linejoin: miter; stroke-linecap: square"/>
   </g>
   <g id="patch_93">
    <path d="M 57.6 41.472 
L 414.72 41.472 
" style="fill: none; stroke: #000000; stroke-width: 0.8; stroke-linejoin: miter; stroke-linecap: square"/>
   </g>
   <g id="text_16">
    <!-- 71.0135 -->
    <g transform="translate(88.975816 182.192173) scale(0.06 -0.06)">
     <defs>
      <path id="DejaVuSans-37" d="M 525 4666 
L 3525 4666 
L 3525 4397 
L 1831 0 
L 1172 0 
L 2766 4134 
L 525 4134 
L 525 4666 
z
" transform="scale(0.015625)"/>
      <path id="DejaVuSans-2e" d="M 684 794 
L 1344 794 
L 1344 0 
L 684 0 
L 684 794 
z
" transform="scale(0.015625)"/>
     </defs>
     <use xlink:href="#DejaVuSans-37"/>
     <use xlink:href="#DejaVuSans-31" x="63.623047"/>
     <use xlink:href="#DejaVuSans-2e" x="127.246094"/>
     <use xlink:href="#DejaVuSans-30" x="159.033203"/>
     <use xlink:href="#DejaVuSans-31" x="222.65625"/>
     <use xlink:href="#DejaVuSans-33" x="286.279297"/>
     <use xlink:href="#DejaVuSans-35" x="349.902344"/>
    </g>
   </g>
   <g id="text_17">
    <!-- 81.0342 -->
    <g transform="translate(91.052371 240.994811) scale(0.06 -0.06)">
     <defs>
      <path id="DejaVuSans-38" d="M 2034 2216 
Q 1584 2216 1326 1975 
Q 1069 1734 1069 1313 
Q 1069 891 1326 650 
Q 1584 409 2034 409 
Q 2484 409 2743 651 
Q 3003 894 3003 1313 
Q 3003 1734 2745 1975 
Q 2488 2216 2034 2216 
z
M 1403 2484 
Q 997 2584 770 2862 
Q 544 3141 544 3541 
Q 544 4100 942 4425 
Q 1341 4750 2034 4750 
Q 2731 4750 3128 4425 
Q 3525 4100 3525 3541 
Q 3525 3141 3298 2862 
Q 3072 2584 2669 2484 
Q 3125 2378 3379 2068 
Q 3634 1759 3634 1313 
Q 3634 634 3220 271 
Q 2806 -91 2034 -91 
Q 1263 -91 848 271 
Q 434 634 434 1313 
Q 434 1759 690 2068 
Q 947 2378 1403 2484 
z
M 1172 3481 
Q 1172 3119 1398 2916 
Q 1625 2713 2034 2713 
Q 2441 2713 2670 2916 
Q 2900 3119 2900 3481 
Q 2900 3844 2670 4047 
Q 2441 4250 2034 4250 
Q 1625 4250 1398 4047 
Q 1172 3844 1172 3481 
z
" transform="scale(0.015625)"/>
     </defs>
     <use xlink:href="#DejaVuSans-38"/>
     <use xlink:href="#DejaVuSans-31" x="63.623047"/>
     <use xlink:href="#DejaVuSans-2e" x="127.246094"/>
     <use xlink:href="#DejaVuSans-30" x="159.033203"/>
     <use xlink:href="#DejaVuSans-33" x="222.65625"/>
     <use xlink:href="#DejaVuSans-34" x="286.279297"/>
     <use xlink:href="#DejaVuSans-32" x="349.902344"/>
    </g>
   </g>
   <g id="text_18">
    <!-- 89.0239 -->
    <g transform="translate(108.956998 209.926349) scale(0.06 -0.06)">
     <defs>
      <path id="DejaVuSans-39" d="M 703 97 
L 703 672 
Q 941 559 1184 500 
Q 1428 441 1663 441 
Q 2288 441 2617 861 
Q 2947 1281 2994 2138 
Q 2813 1869 2534 1725 
Q 2256 1581 1919 1581 
Q 1219 1581 811 2004 
Q 403 2428 403 3163 
Q 403 3881 828 4315 
Q 1253 4750 1959 4750 
Q 2769 4750 3195 4129 
Q 3622 3509 3622 2328 
Q 3622 1225 3098 567 
Q 2575 -91 1691 -91 
Q 1453 -91 1209 -44 
Q 966 3 703 97 
z
M 1959 2075 
Q 2384 2075 2632 2365 
Q 2881 2656 2881 3163 
Q 2881 3666 2632 3958 
Q 2384 4250 1959 4250 
Q 1534 4250 1286 3958 
Q 1038 3666 1038 3163 
Q 1038 2656 1286 2365 
Q 1534 2075 1959 2075 
z
" transform="scale(0.015625)"/>
     </defs>
     <use xlink:href="#DejaVuSans-38"/>
     <use xlink:href="#DejaVuSans-39" x="63.623047"/>
     <use xlink:href="#DejaVuSans-2e" x="127.246094"/>
     <use xlink:href="#DejaVuSans-30" x="159.033203"/>
     <use xlink:href="#DejaVuSans-32" x="222.65625"/>
     <use xlink:href="#DejaVuSans-33" x="286.279297"/>
     <use xlink:href="#DejaVuSans-39" x="349.902344"/>
    </g>
   </g>
   <g id="text_19">
    <!-- 141.0547 -->
    <g transform="translate(161.972642 276.82388) scale(0.06 -0.06)">
     <use xlink:href="#DejaVuSans-31"/>
     <use xlink:href="#DejaVuSans-34" x="63.623047"/>
     <use xlink:href="#DejaVuSans-31" x="127.246094"/>
     <use xlink:href="#DejaVuSans-2e" x="190.869141"/>
     <use xlink:href="#DejaVuSans-30" x="222.65625"/>
     <use xlink:href="#DejaVuSans-35" x="286.279297"/>
     <use xlink:href="#DejaVuSans-34" x="349.902344"/>
     <use xlink:href="#DejaVuSans-37" x="413.525391"/>
    </g>
   </g>
   <g id="text_20">
    <!-- 211.079 -->
    <g transform="translate(238.768813 101.627451) scale(0.06 -0.06)">
     <use xlink:href="#DejaVuSans-32"/>
     <use xlink:href="#DejaVuSans-31" x="63.623047"/>
     <use xlink:href="#DejaVuSans-31" x="127.246094"/>
     <use xlink:href="#DejaVuSans-2e" x="190.869141"/>
     <use xlink:href="#DejaVuSans-30" x="222.65625"/>
     <use xlink:href="#DejaVuSans-37" x="286.279297"/>
     <use xlink:href="#DejaVuSans-39" x="349.902344"/>
    </g>
   </g>
   <g id="text_21">
    <!-- 212.086 -->
    <g transform="translate(239.125753 237.579428) scale(0.06 -0.06)">
     <defs>
      <path id="DejaVuSans-36" d="M 2113 2584 
Q 1688 2584 1439 2293 
Q 1191 2003 1191 1497 
Q 1191 994 1439 701 
Q 1688 409 2113 409 
Q 2538 409 2786 701 
Q 3034 994 3034 1497 
Q 3034 2003 2786 2293 
Q 2538 2584 2113 2584 
z
M 3366 4563 
L 3366 3988 
Q 3128 4100 2886 4159 
Q 2644 4219 2406 4219 
Q 1781 4219 1451 3797 
Q 1122 3375 1075 2522 
Q 1259 2794 1537 2939 
Q 1816 3084 2150 3084 
Q 2853 3084 3261 2657 
Q 3669 2231 3669 1497 
Q 3669 778 3244 343 
Q 2819 -91 2113 -91 
Q 1303 -91 875 529 
Q 447 1150 447 2328 
Q 447 3434 972 4092 
Q 1497 4750 2381 4750 
Q 2619 4750 2861 4703 
Q 3103 4656 3366 4563 
z
" transform="scale(0.015625)"/>
     </defs>
     <use xlink:href="#DejaVuSans-32"/>
     <use xlink:href="#DejaVuSans-31" x="63.623047"/>
     <use xlink:href="#DejaVuSans-32" x="127.246094"/>
     <use xlink:href="#DejaVuSans-2e" x="190.869141"/>
     <use xlink:href="#DejaVuSans-30" x="222.65625"/>
     <use xlink:href="#DejaVuSans-38" x="286.279297"/>
     <use xlink:href="#DejaVuSans-36" x="349.902344"/>
    </g>
   </g>
   <g id="text_22">
    <!-- 222.0712 -->
    <g transform="translate(238.535741 258.096609) scale(0.06 -0.06)">
     <use xlink:href="#DejaVuSans-32"/>
     <use xlink:href="#DejaVuSans-32" x="63.623047"/>
     <use xlink:href="#DejaVuSans-32" x="127.246094"/>
     <use xlink:href="#DejaVuSans-2e" x="190.869141"/>
     <use xlink:href="#DejaVuSans-30" x="222.65625"/>
     <use xlink:href="#DejaVuSans-37" x="286.279297"/>
     <use xlink:href="#DejaVuSans-31" x="349.902344"/>
     <use xlink:href="#DejaVuSans-32" x="413.525391"/>
    </g>
   </g>
   <g id="text_23">
    <!-- 224.0867 -->
    <g transform="translate(241.411155 270.040072) scale(0.06 -0.06)">
     <use xlink:href="#DejaVuSans-32"/>
     <use xlink:href="#DejaVuSans-32" x="63.623047"/>
     <use xlink:href="#DejaVuSans-34" x="127.246094"/>
     <use xlink:href="#DejaVuSans-2e" x="190.869141"/>
     <use xlink:href="#DejaVuSans-30" x="222.65625"/>
     <use xlink:href="#DejaVuSans-38" x="286.279297"/>
     <use xlink:href="#DejaVuSans-36" x="349.902344"/>
     <use xlink:href="#DejaVuSans-37" x="413.525391"/>
    </g>
   </g>
   <g id="text_24">
    <!-- 235.079 -->
    <g transform="translate(262.275616 208.59735) scale(0.06 -0.06)">
     <use xlink:href="#DejaVuSans-32"/>
     <use xlink:href="#DejaVuSans-33" x="63.623047"/>
     <use xlink:href="#DejaVuSans-35" x="127.246094"/>
     <use xlink:href="#DejaVuSans-2e" x="190.869141"/>
     <use xlink:href="#DejaVuSans-30" x="222.65625"/>
     <use xlink:href="#DejaVuSans-37" x="286.279297"/>
     <use xlink:href="#DejaVuSans-39" x="349.902344"/>
    </g>
   </g>
   <g id="text_25">
    <!-- 236.0858 -->
    <g transform="translate(265.763457 253.508262) scale(0.06 -0.06)">
     <use xlink:href="#DejaVuSans-32"/>
     <use xlink:href="#DejaVuSans-33" x="63.623047"/>
     <use xlink:href="#DejaVuSans-36" x="127.246094"/>
     <use xlink:href="#DejaVuSans-2e" x="190.869141"/>
     <use xlink:href="#DejaVuSans-30" x="222.65625"/>
     <use xlink:href="#DejaVuSans-38" x="286.279297"/>
     <use xlink:href="#DejaVuSans-35" x="349.902344"/>
     <use xlink:href="#DejaVuSans-38" x="413.525391"/>
    </g>
   </g>
   <g id="text_26">
    <!-- 248.0867 -->
    <g transform="translate(277.158023 198.295375) scale(0.06 -0.06)">
     <use xlink:href="#DejaVuSans-32"/>
     <use xlink:href="#DejaVuSans-34" x="63.623047"/>
     <use xlink:href="#DejaVuSans-38" x="127.246094"/>
     <use xlink:href="#DejaVuSans-2e" x="190.869141"/>
     <use xlink:href="#DejaVuSans-30" x="222.65625"/>
     <use xlink:href="#DejaVuSans-38" x="286.279297"/>
     <use xlink:href="#DejaVuSans-36" x="349.902344"/>
     <use xlink:href="#DejaVuSans-37" x="413.525391"/>
    </g>
   </g>
   <g id="text_27">
    <!-- 249.0936 -->
    <g transform="translate(276.794768 265.182423) scale(0.06 -0.06)">
     <use xlink:href="#DejaVuSans-32"/>
     <use xlink:href="#DejaVuSans-34" x="63.623047"/>
     <use xlink:href="#DejaVuSans-39" x="127.246094"/>
     <use xlink:href="#DejaVuSans-2e" x="190.869141"/>
     <use xlink:href="#DejaVuSans-30" x="222.65625"/>
     <use xlink:href="#DejaVuSans-39" x="286.279297"/>
     <use xlink:href="#DejaVuSans-33" x="349.902344"/>
     <use xlink:href="#DejaVuSans-36" x="413.525391"/>
    </g>
   </g>
   <g id="text_28">
    <!-- 250.1024 -->
    <g transform="translate(280.753634 235.370576) scale(0.06 -0.06)">
     <use xlink:href="#DejaVuSans-32"/>
     <use xlink:href="#DejaVuSans-35" x="63.623047"/>
     <use xlink:href="#DejaVuSans-30" x="127.246094"/>
     <use xlink:href="#DejaVuSans-2e" x="190.869141"/>
     <use xlink:href="#DejaVuSans-31" x="222.65625"/>
     <use xlink:href="#DejaVuSans-30" x="286.279297"/>
     <use xlink:href="#DejaVuSans-32" x="349.902344"/>
     <use xlink:href="#DejaVuSans-34" x="413.525391"/>
    </g>
   </g>
   <g id="text_29">
    <!-- 264.1181 -->
    <g transform="translate(293.582727 152.008075) scale(0.06 -0.06)">
     <use xlink:href="#DejaVuSans-32"/>
     <use xlink:href="#DejaVuSans-36" x="63.623047"/>
     <use xlink:href="#DejaVuSans-34" x="127.246094"/>
     <use xlink:href="#DejaVuSans-2e" x="190.869141"/>
     <use xlink:href="#DejaVuSans-31" x="222.65625"/>
     <use xlink:href="#DejaVuSans-31" x="286.279297"/>
     <use xlink:href="#DejaVuSans-38" x="349.902344"/>
     <use xlink:href="#DejaVuSans-31" x="413.525391"/>
    </g>
   </g>
   <g id="text_30">
    <!-- 273.0938 -->
    <g transform="translate(292.381799 271.755142) scale(0.06 -0.06)">
     <use xlink:href="#DejaVuSans-32"/>
     <use xlink:href="#DejaVuSans-37" x="63.623047"/>
     <use xlink:href="#DejaVuSans-33" x="127.246094"/>
     <use xlink:href="#DejaVuSans-2e" x="190.869141"/>
     <use xlink:href="#DejaVuSans-30" x="222.65625"/>
     <use xlink:href="#DejaVuSans-39" x="286.279297"/>
     <use xlink:href="#DejaVuSans-33" x="349.902344"/>
     <use xlink:href="#DejaVuSans-38" x="413.525391"/>
    </g>
   </g>
   <g id="text_31">
    <!-- 274.1022 -->
    <g transform="translate(304.260224 95.078453) scale(0.06 -0.06)">
     <use xlink:href="#DejaVuSans-32"/>
     <use xlink:href="#DejaVuSans-37" x="63.623047"/>
     <use xlink:href="#DejaVuSans-34" x="127.246094"/>
     <use xlink:href="#DejaVuSans-2e" x="190.869141"/>
     <use xlink:href="#DejaVuSans-31" x="222.65625"/>
     <use xlink:href="#DejaVuSans-30" x="286.279297"/>
     <use xlink:href="#DejaVuSans-32" x="349.902344"/>
     <use xlink:href="#DejaVuSans-32" x="413.525391"/>
    </g>
   </g>
   <g id="text_32">
    <!-- 275.1069 -->
    <g transform="translate(305.550062 252.931427) scale(0.06 -0.06)">
     <use xlink:href="#DejaVuSans-32"/>
     <use xlink:href="#DejaVuSans-37" x="63.623047"/>
     <use xlink:href="#DejaVuSans-35" x="127.246094"/>
     <use xlink:href="#DejaVuSans-2e" x="190.869141"/>
     <use xlink:href="#DejaVuSans-31" x="222.65625"/>
     <use xlink:href="#DejaVuSans-30" x="286.279297"/>
     <use xlink:href="#DejaVuSans-36" x="349.902344"/>
     <use xlink:href="#DejaVuSans-39" x="413.525391"/>
    </g>
   </g>
   <g id="text_33">
    <!-- 288.118 -->
    <g transform="translate(321.158149 138.571896) scale(0.06 -0.06)">
     <use xlink:href="#DejaVuSans-32"/>
     <use xlink:href="#DejaVuSans-38" x="63.623047"/>
     <use xlink:href="#DejaVuSans-38" x="127.246094"/>
     <use xlink:href="#DejaVuSans-2e" x="190.869141"/>
     <use xlink:href="#DejaVuSans-31" x="222.65625"/>
     <use xlink:href="#DejaVuSans-31" x="286.279297"/>
     <use xlink:href="#DejaVuSans-38" x="349.902344"/>
    </g>
   </g>
   <g id="text_34">
    <!-- 289.1213 -->
    <g transform="translate(322.482472 287.024296) scale(0.06 -0.06)">
     <use xlink:href="#DejaVuSans-32"/>
     <use xlink:href="#DejaVuSans-38" x="63.623047"/>
     <use xlink:href="#DejaVuSans-39" x="127.246094"/>
     <use xlink:href="#DejaVuSans-2e" x="190.869141"/>
     <use xlink:href="#DejaVuSans-31" x="222.65625"/>
     <use xlink:href="#DejaVuSans-32" x="286.279297"/>
     <use xlink:href="#DejaVuSans-31" x="349.902344"/>
     <use xlink:href="#DejaVuSans-33" x="413.525391"/>
    </g>
   </g>
   <g id="text_35">
    <!-- 316.113 -->
    <g transform="translate(350.377498 244.776237) scale(0.06 -0.06)">
     <use xlink:href="#DejaVuSans-33"/>
     <use xlink:href="#DejaVuSans-31" x="63.623047"/>
     <use xlink:href="#DejaVuSans-36" x="127.246094"/>
     <use xlink:href="#DejaVuSans-2e" x="190.869141"/>
     <use xlink:href="#DejaVuSans-31" x="222.65625"/>
     <use xlink:href="#DejaVuSans-31" x="286.279297"/>
     <use xlink:href="#DejaVuSans-33" x="349.902344"/>
    </g>
   </g>
   <g id="text_36">
    <!-- 334.1234 -->
    <g transform="translate(368.449946 50.939625) scale(0.06 -0.06)">
     <use xlink:href="#DejaVuSans-33"/>
     <use xlink:href="#DejaVuSans-33" x="63.623047"/>
     <use xlink:href="#DejaVuSans-34" x="127.246094"/>
     <use xlink:href="#DejaVuSans-2e" x="190.869141"/>
     <use xlink:href="#DejaVuSans-31" x="222.65625"/>
     <use xlink:href="#DejaVuSans-32" x="286.279297"/>
     <use xlink:href="#DejaVuSans-33" x="349.902344"/>
     <use xlink:href="#DejaVuSans-34" x="413.525391"/>
    </g>
   </g>
   <g id="text_37">
    <!-- 335.1268 -->
    <g transform="translate(370.962986 255.587611) scale(0.06 -0.06)">
     <use xlink:href="#DejaVuSans-33"/>
     <use xlink:href="#DejaVuSans-33" x="63.623047"/>
     <use xlink:href="#DejaVuSans-35" x="127.246094"/>
     <use xlink:href="#DejaVuSans-2e" x="190.869141"/>
     <use xlink:href="#DejaVuSans-31" x="222.65625"/>
     <use xlink:href="#DejaVuSans-32" x="286.279297"/>
     <use xlink:href="#DejaVuSans-36" x="349.902344"/>
     <use xlink:href="#DejaVuSans-38" x="413.525391"/>
    </g>
   </g>
   <g id="text_38">
    <!-- 352.1335 -->
    <g transform="translate(386.230313 282.983341) scale(0.06 -0.06)">
     <use xlink:href="#DejaVuSans-33"/>
     <use xlink:href="#DejaVuSans-35" x="63.623047"/>
     <use xlink:href="#DejaVuSans-32" x="127.246094"/>
     <use xlink:href="#DejaVuSans-2e" x="190.869141"/>
     <use xlink:href="#DejaVuSans-31" x="222.65625"/>
     <use xlink:href="#DejaVuSans-33" x="286.279297"/>
     <use xlink:href="#DejaVuSans-33" x="349.902344"/>
     <use xlink:href="#DejaVuSans-35" x="413.525391"/>
    </g>
   </g>
   <g id="text_39">
    <!-- MS2 spectrum of ${m/z}$ 352.1331, scan time 8.94 min. -->
    <g transform="translate(57.6 35.472) scale(0.12 -0.12)">
     <defs>
      <path id="DejaVuSans-4d" d="M 628 4666 
L 1569 4666 
L 2759 1491 
L 3956 4666 
L 4897 4666 
L 4897 0 
L 4281 0 
L 4281 4097 
L 3078 897 
L 2444 897 
L 1241 4097 
L 1241 0 
L 628 0 
L 628 4666 
z
" transform="scale(0.015625)"/>
      <path id="DejaVuSans-53" d="M 3425 4513 
L 3425 3897 
Q 3066 4069 2747 4153 
Q 2428 4238 2131 4238 
Q 1616 4238 1336 4038 
Q 1056 3838 1056 3469 
Q 1056 3159 1242 3001 
Q 1428 2844 1947 2747 
L 2328 2669 
Q 3034 2534 3370 2195 
Q 3706 1856 3706 1288 
Q 3706 609 3251 259 
Q 2797 -91 1919 -91 
Q 1588 -91 1214 -16 
Q 841 59 441 206 
L 441 856 
Q 825 641 1194 531 
Q 1563 422 1919 422 
Q 2459 422 2753 634 
Q 3047 847 3047 1241 
Q 3047 1584 2836 1778 
Q 2625 1972 2144 2069 
L 1759 2144 
Q 1053 2284 737 2584 
Q 422 2884 422 3419 
Q 422 4038 858 4394 
Q 1294 4750 2059 4750 
Q 2388 4750 2728 4690 
Q 3069 4631 3425 4513 
z
" transform="scale(0.015625)"/>
      <path id="DejaVuSans-20" transform="scale(0.015625)"/>
      <path id="DejaVuSans-70" d="M 1159 525 
L 1159 -1331 
L 581 -1331 
L 581 3500 
L 1159 3500 
L 1159 2969 
Q 1341 3281 1617 3432 
Q 1894 3584 2278 3584 
Q 2916 3584 3314 3078 
Q 3713 2572 3713 1747 
Q 3713 922 3314 415 
Q 2916 -91 2278 -91 
Q 1894 -91 1617 61 
Q 1341 213 1159 525 
z
M 3116 1747 
Q 3116 2381 2855 2742 
Q 2594 3103 2138 3103 
Q 1681 3103 1420 2742 
Q 1159 2381 1159 1747 
Q 1159 1113 1420 752 
Q 1681 391 2138 391 
Q 2594 391 2855 752 
Q 3116 1113 3116 1747 
z
" transform="scale(0.015625)"/>
      <path id="DejaVuSans-63" d="M 3122 3366 
L 3122 2828 
Q 2878 2963 2633 3030 
Q 2388 3097 2138 3097 
Q 1578 3097 1268 2742 
Q 959 2388 959 1747 
Q 959 1106 1268 751 
Q 1578 397 2138 397 
Q 2388 397 2633 464 
Q 2878 531 3122 666 
L 3122 134 
Q 2881 22 2623 -34 
Q 2366 -91 2075 -91 
Q 1284 -91 818 406 
Q 353 903 353 1747 
Q 353 2603 823 3093 
Q 1294 3584 2113 3584 
Q 2378 3584 2631 3529 
Q 2884 3475 3122 3366 
z
" transform="scale(0.015625)"/>
      <path id="DejaVuSans-72" d="M 2631 2963 
Q 2534 3019 2420 3045 
Q 2306 3072 2169 3072 
Q 1681 3072 1420 2755 
Q 1159 2438 1159 1844 
L 1159 0 
L 581 0 
L 581 3500 
L 1159 3500 
L 1159 2956 
Q 1341 3275 1631 3429 
Q 1922 3584 2338 3584 
Q 2397 3584 2469 3576 
Q 2541 3569 2628 3553 
L 2631 2963 
z
" transform="scale(0.015625)"/>
      <path id="DejaVuSans-75" d="M 544 1381 
L 544 3500 
L 1119 3500 
L 1119 1403 
Q 1119 906 1312 657 
Q 1506 409 1894 409 
Q 2359 409 2629 706 
Q 2900 1003 2900 1516 
L 2900 3500 
L 3475 3500 
L 3475 0 
L 2900 0 
L 2900 538 
Q 2691 219 2414 64 
Q 2138 -91 1772 -91 
Q 1169 -91 856 284 
Q 544 659 544 1381 
z
M 1991 3584 
L 1991 3584 
z
" transform="scale(0.015625)"/>
      <path id="DejaVuSans-6d" d="M 3328 2828 
Q 3544 3216 3844 3400 
Q 4144 3584 4550 3584 
Q 5097 3584 5394 3201 
Q 5691 2819 5691 2113 
L 5691 0 
L 5113 0 
L 5113 2094 
Q 5113 2597 4934 2840 
Q 4756 3084 4391 3084 
Q 3944 3084 3684 2787 
Q 3425 2491 3425 1978 
L 3425 0 
L 2847 0 
L 2847 2094 
Q 2847 2600 2669 2842 
Q 2491 3084 2119 3084 
Q 1678 3084 1418 2786 
Q 1159 2488 1159 1978 
L 1159 0 
L 581 0 
L 581 3500 
L 1159 3500 
L 1159 2956 
Q 1356 3278 1631 3431 
Q 1906 3584 2284 3584 
Q 2666 3584 2933 3390 
Q 3200 3197 3328 2828 
z
" transform="scale(0.015625)"/>
      <path id="DejaVuSans-6f" d="M 1959 3097 
Q 1497 3097 1228 2736 
Q 959 2375 959 1747 
Q 959 1119 1226 758 
Q 1494 397 1959 397 
Q 2419 397 2687 759 
Q 2956 1122 2956 1747 
Q 2956 2369 2687 2733 
Q 2419 3097 1959 3097 
z
M 1959 3584 
Q 2709 3584 3137 3096 
Q 3566 2609 3566 1747 
Q 3566 888 3137 398 
Q 2709 -91 1959 -91 
Q 1206 -91 779 398 
Q 353 888 353 1747 
Q 353 2609 779 3096 
Q 1206 3584 1959 3584 
z
" transform="scale(0.015625)"/>
      <path id="DejaVuSans-66" d="M 2375 4863 
L 2375 4384 
L 1825 4384 
Q 1516 4384 1395 4259 
Q 1275 4134 1275 3809 
L 1275 3500 
L 2222 3500 
L 2222 3053 
L 1275 3053 
L 1275 0 
L 697 0 
L 697 3053 
L 147 3053 
L 147 3500 
L 697 3500 
L 697 3744 
Q 697 4328 969 4595 
Q 1241 4863 1831 4863 
L 2375 4863 
z
" transform="scale(0.015625)"/>
      <path id="DejaVuSans-2c" d="M 750 794 
L 1409 794 
L 1409 256 
L 897 -744 
L 494 -744 
L 750 256 
L 750 794 
z
" transform="scale(0.015625)"/>
      <path id="DejaVuSans-61" d="M 2194 1759 
Q 1497 1759 1228 1600 
Q 959 1441 959 1056 
Q 959 750 1161 570 
Q 1363 391 1709 391 
Q 2188 391 2477 730 
Q 2766 1069 2766 1631 
L 2766 1759 
L 2194 1759 
z
M 3341 1997 
L 3341 0 
L 2766 0 
L 2766 531 
Q 2569 213 2275 61 
Q 1981 -91 1556 -91 
Q 1019 -91 701 211 
Q 384 513 384 1019 
Q 384 1609 779 1909 
Q 1175 2209 1959 2209 
L 2766 2209 
L 2766 2266 
Q 2766 2663 2505 2880 
Q 2244 3097 1772 3097 
Q 1472 3097 1187 3025 
Q 903 2953 641 2809 
L 641 3341 
Q 956 3463 1253 3523 
Q 1550 3584 1831 3584 
Q 2591 3584 2966 3190 
Q 3341 2797 3341 1997 
z
" transform="scale(0.015625)"/>
     </defs>
     <use xlink:href="#DejaVuSans-4d" transform="translate(0 0.015625)"/>
     <use xlink:href="#DejaVuSans-53" transform="translate(86.279297 0.015625)"/>
     <use xlink:href="#DejaVuSans-32" transform="translate(149.755859 0.015625)"/>
     <use xlink:href="#DejaVuSans-20" transform="translate(213.378906 0.015625)"/>
     <use xlink:href="#DejaVuSans-73" transform="translate(245.166016 0.015625)"/>
     <use xlink:href="#DejaVuSans-70" transform="translate(297.265625 0.015625)"/>
     <use xlink:href="#DejaVuSans-65" transform="translate(360.742188 0.015625)"/>
     <use xlink:href="#DejaVuSans-63" transform="translate(422.265625 0.015625)"/>
     <use xlink:href="#DejaVuSans-74" transform="translate(477.246094 0.015625)"/>
     <use xlink:href="#DejaVuSans-72" transform="translate(516.455078 0.015625)"/>
     <use xlink:href="#DejaVuSans-75" transform="translate(557.568359 0.015625)"/>
     <use xlink:href="#DejaVuSans-6d" transform="translate(620.947266 0.015625)"/>
     <use xlink:href="#DejaVuSans-20" transform="translate(718.359375 0.015625)"/>
     <use xlink:href="#DejaVuSans-6f" transform="translate(750.146484 0.015625)"/>
     <use xlink:href="#DejaVuSans-66" transform="translate(811.328125 0.015625)"/>
     <use xlink:href="#DejaVuSans-20" transform="translate(846.533203 0.015625)"/>
     <use xlink:href="#DejaVuSans-Oblique-6d" transform="translate(878.320312 0.015625)"/>
     <use xlink:href="#DejaVuSans-2f" transform="translate(975.732422 0.015625)"/>
     <use xlink:href="#DejaVuSans-Oblique-7a" transform="translate(1009.423828 0.015625)"/>
     <use xlink:href="#DejaVuSans-20" transform="translate(1061.914062 0.015625)"/>
     <use xlink:href="#DejaVuSans-33" transform="translate(1093.701172 0.015625)"/>
     <use xlink:href="#DejaVuSans-35" transform="translate(1157.324219 0.015625)"/>
     <use xlink:href="#DejaVuSans-32" transform="translate(1220.947266 0.015625)"/>
     <use xlink:href="#DejaVuSans-2e" transform="translate(1284.570312 0.015625)"/>
     <use xlink:href="#DejaVuSans-31" transform="translate(1316.357422 0.015625)"/>
     <use xlink:href="#DejaVuSans-33" transform="translate(1379.980469 0.015625)"/>
     <use xlink:href="#DejaVuSans-33" transform="translate(1443.603516 0.015625)"/>
     <use xlink:href="#DejaVuSans-31" transform="translate(1507.226562 0.015625)"/>
     <use xlink:href="#DejaVuSans-2c" transform="translate(1570.849609 0.015625)"/>
     <use xlink:href="#DejaVuSans-20" transform="translate(1602.636719 0.015625)"/>
     <use xlink:href="#DejaVuSans-73" transform="translate(1634.423828 0.015625)"/>
     <use xlink:href="#DejaVuSans-63" transform="translate(1686.523438 0.015625)"/>
     <use xlink:href="#DejaVuSans-61" transform="translate(1741.503906 0.015625)"/>
     <use xlink:href="#DejaVuSans-6e" transform="translate(1802.783203 0.015625)"/>
     <use xlink:href="#DejaVuSans-20" transform="translate(1866.162109 0.015625)"/>
     <use xlink:href="#DejaVuSans-74" transform="translate(1897.949219 0.015625)"/>
     <use xlink:href="#DejaVuSans-69" transform="translate(1937.158203 0.015625)"/>
     <use xlink:href="#DejaVuSans-6d" transform="translate(1964.941406 0.015625)"/>
     <use xlink:href="#DejaVuSans-65" transform="translate(2062.353516 0.015625)"/>
     <use xlink:href="#DejaVuSans-20" transform="translate(2123.876953 0.015625)"/>
     <use xlink:href="#DejaVuSans-38" transform="translate(2155.664062 0.015625)"/>
     <use xlink:href="#DejaVuSans-2e" transform="translate(2219.287109 0.015625)"/>
     <use xlink:href="#DejaVuSans-39" transform="translate(2251.074219 0.015625)"/>
     <use xlink:href="#DejaVuSans-34" transform="translate(2314.697266 0.015625)"/>
     <use xlink:href="#DejaVuSans-20" transform="translate(2378.320312 0.015625)"/>
     <use xlink:href="#DejaVuSans-6d" transform="translate(2410.107422 0.015625)"/>
     <use xlink:href="#DejaVuSans-69" transform="translate(2507.519531 0.015625)"/>
     <use xlink:href="#DejaVuSans-6e" transform="translate(2535.302734 0.015625)"/>
     <use xlink:href="#DejaVuSans-2e" transform="translate(2598.681641 0.015625)"/>
    </g>
   </g>
  </g>
 </g>
 <defs>
  <clipPath id="pee42ae3043">
   <rect x="57.6" y="41.472" width="357.12" height="266.112"/>
  </clipPath>
 </defs>
</svg>
