<?xml version="1.0" encoding="utf-8" standalone="no"?>
<!DOCTYPE svg PUBLIC "-//W3C//DTD SVG 1.1//EN"
  "http://www.w3.org/Graphics/SVG/1.1/DTD/svg11.dtd">
<svg xmlns:xlink="http://www.w3.org/1999/xlink" width="460.8pt" height="345.6pt" viewBox="0 0 460.8 345.6" xmlns="http://www.w3.org/2000/svg" version="1.1">
 <metadata>
  <rdf:RDF xmlns:dc="http://purl.org/dc/elements/1.1/" xmlns:cc="http://creativecommons.org/ns#" xmlns:rdf="http://www.w3.org/1999/02/22-rdf-syntax-ns#">
   <cc:Work>
    <dc:type rdf:resource="http://purl.org/dc/dcmitype/StillImage"/>
    <dc:date>2025-01-11T12:52:31.429402</dc:date>
    <dc:format>image/svg+xml</dc:format>
    <dc:creator>
     <cc:Agent>
      <dc:title>Matplotlib v3.7.3, https://matplotlib.org/</dc:title>
     </cc:Agent>
    </dc:creator>
   </cc:Work>
  </rdf:RDF>
 </metadata>
 <defs>
  <style type="text/css">*{stroke-linejoin: round; stroke-linecap: butt}</style>
 </defs>
 <g id="figure_1">
  <g id="patch_1">
   <path d="M 0 345.6 
L 460.8 345.6 
L 460.8 0 
L 0 0 
z
" style="fill: #ffffff"/>
  </g>
  <g id="axes_1">
   <g id="patch_2">
    <path d="M 57.6 307.584 
L 414.72 307.584 
L 414.72 41.472 
L 57.6 41.472 
z
" style="fill: #ffffff"/>
   </g>
   <g id="patch_3">
    <path d="M 73.832727 307.584 
L 74.59006 307.584 
L 74.59006 305.27373 
L 73.832727 305.27373 
z
" clip-path="url(#pc71a888998)" style="fill: #1f77b4"/>
   </g>
   <g id="patch_4">
    <path d="M 75.740785 307.584 
L 76.498117 307.584 
L 76.498117 306.306674 
L 75.740785 306.306674 
z
" clip-path="url(#pc71a888998)" style="fill: #1f77b4"/>
   </g>
   <g id="patch_5">
    <path d="M 83.394961 307.584 
L 84.152293 307.584 
L 84.152293 306.584721 
L 83.394961 306.584721 
z
" clip-path="url(#pc71a888998)" style="fill: #1f77b4"/>
   </g>
   <g id="patch_6">
    <path d="M 86.331204 307.584 
L 87.088537 307.584 
L 87.088537 306.424596 
L 86.331204 306.424596 
z
" clip-path="url(#pc71a888998)" style="fill: #1f77b4"/>
   </g>
   <g id="patch_7">
    <path d="M 87.019211 307.584 
L 87.776543 307.584 
L 87.776543 306.333708 
L 87.019211 306.333708 
z
" clip-path="url(#pc71a888998)" style="fill: #1f77b4"/>
   </g>
   <g id="patch_8">
    <path d="M 87.100789 307.584 
L 87.858121 307.584 
L 87.858121 305.837752 
L 87.100789 305.837752 
z
" clip-path="url(#pc71a888998)" style="fill: #1f77b4"/>
   </g>
   <g id="patch_9">
    <path d="M 88.974352 307.584 
L 89.731684 307.584 
L 89.731684 305.247652 
L 88.974352 305.247652 
z
" clip-path="url(#pc71a888998)" style="fill: #1f77b4"/>
   </g>
   <g id="patch_10">
    <path d="M 90.349289 307.584 
L 91.106622 307.584 
L 91.106622 305.600397 
L 90.349289 305.600397 
z
" clip-path="url(#pc71a888998)" style="fill: #1f77b4"/>
   </g>
   <g id="patch_11">
    <path d="M 90.408087 307.584 
L 91.16542 307.584 
L 91.16542 306.345134 
L 90.408087 306.345134 
z
" clip-path="url(#pc71a888998)" style="fill: #1f77b4"/>
   </g>
   <g id="patch_12">
    <path d="M 90.848233 307.584 
L 91.605565 307.584 
L 91.605565 206.091655 
L 90.848233 206.091655 
z
" clip-path="url(#pc71a888998)" style="fill: #1f77b4"/>
   </g>
   <g id="patch_13">
    <path d="M 91.797758 307.584 
L 92.555091 307.584 
L 92.555091 306.173689 
L 91.797758 306.173689 
z
" clip-path="url(#pc71a888998)" style="fill: #1f77b4"/>
   </g>
   <g id="patch_14">
    <path d="M 94.823185 307.584 
L 95.580517 307.584 
L 95.580517 306.457681 
L 94.823185 306.457681 
z
" clip-path="url(#pc71a888998)" style="fill: #1f77b4"/>
   </g>
   <g id="patch_15">
    <path d="M 97.216341 307.584 
L 97.973673 307.584 
L 97.973673 306.359557 
L 97.216341 306.359557 
z
" clip-path="url(#pc71a888998)" style="fill: #1f77b4"/>
   </g>
   <g id="patch_16">
    <path d="M 98.460609 307.584 
L 99.217941 307.584 
L 99.217941 305.247306 
L 98.460609 305.247306 
z
" clip-path="url(#pc71a888998)" style="fill: #1f77b4"/>
   </g>
   <g id="patch_17">
    <path d="M 100.334417 307.584 
L 101.09175 307.584 
L 101.09175 249.006913 
L 100.334417 249.006913 
z
" clip-path="url(#pc71a888998)" style="fill: #1f77b4"/>
   </g>
   <g id="patch_18">
    <path d="M 101.283892 307.584 
L 102.041225 307.584 
L 102.041225 305.727776 
L 101.283892 305.727776 
z
" clip-path="url(#pc71a888998)" style="fill: #1f77b4"/>
   </g>
   <g id="patch_19">
    <path d="M 101.478733 307.584 
L 102.236066 307.584 
L 102.236066 305.85538 
L 101.478733 305.85538 
z
" clip-path="url(#pc71a888998)" style="fill: #1f77b4"/>
   </g>
   <g id="patch_20">
    <path d="M 103.189278 307.584 
L 103.94661 307.584 
L 103.94661 306.224329 
L 103.189278 306.224329 
z
" clip-path="url(#pc71a888998)" style="fill: #1f77b4"/>
   </g>
   <g id="patch_21">
    <path d="M 107.898034 307.584 
L 108.655367 307.584 
L 108.655367 238.973201 
L 107.898034 238.973201 
z
" clip-path="url(#pc71a888998)" style="fill: #1f77b4"/>
   </g>
   <g id="patch_22">
    <path d="M 109.820515 307.584 
L 110.577848 307.584 
L 110.577848 305.224203 
L 109.820515 305.224203 
z
" clip-path="url(#pc71a888998)" style="fill: #1f77b4"/>
   </g>
   <g id="patch_23">
    <path d="M 110.240149 307.584 
L 110.997481 307.584 
L 110.997481 303.530716 
L 110.240149 303.530716 
z
" clip-path="url(#pc71a888998)" style="fill: #1f77b4"/>
   </g>
   <g id="patch_24">
    <path d="M 111.728479 307.584 
L 112.485811 307.584 
L 112.485811 305.721507 
L 111.728479 305.721507 
z
" clip-path="url(#pc71a888998)" style="fill: #1f77b4"/>
   </g>
   <g id="patch_25">
    <path d="M 113.602251 307.584 
L 114.359584 307.584 
L 114.359584 304.495608 
L 113.602251 304.495608 
z
" clip-path="url(#pc71a888998)" style="fill: #1f77b4"/>
   </g>
   <g id="patch_26">
    <path d="M 113.636753 307.584 
L 114.394086 307.584 
L 114.394086 306.177627 
L 113.636753 306.177627 
z
" clip-path="url(#pc71a888998)" style="fill: #1f77b4"/>
   </g>
   <g id="patch_27">
    <path d="M 115.510699 307.584 
L 116.268032 307.584 
L 116.268032 300.524597 
L 115.510699 300.524597 
z
" clip-path="url(#pc71a888998)" style="fill: #1f77b4"/>
   </g>
   <g id="patch_28">
    <path d="M 117.418641 307.584 
L 118.175974 307.584 
L 118.175974 304.030717 
L 117.418641 304.030717 
z
" clip-path="url(#pc71a888998)" style="fill: #1f77b4"/>
   </g>
   <g id="patch_29">
    <path d="M 123.054122 307.584 
L 123.811454 307.584 
L 123.811454 305.114998 
L 123.054122 305.114998 
z
" clip-path="url(#pc71a888998)" style="fill: #1f77b4"/>
   </g>
   <g id="patch_30">
    <path d="M 124.996732 307.584 
L 125.754064 307.584 
L 125.754064 306.314667 
L 124.996732 306.314667 
z
" clip-path="url(#pc71a888998)" style="fill: #1f77b4"/>
   </g>
   <g id="patch_31">
    <path d="M 126.851235 307.584 
L 127.608567 307.584 
L 127.608567 304.742996 
L 126.851235 304.742996 
z
" clip-path="url(#pc71a888998)" style="fill: #1f77b4"/>
   </g>
   <g id="patch_32">
    <path d="M 128.738434 307.584 
L 129.495766 307.584 
L 129.495766 306.393298 
L 128.738434 306.393298 
z
" clip-path="url(#pc71a888998)" style="fill: #1f77b4"/>
   </g>
   <g id="patch_33">
    <path d="M 128.744147 307.584 
L 129.501479 307.584 
L 129.501479 297.394715 
L 128.744147 297.394715 
z
" clip-path="url(#pc71a888998)" style="fill: #1f77b4"/>
   </g>
   <g id="patch_34">
    <path d="M 136.355988 307.584 
L 137.113321 307.584 
L 137.113321 306.136013 
L 136.355988 306.136013 
z
" clip-path="url(#pc71a888998)" style="fill: #1f77b4"/>
   </g>
   <g id="patch_35">
    <path d="M 139.153343 307.584 
L 139.910676 307.584 
L 139.910676 294.026886 
L 139.153343 294.026886 
z
" clip-path="url(#pc71a888998)" style="fill: #1f77b4"/>
   </g>
   <g id="patch_36">
    <path d="M 140.103974 307.584 
L 140.861306 307.584 
L 140.861306 301.719967 
L 140.103974 301.719967 
z
" clip-path="url(#pc71a888998)" style="fill: #1f77b4"/>
   </g>
   <g id="patch_37">
    <path d="M 141.993174 307.584 
L 142.750506 307.584 
L 142.750506 306.127137 
L 141.993174 306.127137 
z
" clip-path="url(#pc71a888998)" style="fill: #1f77b4"/>
   </g>
   <g id="patch_38">
    <path d="M 145.793544 307.584 
L 146.550876 307.584 
L 146.550876 302.754517 
L 145.793544 302.754517 
z
" clip-path="url(#pc71a888998)" style="fill: #1f77b4"/>
   </g>
   <g id="patch_39">
    <path d="M 147.704527 307.584 
L 148.461859 307.584 
L 148.461859 305.758861 
L 147.704527 305.758861 
z
" clip-path="url(#pc71a888998)" style="fill: #1f77b4"/>
   </g>
   <g id="patch_40">
    <path d="M 157.153689 307.584 
L 157.911021 307.584 
L 157.911021 287.148134 
L 157.153689 287.148134 
z
" clip-path="url(#pc71a888998)" style="fill: #1f77b4"/>
   </g>
   <g id="patch_41">
    <path d="M 158.122239 307.584 
L 158.879571 307.584 
L 158.879571 306.222576 
L 158.122239 306.222576 
z
" clip-path="url(#pc71a888998)" style="fill: #1f77b4"/>
   </g>
   <g id="patch_42">
    <path d="M 159.075679 307.584 
L 159.833011 307.584 
L 159.833011 303.702147 
L 159.075679 303.702147 
z
" clip-path="url(#pc71a888998)" style="fill: #1f77b4"/>
   </g>
   <g id="patch_43">
    <path d="M 161.926148 307.584 
L 162.68348 307.584 
L 162.68348 304.953937 
L 161.926148 304.953937 
z
" clip-path="url(#pc71a888998)" style="fill: #1f77b4"/>
   </g>
   <g id="patch_44">
    <path d="M 169.470177 307.584 
L 170.22751 307.584 
L 170.22751 304.656852 
L 169.470177 304.656852 
z
" clip-path="url(#pc71a888998)" style="fill: #1f77b4"/>
   </g>
   <g id="patch_45">
    <path d="M 170.423849 307.584 
L 171.181181 307.584 
L 171.181181 306.057129 
L 170.423849 306.057129 
z
" clip-path="url(#pc71a888998)" style="fill: #1f77b4"/>
   </g>
   <g id="patch_46">
    <path d="M 179.888438 307.584 
L 180.64577 307.584 
L 180.64577 306.332284 
L 179.888438 306.332284 
z
" clip-path="url(#pc71a888998)" style="fill: #1f77b4"/>
   </g>
   <g id="patch_47">
    <path d="M 181.784037 307.584 
L 182.541369 307.584 
L 182.541369 306.114759 
L 181.784037 306.114759 
z
" clip-path="url(#pc71a888998)" style="fill: #1f77b4"/>
   </g>
   <g id="patch_48">
    <path d="M 181.796387 307.584 
L 182.55372 307.584 
L 182.55372 305.457782 
L 181.796387 305.457782 
z
" clip-path="url(#pc71a888998)" style="fill: #1f77b4"/>
   </g>
   <g id="patch_49">
    <path d="M 182.738503 307.584 
L 183.495835 307.584 
L 183.495835 294.035284 
L 182.738503 294.035284 
z
" clip-path="url(#pc71a888998)" style="fill: #1f77b4"/>
   </g>
   <g id="patch_50">
    <path d="M 196.919187 307.584 
L 197.676519 307.584 
L 197.676519 306.073138 
L 196.919187 306.073138 
z
" clip-path="url(#pc71a888998)" style="fill: #1f77b4"/>
   </g>
   <g id="patch_51">
    <path d="M 199.769165 307.584 
L 200.526497 307.584 
L 200.526497 303.242569 
L 199.769165 303.242569 
z
" clip-path="url(#pc71a888998)" style="fill: #1f77b4"/>
   </g>
   <g id="patch_52">
    <path d="M 205.457926 307.584 
L 206.215258 307.584 
L 206.215258 305.309165 
L 205.457926 305.309165 
z
" clip-path="url(#pc71a888998)" style="fill: #1f77b4"/>
   </g>
   <g id="patch_53">
    <path d="M 206.411539 307.584 
L 207.168872 307.584 
L 207.168872 306.079396 
L 206.411539 306.079396 
z
" clip-path="url(#pc71a888998)" style="fill: #1f77b4"/>
   </g>
   <g id="patch_54">
    <path d="M 207.367883 307.584 
L 208.125215 307.584 
L 208.125215 305.474855 
L 207.367883 305.474855 
z
" clip-path="url(#pc71a888998)" style="fill: #1f77b4"/>
   </g>
   <g id="patch_55">
    <path d="M 210.187324 307.584 
L 210.944656 307.584 
L 210.944656 305.701353 
L 210.187324 305.701353 
z
" clip-path="url(#pc71a888998)" style="fill: #1f77b4"/>
   </g>
   <g id="patch_56">
    <path d="M 222.542352 307.584 
L 223.299684 307.584 
L 223.299684 304.975608 
L 222.542352 304.975608 
z
" clip-path="url(#pc71a888998)" style="fill: #1f77b4"/>
   </g>
   <g id="patch_57">
    <path d="M 223.443443 307.584 
L 224.200776 307.584 
L 224.200776 256.749385 
L 223.443443 256.749385 
z
" clip-path="url(#pc71a888998)" style="fill: #1f77b4"/>
   </g>
   <g id="patch_58">
    <path d="M 224.397129 307.584 
L 225.154461 307.584 
L 225.154461 278.611955 
L 224.397129 278.611955 
z
" clip-path="url(#pc71a888998)" style="fill: #1f77b4"/>
   </g>
   <g id="patch_59">
    <path d="M 225.349183 307.584 
L 226.106515 307.584 
L 226.106515 305.75298 
L 225.349183 305.75298 
z
" clip-path="url(#pc71a888998)" style="fill: #1f77b4"/>
   </g>
   <g id="patch_60">
    <path d="M 233.848992 307.584 
L 234.606325 307.584 
L 234.606325 278.877419 
L 233.848992 278.877419 
z
" clip-path="url(#pc71a888998)" style="fill: #1f77b4"/>
   </g>
   <g id="patch_61">
    <path d="M 234.801075 307.584 
L 235.558407 307.584 
L 235.558407 301.135853 
L 234.801075 301.135853 
z
" clip-path="url(#pc71a888998)" style="fill: #1f77b4"/>
   </g>
   <g id="patch_62">
    <path d="M 235.757447 307.584 
L 236.51478 307.584 
L 236.51478 274.618111 
L 235.757447 274.618111 
z
" clip-path="url(#pc71a888998)" style="fill: #1f77b4"/>
   </g>
   <g id="patch_63">
    <path d="M 236.708201 307.584 
L 237.465533 307.584 
L 237.465533 305.791681 
L 236.708201 305.791681 
z
" clip-path="url(#pc71a888998)" style="fill: #1f77b4"/>
   </g>
   <g id="patch_64">
    <path d="M 244.267571 307.584 
L 245.024903 307.584 
L 245.024903 305.711066 
L 244.267571 305.711066 
z
" clip-path="url(#pc71a888998)" style="fill: #1f77b4"/>
   </g>
   <g id="patch_65">
    <path d="M 245.209022 307.584 
L 245.966354 307.584 
L 245.966354 305.06578 
L 245.209022 305.06578 
z
" clip-path="url(#pc71a888998)" style="fill: #1f77b4"/>
   </g>
   <g id="patch_66">
    <path d="M 246.163357 307.584 
L 246.92069 307.584 
L 246.92069 230.242398 
L 246.163357 230.242398 
z
" clip-path="url(#pc71a888998)" style="fill: #1f77b4"/>
   </g>
   <g id="patch_67">
    <path d="M 247.116798 307.584 
L 247.87413 307.584 
L 247.87413 262.888107 
L 247.116798 262.888107 
z
" clip-path="url(#pc71a888998)" style="fill: #1f77b4"/>
   </g>
   <g id="patch_68">
    <path d="M 248.066237 307.584 
L 248.823569 307.584 
L 248.823569 301.424402 
L 248.066237 301.424402 
z
" clip-path="url(#pc71a888998)" style="fill: #1f77b4"/>
   </g>
   <g id="patch_69">
    <path d="M 249.026668 307.584 
L 249.784 307.584 
L 249.784 288.092257 
L 249.026668 288.092257 
z
" clip-path="url(#pc71a888998)" style="fill: #1f77b4"/>
   </g>
   <g id="patch_70">
    <path d="M 249.975934 307.584 
L 250.733266 307.584 
L 250.733266 305.083072 
L 249.975934 305.083072 
z
" clip-path="url(#pc71a888998)" style="fill: #1f77b4"/>
   </g>
   <g id="patch_71">
    <path d="M 254.715501 307.584 
L 255.472834 307.584 
L 255.472834 304.566416 
L 254.715501 304.566416 
z
" clip-path="url(#pc71a888998)" style="fill: #1f77b4"/>
   </g>
   <g id="patch_72">
    <path d="M 256.57012 307.584 
L 257.327452 307.584 
L 257.327452 305.893201 
L 256.57012 305.893201 
z
" clip-path="url(#pc71a888998)" style="fill: #1f77b4"/>
   </g>
   <g id="patch_73">
    <path d="M 257.52369 307.584 
L 258.281022 307.584 
L 258.281022 303.936255 
L 257.52369 303.936255 
z
" clip-path="url(#pc71a888998)" style="fill: #1f77b4"/>
   </g>
   <g id="patch_74">
    <path d="M 258.477448 307.584 
L 259.23478 307.584 
L 259.23478 100.992077 
L 258.477448 100.992077 
z
" clip-path="url(#pc71a888998)" style="fill: #1f77b4"/>
   </g>
   <g id="patch_75">
    <path d="M 258.503045 307.584 
L 259.260377 307.584 
L 259.260377 305.89622 
L 258.503045 305.89622 
z
" clip-path="url(#pc71a888998)" style="fill: #1f77b4"/>
   </g>
   <g id="patch_76">
    <path d="M 259.429415 307.584 
L 260.186747 307.584 
L 260.186747 259.642054 
L 259.429415 259.642054 
z
" clip-path="url(#pc71a888998)" style="fill: #1f77b4"/>
   </g>
   <g id="patch_77">
    <path d="M 260.385325 307.584 
L 261.142657 307.584 
L 261.142657 238.439902 
L 260.385325 238.439902 
z
" clip-path="url(#pc71a888998)" style="fill: #1f77b4"/>
   </g>
   <g id="patch_78">
    <path d="M 261.336223 307.584 
L 262.093555 307.584 
L 262.093555 298.521552 
L 261.336223 298.521552 
z
" clip-path="url(#pc71a888998)" style="fill: #1f77b4"/>
   </g>
   <g id="patch_79">
    <path d="M 262.29248 307.584 
L 263.049812 307.584 
L 263.049812 305.505773 
L 262.29248 305.505773 
z
" clip-path="url(#pc71a888998)" style="fill: #1f77b4"/>
   </g>
   <g id="patch_80">
    <path d="M 263.209909 307.584 
L 263.967241 307.584 
L 263.967241 305.882904 
L 263.209909 305.882904 
z
" clip-path="url(#pc71a888998)" style="fill: #1f77b4"/>
   </g>
   <g id="patch_81">
    <path d="M 263.247711 307.584 
L 264.005044 307.584 
L 264.005044 248.823074 
L 263.247711 248.823074 
z
" clip-path="url(#pc71a888998)" style="fill: #1f77b4"/>
   </g>
   <g id="patch_82">
    <path d="M 264.166224 307.584 
L 264.923556 307.584 
L 264.923556 290.772959 
L 264.166224 290.772959 
z
" clip-path="url(#pc71a888998)" style="fill: #1f77b4"/>
   </g>
   <g id="patch_83">
    <path d="M 264.200805 307.584 
L 264.958137 307.584 
L 264.958137 276.963495 
L 264.200805 276.963495 
z
" clip-path="url(#pc71a888998)" style="fill: #1f77b4"/>
   </g>
   <g id="patch_84">
    <path d="M 265.116905 307.584 
L 265.874237 307.584 
L 265.874237 304.796823 
L 265.116905 304.796823 
z
" clip-path="url(#pc71a888998)" style="fill: #1f77b4"/>
   </g>
   <g id="patch_85">
    <path d="M 265.151414 307.584 
L 265.908746 307.584 
L 265.908746 304.027684 
L 265.151414 304.027684 
z
" clip-path="url(#pc71a888998)" style="fill: #1f77b4"/>
   </g>
   <g id="patch_86">
    <path d="M 268.882434 307.584 
L 269.639766 307.584 
L 269.639766 299.228662 
L 268.882434 299.228662 
z
" clip-path="url(#pc71a888998)" style="fill: #1f77b4"/>
   </g>
   <g id="patch_87">
    <path d="M 269.836582 307.584 
L 270.593914 307.584 
L 270.593914 294.108939 
L 269.836582 294.108939 
z
" clip-path="url(#pc71a888998)" style="fill: #1f77b4"/>
   </g>
   <g id="patch_88">
    <path d="M 270.791134 307.584 
L 271.548467 307.584 
L 271.548467 286.982489 
L 270.791134 286.982489 
z
" clip-path="url(#pc71a888998)" style="fill: #1f77b4"/>
   </g>
   <g id="patch_89">
    <path d="M 271.745427 307.584 
L 272.502759 307.584 
L 272.502759 223.796966 
L 271.745427 223.796966 
z
" clip-path="url(#pc71a888998)" style="fill: #1f77b4"/>
   </g>
   <g id="patch_90">
    <path d="M 272.69709 307.584 
L 273.454422 307.584 
L 273.454422 290.616205 
L 272.69709 290.616205 
z
" clip-path="url(#pc71a888998)" style="fill: #1f77b4"/>
   </g>
   <g id="patch_91">
    <path d="M 273.653607 307.584 
L 274.410939 307.584 
L 274.410939 161.000704 
L 273.653607 161.000704 
z
" clip-path="url(#pc71a888998)" style="fill: #1f77b4"/>
   </g>
   <g id="patch_92">
    <path d="M 274.603942 307.584 
L 275.361274 307.584 
L 275.361274 287.537895 
L 274.603942 287.537895 
z
" clip-path="url(#pc71a888998)" style="fill: #1f77b4"/>
   </g>
   <g id="patch_93">
    <path d="M 275.561643 307.584 
L 276.318975 307.584 
L 276.318975 288.097044 
L 275.561643 288.097044 
z
" clip-path="url(#pc71a888998)" style="fill: #1f77b4"/>
   </g>
   <g id="patch_94">
    <path d="M 276.511024 307.584 
L 277.268357 307.584 
L 277.268357 305.977444 
L 276.511024 305.977444 
z
" clip-path="url(#pc71a888998)" style="fill: #1f77b4"/>
   </g>
   <g id="patch_95">
    <path d="M 277.434115 307.584 
L 278.191448 307.584 
L 278.191448 299.231688 
L 277.434115 299.231688 
z
" clip-path="url(#pc71a888998)" style="fill: #1f77b4"/>
   </g>
   <g id="patch_96">
    <path d="M 279.307108 307.584 
L 280.06444 307.584 
L 280.06444 306.335851 
L 279.307108 306.335851 
z
" clip-path="url(#pc71a888998)" style="fill: #1f77b4"/>
   </g>
   <g id="patch_97">
    <path d="M 281.197001 307.584 
L 281.954333 307.584 
L 281.954333 287.678976 
L 281.197001 287.678976 
z
" clip-path="url(#pc71a888998)" style="fill: #1f77b4"/>
   </g>
   <g id="patch_98">
    <path d="M 282.151351 307.584 
L 282.908684 307.584 
L 282.908684 278.529311 
L 282.151351 278.529311 
z
" clip-path="url(#pc71a888998)" style="fill: #1f77b4"/>
   </g>
   <g id="patch_99">
    <path d="M 283.105355 307.584 
L 283.862687 307.584 
L 283.862687 102.291864 
L 283.105355 102.291864 
z
" clip-path="url(#pc71a888998)" style="fill: #1f77b4"/>
   </g>
   <g id="patch_100">
    <path d="M 284.0567 307.584 
L 284.814033 307.584 
L 284.814033 259.527411 
L 284.0567 259.527411 
z
" clip-path="url(#pc71a888998)" style="fill: #1f77b4"/>
   </g>
   <g id="patch_101">
    <path d="M 285.012582 307.584 
L 285.769914 307.584 
L 285.769914 293.494479 
L 285.012582 293.494479 
z
" clip-path="url(#pc71a888998)" style="fill: #1f77b4"/>
   </g>
   <g id="patch_102">
    <path d="M 285.967625 307.584 
L 286.724958 307.584 
L 286.724958 240.567424 
L 285.967625 240.567424 
z
" clip-path="url(#pc71a888998)" style="fill: #1f77b4"/>
   </g>
   <g id="patch_103">
    <path d="M 286.919924 307.584 
L 287.677257 307.584 
L 287.677257 287.069402 
L 286.919924 287.069402 
z
" clip-path="url(#pc71a888998)" style="fill: #1f77b4"/>
   </g>
   <g id="patch_104">
    <path d="M 286.966091 307.584 
L 287.723423 307.584 
L 287.723423 305.795021 
L 286.966091 305.795021 
z
" clip-path="url(#pc71a888998)" style="fill: #1f77b4"/>
   </g>
   <g id="patch_105">
    <path d="M 287.871906 307.584 
L 288.629238 307.584 
L 288.629238 306.159868 
L 287.871906 306.159868 
z
" clip-path="url(#pc71a888998)" style="fill: #1f77b4"/>
   </g>
   <g id="patch_106">
    <path d="M 294.464994 307.584 
L 295.222326 307.584 
L 295.222326 300.392448 
L 294.464994 300.392448 
z
" clip-path="url(#pc71a888998)" style="fill: #1f77b4"/>
   </g>
   <g id="patch_107">
    <path d="M 295.417438 307.584 
L 296.17477 307.584 
L 296.17477 301.821546 
L 295.417438 301.821546 
z
" clip-path="url(#pc71a888998)" style="fill: #1f77b4"/>
   </g>
   <g id="patch_108">
    <path d="M 296.345469 307.584 
L 297.102801 307.584 
L 297.102801 305.105104 
L 296.345469 305.105104 
z
" clip-path="url(#pc71a888998)" style="fill: #1f77b4"/>
   </g>
   <g id="patch_109">
    <path d="M 296.373348 307.584 
L 297.13068 307.584 
L 297.13068 210.259814 
L 296.373348 210.259814 
z
" clip-path="url(#pc71a888998)" style="fill: #1f77b4"/>
   </g>
   <g id="patch_110">
    <path d="M 297.324202 307.584 
L 298.081535 307.584 
L 298.081535 290.533655 
L 297.324202 290.533655 
z
" clip-path="url(#pc71a888998)" style="fill: #1f77b4"/>
   </g>
   <g id="patch_111">
    <path d="M 298.281644 307.584 
L 299.038976 307.584 
L 299.038976 54.144 
L 298.281644 54.144 
z
" clip-path="url(#pc71a888998)" style="fill: #1f77b4"/>
   </g>
   <g id="patch_112">
    <path d="M 299.231689 307.584 
L 299.989022 307.584 
L 299.989022 268.137606 
L 299.231689 268.137606 
z
" clip-path="url(#pc71a888998)" style="fill: #1f77b4"/>
   </g>
   <g id="patch_113">
    <path d="M 300.155503 307.584 
L 300.912835 307.584 
L 300.912835 297.516543 
L 300.155503 297.516543 
z
" clip-path="url(#pc71a888998)" style="fill: #1f77b4"/>
   </g>
   <g id="patch_114">
    <path d="M 300.189651 307.584 
L 300.946983 307.584 
L 300.946983 275.22403 
L 300.189651 275.22403 
z
" clip-path="url(#pc71a888998)" style="fill: #1f77b4"/>
   </g>
   <g id="patch_115">
    <path d="M 301.075359 307.584 
L 301.832691 307.584 
L 301.832691 305.821196 
L 301.075359 305.821196 
z
" clip-path="url(#pc71a888998)" style="fill: #1f77b4"/>
   </g>
   <g id="patch_116">
    <path d="M 301.11098 307.584 
L 301.868312 307.584 
L 301.868312 306.223581 
L 301.11098 306.223581 
z
" clip-path="url(#pc71a888998)" style="fill: #1f77b4"/>
   </g>
   <g id="patch_117">
    <path d="M 301.138368 307.584 
L 301.8957 307.584 
L 301.8957 301.745035 
L 301.138368 301.745035 
z
" clip-path="url(#pc71a888998)" style="fill: #1f77b4"/>
   </g>
   <g id="patch_118">
    <path d="M 305.824778 307.584 
L 306.58211 307.584 
L 306.58211 304.276688 
L 305.824778 304.276688 
z
" clip-path="url(#pc71a888998)" style="fill: #1f77b4"/>
   </g>
   <g id="patch_119">
    <path d="M 306.77725 307.584 
L 307.534583 307.584 
L 307.534583 305.438037 
L 306.77725 305.438037 
z
" clip-path="url(#pc71a888998)" style="fill: #1f77b4"/>
   </g>
   <g id="patch_120">
    <path d="M 307.73394 307.584 
L 308.491273 307.584 
L 308.491273 305.602529 
L 307.73394 305.602529 
z
" clip-path="url(#pc71a888998)" style="fill: #1f77b4"/>
   </g>
   <g id="patch_121">
    <path d="M 308.685979 307.584 
L 309.443312 307.584 
L 309.443312 305.094673 
L 308.685979 305.094673 
z
" clip-path="url(#pc71a888998)" style="fill: #1f77b4"/>
   </g>
   <g id="patch_122">
    <path d="M 309.641687 307.584 
L 310.39902 307.584 
L 310.39902 302.048037 
L 309.641687 302.048037 
z
" clip-path="url(#pc71a888998)" style="fill: #1f77b4"/>
   </g>
   <g id="patch_123">
    <path d="M 310.594998 307.584 
L 311.35233 307.584 
L 311.35233 303.649783 
L 310.594998 303.649783 
z
" clip-path="url(#pc71a888998)" style="fill: #1f77b4"/>
   </g>
   <g id="patch_124">
    <path d="M 311.548655 307.584 
L 312.305987 307.584 
L 312.305987 301.008168 
L 311.548655 301.008168 
z
" clip-path="url(#pc71a888998)" style="fill: #1f77b4"/>
   </g>
   <g id="patch_125">
    <path d="M 312.501647 307.584 
L 313.258979 307.584 
L 313.258979 302.879724 
L 312.501647 302.879724 
z
" clip-path="url(#pc71a888998)" style="fill: #1f77b4"/>
   </g>
   <g id="patch_126">
    <path d="M 313.457788 307.584 
L 314.215121 307.584 
L 314.215121 204.712302 
L 313.457788 204.712302 
z
" clip-path="url(#pc71a888998)" style="fill: #1f77b4"/>
   </g>
   <g id="patch_127">
    <path d="M 314.376864 307.584 
L 315.134196 307.584 
L 315.134196 305.303058 
L 314.376864 305.303058 
z
" clip-path="url(#pc71a888998)" style="fill: #1f77b4"/>
   </g>
   <g id="patch_128">
    <path d="M 314.407516 307.584 
L 315.164849 307.584 
L 315.164849 290.188802 
L 314.407516 290.188802 
z
" clip-path="url(#pc71a888998)" style="fill: #1f77b4"/>
   </g>
   <g id="patch_129">
    <path d="M 315.331214 307.584 
L 316.088547 307.584 
L 316.088547 292.403479 
L 315.331214 292.403479 
z
" clip-path="url(#pc71a888998)" style="fill: #1f77b4"/>
   </g>
   <g id="patch_130">
    <path d="M 316.281982 307.584 
L 317.039314 307.584 
L 317.039314 305.41975 
L 316.281982 305.41975 
z
" clip-path="url(#pc71a888998)" style="fill: #1f77b4"/>
   </g>
   <g id="patch_131">
    <path d="M 320.99942 307.584 
L 321.756752 307.584 
L 321.756752 303.690631 
L 320.99942 303.690631 
z
" clip-path="url(#pc71a888998)" style="fill: #1f77b4"/>
   </g>
   <g id="patch_132">
    <path d="M 321.954059 307.584 
L 322.711392 307.584 
L 322.711392 304.521274 
L 321.954059 304.521274 
z
" clip-path="url(#pc71a888998)" style="fill: #1f77b4"/>
   </g>
   <g id="patch_133">
    <path d="M 322.875041 307.584 
L 323.632374 307.584 
L 323.632374 261.01822 
L 322.875041 261.01822 
z
" clip-path="url(#pc71a888998)" style="fill: #1f77b4"/>
   </g>
   <g id="patch_134">
    <path d="M 322.909969 307.584 
L 323.667302 307.584 
L 323.667302 254.439367 
L 322.909969 254.439367 
z
" clip-path="url(#pc71a888998)" style="fill: #1f77b4"/>
   </g>
   <g id="patch_135">
    <path d="M 323.824712 307.584 
L 324.582044 307.584 
L 324.582044 300.131928 
L 323.824712 300.131928 
z
" clip-path="url(#pc71a888998)" style="fill: #1f77b4"/>
   </g>
   <g id="patch_136">
    <path d="M 323.861026 307.584 
L 324.618359 307.584 
L 324.618359 291.493175 
L 323.861026 291.493175 
z
" clip-path="url(#pc71a888998)" style="fill: #1f77b4"/>
   </g>
   <g id="patch_137">
    <path d="M 329.318884 307.584 
L 330.076217 307.584 
L 330.076217 306.296561 
L 329.318884 306.296561 
z
" clip-path="url(#pc71a888998)" style="fill: #1f77b4"/>
   </g>
   <g id="patch_138">
    <path d="M 336.17776 307.584 
L 336.935093 307.584 
L 336.935093 286.767203 
L 336.17776 286.767203 
z
" clip-path="url(#pc71a888998)" style="fill: #1f77b4"/>
   </g>
   <g id="patch_139">
    <path d="M 337.127748 307.584 
L 337.88508 307.584 
L 337.88508 305.699711 
L 337.127748 305.699711 
z
" clip-path="url(#pc71a888998)" style="fill: #1f77b4"/>
   </g>
   <g id="patch_140">
    <path d="M 338.019032 307.584 
L 338.776364 307.584 
L 338.776364 304.906897 
L 338.019032 304.906897 
z
" clip-path="url(#pc71a888998)" style="fill: #1f77b4"/>
   </g>
   <g id="patch_141">
    <path d="M 338.052977 307.584 
L 338.81031 307.584 
L 338.81031 306.245381 
L 338.052977 306.245381 
z
" clip-path="url(#pc71a888998)" style="fill: #1f77b4"/>
   </g>
   <g id="patch_142">
    <path d="M 338.086605 307.584 
L 338.843938 307.584 
L 338.843938 302.340306 
L 338.086605 302.340306 
z
" clip-path="url(#pc71a888998)" style="fill: #1f77b4"/>
   </g>
   <g id="patch_143">
    <path d="M 338.971071 307.584 
L 339.728403 307.584 
L 339.728403 273.711114 
L 338.971071 273.711114 
z
" clip-path="url(#pc71a888998)" style="fill: #1f77b4"/>
   </g>
   <g id="patch_144">
    <path d="M 339.925334 307.584 
L 340.682667 307.584 
L 340.682667 111.033491 
L 339.925334 111.033491 
z
" clip-path="url(#pc71a888998)" style="fill: #1f77b4"/>
   </g>
   <g id="patch_145">
    <path d="M 339.958586 307.584 
L 340.715919 307.584 
L 340.715919 296.117325 
L 339.958586 296.117325 
z
" clip-path="url(#pc71a888998)" style="fill: #1f77b4"/>
   </g>
   <g id="patch_146">
    <path d="M 339.999495 307.584 
L 340.756827 307.584 
L 340.756827 306.175676 
L 339.999495 306.175676 
z
" clip-path="url(#pc71a888998)" style="fill: #1f77b4"/>
   </g>
   <g id="patch_147">
    <path d="M 340.874889 307.584 
L 341.632221 307.584 
L 341.632221 277.058913 
L 340.874889 277.058913 
z
" clip-path="url(#pc71a888998)" style="fill: #1f77b4"/>
   </g>
   <g id="patch_148">
    <path d="M 340.911377 307.584 
L 341.668709 307.584 
L 341.668709 305.060804 
L 340.911377 305.060804 
z
" clip-path="url(#pc71a888998)" style="fill: #1f77b4"/>
   </g>
   <g id="patch_149">
    <path d="M 355.135713 307.584 
L 355.893046 307.584 
L 355.893046 276.832572 
L 355.135713 276.832572 
z
" clip-path="url(#pc71a888998)" style="fill: #1f77b4"/>
   </g>
   <g id="patch_150">
    <path d="M 356.020728 307.584 
L 356.77806 307.584 
L 356.77806 298.680778 
L 356.020728 298.680778 
z
" clip-path="url(#pc71a888998)" style="fill: #1f77b4"/>
   </g>
   <g id="patch_151">
    <path d="M 356.085499 307.584 
L 356.842831 307.584 
L 356.842831 303.999318 
L 356.085499 303.999318 
z
" clip-path="url(#pc71a888998)" style="fill: #1f77b4"/>
   </g>
   <g id="patch_152">
    <path d="M 356.97554 307.584 
L 357.732872 307.584 
L 357.732872 285.494936 
L 356.97554 285.494936 
z
" clip-path="url(#pc71a888998)" style="fill: #1f77b4"/>
   </g>
   <g id="patch_153">
    <path d="M 357.924488 307.584 
L 358.68182 307.584 
L 358.68182 304.056729 
L 357.924488 304.056729 
z
" clip-path="url(#pc71a888998)" style="fill: #1f77b4"/>
   </g>
   <g id="patch_154">
    <path d="M 362.679223 307.584 
L 363.436555 307.584 
L 363.436555 296.982001 
L 362.679223 296.982001 
z
" clip-path="url(#pc71a888998)" style="fill: #1f77b4"/>
   </g>
   <g id="patch_155">
    <path d="M 379.729775 307.584 
L 380.487108 307.584 
L 380.487108 88.886686 
L 379.729775 88.886686 
z
" clip-path="url(#pc71a888998)" style="fill: #1f77b4"/>
   </g>
   <g id="patch_156">
    <path d="M 380.679619 307.584 
L 381.436951 307.584 
L 381.436951 268.054632 
L 380.679619 268.054632 
z
" clip-path="url(#pc71a888998)" style="fill: #1f77b4"/>
   </g>
   <g id="patch_157">
    <path d="M 395.825429 307.584 
L 396.582761 307.584 
L 396.582761 305.342148 
L 395.825429 305.342148 
z
" clip-path="url(#pc71a888998)" style="fill: #1f77b4"/>
   </g>
   <g id="patch_158">
    <path d="M 396.730233 307.584 
L 397.487565 307.584 
L 397.487565 304.636085 
L 396.730233 304.636085 
z
" clip-path="url(#pc71a888998)" style="fill: #1f77b4"/>
   </g>
   <g id="patch_159">
    <path d="M 396.77975 307.584 
L 397.537083 307.584 
L 397.537083 218.886774 
L 396.77975 218.886774 
z
" clip-path="url(#pc71a888998)" style="fill: #1f77b4"/>
   </g>
   <g id="patch_160">
    <path d="M 396.829499 307.584 
L 397.586831 307.584 
L 397.586831 305.434936 
L 396.829499 305.434936 
z
" clip-path="url(#pc71a888998)" style="fill: #1f77b4"/>
   </g>
   <g id="patch_161">
    <path d="M 397.72994 307.584 
L 398.487273 307.584 
L 398.487273 292.808936 
L 397.72994 292.808936 
z
" clip-path="url(#pc71a888998)" style="fill: #1f77b4"/>
   </g>
   <g id="matplotlib.axis_1">
    <g id="xtick_1">
     <g id="line2d_1">
      <defs>
       <path id="mccb62d689b" d="M 0 0 
L 0 3.5 
" style="stroke: #000000; stroke-width: 0.8"/>
      </defs>
      <g>
       <use xlink:href="#mccb62d689b" x="71.334111" y="307.584" style="stroke: #000000; stroke-width: 0.8"/>
      </g>
     </g>
     <g id="text_1">
      <!-- 50 -->
      <g transform="translate(64.971611 322.182437) scale(0.1 -0.1)">
       <defs>
        <path id="DejaVuSans-35" d="M 691 4666 
L 3169 4666 
L 3169 4134 
L 1269 4134 
L 1269 2991 
Q 1406 3038 1543 3061 
Q 1681 3084 1819 3084 
Q 2600 3084 3056 2656 
Q 3513 2228 3513 1497 
Q 3513 744 3044 326 
Q 2575 -91 1722 -91 
Q 1428 -91 1123 -41 
Q 819 9 494 109 
L 494 744 
Q 775 591 1075 516 
Q 1375 441 1709 441 
Q 2250 441 2565 725 
Q 2881 1009 2881 1497 
Q 2881 1984 2565 2268 
Q 2250 2553 1709 2553 
Q 1456 2553 1204 2497 
Q 953 2441 691 2322 
L 691 4666 
z
" transform="scale(0.015625)"/>
        <path id="DejaVuSans-30" d="M 2034 4250 
Q 1547 4250 1301 3770 
Q 1056 3291 1056 2328 
Q 1056 1369 1301 889 
Q 1547 409 2034 409 
Q 2525 409 2770 889 
Q 3016 1369 3016 2328 
Q 3016 3291 2770 3770 
Q 2525 4250 2034 4250 
z
M 2034 4750 
Q 2819 4750 3233 4129 
Q 3647 3509 3647 2328 
Q 3647 1150 3233 529 
Q 2819 -91 2034 -91 
Q 1250 -91 836 529 
Q 422 1150 422 2328 
Q 422 3509 836 4129 
Q 1250 4750 2034 4750 
z
" transform="scale(0.015625)"/>
       </defs>
       <use xlink:href="#DejaVuSans-35"/>
       <use xlink:href="#DejaVuSans-30" x="63.623047"/>
      </g>
     </g>
    </g>
    <g id="xtick_2">
     <g id="line2d_2">
      <g>
       <use xlink:href="#mccb62d689b" x="118.667386" y="307.584" style="stroke: #000000; stroke-width: 0.8"/>
      </g>
     </g>
     <g id="text_2">
      <!-- 100 -->
      <g transform="translate(109.123636 322.182437) scale(0.1 -0.1)">
       <defs>
        <path id="DejaVuSans-31" d="M 794 531 
L 1825 531 
L 1825 4091 
L 703 3866 
L 703 4441 
L 1819 4666 
L 2450 4666 
L 2450 531 
L 3481 531 
L 3481 0 
L 794 0 
L 794 531 
z
" transform="scale(0.015625)"/>
       </defs>
       <use xlink:href="#DejaVuSans-31"/>
       <use xlink:href="#DejaVuSans-30" x="63.623047"/>
       <use xlink:href="#DejaVuSans-30" x="127.246094"/>
      </g>
     </g>
    </g>
    <g id="xtick_3">
     <g id="line2d_3">
      <g>
       <use xlink:href="#mccb62d689b" x="166.00066" y="307.584" style="stroke: #000000; stroke-width: 0.8"/>
      </g>
     </g>
     <g id="text_3">
      <!-- 150 -->
      <g transform="translate(156.45691 322.182437) scale(0.1 -0.1)">
       <use xlink:href="#DejaVuSans-31"/>
       <use xlink:href="#DejaVuSans-35" x="63.623047"/>
       <use xlink:href="#DejaVuSans-30" x="127.246094"/>
      </g>
     </g>
    </g>
    <g id="xtick_4">
     <g id="line2d_4">
      <g>
       <use xlink:href="#mccb62d689b" x="213.333935" y="307.584" style="stroke: #000000; stroke-width: 0.8"/>
      </g>
     </g>
     <g id="text_4">
      <!-- 200 -->
      <g transform="translate(203.790185 322.182437) scale(0.1 -0.1)">
       <defs>
        <path id="DejaVuSans-32" d="M 1228 531 
L 3431 531 
L 3431 0 
L 469 0 
L 469 531 
Q 828 903 1448 1529 
Q 2069 2156 2228 2338 
Q 2531 2678 2651 2914 
Q 2772 3150 2772 3378 
Q 2772 3750 2511 3984 
Q 2250 4219 1831 4219 
Q 1534 4219 1204 4116 
Q 875 4013 500 3803 
L 500 4441 
Q 881 4594 1212 4672 
Q 1544 4750 1819 4750 
Q 2544 4750 2975 4387 
Q 3406 4025 3406 3419 
Q 3406 3131 3298 2873 
Q 3191 2616 2906 2266 
Q 2828 2175 2409 1742 
Q 1991 1309 1228 531 
z
" transform="scale(0.015625)"/>
       </defs>
       <use xlink:href="#DejaVuSans-32"/>
       <use xlink:href="#DejaVuSans-30" x="63.623047"/>
       <use xlink:href="#DejaVuSans-30" x="127.246094"/>
      </g>
     </g>
    </g>
    <g id="xtick_5">
     <g id="line2d_5">
      <g>
       <use xlink:href="#mccb62d689b" x="260.66721" y="307.584" style="stroke: #000000; stroke-width: 0.8"/>
      </g>
     </g>
     <g id="text_5">
      <!-- 250 -->
      <g transform="translate(251.12346 322.182437) scale(0.1 -0.1)">
       <use xlink:href="#DejaVuSans-32"/>
       <use xlink:href="#DejaVuSans-35" x="63.623047"/>
       <use xlink:href="#DejaVuSans-30" x="127.246094"/>
      </g>
     </g>
    </g>
    <g id="xtick_6">
     <g id="line2d_6">
      <g>
       <use xlink:href="#mccb62d689b" x="308.000485" y="307.584" style="stroke: #000000; stroke-width: 0.8"/>
      </g>
     </g>
     <g id="text_6">
      <!-- 300 -->
      <g transform="translate(298.456735 322.182437) scale(0.1 -0.1)">
       <defs>
        <path id="DejaVuSans-33" d="M 2597 2516 
Q 3050 2419 3304 2112 
Q 3559 1806 3559 1356 
Q 3559 666 3084 287 
Q 2609 -91 1734 -91 
Q 1441 -91 1130 -33 
Q 819 25 488 141 
L 488 750 
Q 750 597 1062 519 
Q 1375 441 1716 441 
Q 2309 441 2620 675 
Q 2931 909 2931 1356 
Q 2931 1769 2642 2001 
Q 2353 2234 1838 2234 
L 1294 2234 
L 1294 2753 
L 1863 2753 
Q 2328 2753 2575 2939 
Q 2822 3125 2822 3475 
Q 2822 3834 2567 4026 
Q 2313 4219 1838 4219 
Q 1578 4219 1281 4162 
Q 984 4106 628 3988 
L 628 4550 
Q 988 4650 1302 4700 
Q 1616 4750 1894 4750 
Q 2613 4750 3031 4423 
Q 3450 4097 3450 3541 
Q 3450 3153 3228 2886 
Q 3006 2619 2597 2516 
z
" transform="scale(0.015625)"/>
       </defs>
       <use xlink:href="#DejaVuSans-33"/>
       <use xlink:href="#DejaVuSans-30" x="63.623047"/>
       <use xlink:href="#DejaVuSans-30" x="127.246094"/>
      </g>
     </g>
    </g>
    <g id="xtick_7">
     <g id="line2d_7">
      <g>
       <use xlink:href="#mccb62d689b" x="355.33376" y="307.584" style="stroke: #000000; stroke-width: 0.8"/>
      </g>
     </g>
     <g id="text_7">
      <!-- 350 -->
      <g transform="translate(345.79001 322.182437) scale(0.1 -0.1)">
       <use xlink:href="#DejaVuSans-33"/>
       <use xlink:href="#DejaVuSans-35" x="63.623047"/>
       <use xlink:href="#DejaVuSans-30" x="127.246094"/>
      </g>
     </g>
    </g>
    <g id="xtick_8">
     <g id="line2d_8">
      <g>
       <use xlink:href="#mccb62d689b" x="402.667034" y="307.584" style="stroke: #000000; stroke-width: 0.8"/>
      </g>
     </g>
     <g id="text_8">
      <!-- 400 -->
      <g transform="translate(393.123284 322.182437) scale(0.1 -0.1)">
       <defs>
        <path id="DejaVuSans-34" d="M 2419 4116 
L 825 1625 
L 2419 1625 
L 2419 4116 
z
M 2253 4666 
L 3047 4666 
L 3047 1625 
L 3713 1625 
L 3713 1100 
L 3047 1100 
L 3047 0 
L 2419 0 
L 2419 1100 
L 313 1100 
L 313 1709 
L 2253 4666 
z
" transform="scale(0.015625)"/>
       </defs>
       <use xlink:href="#DejaVuSans-34"/>
       <use xlink:href="#DejaVuSans-30" x="63.623047"/>
       <use xlink:href="#DejaVuSans-30" x="127.246094"/>
      </g>
     </g>
    </g>
    <g id="text_9">
     <!-- ${m/z}$ -->
     <g transform="translate(226.96 335.860562) scale(0.1 -0.1)">
      <defs>
       <path id="DejaVuSans-Oblique-6d" d="M 5747 2113 
L 5338 0 
L 4763 0 
L 5166 2094 
Q 5191 2228 5203 2325 
Q 5216 2422 5216 2491 
Q 5216 2772 5059 2928 
Q 4903 3084 4622 3084 
Q 4203 3084 3875 2770 
Q 3547 2456 3450 1953 
L 3066 0 
L 2491 0 
L 2900 2094 
Q 2925 2209 2937 2307 
Q 2950 2406 2950 2484 
Q 2950 2769 2794 2926 
Q 2638 3084 2363 3084 
Q 1938 3084 1609 2770 
Q 1281 2456 1184 1953 
L 800 0 
L 225 0 
L 909 3500 
L 1484 3500 
L 1375 2956 
Q 1609 3263 1923 3423 
Q 2238 3584 2597 3584 
Q 2978 3584 3223 3384 
Q 3469 3184 3519 2828 
Q 3781 3197 4126 3390 
Q 4472 3584 4856 3584 
Q 5306 3584 5551 3325 
Q 5797 3066 5797 2591 
Q 5797 2488 5784 2364 
Q 5772 2241 5747 2113 
z
" transform="scale(0.015625)"/>
       <path id="DejaVuSans-2f" d="M 1625 4666 
L 2156 4666 
L 531 -594 
L 0 -594 
L 1625 4666 
z
" transform="scale(0.015625)"/>
       <path id="DejaVuSans-Oblique-7a" d="M 744 3500 
L 3475 3500 
L 3372 2975 
L 738 459 
L 2913 459 
L 2822 0 
L -19 0 
L 84 525 
L 2719 3041 
L 653 3041 
L 744 3500 
z
" transform="scale(0.015625)"/>
      </defs>
      <use xlink:href="#DejaVuSans-Oblique-6d" transform="translate(0 0.09375)"/>
      <use xlink:href="#DejaVuSans-2f" transform="translate(97.412109 0.09375)"/>
      <use xlink:href="#DejaVuSans-Oblique-7a" transform="translate(131.103516 0.09375)"/>
     </g>
    </g>
   </g>
   <g id="matplotlib.axis_2">
    <g id="ytick_1">
     <g id="line2d_9">
      <defs>
       <path id="mbfae9a224c" d="M 0 0 
L -3.5 0 
" style="stroke: #000000; stroke-width: 0.8"/>
      </defs>
      <g>
       <use xlink:href="#mbfae9a224c" x="57.6" y="307.584" style="stroke: #000000; stroke-width: 0.8"/>
      </g>
     </g>
     <g id="text_10">
      <!-- 0.0 -->
      <g transform="translate(34.696875 311.383219) scale(0.1 -0.1)">
       <defs>
        <path id="DejaVuSans-2e" d="M 684 794 
L 1344 794 
L 1344 0 
L 684 0 
L 684 794 
z
" transform="scale(0.015625)"/>
       </defs>
       <use xlink:href="#DejaVuSans-30"/>
       <use xlink:href="#DejaVuSans-2e" x="63.623047"/>
       <use xlink:href="#DejaVuSans-30" x="95.410156"/>
      </g>
     </g>
    </g>
    <g id="ytick_2">
     <g id="line2d_10">
      <g>
       <use xlink:href="#mbfae9a224c" x="57.6" y="267.309804" style="stroke: #000000; stroke-width: 0.8"/>
      </g>
     </g>
     <g id="text_11">
      <!-- 0.2 -->
      <g transform="translate(34.696875 271.109023) scale(0.1 -0.1)">
       <use xlink:href="#DejaVuSans-30"/>
       <use xlink:href="#DejaVuSans-2e" x="63.623047"/>
       <use xlink:href="#DejaVuSans-32" x="95.410156"/>
      </g>
     </g>
    </g>
    <g id="ytick_3">
     <g id="line2d_11">
      <g>
       <use xlink:href="#mbfae9a224c" x="57.6" y="227.035609" style="stroke: #000000; stroke-width: 0.8"/>
      </g>
     </g>
     <g id="text_12">
      <!-- 0.4 -->
      <g transform="translate(34.696875 230.834828) scale(0.1 -0.1)">
       <use xlink:href="#DejaVuSans-30"/>
       <use xlink:href="#DejaVuSans-2e" x="63.623047"/>
       <use xlink:href="#DejaVuSans-34" x="95.410156"/>
      </g>
     </g>
    </g>
    <g id="ytick_4">
     <g id="line2d_12">
      <g>
       <use xlink:href="#mbfae9a224c" x="57.6" y="186.761413" style="stroke: #000000; stroke-width: 0.8"/>
      </g>
     </g>
     <g id="text_13">
      <!-- 0.6 -->
      <g transform="translate(34.696875 190.560632) scale(0.1 -0.1)">
       <defs>
        <path id="DejaVuSans-36" d="M 2113 2584 
Q 1688 2584 1439 2293 
Q 1191 2003 1191 1497 
Q 1191 994 1439 701 
Q 1688 409 2113 409 
Q 2538 409 2786 701 
Q 3034 994 3034 1497 
Q 3034 2003 2786 2293 
Q 2538 2584 2113 2584 
z
M 3366 4563 
L 3366 3988 
Q 3128 4100 2886 4159 
Q 2644 4219 2406 4219 
Q 1781 4219 1451 3797 
Q 1122 3375 1075 2522 
Q 1259 2794 1537 2939 
Q 1816 3084 2150 3084 
Q 2853 3084 3261 2657 
Q 3669 2231 3669 1497 
Q 3669 778 3244 343 
Q 2819 -91 2113 -91 
Q 1303 -91 875 529 
Q 447 1150 447 2328 
Q 447 3434 972 4092 
Q 1497 4750 2381 4750 
Q 2619 4750 2861 4703 
Q 3103 4656 3366 4563 
z
" transform="scale(0.015625)"/>
       </defs>
       <use xlink:href="#DejaVuSans-30"/>
       <use xlink:href="#DejaVuSans-2e" x="63.623047"/>
       <use xlink:href="#DejaVuSans-36" x="95.410156"/>
      </g>
     </g>
    </g>
    <g id="ytick_5">
     <g id="line2d_13">
      <g>
       <use xlink:href="#mbfae9a224c" x="57.6" y="146.487218" style="stroke: #000000; stroke-width: 0.8"/>
      </g>
     </g>
     <g id="text_14">
      <!-- 0.8 -->
      <g transform="translate(34.696875 150.286437) scale(0.1 -0.1)">
       <defs>
        <path id="DejaVuSans-38" d="M 2034 2216 
Q 1584 2216 1326 1975 
Q 1069 1734 1069 1313 
Q 1069 891 1326 650 
Q 1584 409 2034 409 
Q 2484 409 2743 651 
Q 3003 894 3003 1313 
Q 3003 1734 2745 1975 
Q 2488 2216 2034 2216 
z
M 1403 2484 
Q 997 2584 770 2862 
Q 544 3141 544 3541 
Q 544 4100 942 4425 
Q 1341 4750 2034 4750 
Q 2731 4750 3128 4425 
Q 3525 4100 3525 3541 
Q 3525 3141 3298 2862 
Q 3072 2584 2669 2484 
Q 3125 2378 3379 2068 
Q 3634 1759 3634 1313 
Q 3634 634 3220 271 
Q 2806 -91 2034 -91 
Q 1263 -91 848 271 
Q 434 634 434 1313 
Q 434 1759 690 2068 
Q 947 2378 1403 2484 
z
M 1172 3481 
Q 1172 3119 1398 2916 
Q 1625 2713 2034 2713 
Q 2441 2713 2670 2916 
Q 2900 3119 2900 3481 
Q 2900 3844 2670 4047 
Q 2441 4250 2034 4250 
Q 1625 4250 1398 4047 
Q 1172 3844 1172 3481 
z
" transform="scale(0.015625)"/>
       </defs>
       <use xlink:href="#DejaVuSans-30"/>
       <use xlink:href="#DejaVuSans-2e" x="63.623047"/>
       <use xlink:href="#DejaVuSans-38" x="95.410156"/>
      </g>
     </g>
    </g>
    <g id="ytick_6">
     <g id="line2d_14">
      <g>
       <use xlink:href="#mbfae9a224c" x="57.6" y="106.213022" style="stroke: #000000; stroke-width: 0.8"/>
      </g>
     </g>
     <g id="text_15">
      <!-- 1.0 -->
      <g transform="translate(34.696875 110.012241) scale(0.1 -0.1)">
       <use xlink:href="#DejaVuSans-31"/>
       <use xlink:href="#DejaVuSans-2e" x="63.623047"/>
       <use xlink:href="#DejaVuSans-30" x="95.410156"/>
      </g>
     </g>
    </g>
    <g id="ytick_7">
     <g id="line2d_15">
      <g>
       <use xlink:href="#mbfae9a224c" x="57.6" y="65.938827" style="stroke: #000000; stroke-width: 0.8"/>
      </g>
     </g>
     <g id="text_16">
      <!-- 1.2 -->
      <g transform="translate(34.696875 69.738046) scale(0.1 -0.1)">
       <use xlink:href="#DejaVuSans-31"/>
       <use xlink:href="#DejaVuSans-2e" x="63.623047"/>
       <use xlink:href="#DejaVuSans-32" x="95.410156"/>
      </g>
     </g>
    </g>
    <g id="text_17">
     <!-- intensities -->
     <g transform="translate(28.617187 200.3155) rotate(-90) scale(0.1 -0.1)">
      <defs>
       <path id="DejaVuSans-69" d="M 603 3500 
L 1178 3500 
L 1178 0 
L 603 0 
L 603 3500 
z
M 603 4863 
L 1178 4863 
L 1178 4134 
L 603 4134 
L 603 4863 
z
" transform="scale(0.015625)"/>
       <path id="DejaVuSans-6e" d="M 3513 2113 
L 3513 0 
L 2938 0 
L 2938 2094 
Q 2938 2591 2744 2837 
Q 2550 3084 2163 3084 
Q 1697 3084 1428 2787 
Q 1159 2491 1159 1978 
L 1159 0 
L 581 0 
L 581 3500 
L 1159 3500 
L 1159 2956 
Q 1366 3272 1645 3428 
Q 1925 3584 2291 3584 
Q 2894 3584 3203 3211 
Q 3513 2838 3513 2113 
z
" transform="scale(0.015625)"/>
       <path id="DejaVuSans-74" d="M 1172 4494 
L 1172 3500 
L 2356 3500 
L 2356 3053 
L 1172 3053 
L 1172 1153 
Q 1172 725 1289 603 
Q 1406 481 1766 481 
L 2356 481 
L 2356 0 
L 1766 0 
Q 1100 0 847 248 
Q 594 497 594 1153 
L 594 3053 
L 172 3053 
L 172 3500 
L 594 3500 
L 594 4494 
L 1172 4494 
z
" transform="scale(0.015625)"/>
       <path id="DejaVuSans-65" d="M 3597 1894 
L 3597 1613 
L 953 1613 
Q 991 1019 1311 708 
Q 1631 397 2203 397 
Q 2534 397 2845 478 
Q 3156 559 3463 722 
L 3463 178 
Q 3153 47 2828 -22 
Q 2503 -91 2169 -91 
Q 1331 -91 842 396 
Q 353 884 353 1716 
Q 353 2575 817 3079 
Q 1281 3584 2069 3584 
Q 2775 3584 3186 3129 
Q 3597 2675 3597 1894 
z
M 3022 2063 
Q 3016 2534 2758 2815 
Q 2500 3097 2075 3097 
Q 1594 3097 1305 2825 
Q 1016 2553 972 2059 
L 3022 2063 
z
" transform="scale(0.015625)"/>
       <path id="DejaVuSans-73" d="M 2834 3397 
L 2834 2853 
Q 2591 2978 2328 3040 
Q 2066 3103 1784 3103 
Q 1356 3103 1142 2972 
Q 928 2841 928 2578 
Q 928 2378 1081 2264 
Q 1234 2150 1697 2047 
L 1894 2003 
Q 2506 1872 2764 1633 
Q 3022 1394 3022 966 
Q 3022 478 2636 193 
Q 2250 -91 1575 -91 
Q 1294 -91 989 -36 
Q 684 19 347 128 
L 347 722 
Q 666 556 975 473 
Q 1284 391 1588 391 
Q 1994 391 2212 530 
Q 2431 669 2431 922 
Q 2431 1156 2273 1281 
Q 2116 1406 1581 1522 
L 1381 1569 
Q 847 1681 609 1914 
Q 372 2147 372 2553 
Q 372 3047 722 3315 
Q 1072 3584 1716 3584 
Q 2034 3584 2315 3537 
Q 2597 3491 2834 3397 
z
" transform="scale(0.015625)"/>
      </defs>
      <use xlink:href="#DejaVuSans-69"/>
      <use xlink:href="#DejaVuSans-6e" x="27.783203"/>
      <use xlink:href="#DejaVuSans-74" x="91.162109"/>
      <use xlink:href="#DejaVuSans-65" x="130.371094"/>
      <use xlink:href="#DejaVuSans-6e" x="191.894531"/>
      <use xlink:href="#DejaVuSans-73" x="255.273438"/>
      <use xlink:href="#DejaVuSans-69" x="307.373047"/>
      <use xlink:href="#DejaVuSans-74" x="335.15625"/>
      <use xlink:href="#DejaVuSans-69" x="374.365234"/>
      <use xlink:href="#DejaVuSans-65" x="402.148438"/>
      <use xlink:href="#DejaVuSans-73" x="463.671875"/>
     </g>
    </g>
    <g id="text_18">
     <!-- 1e6 -->
     <g transform="translate(57.6 38.472) scale(0.1 -0.1)">
      <use xlink:href="#DejaVuSans-31"/>
      <use xlink:href="#DejaVuSans-65" x="63.623047"/>
      <use xlink:href="#DejaVuSans-36" x="125.146484"/>
     </g>
    </g>
   </g>
   <g id="patch_162">
    <path d="M 57.6 307.584 
L 57.6 41.472 
" style="fill: none; stroke: #000000; stroke-width: 0.8; stroke-linejoin: miter; stroke-linecap: square"/>
   </g>
   <g id="patch_163">
    <path d="M 414.72 307.584 
L 414.72 41.472 
" style="fill: none; stroke: #000000; stroke-width: 0.8; stroke-linejoin: miter; stroke-linecap: square"/>
   </g>
   <g id="patch_164">
    <path d="M 57.6 307.584 
L 414.72 307.584 
" style="fill: none; stroke: #000000; stroke-width: 0.8; stroke-linejoin: miter; stroke-linecap: square"/>
   </g>
   <g id="patch_165">
    <path d="M 57.6 41.472 
L 414.72 41.472 
" style="fill: none; stroke: #000000; stroke-width: 0.8; stroke-linejoin: miter; stroke-linecap: square"/>
   </g>
   <g id="text_19">
    <!-- 71.0135 -->
    <g transform="translate(84.580962 202.88728) scale(0.06 -0.06)">
     <defs>
      <path id="DejaVuSans-37" d="M 525 4666 
L 3525 4666 
L 3525 4397 
L 1831 0 
L 1172 0 
L 2766 4134 
L 525 4134 
L 525 4666 
z
" transform="scale(0.015625)"/>
     </defs>
     <use xlink:href="#DejaVuSans-37"/>
     <use xlink:href="#DejaVuSans-31" x="63.623047"/>
     <use xlink:href="#DejaVuSans-2e" x="127.246094"/>
     <use xlink:href="#DejaVuSans-30" x="159.033203"/>
     <use xlink:href="#DejaVuSans-31" x="222.65625"/>
     <use xlink:href="#DejaVuSans-33" x="286.279297"/>
     <use xlink:href="#DejaVuSans-35" x="349.902344"/>
    </g>
   </g>
   <g id="text_20">
    <!-- 81.0342 -->
    <g transform="translate(94.067146 253.902538) scale(0.06 -0.06)">
     <use xlink:href="#DejaVuSans-38"/>
     <use xlink:href="#DejaVuSans-31" x="63.623047"/>
     <use xlink:href="#DejaVuSans-2e" x="127.246094"/>
     <use xlink:href="#DejaVuSans-30" x="159.033203"/>
     <use xlink:href="#DejaVuSans-33" x="222.65625"/>
     <use xlink:href="#DejaVuSans-34" x="286.279297"/>
     <use xlink:href="#DejaVuSans-32" x="349.902344"/>
    </g>
   </g>
   <g id="text_21">
    <!-- 89.0239 -->
    <g transform="translate(101.630763 233.788826) scale(0.06 -0.06)">
     <defs>
      <path id="DejaVuSans-39" d="M 703 97 
L 703 672 
Q 941 559 1184 500 
Q 1428 441 1663 441 
Q 2288 441 2617 861 
Q 2947 1281 2994 2138 
Q 2813 1869 2534 1725 
Q 2256 1581 1919 1581 
Q 1219 1581 811 2004 
Q 403 2428 403 3163 
Q 403 3881 828 4315 
Q 1253 4750 1959 4750 
Q 2769 4750 3195 4129 
Q 3622 3509 3622 2328 
Q 3622 1225 3098 567 
Q 2575 -91 1691 -91 
Q 1453 -91 1209 -44 
Q 966 3 703 97 
z
M 1959 2075 
Q 2384 2075 2632 2365 
Q 2881 2656 2881 3163 
Q 2881 3666 2632 3958 
Q 2384 4250 1959 4250 
Q 1534 4250 1286 3958 
Q 1038 3666 1038 3163 
Q 1038 2656 1286 2365 
Q 1534 2075 1959 2075 
z
" transform="scale(0.015625)"/>
     </defs>
     <use xlink:href="#DejaVuSans-38"/>
     <use xlink:href="#DejaVuSans-39" x="63.623047"/>
     <use xlink:href="#DejaVuSans-2e" x="127.246094"/>
     <use xlink:href="#DejaVuSans-30" x="159.033203"/>
     <use xlink:href="#DejaVuSans-32" x="222.65625"/>
     <use xlink:href="#DejaVuSans-33" x="286.279297"/>
     <use xlink:href="#DejaVuSans-39" x="349.902344"/>
    </g>
   </g>
   <g id="text_22">
    <!-- 211.0791 -->
    <g transform="translate(216.707422 248.68501) scale(0.06 -0.06)">
     <use xlink:href="#DejaVuSans-32"/>
     <use xlink:href="#DejaVuSans-31" x="63.623047"/>
     <use xlink:href="#DejaVuSans-31" x="127.246094"/>
     <use xlink:href="#DejaVuSans-2e" x="190.869141"/>
     <use xlink:href="#DejaVuSans-30" x="222.65625"/>
     <use xlink:href="#DejaVuSans-37" x="286.279297"/>
     <use xlink:href="#DejaVuSans-39" x="349.902344"/>
     <use xlink:href="#DejaVuSans-31" x="413.525391"/>
    </g>
   </g>
   <g id="text_23">
    <!-- 212.0865 -->
    <g transform="translate(207.581108 283.50758) scale(0.06 -0.06)">
     <use xlink:href="#DejaVuSans-32"/>
     <use xlink:href="#DejaVuSans-31" x="63.623047"/>
     <use xlink:href="#DejaVuSans-32" x="127.246094"/>
     <use xlink:href="#DejaVuSans-2e" x="190.869141"/>
     <use xlink:href="#DejaVuSans-30" x="222.65625"/>
     <use xlink:href="#DejaVuSans-38" x="286.279297"/>
     <use xlink:href="#DejaVuSans-36" x="349.902344"/>
     <use xlink:href="#DejaVuSans-35" x="413.525391"/>
    </g>
   </g>
   <g id="text_24">
    <!-- 222.0709 -->
    <g transform="translate(235.752971 283.773044) scale(0.06 -0.06)">
     <use xlink:href="#DejaVuSans-32"/>
     <use xlink:href="#DejaVuSans-32" x="63.623047"/>
     <use xlink:href="#DejaVuSans-32" x="127.246094"/>
     <use xlink:href="#DejaVuSans-2e" x="190.869141"/>
     <use xlink:href="#DejaVuSans-30" x="222.65625"/>
     <use xlink:href="#DejaVuSans-37" x="286.279297"/>
     <use xlink:href="#DejaVuSans-30" x="349.902344"/>
     <use xlink:href="#DejaVuSans-39" x="413.525391"/>
    </g>
   </g>
   <g id="text_25">
    <!-- 224.0868 -->
    <g transform="translate(209.581426 273.033736) scale(0.06 -0.06)">
     <use xlink:href="#DejaVuSans-32"/>
     <use xlink:href="#DejaVuSans-32" x="63.623047"/>
     <use xlink:href="#DejaVuSans-34" x="127.246094"/>
     <use xlink:href="#DejaVuSans-2e" x="190.869141"/>
     <use xlink:href="#DejaVuSans-30" x="222.65625"/>
     <use xlink:href="#DejaVuSans-38" x="286.279297"/>
     <use xlink:href="#DejaVuSans-36" x="349.902344"/>
     <use xlink:href="#DejaVuSans-38" x="413.525391"/>
    </g>
   </g>
   <g id="text_26">
    <!-- 235.079 -->
    <g transform="translate(239.896086 225.058023) scale(0.06 -0.06)">
     <use xlink:href="#DejaVuSans-32"/>
     <use xlink:href="#DejaVuSans-33" x="63.623047"/>
     <use xlink:href="#DejaVuSans-35" x="127.246094"/>
     <use xlink:href="#DejaVuSans-2e" x="190.869141"/>
     <use xlink:href="#DejaVuSans-30" x="222.65625"/>
     <use xlink:href="#DejaVuSans-37" x="286.279297"/>
     <use xlink:href="#DejaVuSans-39" x="349.902344"/>
    </g>
   </g>
   <g id="text_27">
    <!-- 236.0862 -->
    <g transform="translate(243.980776 255.543732) scale(0.06 -0.06)">
     <use xlink:href="#DejaVuSans-32"/>
     <use xlink:href="#DejaVuSans-33" x="63.623047"/>
     <use xlink:href="#DejaVuSans-36" x="127.246094"/>
     <use xlink:href="#DejaVuSans-2e" x="190.869141"/>
     <use xlink:href="#DejaVuSans-30" x="222.65625"/>
     <use xlink:href="#DejaVuSans-38" x="286.279297"/>
     <use xlink:href="#DejaVuSans-36" x="349.902344"/>
     <use xlink:href="#DejaVuSans-32" x="413.525391"/>
    </g>
   </g>
   <g id="text_28">
    <!-- 248.0869 -->
    <g transform="translate(251.741427 95.087702) scale(0.06 -0.06)">
     <use xlink:href="#DejaVuSans-32"/>
     <use xlink:href="#DejaVuSans-34" x="63.623047"/>
     <use xlink:href="#DejaVuSans-38" x="127.246094"/>
     <use xlink:href="#DejaVuSans-2e" x="190.869141"/>
     <use xlink:href="#DejaVuSans-30" x="222.65625"/>
     <use xlink:href="#DejaVuSans-38" x="286.279297"/>
     <use xlink:href="#DejaVuSans-36" x="349.902344"/>
     <use xlink:href="#DejaVuSans-39" x="413.525391"/>
    </g>
   </g>
   <g id="text_29">
    <!-- 249.0925 -->
    <g transform="translate(239.013394 262.248987) scale(0.06 -0.06)">
     <use xlink:href="#DejaVuSans-32"/>
     <use xlink:href="#DejaVuSans-34" x="63.623047"/>
     <use xlink:href="#DejaVuSans-39" x="127.246094"/>
     <use xlink:href="#DejaVuSans-2e" x="190.869141"/>
     <use xlink:href="#DejaVuSans-30" x="222.65625"/>
     <use xlink:href="#DejaVuSans-39" x="286.279297"/>
     <use xlink:href="#DejaVuSans-32" x="349.902344"/>
     <use xlink:href="#DejaVuSans-35" x="413.525391"/>
    </g>
   </g>
   <g id="text_30">
    <!-- 250.1022 -->
    <g transform="translate(253.649304 233.255527) scale(0.06 -0.06)">
     <use xlink:href="#DejaVuSans-32"/>
     <use xlink:href="#DejaVuSans-35" x="63.623047"/>
     <use xlink:href="#DejaVuSans-30" x="127.246094"/>
     <use xlink:href="#DejaVuSans-2e" x="190.869141"/>
     <use xlink:href="#DejaVuSans-31" x="222.65625"/>
     <use xlink:href="#DejaVuSans-30" x="286.279297"/>
     <use xlink:href="#DejaVuSans-32" x="349.902344"/>
     <use xlink:href="#DejaVuSans-32" x="413.525391"/>
    </g>
   </g>
   <g id="text_31">
    <!-- 253.1259 -->
    <g transform="translate(256.51169 246.518699) scale(0.06 -0.06)">
     <use xlink:href="#DejaVuSans-32"/>
     <use xlink:href="#DejaVuSans-35" x="63.623047"/>
     <use xlink:href="#DejaVuSans-33" x="127.246094"/>
     <use xlink:href="#DejaVuSans-2e" x="190.869141"/>
     <use xlink:href="#DejaVuSans-31" x="222.65625"/>
     <use xlink:href="#DejaVuSans-32" x="286.279297"/>
     <use xlink:href="#DejaVuSans-35" x="349.902344"/>
     <use xlink:href="#DejaVuSans-39" x="413.525391"/>
    </g>
   </g>
   <g id="text_32">
    <!-- 254.1327 -->
    <g transform="translate(238.024783 275.37912) scale(0.06 -0.06)">
     <use xlink:href="#DejaVuSans-32"/>
     <use xlink:href="#DejaVuSans-35" x="63.623047"/>
     <use xlink:href="#DejaVuSans-34" x="127.246094"/>
     <use xlink:href="#DejaVuSans-2e" x="190.869141"/>
     <use xlink:href="#DejaVuSans-31" x="222.65625"/>
     <use xlink:href="#DejaVuSans-33" x="286.279297"/>
     <use xlink:href="#DejaVuSans-32" x="349.902344"/>
     <use xlink:href="#DejaVuSans-37" x="413.525391"/>
    </g>
   </g>
   <g id="text_33">
    <!-- 262.1024 -->
    <g transform="translate(265.009405 218.612591) scale(0.06 -0.06)">
     <use xlink:href="#DejaVuSans-32"/>
     <use xlink:href="#DejaVuSans-36" x="63.623047"/>
     <use xlink:href="#DejaVuSans-32" x="127.246094"/>
     <use xlink:href="#DejaVuSans-2e" x="190.869141"/>
     <use xlink:href="#DejaVuSans-31" x="222.65625"/>
     <use xlink:href="#DejaVuSans-30" x="286.279297"/>
     <use xlink:href="#DejaVuSans-32" x="349.902344"/>
     <use xlink:href="#DejaVuSans-34" x="413.525391"/>
    </g>
   </g>
   <g id="text_34">
    <!-- 264.118 -->
    <g transform="translate(267.386336 157.796329) scale(0.06 -0.06)">
     <use xlink:href="#DejaVuSans-32"/>
     <use xlink:href="#DejaVuSans-36" x="63.623047"/>
     <use xlink:href="#DejaVuSans-34" x="127.246094"/>
     <use xlink:href="#DejaVuSans-2e" x="190.869141"/>
     <use xlink:href="#DejaVuSans-31" x="222.65625"/>
     <use xlink:href="#DejaVuSans-31" x="286.279297"/>
     <use xlink:href="#DejaVuSans-38" x="349.902344"/>
    </g>
   </g>
   <g id="text_35">
    <!-- 273.0945 -->
    <g transform="translate(275.41533 283.424936) scale(0.06 -0.06)">
     <use xlink:href="#DejaVuSans-32"/>
     <use xlink:href="#DejaVuSans-37" x="63.623047"/>
     <use xlink:href="#DejaVuSans-33" x="127.246094"/>
     <use xlink:href="#DejaVuSans-2e" x="190.869141"/>
     <use xlink:href="#DejaVuSans-30" x="222.65625"/>
     <use xlink:href="#DejaVuSans-39" x="286.279297"/>
     <use xlink:href="#DejaVuSans-34" x="349.902344"/>
     <use xlink:href="#DejaVuSans-35" x="413.525391"/>
    </g>
   </g>
   <g id="text_36">
    <!-- 274.1023 -->
    <g transform="translate(279.249333 98.837382) scale(0.06 -0.06)">
     <use xlink:href="#DejaVuSans-32"/>
     <use xlink:href="#DejaVuSans-37" x="63.623047"/>
     <use xlink:href="#DejaVuSans-34" x="127.246094"/>
     <use xlink:href="#DejaVuSans-2e" x="190.869141"/>
     <use xlink:href="#DejaVuSans-31" x="222.65625"/>
     <use xlink:href="#DejaVuSans-30" x="286.279297"/>
     <use xlink:href="#DejaVuSans-32" x="349.902344"/>
     <use xlink:href="#DejaVuSans-33" x="413.525391"/>
    </g>
   </g>
   <g id="text_37">
    <!-- 275.1072 -->
    <g transform="translate(279.480679 257.943036) scale(0.06 -0.06)">
     <use xlink:href="#DejaVuSans-32"/>
     <use xlink:href="#DejaVuSans-37" x="63.623047"/>
     <use xlink:href="#DejaVuSans-35" x="127.246094"/>
     <use xlink:href="#DejaVuSans-2e" x="190.869141"/>
     <use xlink:href="#DejaVuSans-31" x="222.65625"/>
     <use xlink:href="#DejaVuSans-30" x="286.279297"/>
     <use xlink:href="#DejaVuSans-37" x="349.902344"/>
     <use xlink:href="#DejaVuSans-32" x="413.525391"/>
    </g>
   </g>
   <g id="text_38">
    <!-- 277.1258 -->
    <g transform="translate(279.231604 235.383049) scale(0.06 -0.06)">
     <use xlink:href="#DejaVuSans-32"/>
     <use xlink:href="#DejaVuSans-37" x="63.623047"/>
     <use xlink:href="#DejaVuSans-37" x="127.246094"/>
     <use xlink:href="#DejaVuSans-2e" x="190.869141"/>
     <use xlink:href="#DejaVuSans-31" x="222.65625"/>
     <use xlink:href="#DejaVuSans-32" x="286.279297"/>
     <use xlink:href="#DejaVuSans-35" x="349.902344"/>
     <use xlink:href="#DejaVuSans-38" x="413.525391"/>
    </g>
   </g>
   <g id="text_39">
    <!-- 288.1178 -->
    <g transform="translate(291.077326 209.542952) scale(0.06 -0.06)">
     <use xlink:href="#DejaVuSans-32"/>
     <use xlink:href="#DejaVuSans-38" x="63.623047"/>
     <use xlink:href="#DejaVuSans-38" x="127.246094"/>
     <use xlink:href="#DejaVuSans-2e" x="190.869141"/>
     <use xlink:href="#DejaVuSans-31" x="222.65625"/>
     <use xlink:href="#DejaVuSans-31" x="286.279297"/>
     <use xlink:href="#DejaVuSans-37" x="349.902344"/>
     <use xlink:href="#DejaVuSans-38" x="413.525391"/>
    </g>
   </g>
   <g id="text_40">
    <!-- 290.1336 -->
    <g transform="translate(291.545622 50.939625) scale(0.06 -0.06)">
     <use xlink:href="#DejaVuSans-32"/>
     <use xlink:href="#DejaVuSans-39" x="63.623047"/>
     <use xlink:href="#DejaVuSans-30" x="127.246094"/>
     <use xlink:href="#DejaVuSans-2e" x="190.869141"/>
     <use xlink:href="#DejaVuSans-31" x="222.65625"/>
     <use xlink:href="#DejaVuSans-33" x="286.279297"/>
     <use xlink:href="#DejaVuSans-33" x="349.902344"/>
     <use xlink:href="#DejaVuSans-36" x="413.525391"/>
    </g>
   </g>
   <g id="text_41">
    <!-- 291.1372 -->
    <g transform="translate(299.695668 267.513677) scale(0.06 -0.06)">
     <use xlink:href="#DejaVuSans-32"/>
     <use xlink:href="#DejaVuSans-39" x="63.623047"/>
     <use xlink:href="#DejaVuSans-31" x="127.246094"/>
     <use xlink:href="#DejaVuSans-2e" x="190.869141"/>
     <use xlink:href="#DejaVuSans-31" x="222.65625"/>
     <use xlink:href="#DejaVuSans-33" x="286.279297"/>
     <use xlink:href="#DejaVuSans-37" x="349.902344"/>
     <use xlink:href="#DejaVuSans-32" x="413.525391"/>
    </g>
   </g>
   <g id="text_42">
    <!-- 292.1491 -->
    <g transform="translate(299.93363 275.079655) scale(0.06 -0.06)">
     <use xlink:href="#DejaVuSans-32"/>
     <use xlink:href="#DejaVuSans-39" x="63.623047"/>
     <use xlink:href="#DejaVuSans-32" x="127.246094"/>
     <use xlink:href="#DejaVuSans-2e" x="190.869141"/>
     <use xlink:href="#DejaVuSans-31" x="222.65625"/>
     <use xlink:href="#DejaVuSans-34" x="286.279297"/>
     <use xlink:href="#DejaVuSans-39" x="349.902344"/>
     <use xlink:href="#DejaVuSans-31" x="413.525391"/>
    </g>
   </g>
   <g id="text_43">
    <!-- 306.1648 -->
    <g transform="translate(306.721767 199.527927) scale(0.06 -0.06)">
     <use xlink:href="#DejaVuSans-33"/>
     <use xlink:href="#DejaVuSans-30" x="63.623047"/>
     <use xlink:href="#DejaVuSans-36" x="127.246094"/>
     <use xlink:href="#DejaVuSans-2e" x="190.869141"/>
     <use xlink:href="#DejaVuSans-31" x="222.65625"/>
     <use xlink:href="#DejaVuSans-36" x="286.279297"/>
     <use xlink:href="#DejaVuSans-34" x="349.902344"/>
     <use xlink:href="#DejaVuSans-38" x="413.525391"/>
    </g>
   </g>
   <g id="text_44">
    <!-- 316.1126 -->
    <g transform="translate(305.33902 252.953845) scale(0.06 -0.06)">
     <use xlink:href="#DejaVuSans-33"/>
     <use xlink:href="#DejaVuSans-31" x="63.623047"/>
     <use xlink:href="#DejaVuSans-36" x="127.246094"/>
     <use xlink:href="#DejaVuSans-2e" x="190.869141"/>
     <use xlink:href="#DejaVuSans-31" x="222.65625"/>
     <use xlink:href="#DejaVuSans-31" x="286.279297"/>
     <use xlink:href="#DejaVuSans-32" x="349.902344"/>
     <use xlink:href="#DejaVuSans-36" x="413.525391"/>
    </g>
   </g>
   <g id="text_45">
    <!-- 316.1495 -->
    <g transform="translate(329.853948 246.374992) scale(0.06 -0.06)">
     <use xlink:href="#DejaVuSans-33"/>
     <use xlink:href="#DejaVuSans-31" x="63.623047"/>
     <use xlink:href="#DejaVuSans-36" x="127.246094"/>
     <use xlink:href="#DejaVuSans-2e" x="190.869141"/>
     <use xlink:href="#DejaVuSans-31" x="222.65625"/>
     <use xlink:href="#DejaVuSans-34" x="286.279297"/>
     <use xlink:href="#DejaVuSans-39" x="349.902344"/>
     <use xlink:href="#DejaVuSans-35" x="413.525391"/>
    </g>
   </g>
   <g id="text_46">
    <!-- 333.1154 -->
    <g transform="translate(332.55707 270.659803) scale(0.06 -0.06)">
     <use xlink:href="#DejaVuSans-33"/>
     <use xlink:href="#DejaVuSans-33" x="63.623047"/>
     <use xlink:href="#DejaVuSans-33" x="127.246094"/>
     <use xlink:href="#DejaVuSans-2e" x="190.869141"/>
     <use xlink:href="#DejaVuSans-31" x="222.65625"/>
     <use xlink:href="#DejaVuSans-31" x="286.279297"/>
     <use xlink:href="#DejaVuSans-35" x="349.902344"/>
     <use xlink:href="#DejaVuSans-34" x="413.525391"/>
    </g>
   </g>
   <g id="text_47">
    <!-- 334.1235 -->
    <g transform="translate(333.189313 107.829116) scale(0.06 -0.06)">
     <use xlink:href="#DejaVuSans-33"/>
     <use xlink:href="#DejaVuSans-33" x="63.623047"/>
     <use xlink:href="#DejaVuSans-34" x="127.246094"/>
     <use xlink:href="#DejaVuSans-2e" x="190.869141"/>
     <use xlink:href="#DejaVuSans-31" x="222.65625"/>
     <use xlink:href="#DejaVuSans-32" x="286.279297"/>
     <use xlink:href="#DejaVuSans-33" x="349.902344"/>
     <use xlink:href="#DejaVuSans-35" x="413.525391"/>
    </g>
   </g>
   <g id="text_48">
    <!-- 335.1265 -->
    <g transform="translate(334.138867 281.954538) scale(0.06 -0.06)">
     <use xlink:href="#DejaVuSans-33"/>
     <use xlink:href="#DejaVuSans-33" x="63.623047"/>
     <use xlink:href="#DejaVuSans-35" x="127.246094"/>
     <use xlink:href="#DejaVuSans-2e" x="190.869141"/>
     <use xlink:href="#DejaVuSans-31" x="222.65625"/>
     <use xlink:href="#DejaVuSans-32" x="286.279297"/>
     <use xlink:href="#DejaVuSans-36" x="349.902344"/>
     <use xlink:href="#DejaVuSans-35" x="413.525391"/>
    </g>
   </g>
   <g id="text_49">
    <!-- 350.1908 -->
    <g transform="translate(360.639692 279.568197) scale(0.06 -0.06)">
     <use xlink:href="#DejaVuSans-33"/>
     <use xlink:href="#DejaVuSans-35" x="63.623047"/>
     <use xlink:href="#DejaVuSans-30" x="127.246094"/>
     <use xlink:href="#DejaVuSans-2e" x="190.869141"/>
     <use xlink:href="#DejaVuSans-31" x="222.65625"/>
     <use xlink:href="#DejaVuSans-39" x="286.279297"/>
     <use xlink:href="#DejaVuSans-30" x="349.902344"/>
     <use xlink:href="#DejaVuSans-38" x="413.525391"/>
    </g>
   </g>
   <g id="text_50">
    <!-- 376.1705 -->
    <g transform="translate(372.993754 85.682311) scale(0.06 -0.06)">
     <use xlink:href="#DejaVuSans-33"/>
     <use xlink:href="#DejaVuSans-37" x="63.623047"/>
     <use xlink:href="#DejaVuSans-36" x="127.246094"/>
     <use xlink:href="#DejaVuSans-2e" x="190.869141"/>
     <use xlink:href="#DejaVuSans-31" x="222.65625"/>
     <use xlink:href="#DejaVuSans-37" x="286.279297"/>
     <use xlink:href="#DejaVuSans-30" x="349.902344"/>
     <use xlink:href="#DejaVuSans-35" x="413.525391"/>
    </g>
   </g>
   <g id="text_51">
    <!-- 377.1738 -->
    <g transform="translate(373.943598 264.850257) scale(0.06 -0.06)">
     <use xlink:href="#DejaVuSans-33"/>
     <use xlink:href="#DejaVuSans-37" x="63.623047"/>
     <use xlink:href="#DejaVuSans-37" x="127.246094"/>
     <use xlink:href="#DejaVuSans-2e" x="190.869141"/>
     <use xlink:href="#DejaVuSans-31" x="222.65625"/>
     <use xlink:href="#DejaVuSans-37" x="286.279297"/>
     <use xlink:href="#DejaVuSans-33" x="349.902344"/>
     <use xlink:href="#DejaVuSans-38" x="413.525391"/>
    </g>
   </g>
   <g id="text_52">
    <!-- 394.181 -->
    <g transform="translate(390.029062 215.682399) scale(0.06 -0.06)">
     <use xlink:href="#DejaVuSans-33"/>
     <use xlink:href="#DejaVuSans-39" x="63.623047"/>
     <use xlink:href="#DejaVuSans-34" x="127.246094"/>
     <use xlink:href="#DejaVuSans-2e" x="190.869141"/>
     <use xlink:href="#DejaVuSans-31" x="222.65625"/>
     <use xlink:href="#DejaVuSans-38" x="286.279297"/>
     <use xlink:href="#DejaVuSans-31" x="349.902344"/>
    </g>
   </g>
   <g id="text_53">
    <!-- MS2 spectrum of ${m/z}$ 394.1802, scan time 10.11 min. -->
    <g transform="translate(57.6 24.873562) scale(0.12 -0.12)">
     <defs>
      <path id="DejaVuSans-4d" d="M 628 4666 
L 1569 4666 
L 2759 1491 
L 3956 4666 
L 4897 4666 
L 4897 0 
L 4281 0 
L 4281 4097 
L 3078 897 
L 2444 897 
L 1241 4097 
L 1241 0 
L 628 0 
L 628 4666 
z
" transform="scale(0.015625)"/>
      <path id="DejaVuSans-53" d="M 3425 4513 
L 3425 3897 
Q 3066 4069 2747 4153 
Q 2428 4238 2131 4238 
Q 1616 4238 1336 4038 
Q 1056 3838 1056 3469 
Q 1056 3159 1242 3001 
Q 1428 2844 1947 2747 
L 2328 2669 
Q 3034 2534 3370 2195 
Q 3706 1856 3706 1288 
Q 3706 609 3251 259 
Q 2797 -91 1919 -91 
Q 1588 -91 1214 -16 
Q 841 59 441 206 
L 441 856 
Q 825 641 1194 531 
Q 1563 422 1919 422 
Q 2459 422 2753 634 
Q 3047 847 3047 1241 
Q 3047 1584 2836 1778 
Q 2625 1972 2144 2069 
L 1759 2144 
Q 1053 2284 737 2584 
Q 422 2884 422 3419 
Q 422 4038 858 4394 
Q 1294 4750 2059 4750 
Q 2388 4750 2728 4690 
Q 3069 4631 3425 4513 
z
" transform="scale(0.015625)"/>
      <path id="DejaVuSans-20" transform="scale(0.015625)"/>
      <path id="DejaVuSans-70" d="M 1159 525 
L 1159 -1331 
L 581 -1331 
L 581 3500 
L 1159 3500 
L 1159 2969 
Q 1341 3281 1617 3432 
Q 1894 3584 2278 3584 
Q 2916 3584 3314 3078 
Q 3713 2572 3713 1747 
Q 3713 922 3314 415 
Q 2916 -91 2278 -91 
Q 1894 -91 1617 61 
Q 1341 213 1159 525 
z
M 3116 1747 
Q 3116 2381 2855 2742 
Q 2594 3103 2138 3103 
Q 1681 3103 1420 2742 
Q 1159 2381 1159 1747 
Q 1159 1113 1420 752 
Q 1681 391 2138 391 
Q 2594 391 2855 752 
Q 3116 1113 3116 1747 
z
" transform="scale(0.015625)"/>
      <path id="DejaVuSans-63" d="M 3122 3366 
L 3122 2828 
Q 2878 2963 2633 3030 
Q 2388 3097 2138 3097 
Q 1578 3097 1268 2742 
Q 959 2388 959 1747 
Q 959 1106 1268 751 
Q 1578 397 2138 397 
Q 2388 397 2633 464 
Q 2878 531 3122 666 
L 3122 134 
Q 2881 22 2623 -34 
Q 2366 -91 2075 -91 
Q 1284 -91 818 406 
Q 353 903 353 1747 
Q 353 2603 823 3093 
Q 1294 3584 2113 3584 
Q 2378 3584 2631 3529 
Q 2884 3475 3122 3366 
z
" transform="scale(0.015625)"/>
      <path id="DejaVuSans-72" d="M 2631 2963 
Q 2534 3019 2420 3045 
Q 2306 3072 2169 3072 
Q 1681 3072 1420 2755 
Q 1159 2438 1159 1844 
L 1159 0 
L 581 0 
L 581 3500 
L 1159 3500 
L 1159 2956 
Q 1341 3275 1631 3429 
Q 1922 3584 2338 3584 
Q 2397 3584 2469 3576 
Q 2541 3569 2628 3553 
L 2631 2963 
z
" transform="scale(0.015625)"/>
      <path id="DejaVuSans-75" d="M 544 1381 
L 544 3500 
L 1119 3500 
L 1119 1403 
Q 1119 906 1312 657 
Q 1506 409 1894 409 
Q 2359 409 2629 706 
Q 2900 1003 2900 1516 
L 2900 3500 
L 3475 3500 
L 3475 0 
L 2900 0 
L 2900 538 
Q 2691 219 2414 64 
Q 2138 -91 1772 -91 
Q 1169 -91 856 284 
Q 544 659 544 1381 
z
M 1991 3584 
L 1991 3584 
z
" transform="scale(0.015625)"/>
      <path id="DejaVuSans-6d" d="M 3328 2828 
Q 3544 3216 3844 3400 
Q 4144 3584 4550 3584 
Q 5097 3584 5394 3201 
Q 5691 2819 5691 2113 
L 5691 0 
L 5113 0 
L 5113 2094 
Q 5113 2597 4934 2840 
Q 4756 3084 4391 3084 
Q 3944 3084 3684 2787 
Q 3425 2491 3425 1978 
L 3425 0 
L 2847 0 
L 2847 2094 
Q 2847 2600 2669 2842 
Q 2491 3084 2119 3084 
Q 1678 3084 1418 2786 
Q 1159 2488 1159 1978 
L 1159 0 
L 581 0 
L 581 3500 
L 1159 3500 
L 1159 2956 
Q 1356 3278 1631 3431 
Q 1906 3584 2284 3584 
Q 2666 3584 2933 3390 
Q 3200 3197 3328 2828 
z
" transform="scale(0.015625)"/>
      <path id="DejaVuSans-6f" d="M 1959 3097 
Q 1497 3097 1228 2736 
Q 959 2375 959 1747 
Q 959 1119 1226 758 
Q 1494 397 1959 397 
Q 2419 397 2687 759 
Q 2956 1122 2956 1747 
Q 2956 2369 2687 2733 
Q 2419 3097 1959 3097 
z
M 1959 3584 
Q 2709 3584 3137 3096 
Q 3566 2609 3566 1747 
Q 3566 888 3137 398 
Q 2709 -91 1959 -91 
Q 1206 -91 779 398 
Q 353 888 353 1747 
Q 353 2609 779 3096 
Q 1206 3584 1959 3584 
z
" transform="scale(0.015625)"/>
      <path id="DejaVuSans-66" d="M 2375 4863 
L 2375 4384 
L 1825 4384 
Q 1516 4384 1395 4259 
Q 1275 4134 1275 3809 
L 1275 3500 
L 2222 3500 
L 2222 3053 
L 1275 3053 
L 1275 0 
L 697 0 
L 697 3053 
L 147 3053 
L 147 3500 
L 697 3500 
L 697 3744 
Q 697 4328 969 4595 
Q 1241 4863 1831 4863 
L 2375 4863 
z
" transform="scale(0.015625)"/>
      <path id="DejaVuSans-2c" d="M 750 794 
L 1409 794 
L 1409 256 
L 897 -744 
L 494 -744 
L 750 256 
L 750 794 
z
" transform="scale(0.015625)"/>
      <path id="DejaVuSans-61" d="M 2194 1759 
Q 1497 1759 1228 1600 
Q 959 1441 959 1056 
Q 959 750 1161 570 
Q 1363 391 1709 391 
Q 2188 391 2477 730 
Q 2766 1069 2766 1631 
L 2766 1759 
L 2194 1759 
z
M 3341 1997 
L 3341 0 
L 2766 0 
L 2766 531 
Q 2569 213 2275 61 
Q 1981 -91 1556 -91 
Q 1019 -91 701 211 
Q 384 513 384 1019 
Q 384 1609 779 1909 
Q 1175 2209 1959 2209 
L 2766 2209 
L 2766 2266 
Q 2766 2663 2505 2880 
Q 2244 3097 1772 3097 
Q 1472 3097 1187 3025 
Q 903 2953 641 2809 
L 641 3341 
Q 956 3463 1253 3523 
Q 1550 3584 1831 3584 
Q 2591 3584 2966 3190 
Q 3341 2797 3341 1997 
z
" transform="scale(0.015625)"/>
     </defs>
     <use xlink:href="#DejaVuSans-4d" transform="translate(0 0.015625)"/>
     <use xlink:href="#DejaVuSans-53" transform="translate(86.279297 0.015625)"/>
     <use xlink:href="#DejaVuSans-32" transform="translate(149.755859 0.015625)"/>
     <use xlink:href="#DejaVuSans-20" transform="translate(213.378906 0.015625)"/>
     <use xlink:href="#DejaVuSans-73" transform="translate(245.166016 0.015625)"/>
     <use xlink:href="#DejaVuSans-70" transform="translate(297.265625 0.015625)"/>
     <use xlink:href="#DejaVuSans-65" transform="translate(360.742188 0.015625)"/>
     <use xlink:href="#DejaVuSans-63" transform="translate(422.265625 0.015625)"/>
     <use xlink:href="#DejaVuSans-74" transform="translate(477.246094 0.015625)"/>
     <use xlink:href="#DejaVuSans-72" transform="translate(516.455078 0.015625)"/>
     <use xlink:href="#DejaVuSans-75" transform="translate(557.568359 0.015625)"/>
     <use xlink:href="#DejaVuSans-6d" transform="translate(620.947266 0.015625)"/>
     <use xlink:href="#DejaVuSans-20" transform="translate(718.359375 0.015625)"/>
     <use xlink:href="#DejaVuSans-6f" transform="translate(750.146484 0.015625)"/>
     <use xlink:href="#DejaVuSans-66" transform="translate(811.328125 0.015625)"/>
     <use xlink:href="#DejaVuSans-20" transform="translate(846.533203 0.015625)"/>
     <use xlink:href="#DejaVuSans-Oblique-6d" transform="translate(878.320312 0.015625)"/>
     <use xlink:href="#DejaVuSans-2f" transform="translate(975.732422 0.015625)"/>
     <use xlink:href="#DejaVuSans-Oblique-7a" transform="translate(1009.423828 0.015625)"/>
     <use xlink:href="#DejaVuSans-20" transform="translate(1061.914062 0.015625)"/>
     <use xlink:href="#DejaVuSans-33" transform="translate(1093.701172 0.015625)"/>
     <use xlink:href="#DejaVuSans-39" transform="translate(1157.324219 0.015625)"/>
     <use xlink:href="#DejaVuSans-34" transform="translate(1220.947266 0.015625)"/>
     <use xlink:href="#DejaVuSans-2e" transform="translate(1284.570312 0.015625)"/>
     <use xlink:href="#DejaVuSans-31" transform="translate(1316.357422 0.015625)"/>
     <use xlink:href="#DejaVuSans-38" transform="translate(1379.980469 0.015625)"/>
     <use xlink:href="#DejaVuSans-30" transform="translate(1443.603516 0.015625)"/>
     <use xlink:href="#DejaVuSans-32" transform="translate(1507.226562 0.015625)"/>
     <use xlink:href="#DejaVuSans-2c" transform="translate(1570.849609 0.015625)"/>
     <use xlink:href="#DejaVuSans-20" transform="translate(1602.636719 0.015625)"/>
     <use xlink:href="#DejaVuSans-73" transform="translate(1634.423828 0.015625)"/>
     <use xlink:href="#DejaVuSans-63" transform="translate(1686.523438 0.015625)"/>
     <use xlink:href="#DejaVuSans-61" transform="translate(1741.503906 0.015625)"/>
     <use xlink:href="#DejaVuSans-6e" transform="translate(1802.783203 0.015625)"/>
     <use xlink:href="#DejaVuSans-20" transform="translate(1866.162109 0.015625)"/>
     <use xlink:href="#DejaVuSans-74" transform="translate(1897.949219 0.015625)"/>
     <use xlink:href="#DejaVuSans-69" transform="translate(1937.158203 0.015625)"/>
     <use xlink:href="#DejaVuSans-6d" transform="translate(1964.941406 0.015625)"/>
     <use xlink:href="#DejaVuSans-65" transform="translate(2062.353516 0.015625)"/>
     <use xlink:href="#DejaVuSans-20" transform="translate(2123.876953 0.015625)"/>
     <use xlink:href="#DejaVuSans-31" transform="translate(2155.664062 0.015625)"/>
     <use xlink:href="#DejaVuSans-30" transform="translate(2219.287109 0.015625)"/>
     <use xlink:href="#DejaVuSans-2e" transform="translate(2282.910156 0.015625)"/>
     <use xlink:href="#DejaVuSans-31" transform="translate(2314.697266 0.015625)"/>
     <use xlink:href="#DejaVuSans-31" transform="translate(2378.320312 0.015625)"/>
     <use xlink:href="#DejaVuSans-20" transform="translate(2441.943359 0.015625)"/>
     <use xlink:href="#DejaVuSans-6d" transform="translate(2473.730469 0.015625)"/>
     <use xlink:href="#DejaVuSans-69" transform="translate(2571.142578 0.015625)"/>
     <use xlink:href="#DejaVuSans-6e" transform="translate(2598.925781 0.015625)"/>
     <use xlink:href="#DejaVuSans-2e" transform="translate(2662.304688 0.015625)"/>
    </g>
   </g>
  </g>
 </g>
 <defs>
  <clipPath id="pc71a888998">
   <rect x="57.6" y="41.472" width="357.12" height="266.112"/>
  </clipPath>
 </defs>
</svg>
