<?xml version="1.0" encoding="utf-8" standalone="no"?>
<!DOCTYPE svg PUBLIC "-//W3C//DTD SVG 1.1//EN"
  "http://www.w3.org/Graphics/SVG/1.1/DTD/svg11.dtd">
<svg xmlns:xlink="http://www.w3.org/1999/xlink" width="460.8pt" height="345.6pt" viewBox="0 0 460.8 345.6" xmlns="http://www.w3.org/2000/svg" version="1.1">
 <metadata>
  <rdf:RDF xmlns:dc="http://purl.org/dc/elements/1.1/" xmlns:cc="http://creativecommons.org/ns#" xmlns:rdf="http://www.w3.org/1999/02/22-rdf-syntax-ns#">
   <cc:Work>
    <dc:type rdf:resource="http://purl.org/dc/dcmitype/StillImage"/>
    <dc:date>2025-01-11T12:52:33.030886</dc:date>
    <dc:format>image/svg+xml</dc:format>
    <dc:creator>
     <cc:Agent>
      <dc:title>Matplotlib v3.7.3, https://matplotlib.org/</dc:title>
     </cc:Agent>
    </dc:creator>
   </cc:Work>
  </rdf:RDF>
 </metadata>
 <defs>
  <style type="text/css">*{stroke-linejoin: round; stroke-linecap: butt}</style>
 </defs>
 <g id="figure_1">
  <g id="patch_1">
   <path d="M 0 345.6 
L 460.8 345.6 
L 460.8 0 
L 0 0 
z
" style="fill: #ffffff"/>
  </g>
  <g id="axes_1">
   <g id="patch_2">
    <path d="M 57.6 307.584 
L 414.72 307.584 
L 414.72 41.472 
L 57.6 41.472 
z
" style="fill: #ffffff"/>
   </g>
   <g id="patch_3">
    <path d="M 73.832727 307.584 
L 74.590062 307.584 
L 74.590062 305.327345 
L 73.832727 305.327345 
z
" clip-path="url(#p361f0fc51c)" style="fill: #1f77b4"/>
   </g>
   <g id="patch_4">
    <path d="M 75.659028 307.584 
L 76.416362 307.584 
L 76.416362 306.053477 
L 75.659028 306.053477 
z
" clip-path="url(#p361f0fc51c)" style="fill: #1f77b4"/>
   </g>
   <g id="patch_5">
    <path d="M 84.188005 307.584 
L 84.945339 307.584 
L 84.945339 306.298918 
L 84.188005 306.298918 
z
" clip-path="url(#p361f0fc51c)" style="fill: #1f77b4"/>
   </g>
   <g id="patch_6">
    <path d="M 87.019436 307.584 
L 87.776771 307.584 
L 87.776771 306.062489 
L 87.019436 306.062489 
z
" clip-path="url(#p361f0fc51c)" style="fill: #1f77b4"/>
   </g>
   <g id="patch_7">
    <path d="M 87.100631 307.584 
L 87.857966 307.584 
L 87.857966 305.755197 
L 87.100631 305.755197 
z
" clip-path="url(#p361f0fc51c)" style="fill: #1f77b4"/>
   </g>
   <g id="patch_8">
    <path d="M 88.974467 307.584 
L 89.731802 307.584 
L 89.731802 303.206048 
L 88.974467 303.206048 
z
" clip-path="url(#p361f0fc51c)" style="fill: #1f77b4"/>
   </g>
   <g id="patch_9">
    <path d="M 90.34883 307.584 
L 91.106165 307.584 
L 91.106165 305.91944 
L 90.34883 305.91944 
z
" clip-path="url(#p361f0fc51c)" style="fill: #1f77b4"/>
   </g>
   <g id="patch_10">
    <path d="M 90.848324 307.584 
L 91.605659 307.584 
L 91.605659 203.653447 
L 90.848324 203.653447 
z
" clip-path="url(#p361f0fc51c)" style="fill: #1f77b4"/>
   </g>
   <g id="patch_11">
    <path d="M 90.852116 307.584 
L 91.609451 307.584 
L 91.609451 306.005939 
L 90.852116 306.005939 
z
" clip-path="url(#p361f0fc51c)" style="fill: #1f77b4"/>
   </g>
   <g id="patch_12">
    <path d="M 91.798033 307.584 
L 92.555368 307.584 
L 92.555368 305.436968 
L 91.798033 305.436968 
z
" clip-path="url(#p361f0fc51c)" style="fill: #1f77b4"/>
   </g>
   <g id="patch_13">
    <path d="M 95.068701 307.584 
L 95.826036 307.584 
L 95.826036 306.044016 
L 95.068701 306.044016 
z
" clip-path="url(#p361f0fc51c)" style="fill: #1f77b4"/>
   </g>
   <g id="patch_14">
    <path d="M 97.216465 307.584 
L 97.973799 307.584 
L 97.973799 305.947159 
L 97.216465 305.947159 
z
" clip-path="url(#p361f0fc51c)" style="fill: #1f77b4"/>
   </g>
   <g id="patch_15">
    <path d="M 98.460779 307.584 
L 99.218114 307.584 
L 99.218114 304.156556 
L 98.460779 304.156556 
z
" clip-path="url(#p361f0fc51c)" style="fill: #1f77b4"/>
   </g>
   <g id="patch_16">
    <path d="M 99.781248 307.584 
L 100.538583 307.584 
L 100.538583 306.030929 
L 99.781248 306.030929 
z
" clip-path="url(#p361f0fc51c)" style="fill: #1f77b4"/>
   </g>
   <g id="patch_17">
    <path d="M 100.334543 307.584 
L 101.091877 307.584 
L 101.091877 242.137834 
L 100.334543 242.137834 
z
" clip-path="url(#p361f0fc51c)" style="fill: #1f77b4"/>
   </g>
   <g id="patch_18">
    <path d="M 101.28397 307.584 
L 102.041304 307.584 
L 102.041304 304.97655 
L 101.28397 304.97655 
z
" clip-path="url(#p361f0fc51c)" style="fill: #1f77b4"/>
   </g>
   <g id="patch_19">
    <path d="M 102.498564 307.584 
L 103.255899 307.584 
L 103.255899 306.029986 
L 102.498564 306.029986 
z
" clip-path="url(#p361f0fc51c)" style="fill: #1f77b4"/>
   </g>
   <g id="patch_20">
    <path d="M 107.898174 307.584 
L 108.655508 307.584 
L 108.655508 238.908557 
L 107.898174 238.908557 
z
" clip-path="url(#p361f0fc51c)" style="fill: #1f77b4"/>
   </g>
   <g id="patch_21">
    <path d="M 110.239139 307.584 
L 110.996474 307.584 
L 110.996474 304.253498 
L 110.239139 304.253498 
z
" clip-path="url(#p361f0fc51c)" style="fill: #1f77b4"/>
   </g>
   <g id="patch_22">
    <path d="M 111.728904 307.584 
L 112.486238 307.584 
L 112.486238 305.741115 
L 111.728904 305.741115 
z
" clip-path="url(#p361f0fc51c)" style="fill: #1f77b4"/>
   </g>
   <g id="patch_23">
    <path d="M 113.602183 307.584 
L 114.359518 307.584 
L 114.359518 303.064432 
L 113.602183 303.064432 
z
" clip-path="url(#p361f0fc51c)" style="fill: #1f77b4"/>
   </g>
   <g id="patch_24">
    <path d="M 115.510434 307.584 
L 116.267769 307.584 
L 116.267769 300.855486 
L 115.510434 300.855486 
z
" clip-path="url(#p361f0fc51c)" style="fill: #1f77b4"/>
   </g>
   <g id="patch_25">
    <path d="M 117.418519 307.584 
L 118.175853 307.584 
L 118.175853 303.046971 
L 117.418519 303.046971 
z
" clip-path="url(#p361f0fc51c)" style="fill: #1f77b4"/>
   </g>
   <g id="patch_26">
    <path d="M 123.054146 307.584 
L 123.81148 307.584 
L 123.81148 305.759633 
L 123.054146 305.759633 
z
" clip-path="url(#p361f0fc51c)" style="fill: #1f77b4"/>
   </g>
   <g id="patch_27">
    <path d="M 124.030758 307.584 
L 124.788093 307.584 
L 124.788093 305.480894 
L 124.030758 305.480894 
z
" clip-path="url(#p361f0fc51c)" style="fill: #1f77b4"/>
   </g>
   <g id="patch_28">
    <path d="M 126.851406 307.584 
L 127.608741 307.584 
L 127.608741 302.518648 
L 126.851406 302.518648 
z
" clip-path="url(#p361f0fc51c)" style="fill: #1f77b4"/>
   </g>
   <g id="patch_29">
    <path d="M 128.744504 307.584 
L 129.501839 307.584 
L 129.501839 297.553292 
L 128.744504 297.553292 
z
" clip-path="url(#p361f0fc51c)" style="fill: #1f77b4"/>
   </g>
   <g id="patch_30">
    <path d="M 139.153665 307.584 
L 139.911 307.584 
L 139.911 294.942863 
L 139.153665 294.942863 
z
" clip-path="url(#p361f0fc51c)" style="fill: #1f77b4"/>
   </g>
   <g id="patch_31">
    <path d="M 140.103995 307.584 
L 140.86133 307.584 
L 140.86133 303.718797 
L 140.103995 303.718797 
z
" clip-path="url(#p361f0fc51c)" style="fill: #1f77b4"/>
   </g>
   <g id="patch_32">
    <path d="M 145.793986 307.584 
L 146.55132 307.584 
L 146.55132 303.732685 
L 145.793986 303.732685 
z
" clip-path="url(#p361f0fc51c)" style="fill: #1f77b4"/>
   </g>
   <g id="patch_33">
    <path d="M 146.750202 307.584 
L 147.507537 307.584 
L 147.507537 305.788348 
L 146.750202 305.788348 
z
" clip-path="url(#p361f0fc51c)" style="fill: #1f77b4"/>
   </g>
   <g id="patch_34">
    <path d="M 148.624673 307.584 
L 149.382008 307.584 
L 149.382008 305.90315 
L 148.624673 305.90315 
z
" clip-path="url(#p361f0fc51c)" style="fill: #1f77b4"/>
   </g>
   <g id="patch_35">
    <path d="M 157.154033 307.584 
L 157.911367 307.584 
L 157.911367 289.730914 
L 157.154033 289.730914 
z
" clip-path="url(#p361f0fc51c)" style="fill: #1f77b4"/>
   </g>
   <g id="patch_36">
    <path d="M 159.076635 307.584 
L 159.833969 307.584 
L 159.833969 303.499391 
L 159.076635 303.499391 
z
" clip-path="url(#p361f0fc51c)" style="fill: #1f77b4"/>
   </g>
   <g id="patch_37">
    <path d="M 162.743096 307.584 
L 163.50043 307.584 
L 163.50043 306.009566 
L 162.743096 306.009566 
z
" clip-path="url(#p361f0fc51c)" style="fill: #1f77b4"/>
   </g>
   <g id="patch_38">
    <path d="M 169.987081 307.584 
L 170.744415 307.584 
L 170.744415 306.0308 
L 169.987081 306.0308 
z
" clip-path="url(#p361f0fc51c)" style="fill: #1f77b4"/>
   </g>
   <g id="patch_39">
    <path d="M 170.424692 307.584 
L 171.182027 307.584 
L 171.182027 305.65778 
L 170.424692 305.65778 
z
" clip-path="url(#p361f0fc51c)" style="fill: #1f77b4"/>
   </g>
   <g id="patch_40">
    <path d="M 176.130746 307.584 
L 176.88808 307.584 
L 176.88808 306.152317 
L 176.130746 306.152317 
z
" clip-path="url(#p361f0fc51c)" style="fill: #1f77b4"/>
   </g>
   <g id="patch_41">
    <path d="M 182.738745 307.584 
L 183.49608 307.584 
L 183.49608 293.469216 
L 182.738745 293.469216 
z
" clip-path="url(#p361f0fc51c)" style="fill: #1f77b4"/>
   </g>
   <g id="patch_42">
    <path d="M 183.689964 307.584 
L 184.447298 307.584 
L 184.447298 305.581756 
L 183.689964 305.581756 
z
" clip-path="url(#p361f0fc51c)" style="fill: #1f77b4"/>
   </g>
   <g id="patch_43">
    <path d="M 196.919787 307.584 
L 197.677122 307.584 
L 197.677122 304.777573 
L 196.919787 304.777573 
z
" clip-path="url(#p361f0fc51c)" style="fill: #1f77b4"/>
   </g>
   <g id="patch_44">
    <path d="M 199.769282 307.584 
L 200.526617 307.584 
L 200.526617 304.820596 
L 199.769282 304.820596 
z
" clip-path="url(#p361f0fc51c)" style="fill: #1f77b4"/>
   </g>
   <g id="patch_45">
    <path d="M 205.458305 307.584 
L 206.215639 307.584 
L 206.215639 304.703908 
L 205.458305 304.703908 
z
" clip-path="url(#p361f0fc51c)" style="fill: #1f77b4"/>
   </g>
   <g id="patch_46">
    <path d="M 209.233609 307.584 
L 209.990944 307.584 
L 209.990944 304.981343 
L 209.233609 304.981343 
z
" clip-path="url(#p361f0fc51c)" style="fill: #1f77b4"/>
   </g>
   <g id="patch_47">
    <path d="M 210.188309 307.584 
L 210.945643 307.584 
L 210.945643 305.84647 
L 210.188309 305.84647 
z
" clip-path="url(#p361f0fc51c)" style="fill: #1f77b4"/>
   </g>
   <g id="patch_48">
    <path d="M 222.489463 307.584 
L 223.246797 307.584 
L 223.246797 305.851271 
L 222.489463 305.851271 
z
" clip-path="url(#p361f0fc51c)" style="fill: #1f77b4"/>
   </g>
   <g id="patch_49">
    <path d="M 222.543415 307.584 
L 223.300749 307.584 
L 223.300749 304.136974 
L 222.543415 304.136974 
z
" clip-path="url(#p361f0fc51c)" style="fill: #1f77b4"/>
   </g>
   <g id="patch_50">
    <path d="M 223.443873 307.584 
L 224.201208 307.584 
L 224.201208 257.217178 
L 223.443873 257.217178 
z
" clip-path="url(#p361f0fc51c)" style="fill: #1f77b4"/>
   </g>
   <g id="patch_51">
    <path d="M 224.397403 307.584 
L 225.154737 307.584 
L 225.154737 279.632663 
L 224.397403 279.632663 
z
" clip-path="url(#p361f0fc51c)" style="fill: #1f77b4"/>
   </g>
   <g id="patch_52">
    <path d="M 225.34774 307.584 
L 226.105075 307.584 
L 226.105075 305.277464 
L 225.34774 305.277464 
z
" clip-path="url(#p361f0fc51c)" style="fill: #1f77b4"/>
   </g>
   <g id="patch_53">
    <path d="M 231.958932 307.584 
L 232.716267 307.584 
L 232.716267 305.793078 
L 231.958932 305.793078 
z
" clip-path="url(#p361f0fc51c)" style="fill: #1f77b4"/>
   </g>
   <g id="patch_54">
    <path d="M 233.849553 307.584 
L 234.606887 307.584 
L 234.606887 279.165332 
L 233.849553 279.165332 
z
" clip-path="url(#p361f0fc51c)" style="fill: #1f77b4"/>
   </g>
   <g id="patch_55">
    <path d="M 234.802808 307.584 
L 235.560142 307.584 
L 235.560142 299.656949 
L 234.802808 299.656949 
z
" clip-path="url(#p361f0fc51c)" style="fill: #1f77b4"/>
   </g>
   <g id="patch_56">
    <path d="M 235.757768 307.584 
L 236.515102 307.584 
L 236.515102 276.810903 
L 235.757768 276.810903 
z
" clip-path="url(#p361f0fc51c)" style="fill: #1f77b4"/>
   </g>
   <g id="patch_57">
    <path d="M 236.707989 307.584 
L 237.465324 307.584 
L 237.465324 305.019568 
L 236.707989 305.019568 
z
" clip-path="url(#p361f0fc51c)" style="fill: #1f77b4"/>
   </g>
   <g id="patch_58">
    <path d="M 246.163967 307.584 
L 246.921302 307.584 
L 246.921302 232.697603 
L 246.163967 232.697603 
z
" clip-path="url(#p361f0fc51c)" style="fill: #1f77b4"/>
   </g>
   <g id="patch_59">
    <path d="M 247.117569 307.584 
L 247.874903 307.584 
L 247.874903 264.067355 
L 247.117569 264.067355 
z
" clip-path="url(#p361f0fc51c)" style="fill: #1f77b4"/>
   </g>
   <g id="patch_60">
    <path d="M 248.067357 307.584 
L 248.824692 307.584 
L 248.824692 301.779651 
L 248.067357 301.779651 
z
" clip-path="url(#p361f0fc51c)" style="fill: #1f77b4"/>
   </g>
   <g id="patch_61">
    <path d="M 249.027474 307.584 
L 249.784808 307.584 
L 249.784808 289.768247 
L 249.027474 289.768247 
z
" clip-path="url(#p361f0fc51c)" style="fill: #1f77b4"/>
   </g>
   <g id="patch_62">
    <path d="M 249.975182 307.584 
L 250.732516 307.584 
L 250.732516 304.980832 
L 249.975182 304.980832 
z
" clip-path="url(#p361f0fc51c)" style="fill: #1f77b4"/>
   </g>
   <g id="patch_63">
    <path d="M 254.716294 307.584 
L 255.473629 307.584 
L 255.473629 303.963633 
L 254.716294 303.963633 
z
" clip-path="url(#p361f0fc51c)" style="fill: #1f77b4"/>
   </g>
   <g id="patch_64">
    <path d="M 257.523653 307.584 
L 258.280987 307.584 
L 258.280987 304.439387 
L 257.523653 304.439387 
z
" clip-path="url(#p361f0fc51c)" style="fill: #1f77b4"/>
   </g>
   <g id="patch_65">
    <path d="M 258.47802 307.584 
L 259.235355 307.584 
L 259.235355 105.708015 
L 258.47802 105.708015 
z
" clip-path="url(#p361f0fc51c)" style="fill: #1f77b4"/>
   </g>
   <g id="patch_66">
    <path d="M 259.430149 307.584 
L 260.187483 307.584 
L 260.187483 260.753224 
L 259.430149 260.753224 
z
" clip-path="url(#p361f0fc51c)" style="fill: #1f77b4"/>
   </g>
   <g id="patch_67">
    <path d="M 260.385888 307.584 
L 261.143223 307.584 
L 261.143223 238.791473 
L 260.385888 238.791473 
z
" clip-path="url(#p361f0fc51c)" style="fill: #1f77b4"/>
   </g>
   <g id="patch_68">
    <path d="M 261.336341 307.584 
L 262.093676 307.584 
L 262.093676 300.858424 
L 261.336341 300.858424 
z
" clip-path="url(#p361f0fc51c)" style="fill: #1f77b4"/>
   </g>
   <g id="patch_69">
    <path d="M 263.24847 307.584 
L 264.005805 307.584 
L 264.005805 245.956315 
L 263.24847 245.956315 
z
" clip-path="url(#p361f0fc51c)" style="fill: #1f77b4"/>
   </g>
   <g id="patch_70">
    <path d="M 263.273937 307.584 
L 264.031271 307.584 
L 264.031271 304.956188 
L 263.273937 304.956188 
z
" clip-path="url(#p361f0fc51c)" style="fill: #1f77b4"/>
   </g>
   <g id="patch_71">
    <path d="M 264.166942 307.584 
L 264.924276 307.584 
L 264.924276 289.536903 
L 264.166942 289.536903 
z
" clip-path="url(#p361f0fc51c)" style="fill: #1f77b4"/>
   </g>
   <g id="patch_72">
    <path d="M 264.201465 307.584 
L 264.9588 307.584 
L 264.9588 275.530284 
L 264.201465 275.530284 
z
" clip-path="url(#p361f0fc51c)" style="fill: #1f77b4"/>
   </g>
   <g id="patch_73">
    <path d="M 265.117221 307.584 
L 265.874556 307.584 
L 265.874556 304.29287 
L 265.117221 304.29287 
z
" clip-path="url(#p361f0fc51c)" style="fill: #1f77b4"/>
   </g>
   <g id="patch_74">
    <path d="M 265.151774 307.584 
L 265.909108 307.584 
L 265.909108 305.541584 
L 265.151774 305.541584 
z
" clip-path="url(#p361f0fc51c)" style="fill: #1f77b4"/>
   </g>
   <g id="patch_75">
    <path d="M 268.883945 307.584 
L 269.64128 307.584 
L 269.64128 296.436962 
L 268.883945 296.436962 
z
" clip-path="url(#p361f0fc51c)" style="fill: #1f77b4"/>
   </g>
   <g id="patch_76">
    <path d="M 269.838154 307.584 
L 270.595488 307.584 
L 270.595488 297.116885 
L 269.838154 297.116885 
z
" clip-path="url(#p361f0fc51c)" style="fill: #1f77b4"/>
   </g>
   <g id="patch_77">
    <path d="M 270.791929 307.584 
L 271.549264 307.584 
L 271.549264 284.52769 
L 270.791929 284.52769 
z
" clip-path="url(#p361f0fc51c)" style="fill: #1f77b4"/>
   </g>
   <g id="patch_78">
    <path d="M 271.745935 307.584 
L 272.50327 307.584 
L 272.50327 228.18957 
L 271.745935 228.18957 
z
" clip-path="url(#p361f0fc51c)" style="fill: #1f77b4"/>
   </g>
   <g id="patch_79">
    <path d="M 272.698757 307.584 
L 273.456091 307.584 
L 273.456091 286.283923 
L 272.698757 286.283923 
z
" clip-path="url(#p361f0fc51c)" style="fill: #1f77b4"/>
   </g>
   <g id="patch_80">
    <path d="M 273.654323 307.584 
L 274.411658 307.584 
L 274.411658 167.704367 
L 273.654323 167.704367 
z
" clip-path="url(#p361f0fc51c)" style="fill: #1f77b4"/>
   </g>
   <g id="patch_81">
    <path d="M 274.604285 307.584 
L 275.361619 307.584 
L 275.361619 288.058699 
L 274.604285 288.058699 
z
" clip-path="url(#p361f0fc51c)" style="fill: #1f77b4"/>
   </g>
   <g id="patch_82">
    <path d="M 275.56222 307.584 
L 276.319555 307.584 
L 276.319555 287.25726 
L 275.56222 287.25726 
z
" clip-path="url(#p361f0fc51c)" style="fill: #1f77b4"/>
   </g>
   <g id="patch_83">
    <path d="M 276.512008 307.584 
L 277.269343 307.584 
L 277.269343 305.370635 
L 276.512008 305.370635 
z
" clip-path="url(#p361f0fc51c)" style="fill: #1f77b4"/>
   </g>
   <g id="patch_84">
    <path d="M 277.434958 307.584 
L 278.192292 307.584 
L 278.192292 302.067875 
L 277.434958 302.067875 
z
" clip-path="url(#p361f0fc51c)" style="fill: #1f77b4"/>
   </g>
   <g id="patch_85">
    <path d="M 281.197507 307.584 
L 281.954842 307.584 
L 281.954842 287.869896 
L 281.197507 287.869896 
z
" clip-path="url(#p361f0fc51c)" style="fill: #1f77b4"/>
   </g>
   <g id="patch_86">
    <path d="M 282.151745 307.584 
L 282.909079 307.584 
L 282.909079 274.606022 
L 282.151745 274.606022 
z
" clip-path="url(#p361f0fc51c)" style="fill: #1f77b4"/>
   </g>
   <g id="patch_87">
    <path d="M 283.10604 307.584 
L 283.863374 307.584 
L 283.863374 105.168361 
L 283.10604 105.168361 
z
" clip-path="url(#p361f0fc51c)" style="fill: #1f77b4"/>
   </g>
   <g id="patch_88">
    <path d="M 284.057475 307.584 
L 284.814809 307.584 
L 284.814809 265.9962 
L 284.057475 265.9962 
z
" clip-path="url(#p361f0fc51c)" style="fill: #1f77b4"/>
   </g>
   <g id="patch_89">
    <path d="M 285.013937 307.584 
L 285.771271 307.584 
L 285.771271 290.336259 
L 285.013937 290.336259 
z
" clip-path="url(#p361f0fc51c)" style="fill: #1f77b4"/>
   </g>
   <g id="patch_90">
    <path d="M 285.968348 307.584 
L 286.725682 307.584 
L 286.725682 245.930998 
L 285.968348 245.930998 
z
" clip-path="url(#p361f0fc51c)" style="fill: #1f77b4"/>
   </g>
   <g id="patch_91">
    <path d="M 286.921169 307.584 
L 287.678504 307.584 
L 287.678504 289.533818 
L 286.921169 289.533818 
z
" clip-path="url(#p361f0fc51c)" style="fill: #1f77b4"/>
   </g>
   <g id="patch_92">
    <path d="M 294.465365 307.584 
L 295.222699 307.584 
L 295.222699 301.776373 
L 294.465365 301.776373 
z
" clip-path="url(#p361f0fc51c)" style="fill: #1f77b4"/>
   </g>
   <g id="patch_93">
    <path d="M 295.419718 307.584 
L 296.177052 307.584 
L 296.177052 300.71614 
L 295.419718 300.71614 
z
" clip-path="url(#p361f0fc51c)" style="fill: #1f77b4"/>
   </g>
   <g id="patch_94">
    <path d="M 296.349225 307.584 
L 297.10656 307.584 
L 297.10656 305.075078 
L 296.349225 305.075078 
z
" clip-path="url(#p361f0fc51c)" style="fill: #1f77b4"/>
   </g>
   <g id="patch_95">
    <path d="M 296.374215 307.584 
L 297.131549 307.584 
L 297.131549 218.010655 
L 296.374215 218.010655 
z
" clip-path="url(#p361f0fc51c)" style="fill: #1f77b4"/>
   </g>
   <g id="patch_96">
    <path d="M 296.404838 307.584 
L 297.162173 307.584 
L 297.162173 303.739404 
L 296.404838 303.739404 
z
" clip-path="url(#p361f0fc51c)" style="fill: #1f77b4"/>
   </g>
   <g id="patch_97">
    <path d="M 297.325101 307.584 
L 298.082436 307.584 
L 298.082436 290.914531 
L 297.325101 290.914531 
z
" clip-path="url(#p361f0fc51c)" style="fill: #1f77b4"/>
   </g>
   <g id="patch_98">
    <path d="M 298.28243 307.584 
L 299.039764 307.584 
L 299.039764 54.144 
L 298.28243 54.144 
z
" clip-path="url(#p361f0fc51c)" style="fill: #1f77b4"/>
   </g>
   <g id="patch_99">
    <path d="M 299.201074 307.584 
L 299.958409 307.584 
L 299.958409 305.883098 
L 299.201074 305.883098 
z
" clip-path="url(#p361f0fc51c)" style="fill: #1f77b4"/>
   </g>
   <g id="patch_100">
    <path d="M 299.232276 307.584 
L 299.98961 307.584 
L 299.98961 269.377671 
L 299.232276 269.377671 
z
" clip-path="url(#p361f0fc51c)" style="fill: #1f77b4"/>
   </g>
   <g id="patch_101">
    <path d="M 300.156467 307.584 
L 300.913802 307.584 
L 300.913802 296.691758 
L 300.156467 296.691758 
z
" clip-path="url(#p361f0fc51c)" style="fill: #1f77b4"/>
   </g>
   <g id="patch_102">
    <path d="M 300.1905 307.584 
L 300.947834 307.584 
L 300.947834 274.464765 
L 300.1905 274.464765 
z
" clip-path="url(#p361f0fc51c)" style="fill: #1f77b4"/>
   </g>
   <g id="patch_103">
    <path d="M 301.141675 307.584 
L 301.899009 307.584 
L 301.899009 303.244977 
L 301.141675 303.244977 
z
" clip-path="url(#p361f0fc51c)" style="fill: #1f77b4"/>
   </g>
   <g id="patch_104">
    <path d="M 305.826163 307.584 
L 306.583497 307.584 
L 306.583497 304.769829 
L 305.826163 304.769829 
z
" clip-path="url(#p361f0fc51c)" style="fill: #1f77b4"/>
   </g>
   <g id="patch_105">
    <path d="M 309.64213 307.584 
L 310.399464 307.584 
L 310.399464 302.496486 
L 309.64213 302.496486 
z
" clip-path="url(#p361f0fc51c)" style="fill: #1f77b4"/>
   </g>
   <g id="patch_106">
    <path d="M 310.595212 307.584 
L 311.352546 307.584 
L 311.352546 303.024597 
L 310.595212 303.024597 
z
" clip-path="url(#p361f0fc51c)" style="fill: #1f77b4"/>
   </g>
   <g id="patch_107">
    <path d="M 311.550893 307.584 
L 312.308228 307.584 
L 312.308228 299.073346 
L 311.550893 299.073346 
z
" clip-path="url(#p361f0fc51c)" style="fill: #1f77b4"/>
   </g>
   <g id="patch_108">
    <path d="M 312.503455 307.584 
L 313.26079 307.584 
L 313.26079 304.280141 
L 312.503455 304.280141 
z
" clip-path="url(#p361f0fc51c)" style="fill: #1f77b4"/>
   </g>
   <g id="patch_109">
    <path d="M 313.432645 307.584 
L 314.189979 307.584 
L 314.189979 304.793808 
L 313.432645 304.793808 
z
" clip-path="url(#p361f0fc51c)" style="fill: #1f77b4"/>
   </g>
   <g id="patch_110">
    <path d="M 313.458588 307.584 
L 314.215923 307.584 
L 314.215923 193.014934 
L 313.458588 193.014934 
z
" clip-path="url(#p361f0fc51c)" style="fill: #1f77b4"/>
   </g>
   <g id="patch_111">
    <path d="M 314.377955 307.584 
L 315.13529 307.584 
L 315.13529 304.353434 
L 314.377955 304.353434 
z
" clip-path="url(#p361f0fc51c)" style="fill: #1f77b4"/>
   </g>
   <g id="patch_112">
    <path d="M 314.407683 307.584 
L 315.165018 307.584 
L 315.165018 294.211372 
L 314.407683 294.211372 
z
" clip-path="url(#p361f0fc51c)" style="fill: #1f77b4"/>
   </g>
   <g id="patch_113">
    <path d="M 315.332279 307.584 
L 316.089614 307.584 
L 316.089614 291.630697 
L 315.332279 291.630697 
z
" clip-path="url(#p361f0fc51c)" style="fill: #1f77b4"/>
   </g>
   <g id="patch_114">
    <path d="M 316.280796 307.584 
L 317.038131 307.584 
L 317.038131 305.298893 
L 316.280796 305.298893 
z
" clip-path="url(#p361f0fc51c)" style="fill: #1f77b4"/>
   </g>
   <g id="patch_115">
    <path d="M 321.001137 307.584 
L 321.758471 307.584 
L 321.758471 304.497399 
L 321.001137 304.497399 
z
" clip-path="url(#p361f0fc51c)" style="fill: #1f77b4"/>
   </g>
   <g id="patch_116">
    <path d="M 321.95705 307.584 
L 322.714384 307.584 
L 322.714384 305.697412 
L 321.95705 305.697412 
z
" clip-path="url(#p361f0fc51c)" style="fill: #1f77b4"/>
   </g>
   <g id="patch_117">
    <path d="M 322.875983 307.584 
L 323.633318 307.584 
L 323.633318 263.340258 
L 322.875983 263.340258 
z
" clip-path="url(#p361f0fc51c)" style="fill: #1f77b4"/>
   </g>
   <g id="patch_118">
    <path d="M 322.910825 307.584 
L 323.668159 307.584 
L 323.668159 256.129644 
L 322.910825 256.129644 
z
" clip-path="url(#p361f0fc51c)" style="fill: #1f77b4"/>
   </g>
   <g id="patch_119">
    <path d="M 323.826927 307.584 
L 324.584262 307.584 
L 324.584262 303.6183 
L 323.826927 303.6183 
z
" clip-path="url(#p361f0fc51c)" style="fill: #1f77b4"/>
   </g>
   <g id="patch_120">
    <path d="M 323.862664 307.584 
L 324.619999 307.584 
L 324.619999 293.065778 
L 323.862664 293.065778 
z
" clip-path="url(#p361f0fc51c)" style="fill: #1f77b4"/>
   </g>
   <g id="patch_121">
    <path d="M 336.178971 307.584 
L 336.936305 307.584 
L 336.936305 285.418857 
L 336.178971 285.418857 
z
" clip-path="url(#p361f0fc51c)" style="fill: #1f77b4"/>
   </g>
   <g id="patch_122">
    <path d="M 337.128961 307.584 
L 337.886296 307.584 
L 337.886296 303.854964 
L 337.128961 303.854964 
z
" clip-path="url(#p361f0fc51c)" style="fill: #1f77b4"/>
   </g>
   <g id="patch_123">
    <path d="M 338.019294 307.584 
L 338.776629 307.584 
L 338.776629 304.590265 
L 338.019294 304.590265 
z
" clip-path="url(#p361f0fc51c)" style="fill: #1f77b4"/>
   </g>
   <g id="patch_124">
    <path d="M 338.086579 307.584 
L 338.843913 307.584 
L 338.843913 303.529093 
L 338.086579 303.529093 
z
" clip-path="url(#p361f0fc51c)" style="fill: #1f77b4"/>
   </g>
   <g id="patch_125">
    <path d="M 338.972058 307.584 
L 339.729393 307.584 
L 339.729393 276.714592 
L 338.972058 276.714592 
z
" clip-path="url(#p361f0fc51c)" style="fill: #1f77b4"/>
   </g>
   <g id="patch_126">
    <path d="M 339.926209 307.584 
L 340.683543 307.584 
L 340.683543 119.705453 
L 339.926209 119.705453 
z
" clip-path="url(#p361f0fc51c)" style="fill: #1f77b4"/>
   </g>
   <g id="patch_127">
    <path d="M 339.959606 307.584 
L 340.71694 307.584 
L 340.71694 295.545871 
L 339.959606 295.545871 
z
" clip-path="url(#p361f0fc51c)" style="fill: #1f77b4"/>
   </g>
   <g id="patch_128">
    <path d="M 340.876257 307.584 
L 341.633592 307.584 
L 341.633592 281.52564 
L 340.876257 281.52564 
z
" clip-path="url(#p361f0fc51c)" style="fill: #1f77b4"/>
   </g>
   <g id="patch_129">
    <path d="M 340.912976 307.584 
L 341.670311 307.584 
L 341.670311 305.49677 
L 340.912976 305.49677 
z
" clip-path="url(#p361f0fc51c)" style="fill: #1f77b4"/>
   </g>
   <g id="patch_130">
    <path d="M 355.072582 307.584 
L 355.829916 307.584 
L 355.829916 305.920268 
L 355.072582 305.920268 
z
" clip-path="url(#p361f0fc51c)" style="fill: #1f77b4"/>
   </g>
   <g id="patch_131">
    <path d="M 355.137411 307.584 
L 355.894745 307.584 
L 355.894745 279.87905 
L 355.137411 279.87905 
z
" clip-path="url(#p361f0fc51c)" style="fill: #1f77b4"/>
   </g>
   <g id="patch_132">
    <path d="M 356.021561 307.584 
L 356.778896 307.584 
L 356.778896 300.631228 
L 356.021561 300.631228 
z
" clip-path="url(#p361f0fc51c)" style="fill: #1f77b4"/>
   </g>
   <g id="patch_133">
    <path d="M 356.087401 307.584 
L 356.844736 307.584 
L 356.844736 304.57397 
L 356.087401 304.57397 
z
" clip-path="url(#p361f0fc51c)" style="fill: #1f77b4"/>
   </g>
   <g id="patch_134">
    <path d="M 356.976578 307.584 
L 357.733913 307.584 
L 357.733913 286.46552 
L 356.976578 286.46552 
z
" clip-path="url(#p361f0fc51c)" style="fill: #1f77b4"/>
   </g>
   <g id="patch_135">
    <path d="M 357.928331 307.584 
L 358.685666 307.584 
L 358.685666 304.920552 
L 357.928331 304.920552 
z
" clip-path="url(#p361f0fc51c)" style="fill: #1f77b4"/>
   </g>
   <g id="patch_136">
    <path d="M 362.681231 307.584 
L 363.438565 307.584 
L 363.438565 294.964345 
L 362.681231 294.964345 
z
" clip-path="url(#p361f0fc51c)" style="fill: #1f77b4"/>
   </g>
   <g id="patch_137">
    <path d="M 379.730762 307.584 
L 380.488097 307.584 
L 380.488097 94.137986 
L 379.730762 94.137986 
z
" clip-path="url(#p361f0fc51c)" style="fill: #1f77b4"/>
   </g>
   <g id="patch_138">
    <path d="M 380.680522 307.584 
L 381.437856 307.584 
L 381.437856 269.076112 
L 380.680522 269.076112 
z
" clip-path="url(#p361f0fc51c)" style="fill: #1f77b4"/>
   </g>
   <g id="patch_139">
    <path d="M 392.36275 307.584 
L 393.120085 307.584 
L 393.120085 305.716239 
L 392.36275 305.716239 
z
" clip-path="url(#p361f0fc51c)" style="fill: #1f77b4"/>
   </g>
   <g id="patch_140">
    <path d="M 393.212839 307.584 
L 393.970174 307.584 
L 393.970174 306.080369 
L 393.212839 306.080369 
z
" clip-path="url(#p361f0fc51c)" style="fill: #1f77b4"/>
   </g>
   <g id="patch_141">
    <path d="M 396.781074 307.584 
L 397.538409 307.584 
L 397.538409 223.267231 
L 396.781074 223.267231 
z
" clip-path="url(#p361f0fc51c)" style="fill: #1f77b4"/>
   </g>
   <g id="patch_142">
    <path d="M 396.830794 307.584 
L 397.588129 307.584 
L 397.588129 304.98914 
L 396.830794 304.98914 
z
" clip-path="url(#p361f0fc51c)" style="fill: #1f77b4"/>
   </g>
   <g id="patch_143">
    <path d="M 397.729938 307.584 
L 398.487273 307.584 
L 398.487273 292.740468 
L 397.729938 292.740468 
z
" clip-path="url(#p361f0fc51c)" style="fill: #1f77b4"/>
   </g>
   <g id="matplotlib.axis_1">
    <g id="xtick_1">
     <g id="line2d_1">
      <defs>
       <path id="ma5774fdde4" d="M 0 0 
L 0 3.5 
" style="stroke: #000000; stroke-width: 0.8"/>
      </defs>
      <g>
       <use xlink:href="#ma5774fdde4" x="71.33414" y="307.584" style="stroke: #000000; stroke-width: 0.8"/>
      </g>
     </g>
     <g id="text_1">
      <!-- 50 -->
      <g transform="translate(64.97164 322.182437) scale(0.1 -0.1)">
       <defs>
        <path id="DejaVuSans-35" d="M 691 4666 
L 3169 4666 
L 3169 4134 
L 1269 4134 
L 1269 2991 
Q 1406 3038 1543 3061 
Q 1681 3084 1819 3084 
Q 2600 3084 3056 2656 
Q 3513 2228 3513 1497 
Q 3513 744 3044 326 
Q 2575 -91 1722 -91 
Q 1428 -91 1123 -41 
Q 819 9 494 109 
L 494 744 
Q 775 591 1075 516 
Q 1375 441 1709 441 
Q 2250 441 2565 725 
Q 2881 1009 2881 1497 
Q 2881 1984 2565 2268 
Q 2250 2553 1709 2553 
Q 1456 2553 1204 2497 
Q 953 2441 691 2322 
L 691 4666 
z
" transform="scale(0.015625)"/>
        <path id="DejaVuSans-30" d="M 2034 4250 
Q 1547 4250 1301 3770 
Q 1056 3291 1056 2328 
Q 1056 1369 1301 889 
Q 1547 409 2034 409 
Q 2525 409 2770 889 
Q 3016 1369 3016 2328 
Q 3016 3291 2770 3770 
Q 2525 4250 2034 4250 
z
M 2034 4750 
Q 2819 4750 3233 4129 
Q 3647 3509 3647 2328 
Q 3647 1150 3233 529 
Q 2819 -91 2034 -91 
Q 1250 -91 836 529 
Q 422 1150 422 2328 
Q 422 3509 836 4129 
Q 1250 4750 2034 4750 
z
" transform="scale(0.015625)"/>
       </defs>
       <use xlink:href="#DejaVuSans-35"/>
       <use xlink:href="#DejaVuSans-30" x="63.623047"/>
      </g>
     </g>
    </g>
    <g id="xtick_2">
     <g id="line2d_2">
      <g>
       <use xlink:href="#ma5774fdde4" x="118.667548" y="307.584" style="stroke: #000000; stroke-width: 0.8"/>
      </g>
     </g>
     <g id="text_2">
      <!-- 100 -->
      <g transform="translate(109.123798 322.182437) scale(0.1 -0.1)">
       <defs>
        <path id="DejaVuSans-31" d="M 794 531 
L 1825 531 
L 1825 4091 
L 703 3866 
L 703 4441 
L 1819 4666 
L 2450 4666 
L 2450 531 
L 3481 531 
L 3481 0 
L 794 0 
L 794 531 
z
" transform="scale(0.015625)"/>
       </defs>
       <use xlink:href="#DejaVuSans-31"/>
       <use xlink:href="#DejaVuSans-30" x="63.623047"/>
       <use xlink:href="#DejaVuSans-30" x="127.246094"/>
      </g>
     </g>
    </g>
    <g id="xtick_3">
     <g id="line2d_3">
      <g>
       <use xlink:href="#ma5774fdde4" x="166.000957" y="307.584" style="stroke: #000000; stroke-width: 0.8"/>
      </g>
     </g>
     <g id="text_3">
      <!-- 150 -->
      <g transform="translate(156.457207 322.182437) scale(0.1 -0.1)">
       <use xlink:href="#DejaVuSans-31"/>
       <use xlink:href="#DejaVuSans-35" x="63.623047"/>
       <use xlink:href="#DejaVuSans-30" x="127.246094"/>
      </g>
     </g>
    </g>
    <g id="xtick_4">
     <g id="line2d_4">
      <g>
       <use xlink:href="#ma5774fdde4" x="213.334365" y="307.584" style="stroke: #000000; stroke-width: 0.8"/>
      </g>
     </g>
     <g id="text_4">
      <!-- 200 -->
      <g transform="translate(203.790615 322.182437) scale(0.1 -0.1)">
       <defs>
        <path id="DejaVuSans-32" d="M 1228 531 
L 3431 531 
L 3431 0 
L 469 0 
L 469 531 
Q 828 903 1448 1529 
Q 2069 2156 2228 2338 
Q 2531 2678 2651 2914 
Q 2772 3150 2772 3378 
Q 2772 3750 2511 3984 
Q 2250 4219 1831 4219 
Q 1534 4219 1204 4116 
Q 875 4013 500 3803 
L 500 4441 
Q 881 4594 1212 4672 
Q 1544 4750 1819 4750 
Q 2544 4750 2975 4387 
Q 3406 4025 3406 3419 
Q 3406 3131 3298 2873 
Q 3191 2616 2906 2266 
Q 2828 2175 2409 1742 
Q 1991 1309 1228 531 
z
" transform="scale(0.015625)"/>
       </defs>
       <use xlink:href="#DejaVuSans-32"/>
       <use xlink:href="#DejaVuSans-30" x="63.623047"/>
       <use xlink:href="#DejaVuSans-30" x="127.246094"/>
      </g>
     </g>
    </g>
    <g id="xtick_5">
     <g id="line2d_5">
      <g>
       <use xlink:href="#ma5774fdde4" x="260.667774" y="307.584" style="stroke: #000000; stroke-width: 0.8"/>
      </g>
     </g>
     <g id="text_5">
      <!-- 250 -->
      <g transform="translate(251.124024 322.182437) scale(0.1 -0.1)">
       <use xlink:href="#DejaVuSans-32"/>
       <use xlink:href="#DejaVuSans-35" x="63.623047"/>
       <use xlink:href="#DejaVuSans-30" x="127.246094"/>
      </g>
     </g>
    </g>
    <g id="xtick_6">
     <g id="line2d_6">
      <g>
       <use xlink:href="#ma5774fdde4" x="308.001182" y="307.584" style="stroke: #000000; stroke-width: 0.8"/>
      </g>
     </g>
     <g id="text_6">
      <!-- 300 -->
      <g transform="translate(298.457432 322.182437) scale(0.1 -0.1)">
       <defs>
        <path id="DejaVuSans-33" d="M 2597 2516 
Q 3050 2419 3304 2112 
Q 3559 1806 3559 1356 
Q 3559 666 3084 287 
Q 2609 -91 1734 -91 
Q 1441 -91 1130 -33 
Q 819 25 488 141 
L 488 750 
Q 750 597 1062 519 
Q 1375 441 1716 441 
Q 2309 441 2620 675 
Q 2931 909 2931 1356 
Q 2931 1769 2642 2001 
Q 2353 2234 1838 2234 
L 1294 2234 
L 1294 2753 
L 1863 2753 
Q 2328 2753 2575 2939 
Q 2822 3125 2822 3475 
Q 2822 3834 2567 4026 
Q 2313 4219 1838 4219 
Q 1578 4219 1281 4162 
Q 984 4106 628 3988 
L 628 4550 
Q 988 4650 1302 4700 
Q 1616 4750 1894 4750 
Q 2613 4750 3031 4423 
Q 3450 4097 3450 3541 
Q 3450 3153 3228 2886 
Q 3006 2619 2597 2516 
z
" transform="scale(0.015625)"/>
       </defs>
       <use xlink:href="#DejaVuSans-33"/>
       <use xlink:href="#DejaVuSans-30" x="63.623047"/>
       <use xlink:href="#DejaVuSans-30" x="127.246094"/>
      </g>
     </g>
    </g>
    <g id="xtick_7">
     <g id="line2d_7">
      <g>
       <use xlink:href="#ma5774fdde4" x="355.334591" y="307.584" style="stroke: #000000; stroke-width: 0.8"/>
      </g>
     </g>
     <g id="text_7">
      <!-- 350 -->
      <g transform="translate(345.790841 322.182437) scale(0.1 -0.1)">
       <use xlink:href="#DejaVuSans-33"/>
       <use xlink:href="#DejaVuSans-35" x="63.623047"/>
       <use xlink:href="#DejaVuSans-30" x="127.246094"/>
      </g>
     </g>
    </g>
    <g id="xtick_8">
     <g id="line2d_8">
      <g>
       <use xlink:href="#ma5774fdde4" x="402.668" y="307.584" style="stroke: #000000; stroke-width: 0.8"/>
      </g>
     </g>
     <g id="text_8">
      <!-- 400 -->
      <g transform="translate(393.12425 322.182437) scale(0.1 -0.1)">
       <defs>
        <path id="DejaVuSans-34" d="M 2419 4116 
L 825 1625 
L 2419 1625 
L 2419 4116 
z
M 2253 4666 
L 3047 4666 
L 3047 1625 
L 3713 1625 
L 3713 1100 
L 3047 1100 
L 3047 0 
L 2419 0 
L 2419 1100 
L 313 1100 
L 313 1709 
L 2253 4666 
z
" transform="scale(0.015625)"/>
       </defs>
       <use xlink:href="#DejaVuSans-34"/>
       <use xlink:href="#DejaVuSans-30" x="63.623047"/>
       <use xlink:href="#DejaVuSans-30" x="127.246094"/>
      </g>
     </g>
    </g>
    <g id="text_9">
     <!-- ${m/z}$ -->
     <g transform="translate(226.96 335.860562) scale(0.1 -0.1)">
      <defs>
       <path id="DejaVuSans-Oblique-6d" d="M 5747 2113 
L 5338 0 
L 4763 0 
L 5166 2094 
Q 5191 2228 5203 2325 
Q 5216 2422 5216 2491 
Q 5216 2772 5059 2928 
Q 4903 3084 4622 3084 
Q 4203 3084 3875 2770 
Q 3547 2456 3450 1953 
L 3066 0 
L 2491 0 
L 2900 2094 
Q 2925 2209 2937 2307 
Q 2950 2406 2950 2484 
Q 2950 2769 2794 2926 
Q 2638 3084 2363 3084 
Q 1938 3084 1609 2770 
Q 1281 2456 1184 1953 
L 800 0 
L 225 0 
L 909 3500 
L 1484 3500 
L 1375 2956 
Q 1609 3263 1923 3423 
Q 2238 3584 2597 3584 
Q 2978 3584 3223 3384 
Q 3469 3184 3519 2828 
Q 3781 3197 4126 3390 
Q 4472 3584 4856 3584 
Q 5306 3584 5551 3325 
Q 5797 3066 5797 2591 
Q 5797 2488 5784 2364 
Q 5772 2241 5747 2113 
z
" transform="scale(0.015625)"/>
       <path id="DejaVuSans-2f" d="M 1625 4666 
L 2156 4666 
L 531 -594 
L 0 -594 
L 1625 4666 
z
" transform="scale(0.015625)"/>
       <path id="DejaVuSans-Oblique-7a" d="M 744 3500 
L 3475 3500 
L 3372 2975 
L 738 459 
L 2913 459 
L 2822 0 
L -19 0 
L 84 525 
L 2719 3041 
L 653 3041 
L 744 3500 
z
" transform="scale(0.015625)"/>
      </defs>
      <use xlink:href="#DejaVuSans-Oblique-6d" transform="translate(0 0.09375)"/>
      <use xlink:href="#DejaVuSans-2f" transform="translate(97.412109 0.09375)"/>
      <use xlink:href="#DejaVuSans-Oblique-7a" transform="translate(131.103516 0.09375)"/>
     </g>
    </g>
   </g>
   <g id="matplotlib.axis_2">
    <g id="ytick_1">
     <g id="line2d_9">
      <defs>
       <path id="md39c8ca22c" d="M 0 0 
L -3.5 0 
" style="stroke: #000000; stroke-width: 0.8"/>
      </defs>
      <g>
       <use xlink:href="#md39c8ca22c" x="57.6" y="307.584" style="stroke: #000000; stroke-width: 0.8"/>
      </g>
     </g>
     <g id="text_10">
      <!-- 0 -->
      <g transform="translate(44.2375 311.383219) scale(0.1 -0.1)">
       <use xlink:href="#DejaVuSans-30"/>
      </g>
     </g>
    </g>
    <g id="ytick_2">
     <g id="line2d_10">
      <g>
       <use xlink:href="#md39c8ca22c" x="57.6" y="249.850044" style="stroke: #000000; stroke-width: 0.8"/>
      </g>
     </g>
     <g id="text_11">
      <!-- 1 -->
      <g transform="translate(44.2375 253.649263) scale(0.1 -0.1)">
       <use xlink:href="#DejaVuSans-31"/>
      </g>
     </g>
    </g>
    <g id="ytick_3">
     <g id="line2d_11">
      <g>
       <use xlink:href="#md39c8ca22c" x="57.6" y="192.116088" style="stroke: #000000; stroke-width: 0.8"/>
      </g>
     </g>
     <g id="text_12">
      <!-- 2 -->
      <g transform="translate(44.2375 195.915307) scale(0.1 -0.1)">
       <use xlink:href="#DejaVuSans-32"/>
      </g>
     </g>
    </g>
    <g id="ytick_4">
     <g id="line2d_12">
      <g>
       <use xlink:href="#md39c8ca22c" x="57.6" y="134.382132" style="stroke: #000000; stroke-width: 0.8"/>
      </g>
     </g>
     <g id="text_13">
      <!-- 3 -->
      <g transform="translate(44.2375 138.181351) scale(0.1 -0.1)">
       <use xlink:href="#DejaVuSans-33"/>
      </g>
     </g>
    </g>
    <g id="ytick_5">
     <g id="line2d_13">
      <g>
       <use xlink:href="#md39c8ca22c" x="57.6" y="76.648176" style="stroke: #000000; stroke-width: 0.8"/>
      </g>
     </g>
     <g id="text_14">
      <!-- 4 -->
      <g transform="translate(44.2375 80.447395) scale(0.1 -0.1)">
       <use xlink:href="#DejaVuSans-34"/>
      </g>
     </g>
    </g>
    <g id="text_15">
     <!-- intensities -->
     <g transform="translate(38.157812 200.3155) rotate(-90) scale(0.1 -0.1)">
      <defs>
       <path id="DejaVuSans-69" d="M 603 3500 
L 1178 3500 
L 1178 0 
L 603 0 
L 603 3500 
z
M 603 4863 
L 1178 4863 
L 1178 4134 
L 603 4134 
L 603 4863 
z
" transform="scale(0.015625)"/>
       <path id="DejaVuSans-6e" d="M 3513 2113 
L 3513 0 
L 2938 0 
L 2938 2094 
Q 2938 2591 2744 2837 
Q 2550 3084 2163 3084 
Q 1697 3084 1428 2787 
Q 1159 2491 1159 1978 
L 1159 0 
L 581 0 
L 581 3500 
L 1159 3500 
L 1159 2956 
Q 1366 3272 1645 3428 
Q 1925 3584 2291 3584 
Q 2894 3584 3203 3211 
Q 3513 2838 3513 2113 
z
" transform="scale(0.015625)"/>
       <path id="DejaVuSans-74" d="M 1172 4494 
L 1172 3500 
L 2356 3500 
L 2356 3053 
L 1172 3053 
L 1172 1153 
Q 1172 725 1289 603 
Q 1406 481 1766 481 
L 2356 481 
L 2356 0 
L 1766 0 
Q 1100 0 847 248 
Q 594 497 594 1153 
L 594 3053 
L 172 3053 
L 172 3500 
L 594 3500 
L 594 4494 
L 1172 4494 
z
" transform="scale(0.015625)"/>
       <path id="DejaVuSans-65" d="M 3597 1894 
L 3597 1613 
L 953 1613 
Q 991 1019 1311 708 
Q 1631 397 2203 397 
Q 2534 397 2845 478 
Q 3156 559 3463 722 
L 3463 178 
Q 3153 47 2828 -22 
Q 2503 -91 2169 -91 
Q 1331 -91 842 396 
Q 353 884 353 1716 
Q 353 2575 817 3079 
Q 1281 3584 2069 3584 
Q 2775 3584 3186 3129 
Q 3597 2675 3597 1894 
z
M 3022 2063 
Q 3016 2534 2758 2815 
Q 2500 3097 2075 3097 
Q 1594 3097 1305 2825 
Q 1016 2553 972 2059 
L 3022 2063 
z
" transform="scale(0.015625)"/>
       <path id="DejaVuSans-73" d="M 2834 3397 
L 2834 2853 
Q 2591 2978 2328 3040 
Q 2066 3103 1784 3103 
Q 1356 3103 1142 2972 
Q 928 2841 928 2578 
Q 928 2378 1081 2264 
Q 1234 2150 1697 2047 
L 1894 2003 
Q 2506 1872 2764 1633 
Q 3022 1394 3022 966 
Q 3022 478 2636 193 
Q 2250 -91 1575 -91 
Q 1294 -91 989 -36 
Q 684 19 347 128 
L 347 722 
Q 666 556 975 473 
Q 1284 391 1588 391 
Q 1994 391 2212 530 
Q 2431 669 2431 922 
Q 2431 1156 2273 1281 
Q 2116 1406 1581 1522 
L 1381 1569 
Q 847 1681 609 1914 
Q 372 2147 372 2553 
Q 372 3047 722 3315 
Q 1072 3584 1716 3584 
Q 2034 3584 2315 3537 
Q 2597 3491 2834 3397 
z
" transform="scale(0.015625)"/>
      </defs>
      <use xlink:href="#DejaVuSans-69"/>
      <use xlink:href="#DejaVuSans-6e" x="27.783203"/>
      <use xlink:href="#DejaVuSans-74" x="91.162109"/>
      <use xlink:href="#DejaVuSans-65" x="130.371094"/>
      <use xlink:href="#DejaVuSans-6e" x="191.894531"/>
      <use xlink:href="#DejaVuSans-73" x="255.273438"/>
      <use xlink:href="#DejaVuSans-69" x="307.373047"/>
      <use xlink:href="#DejaVuSans-74" x="335.15625"/>
      <use xlink:href="#DejaVuSans-69" x="374.365234"/>
      <use xlink:href="#DejaVuSans-65" x="402.148438"/>
      <use xlink:href="#DejaVuSans-73" x="463.671875"/>
     </g>
    </g>
    <g id="text_16">
     <!-- 1e6 -->
     <g transform="translate(57.6 38.472) scale(0.1 -0.1)">
      <defs>
       <path id="DejaVuSans-36" d="M 2113 2584 
Q 1688 2584 1439 2293 
Q 1191 2003 1191 1497 
Q 1191 994 1439 701 
Q 1688 409 2113 409 
Q 2538 409 2786 701 
Q 3034 994 3034 1497 
Q 3034 2003 2786 2293 
Q 2538 2584 2113 2584 
z
M 3366 4563 
L 3366 3988 
Q 3128 4100 2886 4159 
Q 2644 4219 2406 4219 
Q 1781 4219 1451 3797 
Q 1122 3375 1075 2522 
Q 1259 2794 1537 2939 
Q 1816 3084 2150 3084 
Q 2853 3084 3261 2657 
Q 3669 2231 3669 1497 
Q 3669 778 3244 343 
Q 2819 -91 2113 -91 
Q 1303 -91 875 529 
Q 447 1150 447 2328 
Q 447 3434 972 4092 
Q 1497 4750 2381 4750 
Q 2619 4750 2861 4703 
Q 3103 4656 3366 4563 
z
" transform="scale(0.015625)"/>
      </defs>
      <use xlink:href="#DejaVuSans-31"/>
      <use xlink:href="#DejaVuSans-65" x="63.623047"/>
      <use xlink:href="#DejaVuSans-36" x="125.146484"/>
     </g>
    </g>
   </g>
   <g id="patch_144">
    <path d="M 57.6 307.584 
L 57.6 41.472 
" style="fill: none; stroke: #000000; stroke-width: 0.8; stroke-linejoin: miter; stroke-linecap: square"/>
   </g>
   <g id="patch_145">
    <path d="M 414.72 307.584 
L 414.72 41.472 
" style="fill: none; stroke: #000000; stroke-width: 0.8; stroke-linejoin: miter; stroke-linecap: square"/>
   </g>
   <g id="patch_146">
    <path d="M 57.6 307.584 
L 414.72 307.584 
" style="fill: none; stroke: #000000; stroke-width: 0.8; stroke-linejoin: miter; stroke-linecap: square"/>
   </g>
   <g id="patch_147">
    <path d="M 57.6 41.472 
L 414.72 41.472 
" style="fill: none; stroke: #000000; stroke-width: 0.8; stroke-linejoin: miter; stroke-linecap: square"/>
   </g>
   <g id="text_17">
    <!-- 71.0135 -->
    <g transform="translate(84.581054 200.449072) scale(0.06 -0.06)">
     <defs>
      <path id="DejaVuSans-37" d="M 525 4666 
L 3525 4666 
L 3525 4397 
L 1831 0 
L 1172 0 
L 2766 4134 
L 525 4134 
L 525 4666 
z
" transform="scale(0.015625)"/>
      <path id="DejaVuSans-2e" d="M 684 794 
L 1344 794 
L 1344 0 
L 684 0 
L 684 794 
z
" transform="scale(0.015625)"/>
     </defs>
     <use xlink:href="#DejaVuSans-37"/>
     <use xlink:href="#DejaVuSans-31" x="63.623047"/>
     <use xlink:href="#DejaVuSans-2e" x="127.246094"/>
     <use xlink:href="#DejaVuSans-30" x="159.033203"/>
     <use xlink:href="#DejaVuSans-31" x="222.65625"/>
     <use xlink:href="#DejaVuSans-33" x="286.279297"/>
     <use xlink:href="#DejaVuSans-35" x="349.902344"/>
    </g>
   </g>
   <g id="text_18">
    <!-- 81.0342 -->
    <g transform="translate(90.467273 238.382736) scale(0.06 -0.06)">
     <defs>
      <path id="DejaVuSans-38" d="M 2034 2216 
Q 1584 2216 1326 1975 
Q 1069 1734 1069 1313 
Q 1069 891 1326 650 
Q 1584 409 2034 409 
Q 2484 409 2743 651 
Q 3003 894 3003 1313 
Q 3003 1734 2745 1975 
Q 2488 2216 2034 2216 
z
M 1403 2484 
Q 997 2584 770 2862 
Q 544 3141 544 3541 
Q 544 4100 942 4425 
Q 1341 4750 2034 4750 
Q 2731 4750 3128 4425 
Q 3525 4100 3525 3541 
Q 3525 3141 3298 2862 
Q 3072 2584 2669 2484 
Q 3125 2378 3379 2068 
Q 3634 1759 3634 1313 
Q 3634 634 3220 271 
Q 2806 -91 2034 -91 
Q 1263 -91 848 271 
Q 434 634 434 1313 
Q 434 1759 690 2068 
Q 947 2378 1403 2484 
z
M 1172 3481 
Q 1172 3119 1398 2916 
Q 1625 2713 2034 2713 
Q 2441 2713 2670 2916 
Q 2900 3119 2900 3481 
Q 2900 3844 2670 4047 
Q 2441 4250 2034 4250 
Q 1625 4250 1398 4047 
Q 1172 3844 1172 3481 
z
" transform="scale(0.015625)"/>
     </defs>
     <use xlink:href="#DejaVuSans-38"/>
     <use xlink:href="#DejaVuSans-31" x="63.623047"/>
     <use xlink:href="#DejaVuSans-2e" x="127.246094"/>
     <use xlink:href="#DejaVuSans-30" x="159.033203"/>
     <use xlink:href="#DejaVuSans-33" x="222.65625"/>
     <use xlink:href="#DejaVuSans-34" x="286.279297"/>
     <use xlink:href="#DejaVuSans-32" x="349.902344"/>
    </g>
   </g>
   <g id="text_19">
    <!-- 89.0239 -->
    <g transform="translate(118.190904 229.404182) scale(0.06 -0.06)">
     <defs>
      <path id="DejaVuSans-39" d="M 703 97 
L 703 672 
Q 941 559 1184 500 
Q 1428 441 1663 441 
Q 2288 441 2617 861 
Q 2947 1281 2994 2138 
Q 2813 1869 2534 1725 
Q 2256 1581 1919 1581 
Q 1219 1581 811 2004 
Q 403 2428 403 3163 
Q 403 3881 828 4315 
Q 1253 4750 1959 4750 
Q 2769 4750 3195 4129 
Q 3622 3509 3622 2328 
Q 3622 1225 3098 567 
Q 2575 -91 1691 -91 
Q 1453 -91 1209 -44 
Q 966 3 703 97 
z
M 1959 2075 
Q 2384 2075 2632 2365 
Q 2881 2656 2881 3163 
Q 2881 3666 2632 3958 
Q 2384 4250 1959 4250 
Q 1534 4250 1286 3958 
Q 1038 3666 1038 3163 
Q 1038 2656 1286 2365 
Q 1534 2075 1959 2075 
z
" transform="scale(0.015625)"/>
     </defs>
     <use xlink:href="#DejaVuSans-38"/>
     <use xlink:href="#DejaVuSans-39" x="63.623047"/>
     <use xlink:href="#DejaVuSans-2e" x="127.246094"/>
     <use xlink:href="#DejaVuSans-30" x="159.033203"/>
     <use xlink:href="#DejaVuSans-32" x="222.65625"/>
     <use xlink:href="#DejaVuSans-33" x="286.279297"/>
     <use xlink:href="#DejaVuSans-39" x="349.902344"/>
    </g>
   </g>
   <g id="text_20">
    <!-- 211.079 -->
    <g transform="translate(217.176603 252.032803) scale(0.06 -0.06)">
     <use xlink:href="#DejaVuSans-32"/>
     <use xlink:href="#DejaVuSans-31" x="63.623047"/>
     <use xlink:href="#DejaVuSans-31" x="127.246094"/>
     <use xlink:href="#DejaVuSans-2e" x="190.869141"/>
     <use xlink:href="#DejaVuSans-30" x="222.65625"/>
     <use xlink:href="#DejaVuSans-37" x="286.279297"/>
     <use xlink:href="#DejaVuSans-39" x="349.902344"/>
    </g>
   </g>
   <g id="text_21">
    <!-- 212.0863 -->
    <g transform="translate(200.381383 284.528288) scale(0.06 -0.06)">
     <use xlink:href="#DejaVuSans-32"/>
     <use xlink:href="#DejaVuSans-31" x="63.623047"/>
     <use xlink:href="#DejaVuSans-32" x="127.246094"/>
     <use xlink:href="#DejaVuSans-2e" x="190.869141"/>
     <use xlink:href="#DejaVuSans-30" x="222.65625"/>
     <use xlink:href="#DejaVuSans-38" x="286.279297"/>
     <use xlink:href="#DejaVuSans-36" x="349.902344"/>
     <use xlink:href="#DejaVuSans-33" x="413.525391"/>
    </g>
   </g>
   <g id="text_22">
    <!-- 222.0709 -->
    <g transform="translate(226.393533 287.660957) scale(0.06 -0.06)">
     <use xlink:href="#DejaVuSans-32"/>
     <use xlink:href="#DejaVuSans-32" x="63.623047"/>
     <use xlink:href="#DejaVuSans-32" x="127.246094"/>
     <use xlink:href="#DejaVuSans-2e" x="190.869141"/>
     <use xlink:href="#DejaVuSans-30" x="222.65625"/>
     <use xlink:href="#DejaVuSans-37" x="286.279297"/>
     <use xlink:href="#DejaVuSans-30" x="349.902344"/>
     <use xlink:href="#DejaVuSans-39" x="413.525391"/>
    </g>
   </g>
   <g id="text_23">
    <!-- 224.0867 -->
    <g transform="translate(229.021747 272.346528) scale(0.06 -0.06)">
     <use xlink:href="#DejaVuSans-32"/>
     <use xlink:href="#DejaVuSans-32" x="63.623047"/>
     <use xlink:href="#DejaVuSans-34" x="127.246094"/>
     <use xlink:href="#DejaVuSans-2e" x="190.869141"/>
     <use xlink:href="#DejaVuSans-30" x="222.65625"/>
     <use xlink:href="#DejaVuSans-38" x="286.279297"/>
     <use xlink:href="#DejaVuSans-36" x="349.902344"/>
     <use xlink:href="#DejaVuSans-37" x="413.525391"/>
    </g>
   </g>
   <g id="text_24">
    <!-- 235.0791 -->
    <g transform="translate(239.427947 228.953228) scale(0.06 -0.06)">
     <use xlink:href="#DejaVuSans-32"/>
     <use xlink:href="#DejaVuSans-33" x="63.623047"/>
     <use xlink:href="#DejaVuSans-35" x="127.246094"/>
     <use xlink:href="#DejaVuSans-2e" x="190.869141"/>
     <use xlink:href="#DejaVuSans-30" x="222.65625"/>
     <use xlink:href="#DejaVuSans-37" x="286.279297"/>
     <use xlink:href="#DejaVuSans-39" x="349.902344"/>
     <use xlink:href="#DejaVuSans-31" x="413.525391"/>
    </g>
   </g>
   <g id="text_25">
    <!-- 236.0864 -->
    <g transform="translate(240.381549 258.747492) scale(0.06 -0.06)">
     <use xlink:href="#DejaVuSans-32"/>
     <use xlink:href="#DejaVuSans-33" x="63.623047"/>
     <use xlink:href="#DejaVuSans-36" x="127.246094"/>
     <use xlink:href="#DejaVuSans-2e" x="190.869141"/>
     <use xlink:href="#DejaVuSans-30" x="222.65625"/>
     <use xlink:href="#DejaVuSans-38" x="286.279297"/>
     <use xlink:href="#DejaVuSans-36" x="349.902344"/>
     <use xlink:href="#DejaVuSans-34" x="413.525391"/>
    </g>
   </g>
   <g id="text_26">
    <!-- 248.0869 -->
    <g transform="translate(251.742 102.143293) scale(0.06 -0.06)">
     <use xlink:href="#DejaVuSans-32"/>
     <use xlink:href="#DejaVuSans-34" x="63.623047"/>
     <use xlink:href="#DejaVuSans-38" x="127.246094"/>
     <use xlink:href="#DejaVuSans-2e" x="190.869141"/>
     <use xlink:href="#DejaVuSans-30" x="222.65625"/>
     <use xlink:href="#DejaVuSans-38" x="286.279297"/>
     <use xlink:href="#DejaVuSans-36" x="349.902344"/>
     <use xlink:href="#DejaVuSans-39" x="413.525391"/>
    </g>
   </g>
   <g id="text_27">
    <!-- 249.0927 -->
    <g transform="translate(266.374128 252.564011) scale(0.06 -0.06)">
     <use xlink:href="#DejaVuSans-32"/>
     <use xlink:href="#DejaVuSans-34" x="63.623047"/>
     <use xlink:href="#DejaVuSans-39" x="127.246094"/>
     <use xlink:href="#DejaVuSans-2e" x="190.869141"/>
     <use xlink:href="#DejaVuSans-30" x="222.65625"/>
     <use xlink:href="#DejaVuSans-39" x="286.279297"/>
     <use xlink:href="#DejaVuSans-32" x="349.902344"/>
     <use xlink:href="#DejaVuSans-37" x="413.525391"/>
    </g>
   </g>
   <g id="text_28">
    <!-- 250.1022 -->
    <g transform="translate(256.529868 236.487098) scale(0.06 -0.06)">
     <use xlink:href="#DejaVuSans-32"/>
     <use xlink:href="#DejaVuSans-35" x="63.623047"/>
     <use xlink:href="#DejaVuSans-30" x="127.246094"/>
     <use xlink:href="#DejaVuSans-2e" x="190.869141"/>
     <use xlink:href="#DejaVuSans-31" x="222.65625"/>
     <use xlink:href="#DejaVuSans-30" x="286.279297"/>
     <use xlink:href="#DejaVuSans-32" x="349.902344"/>
     <use xlink:href="#DejaVuSans-32" x="413.525391"/>
    </g>
   </g>
   <g id="text_29">
    <!-- 253.1261 -->
    <g transform="translate(256.51245 243.861801) scale(0.06 -0.06)">
     <use xlink:href="#DejaVuSans-32"/>
     <use xlink:href="#DejaVuSans-35" x="63.623047"/>
     <use xlink:href="#DejaVuSans-33" x="127.246094"/>
     <use xlink:href="#DejaVuSans-2e" x="190.869141"/>
     <use xlink:href="#DejaVuSans-31" x="222.65625"/>
     <use xlink:href="#DejaVuSans-32" x="286.279297"/>
     <use xlink:href="#DejaVuSans-36" x="349.902344"/>
     <use xlink:href="#DejaVuSans-31" x="413.525391"/>
    </g>
   </g>
   <g id="text_30">
    <!-- 254.1328 -->
    <g transform="translate(246.665445 278.985909) scale(0.06 -0.06)">
     <use xlink:href="#DejaVuSans-32"/>
     <use xlink:href="#DejaVuSans-35" x="63.623047"/>
     <use xlink:href="#DejaVuSans-34" x="127.246094"/>
     <use xlink:href="#DejaVuSans-2e" x="190.869141"/>
     <use xlink:href="#DejaVuSans-31" x="222.65625"/>
     <use xlink:href="#DejaVuSans-33" x="286.279297"/>
     <use xlink:href="#DejaVuSans-32" x="349.902344"/>
     <use xlink:href="#DejaVuSans-38" x="413.525391"/>
    </g>
   </g>
   <g id="text_31">
    <!-- 262.1023 -->
    <g transform="translate(270.769915 226.605195) scale(0.06 -0.06)">
     <use xlink:href="#DejaVuSans-32"/>
     <use xlink:href="#DejaVuSans-36" x="63.623047"/>
     <use xlink:href="#DejaVuSans-32" x="127.246094"/>
     <use xlink:href="#DejaVuSans-2e" x="190.869141"/>
     <use xlink:href="#DejaVuSans-31" x="222.65625"/>
     <use xlink:href="#DejaVuSans-30" x="286.279297"/>
     <use xlink:href="#DejaVuSans-32" x="349.902344"/>
     <use xlink:href="#DejaVuSans-33" x="413.525391"/>
    </g>
   </g>
   <g id="text_32">
    <!-- 264.1182 -->
    <g transform="translate(266.918303 164.499992) scale(0.06 -0.06)">
     <use xlink:href="#DejaVuSans-32"/>
     <use xlink:href="#DejaVuSans-36" x="63.623047"/>
     <use xlink:href="#DejaVuSans-34" x="127.246094"/>
     <use xlink:href="#DejaVuSans-2e" x="190.869141"/>
     <use xlink:href="#DejaVuSans-31" x="222.65625"/>
     <use xlink:href="#DejaVuSans-31" x="286.279297"/>
     <use xlink:href="#DejaVuSans-38" x="349.902344"/>
     <use xlink:href="#DejaVuSans-32" x="413.525391"/>
    </g>
   </g>
   <g id="text_33">
    <!-- 273.0943 -->
    <g transform="translate(275.415725 279.501647) scale(0.06 -0.06)">
     <use xlink:href="#DejaVuSans-32"/>
     <use xlink:href="#DejaVuSans-37" x="63.623047"/>
     <use xlink:href="#DejaVuSans-33" x="127.246094"/>
     <use xlink:href="#DejaVuSans-2e" x="190.869141"/>
     <use xlink:href="#DejaVuSans-30" x="222.65625"/>
     <use xlink:href="#DejaVuSans-39" x="286.279297"/>
     <use xlink:href="#DejaVuSans-34" x="349.902344"/>
     <use xlink:href="#DejaVuSans-33" x="413.525391"/>
    </g>
   </g>
   <g id="text_34">
    <!-- 274.1024 -->
    <g transform="translate(279.25002 99.354159) scale(0.06 -0.06)">
     <use xlink:href="#DejaVuSans-32"/>
     <use xlink:href="#DejaVuSans-37" x="63.623047"/>
     <use xlink:href="#DejaVuSans-34" x="127.246094"/>
     <use xlink:href="#DejaVuSans-2e" x="190.869141"/>
     <use xlink:href="#DejaVuSans-31" x="222.65625"/>
     <use xlink:href="#DejaVuSans-30" x="286.279297"/>
     <use xlink:href="#DejaVuSans-32" x="349.902344"/>
     <use xlink:href="#DejaVuSans-34" x="413.525391"/>
    </g>
   </g>
   <g id="text_35">
    <!-- 275.1074 -->
    <g transform="translate(277.397522 261.796469) scale(0.06 -0.06)">
     <use xlink:href="#DejaVuSans-32"/>
     <use xlink:href="#DejaVuSans-37" x="63.623047"/>
     <use xlink:href="#DejaVuSans-35" x="127.246094"/>
     <use xlink:href="#DejaVuSans-2e" x="190.869141"/>
     <use xlink:href="#DejaVuSans-31" x="222.65625"/>
     <use xlink:href="#DejaVuSans-30" x="286.279297"/>
     <use xlink:href="#DejaVuSans-37" x="349.902344"/>
     <use xlink:href="#DejaVuSans-34" x="413.525391"/>
    </g>
   </g>
   <g id="text_36">
    <!-- 277.1259 -->
    <g transform="translate(282.112327 237.866623) scale(0.06 -0.06)">
     <use xlink:href="#DejaVuSans-32"/>
     <use xlink:href="#DejaVuSans-37" x="63.623047"/>
     <use xlink:href="#DejaVuSans-37" x="127.246094"/>
     <use xlink:href="#DejaVuSans-2e" x="190.869141"/>
     <use xlink:href="#DejaVuSans-31" x="222.65625"/>
     <use xlink:href="#DejaVuSans-32" x="286.279297"/>
     <use xlink:href="#DejaVuSans-35" x="349.902344"/>
     <use xlink:href="#DejaVuSans-39" x="413.525391"/>
    </g>
   </g>
   <g id="text_37">
    <!-- 288.118 -->
    <g transform="translate(298.026945 220.74628) scale(0.06 -0.06)">
     <use xlink:href="#DejaVuSans-32"/>
     <use xlink:href="#DejaVuSans-38" x="63.623047"/>
     <use xlink:href="#DejaVuSans-38" x="127.246094"/>
     <use xlink:href="#DejaVuSans-2e" x="190.869141"/>
     <use xlink:href="#DejaVuSans-31" x="222.65625"/>
     <use xlink:href="#DejaVuSans-31" x="286.279297"/>
     <use xlink:href="#DejaVuSans-38" x="349.902344"/>
    </g>
   </g>
   <g id="text_38">
    <!-- 290.1337 -->
    <g transform="translate(291.546409 50.939625) scale(0.06 -0.06)">
     <use xlink:href="#DejaVuSans-32"/>
     <use xlink:href="#DejaVuSans-39" x="63.623047"/>
     <use xlink:href="#DejaVuSans-30" x="127.246094"/>
     <use xlink:href="#DejaVuSans-2e" x="190.869141"/>
     <use xlink:href="#DejaVuSans-31" x="222.65625"/>
     <use xlink:href="#DejaVuSans-33" x="286.279297"/>
     <use xlink:href="#DejaVuSans-33" x="349.902344"/>
     <use xlink:href="#DejaVuSans-37" x="413.525391"/>
    </g>
   </g>
   <g id="text_39">
    <!-- 291.1371 -->
    <g transform="translate(278.096255 269.953296) scale(0.06 -0.06)">
     <use xlink:href="#DejaVuSans-32"/>
     <use xlink:href="#DejaVuSans-39" x="63.623047"/>
     <use xlink:href="#DejaVuSans-31" x="127.246094"/>
     <use xlink:href="#DejaVuSans-2e" x="190.869141"/>
     <use xlink:href="#DejaVuSans-31" x="222.65625"/>
     <use xlink:href="#DejaVuSans-33" x="286.279297"/>
     <use xlink:href="#DejaVuSans-37" x="349.902344"/>
     <use xlink:href="#DejaVuSans-31" x="413.525391"/>
    </g>
   </g>
   <g id="text_40">
    <!-- 292.1493 -->
    <g transform="translate(302.09448 277.92039) scale(0.06 -0.06)">
     <use xlink:href="#DejaVuSans-32"/>
     <use xlink:href="#DejaVuSans-39" x="63.623047"/>
     <use xlink:href="#DejaVuSans-32" x="127.246094"/>
     <use xlink:href="#DejaVuSans-2e" x="190.869141"/>
     <use xlink:href="#DejaVuSans-31" x="222.65625"/>
     <use xlink:href="#DejaVuSans-34" x="286.279297"/>
     <use xlink:href="#DejaVuSans-39" x="349.902344"/>
     <use xlink:href="#DejaVuSans-33" x="413.525391"/>
    </g>
   </g>
   <g id="text_41">
    <!-- 306.1649 -->
    <g transform="translate(306.722568 189.810559) scale(0.06 -0.06)">
     <use xlink:href="#DejaVuSans-33"/>
     <use xlink:href="#DejaVuSans-30" x="63.623047"/>
     <use xlink:href="#DejaVuSans-36" x="127.246094"/>
     <use xlink:href="#DejaVuSans-2e" x="190.869141"/>
     <use xlink:href="#DejaVuSans-31" x="222.65625"/>
     <use xlink:href="#DejaVuSans-36" x="286.279297"/>
     <use xlink:href="#DejaVuSans-34" x="349.902344"/>
     <use xlink:href="#DejaVuSans-39" x="413.525391"/>
    </g>
   </g>
   <g id="text_42">
    <!-- 316.1128 -->
    <g transform="translate(316.466672 261.035883) scale(0.06 -0.06)">
     <use xlink:href="#DejaVuSans-33"/>
     <use xlink:href="#DejaVuSans-31" x="63.623047"/>
     <use xlink:href="#DejaVuSans-36" x="127.246094"/>
     <use xlink:href="#DejaVuSans-2e" x="190.869141"/>
     <use xlink:href="#DejaVuSans-31" x="222.65625"/>
     <use xlink:href="#DejaVuSans-31" x="286.279297"/>
     <use xlink:href="#DejaVuSans-32" x="349.902344"/>
     <use xlink:href="#DejaVuSans-38" x="413.525391"/>
    </g>
   </g>
   <g id="text_43">
    <!-- 316.1496 -->
    <g transform="translate(316.174805 250.945269) scale(0.06 -0.06)">
     <use xlink:href="#DejaVuSans-33"/>
     <use xlink:href="#DejaVuSans-31" x="63.623047"/>
     <use xlink:href="#DejaVuSans-36" x="127.246094"/>
     <use xlink:href="#DejaVuSans-2e" x="190.869141"/>
     <use xlink:href="#DejaVuSans-31" x="222.65625"/>
     <use xlink:href="#DejaVuSans-34" x="286.279297"/>
     <use xlink:href="#DejaVuSans-39" x="349.902344"/>
     <use xlink:href="#DejaVuSans-36" x="413.525391"/>
    </g>
   </g>
   <g id="text_44">
    <!-- 333.1157 -->
    <g transform="translate(332.557858 274.594352) scale(0.06 -0.06)">
     <use xlink:href="#DejaVuSans-33"/>
     <use xlink:href="#DejaVuSans-33" x="63.623047"/>
     <use xlink:href="#DejaVuSans-33" x="127.246094"/>
     <use xlink:href="#DejaVuSans-2e" x="190.869141"/>
     <use xlink:href="#DejaVuSans-31" x="222.65625"/>
     <use xlink:href="#DejaVuSans-31" x="286.279297"/>
     <use xlink:href="#DejaVuSans-35" x="349.902344"/>
     <use xlink:href="#DejaVuSans-37" x="413.525391"/>
    </g>
   </g>
   <g id="text_45">
    <!-- 334.1236 -->
    <g transform="translate(333.190188 116.501078) scale(0.06 -0.06)">
     <use xlink:href="#DejaVuSans-33"/>
     <use xlink:href="#DejaVuSans-33" x="63.623047"/>
     <use xlink:href="#DejaVuSans-34" x="127.246094"/>
     <use xlink:href="#DejaVuSans-2e" x="190.869141"/>
     <use xlink:href="#DejaVuSans-31" x="222.65625"/>
     <use xlink:href="#DejaVuSans-32" x="286.279297"/>
     <use xlink:href="#DejaVuSans-33" x="349.902344"/>
     <use xlink:href="#DejaVuSans-36" x="413.525391"/>
    </g>
   </g>
   <g id="text_46">
    <!-- 335.1271 -->
    <g transform="translate(334.140237 286.421265) scale(0.06 -0.06)">
     <use xlink:href="#DejaVuSans-33"/>
     <use xlink:href="#DejaVuSans-33" x="63.623047"/>
     <use xlink:href="#DejaVuSans-35" x="127.246094"/>
     <use xlink:href="#DejaVuSans-2e" x="190.869141"/>
     <use xlink:href="#DejaVuSans-31" x="222.65625"/>
     <use xlink:href="#DejaVuSans-32" x="286.279297"/>
     <use xlink:href="#DejaVuSans-37" x="349.902344"/>
     <use xlink:href="#DejaVuSans-31" x="413.525391"/>
    </g>
   </g>
   <g id="text_47">
    <!-- 350.1917 -->
    <g transform="translate(361.361391 282.614675) scale(0.06 -0.06)">
     <use xlink:href="#DejaVuSans-33"/>
     <use xlink:href="#DejaVuSans-35" x="63.623047"/>
     <use xlink:href="#DejaVuSans-30" x="127.246094"/>
     <use xlink:href="#DejaVuSans-2e" x="190.869141"/>
     <use xlink:href="#DejaVuSans-31" x="222.65625"/>
     <use xlink:href="#DejaVuSans-39" x="286.279297"/>
     <use xlink:href="#DejaVuSans-31" x="349.902344"/>
     <use xlink:href="#DejaVuSans-37" x="413.525391"/>
    </g>
   </g>
   <g id="text_48">
    <!-- 376.1706 -->
    <g transform="translate(372.994742 90.933611) scale(0.06 -0.06)">
     <use xlink:href="#DejaVuSans-33"/>
     <use xlink:href="#DejaVuSans-37" x="63.623047"/>
     <use xlink:href="#DejaVuSans-36" x="127.246094"/>
     <use xlink:href="#DejaVuSans-2e" x="190.869141"/>
     <use xlink:href="#DejaVuSans-31" x="222.65625"/>
     <use xlink:href="#DejaVuSans-37" x="286.279297"/>
     <use xlink:href="#DejaVuSans-30" x="349.902344"/>
     <use xlink:href="#DejaVuSans-36" x="413.525391"/>
    </g>
   </g>
   <g id="text_49">
    <!-- 377.1738 -->
    <g transform="translate(373.944502 265.871737) scale(0.06 -0.06)">
     <use xlink:href="#DejaVuSans-33"/>
     <use xlink:href="#DejaVuSans-37" x="63.623047"/>
     <use xlink:href="#DejaVuSans-37" x="127.246094"/>
     <use xlink:href="#DejaVuSans-2e" x="190.869141"/>
     <use xlink:href="#DejaVuSans-31" x="222.65625"/>
     <use xlink:href="#DejaVuSans-37" x="286.279297"/>
     <use xlink:href="#DejaVuSans-33" x="349.902344"/>
     <use xlink:href="#DejaVuSans-38" x="413.525391"/>
    </g>
   </g>
   <g id="text_50">
    <!-- 394.1814 -->
    <g transform="translate(386.230312 220.062856) scale(0.06 -0.06)">
     <use xlink:href="#DejaVuSans-33"/>
     <use xlink:href="#DejaVuSans-39" x="63.623047"/>
     <use xlink:href="#DejaVuSans-34" x="127.246094"/>
     <use xlink:href="#DejaVuSans-2e" x="190.869141"/>
     <use xlink:href="#DejaVuSans-31" x="222.65625"/>
     <use xlink:href="#DejaVuSans-38" x="286.279297"/>
     <use xlink:href="#DejaVuSans-31" x="349.902344"/>
     <use xlink:href="#DejaVuSans-34" x="413.525391"/>
    </g>
   </g>
   <g id="text_51">
    <!-- MS2 spectrum of ${m/z}$ 394.1805, scan time 10.15 min. -->
    <g transform="translate(57.6 24.873562) scale(0.12 -0.12)">
     <defs>
      <path id="DejaVuSans-4d" d="M 628 4666 
L 1569 4666 
L 2759 1491 
L 3956 4666 
L 4897 4666 
L 4897 0 
L 4281 0 
L 4281 4097 
L 3078 897 
L 2444 897 
L 1241 4097 
L 1241 0 
L 628 0 
L 628 4666 
z
" transform="scale(0.015625)"/>
      <path id="DejaVuSans-53" d="M 3425 4513 
L 3425 3897 
Q 3066 4069 2747 4153 
Q 2428 4238 2131 4238 
Q 1616 4238 1336 4038 
Q 1056 3838 1056 3469 
Q 1056 3159 1242 3001 
Q 1428 2844 1947 2747 
L 2328 2669 
Q 3034 2534 3370 2195 
Q 3706 1856 3706 1288 
Q 3706 609 3251 259 
Q 2797 -91 1919 -91 
Q 1588 -91 1214 -16 
Q 841 59 441 206 
L 441 856 
Q 825 641 1194 531 
Q 1563 422 1919 422 
Q 2459 422 2753 634 
Q 3047 847 3047 1241 
Q 3047 1584 2836 1778 
Q 2625 1972 2144 2069 
L 1759 2144 
Q 1053 2284 737 2584 
Q 422 2884 422 3419 
Q 422 4038 858 4394 
Q 1294 4750 2059 4750 
Q 2388 4750 2728 4690 
Q 3069 4631 3425 4513 
z
" transform="scale(0.015625)"/>
      <path id="DejaVuSans-20" transform="scale(0.015625)"/>
      <path id="DejaVuSans-70" d="M 1159 525 
L 1159 -1331 
L 581 -1331 
L 581 3500 
L 1159 3500 
L 1159 2969 
Q 1341 3281 1617 3432 
Q 1894 3584 2278 3584 
Q 2916 3584 3314 3078 
Q 3713 2572 3713 1747 
Q 3713 922 3314 415 
Q 2916 -91 2278 -91 
Q 1894 -91 1617 61 
Q 1341 213 1159 525 
z
M 3116 1747 
Q 3116 2381 2855 2742 
Q 2594 3103 2138 3103 
Q 1681 3103 1420 2742 
Q 1159 2381 1159 1747 
Q 1159 1113 1420 752 
Q 1681 391 2138 391 
Q 2594 391 2855 752 
Q 3116 1113 3116 1747 
z
" transform="scale(0.015625)"/>
      <path id="DejaVuSans-63" d="M 3122 3366 
L 3122 2828 
Q 2878 2963 2633 3030 
Q 2388 3097 2138 3097 
Q 1578 3097 1268 2742 
Q 959 2388 959 1747 
Q 959 1106 1268 751 
Q 1578 397 2138 397 
Q 2388 397 2633 464 
Q 2878 531 3122 666 
L 3122 134 
Q 2881 22 2623 -34 
Q 2366 -91 2075 -91 
Q 1284 -91 818 406 
Q 353 903 353 1747 
Q 353 2603 823 3093 
Q 1294 3584 2113 3584 
Q 2378 3584 2631 3529 
Q 2884 3475 3122 3366 
z
" transform="scale(0.015625)"/>
      <path id="DejaVuSans-72" d="M 2631 2963 
Q 2534 3019 2420 3045 
Q 2306 3072 2169 3072 
Q 1681 3072 1420 2755 
Q 1159 2438 1159 1844 
L 1159 0 
L 581 0 
L 581 3500 
L 1159 3500 
L 1159 2956 
Q 1341 3275 1631 3429 
Q 1922 3584 2338 3584 
Q 2397 3584 2469 3576 
Q 2541 3569 2628 3553 
L 2631 2963 
z
" transform="scale(0.015625)"/>
      <path id="DejaVuSans-75" d="M 544 1381 
L 544 3500 
L 1119 3500 
L 1119 1403 
Q 1119 906 1312 657 
Q 1506 409 1894 409 
Q 2359 409 2629 706 
Q 2900 1003 2900 1516 
L 2900 3500 
L 3475 3500 
L 3475 0 
L 2900 0 
L 2900 538 
Q 2691 219 2414 64 
Q 2138 -91 1772 -91 
Q 1169 -91 856 284 
Q 544 659 544 1381 
z
M 1991 3584 
L 1991 3584 
z
" transform="scale(0.015625)"/>
      <path id="DejaVuSans-6d" d="M 3328 2828 
Q 3544 3216 3844 3400 
Q 4144 3584 4550 3584 
Q 5097 3584 5394 3201 
Q 5691 2819 5691 2113 
L 5691 0 
L 5113 0 
L 5113 2094 
Q 5113 2597 4934 2840 
Q 4756 3084 4391 3084 
Q 3944 3084 3684 2787 
Q 3425 2491 3425 1978 
L 3425 0 
L 2847 0 
L 2847 2094 
Q 2847 2600 2669 2842 
Q 2491 3084 2119 3084 
Q 1678 3084 1418 2786 
Q 1159 2488 1159 1978 
L 1159 0 
L 581 0 
L 581 3500 
L 1159 3500 
L 1159 2956 
Q 1356 3278 1631 3431 
Q 1906 3584 2284 3584 
Q 2666 3584 2933 3390 
Q 3200 3197 3328 2828 
z
" transform="scale(0.015625)"/>
      <path id="DejaVuSans-6f" d="M 1959 3097 
Q 1497 3097 1228 2736 
Q 959 2375 959 1747 
Q 959 1119 1226 758 
Q 1494 397 1959 397 
Q 2419 397 2687 759 
Q 2956 1122 2956 1747 
Q 2956 2369 2687 2733 
Q 2419 3097 1959 3097 
z
M 1959 3584 
Q 2709 3584 3137 3096 
Q 3566 2609 3566 1747 
Q 3566 888 3137 398 
Q 2709 -91 1959 -91 
Q 1206 -91 779 398 
Q 353 888 353 1747 
Q 353 2609 779 3096 
Q 1206 3584 1959 3584 
z
" transform="scale(0.015625)"/>
      <path id="DejaVuSans-66" d="M 2375 4863 
L 2375 4384 
L 1825 4384 
Q 1516 4384 1395 4259 
Q 1275 4134 1275 3809 
L 1275 3500 
L 2222 3500 
L 2222 3053 
L 1275 3053 
L 1275 0 
L 697 0 
L 697 3053 
L 147 3053 
L 147 3500 
L 697 3500 
L 697 3744 
Q 697 4328 969 4595 
Q 1241 4863 1831 4863 
L 2375 4863 
z
" transform="scale(0.015625)"/>
      <path id="DejaVuSans-2c" d="M 750 794 
L 1409 794 
L 1409 256 
L 897 -744 
L 494 -744 
L 750 256 
L 750 794 
z
" transform="scale(0.015625)"/>
      <path id="DejaVuSans-61" d="M 2194 1759 
Q 1497 1759 1228 1600 
Q 959 1441 959 1056 
Q 959 750 1161 570 
Q 1363 391 1709 391 
Q 2188 391 2477 730 
Q 2766 1069 2766 1631 
L 2766 1759 
L 2194 1759 
z
M 3341 1997 
L 3341 0 
L 2766 0 
L 2766 531 
Q 2569 213 2275 61 
Q 1981 -91 1556 -91 
Q 1019 -91 701 211 
Q 384 513 384 1019 
Q 384 1609 779 1909 
Q 1175 2209 1959 2209 
L 2766 2209 
L 2766 2266 
Q 2766 2663 2505 2880 
Q 2244 3097 1772 3097 
Q 1472 3097 1187 3025 
Q 903 2953 641 2809 
L 641 3341 
Q 956 3463 1253 3523 
Q 1550 3584 1831 3584 
Q 2591 3584 2966 3190 
Q 3341 2797 3341 1997 
z
" transform="scale(0.015625)"/>
     </defs>
     <use xlink:href="#DejaVuSans-4d" transform="translate(0 0.015625)"/>
     <use xlink:href="#DejaVuSans-53" transform="translate(86.279297 0.015625)"/>
     <use xlink:href="#DejaVuSans-32" transform="translate(149.755859 0.015625)"/>
     <use xlink:href="#DejaVuSans-20" transform="translate(213.378906 0.015625)"/>
     <use xlink:href="#DejaVuSans-73" transform="translate(245.166016 0.015625)"/>
     <use xlink:href="#DejaVuSans-70" transform="translate(297.265625 0.015625)"/>
     <use xlink:href="#DejaVuSans-65" transform="translate(360.742188 0.015625)"/>
     <use xlink:href="#DejaVuSans-63" transform="translate(422.265625 0.015625)"/>
     <use xlink:href="#DejaVuSans-74" transform="translate(477.246094 0.015625)"/>
     <use xlink:href="#DejaVuSans-72" transform="translate(516.455078 0.015625)"/>
     <use xlink:href="#DejaVuSans-75" transform="translate(557.568359 0.015625)"/>
     <use xlink:href="#DejaVuSans-6d" transform="translate(620.947266 0.015625)"/>
     <use xlink:href="#DejaVuSans-20" transform="translate(718.359375 0.015625)"/>
     <use xlink:href="#DejaVuSans-6f" transform="translate(750.146484 0.015625)"/>
     <use xlink:href="#DejaVuSans-66" transform="translate(811.328125 0.015625)"/>
     <use xlink:href="#DejaVuSans-20" transform="translate(846.533203 0.015625)"/>
     <use xlink:href="#DejaVuSans-Oblique-6d" transform="translate(878.320312 0.015625)"/>
     <use xlink:href="#DejaVuSans-2f" transform="translate(975.732422 0.015625)"/>
     <use xlink:href="#DejaVuSans-Oblique-7a" transform="translate(1009.423828 0.015625)"/>
     <use xlink:href="#DejaVuSans-20" transform="translate(1061.914062 0.015625)"/>
     <use xlink:href="#DejaVuSans-33" transform="translate(1093.701172 0.015625)"/>
     <use xlink:href="#DejaVuSans-39" transform="translate(1157.324219 0.015625)"/>
     <use xlink:href="#DejaVuSans-34" transform="translate(1220.947266 0.015625)"/>
     <use xlink:href="#DejaVuSans-2e" transform="translate(1284.570312 0.015625)"/>
     <use xlink:href="#DejaVuSans-31" transform="translate(1316.357422 0.015625)"/>
     <use xlink:href="#DejaVuSans-38" transform="translate(1379.980469 0.015625)"/>
     <use xlink:href="#DejaVuSans-30" transform="translate(1443.603516 0.015625)"/>
     <use xlink:href="#DejaVuSans-35" transform="translate(1507.226562 0.015625)"/>
     <use xlink:href="#DejaVuSans-2c" transform="translate(1570.849609 0.015625)"/>
     <use xlink:href="#DejaVuSans-20" transform="translate(1602.636719 0.015625)"/>
     <use xlink:href="#DejaVuSans-73" transform="translate(1634.423828 0.015625)"/>
     <use xlink:href="#DejaVuSans-63" transform="translate(1686.523438 0.015625)"/>
     <use xlink:href="#DejaVuSans-61" transform="translate(1741.503906 0.015625)"/>
     <use xlink:href="#DejaVuSans-6e" transform="translate(1802.783203 0.015625)"/>
     <use xlink:href="#DejaVuSans-20" transform="translate(1866.162109 0.015625)"/>
     <use xlink:href="#DejaVuSans-74" transform="translate(1897.949219 0.015625)"/>
     <use xlink:href="#DejaVuSans-69" transform="translate(1937.158203 0.015625)"/>
     <use xlink:href="#DejaVuSans-6d" transform="translate(1964.941406 0.015625)"/>
     <use xlink:href="#DejaVuSans-65" transform="translate(2062.353516 0.015625)"/>
     <use xlink:href="#DejaVuSans-20" transform="translate(2123.876953 0.015625)"/>
     <use xlink:href="#DejaVuSans-31" transform="translate(2155.664062 0.015625)"/>
     <use xlink:href="#DejaVuSans-30" transform="translate(2219.287109 0.015625)"/>
     <use xlink:href="#DejaVuSans-2e" transform="translate(2282.910156 0.015625)"/>
     <use xlink:href="#DejaVuSans-31" transform="translate(2314.697266 0.015625)"/>
     <use xlink:href="#DejaVuSans-35" transform="translate(2378.320312 0.015625)"/>
     <use xlink:href="#DejaVuSans-20" transform="translate(2441.943359 0.015625)"/>
     <use xlink:href="#DejaVuSans-6d" transform="translate(2473.730469 0.015625)"/>
     <use xlink:href="#DejaVuSans-69" transform="translate(2571.142578 0.015625)"/>
     <use xlink:href="#DejaVuSans-6e" transform="translate(2598.925781 0.015625)"/>
     <use xlink:href="#DejaVuSans-2e" transform="translate(2662.304688 0.015625)"/>
    </g>
   </g>
  </g>
 </g>
 <defs>
  <clipPath id="p361f0fc51c">
   <rect x="57.6" y="41.472" width="357.12" height="266.112"/>
  </clipPath>
 </defs>
</svg>
