<?xml version="1.0" encoding="utf-8" standalone="no"?>
<!DOCTYPE svg PUBLIC "-//W3C//DTD SVG 1.1//EN"
  "http://www.w3.org/Graphics/SVG/1.1/DTD/svg11.dtd">
<svg xmlns:xlink="http://www.w3.org/1999/xlink" width="460.8pt" height="345.6pt" viewBox="0 0 460.8 345.6" xmlns="http://www.w3.org/2000/svg" version="1.1">
 <metadata>
  <rdf:RDF xmlns:dc="http://purl.org/dc/elements/1.1/" xmlns:cc="http://creativecommons.org/ns#" xmlns:rdf="http://www.w3.org/1999/02/22-rdf-syntax-ns#">
   <cc:Work>
    <dc:type rdf:resource="http://purl.org/dc/dcmitype/StillImage"/>
    <dc:date>2025-01-11T13:58:53.199504</dc:date>
    <dc:format>image/svg+xml</dc:format>
    <dc:creator>
     <cc:Agent>
      <dc:title>Matplotlib v3.7.3, https://matplotlib.org/</dc:title>
     </cc:Agent>
    </dc:creator>
   </cc:Work>
  </rdf:RDF>
 </metadata>
 <defs>
  <style type="text/css">*{stroke-linejoin: round; stroke-linecap: butt}</style>
 </defs>
 <g id="figure_1">
  <g id="patch_1">
   <path d="M 0 345.6 
L 460.8 345.6 
L 460.8 0 
L 0 0 
z
" style="fill: #ffffff"/>
  </g>
  <g id="axes_1">
   <g id="patch_2">
    <path d="M 57.6 307.584 
L 414.72 307.584 
L 414.72 41.472 
L 57.6 41.472 
z
" style="fill: #ffffff"/>
   </g>
   <g id="patch_3">
    <path d="M 73.832727 307.584 
L 74.673027 307.584 
L 74.673027 305.595056 
L 73.832727 305.595056 
z
" clip-path="url(#p630e933851)" style="fill: #1f77b4"/>
   </g>
   <g id="patch_4">
    <path d="M 75.108933 307.584 
L 75.949233 307.584 
L 75.949233 304.24259 
L 75.108933 304.24259 
z
" clip-path="url(#p630e933851)" style="fill: #1f77b4"/>
   </g>
   <g id="patch_5">
    <path d="M 76.129622 307.584 
L 76.969922 307.584 
L 76.969922 306.689647 
L 76.129622 306.689647 
z
" clip-path="url(#p630e933851)" style="fill: #1f77b4"/>
   </g>
   <g id="patch_6">
    <path d="M 76.142612 307.584 
L 76.982912 307.584 
L 76.982912 306.010343 
L 76.142612 306.010343 
z
" clip-path="url(#p630e933851)" style="fill: #1f77b4"/>
   </g>
   <g id="patch_7">
    <path d="M 76.385664 307.584 
L 77.225964 307.584 
L 77.225964 306.725728 
L 76.385664 306.725728 
z
" clip-path="url(#p630e933851)" style="fill: #1f77b4"/>
   </g>
   <g id="patch_8">
    <path d="M 78.259726 307.584 
L 79.100027 307.584 
L 79.100027 304.852648 
L 78.259726 304.852648 
z
" clip-path="url(#p630e933851)" style="fill: #1f77b4"/>
   </g>
   <g id="patch_9">
    <path d="M 78.910217 307.584 
L 79.750517 307.584 
L 79.750517 306.348235 
L 78.910217 306.348235 
z
" clip-path="url(#p630e933851)" style="fill: #1f77b4"/>
   </g>
   <g id="patch_10">
    <path d="M 81.521077 307.584 
L 82.361377 307.584 
L 82.361377 306.302311 
L 81.521077 306.302311 
z
" clip-path="url(#p630e933851)" style="fill: #1f77b4"/>
   </g>
   <g id="patch_11">
    <path d="M 84.550847 307.584 
L 85.391147 307.584 
L 85.391147 306.151287 
L 84.550847 306.151287 
z
" clip-path="url(#p630e933851)" style="fill: #1f77b4"/>
   </g>
   <g id="patch_12">
    <path d="M 86.629655 307.584 
L 87.469956 307.584 
L 87.469956 301.982736 
L 86.629655 301.982736 
z
" clip-path="url(#p630e933851)" style="fill: #1f77b4"/>
   </g>
   <g id="patch_13">
    <path d="M 87.71344 307.584 
L 88.55374 307.584 
L 88.55374 301.126237 
L 87.71344 301.126237 
z
" clip-path="url(#p630e933851)" style="fill: #1f77b4"/>
   </g>
   <g id="patch_14">
    <path d="M 88.308058 307.584 
L 89.148359 307.584 
L 89.148359 306.946866 
L 88.308058 306.946866 
z
" clip-path="url(#p630e933851)" style="fill: #1f77b4"/>
   </g>
   <g id="patch_15">
    <path d="M 93.271961 307.584 
L 94.112261 307.584 
L 94.112261 306.924889 
L 93.271961 306.924889 
z
" clip-path="url(#p630e933851)" style="fill: #1f77b4"/>
   </g>
   <g id="patch_16">
    <path d="M 94.715802 307.584 
L 95.556103 307.584 
L 95.556103 306.820552 
L 94.715802 306.820552 
z
" clip-path="url(#p630e933851)" style="fill: #1f77b4"/>
   </g>
   <g id="patch_17">
    <path d="M 95.060184 307.584 
L 95.900484 307.584 
L 95.900484 306.40544 
L 95.060184 306.40544 
z
" clip-path="url(#p630e933851)" style="fill: #1f77b4"/>
   </g>
   <g id="patch_18">
    <path d="M 95.542859 307.584 
L 96.383159 307.584 
L 96.383159 306.955332 
L 95.542859 306.955332 
z
" clip-path="url(#p630e933851)" style="fill: #1f77b4"/>
   </g>
   <g id="patch_19">
    <path d="M 97.154989 307.584 
L 97.995289 307.584 
L 97.995289 306.628171 
L 97.154989 306.628171 
z
" clip-path="url(#p630e933851)" style="fill: #1f77b4"/>
   </g>
   <g id="patch_20">
    <path d="M 98.300246 307.584 
L 99.140546 307.584 
L 99.140546 307.011266 
L 98.300246 307.011266 
z
" clip-path="url(#p630e933851)" style="fill: #1f77b4"/>
   </g>
   <g id="patch_21">
    <path d="M 101.428525 307.584 
L 102.268825 307.584 
L 102.268825 306.979804 
L 101.428525 306.979804 
z
" clip-path="url(#p630e933851)" style="fill: #1f77b4"/>
   </g>
   <g id="patch_22">
    <path d="M 103.611785 307.584 
L 104.452085 307.584 
L 104.452085 306.855517 
L 103.611785 306.855517 
z
" clip-path="url(#p630e933851)" style="fill: #1f77b4"/>
   </g>
   <g id="patch_23">
    <path d="M 104.513826 307.584 
L 105.354126 307.584 
L 105.354126 306.463745 
L 104.513826 306.463745 
z
" clip-path="url(#p630e933851)" style="fill: #1f77b4"/>
   </g>
   <g id="patch_24">
    <path d="M 105.547356 307.584 
L 106.387656 307.584 
L 106.387656 306.924318 
L 105.547356 306.924318 
z
" clip-path="url(#p630e933851)" style="fill: #1f77b4"/>
   </g>
   <g id="patch_25">
    <path d="M 109.759635 307.584 
L 110.599936 307.584 
L 110.599936 305.046217 
L 109.759635 305.046217 
z
" clip-path="url(#p630e933851)" style="fill: #1f77b4"/>
   </g>
   <g id="patch_26">
    <path d="M 111.876662 307.584 
L 112.716962 307.584 
L 112.716962 302.895694 
L 111.876662 302.895694 
z
" clip-path="url(#p630e933851)" style="fill: #1f77b4"/>
   </g>
   <g id="patch_27">
    <path d="M 112.882344 307.584 
L 113.722644 307.584 
L 113.722644 306.817019 
L 112.882344 306.817019 
z
" clip-path="url(#p630e933851)" style="fill: #1f77b4"/>
   </g>
   <g id="patch_28">
    <path d="M 112.921972 307.584 
L 113.762272 307.584 
L 113.762272 303.668401 
L 112.921972 303.668401 
z
" clip-path="url(#p630e933851)" style="fill: #1f77b4"/>
   </g>
   <g id="patch_29">
    <path d="M 117.118192 307.584 
L 117.958492 307.584 
L 117.958492 304.295057 
L 117.118192 304.295057 
z
" clip-path="url(#p630e933851)" style="fill: #1f77b4"/>
   </g>
   <g id="patch_30">
    <path d="M 119.235274 307.584 
L 120.075575 307.584 
L 120.075575 300.451559 
L 119.235274 300.451559 
z
" clip-path="url(#p630e933851)" style="fill: #1f77b4"/>
   </g>
   <g id="patch_31">
    <path d="M 120.269037 307.584 
L 121.109337 307.584 
L 121.109337 304.395355 
L 120.269037 304.395355 
z
" clip-path="url(#p630e933851)" style="fill: #1f77b4"/>
   </g>
   <g id="patch_32">
    <path d="M 121.352645 307.584 
L 122.192945 307.584 
L 122.192945 306.372164 
L 121.352645 306.372164 
z
" clip-path="url(#p630e933851)" style="fill: #1f77b4"/>
   </g>
   <g id="patch_33">
    <path d="M 123.431518 307.584 
L 124.271818 307.584 
L 124.271818 168.628509 
L 123.431518 168.628509 
z
" clip-path="url(#p630e933851)" style="fill: #1f77b4"/>
   </g>
   <g id="patch_34">
    <path d="M 124.48078 307.584 
L 125.32108 307.584 
L 125.32108 304.813459 
L 124.48078 304.813459 
z
" clip-path="url(#p630e933851)" style="fill: #1f77b4"/>
   </g>
   <g id="patch_35">
    <path d="M 124.486333 307.584 
L 125.326633 307.584 
L 125.326633 306.024656 
L 124.486333 306.024656 
z
" clip-path="url(#p630e933851)" style="fill: #1f77b4"/>
   </g>
   <g id="patch_36">
    <path d="M 125.501544 307.584 
L 126.341844 307.584 
L 126.341844 306.148756 
L 125.501544 306.148756 
z
" clip-path="url(#p630e933851)" style="fill: #1f77b4"/>
   </g>
   <g id="patch_37">
    <path d="M 125.526603 307.584 
L 126.366903 307.584 
L 126.366903 306.213553 
L 125.526603 306.213553 
z
" clip-path="url(#p630e933851)" style="fill: #1f77b4"/>
   </g>
   <g id="patch_38">
    <path d="M 129.722598 307.584 
L 130.562899 307.584 
L 130.562899 305.787287 
L 129.722598 305.787287 
z
" clip-path="url(#p630e933851)" style="fill: #1f77b4"/>
   </g>
   <g id="patch_39">
    <path d="M 131.839689 307.584 
L 132.679989 307.584 
L 132.679989 305.938736 
L 131.839689 305.938736 
z
" clip-path="url(#p630e933851)" style="fill: #1f77b4"/>
   </g>
   <g id="patch_40">
    <path d="M 133.918674 307.584 
L 134.758974 307.584 
L 134.758974 305.283351 
L 133.918674 305.283351 
z
" clip-path="url(#p630e933851)" style="fill: #1f77b4"/>
   </g>
   <g id="patch_41">
    <path d="M 134.952196 307.584 
L 135.792496 307.584 
L 135.792496 306.149395 
L 134.952196 306.149395 
z
" clip-path="url(#p630e933851)" style="fill: #1f77b4"/>
   </g>
   <g id="patch_42">
    <path d="M 134.977279 307.584 
L 135.817579 307.584 
L 135.817579 306.867254 
L 134.977279 306.867254 
z
" clip-path="url(#p630e933851)" style="fill: #1f77b4"/>
   </g>
   <g id="patch_43">
    <path d="M 136.013646 307.584 
L 136.853947 307.584 
L 136.853947 301.355362 
L 136.013646 301.355362 
z
" clip-path="url(#p630e933851)" style="fill: #1f77b4"/>
   </g>
   <g id="patch_44">
    <path d="M 137.085627 307.584 
L 137.925927 307.584 
L 137.925927 304.304491 
L 137.085627 304.304491 
z
" clip-path="url(#p630e933851)" style="fill: #1f77b4"/>
   </g>
   <g id="patch_45">
    <path d="M 138.130857 307.584 
L 138.971157 307.584 
L 138.971157 299.282207 
L 138.130857 299.282207 
z
" clip-path="url(#p630e933851)" style="fill: #1f77b4"/>
   </g>
   <g id="patch_46">
    <path d="M 139.189086 307.584 
L 140.029386 307.584 
L 140.029386 304.981582 
L 139.189086 304.981582 
z
" clip-path="url(#p630e933851)" style="fill: #1f77b4"/>
   </g>
   <g id="patch_47">
    <path d="M 140.247996 307.584 
L 141.088296 307.584 
L 141.088296 305.787395 
L 140.247996 305.787395 
z
" clip-path="url(#p630e933851)" style="fill: #1f77b4"/>
   </g>
   <g id="patch_48">
    <path d="M 142.326973 307.584 
L 143.167273 307.584 
L 143.167273 303.201143 
L 142.326973 303.201143 
z
" clip-path="url(#p630e933851)" style="fill: #1f77b4"/>
   </g>
   <g id="patch_49">
    <path d="M 146.523185 307.584 
L 147.363485 307.584 
L 147.363485 305.616593 
L 146.523185 305.616593 
z
" clip-path="url(#p630e933851)" style="fill: #1f77b4"/>
   </g>
   <g id="patch_50">
    <path d="M 148.618293 307.584 
L 149.458593 307.584 
L 149.458593 306.7586 
L 148.618293 306.7586 
z
" clip-path="url(#p630e933851)" style="fill: #1f77b4"/>
   </g>
   <g id="patch_51">
    <path d="M 148.640267 307.584 
L 149.480567 307.584 
L 149.480567 304.443161 
L 148.640267 304.443161 
z
" clip-path="url(#p630e933851)" style="fill: #1f77b4"/>
   </g>
   <g id="patch_52">
    <path d="M 150.735231 307.584 
L 151.575532 307.584 
L 151.575532 297.496927 
L 150.735231 297.496927 
z
" clip-path="url(#p630e933851)" style="fill: #1f77b4"/>
   </g>
   <g id="patch_53">
    <path d="M 150.748214 307.584 
L 151.588514 307.584 
L 151.588514 305.959219 
L 150.748214 305.959219 
z
" clip-path="url(#p630e933851)" style="fill: #1f77b4"/>
   </g>
   <g id="patch_54">
    <path d="M 150.756949 307.584 
L 151.597249 307.584 
L 151.597249 303.147621 
L 150.756949 303.147621 
z
" clip-path="url(#p630e933851)" style="fill: #1f77b4"/>
   </g>
   <g id="patch_55">
    <path d="M 151.793717 307.584 
L 152.634017 307.584 
L 152.634017 304.887909 
L 151.793717 304.887909 
z
" clip-path="url(#p630e933851)" style="fill: #1f77b4"/>
   </g>
   <g id="patch_56">
    <path d="M 151.806875 307.584 
L 152.647175 307.584 
L 152.647175 305.208094 
L 151.806875 305.208094 
z
" clip-path="url(#p630e933851)" style="fill: #1f77b4"/>
   </g>
   <g id="patch_57">
    <path d="M 152.814313 307.584 
L 153.654613 307.584 
L 153.654613 305.115406 
L 152.814313 305.115406 
z
" clip-path="url(#p630e933851)" style="fill: #1f77b4"/>
   </g>
   <g id="patch_58">
    <path d="M 152.836254 307.584 
L 153.676555 307.584 
L 153.676555 305.982524 
L 152.836254 305.982524 
z
" clip-path="url(#p630e933851)" style="fill: #1f77b4"/>
   </g>
   <g id="patch_59">
    <path d="M 152.85233 307.584 
L 153.69263 307.584 
L 153.69263 272.603555 
L 152.85233 272.603555 
z
" clip-path="url(#p630e933851)" style="fill: #1f77b4"/>
   </g>
   <g id="patch_60">
    <path d="M 152.862764 307.584 
L 153.703064 307.584 
L 153.703064 306.022076 
L 152.862764 306.022076 
z
" clip-path="url(#p630e933851)" style="fill: #1f77b4"/>
   </g>
   <g id="patch_61">
    <path d="M 153.8715 307.584 
L 154.7118 307.584 
L 154.7118 306.892787 
L 153.8715 306.892787 
z
" clip-path="url(#p630e933851)" style="fill: #1f77b4"/>
   </g>
   <g id="patch_62">
    <path d="M 153.885748 307.584 
L 154.726048 307.584 
L 154.726048 306.695876 
L 153.885748 306.695876 
z
" clip-path="url(#p630e933851)" style="fill: #1f77b4"/>
   </g>
   <g id="patch_63">
    <path d="M 153.909709 307.584 
L 154.750009 307.584 
L 154.750009 306.608531 
L 153.909709 306.608531 
z
" clip-path="url(#p630e933851)" style="fill: #1f77b4"/>
   </g>
   <g id="patch_64">
    <path d="M 154.931331 307.584 
L 155.771631 307.584 
L 155.771631 298.266435 
L 154.931331 298.266435 
z
" clip-path="url(#p630e933851)" style="fill: #1f77b4"/>
   </g>
   <g id="patch_65">
    <path d="M 154.970021 307.584 
L 155.810321 307.584 
L 155.810321 306.680792 
L 154.970021 306.680792 
z
" clip-path="url(#p630e933851)" style="fill: #1f77b4"/>
   </g>
   <g id="patch_66">
    <path d="M 155.988983 307.584 
L 156.829283 307.584 
L 156.829283 306.589498 
L 155.988983 306.589498 
z
" clip-path="url(#p630e933851)" style="fill: #1f77b4"/>
   </g>
   <g id="patch_67">
    <path d="M 157.010492 307.584 
L 157.850793 307.584 
L 157.850793 306.82606 
L 157.010492 306.82606 
z
" clip-path="url(#p630e933851)" style="fill: #1f77b4"/>
   </g>
   <g id="patch_68">
    <path d="M 157.048638 307.584 
L 157.888938 307.584 
L 157.888938 306.320546 
L 157.048638 306.320546 
z
" clip-path="url(#p630e933851)" style="fill: #1f77b4"/>
   </g>
   <g id="patch_69">
    <path d="M 158.069154 307.584 
L 158.909454 307.584 
L 158.909454 305.795758 
L 158.069154 305.795758 
z
" clip-path="url(#p630e933851)" style="fill: #1f77b4"/>
   </g>
   <g id="patch_70">
    <path d="M 159.127367 307.584 
L 159.967667 307.584 
L 159.967667 292.888779 
L 159.127367 292.888779 
z
" clip-path="url(#p630e933851)" style="fill: #1f77b4"/>
   </g>
   <g id="patch_71">
    <path d="M 163.339462 307.584 
L 164.179762 307.584 
L 164.179762 288.564341 
L 163.339462 288.564341 
z
" clip-path="url(#p630e933851)" style="fill: #1f77b4"/>
   </g>
   <g id="patch_72">
    <path d="M 163.361788 307.584 
L 164.202088 307.584 
L 164.202088 304.660254 
L 163.361788 304.660254 
z
" clip-path="url(#p630e933851)" style="fill: #1f77b4"/>
   </g>
   <g id="patch_73">
    <path d="M 164.398139 307.584 
L 165.238439 307.584 
L 165.238439 304.560696 
L 164.398139 304.560696 
z
" clip-path="url(#p630e933851)" style="fill: #1f77b4"/>
   </g>
   <g id="patch_74">
    <path d="M 165.418302 307.584 
L 166.258603 307.584 
L 166.258603 306.470868 
L 165.418302 306.470868 
z
" clip-path="url(#p630e933851)" style="fill: #1f77b4"/>
   </g>
   <g id="patch_75">
    <path d="M 165.444107 307.584 
L 166.284407 307.584 
L 166.284407 306.519196 
L 165.444107 306.519196 
z
" clip-path="url(#p630e933851)" style="fill: #1f77b4"/>
   </g>
   <g id="patch_76">
    <path d="M 165.456704 307.584 
L 166.297004 307.584 
L 166.297004 296.753817 
L 165.456704 296.753817 
z
" clip-path="url(#p630e933851)" style="fill: #1f77b4"/>
   </g>
   <g id="patch_77">
    <path d="M 166.47706 307.584 
L 167.31736 307.584 
L 167.31736 299.736628 
L 166.47706 299.736628 
z
" clip-path="url(#p630e933851)" style="fill: #1f77b4"/>
   </g>
   <g id="patch_78">
    <path d="M 166.502415 307.584 
L 167.342716 307.584 
L 167.342716 306.477725 
L 166.502415 306.477725 
z
" clip-path="url(#p630e933851)" style="fill: #1f77b4"/>
   </g>
   <g id="patch_79">
    <path d="M 166.515382 307.584 
L 167.355682 307.584 
L 167.355682 305.893462 
L 166.515382 305.893462 
z
" clip-path="url(#p630e933851)" style="fill: #1f77b4"/>
   </g>
   <g id="patch_80">
    <path d="M 167.53585 307.584 
L 168.37615 307.584 
L 168.37615 298.021142 
L 167.53585 298.021142 
z
" clip-path="url(#p630e933851)" style="fill: #1f77b4"/>
   </g>
   <g id="patch_81">
    <path d="M 167.557855 307.584 
L 168.398155 307.584 
L 168.398155 305.129098 
L 167.557855 305.129098 
z
" clip-path="url(#p630e933851)" style="fill: #1f77b4"/>
   </g>
   <g id="patch_82">
    <path d="M 167.573722 307.584 
L 168.414023 307.584 
L 168.414023 304.883477 
L 167.573722 304.883477 
z
" clip-path="url(#p630e933851)" style="fill: #1f77b4"/>
   </g>
   <g id="patch_83">
    <path d="M 168.592748 307.584 
L 169.433048 307.584 
L 169.433048 306.800031 
L 168.592748 306.800031 
z
" clip-path="url(#p630e933851)" style="fill: #1f77b4"/>
   </g>
   <g id="patch_84">
    <path d="M 169.640527 307.584 
L 170.480827 307.584 
L 170.480827 306.756642 
L 169.640527 306.756642 
z
" clip-path="url(#p630e933851)" style="fill: #1f77b4"/>
   </g>
   <g id="patch_85">
    <path d="M 169.652868 307.584 
L 170.493168 307.584 
L 170.493168 288.792806 
L 169.652868 288.792806 
z
" clip-path="url(#p630e933851)" style="fill: #1f77b4"/>
   </g>
   <g id="patch_86">
    <path d="M 169.663158 307.584 
L 170.503458 307.584 
L 170.503458 307.091931 
L 169.663158 307.091931 
z
" clip-path="url(#p630e933851)" style="fill: #1f77b4"/>
   </g>
   <g id="patch_87">
    <path d="M 171.731773 307.584 
L 172.572073 307.584 
L 172.572073 305.919883 
L 171.731773 305.919883 
z
" clip-path="url(#p630e933851)" style="fill: #1f77b4"/>
   </g>
   <g id="patch_88">
    <path d="M 173.84908 307.584 
L 174.68938 307.584 
L 174.68938 299.515058 
L 173.84908 299.515058 
z
" clip-path="url(#p630e933851)" style="fill: #1f77b4"/>
   </g>
   <g id="patch_89">
    <path d="M 175.944044 307.584 
L 176.784344 307.584 
L 176.784344 303.360338 
L 175.944044 303.360338 
z
" clip-path="url(#p630e933851)" style="fill: #1f77b4"/>
   </g>
   <g id="patch_90">
    <path d="M 178.022981 307.584 
L 178.863281 307.584 
L 178.863281 304.591385 
L 178.022981 304.591385 
z
" clip-path="url(#p630e933851)" style="fill: #1f77b4"/>
   </g>
   <g id="patch_91">
    <path d="M 178.047087 307.584 
L 178.887387 307.584 
L 178.887387 306.714276 
L 178.047087 306.714276 
z
" clip-path="url(#p630e933851)" style="fill: #1f77b4"/>
   </g>
   <g id="patch_92">
    <path d="M 178.060662 307.584 
L 178.900962 307.584 
L 178.900962 303.691601 
L 178.060662 303.691601 
z
" clip-path="url(#p630e933851)" style="fill: #1f77b4"/>
   </g>
   <g id="patch_93">
    <path d="M 179.106678 307.584 
L 179.946978 307.584 
L 179.946978 305.208385 
L 179.106678 305.208385 
z
" clip-path="url(#p630e933851)" style="fill: #1f77b4"/>
   </g>
   <g id="patch_94">
    <path d="M 180.14016 307.584 
L 180.98046 307.584 
L 180.98046 288.400215 
L 180.14016 288.400215 
z
" clip-path="url(#p630e933851)" style="fill: #1f77b4"/>
   </g>
   <g id="patch_95">
    <path d="M 180.16255 307.584 
L 181.00285 307.584 
L 181.00285 301.175967 
L 180.16255 301.175967 
z
" clip-path="url(#p630e933851)" style="fill: #1f77b4"/>
   </g>
   <g id="patch_96">
    <path d="M 180.177568 307.584 
L 181.017868 307.584 
L 181.017868 306.157835 
L 180.177568 306.157835 
z
" clip-path="url(#p630e933851)" style="fill: #1f77b4"/>
   </g>
   <g id="patch_97">
    <path d="M 181.198725 307.584 
L 182.039025 307.584 
L 182.039025 299.757885 
L 181.198725 299.757885 
z
" clip-path="url(#p630e933851)" style="fill: #1f77b4"/>
   </g>
   <g id="patch_98">
    <path d="M 181.223055 307.584 
L 182.063355 307.584 
L 182.063355 305.852593 
L 181.223055 305.852593 
z
" clip-path="url(#p630e933851)" style="fill: #1f77b4"/>
   </g>
   <g id="patch_99">
    <path d="M 182.25721 307.584 
L 183.09751 307.584 
L 183.09751 287.432495 
L 182.25721 287.432495 
z
" clip-path="url(#p630e933851)" style="fill: #1f77b4"/>
   </g>
   <g id="patch_100">
    <path d="M 183.278031 307.584 
L 184.118331 307.584 
L 184.118331 304.722055 
L 183.278031 304.722055 
z
" clip-path="url(#p630e933851)" style="fill: #1f77b4"/>
   </g>
   <g id="patch_101">
    <path d="M 183.302248 307.584 
L 184.142548 307.584 
L 184.142548 305.869804 
L 183.302248 305.869804 
z
" clip-path="url(#p630e933851)" style="fill: #1f77b4"/>
   </g>
   <g id="patch_102">
    <path d="M 183.315102 307.584 
L 184.155402 307.584 
L 184.155402 305.527636 
L 183.315102 305.527636 
z
" clip-path="url(#p630e933851)" style="fill: #1f77b4"/>
   </g>
   <g id="patch_103">
    <path d="M 184.336211 307.584 
L 185.176512 307.584 
L 185.176512 294.501109 
L 184.336211 294.501109 
z
" clip-path="url(#p630e933851)" style="fill: #1f77b4"/>
   </g>
   <g id="patch_104">
    <path d="M 184.374597 307.584 
L 185.214897 307.584 
L 185.214897 304.508124 
L 184.374597 304.508124 
z
" clip-path="url(#p630e933851)" style="fill: #1f77b4"/>
   </g>
   <g id="patch_105">
    <path d="M 186.453598 307.584 
L 187.293898 307.584 
L 187.293898 304.379059 
L 186.453598 304.379059 
z
" clip-path="url(#p630e933851)" style="fill: #1f77b4"/>
   </g>
   <g id="patch_106">
    <path d="M 191.709609 307.584 
L 192.54991 307.584 
L 192.54991 306.550424 
L 191.709609 306.550424 
z
" clip-path="url(#p630e933851)" style="fill: #1f77b4"/>
   </g>
   <g id="patch_107">
    <path d="M 192.744422 307.584 
L 193.584722 307.584 
L 193.584722 296.248828 
L 192.744422 296.248828 
z
" clip-path="url(#p630e933851)" style="fill: #1f77b4"/>
   </g>
   <g id="patch_108">
    <path d="M 192.767213 307.584 
L 193.607513 307.584 
L 193.607513 302.779986 
L 192.767213 302.779986 
z
" clip-path="url(#p630e933851)" style="fill: #1f77b4"/>
   </g>
   <g id="patch_109">
    <path d="M 192.782279 307.584 
L 193.622579 307.584 
L 193.622579 306.133232 
L 192.782279 306.133232 
z
" clip-path="url(#p630e933851)" style="fill: #1f77b4"/>
   </g>
   <g id="patch_110">
    <path d="M 193.803324 307.584 
L 194.643624 307.584 
L 194.643624 306.246837 
L 193.803324 306.246837 
z
" clip-path="url(#p630e933851)" style="fill: #1f77b4"/>
   </g>
   <g id="patch_111">
    <path d="M 193.82815 307.584 
L 194.668451 307.584 
L 194.668451 304.311569 
L 193.82815 304.311569 
z
" clip-path="url(#p630e933851)" style="fill: #1f77b4"/>
   </g>
   <g id="patch_112">
    <path d="M 193.841758 307.584 
L 194.682058 307.584 
L 194.682058 306.676226 
L 193.841758 306.676226 
z
" clip-path="url(#p630e933851)" style="fill: #1f77b4"/>
   </g>
   <g id="patch_113">
    <path d="M 194.823455 307.584 
L 195.663755 307.584 
L 195.663755 297.064643 
L 194.823455 297.064643 
z
" clip-path="url(#p630e933851)" style="fill: #1f77b4"/>
   </g>
   <g id="patch_114">
    <path d="M 194.86152 307.584 
L 195.701821 307.584 
L 195.701821 303.479116 
L 194.86152 303.479116 
z
" clip-path="url(#p630e933851)" style="fill: #1f77b4"/>
   </g>
   <g id="patch_115">
    <path d="M 194.884071 307.584 
L 195.724371 307.584 
L 195.724371 302.236401 
L 194.884071 302.236401 
z
" clip-path="url(#p630e933851)" style="fill: #1f77b4"/>
   </g>
   <g id="patch_116">
    <path d="M 195.880883 307.584 
L 196.721183 307.584 
L 196.721183 305.570272 
L 195.880883 305.570272 
z
" clip-path="url(#p630e933851)" style="fill: #1f77b4"/>
   </g>
   <g id="patch_117">
    <path d="M 195.945024 307.584 
L 196.785325 307.584 
L 196.785325 306.120757 
L 195.945024 306.120757 
z
" clip-path="url(#p630e933851)" style="fill: #1f77b4"/>
   </g>
   <g id="patch_118">
    <path d="M 196.94081 307.584 
L 197.78111 307.584 
L 197.78111 298.754116 
L 196.94081 298.754116 
z
" clip-path="url(#p630e933851)" style="fill: #1f77b4"/>
   </g>
   <g id="patch_119">
    <path d="M 196.964979 307.584 
L 197.80528 307.584 
L 197.80528 305.90015 
L 196.964979 305.90015 
z
" clip-path="url(#p630e933851)" style="fill: #1f77b4"/>
   </g>
   <g id="patch_120">
    <path d="M 196.9791 307.584 
L 197.8194 307.584 
L 197.8194 306.039604 
L 196.9791 306.039604 
z
" clip-path="url(#p630e933851)" style="fill: #1f77b4"/>
   </g>
   <g id="patch_121">
    <path d="M 197.999055 307.584 
L 198.839355 307.584 
L 198.839355 306.281807 
L 197.999055 306.281807 
z
" clip-path="url(#p630e933851)" style="fill: #1f77b4"/>
   </g>
   <g id="patch_122">
    <path d="M 198.024635 307.584 
L 198.864935 307.584 
L 198.864935 306.731794 
L 198.024635 306.731794 
z
" clip-path="url(#p630e933851)" style="fill: #1f77b4"/>
   </g>
   <g id="patch_123">
    <path d="M 199.058293 307.584 
L 199.898593 307.584 
L 199.898593 304.098244 
L 199.058293 304.098244 
z
" clip-path="url(#p630e933851)" style="fill: #1f77b4"/>
   </g>
   <g id="patch_124">
    <path d="M 200.116538 307.584 
L 200.956838 307.584 
L 200.956838 306.38595 
L 200.116538 306.38595 
z
" clip-path="url(#p630e933851)" style="fill: #1f77b4"/>
   </g>
   <g id="patch_125">
    <path d="M 201.175023 307.584 
L 202.015323 307.584 
L 202.015323 305.649084 
L 201.175023 305.649084 
z
" clip-path="url(#p630e933851)" style="fill: #1f77b4"/>
   </g>
   <g id="patch_126">
    <path d="M 202.197126 307.584 
L 203.037426 307.584 
L 203.037426 306.767489 
L 202.197126 306.767489 
z
" clip-path="url(#p630e933851)" style="fill: #1f77b4"/>
   </g>
   <g id="patch_127">
    <path d="M 202.219628 307.584 
L 203.059928 307.584 
L 203.059928 306.402232 
L 202.219628 306.402232 
z
" clip-path="url(#p630e933851)" style="fill: #1f77b4"/>
   </g>
   <g id="patch_128">
    <path d="M 203.253928 307.584 
L 204.094228 307.584 
L 204.094228 304.805029 
L 203.253928 304.805029 
z
" clip-path="url(#p630e933851)" style="fill: #1f77b4"/>
   </g>
   <g id="patch_129">
    <path d="M 206.433038 307.584 
L 207.273338 307.584 
L 207.273338 303.126943 
L 206.433038 303.126943 
z
" clip-path="url(#p630e933851)" style="fill: #1f77b4"/>
   </g>
   <g id="patch_130">
    <path d="M 207.49117 307.584 
L 208.33147 307.584 
L 208.33147 299.016927 
L 207.49117 299.016927 
z
" clip-path="url(#p630e933851)" style="fill: #1f77b4"/>
   </g>
   <g id="patch_131">
    <path d="M 208.512055 307.584 
L 209.352355 307.584 
L 209.352355 305.956501 
L 208.512055 305.956501 
z
" clip-path="url(#p630e933851)" style="fill: #1f77b4"/>
   </g>
   <g id="patch_132">
    <path d="M 208.549928 307.584 
L 209.390228 307.584 
L 209.390228 273.560509 
L 208.549928 273.560509 
z
" clip-path="url(#p630e933851)" style="fill: #1f77b4"/>
   </g>
   <g id="patch_133">
    <path d="M 209.544527 307.584 
L 210.384827 307.584 
L 210.384827 302.978652 
L 209.544527 302.978652 
z
" clip-path="url(#p630e933851)" style="fill: #1f77b4"/>
   </g>
   <g id="patch_134">
    <path d="M 209.569931 307.584 
L 210.410231 307.584 
L 210.410231 304.866431 
L 209.569931 304.866431 
z
" clip-path="url(#p630e933851)" style="fill: #1f77b4"/>
   </g>
   <g id="patch_135">
    <path d="M 209.585269 307.584 
L 210.425569 307.584 
L 210.425569 306.424054 
L 209.585269 306.424054 
z
" clip-path="url(#p630e933851)" style="fill: #1f77b4"/>
   </g>
   <g id="patch_136">
    <path d="M 209.605656 307.584 
L 210.445956 307.584 
L 210.445956 304.888163 
L 209.605656 304.888163 
z
" clip-path="url(#p630e933851)" style="fill: #1f77b4"/>
   </g>
   <g id="patch_137">
    <path d="M 210.603477 307.584 
L 211.443777 307.584 
L 211.443777 303.950482 
L 210.603477 303.950482 
z
" clip-path="url(#p630e933851)" style="fill: #1f77b4"/>
   </g>
   <g id="patch_138">
    <path d="M 210.628865 307.584 
L 211.469165 307.584 
L 211.469165 303.920522 
L 210.628865 303.920522 
z
" clip-path="url(#p630e933851)" style="fill: #1f77b4"/>
   </g>
   <g id="patch_139">
    <path d="M 211.662331 307.584 
L 212.502631 307.584 
L 212.502631 287.068384 
L 211.662331 287.068384 
z
" clip-path="url(#p630e933851)" style="fill: #1f77b4"/>
   </g>
   <g id="patch_140">
    <path d="M 212.717354 307.584 
L 213.557654 307.584 
L 213.557654 306.036328 
L 212.717354 306.036328 
z
" clip-path="url(#p630e933851)" style="fill: #1f77b4"/>
   </g>
   <g id="patch_141">
    <path d="M 213.741396 307.584 
L 214.581696 307.584 
L 214.581696 297.07009 
L 213.741396 297.07009 
z
" clip-path="url(#p630e933851)" style="fill: #1f77b4"/>
   </g>
   <g id="patch_142">
    <path d="M 213.778997 307.584 
L 214.619297 307.584 
L 214.619297 303.634816 
L 213.778997 303.634816 
z
" clip-path="url(#p630e933851)" style="fill: #1f77b4"/>
   </g>
   <g id="patch_143">
    <path d="M 217.975753 307.584 
L 218.816054 307.584 
L 218.816054 301.602238 
L 217.975753 301.602238 
z
" clip-path="url(#p630e933851)" style="fill: #1f77b4"/>
   </g>
   <g id="patch_144">
    <path d="M 221.116461 307.584 
L 221.956761 307.584 
L 221.956761 299.525696 
L 221.116461 299.525696 
z
" clip-path="url(#p630e933851)" style="fill: #1f77b4"/>
   </g>
   <g id="patch_145">
    <path d="M 221.134444 307.584 
L 221.974744 307.584 
L 221.974744 306.382844 
L 221.134444 306.382844 
z
" clip-path="url(#p630e933851)" style="fill: #1f77b4"/>
   </g>
   <g id="patch_146">
    <path d="M 222.149927 307.584 
L 222.990228 307.584 
L 222.990228 292.312288 
L 222.149927 292.312288 
z
" clip-path="url(#p630e933851)" style="fill: #1f77b4"/>
   </g>
   <g id="patch_147">
    <path d="M 222.172109 307.584 
L 223.01241 307.584 
L 223.01241 295.912646 
L 222.172109 295.912646 
z
" clip-path="url(#p630e933851)" style="fill: #1f77b4"/>
   </g>
   <g id="patch_148">
    <path d="M 222.188489 307.584 
L 223.02879 307.584 
L 223.02879 306.595115 
L 222.188489 306.595115 
z
" clip-path="url(#p630e933851)" style="fill: #1f77b4"/>
   </g>
   <g id="patch_149">
    <path d="M 223.203668 307.584 
L 224.043969 307.584 
L 224.043969 306.705094 
L 223.203668 306.705094 
z
" clip-path="url(#p630e933851)" style="fill: #1f77b4"/>
   </g>
   <g id="patch_150">
    <path d="M 223.232582 307.584 
L 224.072882 307.584 
L 224.072882 304.604316 
L 223.232582 304.604316 
z
" clip-path="url(#p630e933851)" style="fill: #1f77b4"/>
   </g>
   <g id="patch_151">
    <path d="M 223.247391 307.584 
L 224.087691 307.584 
L 224.087691 304.940291 
L 223.247391 304.940291 
z
" clip-path="url(#p630e933851)" style="fill: #1f77b4"/>
   </g>
   <g id="patch_152">
    <path d="M 223.271801 307.584 
L 224.112101 307.584 
L 224.112101 305.288177 
L 223.271801 305.288177 
z
" clip-path="url(#p630e933851)" style="fill: #1f77b4"/>
   </g>
   <g id="patch_153">
    <path d="M 224.228672 307.584 
L 225.068972 307.584 
L 225.068972 290.301727 
L 224.228672 290.301727 
z
" clip-path="url(#p630e933851)" style="fill: #1f77b4"/>
   </g>
   <g id="patch_154">
    <path d="M 224.291179 307.584 
L 225.131479 307.584 
L 225.131479 305.425831 
L 224.291179 305.425831 
z
" clip-path="url(#p630e933851)" style="fill: #1f77b4"/>
   </g>
   <g id="patch_155">
    <path d="M 224.307335 307.584 
L 225.147635 307.584 
L 225.147635 306.208626 
L 224.307335 306.208626 
z
" clip-path="url(#p630e933851)" style="fill: #1f77b4"/>
   </g>
   <g id="patch_156">
    <path d="M 225.283439 307.584 
L 226.123739 307.584 
L 226.123739 306.458934 
L 225.283439 306.458934 
z
" clip-path="url(#p630e933851)" style="fill: #1f77b4"/>
   </g>
   <g id="patch_157">
    <path d="M 225.35037 307.584 
L 226.19067 307.584 
L 226.19067 293.918019 
L 225.35037 293.918019 
z
" clip-path="url(#p630e933851)" style="fill: #1f77b4"/>
   </g>
   <g id="patch_158">
    <path d="M 226.367424 307.584 
L 227.207724 307.584 
L 227.207724 302.713465 
L 226.367424 302.713465 
z
" clip-path="url(#p630e933851)" style="fill: #1f77b4"/>
   </g>
   <g id="patch_159">
    <path d="M 226.384878 307.584 
L 227.225178 307.584 
L 227.225178 303.347875 
L 226.384878 303.347875 
z
" clip-path="url(#p630e933851)" style="fill: #1f77b4"/>
   </g>
   <g id="patch_160">
    <path d="M 226.408069 307.584 
L 227.248369 307.584 
L 227.248369 305.003247 
L 226.408069 305.003247 
z
" clip-path="url(#p630e933851)" style="fill: #1f77b4"/>
   </g>
   <g id="patch_161">
    <path d="M 227.404801 307.584 
L 228.245101 307.584 
L 228.245101 304.963076 
L 227.404801 304.963076 
z
" clip-path="url(#p630e933851)" style="fill: #1f77b4"/>
   </g>
   <g id="patch_162">
    <path d="M 227.428297 307.584 
L 228.268597 307.584 
L 228.268597 306.296478 
L 227.428297 306.296478 
z
" clip-path="url(#p630e933851)" style="fill: #1f77b4"/>
   </g>
   <g id="patch_163">
    <path d="M 228.4462 307.584 
L 229.286501 307.584 
L 229.286501 306.870657 
L 228.4462 306.870657 
z
" clip-path="url(#p630e933851)" style="fill: #1f77b4"/>
   </g>
   <g id="patch_164">
    <path d="M 228.462981 307.584 
L 229.303281 307.584 
L 229.303281 267.218643 
L 228.462981 267.218643 
z
" clip-path="url(#p630e933851)" style="fill: #1f77b4"/>
   </g>
   <g id="patch_165">
    <path d="M 229.517315 307.584 
L 230.357615 307.584 
L 230.357615 303.492364 
L 229.517315 303.492364 
z
" clip-path="url(#p630e933851)" style="fill: #1f77b4"/>
   </g>
   <g id="patch_166">
    <path d="M 230.580673 307.584 
L 231.420973 307.584 
L 231.420973 305.416278 
L 230.580673 305.416278 
z
" clip-path="url(#p630e933851)" style="fill: #1f77b4"/>
   </g>
   <g id="patch_167">
    <path d="M 235.836684 307.584 
L 236.676984 307.584 
L 236.676984 299.004717 
L 235.836684 299.004717 
z
" clip-path="url(#p630e933851)" style="fill: #1f77b4"/>
   </g>
   <g id="patch_168">
    <path d="M 236.873997 307.584 
L 237.714297 307.584 
L 237.714297 306.081698 
L 236.873997 306.081698 
z
" clip-path="url(#p630e933851)" style="fill: #1f77b4"/>
   </g>
   <g id="patch_169">
    <path d="M 236.89597 307.584 
L 237.73627 307.584 
L 237.73627 294.081483 
L 236.89597 294.081483 
z
" clip-path="url(#p630e933851)" style="fill: #1f77b4"/>
   </g>
   <g id="patch_170">
    <path d="M 237.913505 307.584 
L 238.753805 307.584 
L 238.753805 306.864515 
L 237.913505 306.864515 
z
" clip-path="url(#p630e933851)" style="fill: #1f77b4"/>
   </g>
   <g id="patch_171">
    <path d="M 237.920189 307.584 
L 238.760489 307.584 
L 238.760489 306.000394 
L 237.920189 306.000394 
z
" clip-path="url(#p630e933851)" style="fill: #1f77b4"/>
   </g>
   <g id="patch_172">
    <path d="M 237.955048 307.584 
L 238.795349 307.584 
L 238.795349 97.408898 
L 237.955048 97.408898 
z
" clip-path="url(#p630e933851)" style="fill: #1f77b4"/>
   </g>
   <g id="patch_173">
    <path d="M 238.951091 307.584 
L 239.791391 307.584 
L 239.791391 306.554463 
L 238.951091 306.554463 
z
" clip-path="url(#p630e933851)" style="fill: #1f77b4"/>
   </g>
   <g id="patch_174">
    <path d="M 238.974811 307.584 
L 239.815111 307.584 
L 239.815111 303.729167 
L 238.974811 303.729167 
z
" clip-path="url(#p630e933851)" style="fill: #1f77b4"/>
   </g>
   <g id="patch_175">
    <path d="M 239.011851 307.584 
L 239.852151 307.584 
L 239.852151 262.703306 
L 239.011851 262.703306 
z
" clip-path="url(#p630e933851)" style="fill: #1f77b4"/>
   </g>
   <g id="patch_176">
    <path d="M 240.034178 307.584 
L 240.874478 307.584 
L 240.874478 305.945156 
L 240.034178 305.945156 
z
" clip-path="url(#p630e933851)" style="fill: #1f77b4"/>
   </g>
   <g id="patch_177">
    <path d="M 240.069663 307.584 
L 240.909963 307.584 
L 240.909963 302.914002 
L 240.069663 302.914002 
z
" clip-path="url(#p630e933851)" style="fill: #1f77b4"/>
   </g>
   <g id="patch_178">
    <path d="M 241.06758 307.584 
L 241.90788 307.584 
L 241.90788 305.628664 
L 241.06758 305.628664 
z
" clip-path="url(#p630e933851)" style="fill: #1f77b4"/>
   </g>
   <g id="patch_179">
    <path d="M 241.089842 307.584 
L 241.930142 307.584 
L 241.930142 299.483555 
L 241.089842 299.483555 
z
" clip-path="url(#p630e933851)" style="fill: #1f77b4"/>
   </g>
   <g id="patch_180">
    <path d="M 241.10619 307.584 
L 241.94649 307.584 
L 241.94649 306.756156 
L 241.10619 306.756156 
z
" clip-path="url(#p630e933851)" style="fill: #1f77b4"/>
   </g>
   <g id="patch_181">
    <path d="M 242.1511 307.584 
L 242.9914 307.584 
L 242.9914 304.737657 
L 242.1511 304.737657 
z
" clip-path="url(#p630e933851)" style="fill: #1f77b4"/>
   </g>
   <g id="patch_182">
    <path d="M 243.147126 307.584 
L 243.987426 307.584 
L 243.987426 295.819793 
L 243.147126 295.819793 
z
" clip-path="url(#p630e933851)" style="fill: #1f77b4"/>
   </g>
   <g id="patch_183">
    <path d="M 243.184662 307.584 
L 244.024962 307.584 
L 244.024962 298.404274 
L 243.184662 298.404274 
z
" clip-path="url(#p630e933851)" style="fill: #1f77b4"/>
   </g>
   <g id="patch_184">
    <path d="M 244.238612 307.584 
L 245.078912 307.584 
L 245.078912 306.590616 
L 244.238612 306.590616 
z
" clip-path="url(#p630e933851)" style="fill: #1f77b4"/>
   </g>
   <g id="patch_185">
    <path d="M 244.268246 307.584 
L 245.108547 307.584 
L 245.108547 306.710859 
L 244.268246 306.710859 
z
" clip-path="url(#p630e933851)" style="fill: #1f77b4"/>
   </g>
   <g id="patch_186">
    <path d="M 245.263824 307.584 
L 246.104124 307.584 
L 246.104124 304.525377 
L 245.263824 304.525377 
z
" clip-path="url(#p630e933851)" style="fill: #1f77b4"/>
   </g>
   <g id="patch_187">
    <path d="M 247.38105 307.584 
L 248.221351 307.584 
L 248.221351 304.406661 
L 247.38105 304.406661 
z
" clip-path="url(#p630e933851)" style="fill: #1f77b4"/>
   </g>
   <g id="patch_188">
    <path d="M 251.594203 307.584 
L 252.434503 307.584 
L 252.434503 306.333339 
L 251.594203 306.333339 
z
" clip-path="url(#p630e933851)" style="fill: #1f77b4"/>
   </g>
   <g id="patch_189">
    <path d="M 252.638248 307.584 
L 253.478548 307.584 
L 253.478548 291.753098 
L 252.638248 291.753098 
z
" clip-path="url(#p630e933851)" style="fill: #1f77b4"/>
   </g>
   <g id="patch_190">
    <path d="M 252.654564 307.584 
L 253.494864 307.584 
L 253.494864 301.412107 
L 252.654564 301.412107 
z
" clip-path="url(#p630e933851)" style="fill: #1f77b4"/>
   </g>
   <g id="patch_191">
    <path d="M 253.71143 307.584 
L 254.55173 307.584 
L 254.55173 276.079794 
L 253.71143 276.079794 
z
" clip-path="url(#p630e933851)" style="fill: #1f77b4"/>
   </g>
   <g id="patch_192">
    <path d="M 253.734814 307.584 
L 254.575114 307.584 
L 254.575114 306.345626 
L 253.734814 306.345626 
z
" clip-path="url(#p630e933851)" style="fill: #1f77b4"/>
   </g>
   <g id="patch_193">
    <path d="M 254.75517 307.584 
L 255.59547 307.584 
L 255.59547 283.304728 
L 254.75517 283.304728 
z
" clip-path="url(#p630e933851)" style="fill: #1f77b4"/>
   </g>
   <g id="patch_194">
    <path d="M 255.792675 307.584 
L 256.632975 307.584 
L 256.632975 298.888368 
L 255.792675 298.888368 
z
" clip-path="url(#p630e933851)" style="fill: #1f77b4"/>
   </g>
   <g id="patch_195">
    <path d="M 255.814152 307.584 
L 256.654452 307.584 
L 256.654452 54.144 
L 255.814152 54.144 
z
" clip-path="url(#p630e933851)" style="fill: #1f77b4"/>
   </g>
   <g id="patch_196">
    <path d="M 255.863885 307.584 
L 256.704185 307.584 
L 256.704185 305.874622 
L 255.863885 305.874622 
z
" clip-path="url(#p630e933851)" style="fill: #1f77b4"/>
   </g>
   <g id="patch_197">
    <path d="M 256.846656 307.584 
L 257.686956 307.584 
L 257.686956 306.290488 
L 256.846656 306.290488 
z
" clip-path="url(#p630e933851)" style="fill: #1f77b4"/>
   </g>
   <g id="patch_198">
    <path d="M 256.86871 307.584 
L 257.70901 307.584 
L 257.70901 280.350132 
L 256.86871 280.350132 
z
" clip-path="url(#p630e933851)" style="fill: #1f77b4"/>
   </g>
   <g id="patch_199">
    <path d="M 257.868278 307.584 
L 258.708578 307.584 
L 258.708578 202.431368 
L 257.868278 202.431368 
z
" clip-path="url(#p630e933851)" style="fill: #1f77b4"/>
   </g>
   <g id="patch_200">
    <path d="M 258.922292 307.584 
L 259.762592 307.584 
L 259.762592 298.209243 
L 258.922292 298.209243 
z
" clip-path="url(#p630e933851)" style="fill: #1f77b4"/>
   </g>
   <g id="patch_201">
    <path d="M 260.010299 307.584 
L 260.8506 307.584 
L 260.8506 302.258196 
L 260.010299 302.258196 
z
" clip-path="url(#p630e933851)" style="fill: #1f77b4"/>
   </g>
   <g id="patch_202">
    <path d="M 266.298783 307.584 
L 267.139083 307.584 
L 267.139083 306.585642 
L 266.298783 306.585642 
z
" clip-path="url(#p630e933851)" style="fill: #1f77b4"/>
   </g>
   <g id="patch_203">
    <path d="M 268.355763 307.584 
L 269.196063 307.584 
L 269.196063 267.422956 
L 268.355763 267.422956 
z
" clip-path="url(#p630e933851)" style="fill: #1f77b4"/>
   </g>
   <g id="patch_204">
    <path d="M 268.380124 307.584 
L 269.220424 307.584 
L 269.220424 302.482357 
L 268.380124 302.482357 
z
" clip-path="url(#p630e933851)" style="fill: #1f77b4"/>
   </g>
   <g id="patch_205">
    <path d="M 269.409904 307.584 
L 270.250204 307.584 
L 270.250204 304.278277 
L 269.409904 304.278277 
z
" clip-path="url(#p630e933851)" style="fill: #1f77b4"/>
   </g>
   <g id="patch_206">
    <path d="M 269.477171 307.584 
L 270.317472 307.584 
L 270.317472 302.065219 
L 269.477171 302.065219 
z
" clip-path="url(#p630e933851)" style="fill: #1f77b4"/>
   </g>
   <g id="patch_207">
    <path d="M 270.485507 307.584 
L 271.325807 307.584 
L 271.325807 304.638179 
L 270.485507 304.638179 
z
" clip-path="url(#p630e933851)" style="fill: #1f77b4"/>
   </g>
   <g id="patch_208">
    <path d="M 270.510718 307.584 
L 271.351018 307.584 
L 271.351018 304.145471 
L 270.510718 304.145471 
z
" clip-path="url(#p630e933851)" style="fill: #1f77b4"/>
   </g>
   <g id="patch_209">
    <path d="M 270.535801 307.584 
L 271.376101 307.584 
L 271.376101 300.518089 
L 270.535801 300.518089 
z
" clip-path="url(#p630e933851)" style="fill: #1f77b4"/>
   </g>
   <g id="patch_210">
    <path d="M 271.55574 307.584 
L 272.39604 307.584 
L 272.39604 303.94456 
L 271.55574 303.94456 
z
" clip-path="url(#p630e933851)" style="fill: #1f77b4"/>
   </g>
   <g id="patch_211">
    <path d="M 271.593036 307.584 
L 272.433336 307.584 
L 272.433336 306.030332 
L 271.593036 306.030332 
z
" clip-path="url(#p630e933851)" style="fill: #1f77b4"/>
   </g>
   <g id="patch_212">
    <path d="M 272.590376 307.584 
L 273.430676 307.584 
L 273.430676 303.69704 
L 272.590376 303.69704 
z
" clip-path="url(#p630e933851)" style="fill: #1f77b4"/>
   </g>
   <g id="patch_213">
    <path d="M 273.673207 307.584 
L 274.513507 307.584 
L 274.513507 306.378278 
L 273.673207 306.378278 
z
" clip-path="url(#p630e933851)" style="fill: #1f77b4"/>
   </g>
   <g id="patch_214">
    <path d="M 274.706353 307.584 
L 275.546653 307.584 
L 275.546653 305.059834 
L 274.706353 305.059834 
z
" clip-path="url(#p630e933851)" style="fill: #1f77b4"/>
   </g>
   <g id="patch_215">
    <path d="M 275.922676 307.584 
L 276.762976 307.584 
L 276.762976 306.663468 
L 275.922676 306.663468 
z
" clip-path="url(#p630e933851)" style="fill: #1f77b4"/>
   </g>
   <g id="patch_216">
    <path d="M 278.85578 307.584 
L 279.69608 307.584 
L 279.69608 306.409809 
L 278.85578 306.409809 
z
" clip-path="url(#p630e933851)" style="fill: #1f77b4"/>
   </g>
   <g id="patch_217">
    <path d="M 280.997833 307.584 
L 281.838134 307.584 
L 281.838134 306.560429 
L 280.997833 306.560429 
z
" clip-path="url(#p630e933851)" style="fill: #1f77b4"/>
   </g>
   <g id="patch_218">
    <path d="M 282.042888 307.584 
L 282.883188 307.584 
L 282.883188 304.058152 
L 282.042888 304.058152 
z
" clip-path="url(#p630e933851)" style="fill: #1f77b4"/>
   </g>
   <g id="patch_219">
    <path d="M 283.100603 307.584 
L 283.940903 307.584 
L 283.940903 304.979324 
L 283.100603 304.979324 
z
" clip-path="url(#p630e933851)" style="fill: #1f77b4"/>
   </g>
   <g id="patch_220">
    <path d="M 284.16029 307.584 
L 285.000591 307.584 
L 285.000591 303.713521 
L 284.16029 303.713521 
z
" clip-path="url(#p630e933851)" style="fill: #1f77b4"/>
   </g>
   <g id="patch_221">
    <path d="M 285.233072 307.584 
L 286.073372 307.584 
L 286.073372 298.108439 
L 285.233072 298.108439 
z
" clip-path="url(#p630e933851)" style="fill: #1f77b4"/>
   </g>
   <g id="patch_222">
    <path d="M 286.279857 307.584 
L 287.120157 307.584 
L 287.120157 304.81564 
L 286.279857 304.81564 
z
" clip-path="url(#p630e933851)" style="fill: #1f77b4"/>
   </g>
   <g id="patch_223">
    <path d="M 287.297921 307.584 
L 288.138221 307.584 
L 288.138221 301.051099 
L 287.297921 301.051099 
z
" clip-path="url(#p630e933851)" style="fill: #1f77b4"/>
   </g>
   <g id="patch_224">
    <path d="M 288.394616 307.584 
L 289.234916 307.584 
L 289.234916 302.240743 
L 288.394616 302.240743 
z
" clip-path="url(#p630e933851)" style="fill: #1f77b4"/>
   </g>
   <g id="patch_225">
    <path d="M 298.88218 307.584 
L 299.72248 307.584 
L 299.72248 305.897921 
L 298.88218 305.897921 
z
" clip-path="url(#p630e933851)" style="fill: #1f77b4"/>
   </g>
   <g id="patch_226">
    <path d="M 299.940601 307.584 
L 300.780901 307.584 
L 300.780901 302.489917 
L 299.940601 302.489917 
z
" clip-path="url(#p630e933851)" style="fill: #1f77b4"/>
   </g>
   <g id="patch_227">
    <path d="M 300.962127 307.584 
L 301.802427 307.584 
L 301.802427 303.475632 
L 300.962127 303.475632 
z
" clip-path="url(#p630e933851)" style="fill: #1f77b4"/>
   </g>
   <g id="patch_228">
    <path d="M 301.994615 307.584 
L 302.834915 307.584 
L 302.834915 148.387375 
L 301.994615 148.387375 
z
" clip-path="url(#p630e933851)" style="fill: #1f77b4"/>
   </g>
   <g id="patch_229">
    <path d="M 302.020291 307.584 
L 302.860591 307.584 
L 302.860591 292.379925 
L 302.020291 292.379925 
z
" clip-path="url(#p630e933851)" style="fill: #1f77b4"/>
   </g>
   <g id="patch_230">
    <path d="M 303.048677 307.584 
L 303.888977 307.584 
L 303.888977 290.004195 
L 303.048677 290.004195 
z
" clip-path="url(#p630e933851)" style="fill: #1f77b4"/>
   </g>
   <g id="patch_231">
    <path d="M 303.075282 307.584 
L 303.915583 307.584 
L 303.915583 306.146806 
L 303.075282 306.146806 
z
" clip-path="url(#p630e933851)" style="fill: #1f77b4"/>
   </g>
   <g id="patch_232">
    <path d="M 314.636782 307.584 
L 315.477083 307.584 
L 315.477083 306.146089 
L 314.636782 306.146089 
z
" clip-path="url(#p630e933851)" style="fill: #1f77b4"/>
   </g>
   <g id="patch_233">
    <path d="M 315.682381 307.584 
L 316.522682 307.584 
L 316.522682 298.884133 
L 315.682381 298.884133 
z
" clip-path="url(#p630e933851)" style="fill: #1f77b4"/>
   </g>
   <g id="patch_234">
    <path d="M 316.741283 307.584 
L 317.581583 307.584 
L 317.581583 303.461255 
L 316.741283 303.461255 
z
" clip-path="url(#p630e933851)" style="fill: #1f77b4"/>
   </g>
   <g id="patch_235">
    <path d="M 317.79964 307.584 
L 318.63994 307.584 
L 318.63994 296.842047 
L 317.79964 296.842047 
z
" clip-path="url(#p630e933851)" style="fill: #1f77b4"/>
   </g>
   <g id="patch_236">
    <path d="M 327.228399 307.584 
L 328.068699 307.584 
L 328.068699 305.936916 
L 327.228399 305.936916 
z
" clip-path="url(#p630e933851)" style="fill: #1f77b4"/>
   </g>
   <g id="patch_237">
    <path d="M 328.340961 307.584 
L 329.181261 307.584 
L 329.181261 306.674428 
L 328.340961 306.674428 
z
" clip-path="url(#p630e933851)" style="fill: #1f77b4"/>
   </g>
   <g id="patch_238">
    <path d="M 330.404527 307.584 
L 331.244828 307.584 
L 331.244828 306.374731 
L 330.404527 306.374731 
z
" clip-path="url(#p630e933851)" style="fill: #1f77b4"/>
   </g>
   <g id="patch_239">
    <path d="M 331.463109 307.584 
L 332.303409 307.584 
L 332.303409 306.099132 
L 331.463109 306.099132 
z
" clip-path="url(#p630e933851)" style="fill: #1f77b4"/>
   </g>
   <g id="patch_240">
    <path d="M 332.522267 307.584 
L 333.362567 307.584 
L 333.362567 306.620044 
L 332.522267 306.620044 
z
" clip-path="url(#p630e933851)" style="fill: #1f77b4"/>
   </g>
   <g id="patch_241">
    <path d="M 334.601124 307.584 
L 335.441424 307.584 
L 335.441424 293.207501 
L 334.601124 293.207501 
z
" clip-path="url(#p630e933851)" style="fill: #1f77b4"/>
   </g>
   <g id="patch_242">
    <path d="M 335.631304 307.584 
L 336.471605 307.584 
L 336.471605 305.571038 
L 335.631304 305.571038 
z
" clip-path="url(#p630e933851)" style="fill: #1f77b4"/>
   </g>
   <g id="patch_243">
    <path d="M 349.321763 307.584 
L 350.162063 307.584 
L 350.162063 306.287901 
L 349.321763 306.287901 
z
" clip-path="url(#p630e933851)" style="fill: #1f77b4"/>
   </g>
   <g id="patch_244">
    <path d="M 364.006629 307.584 
L 364.846929 307.584 
L 364.846929 301.140352 
L 364.006629 301.140352 
z
" clip-path="url(#p630e933851)" style="fill: #1f77b4"/>
   </g>
   <g id="patch_245">
    <path d="M 378.726884 307.584 
L 379.567184 307.584 
L 379.567184 304.961832 
L 378.726884 304.961832 
z
" clip-path="url(#p630e933851)" style="fill: #1f77b4"/>
   </g>
   <g id="patch_246">
    <path d="M 397.646973 307.584 
L 398.487273 307.584 
L 398.487273 305.498556 
L 397.646973 305.498556 
z
" clip-path="url(#p630e933851)" style="fill: #1f77b4"/>
   </g>
   <g id="matplotlib.axis_1">
    <g id="xtick_1">
     <g id="line2d_1">
      <defs>
       <path id="mc5c57b384f" d="M 0 0 
L 0 3.5 
" style="stroke: #000000; stroke-width: 0.8"/>
      </defs>
      <g>
       <use xlink:href="#mc5c57b384f" x="69.17393" y="307.584" style="stroke: #000000; stroke-width: 0.8"/>
      </g>
     </g>
     <g id="text_1">
      <!-- 50 -->
      <g transform="translate(62.81143 322.182437) scale(0.1 -0.1)">
       <defs>
        <path id="DejaVuSans-35" d="M 691 4666 
L 3169 4666 
L 3169 4134 
L 1269 4134 
L 1269 2991 
Q 1406 3038 1543 3061 
Q 1681 3084 1819 3084 
Q 2600 3084 3056 2656 
Q 3513 2228 3513 1497 
Q 3513 744 3044 326 
Q 2575 -91 1722 -91 
Q 1428 -91 1123 -41 
Q 819 9 494 109 
L 494 744 
Q 775 591 1075 516 
Q 1375 441 1709 441 
Q 2250 441 2565 725 
Q 2881 1009 2881 1497 
Q 2881 1984 2565 2268 
Q 2250 2553 1709 2553 
Q 1456 2553 1204 2497 
Q 953 2441 691 2322 
L 691 4666 
z
" transform="scale(0.015625)"/>
        <path id="DejaVuSans-30" d="M 2034 4250 
Q 1547 4250 1301 3770 
Q 1056 3291 1056 2328 
Q 1056 1369 1301 889 
Q 1547 409 2034 409 
Q 2525 409 2770 889 
Q 3016 1369 3016 2328 
Q 3016 3291 2770 3770 
Q 2525 4250 2034 4250 
z
M 2034 4750 
Q 2819 4750 3233 4129 
Q 3647 3509 3647 2328 
Q 3647 1150 3233 529 
Q 2819 -91 2034 -91 
Q 1250 -91 836 529 
Q 422 1150 422 2328 
Q 422 3509 836 4129 
Q 1250 4750 2034 4750 
z
" transform="scale(0.015625)"/>
       </defs>
       <use xlink:href="#DejaVuSans-35"/>
       <use xlink:href="#DejaVuSans-30" x="63.623047"/>
      </g>
     </g>
    </g>
    <g id="xtick_2">
     <g id="line2d_2">
      <g>
       <use xlink:href="#mc5c57b384f" x="121.69269" y="307.584" style="stroke: #000000; stroke-width: 0.8"/>
      </g>
     </g>
     <g id="text_2">
      <!-- 100 -->
      <g transform="translate(112.14894 322.182437) scale(0.1 -0.1)">
       <defs>
        <path id="DejaVuSans-31" d="M 794 531 
L 1825 531 
L 1825 4091 
L 703 3866 
L 703 4441 
L 1819 4666 
L 2450 4666 
L 2450 531 
L 3481 531 
L 3481 0 
L 794 0 
L 794 531 
z
" transform="scale(0.015625)"/>
       </defs>
       <use xlink:href="#DejaVuSans-31"/>
       <use xlink:href="#DejaVuSans-30" x="63.623047"/>
       <use xlink:href="#DejaVuSans-30" x="127.246094"/>
      </g>
     </g>
    </g>
    <g id="xtick_3">
     <g id="line2d_3">
      <g>
       <use xlink:href="#mc5c57b384f" x="174.211451" y="307.584" style="stroke: #000000; stroke-width: 0.8"/>
      </g>
     </g>
     <g id="text_3">
      <!-- 150 -->
      <g transform="translate(164.667701 322.182437) scale(0.1 -0.1)">
       <use xlink:href="#DejaVuSans-31"/>
       <use xlink:href="#DejaVuSans-35" x="63.623047"/>
       <use xlink:href="#DejaVuSans-30" x="127.246094"/>
      </g>
     </g>
    </g>
    <g id="xtick_4">
     <g id="line2d_4">
      <g>
       <use xlink:href="#mc5c57b384f" x="226.730211" y="307.584" style="stroke: #000000; stroke-width: 0.8"/>
      </g>
     </g>
     <g id="text_4">
      <!-- 200 -->
      <g transform="translate(217.186461 322.182437) scale(0.1 -0.1)">
       <defs>
        <path id="DejaVuSans-32" d="M 1228 531 
L 3431 531 
L 3431 0 
L 469 0 
L 469 531 
Q 828 903 1448 1529 
Q 2069 2156 2228 2338 
Q 2531 2678 2651 2914 
Q 2772 3150 2772 3378 
Q 2772 3750 2511 3984 
Q 2250 4219 1831 4219 
Q 1534 4219 1204 4116 
Q 875 4013 500 3803 
L 500 4441 
Q 881 4594 1212 4672 
Q 1544 4750 1819 4750 
Q 2544 4750 2975 4387 
Q 3406 4025 3406 3419 
Q 3406 3131 3298 2873 
Q 3191 2616 2906 2266 
Q 2828 2175 2409 1742 
Q 1991 1309 1228 531 
z
" transform="scale(0.015625)"/>
       </defs>
       <use xlink:href="#DejaVuSans-32"/>
       <use xlink:href="#DejaVuSans-30" x="63.623047"/>
       <use xlink:href="#DejaVuSans-30" x="127.246094"/>
      </g>
     </g>
    </g>
    <g id="xtick_5">
     <g id="line2d_5">
      <g>
       <use xlink:href="#mc5c57b384f" x="279.248972" y="307.584" style="stroke: #000000; stroke-width: 0.8"/>
      </g>
     </g>
     <g id="text_5">
      <!-- 250 -->
      <g transform="translate(269.705222 322.182437) scale(0.1 -0.1)">
       <use xlink:href="#DejaVuSans-32"/>
       <use xlink:href="#DejaVuSans-35" x="63.623047"/>
       <use xlink:href="#DejaVuSans-30" x="127.246094"/>
      </g>
     </g>
    </g>
    <g id="xtick_6">
     <g id="line2d_6">
      <g>
       <use xlink:href="#mc5c57b384f" x="331.767733" y="307.584" style="stroke: #000000; stroke-width: 0.8"/>
      </g>
     </g>
     <g id="text_6">
      <!-- 300 -->
      <g transform="translate(322.223983 322.182437) scale(0.1 -0.1)">
       <defs>
        <path id="DejaVuSans-33" d="M 2597 2516 
Q 3050 2419 3304 2112 
Q 3559 1806 3559 1356 
Q 3559 666 3084 287 
Q 2609 -91 1734 -91 
Q 1441 -91 1130 -33 
Q 819 25 488 141 
L 488 750 
Q 750 597 1062 519 
Q 1375 441 1716 441 
Q 2309 441 2620 675 
Q 2931 909 2931 1356 
Q 2931 1769 2642 2001 
Q 2353 2234 1838 2234 
L 1294 2234 
L 1294 2753 
L 1863 2753 
Q 2328 2753 2575 2939 
Q 2822 3125 2822 3475 
Q 2822 3834 2567 4026 
Q 2313 4219 1838 4219 
Q 1578 4219 1281 4162 
Q 984 4106 628 3988 
L 628 4550 
Q 988 4650 1302 4700 
Q 1616 4750 1894 4750 
Q 2613 4750 3031 4423 
Q 3450 4097 3450 3541 
Q 3450 3153 3228 2886 
Q 3006 2619 2597 2516 
z
" transform="scale(0.015625)"/>
       </defs>
       <use xlink:href="#DejaVuSans-33"/>
       <use xlink:href="#DejaVuSans-30" x="63.623047"/>
       <use xlink:href="#DejaVuSans-30" x="127.246094"/>
      </g>
     </g>
    </g>
    <g id="xtick_7">
     <g id="line2d_7">
      <g>
       <use xlink:href="#mc5c57b384f" x="384.286493" y="307.584" style="stroke: #000000; stroke-width: 0.8"/>
      </g>
     </g>
     <g id="text_7">
      <!-- 350 -->
      <g transform="translate(374.742743 322.182437) scale(0.1 -0.1)">
       <use xlink:href="#DejaVuSans-33"/>
       <use xlink:href="#DejaVuSans-35" x="63.623047"/>
       <use xlink:href="#DejaVuSans-30" x="127.246094"/>
      </g>
     </g>
    </g>
    <g id="text_8">
     <!-- ${m/z}$ -->
     <g transform="translate(226.96 335.860562) scale(0.1 -0.1)">
      <defs>
       <path id="DejaVuSans-Oblique-6d" d="M 5747 2113 
L 5338 0 
L 4763 0 
L 5166 2094 
Q 5191 2228 5203 2325 
Q 5216 2422 5216 2491 
Q 5216 2772 5059 2928 
Q 4903 3084 4622 3084 
Q 4203 3084 3875 2770 
Q 3547 2456 3450 1953 
L 3066 0 
L 2491 0 
L 2900 2094 
Q 2925 2209 2937 2307 
Q 2950 2406 2950 2484 
Q 2950 2769 2794 2926 
Q 2638 3084 2363 3084 
Q 1938 3084 1609 2770 
Q 1281 2456 1184 1953 
L 800 0 
L 225 0 
L 909 3500 
L 1484 3500 
L 1375 2956 
Q 1609 3263 1923 3423 
Q 2238 3584 2597 3584 
Q 2978 3584 3223 3384 
Q 3469 3184 3519 2828 
Q 3781 3197 4126 3390 
Q 4472 3584 4856 3584 
Q 5306 3584 5551 3325 
Q 5797 3066 5797 2591 
Q 5797 2488 5784 2364 
Q 5772 2241 5747 2113 
z
" transform="scale(0.015625)"/>
       <path id="DejaVuSans-2f" d="M 1625 4666 
L 2156 4666 
L 531 -594 
L 0 -594 
L 1625 4666 
z
" transform="scale(0.015625)"/>
       <path id="DejaVuSans-Oblique-7a" d="M 744 3500 
L 3475 3500 
L 3372 2975 
L 738 459 
L 2913 459 
L 2822 0 
L -19 0 
L 84 525 
L 2719 3041 
L 653 3041 
L 744 3500 
z
" transform="scale(0.015625)"/>
      </defs>
      <use xlink:href="#DejaVuSans-Oblique-6d" transform="translate(0 0.09375)"/>
      <use xlink:href="#DejaVuSans-2f" transform="translate(97.412109 0.09375)"/>
      <use xlink:href="#DejaVuSans-Oblique-7a" transform="translate(131.103516 0.09375)"/>
     </g>
    </g>
   </g>
   <g id="matplotlib.axis_2">
    <g id="ytick_1">
     <g id="line2d_8">
      <defs>
       <path id="m65c592d4bc" d="M 0 0 
L -3.5 0 
" style="stroke: #000000; stroke-width: 0.8"/>
      </defs>
      <g>
       <use xlink:href="#m65c592d4bc" x="57.6" y="307.584" style="stroke: #000000; stroke-width: 0.8"/>
      </g>
     </g>
     <g id="text_9">
      <!-- 0.0 -->
      <g transform="translate(34.696875 311.383219) scale(0.1 -0.1)">
       <defs>
        <path id="DejaVuSans-2e" d="M 684 794 
L 1344 794 
L 1344 0 
L 684 0 
L 684 794 
z
" transform="scale(0.015625)"/>
       </defs>
       <use xlink:href="#DejaVuSans-30"/>
       <use xlink:href="#DejaVuSans-2e" x="63.623047"/>
       <use xlink:href="#DejaVuSans-30" x="95.410156"/>
      </g>
     </g>
    </g>
    <g id="ytick_2">
     <g id="line2d_9">
      <g>
       <use xlink:href="#m65c592d4bc" x="57.6" y="276.139188" style="stroke: #000000; stroke-width: 0.8"/>
      </g>
     </g>
     <g id="text_10">
      <!-- 0.2 -->
      <g transform="translate(34.696875 279.938406) scale(0.1 -0.1)">
       <use xlink:href="#DejaVuSans-30"/>
       <use xlink:href="#DejaVuSans-2e" x="63.623047"/>
       <use xlink:href="#DejaVuSans-32" x="95.410156"/>
      </g>
     </g>
    </g>
    <g id="ytick_3">
     <g id="line2d_10">
      <g>
       <use xlink:href="#m65c592d4bc" x="57.6" y="244.694375" style="stroke: #000000; stroke-width: 0.8"/>
      </g>
     </g>
     <g id="text_11">
      <!-- 0.4 -->
      <g transform="translate(34.696875 248.493594) scale(0.1 -0.1)">
       <defs>
        <path id="DejaVuSans-34" d="M 2419 4116 
L 825 1625 
L 2419 1625 
L 2419 4116 
z
M 2253 4666 
L 3047 4666 
L 3047 1625 
L 3713 1625 
L 3713 1100 
L 3047 1100 
L 3047 0 
L 2419 0 
L 2419 1100 
L 313 1100 
L 313 1709 
L 2253 4666 
z
" transform="scale(0.015625)"/>
       </defs>
       <use xlink:href="#DejaVuSans-30"/>
       <use xlink:href="#DejaVuSans-2e" x="63.623047"/>
       <use xlink:href="#DejaVuSans-34" x="95.410156"/>
      </g>
     </g>
    </g>
    <g id="ytick_4">
     <g id="line2d_11">
      <g>
       <use xlink:href="#m65c592d4bc" x="57.6" y="213.249563" style="stroke: #000000; stroke-width: 0.8"/>
      </g>
     </g>
     <g id="text_12">
      <!-- 0.6 -->
      <g transform="translate(34.696875 217.048781) scale(0.1 -0.1)">
       <defs>
        <path id="DejaVuSans-36" d="M 2113 2584 
Q 1688 2584 1439 2293 
Q 1191 2003 1191 1497 
Q 1191 994 1439 701 
Q 1688 409 2113 409 
Q 2538 409 2786 701 
Q 3034 994 3034 1497 
Q 3034 2003 2786 2293 
Q 2538 2584 2113 2584 
z
M 3366 4563 
L 3366 3988 
Q 3128 4100 2886 4159 
Q 2644 4219 2406 4219 
Q 1781 4219 1451 3797 
Q 1122 3375 1075 2522 
Q 1259 2794 1537 2939 
Q 1816 3084 2150 3084 
Q 2853 3084 3261 2657 
Q 3669 2231 3669 1497 
Q 3669 778 3244 343 
Q 2819 -91 2113 -91 
Q 1303 -91 875 529 
Q 447 1150 447 2328 
Q 447 3434 972 4092 
Q 1497 4750 2381 4750 
Q 2619 4750 2861 4703 
Q 3103 4656 3366 4563 
z
" transform="scale(0.015625)"/>
       </defs>
       <use xlink:href="#DejaVuSans-30"/>
       <use xlink:href="#DejaVuSans-2e" x="63.623047"/>
       <use xlink:href="#DejaVuSans-36" x="95.410156"/>
      </g>
     </g>
    </g>
    <g id="ytick_5">
     <g id="line2d_12">
      <g>
       <use xlink:href="#m65c592d4bc" x="57.6" y="181.80475" style="stroke: #000000; stroke-width: 0.8"/>
      </g>
     </g>
     <g id="text_13">
      <!-- 0.8 -->
      <g transform="translate(34.696875 185.603969) scale(0.1 -0.1)">
       <defs>
        <path id="DejaVuSans-38" d="M 2034 2216 
Q 1584 2216 1326 1975 
Q 1069 1734 1069 1313 
Q 1069 891 1326 650 
Q 1584 409 2034 409 
Q 2484 409 2743 651 
Q 3003 894 3003 1313 
Q 3003 1734 2745 1975 
Q 2488 2216 2034 2216 
z
M 1403 2484 
Q 997 2584 770 2862 
Q 544 3141 544 3541 
Q 544 4100 942 4425 
Q 1341 4750 2034 4750 
Q 2731 4750 3128 4425 
Q 3525 4100 3525 3541 
Q 3525 3141 3298 2862 
Q 3072 2584 2669 2484 
Q 3125 2378 3379 2068 
Q 3634 1759 3634 1313 
Q 3634 634 3220 271 
Q 2806 -91 2034 -91 
Q 1263 -91 848 271 
Q 434 634 434 1313 
Q 434 1759 690 2068 
Q 947 2378 1403 2484 
z
M 1172 3481 
Q 1172 3119 1398 2916 
Q 1625 2713 2034 2713 
Q 2441 2713 2670 2916 
Q 2900 3119 2900 3481 
Q 2900 3844 2670 4047 
Q 2441 4250 2034 4250 
Q 1625 4250 1398 4047 
Q 1172 3844 1172 3481 
z
" transform="scale(0.015625)"/>
       </defs>
       <use xlink:href="#DejaVuSans-30"/>
       <use xlink:href="#DejaVuSans-2e" x="63.623047"/>
       <use xlink:href="#DejaVuSans-38" x="95.410156"/>
      </g>
     </g>
    </g>
    <g id="ytick_6">
     <g id="line2d_13">
      <g>
       <use xlink:href="#m65c592d4bc" x="57.6" y="150.359938" style="stroke: #000000; stroke-width: 0.8"/>
      </g>
     </g>
     <g id="text_14">
      <!-- 1.0 -->
      <g transform="translate(34.696875 154.159156) scale(0.1 -0.1)">
       <use xlink:href="#DejaVuSans-31"/>
       <use xlink:href="#DejaVuSans-2e" x="63.623047"/>
       <use xlink:href="#DejaVuSans-30" x="95.410156"/>
      </g>
     </g>
    </g>
    <g id="ytick_7">
     <g id="line2d_14">
      <g>
       <use xlink:href="#m65c592d4bc" x="57.6" y="118.915125" style="stroke: #000000; stroke-width: 0.8"/>
      </g>
     </g>
     <g id="text_15">
      <!-- 1.2 -->
      <g transform="translate(34.696875 122.714344) scale(0.1 -0.1)">
       <use xlink:href="#DejaVuSans-31"/>
       <use xlink:href="#DejaVuSans-2e" x="63.623047"/>
       <use xlink:href="#DejaVuSans-32" x="95.410156"/>
      </g>
     </g>
    </g>
    <g id="ytick_8">
     <g id="line2d_15">
      <g>
       <use xlink:href="#m65c592d4bc" x="57.6" y="87.470313" style="stroke: #000000; stroke-width: 0.8"/>
      </g>
     </g>
     <g id="text_16">
      <!-- 1.4 -->
      <g transform="translate(34.696875 91.269532) scale(0.1 -0.1)">
       <use xlink:href="#DejaVuSans-31"/>
       <use xlink:href="#DejaVuSans-2e" x="63.623047"/>
       <use xlink:href="#DejaVuSans-34" x="95.410156"/>
      </g>
     </g>
    </g>
    <g id="ytick_9">
     <g id="line2d_16">
      <g>
       <use xlink:href="#m65c592d4bc" x="57.6" y="56.0255" style="stroke: #000000; stroke-width: 0.8"/>
      </g>
     </g>
     <g id="text_17">
      <!-- 1.6 -->
      <g transform="translate(34.696875 59.824719) scale(0.1 -0.1)">
       <use xlink:href="#DejaVuSans-31"/>
       <use xlink:href="#DejaVuSans-2e" x="63.623047"/>
       <use xlink:href="#DejaVuSans-36" x="95.410156"/>
      </g>
     </g>
    </g>
    <g id="text_18">
     <!-- intensities -->
     <g transform="translate(28.617187 200.3155) rotate(-90) scale(0.1 -0.1)">
      <defs>
       <path id="DejaVuSans-69" d="M 603 3500 
L 1178 3500 
L 1178 0 
L 603 0 
L 603 3500 
z
M 603 4863 
L 1178 4863 
L 1178 4134 
L 603 4134 
L 603 4863 
z
" transform="scale(0.015625)"/>
       <path id="DejaVuSans-6e" d="M 3513 2113 
L 3513 0 
L 2938 0 
L 2938 2094 
Q 2938 2591 2744 2837 
Q 2550 3084 2163 3084 
Q 1697 3084 1428 2787 
Q 1159 2491 1159 1978 
L 1159 0 
L 581 0 
L 581 3500 
L 1159 3500 
L 1159 2956 
Q 1366 3272 1645 3428 
Q 1925 3584 2291 3584 
Q 2894 3584 3203 3211 
Q 3513 2838 3513 2113 
z
" transform="scale(0.015625)"/>
       <path id="DejaVuSans-74" d="M 1172 4494 
L 1172 3500 
L 2356 3500 
L 2356 3053 
L 1172 3053 
L 1172 1153 
Q 1172 725 1289 603 
Q 1406 481 1766 481 
L 2356 481 
L 2356 0 
L 1766 0 
Q 1100 0 847 248 
Q 594 497 594 1153 
L 594 3053 
L 172 3053 
L 172 3500 
L 594 3500 
L 594 4494 
L 1172 4494 
z
" transform="scale(0.015625)"/>
       <path id="DejaVuSans-65" d="M 3597 1894 
L 3597 1613 
L 953 1613 
Q 991 1019 1311 708 
Q 1631 397 2203 397 
Q 2534 397 2845 478 
Q 3156 559 3463 722 
L 3463 178 
Q 3153 47 2828 -22 
Q 2503 -91 2169 -91 
Q 1331 -91 842 396 
Q 353 884 353 1716 
Q 353 2575 817 3079 
Q 1281 3584 2069 3584 
Q 2775 3584 3186 3129 
Q 3597 2675 3597 1894 
z
M 3022 2063 
Q 3016 2534 2758 2815 
Q 2500 3097 2075 3097 
Q 1594 3097 1305 2825 
Q 1016 2553 972 2059 
L 3022 2063 
z
" transform="scale(0.015625)"/>
       <path id="DejaVuSans-73" d="M 2834 3397 
L 2834 2853 
Q 2591 2978 2328 3040 
Q 2066 3103 1784 3103 
Q 1356 3103 1142 2972 
Q 928 2841 928 2578 
Q 928 2378 1081 2264 
Q 1234 2150 1697 2047 
L 1894 2003 
Q 2506 1872 2764 1633 
Q 3022 1394 3022 966 
Q 3022 478 2636 193 
Q 2250 -91 1575 -91 
Q 1294 -91 989 -36 
Q 684 19 347 128 
L 347 722 
Q 666 556 975 473 
Q 1284 391 1588 391 
Q 1994 391 2212 530 
Q 2431 669 2431 922 
Q 2431 1156 2273 1281 
Q 2116 1406 1581 1522 
L 1381 1569 
Q 847 1681 609 1914 
Q 372 2147 372 2553 
Q 372 3047 722 3315 
Q 1072 3584 1716 3584 
Q 2034 3584 2315 3537 
Q 2597 3491 2834 3397 
z
" transform="scale(0.015625)"/>
      </defs>
      <use xlink:href="#DejaVuSans-69"/>
      <use xlink:href="#DejaVuSans-6e" x="27.783203"/>
      <use xlink:href="#DejaVuSans-74" x="91.162109"/>
      <use xlink:href="#DejaVuSans-65" x="130.371094"/>
      <use xlink:href="#DejaVuSans-6e" x="191.894531"/>
      <use xlink:href="#DejaVuSans-73" x="255.273438"/>
      <use xlink:href="#DejaVuSans-69" x="307.373047"/>
      <use xlink:href="#DejaVuSans-74" x="335.15625"/>
      <use xlink:href="#DejaVuSans-69" x="374.365234"/>
      <use xlink:href="#DejaVuSans-65" x="402.148438"/>
      <use xlink:href="#DejaVuSans-73" x="463.671875"/>
     </g>
    </g>
    <g id="text_19">
     <!-- 1e6 -->
     <g transform="translate(57.6 38.472) scale(0.1 -0.1)">
      <use xlink:href="#DejaVuSans-31"/>
      <use xlink:href="#DejaVuSans-65" x="63.623047"/>
      <use xlink:href="#DejaVuSans-36" x="125.146484"/>
     </g>
    </g>
   </g>
   <g id="patch_247">
    <path d="M 57.6 307.584 
L 57.6 41.472 
" style="fill: none; stroke: #000000; stroke-width: 0.8; stroke-linejoin: miter; stroke-linecap: square"/>
   </g>
   <g id="patch_248">
    <path d="M 414.72 307.584 
L 414.72 41.472 
" style="fill: none; stroke: #000000; stroke-width: 0.8; stroke-linejoin: miter; stroke-linecap: square"/>
   </g>
   <g id="patch_249">
    <path d="M 57.6 307.584 
L 414.72 307.584 
" style="fill: none; stroke: #000000; stroke-width: 0.8; stroke-linejoin: miter; stroke-linecap: square"/>
   </g>
   <g id="patch_250">
    <path d="M 57.6 41.472 
L 414.72 41.472 
" style="fill: none; stroke: #000000; stroke-width: 0.8; stroke-linejoin: miter; stroke-linecap: square"/>
   </g>
   <g id="text_20">
    <!-- 102.0554 -->
    <g transform="translate(116.736981 165.424134) scale(0.06 -0.06)">
     <use xlink:href="#DejaVuSans-31"/>
     <use xlink:href="#DejaVuSans-30" x="63.623047"/>
     <use xlink:href="#DejaVuSans-32" x="127.246094"/>
     <use xlink:href="#DejaVuSans-2e" x="190.869141"/>
     <use xlink:href="#DejaVuSans-30" x="222.65625"/>
     <use xlink:href="#DejaVuSans-35" x="286.279297"/>
     <use xlink:href="#DejaVuSans-35" x="349.902344"/>
     <use xlink:href="#DejaVuSans-34" x="413.525391"/>
    </g>
   </g>
   <g id="text_21">
    <!-- 130.0652 -->
    <g transform="translate(146.157792 269.39918) scale(0.06 -0.06)">
     <use xlink:href="#DejaVuSans-31"/>
     <use xlink:href="#DejaVuSans-33" x="63.623047"/>
     <use xlink:href="#DejaVuSans-30" x="127.246094"/>
     <use xlink:href="#DejaVuSans-2e" x="190.869141"/>
     <use xlink:href="#DejaVuSans-30" x="222.65625"/>
     <use xlink:href="#DejaVuSans-36" x="286.279297"/>
     <use xlink:href="#DejaVuSans-35" x="349.902344"/>
     <use xlink:href="#DejaVuSans-32" x="413.525391"/>
    </g>
   </g>
   <g id="text_22">
    <!-- 183.0916 -->
    <g transform="translate(195.37539 271.478) scale(0.06 -0.06)">
     <defs>
      <path id="DejaVuSans-39" d="M 703 97 
L 703 672 
Q 941 559 1184 500 
Q 1428 441 1663 441 
Q 2288 441 2617 861 
Q 2947 1281 2994 2138 
Q 2813 1869 2534 1725 
Q 2256 1581 1919 1581 
Q 1219 1581 811 2004 
Q 403 2428 403 3163 
Q 403 3881 828 4315 
Q 1253 4750 1959 4750 
Q 2769 4750 3195 4129 
Q 3622 3509 3622 2328 
Q 3622 1225 3098 567 
Q 2575 -91 1691 -91 
Q 1453 -91 1209 -44 
Q 966 3 703 97 
z
M 1959 2075 
Q 2384 2075 2632 2365 
Q 2881 2656 2881 3163 
Q 2881 3666 2632 3958 
Q 2384 4250 1959 4250 
Q 1534 4250 1286 3958 
Q 1038 3666 1038 3163 
Q 1038 2656 1286 2365 
Q 1534 2075 1959 2075 
z
" transform="scale(0.015625)"/>
     </defs>
     <use xlink:href="#DejaVuSans-31"/>
     <use xlink:href="#DejaVuSans-38" x="63.623047"/>
     <use xlink:href="#DejaVuSans-33" x="127.246094"/>
     <use xlink:href="#DejaVuSans-2e" x="190.869141"/>
     <use xlink:href="#DejaVuSans-30" x="222.65625"/>
     <use xlink:href="#DejaVuSans-39" x="286.279297"/>
     <use xlink:href="#DejaVuSans-31" x="349.902344"/>
     <use xlink:href="#DejaVuSans-36" x="413.525391"/>
    </g>
   </g>
   <g id="text_23">
    <!-- 202.0497 -->
    <g transform="translate(210.248444 262.034268) scale(0.06 -0.06)">
     <defs>
      <path id="DejaVuSans-37" d="M 525 4666 
L 3525 4666 
L 3525 4397 
L 1831 0 
L 1172 0 
L 2766 4134 
L 525 4134 
L 525 4666 
z
" transform="scale(0.015625)"/>
     </defs>
     <use xlink:href="#DejaVuSans-32"/>
     <use xlink:href="#DejaVuSans-30" x="63.623047"/>
     <use xlink:href="#DejaVuSans-32" x="127.246094"/>
     <use xlink:href="#DejaVuSans-2e" x="190.869141"/>
     <use xlink:href="#DejaVuSans-30" x="222.65625"/>
     <use xlink:href="#DejaVuSans-34" x="286.279297"/>
     <use xlink:href="#DejaVuSans-39" x="349.902344"/>
     <use xlink:href="#DejaVuSans-37" x="413.525391"/>
    </g>
   </g>
   <g id="text_24">
    <!-- 211.0865 -->
    <g transform="translate(231.260511 94.204523) scale(0.06 -0.06)">
     <use xlink:href="#DejaVuSans-32"/>
     <use xlink:href="#DejaVuSans-31" x="63.623047"/>
     <use xlink:href="#DejaVuSans-31" x="127.246094"/>
     <use xlink:href="#DejaVuSans-2e" x="190.869141"/>
     <use xlink:href="#DejaVuSans-30" x="222.65625"/>
     <use xlink:href="#DejaVuSans-38" x="286.279297"/>
     <use xlink:href="#DejaVuSans-36" x="349.902344"/>
     <use xlink:href="#DejaVuSans-35" x="413.525391"/>
    </g>
   </g>
   <g id="text_25">
    <!-- 212.0926 -->
    <g transform="translate(234.477313 253.918931) scale(0.06 -0.06)">
     <use xlink:href="#DejaVuSans-32"/>
     <use xlink:href="#DejaVuSans-31" x="63.623047"/>
     <use xlink:href="#DejaVuSans-32" x="127.246094"/>
     <use xlink:href="#DejaVuSans-2e" x="190.869141"/>
     <use xlink:href="#DejaVuSans-30" x="222.65625"/>
     <use xlink:href="#DejaVuSans-39" x="286.279297"/>
     <use xlink:href="#DejaVuSans-32" x="349.902344"/>
     <use xlink:href="#DejaVuSans-36" x="413.525391"/>
    </g>
   </g>
   <g id="text_26">
    <!-- 226.0872 -->
    <g transform="translate(253.211373 274.495419) scale(0.06 -0.06)">
     <use xlink:href="#DejaVuSans-32"/>
     <use xlink:href="#DejaVuSans-32" x="63.623047"/>
     <use xlink:href="#DejaVuSans-36" x="127.246094"/>
     <use xlink:href="#DejaVuSans-2e" x="190.869141"/>
     <use xlink:href="#DejaVuSans-30" x="222.65625"/>
     <use xlink:href="#DejaVuSans-38" x="286.279297"/>
     <use xlink:href="#DejaVuSans-37" x="349.902344"/>
     <use xlink:href="#DejaVuSans-32" x="413.525391"/>
    </g>
   </g>
   <g id="text_27">
    <!-- 228.0891 -->
    <g transform="translate(249.119614 50.939625) scale(0.06 -0.06)">
     <use xlink:href="#DejaVuSans-32"/>
     <use xlink:href="#DejaVuSans-32" x="63.623047"/>
     <use xlink:href="#DejaVuSans-38" x="127.246094"/>
     <use xlink:href="#DejaVuSans-2e" x="190.869141"/>
     <use xlink:href="#DejaVuSans-30" x="222.65625"/>
     <use xlink:href="#DejaVuSans-38" x="286.279297"/>
     <use xlink:href="#DejaVuSans-39" x="349.902344"/>
     <use xlink:href="#DejaVuSans-31" x="413.525391"/>
    </g>
   </g>
   <g id="text_28">
    <!-- 229.0931 -->
    <g transform="translate(249.978176 285.245757) scale(0.06 -0.06)">
     <use xlink:href="#DejaVuSans-32"/>
     <use xlink:href="#DejaVuSans-32" x="63.623047"/>
     <use xlink:href="#DejaVuSans-39" x="127.246094"/>
     <use xlink:href="#DejaVuSans-2e" x="190.869141"/>
     <use xlink:href="#DejaVuSans-30" x="222.65625"/>
     <use xlink:href="#DejaVuSans-39" x="286.279297"/>
     <use xlink:href="#DejaVuSans-33" x="349.902344"/>
     <use xlink:href="#DejaVuSans-31" x="413.525391"/>
    </g>
   </g>
   <g id="text_29">
    <!-- 230.0447 -->
    <g transform="translate(251.173741 199.226993) scale(0.06 -0.06)">
     <use xlink:href="#DejaVuSans-32"/>
     <use xlink:href="#DejaVuSans-33" x="63.623047"/>
     <use xlink:href="#DejaVuSans-30" x="127.246094"/>
     <use xlink:href="#DejaVuSans-2e" x="190.869141"/>
     <use xlink:href="#DejaVuSans-30" x="222.65625"/>
     <use xlink:href="#DejaVuSans-34" x="286.279297"/>
     <use xlink:href="#DejaVuSans-34" x="349.902344"/>
     <use xlink:href="#DejaVuSans-37" x="413.525391"/>
    </g>
   </g>
   <g id="text_30">
    <!-- 240.0292 -->
    <g transform="translate(261.661225 262.238581) scale(0.06 -0.06)">
     <use xlink:href="#DejaVuSans-32"/>
     <use xlink:href="#DejaVuSans-34" x="63.623047"/>
     <use xlink:href="#DejaVuSans-30" x="127.246094"/>
     <use xlink:href="#DejaVuSans-2e" x="190.869141"/>
     <use xlink:href="#DejaVuSans-30" x="222.65625"/>
     <use xlink:href="#DejaVuSans-32" x="286.279297"/>
     <use xlink:href="#DejaVuSans-39" x="349.902344"/>
     <use xlink:href="#DejaVuSans-32" x="413.525391"/>
    </g>
   </g>
   <g id="text_31">
    <!-- 272.0548 -->
    <g transform="translate(295.300078 145.183) scale(0.06 -0.06)">
     <use xlink:href="#DejaVuSans-32"/>
     <use xlink:href="#DejaVuSans-37" x="63.623047"/>
     <use xlink:href="#DejaVuSans-32" x="127.246094"/>
     <use xlink:href="#DejaVuSans-2e" x="190.869141"/>
     <use xlink:href="#DejaVuSans-30" x="222.65625"/>
     <use xlink:href="#DejaVuSans-35" x="286.279297"/>
     <use xlink:href="#DejaVuSans-34" x="349.902344"/>
     <use xlink:href="#DejaVuSans-38" x="413.525391"/>
    </g>
   </g>
   <g id="text_32">
    <!-- MS2 spectrum of ${m/z}$ 363.1175, scan time 6.17 min. -->
    <g transform="translate(57.6 24.873562) scale(0.12 -0.12)">
     <defs>
      <path id="DejaVuSans-4d" d="M 628 4666 
L 1569 4666 
L 2759 1491 
L 3956 4666 
L 4897 4666 
L 4897 0 
L 4281 0 
L 4281 4097 
L 3078 897 
L 2444 897 
L 1241 4097 
L 1241 0 
L 628 0 
L 628 4666 
z
" transform="scale(0.015625)"/>
      <path id="DejaVuSans-53" d="M 3425 4513 
L 3425 3897 
Q 3066 4069 2747 4153 
Q 2428 4238 2131 4238 
Q 1616 4238 1336 4038 
Q 1056 3838 1056 3469 
Q 1056 3159 1242 3001 
Q 1428 2844 1947 2747 
L 2328 2669 
Q 3034 2534 3370 2195 
Q 3706 1856 3706 1288 
Q 3706 609 3251 259 
Q 2797 -91 1919 -91 
Q 1588 -91 1214 -16 
Q 841 59 441 206 
L 441 856 
Q 825 641 1194 531 
Q 1563 422 1919 422 
Q 2459 422 2753 634 
Q 3047 847 3047 1241 
Q 3047 1584 2836 1778 
Q 2625 1972 2144 2069 
L 1759 2144 
Q 1053 2284 737 2584 
Q 422 2884 422 3419 
Q 422 4038 858 4394 
Q 1294 4750 2059 4750 
Q 2388 4750 2728 4690 
Q 3069 4631 3425 4513 
z
" transform="scale(0.015625)"/>
      <path id="DejaVuSans-20" transform="scale(0.015625)"/>
      <path id="DejaVuSans-70" d="M 1159 525 
L 1159 -1331 
L 581 -1331 
L 581 3500 
L 1159 3500 
L 1159 2969 
Q 1341 3281 1617 3432 
Q 1894 3584 2278 3584 
Q 2916 3584 3314 3078 
Q 3713 2572 3713 1747 
Q 3713 922 3314 415 
Q 2916 -91 2278 -91 
Q 1894 -91 1617 61 
Q 1341 213 1159 525 
z
M 3116 1747 
Q 3116 2381 2855 2742 
Q 2594 3103 2138 3103 
Q 1681 3103 1420 2742 
Q 1159 2381 1159 1747 
Q 1159 1113 1420 752 
Q 1681 391 2138 391 
Q 2594 391 2855 752 
Q 3116 1113 3116 1747 
z
" transform="scale(0.015625)"/>
      <path id="DejaVuSans-63" d="M 3122 3366 
L 3122 2828 
Q 2878 2963 2633 3030 
Q 2388 3097 2138 3097 
Q 1578 3097 1268 2742 
Q 959 2388 959 1747 
Q 959 1106 1268 751 
Q 1578 397 2138 397 
Q 2388 397 2633 464 
Q 2878 531 3122 666 
L 3122 134 
Q 2881 22 2623 -34 
Q 2366 -91 2075 -91 
Q 1284 -91 818 406 
Q 353 903 353 1747 
Q 353 2603 823 3093 
Q 1294 3584 2113 3584 
Q 2378 3584 2631 3529 
Q 2884 3475 3122 3366 
z
" transform="scale(0.015625)"/>
      <path id="DejaVuSans-72" d="M 2631 2963 
Q 2534 3019 2420 3045 
Q 2306 3072 2169 3072 
Q 1681 3072 1420 2755 
Q 1159 2438 1159 1844 
L 1159 0 
L 581 0 
L 581 3500 
L 1159 3500 
L 1159 2956 
Q 1341 3275 1631 3429 
Q 1922 3584 2338 3584 
Q 2397 3584 2469 3576 
Q 2541 3569 2628 3553 
L 2631 2963 
z
" transform="scale(0.015625)"/>
      <path id="DejaVuSans-75" d="M 544 1381 
L 544 3500 
L 1119 3500 
L 1119 1403 
Q 1119 906 1312 657 
Q 1506 409 1894 409 
Q 2359 409 2629 706 
Q 2900 1003 2900 1516 
L 2900 3500 
L 3475 3500 
L 3475 0 
L 2900 0 
L 2900 538 
Q 2691 219 2414 64 
Q 2138 -91 1772 -91 
Q 1169 -91 856 284 
Q 544 659 544 1381 
z
M 1991 3584 
L 1991 3584 
z
" transform="scale(0.015625)"/>
      <path id="DejaVuSans-6d" d="M 3328 2828 
Q 3544 3216 3844 3400 
Q 4144 3584 4550 3584 
Q 5097 3584 5394 3201 
Q 5691 2819 5691 2113 
L 5691 0 
L 5113 0 
L 5113 2094 
Q 5113 2597 4934 2840 
Q 4756 3084 4391 3084 
Q 3944 3084 3684 2787 
Q 3425 2491 3425 1978 
L 3425 0 
L 2847 0 
L 2847 2094 
Q 2847 2600 2669 2842 
Q 2491 3084 2119 3084 
Q 1678 3084 1418 2786 
Q 1159 2488 1159 1978 
L 1159 0 
L 581 0 
L 581 3500 
L 1159 3500 
L 1159 2956 
Q 1356 3278 1631 3431 
Q 1906 3584 2284 3584 
Q 2666 3584 2933 3390 
Q 3200 3197 3328 2828 
z
" transform="scale(0.015625)"/>
      <path id="DejaVuSans-6f" d="M 1959 3097 
Q 1497 3097 1228 2736 
Q 959 2375 959 1747 
Q 959 1119 1226 758 
Q 1494 397 1959 397 
Q 2419 397 2687 759 
Q 2956 1122 2956 1747 
Q 2956 2369 2687 2733 
Q 2419 3097 1959 3097 
z
M 1959 3584 
Q 2709 3584 3137 3096 
Q 3566 2609 3566 1747 
Q 3566 888 3137 398 
Q 2709 -91 1959 -91 
Q 1206 -91 779 398 
Q 353 888 353 1747 
Q 353 2609 779 3096 
Q 1206 3584 1959 3584 
z
" transform="scale(0.015625)"/>
      <path id="DejaVuSans-66" d="M 2375 4863 
L 2375 4384 
L 1825 4384 
Q 1516 4384 1395 4259 
Q 1275 4134 1275 3809 
L 1275 3500 
L 2222 3500 
L 2222 3053 
L 1275 3053 
L 1275 0 
L 697 0 
L 697 3053 
L 147 3053 
L 147 3500 
L 697 3500 
L 697 3744 
Q 697 4328 969 4595 
Q 1241 4863 1831 4863 
L 2375 4863 
z
" transform="scale(0.015625)"/>
      <path id="DejaVuSans-2c" d="M 750 794 
L 1409 794 
L 1409 256 
L 897 -744 
L 494 -744 
L 750 256 
L 750 794 
z
" transform="scale(0.015625)"/>
      <path id="DejaVuSans-61" d="M 2194 1759 
Q 1497 1759 1228 1600 
Q 959 1441 959 1056 
Q 959 750 1161 570 
Q 1363 391 1709 391 
Q 2188 391 2477 730 
Q 2766 1069 2766 1631 
L 2766 1759 
L 2194 1759 
z
M 3341 1997 
L 3341 0 
L 2766 0 
L 2766 531 
Q 2569 213 2275 61 
Q 1981 -91 1556 -91 
Q 1019 -91 701 211 
Q 384 513 384 1019 
Q 384 1609 779 1909 
Q 1175 2209 1959 2209 
L 2766 2209 
L 2766 2266 
Q 2766 2663 2505 2880 
Q 2244 3097 1772 3097 
Q 1472 3097 1187 3025 
Q 903 2953 641 2809 
L 641 3341 
Q 956 3463 1253 3523 
Q 1550 3584 1831 3584 
Q 2591 3584 2966 3190 
Q 3341 2797 3341 1997 
z
" transform="scale(0.015625)"/>
     </defs>
     <use xlink:href="#DejaVuSans-4d" transform="translate(0 0.015625)"/>
     <use xlink:href="#DejaVuSans-53" transform="translate(86.279297 0.015625)"/>
     <use xlink:href="#DejaVuSans-32" transform="translate(149.755859 0.015625)"/>
     <use xlink:href="#DejaVuSans-20" transform="translate(213.378906 0.015625)"/>
     <use xlink:href="#DejaVuSans-73" transform="translate(245.166016 0.015625)"/>
     <use xlink:href="#DejaVuSans-70" transform="translate(297.265625 0.015625)"/>
     <use xlink:href="#DejaVuSans-65" transform="translate(360.742188 0.015625)"/>
     <use xlink:href="#DejaVuSans-63" transform="translate(422.265625 0.015625)"/>
     <use xlink:href="#DejaVuSans-74" transform="translate(477.246094 0.015625)"/>
     <use xlink:href="#DejaVuSans-72" transform="translate(516.455078 0.015625)"/>
     <use xlink:href="#DejaVuSans-75" transform="translate(557.568359 0.015625)"/>
     <use xlink:href="#DejaVuSans-6d" transform="translate(620.947266 0.015625)"/>
     <use xlink:href="#DejaVuSans-20" transform="translate(718.359375 0.015625)"/>
     <use xlink:href="#DejaVuSans-6f" transform="translate(750.146484 0.015625)"/>
     <use xlink:href="#DejaVuSans-66" transform="translate(811.328125 0.015625)"/>
     <use xlink:href="#DejaVuSans-20" transform="translate(846.533203 0.015625)"/>
     <use xlink:href="#DejaVuSans-Oblique-6d" transform="translate(878.320312 0.015625)"/>
     <use xlink:href="#DejaVuSans-2f" transform="translate(975.732422 0.015625)"/>
     <use xlink:href="#DejaVuSans-Oblique-7a" transform="translate(1009.423828 0.015625)"/>
     <use xlink:href="#DejaVuSans-20" transform="translate(1061.914062 0.015625)"/>
     <use xlink:href="#DejaVuSans-33" transform="translate(1093.701172 0.015625)"/>
     <use xlink:href="#DejaVuSans-36" transform="translate(1157.324219 0.015625)"/>
     <use xlink:href="#DejaVuSans-33" transform="translate(1220.947266 0.015625)"/>
     <use xlink:href="#DejaVuSans-2e" transform="translate(1284.570312 0.015625)"/>
     <use xlink:href="#DejaVuSans-31" transform="translate(1316.357422 0.015625)"/>
     <use xlink:href="#DejaVuSans-31" transform="translate(1379.980469 0.015625)"/>
     <use xlink:href="#DejaVuSans-37" transform="translate(1443.603516 0.015625)"/>
     <use xlink:href="#DejaVuSans-35" transform="translate(1507.226562 0.015625)"/>
     <use xlink:href="#DejaVuSans-2c" transform="translate(1570.849609 0.015625)"/>
     <use xlink:href="#DejaVuSans-20" transform="translate(1602.636719 0.015625)"/>
     <use xlink:href="#DejaVuSans-73" transform="translate(1634.423828 0.015625)"/>
     <use xlink:href="#DejaVuSans-63" transform="translate(1686.523438 0.015625)"/>
     <use xlink:href="#DejaVuSans-61" transform="translate(1741.503906 0.015625)"/>
     <use xlink:href="#DejaVuSans-6e" transform="translate(1802.783203 0.015625)"/>
     <use xlink:href="#DejaVuSans-20" transform="translate(1866.162109 0.015625)"/>
     <use xlink:href="#DejaVuSans-74" transform="translate(1897.949219 0.015625)"/>
     <use xlink:href="#DejaVuSans-69" transform="translate(1937.158203 0.015625)"/>
     <use xlink:href="#DejaVuSans-6d" transform="translate(1964.941406 0.015625)"/>
     <use xlink:href="#DejaVuSans-65" transform="translate(2062.353516 0.015625)"/>
     <use xlink:href="#DejaVuSans-20" transform="translate(2123.876953 0.015625)"/>
     <use xlink:href="#DejaVuSans-36" transform="translate(2155.664062 0.015625)"/>
     <use xlink:href="#DejaVuSans-2e" transform="translate(2219.287109 0.015625)"/>
     <use xlink:href="#DejaVuSans-31" transform="translate(2251.074219 0.015625)"/>
     <use xlink:href="#DejaVuSans-37" transform="translate(2314.697266 0.015625)"/>
     <use xlink:href="#DejaVuSans-20" transform="translate(2378.320312 0.015625)"/>
     <use xlink:href="#DejaVuSans-6d" transform="translate(2410.107422 0.015625)"/>
     <use xlink:href="#DejaVuSans-69" transform="translate(2507.519531 0.015625)"/>
     <use xlink:href="#DejaVuSans-6e" transform="translate(2535.302734 0.015625)"/>
     <use xlink:href="#DejaVuSans-2e" transform="translate(2598.681641 0.015625)"/>
    </g>
   </g>
  </g>
 </g>
 <defs>
  <clipPath id="p630e933851">
   <rect x="57.6" y="41.472" width="357.12" height="266.112"/>
  </clipPath>
 </defs>
</svg>
