<?xml version="1.0" encoding="utf-8" standalone="no"?>
<!DOCTYPE svg PUBLIC "-//W3C//DTD SVG 1.1//EN"
  "http://www.w3.org/Graphics/SVG/1.1/DTD/svg11.dtd">
<svg xmlns:xlink="http://www.w3.org/1999/xlink" width="460.8pt" height="345.6pt" viewBox="0 0 460.8 345.6" xmlns="http://www.w3.org/2000/svg" version="1.1">
 <metadata>
  <rdf:RDF xmlns:dc="http://purl.org/dc/elements/1.1/" xmlns:cc="http://creativecommons.org/ns#" xmlns:rdf="http://www.w3.org/1999/02/22-rdf-syntax-ns#">
   <cc:Work>
    <dc:type rdf:resource="http://purl.org/dc/dcmitype/StillImage"/>
    <dc:date>2025-01-11T13:58:53.921535</dc:date>
    <dc:format>image/svg+xml</dc:format>
    <dc:creator>
     <cc:Agent>
      <dc:title>Matplotlib v3.7.3, https://matplotlib.org/</dc:title>
     </cc:Agent>
    </dc:creator>
   </cc:Work>
  </rdf:RDF>
 </metadata>
 <defs>
  <style type="text/css">*{stroke-linejoin: round; stroke-linecap: butt}</style>
 </defs>
 <g id="figure_1">
  <g id="patch_1">
   <path d="M 0 345.6 
L 460.8 345.6 
L 460.8 0 
L 0 0 
z
" style="fill: #ffffff"/>
  </g>
  <g id="axes_1">
   <g id="patch_2">
    <path d="M 57.6 307.584 
L 414.72 307.584 
L 414.72 41.472 
L 57.6 41.472 
z
" style="fill: #ffffff"/>
   </g>
   <g id="patch_3">
    <path d="M 73.832727 307.584 
L 74.667455 307.584 
L 74.667455 306.566997 
L 73.832727 306.566997 
z
" clip-path="url(#pcdd0b1d94a)" style="fill: #1f77b4"/>
   </g>
   <g id="patch_4">
    <path d="M 75.985977 307.584 
L 76.820705 307.584 
L 76.820705 305.264042 
L 75.985977 305.264042 
z
" clip-path="url(#pcdd0b1d94a)" style="fill: #1f77b4"/>
   </g>
   <g id="patch_5">
    <path d="M 76.177573 307.584 
L 77.0123 307.584 
L 77.0123 305.360578 
L 76.177573 305.360578 
z
" clip-path="url(#pcdd0b1d94a)" style="fill: #1f77b4"/>
   </g>
   <g id="patch_6">
    <path d="M 77.253895 307.584 
L 78.088623 307.584 
L 78.088623 303.544895 
L 77.253895 303.544895 
z
" clip-path="url(#pcdd0b1d94a)" style="fill: #1f77b4"/>
   </g>
   <g id="patch_7">
    <path d="M 78.280739 307.584 
L 79.115466 307.584 
L 79.115466 305.650575 
L 78.280739 305.650575 
z
" clip-path="url(#pcdd0b1d94a)" style="fill: #1f77b4"/>
   </g>
   <g id="patch_8">
    <path d="M 80.345893 307.584 
L 81.18062 307.584 
L 81.18062 305.870443 
L 80.345893 305.870443 
z
" clip-path="url(#pcdd0b1d94a)" style="fill: #1f77b4"/>
   </g>
   <g id="patch_9">
    <path d="M 80.383769 307.584 
L 81.218497 307.584 
L 81.218497 305.507968 
L 80.383769 305.507968 
z
" clip-path="url(#pcdd0b1d94a)" style="fill: #1f77b4"/>
   </g>
   <g id="patch_10">
    <path d="M 81.029993 307.584 
L 81.864721 307.584 
L 81.864721 306.164947 
L 81.029993 306.164947 
z
" clip-path="url(#pcdd0b1d94a)" style="fill: #1f77b4"/>
   </g>
   <g id="patch_11">
    <path d="M 83.623504 307.584 
L 84.458231 307.584 
L 84.458231 306.052536 
L 83.623504 306.052536 
z
" clip-path="url(#pcdd0b1d94a)" style="fill: #1f77b4"/>
   </g>
   <g id="patch_12">
    <path d="M 86.633284 307.584 
L 87.468012 307.584 
L 87.468012 305.070335 
L 86.633284 305.070335 
z
" clip-path="url(#pcdd0b1d94a)" style="fill: #1f77b4"/>
   </g>
   <g id="patch_13">
    <path d="M 88.698315 307.584 
L 89.533043 307.584 
L 89.533043 300.54295 
L 88.698315 300.54295 
z
" clip-path="url(#pcdd0b1d94a)" style="fill: #1f77b4"/>
   </g>
   <g id="patch_14">
    <path d="M 89.774745 307.584 
L 90.609473 307.584 
L 90.609473 299.832653 
L 89.774745 299.832653 
z
" clip-path="url(#pcdd0b1d94a)" style="fill: #1f77b4"/>
   </g>
   <g id="patch_15">
    <path d="M 99.154111 307.584 
L 99.988838 307.584 
L 99.988838 306.434659 
L 99.154111 306.434659 
z
" clip-path="url(#pcdd0b1d94a)" style="fill: #1f77b4"/>
   </g>
   <g id="patch_16">
    <path d="M 106.817039 307.584 
L 107.651767 307.584 
L 107.651767 306.488974 
L 106.817039 306.488974 
z
" clip-path="url(#pcdd0b1d94a)" style="fill: #1f77b4"/>
   </g>
   <g id="patch_17">
    <path d="M 108.309624 307.584 
L 109.144352 307.584 
L 109.144352 306.343066 
L 108.309624 306.343066 
z
" clip-path="url(#pcdd0b1d94a)" style="fill: #1f77b4"/>
   </g>
   <g id="patch_18">
    <path d="M 108.393218 307.584 
L 109.227946 307.584 
L 109.227946 306.574406 
L 108.393218 306.574406 
z
" clip-path="url(#pcdd0b1d94a)" style="fill: #1f77b4"/>
   </g>
   <g id="patch_19">
    <path d="M 111.674586 307.584 
L 112.509314 307.584 
L 112.509314 304.952376 
L 111.674586 304.952376 
z
" clip-path="url(#pcdd0b1d94a)" style="fill: #1f77b4"/>
   </g>
   <g id="patch_20">
    <path d="M 113.7779 307.584 
L 114.612627 307.584 
L 114.612627 302.77833 
L 113.7779 302.77833 
z
" clip-path="url(#pcdd0b1d94a)" style="fill: #1f77b4"/>
   </g>
   <g id="patch_21">
    <path d="M 114.185641 307.584 
L 115.020368 307.584 
L 115.020368 306.114464 
L 114.185641 306.114464 
z
" clip-path="url(#pcdd0b1d94a)" style="fill: #1f77b4"/>
   </g>
   <g id="patch_22">
    <path d="M 114.237504 307.584 
L 115.072232 307.584 
L 115.072232 306.541692 
L 114.237504 306.541692 
z
" clip-path="url(#pcdd0b1d94a)" style="fill: #1f77b4"/>
   </g>
   <g id="patch_23">
    <path d="M 114.242662 307.584 
L 115.07739 307.584 
L 115.07739 303.258922 
L 114.242662 303.258922 
z
" clip-path="url(#pcdd0b1d94a)" style="fill: #1f77b4"/>
   </g>
   <g id="patch_24">
    <path d="M 114.816374 307.584 
L 115.651101 307.584 
L 115.651101 303.028006 
L 114.816374 303.028006 
z
" clip-path="url(#pcdd0b1d94a)" style="fill: #1f77b4"/>
   </g>
   <g id="patch_25">
    <path d="M 118.984654 307.584 
L 119.819382 307.584 
L 119.819382 304.687409 
L 118.984654 304.687409 
z
" clip-path="url(#pcdd0b1d94a)" style="fill: #1f77b4"/>
   </g>
   <g id="patch_26">
    <path d="M 119.846833 307.584 
L 120.681561 307.584 
L 120.681561 306.310817 
L 119.846833 306.310817 
z
" clip-path="url(#pcdd0b1d94a)" style="fill: #1f77b4"/>
   </g>
   <g id="patch_27">
    <path d="M 121.087665 307.584 
L 121.922392 307.584 
L 121.922392 298.630828 
L 121.087665 298.630828 
z
" clip-path="url(#pcdd0b1d94a)" style="fill: #1f77b4"/>
   </g>
   <g id="patch_28">
    <path d="M 122.114461 307.584 
L 122.949188 307.584 
L 122.949188 304.238372 
L 122.114461 304.238372 
z
" clip-path="url(#pcdd0b1d94a)" style="fill: #1f77b4"/>
   </g>
   <g id="patch_29">
    <path d="M 125.256033 307.584 
L 126.09076 307.584 
L 126.09076 159.258018 
L 125.256033 159.258018 
z
" clip-path="url(#pcdd0b1d94a)" style="fill: #1f77b4"/>
   </g>
   <g id="patch_30">
    <path d="M 125.263317 307.584 
L 126.098044 307.584 
L 126.098044 304.699071 
L 125.263317 304.699071 
z
" clip-path="url(#pcdd0b1d94a)" style="fill: #1f77b4"/>
   </g>
   <g id="patch_31">
    <path d="M 126.297468 307.584 
L 127.132196 307.584 
L 127.132196 305.731174 
L 126.297468 305.731174 
z
" clip-path="url(#pcdd0b1d94a)" style="fill: #1f77b4"/>
   </g>
   <g id="patch_32">
    <path d="M 126.303805 307.584 
L 127.138532 307.584 
L 127.138532 305.230181 
L 126.303805 305.230181 
z
" clip-path="url(#pcdd0b1d94a)" style="fill: #1f77b4"/>
   </g>
   <g id="patch_33">
    <path d="M 127.337041 307.584 
L 128.171768 307.584 
L 128.171768 305.221507 
L 127.337041 305.221507 
z
" clip-path="url(#pcdd0b1d94a)" style="fill: #1f77b4"/>
   </g>
   <g id="patch_34">
    <path d="M 131.11503 307.584 
L 131.949757 307.584 
L 131.949757 306.112323 
L 131.11503 306.112323 
z
" clip-path="url(#pcdd0b1d94a)" style="fill: #1f77b4"/>
   </g>
   <g id="patch_35">
    <path d="M 133.608356 307.584 
L 134.443083 307.584 
L 134.443083 305.194554 
L 133.608356 305.194554 
z
" clip-path="url(#pcdd0b1d94a)" style="fill: #1f77b4"/>
   </g>
   <g id="patch_36">
    <path d="M 135.673713 307.584 
L 136.508441 307.584 
L 136.508441 304.844143 
L 135.673713 304.844143 
z
" clip-path="url(#pcdd0b1d94a)" style="fill: #1f77b4"/>
   </g>
   <g id="patch_37">
    <path d="M 137.754991 307.584 
L 138.589719 307.584 
L 138.589719 299.596899 
L 137.754991 299.596899 
z
" clip-path="url(#pcdd0b1d94a)" style="fill: #1f77b4"/>
   </g>
   <g id="patch_38">
    <path d="M 138.819417 307.584 
L 139.654144 307.584 
L 139.654144 304.064479 
L 138.819417 304.064479 
z
" clip-path="url(#pcdd0b1d94a)" style="fill: #1f77b4"/>
   </g>
   <g id="patch_39">
    <path d="M 139.857787 307.584 
L 140.692515 307.584 
L 140.692515 298.764616 
L 139.857787 298.764616 
z
" clip-path="url(#pcdd0b1d94a)" style="fill: #1f77b4"/>
   </g>
   <g id="patch_40">
    <path d="M 140.909157 307.584 
L 141.743885 307.584 
L 141.743885 304.500524 
L 140.909157 304.500524 
z
" clip-path="url(#pcdd0b1d94a)" style="fill: #1f77b4"/>
   </g>
   <g id="patch_41">
    <path d="M 141.961148 307.584 
L 142.795876 307.584 
L 142.795876 304.370875 
L 141.961148 304.370875 
z
" clip-path="url(#pcdd0b1d94a)" style="fill: #1f77b4"/>
   </g>
   <g id="patch_42">
    <path d="M 144.026219 307.584 
L 144.860947 307.584 
L 144.860947 303.338087 
L 144.026219 303.338087 
z
" clip-path="url(#pcdd0b1d94a)" style="fill: #1f77b4"/>
   </g>
   <g id="patch_43">
    <path d="M 150.297415 307.584 
L 151.132142 307.584 
L 151.132142 304.485407 
L 150.297415 304.485407 
z
" clip-path="url(#pcdd0b1d94a)" style="fill: #1f77b4"/>
   </g>
   <g id="patch_44">
    <path d="M 152.378542 307.584 
L 153.213269 307.584 
L 153.213269 295.081812 
L 152.378542 295.081812 
z
" clip-path="url(#pcdd0b1d94a)" style="fill: #1f77b4"/>
   </g>
   <g id="patch_45">
    <path d="M 152.391884 307.584 
L 153.226611 307.584 
L 153.226611 305.433147 
L 152.391884 305.433147 
z
" clip-path="url(#pcdd0b1d94a)" style="fill: #1f77b4"/>
   </g>
   <g id="patch_46">
    <path d="M 152.400768 307.584 
L 153.235495 307.584 
L 153.235495 303.45045 
L 152.400768 303.45045 
z
" clip-path="url(#pcdd0b1d94a)" style="fill: #1f77b4"/>
   </g>
   <g id="patch_47">
    <path d="M 153.42988 307.584 
L 154.264608 307.584 
L 154.264608 304.284745 
L 153.42988 304.284745 
z
" clip-path="url(#pcdd0b1d94a)" style="fill: #1f77b4"/>
   </g>
   <g id="patch_48">
    <path d="M 153.443365 307.584 
L 154.278093 307.584 
L 154.278093 306.180958 
L 153.443365 306.180958 
z
" clip-path="url(#pcdd0b1d94a)" style="fill: #1f77b4"/>
   </g>
   <g id="patch_49">
    <path d="M 154.443708 307.584 
L 155.278436 307.584 
L 155.278436 305.38473 
L 154.443708 305.38473 
z
" clip-path="url(#pcdd0b1d94a)" style="fill: #1f77b4"/>
   </g>
   <g id="patch_50">
    <path d="M 154.466029 307.584 
L 155.300757 307.584 
L 155.300757 305.186185 
L 154.466029 305.186185 
z
" clip-path="url(#pcdd0b1d94a)" style="fill: #1f77b4"/>
   </g>
   <g id="patch_51">
    <path d="M 154.481696 307.584 
L 155.316423 307.584 
L 155.316423 267.29439 
L 154.481696 267.29439 
z
" clip-path="url(#pcdd0b1d94a)" style="fill: #1f77b4"/>
   </g>
   <g id="patch_52">
    <path d="M 155.528926 307.584 
L 156.363654 307.584 
L 156.363654 306.277285 
L 155.528926 306.277285 
z
" clip-path="url(#pcdd0b1d94a)" style="fill: #1f77b4"/>
   </g>
   <g id="patch_53">
    <path d="M 156.546846 307.584 
L 157.381574 307.584 
L 157.381574 297.412947 
L 156.546846 297.412947 
z
" clip-path="url(#pcdd0b1d94a)" style="fill: #1f77b4"/>
   </g>
   <g id="patch_54">
    <path d="M 158.650287 307.584 
L 159.485014 307.584 
L 159.485014 306.00135 
L 158.650287 306.00135 
z
" clip-path="url(#pcdd0b1d94a)" style="fill: #1f77b4"/>
   </g>
   <g id="patch_55">
    <path d="M 159.664019 307.584 
L 160.498747 307.584 
L 160.498747 306.46939 
L 159.664019 306.46939 
z
" clip-path="url(#pcdd0b1d94a)" style="fill: #1f77b4"/>
   </g>
   <g id="patch_56">
    <path d="M 160.715087 307.584 
L 161.549814 307.584 
L 161.549814 294.632989 
L 160.715087 294.632989 
z
" clip-path="url(#pcdd0b1d94a)" style="fill: #1f77b4"/>
   </g>
   <g id="patch_57">
    <path d="M 162.938493 307.584 
L 163.773221 307.584 
L 163.773221 306.432502 
L 162.938493 306.432502 
z
" clip-path="url(#pcdd0b1d94a)" style="fill: #1f77b4"/>
   </g>
   <g id="patch_58">
    <path d="M 164.899217 307.584 
L 165.733944 307.584 
L 165.733944 288.668758 
L 164.899217 288.668758 
z
" clip-path="url(#pcdd0b1d94a)" style="fill: #1f77b4"/>
   </g>
   <g id="patch_59">
    <path d="M 164.921761 307.584 
L 165.756489 307.584 
L 165.756489 304.183045 
L 164.921761 304.183045 
z
" clip-path="url(#pcdd0b1d94a)" style="fill: #1f77b4"/>
   </g>
   <g id="patch_60">
    <path d="M 165.950746 307.584 
L 166.785474 307.584 
L 166.785474 303.863461 
L 165.950746 303.863461 
z
" clip-path="url(#pcdd0b1d94a)" style="fill: #1f77b4"/>
   </g>
   <g id="patch_61">
    <path d="M 166.964399 307.584 
L 167.799126 307.584 
L 167.799126 306.433155 
L 166.964399 306.433155 
z
" clip-path="url(#pcdd0b1d94a)" style="fill: #1f77b4"/>
   </g>
   <g id="patch_62">
    <path d="M 167.002482 307.584 
L 167.83721 307.584 
L 167.83721 294.897489 
L 167.002482 294.897489 
z
" clip-path="url(#pcdd0b1d94a)" style="fill: #1f77b4"/>
   </g>
   <g id="patch_63">
    <path d="M 168.016024 307.584 
L 168.850751 307.584 
L 168.850751 298.829487 
L 168.016024 298.829487 
z
" clip-path="url(#pcdd0b1d94a)" style="fill: #1f77b4"/>
   </g>
   <g id="patch_64">
    <path d="M 168.053916 307.584 
L 168.888644 307.584 
L 168.888644 305.61038 
L 168.053916 305.61038 
z
" clip-path="url(#pcdd0b1d94a)" style="fill: #1f77b4"/>
   </g>
   <g id="patch_65">
    <path d="M 169.068015 307.584 
L 169.902742 307.584 
L 169.902742 296.311258 
L 169.068015 296.311258 
z
" clip-path="url(#pcdd0b1d94a)" style="fill: #1f77b4"/>
   </g>
   <g id="patch_66">
    <path d="M 169.090018 307.584 
L 169.924745 307.584 
L 169.924745 304.09412 
L 169.090018 304.09412 
z
" clip-path="url(#pcdd0b1d94a)" style="fill: #1f77b4"/>
   </g>
   <g id="patch_67">
    <path d="M 169.105923 307.584 
L 169.94065 307.584 
L 169.94065 303.772006 
L 169.105923 303.772006 
z
" clip-path="url(#pcdd0b1d94a)" style="fill: #1f77b4"/>
   </g>
   <g id="patch_68">
    <path d="M 171.133611 307.584 
L 171.968338 307.584 
L 171.968338 305.748732 
L 171.133611 305.748732 
z
" clip-path="url(#pcdd0b1d94a)" style="fill: #1f77b4"/>
   </g>
   <g id="patch_69">
    <path d="M 171.170866 307.584 
L 172.005594 307.584 
L 172.005594 289.530345 
L 171.170866 289.530345 
z
" clip-path="url(#pcdd0b1d94a)" style="fill: #1f77b4"/>
   </g>
   <g id="patch_70">
    <path d="M 173.236128 307.584 
L 174.070855 307.584 
L 174.070855 305.626938 
L 173.236128 305.626938 
z
" clip-path="url(#pcdd0b1d94a)" style="fill: #1f77b4"/>
   </g>
   <g id="patch_71">
    <path d="M 175.339521 307.584 
L 176.174248 307.584 
L 176.174248 297.547052 
L 175.339521 297.547052 
z
" clip-path="url(#pcdd0b1d94a)" style="fill: #1f77b4"/>
   </g>
   <g id="patch_72">
    <path d="M 177.420417 307.584 
L 178.255145 307.584 
L 178.255145 303.611981 
L 177.420417 303.611981 
z
" clip-path="url(#pcdd0b1d94a)" style="fill: #1f77b4"/>
   </g>
   <g id="patch_73">
    <path d="M 179.485472 307.584 
L 180.320199 307.584 
L 180.320199 304.634439 
L 179.485472 304.634439 
z
" clip-path="url(#pcdd0b1d94a)" style="fill: #1f77b4"/>
   </g>
   <g id="patch_74">
    <path d="M 179.52346 307.584 
L 180.358187 307.584 
L 180.358187 303.811606 
L 179.52346 303.811606 
z
" clip-path="url(#pcdd0b1d94a)" style="fill: #1f77b4"/>
   </g>
   <g id="patch_75">
    <path d="M 180.561854 307.584 
L 181.396582 307.584 
L 181.396582 304.926678 
L 180.561854 304.926678 
z
" clip-path="url(#pcdd0b1d94a)" style="fill: #1f77b4"/>
   </g>
   <g id="patch_76">
    <path d="M 181.588626 307.584 
L 182.423353 307.584 
L 182.423353 289.388768 
L 181.588626 289.388768 
z
" clip-path="url(#pcdd0b1d94a)" style="fill: #1f77b4"/>
   </g>
   <g id="patch_77">
    <path d="M 181.610613 307.584 
L 182.445341 307.584 
L 182.445341 302.204976 
L 181.610613 302.204976 
z
" clip-path="url(#pcdd0b1d94a)" style="fill: #1f77b4"/>
   </g>
   <g id="patch_78">
    <path d="M 181.625356 307.584 
L 182.460084 307.584 
L 182.460084 305.741723 
L 181.625356 305.741723 
z
" clip-path="url(#pcdd0b1d94a)" style="fill: #1f77b4"/>
   </g>
   <g id="patch_79">
    <path d="M 182.640251 307.584 
L 183.474978 307.584 
L 183.474978 299.865324 
L 182.640251 299.865324 
z
" clip-path="url(#pcdd0b1d94a)" style="fill: #1f77b4"/>
   </g>
   <g id="patch_80">
    <path d="M 182.66539 307.584 
L 183.500118 307.584 
L 183.500118 305.221252 
L 182.66539 305.221252 
z
" clip-path="url(#pcdd0b1d94a)" style="fill: #1f77b4"/>
   </g>
   <g id="patch_81">
    <path d="M 183.691748 307.584 
L 184.526476 307.584 
L 184.526476 281.364539 
L 183.691748 281.364539 
z
" clip-path="url(#pcdd0b1d94a)" style="fill: #1f77b4"/>
   </g>
   <g id="patch_82">
    <path d="M 183.715089 307.584 
L 184.549816 307.584 
L 184.549816 306.235782 
L 183.715089 306.235782 
z
" clip-path="url(#pcdd0b1d94a)" style="fill: #1f77b4"/>
   </g>
   <g id="patch_83">
    <path d="M 184.140391 307.584 
L 184.975118 307.584 
L 184.975118 306.561668 
L 184.140391 306.561668 
z
" clip-path="url(#pcdd0b1d94a)" style="fill: #1f77b4"/>
   </g>
   <g id="patch_84">
    <path d="M 184.70486 307.584 
L 185.539587 307.584 
L 185.539587 305.024022 
L 184.70486 305.024022 
z
" clip-path="url(#pcdd0b1d94a)" style="fill: #1f77b4"/>
   </g>
   <g id="patch_85">
    <path d="M 184.72949 307.584 
L 185.564217 307.584 
L 185.564217 305.739283 
L 184.72949 305.739283 
z
" clip-path="url(#pcdd0b1d94a)" style="fill: #1f77b4"/>
   </g>
   <g id="patch_86">
    <path d="M 184.742656 307.584 
L 185.577384 307.584 
L 185.577384 305.551954 
L 184.742656 305.551954 
z
" clip-path="url(#pcdd0b1d94a)" style="fill: #1f77b4"/>
   </g>
   <g id="patch_87">
    <path d="M 185.756866 307.584 
L 186.591594 307.584 
L 186.591594 293.456301 
L 185.756866 293.456301 
z
" clip-path="url(#pcdd0b1d94a)" style="fill: #1f77b4"/>
   </g>
   <g id="patch_88">
    <path d="M 185.795014 307.584 
L 186.629741 307.584 
L 186.629741 304.240331 
L 185.795014 304.240331 
z
" clip-path="url(#pcdd0b1d94a)" style="fill: #1f77b4"/>
   </g>
   <g id="patch_89">
    <path d="M 187.860482 307.584 
L 188.69521 307.584 
L 188.69521 305.987834 
L 187.860482 305.987834 
z
" clip-path="url(#pcdd0b1d94a)" style="fill: #1f77b4"/>
   </g>
   <g id="patch_90">
    <path d="M 193.083261 307.584 
L 193.917989 307.584 
L 193.917989 305.83394 
L 193.083261 305.83394 
z
" clip-path="url(#pcdd0b1d94a)" style="fill: #1f77b4"/>
   </g>
   <g id="patch_91">
    <path d="M 194.109715 307.584 
L 194.944442 307.584 
L 194.944442 296.679464 
L 194.109715 296.679464 
z
" clip-path="url(#pcdd0b1d94a)" style="fill: #1f77b4"/>
   </g>
   <g id="patch_92">
    <path d="M 194.131622 307.584 
L 194.96635 307.584 
L 194.96635 302.331754 
L 194.131622 302.331754 
z
" clip-path="url(#pcdd0b1d94a)" style="fill: #1f77b4"/>
   </g>
   <g id="patch_93">
    <path d="M 194.146636 307.584 
L 194.981364 307.584 
L 194.981364 305.974933 
L 194.146636 305.974933 
z
" clip-path="url(#pcdd0b1d94a)" style="fill: #1f77b4"/>
   </g>
   <g id="patch_94">
    <path d="M 195.146995 307.584 
L 195.981722 307.584 
L 195.981722 305.601339 
L 195.146995 305.601339 
z
" clip-path="url(#pcdd0b1d94a)" style="fill: #1f77b4"/>
   </g>
   <g id="patch_95">
    <path d="M 195.160798 307.584 
L 195.995526 307.584 
L 195.995526 304.552492 
L 195.160798 304.552492 
z
" clip-path="url(#pcdd0b1d94a)" style="fill: #1f77b4"/>
   </g>
   <g id="patch_96">
    <path d="M 195.185731 307.584 
L 196.020458 307.584 
L 196.020458 304.001622 
L 195.185731 304.001622 
z
" clip-path="url(#pcdd0b1d94a)" style="fill: #1f77b4"/>
   </g>
   <g id="patch_97">
    <path d="M 196.174451 307.584 
L 197.009179 307.584 
L 197.009179 294.355608 
L 196.174451 294.355608 
z
" clip-path="url(#pcdd0b1d94a)" style="fill: #1f77b4"/>
   </g>
   <g id="patch_98">
    <path d="M 196.212391 307.584 
L 197.047119 307.584 
L 197.047119 303.66607 
L 196.212391 303.66607 
z
" clip-path="url(#pcdd0b1d94a)" style="fill: #1f77b4"/>
   </g>
   <g id="patch_99">
    <path d="M 196.234474 307.584 
L 197.069201 307.584 
L 197.069201 301.299369 
L 196.234474 301.299369 
z
" clip-path="url(#pcdd0b1d94a)" style="fill: #1f77b4"/>
   </g>
   <g id="patch_100">
    <path d="M 197.22493 307.584 
L 198.059657 307.584 
L 198.059657 305.21731 
L 197.22493 305.21731 
z
" clip-path="url(#pcdd0b1d94a)" style="fill: #1f77b4"/>
   </g>
   <g id="patch_101">
    <path d="M 198.277939 307.584 
L 199.112667 307.584 
L 199.112667 298.087534 
L 198.277939 298.087534 
z
" clip-path="url(#pcdd0b1d94a)" style="fill: #1f77b4"/>
   </g>
   <g id="patch_102">
    <path d="M 198.301805 307.584 
L 199.136533 307.584 
L 199.136533 305.774274 
L 198.301805 305.774274 
z
" clip-path="url(#pcdd0b1d94a)" style="fill: #1f77b4"/>
   </g>
   <g id="patch_103">
    <path d="M 198.315593 307.584 
L 199.150321 307.584 
L 199.150321 305.14771 
L 198.315593 305.14771 
z
" clip-path="url(#pcdd0b1d94a)" style="fill: #1f77b4"/>
   </g>
   <g id="patch_104">
    <path d="M 199.328211 307.584 
L 200.162939 307.584 
L 200.162939 306.35357 
L 199.328211 306.35357 
z
" clip-path="url(#pcdd0b1d94a)" style="fill: #1f77b4"/>
   </g>
   <g id="patch_105">
    <path d="M 200.381364 307.584 
L 201.216092 307.584 
L 201.216092 302.514139 
L 200.381364 302.514139 
z
" clip-path="url(#pcdd0b1d94a)" style="fill: #1f77b4"/>
   </g>
   <g id="patch_106">
    <path d="M 202.483133 307.584 
L 203.317861 307.584 
L 203.317861 304.982274 
L 202.483133 304.982274 
z
" clip-path="url(#pcdd0b1d94a)" style="fill: #1f77b4"/>
   </g>
   <g id="patch_107">
    <path d="M 204.54927 307.584 
L 205.383998 307.584 
L 205.383998 305.137221 
L 204.54927 305.137221 
z
" clip-path="url(#pcdd0b1d94a)" style="fill: #1f77b4"/>
   </g>
   <g id="patch_108">
    <path d="M 205.601882 307.584 
L 206.43661 307.584 
L 206.43661 306.084289 
L 205.601882 306.084289 
z
" clip-path="url(#pcdd0b1d94a)" style="fill: #1f77b4"/>
   </g>
   <g id="patch_109">
    <path d="M 207.197772 307.584 
L 208.0325 307.584 
L 208.0325 306.510193 
L 207.197772 306.510193 
z
" clip-path="url(#pcdd0b1d94a)" style="fill: #1f77b4"/>
   </g>
   <g id="patch_110">
    <path d="M 207.70682 307.584 
L 208.541547 307.584 
L 208.541547 300.423977 
L 207.70682 300.423977 
z
" clip-path="url(#pcdd0b1d94a)" style="fill: #1f77b4"/>
   </g>
   <g id="patch_111">
    <path d="M 208.735088 307.584 
L 209.569816 307.584 
L 209.569816 305.800448 
L 208.735088 305.800448 
z
" clip-path="url(#pcdd0b1d94a)" style="fill: #1f77b4"/>
   </g>
   <g id="patch_112">
    <path d="M 208.758142 307.584 
L 209.59287 307.584 
L 209.59287 298.283078 
L 208.758142 298.283078 
z
" clip-path="url(#pcdd0b1d94a)" style="fill: #1f77b4"/>
   </g>
   <g id="patch_113">
    <path d="M 209.772591 307.584 
L 210.607318 307.584 
L 210.607318 305.114286 
L 209.772591 305.114286 
z
" clip-path="url(#pcdd0b1d94a)" style="fill: #1f77b4"/>
   </g>
   <g id="patch_114">
    <path d="M 209.810149 307.584 
L 210.644876 307.584 
L 210.644876 273.710278 
L 209.810149 273.710278 
z
" clip-path="url(#pcdd0b1d94a)" style="fill: #1f77b4"/>
   </g>
   <g id="patch_115">
    <path d="M 210.798248 307.584 
L 211.632976 307.584 
L 211.632976 301.805433 
L 210.798248 301.805433 
z
" clip-path="url(#pcdd0b1d94a)" style="fill: #1f77b4"/>
   </g>
   <g id="patch_116">
    <path d="M 210.82342 307.584 
L 211.658147 307.584 
L 211.658147 303.763706 
L 210.82342 303.763706 
z
" clip-path="url(#pcdd0b1d94a)" style="fill: #1f77b4"/>
   </g>
   <g id="patch_117">
    <path d="M 210.858096 307.584 
L 211.692823 307.584 
L 211.692823 304.184055 
L 210.858096 304.184055 
z
" clip-path="url(#pcdd0b1d94a)" style="fill: #1f77b4"/>
   </g>
   <g id="patch_118">
    <path d="M 211.849809 307.584 
L 212.684537 307.584 
L 212.684537 306.093599 
L 211.849809 306.093599 
z
" clip-path="url(#pcdd0b1d94a)" style="fill: #1f77b4"/>
   </g>
   <g id="patch_119">
    <path d="M 211.874869 307.584 
L 212.709597 307.584 
L 212.709597 303.675885 
L 211.874869 303.675885 
z
" clip-path="url(#pcdd0b1d94a)" style="fill: #1f77b4"/>
   </g>
   <g id="patch_120">
    <path d="M 212.90196 307.584 
L 213.736687 307.584 
L 213.736687 286.205869 
L 212.90196 286.205869 
z
" clip-path="url(#pcdd0b1d94a)" style="fill: #1f77b4"/>
   </g>
   <g id="patch_121">
    <path d="M 213.952629 307.584 
L 214.787357 307.584 
L 214.787357 306.083808 
L 213.952629 306.083808 
z
" clip-path="url(#pcdd0b1d94a)" style="fill: #1f77b4"/>
   </g>
   <g id="patch_122">
    <path d="M 214.966823 307.584 
L 215.801551 307.584 
L 215.801551 298.207935 
L 214.966823 298.207935 
z
" clip-path="url(#pcdd0b1d94a)" style="fill: #1f77b4"/>
   </g>
   <g id="patch_123">
    <path d="M 215.005575 307.584 
L 215.840303 307.584 
L 215.840303 303.736172 
L 215.005575 303.736172 
z
" clip-path="url(#pcdd0b1d94a)" style="fill: #1f77b4"/>
   </g>
   <g id="patch_124">
    <path d="M 217.070821 307.584 
L 217.905549 307.584 
L 217.905549 306.204627 
L 217.070821 306.204627 
z
" clip-path="url(#pcdd0b1d94a)" style="fill: #1f77b4"/>
   </g>
   <g id="patch_125">
    <path d="M 219.172749 307.584 
L 220.007477 307.584 
L 220.007477 302.078564 
L 219.172749 302.078564 
z
" clip-path="url(#pcdd0b1d94a)" style="fill: #1f77b4"/>
   </g>
   <g id="patch_126">
    <path d="M 221.238855 307.584 
L 222.073582 307.584 
L 222.073582 305.991872 
L 221.238855 305.991872 
z
" clip-path="url(#pcdd0b1d94a)" style="fill: #1f77b4"/>
   </g>
   <g id="patch_127">
    <path d="M 222.269718 307.584 
L 223.104446 307.584 
L 223.104446 306.478728 
L 222.269718 306.478728 
z
" clip-path="url(#pcdd0b1d94a)" style="fill: #1f77b4"/>
   </g>
   <g id="patch_128">
    <path d="M 222.293059 307.584 
L 223.127786 307.584 
L 223.127786 300.173216 
L 222.293059 300.173216 
z
" clip-path="url(#pcdd0b1d94a)" style="fill: #1f77b4"/>
   </g>
   <g id="patch_129">
    <path d="M 223.319703 307.584 
L 224.154431 307.584 
L 224.154431 290.192812 
L 223.319703 290.192812 
z
" clip-path="url(#pcdd0b1d94a)" style="fill: #1f77b4"/>
   </g>
   <g id="patch_130">
    <path d="M 223.341611 307.584 
L 224.176338 307.584 
L 224.176338 295.00768 
L 223.341611 295.00768 
z
" clip-path="url(#pcdd0b1d94a)" style="fill: #1f77b4"/>
   </g>
   <g id="patch_131">
    <path d="M 223.358248 307.584 
L 224.192976 307.584 
L 224.192976 305.159248 
L 223.358248 305.159248 
z
" clip-path="url(#pcdd0b1d94a)" style="fill: #1f77b4"/>
   </g>
   <g id="patch_132">
    <path d="M 224.395528 307.584 
L 225.230256 307.584 
L 225.230256 304.197622 
L 224.395528 304.197622 
z
" clip-path="url(#pcdd0b1d94a)" style="fill: #1f77b4"/>
   </g>
   <g id="patch_133">
    <path d="M 224.411354 307.584 
L 225.246081 307.584 
L 225.246081 305.259649 
L 224.411354 305.259649 
z
" clip-path="url(#pcdd0b1d94a)" style="fill: #1f77b4"/>
   </g>
   <g id="patch_134">
    <path d="M 224.432975 307.584 
L 225.267702 307.584 
L 225.267702 305.760078 
L 224.432975 305.760078 
z
" clip-path="url(#pcdd0b1d94a)" style="fill: #1f77b4"/>
   </g>
   <g id="patch_135">
    <path d="M 225.38514 307.584 
L 226.219868 307.584 
L 226.219868 285.959289 
L 225.38514 285.959289 
z
" clip-path="url(#pcdd0b1d94a)" style="fill: #1f77b4"/>
   </g>
   <g id="patch_136">
    <path d="M 225.422826 307.584 
L 226.257553 307.584 
L 226.257553 305.883449 
L 225.422826 305.883449 
z
" clip-path="url(#pcdd0b1d94a)" style="fill: #1f77b4"/>
   </g>
   <g id="patch_137">
    <path d="M 225.44451 307.584 
L 226.279238 307.584 
L 226.279238 306.368601 
L 225.44451 306.368601 
z
" clip-path="url(#pcdd0b1d94a)" style="fill: #1f77b4"/>
   </g>
   <g id="patch_138">
    <path d="M 225.461912 307.584 
L 226.29664 307.584 
L 226.29664 305.200828 
L 225.461912 305.200828 
z
" clip-path="url(#pcdd0b1d94a)" style="fill: #1f77b4"/>
   </g>
   <g id="patch_139">
    <path d="M 226.431909 307.584 
L 227.266637 307.584 
L 227.266637 306.101265 
L 226.431909 306.101265 
z
" clip-path="url(#pcdd0b1d94a)" style="fill: #1f77b4"/>
   </g>
   <g id="patch_140">
    <path d="M 226.448865 307.584 
L 227.283593 307.584 
L 227.283593 306.250609 
L 226.448865 306.250609 
z
" clip-path="url(#pcdd0b1d94a)" style="fill: #1f77b4"/>
   </g>
   <g id="patch_141">
    <path d="M 226.498969 307.584 
L 227.333697 307.584 
L 227.333697 290.886922 
L 226.498969 290.886922 
z
" clip-path="url(#pcdd0b1d94a)" style="fill: #1f77b4"/>
   </g>
   <g id="patch_142">
    <path d="M 227.512606 307.584 
L 228.347333 307.584 
L 228.347333 302.222234 
L 227.512606 302.222234 
z
" clip-path="url(#pcdd0b1d94a)" style="fill: #1f77b4"/>
   </g>
   <g id="patch_143">
    <path d="M 227.526298 307.584 
L 228.361026 307.584 
L 228.361026 302.309607 
L 227.526298 302.309607 
z
" clip-path="url(#pcdd0b1d94a)" style="fill: #1f77b4"/>
   </g>
   <g id="patch_144">
    <path d="M 227.550323 307.584 
L 228.385051 307.584 
L 228.385051 304.517627 
L 227.550323 304.517627 
z
" clip-path="url(#pcdd0b1d94a)" style="fill: #1f77b4"/>
   </g>
   <g id="patch_145">
    <path d="M 228.539314 307.584 
L 229.374042 307.584 
L 229.374042 304.936929 
L 228.539314 304.936929 
z
" clip-path="url(#pcdd0b1d94a)" style="fill: #1f77b4"/>
   </g>
   <g id="patch_146">
    <path d="M 228.562575 307.584 
L 229.397302 307.584 
L 229.397302 305.557599 
L 228.562575 305.557599 
z
" clip-path="url(#pcdd0b1d94a)" style="fill: #1f77b4"/>
   </g>
   <g id="patch_147">
    <path d="M 229.59105 307.584 
L 230.425778 307.584 
L 230.425778 263.552193 
L 229.59105 263.552193 
z
" clip-path="url(#pcdd0b1d94a)" style="fill: #1f77b4"/>
   </g>
   <g id="patch_148">
    <path d="M 230.639698 307.584 
L 231.474425 307.584 
L 231.474425 304.668078 
L 230.639698 304.668078 
z
" clip-path="url(#pcdd0b1d94a)" style="fill: #1f77b4"/>
   </g>
   <g id="patch_149">
    <path d="M 231.694395 307.584 
L 232.529123 307.584 
L 232.529123 303.735839 
L 231.694395 303.735839 
z
" clip-path="url(#pcdd0b1d94a)" style="fill: #1f77b4"/>
   </g>
   <g id="patch_150">
    <path d="M 236.915948 307.584 
L 237.750676 307.584 
L 237.750676 298.417232 
L 236.915948 298.417232 
z
" clip-path="url(#pcdd0b1d94a)" style="fill: #1f77b4"/>
   </g>
   <g id="patch_151">
    <path d="M 237.968146 307.584 
L 238.802874 307.584 
L 238.802874 291.734782 
L 237.968146 291.734782 
z
" clip-path="url(#pcdd0b1d94a)" style="fill: #1f77b4"/>
   </g>
   <g id="patch_152">
    <path d="M 239.020042 307.584 
L 239.854769 307.584 
L 239.854769 81.347323 
L 239.020042 81.347323 
z
" clip-path="url(#pcdd0b1d94a)" style="fill: #1f77b4"/>
   </g>
   <g id="patch_153">
    <path d="M 240.032771 307.584 
L 240.867499 307.584 
L 240.867499 303.89585 
L 240.032771 303.89585 
z
" clip-path="url(#pcdd0b1d94a)" style="fill: #1f77b4"/>
   </g>
   <g id="patch_154">
    <path d="M 240.069868 307.584 
L 240.904595 307.584 
L 240.904595 260.518922 
L 240.069868 260.518922 
z
" clip-path="url(#pcdd0b1d94a)" style="fill: #1f77b4"/>
   </g>
   <g id="patch_155">
    <path d="M 241.120251 307.584 
L 241.954978 307.584 
L 241.954978 303.40431 
L 241.120251 303.40431 
z
" clip-path="url(#pcdd0b1d94a)" style="fill: #1f77b4"/>
   </g>
   <g id="patch_156">
    <path d="M 242.11354 307.584 
L 242.948268 307.584 
L 242.948268 305.674258 
L 242.11354 305.674258 
z
" clip-path="url(#pcdd0b1d94a)" style="fill: #1f77b4"/>
   </g>
   <g id="patch_157">
    <path d="M 242.134349 307.584 
L 242.969077 307.584 
L 242.969077 300.870568 
L 242.134349 300.870568 
z
" clip-path="url(#pcdd0b1d94a)" style="fill: #1f77b4"/>
   </g>
   <g id="patch_158">
    <path d="M 243.188474 307.584 
L 244.023201 307.584 
L 244.023201 304.532787 
L 243.188474 304.532787 
z
" clip-path="url(#pcdd0b1d94a)" style="fill: #1f77b4"/>
   </g>
   <g id="patch_159">
    <path d="M 244.17834 307.584 
L 245.013068 307.584 
L 245.013068 298.277036 
L 244.17834 298.277036 
z
" clip-path="url(#pcdd0b1d94a)" style="fill: #1f77b4"/>
   </g>
   <g id="patch_160">
    <path d="M 244.215325 307.584 
L 245.050053 307.584 
L 245.050053 298.951298 
L 244.215325 298.951298 
z
" clip-path="url(#pcdd0b1d94a)" style="fill: #1f77b4"/>
   </g>
   <g id="patch_161">
    <path d="M 244.235338 307.584 
L 245.070066 307.584 
L 245.070066 305.71624 
L 244.235338 305.71624 
z
" clip-path="url(#pcdd0b1d94a)" style="fill: #1f77b4"/>
   </g>
   <g id="patch_162">
    <path d="M 245.293172 307.584 
L 246.1279 307.584 
L 246.1279 305.909699 
L 245.293172 305.909699 
z
" clip-path="url(#pcdd0b1d94a)" style="fill: #1f77b4"/>
   </g>
   <g id="patch_163">
    <path d="M 246.28065 307.584 
L 247.115378 307.584 
L 247.115378 305.78084 
L 246.28065 305.78084 
z
" clip-path="url(#pcdd0b1d94a)" style="fill: #1f77b4"/>
   </g>
   <g id="patch_164">
    <path d="M 248.3839 307.584 
L 249.218628 307.584 
L 249.218628 305.046334 
L 248.3839 305.046334 
z
" clip-path="url(#pcdd0b1d94a)" style="fill: #1f77b4"/>
   </g>
   <g id="patch_165">
    <path d="M 250.451582 307.584 
L 251.286309 307.584 
L 251.286309 305.535 
L 250.451582 305.535 
z
" clip-path="url(#pcdd0b1d94a)" style="fill: #1f77b4"/>
   </g>
   <g id="patch_166">
    <path d="M 253.605039 307.584 
L 254.439767 307.584 
L 254.439767 294.232212 
L 253.605039 294.232212 
z
" clip-path="url(#pcdd0b1d94a)" style="fill: #1f77b4"/>
   </g>
   <g id="patch_167">
    <path d="M 253.621056 307.584 
L 254.455783 307.584 
L 254.455783 298.574228 
L 253.621056 298.574228 
z
" clip-path="url(#pcdd0b1d94a)" style="fill: #1f77b4"/>
   </g>
   <g id="patch_168">
    <path d="M 254.671439 307.584 
L 255.506166 307.584 
L 255.506166 268.504112 
L 254.671439 268.504112 
z
" clip-path="url(#pcdd0b1d94a)" style="fill: #1f77b4"/>
   </g>
   <g id="patch_169">
    <path d="M 255.708798 307.584 
L 256.543526 307.584 
L 256.543526 282.766961 
L 255.708798 282.766961 
z
" clip-path="url(#pcdd0b1d94a)" style="fill: #1f77b4"/>
   </g>
   <g id="patch_170">
    <path d="M 256.739089 307.584 
L 257.573816 307.584 
L 257.573816 298.419113 
L 256.739089 298.419113 
z
" clip-path="url(#pcdd0b1d94a)" style="fill: #1f77b4"/>
   </g>
   <g id="patch_171">
    <path d="M 256.76071 307.584 
L 257.595437 307.584 
L 257.595437 54.144 
L 256.76071 54.144 
z
" clip-path="url(#pcdd0b1d94a)" style="fill: #1f77b4"/>
   </g>
   <g id="patch_172">
    <path d="M 257.78616 307.584 
L 258.620888 307.584 
L 258.620888 304.975005 
L 257.78616 304.975005 
z
" clip-path="url(#pcdd0b1d94a)" style="fill: #1f77b4"/>
   </g>
   <g id="patch_173">
    <path d="M 257.808083 307.584 
L 258.642811 307.584 
L 258.642811 283.454089 
L 257.808083 283.454089 
z
" clip-path="url(#pcdd0b1d94a)" style="fill: #1f77b4"/>
   </g>
   <g id="patch_174">
    <path d="M 258.801309 307.584 
L 259.636037 307.584 
L 259.636037 195.831435 
L 258.801309 195.831435 
z
" clip-path="url(#pcdd0b1d94a)" style="fill: #1f77b4"/>
   </g>
   <g id="patch_175">
    <path d="M 258.820176 307.584 
L 259.654904 307.584 
L 259.654904 305.338495 
L 258.820176 305.338495 
z
" clip-path="url(#pcdd0b1d94a)" style="fill: #1f77b4"/>
   </g>
   <g id="patch_176">
    <path d="M 259.848317 307.584 
L 260.683045 307.584 
L 260.683045 298.641245 
L 259.848317 298.641245 
z
" clip-path="url(#pcdd0b1d94a)" style="fill: #1f77b4"/>
   </g>
   <g id="patch_177">
    <path d="M 260.928313 307.584 
L 261.763041 307.584 
L 261.763041 301.047837 
L 260.928313 301.047837 
z
" clip-path="url(#pcdd0b1d94a)" style="fill: #1f77b4"/>
   </g>
   <g id="patch_178">
    <path d="M 269.219228 307.584 
L 270.053956 307.584 
L 270.053956 262.563519 
L 269.219228 262.563519 
z
" clip-path="url(#pcdd0b1d94a)" style="fill: #1f77b4"/>
   </g>
   <g id="patch_179">
    <path d="M 269.243556 307.584 
L 270.078283 307.584 
L 270.078283 301.350232 
L 269.243556 301.350232 
z
" clip-path="url(#pcdd0b1d94a)" style="fill: #1f77b4"/>
   </g>
   <g id="patch_180">
    <path d="M 270.266061 307.584 
L 271.100788 307.584 
L 271.100788 304.845736 
L 270.266061 304.845736 
z
" clip-path="url(#pcdd0b1d94a)" style="fill: #1f77b4"/>
   </g>
   <g id="patch_181">
    <path d="M 270.332675 307.584 
L 271.167403 307.584 
L 271.167403 300.987344 
L 270.332675 300.987344 
z
" clip-path="url(#pcdd0b1d94a)" style="fill: #1f77b4"/>
   </g>
   <g id="patch_182">
    <path d="M 271.337508 307.584 
L 272.172235 307.584 
L 272.172235 305.596503 
L 271.337508 305.596503 
z
" clip-path="url(#pcdd0b1d94a)" style="fill: #1f77b4"/>
   </g>
   <g id="patch_183">
    <path d="M 271.359558 307.584 
L 272.194286 307.584 
L 272.194286 303.083539 
L 271.359558 303.083539 
z
" clip-path="url(#pcdd0b1d94a)" style="fill: #1f77b4"/>
   </g>
   <g id="patch_184">
    <path d="M 271.384666 307.584 
L 272.219394 307.584 
L 272.219394 300.77354 
L 271.384666 300.77354 
z
" clip-path="url(#pcdd0b1d94a)" style="fill: #1f77b4"/>
   </g>
   <g id="patch_185">
    <path d="M 272.39894 307.584 
L 273.233667 307.584 
L 273.233667 303.09614 
L 272.39894 303.09614 
z
" clip-path="url(#pcdd0b1d94a)" style="fill: #1f77b4"/>
   </g>
   <g id="patch_186">
    <path d="M 272.435351 307.584 
L 273.270079 307.584 
L 273.270079 306.018216 
L 272.435351 306.018216 
z
" clip-path="url(#pcdd0b1d94a)" style="fill: #1f77b4"/>
   </g>
   <g id="patch_187">
    <path d="M 275.528834 307.584 
L 276.363561 307.584 
L 276.363561 304.589492 
L 275.528834 304.589492 
z
" clip-path="url(#pcdd0b1d94a)" style="fill: #1f77b4"/>
   </g>
   <g id="patch_188">
    <path d="M 276.736072 307.584 
L 277.5708 307.584 
L 277.5708 306.160608 
L 276.736072 306.160608 
z
" clip-path="url(#pcdd0b1d94a)" style="fill: #1f77b4"/>
   </g>
   <g id="patch_189">
    <path d="M 279.040326 307.584 
L 279.875054 307.584 
L 279.875054 305.991481 
L 279.040326 305.991481 
z
" clip-path="url(#pcdd0b1d94a)" style="fill: #1f77b4"/>
   </g>
   <g id="patch_190">
    <path d="M 279.64826 307.584 
L 280.482988 307.584 
L 280.482988 306.276248 
L 279.64826 306.276248 
z
" clip-path="url(#pcdd0b1d94a)" style="fill: #1f77b4"/>
   </g>
   <g id="patch_191">
    <path d="M 282.816094 307.584 
L 283.650822 307.584 
L 283.650822 303.549317 
L 282.816094 303.549317 
z
" clip-path="url(#pcdd0b1d94a)" style="fill: #1f77b4"/>
   </g>
   <g id="patch_192">
    <path d="M 283.867926 307.584 
L 284.702654 307.584 
L 284.702654 303.832841 
L 283.867926 303.832841 
z
" clip-path="url(#pcdd0b1d94a)" style="fill: #1f77b4"/>
   </g>
   <g id="patch_193">
    <path d="M 284.918516 307.584 
L 285.753244 307.584 
L 285.753244 304.107315 
L 284.918516 304.107315 
z
" clip-path="url(#pcdd0b1d94a)" style="fill: #1f77b4"/>
   </g>
   <g id="patch_194">
    <path d="M 285.984868 307.584 
L 286.819596 307.584 
L 286.819596 294.967981 
L 285.984868 294.967981 
z
" clip-path="url(#pcdd0b1d94a)" style="fill: #1f77b4"/>
   </g>
   <g id="patch_195">
    <path d="M 287.026176 307.584 
L 287.860903 307.584 
L 287.860903 305.042911 
L 287.026176 305.042911 
z
" clip-path="url(#pcdd0b1d94a)" style="fill: #1f77b4"/>
   </g>
   <g id="patch_196">
    <path d="M 288.035992 307.584 
L 288.870719 307.584 
L 288.870719 301.482049 
L 288.035992 301.482049 
z
" clip-path="url(#pcdd0b1d94a)" style="fill: #1f77b4"/>
   </g>
   <g id="patch_197">
    <path d="M 289.1257 307.584 
L 289.960428 307.584 
L 289.960428 303.175661 
L 289.1257 303.175661 
z
" clip-path="url(#pcdd0b1d94a)" style="fill: #1f77b4"/>
   </g>
   <g id="patch_198">
    <path d="M 299.543714 307.584 
L 300.378442 307.584 
L 300.378442 305.568085 
L 299.543714 305.568085 
z
" clip-path="url(#pcdd0b1d94a)" style="fill: #1f77b4"/>
   </g>
   <g id="patch_199">
    <path d="M 300.593811 307.584 
L 301.428538 307.584 
L 301.428538 302.86605 
L 300.593811 302.86605 
z
" clip-path="url(#pcdd0b1d94a)" style="fill: #1f77b4"/>
   </g>
   <g id="patch_200">
    <path d="M 301.608371 307.584 
L 302.443099 307.584 
L 302.443099 303.935177 
L 301.608371 303.935177 
z
" clip-path="url(#pcdd0b1d94a)" style="fill: #1f77b4"/>
   </g>
   <g id="patch_201">
    <path d="M 302.602329 307.584 
L 303.437057 307.584 
L 303.437057 305.201409 
L 302.602329 305.201409 
z
" clip-path="url(#pcdd0b1d94a)" style="fill: #1f77b4"/>
   </g>
   <g id="patch_202">
    <path d="M 302.634968 307.584 
L 303.469695 307.584 
L 303.469695 149.968679 
L 302.634968 149.968679 
z
" clip-path="url(#pcdd0b1d94a)" style="fill: #1f77b4"/>
   </g>
   <g id="patch_203">
    <path d="M 302.660569 307.584 
L 303.495297 307.584 
L 303.495297 291.94007 
L 302.660569 291.94007 
z
" clip-path="url(#pcdd0b1d94a)" style="fill: #1f77b4"/>
   </g>
   <g id="patch_204">
    <path d="M 303.681721 307.584 
L 304.516448 307.584 
L 304.516448 290.145778 
L 303.681721 290.145778 
z
" clip-path="url(#pcdd0b1d94a)" style="fill: #1f77b4"/>
   </g>
   <g id="patch_205">
    <path d="M 303.70885 307.584 
L 304.543578 307.584 
L 304.543578 305.689504 
L 303.70885 305.689504 
z
" clip-path="url(#pcdd0b1d94a)" style="fill: #1f77b4"/>
   </g>
   <g id="patch_206">
    <path d="M 316.233553 307.584 
L 317.068281 307.584 
L 317.068281 297.935987 
L 316.233553 297.935987 
z
" clip-path="url(#pcdd0b1d94a)" style="fill: #1f77b4"/>
   </g>
   <g id="patch_207">
    <path d="M 317.283873 307.584 
L 318.1186 307.584 
L 318.1186 302.288568 
L 317.283873 302.288568 
z
" clip-path="url(#pcdd0b1d94a)" style="fill: #1f77b4"/>
   </g>
   <g id="patch_208">
    <path d="M 318.335211 307.584 
L 319.169938 307.584 
L 319.169938 299.114843 
L 318.335211 299.114843 
z
" clip-path="url(#pcdd0b1d94a)" style="fill: #1f77b4"/>
   </g>
   <g id="patch_209">
    <path d="M 327.7009 307.584 
L 328.535628 307.584 
L 328.535628 305.747809 
L 327.7009 305.747809 
z
" clip-path="url(#pcdd0b1d94a)" style="fill: #1f77b4"/>
   </g>
   <g id="patch_210">
    <path d="M 328.80758 307.584 
L 329.642308 307.584 
L 329.642308 305.799874 
L 328.80758 305.799874 
z
" clip-path="url(#pcdd0b1d94a)" style="fill: #1f77b4"/>
   </g>
   <g id="patch_211">
    <path d="M 334.992252 307.584 
L 335.82698 307.584 
L 335.82698 305.918513 
L 334.992252 305.918513 
z
" clip-path="url(#pcdd0b1d94a)" style="fill: #1f77b4"/>
   </g>
   <g id="patch_212">
    <path d="M 335.0254 307.584 
L 335.860128 307.584 
L 335.860128 291.170505 
L 335.0254 291.170505 
z
" clip-path="url(#pcdd0b1d94a)" style="fill: #1f77b4"/>
   </g>
   <g id="patch_213">
    <path d="M 336.052888 307.584 
L 336.887616 307.584 
L 336.887616 303.703085 
L 336.052888 303.703085 
z
" clip-path="url(#pcdd0b1d94a)" style="fill: #1f77b4"/>
   </g>
   <g id="patch_214">
    <path d="M 349.649341 307.584 
L 350.484068 307.584 
L 350.484068 305.931338 
L 349.649341 305.931338 
z
" clip-path="url(#pcdd0b1d94a)" style="fill: #1f77b4"/>
   </g>
   <g id="patch_215">
    <path d="M 364.235293 307.584 
L 365.070021 307.584 
L 365.070021 300.776373 
L 364.235293 300.776373 
z
" clip-path="url(#pcdd0b1d94a)" style="fill: #1f77b4"/>
   </g>
   <g id="patch_216">
    <path d="M 378.858247 307.584 
L 379.692974 307.584 
L 379.692974 305.298398 
L 378.858247 305.298398 
z
" clip-path="url(#pcdd0b1d94a)" style="fill: #1f77b4"/>
   </g>
   <g id="patch_217">
    <path d="M 397.652545 307.584 
L 398.487273 307.584 
L 398.487273 305.928367 
L 397.652545 305.928367 
z
" clip-path="url(#pcdd0b1d94a)" style="fill: #1f77b4"/>
   </g>
   <g id="matplotlib.axis_1">
    <g id="xtick_1">
     <g id="line2d_1">
      <defs>
       <path id="m68b2c2b3da" d="M 0 0 
L 0 3.5 
" style="stroke: #000000; stroke-width: 0.8"/>
      </defs>
      <g>
       <use xlink:href="#m68b2c2b3da" x="71.35827" y="307.584" style="stroke: #000000; stroke-width: 0.8"/>
      </g>
     </g>
     <g id="text_1">
      <!-- 50 -->
      <g transform="translate(64.99577 322.182437) scale(0.1 -0.1)">
       <defs>
        <path id="DejaVuSans-35" d="M 691 4666 
L 3169 4666 
L 3169 4134 
L 1269 4134 
L 1269 2991 
Q 1406 3038 1543 3061 
Q 1681 3084 1819 3084 
Q 2600 3084 3056 2656 
Q 3513 2228 3513 1497 
Q 3513 744 3044 326 
Q 2575 -91 1722 -91 
Q 1428 -91 1123 -41 
Q 819 9 494 109 
L 494 744 
Q 775 591 1075 516 
Q 1375 441 1709 441 
Q 2250 441 2565 725 
Q 2881 1009 2881 1497 
Q 2881 1984 2565 2268 
Q 2250 2553 1709 2553 
Q 1456 2553 1204 2497 
Q 953 2441 691 2322 
L 691 4666 
z
" transform="scale(0.015625)"/>
        <path id="DejaVuSans-30" d="M 2034 4250 
Q 1547 4250 1301 3770 
Q 1056 3291 1056 2328 
Q 1056 1369 1301 889 
Q 1547 409 2034 409 
Q 2525 409 2770 889 
Q 3016 1369 3016 2328 
Q 3016 3291 2770 3770 
Q 2525 4250 2034 4250 
z
M 2034 4750 
Q 2819 4750 3233 4129 
Q 3647 3509 3647 2328 
Q 3647 1150 3233 529 
Q 2819 -91 2034 -91 
Q 1250 -91 836 529 
Q 422 1150 422 2328 
Q 422 3509 836 4129 
Q 1250 4750 2034 4750 
z
" transform="scale(0.015625)"/>
       </defs>
       <use xlink:href="#DejaVuSans-35"/>
       <use xlink:href="#DejaVuSans-30" x="63.623047"/>
      </g>
     </g>
    </g>
    <g id="xtick_2">
     <g id="line2d_2">
      <g>
       <use xlink:href="#m68b2c2b3da" x="123.528744" y="307.584" style="stroke: #000000; stroke-width: 0.8"/>
      </g>
     </g>
     <g id="text_2">
      <!-- 100 -->
      <g transform="translate(113.984994 322.182437) scale(0.1 -0.1)">
       <defs>
        <path id="DejaVuSans-31" d="M 794 531 
L 1825 531 
L 1825 4091 
L 703 3866 
L 703 4441 
L 1819 4666 
L 2450 4666 
L 2450 531 
L 3481 531 
L 3481 0 
L 794 0 
L 794 531 
z
" transform="scale(0.015625)"/>
       </defs>
       <use xlink:href="#DejaVuSans-31"/>
       <use xlink:href="#DejaVuSans-30" x="63.623047"/>
       <use xlink:href="#DejaVuSans-30" x="127.246094"/>
      </g>
     </g>
    </g>
    <g id="xtick_3">
     <g id="line2d_3">
      <g>
       <use xlink:href="#m68b2c2b3da" x="175.699218" y="307.584" style="stroke: #000000; stroke-width: 0.8"/>
      </g>
     </g>
     <g id="text_3">
      <!-- 150 -->
      <g transform="translate(166.155468 322.182437) scale(0.1 -0.1)">
       <use xlink:href="#DejaVuSans-31"/>
       <use xlink:href="#DejaVuSans-35" x="63.623047"/>
       <use xlink:href="#DejaVuSans-30" x="127.246094"/>
      </g>
     </g>
    </g>
    <g id="xtick_4">
     <g id="line2d_4">
      <g>
       <use xlink:href="#m68b2c2b3da" x="227.869692" y="307.584" style="stroke: #000000; stroke-width: 0.8"/>
      </g>
     </g>
     <g id="text_4">
      <!-- 200 -->
      <g transform="translate(218.325942 322.182437) scale(0.1 -0.1)">
       <defs>
        <path id="DejaVuSans-32" d="M 1228 531 
L 3431 531 
L 3431 0 
L 469 0 
L 469 531 
Q 828 903 1448 1529 
Q 2069 2156 2228 2338 
Q 2531 2678 2651 2914 
Q 2772 3150 2772 3378 
Q 2772 3750 2511 3984 
Q 2250 4219 1831 4219 
Q 1534 4219 1204 4116 
Q 875 4013 500 3803 
L 500 4441 
Q 881 4594 1212 4672 
Q 1544 4750 1819 4750 
Q 2544 4750 2975 4387 
Q 3406 4025 3406 3419 
Q 3406 3131 3298 2873 
Q 3191 2616 2906 2266 
Q 2828 2175 2409 1742 
Q 1991 1309 1228 531 
z
" transform="scale(0.015625)"/>
       </defs>
       <use xlink:href="#DejaVuSans-32"/>
       <use xlink:href="#DejaVuSans-30" x="63.623047"/>
       <use xlink:href="#DejaVuSans-30" x="127.246094"/>
      </g>
     </g>
    </g>
    <g id="xtick_5">
     <g id="line2d_5">
      <g>
       <use xlink:href="#m68b2c2b3da" x="280.040166" y="307.584" style="stroke: #000000; stroke-width: 0.8"/>
      </g>
     </g>
     <g id="text_5">
      <!-- 250 -->
      <g transform="translate(270.496416 322.182437) scale(0.1 -0.1)">
       <use xlink:href="#DejaVuSans-32"/>
       <use xlink:href="#DejaVuSans-35" x="63.623047"/>
       <use xlink:href="#DejaVuSans-30" x="127.246094"/>
      </g>
     </g>
    </g>
    <g id="xtick_6">
     <g id="line2d_6">
      <g>
       <use xlink:href="#m68b2c2b3da" x="332.21064" y="307.584" style="stroke: #000000; stroke-width: 0.8"/>
      </g>
     </g>
     <g id="text_6">
      <!-- 300 -->
      <g transform="translate(322.66689 322.182437) scale(0.1 -0.1)">
       <defs>
        <path id="DejaVuSans-33" d="M 2597 2516 
Q 3050 2419 3304 2112 
Q 3559 1806 3559 1356 
Q 3559 666 3084 287 
Q 2609 -91 1734 -91 
Q 1441 -91 1130 -33 
Q 819 25 488 141 
L 488 750 
Q 750 597 1062 519 
Q 1375 441 1716 441 
Q 2309 441 2620 675 
Q 2931 909 2931 1356 
Q 2931 1769 2642 2001 
Q 2353 2234 1838 2234 
L 1294 2234 
L 1294 2753 
L 1863 2753 
Q 2328 2753 2575 2939 
Q 2822 3125 2822 3475 
Q 2822 3834 2567 4026 
Q 2313 4219 1838 4219 
Q 1578 4219 1281 4162 
Q 984 4106 628 3988 
L 628 4550 
Q 988 4650 1302 4700 
Q 1616 4750 1894 4750 
Q 2613 4750 3031 4423 
Q 3450 4097 3450 3541 
Q 3450 3153 3228 2886 
Q 3006 2619 2597 2516 
z
" transform="scale(0.015625)"/>
       </defs>
       <use xlink:href="#DejaVuSans-33"/>
       <use xlink:href="#DejaVuSans-30" x="63.623047"/>
       <use xlink:href="#DejaVuSans-30" x="127.246094"/>
      </g>
     </g>
    </g>
    <g id="xtick_7">
     <g id="line2d_7">
      <g>
       <use xlink:href="#m68b2c2b3da" x="384.381114" y="307.584" style="stroke: #000000; stroke-width: 0.8"/>
      </g>
     </g>
     <g id="text_7">
      <!-- 350 -->
      <g transform="translate(374.837364 322.182437) scale(0.1 -0.1)">
       <use xlink:href="#DejaVuSans-33"/>
       <use xlink:href="#DejaVuSans-35" x="63.623047"/>
       <use xlink:href="#DejaVuSans-30" x="127.246094"/>
      </g>
     </g>
    </g>
    <g id="text_8">
     <!-- ${m/z}$ -->
     <g transform="translate(226.96 335.860562) scale(0.1 -0.1)">
      <defs>
       <path id="DejaVuSans-Oblique-6d" d="M 5747 2113 
L 5338 0 
L 4763 0 
L 5166 2094 
Q 5191 2228 5203 2325 
Q 5216 2422 5216 2491 
Q 5216 2772 5059 2928 
Q 4903 3084 4622 3084 
Q 4203 3084 3875 2770 
Q 3547 2456 3450 1953 
L 3066 0 
L 2491 0 
L 2900 2094 
Q 2925 2209 2937 2307 
Q 2950 2406 2950 2484 
Q 2950 2769 2794 2926 
Q 2638 3084 2363 3084 
Q 1938 3084 1609 2770 
Q 1281 2456 1184 1953 
L 800 0 
L 225 0 
L 909 3500 
L 1484 3500 
L 1375 2956 
Q 1609 3263 1923 3423 
Q 2238 3584 2597 3584 
Q 2978 3584 3223 3384 
Q 3469 3184 3519 2828 
Q 3781 3197 4126 3390 
Q 4472 3584 4856 3584 
Q 5306 3584 5551 3325 
Q 5797 3066 5797 2591 
Q 5797 2488 5784 2364 
Q 5772 2241 5747 2113 
z
" transform="scale(0.015625)"/>
       <path id="DejaVuSans-2f" d="M 1625 4666 
L 2156 4666 
L 531 -594 
L 0 -594 
L 1625 4666 
z
" transform="scale(0.015625)"/>
       <path id="DejaVuSans-Oblique-7a" d="M 744 3500 
L 3475 3500 
L 3372 2975 
L 738 459 
L 2913 459 
L 2822 0 
L -19 0 
L 84 525 
L 2719 3041 
L 653 3041 
L 744 3500 
z
" transform="scale(0.015625)"/>
      </defs>
      <use xlink:href="#DejaVuSans-Oblique-6d" transform="translate(0 0.09375)"/>
      <use xlink:href="#DejaVuSans-2f" transform="translate(97.412109 0.09375)"/>
      <use xlink:href="#DejaVuSans-Oblique-7a" transform="translate(131.103516 0.09375)"/>
     </g>
    </g>
   </g>
   <g id="matplotlib.axis_2">
    <g id="ytick_1">
     <g id="line2d_8">
      <defs>
       <path id="m77dbbbdc26" d="M 0 0 
L -3.5 0 
" style="stroke: #000000; stroke-width: 0.8"/>
      </defs>
      <g>
       <use xlink:href="#m77dbbbdc26" x="57.6" y="307.584" style="stroke: #000000; stroke-width: 0.8"/>
      </g>
     </g>
     <g id="text_9">
      <!-- 0.0 -->
      <g transform="translate(34.696875 311.383219) scale(0.1 -0.1)">
       <defs>
        <path id="DejaVuSans-2e" d="M 684 794 
L 1344 794 
L 1344 0 
L 684 0 
L 684 794 
z
" transform="scale(0.015625)"/>
       </defs>
       <use xlink:href="#DejaVuSans-30"/>
       <use xlink:href="#DejaVuSans-2e" x="63.623047"/>
       <use xlink:href="#DejaVuSans-30" x="95.410156"/>
      </g>
     </g>
    </g>
    <g id="ytick_2">
     <g id="line2d_9">
      <g>
       <use xlink:href="#m77dbbbdc26" x="57.6" y="275.249638" style="stroke: #000000; stroke-width: 0.8"/>
      </g>
     </g>
     <g id="text_10">
      <!-- 0.2 -->
      <g transform="translate(34.696875 279.048857) scale(0.1 -0.1)">
       <use xlink:href="#DejaVuSans-30"/>
       <use xlink:href="#DejaVuSans-2e" x="63.623047"/>
       <use xlink:href="#DejaVuSans-32" x="95.410156"/>
      </g>
     </g>
    </g>
    <g id="ytick_3">
     <g id="line2d_10">
      <g>
       <use xlink:href="#m77dbbbdc26" x="57.6" y="242.915277" style="stroke: #000000; stroke-width: 0.8"/>
      </g>
     </g>
     <g id="text_11">
      <!-- 0.4 -->
      <g transform="translate(34.696875 246.714496) scale(0.1 -0.1)">
       <defs>
        <path id="DejaVuSans-34" d="M 2419 4116 
L 825 1625 
L 2419 1625 
L 2419 4116 
z
M 2253 4666 
L 3047 4666 
L 3047 1625 
L 3713 1625 
L 3713 1100 
L 3047 1100 
L 3047 0 
L 2419 0 
L 2419 1100 
L 313 1100 
L 313 1709 
L 2253 4666 
z
" transform="scale(0.015625)"/>
       </defs>
       <use xlink:href="#DejaVuSans-30"/>
       <use xlink:href="#DejaVuSans-2e" x="63.623047"/>
       <use xlink:href="#DejaVuSans-34" x="95.410156"/>
      </g>
     </g>
    </g>
    <g id="ytick_4">
     <g id="line2d_11">
      <g>
       <use xlink:href="#m77dbbbdc26" x="57.6" y="210.580915" style="stroke: #000000; stroke-width: 0.8"/>
      </g>
     </g>
     <g id="text_12">
      <!-- 0.6 -->
      <g transform="translate(34.696875 214.380134) scale(0.1 -0.1)">
       <defs>
        <path id="DejaVuSans-36" d="M 2113 2584 
Q 1688 2584 1439 2293 
Q 1191 2003 1191 1497 
Q 1191 994 1439 701 
Q 1688 409 2113 409 
Q 2538 409 2786 701 
Q 3034 994 3034 1497 
Q 3034 2003 2786 2293 
Q 2538 2584 2113 2584 
z
M 3366 4563 
L 3366 3988 
Q 3128 4100 2886 4159 
Q 2644 4219 2406 4219 
Q 1781 4219 1451 3797 
Q 1122 3375 1075 2522 
Q 1259 2794 1537 2939 
Q 1816 3084 2150 3084 
Q 2853 3084 3261 2657 
Q 3669 2231 3669 1497 
Q 3669 778 3244 343 
Q 2819 -91 2113 -91 
Q 1303 -91 875 529 
Q 447 1150 447 2328 
Q 447 3434 972 4092 
Q 1497 4750 2381 4750 
Q 2619 4750 2861 4703 
Q 3103 4656 3366 4563 
z
" transform="scale(0.015625)"/>
       </defs>
       <use xlink:href="#DejaVuSans-30"/>
       <use xlink:href="#DejaVuSans-2e" x="63.623047"/>
       <use xlink:href="#DejaVuSans-36" x="95.410156"/>
      </g>
     </g>
    </g>
    <g id="ytick_5">
     <g id="line2d_12">
      <g>
       <use xlink:href="#m77dbbbdc26" x="57.6" y="178.246554" style="stroke: #000000; stroke-width: 0.8"/>
      </g>
     </g>
     <g id="text_13">
      <!-- 0.8 -->
      <g transform="translate(34.696875 182.045772) scale(0.1 -0.1)">
       <defs>
        <path id="DejaVuSans-38" d="M 2034 2216 
Q 1584 2216 1326 1975 
Q 1069 1734 1069 1313 
Q 1069 891 1326 650 
Q 1584 409 2034 409 
Q 2484 409 2743 651 
Q 3003 894 3003 1313 
Q 3003 1734 2745 1975 
Q 2488 2216 2034 2216 
z
M 1403 2484 
Q 997 2584 770 2862 
Q 544 3141 544 3541 
Q 544 4100 942 4425 
Q 1341 4750 2034 4750 
Q 2731 4750 3128 4425 
Q 3525 4100 3525 3541 
Q 3525 3141 3298 2862 
Q 3072 2584 2669 2484 
Q 3125 2378 3379 2068 
Q 3634 1759 3634 1313 
Q 3634 634 3220 271 
Q 2806 -91 2034 -91 
Q 1263 -91 848 271 
Q 434 634 434 1313 
Q 434 1759 690 2068 
Q 947 2378 1403 2484 
z
M 1172 3481 
Q 1172 3119 1398 2916 
Q 1625 2713 2034 2713 
Q 2441 2713 2670 2916 
Q 2900 3119 2900 3481 
Q 2900 3844 2670 4047 
Q 2441 4250 2034 4250 
Q 1625 4250 1398 4047 
Q 1172 3844 1172 3481 
z
" transform="scale(0.015625)"/>
       </defs>
       <use xlink:href="#DejaVuSans-30"/>
       <use xlink:href="#DejaVuSans-2e" x="63.623047"/>
       <use xlink:href="#DejaVuSans-38" x="95.410156"/>
      </g>
     </g>
    </g>
    <g id="ytick_6">
     <g id="line2d_13">
      <g>
       <use xlink:href="#m77dbbbdc26" x="57.6" y="145.912192" style="stroke: #000000; stroke-width: 0.8"/>
      </g>
     </g>
     <g id="text_14">
      <!-- 1.0 -->
      <g transform="translate(34.696875 149.711411) scale(0.1 -0.1)">
       <use xlink:href="#DejaVuSans-31"/>
       <use xlink:href="#DejaVuSans-2e" x="63.623047"/>
       <use xlink:href="#DejaVuSans-30" x="95.410156"/>
      </g>
     </g>
    </g>
    <g id="ytick_7">
     <g id="line2d_14">
      <g>
       <use xlink:href="#m77dbbbdc26" x="57.6" y="113.57783" style="stroke: #000000; stroke-width: 0.8"/>
      </g>
     </g>
     <g id="text_15">
      <!-- 1.2 -->
      <g transform="translate(34.696875 117.377049) scale(0.1 -0.1)">
       <use xlink:href="#DejaVuSans-31"/>
       <use xlink:href="#DejaVuSans-2e" x="63.623047"/>
       <use xlink:href="#DejaVuSans-32" x="95.410156"/>
      </g>
     </g>
    </g>
    <g id="ytick_8">
     <g id="line2d_15">
      <g>
       <use xlink:href="#m77dbbbdc26" x="57.6" y="81.243469" style="stroke: #000000; stroke-width: 0.8"/>
      </g>
     </g>
     <g id="text_16">
      <!-- 1.4 -->
      <g transform="translate(34.696875 85.042688) scale(0.1 -0.1)">
       <use xlink:href="#DejaVuSans-31"/>
       <use xlink:href="#DejaVuSans-2e" x="63.623047"/>
       <use xlink:href="#DejaVuSans-34" x="95.410156"/>
      </g>
     </g>
    </g>
    <g id="ytick_9">
     <g id="line2d_16">
      <g>
       <use xlink:href="#m77dbbbdc26" x="57.6" y="48.909107" style="stroke: #000000; stroke-width: 0.8"/>
      </g>
     </g>
     <g id="text_17">
      <!-- 1.6 -->
      <g transform="translate(34.696875 52.708326) scale(0.1 -0.1)">
       <use xlink:href="#DejaVuSans-31"/>
       <use xlink:href="#DejaVuSans-2e" x="63.623047"/>
       <use xlink:href="#DejaVuSans-36" x="95.410156"/>
      </g>
     </g>
    </g>
    <g id="text_18">
     <!-- intensities -->
     <g transform="translate(28.617187 200.3155) rotate(-90) scale(0.1 -0.1)">
      <defs>
       <path id="DejaVuSans-69" d="M 603 3500 
L 1178 3500 
L 1178 0 
L 603 0 
L 603 3500 
z
M 603 4863 
L 1178 4863 
L 1178 4134 
L 603 4134 
L 603 4863 
z
" transform="scale(0.015625)"/>
       <path id="DejaVuSans-6e" d="M 3513 2113 
L 3513 0 
L 2938 0 
L 2938 2094 
Q 2938 2591 2744 2837 
Q 2550 3084 2163 3084 
Q 1697 3084 1428 2787 
Q 1159 2491 1159 1978 
L 1159 0 
L 581 0 
L 581 3500 
L 1159 3500 
L 1159 2956 
Q 1366 3272 1645 3428 
Q 1925 3584 2291 3584 
Q 2894 3584 3203 3211 
Q 3513 2838 3513 2113 
z
" transform="scale(0.015625)"/>
       <path id="DejaVuSans-74" d="M 1172 4494 
L 1172 3500 
L 2356 3500 
L 2356 3053 
L 1172 3053 
L 1172 1153 
Q 1172 725 1289 603 
Q 1406 481 1766 481 
L 2356 481 
L 2356 0 
L 1766 0 
Q 1100 0 847 248 
Q 594 497 594 1153 
L 594 3053 
L 172 3053 
L 172 3500 
L 594 3500 
L 594 4494 
L 1172 4494 
z
" transform="scale(0.015625)"/>
       <path id="DejaVuSans-65" d="M 3597 1894 
L 3597 1613 
L 953 1613 
Q 991 1019 1311 708 
Q 1631 397 2203 397 
Q 2534 397 2845 478 
Q 3156 559 3463 722 
L 3463 178 
Q 3153 47 2828 -22 
Q 2503 -91 2169 -91 
Q 1331 -91 842 396 
Q 353 884 353 1716 
Q 353 2575 817 3079 
Q 1281 3584 2069 3584 
Q 2775 3584 3186 3129 
Q 3597 2675 3597 1894 
z
M 3022 2063 
Q 3016 2534 2758 2815 
Q 2500 3097 2075 3097 
Q 1594 3097 1305 2825 
Q 1016 2553 972 2059 
L 3022 2063 
z
" transform="scale(0.015625)"/>
       <path id="DejaVuSans-73" d="M 2834 3397 
L 2834 2853 
Q 2591 2978 2328 3040 
Q 2066 3103 1784 3103 
Q 1356 3103 1142 2972 
Q 928 2841 928 2578 
Q 928 2378 1081 2264 
Q 1234 2150 1697 2047 
L 1894 2003 
Q 2506 1872 2764 1633 
Q 3022 1394 3022 966 
Q 3022 478 2636 193 
Q 2250 -91 1575 -91 
Q 1294 -91 989 -36 
Q 684 19 347 128 
L 347 722 
Q 666 556 975 473 
Q 1284 391 1588 391 
Q 1994 391 2212 530 
Q 2431 669 2431 922 
Q 2431 1156 2273 1281 
Q 2116 1406 1581 1522 
L 1381 1569 
Q 847 1681 609 1914 
Q 372 2147 372 2553 
Q 372 3047 722 3315 
Q 1072 3584 1716 3584 
Q 2034 3584 2315 3537 
Q 2597 3491 2834 3397 
z
" transform="scale(0.015625)"/>
      </defs>
      <use xlink:href="#DejaVuSans-69"/>
      <use xlink:href="#DejaVuSans-6e" x="27.783203"/>
      <use xlink:href="#DejaVuSans-74" x="91.162109"/>
      <use xlink:href="#DejaVuSans-65" x="130.371094"/>
      <use xlink:href="#DejaVuSans-6e" x="191.894531"/>
      <use xlink:href="#DejaVuSans-73" x="255.273438"/>
      <use xlink:href="#DejaVuSans-69" x="307.373047"/>
      <use xlink:href="#DejaVuSans-74" x="335.15625"/>
      <use xlink:href="#DejaVuSans-69" x="374.365234"/>
      <use xlink:href="#DejaVuSans-65" x="402.148438"/>
      <use xlink:href="#DejaVuSans-73" x="463.671875"/>
     </g>
    </g>
    <g id="text_19">
     <!-- 1e6 -->
     <g transform="translate(57.6 38.472) scale(0.1 -0.1)">
      <use xlink:href="#DejaVuSans-31"/>
      <use xlink:href="#DejaVuSans-65" x="63.623047"/>
      <use xlink:href="#DejaVuSans-36" x="125.146484"/>
     </g>
    </g>
   </g>
   <g id="patch_218">
    <path d="M 57.6 307.584 
L 57.6 41.472 
" style="fill: none; stroke: #000000; stroke-width: 0.8; stroke-linejoin: miter; stroke-linecap: square"/>
   </g>
   <g id="patch_219">
    <path d="M 414.72 307.584 
L 414.72 41.472 
" style="fill: none; stroke: #000000; stroke-width: 0.8; stroke-linejoin: miter; stroke-linecap: square"/>
   </g>
   <g id="patch_220">
    <path d="M 57.6 307.584 
L 414.72 307.584 
" style="fill: none; stroke: #000000; stroke-width: 0.8; stroke-linejoin: miter; stroke-linecap: square"/>
   </g>
   <g id="patch_221">
    <path d="M 57.6 41.472 
L 414.72 41.472 
" style="fill: none; stroke: #000000; stroke-width: 0.8; stroke-linejoin: miter; stroke-linecap: square"/>
   </g>
   <g id="text_20">
    <!-- 102.0554 -->
    <g transform="translate(115.678709 156.053643) scale(0.06 -0.06)">
     <use xlink:href="#DejaVuSans-31"/>
     <use xlink:href="#DejaVuSans-30" x="63.623047"/>
     <use xlink:href="#DejaVuSans-32" x="127.246094"/>
     <use xlink:href="#DejaVuSans-2e" x="190.869141"/>
     <use xlink:href="#DejaVuSans-30" x="222.65625"/>
     <use xlink:href="#DejaVuSans-35" x="286.279297"/>
     <use xlink:href="#DejaVuSans-35" x="349.902344"/>
     <use xlink:href="#DejaVuSans-34" x="413.525391"/>
    </g>
   </g>
   <g id="text_21">
    <!-- 130.0652 -->
    <g transform="translate(144.904372 264.090015) scale(0.06 -0.06)">
     <use xlink:href="#DejaVuSans-31"/>
     <use xlink:href="#DejaVuSans-33" x="63.623047"/>
     <use xlink:href="#DejaVuSans-30" x="127.246094"/>
     <use xlink:href="#DejaVuSans-2e" x="190.869141"/>
     <use xlink:href="#DejaVuSans-30" x="222.65625"/>
     <use xlink:href="#DejaVuSans-36" x="286.279297"/>
     <use xlink:href="#DejaVuSans-35" x="349.902344"/>
     <use xlink:href="#DejaVuSans-32" x="413.525391"/>
    </g>
   </g>
   <g id="text_22">
    <!-- 158.06 -->
    <g transform="translate(170.731924 286.260164) scale(0.06 -0.06)">
     <use xlink:href="#DejaVuSans-31"/>
     <use xlink:href="#DejaVuSans-35" x="63.623047"/>
     <use xlink:href="#DejaVuSans-38" x="127.246094"/>
     <use xlink:href="#DejaVuSans-2e" x="190.869141"/>
     <use xlink:href="#DejaVuSans-30" x="222.65625"/>
     <use xlink:href="#DejaVuSans-36" x="286.279297"/>
    </g>
   </g>
   <g id="text_23">
    <!-- 183.0918 -->
    <g transform="translate(190.872825 278.605903) scale(0.06 -0.06)">
     <defs>
      <path id="DejaVuSans-39" d="M 703 97 
L 703 672 
Q 941 559 1184 500 
Q 1428 441 1663 441 
Q 2288 441 2617 861 
Q 2947 1281 2994 2138 
Q 2813 1869 2534 1725 
Q 2256 1581 1919 1581 
Q 1219 1581 811 2004 
Q 403 2428 403 3163 
Q 403 3881 828 4315 
Q 1253 4750 1959 4750 
Q 2769 4750 3195 4129 
Q 3622 3509 3622 2328 
Q 3622 1225 3098 567 
Q 2575 -91 1691 -91 
Q 1453 -91 1209 -44 
Q 966 3 703 97 
z
M 1959 2075 
Q 2384 2075 2632 2365 
Q 2881 2656 2881 3163 
Q 2881 3666 2632 3958 
Q 2384 4250 1959 4250 
Q 1534 4250 1286 3958 
Q 1038 3666 1038 3163 
Q 1038 2656 1286 2365 
Q 1534 2075 1959 2075 
z
" transform="scale(0.015625)"/>
     </defs>
     <use xlink:href="#DejaVuSans-31"/>
     <use xlink:href="#DejaVuSans-38" x="63.623047"/>
     <use xlink:href="#DejaVuSans-33" x="127.246094"/>
     <use xlink:href="#DejaVuSans-2e" x="190.869141"/>
     <use xlink:href="#DejaVuSans-30" x="222.65625"/>
     <use xlink:href="#DejaVuSans-39" x="286.279297"/>
     <use xlink:href="#DejaVuSans-31" x="349.902344"/>
     <use xlink:href="#DejaVuSans-38" x="413.525391"/>
    </g>
   </g>
   <g id="text_24">
    <!-- 202.0497 -->
    <g transform="translate(213.533727 259.807818) scale(0.06 -0.06)">
     <defs>
      <path id="DejaVuSans-37" d="M 525 4666 
L 3525 4666 
L 3525 4397 
L 1831 0 
L 1172 0 
L 2766 4134 
L 525 4134 
L 525 4666 
z
" transform="scale(0.015625)"/>
     </defs>
     <use xlink:href="#DejaVuSans-32"/>
     <use xlink:href="#DejaVuSans-30" x="63.623047"/>
     <use xlink:href="#DejaVuSans-32" x="127.246094"/>
     <use xlink:href="#DejaVuSans-2e" x="190.869141"/>
     <use xlink:href="#DejaVuSans-30" x="222.65625"/>
     <use xlink:href="#DejaVuSans-34" x="286.279297"/>
     <use xlink:href="#DejaVuSans-39" x="349.902344"/>
     <use xlink:href="#DejaVuSans-37" x="413.525391"/>
    </g>
   </g>
   <g id="text_25">
    <!-- 211.0865 -->
    <g transform="translate(229.442718 78.142948) scale(0.06 -0.06)">
     <use xlink:href="#DejaVuSans-32"/>
     <use xlink:href="#DejaVuSans-31" x="63.623047"/>
     <use xlink:href="#DejaVuSans-31" x="127.246094"/>
     <use xlink:href="#DejaVuSans-2e" x="190.869141"/>
     <use xlink:href="#DejaVuSans-30" x="222.65625"/>
     <use xlink:href="#DejaVuSans-38" x="286.279297"/>
     <use xlink:href="#DejaVuSans-36" x="349.902344"/>
     <use xlink:href="#DejaVuSans-35" x="413.525391"/>
    </g>
   </g>
   <g id="text_26">
    <!-- 212.0926 -->
    <g transform="translate(231.212544 253.174547) scale(0.06 -0.06)">
     <use xlink:href="#DejaVuSans-32"/>
     <use xlink:href="#DejaVuSans-31" x="63.623047"/>
     <use xlink:href="#DejaVuSans-32" x="127.246094"/>
     <use xlink:href="#DejaVuSans-2e" x="190.869141"/>
     <use xlink:href="#DejaVuSans-30" x="222.65625"/>
     <use xlink:href="#DejaVuSans-39" x="286.279297"/>
     <use xlink:href="#DejaVuSans-32" x="349.902344"/>
     <use xlink:href="#DejaVuSans-36" x="413.525391"/>
    </g>
   </g>
   <g id="text_27">
    <!-- 226.0867 -->
    <g transform="translate(247.974115 273.399737) scale(0.06 -0.06)">
     <use xlink:href="#DejaVuSans-32"/>
     <use xlink:href="#DejaVuSans-32" x="63.623047"/>
     <use xlink:href="#DejaVuSans-36" x="127.246094"/>
     <use xlink:href="#DejaVuSans-2e" x="190.869141"/>
     <use xlink:href="#DejaVuSans-30" x="222.65625"/>
     <use xlink:href="#DejaVuSans-38" x="286.279297"/>
     <use xlink:href="#DejaVuSans-36" x="349.902344"/>
     <use xlink:href="#DejaVuSans-37" x="413.525391"/>
    </g>
   </g>
   <g id="text_28">
    <!-- 228.0891 -->
    <g transform="translate(247.183386 50.939625) scale(0.06 -0.06)">
     <use xlink:href="#DejaVuSans-32"/>
     <use xlink:href="#DejaVuSans-32" x="63.623047"/>
     <use xlink:href="#DejaVuSans-38" x="127.246094"/>
     <use xlink:href="#DejaVuSans-2e" x="190.869141"/>
     <use xlink:href="#DejaVuSans-30" x="222.65625"/>
     <use xlink:href="#DejaVuSans-38" x="286.279297"/>
     <use xlink:href="#DejaVuSans-39" x="349.902344"/>
     <use xlink:href="#DejaVuSans-31" x="413.525391"/>
    </g>
   </g>
   <g id="text_29">
    <!-- 230.0448 -->
    <g transform="translate(249.223986 192.62706) scale(0.06 -0.06)">
     <use xlink:href="#DejaVuSans-32"/>
     <use xlink:href="#DejaVuSans-33" x="63.623047"/>
     <use xlink:href="#DejaVuSans-30" x="127.246094"/>
     <use xlink:href="#DejaVuSans-2e" x="190.869141"/>
     <use xlink:href="#DejaVuSans-30" x="222.65625"/>
     <use xlink:href="#DejaVuSans-34" x="286.279297"/>
     <use xlink:href="#DejaVuSans-34" x="349.902344"/>
     <use xlink:href="#DejaVuSans-38" x="413.525391"/>
    </g>
   </g>
   <g id="text_30">
    <!-- 240.0293 -->
    <g transform="translate(260.361905 257.379144) scale(0.06 -0.06)">
     <use xlink:href="#DejaVuSans-32"/>
     <use xlink:href="#DejaVuSans-34" x="63.623047"/>
     <use xlink:href="#DejaVuSans-30" x="127.246094"/>
     <use xlink:href="#DejaVuSans-2e" x="190.869141"/>
     <use xlink:href="#DejaVuSans-30" x="222.65625"/>
     <use xlink:href="#DejaVuSans-32" x="286.279297"/>
     <use xlink:href="#DejaVuSans-39" x="349.902344"/>
     <use xlink:href="#DejaVuSans-33" x="413.525391"/>
    </g>
   </g>
   <g id="text_31">
    <!-- 272.0548 -->
    <g transform="translate(293.057644 146.764304) scale(0.06 -0.06)">
     <use xlink:href="#DejaVuSans-32"/>
     <use xlink:href="#DejaVuSans-37" x="63.623047"/>
     <use xlink:href="#DejaVuSans-32" x="127.246094"/>
     <use xlink:href="#DejaVuSans-2e" x="190.869141"/>
     <use xlink:href="#DejaVuSans-30" x="222.65625"/>
     <use xlink:href="#DejaVuSans-35" x="286.279297"/>
     <use xlink:href="#DejaVuSans-34" x="349.902344"/>
     <use xlink:href="#DejaVuSans-38" x="413.525391"/>
    </g>
   </g>
   <g id="text_32">
    <!-- MS2 spectrum of ${m/z}$ 363.1175, scan time 6.22 min. -->
    <g transform="translate(57.6 24.873562) scale(0.12 -0.12)">
     <defs>
      <path id="DejaVuSans-4d" d="M 628 4666 
L 1569 4666 
L 2759 1491 
L 3956 4666 
L 4897 4666 
L 4897 0 
L 4281 0 
L 4281 4097 
L 3078 897 
L 2444 897 
L 1241 4097 
L 1241 0 
L 628 0 
L 628 4666 
z
" transform="scale(0.015625)"/>
      <path id="DejaVuSans-53" d="M 3425 4513 
L 3425 3897 
Q 3066 4069 2747 4153 
Q 2428 4238 2131 4238 
Q 1616 4238 1336 4038 
Q 1056 3838 1056 3469 
Q 1056 3159 1242 3001 
Q 1428 2844 1947 2747 
L 2328 2669 
Q 3034 2534 3370 2195 
Q 3706 1856 3706 1288 
Q 3706 609 3251 259 
Q 2797 -91 1919 -91 
Q 1588 -91 1214 -16 
Q 841 59 441 206 
L 441 856 
Q 825 641 1194 531 
Q 1563 422 1919 422 
Q 2459 422 2753 634 
Q 3047 847 3047 1241 
Q 3047 1584 2836 1778 
Q 2625 1972 2144 2069 
L 1759 2144 
Q 1053 2284 737 2584 
Q 422 2884 422 3419 
Q 422 4038 858 4394 
Q 1294 4750 2059 4750 
Q 2388 4750 2728 4690 
Q 3069 4631 3425 4513 
z
" transform="scale(0.015625)"/>
      <path id="DejaVuSans-20" transform="scale(0.015625)"/>
      <path id="DejaVuSans-70" d="M 1159 525 
L 1159 -1331 
L 581 -1331 
L 581 3500 
L 1159 3500 
L 1159 2969 
Q 1341 3281 1617 3432 
Q 1894 3584 2278 3584 
Q 2916 3584 3314 3078 
Q 3713 2572 3713 1747 
Q 3713 922 3314 415 
Q 2916 -91 2278 -91 
Q 1894 -91 1617 61 
Q 1341 213 1159 525 
z
M 3116 1747 
Q 3116 2381 2855 2742 
Q 2594 3103 2138 3103 
Q 1681 3103 1420 2742 
Q 1159 2381 1159 1747 
Q 1159 1113 1420 752 
Q 1681 391 2138 391 
Q 2594 391 2855 752 
Q 3116 1113 3116 1747 
z
" transform="scale(0.015625)"/>
      <path id="DejaVuSans-63" d="M 3122 3366 
L 3122 2828 
Q 2878 2963 2633 3030 
Q 2388 3097 2138 3097 
Q 1578 3097 1268 2742 
Q 959 2388 959 1747 
Q 959 1106 1268 751 
Q 1578 397 2138 397 
Q 2388 397 2633 464 
Q 2878 531 3122 666 
L 3122 134 
Q 2881 22 2623 -34 
Q 2366 -91 2075 -91 
Q 1284 -91 818 406 
Q 353 903 353 1747 
Q 353 2603 823 3093 
Q 1294 3584 2113 3584 
Q 2378 3584 2631 3529 
Q 2884 3475 3122 3366 
z
" transform="scale(0.015625)"/>
      <path id="DejaVuSans-72" d="M 2631 2963 
Q 2534 3019 2420 3045 
Q 2306 3072 2169 3072 
Q 1681 3072 1420 2755 
Q 1159 2438 1159 1844 
L 1159 0 
L 581 0 
L 581 3500 
L 1159 3500 
L 1159 2956 
Q 1341 3275 1631 3429 
Q 1922 3584 2338 3584 
Q 2397 3584 2469 3576 
Q 2541 3569 2628 3553 
L 2631 2963 
z
" transform="scale(0.015625)"/>
      <path id="DejaVuSans-75" d="M 544 1381 
L 544 3500 
L 1119 3500 
L 1119 1403 
Q 1119 906 1312 657 
Q 1506 409 1894 409 
Q 2359 409 2629 706 
Q 2900 1003 2900 1516 
L 2900 3500 
L 3475 3500 
L 3475 0 
L 2900 0 
L 2900 538 
Q 2691 219 2414 64 
Q 2138 -91 1772 -91 
Q 1169 -91 856 284 
Q 544 659 544 1381 
z
M 1991 3584 
L 1991 3584 
z
" transform="scale(0.015625)"/>
      <path id="DejaVuSans-6d" d="M 3328 2828 
Q 3544 3216 3844 3400 
Q 4144 3584 4550 3584 
Q 5097 3584 5394 3201 
Q 5691 2819 5691 2113 
L 5691 0 
L 5113 0 
L 5113 2094 
Q 5113 2597 4934 2840 
Q 4756 3084 4391 3084 
Q 3944 3084 3684 2787 
Q 3425 2491 3425 1978 
L 3425 0 
L 2847 0 
L 2847 2094 
Q 2847 2600 2669 2842 
Q 2491 3084 2119 3084 
Q 1678 3084 1418 2786 
Q 1159 2488 1159 1978 
L 1159 0 
L 581 0 
L 581 3500 
L 1159 3500 
L 1159 2956 
Q 1356 3278 1631 3431 
Q 1906 3584 2284 3584 
Q 2666 3584 2933 3390 
Q 3200 3197 3328 2828 
z
" transform="scale(0.015625)"/>
      <path id="DejaVuSans-6f" d="M 1959 3097 
Q 1497 3097 1228 2736 
Q 959 2375 959 1747 
Q 959 1119 1226 758 
Q 1494 397 1959 397 
Q 2419 397 2687 759 
Q 2956 1122 2956 1747 
Q 2956 2369 2687 2733 
Q 2419 3097 1959 3097 
z
M 1959 3584 
Q 2709 3584 3137 3096 
Q 3566 2609 3566 1747 
Q 3566 888 3137 398 
Q 2709 -91 1959 -91 
Q 1206 -91 779 398 
Q 353 888 353 1747 
Q 353 2609 779 3096 
Q 1206 3584 1959 3584 
z
" transform="scale(0.015625)"/>
      <path id="DejaVuSans-66" d="M 2375 4863 
L 2375 4384 
L 1825 4384 
Q 1516 4384 1395 4259 
Q 1275 4134 1275 3809 
L 1275 3500 
L 2222 3500 
L 2222 3053 
L 1275 3053 
L 1275 0 
L 697 0 
L 697 3053 
L 147 3053 
L 147 3500 
L 697 3500 
L 697 3744 
Q 697 4328 969 4595 
Q 1241 4863 1831 4863 
L 2375 4863 
z
" transform="scale(0.015625)"/>
      <path id="DejaVuSans-2c" d="M 750 794 
L 1409 794 
L 1409 256 
L 897 -744 
L 494 -744 
L 750 256 
L 750 794 
z
" transform="scale(0.015625)"/>
      <path id="DejaVuSans-61" d="M 2194 1759 
Q 1497 1759 1228 1600 
Q 959 1441 959 1056 
Q 959 750 1161 570 
Q 1363 391 1709 391 
Q 2188 391 2477 730 
Q 2766 1069 2766 1631 
L 2766 1759 
L 2194 1759 
z
M 3341 1997 
L 3341 0 
L 2766 0 
L 2766 531 
Q 2569 213 2275 61 
Q 1981 -91 1556 -91 
Q 1019 -91 701 211 
Q 384 513 384 1019 
Q 384 1609 779 1909 
Q 1175 2209 1959 2209 
L 2766 2209 
L 2766 2266 
Q 2766 2663 2505 2880 
Q 2244 3097 1772 3097 
Q 1472 3097 1187 3025 
Q 903 2953 641 2809 
L 641 3341 
Q 956 3463 1253 3523 
Q 1550 3584 1831 3584 
Q 2591 3584 2966 3190 
Q 3341 2797 3341 1997 
z
" transform="scale(0.015625)"/>
     </defs>
     <use xlink:href="#DejaVuSans-4d" transform="translate(0 0.015625)"/>
     <use xlink:href="#DejaVuSans-53" transform="translate(86.279297 0.015625)"/>
     <use xlink:href="#DejaVuSans-32" transform="translate(149.755859 0.015625)"/>
     <use xlink:href="#DejaVuSans-20" transform="translate(213.378906 0.015625)"/>
     <use xlink:href="#DejaVuSans-73" transform="translate(245.166016 0.015625)"/>
     <use xlink:href="#DejaVuSans-70" transform="translate(297.265625 0.015625)"/>
     <use xlink:href="#DejaVuSans-65" transform="translate(360.742188 0.015625)"/>
     <use xlink:href="#DejaVuSans-63" transform="translate(422.265625 0.015625)"/>
     <use xlink:href="#DejaVuSans-74" transform="translate(477.246094 0.015625)"/>
     <use xlink:href="#DejaVuSans-72" transform="translate(516.455078 0.015625)"/>
     <use xlink:href="#DejaVuSans-75" transform="translate(557.568359 0.015625)"/>
     <use xlink:href="#DejaVuSans-6d" transform="translate(620.947266 0.015625)"/>
     <use xlink:href="#DejaVuSans-20" transform="translate(718.359375 0.015625)"/>
     <use xlink:href="#DejaVuSans-6f" transform="translate(750.146484 0.015625)"/>
     <use xlink:href="#DejaVuSans-66" transform="translate(811.328125 0.015625)"/>
     <use xlink:href="#DejaVuSans-20" transform="translate(846.533203 0.015625)"/>
     <use xlink:href="#DejaVuSans-Oblique-6d" transform="translate(878.320312 0.015625)"/>
     <use xlink:href="#DejaVuSans-2f" transform="translate(975.732422 0.015625)"/>
     <use xlink:href="#DejaVuSans-Oblique-7a" transform="translate(1009.423828 0.015625)"/>
     <use xlink:href="#DejaVuSans-20" transform="translate(1061.914062 0.015625)"/>
     <use xlink:href="#DejaVuSans-33" transform="translate(1093.701172 0.015625)"/>
     <use xlink:href="#DejaVuSans-36" transform="translate(1157.324219 0.015625)"/>
     <use xlink:href="#DejaVuSans-33" transform="translate(1220.947266 0.015625)"/>
     <use xlink:href="#DejaVuSans-2e" transform="translate(1284.570312 0.015625)"/>
     <use xlink:href="#DejaVuSans-31" transform="translate(1316.357422 0.015625)"/>
     <use xlink:href="#DejaVuSans-31" transform="translate(1379.980469 0.015625)"/>
     <use xlink:href="#DejaVuSans-37" transform="translate(1443.603516 0.015625)"/>
     <use xlink:href="#DejaVuSans-35" transform="translate(1507.226562 0.015625)"/>
     <use xlink:href="#DejaVuSans-2c" transform="translate(1570.849609 0.015625)"/>
     <use xlink:href="#DejaVuSans-20" transform="translate(1602.636719 0.015625)"/>
     <use xlink:href="#DejaVuSans-73" transform="translate(1634.423828 0.015625)"/>
     <use xlink:href="#DejaVuSans-63" transform="translate(1686.523438 0.015625)"/>
     <use xlink:href="#DejaVuSans-61" transform="translate(1741.503906 0.015625)"/>
     <use xlink:href="#DejaVuSans-6e" transform="translate(1802.783203 0.015625)"/>
     <use xlink:href="#DejaVuSans-20" transform="translate(1866.162109 0.015625)"/>
     <use xlink:href="#DejaVuSans-74" transform="translate(1897.949219 0.015625)"/>
     <use xlink:href="#DejaVuSans-69" transform="translate(1937.158203 0.015625)"/>
     <use xlink:href="#DejaVuSans-6d" transform="translate(1964.941406 0.015625)"/>
     <use xlink:href="#DejaVuSans-65" transform="translate(2062.353516 0.015625)"/>
     <use xlink:href="#DejaVuSans-20" transform="translate(2123.876953 0.015625)"/>
     <use xlink:href="#DejaVuSans-36" transform="translate(2155.664062 0.015625)"/>
     <use xlink:href="#DejaVuSans-2e" transform="translate(2219.287109 0.015625)"/>
     <use xlink:href="#DejaVuSans-32" transform="translate(2245.574219 0.015625)"/>
     <use xlink:href="#DejaVuSans-32" transform="translate(2309.197266 0.015625)"/>
     <use xlink:href="#DejaVuSans-20" transform="translate(2372.820312 0.015625)"/>
     <use xlink:href="#DejaVuSans-6d" transform="translate(2404.607422 0.015625)"/>
     <use xlink:href="#DejaVuSans-69" transform="translate(2502.019531 0.015625)"/>
     <use xlink:href="#DejaVuSans-6e" transform="translate(2529.802734 0.015625)"/>
     <use xlink:href="#DejaVuSans-2e" transform="translate(2593.181641 0.015625)"/>
    </g>
   </g>
  </g>
 </g>
 <defs>
  <clipPath id="pcdd0b1d94a">
   <rect x="57.6" y="41.472" width="357.12" height="266.112"/>
  </clipPath>
 </defs>
</svg>
