<?xml version="1.0" encoding="utf-8" standalone="no"?>
<!DOCTYPE svg PUBLIC "-//W3C//DTD SVG 1.1//EN"
  "http://www.w3.org/Graphics/SVG/1.1/DTD/svg11.dtd">
<svg xmlns:xlink="http://www.w3.org/1999/xlink" width="460.8pt" height="345.6pt" viewBox="0 0 460.8 345.6" xmlns="http://www.w3.org/2000/svg" version="1.1">
 <metadata>
  <rdf:RDF xmlns:dc="http://purl.org/dc/elements/1.1/" xmlns:cc="http://creativecommons.org/ns#" xmlns:rdf="http://www.w3.org/1999/02/22-rdf-syntax-ns#">
   <cc:Work>
    <dc:type rdf:resource="http://purl.org/dc/dcmitype/StillImage"/>
    <dc:date>2025-01-11T13:58:54.433399</dc:date>
    <dc:format>image/svg+xml</dc:format>
    <dc:creator>
     <cc:Agent>
      <dc:title>Matplotlib v3.7.3, https://matplotlib.org/</dc:title>
     </cc:Agent>
    </dc:creator>
   </cc:Work>
  </rdf:RDF>
 </metadata>
 <defs>
  <style type="text/css">*{stroke-linejoin: round; stroke-linecap: butt}</style>
 </defs>
 <g id="figure_1">
  <g id="patch_1">
   <path d="M 0 345.6 
L 460.8 345.6 
L 460.8 0 
L 0 0 
z
" style="fill: #ffffff"/>
  </g>
  <g id="axes_1">
   <g id="patch_2">
    <path d="M 57.6 307.584 
L 414.72 307.584 
L 414.72 41.472 
L 57.6 41.472 
z
" style="fill: #ffffff"/>
   </g>
   <g id="patch_3">
    <path d="M 73.832727 307.584 
L 74.673032 307.584 
L 74.673032 305.285636 
L 73.832727 305.285636 
z
" clip-path="url(#p2124dabdd1)" style="fill: #1f77b4"/>
   </g>
   <g id="patch_4">
    <path d="M 74.074106 307.584 
L 74.91441 307.584 
L 74.91441 306.344091 
L 74.074106 306.344091 
z
" clip-path="url(#p2124dabdd1)" style="fill: #1f77b4"/>
   </g>
   <g id="patch_5">
    <path d="M 75.109092 307.584 
L 75.949397 307.584 
L 75.949397 304.083075 
L 75.109092 304.083075 
z
" clip-path="url(#p2124dabdd1)" style="fill: #1f77b4"/>
   </g>
   <g id="patch_6">
    <path d="M 76.12985 307.584 
L 76.970154 307.584 
L 76.970154 306.339428 
L 76.12985 306.339428 
z
" clip-path="url(#p2124dabdd1)" style="fill: #1f77b4"/>
   </g>
   <g id="patch_7">
    <path d="M 76.142552 307.584 
L 76.982856 307.584 
L 76.982856 306.107217 
L 76.142552 306.107217 
z
" clip-path="url(#p2124dabdd1)" style="fill: #1f77b4"/>
   </g>
   <g id="patch_8">
    <path d="M 76.385766 307.584 
L 77.22607 307.584 
L 77.22607 306.396646 
L 76.385766 306.396646 
z
" clip-path="url(#p2124dabdd1)" style="fill: #1f77b4"/>
   </g>
   <g id="patch_9">
    <path d="M 78.25993 307.584 
L 79.100234 307.584 
L 79.100234 306.126875 
L 78.25993 306.126875 
z
" clip-path="url(#p2124dabdd1)" style="fill: #1f77b4"/>
   </g>
   <g id="patch_10">
    <path d="M 78.910439 307.584 
L 79.750744 307.584 
L 79.750744 305.892033 
L 78.910439 305.892033 
z
" clip-path="url(#p2124dabdd1)" style="fill: #1f77b4"/>
   </g>
   <g id="patch_11">
    <path d="M 80.089713 307.584 
L 80.930018 307.584 
L 80.930018 306.546588 
L 80.089713 306.546588 
z
" clip-path="url(#p2124dabdd1)" style="fill: #1f77b4"/>
   </g>
   <g id="patch_12">
    <path d="M 81.521241 307.584 
L 82.361545 307.584 
L 82.361545 305.766236 
L 81.521241 305.766236 
z
" clip-path="url(#p2124dabdd1)" style="fill: #1f77b4"/>
   </g>
   <g id="patch_13">
    <path d="M 84.551118 307.584 
L 85.391423 307.584 
L 85.391423 306.515608 
L 84.551118 306.515608 
z
" clip-path="url(#p2124dabdd1)" style="fill: #1f77b4"/>
   </g>
   <g id="patch_14">
    <path d="M 86.62997 307.584 
L 87.470274 307.584 
L 87.470274 301.176382 
L 86.62997 301.176382 
z
" clip-path="url(#p2124dabdd1)" style="fill: #1f77b4"/>
   </g>
   <g id="patch_15">
    <path d="M 87.598354 307.584 
L 88.438658 307.584 
L 88.438658 306.704501 
L 87.598354 306.704501 
z
" clip-path="url(#p2124dabdd1)" style="fill: #1f77b4"/>
   </g>
   <g id="patch_16">
    <path d="M 87.71356 307.584 
L 88.553864 307.584 
L 88.553864 301.092522 
L 87.71356 301.092522 
z
" clip-path="url(#p2124dabdd1)" style="fill: #1f77b4"/>
   </g>
   <g id="patch_17">
    <path d="M 94.027215 307.584 
L 94.867519 307.584 
L 94.867519 306.418092 
L 94.027215 306.418092 
z
" clip-path="url(#p2124dabdd1)" style="fill: #1f77b4"/>
   </g>
   <g id="patch_18">
    <path d="M 104.514248 307.584 
L 105.354553 307.584 
L 105.354553 306.436957 
L 104.514248 306.436957 
z
" clip-path="url(#p2124dabdd1)" style="fill: #1f77b4"/>
   </g>
   <g id="patch_19">
    <path d="M 109.759853 307.584 
L 110.600157 307.584 
L 110.600157 305.442832 
L 109.759853 305.442832 
z
" clip-path="url(#p2124dabdd1)" style="fill: #1f77b4"/>
   </g>
   <g id="patch_20">
    <path d="M 111.876954 307.584 
L 112.717259 307.584 
L 112.717259 303.554544 
L 111.876954 303.554544 
z
" clip-path="url(#p2124dabdd1)" style="fill: #1f77b4"/>
   </g>
   <g id="patch_21">
    <path d="M 112.343227 307.584 
L 113.183532 307.584 
L 113.183532 306.234179 
L 112.343227 306.234179 
z
" clip-path="url(#p2124dabdd1)" style="fill: #1f77b4"/>
   </g>
   <g id="patch_22">
    <path d="M 112.922583 307.584 
L 113.762887 307.584 
L 113.762887 304.125412 
L 112.922583 304.125412 
z
" clip-path="url(#p2124dabdd1)" style="fill: #1f77b4"/>
   </g>
   <g id="patch_23">
    <path d="M 117.118624 307.584 
L 117.958928 307.584 
L 117.958928 304.154082 
L 117.118624 304.154082 
z
" clip-path="url(#p2124dabdd1)" style="fill: #1f77b4"/>
   </g>
   <g id="patch_24">
    <path d="M 118.337422 307.584 
L 119.177726 307.584 
L 119.177726 306.606654 
L 118.337422 306.606654 
z
" clip-path="url(#p2124dabdd1)" style="fill: #1f77b4"/>
   </g>
   <g id="patch_25">
    <path d="M 119.235709 307.584 
L 120.076013 307.584 
L 120.076013 299.669371 
L 119.235709 299.669371 
z
" clip-path="url(#p2124dabdd1)" style="fill: #1f77b4"/>
   </g>
   <g id="patch_26">
    <path d="M 120.269413 307.584 
L 121.109717 307.584 
L 121.109717 305.247312 
L 120.269413 305.247312 
z
" clip-path="url(#p2124dabdd1)" style="fill: #1f77b4"/>
   </g>
   <g id="patch_27">
    <path d="M 121.353099 307.584 
L 122.193403 307.584 
L 122.193403 306.03889 
L 121.353099 306.03889 
z
" clip-path="url(#p2124dabdd1)" style="fill: #1f77b4"/>
   </g>
   <g id="patch_28">
    <path d="M 123.43183 307.584 
L 124.272135 307.584 
L 124.272135 173.319177 
L 123.43183 173.319177 
z
" clip-path="url(#p2124dabdd1)" style="fill: #1f77b4"/>
   </g>
   <g id="patch_29">
    <path d="M 124.468251 307.584 
L 125.308555 307.584 
L 125.308555 305.489087 
L 124.468251 305.489087 
z
" clip-path="url(#p2124dabdd1)" style="fill: #1f77b4"/>
   </g>
   <g id="patch_30">
    <path d="M 124.480712 307.584 
L 125.321017 307.584 
L 125.321017 305.752557 
L 124.480712 305.752557 
z
" clip-path="url(#p2124dabdd1)" style="fill: #1f77b4"/>
   </g>
   <g id="patch_31">
    <path d="M 124.486578 307.584 
L 125.326883 307.584 
L 125.326883 306.14284 
L 124.486578 306.14284 
z
" clip-path="url(#p2124dabdd1)" style="fill: #1f77b4"/>
   </g>
   <g id="patch_32">
    <path d="M 125.501979 307.584 
L 126.342283 307.584 
L 126.342283 306.117084 
L 125.501979 306.117084 
z
" clip-path="url(#p2124dabdd1)" style="fill: #1f77b4"/>
   </g>
   <g id="patch_33">
    <path d="M 128.752764 307.584 
L 129.593068 307.584 
L 129.593068 306.499551 
L 128.752764 306.499551 
z
" clip-path="url(#p2124dabdd1)" style="fill: #1f77b4"/>
   </g>
   <g id="patch_34">
    <path d="M 129.722919 307.584 
L 130.563223 307.584 
L 130.563223 305.630779 
L 129.722919 305.630779 
z
" clip-path="url(#p2124dabdd1)" style="fill: #1f77b4"/>
   </g>
   <g id="patch_35">
    <path d="M 131.840461 307.584 
L 132.680765 307.584 
L 132.680765 306.171585 
L 131.840461 306.171585 
z
" clip-path="url(#p2124dabdd1)" style="fill: #1f77b4"/>
   </g>
   <g id="patch_36">
    <path d="M 133.919128 307.584 
L 134.759433 307.584 
L 134.759433 305.794576 
L 133.919128 305.794576 
z
" clip-path="url(#p2124dabdd1)" style="fill: #1f77b4"/>
   </g>
   <g id="patch_37">
    <path d="M 135.647185 307.584 
L 136.48749 307.584 
L 136.48749 306.602502 
L 135.647185 306.602502 
z
" clip-path="url(#p2124dabdd1)" style="fill: #1f77b4"/>
   </g>
   <g id="patch_38">
    <path d="M 136.014184 307.584 
L 136.854488 307.584 
L 136.854488 300.320286 
L 136.014184 300.320286 
z
" clip-path="url(#p2124dabdd1)" style="fill: #1f77b4"/>
   </g>
   <g id="patch_39">
    <path d="M 137.085873 307.584 
L 137.926177 307.584 
L 137.926177 303.053637 
L 137.085873 303.053637 
z
" clip-path="url(#p2124dabdd1)" style="fill: #1f77b4"/>
   </g>
   <g id="patch_40">
    <path d="M 137.697179 307.584 
L 138.537484 307.584 
L 138.537484 306.556647 
L 137.697179 306.556647 
z
" clip-path="url(#p2124dabdd1)" style="fill: #1f77b4"/>
   </g>
   <g id="patch_41">
    <path d="M 138.131117 307.584 
L 138.971421 307.584 
L 138.971421 299.997363 
L 138.131117 299.997363 
z
" clip-path="url(#p2124dabdd1)" style="fill: #1f77b4"/>
   </g>
   <g id="patch_42">
    <path d="M 139.176962 307.584 
L 140.017266 307.584 
L 140.017266 306.491646 
L 139.176962 306.491646 
z
" clip-path="url(#p2124dabdd1)" style="fill: #1f77b4"/>
   </g>
   <g id="patch_43">
    <path d="M 139.189575 307.584 
L 140.02988 307.584 
L 140.02988 306.087464 
L 139.189575 306.087464 
z
" clip-path="url(#p2124dabdd1)" style="fill: #1f77b4"/>
   </g>
   <g id="patch_44">
    <path d="M 140.248034 307.584 
L 141.088338 307.584 
L 141.088338 305.628598 
L 140.248034 305.628598 
z
" clip-path="url(#p2124dabdd1)" style="fill: #1f77b4"/>
   </g>
   <g id="patch_45">
    <path d="M 142.327198 307.584 
L 143.167502 307.584 
L 143.167502 304.881119 
L 142.327198 304.881119 
z
" clip-path="url(#p2124dabdd1)" style="fill: #1f77b4"/>
   </g>
   <g id="patch_46">
    <path d="M 146.524 307.584 
L 147.364305 307.584 
L 147.364305 306.226875 
L 146.524 306.226875 
z
" clip-path="url(#p2124dabdd1)" style="fill: #1f77b4"/>
   </g>
   <g id="patch_47">
    <path d="M 148.618254 307.584 
L 149.458559 307.584 
L 149.458559 306.175242 
L 148.618254 306.175242 
z
" clip-path="url(#p2124dabdd1)" style="fill: #1f77b4"/>
   </g>
   <g id="patch_48">
    <path d="M 148.640853 307.584 
L 149.481158 307.584 
L 149.481158 302.929452 
L 148.640853 302.929452 
z
" clip-path="url(#p2124dabdd1)" style="fill: #1f77b4"/>
   </g>
   <g id="patch_49">
    <path d="M 150.735636 307.584 
L 151.575941 307.584 
L 151.575941 296.066403 
L 150.735636 296.066403 
z
" clip-path="url(#p2124dabdd1)" style="fill: #1f77b4"/>
   </g>
   <g id="patch_50">
    <path d="M 150.744564 307.584 
L 151.584868 307.584 
L 151.584868 306.338061 
L 150.744564 306.338061 
z
" clip-path="url(#p2124dabdd1)" style="fill: #1f77b4"/>
   </g>
   <g id="patch_51">
    <path d="M 150.748282 307.584 
L 151.588586 307.584 
L 151.588586 306.726044 
L 150.748282 306.726044 
z
" clip-path="url(#p2124dabdd1)" style="fill: #1f77b4"/>
   </g>
   <g id="patch_52">
    <path d="M 150.75777 307.584 
L 151.598075 307.584 
L 151.598075 304.484731 
L 150.75777 304.484731 
z
" clip-path="url(#p2124dabdd1)" style="fill: #1f77b4"/>
   </g>
   <g id="patch_53">
    <path d="M 151.794415 307.584 
L 152.63472 307.584 
L 152.63472 304.192899 
L 151.794415 304.192899 
z
" clip-path="url(#p2124dabdd1)" style="fill: #1f77b4"/>
   </g>
   <g id="patch_54">
    <path d="M 151.807782 307.584 
L 152.648087 307.584 
L 152.648087 305.305039 
L 151.807782 305.305039 
z
" clip-path="url(#p2124dabdd1)" style="fill: #1f77b4"/>
   </g>
   <g id="patch_55">
    <path d="M 152.814376 307.584 
L 153.65468 307.584 
L 153.65468 305.815954 
L 152.814376 305.815954 
z
" clip-path="url(#p2124dabdd1)" style="fill: #1f77b4"/>
   </g>
   <g id="patch_56">
    <path d="M 152.837263 307.584 
L 153.677567 307.584 
L 153.677567 305.672833 
L 152.837263 305.672833 
z
" clip-path="url(#p2124dabdd1)" style="fill: #1f77b4"/>
   </g>
   <g id="patch_57">
    <path d="M 152.852746 307.584 
L 153.69305 307.584 
L 153.69305 274.031358 
L 152.852746 274.031358 
z
" clip-path="url(#p2124dabdd1)" style="fill: #1f77b4"/>
   </g>
   <g id="patch_58">
    <path d="M 153.909136 307.584 
L 154.749441 307.584 
L 154.749441 306.436569 
L 153.909136 306.436569 
z
" clip-path="url(#p2124dabdd1)" style="fill: #1f77b4"/>
   </g>
   <g id="patch_59">
    <path d="M 154.931773 307.584 
L 155.772078 307.584 
L 155.772078 299.332599 
L 154.931773 299.332599 
z
" clip-path="url(#p2124dabdd1)" style="fill: #1f77b4"/>
   </g>
   <g id="patch_60">
    <path d="M 156.015748 307.584 
L 156.856052 307.584 
L 156.856052 306.239887 
L 156.015748 306.239887 
z
" clip-path="url(#p2124dabdd1)" style="fill: #1f77b4"/>
   </g>
   <g id="patch_61">
    <path d="M 157.048963 307.584 
L 157.889267 307.584 
L 157.889267 305.165295 
L 157.048963 305.165295 
z
" clip-path="url(#p2124dabdd1)" style="fill: #1f77b4"/>
   </g>
   <g id="patch_62">
    <path d="M 158.06926 307.584 
L 158.909564 307.584 
L 158.909564 305.308886 
L 158.06926 305.308886 
z
" clip-path="url(#p2124dabdd1)" style="fill: #1f77b4"/>
   </g>
   <g id="patch_63">
    <path d="M 159.127911 307.584 
L 159.968215 307.584 
L 159.968215 293.822606 
L 159.127911 293.822606 
z
" clip-path="url(#p2124dabdd1)" style="fill: #1f77b4"/>
   </g>
   <g id="patch_64">
    <path d="M 163.340108 307.584 
L 164.180412 307.584 
L 164.180412 291.967126 
L 163.340108 291.967126 
z
" clip-path="url(#p2124dabdd1)" style="fill: #1f77b4"/>
   </g>
   <g id="patch_65">
    <path d="M 163.362178 307.584 
L 164.202482 307.584 
L 164.202482 304.197856 
L 163.362178 304.197856 
z
" clip-path="url(#p2124dabdd1)" style="fill: #1f77b4"/>
   </g>
   <g id="patch_66">
    <path d="M 164.398101 307.584 
L 165.238406 307.584 
L 165.238406 305.037729 
L 164.398101 305.037729 
z
" clip-path="url(#p2124dabdd1)" style="fill: #1f77b4"/>
   </g>
   <g id="patch_67">
    <path d="M 165.44627 307.584 
L 166.286575 307.584 
L 166.286575 305.871837 
L 165.44627 305.871837 
z
" clip-path="url(#p2124dabdd1)" style="fill: #1f77b4"/>
   </g>
   <g id="patch_68">
    <path d="M 165.457313 307.584 
L 166.297618 307.584 
L 166.297618 297.280704 
L 165.457313 297.280704 
z
" clip-path="url(#p2124dabdd1)" style="fill: #1f77b4"/>
   </g>
   <g id="patch_69">
    <path d="M 166.064677 307.584 
L 166.904981 307.584 
L 166.904981 306.533753 
L 166.064677 306.533753 
z
" clip-path="url(#p2124dabdd1)" style="fill: #1f77b4"/>
   </g>
   <g id="patch_70">
    <path d="M 166.477434 307.584 
L 167.317738 307.584 
L 167.317738 300.111396 
L 166.477434 300.111396 
z
" clip-path="url(#p2124dabdd1)" style="fill: #1f77b4"/>
   </g>
   <g id="patch_71">
    <path d="M 166.503655 307.584 
L 167.343959 307.584 
L 167.343959 306.452467 
L 166.503655 306.452467 
z
" clip-path="url(#p2124dabdd1)" style="fill: #1f77b4"/>
   </g>
   <g id="patch_72">
    <path d="M 166.515627 307.584 
L 167.355932 307.584 
L 167.355932 305.892629 
L 166.515627 305.892629 
z
" clip-path="url(#p2124dabdd1)" style="fill: #1f77b4"/>
   </g>
   <g id="patch_73">
    <path d="M 167.536069 307.584 
L 168.376373 307.584 
L 168.376373 299.884211 
L 167.536069 299.884211 
z
" clip-path="url(#p2124dabdd1)" style="fill: #1f77b4"/>
   </g>
   <g id="patch_74">
    <path d="M 167.558988 307.584 
L 168.399292 307.584 
L 168.399292 305.647919 
L 167.558988 305.647919 
z
" clip-path="url(#p2124dabdd1)" style="fill: #1f77b4"/>
   </g>
   <g id="patch_75">
    <path d="M 167.574038 307.584 
L 168.414342 307.584 
L 168.414342 304.133231 
L 167.574038 304.133231 
z
" clip-path="url(#p2124dabdd1)" style="fill: #1f77b4"/>
   </g>
   <g id="patch_76">
    <path d="M 169.616363 307.584 
L 170.456667 307.584 
L 170.456667 306.479158 
L 169.616363 306.479158 
z
" clip-path="url(#p2124dabdd1)" style="fill: #1f77b4"/>
   </g>
   <g id="patch_77">
    <path d="M 169.653434 307.584 
L 170.493739 307.584 
L 170.493739 288.852353 
L 169.653434 288.852353 
z
" clip-path="url(#p2124dabdd1)" style="fill: #1f77b4"/>
   </g>
   <g id="patch_78">
    <path d="M 173.793443 307.584 
L 174.633748 307.584 
L 174.633748 306.638574 
L 173.793443 306.638574 
z
" clip-path="url(#p2124dabdd1)" style="fill: #1f77b4"/>
   </g>
   <g id="patch_79">
    <path d="M 173.849812 307.584 
L 174.690117 307.584 
L 174.690117 299.637457 
L 173.849812 299.637457 
z
" clip-path="url(#p2124dabdd1)" style="fill: #1f77b4"/>
   </g>
   <g id="patch_80">
    <path d="M 175.944868 307.584 
L 176.785172 307.584 
L 176.785172 304.556223 
L 175.944868 304.556223 
z
" clip-path="url(#p2124dabdd1)" style="fill: #1f77b4"/>
   </g>
   <g id="patch_81">
    <path d="M 178.023607 307.584 
L 178.863911 307.584 
L 178.863911 305.010405 
L 178.023607 305.010405 
z
" clip-path="url(#p2124dabdd1)" style="fill: #1f77b4"/>
   </g>
   <g id="patch_82">
    <path d="M 178.047568 307.584 
L 178.887873 307.584 
L 178.887873 306.322627 
L 178.047568 306.322627 
z
" clip-path="url(#p2124dabdd1)" style="fill: #1f77b4"/>
   </g>
   <g id="patch_83">
    <path d="M 178.061688 307.584 
L 178.901993 307.584 
L 178.901993 303.852328 
L 178.061688 303.852328 
z
" clip-path="url(#p2124dabdd1)" style="fill: #1f77b4"/>
   </g>
   <g id="patch_84">
    <path d="M 179.106652 307.584 
L 179.946956 307.584 
L 179.946956 304.202763 
L 179.106652 304.202763 
z
" clip-path="url(#p2124dabdd1)" style="fill: #1f77b4"/>
   </g>
   <g id="patch_85">
    <path d="M 180.141037 307.584 
L 180.981341 307.584 
L 180.981341 290.490251 
L 180.141037 290.490251 
z
" clip-path="url(#p2124dabdd1)" style="fill: #1f77b4"/>
   </g>
   <g id="patch_86">
    <path d="M 180.163139 307.584 
L 181.003443 307.584 
L 181.003443 301.473687 
L 180.163139 301.473687 
z
" clip-path="url(#p2124dabdd1)" style="fill: #1f77b4"/>
   </g>
   <g id="patch_87">
    <path d="M 180.177435 307.584 
L 181.01774 307.584 
L 181.01774 306.008022 
L 180.177435 306.008022 
z
" clip-path="url(#p2124dabdd1)" style="fill: #1f77b4"/>
   </g>
   <g id="patch_88">
    <path d="M 181.199495 307.584 
L 182.0398 307.584 
L 182.0398 302.232442 
L 181.199495 302.232442 
z
" clip-path="url(#p2124dabdd1)" style="fill: #1f77b4"/>
   </g>
   <g id="patch_89">
    <path d="M 181.224082 307.584 
L 182.064386 307.584 
L 182.064386 305.310711 
L 181.224082 305.310711 
z
" clip-path="url(#p2124dabdd1)" style="fill: #1f77b4"/>
   </g>
   <g id="patch_90">
    <path d="M 182.220866 307.584 
L 183.061171 307.584 
L 183.061171 306.440436 
L 182.220866 306.440436 
z
" clip-path="url(#p2124dabdd1)" style="fill: #1f77b4"/>
   </g>
   <g id="patch_91">
    <path d="M 182.257906 307.584 
L 183.09821 307.584 
L 183.09821 283.012269 
L 182.257906 283.012269 
z
" clip-path="url(#p2124dabdd1)" style="fill: #1f77b4"/>
   </g>
   <g id="patch_92">
    <path d="M 183.278042 307.584 
L 184.118347 307.584 
L 184.118347 303.980335 
L 183.278042 303.980335 
z
" clip-path="url(#p2124dabdd1)" style="fill: #1f77b4"/>
   </g>
   <g id="patch_93">
    <path d="M 183.3159 307.584 
L 184.156204 307.584 
L 184.156204 304.009841 
L 183.3159 304.009841 
z
" clip-path="url(#p2124dabdd1)" style="fill: #1f77b4"/>
   </g>
   <g id="patch_94">
    <path d="M 184.337062 307.584 
L 185.177366 307.584 
L 185.177366 293.426815 
L 184.337062 293.426815 
z
" clip-path="url(#p2124dabdd1)" style="fill: #1f77b4"/>
   </g>
   <g id="patch_95">
    <path d="M 184.375127 307.584 
L 185.215432 307.584 
L 185.215432 303.554569 
L 184.375127 303.554569 
z
" clip-path="url(#p2124dabdd1)" style="fill: #1f77b4"/>
   </g>
   <g id="patch_96">
    <path d="M 186.454316 307.584 
L 187.29462 307.584 
L 187.29462 305.053435 
L 186.454316 305.053435 
z
" clip-path="url(#p2124dabdd1)" style="fill: #1f77b4"/>
   </g>
   <g id="patch_97">
    <path d="M 192.745364 307.584 
L 193.585669 307.584 
L 193.585669 298.027692 
L 192.745364 298.027692 
z
" clip-path="url(#p2124dabdd1)" style="fill: #1f77b4"/>
   </g>
   <g id="patch_98">
    <path d="M 192.76769 307.584 
L 193.607995 307.584 
L 193.607995 302.745539 
L 192.76769 302.745539 
z
" clip-path="url(#p2124dabdd1)" style="fill: #1f77b4"/>
   </g>
   <g id="patch_99">
    <path d="M 192.782275 307.584 
L 193.62258 307.584 
L 193.62258 305.8887 
L 192.782275 305.8887 
z
" clip-path="url(#p2124dabdd1)" style="fill: #1f77b4"/>
   </g>
   <g id="patch_100">
    <path d="M 193.828521 307.584 
L 194.668825 307.584 
L 194.668825 303.903814 
L 193.828521 303.903814 
z
" clip-path="url(#p2124dabdd1)" style="fill: #1f77b4"/>
   </g>
   <g id="patch_101">
    <path d="M 194.824328 307.584 
L 195.664632 307.584 
L 195.664632 299.094025 
L 194.824328 299.094025 
z
" clip-path="url(#p2124dabdd1)" style="fill: #1f77b4"/>
   </g>
   <g id="patch_102">
    <path d="M 194.862505 307.584 
L 195.70281 307.584 
L 195.70281 304.785343 
L 194.862505 304.785343 
z
" clip-path="url(#p2124dabdd1)" style="fill: #1f77b4"/>
   </g>
   <g id="patch_103">
    <path d="M 194.88496 307.584 
L 195.725265 307.584 
L 195.725265 302.454779 
L 194.88496 302.454779 
z
" clip-path="url(#p2124dabdd1)" style="fill: #1f77b4"/>
   </g>
   <g id="patch_104">
    <path d="M 195.883091 307.584 
L 196.723395 307.584 
L 196.723395 306.067299 
L 195.883091 306.067299 
z
" clip-path="url(#p2124dabdd1)" style="fill: #1f77b4"/>
   </g>
   <g id="patch_105">
    <path d="M 195.946159 307.584 
L 196.786464 307.584 
L 196.786464 305.886596 
L 195.946159 305.886596 
z
" clip-path="url(#p2124dabdd1)" style="fill: #1f77b4"/>
   </g>
   <g id="patch_106">
    <path d="M 196.941389 307.584 
L 197.781694 307.584 
L 197.781694 299.963763 
L 196.941389 299.963763 
z
" clip-path="url(#p2124dabdd1)" style="fill: #1f77b4"/>
   </g>
   <g id="patch_107">
    <path d="M 196.980208 307.584 
L 197.820512 307.584 
L 197.820512 305.685673 
L 196.980208 305.685673 
z
" clip-path="url(#p2124dabdd1)" style="fill: #1f77b4"/>
   </g>
   <g id="patch_108">
    <path d="M 199.058066 307.584 
L 199.89837 307.584 
L 199.89837 305.184631 
L 199.058066 305.184631 
z
" clip-path="url(#p2124dabdd1)" style="fill: #1f77b4"/>
   </g>
   <g id="patch_109">
    <path d="M 200.117486 307.584 
L 200.95779 307.584 
L 200.95779 305.934351 
L 200.117486 305.934351 
z
" clip-path="url(#p2124dabdd1)" style="fill: #1f77b4"/>
   </g>
   <g id="patch_110">
    <path d="M 201.175287 307.584 
L 202.015592 307.584 
L 202.015592 306.492052 
L 201.175287 306.492052 
z
" clip-path="url(#p2124dabdd1)" style="fill: #1f77b4"/>
   </g>
   <g id="patch_111">
    <path d="M 202.220507 307.584 
L 203.060812 307.584 
L 203.060812 306.295501 
L 202.220507 306.295501 
z
" clip-path="url(#p2124dabdd1)" style="fill: #1f77b4"/>
   </g>
   <g id="patch_112">
    <path d="M 203.254844 307.584 
L 204.095149 307.584 
L 204.095149 303.683262 
L 203.254844 303.683262 
z
" clip-path="url(#p2124dabdd1)" style="fill: #1f77b4"/>
   </g>
   <g id="patch_113">
    <path d="M 206.433137 307.584 
L 207.273441 307.584 
L 207.273441 304.224204 
L 206.433137 304.224204 
z
" clip-path="url(#p2124dabdd1)" style="fill: #1f77b4"/>
   </g>
   <g id="patch_114">
    <path d="M 207.46866 307.584 
L 208.308964 307.584 
L 208.308964 306.441409 
L 207.46866 306.441409 
z
" clip-path="url(#p2124dabdd1)" style="fill: #1f77b4"/>
   </g>
   <g id="patch_115">
    <path d="M 207.476962 307.584 
L 208.317267 307.584 
L 208.317267 306.427035 
L 207.476962 306.427035 
z
" clip-path="url(#p2124dabdd1)" style="fill: #1f77b4"/>
   </g>
   <g id="patch_116">
    <path d="M 207.491675 307.584 
L 208.33198 307.584 
L 208.33198 299.72573 
L 207.491675 299.72573 
z
" clip-path="url(#p2124dabdd1)" style="fill: #1f77b4"/>
   </g>
   <g id="patch_117">
    <path d="M 208.512245 307.584 
L 209.352549 307.584 
L 209.352549 306.413668 
L 208.512245 306.413668 
z
" clip-path="url(#p2124dabdd1)" style="fill: #1f77b4"/>
   </g>
   <g id="patch_118">
    <path d="M 208.550695 307.584 
L 209.390999 307.584 
L 209.390999 276.856415 
L 208.550695 276.856415 
z
" clip-path="url(#p2124dabdd1)" style="fill: #1f77b4"/>
   </g>
   <g id="patch_119">
    <path d="M 209.54562 307.584 
L 210.385925 307.584 
L 210.385925 301.481048 
L 209.54562 301.481048 
z
" clip-path="url(#p2124dabdd1)" style="fill: #1f77b4"/>
   </g>
   <g id="patch_120">
    <path d="M 209.570431 307.584 
L 210.410735 307.584 
L 210.410735 304.976828 
L 209.570431 304.976828 
z
" clip-path="url(#p2124dabdd1)" style="fill: #1f77b4"/>
   </g>
   <g id="patch_121">
    <path d="M 209.606829 307.584 
L 210.447134 307.584 
L 210.447134 305.991198 
L 209.606829 305.991198 
z
" clip-path="url(#p2124dabdd1)" style="fill: #1f77b4"/>
   </g>
   <g id="patch_122">
    <path d="M 210.604752 307.584 
L 211.445056 307.584 
L 211.445056 305.818731 
L 210.604752 305.818731 
z
" clip-path="url(#p2124dabdd1)" style="fill: #1f77b4"/>
   </g>
   <g id="patch_123">
    <path d="M 210.630107 307.584 
L 211.470412 307.584 
L 211.470412 304.788832 
L 210.630107 304.788832 
z
" clip-path="url(#p2124dabdd1)" style="fill: #1f77b4"/>
   </g>
   <g id="patch_124">
    <path d="M 211.663002 307.584 
L 212.503306 307.584 
L 212.503306 287.086915 
L 211.663002 287.086915 
z
" clip-path="url(#p2124dabdd1)" style="fill: #1f77b4"/>
   </g>
   <g id="patch_125">
    <path d="M 213.742254 307.584 
L 214.582559 307.584 
L 214.582559 299.420764 
L 213.742254 299.420764 
z
" clip-path="url(#p2124dabdd1)" style="fill: #1f77b4"/>
   </g>
   <g id="patch_126">
    <path d="M 213.780448 307.584 
L 214.620752 307.584 
L 214.620752 304.088385 
L 213.780448 304.088385 
z
" clip-path="url(#p2124dabdd1)" style="fill: #1f77b4"/>
   </g>
   <g id="patch_127">
    <path d="M 215.073822 307.584 
L 215.914126 307.584 
L 215.914126 306.616685 
L 215.073822 306.616685 
z
" clip-path="url(#p2124dabdd1)" style="fill: #1f77b4"/>
   </g>
   <g id="patch_128">
    <path d="M 215.860197 307.584 
L 216.700502 307.584 
L 216.700502 306.064939 
L 215.860197 306.064939 
z
" clip-path="url(#p2124dabdd1)" style="fill: #1f77b4"/>
   </g>
   <g id="patch_129">
    <path d="M 217.976729 307.584 
L 218.817034 307.584 
L 218.817034 302.898541 
L 217.976729 302.898541 
z
" clip-path="url(#p2124dabdd1)" style="fill: #1f77b4"/>
   </g>
   <g id="patch_130">
    <path d="M 219.991647 307.584 
L 220.831952 307.584 
L 220.831952 306.412551 
L 219.991647 306.412551 
z
" clip-path="url(#p2124dabdd1)" style="fill: #1f77b4"/>
   </g>
   <g id="patch_131">
    <path d="M 220.055661 307.584 
L 220.895966 307.584 
L 220.895966 306.347592 
L 220.055661 306.347592 
z
" clip-path="url(#p2124dabdd1)" style="fill: #1f77b4"/>
   </g>
   <g id="patch_132">
    <path d="M 221.092034 307.584 
L 221.932338 307.584 
L 221.932338 306.390593 
L 221.092034 306.390593 
z
" clip-path="url(#p2124dabdd1)" style="fill: #1f77b4"/>
   </g>
   <g id="patch_133">
    <path d="M 221.116732 307.584 
L 221.957037 307.584 
L 221.957037 301.757415 
L 221.116732 301.757415 
z
" clip-path="url(#p2124dabdd1)" style="fill: #1f77b4"/>
   </g>
   <g id="patch_134">
    <path d="M 222.150733 307.584 
L 222.991037 307.584 
L 222.991037 289.678904 
L 222.150733 289.678904 
z
" clip-path="url(#p2124dabdd1)" style="fill: #1f77b4"/>
   </g>
   <g id="patch_135">
    <path d="M 222.172754 307.584 
L 223.013059 307.584 
L 223.013059 298.302792 
L 222.172754 298.302792 
z
" clip-path="url(#p2124dabdd1)" style="fill: #1f77b4"/>
   </g>
   <g id="patch_136">
    <path d="M 222.189263 307.584 
L 223.029567 307.584 
L 223.029567 305.937914 
L 222.189263 305.937914 
z
" clip-path="url(#p2124dabdd1)" style="fill: #1f77b4"/>
   </g>
   <g id="patch_137">
    <path d="M 223.204784 307.584 
L 224.045088 307.584 
L 224.045088 305.939743 
L 223.204784 305.939743 
z
" clip-path="url(#p2124dabdd1)" style="fill: #1f77b4"/>
   </g>
   <g id="patch_138">
    <path d="M 223.233569 307.584 
L 224.073874 307.584 
L 224.073874 303.098034 
L 223.233569 303.098034 
z
" clip-path="url(#p2124dabdd1)" style="fill: #1f77b4"/>
   </g>
   <g id="patch_139">
    <path d="M 223.249773 307.584 
L 224.090077 307.584 
L 224.090077 305.612099 
L 223.249773 305.612099 
z
" clip-path="url(#p2124dabdd1)" style="fill: #1f77b4"/>
   </g>
   <g id="patch_140">
    <path d="M 223.27242 307.584 
L 224.112724 307.584 
L 224.112724 306.533573 
L 223.27242 306.533573 
z
" clip-path="url(#p2124dabdd1)" style="fill: #1f77b4"/>
   </g>
   <g id="patch_141">
    <path d="M 223.932209 307.584 
L 224.772514 307.584 
L 224.772514 306.580536 
L 223.932209 306.580536 
z
" clip-path="url(#p2124dabdd1)" style="fill: #1f77b4"/>
   </g>
   <g id="patch_142">
    <path d="M 224.229216 307.584 
L 225.06952 307.584 
L 225.06952 290.523975 
L 224.229216 290.523975 
z
" clip-path="url(#p2124dabdd1)" style="fill: #1f77b4"/>
   </g>
   <g id="patch_143">
    <path d="M 224.290553 307.584 
L 225.130858 307.584 
L 225.130858 305.588808 
L 224.290553 305.588808 
z
" clip-path="url(#p2124dabdd1)" style="fill: #1f77b4"/>
   </g>
   <g id="patch_144">
    <path d="M 224.307302 307.584 
L 225.147606 307.584 
L 225.147606 305.7662 
L 224.307302 305.7662 
z
" clip-path="url(#p2124dabdd1)" style="fill: #1f77b4"/>
   </g>
   <g id="patch_145">
    <path d="M 225.351223 307.584 
L 226.191528 307.584 
L 226.191528 292.798021 
L 225.351223 292.798021 
z
" clip-path="url(#p2124dabdd1)" style="fill: #1f77b4"/>
   </g>
   <g id="patch_146">
    <path d="M 226.37144 307.584 
L 227.211745 307.584 
L 227.211745 302.912426 
L 226.37144 302.912426 
z
" clip-path="url(#p2124dabdd1)" style="fill: #1f77b4"/>
   </g>
   <g id="patch_147">
    <path d="M 226.38641 307.584 
L 227.226714 307.584 
L 227.226714 304.504549 
L 226.38641 304.504549 
z
" clip-path="url(#p2124dabdd1)" style="fill: #1f77b4"/>
   </g>
   <g id="patch_148">
    <path d="M 226.407678 307.584 
L 227.247983 307.584 
L 227.247983 304.822954 
L 226.407678 304.822954 
z
" clip-path="url(#p2124dabdd1)" style="fill: #1f77b4"/>
   </g>
   <g id="patch_149">
    <path d="M 227.405633 307.584 
L 228.245937 307.584 
L 228.245937 305.077377 
L 227.405633 305.077377 
z
" clip-path="url(#p2124dabdd1)" style="fill: #1f77b4"/>
   </g>
   <g id="patch_150">
    <path d="M 227.426565 307.584 
L 228.266869 307.584 
L 228.266869 306.136081 
L 227.426565 306.136081 
z
" clip-path="url(#p2124dabdd1)" style="fill: #1f77b4"/>
   </g>
   <g id="patch_151">
    <path d="M 228.463739 307.584 
L 229.304043 307.584 
L 229.304043 266.86862 
L 228.463739 266.86862 
z
" clip-path="url(#p2124dabdd1)" style="fill: #1f77b4"/>
   </g>
   <g id="patch_152">
    <path d="M 228.483837 307.584 
L 229.324142 307.584 
L 229.324142 306.212517 
L 228.483837 306.212517 
z
" clip-path="url(#p2124dabdd1)" style="fill: #1f77b4"/>
   </g>
   <g id="patch_153">
    <path d="M 229.518703 307.584 
L 230.359008 307.584 
L 230.359008 305.209192 
L 229.518703 305.209192 
z
" clip-path="url(#p2124dabdd1)" style="fill: #1f77b4"/>
   </g>
   <g id="patch_154">
    <path d="M 230.58096 307.584 
L 231.421265 307.584 
L 231.421265 305.541003 
L 230.58096 305.541003 
z
" clip-path="url(#p2124dabdd1)" style="fill: #1f77b4"/>
   </g>
   <g id="patch_155">
    <path d="M 235.838297 307.584 
L 236.678601 307.584 
L 236.678601 300.445334 
L 235.838297 300.445334 
z
" clip-path="url(#p2124dabdd1)" style="fill: #1f77b4"/>
   </g>
   <g id="patch_156">
    <path d="M 236.874637 307.584 
L 237.714942 307.584 
L 237.714942 305.292286 
L 236.874637 305.292286 
z
" clip-path="url(#p2124dabdd1)" style="fill: #1f77b4"/>
   </g>
   <g id="patch_157">
    <path d="M 236.896755 307.584 
L 237.73706 307.584 
L 237.73706 291.077595 
L 236.896755 291.077595 
z
" clip-path="url(#p2124dabdd1)" style="fill: #1f77b4"/>
   </g>
   <g id="patch_158">
    <path d="M 237.955919 307.584 
L 238.796224 307.584 
L 238.796224 116.752957 
L 237.955919 116.752957 
z
" clip-path="url(#p2124dabdd1)" style="fill: #1f77b4"/>
   </g>
   <g id="patch_159">
    <path d="M 238.953377 307.584 
L 239.793681 307.584 
L 239.793681 306.40036 
L 238.953377 306.40036 
z
" clip-path="url(#p2124dabdd1)" style="fill: #1f77b4"/>
   </g>
   <g id="patch_160">
    <path d="M 238.975751 307.584 
L 239.816056 307.584 
L 239.816056 304.326777 
L 238.975751 304.326777 
z
" clip-path="url(#p2124dabdd1)" style="fill: #1f77b4"/>
   </g>
   <g id="patch_161">
    <path d="M 239.013031 307.584 
L 239.853336 307.584 
L 239.853336 267.205173 
L 239.013031 267.205173 
z
" clip-path="url(#p2124dabdd1)" style="fill: #1f77b4"/>
   </g>
   <g id="patch_162">
    <path d="M 240.070961 307.584 
L 240.911265 307.584 
L 240.911265 303.229051 
L 240.070961 303.229051 
z
" clip-path="url(#p2124dabdd1)" style="fill: #1f77b4"/>
   </g>
   <g id="patch_163">
    <path d="M 241.069605 307.584 
L 241.909909 307.584 
L 241.909909 306.093195 
L 241.069605 306.093195 
z
" clip-path="url(#p2124dabdd1)" style="fill: #1f77b4"/>
   </g>
   <g id="patch_164">
    <path d="M 241.089431 307.584 
L 241.929735 307.584 
L 241.929735 296.158004 
L 241.089431 296.158004 
z
" clip-path="url(#p2124dabdd1)" style="fill: #1f77b4"/>
   </g>
   <g id="patch_165">
    <path d="M 242.151399 307.584 
L 242.991704 307.584 
L 242.991704 304.322944 
L 242.151399 304.322944 
z
" clip-path="url(#p2124dabdd1)" style="fill: #1f77b4"/>
   </g>
   <g id="patch_166">
    <path d="M 243.147382 307.584 
L 243.987687 307.584 
L 243.987687 294.582152 
L 243.147382 294.582152 
z
" clip-path="url(#p2124dabdd1)" style="fill: #1f77b4"/>
   </g>
   <g id="patch_167">
    <path d="M 243.185336 307.584 
L 244.02564 307.584 
L 244.02564 299.347967 
L 243.185336 299.347967 
z
" clip-path="url(#p2124dabdd1)" style="fill: #1f77b4"/>
   </g>
   <g id="patch_168">
    <path d="M 243.207149 307.584 
L 244.047454 307.584 
L 244.047454 305.776795 
L 243.207149 305.776795 
z
" clip-path="url(#p2124dabdd1)" style="fill: #1f77b4"/>
   </g>
   <g id="patch_169">
    <path d="M 244.269566 307.584 
L 245.109871 307.584 
L 245.109871 306.414823 
L 244.269566 306.414823 
z
" clip-path="url(#p2124dabdd1)" style="fill: #1f77b4"/>
   </g>
   <g id="patch_170">
    <path d="M 245.265037 307.584 
L 246.105341 307.584 
L 246.105341 305.010053 
L 245.265037 305.010053 
z
" clip-path="url(#p2124dabdd1)" style="fill: #1f77b4"/>
   </g>
   <g id="patch_171">
    <path d="M 247.381761 307.584 
L 248.222066 307.584 
L 248.222066 303.698032 
L 247.381761 303.698032 
z
" clip-path="url(#p2124dabdd1)" style="fill: #1f77b4"/>
   </g>
   <g id="patch_172">
    <path d="M 252.638906 307.584 
L 253.47921 307.584 
L 253.47921 291.597048 
L 252.638906 291.597048 
z
" clip-path="url(#p2124dabdd1)" style="fill: #1f77b4"/>
   </g>
   <g id="patch_173">
    <path d="M 252.655414 307.584 
L 253.495718 307.584 
L 253.495718 300.378218 
L 252.655414 300.378218 
z
" clip-path="url(#p2124dabdd1)" style="fill: #1f77b4"/>
   </g>
   <g id="patch_174">
    <path d="M 253.71219 307.584 
L 254.552494 307.584 
L 254.552494 275.251845 
L 253.71219 275.251845 
z
" clip-path="url(#p2124dabdd1)" style="fill: #1f77b4"/>
   </g>
   <g id="patch_175">
    <path d="M 253.733009 307.584 
L 254.573314 307.584 
L 254.573314 306.61126 
L 253.733009 306.61126 
z
" clip-path="url(#p2124dabdd1)" style="fill: #1f77b4"/>
   </g>
   <g id="patch_176">
    <path d="M 254.756287 307.584 
L 255.596592 307.584 
L 255.596592 281.65592 
L 254.756287 281.65592 
z
" clip-path="url(#p2124dabdd1)" style="fill: #1f77b4"/>
   </g>
   <g id="patch_177">
    <path d="M 255.793541 307.584 
L 256.633846 307.584 
L 256.633846 297.675844 
L 255.793541 297.675844 
z
" clip-path="url(#p2124dabdd1)" style="fill: #1f77b4"/>
   </g>
   <g id="patch_178">
    <path d="M 255.815115 307.584 
L 256.655419 307.584 
L 256.655419 54.144 
L 255.815115 54.144 
z
" clip-path="url(#p2124dabdd1)" style="fill: #1f77b4"/>
   </g>
   <g id="patch_179">
    <path d="M 256.847528 307.584 
L 257.687833 307.584 
L 257.687833 305.91953 
L 256.847528 305.91953 
z
" clip-path="url(#p2124dabdd1)" style="fill: #1f77b4"/>
   </g>
   <g id="patch_180">
    <path d="M 256.869438 307.584 
L 257.709742 307.584 
L 257.709742 281.971428 
L 256.869438 281.971428 
z
" clip-path="url(#p2124dabdd1)" style="fill: #1f77b4"/>
   </g>
   <g id="patch_181">
    <path d="M 257.869332 307.584 
L 258.709636 307.584 
L 258.709636 198.299765 
L 257.869332 198.299765 
z
" clip-path="url(#p2124dabdd1)" style="fill: #1f77b4"/>
   </g>
   <g id="patch_182">
    <path d="M 257.888437 307.584 
L 258.728741 307.584 
L 258.728741 305.18286 
L 257.888437 305.18286 
z
" clip-path="url(#p2124dabdd1)" style="fill: #1f77b4"/>
   </g>
   <g id="patch_183">
    <path d="M 258.923479 307.584 
L 259.763783 307.584 
L 259.763783 300.376491 
L 258.923479 300.376491 
z
" clip-path="url(#p2124dabdd1)" style="fill: #1f77b4"/>
   </g>
   <g id="patch_184">
    <path d="M 260.012085 307.584 
L 260.85239 307.584 
L 260.85239 301.994542 
L 260.012085 301.994542 
z
" clip-path="url(#p2124dabdd1)" style="fill: #1f77b4"/>
   </g>
   <g id="patch_185">
    <path d="M 261.067499 307.584 
L 261.907803 307.584 
L 261.907803 306.501136 
L 261.067499 306.501136 
z
" clip-path="url(#p2124dabdd1)" style="fill: #1f77b4"/>
   </g>
   <g id="patch_186">
    <path d="M 266.302188 307.584 
L 267.142493 307.584 
L 267.142493 305.80852 
L 266.302188 305.80852 
z
" clip-path="url(#p2124dabdd1)" style="fill: #1f77b4"/>
   </g>
   <g id="patch_187">
    <path d="M 268.356806 307.584 
L 269.197111 307.584 
L 269.197111 265.954239 
L 268.356806 265.954239 
z
" clip-path="url(#p2124dabdd1)" style="fill: #1f77b4"/>
   </g>
   <g id="patch_188">
    <path d="M 268.381056 307.584 
L 269.22136 307.584 
L 269.22136 303.084821 
L 268.381056 303.084821 
z
" clip-path="url(#p2124dabdd1)" style="fill: #1f77b4"/>
   </g>
   <g id="patch_189">
    <path d="M 268.431911 307.584 
L 269.272216 307.584 
L 269.272216 306.196005 
L 268.431911 306.196005 
z
" clip-path="url(#p2124dabdd1)" style="fill: #1f77b4"/>
   </g>
   <g id="patch_190">
    <path d="M 269.409687 307.584 
L 270.249992 307.584 
L 270.249992 303.892104 
L 269.409687 303.892104 
z
" clip-path="url(#p2124dabdd1)" style="fill: #1f77b4"/>
   </g>
   <g id="patch_191">
    <path d="M 269.476842 307.584 
L 270.317147 307.584 
L 270.317147 301.870536 
L 269.476842 301.870536 
z
" clip-path="url(#p2124dabdd1)" style="fill: #1f77b4"/>
   </g>
   <g id="patch_192">
    <path d="M 270.48677 307.584 
L 271.327074 307.584 
L 271.327074 304.781402 
L 270.48677 304.781402 
z
" clip-path="url(#p2124dabdd1)" style="fill: #1f77b4"/>
   </g>
   <g id="patch_193">
    <path d="M 270.511756 307.584 
L 271.352061 307.584 
L 271.352061 304.217954 
L 270.511756 304.217954 
z
" clip-path="url(#p2124dabdd1)" style="fill: #1f77b4"/>
   </g>
   <g id="patch_194">
    <path d="M 270.536503 307.584 
L 271.376807 307.584 
L 271.376807 301.634123 
L 270.536503 301.634123 
z
" clip-path="url(#p2124dabdd1)" style="fill: #1f77b4"/>
   </g>
   <g id="patch_195">
    <path d="M 271.557297 307.584 
L 272.397601 307.584 
L 272.397601 305.070255 
L 271.557297 305.070255 
z
" clip-path="url(#p2124dabdd1)" style="fill: #1f77b4"/>
   </g>
   <g id="patch_196">
    <path d="M 271.594128 307.584 
L 272.434433 307.584 
L 272.434433 305.760513 
L 271.594128 305.760513 
z
" clip-path="url(#p2124dabdd1)" style="fill: #1f77b4"/>
   </g>
   <g id="patch_197">
    <path d="M 272.591041 307.584 
L 273.431345 307.584 
L 273.431345 303.826453 
L 272.591041 303.826453 
z
" clip-path="url(#p2124dabdd1)" style="fill: #1f77b4"/>
   </g>
   <g id="patch_198">
    <path d="M 274.708535 307.584 
L 275.548839 307.584 
L 275.548839 304.904554 
L 274.708535 304.904554 
z
" clip-path="url(#p2124dabdd1)" style="fill: #1f77b4"/>
   </g>
   <g id="patch_199">
    <path d="M 278.855035 307.584 
L 279.695339 307.584 
L 279.695339 305.765519 
L 278.855035 305.765519 
z
" clip-path="url(#p2124dabdd1)" style="fill: #1f77b4"/>
   </g>
   <g id="patch_200">
    <path d="M 282.044659 307.584 
L 282.884963 307.584 
L 282.884963 302.742196 
L 282.044659 302.742196 
z
" clip-path="url(#p2124dabdd1)" style="fill: #1f77b4"/>
   </g>
   <g id="patch_201">
    <path d="M 283.101851 307.584 
L 283.942156 307.584 
L 283.942156 305.24233 
L 283.101851 305.24233 
z
" clip-path="url(#p2124dabdd1)" style="fill: #1f77b4"/>
   </g>
   <g id="patch_202">
    <path d="M 284.161864 307.584 
L 285.002169 307.584 
L 285.002169 305.179093 
L 284.161864 305.179093 
z
" clip-path="url(#p2124dabdd1)" style="fill: #1f77b4"/>
   </g>
   <g id="patch_203">
    <path d="M 285.235052 307.584 
L 286.075357 307.584 
L 286.075357 298.518469 
L 285.235052 298.518469 
z
" clip-path="url(#p2124dabdd1)" style="fill: #1f77b4"/>
   </g>
   <g id="patch_204">
    <path d="M 286.279278 307.584 
L 287.119583 307.584 
L 287.119583 305.822428 
L 286.279278 305.822428 
z
" clip-path="url(#p2124dabdd1)" style="fill: #1f77b4"/>
   </g>
   <g id="patch_205">
    <path d="M 287.299014 307.584 
L 288.139319 307.584 
L 288.139319 302.050013 
L 287.299014 302.050013 
z
" clip-path="url(#p2124dabdd1)" style="fill: #1f77b4"/>
   </g>
   <g id="patch_206">
    <path d="M 288.395907 307.584 
L 289.236211 307.584 
L 289.236211 300.585343 
L 288.395907 300.585343 
z
" clip-path="url(#p2124dabdd1)" style="fill: #1f77b4"/>
   </g>
   <g id="patch_207">
    <path d="M 296.780103 307.584 
L 297.620408 307.584 
L 297.620408 306.380924 
L 296.780103 306.380924 
z
" clip-path="url(#p2124dabdd1)" style="fill: #1f77b4"/>
   </g>
   <g id="patch_208">
    <path d="M 298.884295 307.584 
L 299.724599 307.584 
L 299.724599 305.903187 
L 298.884295 305.903187 
z
" clip-path="url(#p2124dabdd1)" style="fill: #1f77b4"/>
   </g>
   <g id="patch_209">
    <path d="M 299.941791 307.584 
L 300.782096 307.584 
L 300.782096 303.38157 
L 299.941791 303.38157 
z
" clip-path="url(#p2124dabdd1)" style="fill: #1f77b4"/>
   </g>
   <g id="patch_210">
    <path d="M 300.96313 307.584 
L 301.803435 307.584 
L 301.803435 304.504846 
L 300.96313 304.504846 
z
" clip-path="url(#p2124dabdd1)" style="fill: #1f77b4"/>
   </g>
   <g id="patch_211">
    <path d="M 301.995784 307.584 
L 302.836089 307.584 
L 302.836089 145.110322 
L 301.995784 145.110322 
z
" clip-path="url(#p2124dabdd1)" style="fill: #1f77b4"/>
   </g>
   <g id="patch_212">
    <path d="M 302.021973 307.584 
L 302.862278 307.584 
L 302.862278 288.969799 
L 302.021973 288.969799 
z
" clip-path="url(#p2124dabdd1)" style="fill: #1f77b4"/>
   </g>
   <g id="patch_213">
    <path d="M 303.049627 307.584 
L 303.889931 307.584 
L 303.889931 292.554396 
L 303.049627 292.554396 
z
" clip-path="url(#p2124dabdd1)" style="fill: #1f77b4"/>
   </g>
   <g id="patch_214">
    <path d="M 303.076201 307.584 
L 303.916505 307.584 
L 303.916505 305.186236 
L 303.076201 305.186236 
z
" clip-path="url(#p2124dabdd1)" style="fill: #1f77b4"/>
   </g>
   <g id="patch_215">
    <path d="M 314.638722 307.584 
L 315.479026 307.584 
L 315.479026 305.993058 
L 314.638722 305.993058 
z
" clip-path="url(#p2124dabdd1)" style="fill: #1f77b4"/>
   </g>
   <g id="patch_216">
    <path d="M 315.684294 307.584 
L 316.524599 307.584 
L 316.524599 299.830353 
L 315.684294 299.830353 
z
" clip-path="url(#p2124dabdd1)" style="fill: #1f77b4"/>
   </g>
   <g id="patch_217">
    <path d="M 316.744291 307.584 
L 317.584596 307.584 
L 317.584596 301.440885 
L 316.744291 301.440885 
z
" clip-path="url(#p2124dabdd1)" style="fill: #1f77b4"/>
   </g>
   <g id="patch_218">
    <path d="M 317.801724 307.584 
L 318.642029 307.584 
L 318.642029 296.872941 
L 317.801724 296.872941 
z
" clip-path="url(#p2124dabdd1)" style="fill: #1f77b4"/>
   </g>
   <g id="patch_219">
    <path d="M 328.3414 307.584 
L 329.181705 307.584 
L 329.181705 306.109389 
L 328.3414 306.109389 
z
" clip-path="url(#p2124dabdd1)" style="fill: #1f77b4"/>
   </g>
   <g id="patch_220">
    <path d="M 334.602365 307.584 
L 335.442669 307.584 
L 335.442669 291.4731 
L 334.602365 291.4731 
z
" clip-path="url(#p2124dabdd1)" style="fill: #1f77b4"/>
   </g>
   <g id="patch_221">
    <path d="M 335.632936 307.584 
L 336.47324 307.584 
L 336.47324 304.659864 
L 335.632936 304.659864 
z
" clip-path="url(#p2124dabdd1)" style="fill: #1f77b4"/>
   </g>
   <g id="patch_222">
    <path d="M 349.323112 307.584 
L 350.163417 307.584 
L 350.163417 305.93561 
L 349.323112 305.93561 
z
" clip-path="url(#p2124dabdd1)" style="fill: #1f77b4"/>
   </g>
   <g id="patch_223">
    <path d="M 364.007413 307.584 
L 364.847717 307.584 
L 364.847717 302.081188 
L 364.007413 302.081188 
z
" clip-path="url(#p2124dabdd1)" style="fill: #1f77b4"/>
   </g>
   <g id="patch_224">
    <path d="M 378.726686 307.584 
L 379.56699 307.584 
L 379.56699 306.098857 
L 378.726686 306.098857 
z
" clip-path="url(#p2124dabdd1)" style="fill: #1f77b4"/>
   </g>
   <g id="patch_225">
    <path d="M 397.646968 307.584 
L 398.487273 307.584 
L 398.487273 305.993251 
L 397.646968 305.993251 
z
" clip-path="url(#p2124dabdd1)" style="fill: #1f77b4"/>
   </g>
   <g id="matplotlib.axis_1">
    <g id="xtick_1">
     <g id="line2d_1">
      <defs>
       <path id="md6a892113f" d="M 0 0 
L 0 3.5 
" style="stroke: #000000; stroke-width: 0.8"/>
      </defs>
      <g>
       <use xlink:href="#md6a892113f" x="69.173994" y="307.584" style="stroke: #000000; stroke-width: 0.8"/>
      </g>
     </g>
     <g id="text_1">
      <!-- 50 -->
      <g transform="translate(62.811494 322.182437) scale(0.1 -0.1)">
       <defs>
        <path id="DejaVuSans-35" d="M 691 4666 
L 3169 4666 
L 3169 4134 
L 1269 4134 
L 1269 2991 
Q 1406 3038 1543 3061 
Q 1681 3084 1819 3084 
Q 2600 3084 3056 2656 
Q 3513 2228 3513 1497 
Q 3513 744 3044 326 
Q 2575 -91 1722 -91 
Q 1428 -91 1123 -41 
Q 819 9 494 109 
L 494 744 
Q 775 591 1075 516 
Q 1375 441 1709 441 
Q 2250 441 2565 725 
Q 2881 1009 2881 1497 
Q 2881 1984 2565 2268 
Q 2250 2553 1709 2553 
Q 1456 2553 1204 2497 
Q 953 2441 691 2322 
L 691 4666 
z
" transform="scale(0.015625)"/>
        <path id="DejaVuSans-30" d="M 2034 4250 
Q 1547 4250 1301 3770 
Q 1056 3291 1056 2328 
Q 1056 1369 1301 889 
Q 1547 409 2034 409 
Q 2525 409 2770 889 
Q 3016 1369 3016 2328 
Q 3016 3291 2770 3770 
Q 2525 4250 2034 4250 
z
M 2034 4750 
Q 2819 4750 3233 4129 
Q 3647 3509 3647 2328 
Q 3647 1150 3233 529 
Q 2819 -91 2034 -91 
Q 1250 -91 836 529 
Q 422 1150 422 2328 
Q 422 3509 836 4129 
Q 1250 4750 2034 4750 
z
" transform="scale(0.015625)"/>
       </defs>
       <use xlink:href="#DejaVuSans-35"/>
       <use xlink:href="#DejaVuSans-30" x="63.623047"/>
      </g>
     </g>
    </g>
    <g id="xtick_2">
     <g id="line2d_2">
      <g>
       <use xlink:href="#md6a892113f" x="121.693025" y="307.584" style="stroke: #000000; stroke-width: 0.8"/>
      </g>
     </g>
     <g id="text_2">
      <!-- 100 -->
      <g transform="translate(112.149275 322.182437) scale(0.1 -0.1)">
       <defs>
        <path id="DejaVuSans-31" d="M 794 531 
L 1825 531 
L 1825 4091 
L 703 3866 
L 703 4441 
L 1819 4666 
L 2450 4666 
L 2450 531 
L 3481 531 
L 3481 0 
L 794 0 
L 794 531 
z
" transform="scale(0.015625)"/>
       </defs>
       <use xlink:href="#DejaVuSans-31"/>
       <use xlink:href="#DejaVuSans-30" x="63.623047"/>
       <use xlink:href="#DejaVuSans-30" x="127.246094"/>
      </g>
     </g>
    </g>
    <g id="xtick_3">
     <g id="line2d_3">
      <g>
       <use xlink:href="#md6a892113f" x="174.212057" y="307.584" style="stroke: #000000; stroke-width: 0.8"/>
      </g>
     </g>
     <g id="text_3">
      <!-- 150 -->
      <g transform="translate(164.668307 322.182437) scale(0.1 -0.1)">
       <use xlink:href="#DejaVuSans-31"/>
       <use xlink:href="#DejaVuSans-35" x="63.623047"/>
       <use xlink:href="#DejaVuSans-30" x="127.246094"/>
      </g>
     </g>
    </g>
    <g id="xtick_4">
     <g id="line2d_4">
      <g>
       <use xlink:href="#md6a892113f" x="226.731088" y="307.584" style="stroke: #000000; stroke-width: 0.8"/>
      </g>
     </g>
     <g id="text_4">
      <!-- 200 -->
      <g transform="translate(217.187338 322.182437) scale(0.1 -0.1)">
       <defs>
        <path id="DejaVuSans-32" d="M 1228 531 
L 3431 531 
L 3431 0 
L 469 0 
L 469 531 
Q 828 903 1448 1529 
Q 2069 2156 2228 2338 
Q 2531 2678 2651 2914 
Q 2772 3150 2772 3378 
Q 2772 3750 2511 3984 
Q 2250 4219 1831 4219 
Q 1534 4219 1204 4116 
Q 875 4013 500 3803 
L 500 4441 
Q 881 4594 1212 4672 
Q 1544 4750 1819 4750 
Q 2544 4750 2975 4387 
Q 3406 4025 3406 3419 
Q 3406 3131 3298 2873 
Q 3191 2616 2906 2266 
Q 2828 2175 2409 1742 
Q 1991 1309 1228 531 
z
" transform="scale(0.015625)"/>
       </defs>
       <use xlink:href="#DejaVuSans-32"/>
       <use xlink:href="#DejaVuSans-30" x="63.623047"/>
       <use xlink:href="#DejaVuSans-30" x="127.246094"/>
      </g>
     </g>
    </g>
    <g id="xtick_5">
     <g id="line2d_5">
      <g>
       <use xlink:href="#md6a892113f" x="279.25012" y="307.584" style="stroke: #000000; stroke-width: 0.8"/>
      </g>
     </g>
     <g id="text_5">
      <!-- 250 -->
      <g transform="translate(269.70637 322.182437) scale(0.1 -0.1)">
       <use xlink:href="#DejaVuSans-32"/>
       <use xlink:href="#DejaVuSans-35" x="63.623047"/>
       <use xlink:href="#DejaVuSans-30" x="127.246094"/>
      </g>
     </g>
    </g>
    <g id="xtick_6">
     <g id="line2d_6">
      <g>
       <use xlink:href="#md6a892113f" x="331.769152" y="307.584" style="stroke: #000000; stroke-width: 0.8"/>
      </g>
     </g>
     <g id="text_6">
      <!-- 300 -->
      <g transform="translate(322.225402 322.182437) scale(0.1 -0.1)">
       <defs>
        <path id="DejaVuSans-33" d="M 2597 2516 
Q 3050 2419 3304 2112 
Q 3559 1806 3559 1356 
Q 3559 666 3084 287 
Q 2609 -91 1734 -91 
Q 1441 -91 1130 -33 
Q 819 25 488 141 
L 488 750 
Q 750 597 1062 519 
Q 1375 441 1716 441 
Q 2309 441 2620 675 
Q 2931 909 2931 1356 
Q 2931 1769 2642 2001 
Q 2353 2234 1838 2234 
L 1294 2234 
L 1294 2753 
L 1863 2753 
Q 2328 2753 2575 2939 
Q 2822 3125 2822 3475 
Q 2822 3834 2567 4026 
Q 2313 4219 1838 4219 
Q 1578 4219 1281 4162 
Q 984 4106 628 3988 
L 628 4550 
Q 988 4650 1302 4700 
Q 1616 4750 1894 4750 
Q 2613 4750 3031 4423 
Q 3450 4097 3450 3541 
Q 3450 3153 3228 2886 
Q 3006 2619 2597 2516 
z
" transform="scale(0.015625)"/>
       </defs>
       <use xlink:href="#DejaVuSans-33"/>
       <use xlink:href="#DejaVuSans-30" x="63.623047"/>
       <use xlink:href="#DejaVuSans-30" x="127.246094"/>
      </g>
     </g>
    </g>
    <g id="xtick_7">
     <g id="line2d_7">
      <g>
       <use xlink:href="#md6a892113f" x="384.288183" y="307.584" style="stroke: #000000; stroke-width: 0.8"/>
      </g>
     </g>
     <g id="text_7">
      <!-- 350 -->
      <g transform="translate(374.744433 322.182437) scale(0.1 -0.1)">
       <use xlink:href="#DejaVuSans-33"/>
       <use xlink:href="#DejaVuSans-35" x="63.623047"/>
       <use xlink:href="#DejaVuSans-30" x="127.246094"/>
      </g>
     </g>
    </g>
    <g id="text_8">
     <!-- ${m/z}$ -->
     <g transform="translate(226.96 335.860562) scale(0.1 -0.1)">
      <defs>
       <path id="DejaVuSans-Oblique-6d" d="M 5747 2113 
L 5338 0 
L 4763 0 
L 5166 2094 
Q 5191 2228 5203 2325 
Q 5216 2422 5216 2491 
Q 5216 2772 5059 2928 
Q 4903 3084 4622 3084 
Q 4203 3084 3875 2770 
Q 3547 2456 3450 1953 
L 3066 0 
L 2491 0 
L 2900 2094 
Q 2925 2209 2937 2307 
Q 2950 2406 2950 2484 
Q 2950 2769 2794 2926 
Q 2638 3084 2363 3084 
Q 1938 3084 1609 2770 
Q 1281 2456 1184 1953 
L 800 0 
L 225 0 
L 909 3500 
L 1484 3500 
L 1375 2956 
Q 1609 3263 1923 3423 
Q 2238 3584 2597 3584 
Q 2978 3584 3223 3384 
Q 3469 3184 3519 2828 
Q 3781 3197 4126 3390 
Q 4472 3584 4856 3584 
Q 5306 3584 5551 3325 
Q 5797 3066 5797 2591 
Q 5797 2488 5784 2364 
Q 5772 2241 5747 2113 
z
" transform="scale(0.015625)"/>
       <path id="DejaVuSans-2f" d="M 1625 4666 
L 2156 4666 
L 531 -594 
L 0 -594 
L 1625 4666 
z
" transform="scale(0.015625)"/>
       <path id="DejaVuSans-Oblique-7a" d="M 744 3500 
L 3475 3500 
L 3372 2975 
L 738 459 
L 2913 459 
L 2822 0 
L -19 0 
L 84 525 
L 2719 3041 
L 653 3041 
L 744 3500 
z
" transform="scale(0.015625)"/>
      </defs>
      <use xlink:href="#DejaVuSans-Oblique-6d" transform="translate(0 0.09375)"/>
      <use xlink:href="#DejaVuSans-2f" transform="translate(97.412109 0.09375)"/>
      <use xlink:href="#DejaVuSans-Oblique-7a" transform="translate(131.103516 0.09375)"/>
     </g>
    </g>
   </g>
   <g id="matplotlib.axis_2">
    <g id="ytick_1">
     <g id="line2d_8">
      <defs>
       <path id="m589dfdd9b9" d="M 0 0 
L -3.5 0 
" style="stroke: #000000; stroke-width: 0.8"/>
      </defs>
      <g>
       <use xlink:href="#m589dfdd9b9" x="57.6" y="307.584" style="stroke: #000000; stroke-width: 0.8"/>
      </g>
     </g>
     <g id="text_9">
      <!-- 0.0 -->
      <g transform="translate(34.696875 311.383219) scale(0.1 -0.1)">
       <defs>
        <path id="DejaVuSans-2e" d="M 684 794 
L 1344 794 
L 1344 0 
L 684 0 
L 684 794 
z
" transform="scale(0.015625)"/>
       </defs>
       <use xlink:href="#DejaVuSans-30"/>
       <use xlink:href="#DejaVuSans-2e" x="63.623047"/>
       <use xlink:href="#DejaVuSans-30" x="95.410156"/>
      </g>
     </g>
    </g>
    <g id="ytick_2">
     <g id="line2d_9">
      <g>
       <use xlink:href="#m589dfdd9b9" x="57.6" y="259.570996" style="stroke: #000000; stroke-width: 0.8"/>
      </g>
     </g>
     <g id="text_10">
      <!-- 0.2 -->
      <g transform="translate(34.696875 263.370215) scale(0.1 -0.1)">
       <use xlink:href="#DejaVuSans-30"/>
       <use xlink:href="#DejaVuSans-2e" x="63.623047"/>
       <use xlink:href="#DejaVuSans-32" x="95.410156"/>
      </g>
     </g>
    </g>
    <g id="ytick_3">
     <g id="line2d_10">
      <g>
       <use xlink:href="#m589dfdd9b9" x="57.6" y="211.557993" style="stroke: #000000; stroke-width: 0.8"/>
      </g>
     </g>
     <g id="text_11">
      <!-- 0.4 -->
      <g transform="translate(34.696875 215.357212) scale(0.1 -0.1)">
       <defs>
        <path id="DejaVuSans-34" d="M 2419 4116 
L 825 1625 
L 2419 1625 
L 2419 4116 
z
M 2253 4666 
L 3047 4666 
L 3047 1625 
L 3713 1625 
L 3713 1100 
L 3047 1100 
L 3047 0 
L 2419 0 
L 2419 1100 
L 313 1100 
L 313 1709 
L 2253 4666 
z
" transform="scale(0.015625)"/>
       </defs>
       <use xlink:href="#DejaVuSans-30"/>
       <use xlink:href="#DejaVuSans-2e" x="63.623047"/>
       <use xlink:href="#DejaVuSans-34" x="95.410156"/>
      </g>
     </g>
    </g>
    <g id="ytick_4">
     <g id="line2d_11">
      <g>
       <use xlink:href="#m589dfdd9b9" x="57.6" y="163.544989" style="stroke: #000000; stroke-width: 0.8"/>
      </g>
     </g>
     <g id="text_12">
      <!-- 0.6 -->
      <g transform="translate(34.696875 167.344208) scale(0.1 -0.1)">
       <defs>
        <path id="DejaVuSans-36" d="M 2113 2584 
Q 1688 2584 1439 2293 
Q 1191 2003 1191 1497 
Q 1191 994 1439 701 
Q 1688 409 2113 409 
Q 2538 409 2786 701 
Q 3034 994 3034 1497 
Q 3034 2003 2786 2293 
Q 2538 2584 2113 2584 
z
M 3366 4563 
L 3366 3988 
Q 3128 4100 2886 4159 
Q 2644 4219 2406 4219 
Q 1781 4219 1451 3797 
Q 1122 3375 1075 2522 
Q 1259 2794 1537 2939 
Q 1816 3084 2150 3084 
Q 2853 3084 3261 2657 
Q 3669 2231 3669 1497 
Q 3669 778 3244 343 
Q 2819 -91 2113 -91 
Q 1303 -91 875 529 
Q 447 1150 447 2328 
Q 447 3434 972 4092 
Q 1497 4750 2381 4750 
Q 2619 4750 2861 4703 
Q 3103 4656 3366 4563 
z
" transform="scale(0.015625)"/>
       </defs>
       <use xlink:href="#DejaVuSans-30"/>
       <use xlink:href="#DejaVuSans-2e" x="63.623047"/>
       <use xlink:href="#DejaVuSans-36" x="95.410156"/>
      </g>
     </g>
    </g>
    <g id="ytick_5">
     <g id="line2d_12">
      <g>
       <use xlink:href="#m589dfdd9b9" x="57.6" y="115.531986" style="stroke: #000000; stroke-width: 0.8"/>
      </g>
     </g>
     <g id="text_13">
      <!-- 0.8 -->
      <g transform="translate(34.696875 119.331205) scale(0.1 -0.1)">
       <defs>
        <path id="DejaVuSans-38" d="M 2034 2216 
Q 1584 2216 1326 1975 
Q 1069 1734 1069 1313 
Q 1069 891 1326 650 
Q 1584 409 2034 409 
Q 2484 409 2743 651 
Q 3003 894 3003 1313 
Q 3003 1734 2745 1975 
Q 2488 2216 2034 2216 
z
M 1403 2484 
Q 997 2584 770 2862 
Q 544 3141 544 3541 
Q 544 4100 942 4425 
Q 1341 4750 2034 4750 
Q 2731 4750 3128 4425 
Q 3525 4100 3525 3541 
Q 3525 3141 3298 2862 
Q 3072 2584 2669 2484 
Q 3125 2378 3379 2068 
Q 3634 1759 3634 1313 
Q 3634 634 3220 271 
Q 2806 -91 2034 -91 
Q 1263 -91 848 271 
Q 434 634 434 1313 
Q 434 1759 690 2068 
Q 947 2378 1403 2484 
z
M 1172 3481 
Q 1172 3119 1398 2916 
Q 1625 2713 2034 2713 
Q 2441 2713 2670 2916 
Q 2900 3119 2900 3481 
Q 2900 3844 2670 4047 
Q 2441 4250 2034 4250 
Q 1625 4250 1398 4047 
Q 1172 3844 1172 3481 
z
" transform="scale(0.015625)"/>
       </defs>
       <use xlink:href="#DejaVuSans-30"/>
       <use xlink:href="#DejaVuSans-2e" x="63.623047"/>
       <use xlink:href="#DejaVuSans-38" x="95.410156"/>
      </g>
     </g>
    </g>
    <g id="ytick_6">
     <g id="line2d_13">
      <g>
       <use xlink:href="#m589dfdd9b9" x="57.6" y="67.518982" style="stroke: #000000; stroke-width: 0.8"/>
      </g>
     </g>
     <g id="text_14">
      <!-- 1.0 -->
      <g transform="translate(34.696875 71.318201) scale(0.1 -0.1)">
       <use xlink:href="#DejaVuSans-31"/>
       <use xlink:href="#DejaVuSans-2e" x="63.623047"/>
       <use xlink:href="#DejaVuSans-30" x="95.410156"/>
      </g>
     </g>
    </g>
    <g id="text_15">
     <!-- intensities -->
     <g transform="translate(28.617187 200.3155) rotate(-90) scale(0.1 -0.1)">
      <defs>
       <path id="DejaVuSans-69" d="M 603 3500 
L 1178 3500 
L 1178 0 
L 603 0 
L 603 3500 
z
M 603 4863 
L 1178 4863 
L 1178 4134 
L 603 4134 
L 603 4863 
z
" transform="scale(0.015625)"/>
       <path id="DejaVuSans-6e" d="M 3513 2113 
L 3513 0 
L 2938 0 
L 2938 2094 
Q 2938 2591 2744 2837 
Q 2550 3084 2163 3084 
Q 1697 3084 1428 2787 
Q 1159 2491 1159 1978 
L 1159 0 
L 581 0 
L 581 3500 
L 1159 3500 
L 1159 2956 
Q 1366 3272 1645 3428 
Q 1925 3584 2291 3584 
Q 2894 3584 3203 3211 
Q 3513 2838 3513 2113 
z
" transform="scale(0.015625)"/>
       <path id="DejaVuSans-74" d="M 1172 4494 
L 1172 3500 
L 2356 3500 
L 2356 3053 
L 1172 3053 
L 1172 1153 
Q 1172 725 1289 603 
Q 1406 481 1766 481 
L 2356 481 
L 2356 0 
L 1766 0 
Q 1100 0 847 248 
Q 594 497 594 1153 
L 594 3053 
L 172 3053 
L 172 3500 
L 594 3500 
L 594 4494 
L 1172 4494 
z
" transform="scale(0.015625)"/>
       <path id="DejaVuSans-65" d="M 3597 1894 
L 3597 1613 
L 953 1613 
Q 991 1019 1311 708 
Q 1631 397 2203 397 
Q 2534 397 2845 478 
Q 3156 559 3463 722 
L 3463 178 
Q 3153 47 2828 -22 
Q 2503 -91 2169 -91 
Q 1331 -91 842 396 
Q 353 884 353 1716 
Q 353 2575 817 3079 
Q 1281 3584 2069 3584 
Q 2775 3584 3186 3129 
Q 3597 2675 3597 1894 
z
M 3022 2063 
Q 3016 2534 2758 2815 
Q 2500 3097 2075 3097 
Q 1594 3097 1305 2825 
Q 1016 2553 972 2059 
L 3022 2063 
z
" transform="scale(0.015625)"/>
       <path id="DejaVuSans-73" d="M 2834 3397 
L 2834 2853 
Q 2591 2978 2328 3040 
Q 2066 3103 1784 3103 
Q 1356 3103 1142 2972 
Q 928 2841 928 2578 
Q 928 2378 1081 2264 
Q 1234 2150 1697 2047 
L 1894 2003 
Q 2506 1872 2764 1633 
Q 3022 1394 3022 966 
Q 3022 478 2636 193 
Q 2250 -91 1575 -91 
Q 1294 -91 989 -36 
Q 684 19 347 128 
L 347 722 
Q 666 556 975 473 
Q 1284 391 1588 391 
Q 1994 391 2212 530 
Q 2431 669 2431 922 
Q 2431 1156 2273 1281 
Q 2116 1406 1581 1522 
L 1381 1569 
Q 847 1681 609 1914 
Q 372 2147 372 2553 
Q 372 3047 722 3315 
Q 1072 3584 1716 3584 
Q 2034 3584 2315 3537 
Q 2597 3491 2834 3397 
z
" transform="scale(0.015625)"/>
      </defs>
      <use xlink:href="#DejaVuSans-69"/>
      <use xlink:href="#DejaVuSans-6e" x="27.783203"/>
      <use xlink:href="#DejaVuSans-74" x="91.162109"/>
      <use xlink:href="#DejaVuSans-65" x="130.371094"/>
      <use xlink:href="#DejaVuSans-6e" x="191.894531"/>
      <use xlink:href="#DejaVuSans-73" x="255.273438"/>
      <use xlink:href="#DejaVuSans-69" x="307.373047"/>
      <use xlink:href="#DejaVuSans-74" x="335.15625"/>
      <use xlink:href="#DejaVuSans-69" x="374.365234"/>
      <use xlink:href="#DejaVuSans-65" x="402.148438"/>
      <use xlink:href="#DejaVuSans-73" x="463.671875"/>
     </g>
    </g>
    <g id="text_16">
     <!-- 1e6 -->
     <g transform="translate(57.6 38.472) scale(0.1 -0.1)">
      <use xlink:href="#DejaVuSans-31"/>
      <use xlink:href="#DejaVuSans-65" x="63.623047"/>
      <use xlink:href="#DejaVuSans-36" x="125.146484"/>
     </g>
    </g>
   </g>
   <g id="patch_226">
    <path d="M 57.6 307.584 
L 57.6 41.472 
" style="fill: none; stroke: #000000; stroke-width: 0.8; stroke-linejoin: miter; stroke-linecap: square"/>
   </g>
   <g id="patch_227">
    <path d="M 414.72 307.584 
L 414.72 41.472 
" style="fill: none; stroke: #000000; stroke-width: 0.8; stroke-linejoin: miter; stroke-linecap: square"/>
   </g>
   <g id="patch_228">
    <path d="M 57.6 307.584 
L 414.72 307.584 
" style="fill: none; stroke: #000000; stroke-width: 0.8; stroke-linejoin: miter; stroke-linecap: square"/>
   </g>
   <g id="patch_229">
    <path d="M 57.6 41.472 
L 414.72 41.472 
" style="fill: none; stroke: #000000; stroke-width: 0.8; stroke-linejoin: miter; stroke-linecap: square"/>
   </g>
   <g id="text_17">
    <!-- 102.0554 -->
    <g transform="translate(115.297295 170.114802) scale(0.06 -0.06)">
     <use xlink:href="#DejaVuSans-31"/>
     <use xlink:href="#DejaVuSans-30" x="63.623047"/>
     <use xlink:href="#DejaVuSans-32" x="127.246094"/>
     <use xlink:href="#DejaVuSans-2e" x="190.869141"/>
     <use xlink:href="#DejaVuSans-30" x="222.65625"/>
     <use xlink:href="#DejaVuSans-35" x="286.279297"/>
     <use xlink:href="#DejaVuSans-35" x="349.902344"/>
     <use xlink:href="#DejaVuSans-34" x="413.525391"/>
    </g>
   </g>
   <g id="text_18">
    <!-- 130.0652 -->
    <g transform="translate(144.71821 270.826983) scale(0.06 -0.06)">
     <use xlink:href="#DejaVuSans-31"/>
     <use xlink:href="#DejaVuSans-33" x="63.623047"/>
     <use xlink:href="#DejaVuSans-30" x="127.246094"/>
     <use xlink:href="#DejaVuSans-2e" x="190.869141"/>
     <use xlink:href="#DejaVuSans-30" x="222.65625"/>
     <use xlink:href="#DejaVuSans-36" x="286.279297"/>
     <use xlink:href="#DejaVuSans-35" x="349.902344"/>
     <use xlink:href="#DejaVuSans-32" x="413.525391"/>
    </g>
   </g>
   <g id="text_19">
    <!-- 183.0916 -->
    <g transform="translate(191.05616 281.75204) scale(0.06 -0.06)">
     <defs>
      <path id="DejaVuSans-39" d="M 703 97 
L 703 672 
Q 941 559 1184 500 
Q 1428 441 1663 441 
Q 2288 441 2617 861 
Q 2947 1281 2994 2138 
Q 2813 1869 2534 1725 
Q 2256 1581 1919 1581 
Q 1219 1581 811 2004 
Q 403 2428 403 3163 
Q 403 3881 828 4315 
Q 1253 4750 1959 4750 
Q 2769 4750 3195 4129 
Q 3622 3509 3622 2328 
Q 3622 1225 3098 567 
Q 2575 -91 1691 -91 
Q 1453 -91 1209 -44 
Q 966 3 703 97 
z
M 1959 2075 
Q 2384 2075 2632 2365 
Q 2881 2656 2881 3163 
Q 2881 3666 2632 3958 
Q 2384 4250 1959 4250 
Q 1534 4250 1286 3958 
Q 1038 3666 1038 3163 
Q 1038 2656 1286 2365 
Q 1534 2075 1959 2075 
z
" transform="scale(0.015625)"/>
     </defs>
     <use xlink:href="#DejaVuSans-31"/>
     <use xlink:href="#DejaVuSans-38" x="63.623047"/>
     <use xlink:href="#DejaVuSans-33" x="127.246094"/>
     <use xlink:href="#DejaVuSans-2e" x="190.869141"/>
     <use xlink:href="#DejaVuSans-30" x="222.65625"/>
     <use xlink:href="#DejaVuSans-39" x="286.279297"/>
     <use xlink:href="#DejaVuSans-31" x="349.902344"/>
     <use xlink:href="#DejaVuSans-36" x="413.525391"/>
    </g>
   </g>
   <g id="text_20">
    <!-- 202.0495 -->
    <g transform="translate(205.929204 258.804245) scale(0.06 -0.06)">
     <use xlink:href="#DejaVuSans-32"/>
     <use xlink:href="#DejaVuSans-30" x="63.623047"/>
     <use xlink:href="#DejaVuSans-32" x="127.246094"/>
     <use xlink:href="#DejaVuSans-2e" x="190.869141"/>
     <use xlink:href="#DejaVuSans-30" x="222.65625"/>
     <use xlink:href="#DejaVuSans-34" x="286.279297"/>
     <use xlink:href="#DejaVuSans-39" x="349.902344"/>
     <use xlink:href="#DejaVuSans-35" x="413.525391"/>
    </g>
   </g>
   <g id="text_21">
    <!-- 211.0864 -->
    <g transform="translate(229.821384 113.548582) scale(0.06 -0.06)">
     <use xlink:href="#DejaVuSans-32"/>
     <use xlink:href="#DejaVuSans-31" x="63.623047"/>
     <use xlink:href="#DejaVuSans-31" x="127.246094"/>
     <use xlink:href="#DejaVuSans-2e" x="190.869141"/>
     <use xlink:href="#DejaVuSans-30" x="222.65625"/>
     <use xlink:href="#DejaVuSans-38" x="286.279297"/>
     <use xlink:href="#DejaVuSans-36" x="349.902344"/>
     <use xlink:href="#DejaVuSans-34" x="413.525391"/>
    </g>
   </g>
   <g id="text_22">
    <!-- 212.0928 -->
    <g transform="translate(230.878496 264.900798) scale(0.06 -0.06)">
     <use xlink:href="#DejaVuSans-32"/>
     <use xlink:href="#DejaVuSans-31" x="63.623047"/>
     <use xlink:href="#DejaVuSans-32" x="127.246094"/>
     <use xlink:href="#DejaVuSans-2e" x="190.869141"/>
     <use xlink:href="#DejaVuSans-30" x="222.65625"/>
     <use xlink:href="#DejaVuSans-39" x="286.279297"/>
     <use xlink:href="#DejaVuSans-32" x="349.902344"/>
     <use xlink:href="#DejaVuSans-38" x="413.525391"/>
    </g>
   </g>
   <g id="text_23">
    <!-- 226.087 -->
    <g transform="translate(248.431973 272.94747) scale(0.06 -0.06)">
     <defs>
      <path id="DejaVuSans-37" d="M 525 4666 
L 3525 4666 
L 3525 4397 
L 1831 0 
L 1172 0 
L 2766 4134 
L 525 4134 
L 525 4666 
z
" transform="scale(0.015625)"/>
     </defs>
     <use xlink:href="#DejaVuSans-32"/>
     <use xlink:href="#DejaVuSans-32" x="63.623047"/>
     <use xlink:href="#DejaVuSans-36" x="127.246094"/>
     <use xlink:href="#DejaVuSans-2e" x="190.869141"/>
     <use xlink:href="#DejaVuSans-30" x="222.65625"/>
     <use xlink:href="#DejaVuSans-38" x="286.279297"/>
     <use xlink:href="#DejaVuSans-37" x="349.902344"/>
    </g>
   </g>
   <g id="text_24">
    <!-- 227.081 -->
    <g transform="translate(231.970502 286.551545) scale(0.06 -0.06)">
     <use xlink:href="#DejaVuSans-32"/>
     <use xlink:href="#DejaVuSans-32" x="63.623047"/>
     <use xlink:href="#DejaVuSans-37" x="127.246094"/>
     <use xlink:href="#DejaVuSans-2e" x="190.869141"/>
     <use xlink:href="#DejaVuSans-30" x="222.65625"/>
     <use xlink:href="#DejaVuSans-38" x="286.279297"/>
     <use xlink:href="#DejaVuSans-31" x="349.902344"/>
    </g>
   </g>
   <g id="text_25">
    <!-- 228.089 -->
    <g transform="translate(249.589329 50.939625) scale(0.06 -0.06)">
     <use xlink:href="#DejaVuSans-32"/>
     <use xlink:href="#DejaVuSans-32" x="63.623047"/>
     <use xlink:href="#DejaVuSans-38" x="127.246094"/>
     <use xlink:href="#DejaVuSans-2e" x="190.869141"/>
     <use xlink:href="#DejaVuSans-30" x="222.65625"/>
     <use xlink:href="#DejaVuSans-38" x="286.279297"/>
     <use xlink:href="#DejaVuSans-39" x="349.902344"/>
    </g>
   </g>
   <g id="text_26">
    <!-- 229.0928 -->
    <g transform="translate(255.95011 286.867053) scale(0.06 -0.06)">
     <use xlink:href="#DejaVuSans-32"/>
     <use xlink:href="#DejaVuSans-32" x="63.623047"/>
     <use xlink:href="#DejaVuSans-39" x="127.246094"/>
     <use xlink:href="#DejaVuSans-2e" x="190.869141"/>
     <use xlink:href="#DejaVuSans-30" x="222.65625"/>
     <use xlink:href="#DejaVuSans-39" x="286.279297"/>
     <use xlink:href="#DejaVuSans-32" x="349.902344"/>
     <use xlink:href="#DejaVuSans-38" x="413.525391"/>
    </g>
   </g>
   <g id="text_27">
    <!-- 230.0447 -->
    <g transform="translate(249.734797 195.09539) scale(0.06 -0.06)">
     <use xlink:href="#DejaVuSans-32"/>
     <use xlink:href="#DejaVuSans-33" x="63.623047"/>
     <use xlink:href="#DejaVuSans-30" x="127.246094"/>
     <use xlink:href="#DejaVuSans-2e" x="190.869141"/>
     <use xlink:href="#DejaVuSans-30" x="222.65625"/>
     <use xlink:href="#DejaVuSans-34" x="286.279297"/>
     <use xlink:href="#DejaVuSans-34" x="349.902344"/>
     <use xlink:href="#DejaVuSans-37" x="413.525391"/>
    </g>
   </g>
   <g id="text_28">
    <!-- 240.0292 -->
    <g transform="translate(261.662271 259.329864) scale(0.06 -0.06)">
     <use xlink:href="#DejaVuSans-32"/>
     <use xlink:href="#DejaVuSans-34" x="63.623047"/>
     <use xlink:href="#DejaVuSans-30" x="127.246094"/>
     <use xlink:href="#DejaVuSans-2e" x="190.869141"/>
     <use xlink:href="#DejaVuSans-30" x="222.65625"/>
     <use xlink:href="#DejaVuSans-32" x="286.279297"/>
     <use xlink:href="#DejaVuSans-39" x="349.902344"/>
     <use xlink:href="#DejaVuSans-32" x="413.525391"/>
    </g>
   </g>
   <g id="text_29">
    <!-- 272.0547 -->
    <g transform="translate(293.861249 141.905947) scale(0.06 -0.06)">
     <use xlink:href="#DejaVuSans-32"/>
     <use xlink:href="#DejaVuSans-37" x="63.623047"/>
     <use xlink:href="#DejaVuSans-32" x="127.246094"/>
     <use xlink:href="#DejaVuSans-2e" x="190.869141"/>
     <use xlink:href="#DejaVuSans-30" x="222.65625"/>
     <use xlink:href="#DejaVuSans-35" x="286.279297"/>
     <use xlink:href="#DejaVuSans-34" x="349.902344"/>
     <use xlink:href="#DejaVuSans-37" x="413.525391"/>
    </g>
   </g>
   <g id="text_30">
    <!-- MS2 spectrum of ${m/z}$ 363.1175, scan time 6.27 min. -->
    <g transform="translate(57.6 24.873562) scale(0.12 -0.12)">
     <defs>
      <path id="DejaVuSans-4d" d="M 628 4666 
L 1569 4666 
L 2759 1491 
L 3956 4666 
L 4897 4666 
L 4897 0 
L 4281 0 
L 4281 4097 
L 3078 897 
L 2444 897 
L 1241 4097 
L 1241 0 
L 628 0 
L 628 4666 
z
" transform="scale(0.015625)"/>
      <path id="DejaVuSans-53" d="M 3425 4513 
L 3425 3897 
Q 3066 4069 2747 4153 
Q 2428 4238 2131 4238 
Q 1616 4238 1336 4038 
Q 1056 3838 1056 3469 
Q 1056 3159 1242 3001 
Q 1428 2844 1947 2747 
L 2328 2669 
Q 3034 2534 3370 2195 
Q 3706 1856 3706 1288 
Q 3706 609 3251 259 
Q 2797 -91 1919 -91 
Q 1588 -91 1214 -16 
Q 841 59 441 206 
L 441 856 
Q 825 641 1194 531 
Q 1563 422 1919 422 
Q 2459 422 2753 634 
Q 3047 847 3047 1241 
Q 3047 1584 2836 1778 
Q 2625 1972 2144 2069 
L 1759 2144 
Q 1053 2284 737 2584 
Q 422 2884 422 3419 
Q 422 4038 858 4394 
Q 1294 4750 2059 4750 
Q 2388 4750 2728 4690 
Q 3069 4631 3425 4513 
z
" transform="scale(0.015625)"/>
      <path id="DejaVuSans-20" transform="scale(0.015625)"/>
      <path id="DejaVuSans-70" d="M 1159 525 
L 1159 -1331 
L 581 -1331 
L 581 3500 
L 1159 3500 
L 1159 2969 
Q 1341 3281 1617 3432 
Q 1894 3584 2278 3584 
Q 2916 3584 3314 3078 
Q 3713 2572 3713 1747 
Q 3713 922 3314 415 
Q 2916 -91 2278 -91 
Q 1894 -91 1617 61 
Q 1341 213 1159 525 
z
M 3116 1747 
Q 3116 2381 2855 2742 
Q 2594 3103 2138 3103 
Q 1681 3103 1420 2742 
Q 1159 2381 1159 1747 
Q 1159 1113 1420 752 
Q 1681 391 2138 391 
Q 2594 391 2855 752 
Q 3116 1113 3116 1747 
z
" transform="scale(0.015625)"/>
      <path id="DejaVuSans-63" d="M 3122 3366 
L 3122 2828 
Q 2878 2963 2633 3030 
Q 2388 3097 2138 3097 
Q 1578 3097 1268 2742 
Q 959 2388 959 1747 
Q 959 1106 1268 751 
Q 1578 397 2138 397 
Q 2388 397 2633 464 
Q 2878 531 3122 666 
L 3122 134 
Q 2881 22 2623 -34 
Q 2366 -91 2075 -91 
Q 1284 -91 818 406 
Q 353 903 353 1747 
Q 353 2603 823 3093 
Q 1294 3584 2113 3584 
Q 2378 3584 2631 3529 
Q 2884 3475 3122 3366 
z
" transform="scale(0.015625)"/>
      <path id="DejaVuSans-72" d="M 2631 2963 
Q 2534 3019 2420 3045 
Q 2306 3072 2169 3072 
Q 1681 3072 1420 2755 
Q 1159 2438 1159 1844 
L 1159 0 
L 581 0 
L 581 3500 
L 1159 3500 
L 1159 2956 
Q 1341 3275 1631 3429 
Q 1922 3584 2338 3584 
Q 2397 3584 2469 3576 
Q 2541 3569 2628 3553 
L 2631 2963 
z
" transform="scale(0.015625)"/>
      <path id="DejaVuSans-75" d="M 544 1381 
L 544 3500 
L 1119 3500 
L 1119 1403 
Q 1119 906 1312 657 
Q 1506 409 1894 409 
Q 2359 409 2629 706 
Q 2900 1003 2900 1516 
L 2900 3500 
L 3475 3500 
L 3475 0 
L 2900 0 
L 2900 538 
Q 2691 219 2414 64 
Q 2138 -91 1772 -91 
Q 1169 -91 856 284 
Q 544 659 544 1381 
z
M 1991 3584 
L 1991 3584 
z
" transform="scale(0.015625)"/>
      <path id="DejaVuSans-6d" d="M 3328 2828 
Q 3544 3216 3844 3400 
Q 4144 3584 4550 3584 
Q 5097 3584 5394 3201 
Q 5691 2819 5691 2113 
L 5691 0 
L 5113 0 
L 5113 2094 
Q 5113 2597 4934 2840 
Q 4756 3084 4391 3084 
Q 3944 3084 3684 2787 
Q 3425 2491 3425 1978 
L 3425 0 
L 2847 0 
L 2847 2094 
Q 2847 2600 2669 2842 
Q 2491 3084 2119 3084 
Q 1678 3084 1418 2786 
Q 1159 2488 1159 1978 
L 1159 0 
L 581 0 
L 581 3500 
L 1159 3500 
L 1159 2956 
Q 1356 3278 1631 3431 
Q 1906 3584 2284 3584 
Q 2666 3584 2933 3390 
Q 3200 3197 3328 2828 
z
" transform="scale(0.015625)"/>
      <path id="DejaVuSans-6f" d="M 1959 3097 
Q 1497 3097 1228 2736 
Q 959 2375 959 1747 
Q 959 1119 1226 758 
Q 1494 397 1959 397 
Q 2419 397 2687 759 
Q 2956 1122 2956 1747 
Q 2956 2369 2687 2733 
Q 2419 3097 1959 3097 
z
M 1959 3584 
Q 2709 3584 3137 3096 
Q 3566 2609 3566 1747 
Q 3566 888 3137 398 
Q 2709 -91 1959 -91 
Q 1206 -91 779 398 
Q 353 888 353 1747 
Q 353 2609 779 3096 
Q 1206 3584 1959 3584 
z
" transform="scale(0.015625)"/>
      <path id="DejaVuSans-66" d="M 2375 4863 
L 2375 4384 
L 1825 4384 
Q 1516 4384 1395 4259 
Q 1275 4134 1275 3809 
L 1275 3500 
L 2222 3500 
L 2222 3053 
L 1275 3053 
L 1275 0 
L 697 0 
L 697 3053 
L 147 3053 
L 147 3500 
L 697 3500 
L 697 3744 
Q 697 4328 969 4595 
Q 1241 4863 1831 4863 
L 2375 4863 
z
" transform="scale(0.015625)"/>
      <path id="DejaVuSans-2c" d="M 750 794 
L 1409 794 
L 1409 256 
L 897 -744 
L 494 -744 
L 750 256 
L 750 794 
z
" transform="scale(0.015625)"/>
      <path id="DejaVuSans-61" d="M 2194 1759 
Q 1497 1759 1228 1600 
Q 959 1441 959 1056 
Q 959 750 1161 570 
Q 1363 391 1709 391 
Q 2188 391 2477 730 
Q 2766 1069 2766 1631 
L 2766 1759 
L 2194 1759 
z
M 3341 1997 
L 3341 0 
L 2766 0 
L 2766 531 
Q 2569 213 2275 61 
Q 1981 -91 1556 -91 
Q 1019 -91 701 211 
Q 384 513 384 1019 
Q 384 1609 779 1909 
Q 1175 2209 1959 2209 
L 2766 2209 
L 2766 2266 
Q 2766 2663 2505 2880 
Q 2244 3097 1772 3097 
Q 1472 3097 1187 3025 
Q 903 2953 641 2809 
L 641 3341 
Q 956 3463 1253 3523 
Q 1550 3584 1831 3584 
Q 2591 3584 2966 3190 
Q 3341 2797 3341 1997 
z
" transform="scale(0.015625)"/>
     </defs>
     <use xlink:href="#DejaVuSans-4d" transform="translate(0 0.015625)"/>
     <use xlink:href="#DejaVuSans-53" transform="translate(86.279297 0.015625)"/>
     <use xlink:href="#DejaVuSans-32" transform="translate(149.755859 0.015625)"/>
     <use xlink:href="#DejaVuSans-20" transform="translate(213.378906 0.015625)"/>
     <use xlink:href="#DejaVuSans-73" transform="translate(245.166016 0.015625)"/>
     <use xlink:href="#DejaVuSans-70" transform="translate(297.265625 0.015625)"/>
     <use xlink:href="#DejaVuSans-65" transform="translate(360.742188 0.015625)"/>
     <use xlink:href="#DejaVuSans-63" transform="translate(422.265625 0.015625)"/>
     <use xlink:href="#DejaVuSans-74" transform="translate(477.246094 0.015625)"/>
     <use xlink:href="#DejaVuSans-72" transform="translate(516.455078 0.015625)"/>
     <use xlink:href="#DejaVuSans-75" transform="translate(557.568359 0.015625)"/>
     <use xlink:href="#DejaVuSans-6d" transform="translate(620.947266 0.015625)"/>
     <use xlink:href="#DejaVuSans-20" transform="translate(718.359375 0.015625)"/>
     <use xlink:href="#DejaVuSans-6f" transform="translate(750.146484 0.015625)"/>
     <use xlink:href="#DejaVuSans-66" transform="translate(811.328125 0.015625)"/>
     <use xlink:href="#DejaVuSans-20" transform="translate(846.533203 0.015625)"/>
     <use xlink:href="#DejaVuSans-Oblique-6d" transform="translate(878.320312 0.015625)"/>
     <use xlink:href="#DejaVuSans-2f" transform="translate(975.732422 0.015625)"/>
     <use xlink:href="#DejaVuSans-Oblique-7a" transform="translate(1009.423828 0.015625)"/>
     <use xlink:href="#DejaVuSans-20" transform="translate(1061.914062 0.015625)"/>
     <use xlink:href="#DejaVuSans-33" transform="translate(1093.701172 0.015625)"/>
     <use xlink:href="#DejaVuSans-36" transform="translate(1157.324219 0.015625)"/>
     <use xlink:href="#DejaVuSans-33" transform="translate(1220.947266 0.015625)"/>
     <use xlink:href="#DejaVuSans-2e" transform="translate(1284.570312 0.015625)"/>
     <use xlink:href="#DejaVuSans-31" transform="translate(1316.357422 0.015625)"/>
     <use xlink:href="#DejaVuSans-31" transform="translate(1379.980469 0.015625)"/>
     <use xlink:href="#DejaVuSans-37" transform="translate(1443.603516 0.015625)"/>
     <use xlink:href="#DejaVuSans-35" transform="translate(1507.226562 0.015625)"/>
     <use xlink:href="#DejaVuSans-2c" transform="translate(1570.849609 0.015625)"/>
     <use xlink:href="#DejaVuSans-20" transform="translate(1602.636719 0.015625)"/>
     <use xlink:href="#DejaVuSans-73" transform="translate(1634.423828 0.015625)"/>
     <use xlink:href="#DejaVuSans-63" transform="translate(1686.523438 0.015625)"/>
     <use xlink:href="#DejaVuSans-61" transform="translate(1741.503906 0.015625)"/>
     <use xlink:href="#DejaVuSans-6e" transform="translate(1802.783203 0.015625)"/>
     <use xlink:href="#DejaVuSans-20" transform="translate(1866.162109 0.015625)"/>
     <use xlink:href="#DejaVuSans-74" transform="translate(1897.949219 0.015625)"/>
     <use xlink:href="#DejaVuSans-69" transform="translate(1937.158203 0.015625)"/>
     <use xlink:href="#DejaVuSans-6d" transform="translate(1964.941406 0.015625)"/>
     <use xlink:href="#DejaVuSans-65" transform="translate(2062.353516 0.015625)"/>
     <use xlink:href="#DejaVuSans-20" transform="translate(2123.876953 0.015625)"/>
     <use xlink:href="#DejaVuSans-36" transform="translate(2155.664062 0.015625)"/>
     <use xlink:href="#DejaVuSans-2e" transform="translate(2219.287109 0.015625)"/>
     <use xlink:href="#DejaVuSans-32" transform="translate(2245.574219 0.015625)"/>
     <use xlink:href="#DejaVuSans-37" transform="translate(2309.197266 0.015625)"/>
     <use xlink:href="#DejaVuSans-20" transform="translate(2372.820312 0.015625)"/>
     <use xlink:href="#DejaVuSans-6d" transform="translate(2404.607422 0.015625)"/>
     <use xlink:href="#DejaVuSans-69" transform="translate(2502.019531 0.015625)"/>
     <use xlink:href="#DejaVuSans-6e" transform="translate(2529.802734 0.015625)"/>
     <use xlink:href="#DejaVuSans-2e" transform="translate(2593.181641 0.015625)"/>
    </g>
   </g>
  </g>
 </g>
 <defs>
  <clipPath id="p2124dabdd1">
   <rect x="57.6" y="41.472" width="357.12" height="266.112"/>
  </clipPath>
 </defs>
</svg>
