<?xml version="1.0" encoding="utf-8" standalone="no"?>
<!DOCTYPE svg PUBLIC "-//W3C//DTD SVG 1.1//EN"
  "http://www.w3.org/Graphics/SVG/1.1/DTD/svg11.dtd">
<svg xmlns:xlink="http://www.w3.org/1999/xlink" width="460.8pt" height="345.6pt" viewBox="0 0 460.8 345.6" xmlns="http://www.w3.org/2000/svg" version="1.1">
 <metadata>
  <rdf:RDF xmlns:dc="http://purl.org/dc/elements/1.1/" xmlns:cc="http://creativecommons.org/ns#" xmlns:rdf="http://www.w3.org/1999/02/22-rdf-syntax-ns#">
   <cc:Work>
    <dc:type rdf:resource="http://purl.org/dc/dcmitype/StillImage"/>
    <dc:date>2025-01-11T13:58:54.883248</dc:date>
    <dc:format>image/svg+xml</dc:format>
    <dc:creator>
     <cc:Agent>
      <dc:title>Matplotlib v3.7.3, https://matplotlib.org/</dc:title>
     </cc:Agent>
    </dc:creator>
   </cc:Work>
  </rdf:RDF>
 </metadata>
 <defs>
  <style type="text/css">*{stroke-linejoin: round; stroke-linecap: butt}</style>
 </defs>
 <g id="figure_1">
  <g id="patch_1">
   <path d="M 0 345.6 
L 460.8 345.6 
L 460.8 0 
L 0 0 
z
" style="fill: #ffffff"/>
  </g>
  <g id="axes_1">
   <g id="patch_2">
    <path d="M 57.6 307.584 
L 414.72 307.584 
L 414.72 41.472 
L 57.6 41.472 
z
" style="fill: #ffffff"/>
   </g>
   <g id="patch_3">
    <path d="M 73.832727 307.584 
L 74.530718 307.584 
L 74.530718 305.346718 
L 73.832727 305.346718 
z
" clip-path="url(#p176eb76bf0)" style="fill: #1f77b4"/>
   </g>
   <g id="patch_4">
    <path d="M 80.17231 307.584 
L 80.8703 307.584 
L 80.8703 305.641531 
L 80.17231 305.641531 
z
" clip-path="url(#p176eb76bf0)" style="fill: #1f77b4"/>
   </g>
   <g id="patch_5">
    <path d="M 83.96364 307.584 
L 84.66163 307.584 
L 84.66163 305.402051 
L 83.96364 305.402051 
z
" clip-path="url(#p176eb76bf0)" style="fill: #1f77b4"/>
   </g>
   <g id="patch_6">
    <path d="M 84.330316 307.584 
L 85.028307 307.584 
L 85.028307 304.440465 
L 84.330316 304.440465 
z
" clip-path="url(#p176eb76bf0)" style="fill: #1f77b4"/>
   </g>
   <g id="patch_7">
    <path d="M 85.230249 307.584 
L 85.92824 307.584 
L 85.92824 305.334284 
L 85.230249 305.334284 
z
" clip-path="url(#p176eb76bf0)" style="fill: #1f77b4"/>
   </g>
   <g id="patch_8">
    <path d="M 88.259161 307.584 
L 88.957152 307.584 
L 88.957152 305.602523 
L 88.259161 305.602523 
z
" clip-path="url(#p176eb76bf0)" style="fill: #1f77b4"/>
   </g>
   <g id="patch_9">
    <path d="M 98.306172 307.584 
L 99.004162 307.584 
L 99.004162 303.063214 
L 98.306172 303.063214 
z
" clip-path="url(#p176eb76bf0)" style="fill: #1f77b4"/>
   </g>
   <g id="patch_10">
    <path d="M 99.185316 307.584 
L 99.883306 307.584 
L 99.883306 304.136652 
L 99.185316 304.136652 
z
" clip-path="url(#p176eb76bf0)" style="fill: #1f77b4"/>
   </g>
   <g id="patch_11">
    <path d="M 99.71563 307.584 
L 100.413621 307.584 
L 100.413621 305.692668 
L 99.71563 305.692668 
z
" clip-path="url(#p176eb76bf0)" style="fill: #1f77b4"/>
   </g>
   <g id="patch_12">
    <path d="M 106.169779 307.584 
L 106.867769 307.584 
L 106.867769 305.122027 
L 106.169779 305.122027 
z
" clip-path="url(#p176eb76bf0)" style="fill: #1f77b4"/>
   </g>
   <g id="patch_13">
    <path d="M 111.413759 307.584 
L 112.111749 307.584 
L 112.111749 302.443433 
L 111.413759 302.443433 
z
" clip-path="url(#p176eb76bf0)" style="fill: #1f77b4"/>
   </g>
   <g id="patch_14">
    <path d="M 112.272308 307.584 
L 112.970298 307.584 
L 112.970298 305.23104 
L 112.272308 305.23104 
z
" clip-path="url(#p176eb76bf0)" style="fill: #1f77b4"/>
   </g>
   <g id="patch_15">
    <path d="M 114.89947 307.584 
L 115.597461 307.584 
L 115.597461 176.19883 
L 114.89947 176.19883 
z
" clip-path="url(#p176eb76bf0)" style="fill: #1f77b4"/>
   </g>
   <g id="patch_16">
    <path d="M 115.048937 307.584 
L 115.746927 307.584 
L 115.746927 305.336417 
L 115.048937 305.336417 
z
" clip-path="url(#p176eb76bf0)" style="fill: #1f77b4"/>
   </g>
   <g id="patch_17">
    <path d="M 116.63972 307.584 
L 117.33771 307.584 
L 117.33771 305.367233 
L 116.63972 305.367233 
z
" clip-path="url(#p176eb76bf0)" style="fill: #1f77b4"/>
   </g>
   <g id="patch_18">
    <path d="M 123.610597 307.584 
L 124.308587 307.584 
L 124.308587 304.058575 
L 123.610597 304.058575 
z
" clip-path="url(#p176eb76bf0)" style="fill: #1f77b4"/>
   </g>
   <g id="patch_19">
    <path d="M 125.350653 307.584 
L 126.048644 307.584 
L 126.048644 305.242322 
L 125.350653 305.242322 
z
" clip-path="url(#p176eb76bf0)" style="fill: #1f77b4"/>
   </g>
   <g id="patch_20">
    <path d="M 126.241839 307.584 
L 126.93983 307.584 
L 126.93983 304.587628 
L 126.241839 304.587628 
z
" clip-path="url(#p176eb76bf0)" style="fill: #1f77b4"/>
   </g>
   <g id="patch_21">
    <path d="M 126.248456 307.584 
L 126.946446 307.584 
L 126.946446 294.358767 
L 126.248456 294.358767 
z
" clip-path="url(#p176eb76bf0)" style="fill: #1f77b4"/>
   </g>
   <g id="patch_22">
    <path d="M 127.109228 307.584 
L 127.807219 307.584 
L 127.807219 303.072723 
L 127.109228 303.072723 
z
" clip-path="url(#p176eb76bf0)" style="fill: #1f77b4"/>
   </g>
   <g id="patch_23">
    <path d="M 130.594627 307.584 
L 131.292617 307.584 
L 131.292617 304.532583 
L 130.594627 304.532583 
z
" clip-path="url(#p176eb76bf0)" style="fill: #1f77b4"/>
   </g>
   <g id="patch_24">
    <path d="M 135.838853 307.584 
L 136.536844 307.584 
L 136.536844 304.230653 
L 135.838853 304.230653 
z
" clip-path="url(#p176eb76bf0)" style="fill: #1f77b4"/>
   </g>
   <g id="patch_25">
    <path d="M 137.597289 307.584 
L 138.295279 307.584 
L 138.295279 302.160874 
L 137.597289 302.160874 
z
" clip-path="url(#p176eb76bf0)" style="fill: #1f77b4"/>
   </g>
   <g id="patch_26">
    <path d="M 138.458407 307.584 
L 139.156398 307.584 
L 139.156398 305.051203 
L 138.458407 305.051203 
z
" clip-path="url(#p176eb76bf0)" style="fill: #1f77b4"/>
   </g>
   <g id="patch_27">
    <path d="M 138.468738 307.584 
L 139.166729 307.584 
L 139.166729 304.647454 
L 138.468738 304.647454 
z
" clip-path="url(#p176eb76bf0)" style="fill: #1f77b4"/>
   </g>
   <g id="patch_28">
    <path d="M 139.30588 307.584 
L 140.00387 307.584 
L 140.00387 302.556021 
L 139.30588 302.556021 
z
" clip-path="url(#p176eb76bf0)" style="fill: #1f77b4"/>
   </g>
   <g id="patch_29">
    <path d="M 139.324611 307.584 
L 140.022602 307.584 
L 140.022602 286.613822 
L 139.324611 286.613822 
z
" clip-path="url(#p176eb76bf0)" style="fill: #1f77b4"/>
   </g>
   <g id="patch_30">
    <path d="M 139.337592 307.584 
L 140.035582 307.584 
L 140.035582 271.050399 
L 139.337592 271.050399 
z
" clip-path="url(#p176eb76bf0)" style="fill: #1f77b4"/>
   </g>
   <g id="patch_31">
    <path d="M 141.064581 307.584 
L 141.762572 307.584 
L 141.762572 294.545633 
L 141.064581 294.545633 
z
" clip-path="url(#p176eb76bf0)" style="fill: #1f77b4"/>
   </g>
   <g id="patch_32">
    <path d="M 142.791198 307.584 
L 143.489189 307.584 
L 143.489189 300.162681 
L 142.791198 300.162681 
z
" clip-path="url(#p176eb76bf0)" style="fill: #1f77b4"/>
   </g>
   <g id="patch_33">
    <path d="M 142.823017 307.584 
L 143.521007 307.584 
L 143.521007 305.15839 
L 142.823017 305.15839 
z
" clip-path="url(#p176eb76bf0)" style="fill: #1f77b4"/>
   </g>
   <g id="patch_34">
    <path d="M 144.549567 307.584 
L 145.247557 307.584 
L 145.247557 297.734372 
L 144.549567 297.734372 
z
" clip-path="url(#p176eb76bf0)" style="fill: #1f77b4"/>
   </g>
   <g id="patch_35">
    <path d="M 148.048864 307.584 
L 148.746855 307.584 
L 148.746855 299.558404 
L 148.048864 299.558404 
z
" clip-path="url(#p176eb76bf0)" style="fill: #1f77b4"/>
   </g>
   <g id="patch_36">
    <path d="M 148.066784 307.584 
L 148.764774 307.584 
L 148.764774 303.833792 
L 148.066784 303.833792 
z
" clip-path="url(#p176eb76bf0)" style="fill: #1f77b4"/>
   </g>
   <g id="patch_37">
    <path d="M 148.927476 307.584 
L 149.625467 307.584 
L 149.625467 305.04309 
L 148.927476 305.04309 
z
" clip-path="url(#p176eb76bf0)" style="fill: #1f77b4"/>
   </g>
   <g id="patch_38">
    <path d="M 149.80746 307.584 
L 150.50545 307.584 
L 150.50545 300.023118 
L 149.80746 300.023118 
z
" clip-path="url(#p176eb76bf0)" style="fill: #1f77b4"/>
   </g>
   <g id="patch_39">
    <path d="M 150.654852 307.584 
L 151.352843 307.584 
L 151.352843 305.019937 
L 150.654852 305.019937 
z
" clip-path="url(#p176eb76bf0)" style="fill: #1f77b4"/>
   </g>
   <g id="patch_40">
    <path d="M 151.534037 307.584 
L 152.232027 307.584 
L 152.232027 300.917292 
L 151.534037 300.917292 
z
" clip-path="url(#p176eb76bf0)" style="fill: #1f77b4"/>
   </g>
   <g id="patch_41">
    <path d="M 151.553381 307.584 
L 152.251371 307.584 
L 152.251371 302.356331 
L 151.553381 302.356331 
z
" clip-path="url(#p176eb76bf0)" style="fill: #1f77b4"/>
   </g>
   <g id="patch_42">
    <path d="M 151.565748 307.584 
L 152.263739 307.584 
L 152.263739 301.293389 
L 151.565748 301.293389 
z
" clip-path="url(#p176eb76bf0)" style="fill: #1f77b4"/>
   </g>
   <g id="patch_43">
    <path d="M 153.293004 307.584 
L 153.990995 307.584 
L 153.990995 293.931561 
L 153.293004 293.931561 
z
" clip-path="url(#p176eb76bf0)" style="fill: #1f77b4"/>
   </g>
   <g id="patch_44">
    <path d="M 155.019129 307.584 
L 155.717119 307.584 
L 155.717119 305.309735 
L 155.019129 305.309735 
z
" clip-path="url(#p176eb76bf0)" style="fill: #1f77b4"/>
   </g>
   <g id="patch_45">
    <path d="M 156.777897 307.584 
L 157.475887 307.584 
L 157.475887 301.475897 
L 156.777897 301.475897 
z
" clip-path="url(#p176eb76bf0)" style="fill: #1f77b4"/>
   </g>
   <g id="patch_46">
    <path d="M 158.518666 307.584 
L 159.216656 307.584 
L 159.216656 304.539834 
L 158.518666 304.539834 
z
" clip-path="url(#p176eb76bf0)" style="fill: #1f77b4"/>
   </g>
   <g id="patch_47">
    <path d="M 160.277367 307.584 
L 160.975358 307.584 
L 160.975358 301.864599 
L 160.277367 301.864599 
z
" clip-path="url(#p176eb76bf0)" style="fill: #1f77b4"/>
   </g>
   <g id="patch_48">
    <path d="M 161.145289 307.584 
L 161.843279 307.584 
L 161.843279 304.768357 
L 161.145289 304.768357 
z
" clip-path="url(#p176eb76bf0)" style="fill: #1f77b4"/>
   </g>
   <g id="patch_49">
    <path d="M 162.003785 307.584 
L 162.701775 307.584 
L 162.701775 299.450907 
L 162.003785 299.450907 
z
" clip-path="url(#p176eb76bf0)" style="fill: #1f77b4"/>
   </g>
   <g id="patch_50">
    <path d="M 162.022596 307.584 
L 162.720586 307.584 
L 162.720586 293.986468 
L 162.022596 293.986468 
z
" clip-path="url(#p176eb76bf0)" style="fill: #1f77b4"/>
   </g>
   <g id="patch_51">
    <path d="M 162.033167 307.584 
L 162.731157 307.584 
L 162.731157 305.219386 
L 162.033167 305.219386 
z
" clip-path="url(#p176eb76bf0)" style="fill: #1f77b4"/>
   </g>
   <g id="patch_52">
    <path d="M 162.881678 307.584 
L 163.579668 307.584 
L 163.579668 298.161115 
L 162.881678 298.161115 
z
" clip-path="url(#p176eb76bf0)" style="fill: #1f77b4"/>
   </g>
   <g id="patch_53">
    <path d="M 163.762859 307.584 
L 164.460849 307.584 
L 164.460849 288.20535 
L 163.762859 288.20535 
z
" clip-path="url(#p176eb76bf0)" style="fill: #1f77b4"/>
   </g>
   <g id="patch_54">
    <path d="M 163.783761 307.584 
L 164.481751 307.584 
L 164.481751 303.041489 
L 163.783761 303.041489 
z
" clip-path="url(#p176eb76bf0)" style="fill: #1f77b4"/>
   </g>
   <g id="patch_55">
    <path d="M 164.640872 307.584 
L 165.338862 307.584 
L 165.338862 304.855957 
L 164.640872 304.855957 
z
" clip-path="url(#p176eb76bf0)" style="fill: #1f77b4"/>
   </g>
   <g id="patch_56">
    <path d="M 165.489449 307.584 
L 166.18744 307.584 
L 166.18744 299.944743 
L 165.489449 299.944743 
z
" clip-path="url(#p176eb76bf0)" style="fill: #1f77b4"/>
   </g>
   <g id="patch_57">
    <path d="M 167.248298 307.584 
L 167.946288 307.584 
L 167.946288 304.730682 
L 167.248298 304.730682 
z
" clip-path="url(#p176eb76bf0)" style="fill: #1f77b4"/>
   </g>
   <g id="patch_58">
    <path d="M 172.473466 307.584 
L 173.171457 307.584 
L 173.171457 301.291278 
L 172.473466 301.291278 
z
" clip-path="url(#p176eb76bf0)" style="fill: #1f77b4"/>
   </g>
   <g id="patch_59">
    <path d="M 173.373978 307.584 
L 174.071969 307.584 
L 174.071969 305.0419 
L 173.373978 305.0419 
z
" clip-path="url(#p176eb76bf0)" style="fill: #1f77b4"/>
   </g>
   <g id="patch_60">
    <path d="M 173.661075 307.584 
L 174.359066 307.584 
L 174.359066 305.350023 
L 173.661075 305.350023 
z
" clip-path="url(#p176eb76bf0)" style="fill: #1f77b4"/>
   </g>
   <g id="patch_61">
    <path d="M 174.200243 307.584 
L 174.898233 307.584 
L 174.898233 302.821382 
L 174.200243 302.821382 
z
" clip-path="url(#p176eb76bf0)" style="fill: #1f77b4"/>
   </g>
   <g id="patch_62">
    <path d="M 174.251472 307.584 
L 174.949462 307.584 
L 174.949462 305.193852 
L 174.251472 305.193852 
z
" clip-path="url(#p176eb76bf0)" style="fill: #1f77b4"/>
   </g>
   <g id="patch_63">
    <path d="M 175.959211 307.584 
L 176.657201 307.584 
L 176.657201 297.759354 
L 175.959211 297.759354 
z
" clip-path="url(#p176eb76bf0)" style="fill: #1f77b4"/>
   </g>
   <g id="patch_64">
    <path d="M 175.977743 307.584 
L 176.675733 307.584 
L 176.675733 303.444666 
L 175.977743 303.444666 
z
" clip-path="url(#p176eb76bf0)" style="fill: #1f77b4"/>
   </g>
   <g id="patch_65">
    <path d="M 175.990151 307.584 
L 176.688141 307.584 
L 176.688141 303.571179 
L 175.990151 303.571179 
z
" clip-path="url(#p176eb76bf0)" style="fill: #1f77b4"/>
   </g>
   <g id="patch_66">
    <path d="M 177.718325 307.584 
L 178.416316 307.584 
L 178.416316 303.487922 
L 177.718325 303.487922 
z
" clip-path="url(#p176eb76bf0)" style="fill: #1f77b4"/>
   </g>
   <g id="patch_67">
    <path d="M 177.738987 307.584 
L 178.436977 307.584 
L 178.436977 290.17157 
L 177.738987 290.17157 
z
" clip-path="url(#p176eb76bf0)" style="fill: #1f77b4"/>
   </g>
   <g id="patch_68">
    <path d="M 178.596857 307.584 
L 179.294848 307.584 
L 179.294848 304.608166 
L 178.596857 304.608166 
z
" clip-path="url(#p176eb76bf0)" style="fill: #1f77b4"/>
   </g>
   <g id="patch_69">
    <path d="M 179.445235 307.584 
L 180.143225 307.584 
L 180.143225 304.638497 
L 179.445235 304.638497 
z
" clip-path="url(#p176eb76bf0)" style="fill: #1f77b4"/>
   </g>
   <g id="patch_70">
    <path d="M 183.843753 307.584 
L 184.541743 307.584 
L 184.541743 305.03884 
L 183.843753 305.03884 
z
" clip-path="url(#p176eb76bf0)" style="fill: #1f77b4"/>
   </g>
   <g id="patch_71">
    <path d="M 184.702808 307.584 
L 185.400798 307.584 
L 185.400798 303.877983 
L 184.702808 303.877983 
z
" clip-path="url(#p176eb76bf0)" style="fill: #1f77b4"/>
   </g>
   <g id="patch_72">
    <path d="M 184.723031 307.584 
L 185.421021 307.584 
L 185.421021 304.084422 
L 184.723031 304.084422 
z
" clip-path="url(#p176eb76bf0)" style="fill: #1f77b4"/>
   </g>
   <g id="patch_73">
    <path d="M 185.581833 307.584 
L 186.279823 307.584 
L 186.279823 303.673456 
L 185.581833 303.673456 
z
" clip-path="url(#p176eb76bf0)" style="fill: #1f77b4"/>
   </g>
   <g id="patch_74">
    <path d="M 185.602441 307.584 
L 186.300432 307.584 
L 186.300432 295.823532 
L 185.602441 295.823532 
z
" clip-path="url(#p176eb76bf0)" style="fill: #1f77b4"/>
   </g>
   <g id="patch_75">
    <path d="M 186.428813 307.584 
L 187.126803 307.584 
L 187.126803 303.575093 
L 186.428813 303.575093 
z
" clip-path="url(#p176eb76bf0)" style="fill: #1f77b4"/>
   </g>
   <g id="patch_76">
    <path d="M 186.461257 307.584 
L 187.159247 307.584 
L 187.159247 304.547251 
L 186.461257 304.547251 
z
" clip-path="url(#p176eb76bf0)" style="fill: #1f77b4"/>
   </g>
   <g id="patch_77">
    <path d="M 187.329271 307.584 
L 188.027262 307.584 
L 188.027262 305.074229 
L 187.329271 305.074229 
z
" clip-path="url(#p176eb76bf0)" style="fill: #1f77b4"/>
   </g>
   <g id="patch_78">
    <path d="M 188.1881 307.584 
L 188.88609 307.584 
L 188.88609 288.667795 
L 188.1881 288.667795 
z
" clip-path="url(#p176eb76bf0)" style="fill: #1f77b4"/>
   </g>
   <g id="patch_79">
    <path d="M 189.067284 307.584 
L 189.765275 307.584 
L 189.765275 291.227054 
L 189.067284 291.227054 
z
" clip-path="url(#p176eb76bf0)" style="fill: #1f77b4"/>
   </g>
   <g id="patch_80">
    <path d="M 189.914038 307.584 
L 190.612028 307.584 
L 190.612028 304.033334 
L 189.914038 304.033334 
z
" clip-path="url(#p176eb76bf0)" style="fill: #1f77b4"/>
   </g>
   <g id="patch_81">
    <path d="M 189.946509 307.584 
L 190.644499 307.584 
L 190.644499 305.252683 
L 189.946509 305.252683 
z
" clip-path="url(#p176eb76bf0)" style="fill: #1f77b4"/>
   </g>
   <g id="patch_82">
    <path d="M 191.673272 307.584 
L 192.371262 307.584 
L 192.371262 304.798514 
L 191.673272 304.798514 
z
" clip-path="url(#p176eb76bf0)" style="fill: #1f77b4"/>
   </g>
   <g id="patch_83">
    <path d="M 193.43196 307.584 
L 194.129951 307.584 
L 194.129951 295.868106 
L 193.43196 295.868106 
z
" clip-path="url(#p176eb76bf0)" style="fill: #1f77b4"/>
   </g>
   <g id="patch_84">
    <path d="M 196.040371 307.584 
L 196.738361 307.584 
L 196.738361 305.030539 
L 196.040371 305.030539 
z
" clip-path="url(#p176eb76bf0)" style="fill: #1f77b4"/>
   </g>
   <g id="patch_85">
    <path d="M 196.898947 307.584 
L 197.596937 307.584 
L 197.596937 288.892803 
L 196.898947 288.892803 
z
" clip-path="url(#p176eb76bf0)" style="fill: #1f77b4"/>
   </g>
   <g id="patch_86">
    <path d="M 196.917079 307.584 
L 197.61507 307.584 
L 197.61507 297.605749 
L 196.917079 297.605749 
z
" clip-path="url(#p176eb76bf0)" style="fill: #1f77b4"/>
   </g>
   <g id="patch_87">
    <path d="M 197.777918 307.584 
L 198.475908 307.584 
L 198.475908 303.556283 
L 197.777918 303.556283 
z
" clip-path="url(#p176eb76bf0)" style="fill: #1f77b4"/>
   </g>
   <g id="patch_88">
    <path d="M 197.797875 307.584 
L 198.495865 307.584 
L 198.495865 304.714322 
L 197.797875 304.714322 
z
" clip-path="url(#p176eb76bf0)" style="fill: #1f77b4"/>
   </g>
   <g id="patch_89">
    <path d="M 198.625777 307.584 
L 199.323767 307.584 
L 199.323767 298.37719 
L 198.625777 298.37719 
z
" clip-path="url(#p176eb76bf0)" style="fill: #1f77b4"/>
   </g>
   <g id="patch_90">
    <path d="M 199.558001 307.584 
L 200.255991 307.584 
L 200.255991 297.940064 
L 199.558001 297.940064 
z
" clip-path="url(#p176eb76bf0)" style="fill: #1f77b4"/>
   </g>
   <g id="patch_91">
    <path d="M 200.402331 307.584 
L 201.100322 307.584 
L 201.100322 304.6391 
L 200.402331 304.6391 
z
" clip-path="url(#p176eb76bf0)" style="fill: #1f77b4"/>
   </g>
   <g id="patch_92">
    <path d="M 200.41643 307.584 
L 201.11442 307.584 
L 201.11442 294.619049 
L 200.41643 294.619049 
z
" clip-path="url(#p176eb76bf0)" style="fill: #1f77b4"/>
   </g>
   <g id="patch_93">
    <path d="M 200.436493 307.584 
L 201.134483 307.584 
L 201.134483 304.857656 
L 200.436493 304.857656 
z
" clip-path="url(#p176eb76bf0)" style="fill: #1f77b4"/>
   </g>
   <g id="patch_94">
    <path d="M 202.143286 307.584 
L 202.841277 307.584 
L 202.841277 248.282264 
L 202.143286 248.282264 
z
" clip-path="url(#p176eb76bf0)" style="fill: #1f77b4"/>
   </g>
   <g id="patch_95">
    <path d="M 203.901083 307.584 
L 204.599073 307.584 
L 204.599073 303.201043 
L 203.901083 303.201043 
z
" clip-path="url(#p176eb76bf0)" style="fill: #1f77b4"/>
   </g>
   <g id="patch_96">
    <path d="M 208.270072 307.584 
L 208.968063 307.584 
L 208.968063 302.549798 
L 208.270072 302.549798 
z
" clip-path="url(#p176eb76bf0)" style="fill: #1f77b4"/>
   </g>
   <g id="patch_97">
    <path d="M 209.130046 307.584 
L 209.828036 307.584 
L 209.828036 305.263621 
L 209.130046 305.263621 
z
" clip-path="url(#p176eb76bf0)" style="fill: #1f77b4"/>
   </g>
   <g id="patch_98">
    <path d="M 209.148152 307.584 
L 209.846142 307.584 
L 209.846142 296.714917 
L 209.148152 296.714917 
z
" clip-path="url(#p176eb76bf0)" style="fill: #1f77b4"/>
   </g>
   <g id="patch_99">
    <path d="M 210.009763 307.584 
L 210.707753 307.584 
L 210.707753 303.445662 
L 210.009763 303.445662 
z
" clip-path="url(#p176eb76bf0)" style="fill: #1f77b4"/>
   </g>
   <g id="patch_100">
    <path d="M 210.027629 307.584 
L 210.725619 307.584 
L 210.725619 196.179062 
L 210.027629 196.179062 
z
" clip-path="url(#p176eb76bf0)" style="fill: #1f77b4"/>
   </g>
   <g id="patch_101">
    <path d="M 210.042779 307.584 
L 210.74077 307.584 
L 210.74077 306.024907 
L 210.042779 306.024907 
z
" clip-path="url(#p176eb76bf0)" style="fill: #1f77b4"/>
   </g>
   <g id="patch_102">
    <path d="M 210.873637 307.584 
L 211.571627 307.584 
L 211.571627 305.30209 
L 210.873637 305.30209 
z
" clip-path="url(#p176eb76bf0)" style="fill: #1f77b4"/>
   </g>
   <g id="patch_103">
    <path d="M 210.906227 307.584 
L 211.604218 307.584 
L 211.604218 274.69818 
L 210.906227 274.69818 
z
" clip-path="url(#p176eb76bf0)" style="fill: #1f77b4"/>
   </g>
   <g id="patch_104">
    <path d="M 212.612622 307.584 
L 213.310612 307.584 
L 213.310612 299.804369 
L 212.612622 299.804369 
z
" clip-path="url(#p176eb76bf0)" style="fill: #1f77b4"/>
   </g>
   <g id="patch_105">
    <path d="M 212.6313 307.584 
L 213.32929 307.584 
L 213.32929 298.477498 
L 212.6313 298.477498 
z
" clip-path="url(#p176eb76bf0)" style="fill: #1f77b4"/>
   </g>
   <g id="patch_106">
    <path d="M 213.514159 307.584 
L 214.212149 307.584 
L 214.212149 303.85966 
L 213.514159 303.85966 
z
" clip-path="url(#p176eb76bf0)" style="fill: #1f77b4"/>
   </g>
   <g id="patch_107">
    <path d="M 214.340304 307.584 
L 215.038294 307.584 
L 215.038294 302.322238 
L 214.340304 302.322238 
z
" clip-path="url(#p176eb76bf0)" style="fill: #1f77b4"/>
   </g>
   <g id="patch_108">
    <path d="M 214.371204 307.584 
L 215.069194 307.584 
L 215.069194 299.869807 
L 214.371204 299.869807 
z
" clip-path="url(#p176eb76bf0)" style="fill: #1f77b4"/>
   </g>
   <g id="patch_109">
    <path d="M 216.097674 307.584 
L 216.795665 307.584 
L 216.795665 305.382721 
L 216.097674 305.382721 
z
" clip-path="url(#p176eb76bf0)" style="fill: #1f77b4"/>
   </g>
   <g id="patch_110">
    <path d="M 216.130424 307.584 
L 216.828415 307.584 
L 216.828415 304.901125 
L 216.130424 304.901125 
z
" clip-path="url(#p176eb76bf0)" style="fill: #1f77b4"/>
   </g>
   <g id="patch_111">
    <path d="M 217.857893 307.584 
L 218.555884 307.584 
L 218.555884 303.6257 
L 217.857893 303.6257 
z
" clip-path="url(#p176eb76bf0)" style="fill: #1f77b4"/>
   </g>
   <g id="patch_112">
    <path d="M 222.223288 307.584 
L 222.921279 307.584 
L 222.921279 299.980459 
L 222.223288 299.980459 
z
" clip-path="url(#p176eb76bf0)" style="fill: #1f77b4"/>
   </g>
   <g id="patch_113">
    <path d="M 222.238505 307.584 
L 222.936496 307.584 
L 222.936496 304.228709 
L 222.238505 304.228709 
z
" clip-path="url(#p176eb76bf0)" style="fill: #1f77b4"/>
   </g>
   <g id="patch_114">
    <path d="M 223.115027 307.584 
L 223.813017 307.584 
L 223.813017 291.114229 
L 223.115027 291.114229 
z
" clip-path="url(#p176eb76bf0)" style="fill: #1f77b4"/>
   </g>
   <g id="patch_115">
    <path d="M 223.982216 307.584 
L 224.680207 307.584 
L 224.680207 286.727304 
L 223.982216 286.727304 
z
" clip-path="url(#p176eb76bf0)" style="fill: #1f77b4"/>
   </g>
   <g id="patch_116">
    <path d="M 224.841431 307.584 
L 225.539421 307.584 
L 225.539421 199.646783 
L 224.841431 199.646783 
z
" clip-path="url(#p176eb76bf0)" style="fill: #1f77b4"/>
   </g>
   <g id="patch_117">
    <path d="M 224.862093 307.584 
L 225.560083 307.584 
L 225.560083 104.844989 
L 224.862093 104.844989 
z
" clip-path="url(#p176eb76bf0)" style="fill: #1f77b4"/>
   </g>
   <g id="patch_118">
    <path d="M 224.882755 307.584 
L 225.580745 307.584 
L 225.580745 302.629294 
L 224.882755 302.629294 
z
" clip-path="url(#p176eb76bf0)" style="fill: #1f77b4"/>
   </g>
   <g id="patch_119">
    <path d="M 225.71967 307.584 
L 226.41766 307.584 
L 226.41766 287.415851 
L 225.71967 287.415851 
z
" clip-path="url(#p176eb76bf0)" style="fill: #1f77b4"/>
   </g>
   <g id="patch_120">
    <path d="M 225.738468 307.584 
L 226.436459 307.584 
L 226.436459 292.990866 
L 225.738468 292.990866 
z
" clip-path="url(#p176eb76bf0)" style="fill: #1f77b4"/>
   </g>
   <g id="patch_121">
    <path d="M 226.568461 307.584 
L 227.266451 307.584 
L 227.266451 236.471863 
L 226.568461 236.471863 
z
" clip-path="url(#p176eb76bf0)" style="fill: #1f77b4"/>
   </g>
   <g id="patch_122">
    <path d="M 227.443851 307.584 
L 228.141841 307.584 
L 228.141841 302.207041 
L 227.443851 302.207041 
z
" clip-path="url(#p176eb76bf0)" style="fill: #1f77b4"/>
   </g>
   <g id="patch_123">
    <path d="M 228.347265 307.584 
L 229.045255 307.584 
L 229.045255 297.327851 
L 228.347265 297.327851 
z
" clip-path="url(#p176eb76bf0)" style="fill: #1f77b4"/>
   </g>
   <g id="patch_124">
    <path d="M 235.280333 307.584 
L 235.978323 307.584 
L 235.978323 282.290144 
L 235.280333 282.290144 
z
" clip-path="url(#p176eb76bf0)" style="fill: #1f77b4"/>
   </g>
   <g id="patch_125">
    <path d="M 235.299357 307.584 
L 235.997347 307.584 
L 235.997347 302.634806 
L 235.299357 302.634806 
z
" clip-path="url(#p176eb76bf0)" style="fill: #1f77b4"/>
   </g>
   <g id="patch_126">
    <path d="M 236.210866 307.584 
L 236.908856 307.584 
L 236.908856 302.448186 
L 236.210866 302.448186 
z
" clip-path="url(#p176eb76bf0)" style="fill: #1f77b4"/>
   </g>
   <g id="patch_127">
    <path d="M 237.090543 307.584 
L 237.788533 307.584 
L 237.788533 302.620545 
L 237.090543 302.620545 
z
" clip-path="url(#p176eb76bf0)" style="fill: #1f77b4"/>
   </g>
   <g id="patch_128">
    <path d="M 237.939107 307.584 
L 238.637097 307.584 
L 238.637097 301.141142 
L 237.939107 301.141142 
z
" clip-path="url(#p176eb76bf0)" style="fill: #1f77b4"/>
   </g>
   <g id="patch_129">
    <path d="M 238.796551 307.584 
L 239.494541 307.584 
L 239.494541 303.049277 
L 238.796551 303.049277 
z
" clip-path="url(#p176eb76bf0)" style="fill: #1f77b4"/>
   </g>
   <g id="patch_130">
    <path d="M 240.555572 307.584 
L 241.253562 307.584 
L 241.253562 268.435626 
L 240.555572 268.435626 
z
" clip-path="url(#p176eb76bf0)" style="fill: #1f77b4"/>
   </g>
   <g id="patch_131">
    <path d="M 241.430337 307.584 
L 242.128327 307.584 
L 242.128327 304.672692 
L 241.430337 304.672692 
z
" clip-path="url(#p176eb76bf0)" style="fill: #1f77b4"/>
   </g>
   <g id="patch_132">
    <path d="M 243.181916 307.584 
L 243.879906 307.584 
L 243.879906 296.581081 
L 243.181916 296.581081 
z
" clip-path="url(#p176eb76bf0)" style="fill: #1f77b4"/>
   </g>
   <g id="patch_133">
    <path d="M 246.649102 307.584 
L 247.347092 307.584 
L 247.347092 304.75193 
L 246.649102 304.75193 
z
" clip-path="url(#p176eb76bf0)" style="fill: #1f77b4"/>
   </g>
   <g id="patch_134">
    <path d="M 248.407244 307.584 
L 249.105234 307.584 
L 249.105234 303.304522 
L 248.407244 303.304522 
z
" clip-path="url(#p176eb76bf0)" style="fill: #1f77b4"/>
   </g>
   <g id="patch_135">
    <path d="M 249.266885 307.584 
L 249.964875 307.584 
L 249.964875 303.551489 
L 249.266885 303.551489 
z
" clip-path="url(#p176eb76bf0)" style="fill: #1f77b4"/>
   </g>
   <g id="patch_136">
    <path d="M 249.298064 307.584 
L 249.996054 307.584 
L 249.996054 302.84551 
L 249.298064 302.84551 
z
" clip-path="url(#p176eb76bf0)" style="fill: #1f77b4"/>
   </g>
   <g id="patch_137">
    <path d="M 251.926285 307.584 
L 252.624275 307.584 
L 252.624275 301.127789 
L 251.926285 301.127789 
z
" clip-path="url(#p176eb76bf0)" style="fill: #1f77b4"/>
   </g>
   <g id="patch_138">
    <path d="M 262.3648 307.584 
L 263.062791 307.584 
L 263.062791 304.692255 
L 262.3648 304.692255 
z
" clip-path="url(#p176eb76bf0)" style="fill: #1f77b4"/>
   </g>
   <g id="patch_139">
    <path d="M 263.222005 307.584 
L 263.919995 307.584 
L 263.919995 54.144 
L 263.222005 54.144 
z
" clip-path="url(#p176eb76bf0)" style="fill: #1f77b4"/>
   </g>
   <g id="patch_140">
    <path d="M 263.243279 307.584 
L 263.94127 307.584 
L 263.94127 293.92736 
L 263.243279 293.92736 
z
" clip-path="url(#p176eb76bf0)" style="fill: #1f77b4"/>
   </g>
   <g id="patch_141">
    <path d="M 264.097155 307.584 
L 264.795146 307.584 
L 264.795146 291.375578 
L 264.097155 291.375578 
z
" clip-path="url(#p176eb76bf0)" style="fill: #1f77b4"/>
   </g>
   <g id="patch_142">
    <path d="M 274.592145 307.584 
L 275.290135 307.584 
L 275.290135 295.276236 
L 274.592145 295.276236 
z
" clip-path="url(#p176eb76bf0)" style="fill: #1f77b4"/>
   </g>
   <g id="patch_143">
    <path d="M 275.472142 307.584 
L 276.170132 307.584 
L 276.170132 302.740407 
L 275.472142 302.740407 
z
" clip-path="url(#p176eb76bf0)" style="fill: #1f77b4"/>
   </g>
   <g id="patch_144">
    <path d="M 276.350754 307.584 
L 277.048744 307.584 
L 277.048744 279.032444 
L 276.350754 279.032444 
z
" clip-path="url(#p176eb76bf0)" style="fill: #1f77b4"/>
   </g>
   <g id="patch_145">
    <path d="M 277.208837 307.584 
L 277.906827 307.584 
L 277.906827 221.781212 
L 277.208837 221.781212 
z
" clip-path="url(#p176eb76bf0)" style="fill: #1f77b4"/>
   </g>
   <g id="patch_146">
    <path d="M 278.084733 307.584 
L 278.782723 307.584 
L 278.782723 300.925722 
L 278.084733 300.925722 
z
" clip-path="url(#p176eb76bf0)" style="fill: #1f77b4"/>
   </g>
   <g id="patch_147">
    <path d="M 278.936905 307.584 
L 279.634895 307.584 
L 279.634895 303.557203 
L 278.936905 303.557203 
z
" clip-path="url(#p176eb76bf0)" style="fill: #1f77b4"/>
   </g>
   <g id="patch_148">
    <path d="M 290.305607 307.584 
L 291.003598 307.584 
L 291.003598 300.336178 
L 290.305607 300.336178 
z
" clip-path="url(#p176eb76bf0)" style="fill: #1f77b4"/>
   </g>
   <g id="patch_149">
    <path d="M 291.164409 307.584 
L 291.8624 307.584 
L 291.8624 221.525943 
L 291.164409 221.525943 
z
" clip-path="url(#p176eb76bf0)" style="fill: #1f77b4"/>
   </g>
   <g id="patch_150">
    <path d="M 292.039001 307.584 
L 292.736991 307.584 
L 292.736991 300.26206 
L 292.039001 300.26206 
z
" clip-path="url(#p176eb76bf0)" style="fill: #1f77b4"/>
   </g>
   <g id="patch_151">
    <path d="M 299.874244 307.584 
L 300.572235 307.584 
L 300.572235 305.04075 
L 299.874244 305.04075 
z
" clip-path="url(#p176eb76bf0)" style="fill: #1f77b4"/>
   </g>
   <g id="patch_152">
    <path d="M 302.535588 307.584 
L 303.233578 307.584 
L 303.233578 302.398385 
L 302.535588 302.398385 
z
" clip-path="url(#p176eb76bf0)" style="fill: #1f77b4"/>
   </g>
   <g id="patch_153">
    <path d="M 312.125233 307.584 
L 312.823223 307.584 
L 312.823223 304.977798 
L 312.125233 304.977798 
z
" clip-path="url(#p176eb76bf0)" style="fill: #1f77b4"/>
   </g>
   <g id="patch_154">
    <path d="M 314.731088 307.584 
L 315.429078 307.584 
L 315.429078 251.221836 
L 314.731088 251.221836 
z
" clip-path="url(#p176eb76bf0)" style="fill: #1f77b4"/>
   </g>
   <g id="patch_155">
    <path d="M 315.588798 307.584 
L 316.286788 307.584 
L 316.286788 257.055342 
L 315.588798 257.055342 
z
" clip-path="url(#p176eb76bf0)" style="fill: #1f77b4"/>
   </g>
   <g id="patch_156">
    <path d="M 316.464002 307.584 
L 317.161992 307.584 
L 317.161992 301.317628 
L 316.464002 301.317628 
z
" clip-path="url(#p176eb76bf0)" style="fill: #1f77b4"/>
   </g>
   <g id="patch_157">
    <path d="M 326.95987 307.584 
L 327.657861 307.584 
L 327.657861 305.165442 
L 326.95987 305.165442 
z
" clip-path="url(#p176eb76bf0)" style="fill: #1f77b4"/>
   </g>
   <g id="patch_158">
    <path d="M 330.445588 307.584 
L 331.143579 307.584 
L 331.143579 302.714968 
L 330.445588 302.714968 
z
" clip-path="url(#p176eb76bf0)" style="fill: #1f77b4"/>
   </g>
   <g id="patch_159">
    <path d="M 342.673572 307.584 
L 343.371562 307.584 
L 343.371562 265.709351 
L 342.673572 265.709351 
z
" clip-path="url(#p176eb76bf0)" style="fill: #1f77b4"/>
   </g>
   <g id="patch_160">
    <path d="M 343.536528 307.584 
L 344.234518 307.584 
L 344.234518 299.955565 
L 343.536528 299.955565 
z
" clip-path="url(#p176eb76bf0)" style="fill: #1f77b4"/>
   </g>
   <g id="patch_161">
    <path d="M 358.387433 307.584 
L 359.085424 307.584 
L 359.085424 281.615903 
L 358.387433 281.615903 
z
" clip-path="url(#p176eb76bf0)" style="fill: #1f77b4"/>
   </g>
   <g id="patch_162">
    <path d="M 359.262824 307.584 
L 359.960814 307.584 
L 359.960814 304.90099 
L 359.262824 304.90099 
z
" clip-path="url(#p176eb76bf0)" style="fill: #1f77b4"/>
   </g>
   <g id="patch_163">
    <path d="M 396.914984 307.584 
L 397.612974 307.584 
L 397.612974 301.247681 
L 396.914984 301.247681 
z
" clip-path="url(#p176eb76bf0)" style="fill: #1f77b4"/>
   </g>
   <g id="patch_164">
    <path d="M 397.789282 307.584 
L 398.487273 307.584 
L 398.487273 304.694742 
L 397.789282 304.694742 
z
" clip-path="url(#p176eb76bf0)" style="fill: #1f77b4"/>
   </g>
   <g id="matplotlib.axis_1">
    <g id="xtick_1">
     <g id="line2d_1">
      <defs>
       <path id="m7635b7fc43" d="M 0 0 
L 0 3.5 
" style="stroke: #000000; stroke-width: 0.8"/>
      </defs>
      <g>
       <use xlink:href="#m7635b7fc43" x="69.830736" y="307.584" style="stroke: #000000; stroke-width: 0.8"/>
      </g>
     </g>
     <g id="text_1">
      <!-- 50 -->
      <g transform="translate(63.468236 322.182437) scale(0.1 -0.1)">
       <defs>
        <path id="DejaVuSans-35" d="M 691 4666 
L 3169 4666 
L 3169 4134 
L 1269 4134 
L 1269 2991 
Q 1406 3038 1543 3061 
Q 1681 3084 1819 3084 
Q 2600 3084 3056 2656 
Q 3513 2228 3513 1497 
Q 3513 744 3044 326 
Q 2575 -91 1722 -91 
Q 1428 -91 1123 -41 
Q 819 9 494 109 
L 494 744 
Q 775 591 1075 516 
Q 1375 441 1709 441 
Q 2250 441 2565 725 
Q 2881 1009 2881 1497 
Q 2881 1984 2565 2268 
Q 2250 2553 1709 2553 
Q 1456 2553 1204 2497 
Q 953 2441 691 2322 
L 691 4666 
z
" transform="scale(0.015625)"/>
        <path id="DejaVuSans-30" d="M 2034 4250 
Q 1547 4250 1301 3770 
Q 1056 3291 1056 2328 
Q 1056 1369 1301 889 
Q 1547 409 2034 409 
Q 2525 409 2770 889 
Q 3016 1369 3016 2328 
Q 3016 3291 2770 3770 
Q 2525 4250 2034 4250 
z
M 2034 4750 
Q 2819 4750 3233 4129 
Q 3647 3509 3647 2328 
Q 3647 1150 3233 529 
Q 2819 -91 2034 -91 
Q 1250 -91 836 529 
Q 422 1150 422 2328 
Q 422 3509 836 4129 
Q 1250 4750 2034 4750 
z
" transform="scale(0.015625)"/>
       </defs>
       <use xlink:href="#DejaVuSans-35"/>
       <use xlink:href="#DejaVuSans-30" x="63.623047"/>
      </g>
     </g>
    </g>
    <g id="xtick_2">
     <g id="line2d_2">
      <g>
       <use xlink:href="#m7635b7fc43" x="113.45513" y="307.584" style="stroke: #000000; stroke-width: 0.8"/>
      </g>
     </g>
     <g id="text_2">
      <!-- 100 -->
      <g transform="translate(103.91138 322.182437) scale(0.1 -0.1)">
       <defs>
        <path id="DejaVuSans-31" d="M 794 531 
L 1825 531 
L 1825 4091 
L 703 3866 
L 703 4441 
L 1819 4666 
L 2450 4666 
L 2450 531 
L 3481 531 
L 3481 0 
L 794 0 
L 794 531 
z
" transform="scale(0.015625)"/>
       </defs>
       <use xlink:href="#DejaVuSans-31"/>
       <use xlink:href="#DejaVuSans-30" x="63.623047"/>
       <use xlink:href="#DejaVuSans-30" x="127.246094"/>
      </g>
     </g>
    </g>
    <g id="xtick_3">
     <g id="line2d_3">
      <g>
       <use xlink:href="#m7635b7fc43" x="157.079524" y="307.584" style="stroke: #000000; stroke-width: 0.8"/>
      </g>
     </g>
     <g id="text_3">
      <!-- 150 -->
      <g transform="translate(147.535774 322.182437) scale(0.1 -0.1)">
       <use xlink:href="#DejaVuSans-31"/>
       <use xlink:href="#DejaVuSans-35" x="63.623047"/>
       <use xlink:href="#DejaVuSans-30" x="127.246094"/>
      </g>
     </g>
    </g>
    <g id="xtick_4">
     <g id="line2d_4">
      <g>
       <use xlink:href="#m7635b7fc43" x="200.703918" y="307.584" style="stroke: #000000; stroke-width: 0.8"/>
      </g>
     </g>
     <g id="text_4">
      <!-- 200 -->
      <g transform="translate(191.160168 322.182437) scale(0.1 -0.1)">
       <defs>
        <path id="DejaVuSans-32" d="M 1228 531 
L 3431 531 
L 3431 0 
L 469 0 
L 469 531 
Q 828 903 1448 1529 
Q 2069 2156 2228 2338 
Q 2531 2678 2651 2914 
Q 2772 3150 2772 3378 
Q 2772 3750 2511 3984 
Q 2250 4219 1831 4219 
Q 1534 4219 1204 4116 
Q 875 4013 500 3803 
L 500 4441 
Q 881 4594 1212 4672 
Q 1544 4750 1819 4750 
Q 2544 4750 2975 4387 
Q 3406 4025 3406 3419 
Q 3406 3131 3298 2873 
Q 3191 2616 2906 2266 
Q 2828 2175 2409 1742 
Q 1991 1309 1228 531 
z
" transform="scale(0.015625)"/>
       </defs>
       <use xlink:href="#DejaVuSans-32"/>
       <use xlink:href="#DejaVuSans-30" x="63.623047"/>
       <use xlink:href="#DejaVuSans-30" x="127.246094"/>
      </g>
     </g>
    </g>
    <g id="xtick_5">
     <g id="line2d_5">
      <g>
       <use xlink:href="#m7635b7fc43" x="244.328313" y="307.584" style="stroke: #000000; stroke-width: 0.8"/>
      </g>
     </g>
     <g id="text_5">
      <!-- 250 -->
      <g transform="translate(234.784563 322.182437) scale(0.1 -0.1)">
       <use xlink:href="#DejaVuSans-32"/>
       <use xlink:href="#DejaVuSans-35" x="63.623047"/>
       <use xlink:href="#DejaVuSans-30" x="127.246094"/>
      </g>
     </g>
    </g>
    <g id="xtick_6">
     <g id="line2d_6">
      <g>
       <use xlink:href="#m7635b7fc43" x="287.952707" y="307.584" style="stroke: #000000; stroke-width: 0.8"/>
      </g>
     </g>
     <g id="text_6">
      <!-- 300 -->
      <g transform="translate(278.408957 322.182437) scale(0.1 -0.1)">
       <defs>
        <path id="DejaVuSans-33" d="M 2597 2516 
Q 3050 2419 3304 2112 
Q 3559 1806 3559 1356 
Q 3559 666 3084 287 
Q 2609 -91 1734 -91 
Q 1441 -91 1130 -33 
Q 819 25 488 141 
L 488 750 
Q 750 597 1062 519 
Q 1375 441 1716 441 
Q 2309 441 2620 675 
Q 2931 909 2931 1356 
Q 2931 1769 2642 2001 
Q 2353 2234 1838 2234 
L 1294 2234 
L 1294 2753 
L 1863 2753 
Q 2328 2753 2575 2939 
Q 2822 3125 2822 3475 
Q 2822 3834 2567 4026 
Q 2313 4219 1838 4219 
Q 1578 4219 1281 4162 
Q 984 4106 628 3988 
L 628 4550 
Q 988 4650 1302 4700 
Q 1616 4750 1894 4750 
Q 2613 4750 3031 4423 
Q 3450 4097 3450 3541 
Q 3450 3153 3228 2886 
Q 3006 2619 2597 2516 
z
" transform="scale(0.015625)"/>
       </defs>
       <use xlink:href="#DejaVuSans-33"/>
       <use xlink:href="#DejaVuSans-30" x="63.623047"/>
       <use xlink:href="#DejaVuSans-30" x="127.246094"/>
      </g>
     </g>
    </g>
    <g id="xtick_7">
     <g id="line2d_7">
      <g>
       <use xlink:href="#m7635b7fc43" x="331.577101" y="307.584" style="stroke: #000000; stroke-width: 0.8"/>
      </g>
     </g>
     <g id="text_7">
      <!-- 350 -->
      <g transform="translate(322.033351 322.182437) scale(0.1 -0.1)">
       <use xlink:href="#DejaVuSans-33"/>
       <use xlink:href="#DejaVuSans-35" x="63.623047"/>
       <use xlink:href="#DejaVuSans-30" x="127.246094"/>
      </g>
     </g>
    </g>
    <g id="xtick_8">
     <g id="line2d_8">
      <g>
       <use xlink:href="#m7635b7fc43" x="375.201496" y="307.584" style="stroke: #000000; stroke-width: 0.8"/>
      </g>
     </g>
     <g id="text_8">
      <!-- 400 -->
      <g transform="translate(365.657746 322.182437) scale(0.1 -0.1)">
       <defs>
        <path id="DejaVuSans-34" d="M 2419 4116 
L 825 1625 
L 2419 1625 
L 2419 4116 
z
M 2253 4666 
L 3047 4666 
L 3047 1625 
L 3713 1625 
L 3713 1100 
L 3047 1100 
L 3047 0 
L 2419 0 
L 2419 1100 
L 313 1100 
L 313 1709 
L 2253 4666 
z
" transform="scale(0.015625)"/>
       </defs>
       <use xlink:href="#DejaVuSans-34"/>
       <use xlink:href="#DejaVuSans-30" x="63.623047"/>
       <use xlink:href="#DejaVuSans-30" x="127.246094"/>
      </g>
     </g>
    </g>
    <g id="text_9">
     <!-- ${m/z}$ -->
     <g transform="translate(226.96 335.860562) scale(0.1 -0.1)">
      <defs>
       <path id="DejaVuSans-Oblique-6d" d="M 5747 2113 
L 5338 0 
L 4763 0 
L 5166 2094 
Q 5191 2228 5203 2325 
Q 5216 2422 5216 2491 
Q 5216 2772 5059 2928 
Q 4903 3084 4622 3084 
Q 4203 3084 3875 2770 
Q 3547 2456 3450 1953 
L 3066 0 
L 2491 0 
L 2900 2094 
Q 2925 2209 2937 2307 
Q 2950 2406 2950 2484 
Q 2950 2769 2794 2926 
Q 2638 3084 2363 3084 
Q 1938 3084 1609 2770 
Q 1281 2456 1184 1953 
L 800 0 
L 225 0 
L 909 3500 
L 1484 3500 
L 1375 2956 
Q 1609 3263 1923 3423 
Q 2238 3584 2597 3584 
Q 2978 3584 3223 3384 
Q 3469 3184 3519 2828 
Q 3781 3197 4126 3390 
Q 4472 3584 4856 3584 
Q 5306 3584 5551 3325 
Q 5797 3066 5797 2591 
Q 5797 2488 5784 2364 
Q 5772 2241 5747 2113 
z
" transform="scale(0.015625)"/>
       <path id="DejaVuSans-2f" d="M 1625 4666 
L 2156 4666 
L 531 -594 
L 0 -594 
L 1625 4666 
z
" transform="scale(0.015625)"/>
       <path id="DejaVuSans-Oblique-7a" d="M 744 3500 
L 3475 3500 
L 3372 2975 
L 738 459 
L 2913 459 
L 2822 0 
L -19 0 
L 84 525 
L 2719 3041 
L 653 3041 
L 744 3500 
z
" transform="scale(0.015625)"/>
      </defs>
      <use xlink:href="#DejaVuSans-Oblique-6d" transform="translate(0 0.09375)"/>
      <use xlink:href="#DejaVuSans-2f" transform="translate(97.412109 0.09375)"/>
      <use xlink:href="#DejaVuSans-Oblique-7a" transform="translate(131.103516 0.09375)"/>
     </g>
    </g>
   </g>
   <g id="matplotlib.axis_2">
    <g id="ytick_1">
     <g id="line2d_9">
      <defs>
       <path id="m0bce61f25a" d="M 0 0 
L -3.5 0 
" style="stroke: #000000; stroke-width: 0.8"/>
      </defs>
      <g>
       <use xlink:href="#m0bce61f25a" x="57.6" y="307.584" style="stroke: #000000; stroke-width: 0.8"/>
      </g>
     </g>
     <g id="text_10">
      <!-- 0 -->
      <g transform="translate(44.2375 311.383219) scale(0.1 -0.1)">
       <use xlink:href="#DejaVuSans-30"/>
      </g>
     </g>
    </g>
    <g id="ytick_2">
     <g id="line2d_10">
      <g>
       <use xlink:href="#m0bce61f25a" x="57.6" y="255.378447" style="stroke: #000000; stroke-width: 0.8"/>
      </g>
     </g>
     <g id="text_11">
      <!-- 100000 -->
      <g transform="translate(12.425 259.177665) scale(0.1 -0.1)">
       <use xlink:href="#DejaVuSans-31"/>
       <use xlink:href="#DejaVuSans-30" x="63.623047"/>
       <use xlink:href="#DejaVuSans-30" x="127.246094"/>
       <use xlink:href="#DejaVuSans-30" x="190.869141"/>
       <use xlink:href="#DejaVuSans-30" x="254.492188"/>
       <use xlink:href="#DejaVuSans-30" x="318.115234"/>
      </g>
     </g>
    </g>
    <g id="ytick_3">
     <g id="line2d_11">
      <g>
       <use xlink:href="#m0bce61f25a" x="57.6" y="203.172893" style="stroke: #000000; stroke-width: 0.8"/>
      </g>
     </g>
     <g id="text_12">
      <!-- 200000 -->
      <g transform="translate(12.425 206.972112) scale(0.1 -0.1)">
       <use xlink:href="#DejaVuSans-32"/>
       <use xlink:href="#DejaVuSans-30" x="63.623047"/>
       <use xlink:href="#DejaVuSans-30" x="127.246094"/>
       <use xlink:href="#DejaVuSans-30" x="190.869141"/>
       <use xlink:href="#DejaVuSans-30" x="254.492188"/>
       <use xlink:href="#DejaVuSans-30" x="318.115234"/>
      </g>
     </g>
    </g>
    <g id="ytick_4">
     <g id="line2d_12">
      <g>
       <use xlink:href="#m0bce61f25a" x="57.6" y="150.96734" style="stroke: #000000; stroke-width: 0.8"/>
      </g>
     </g>
     <g id="text_13">
      <!-- 300000 -->
      <g transform="translate(12.425 154.766558) scale(0.1 -0.1)">
       <use xlink:href="#DejaVuSans-33"/>
       <use xlink:href="#DejaVuSans-30" x="63.623047"/>
       <use xlink:href="#DejaVuSans-30" x="127.246094"/>
       <use xlink:href="#DejaVuSans-30" x="190.869141"/>
       <use xlink:href="#DejaVuSans-30" x="254.492188"/>
       <use xlink:href="#DejaVuSans-30" x="318.115234"/>
      </g>
     </g>
    </g>
    <g id="ytick_5">
     <g id="line2d_13">
      <g>
       <use xlink:href="#m0bce61f25a" x="57.6" y="98.761786" style="stroke: #000000; stroke-width: 0.8"/>
      </g>
     </g>
     <g id="text_14">
      <!-- 400000 -->
      <g transform="translate(12.425 102.561005) scale(0.1 -0.1)">
       <use xlink:href="#DejaVuSans-34"/>
       <use xlink:href="#DejaVuSans-30" x="63.623047"/>
       <use xlink:href="#DejaVuSans-30" x="127.246094"/>
       <use xlink:href="#DejaVuSans-30" x="190.869141"/>
       <use xlink:href="#DejaVuSans-30" x="254.492188"/>
       <use xlink:href="#DejaVuSans-30" x="318.115234"/>
      </g>
     </g>
    </g>
    <g id="ytick_6">
     <g id="line2d_14">
      <g>
       <use xlink:href="#m0bce61f25a" x="57.6" y="46.556233" style="stroke: #000000; stroke-width: 0.8"/>
      </g>
     </g>
     <g id="text_15">
      <!-- 500000 -->
      <g transform="translate(12.425 50.355452) scale(0.1 -0.1)">
       <use xlink:href="#DejaVuSans-35"/>
       <use xlink:href="#DejaVuSans-30" x="63.623047"/>
       <use xlink:href="#DejaVuSans-30" x="127.246094"/>
       <use xlink:href="#DejaVuSans-30" x="190.869141"/>
       <use xlink:href="#DejaVuSans-30" x="254.492188"/>
       <use xlink:href="#DejaVuSans-30" x="318.115234"/>
      </g>
     </g>
    </g>
    <g id="text_16">
     <!-- intensities -->
     <g transform="translate(6.345312 200.3155) rotate(-90) scale(0.1 -0.1)">
      <defs>
       <path id="DejaVuSans-69" d="M 603 3500 
L 1178 3500 
L 1178 0 
L 603 0 
L 603 3500 
z
M 603 4863 
L 1178 4863 
L 1178 4134 
L 603 4134 
L 603 4863 
z
" transform="scale(0.015625)"/>
       <path id="DejaVuSans-6e" d="M 3513 2113 
L 3513 0 
L 2938 0 
L 2938 2094 
Q 2938 2591 2744 2837 
Q 2550 3084 2163 3084 
Q 1697 3084 1428 2787 
Q 1159 2491 1159 1978 
L 1159 0 
L 581 0 
L 581 3500 
L 1159 3500 
L 1159 2956 
Q 1366 3272 1645 3428 
Q 1925 3584 2291 3584 
Q 2894 3584 3203 3211 
Q 3513 2838 3513 2113 
z
" transform="scale(0.015625)"/>
       <path id="DejaVuSans-74" d="M 1172 4494 
L 1172 3500 
L 2356 3500 
L 2356 3053 
L 1172 3053 
L 1172 1153 
Q 1172 725 1289 603 
Q 1406 481 1766 481 
L 2356 481 
L 2356 0 
L 1766 0 
Q 1100 0 847 248 
Q 594 497 594 1153 
L 594 3053 
L 172 3053 
L 172 3500 
L 594 3500 
L 594 4494 
L 1172 4494 
z
" transform="scale(0.015625)"/>
       <path id="DejaVuSans-65" d="M 3597 1894 
L 3597 1613 
L 953 1613 
Q 991 1019 1311 708 
Q 1631 397 2203 397 
Q 2534 397 2845 478 
Q 3156 559 3463 722 
L 3463 178 
Q 3153 47 2828 -22 
Q 2503 -91 2169 -91 
Q 1331 -91 842 396 
Q 353 884 353 1716 
Q 353 2575 817 3079 
Q 1281 3584 2069 3584 
Q 2775 3584 3186 3129 
Q 3597 2675 3597 1894 
z
M 3022 2063 
Q 3016 2534 2758 2815 
Q 2500 3097 2075 3097 
Q 1594 3097 1305 2825 
Q 1016 2553 972 2059 
L 3022 2063 
z
" transform="scale(0.015625)"/>
       <path id="DejaVuSans-73" d="M 2834 3397 
L 2834 2853 
Q 2591 2978 2328 3040 
Q 2066 3103 1784 3103 
Q 1356 3103 1142 2972 
Q 928 2841 928 2578 
Q 928 2378 1081 2264 
Q 1234 2150 1697 2047 
L 1894 2003 
Q 2506 1872 2764 1633 
Q 3022 1394 3022 966 
Q 3022 478 2636 193 
Q 2250 -91 1575 -91 
Q 1294 -91 989 -36 
Q 684 19 347 128 
L 347 722 
Q 666 556 975 473 
Q 1284 391 1588 391 
Q 1994 391 2212 530 
Q 2431 669 2431 922 
Q 2431 1156 2273 1281 
Q 2116 1406 1581 1522 
L 1381 1569 
Q 847 1681 609 1914 
Q 372 2147 372 2553 
Q 372 3047 722 3315 
Q 1072 3584 1716 3584 
Q 2034 3584 2315 3537 
Q 2597 3491 2834 3397 
z
" transform="scale(0.015625)"/>
      </defs>
      <use xlink:href="#DejaVuSans-69"/>
      <use xlink:href="#DejaVuSans-6e" x="27.783203"/>
      <use xlink:href="#DejaVuSans-74" x="91.162109"/>
      <use xlink:href="#DejaVuSans-65" x="130.371094"/>
      <use xlink:href="#DejaVuSans-6e" x="191.894531"/>
      <use xlink:href="#DejaVuSans-73" x="255.273438"/>
      <use xlink:href="#DejaVuSans-69" x="307.373047"/>
      <use xlink:href="#DejaVuSans-74" x="335.15625"/>
      <use xlink:href="#DejaVuSans-69" x="374.365234"/>
      <use xlink:href="#DejaVuSans-65" x="402.148438"/>
      <use xlink:href="#DejaVuSans-73" x="463.671875"/>
     </g>
    </g>
   </g>
   <g id="patch_165">
    <path d="M 57.6 307.584 
L 57.6 41.472 
" style="fill: none; stroke: #000000; stroke-width: 0.8; stroke-linejoin: miter; stroke-linecap: square"/>
   </g>
   <g id="patch_166">
    <path d="M 414.72 307.584 
L 414.72 41.472 
" style="fill: none; stroke: #000000; stroke-width: 0.8; stroke-linejoin: miter; stroke-linecap: square"/>
   </g>
   <g id="patch_167">
    <path d="M 57.6 307.584 
L 414.72 307.584 
" style="fill: none; stroke: #000000; stroke-width: 0.8; stroke-linejoin: miter; stroke-linecap: square"/>
   </g>
   <g id="patch_168">
    <path d="M 57.6 41.472 
L 414.72 41.472 
" style="fill: none; stroke: #000000; stroke-width: 0.8; stroke-linejoin: miter; stroke-linecap: square"/>
   </g>
   <g id="text_17">
    <!-- 102.0554 -->
    <g transform="translate(108.133778 172.994455) scale(0.06 -0.06)">
     <defs>
      <path id="DejaVuSans-2e" d="M 684 794 
L 1344 794 
L 1344 0 
L 684 0 
L 684 794 
z
" transform="scale(0.015625)"/>
     </defs>
     <use xlink:href="#DejaVuSans-31"/>
     <use xlink:href="#DejaVuSans-30" x="63.623047"/>
     <use xlink:href="#DejaVuSans-32" x="127.246094"/>
     <use xlink:href="#DejaVuSans-2e" x="190.869141"/>
     <use xlink:href="#DejaVuSans-30" x="222.65625"/>
     <use xlink:href="#DejaVuSans-35" x="286.279297"/>
     <use xlink:href="#DejaVuSans-35" x="349.902344"/>
     <use xlink:href="#DejaVuSans-34" x="413.525391"/>
    </g>
   </g>
   <g id="text_18">
    <!-- 130.0651 -->
    <g transform="translate(132.571899 267.846024) scale(0.06 -0.06)">
     <defs>
      <path id="DejaVuSans-36" d="M 2113 2584 
Q 1688 2584 1439 2293 
Q 1191 2003 1191 1497 
Q 1191 994 1439 701 
Q 1688 409 2113 409 
Q 2538 409 2786 701 
Q 3034 994 3034 1497 
Q 3034 2003 2786 2293 
Q 2538 2584 2113 2584 
z
M 3366 4563 
L 3366 3988 
Q 3128 4100 2886 4159 
Q 2644 4219 2406 4219 
Q 1781 4219 1451 3797 
Q 1122 3375 1075 2522 
Q 1259 2794 1537 2939 
Q 1816 3084 2150 3084 
Q 2853 3084 3261 2657 
Q 3669 2231 3669 1497 
Q 3669 778 3244 343 
Q 2819 -91 2113 -91 
Q 1303 -91 875 529 
Q 447 1150 447 2328 
Q 447 3434 972 4092 
Q 1497 4750 2381 4750 
Q 2619 4750 2861 4703 
Q 3103 4656 3366 4563 
z
" transform="scale(0.015625)"/>
     </defs>
     <use xlink:href="#DejaVuSans-31"/>
     <use xlink:href="#DejaVuSans-33" x="63.623047"/>
     <use xlink:href="#DejaVuSans-30" x="127.246094"/>
     <use xlink:href="#DejaVuSans-2e" x="190.869141"/>
     <use xlink:href="#DejaVuSans-30" x="222.65625"/>
     <use xlink:href="#DejaVuSans-36" x="286.279297"/>
     <use xlink:href="#DejaVuSans-35" x="349.902344"/>
     <use xlink:href="#DejaVuSans-31" x="413.525391"/>
    </g>
   </g>
   <g id="text_19">
    <!-- 202.0497 -->
    <g transform="translate(193.937594 253.177889) scale(0.06 -0.06)">
     <defs>
      <path id="DejaVuSans-39" d="M 703 97 
L 703 672 
Q 941 559 1184 500 
Q 1428 441 1663 441 
Q 2288 441 2617 861 
Q 2947 1281 2994 2138 
Q 2813 1869 2534 1725 
Q 2256 1581 1919 1581 
Q 1219 1581 811 2004 
Q 403 2428 403 3163 
Q 403 3881 828 4315 
Q 1253 4750 1959 4750 
Q 2769 4750 3195 4129 
Q 3622 3509 3622 2328 
Q 3622 1225 3098 567 
Q 2575 -91 1691 -91 
Q 1453 -91 1209 -44 
Q 966 3 703 97 
z
M 1959 2075 
Q 2384 2075 2632 2365 
Q 2881 2656 2881 3163 
Q 2881 3666 2632 3958 
Q 2384 4250 1959 4250 
Q 1534 4250 1286 3958 
Q 1038 3666 1038 3163 
Q 1038 2656 1286 2365 
Q 1534 2075 1959 2075 
z
" transform="scale(0.015625)"/>
      <path id="DejaVuSans-37" d="M 525 4666 
L 3525 4666 
L 3525 4397 
L 1831 0 
L 1172 0 
L 2766 4134 
L 525 4134 
L 525 4666 
z
" transform="scale(0.015625)"/>
     </defs>
     <use xlink:href="#DejaVuSans-32"/>
     <use xlink:href="#DejaVuSans-30" x="63.623047"/>
     <use xlink:href="#DejaVuSans-32" x="127.246094"/>
     <use xlink:href="#DejaVuSans-2e" x="190.869141"/>
     <use xlink:href="#DejaVuSans-30" x="222.65625"/>
     <use xlink:href="#DejaVuSans-34" x="286.279297"/>
     <use xlink:href="#DejaVuSans-39" x="349.902344"/>
     <use xlink:href="#DejaVuSans-37" x="413.525391"/>
    </g>
   </g>
   <g id="text_20">
    <!-- 211.0863 -->
    <g transform="translate(203.261937 189.554687) scale(0.06 -0.06)">
     <defs>
      <path id="DejaVuSans-38" d="M 2034 2216 
Q 1584 2216 1326 1975 
Q 1069 1734 1069 1313 
Q 1069 891 1326 650 
Q 1584 409 2034 409 
Q 2484 409 2743 651 
Q 3003 894 3003 1313 
Q 3003 1734 2745 1975 
Q 2488 2216 2034 2216 
z
M 1403 2484 
Q 997 2584 770 2862 
Q 544 3141 544 3541 
Q 544 4100 942 4425 
Q 1341 4750 2034 4750 
Q 2731 4750 3128 4425 
Q 3525 4100 3525 3541 
Q 3525 3141 3298 2862 
Q 3072 2584 2669 2484 
Q 3125 2378 3379 2068 
Q 3634 1759 3634 1313 
Q 3634 634 3220 271 
Q 2806 -91 2034 -91 
Q 1263 -91 848 271 
Q 434 634 434 1313 
Q 434 1759 690 2068 
Q 947 2378 1403 2484 
z
M 1172 3481 
Q 1172 3119 1398 2916 
Q 1625 2713 2034 2713 
Q 2441 2713 2670 2916 
Q 2900 3119 2900 3481 
Q 2900 3844 2670 4047 
Q 2441 4250 2034 4250 
Q 1625 4250 1398 4047 
Q 1172 3844 1172 3481 
z
" transform="scale(0.015625)"/>
     </defs>
     <use xlink:href="#DejaVuSans-32"/>
     <use xlink:href="#DejaVuSans-31" x="63.623047"/>
     <use xlink:href="#DejaVuSans-31" x="127.246094"/>
     <use xlink:href="#DejaVuSans-2e" x="190.869141"/>
     <use xlink:href="#DejaVuSans-30" x="222.65625"/>
     <use xlink:href="#DejaVuSans-38" x="286.279297"/>
     <use xlink:href="#DejaVuSans-36" x="349.902344"/>
     <use xlink:href="#DejaVuSans-33" x="413.525391"/>
    </g>
   </g>
   <g id="text_21">
    <!-- 212.0934 -->
    <g transform="translate(204.140535 279.593805) scale(0.06 -0.06)">
     <use xlink:href="#DejaVuSans-32"/>
     <use xlink:href="#DejaVuSans-31" x="63.623047"/>
     <use xlink:href="#DejaVuSans-32" x="127.246094"/>
     <use xlink:href="#DejaVuSans-2e" x="190.869141"/>
     <use xlink:href="#DejaVuSans-30" x="222.65625"/>
     <use xlink:href="#DejaVuSans-39" x="286.279297"/>
     <use xlink:href="#DejaVuSans-33" x="349.902344"/>
     <use xlink:href="#DejaVuSans-34" x="413.525391"/>
    </g>
   </g>
   <g id="text_22">
    <!-- 228.0652 -->
    <g transform="translate(218.075739 197.996269) scale(0.06 -0.06)">
     <use xlink:href="#DejaVuSans-32"/>
     <use xlink:href="#DejaVuSans-32" x="63.623047"/>
     <use xlink:href="#DejaVuSans-38" x="127.246094"/>
     <use xlink:href="#DejaVuSans-2e" x="190.869141"/>
     <use xlink:href="#DejaVuSans-30" x="222.65625"/>
     <use xlink:href="#DejaVuSans-36" x="286.279297"/>
     <use xlink:href="#DejaVuSans-35" x="349.902344"/>
     <use xlink:href="#DejaVuSans-32" x="413.525391"/>
    </g>
   </g>
   <g id="text_23">
    <!-- 228.0888 -->
    <g transform="translate(218.096401 101.640614) scale(0.06 -0.06)">
     <use xlink:href="#DejaVuSans-32"/>
     <use xlink:href="#DejaVuSans-32" x="63.623047"/>
     <use xlink:href="#DejaVuSans-38" x="127.246094"/>
     <use xlink:href="#DejaVuSans-2e" x="190.869141"/>
     <use xlink:href="#DejaVuSans-30" x="222.65625"/>
     <use xlink:href="#DejaVuSans-38" x="286.279297"/>
     <use xlink:href="#DejaVuSans-38" x="349.902344"/>
     <use xlink:href="#DejaVuSans-38" x="413.525391"/>
    </g>
   </g>
   <g id="text_24">
    <!-- 230.0446 -->
    <g transform="translate(219.802768 233.267488) scale(0.06 -0.06)">
     <use xlink:href="#DejaVuSans-32"/>
     <use xlink:href="#DejaVuSans-33" x="63.623047"/>
     <use xlink:href="#DejaVuSans-30" x="127.246094"/>
     <use xlink:href="#DejaVuSans-2e" x="190.869141"/>
     <use xlink:href="#DejaVuSans-30" x="222.65625"/>
     <use xlink:href="#DejaVuSans-34" x="286.279297"/>
     <use xlink:href="#DejaVuSans-34" x="349.902344"/>
     <use xlink:href="#DejaVuSans-36" x="413.525391"/>
    </g>
   </g>
   <g id="text_25">
    <!-- 246.0759 -->
    <g transform="translate(233.78988 265.231251) scale(0.06 -0.06)">
     <use xlink:href="#DejaVuSans-32"/>
     <use xlink:href="#DejaVuSans-34" x="63.623047"/>
     <use xlink:href="#DejaVuSans-36" x="127.246094"/>
     <use xlink:href="#DejaVuSans-2e" x="190.869141"/>
     <use xlink:href="#DejaVuSans-30" x="222.65625"/>
     <use xlink:href="#DejaVuSans-37" x="286.279297"/>
     <use xlink:href="#DejaVuSans-35" x="349.902344"/>
     <use xlink:href="#DejaVuSans-39" x="413.525391"/>
    </g>
   </g>
   <g id="text_26">
    <!-- 272.055 -->
    <g transform="translate(256.925062 50.939625) scale(0.06 -0.06)">
     <use xlink:href="#DejaVuSans-32"/>
     <use xlink:href="#DejaVuSans-37" x="63.623047"/>
     <use xlink:href="#DejaVuSans-32" x="127.246094"/>
     <use xlink:href="#DejaVuSans-2e" x="190.869141"/>
     <use xlink:href="#DejaVuSans-30" x="222.65625"/>
     <use xlink:href="#DejaVuSans-35" x="286.279297"/>
     <use xlink:href="#DejaVuSans-35" x="349.902344"/>
    </g>
   </g>
   <g id="text_27">
    <!-- 287.1024 -->
    <g transform="translate(269.585061 275.828069) scale(0.06 -0.06)">
     <use xlink:href="#DejaVuSans-32"/>
     <use xlink:href="#DejaVuSans-38" x="63.623047"/>
     <use xlink:href="#DejaVuSans-37" x="127.246094"/>
     <use xlink:href="#DejaVuSans-2e" x="190.869141"/>
     <use xlink:href="#DejaVuSans-31" x="222.65625"/>
     <use xlink:href="#DejaVuSans-30" x="286.279297"/>
     <use xlink:href="#DejaVuSans-32" x="349.902344"/>
     <use xlink:href="#DejaVuSans-34" x="413.525391"/>
    </g>
   </g>
   <g id="text_28">
    <!-- 288.0859 -->
    <g transform="translate(263.243144 220.092106) scale(0.06 -0.06)">
     <use xlink:href="#DejaVuSans-32"/>
     <use xlink:href="#DejaVuSans-38" x="63.623047"/>
     <use xlink:href="#DejaVuSans-38" x="127.246094"/>
     <use xlink:href="#DejaVuSans-2e" x="190.869141"/>
     <use xlink:href="#DejaVuSans-30" x="222.65625"/>
     <use xlink:href="#DejaVuSans-38" x="286.279297"/>
     <use xlink:href="#DejaVuSans-35" x="349.902344"/>
     <use xlink:href="#DejaVuSans-39" x="413.525391"/>
    </g>
   </g>
   <g id="text_29">
    <!-- 304.0811 -->
    <g transform="translate(287.998717 212.973934) scale(0.06 -0.06)">
     <use xlink:href="#DejaVuSans-33"/>
     <use xlink:href="#DejaVuSans-30" x="63.623047"/>
     <use xlink:href="#DejaVuSans-34" x="127.246094"/>
     <use xlink:href="#DejaVuSans-2e" x="190.869141"/>
     <use xlink:href="#DejaVuSans-30" x="222.65625"/>
     <use xlink:href="#DejaVuSans-38" x="286.279297"/>
     <use xlink:href="#DejaVuSans-31" x="349.902344"/>
     <use xlink:href="#DejaVuSans-31" x="413.525391"/>
    </g>
   </g>
   <g id="text_30">
    <!-- 331.092 -->
    <g transform="translate(308.262603 246.037461) scale(0.06 -0.06)">
     <use xlink:href="#DejaVuSans-33"/>
     <use xlink:href="#DejaVuSans-33" x="63.623047"/>
     <use xlink:href="#DejaVuSans-31" x="127.246094"/>
     <use xlink:href="#DejaVuSans-2e" x="190.869141"/>
     <use xlink:href="#DejaVuSans-30" x="222.65625"/>
     <use xlink:href="#DejaVuSans-39" x="286.279297"/>
     <use xlink:href="#DejaVuSans-32" x="349.902344"/>
    </g>
   </g>
   <g id="text_31">
    <!-- 332.075 -->
    <g transform="translate(315.137627 255.14772) scale(0.06 -0.06)">
     <use xlink:href="#DejaVuSans-33"/>
     <use xlink:href="#DejaVuSans-33" x="63.623047"/>
     <use xlink:href="#DejaVuSans-32" x="127.246094"/>
     <use xlink:href="#DejaVuSans-2e" x="190.869141"/>
     <use xlink:href="#DejaVuSans-30" x="222.65625"/>
     <use xlink:href="#DejaVuSans-37" x="286.279297"/>
     <use xlink:href="#DejaVuSans-35" x="349.902344"/>
    </g>
   </g>
   <g id="text_32">
    <!-- 363.1182 -->
    <g transform="translate(339.073585 263.404976) scale(0.06 -0.06)">
     <use xlink:href="#DejaVuSans-33"/>
     <use xlink:href="#DejaVuSans-36" x="63.623047"/>
     <use xlink:href="#DejaVuSans-33" x="127.246094"/>
     <use xlink:href="#DejaVuSans-2e" x="190.869141"/>
     <use xlink:href="#DejaVuSans-31" x="222.65625"/>
     <use xlink:href="#DejaVuSans-31" x="286.279297"/>
     <use xlink:href="#DejaVuSans-38" x="349.902344"/>
     <use xlink:href="#DejaVuSans-32" x="413.525391"/>
    </g>
   </g>
   <g id="text_33">
    <!-- 381.1286 -->
    <g transform="translate(351.621741 286.511528) scale(0.06 -0.06)">
     <use xlink:href="#DejaVuSans-33"/>
     <use xlink:href="#DejaVuSans-38" x="63.623047"/>
     <use xlink:href="#DejaVuSans-31" x="127.246094"/>
     <use xlink:href="#DejaVuSans-2e" x="190.869141"/>
     <use xlink:href="#DejaVuSans-31" x="222.65625"/>
     <use xlink:href="#DejaVuSans-32" x="286.279297"/>
     <use xlink:href="#DejaVuSans-38" x="349.902344"/>
     <use xlink:href="#DejaVuSans-36" x="413.525391"/>
    </g>
   </g>
   <g id="text_34">
    <!-- MS2 spectrum of ${m/z}$ 426.1857, scan time 6.28 min. -->
    <g transform="translate(57.6 35.472) scale(0.12 -0.12)">
     <defs>
      <path id="DejaVuSans-4d" d="M 628 4666 
L 1569 4666 
L 2759 1491 
L 3956 4666 
L 4897 4666 
L 4897 0 
L 4281 0 
L 4281 4097 
L 3078 897 
L 2444 897 
L 1241 4097 
L 1241 0 
L 628 0 
L 628 4666 
z
" transform="scale(0.015625)"/>
      <path id="DejaVuSans-53" d="M 3425 4513 
L 3425 3897 
Q 3066 4069 2747 4153 
Q 2428 4238 2131 4238 
Q 1616 4238 1336 4038 
Q 1056 3838 1056 3469 
Q 1056 3159 1242 3001 
Q 1428 2844 1947 2747 
L 2328 2669 
Q 3034 2534 3370 2195 
Q 3706 1856 3706 1288 
Q 3706 609 3251 259 
Q 2797 -91 1919 -91 
Q 1588 -91 1214 -16 
Q 841 59 441 206 
L 441 856 
Q 825 641 1194 531 
Q 1563 422 1919 422 
Q 2459 422 2753 634 
Q 3047 847 3047 1241 
Q 3047 1584 2836 1778 
Q 2625 1972 2144 2069 
L 1759 2144 
Q 1053 2284 737 2584 
Q 422 2884 422 3419 
Q 422 4038 858 4394 
Q 1294 4750 2059 4750 
Q 2388 4750 2728 4690 
Q 3069 4631 3425 4513 
z
" transform="scale(0.015625)"/>
      <path id="DejaVuSans-20" transform="scale(0.015625)"/>
      <path id="DejaVuSans-70" d="M 1159 525 
L 1159 -1331 
L 581 -1331 
L 581 3500 
L 1159 3500 
L 1159 2969 
Q 1341 3281 1617 3432 
Q 1894 3584 2278 3584 
Q 2916 3584 3314 3078 
Q 3713 2572 3713 1747 
Q 3713 922 3314 415 
Q 2916 -91 2278 -91 
Q 1894 -91 1617 61 
Q 1341 213 1159 525 
z
M 3116 1747 
Q 3116 2381 2855 2742 
Q 2594 3103 2138 3103 
Q 1681 3103 1420 2742 
Q 1159 2381 1159 1747 
Q 1159 1113 1420 752 
Q 1681 391 2138 391 
Q 2594 391 2855 752 
Q 3116 1113 3116 1747 
z
" transform="scale(0.015625)"/>
      <path id="DejaVuSans-63" d="M 3122 3366 
L 3122 2828 
Q 2878 2963 2633 3030 
Q 2388 3097 2138 3097 
Q 1578 3097 1268 2742 
Q 959 2388 959 1747 
Q 959 1106 1268 751 
Q 1578 397 2138 397 
Q 2388 397 2633 464 
Q 2878 531 3122 666 
L 3122 134 
Q 2881 22 2623 -34 
Q 2366 -91 2075 -91 
Q 1284 -91 818 406 
Q 353 903 353 1747 
Q 353 2603 823 3093 
Q 1294 3584 2113 3584 
Q 2378 3584 2631 3529 
Q 2884 3475 3122 3366 
z
" transform="scale(0.015625)"/>
      <path id="DejaVuSans-72" d="M 2631 2963 
Q 2534 3019 2420 3045 
Q 2306 3072 2169 3072 
Q 1681 3072 1420 2755 
Q 1159 2438 1159 1844 
L 1159 0 
L 581 0 
L 581 3500 
L 1159 3500 
L 1159 2956 
Q 1341 3275 1631 3429 
Q 1922 3584 2338 3584 
Q 2397 3584 2469 3576 
Q 2541 3569 2628 3553 
L 2631 2963 
z
" transform="scale(0.015625)"/>
      <path id="DejaVuSans-75" d="M 544 1381 
L 544 3500 
L 1119 3500 
L 1119 1403 
Q 1119 906 1312 657 
Q 1506 409 1894 409 
Q 2359 409 2629 706 
Q 2900 1003 2900 1516 
L 2900 3500 
L 3475 3500 
L 3475 0 
L 2900 0 
L 2900 538 
Q 2691 219 2414 64 
Q 2138 -91 1772 -91 
Q 1169 -91 856 284 
Q 544 659 544 1381 
z
M 1991 3584 
L 1991 3584 
z
" transform="scale(0.015625)"/>
      <path id="DejaVuSans-6d" d="M 3328 2828 
Q 3544 3216 3844 3400 
Q 4144 3584 4550 3584 
Q 5097 3584 5394 3201 
Q 5691 2819 5691 2113 
L 5691 0 
L 5113 0 
L 5113 2094 
Q 5113 2597 4934 2840 
Q 4756 3084 4391 3084 
Q 3944 3084 3684 2787 
Q 3425 2491 3425 1978 
L 3425 0 
L 2847 0 
L 2847 2094 
Q 2847 2600 2669 2842 
Q 2491 3084 2119 3084 
Q 1678 3084 1418 2786 
Q 1159 2488 1159 1978 
L 1159 0 
L 581 0 
L 581 3500 
L 1159 3500 
L 1159 2956 
Q 1356 3278 1631 3431 
Q 1906 3584 2284 3584 
Q 2666 3584 2933 3390 
Q 3200 3197 3328 2828 
z
" transform="scale(0.015625)"/>
      <path id="DejaVuSans-6f" d="M 1959 3097 
Q 1497 3097 1228 2736 
Q 959 2375 959 1747 
Q 959 1119 1226 758 
Q 1494 397 1959 397 
Q 2419 397 2687 759 
Q 2956 1122 2956 1747 
Q 2956 2369 2687 2733 
Q 2419 3097 1959 3097 
z
M 1959 3584 
Q 2709 3584 3137 3096 
Q 3566 2609 3566 1747 
Q 3566 888 3137 398 
Q 2709 -91 1959 -91 
Q 1206 -91 779 398 
Q 353 888 353 1747 
Q 353 2609 779 3096 
Q 1206 3584 1959 3584 
z
" transform="scale(0.015625)"/>
      <path id="DejaVuSans-66" d="M 2375 4863 
L 2375 4384 
L 1825 4384 
Q 1516 4384 1395 4259 
Q 1275 4134 1275 3809 
L 1275 3500 
L 2222 3500 
L 2222 3053 
L 1275 3053 
L 1275 0 
L 697 0 
L 697 3053 
L 147 3053 
L 147 3500 
L 697 3500 
L 697 3744 
Q 697 4328 969 4595 
Q 1241 4863 1831 4863 
L 2375 4863 
z
" transform="scale(0.015625)"/>
      <path id="DejaVuSans-2c" d="M 750 794 
L 1409 794 
L 1409 256 
L 897 -744 
L 494 -744 
L 750 256 
L 750 794 
z
" transform="scale(0.015625)"/>
      <path id="DejaVuSans-61" d="M 2194 1759 
Q 1497 1759 1228 1600 
Q 959 1441 959 1056 
Q 959 750 1161 570 
Q 1363 391 1709 391 
Q 2188 391 2477 730 
Q 2766 1069 2766 1631 
L 2766 1759 
L 2194 1759 
z
M 3341 1997 
L 3341 0 
L 2766 0 
L 2766 531 
Q 2569 213 2275 61 
Q 1981 -91 1556 -91 
Q 1019 -91 701 211 
Q 384 513 384 1019 
Q 384 1609 779 1909 
Q 1175 2209 1959 2209 
L 2766 2209 
L 2766 2266 
Q 2766 2663 2505 2880 
Q 2244 3097 1772 3097 
Q 1472 3097 1187 3025 
Q 903 2953 641 2809 
L 641 3341 
Q 956 3463 1253 3523 
Q 1550 3584 1831 3584 
Q 2591 3584 2966 3190 
Q 3341 2797 3341 1997 
z
" transform="scale(0.015625)"/>
     </defs>
     <use xlink:href="#DejaVuSans-4d" transform="translate(0 0.015625)"/>
     <use xlink:href="#DejaVuSans-53" transform="translate(86.279297 0.015625)"/>
     <use xlink:href="#DejaVuSans-32" transform="translate(149.755859 0.015625)"/>
     <use xlink:href="#DejaVuSans-20" transform="translate(213.378906 0.015625)"/>
     <use xlink:href="#DejaVuSans-73" transform="translate(245.166016 0.015625)"/>
     <use xlink:href="#DejaVuSans-70" transform="translate(297.265625 0.015625)"/>
     <use xlink:href="#DejaVuSans-65" transform="translate(360.742188 0.015625)"/>
     <use xlink:href="#DejaVuSans-63" transform="translate(422.265625 0.015625)"/>
     <use xlink:href="#DejaVuSans-74" transform="translate(477.246094 0.015625)"/>
     <use xlink:href="#DejaVuSans-72" transform="translate(516.455078 0.015625)"/>
     <use xlink:href="#DejaVuSans-75" transform="translate(557.568359 0.015625)"/>
     <use xlink:href="#DejaVuSans-6d" transform="translate(620.947266 0.015625)"/>
     <use xlink:href="#DejaVuSans-20" transform="translate(718.359375 0.015625)"/>
     <use xlink:href="#DejaVuSans-6f" transform="translate(750.146484 0.015625)"/>
     <use xlink:href="#DejaVuSans-66" transform="translate(811.328125 0.015625)"/>
     <use xlink:href="#DejaVuSans-20" transform="translate(846.533203 0.015625)"/>
     <use xlink:href="#DejaVuSans-Oblique-6d" transform="translate(878.320312 0.015625)"/>
     <use xlink:href="#DejaVuSans-2f" transform="translate(975.732422 0.015625)"/>
     <use xlink:href="#DejaVuSans-Oblique-7a" transform="translate(1009.423828 0.015625)"/>
     <use xlink:href="#DejaVuSans-20" transform="translate(1061.914062 0.015625)"/>
     <use xlink:href="#DejaVuSans-34" transform="translate(1093.701172 0.015625)"/>
     <use xlink:href="#DejaVuSans-32" transform="translate(1157.324219 0.015625)"/>
     <use xlink:href="#DejaVuSans-36" transform="translate(1220.947266 0.015625)"/>
     <use xlink:href="#DejaVuSans-2e" transform="translate(1284.570312 0.015625)"/>
     <use xlink:href="#DejaVuSans-31" transform="translate(1316.357422 0.015625)"/>
     <use xlink:href="#DejaVuSans-38" transform="translate(1379.980469 0.015625)"/>
     <use xlink:href="#DejaVuSans-35" transform="translate(1443.603516 0.015625)"/>
     <use xlink:href="#DejaVuSans-37" transform="translate(1499.976562 0.015625)"/>
     <use xlink:href="#DejaVuSans-2c" transform="translate(1563.599609 0.015625)"/>
     <use xlink:href="#DejaVuSans-20" transform="translate(1595.386719 0.015625)"/>
     <use xlink:href="#DejaVuSans-73" transform="translate(1627.173828 0.015625)"/>
     <use xlink:href="#DejaVuSans-63" transform="translate(1679.273438 0.015625)"/>
     <use xlink:href="#DejaVuSans-61" transform="translate(1734.253906 0.015625)"/>
     <use xlink:href="#DejaVuSans-6e" transform="translate(1795.533203 0.015625)"/>
     <use xlink:href="#DejaVuSans-20" transform="translate(1858.912109 0.015625)"/>
     <use xlink:href="#DejaVuSans-74" transform="translate(1890.699219 0.015625)"/>
     <use xlink:href="#DejaVuSans-69" transform="translate(1929.908203 0.015625)"/>
     <use xlink:href="#DejaVuSans-6d" transform="translate(1957.691406 0.015625)"/>
     <use xlink:href="#DejaVuSans-65" transform="translate(2055.103516 0.015625)"/>
     <use xlink:href="#DejaVuSans-20" transform="translate(2116.626953 0.015625)"/>
     <use xlink:href="#DejaVuSans-36" transform="translate(2148.414062 0.015625)"/>
     <use xlink:href="#DejaVuSans-2e" transform="translate(2212.037109 0.015625)"/>
     <use xlink:href="#DejaVuSans-32" transform="translate(2238.324219 0.015625)"/>
     <use xlink:href="#DejaVuSans-38" transform="translate(2301.947266 0.015625)"/>
     <use xlink:href="#DejaVuSans-20" transform="translate(2365.570312 0.015625)"/>
     <use xlink:href="#DejaVuSans-6d" transform="translate(2397.357422 0.015625)"/>
     <use xlink:href="#DejaVuSans-69" transform="translate(2494.769531 0.015625)"/>
     <use xlink:href="#DejaVuSans-6e" transform="translate(2522.552734 0.015625)"/>
     <use xlink:href="#DejaVuSans-2e" transform="translate(2585.931641 0.015625)"/>
    </g>
   </g>
  </g>
 </g>
 <defs>
  <clipPath id="p176eb76bf0">
   <rect x="57.6" y="41.472" width="357.12" height="266.112"/>
  </clipPath>
 </defs>
</svg>
