<?xml version="1.0" encoding="utf-8" standalone="no"?>
<!DOCTYPE svg PUBLIC "-//W3C//DTD SVG 1.1//EN"
  "http://www.w3.org/Graphics/SVG/1.1/DTD/svg11.dtd">
<svg xmlns:xlink="http://www.w3.org/1999/xlink" width="460.8pt" height="345.6pt" viewBox="0 0 460.8 345.6" xmlns="http://www.w3.org/2000/svg" version="1.1">
 <metadata>
  <rdf:RDF xmlns:dc="http://purl.org/dc/elements/1.1/" xmlns:cc="http://creativecommons.org/ns#" xmlns:rdf="http://www.w3.org/1999/02/22-rdf-syntax-ns#">
   <cc:Work>
    <dc:type rdf:resource="http://purl.org/dc/dcmitype/StillImage"/>
    <dc:date>2025-01-11T13:58:55.685932</dc:date>
    <dc:format>image/svg+xml</dc:format>
    <dc:creator>
     <cc:Agent>
      <dc:title>Matplotlib v3.7.3, https://matplotlib.org/</dc:title>
     </cc:Agent>
    </dc:creator>
   </cc:Work>
  </rdf:RDF>
 </metadata>
 <defs>
  <style type="text/css">*{stroke-linejoin: round; stroke-linecap: butt}</style>
 </defs>
 <g id="figure_1">
  <g id="patch_1">
   <path d="M 0 345.6 
L 460.8 345.6 
L 460.8 0 
L 0 0 
z
" style="fill: #ffffff"/>
  </g>
  <g id="axes_1">
   <g id="patch_2">
    <path d="M 57.6 307.584 
L 414.72 307.584 
L 414.72 41.472 
L 57.6 41.472 
z
" style="fill: #ffffff"/>
   </g>
   <g id="patch_3">
    <path d="M 73.832727 307.584 
L 74.735096 307.584 
L 74.735096 304.570311 
L 73.832727 304.570311 
z
" clip-path="url(#pb83e419e9b)" style="fill: #1f77b4"/>
   </g>
   <g id="patch_4">
    <path d="M 77.199626 307.584 
L 78.101995 307.584 
L 78.101995 306.78791 
L 77.199626 306.78791 
z
" clip-path="url(#pb83e419e9b)" style="fill: #1f77b4"/>
   </g>
   <g id="patch_5">
    <path d="M 82.324726 307.584 
L 83.227095 307.584 
L 83.227095 306.527773 
L 82.324726 306.527773 
z
" clip-path="url(#pb83e419e9b)" style="fill: #1f77b4"/>
   </g>
   <g id="patch_6">
    <path d="M 84.654002 307.584 
L 85.556371 307.584 
L 85.556371 306.635642 
L 84.654002 306.635642 
z
" clip-path="url(#pb83e419e9b)" style="fill: #1f77b4"/>
   </g>
   <g id="patch_7">
    <path d="M 86.175844 307.584 
L 87.078213 307.584 
L 87.078213 306.495727 
L 86.175844 306.495727 
z
" clip-path="url(#pb83e419e9b)" style="fill: #1f77b4"/>
   </g>
   <g id="patch_8">
    <path d="M 88.021611 307.584 
L 88.92398 307.584 
L 88.92398 306.113442 
L 88.021611 306.113442 
z
" clip-path="url(#pb83e419e9b)" style="fill: #1f77b4"/>
   </g>
   <g id="patch_9">
    <path d="M 96.79631 307.584 
L 97.698679 307.584 
L 97.698679 306.591916 
L 96.79631 306.591916 
z
" clip-path="url(#pb83e419e9b)" style="fill: #1f77b4"/>
   </g>
   <g id="patch_10">
    <path d="M 99.453539 307.584 
L 100.355908 307.584 
L 100.355908 305.327153 
L 99.453539 305.327153 
z
" clip-path="url(#pb83e419e9b)" style="fill: #1f77b4"/>
   </g>
   <g id="patch_11">
    <path d="M 101.942098 307.584 
L 102.844466 307.584 
L 102.844466 305.353618 
L 101.942098 305.353618 
z
" clip-path="url(#pb83e419e9b)" style="fill: #1f77b4"/>
   </g>
   <g id="patch_12">
    <path d="M 103.058639 307.584 
L 103.961007 307.584 
L 103.961007 305.539856 
L 103.058639 305.539856 
z
" clip-path="url(#pb83e419e9b)" style="fill: #1f77b4"/>
   </g>
   <g id="patch_13">
    <path d="M 120.06761 307.584 
L 120.969978 307.584 
L 120.969978 305.179138 
L 120.06761 305.179138 
z
" clip-path="url(#pb83e419e9b)" style="fill: #1f77b4"/>
   </g>
   <g id="patch_14">
    <path d="M 135.853157 307.584 
L 136.755526 307.584 
L 136.755526 304.235232 
L 135.853157 304.235232 
z
" clip-path="url(#pb83e419e9b)" style="fill: #1f77b4"/>
   </g>
   <g id="patch_15">
    <path d="M 137.003493 307.584 
L 137.905861 307.584 
L 137.905861 305.794833 
L 137.003493 305.794833 
z
" clip-path="url(#pb83e419e9b)" style="fill: #1f77b4"/>
   </g>
   <g id="patch_16">
    <path d="M 151.661054 307.584 
L 152.563422 307.584 
L 152.563422 299.759314 
L 151.661054 299.759314 
z
" clip-path="url(#pb83e419e9b)" style="fill: #1f77b4"/>
   </g>
   <g id="patch_17">
    <path d="M 152.81299 307.584 
L 153.715358 307.584 
L 153.715358 306.223616 
L 152.81299 306.223616 
z
" clip-path="url(#pb83e419e9b)" style="fill: #1f77b4"/>
   </g>
   <g id="patch_18">
    <path d="M 153.935443 307.584 
L 154.837811 307.584 
L 154.837811 304.798994 
L 153.935443 304.798994 
z
" clip-path="url(#pb83e419e9b)" style="fill: #1f77b4"/>
   </g>
   <g id="patch_19">
    <path d="M 165.19617 307.584 
L 166.098539 307.584 
L 166.098539 284.44212 
L 165.19617 284.44212 
z
" clip-path="url(#pb83e419e9b)" style="fill: #1f77b4"/>
   </g>
   <g id="patch_20">
    <path d="M 166.319845 307.584 
L 167.222214 307.584 
L 167.222214 300.130939 
L 166.319845 300.130939 
z
" clip-path="url(#pb83e419e9b)" style="fill: #1f77b4"/>
   </g>
   <g id="patch_21">
    <path d="M 166.33265 307.584 
L 167.235019 307.584 
L 167.235019 305.539351 
L 166.33265 305.539351 
z
" clip-path="url(#pb83e419e9b)" style="fill: #1f77b4"/>
   </g>
   <g id="patch_22">
    <path d="M 167.470473 307.584 
L 168.372842 307.584 
L 168.372842 305.401475 
L 167.470473 305.401475 
z
" clip-path="url(#pb83e419e9b)" style="fill: #1f77b4"/>
   </g>
   <g id="patch_23">
    <path d="M 168.566197 307.584 
L 169.468566 307.584 
L 169.468566 305.816798 
L 168.566197 305.816798 
z
" clip-path="url(#pb83e419e9b)" style="fill: #1f77b4"/>
   </g>
   <g id="patch_24">
    <path d="M 168.593529 307.584 
L 169.495897 307.584 
L 169.495897 306.109746 
L 168.593529 306.109746 
z
" clip-path="url(#pb83e419e9b)" style="fill: #1f77b4"/>
   </g>
   <g id="patch_25">
    <path d="M 169.744088 307.584 
L 170.646457 307.584 
L 170.646457 306.064242 
L 169.744088 306.064242 
z
" clip-path="url(#pb83e419e9b)" style="fill: #1f77b4"/>
   </g>
   <g id="patch_26">
    <path d="M 171.976843 307.584 
L 172.879212 307.584 
L 172.879212 305.316629 
L 171.976843 305.316629 
z
" clip-path="url(#pb83e419e9b)" style="fill: #1f77b4"/>
   </g>
   <g id="patch_27">
    <path d="M 178.732612 307.584 
L 179.63498 307.584 
L 179.63498 301.778776 
L 178.732612 301.778776 
z
" clip-path="url(#pb83e419e9b)" style="fill: #1f77b4"/>
   </g>
   <g id="patch_28">
    <path d="M 179.855185 307.584 
L 180.757554 307.584 
L 180.757554 301.020338 
L 179.855185 301.020338 
z
" clip-path="url(#pb83e419e9b)" style="fill: #1f77b4"/>
   </g>
   <g id="patch_29">
    <path d="M 179.869264 307.584 
L 180.771633 307.584 
L 180.771633 303.469033 
L 179.869264 303.469033 
z
" clip-path="url(#pb83e419e9b)" style="fill: #1f77b4"/>
   </g>
   <g id="patch_30">
    <path d="M 180.965212 307.584 
L 181.86758 307.584 
L 181.86758 305.313413 
L 180.965212 305.313413 
z
" clip-path="url(#pb83e419e9b)" style="fill: #1f77b4"/>
   </g>
   <g id="patch_31">
    <path d="M 180.977983 307.584 
L 181.880351 307.584 
L 181.880351 305.123 
L 180.977983 305.123 
z
" clip-path="url(#pb83e419e9b)" style="fill: #1f77b4"/>
   </g>
   <g id="patch_32">
    <path d="M 181.005228 307.584 
L 181.907597 307.584 
L 181.907597 301.241903 
L 181.005228 301.241903 
z
" clip-path="url(#pb83e419e9b)" style="fill: #1f77b4"/>
   </g>
   <g id="patch_33">
    <path d="M 182.128043 307.584 
L 183.030411 307.584 
L 183.030411 288.154696 
L 182.128043 288.154696 
z
" clip-path="url(#pb83e419e9b)" style="fill: #1f77b4"/>
   </g>
   <g id="patch_34">
    <path d="M 183.238895 307.584 
L 184.141264 307.584 
L 184.141264 303.67438 
L 183.238895 303.67438 
z
" clip-path="url(#pb83e419e9b)" style="fill: #1f77b4"/>
   </g>
   <g id="patch_35">
    <path d="M 183.261735 307.584 
L 184.164104 307.584 
L 184.164104 305.901149 
L 183.261735 305.901149 
z
" clip-path="url(#pb83e419e9b)" style="fill: #1f77b4"/>
   </g>
   <g id="patch_36">
    <path d="M 193.391524 307.584 
L 194.293892 307.584 
L 194.293892 305.63796 
L 193.391524 305.63796 
z
" clip-path="url(#pb83e419e9b)" style="fill: #1f77b4"/>
   </g>
   <g id="patch_37">
    <path d="M 193.405189 307.584 
L 194.307558 307.584 
L 194.307558 304.747796 
L 193.405189 304.747796 
z
" clip-path="url(#pb83e419e9b)" style="fill: #1f77b4"/>
   </g>
   <g id="patch_38">
    <path d="M 194.526266 307.584 
L 195.428634 307.584 
L 195.428634 302.275801 
L 194.526266 302.275801 
z
" clip-path="url(#pb83e419e9b)" style="fill: #1f77b4"/>
   </g>
   <g id="patch_39">
    <path d="M 194.5421 307.584 
L 195.444469 307.584 
L 195.444469 306.363264 
L 194.5421 306.363264 
z
" clip-path="url(#pb83e419e9b)" style="fill: #1f77b4"/>
   </g>
   <g id="patch_40">
    <path d="M 195.663641 307.584 
L 196.56601 307.584 
L 196.56601 296.554166 
L 195.663641 296.554166 
z
" clip-path="url(#pb83e419e9b)" style="fill: #1f77b4"/>
   </g>
   <g id="patch_41">
    <path d="M 195.678357 307.584 
L 196.580725 307.584 
L 196.580725 305.020369 
L 195.678357 305.020369 
z
" clip-path="url(#pb83e419e9b)" style="fill: #1f77b4"/>
   </g>
   <g id="patch_42">
    <path d="M 196.759985 307.584 
L 197.662353 307.584 
L 197.662353 306.59785 
L 196.759985 306.59785 
z
" clip-path="url(#pb83e419e9b)" style="fill: #1f77b4"/>
   </g>
   <g id="patch_43">
    <path d="M 196.773702 307.584 
L 197.676071 307.584 
L 197.676071 302.249523 
L 196.773702 302.249523 
z
" clip-path="url(#pb83e419e9b)" style="fill: #1f77b4"/>
   </g>
   <g id="patch_44">
    <path d="M 196.800448 307.584 
L 197.702817 307.584 
L 197.702817 301.648452 
L 196.800448 301.648452 
z
" clip-path="url(#pb83e419e9b)" style="fill: #1f77b4"/>
   </g>
   <g id="patch_45">
    <path d="M 197.896878 307.584 
L 198.799247 307.584 
L 198.799247 305.579929 
L 197.896878 305.579929 
z
" clip-path="url(#pb83e419e9b)" style="fill: #1f77b4"/>
   </g>
   <g id="patch_46">
    <path d="M 197.911439 307.584 
L 198.813808 307.584 
L 198.813808 301.215922 
L 197.911439 301.215922 
z
" clip-path="url(#pb83e419e9b)" style="fill: #1f77b4"/>
   </g>
   <g id="patch_47">
    <path d="M 197.937996 307.584 
L 198.840365 307.584 
L 198.840365 303.999322 
L 197.937996 303.999322 
z
" clip-path="url(#pb83e419e9b)" style="fill: #1f77b4"/>
   </g>
   <g id="patch_48">
    <path d="M 199.006974 307.584 
L 199.909342 307.584 
L 199.909342 303.397162 
L 199.006974 303.397162 
z
" clip-path="url(#pb83e419e9b)" style="fill: #1f77b4"/>
   </g>
   <g id="patch_49">
    <path d="M 199.048109 307.584 
L 199.950477 307.584 
L 199.950477 304.566649 
L 199.048109 304.566649 
z
" clip-path="url(#pb83e419e9b)" style="fill: #1f77b4"/>
   </g>
   <g id="patch_50">
    <path d="M 201.280158 307.584 
L 202.182527 307.584 
L 202.182527 305.559276 
L 201.280158 305.559276 
z
" clip-path="url(#pb83e419e9b)" style="fill: #1f77b4"/>
   </g>
   <g id="patch_51">
    <path d="M 210.309662 307.584 
L 211.21203 307.584 
L 211.21203 305.983921 
L 210.309662 305.983921 
z
" clip-path="url(#pb83e419e9b)" style="fill: #1f77b4"/>
   </g>
   <g id="patch_52">
    <path d="M 210.336632 307.584 
L 211.239001 307.584 
L 211.239001 305.211319 
L 210.336632 305.211319 
z
" clip-path="url(#pb83e419e9b)" style="fill: #1f77b4"/>
   </g>
   <g id="patch_53">
    <path d="M 211.43079 307.584 
L 212.333158 307.584 
L 212.333158 300.798576 
L 211.43079 300.798576 
z
" clip-path="url(#pb83e419e9b)" style="fill: #1f77b4"/>
   </g>
   <g id="patch_54">
    <path d="M 211.472028 307.584 
L 212.374397 307.584 
L 212.374397 305.422713 
L 211.472028 305.422713 
z
" clip-path="url(#pb83e419e9b)" style="fill: #1f77b4"/>
   </g>
   <g id="patch_55">
    <path d="M 211.489153 307.584 
L 212.391522 307.584 
L 212.391522 306.307123 
L 211.489153 306.307123 
z
" clip-path="url(#pb83e419e9b)" style="fill: #1f77b4"/>
   </g>
   <g id="patch_56">
    <path d="M 212.556134 307.584 
L 213.458503 307.584 
L 213.458503 305.974705 
L 212.556134 305.974705 
z
" clip-path="url(#pb83e419e9b)" style="fill: #1f77b4"/>
   </g>
   <g id="patch_57">
    <path d="M 212.583311 307.584 
L 213.48568 307.584 
L 213.48568 306.170379 
L 212.583311 306.170379 
z
" clip-path="url(#pb83e419e9b)" style="fill: #1f77b4"/>
   </g>
   <g id="patch_58">
    <path d="M 213.704594 307.584 
L 214.606962 307.584 
L 214.606962 300.341546 
L 213.704594 300.341546 
z
" clip-path="url(#pb83e419e9b)" style="fill: #1f77b4"/>
   </g>
   <g id="patch_59">
    <path d="M 214.840954 307.584 
L 215.743322 307.584 
L 215.743322 305.680384 
L 214.840954 305.680384 
z
" clip-path="url(#pb83e419e9b)" style="fill: #1f77b4"/>
   </g>
   <g id="patch_60">
    <path d="M 215.952564 307.584 
L 216.854932 307.584 
L 216.854932 303.497391 
L 215.952564 303.497391 
z
" clip-path="url(#pb83e419e9b)" style="fill: #1f77b4"/>
   </g>
   <g id="patch_61">
    <path d="M 215.980308 307.584 
L 216.882677 307.584 
L 216.882677 306.055191 
L 215.980308 306.055191 
z
" clip-path="url(#pb83e419e9b)" style="fill: #1f77b4"/>
   </g>
   <g id="patch_62">
    <path d="M 217.088373 307.584 
L 217.990742 307.584 
L 217.990742 305.579171 
L 217.088373 305.579171 
z
" clip-path="url(#pb83e419e9b)" style="fill: #1f77b4"/>
   </g>
   <g id="patch_63">
    <path d="M 218.745255 307.584 
L 219.647623 307.584 
L 219.647623 306.591244 
L 218.745255 306.591244 
z
" clip-path="url(#pb83e419e9b)" style="fill: #1f77b4"/>
   </g>
   <g id="patch_64">
    <path d="M 224.981758 307.584 
L 225.884126 307.584 
L 225.884126 287.859576 
L 224.981758 287.859576 
z
" clip-path="url(#pb83e419e9b)" style="fill: #1f77b4"/>
   </g>
   <g id="patch_65">
    <path d="M 226.104693 307.584 
L 227.007061 307.584 
L 227.007061 301.252504 
L 226.104693 301.252504 
z
" clip-path="url(#pb83e419e9b)" style="fill: #1f77b4"/>
   </g>
   <g id="patch_66">
    <path d="M 226.118927 307.584 
L 227.021295 307.584 
L 227.021295 302.203447 
L 226.118927 302.203447 
z
" clip-path="url(#pb83e419e9b)" style="fill: #1f77b4"/>
   </g>
   <g id="patch_67">
    <path d="M 227.214805 307.584 
L 228.117174 307.584 
L 228.117174 302.622498 
L 227.214805 302.622498 
z
" clip-path="url(#pb83e419e9b)" style="fill: #1f77b4"/>
   </g>
   <g id="patch_68">
    <path d="M 227.240657 307.584 
L 228.143025 307.584 
L 228.143025 294.812972 
L 227.240657 294.812972 
z
" clip-path="url(#pb83e419e9b)" style="fill: #1f77b4"/>
   </g>
   <g id="patch_69">
    <path d="M 227.256336 307.584 
L 228.158705 307.584 
L 228.158705 293.607777 
L 227.256336 293.607777 
z
" clip-path="url(#pb83e419e9b)" style="fill: #1f77b4"/>
   </g>
   <g id="patch_70">
    <path d="M 228.35163 307.584 
L 229.253999 307.584 
L 229.253999 303.784885 
L 228.35163 303.784885 
z
" clip-path="url(#pb83e419e9b)" style="fill: #1f77b4"/>
   </g>
   <g id="patch_71">
    <path d="M 228.392886 307.584 
L 229.295254 307.584 
L 229.295254 305.772958 
L 228.392886 305.772958 
z
" clip-path="url(#pb83e419e9b)" style="fill: #1f77b4"/>
   </g>
   <g id="patch_72">
    <path d="M 229.472775 307.584 
L 230.375144 307.584 
L 230.375144 263.661157 
L 229.472775 263.661157 
z
" clip-path="url(#pb83e419e9b)" style="fill: #1f77b4"/>
   </g>
   <g id="patch_73">
    <path d="M 229.51539 307.584 
L 230.417759 307.584 
L 230.417759 302.993127 
L 229.51539 302.993127 
z
" clip-path="url(#pb83e419e9b)" style="fill: #1f77b4"/>
   </g>
   <g id="patch_74">
    <path d="M 230.583439 307.584 
L 231.485807 307.584 
L 231.485807 304.060113 
L 230.583439 304.060113 
z
" clip-path="url(#pb83e419e9b)" style="fill: #1f77b4"/>
   </g>
   <g id="patch_75">
    <path d="M 230.606278 307.584 
L 231.508647 307.584 
L 231.508647 304.243952 
L 230.606278 304.243952 
z
" clip-path="url(#pb83e419e9b)" style="fill: #1f77b4"/>
   </g>
   <g id="patch_76">
    <path d="M 230.651096 307.584 
L 231.553465 307.584 
L 231.553465 305.697478 
L 230.651096 305.697478 
z
" clip-path="url(#pb83e419e9b)" style="fill: #1f77b4"/>
   </g>
   <g id="patch_77">
    <path d="M 232.89898 307.584 
L 233.801349 307.584 
L 233.801349 306.545415 
L 232.89898 306.545415 
z
" clip-path="url(#pb83e419e9b)" style="fill: #1f77b4"/>
   </g>
   <g id="patch_78">
    <path d="M 241.928897 307.584 
L 242.831266 307.584 
L 242.831266 306.544542 
L 241.928897 306.544542 
z
" clip-path="url(#pb83e419e9b)" style="fill: #1f77b4"/>
   </g>
   <g id="patch_79">
    <path d="M 243.024587 307.584 
L 243.926955 307.584 
L 243.926955 304.803989 
L 243.024587 304.803989 
z
" clip-path="url(#pb83e419e9b)" style="fill: #1f77b4"/>
   </g>
   <g id="patch_80">
    <path d="M 243.049474 307.584 
L 243.951843 307.584 
L 243.951843 304.909621 
L 243.049474 304.909621 
z
" clip-path="url(#pb83e419e9b)" style="fill: #1f77b4"/>
   </g>
   <g id="patch_81">
    <path d="M 244.162014 307.584 
L 245.064382 307.584 
L 245.064382 305.607325 
L 244.162014 305.607325 
z
" clip-path="url(#pb83e419e9b)" style="fill: #1f77b4"/>
   </g>
   <g id="patch_82">
    <path d="M 244.184302 307.584 
L 245.086671 307.584 
L 245.086671 306.052435 
L 244.184302 306.052435 
z
" clip-path="url(#pb83e419e9b)" style="fill: #1f77b4"/>
   </g>
   <g id="patch_83">
    <path d="M 245.279372 307.584 
L 246.181741 307.584 
L 246.181741 296.974093 
L 245.279372 296.974093 
z
" clip-path="url(#pb83e419e9b)" style="fill: #1f77b4"/>
   </g>
   <g id="patch_84">
    <path d="M 246.064105 307.584 
L 246.966474 307.584 
L 246.966474 306.300735 
L 246.064105 306.300735 
z
" clip-path="url(#pb83e419e9b)" style="fill: #1f77b4"/>
   </g>
   <g id="patch_85">
    <path d="M 246.414527 307.584 
L 247.316896 307.584 
L 247.316896 306.007402 
L 246.414527 306.007402 
z
" clip-path="url(#pb83e419e9b)" style="fill: #1f77b4"/>
   </g>
   <g id="patch_86">
    <path d="M 246.43568 307.584 
L 247.338049 307.584 
L 247.338049 301.73855 
L 246.43568 301.73855 
z
" clip-path="url(#pb83e419e9b)" style="fill: #1f77b4"/>
   </g>
   <g id="patch_87">
    <path d="M 247.529666 307.584 
L 248.432034 307.584 
L 248.432034 304.49698 
L 247.529666 304.49698 
z
" clip-path="url(#pb83e419e9b)" style="fill: #1f77b4"/>
   </g>
   <g id="patch_88">
    <path d="M 247.553865 307.584 
L 248.456233 307.584 
L 248.456233 306.656172 
L 247.553865 306.656172 
z
" clip-path="url(#pb83e419e9b)" style="fill: #1f77b4"/>
   </g>
   <g id="patch_89">
    <path d="M 250.898695 307.584 
L 251.801063 307.584 
L 251.801063 306.293265 
L 250.898695 306.293265 
z
" clip-path="url(#pb83e419e9b)" style="fill: #1f77b4"/>
   </g>
   <g id="patch_90">
    <path d="M 256.558481 307.584 
L 257.46085 307.584 
L 257.46085 218.824727 
L 256.558481 218.824727 
z
" clip-path="url(#pb83e419e9b)" style="fill: #1f77b4"/>
   </g>
   <g id="patch_91">
    <path d="M 257.695925 307.584 
L 258.598294 307.584 
L 258.598294 281.310274 
L 257.695925 281.310274 
z
" clip-path="url(#pb83e419e9b)" style="fill: #1f77b4"/>
   </g>
   <g id="patch_92">
    <path d="M 258.818946 307.584 
L 259.721315 307.584 
L 259.721315 303.649662 
L 258.818946 303.649662 
z
" clip-path="url(#pb83e419e9b)" style="fill: #1f77b4"/>
   </g>
   <g id="patch_93">
    <path d="M 259.96997 307.584 
L 260.872339 307.584 
L 260.872339 305.497866 
L 259.96997 305.497866 
z
" clip-path="url(#pb83e419e9b)" style="fill: #1f77b4"/>
   </g>
   <g id="patch_94">
    <path d="M 261.050152 307.584 
L 261.952521 307.584 
L 261.952521 290.124405 
L 261.050152 290.124405 
z
" clip-path="url(#pb83e419e9b)" style="fill: #1f77b4"/>
   </g>
   <g id="patch_95">
    <path d="M 261.105969 307.584 
L 262.008337 307.584 
L 262.008337 305.269801 
L 261.105969 305.269801 
z
" clip-path="url(#pb83e419e9b)" style="fill: #1f77b4"/>
   </g>
   <g id="patch_96">
    <path d="M 262.227871 307.584 
L 263.13024 307.584 
L 263.13024 301.334664 
L 262.227871 301.334664 
z
" clip-path="url(#pb83e419e9b)" style="fill: #1f77b4"/>
   </g>
   <g id="patch_97">
    <path d="M 264.474912 307.584 
L 265.37728 307.584 
L 265.37728 301.143024 
L 264.474912 301.143024 
z
" clip-path="url(#pb83e419e9b)" style="fill: #1f77b4"/>
   </g>
   <g id="patch_98">
    <path d="M 265.611891 307.584 
L 266.51426 307.584 
L 266.51426 305.91943 
L 265.611891 305.91943 
z
" clip-path="url(#pb83e419e9b)" style="fill: #1f77b4"/>
   </g>
   <g id="patch_99">
    <path d="M 266.707977 307.584 
L 267.610345 307.584 
L 267.610345 303.859908 
L 266.707977 303.859908 
z
" clip-path="url(#pb83e419e9b)" style="fill: #1f77b4"/>
   </g>
   <g id="patch_100">
    <path d="M 275.737084 307.584 
L 276.639453 307.584 
L 276.639453 297.325365 
L 275.737084 297.325365 
z
" clip-path="url(#pb83e419e9b)" style="fill: #1f77b4"/>
   </g>
   <g id="patch_101">
    <path d="M 276.857094 307.584 
L 277.759462 307.584 
L 277.759462 258.891689 
L 276.857094 258.891689 
z
" clip-path="url(#pb83e419e9b)" style="fill: #1f77b4"/>
   </g>
   <g id="patch_102">
    <path d="M 277.98977 307.584 
L 278.892139 307.584 
L 278.892139 302.160269 
L 277.98977 302.160269 
z
" clip-path="url(#pb83e419e9b)" style="fill: #1f77b4"/>
   </g>
   <g id="patch_103">
    <path d="M 279.854066 307.584 
L 280.756434 307.584 
L 280.756434 305.86059 
L 279.854066 305.86059 
z
" clip-path="url(#pb83e419e9b)" style="fill: #1f77b4"/>
   </g>
   <g id="patch_104">
    <path d="M 281.406802 307.584 
L 282.30917 307.584 
L 282.30917 300.707864 
L 281.406802 300.707864 
z
" clip-path="url(#pb83e419e9b)" style="fill: #1f77b4"/>
   </g>
   <g id="patch_105">
    <path d="M 288.136529 307.584 
L 289.038898 307.584 
L 289.038898 304.777175 
L 288.136529 304.777175 
z
" clip-path="url(#pb83e419e9b)" style="fill: #1f77b4"/>
   </g>
   <g id="patch_106">
    <path d="M 289.259688 307.584 
L 290.162057 307.584 
L 290.162057 304.186907 
L 289.259688 304.186907 
z
" clip-path="url(#pb83e419e9b)" style="fill: #1f77b4"/>
   </g>
   <g id="patch_107">
    <path d="M 292.683312 307.584 
L 293.58568 307.584 
L 293.58568 195.540434 
L 292.683312 195.540434 
z
" clip-path="url(#pb83e419e9b)" style="fill: #1f77b4"/>
   </g>
   <g id="patch_108">
    <path d="M 293.81363 307.584 
L 294.715999 307.584 
L 294.715999 295.415958 
L 293.81363 295.415958 
z
" clip-path="url(#pb83e419e9b)" style="fill: #1f77b4"/>
   </g>
   <g id="patch_109">
    <path d="M 294.940111 307.584 
L 295.84248 307.584 
L 295.84248 306.308068 
L 294.940111 306.308068 
z
" clip-path="url(#pb83e419e9b)" style="fill: #1f77b4"/>
   </g>
   <g id="patch_110">
    <path d="M 296.052977 307.584 
L 296.955346 307.584 
L 296.955346 305.543709 
L 296.052977 305.543709 
z
" clip-path="url(#pb83e419e9b)" style="fill: #1f77b4"/>
   </g>
   <g id="patch_111">
    <path d="M 306.444963 307.584 
L 307.347332 307.584 
L 307.347332 306.508737 
L 306.444963 306.508737 
z
" clip-path="url(#pb83e419e9b)" style="fill: #1f77b4"/>
   </g>
   <g id="patch_112">
    <path d="M 308.452457 307.584 
L 309.354825 307.584 
L 309.354825 302.374551 
L 308.452457 302.374551 
z
" clip-path="url(#pb83e419e9b)" style="fill: #1f77b4"/>
   </g>
   <g id="patch_113">
    <path d="M 311.860056 307.584 
L 312.762425 307.584 
L 312.762425 306.526275 
L 311.860056 306.526275 
z
" clip-path="url(#pb83e419e9b)" style="fill: #1f77b4"/>
   </g>
   <g id="patch_114">
    <path d="M 312.983095 307.584 
L 313.885463 307.584 
L 313.885463 300.719349 
L 312.983095 300.719349 
z
" clip-path="url(#pb83e419e9b)" style="fill: #1f77b4"/>
   </g>
   <g id="patch_115">
    <path d="M 323.906153 307.584 
L 324.808522 307.584 
L 324.808522 306.507038 
L 323.906153 306.507038 
z
" clip-path="url(#pb83e419e9b)" style="fill: #1f77b4"/>
   </g>
   <g id="patch_116">
    <path d="M 324.260981 307.584 
L 325.16335 307.584 
L 325.16335 305.994999 
L 324.260981 305.994999 
z
" clip-path="url(#pb83e419e9b)" style="fill: #1f77b4"/>
   </g>
   <g id="patch_117">
    <path d="M 325.383779 307.584 
L 326.286147 307.584 
L 326.286147 305.842488 
L 325.383779 305.842488 
z
" clip-path="url(#pb83e419e9b)" style="fill: #1f77b4"/>
   </g>
   <g id="patch_118">
    <path d="M 326.548159 307.584 
L 327.450527 307.584 
L 327.450527 306.380785 
L 326.548159 306.380785 
z
" clip-path="url(#pb83e419e9b)" style="fill: #1f77b4"/>
   </g>
   <g id="patch_119">
    <path d="M 327.630923 307.584 
L 328.533291 307.584 
L 328.533291 306.315951 
L 327.630923 306.315951 
z
" clip-path="url(#pb83e419e9b)" style="fill: #1f77b4"/>
   </g>
   <g id="patch_120">
    <path d="M 338.959789 307.584 
L 339.862158 307.584 
L 339.862158 305.989279 
L 338.959789 305.989279 
z
" clip-path="url(#pb83e419e9b)" style="fill: #1f77b4"/>
   </g>
   <g id="patch_121">
    <path d="M 340.014843 307.584 
L 340.917212 307.584 
L 340.917212 304.328211 
L 340.014843 304.328211 
z
" clip-path="url(#pb83e419e9b)" style="fill: #1f77b4"/>
   </g>
   <g id="patch_122">
    <path d="M 344.574878 307.584 
L 345.477246 307.584 
L 345.477246 305.231403 
L 344.574878 305.231403 
z
" clip-path="url(#pb83e419e9b)" style="fill: #1f77b4"/>
   </g>
   <g id="patch_123">
    <path d="M 357.374142 307.584 
L 358.27651 307.584 
L 358.27651 306.207472 
L 357.374142 306.207472 
z
" clip-path="url(#pb83e419e9b)" style="fill: #1f77b4"/>
   </g>
   <g id="patch_124">
    <path d="M 376.138021 307.584 
L 377.04039 307.584 
L 377.04039 54.144 
L 376.138021 54.144 
z
" clip-path="url(#pb83e419e9b)" style="fill: #1f77b4"/>
   </g>
   <g id="patch_125">
    <path d="M 377.269562 307.584 
L 378.171931 307.584 
L 378.171931 271.603522 
L 377.269562 271.603522 
z
" clip-path="url(#pb83e419e9b)" style="fill: #1f77b4"/>
   </g>
   <g id="patch_126">
    <path d="M 396.453122 307.584 
L 397.355491 307.584 
L 397.355491 177.95306 
L 396.453122 177.95306 
z
" clip-path="url(#pb83e419e9b)" style="fill: #1f77b4"/>
   </g>
   <g id="patch_127">
    <path d="M 397.584904 307.584 
L 398.487273 307.584 
L 398.487273 287.867278 
L 397.584904 287.867278 
z
" clip-path="url(#pb83e419e9b)" style="fill: #1f77b4"/>
   </g>
   <g id="matplotlib.axis_1">
    <g id="xtick_1">
     <g id="line2d_1">
      <defs>
       <path id="m8ec9c77d8a" d="M 0 0 
L 0 3.5 
" style="stroke: #000000; stroke-width: 0.8"/>
      </defs>
      <g>
       <use xlink:href="#m8ec9c77d8a" x="64.075256" y="307.584" style="stroke: #000000; stroke-width: 0.8"/>
      </g>
     </g>
     <g id="text_1">
      <!-- 50 -->
      <g transform="translate(57.712756 322.182437) scale(0.1 -0.1)">
       <defs>
        <path id="DejaVuSans-35" d="M 691 4666 
L 3169 4666 
L 3169 4134 
L 1269 4134 
L 1269 2991 
Q 1406 3038 1543 3061 
Q 1681 3084 1819 3084 
Q 2600 3084 3056 2656 
Q 3513 2228 3513 1497 
Q 3513 744 3044 326 
Q 2575 -91 1722 -91 
Q 1428 -91 1123 -41 
Q 819 9 494 109 
L 494 744 
Q 775 591 1075 516 
Q 1375 441 1709 441 
Q 2250 441 2565 725 
Q 2881 1009 2881 1497 
Q 2881 1984 2565 2268 
Q 2250 2553 1709 2553 
Q 1456 2553 1204 2497 
Q 953 2441 691 2322 
L 691 4666 
z
" transform="scale(0.015625)"/>
        <path id="DejaVuSans-30" d="M 2034 4250 
Q 1547 4250 1301 3770 
Q 1056 3291 1056 2328 
Q 1056 1369 1301 889 
Q 1547 409 2034 409 
Q 2525 409 2770 889 
Q 3016 1369 3016 2328 
Q 3016 3291 2770 3770 
Q 2525 4250 2034 4250 
z
M 2034 4750 
Q 2819 4750 3233 4129 
Q 3647 3509 3647 2328 
Q 3647 1150 3233 529 
Q 2819 -91 2034 -91 
Q 1250 -91 836 529 
Q 422 1150 422 2328 
Q 422 3509 836 4129 
Q 1250 4750 2034 4750 
z
" transform="scale(0.015625)"/>
       </defs>
       <use xlink:href="#DejaVuSans-35"/>
       <use xlink:href="#DejaVuSans-30" x="63.623047"/>
      </g>
     </g>
    </g>
    <g id="xtick_2">
     <g id="line2d_2">
      <g>
       <use xlink:href="#m8ec9c77d8a" x="120.473296" y="307.584" style="stroke: #000000; stroke-width: 0.8"/>
      </g>
     </g>
     <g id="text_2">
      <!-- 100 -->
      <g transform="translate(110.929546 322.182437) scale(0.1 -0.1)">
       <defs>
        <path id="DejaVuSans-31" d="M 794 531 
L 1825 531 
L 1825 4091 
L 703 3866 
L 703 4441 
L 1819 4666 
L 2450 4666 
L 2450 531 
L 3481 531 
L 3481 0 
L 794 0 
L 794 531 
z
" transform="scale(0.015625)"/>
       </defs>
       <use xlink:href="#DejaVuSans-31"/>
       <use xlink:href="#DejaVuSans-30" x="63.623047"/>
       <use xlink:href="#DejaVuSans-30" x="127.246094"/>
      </g>
     </g>
    </g>
    <g id="xtick_3">
     <g id="line2d_3">
      <g>
       <use xlink:href="#m8ec9c77d8a" x="176.871335" y="307.584" style="stroke: #000000; stroke-width: 0.8"/>
      </g>
     </g>
     <g id="text_3">
      <!-- 150 -->
      <g transform="translate(167.327585 322.182437) scale(0.1 -0.1)">
       <use xlink:href="#DejaVuSans-31"/>
       <use xlink:href="#DejaVuSans-35" x="63.623047"/>
       <use xlink:href="#DejaVuSans-30" x="127.246094"/>
      </g>
     </g>
    </g>
    <g id="xtick_4">
     <g id="line2d_4">
      <g>
       <use xlink:href="#m8ec9c77d8a" x="233.269375" y="307.584" style="stroke: #000000; stroke-width: 0.8"/>
      </g>
     </g>
     <g id="text_4">
      <!-- 200 -->
      <g transform="translate(223.725625 322.182437) scale(0.1 -0.1)">
       <defs>
        <path id="DejaVuSans-32" d="M 1228 531 
L 3431 531 
L 3431 0 
L 469 0 
L 469 531 
Q 828 903 1448 1529 
Q 2069 2156 2228 2338 
Q 2531 2678 2651 2914 
Q 2772 3150 2772 3378 
Q 2772 3750 2511 3984 
Q 2250 4219 1831 4219 
Q 1534 4219 1204 4116 
Q 875 4013 500 3803 
L 500 4441 
Q 881 4594 1212 4672 
Q 1544 4750 1819 4750 
Q 2544 4750 2975 4387 
Q 3406 4025 3406 3419 
Q 3406 3131 3298 2873 
Q 3191 2616 2906 2266 
Q 2828 2175 2409 1742 
Q 1991 1309 1228 531 
z
" transform="scale(0.015625)"/>
       </defs>
       <use xlink:href="#DejaVuSans-32"/>
       <use xlink:href="#DejaVuSans-30" x="63.623047"/>
       <use xlink:href="#DejaVuSans-30" x="127.246094"/>
      </g>
     </g>
    </g>
    <g id="xtick_5">
     <g id="line2d_5">
      <g>
       <use xlink:href="#m8ec9c77d8a" x="289.667414" y="307.584" style="stroke: #000000; stroke-width: 0.8"/>
      </g>
     </g>
     <g id="text_5">
      <!-- 250 -->
      <g transform="translate(280.123664 322.182437) scale(0.1 -0.1)">
       <use xlink:href="#DejaVuSans-32"/>
       <use xlink:href="#DejaVuSans-35" x="63.623047"/>
       <use xlink:href="#DejaVuSans-30" x="127.246094"/>
      </g>
     </g>
    </g>
    <g id="xtick_6">
     <g id="line2d_6">
      <g>
       <use xlink:href="#m8ec9c77d8a" x="346.065453" y="307.584" style="stroke: #000000; stroke-width: 0.8"/>
      </g>
     </g>
     <g id="text_6">
      <!-- 300 -->
      <g transform="translate(336.521703 322.182437) scale(0.1 -0.1)">
       <defs>
        <path id="DejaVuSans-33" d="M 2597 2516 
Q 3050 2419 3304 2112 
Q 3559 1806 3559 1356 
Q 3559 666 3084 287 
Q 2609 -91 1734 -91 
Q 1441 -91 1130 -33 
Q 819 25 488 141 
L 488 750 
Q 750 597 1062 519 
Q 1375 441 1716 441 
Q 2309 441 2620 675 
Q 2931 909 2931 1356 
Q 2931 1769 2642 2001 
Q 2353 2234 1838 2234 
L 1294 2234 
L 1294 2753 
L 1863 2753 
Q 2328 2753 2575 2939 
Q 2822 3125 2822 3475 
Q 2822 3834 2567 4026 
Q 2313 4219 1838 4219 
Q 1578 4219 1281 4162 
Q 984 4106 628 3988 
L 628 4550 
Q 988 4650 1302 4700 
Q 1616 4750 1894 4750 
Q 2613 4750 3031 4423 
Q 3450 4097 3450 3541 
Q 3450 3153 3228 2886 
Q 3006 2619 2597 2516 
z
" transform="scale(0.015625)"/>
       </defs>
       <use xlink:href="#DejaVuSans-33"/>
       <use xlink:href="#DejaVuSans-30" x="63.623047"/>
       <use xlink:href="#DejaVuSans-30" x="127.246094"/>
      </g>
     </g>
    </g>
    <g id="xtick_7">
     <g id="line2d_7">
      <g>
       <use xlink:href="#m8ec9c77d8a" x="402.463493" y="307.584" style="stroke: #000000; stroke-width: 0.8"/>
      </g>
     </g>
     <g id="text_7">
      <!-- 350 -->
      <g transform="translate(392.919743 322.182437) scale(0.1 -0.1)">
       <use xlink:href="#DejaVuSans-33"/>
       <use xlink:href="#DejaVuSans-35" x="63.623047"/>
       <use xlink:href="#DejaVuSans-30" x="127.246094"/>
      </g>
     </g>
    </g>
    <g id="text_8">
     <!-- ${m/z}$ -->
     <g transform="translate(226.96 335.860562) scale(0.1 -0.1)">
      <defs>
       <path id="DejaVuSans-Oblique-6d" d="M 5747 2113 
L 5338 0 
L 4763 0 
L 5166 2094 
Q 5191 2228 5203 2325 
Q 5216 2422 5216 2491 
Q 5216 2772 5059 2928 
Q 4903 3084 4622 3084 
Q 4203 3084 3875 2770 
Q 3547 2456 3450 1953 
L 3066 0 
L 2491 0 
L 2900 2094 
Q 2925 2209 2937 2307 
Q 2950 2406 2950 2484 
Q 2950 2769 2794 2926 
Q 2638 3084 2363 3084 
Q 1938 3084 1609 2770 
Q 1281 2456 1184 1953 
L 800 0 
L 225 0 
L 909 3500 
L 1484 3500 
L 1375 2956 
Q 1609 3263 1923 3423 
Q 2238 3584 2597 3584 
Q 2978 3584 3223 3384 
Q 3469 3184 3519 2828 
Q 3781 3197 4126 3390 
Q 4472 3584 4856 3584 
Q 5306 3584 5551 3325 
Q 5797 3066 5797 2591 
Q 5797 2488 5784 2364 
Q 5772 2241 5747 2113 
z
" transform="scale(0.015625)"/>
       <path id="DejaVuSans-2f" d="M 1625 4666 
L 2156 4666 
L 531 -594 
L 0 -594 
L 1625 4666 
z
" transform="scale(0.015625)"/>
       <path id="DejaVuSans-Oblique-7a" d="M 744 3500 
L 3475 3500 
L 3372 2975 
L 738 459 
L 2913 459 
L 2822 0 
L -19 0 
L 84 525 
L 2719 3041 
L 653 3041 
L 744 3500 
z
" transform="scale(0.015625)"/>
      </defs>
      <use xlink:href="#DejaVuSans-Oblique-6d" transform="translate(0 0.09375)"/>
      <use xlink:href="#DejaVuSans-2f" transform="translate(97.412109 0.09375)"/>
      <use xlink:href="#DejaVuSans-Oblique-7a" transform="translate(131.103516 0.09375)"/>
     </g>
    </g>
   </g>
   <g id="matplotlib.axis_2">
    <g id="ytick_1">
     <g id="line2d_8">
      <defs>
       <path id="ma1485dd5c9" d="M 0 0 
L -3.5 0 
" style="stroke: #000000; stroke-width: 0.8"/>
      </defs>
      <g>
       <use xlink:href="#ma1485dd5c9" x="57.6" y="307.584" style="stroke: #000000; stroke-width: 0.8"/>
      </g>
     </g>
     <g id="text_9">
      <!-- 0.0 -->
      <g transform="translate(34.696875 311.383219) scale(0.1 -0.1)">
       <defs>
        <path id="DejaVuSans-2e" d="M 684 794 
L 1344 794 
L 1344 0 
L 684 0 
L 684 794 
z
" transform="scale(0.015625)"/>
       </defs>
       <use xlink:href="#DejaVuSans-30"/>
       <use xlink:href="#DejaVuSans-2e" x="63.623047"/>
       <use xlink:href="#DejaVuSans-30" x="95.410156"/>
      </g>
     </g>
    </g>
    <g id="ytick_2">
     <g id="line2d_9">
      <g>
       <use xlink:href="#ma1485dd5c9" x="57.6" y="257.183563" style="stroke: #000000; stroke-width: 0.8"/>
      </g>
     </g>
     <g id="text_10">
      <!-- 0.2 -->
      <g transform="translate(34.696875 260.982782) scale(0.1 -0.1)">
       <use xlink:href="#DejaVuSans-30"/>
       <use xlink:href="#DejaVuSans-2e" x="63.623047"/>
       <use xlink:href="#DejaVuSans-32" x="95.410156"/>
      </g>
     </g>
    </g>
    <g id="ytick_3">
     <g id="line2d_10">
      <g>
       <use xlink:href="#ma1485dd5c9" x="57.6" y="206.783126" style="stroke: #000000; stroke-width: 0.8"/>
      </g>
     </g>
     <g id="text_11">
      <!-- 0.4 -->
      <g transform="translate(34.696875 210.582344) scale(0.1 -0.1)">
       <defs>
        <path id="DejaVuSans-34" d="M 2419 4116 
L 825 1625 
L 2419 1625 
L 2419 4116 
z
M 2253 4666 
L 3047 4666 
L 3047 1625 
L 3713 1625 
L 3713 1100 
L 3047 1100 
L 3047 0 
L 2419 0 
L 2419 1100 
L 313 1100 
L 313 1709 
L 2253 4666 
z
" transform="scale(0.015625)"/>
       </defs>
       <use xlink:href="#DejaVuSans-30"/>
       <use xlink:href="#DejaVuSans-2e" x="63.623047"/>
       <use xlink:href="#DejaVuSans-34" x="95.410156"/>
      </g>
     </g>
    </g>
    <g id="ytick_4">
     <g id="line2d_11">
      <g>
       <use xlink:href="#ma1485dd5c9" x="57.6" y="156.382689" style="stroke: #000000; stroke-width: 0.8"/>
      </g>
     </g>
     <g id="text_12">
      <!-- 0.6 -->
      <g transform="translate(34.696875 160.181907) scale(0.1 -0.1)">
       <defs>
        <path id="DejaVuSans-36" d="M 2113 2584 
Q 1688 2584 1439 2293 
Q 1191 2003 1191 1497 
Q 1191 994 1439 701 
Q 1688 409 2113 409 
Q 2538 409 2786 701 
Q 3034 994 3034 1497 
Q 3034 2003 2786 2293 
Q 2538 2584 2113 2584 
z
M 3366 4563 
L 3366 3988 
Q 3128 4100 2886 4159 
Q 2644 4219 2406 4219 
Q 1781 4219 1451 3797 
Q 1122 3375 1075 2522 
Q 1259 2794 1537 2939 
Q 1816 3084 2150 3084 
Q 2853 3084 3261 2657 
Q 3669 2231 3669 1497 
Q 3669 778 3244 343 
Q 2819 -91 2113 -91 
Q 1303 -91 875 529 
Q 447 1150 447 2328 
Q 447 3434 972 4092 
Q 1497 4750 2381 4750 
Q 2619 4750 2861 4703 
Q 3103 4656 3366 4563 
z
" transform="scale(0.015625)"/>
       </defs>
       <use xlink:href="#DejaVuSans-30"/>
       <use xlink:href="#DejaVuSans-2e" x="63.623047"/>
       <use xlink:href="#DejaVuSans-36" x="95.410156"/>
      </g>
     </g>
    </g>
    <g id="ytick_5">
     <g id="line2d_12">
      <g>
       <use xlink:href="#ma1485dd5c9" x="57.6" y="105.982251" style="stroke: #000000; stroke-width: 0.8"/>
      </g>
     </g>
     <g id="text_13">
      <!-- 0.8 -->
      <g transform="translate(34.696875 109.78147) scale(0.1 -0.1)">
       <defs>
        <path id="DejaVuSans-38" d="M 2034 2216 
Q 1584 2216 1326 1975 
Q 1069 1734 1069 1313 
Q 1069 891 1326 650 
Q 1584 409 2034 409 
Q 2484 409 2743 651 
Q 3003 894 3003 1313 
Q 3003 1734 2745 1975 
Q 2488 2216 2034 2216 
z
M 1403 2484 
Q 997 2584 770 2862 
Q 544 3141 544 3541 
Q 544 4100 942 4425 
Q 1341 4750 2034 4750 
Q 2731 4750 3128 4425 
Q 3525 4100 3525 3541 
Q 3525 3141 3298 2862 
Q 3072 2584 2669 2484 
Q 3125 2378 3379 2068 
Q 3634 1759 3634 1313 
Q 3634 634 3220 271 
Q 2806 -91 2034 -91 
Q 1263 -91 848 271 
Q 434 634 434 1313 
Q 434 1759 690 2068 
Q 947 2378 1403 2484 
z
M 1172 3481 
Q 1172 3119 1398 2916 
Q 1625 2713 2034 2713 
Q 2441 2713 2670 2916 
Q 2900 3119 2900 3481 
Q 2900 3844 2670 4047 
Q 2441 4250 2034 4250 
Q 1625 4250 1398 4047 
Q 1172 3844 1172 3481 
z
" transform="scale(0.015625)"/>
       </defs>
       <use xlink:href="#DejaVuSans-30"/>
       <use xlink:href="#DejaVuSans-2e" x="63.623047"/>
       <use xlink:href="#DejaVuSans-38" x="95.410156"/>
      </g>
     </g>
    </g>
    <g id="ytick_6">
     <g id="line2d_13">
      <g>
       <use xlink:href="#ma1485dd5c9" x="57.6" y="55.581814" style="stroke: #000000; stroke-width: 0.8"/>
      </g>
     </g>
     <g id="text_14">
      <!-- 1.0 -->
      <g transform="translate(34.696875 59.381033) scale(0.1 -0.1)">
       <use xlink:href="#DejaVuSans-31"/>
       <use xlink:href="#DejaVuSans-2e" x="63.623047"/>
       <use xlink:href="#DejaVuSans-30" x="95.410156"/>
      </g>
     </g>
    </g>
    <g id="text_15">
     <!-- intensities -->
     <g transform="translate(28.617187 200.3155) rotate(-90) scale(0.1 -0.1)">
      <defs>
       <path id="DejaVuSans-69" d="M 603 3500 
L 1178 3500 
L 1178 0 
L 603 0 
L 603 3500 
z
M 603 4863 
L 1178 4863 
L 1178 4134 
L 603 4134 
L 603 4863 
z
" transform="scale(0.015625)"/>
       <path id="DejaVuSans-6e" d="M 3513 2113 
L 3513 0 
L 2938 0 
L 2938 2094 
Q 2938 2591 2744 2837 
Q 2550 3084 2163 3084 
Q 1697 3084 1428 2787 
Q 1159 2491 1159 1978 
L 1159 0 
L 581 0 
L 581 3500 
L 1159 3500 
L 1159 2956 
Q 1366 3272 1645 3428 
Q 1925 3584 2291 3584 
Q 2894 3584 3203 3211 
Q 3513 2838 3513 2113 
z
" transform="scale(0.015625)"/>
       <path id="DejaVuSans-74" d="M 1172 4494 
L 1172 3500 
L 2356 3500 
L 2356 3053 
L 1172 3053 
L 1172 1153 
Q 1172 725 1289 603 
Q 1406 481 1766 481 
L 2356 481 
L 2356 0 
L 1766 0 
Q 1100 0 847 248 
Q 594 497 594 1153 
L 594 3053 
L 172 3053 
L 172 3500 
L 594 3500 
L 594 4494 
L 1172 4494 
z
" transform="scale(0.015625)"/>
       <path id="DejaVuSans-65" d="M 3597 1894 
L 3597 1613 
L 953 1613 
Q 991 1019 1311 708 
Q 1631 397 2203 397 
Q 2534 397 2845 478 
Q 3156 559 3463 722 
L 3463 178 
Q 3153 47 2828 -22 
Q 2503 -91 2169 -91 
Q 1331 -91 842 396 
Q 353 884 353 1716 
Q 353 2575 817 3079 
Q 1281 3584 2069 3584 
Q 2775 3584 3186 3129 
Q 3597 2675 3597 1894 
z
M 3022 2063 
Q 3016 2534 2758 2815 
Q 2500 3097 2075 3097 
Q 1594 3097 1305 2825 
Q 1016 2553 972 2059 
L 3022 2063 
z
" transform="scale(0.015625)"/>
       <path id="DejaVuSans-73" d="M 2834 3397 
L 2834 2853 
Q 2591 2978 2328 3040 
Q 2066 3103 1784 3103 
Q 1356 3103 1142 2972 
Q 928 2841 928 2578 
Q 928 2378 1081 2264 
Q 1234 2150 1697 2047 
L 1894 2003 
Q 2506 1872 2764 1633 
Q 3022 1394 3022 966 
Q 3022 478 2636 193 
Q 2250 -91 1575 -91 
Q 1294 -91 989 -36 
Q 684 19 347 128 
L 347 722 
Q 666 556 975 473 
Q 1284 391 1588 391 
Q 1994 391 2212 530 
Q 2431 669 2431 922 
Q 2431 1156 2273 1281 
Q 2116 1406 1581 1522 
L 1381 1569 
Q 847 1681 609 1914 
Q 372 2147 372 2553 
Q 372 3047 722 3315 
Q 1072 3584 1716 3584 
Q 2034 3584 2315 3537 
Q 2597 3491 2834 3397 
z
" transform="scale(0.015625)"/>
      </defs>
      <use xlink:href="#DejaVuSans-69"/>
      <use xlink:href="#DejaVuSans-6e" x="27.783203"/>
      <use xlink:href="#DejaVuSans-74" x="91.162109"/>
      <use xlink:href="#DejaVuSans-65" x="130.371094"/>
      <use xlink:href="#DejaVuSans-6e" x="191.894531"/>
      <use xlink:href="#DejaVuSans-73" x="255.273438"/>
      <use xlink:href="#DejaVuSans-69" x="307.373047"/>
      <use xlink:href="#DejaVuSans-74" x="335.15625"/>
      <use xlink:href="#DejaVuSans-69" x="374.365234"/>
      <use xlink:href="#DejaVuSans-65" x="402.148438"/>
      <use xlink:href="#DejaVuSans-73" x="463.671875"/>
     </g>
    </g>
    <g id="text_16">
     <!-- 1e6 -->
     <g transform="translate(57.6 38.472) scale(0.1 -0.1)">
      <use xlink:href="#DejaVuSans-31"/>
      <use xlink:href="#DejaVuSans-65" x="63.623047"/>
      <use xlink:href="#DejaVuSans-36" x="125.146484"/>
     </g>
    </g>
   </g>
   <g id="patch_128">
    <path d="M 57.6 307.584 
L 57.6 41.472 
" style="fill: none; stroke: #000000; stroke-width: 0.8; stroke-linejoin: miter; stroke-linecap: square"/>
   </g>
   <g id="patch_129">
    <path d="M 414.72 307.584 
L 414.72 41.472 
" style="fill: none; stroke: #000000; stroke-width: 0.8; stroke-linejoin: miter; stroke-linecap: square"/>
   </g>
   <g id="patch_130">
    <path d="M 57.6 307.584 
L 414.72 307.584 
" style="fill: none; stroke: #000000; stroke-width: 0.8; stroke-linejoin: miter; stroke-linecap: square"/>
   </g>
   <g id="patch_131">
    <path d="M 57.6 41.472 
L 414.72 41.472 
" style="fill: none; stroke: #000000; stroke-width: 0.8; stroke-linejoin: miter; stroke-linecap: square"/>
   </g>
   <g id="text_17">
    <!-- 197.0341 -->
    <g transform="translate(219.209272 260.456782) scale(0.06 -0.06)">
     <defs>
      <path id="DejaVuSans-39" d="M 703 97 
L 703 672 
Q 941 559 1184 500 
Q 1428 441 1663 441 
Q 2288 441 2617 861 
Q 2947 1281 2994 2138 
Q 2813 1869 2534 1725 
Q 2256 1581 1919 1581 
Q 1219 1581 811 2004 
Q 403 2428 403 3163 
Q 403 3881 828 4315 
Q 1253 4750 1959 4750 
Q 2769 4750 3195 4129 
Q 3622 3509 3622 2328 
Q 3622 1225 3098 567 
Q 2575 -91 1691 -91 
Q 1453 -91 1209 -44 
Q 966 3 703 97 
z
M 1959 2075 
Q 2384 2075 2632 2365 
Q 2881 2656 2881 3163 
Q 2881 3666 2632 3958 
Q 2384 4250 1959 4250 
Q 1534 4250 1286 3958 
Q 1038 3666 1038 3163 
Q 1038 2656 1286 2365 
Q 1534 2075 1959 2075 
z
" transform="scale(0.015625)"/>
      <path id="DejaVuSans-37" d="M 525 4666 
L 3525 4666 
L 3525 4397 
L 1831 0 
L 1172 0 
L 2766 4134 
L 525 4134 
L 525 4666 
z
" transform="scale(0.015625)"/>
     </defs>
     <use xlink:href="#DejaVuSans-31"/>
     <use xlink:href="#DejaVuSans-39" x="63.623047"/>
     <use xlink:href="#DejaVuSans-37" x="127.246094"/>
     <use xlink:href="#DejaVuSans-2e" x="190.869141"/>
     <use xlink:href="#DejaVuSans-30" x="222.65625"/>
     <use xlink:href="#DejaVuSans-33" x="286.279297"/>
     <use xlink:href="#DejaVuSans-34" x="349.902344"/>
     <use xlink:href="#DejaVuSans-31" x="413.525391"/>
    </g>
   </g>
   <g id="text_18">
    <!-- 221.0471 -->
    <g transform="translate(246.294978 215.620352) scale(0.06 -0.06)">
     <use xlink:href="#DejaVuSans-32"/>
     <use xlink:href="#DejaVuSans-32" x="63.623047"/>
     <use xlink:href="#DejaVuSans-31" x="127.246094"/>
     <use xlink:href="#DejaVuSans-2e" x="190.869141"/>
     <use xlink:href="#DejaVuSans-30" x="222.65625"/>
     <use xlink:href="#DejaVuSans-34" x="286.279297"/>
     <use xlink:href="#DejaVuSans-37" x="349.902344"/>
     <use xlink:href="#DejaVuSans-31" x="413.525391"/>
    </g>
   </g>
   <g id="text_19">
    <!-- 222.0555 -->
    <g transform="translate(238.072422 286.205899) scale(0.06 -0.06)">
     <use xlink:href="#DejaVuSans-32"/>
     <use xlink:href="#DejaVuSans-32" x="63.623047"/>
     <use xlink:href="#DejaVuSans-32" x="127.246094"/>
     <use xlink:href="#DejaVuSans-2e" x="190.869141"/>
     <use xlink:href="#DejaVuSans-30" x="222.65625"/>
     <use xlink:href="#DejaVuSans-35" x="286.279297"/>
     <use xlink:href="#DejaVuSans-35" x="349.902344"/>
     <use xlink:href="#DejaVuSans-35" x="413.525391"/>
    </g>
   </g>
   <g id="text_20">
    <!-- 239.0429 -->
    <g transform="translate(266.59359 255.687314) scale(0.06 -0.06)">
     <use xlink:href="#DejaVuSans-32"/>
     <use xlink:href="#DejaVuSans-33" x="63.623047"/>
     <use xlink:href="#DejaVuSans-39" x="127.246094"/>
     <use xlink:href="#DejaVuSans-2e" x="190.869141"/>
     <use xlink:href="#DejaVuSans-30" x="222.65625"/>
     <use xlink:href="#DejaVuSans-34" x="286.279297"/>
     <use xlink:href="#DejaVuSans-32" x="349.902344"/>
     <use xlink:href="#DejaVuSans-39" x="413.525391"/>
    </g>
   </g>
   <g id="text_21">
    <!-- 253.0738 -->
    <g transform="translate(282.419808 192.336059) scale(0.06 -0.06)">
     <use xlink:href="#DejaVuSans-32"/>
     <use xlink:href="#DejaVuSans-35" x="63.623047"/>
     <use xlink:href="#DejaVuSans-33" x="127.246094"/>
     <use xlink:href="#DejaVuSans-2e" x="190.869141"/>
     <use xlink:href="#DejaVuSans-30" x="222.65625"/>
     <use xlink:href="#DejaVuSans-37" x="286.279297"/>
     <use xlink:href="#DejaVuSans-33" x="349.902344"/>
     <use xlink:href="#DejaVuSans-38" x="413.525391"/>
    </g>
   </g>
   <g id="text_22">
    <!-- 327.061 -->
    <g transform="translate(367.783268 50.939625) scale(0.06 -0.06)">
     <use xlink:href="#DejaVuSans-33"/>
     <use xlink:href="#DejaVuSans-32" x="63.623047"/>
     <use xlink:href="#DejaVuSans-37" x="127.246094"/>
     <use xlink:href="#DejaVuSans-2e" x="190.869141"/>
     <use xlink:href="#DejaVuSans-30" x="222.65625"/>
     <use xlink:href="#DejaVuSans-36" x="286.279297"/>
     <use xlink:href="#DejaVuSans-31" x="349.902344"/>
    </g>
   </g>
   <g id="text_23">
    <!-- 328.0642 -->
    <g transform="translate(367.006059 268.399147) scale(0.06 -0.06)">
     <use xlink:href="#DejaVuSans-33"/>
     <use xlink:href="#DejaVuSans-32" x="63.623047"/>
     <use xlink:href="#DejaVuSans-38" x="127.246094"/>
     <use xlink:href="#DejaVuSans-2e" x="190.869141"/>
     <use xlink:href="#DejaVuSans-30" x="222.65625"/>
     <use xlink:href="#DejaVuSans-36" x="286.279297"/>
     <use xlink:href="#DejaVuSans-34" x="349.902344"/>
     <use xlink:href="#DejaVuSans-32" x="413.525391"/>
    </g>
   </g>
   <g id="text_24">
    <!-- 345.0715 -->
    <g transform="translate(386.189619 174.748685) scale(0.06 -0.06)">
     <use xlink:href="#DejaVuSans-33"/>
     <use xlink:href="#DejaVuSans-34" x="63.623047"/>
     <use xlink:href="#DejaVuSans-35" x="127.246094"/>
     <use xlink:href="#DejaVuSans-2e" x="190.869141"/>
     <use xlink:href="#DejaVuSans-30" x="222.65625"/>
     <use xlink:href="#DejaVuSans-37" x="286.279297"/>
     <use xlink:href="#DejaVuSans-31" x="349.902344"/>
     <use xlink:href="#DejaVuSans-35" x="413.525391"/>
    </g>
   </g>
   <g id="text_25">
    <!-- MS2 spectrum of ${m/z}$ 345.0706, scan time 7.05 min. -->
    <g transform="translate(57.6 24.873562) scale(0.12 -0.12)">
     <defs>
      <path id="DejaVuSans-4d" d="M 628 4666 
L 1569 4666 
L 2759 1491 
L 3956 4666 
L 4897 4666 
L 4897 0 
L 4281 0 
L 4281 4097 
L 3078 897 
L 2444 897 
L 1241 4097 
L 1241 0 
L 628 0 
L 628 4666 
z
" transform="scale(0.015625)"/>
      <path id="DejaVuSans-53" d="M 3425 4513 
L 3425 3897 
Q 3066 4069 2747 4153 
Q 2428 4238 2131 4238 
Q 1616 4238 1336 4038 
Q 1056 3838 1056 3469 
Q 1056 3159 1242 3001 
Q 1428 2844 1947 2747 
L 2328 2669 
Q 3034 2534 3370 2195 
Q 3706 1856 3706 1288 
Q 3706 609 3251 259 
Q 2797 -91 1919 -91 
Q 1588 -91 1214 -16 
Q 841 59 441 206 
L 441 856 
Q 825 641 1194 531 
Q 1563 422 1919 422 
Q 2459 422 2753 634 
Q 3047 847 3047 1241 
Q 3047 1584 2836 1778 
Q 2625 1972 2144 2069 
L 1759 2144 
Q 1053 2284 737 2584 
Q 422 2884 422 3419 
Q 422 4038 858 4394 
Q 1294 4750 2059 4750 
Q 2388 4750 2728 4690 
Q 3069 4631 3425 4513 
z
" transform="scale(0.015625)"/>
      <path id="DejaVuSans-20" transform="scale(0.015625)"/>
      <path id="DejaVuSans-70" d="M 1159 525 
L 1159 -1331 
L 581 -1331 
L 581 3500 
L 1159 3500 
L 1159 2969 
Q 1341 3281 1617 3432 
Q 1894 3584 2278 3584 
Q 2916 3584 3314 3078 
Q 3713 2572 3713 1747 
Q 3713 922 3314 415 
Q 2916 -91 2278 -91 
Q 1894 -91 1617 61 
Q 1341 213 1159 525 
z
M 3116 1747 
Q 3116 2381 2855 2742 
Q 2594 3103 2138 3103 
Q 1681 3103 1420 2742 
Q 1159 2381 1159 1747 
Q 1159 1113 1420 752 
Q 1681 391 2138 391 
Q 2594 391 2855 752 
Q 3116 1113 3116 1747 
z
" transform="scale(0.015625)"/>
      <path id="DejaVuSans-63" d="M 3122 3366 
L 3122 2828 
Q 2878 2963 2633 3030 
Q 2388 3097 2138 3097 
Q 1578 3097 1268 2742 
Q 959 2388 959 1747 
Q 959 1106 1268 751 
Q 1578 397 2138 397 
Q 2388 397 2633 464 
Q 2878 531 3122 666 
L 3122 134 
Q 2881 22 2623 -34 
Q 2366 -91 2075 -91 
Q 1284 -91 818 406 
Q 353 903 353 1747 
Q 353 2603 823 3093 
Q 1294 3584 2113 3584 
Q 2378 3584 2631 3529 
Q 2884 3475 3122 3366 
z
" transform="scale(0.015625)"/>
      <path id="DejaVuSans-72" d="M 2631 2963 
Q 2534 3019 2420 3045 
Q 2306 3072 2169 3072 
Q 1681 3072 1420 2755 
Q 1159 2438 1159 1844 
L 1159 0 
L 581 0 
L 581 3500 
L 1159 3500 
L 1159 2956 
Q 1341 3275 1631 3429 
Q 1922 3584 2338 3584 
Q 2397 3584 2469 3576 
Q 2541 3569 2628 3553 
L 2631 2963 
z
" transform="scale(0.015625)"/>
      <path id="DejaVuSans-75" d="M 544 1381 
L 544 3500 
L 1119 3500 
L 1119 1403 
Q 1119 906 1312 657 
Q 1506 409 1894 409 
Q 2359 409 2629 706 
Q 2900 1003 2900 1516 
L 2900 3500 
L 3475 3500 
L 3475 0 
L 2900 0 
L 2900 538 
Q 2691 219 2414 64 
Q 2138 -91 1772 -91 
Q 1169 -91 856 284 
Q 544 659 544 1381 
z
M 1991 3584 
L 1991 3584 
z
" transform="scale(0.015625)"/>
      <path id="DejaVuSans-6d" d="M 3328 2828 
Q 3544 3216 3844 3400 
Q 4144 3584 4550 3584 
Q 5097 3584 5394 3201 
Q 5691 2819 5691 2113 
L 5691 0 
L 5113 0 
L 5113 2094 
Q 5113 2597 4934 2840 
Q 4756 3084 4391 3084 
Q 3944 3084 3684 2787 
Q 3425 2491 3425 1978 
L 3425 0 
L 2847 0 
L 2847 2094 
Q 2847 2600 2669 2842 
Q 2491 3084 2119 3084 
Q 1678 3084 1418 2786 
Q 1159 2488 1159 1978 
L 1159 0 
L 581 0 
L 581 3500 
L 1159 3500 
L 1159 2956 
Q 1356 3278 1631 3431 
Q 1906 3584 2284 3584 
Q 2666 3584 2933 3390 
Q 3200 3197 3328 2828 
z
" transform="scale(0.015625)"/>
      <path id="DejaVuSans-6f" d="M 1959 3097 
Q 1497 3097 1228 2736 
Q 959 2375 959 1747 
Q 959 1119 1226 758 
Q 1494 397 1959 397 
Q 2419 397 2687 759 
Q 2956 1122 2956 1747 
Q 2956 2369 2687 2733 
Q 2419 3097 1959 3097 
z
M 1959 3584 
Q 2709 3584 3137 3096 
Q 3566 2609 3566 1747 
Q 3566 888 3137 398 
Q 2709 -91 1959 -91 
Q 1206 -91 779 398 
Q 353 888 353 1747 
Q 353 2609 779 3096 
Q 1206 3584 1959 3584 
z
" transform="scale(0.015625)"/>
      <path id="DejaVuSans-66" d="M 2375 4863 
L 2375 4384 
L 1825 4384 
Q 1516 4384 1395 4259 
Q 1275 4134 1275 3809 
L 1275 3500 
L 2222 3500 
L 2222 3053 
L 1275 3053 
L 1275 0 
L 697 0 
L 697 3053 
L 147 3053 
L 147 3500 
L 697 3500 
L 697 3744 
Q 697 4328 969 4595 
Q 1241 4863 1831 4863 
L 2375 4863 
z
" transform="scale(0.015625)"/>
      <path id="DejaVuSans-2c" d="M 750 794 
L 1409 794 
L 1409 256 
L 897 -744 
L 494 -744 
L 750 256 
L 750 794 
z
" transform="scale(0.015625)"/>
      <path id="DejaVuSans-61" d="M 2194 1759 
Q 1497 1759 1228 1600 
Q 959 1441 959 1056 
Q 959 750 1161 570 
Q 1363 391 1709 391 
Q 2188 391 2477 730 
Q 2766 1069 2766 1631 
L 2766 1759 
L 2194 1759 
z
M 3341 1997 
L 3341 0 
L 2766 0 
L 2766 531 
Q 2569 213 2275 61 
Q 1981 -91 1556 -91 
Q 1019 -91 701 211 
Q 384 513 384 1019 
Q 384 1609 779 1909 
Q 1175 2209 1959 2209 
L 2766 2209 
L 2766 2266 
Q 2766 2663 2505 2880 
Q 2244 3097 1772 3097 
Q 1472 3097 1187 3025 
Q 903 2953 641 2809 
L 641 3341 
Q 956 3463 1253 3523 
Q 1550 3584 1831 3584 
Q 2591 3584 2966 3190 
Q 3341 2797 3341 1997 
z
" transform="scale(0.015625)"/>
     </defs>
     <use xlink:href="#DejaVuSans-4d" transform="translate(0 0.015625)"/>
     <use xlink:href="#DejaVuSans-53" transform="translate(86.279297 0.015625)"/>
     <use xlink:href="#DejaVuSans-32" transform="translate(149.755859 0.015625)"/>
     <use xlink:href="#DejaVuSans-20" transform="translate(213.378906 0.015625)"/>
     <use xlink:href="#DejaVuSans-73" transform="translate(245.166016 0.015625)"/>
     <use xlink:href="#DejaVuSans-70" transform="translate(297.265625 0.015625)"/>
     <use xlink:href="#DejaVuSans-65" transform="translate(360.742188 0.015625)"/>
     <use xlink:href="#DejaVuSans-63" transform="translate(422.265625 0.015625)"/>
     <use xlink:href="#DejaVuSans-74" transform="translate(477.246094 0.015625)"/>
     <use xlink:href="#DejaVuSans-72" transform="translate(516.455078 0.015625)"/>
     <use xlink:href="#DejaVuSans-75" transform="translate(557.568359 0.015625)"/>
     <use xlink:href="#DejaVuSans-6d" transform="translate(620.947266 0.015625)"/>
     <use xlink:href="#DejaVuSans-20" transform="translate(718.359375 0.015625)"/>
     <use xlink:href="#DejaVuSans-6f" transform="translate(750.146484 0.015625)"/>
     <use xlink:href="#DejaVuSans-66" transform="translate(811.328125 0.015625)"/>
     <use xlink:href="#DejaVuSans-20" transform="translate(846.533203 0.015625)"/>
     <use xlink:href="#DejaVuSans-Oblique-6d" transform="translate(878.320312 0.015625)"/>
     <use xlink:href="#DejaVuSans-2f" transform="translate(975.732422 0.015625)"/>
     <use xlink:href="#DejaVuSans-Oblique-7a" transform="translate(1009.423828 0.015625)"/>
     <use xlink:href="#DejaVuSans-20" transform="translate(1061.914062 0.015625)"/>
     <use xlink:href="#DejaVuSans-33" transform="translate(1093.701172 0.015625)"/>
     <use xlink:href="#DejaVuSans-34" transform="translate(1157.324219 0.015625)"/>
     <use xlink:href="#DejaVuSans-35" transform="translate(1220.947266 0.015625)"/>
     <use xlink:href="#DejaVuSans-2e" transform="translate(1284.570312 0.015625)"/>
     <use xlink:href="#DejaVuSans-30" transform="translate(1316.357422 0.015625)"/>
     <use xlink:href="#DejaVuSans-37" transform="translate(1379.980469 0.015625)"/>
     <use xlink:href="#DejaVuSans-30" transform="translate(1443.603516 0.015625)"/>
     <use xlink:href="#DejaVuSans-36" transform="translate(1507.226562 0.015625)"/>
     <use xlink:href="#DejaVuSans-2c" transform="translate(1570.849609 0.015625)"/>
     <use xlink:href="#DejaVuSans-20" transform="translate(1602.636719 0.015625)"/>
     <use xlink:href="#DejaVuSans-73" transform="translate(1634.423828 0.015625)"/>
     <use xlink:href="#DejaVuSans-63" transform="translate(1686.523438 0.015625)"/>
     <use xlink:href="#DejaVuSans-61" transform="translate(1741.503906 0.015625)"/>
     <use xlink:href="#DejaVuSans-6e" transform="translate(1802.783203 0.015625)"/>
     <use xlink:href="#DejaVuSans-20" transform="translate(1866.162109 0.015625)"/>
     <use xlink:href="#DejaVuSans-74" transform="translate(1897.949219 0.015625)"/>
     <use xlink:href="#DejaVuSans-69" transform="translate(1937.158203 0.015625)"/>
     <use xlink:href="#DejaVuSans-6d" transform="translate(1964.941406 0.015625)"/>
     <use xlink:href="#DejaVuSans-65" transform="translate(2062.353516 0.015625)"/>
     <use xlink:href="#DejaVuSans-20" transform="translate(2123.876953 0.015625)"/>
     <use xlink:href="#DejaVuSans-37" transform="translate(2155.664062 0.015625)"/>
     <use xlink:href="#DejaVuSans-2e" transform="translate(2219.287109 0.015625)"/>
     <use xlink:href="#DejaVuSans-30" transform="translate(2251.074219 0.015625)"/>
     <use xlink:href="#DejaVuSans-35" transform="translate(2314.697266 0.015625)"/>
     <use xlink:href="#DejaVuSans-20" transform="translate(2378.320312 0.015625)"/>
     <use xlink:href="#DejaVuSans-6d" transform="translate(2410.107422 0.015625)"/>
     <use xlink:href="#DejaVuSans-69" transform="translate(2507.519531 0.015625)"/>
     <use xlink:href="#DejaVuSans-6e" transform="translate(2535.302734 0.015625)"/>
     <use xlink:href="#DejaVuSans-2e" transform="translate(2598.681641 0.015625)"/>
    </g>
   </g>
  </g>
 </g>
 <defs>
  <clipPath id="pb83e419e9b">
   <rect x="57.6" y="41.472" width="357.12" height="266.112"/>
  </clipPath>
 </defs>
</svg>
