<?xml version="1.0" encoding="utf-8" standalone="no"?>
<!DOCTYPE svg PUBLIC "-//W3C//DTD SVG 1.1//EN"
  "http://www.w3.org/Graphics/SVG/1.1/DTD/svg11.dtd">
<svg xmlns:xlink="http://www.w3.org/1999/xlink" width="460.8pt" height="345.6pt" viewBox="0 0 460.8 345.6" xmlns="http://www.w3.org/2000/svg" version="1.1">
 <metadata>
  <rdf:RDF xmlns:dc="http://purl.org/dc/elements/1.1/" xmlns:cc="http://creativecommons.org/ns#" xmlns:rdf="http://www.w3.org/1999/02/22-rdf-syntax-ns#">
   <cc:Work>
    <dc:type rdf:resource="http://purl.org/dc/dcmitype/StillImage"/>
    <dc:date>2025-01-11T13:58:56.127800</dc:date>
    <dc:format>image/svg+xml</dc:format>
    <dc:creator>
     <cc:Agent>
      <dc:title>Matplotlib v3.7.3, https://matplotlib.org/</dc:title>
     </cc:Agent>
    </dc:creator>
   </cc:Work>
  </rdf:RDF>
 </metadata>
 <defs>
  <style type="text/css">*{stroke-linejoin: round; stroke-linecap: butt}</style>
 </defs>
 <g id="figure_1">
  <g id="patch_1">
   <path d="M 0 345.6 
L 460.8 345.6 
L 460.8 0 
L 0 0 
z
" style="fill: #ffffff"/>
  </g>
  <g id="axes_1">
   <g id="patch_2">
    <path d="M 57.6 307.584 
L 414.72 307.584 
L 414.72 41.472 
L 57.6 41.472 
z
" style="fill: #ffffff"/>
   </g>
   <g id="patch_3">
    <path d="M 73.832727 307.584 
L 74.715665 307.584 
L 74.715665 306.657587 
L 73.832727 306.657587 
z
" clip-path="url(#p43dcdff687)" style="fill: #1f77b4"/>
   </g>
   <g id="patch_4">
    <path d="M 79.152235 307.584 
L 80.035172 307.584 
L 80.035172 306.65053 
L 79.152235 306.65053 
z
" clip-path="url(#p43dcdff687)" style="fill: #1f77b4"/>
   </g>
   <g id="patch_5">
    <path d="M 80.823918 307.584 
L 81.706855 307.584 
L 81.706855 304.839599 
L 80.823918 304.839599 
z
" clip-path="url(#p43dcdff687)" style="fill: #1f77b4"/>
   </g>
   <g id="patch_6">
    <path d="M 89.132795 307.584 
L 90.015733 307.584 
L 90.015733 305.974759 
L 89.132795 305.974759 
z
" clip-path="url(#p43dcdff687)" style="fill: #1f77b4"/>
   </g>
   <g id="patch_7">
    <path d="M 91.883158 307.584 
L 92.766096 307.584 
L 92.766096 306.377957 
L 91.883158 306.377957 
z
" clip-path="url(#p43dcdff687)" style="fill: #1f77b4"/>
   </g>
   <g id="patch_8">
    <path d="M 92.901296 307.584 
L 93.784234 307.584 
L 93.784234 305.110559 
L 92.901296 305.110559 
z
" clip-path="url(#p43dcdff687)" style="fill: #1f77b4"/>
   </g>
   <g id="patch_9">
    <path d="M 94.707208 307.584 
L 95.590145 307.584 
L 95.590145 306.046854 
L 94.707208 306.046854 
z
" clip-path="url(#p43dcdff687)" style="fill: #1f77b4"/>
   </g>
   <g id="patch_10">
    <path d="M 102.902697 307.584 
L 103.785635 307.584 
L 103.785635 306.247313 
L 102.902697 306.247313 
z
" clip-path="url(#p43dcdff687)" style="fill: #1f77b4"/>
   </g>
   <g id="patch_11">
    <path d="M 105.127311 307.584 
L 106.010248 307.584 
L 106.010248 306.281374 
L 105.127311 306.281374 
z
" clip-path="url(#p43dcdff687)" style="fill: #1f77b4"/>
   </g>
   <g id="patch_12">
    <path d="M 105.893141 307.584 
L 106.776078 307.584 
L 106.776078 305.477041 
L 105.893141 305.477041 
z
" clip-path="url(#p43dcdff687)" style="fill: #1f77b4"/>
   </g>
   <g id="patch_13">
    <path d="M 107.311254 307.584 
L 108.194191 307.584 
L 108.194191 306.358496 
L 107.311254 306.358496 
z
" clip-path="url(#p43dcdff687)" style="fill: #1f77b4"/>
   </g>
   <g id="patch_14">
    <path d="M 108.327867 307.584 
L 109.210805 307.584 
L 109.210805 305.206904 
L 108.327867 305.206904 
z
" clip-path="url(#p43dcdff687)" style="fill: #1f77b4"/>
   </g>
   <g id="patch_15">
    <path d="M 116.635415 307.584 
L 117.518352 307.584 
L 117.518352 306.002398 
L 116.635415 306.002398 
z
" clip-path="url(#p43dcdff687)" style="fill: #1f77b4"/>
   </g>
   <g id="patch_16">
    <path d="M 122.820294 307.584 
L 123.703231 307.584 
L 123.703231 306.129204 
L 122.820294 306.129204 
z
" clip-path="url(#p43dcdff687)" style="fill: #1f77b4"/>
   </g>
   <g id="patch_17">
    <path d="M 126.063214 307.584 
L 126.946151 307.584 
L 126.946151 304.124872 
L 126.063214 304.124872 
z
" clip-path="url(#p43dcdff687)" style="fill: #1f77b4"/>
   </g>
   <g id="patch_18">
    <path d="M 131.574701 307.584 
L 132.457638 307.584 
L 132.457638 306.255736 
L 131.574701 306.255736 
z
" clip-path="url(#p43dcdff687)" style="fill: #1f77b4"/>
   </g>
   <g id="patch_19">
    <path d="M 133.839504 307.584 
L 134.722442 307.584 
L 134.722442 305.814703 
L 133.839504 305.814703 
z
" clip-path="url(#p43dcdff687)" style="fill: #1f77b4"/>
   </g>
   <g id="patch_20">
    <path d="M 141.508209 307.584 
L 142.391146 307.584 
L 142.391146 303.361949 
L 141.508209 303.361949 
z
" clip-path="url(#p43dcdff687)" style="fill: #1f77b4"/>
   </g>
   <g id="patch_21">
    <path d="M 142.634632 307.584 
L 143.517569 307.584 
L 143.517569 303.886281 
L 142.634632 303.886281 
z
" clip-path="url(#p43dcdff687)" style="fill: #1f77b4"/>
   </g>
   <g id="patch_22">
    <path d="M 149.071397 307.584 
L 149.954335 307.584 
L 149.954335 306.582643 
L 149.071397 306.582643 
z
" clip-path="url(#p43dcdff687)" style="fill: #1f77b4"/>
   </g>
   <g id="patch_23">
    <path d="M 149.308236 307.584 
L 150.191174 307.584 
L 150.191174 305.244123 
L 149.308236 305.244123 
z
" clip-path="url(#p43dcdff687)" style="fill: #1f77b4"/>
   </g>
   <g id="patch_24">
    <path d="M 156.976738 307.584 
L 157.859676 307.584 
L 157.859676 301.008209 
L 156.976738 301.008209 
z
" clip-path="url(#p43dcdff687)" style="fill: #1f77b4"/>
   </g>
   <g id="patch_25">
    <path d="M 158.075391 307.584 
L 158.958329 307.584 
L 158.958329 306.196937 
L 158.075391 306.196937 
z
" clip-path="url(#p43dcdff687)" style="fill: #1f77b4"/>
   </g>
   <g id="patch_26">
    <path d="M 158.087904 307.584 
L 158.970841 307.584 
L 158.970841 305.961868 
L 158.087904 305.961868 
z
" clip-path="url(#p43dcdff687)" style="fill: #1f77b4"/>
   </g>
   <g id="patch_27">
    <path d="M 158.102875 307.584 
L 158.985813 307.584 
L 158.985813 304.724387 
L 158.102875 304.724387 
z
" clip-path="url(#p43dcdff687)" style="fill: #1f77b4"/>
   </g>
   <g id="patch_28">
    <path d="M 159.201461 307.584 
L 160.084399 307.584 
L 160.084399 304.749017 
L 159.201461 304.749017 
z
" clip-path="url(#p43dcdff687)" style="fill: #1f77b4"/>
   </g>
   <g id="patch_29">
    <path d="M 160.327834 307.584 
L 161.210771 307.584 
L 161.210771 306.403973 
L 160.327834 306.403973 
z
" clip-path="url(#p43dcdff687)" style="fill: #1f77b4"/>
   </g>
   <g id="patch_30">
    <path d="M 161.082769 307.584 
L 161.965706 307.584 
L 161.965706 306.567879 
L 161.082769 306.567879 
z
" clip-path="url(#p43dcdff687)" style="fill: #1f77b4"/>
   </g>
   <g id="patch_31">
    <path d="M 170.220411 307.584 
L 171.103348 307.584 
L 171.103348 282.323886 
L 170.220411 282.323886 
z
" clip-path="url(#p43dcdff687)" style="fill: #1f77b4"/>
   </g>
   <g id="patch_32">
    <path d="M 171.318205 307.584 
L 172.201142 307.584 
L 172.201142 298.937035 
L 171.318205 298.937035 
z
" clip-path="url(#p43dcdff687)" style="fill: #1f77b4"/>
   </g>
   <g id="patch_33">
    <path d="M 171.327046 307.584 
L 172.209984 307.584 
L 172.209984 306.461498 
L 171.327046 306.461498 
z
" clip-path="url(#p43dcdff687)" style="fill: #1f77b4"/>
   </g>
   <g id="patch_34">
    <path d="M 172.445032 307.584 
L 173.32797 307.584 
L 173.32797 305.304637 
L 172.445032 305.304637 
z
" clip-path="url(#p43dcdff687)" style="fill: #1f77b4"/>
   </g>
   <g id="patch_35">
    <path d="M 173.51765 307.584 
L 174.400587 307.584 
L 174.400587 306.065442 
L 173.51765 306.065442 
z
" clip-path="url(#p43dcdff687)" style="fill: #1f77b4"/>
   </g>
   <g id="patch_36">
    <path d="M 173.543702 307.584 
L 174.42664 307.584 
L 174.42664 306.230769 
L 173.543702 306.230769 
z
" clip-path="url(#p43dcdff687)" style="fill: #1f77b4"/>
   </g>
   <g id="patch_37">
    <path d="M 174.629776 307.584 
L 175.512713 307.584 
L 175.512713 306.056175 
L 174.629776 306.056175 
z
" clip-path="url(#p43dcdff687)" style="fill: #1f77b4"/>
   </g>
   <g id="patch_38">
    <path d="M 176.855542 307.584 
L 177.73848 307.584 
L 177.73848 305.866408 
L 176.855542 305.866408 
z
" clip-path="url(#p43dcdff687)" style="fill: #1f77b4"/>
   </g>
   <g id="patch_39">
    <path d="M 183.452429 307.584 
L 184.335366 307.584 
L 184.335366 306.519653 
L 183.452429 306.519653 
z
" clip-path="url(#p43dcdff687)" style="fill: #1f77b4"/>
   </g>
   <g id="patch_40">
    <path d="M 183.464352 307.584 
L 184.34729 307.584 
L 184.34729 301.971921 
L 183.464352 301.971921 
z
" clip-path="url(#p43dcdff687)" style="fill: #1f77b4"/>
   </g>
   <g id="patch_41">
    <path d="M 184.563325 307.584 
L 185.446263 307.584 
L 185.446263 299.565681 
L 184.563325 299.565681 
z
" clip-path="url(#p43dcdff687)" style="fill: #1f77b4"/>
   </g>
   <g id="patch_42">
    <path d="M 184.576815 307.584 
L 185.459752 307.584 
L 185.459752 303.683862 
L 184.576815 303.683862 
z
" clip-path="url(#p43dcdff687)" style="fill: #1f77b4"/>
   </g>
   <g id="patch_43">
    <path d="M 185.649601 307.584 
L 186.532538 307.584 
L 186.532538 305.041785 
L 185.649601 305.041785 
z
" clip-path="url(#p43dcdff687)" style="fill: #1f77b4"/>
   </g>
   <g id="patch_44">
    <path d="M 185.662147 307.584 
L 186.545084 307.584 
L 186.545084 305.368665 
L 185.662147 305.368665 
z
" clip-path="url(#p43dcdff687)" style="fill: #1f77b4"/>
   </g>
   <g id="patch_45">
    <path d="M 185.676596 307.584 
L 186.559534 307.584 
L 186.559534 305.933967 
L 185.676596 305.933967 
z
" clip-path="url(#p43dcdff687)" style="fill: #1f77b4"/>
   </g>
   <g id="patch_46">
    <path d="M 185.68857 307.584 
L 186.571507 307.584 
L 186.571507 299.359433 
L 185.68857 299.359433 
z
" clip-path="url(#p43dcdff687)" style="fill: #1f77b4"/>
   </g>
   <g id="patch_47">
    <path d="M 186.787442 307.584 
L 187.670379 307.584 
L 187.670379 286.792658 
L 186.787442 286.792658 
z
" clip-path="url(#p43dcdff687)" style="fill: #1f77b4"/>
   </g>
   <g id="patch_48">
    <path d="M 186.801251 307.584 
L 187.684189 307.584 
L 187.684189 306.338054 
L 186.801251 306.338054 
z
" clip-path="url(#p43dcdff687)" style="fill: #1f77b4"/>
   </g>
   <g id="patch_49">
    <path d="M 187.873583 307.584 
L 188.75652 307.584 
L 188.75652 301.945673 
L 187.873583 301.945673 
z
" clip-path="url(#p43dcdff687)" style="fill: #1f77b4"/>
   </g>
   <g id="patch_50">
    <path d="M 197.807368 307.584 
L 198.690306 307.584 
L 198.690306 305.960074 
L 197.807368 305.960074 
z
" clip-path="url(#p43dcdff687)" style="fill: #1f77b4"/>
   </g>
   <g id="patch_51">
    <path d="M 197.82138 307.584 
L 198.704317 307.584 
L 198.704317 303.169689 
L 197.82138 303.169689 
z
" clip-path="url(#p43dcdff687)" style="fill: #1f77b4"/>
   </g>
   <g id="patch_52">
    <path d="M 198.544149 307.584 
L 199.427086 307.584 
L 199.427086 306.548007 
L 198.544149 306.548007 
z
" clip-path="url(#p43dcdff687)" style="fill: #1f77b4"/>
   </g>
   <g id="patch_53">
    <path d="M 198.919376 307.584 
L 199.802313 307.584 
L 199.802313 301.828954 
L 198.919376 301.828954 
z
" clip-path="url(#p43dcdff687)" style="fill: #1f77b4"/>
   </g>
   <g id="patch_54">
    <path d="M 198.933488 307.584 
L 199.816426 307.584 
L 199.816426 305.473646 
L 198.933488 305.473646 
z
" clip-path="url(#p43dcdff687)" style="fill: #1f77b4"/>
   </g>
   <g id="patch_55">
    <path d="M 200.031401 307.584 
L 200.914338 307.584 
L 200.914338 295.939033 
L 200.031401 295.939033 
z
" clip-path="url(#p43dcdff687)" style="fill: #1f77b4"/>
   </g>
   <g id="patch_56">
    <path d="M 200.044873 307.584 
L 200.92781 307.584 
L 200.92781 305.669462 
L 200.044873 305.669462 
z
" clip-path="url(#p43dcdff687)" style="fill: #1f77b4"/>
   </g>
   <g id="patch_57">
    <path d="M 201.117912 307.584 
L 202.000849 307.584 
L 202.000849 300.93971 
L 201.117912 300.93971 
z
" clip-path="url(#p43dcdff687)" style="fill: #1f77b4"/>
   </g>
   <g id="patch_58">
    <path d="M 201.143594 307.584 
L 202.026531 307.584 
L 202.026531 301.078703 
L 201.143594 301.078703 
z
" clip-path="url(#p43dcdff687)" style="fill: #1f77b4"/>
   </g>
   <g id="patch_59">
    <path d="M 202.230172 307.584 
L 203.113109 307.584 
L 203.113109 301.929541 
L 202.230172 301.929541 
z
" clip-path="url(#p43dcdff687)" style="fill: #1f77b4"/>
   </g>
   <g id="patch_60">
    <path d="M 202.255989 307.584 
L 203.138926 307.584 
L 203.138926 304.145458 
L 202.255989 304.145458 
z
" clip-path="url(#p43dcdff687)" style="fill: #1f77b4"/>
   </g>
   <g id="patch_61">
    <path d="M 203.302284 307.584 
L 204.185221 307.584 
L 204.185221 303.615211 
L 203.302284 303.615211 
z
" clip-path="url(#p43dcdff687)" style="fill: #1f77b4"/>
   </g>
   <g id="patch_62">
    <path d="M 203.341658 307.584 
L 204.224595 307.584 
L 204.224595 304.632242 
L 203.341658 304.632242 
z
" clip-path="url(#p43dcdff687)" style="fill: #1f77b4"/>
   </g>
   <g id="patch_63">
    <path d="M 204.440109 307.584 
L 205.323046 307.584 
L 205.323046 305.679474 
L 204.440109 305.679474 
z
" clip-path="url(#p43dcdff687)" style="fill: #1f77b4"/>
   </g>
   <g id="patch_64">
    <path d="M 205.527159 307.584 
L 206.410096 307.584 
L 206.410096 305.485878 
L 205.527159 305.485878 
z
" clip-path="url(#p43dcdff687)" style="fill: #1f77b4"/>
   </g>
   <g id="patch_65">
    <path d="M 205.56601 307.584 
L 206.448947 307.584 
L 206.448947 306.497135 
L 205.56601 306.497135 
z
" clip-path="url(#p43dcdff687)" style="fill: #1f77b4"/>
   </g>
   <g id="patch_66">
    <path d="M 214.361735 307.584 
L 215.244673 307.584 
L 215.244673 303.88675 
L 214.361735 303.88675 
z
" clip-path="url(#p43dcdff687)" style="fill: #1f77b4"/>
   </g>
   <g id="patch_67">
    <path d="M 214.387283 307.584 
L 215.27022 307.584 
L 215.27022 306.101024 
L 214.387283 306.101024 
z
" clip-path="url(#p43dcdff687)" style="fill: #1f77b4"/>
   </g>
   <g id="patch_68">
    <path d="M 215.459311 307.584 
L 216.342248 307.584 
L 216.342248 299.868951 
L 215.459311 299.868951 
z
" clip-path="url(#p43dcdff687)" style="fill: #1f77b4"/>
   </g>
   <g id="patch_69">
    <path d="M 215.475377 307.584 
L 216.358314 307.584 
L 216.358314 305.834934 
L 215.475377 305.834934 
z
" clip-path="url(#p43dcdff687)" style="fill: #1f77b4"/>
   </g>
   <g id="patch_70">
    <path d="M 215.500739 307.584 
L 216.383676 307.584 
L 216.383676 304.657536 
L 215.500739 304.657536 
z
" clip-path="url(#p43dcdff687)" style="fill: #1f77b4"/>
   </g>
   <g id="patch_71">
    <path d="M 216.560069 307.584 
L 217.443006 307.584 
L 217.443006 305.620217 
L 216.560069 305.620217 
z
" clip-path="url(#p43dcdff687)" style="fill: #1f77b4"/>
   </g>
   <g id="patch_72">
    <path d="M 216.586778 307.584 
L 217.469716 307.584 
L 217.469716 306.247483 
L 216.586778 306.247483 
z
" clip-path="url(#p43dcdff687)" style="fill: #1f77b4"/>
   </g>
   <g id="patch_73">
    <path d="M 217.685044 307.584 
L 218.567981 307.584 
L 218.567981 298.911999 
L 217.685044 298.911999 
z
" clip-path="url(#p43dcdff687)" style="fill: #1f77b4"/>
   </g>
   <g id="patch_74">
    <path d="M 217.700386 307.584 
L 218.583323 307.584 
L 218.583323 305.581685 
L 217.700386 305.581685 
z
" clip-path="url(#p43dcdff687)" style="fill: #1f77b4"/>
   </g>
   <g id="patch_75">
    <path d="M 218.795519 307.584 
L 219.678457 307.584 
L 219.678457 306.086215 
L 218.795519 306.086215 
z
" clip-path="url(#p43dcdff687)" style="fill: #1f77b4"/>
   </g>
   <g id="patch_76">
    <path d="M 218.811754 307.584 
L 219.694691 307.584 
L 219.694691 305.860461 
L 218.811754 305.860461 
z
" clip-path="url(#p43dcdff687)" style="fill: #1f77b4"/>
   </g>
   <g id="patch_77">
    <path d="M 219.883041 307.584 
L 220.765978 307.584 
L 220.765978 304.19849 
L 219.883041 304.19849 
z
" clip-path="url(#p43dcdff687)" style="fill: #1f77b4"/>
   </g>
   <g id="patch_78">
    <path d="M 219.910104 307.584 
L 220.793041 307.584 
L 220.793041 306.182824 
L 219.910104 306.182824 
z
" clip-path="url(#p43dcdff687)" style="fill: #1f77b4"/>
   </g>
   <g id="patch_79">
    <path d="M 220.995419 307.584 
L 221.878356 307.584 
L 221.878356 305.048928 
L 220.995419 305.048928 
z
" clip-path="url(#p43dcdff687)" style="fill: #1f77b4"/>
   </g>
   <g id="patch_80">
    <path d="M 226.31248 307.584 
L 227.195418 307.584 
L 227.195418 306.298319 
L 226.31248 306.298319 
z
" clip-path="url(#p43dcdff687)" style="fill: #1f77b4"/>
   </g>
   <g id="patch_81">
    <path d="M 228.718342 307.584 
L 229.601279 307.584 
L 229.601279 289.73389 
L 228.718342 289.73389 
z
" clip-path="url(#p43dcdff687)" style="fill: #1f77b4"/>
   </g>
   <g id="patch_82">
    <path d="M 229.814081 307.584 
L 230.697019 307.584 
L 230.697019 298.205827 
L 229.814081 298.205827 
z
" clip-path="url(#p43dcdff687)" style="fill: #1f77b4"/>
   </g>
   <g id="patch_83">
    <path d="M 229.831225 307.584 
L 230.714162 307.584 
L 230.714162 303.360578 
L 229.831225 303.360578 
z
" clip-path="url(#p43dcdff687)" style="fill: #1f77b4"/>
   </g>
   <g id="patch_84">
    <path d="M 230.903539 307.584 
L 231.786477 307.584 
L 231.786477 301.936056 
L 230.903539 301.936056 
z
" clip-path="url(#p43dcdff687)" style="fill: #1f77b4"/>
   </g>
   <g id="patch_85">
    <path d="M 230.928245 307.584 
L 231.811182 307.584 
L 231.811182 294.828158 
L 230.928245 294.828158 
z
" clip-path="url(#p43dcdff687)" style="fill: #1f77b4"/>
   </g>
   <g id="patch_86">
    <path d="M 230.943267 307.584 
L 231.826204 307.584 
L 231.826204 290.45974 
L 230.943267 290.45974 
z
" clip-path="url(#p43dcdff687)" style="fill: #1f77b4"/>
   </g>
   <g id="patch_87">
    <path d="M 232.014857 307.584 
L 232.897794 307.584 
L 232.897794 304.8006 
L 232.014857 304.8006 
z
" clip-path="url(#p43dcdff687)" style="fill: #1f77b4"/>
   </g>
   <g id="patch_88">
    <path d="M 232.036834 307.584 
L 232.919771 307.584 
L 232.919771 306.0949 
L 232.036834 306.0949 
z
" clip-path="url(#p43dcdff687)" style="fill: #1f77b4"/>
   </g>
   <g id="patch_89">
    <path d="M 232.93771 307.584 
L 233.820647 307.584 
L 233.820647 306.557637 
L 232.93771 306.557637 
z
" clip-path="url(#p43dcdff687)" style="fill: #1f77b4"/>
   </g>
   <g id="patch_90">
    <path d="M 233.098168 307.584 
L 233.981105 307.584 
L 233.981105 306.799811 
L 233.098168 306.799811 
z
" clip-path="url(#p43dcdff687)" style="fill: #1f77b4"/>
   </g>
   <g id="patch_91">
    <path d="M 233.112988 307.584 
L 233.995925 307.584 
L 233.995925 260.059888 
L 233.112988 260.059888 
z
" clip-path="url(#p43dcdff687)" style="fill: #1f77b4"/>
   </g>
   <g id="patch_92">
    <path d="M 233.153271 307.584 
L 234.036208 307.584 
L 234.036208 301.731087 
L 233.153271 301.731087 
z
" clip-path="url(#p43dcdff687)" style="fill: #1f77b4"/>
   </g>
   <g id="patch_93">
    <path d="M 234.199465 307.584 
L 235.082402 307.584 
L 235.082402 304.07285 
L 234.199465 304.07285 
z
" clip-path="url(#p43dcdff687)" style="fill: #1f77b4"/>
   </g>
   <g id="patch_94">
    <path d="M 234.2206 307.584 
L 235.103537 307.584 
L 235.103537 304.263314 
L 234.2206 304.263314 
z
" clip-path="url(#p43dcdff687)" style="fill: #1f77b4"/>
   </g>
   <g id="patch_95">
    <path d="M 234.265514 307.584 
L 235.148452 307.584 
L 235.148452 304.990441 
L 234.265514 304.990441 
z
" clip-path="url(#p43dcdff687)" style="fill: #1f77b4"/>
   </g>
   <g id="patch_96">
    <path d="M 239.836853 307.584 
L 240.719791 307.584 
L 240.719791 306.155261 
L 239.836853 306.155261 
z
" clip-path="url(#p43dcdff687)" style="fill: #1f77b4"/>
   </g>
   <g id="patch_97">
    <path d="M 244.186636 307.584 
L 245.069573 307.584 
L 245.069573 306.490019 
L 244.186636 306.490019 
z
" clip-path="url(#p43dcdff687)" style="fill: #1f77b4"/>
   </g>
   <g id="patch_98">
    <path d="M 246.371581 307.584 
L 247.254518 307.584 
L 247.254518 304.253623 
L 246.371581 304.253623 
z
" clip-path="url(#p43dcdff687)" style="fill: #1f77b4"/>
   </g>
   <g id="patch_99">
    <path d="M 246.395832 307.584 
L 247.278769 307.584 
L 247.278769 305.548461 
L 246.395832 305.548461 
z
" clip-path="url(#p43dcdff687)" style="fill: #1f77b4"/>
   </g>
   <g id="patch_100">
    <path d="M 247.484077 307.584 
L 248.367014 307.584 
L 248.367014 304.571098 
L 247.484077 304.571098 
z
" clip-path="url(#p43dcdff687)" style="fill: #1f77b4"/>
   </g>
   <g id="patch_101">
    <path d="M 247.509119 307.584 
L 248.392056 307.584 
L 248.392056 305.546189 
L 247.509119 305.546189 
z
" clip-path="url(#p43dcdff687)" style="fill: #1f77b4"/>
   </g>
   <g id="patch_102">
    <path d="M 248.578739 307.584 
L 249.461676 307.584 
L 249.461676 297.834711 
L 248.578739 297.834711 
z
" clip-path="url(#p43dcdff687)" style="fill: #1f77b4"/>
   </g>
   <g id="patch_103">
    <path d="M 248.599891 307.584 
L 249.482828 307.584 
L 249.482828 304.822262 
L 248.599891 304.822262 
z
" clip-path="url(#p43dcdff687)" style="fill: #1f77b4"/>
   </g>
   <g id="patch_104">
    <path d="M 248.672272 307.584 
L 249.555209 307.584 
L 249.555209 306.145598 
L 248.672272 306.145598 
z
" clip-path="url(#p43dcdff687)" style="fill: #1f77b4"/>
   </g>
   <g id="patch_105">
    <path d="M 249.346725 307.584 
L 250.229662 307.584 
L 250.229662 306.011819 
L 249.346725 306.011819 
z
" clip-path="url(#p43dcdff687)" style="fill: #1f77b4"/>
   </g>
   <g id="patch_106">
    <path d="M 249.689248 307.584 
L 250.572185 307.584 
L 250.572185 306.121291 
L 249.689248 306.121291 
z
" clip-path="url(#p43dcdff687)" style="fill: #1f77b4"/>
   </g>
   <g id="patch_107">
    <path d="M 249.707874 307.584 
L 250.590811 307.584 
L 250.590811 303.319135 
L 249.707874 303.319135 
z
" clip-path="url(#p43dcdff687)" style="fill: #1f77b4"/>
   </g>
   <g id="patch_108">
    <path d="M 250.780929 307.584 
L 251.663866 307.584 
L 251.663866 305.397779 
L 250.780929 305.397779 
z
" clip-path="url(#p43dcdff687)" style="fill: #1f77b4"/>
   </g>
   <g id="patch_109">
    <path d="M 254.076754 307.584 
L 254.959691 307.584 
L 254.959691 305.722388 
L 254.076754 305.722388 
z
" clip-path="url(#p43dcdff687)" style="fill: #1f77b4"/>
   </g>
   <g id="patch_110">
    <path d="M 259.596829 307.584 
L 260.479767 307.584 
L 260.479767 306.076778 
L 259.596829 306.076778 
z
" clip-path="url(#p43dcdff687)" style="fill: #1f77b4"/>
   </g>
   <g id="patch_111">
    <path d="M 259.615203 307.584 
L 260.49814 307.584 
L 260.49814 212.682496 
L 259.615203 212.682496 
z
" clip-path="url(#p43dcdff687)" style="fill: #1f77b4"/>
   </g>
   <g id="patch_112">
    <path d="M 260.728743 307.584 
L 261.61168 307.584 
L 261.61168 281.808734 
L 260.728743 281.808734 
z
" clip-path="url(#p43dcdff687)" style="fill: #1f77b4"/>
   </g>
   <g id="patch_113">
    <path d="M 261.827228 307.584 
L 262.710165 307.584 
L 262.710165 303.119016 
L 261.827228 303.119016 
z
" clip-path="url(#p43dcdff687)" style="fill: #1f77b4"/>
   </g>
   <g id="patch_114">
    <path d="M 262.952439 307.584 
L 263.835376 307.584 
L 263.835376 305.082216 
L 262.952439 305.082216 
z
" clip-path="url(#p43dcdff687)" style="fill: #1f77b4"/>
   </g>
   <g id="patch_115">
    <path d="M 264.01059 307.584 
L 264.893527 307.584 
L 264.893527 293.01417 
L 264.01059 293.01417 
z
" clip-path="url(#p43dcdff687)" style="fill: #1f77b4"/>
   </g>
   <g id="patch_116">
    <path d="M 264.066198 307.584 
L 264.949135 307.584 
L 264.949135 305.658561 
L 264.066198 305.658561 
z
" clip-path="url(#p43dcdff687)" style="fill: #1f77b4"/>
   </g>
   <g id="patch_117">
    <path d="M 265.118404 307.584 
L 266.001342 307.584 
L 266.001342 305.8774 
L 265.118404 305.8774 
z
" clip-path="url(#p43dcdff687)" style="fill: #1f77b4"/>
   </g>
   <g id="patch_118">
    <path d="M 265.162864 307.584 
L 266.045801 307.584 
L 266.045801 299.8085 
L 265.162864 299.8085 
z
" clip-path="url(#p43dcdff687)" style="fill: #1f77b4"/>
   </g>
   <g id="patch_119">
    <path d="M 267.360574 307.584 
L 268.243511 307.584 
L 268.243511 302.124096 
L 267.360574 302.124096 
z
" clip-path="url(#p43dcdff687)" style="fill: #1f77b4"/>
   </g>
   <g id="patch_120">
    <path d="M 268.474468 307.584 
L 269.357405 307.584 
L 269.357405 306.096034 
L 268.474468 306.096034 
z
" clip-path="url(#p43dcdff687)" style="fill: #1f77b4"/>
   </g>
   <g id="patch_121">
    <path d="M 269.545502 307.584 
L 270.42844 307.584 
L 270.42844 304.247832 
L 269.545502 304.247832 
z
" clip-path="url(#p43dcdff687)" style="fill: #1f77b4"/>
   </g>
   <g id="patch_122">
    <path d="M 275.08417 307.584 
L 275.967108 307.584 
L 275.967108 306.419584 
L 275.08417 306.419584 
z
" clip-path="url(#p43dcdff687)" style="fill: #1f77b4"/>
   </g>
   <g id="patch_123">
    <path d="M 278.381191 307.584 
L 279.264128 307.584 
L 279.264128 299.009966 
L 278.381191 299.009966 
z
" clip-path="url(#p43dcdff687)" style="fill: #1f77b4"/>
   </g>
   <g id="patch_124">
    <path d="M 279.476189 307.584 
L 280.359127 307.584 
L 280.359127 261.616644 
L 279.476189 261.616644 
z
" clip-path="url(#p43dcdff687)" style="fill: #1f77b4"/>
   </g>
   <g id="patch_125">
    <path d="M 280.585469 307.584 
L 281.468406 307.584 
L 281.468406 300.897616 
L 280.585469 300.897616 
z
" clip-path="url(#p43dcdff687)" style="fill: #1f77b4"/>
   </g>
   <g id="patch_126">
    <path d="M 282.411017 307.584 
L 283.293954 307.584 
L 283.293954 306.114428 
L 282.411017 306.114428 
z
" clip-path="url(#p43dcdff687)" style="fill: #1f77b4"/>
   </g>
   <g id="patch_127">
    <path d="M 283.928431 307.584 
L 284.811368 307.584 
L 284.811368 300.614436 
L 283.928431 300.614436 
z
" clip-path="url(#p43dcdff687)" style="fill: #1f77b4"/>
   </g>
   <g id="patch_128">
    <path d="M 285.034224 307.584 
L 285.917161 307.584 
L 285.917161 306.36273 
L 285.034224 306.36273 
z
" clip-path="url(#p43dcdff687)" style="fill: #1f77b4"/>
   </g>
   <g id="patch_129">
    <path d="M 290.51208 307.584 
L 291.395018 307.584 
L 291.395018 305.644722 
L 290.51208 305.644722 
z
" clip-path="url(#p43dcdff687)" style="fill: #1f77b4"/>
   </g>
   <g id="patch_130">
    <path d="M 291.612923 307.584 
L 292.49586 307.584 
L 292.49586 306.195365 
L 291.612923 306.195365 
z
" clip-path="url(#p43dcdff687)" style="fill: #1f77b4"/>
   </g>
   <g id="patch_131">
    <path d="M 293.84898 307.584 
L 294.731917 307.584 
L 294.731917 306.337279 
L 293.84898 306.337279 
z
" clip-path="url(#p43dcdff687)" style="fill: #1f77b4"/>
   </g>
   <g id="patch_132">
    <path d="M 294.962183 307.584 
L 295.84512 307.584 
L 295.84512 206.504198 
L 294.962183 206.504198 
z
" clip-path="url(#p43dcdff687)" style="fill: #1f77b4"/>
   </g>
   <g id="patch_133">
    <path d="M 296.066899 307.584 
L 296.949836 307.584 
L 296.949836 296.770117 
L 296.066899 296.770117 
z
" clip-path="url(#p43dcdff687)" style="fill: #1f77b4"/>
   </g>
   <g id="patch_134">
    <path d="M 309.276822 307.584 
L 310.15976 307.584 
L 310.15976 306.008713 
L 309.276822 306.008713 
z
" clip-path="url(#p43dcdff687)" style="fill: #1f77b4"/>
   </g>
   <g id="patch_135">
    <path d="M 310.379686 307.584 
L 311.262623 307.584 
L 311.262623 304.405939 
L 310.379686 304.405939 
z
" clip-path="url(#p43dcdff687)" style="fill: #1f77b4"/>
   </g>
   <g id="patch_136">
    <path d="M 310.385243 307.584 
L 311.26818 307.584 
L 311.26818 304.555454 
L 310.385243 304.555454 
z
" clip-path="url(#p43dcdff687)" style="fill: #1f77b4"/>
   </g>
   <g id="patch_137">
    <path d="M 311.490565 307.584 
L 312.373502 307.584 
L 312.373502 306.453261 
L 311.490565 306.453261 
z
" clip-path="url(#p43dcdff687)" style="fill: #1f77b4"/>
   </g>
   <g id="patch_138">
    <path d="M 314.824685 307.584 
L 315.707623 307.584 
L 315.707623 301.437486 
L 314.824685 301.437486 
z
" clip-path="url(#p43dcdff687)" style="fill: #1f77b4"/>
   </g>
   <g id="patch_139">
    <path d="M 317.157054 307.584 
L 318.039991 307.584 
L 318.039991 305.612043 
L 317.157054 305.612043 
z
" clip-path="url(#p43dcdff687)" style="fill: #1f77b4"/>
   </g>
   <g id="patch_140">
    <path d="M 326.958034 307.584 
L 327.840971 307.584 
L 327.840971 305.817878 
L 326.958034 305.817878 
z
" clip-path="url(#p43dcdff687)" style="fill: #1f77b4"/>
   </g>
   <g id="patch_141">
    <path d="M 329.154532 307.584 
L 330.037469 307.584 
L 330.037469 306.436886 
L 329.154532 306.436886 
z
" clip-path="url(#p43dcdff687)" style="fill: #1f77b4"/>
   </g>
   <g id="patch_142">
    <path d="M 337.037559 307.584 
L 337.920496 307.584 
L 337.920496 304.828542 
L 337.037559 304.828542 
z
" clip-path="url(#p43dcdff687)" style="fill: #1f77b4"/>
   </g>
   <g id="patch_143">
    <path d="M 340.241737 307.584 
L 341.124674 307.584 
L 341.124674 306.078466 
L 340.241737 306.078466 
z
" clip-path="url(#p43dcdff687)" style="fill: #1f77b4"/>
   </g>
   <g id="patch_144">
    <path d="M 341.274913 307.584 
L 342.15785 307.584 
L 342.15785 305.81446 
L 341.274913 305.81446 
z
" clip-path="url(#p43dcdff687)" style="fill: #1f77b4"/>
   </g>
   <g id="patch_145">
    <path d="M 345.735541 307.584 
L 346.618478 307.584 
L 346.618478 305.010368 
L 345.735541 305.010368 
z
" clip-path="url(#p43dcdff687)" style="fill: #1f77b4"/>
   </g>
   <g id="patch_146">
    <path d="M 358.260705 307.584 
L 359.143642 307.584 
L 359.143642 305.984743 
L 358.260705 305.984743 
z
" clip-path="url(#p43dcdff687)" style="fill: #1f77b4"/>
   </g>
   <g id="patch_147">
    <path d="M 361.152286 307.584 
L 362.035223 307.584 
L 362.035223 305.730868 
L 361.152286 305.730868 
z
" clip-path="url(#p43dcdff687)" style="fill: #1f77b4"/>
   </g>
   <g id="patch_148">
    <path d="M 372.194863 307.584 
L 373.0778 307.584 
L 373.0778 306.148418 
L 372.194863 306.148418 
z
" clip-path="url(#p43dcdff687)" style="fill: #1f77b4"/>
   </g>
   <g id="patch_149">
    <path d="M 376.619654 307.584 
L 377.502591 307.584 
L 377.502591 54.144 
L 376.619654 54.144 
z
" clip-path="url(#p43dcdff687)" style="fill: #1f77b4"/>
   </g>
   <g id="patch_150">
    <path d="M 377.726794 307.584 
L 378.609732 307.584 
L 378.609732 273.954513 
L 377.726794 273.954513 
z
" clip-path="url(#p43dcdff687)" style="fill: #1f77b4"/>
   </g>
   <g id="patch_151">
    <path d="M 395.311812 307.584 
L 396.194749 307.584 
L 396.194749 306.371141 
L 395.311812 306.371141 
z
" clip-path="url(#p43dcdff687)" style="fill: #1f77b4"/>
   </g>
   <g id="patch_152">
    <path d="M 395.701943 307.584 
L 396.584881 307.584 
L 396.584881 306.119648 
L 395.701943 306.119648 
z
" clip-path="url(#p43dcdff687)" style="fill: #1f77b4"/>
   </g>
   <g id="patch_153">
    <path d="M 396.497397 307.584 
L 397.380334 307.584 
L 397.380334 176.184336 
L 396.497397 176.184336 
z
" clip-path="url(#p43dcdff687)" style="fill: #1f77b4"/>
   </g>
   <g id="patch_154">
    <path d="M 397.604335 307.584 
L 398.487273 307.584 
L 398.487273 293.528416 
L 397.604335 293.528416 
z
" clip-path="url(#p43dcdff687)" style="fill: #1f77b4"/>
   </g>
   <g id="matplotlib.axis_1">
    <g id="xtick_1">
     <g id="line2d_1">
      <defs>
       <path id="me5ecd4ff45" d="M 0 0 
L 0 3.5 
" style="stroke: #000000; stroke-width: 0.8"/>
      </defs>
      <g>
       <use xlink:href="#me5ecd4ff45" x="71.276919" y="307.584" style="stroke: #000000; stroke-width: 0.8"/>
      </g>
     </g>
     <g id="text_1">
      <!-- 50 -->
      <g transform="translate(64.914419 322.182437) scale(0.1 -0.1)">
       <defs>
        <path id="DejaVuSans-35" d="M 691 4666 
L 3169 4666 
L 3169 4134 
L 1269 4134 
L 1269 2991 
Q 1406 3038 1543 3061 
Q 1681 3084 1819 3084 
Q 2600 3084 3056 2656 
Q 3513 2228 3513 1497 
Q 3513 744 3044 326 
Q 2575 -91 1722 -91 
Q 1428 -91 1123 -41 
Q 819 9 494 109 
L 494 744 
Q 775 591 1075 516 
Q 1375 441 1709 441 
Q 2250 441 2565 725 
Q 2881 1009 2881 1497 
Q 2881 1984 2565 2268 
Q 2250 2553 1709 2553 
Q 1456 2553 1204 2497 
Q 953 2441 691 2322 
L 691 4666 
z
" transform="scale(0.015625)"/>
        <path id="DejaVuSans-30" d="M 2034 4250 
Q 1547 4250 1301 3770 
Q 1056 3291 1056 2328 
Q 1056 1369 1301 889 
Q 1547 409 2034 409 
Q 2525 409 2770 889 
Q 3016 1369 3016 2328 
Q 3016 3291 2770 3770 
Q 2525 4250 2034 4250 
z
M 2034 4750 
Q 2819 4750 3233 4129 
Q 3647 3509 3647 2328 
Q 3647 1150 3233 529 
Q 2819 -91 2034 -91 
Q 1250 -91 836 529 
Q 422 1150 422 2328 
Q 422 3509 836 4129 
Q 1250 4750 2034 4750 
z
" transform="scale(0.015625)"/>
       </defs>
       <use xlink:href="#DejaVuSans-35"/>
       <use xlink:href="#DejaVuSans-30" x="63.623047"/>
      </g>
     </g>
    </g>
    <g id="xtick_2">
     <g id="line2d_2">
      <g>
       <use xlink:href="#me5ecd4ff45" x="126.460501" y="307.584" style="stroke: #000000; stroke-width: 0.8"/>
      </g>
     </g>
     <g id="text_2">
      <!-- 100 -->
      <g transform="translate(116.916751 322.182437) scale(0.1 -0.1)">
       <defs>
        <path id="DejaVuSans-31" d="M 794 531 
L 1825 531 
L 1825 4091 
L 703 3866 
L 703 4441 
L 1819 4666 
L 2450 4666 
L 2450 531 
L 3481 531 
L 3481 0 
L 794 0 
L 794 531 
z
" transform="scale(0.015625)"/>
       </defs>
       <use xlink:href="#DejaVuSans-31"/>
       <use xlink:href="#DejaVuSans-30" x="63.623047"/>
       <use xlink:href="#DejaVuSans-30" x="127.246094"/>
      </g>
     </g>
    </g>
    <g id="xtick_3">
     <g id="line2d_3">
      <g>
       <use xlink:href="#me5ecd4ff45" x="181.644082" y="307.584" style="stroke: #000000; stroke-width: 0.8"/>
      </g>
     </g>
     <g id="text_3">
      <!-- 150 -->
      <g transform="translate(172.100332 322.182437) scale(0.1 -0.1)">
       <use xlink:href="#DejaVuSans-31"/>
       <use xlink:href="#DejaVuSans-35" x="63.623047"/>
       <use xlink:href="#DejaVuSans-30" x="127.246094"/>
      </g>
     </g>
    </g>
    <g id="xtick_4">
     <g id="line2d_4">
      <g>
       <use xlink:href="#me5ecd4ff45" x="236.827664" y="307.584" style="stroke: #000000; stroke-width: 0.8"/>
      </g>
     </g>
     <g id="text_4">
      <!-- 200 -->
      <g transform="translate(227.283914 322.182437) scale(0.1 -0.1)">
       <defs>
        <path id="DejaVuSans-32" d="M 1228 531 
L 3431 531 
L 3431 0 
L 469 0 
L 469 531 
Q 828 903 1448 1529 
Q 2069 2156 2228 2338 
Q 2531 2678 2651 2914 
Q 2772 3150 2772 3378 
Q 2772 3750 2511 3984 
Q 2250 4219 1831 4219 
Q 1534 4219 1204 4116 
Q 875 4013 500 3803 
L 500 4441 
Q 881 4594 1212 4672 
Q 1544 4750 1819 4750 
Q 2544 4750 2975 4387 
Q 3406 4025 3406 3419 
Q 3406 3131 3298 2873 
Q 3191 2616 2906 2266 
Q 2828 2175 2409 1742 
Q 1991 1309 1228 531 
z
" transform="scale(0.015625)"/>
       </defs>
       <use xlink:href="#DejaVuSans-32"/>
       <use xlink:href="#DejaVuSans-30" x="63.623047"/>
       <use xlink:href="#DejaVuSans-30" x="127.246094"/>
      </g>
     </g>
    </g>
    <g id="xtick_5">
     <g id="line2d_5">
      <g>
       <use xlink:href="#me5ecd4ff45" x="292.011246" y="307.584" style="stroke: #000000; stroke-width: 0.8"/>
      </g>
     </g>
     <g id="text_5">
      <!-- 250 -->
      <g transform="translate(282.467496 322.182437) scale(0.1 -0.1)">
       <use xlink:href="#DejaVuSans-32"/>
       <use xlink:href="#DejaVuSans-35" x="63.623047"/>
       <use xlink:href="#DejaVuSans-30" x="127.246094"/>
      </g>
     </g>
    </g>
    <g id="xtick_6">
     <g id="line2d_6">
      <g>
       <use xlink:href="#me5ecd4ff45" x="347.194827" y="307.584" style="stroke: #000000; stroke-width: 0.8"/>
      </g>
     </g>
     <g id="text_6">
      <!-- 300 -->
      <g transform="translate(337.651077 322.182437) scale(0.1 -0.1)">
       <defs>
        <path id="DejaVuSans-33" d="M 2597 2516 
Q 3050 2419 3304 2112 
Q 3559 1806 3559 1356 
Q 3559 666 3084 287 
Q 2609 -91 1734 -91 
Q 1441 -91 1130 -33 
Q 819 25 488 141 
L 488 750 
Q 750 597 1062 519 
Q 1375 441 1716 441 
Q 2309 441 2620 675 
Q 2931 909 2931 1356 
Q 2931 1769 2642 2001 
Q 2353 2234 1838 2234 
L 1294 2234 
L 1294 2753 
L 1863 2753 
Q 2328 2753 2575 2939 
Q 2822 3125 2822 3475 
Q 2822 3834 2567 4026 
Q 2313 4219 1838 4219 
Q 1578 4219 1281 4162 
Q 984 4106 628 3988 
L 628 4550 
Q 988 4650 1302 4700 
Q 1616 4750 1894 4750 
Q 2613 4750 3031 4423 
Q 3450 4097 3450 3541 
Q 3450 3153 3228 2886 
Q 3006 2619 2597 2516 
z
" transform="scale(0.015625)"/>
       </defs>
       <use xlink:href="#DejaVuSans-33"/>
       <use xlink:href="#DejaVuSans-30" x="63.623047"/>
       <use xlink:href="#DejaVuSans-30" x="127.246094"/>
      </g>
     </g>
    </g>
    <g id="xtick_7">
     <g id="line2d_7">
      <g>
       <use xlink:href="#me5ecd4ff45" x="402.378409" y="307.584" style="stroke: #000000; stroke-width: 0.8"/>
      </g>
     </g>
     <g id="text_7">
      <!-- 350 -->
      <g transform="translate(392.834659 322.182437) scale(0.1 -0.1)">
       <use xlink:href="#DejaVuSans-33"/>
       <use xlink:href="#DejaVuSans-35" x="63.623047"/>
       <use xlink:href="#DejaVuSans-30" x="127.246094"/>
      </g>
     </g>
    </g>
    <g id="text_8">
     <!-- ${m/z}$ -->
     <g transform="translate(226.96 335.860562) scale(0.1 -0.1)">
      <defs>
       <path id="DejaVuSans-Oblique-6d" d="M 5747 2113 
L 5338 0 
L 4763 0 
L 5166 2094 
Q 5191 2228 5203 2325 
Q 5216 2422 5216 2491 
Q 5216 2772 5059 2928 
Q 4903 3084 4622 3084 
Q 4203 3084 3875 2770 
Q 3547 2456 3450 1953 
L 3066 0 
L 2491 0 
L 2900 2094 
Q 2925 2209 2937 2307 
Q 2950 2406 2950 2484 
Q 2950 2769 2794 2926 
Q 2638 3084 2363 3084 
Q 1938 3084 1609 2770 
Q 1281 2456 1184 1953 
L 800 0 
L 225 0 
L 909 3500 
L 1484 3500 
L 1375 2956 
Q 1609 3263 1923 3423 
Q 2238 3584 2597 3584 
Q 2978 3584 3223 3384 
Q 3469 3184 3519 2828 
Q 3781 3197 4126 3390 
Q 4472 3584 4856 3584 
Q 5306 3584 5551 3325 
Q 5797 3066 5797 2591 
Q 5797 2488 5784 2364 
Q 5772 2241 5747 2113 
z
" transform="scale(0.015625)"/>
       <path id="DejaVuSans-2f" d="M 1625 4666 
L 2156 4666 
L 531 -594 
L 0 -594 
L 1625 4666 
z
" transform="scale(0.015625)"/>
       <path id="DejaVuSans-Oblique-7a" d="M 744 3500 
L 3475 3500 
L 3372 2975 
L 738 459 
L 2913 459 
L 2822 0 
L -19 0 
L 84 525 
L 2719 3041 
L 653 3041 
L 744 3500 
z
" transform="scale(0.015625)"/>
      </defs>
      <use xlink:href="#DejaVuSans-Oblique-6d" transform="translate(0 0.09375)"/>
      <use xlink:href="#DejaVuSans-2f" transform="translate(97.412109 0.09375)"/>
      <use xlink:href="#DejaVuSans-Oblique-7a" transform="translate(131.103516 0.09375)"/>
     </g>
    </g>
   </g>
   <g id="matplotlib.axis_2">
    <g id="ytick_1">
     <g id="line2d_8">
      <defs>
       <path id="mb799fe5c49" d="M 0 0 
L -3.5 0 
" style="stroke: #000000; stroke-width: 0.8"/>
      </defs>
      <g>
       <use xlink:href="#mb799fe5c49" x="57.6" y="307.584" style="stroke: #000000; stroke-width: 0.8"/>
      </g>
     </g>
     <g id="text_9">
      <!-- 0.0 -->
      <g transform="translate(34.696875 311.383219) scale(0.1 -0.1)">
       <defs>
        <path id="DejaVuSans-2e" d="M 684 794 
L 1344 794 
L 1344 0 
L 684 0 
L 684 794 
z
" transform="scale(0.015625)"/>
       </defs>
       <use xlink:href="#DejaVuSans-30"/>
       <use xlink:href="#DejaVuSans-2e" x="63.623047"/>
       <use xlink:href="#DejaVuSans-30" x="95.410156"/>
      </g>
     </g>
    </g>
    <g id="ytick_2">
     <g id="line2d_9">
      <g>
       <use xlink:href="#mb799fe5c49" x="57.6" y="260.593822" style="stroke: #000000; stroke-width: 0.8"/>
      </g>
     </g>
     <g id="text_10">
      <!-- 0.2 -->
      <g transform="translate(34.696875 264.39304) scale(0.1 -0.1)">
       <use xlink:href="#DejaVuSans-30"/>
       <use xlink:href="#DejaVuSans-2e" x="63.623047"/>
       <use xlink:href="#DejaVuSans-32" x="95.410156"/>
      </g>
     </g>
    </g>
    <g id="ytick_3">
     <g id="line2d_10">
      <g>
       <use xlink:href="#mb799fe5c49" x="57.6" y="213.603643" style="stroke: #000000; stroke-width: 0.8"/>
      </g>
     </g>
     <g id="text_11">
      <!-- 0.4 -->
      <g transform="translate(34.696875 217.402862) scale(0.1 -0.1)">
       <defs>
        <path id="DejaVuSans-34" d="M 2419 4116 
L 825 1625 
L 2419 1625 
L 2419 4116 
z
M 2253 4666 
L 3047 4666 
L 3047 1625 
L 3713 1625 
L 3713 1100 
L 3047 1100 
L 3047 0 
L 2419 0 
L 2419 1100 
L 313 1100 
L 313 1709 
L 2253 4666 
z
" transform="scale(0.015625)"/>
       </defs>
       <use xlink:href="#DejaVuSans-30"/>
       <use xlink:href="#DejaVuSans-2e" x="63.623047"/>
       <use xlink:href="#DejaVuSans-34" x="95.410156"/>
      </g>
     </g>
    </g>
    <g id="ytick_4">
     <g id="line2d_11">
      <g>
       <use xlink:href="#mb799fe5c49" x="57.6" y="166.613465" style="stroke: #000000; stroke-width: 0.8"/>
      </g>
     </g>
     <g id="text_12">
      <!-- 0.6 -->
      <g transform="translate(34.696875 170.412684) scale(0.1 -0.1)">
       <defs>
        <path id="DejaVuSans-36" d="M 2113 2584 
Q 1688 2584 1439 2293 
Q 1191 2003 1191 1497 
Q 1191 994 1439 701 
Q 1688 409 2113 409 
Q 2538 409 2786 701 
Q 3034 994 3034 1497 
Q 3034 2003 2786 2293 
Q 2538 2584 2113 2584 
z
M 3366 4563 
L 3366 3988 
Q 3128 4100 2886 4159 
Q 2644 4219 2406 4219 
Q 1781 4219 1451 3797 
Q 1122 3375 1075 2522 
Q 1259 2794 1537 2939 
Q 1816 3084 2150 3084 
Q 2853 3084 3261 2657 
Q 3669 2231 3669 1497 
Q 3669 778 3244 343 
Q 2819 -91 2113 -91 
Q 1303 -91 875 529 
Q 447 1150 447 2328 
Q 447 3434 972 4092 
Q 1497 4750 2381 4750 
Q 2619 4750 2861 4703 
Q 3103 4656 3366 4563 
z
" transform="scale(0.015625)"/>
       </defs>
       <use xlink:href="#DejaVuSans-30"/>
       <use xlink:href="#DejaVuSans-2e" x="63.623047"/>
       <use xlink:href="#DejaVuSans-36" x="95.410156"/>
      </g>
     </g>
    </g>
    <g id="ytick_5">
     <g id="line2d_12">
      <g>
       <use xlink:href="#mb799fe5c49" x="57.6" y="119.623286" style="stroke: #000000; stroke-width: 0.8"/>
      </g>
     </g>
     <g id="text_13">
      <!-- 0.8 -->
      <g transform="translate(34.696875 123.422505) scale(0.1 -0.1)">
       <defs>
        <path id="DejaVuSans-38" d="M 2034 2216 
Q 1584 2216 1326 1975 
Q 1069 1734 1069 1313 
Q 1069 891 1326 650 
Q 1584 409 2034 409 
Q 2484 409 2743 651 
Q 3003 894 3003 1313 
Q 3003 1734 2745 1975 
Q 2488 2216 2034 2216 
z
M 1403 2484 
Q 997 2584 770 2862 
Q 544 3141 544 3541 
Q 544 4100 942 4425 
Q 1341 4750 2034 4750 
Q 2731 4750 3128 4425 
Q 3525 4100 3525 3541 
Q 3525 3141 3298 2862 
Q 3072 2584 2669 2484 
Q 3125 2378 3379 2068 
Q 3634 1759 3634 1313 
Q 3634 634 3220 271 
Q 2806 -91 2034 -91 
Q 1263 -91 848 271 
Q 434 634 434 1313 
Q 434 1759 690 2068 
Q 947 2378 1403 2484 
z
M 1172 3481 
Q 1172 3119 1398 2916 
Q 1625 2713 2034 2713 
Q 2441 2713 2670 2916 
Q 2900 3119 2900 3481 
Q 2900 3844 2670 4047 
Q 2441 4250 2034 4250 
Q 1625 4250 1398 4047 
Q 1172 3844 1172 3481 
z
" transform="scale(0.015625)"/>
       </defs>
       <use xlink:href="#DejaVuSans-30"/>
       <use xlink:href="#DejaVuSans-2e" x="63.623047"/>
       <use xlink:href="#DejaVuSans-38" x="95.410156"/>
      </g>
     </g>
    </g>
    <g id="ytick_6">
     <g id="line2d_13">
      <g>
       <use xlink:href="#mb799fe5c49" x="57.6" y="72.633108" style="stroke: #000000; stroke-width: 0.8"/>
      </g>
     </g>
     <g id="text_14">
      <!-- 1.0 -->
      <g transform="translate(34.696875 76.432327) scale(0.1 -0.1)">
       <use xlink:href="#DejaVuSans-31"/>
       <use xlink:href="#DejaVuSans-2e" x="63.623047"/>
       <use xlink:href="#DejaVuSans-30" x="95.410156"/>
      </g>
     </g>
    </g>
    <g id="text_15">
     <!-- intensities -->
     <g transform="translate(28.617187 200.3155) rotate(-90) scale(0.1 -0.1)">
      <defs>
       <path id="DejaVuSans-69" d="M 603 3500 
L 1178 3500 
L 1178 0 
L 603 0 
L 603 3500 
z
M 603 4863 
L 1178 4863 
L 1178 4134 
L 603 4134 
L 603 4863 
z
" transform="scale(0.015625)"/>
       <path id="DejaVuSans-6e" d="M 3513 2113 
L 3513 0 
L 2938 0 
L 2938 2094 
Q 2938 2591 2744 2837 
Q 2550 3084 2163 3084 
Q 1697 3084 1428 2787 
Q 1159 2491 1159 1978 
L 1159 0 
L 581 0 
L 581 3500 
L 1159 3500 
L 1159 2956 
Q 1366 3272 1645 3428 
Q 1925 3584 2291 3584 
Q 2894 3584 3203 3211 
Q 3513 2838 3513 2113 
z
" transform="scale(0.015625)"/>
       <path id="DejaVuSans-74" d="M 1172 4494 
L 1172 3500 
L 2356 3500 
L 2356 3053 
L 1172 3053 
L 1172 1153 
Q 1172 725 1289 603 
Q 1406 481 1766 481 
L 2356 481 
L 2356 0 
L 1766 0 
Q 1100 0 847 248 
Q 594 497 594 1153 
L 594 3053 
L 172 3053 
L 172 3500 
L 594 3500 
L 594 4494 
L 1172 4494 
z
" transform="scale(0.015625)"/>
       <path id="DejaVuSans-65" d="M 3597 1894 
L 3597 1613 
L 953 1613 
Q 991 1019 1311 708 
Q 1631 397 2203 397 
Q 2534 397 2845 478 
Q 3156 559 3463 722 
L 3463 178 
Q 3153 47 2828 -22 
Q 2503 -91 2169 -91 
Q 1331 -91 842 396 
Q 353 884 353 1716 
Q 353 2575 817 3079 
Q 1281 3584 2069 3584 
Q 2775 3584 3186 3129 
Q 3597 2675 3597 1894 
z
M 3022 2063 
Q 3016 2534 2758 2815 
Q 2500 3097 2075 3097 
Q 1594 3097 1305 2825 
Q 1016 2553 972 2059 
L 3022 2063 
z
" transform="scale(0.015625)"/>
       <path id="DejaVuSans-73" d="M 2834 3397 
L 2834 2853 
Q 2591 2978 2328 3040 
Q 2066 3103 1784 3103 
Q 1356 3103 1142 2972 
Q 928 2841 928 2578 
Q 928 2378 1081 2264 
Q 1234 2150 1697 2047 
L 1894 2003 
Q 2506 1872 2764 1633 
Q 3022 1394 3022 966 
Q 3022 478 2636 193 
Q 2250 -91 1575 -91 
Q 1294 -91 989 -36 
Q 684 19 347 128 
L 347 722 
Q 666 556 975 473 
Q 1284 391 1588 391 
Q 1994 391 2212 530 
Q 2431 669 2431 922 
Q 2431 1156 2273 1281 
Q 2116 1406 1581 1522 
L 1381 1569 
Q 847 1681 609 1914 
Q 372 2147 372 2553 
Q 372 3047 722 3315 
Q 1072 3584 1716 3584 
Q 2034 3584 2315 3537 
Q 2597 3491 2834 3397 
z
" transform="scale(0.015625)"/>
      </defs>
      <use xlink:href="#DejaVuSans-69"/>
      <use xlink:href="#DejaVuSans-6e" x="27.783203"/>
      <use xlink:href="#DejaVuSans-74" x="91.162109"/>
      <use xlink:href="#DejaVuSans-65" x="130.371094"/>
      <use xlink:href="#DejaVuSans-6e" x="191.894531"/>
      <use xlink:href="#DejaVuSans-73" x="255.273438"/>
      <use xlink:href="#DejaVuSans-69" x="307.373047"/>
      <use xlink:href="#DejaVuSans-74" x="335.15625"/>
      <use xlink:href="#DejaVuSans-69" x="374.365234"/>
      <use xlink:href="#DejaVuSans-65" x="402.148438"/>
      <use xlink:href="#DejaVuSans-73" x="463.671875"/>
     </g>
    </g>
    <g id="text_16">
     <!-- 1e6 -->
     <g transform="translate(57.6 38.472) scale(0.1 -0.1)">
      <use xlink:href="#DejaVuSans-31"/>
      <use xlink:href="#DejaVuSans-65" x="63.623047"/>
      <use xlink:href="#DejaVuSans-36" x="125.146484"/>
     </g>
    </g>
   </g>
   <g id="patch_155">
    <path d="M 57.6 307.584 
L 57.6 41.472 
" style="fill: none; stroke: #000000; stroke-width: 0.8; stroke-linejoin: miter; stroke-linecap: square"/>
   </g>
   <g id="patch_156">
    <path d="M 414.72 307.584 
L 414.72 41.472 
" style="fill: none; stroke: #000000; stroke-width: 0.8; stroke-linejoin: miter; stroke-linecap: square"/>
   </g>
   <g id="patch_157">
    <path d="M 57.6 307.584 
L 414.72 307.584 
" style="fill: none; stroke: #000000; stroke-width: 0.8; stroke-linejoin: miter; stroke-linecap: square"/>
   </g>
   <g id="patch_158">
    <path d="M 57.6 41.472 
L 414.72 41.472 
" style="fill: none; stroke: #000000; stroke-width: 0.8; stroke-linejoin: miter; stroke-linecap: square"/>
   </g>
   <g id="text_17">
    <!-- 197.0343 -->
    <g transform="translate(222.839769 256.855513) scale(0.06 -0.06)">
     <defs>
      <path id="DejaVuSans-39" d="M 703 97 
L 703 672 
Q 941 559 1184 500 
Q 1428 441 1663 441 
Q 2288 441 2617 861 
Q 2947 1281 2994 2138 
Q 2813 1869 2534 1725 
Q 2256 1581 1919 1581 
Q 1219 1581 811 2004 
Q 403 2428 403 3163 
Q 403 3881 828 4315 
Q 1253 4750 1959 4750 
Q 2769 4750 3195 4129 
Q 3622 3509 3622 2328 
Q 3622 1225 3098 567 
Q 2575 -91 1691 -91 
Q 1453 -91 1209 -44 
Q 966 3 703 97 
z
M 1959 2075 
Q 2384 2075 2632 2365 
Q 2881 2656 2881 3163 
Q 2881 3666 2632 3958 
Q 2384 4250 1959 4250 
Q 1534 4250 1286 3958 
Q 1038 3666 1038 3163 
Q 1038 2656 1286 2365 
Q 1534 2075 1959 2075 
z
" transform="scale(0.015625)"/>
      <path id="DejaVuSans-37" d="M 525 4666 
L 3525 4666 
L 3525 4397 
L 1831 0 
L 1172 0 
L 2766 4134 
L 525 4134 
L 525 4666 
z
" transform="scale(0.015625)"/>
     </defs>
     <use xlink:href="#DejaVuSans-31"/>
     <use xlink:href="#DejaVuSans-39" x="63.623047"/>
     <use xlink:href="#DejaVuSans-37" x="127.246094"/>
     <use xlink:href="#DejaVuSans-2e" x="190.869141"/>
     <use xlink:href="#DejaVuSans-30" x="222.65625"/>
     <use xlink:href="#DejaVuSans-33" x="286.279297"/>
     <use xlink:href="#DejaVuSans-34" x="349.902344"/>
     <use xlink:href="#DejaVuSans-33" x="413.525391"/>
    </g>
   </g>
   <g id="text_18">
    <!-- 221.047 -->
    <g transform="translate(251.250734 209.478121) scale(0.06 -0.06)">
     <use xlink:href="#DejaVuSans-32"/>
     <use xlink:href="#DejaVuSans-32" x="63.623047"/>
     <use xlink:href="#DejaVuSans-31" x="127.246094"/>
     <use xlink:href="#DejaVuSans-2e" x="190.869141"/>
     <use xlink:href="#DejaVuSans-30" x="222.65625"/>
     <use xlink:href="#DejaVuSans-34" x="286.279297"/>
     <use xlink:href="#DejaVuSans-37" x="349.902344"/>
    </g>
   </g>
   <g id="text_19">
    <!-- 222.056 -->
    <g transform="translate(243.724274 286.704359) scale(0.06 -0.06)">
     <use xlink:href="#DejaVuSans-32"/>
     <use xlink:href="#DejaVuSans-32" x="63.623047"/>
     <use xlink:href="#DejaVuSans-32" x="127.246094"/>
     <use xlink:href="#DejaVuSans-2e" x="190.869141"/>
     <use xlink:href="#DejaVuSans-30" x="222.65625"/>
     <use xlink:href="#DejaVuSans-35" x="286.279297"/>
     <use xlink:href="#DejaVuSans-36" x="349.902344"/>
    </g>
   </g>
   <g id="text_20">
    <!-- 239.0424 -->
    <g transform="translate(269.202971 258.412269) scale(0.06 -0.06)">
     <use xlink:href="#DejaVuSans-32"/>
     <use xlink:href="#DejaVuSans-33" x="63.623047"/>
     <use xlink:href="#DejaVuSans-39" x="127.246094"/>
     <use xlink:href="#DejaVuSans-2e" x="190.869141"/>
     <use xlink:href="#DejaVuSans-30" x="222.65625"/>
     <use xlink:href="#DejaVuSans-34" x="286.279297"/>
     <use xlink:href="#DejaVuSans-32" x="349.902344"/>
     <use xlink:href="#DejaVuSans-34" x="413.525391"/>
    </g>
   </g>
   <g id="text_21">
    <!-- 253.0737 -->
    <g transform="translate(284.688964 203.299823) scale(0.06 -0.06)">
     <use xlink:href="#DejaVuSans-32"/>
     <use xlink:href="#DejaVuSans-35" x="63.623047"/>
     <use xlink:href="#DejaVuSans-33" x="127.246094"/>
     <use xlink:href="#DejaVuSans-2e" x="190.869141"/>
     <use xlink:href="#DejaVuSans-30" x="222.65625"/>
     <use xlink:href="#DejaVuSans-37" x="286.279297"/>
     <use xlink:href="#DejaVuSans-33" x="349.902344"/>
     <use xlink:href="#DejaVuSans-37" x="413.525391"/>
    </g>
   </g>
   <g id="text_22">
    <!-- 327.0609 -->
    <g transform="translate(366.346435 50.939625) scale(0.06 -0.06)">
     <use xlink:href="#DejaVuSans-33"/>
     <use xlink:href="#DejaVuSans-32" x="63.623047"/>
     <use xlink:href="#DejaVuSans-37" x="127.246094"/>
     <use xlink:href="#DejaVuSans-2e" x="190.869141"/>
     <use xlink:href="#DejaVuSans-30" x="222.65625"/>
     <use xlink:href="#DejaVuSans-36" x="286.279297"/>
     <use xlink:href="#DejaVuSans-30" x="349.902344"/>
     <use xlink:href="#DejaVuSans-39" x="413.525391"/>
    </g>
   </g>
   <g id="text_23">
    <!-- 328.064 -->
    <g transform="translate(369.362325 270.750138) scale(0.06 -0.06)">
     <use xlink:href="#DejaVuSans-33"/>
     <use xlink:href="#DejaVuSans-32" x="63.623047"/>
     <use xlink:href="#DejaVuSans-38" x="127.246094"/>
     <use xlink:href="#DejaVuSans-2e" x="190.869141"/>
     <use xlink:href="#DejaVuSans-30" x="222.65625"/>
     <use xlink:href="#DejaVuSans-36" x="286.279297"/>
     <use xlink:href="#DejaVuSans-34" x="349.902344"/>
    </g>
   </g>
   <g id="text_24">
    <!-- 345.0714 -->
    <g transform="translate(386.224178 172.979961) scale(0.06 -0.06)">
     <use xlink:href="#DejaVuSans-33"/>
     <use xlink:href="#DejaVuSans-34" x="63.623047"/>
     <use xlink:href="#DejaVuSans-35" x="127.246094"/>
     <use xlink:href="#DejaVuSans-2e" x="190.869141"/>
     <use xlink:href="#DejaVuSans-30" x="222.65625"/>
     <use xlink:href="#DejaVuSans-37" x="286.279297"/>
     <use xlink:href="#DejaVuSans-31" x="349.902344"/>
     <use xlink:href="#DejaVuSans-34" x="413.525391"/>
    </g>
   </g>
   <g id="text_25">
    <!-- MS2 spectrum of ${m/z}$ 345.0706, scan time 7.09 min. -->
    <g transform="translate(57.6 24.873562) scale(0.12 -0.12)">
     <defs>
      <path id="DejaVuSans-4d" d="M 628 4666 
L 1569 4666 
L 2759 1491 
L 3956 4666 
L 4897 4666 
L 4897 0 
L 4281 0 
L 4281 4097 
L 3078 897 
L 2444 897 
L 1241 4097 
L 1241 0 
L 628 0 
L 628 4666 
z
" transform="scale(0.015625)"/>
      <path id="DejaVuSans-53" d="M 3425 4513 
L 3425 3897 
Q 3066 4069 2747 4153 
Q 2428 4238 2131 4238 
Q 1616 4238 1336 4038 
Q 1056 3838 1056 3469 
Q 1056 3159 1242 3001 
Q 1428 2844 1947 2747 
L 2328 2669 
Q 3034 2534 3370 2195 
Q 3706 1856 3706 1288 
Q 3706 609 3251 259 
Q 2797 -91 1919 -91 
Q 1588 -91 1214 -16 
Q 841 59 441 206 
L 441 856 
Q 825 641 1194 531 
Q 1563 422 1919 422 
Q 2459 422 2753 634 
Q 3047 847 3047 1241 
Q 3047 1584 2836 1778 
Q 2625 1972 2144 2069 
L 1759 2144 
Q 1053 2284 737 2584 
Q 422 2884 422 3419 
Q 422 4038 858 4394 
Q 1294 4750 2059 4750 
Q 2388 4750 2728 4690 
Q 3069 4631 3425 4513 
z
" transform="scale(0.015625)"/>
      <path id="DejaVuSans-20" transform="scale(0.015625)"/>
      <path id="DejaVuSans-70" d="M 1159 525 
L 1159 -1331 
L 581 -1331 
L 581 3500 
L 1159 3500 
L 1159 2969 
Q 1341 3281 1617 3432 
Q 1894 3584 2278 3584 
Q 2916 3584 3314 3078 
Q 3713 2572 3713 1747 
Q 3713 922 3314 415 
Q 2916 -91 2278 -91 
Q 1894 -91 1617 61 
Q 1341 213 1159 525 
z
M 3116 1747 
Q 3116 2381 2855 2742 
Q 2594 3103 2138 3103 
Q 1681 3103 1420 2742 
Q 1159 2381 1159 1747 
Q 1159 1113 1420 752 
Q 1681 391 2138 391 
Q 2594 391 2855 752 
Q 3116 1113 3116 1747 
z
" transform="scale(0.015625)"/>
      <path id="DejaVuSans-63" d="M 3122 3366 
L 3122 2828 
Q 2878 2963 2633 3030 
Q 2388 3097 2138 3097 
Q 1578 3097 1268 2742 
Q 959 2388 959 1747 
Q 959 1106 1268 751 
Q 1578 397 2138 397 
Q 2388 397 2633 464 
Q 2878 531 3122 666 
L 3122 134 
Q 2881 22 2623 -34 
Q 2366 -91 2075 -91 
Q 1284 -91 818 406 
Q 353 903 353 1747 
Q 353 2603 823 3093 
Q 1294 3584 2113 3584 
Q 2378 3584 2631 3529 
Q 2884 3475 3122 3366 
z
" transform="scale(0.015625)"/>
      <path id="DejaVuSans-72" d="M 2631 2963 
Q 2534 3019 2420 3045 
Q 2306 3072 2169 3072 
Q 1681 3072 1420 2755 
Q 1159 2438 1159 1844 
L 1159 0 
L 581 0 
L 581 3500 
L 1159 3500 
L 1159 2956 
Q 1341 3275 1631 3429 
Q 1922 3584 2338 3584 
Q 2397 3584 2469 3576 
Q 2541 3569 2628 3553 
L 2631 2963 
z
" transform="scale(0.015625)"/>
      <path id="DejaVuSans-75" d="M 544 1381 
L 544 3500 
L 1119 3500 
L 1119 1403 
Q 1119 906 1312 657 
Q 1506 409 1894 409 
Q 2359 409 2629 706 
Q 2900 1003 2900 1516 
L 2900 3500 
L 3475 3500 
L 3475 0 
L 2900 0 
L 2900 538 
Q 2691 219 2414 64 
Q 2138 -91 1772 -91 
Q 1169 -91 856 284 
Q 544 659 544 1381 
z
M 1991 3584 
L 1991 3584 
z
" transform="scale(0.015625)"/>
      <path id="DejaVuSans-6d" d="M 3328 2828 
Q 3544 3216 3844 3400 
Q 4144 3584 4550 3584 
Q 5097 3584 5394 3201 
Q 5691 2819 5691 2113 
L 5691 0 
L 5113 0 
L 5113 2094 
Q 5113 2597 4934 2840 
Q 4756 3084 4391 3084 
Q 3944 3084 3684 2787 
Q 3425 2491 3425 1978 
L 3425 0 
L 2847 0 
L 2847 2094 
Q 2847 2600 2669 2842 
Q 2491 3084 2119 3084 
Q 1678 3084 1418 2786 
Q 1159 2488 1159 1978 
L 1159 0 
L 581 0 
L 581 3500 
L 1159 3500 
L 1159 2956 
Q 1356 3278 1631 3431 
Q 1906 3584 2284 3584 
Q 2666 3584 2933 3390 
Q 3200 3197 3328 2828 
z
" transform="scale(0.015625)"/>
      <path id="DejaVuSans-6f" d="M 1959 3097 
Q 1497 3097 1228 2736 
Q 959 2375 959 1747 
Q 959 1119 1226 758 
Q 1494 397 1959 397 
Q 2419 397 2687 759 
Q 2956 1122 2956 1747 
Q 2956 2369 2687 2733 
Q 2419 3097 1959 3097 
z
M 1959 3584 
Q 2709 3584 3137 3096 
Q 3566 2609 3566 1747 
Q 3566 888 3137 398 
Q 2709 -91 1959 -91 
Q 1206 -91 779 398 
Q 353 888 353 1747 
Q 353 2609 779 3096 
Q 1206 3584 1959 3584 
z
" transform="scale(0.015625)"/>
      <path id="DejaVuSans-66" d="M 2375 4863 
L 2375 4384 
L 1825 4384 
Q 1516 4384 1395 4259 
Q 1275 4134 1275 3809 
L 1275 3500 
L 2222 3500 
L 2222 3053 
L 1275 3053 
L 1275 0 
L 697 0 
L 697 3053 
L 147 3053 
L 147 3500 
L 697 3500 
L 697 3744 
Q 697 4328 969 4595 
Q 1241 4863 1831 4863 
L 2375 4863 
z
" transform="scale(0.015625)"/>
      <path id="DejaVuSans-2c" d="M 750 794 
L 1409 794 
L 1409 256 
L 897 -744 
L 494 -744 
L 750 256 
L 750 794 
z
" transform="scale(0.015625)"/>
      <path id="DejaVuSans-61" d="M 2194 1759 
Q 1497 1759 1228 1600 
Q 959 1441 959 1056 
Q 959 750 1161 570 
Q 1363 391 1709 391 
Q 2188 391 2477 730 
Q 2766 1069 2766 1631 
L 2766 1759 
L 2194 1759 
z
M 3341 1997 
L 3341 0 
L 2766 0 
L 2766 531 
Q 2569 213 2275 61 
Q 1981 -91 1556 -91 
Q 1019 -91 701 211 
Q 384 513 384 1019 
Q 384 1609 779 1909 
Q 1175 2209 1959 2209 
L 2766 2209 
L 2766 2266 
Q 2766 2663 2505 2880 
Q 2244 3097 1772 3097 
Q 1472 3097 1187 3025 
Q 903 2953 641 2809 
L 641 3341 
Q 956 3463 1253 3523 
Q 1550 3584 1831 3584 
Q 2591 3584 2966 3190 
Q 3341 2797 3341 1997 
z
" transform="scale(0.015625)"/>
     </defs>
     <use xlink:href="#DejaVuSans-4d" transform="translate(0 0.015625)"/>
     <use xlink:href="#DejaVuSans-53" transform="translate(86.279297 0.015625)"/>
     <use xlink:href="#DejaVuSans-32" transform="translate(149.755859 0.015625)"/>
     <use xlink:href="#DejaVuSans-20" transform="translate(213.378906 0.015625)"/>
     <use xlink:href="#DejaVuSans-73" transform="translate(245.166016 0.015625)"/>
     <use xlink:href="#DejaVuSans-70" transform="translate(297.265625 0.015625)"/>
     <use xlink:href="#DejaVuSans-65" transform="translate(360.742188 0.015625)"/>
     <use xlink:href="#DejaVuSans-63" transform="translate(422.265625 0.015625)"/>
     <use xlink:href="#DejaVuSans-74" transform="translate(477.246094 0.015625)"/>
     <use xlink:href="#DejaVuSans-72" transform="translate(516.455078 0.015625)"/>
     <use xlink:href="#DejaVuSans-75" transform="translate(557.568359 0.015625)"/>
     <use xlink:href="#DejaVuSans-6d" transform="translate(620.947266 0.015625)"/>
     <use xlink:href="#DejaVuSans-20" transform="translate(718.359375 0.015625)"/>
     <use xlink:href="#DejaVuSans-6f" transform="translate(750.146484 0.015625)"/>
     <use xlink:href="#DejaVuSans-66" transform="translate(811.328125 0.015625)"/>
     <use xlink:href="#DejaVuSans-20" transform="translate(846.533203 0.015625)"/>
     <use xlink:href="#DejaVuSans-Oblique-6d" transform="translate(878.320312 0.015625)"/>
     <use xlink:href="#DejaVuSans-2f" transform="translate(975.732422 0.015625)"/>
     <use xlink:href="#DejaVuSans-Oblique-7a" transform="translate(1009.423828 0.015625)"/>
     <use xlink:href="#DejaVuSans-20" transform="translate(1061.914062 0.015625)"/>
     <use xlink:href="#DejaVuSans-33" transform="translate(1093.701172 0.015625)"/>
     <use xlink:href="#DejaVuSans-34" transform="translate(1157.324219 0.015625)"/>
     <use xlink:href="#DejaVuSans-35" transform="translate(1220.947266 0.015625)"/>
     <use xlink:href="#DejaVuSans-2e" transform="translate(1284.570312 0.015625)"/>
     <use xlink:href="#DejaVuSans-30" transform="translate(1316.357422 0.015625)"/>
     <use xlink:href="#DejaVuSans-37" transform="translate(1379.980469 0.015625)"/>
     <use xlink:href="#DejaVuSans-30" transform="translate(1443.603516 0.015625)"/>
     <use xlink:href="#DejaVuSans-36" transform="translate(1507.226562 0.015625)"/>
     <use xlink:href="#DejaVuSans-2c" transform="translate(1570.849609 0.015625)"/>
     <use xlink:href="#DejaVuSans-20" transform="translate(1602.636719 0.015625)"/>
     <use xlink:href="#DejaVuSans-73" transform="translate(1634.423828 0.015625)"/>
     <use xlink:href="#DejaVuSans-63" transform="translate(1686.523438 0.015625)"/>
     <use xlink:href="#DejaVuSans-61" transform="translate(1741.503906 0.015625)"/>
     <use xlink:href="#DejaVuSans-6e" transform="translate(1802.783203 0.015625)"/>
     <use xlink:href="#DejaVuSans-20" transform="translate(1866.162109 0.015625)"/>
     <use xlink:href="#DejaVuSans-74" transform="translate(1897.949219 0.015625)"/>
     <use xlink:href="#DejaVuSans-69" transform="translate(1937.158203 0.015625)"/>
     <use xlink:href="#DejaVuSans-6d" transform="translate(1964.941406 0.015625)"/>
     <use xlink:href="#DejaVuSans-65" transform="translate(2062.353516 0.015625)"/>
     <use xlink:href="#DejaVuSans-20" transform="translate(2123.876953 0.015625)"/>
     <use xlink:href="#DejaVuSans-37" transform="translate(2155.664062 0.015625)"/>
     <use xlink:href="#DejaVuSans-2e" transform="translate(2219.287109 0.015625)"/>
     <use xlink:href="#DejaVuSans-30" transform="translate(2251.074219 0.015625)"/>
     <use xlink:href="#DejaVuSans-39" transform="translate(2314.697266 0.015625)"/>
     <use xlink:href="#DejaVuSans-20" transform="translate(2378.320312 0.015625)"/>
     <use xlink:href="#DejaVuSans-6d" transform="translate(2410.107422 0.015625)"/>
     <use xlink:href="#DejaVuSans-69" transform="translate(2507.519531 0.015625)"/>
     <use xlink:href="#DejaVuSans-6e" transform="translate(2535.302734 0.015625)"/>
     <use xlink:href="#DejaVuSans-2e" transform="translate(2598.681641 0.015625)"/>
    </g>
   </g>
  </g>
 </g>
 <defs>
  <clipPath id="p43dcdff687">
   <rect x="57.6" y="41.472" width="357.12" height="266.112"/>
  </clipPath>
 </defs>
</svg>
