<?xml version="1.0" encoding="utf-8" standalone="no"?>
<!DOCTYPE svg PUBLIC "-//W3C//DTD SVG 1.1//EN"
  "http://www.w3.org/Graphics/SVG/1.1/DTD/svg11.dtd">
<svg xmlns:xlink="http://www.w3.org/1999/xlink" width="460.8pt" height="345.6pt" viewBox="0 0 460.8 345.6" xmlns="http://www.w3.org/2000/svg" version="1.1">
 <metadata>
  <rdf:RDF xmlns:dc="http://purl.org/dc/elements/1.1/" xmlns:cc="http://creativecommons.org/ns#" xmlns:rdf="http://www.w3.org/1999/02/22-rdf-syntax-ns#">
   <cc:Work>
    <dc:type rdf:resource="http://purl.org/dc/dcmitype/StillImage"/>
    <dc:date>2025-01-11T13:53:55.452717</dc:date>
    <dc:format>image/svg+xml</dc:format>
    <dc:creator>
     <cc:Agent>
      <dc:title>Matplotlib v3.7.3, https://matplotlib.org/</dc:title>
     </cc:Agent>
    </dc:creator>
   </cc:Work>
  </rdf:RDF>
 </metadata>
 <defs>
  <style type="text/css">*{stroke-linejoin: round; stroke-linecap: butt}</style>
 </defs>
 <g id="figure_1">
  <g id="patch_1">
   <path d="M 0 345.6 
L 460.8 345.6 
L 460.8 0 
L 0 0 
z
" style="fill: #ffffff"/>
  </g>
  <g id="axes_1">
   <g id="patch_2">
    <path d="M 57.6 307.584 
L 414.72 307.584 
L 414.72 41.472 
L 57.6 41.472 
z
" style="fill: #ffffff"/>
   </g>
   <g id="patch_3">
    <path d="M 73.832727 307.584 
L 74.715415 307.584 
L 74.715415 307.37757 
L 73.832727 307.37757 
z
" clip-path="url(#p71689fc50d)" style="fill: #1f77b4"/>
   </g>
   <g id="patch_4">
    <path d="M 74.804745 307.584 
L 75.687433 307.584 
L 75.687433 307.374295 
L 74.804745 307.374295 
z
" clip-path="url(#p71689fc50d)" style="fill: #1f77b4"/>
   </g>
   <g id="patch_5">
    <path d="M 75.063354 307.584 
L 75.946041 307.584 
L 75.946041 307.361288 
L 75.063354 307.361288 
z
" clip-path="url(#p71689fc50d)" style="fill: #1f77b4"/>
   </g>
   <g id="patch_6">
    <path d="M 89.799407 307.584 
L 90.682095 307.584 
L 90.682095 307.37163 
L 89.799407 307.37163 
z
" clip-path="url(#p71689fc50d)" style="fill: #1f77b4"/>
   </g>
   <g id="patch_7">
    <path d="M 101.836868 307.584 
L 102.719555 307.584 
L 102.719555 306.923356 
L 101.836868 306.923356 
z
" clip-path="url(#p71689fc50d)" style="fill: #1f77b4"/>
   </g>
   <g id="patch_8">
    <path d="M 102.379448 307.584 
L 103.262135 307.584 
L 103.262135 307.268692 
L 102.379448 307.268692 
z
" clip-path="url(#p71689fc50d)" style="fill: #1f77b4"/>
   </g>
   <g id="patch_9">
    <path d="M 110.32412 307.584 
L 111.206807 307.584 
L 111.206807 307.352584 
L 110.32412 307.352584 
z
" clip-path="url(#p71689fc50d)" style="fill: #1f77b4"/>
   </g>
   <g id="patch_10">
    <path d="M 110.864662 307.584 
L 111.74735 307.584 
L 111.74735 305.609191 
L 110.864662 305.609191 
z
" clip-path="url(#p71689fc50d)" style="fill: #1f77b4"/>
   </g>
   <g id="patch_11">
    <path d="M 111.003432 307.584 
L 111.88612 307.584 
L 111.88612 307.299427 
L 111.003432 307.299427 
z
" clip-path="url(#p71689fc50d)" style="fill: #1f77b4"/>
   </g>
   <g id="patch_12">
    <path d="M 116.62712 307.584 
L 117.509808 307.584 
L 117.509808 307.190714 
L 116.62712 307.190714 
z
" clip-path="url(#p71689fc50d)" style="fill: #1f77b4"/>
   </g>
   <g id="patch_13">
    <path d="M 121.387125 307.584 
L 122.269813 307.584 
L 122.269813 307.259342 
L 121.387125 307.259342 
z
" clip-path="url(#p71689fc50d)" style="fill: #1f77b4"/>
   </g>
   <g id="patch_14">
    <path d="M 121.393001 307.584 
L 122.275688 307.584 
L 122.275688 307.191069 
L 121.393001 307.191069 
z
" clip-path="url(#p71689fc50d)" style="fill: #1f77b4"/>
   </g>
   <g id="patch_15">
    <path d="M 170.196296 307.584 
L 171.078984 307.584 
L 171.078984 306.226436 
L 170.196296 306.226436 
z
" clip-path="url(#p71689fc50d)" style="fill: #1f77b4"/>
   </g>
   <g id="patch_16">
    <path d="M 183.436322 307.584 
L 184.319009 307.584 
L 184.319009 306.495591 
L 183.436322 306.495591 
z
" clip-path="url(#p71689fc50d)" style="fill: #1f77b4"/>
   </g>
   <g id="patch_17">
    <path d="M 184.548789 307.584 
L 185.431477 307.584 
L 185.431477 306.953474 
L 184.548789 306.953474 
z
" clip-path="url(#p71689fc50d)" style="fill: #1f77b4"/>
   </g>
   <g id="patch_18">
    <path d="M 184.562224 307.584 
L 185.444912 307.584 
L 185.444912 307.251157 
L 184.562224 307.251157 
z
" clip-path="url(#p71689fc50d)" style="fill: #1f77b4"/>
   </g>
   <g id="patch_19">
    <path d="M 185.660617 307.584 
L 186.543305 307.584 
L 186.543305 306.136337 
L 185.660617 306.136337 
z
" clip-path="url(#p71689fc50d)" style="fill: #1f77b4"/>
   </g>
   <g id="patch_20">
    <path d="M 186.758421 307.584 
L 187.641108 307.584 
L 187.641108 307.018586 
L 186.758421 307.018586 
z
" clip-path="url(#p71689fc50d)" style="fill: #1f77b4"/>
   </g>
   <g id="patch_21">
    <path d="M 198.900929 307.584 
L 199.783616 307.584 
L 199.783616 306.492275 
L 198.900929 306.492275 
z
" clip-path="url(#p71689fc50d)" style="fill: #1f77b4"/>
   </g>
   <g id="patch_22">
    <path d="M 200.013144 307.584 
L 200.895832 307.584 
L 200.895832 307.133238 
L 200.013144 307.133238 
z
" clip-path="url(#p71689fc50d)" style="fill: #1f77b4"/>
   </g>
   <g id="patch_23">
    <path d="M 201.084498 307.584 
L 201.967186 307.584 
L 201.967186 306.173589 
L 201.084498 306.173589 
z
" clip-path="url(#p71689fc50d)" style="fill: #1f77b4"/>
   </g>
   <g id="patch_24">
    <path d="M 201.124433 307.584 
L 202.007121 307.584 
L 202.007121 307.233064 
L 201.124433 307.233064 
z
" clip-path="url(#p71689fc50d)" style="fill: #1f77b4"/>
   </g>
   <g id="patch_25">
    <path d="M 202.223196 307.584 
L 203.105884 307.584 
L 203.105884 307.208912 
L 202.223196 307.208912 
z
" clip-path="url(#p71689fc50d)" style="fill: #1f77b4"/>
   </g>
   <g id="patch_26">
    <path d="M 213.239583 307.584 
L 214.122271 307.584 
L 214.122271 306.950215 
L 213.239583 306.950215 
z
" clip-path="url(#p71689fc50d)" style="fill: #1f77b4"/>
   </g>
   <g id="patch_27">
    <path d="M 214.352118 307.584 
L 215.234805 307.584 
L 215.234805 307.04172 
L 214.352118 307.04172 
z
" clip-path="url(#p71689fc50d)" style="fill: #1f77b4"/>
   </g>
   <g id="patch_28">
    <path d="M 215.462818 307.584 
L 216.345505 307.584 
L 216.345505 303.933077 
L 215.462818 303.933077 
z
" clip-path="url(#p71689fc50d)" style="fill: #1f77b4"/>
   </g>
   <g id="patch_29">
    <path d="M 216.548483 307.584 
L 217.43117 307.584 
L 217.43117 306.738018 
L 216.548483 306.738018 
z
" clip-path="url(#p71689fc50d)" style="fill: #1f77b4"/>
   </g>
   <g id="patch_30">
    <path d="M 216.575706 307.584 
L 217.458394 307.584 
L 217.458394 304.957115 
L 216.575706 304.957115 
z
" clip-path="url(#p71689fc50d)" style="fill: #1f77b4"/>
   </g>
   <g id="patch_31">
    <path d="M 228.703584 307.584 
L 229.586272 307.584 
L 229.586272 306.51842 
L 228.703584 306.51842 
z
" clip-path="url(#p71689fc50d)" style="fill: #1f77b4"/>
   </g>
   <g id="patch_32">
    <path d="M 229.791926 307.584 
L 230.674613 307.584 
L 230.674613 307.344741 
L 229.791926 307.344741 
z
" clip-path="url(#p71689fc50d)" style="fill: #1f77b4"/>
   </g>
   <g id="patch_33">
    <path d="M 229.796472 307.584 
L 230.679159 307.584 
L 230.679159 307.343372 
L 229.796472 307.343372 
z
" clip-path="url(#p71689fc50d)" style="fill: #1f77b4"/>
   </g>
   <g id="patch_34">
    <path d="M 229.815648 307.584 
L 230.698335 307.584 
L 230.698335 305.623185 
L 229.815648 305.623185 
z
" clip-path="url(#p71689fc50d)" style="fill: #1f77b4"/>
   </g>
   <g id="patch_35">
    <path d="M 230.887709 307.584 
L 231.770396 307.584 
L 231.770396 307.011736 
L 230.887709 307.011736 
z
" clip-path="url(#p71689fc50d)" style="fill: #1f77b4"/>
   </g>
   <g id="patch_36">
    <path d="M 230.926667 307.584 
L 231.809355 307.584 
L 231.809355 306.869279 
L 230.926667 306.869279 
z
" clip-path="url(#p71689fc50d)" style="fill: #1f77b4"/>
   </g>
   <g id="patch_37">
    <path d="M 231.972599 307.584 
L 232.855287 307.584 
L 232.855287 306.625369 
L 231.972599 306.625369 
z
" clip-path="url(#p71689fc50d)" style="fill: #1f77b4"/>
   </g>
   <g id="patch_38">
    <path d="M 232.013746 307.584 
L 232.896434 307.584 
L 232.896434 305.251015 
L 232.013746 305.251015 
z
" clip-path="url(#p71689fc50d)" style="fill: #1f77b4"/>
   </g>
   <g id="patch_39">
    <path d="M 233.125641 307.584 
L 234.008329 307.584 
L 234.008329 307.16167 
L 233.125641 307.16167 
z
" clip-path="url(#p71689fc50d)" style="fill: #1f77b4"/>
   </g>
   <g id="patch_40">
    <path d="M 233.15231 307.584 
L 234.034997 307.584 
L 234.034997 307.170186 
L 233.15231 307.170186 
z
" clip-path="url(#p71689fc50d)" style="fill: #1f77b4"/>
   </g>
   <g id="patch_41">
    <path d="M 234.238345 307.584 
L 235.121032 307.584 
L 235.121032 307.179965 
L 234.238345 307.179965 
z
" clip-path="url(#p71689fc50d)" style="fill: #1f77b4"/>
   </g>
   <g id="patch_42">
    <path d="M 236.420938 307.584 
L 237.303625 307.584 
L 237.303625 306.759288 
L 236.420938 306.759288 
z
" clip-path="url(#p71689fc50d)" style="fill: #1f77b4"/>
   </g>
   <g id="patch_43">
    <path d="M 244.141102 307.584 
L 245.02379 307.584 
L 245.02379 307.01465 
L 244.141102 307.01465 
z
" clip-path="url(#p71689fc50d)" style="fill: #1f77b4"/>
   </g>
   <g id="patch_44">
    <path d="M 245.254765 307.584 
L 246.137453 307.584 
L 246.137453 305.453841 
L 245.254765 305.453841 
z
" clip-path="url(#p71689fc50d)" style="fill: #1f77b4"/>
   </g>
   <g id="patch_45">
    <path d="M 246.34868 307.584 
L 247.231367 307.584 
L 247.231367 304.873705 
L 246.34868 304.873705 
z
" clip-path="url(#p71689fc50d)" style="fill: #1f77b4"/>
   </g>
   <g id="patch_46">
    <path d="M 246.369927 307.584 
L 247.252614 307.584 
L 247.252614 307.099277 
L 246.369927 307.099277 
z
" clip-path="url(#p71689fc50d)" style="fill: #1f77b4"/>
   </g>
   <g id="patch_47">
    <path d="M 247.461417 307.584 
L 248.344104 307.584 
L 248.344104 304.732821 
L 247.461417 304.732821 
z
" clip-path="url(#p71689fc50d)" style="fill: #1f77b4"/>
   </g>
   <g id="patch_48">
    <path d="M 248.573177 307.584 
L 249.455865 307.584 
L 249.455865 306.301189 
L 248.573177 306.301189 
z
" clip-path="url(#p71689fc50d)" style="fill: #1f77b4"/>
   </g>
   <g id="patch_49">
    <path d="M 249.701571 307.584 
L 250.584259 307.584 
L 250.584259 307.124595 
L 249.701571 307.124595 
z
" clip-path="url(#p71689fc50d)" style="fill: #1f77b4"/>
   </g>
   <g id="patch_50">
    <path d="M 262.90146 307.584 
L 263.784148 307.584 
L 263.784148 302.950138 
L 262.90146 302.950138 
z
" clip-path="url(#p71689fc50d)" style="fill: #1f77b4"/>
   </g>
   <g id="patch_51">
    <path d="M 264.014214 307.584 
L 264.896901 307.584 
L 264.896901 305.432282 
L 264.014214 305.432282 
z
" clip-path="url(#p71689fc50d)" style="fill: #1f77b4"/>
   </g>
   <g id="patch_52">
    <path d="M 265.128113 307.584 
L 266.0108 307.584 
L 266.0108 305.792724 
L 265.128113 305.792724 
z
" clip-path="url(#p71689fc50d)" style="fill: #1f77b4"/>
   </g>
   <g id="patch_53">
    <path d="M 266.221269 307.584 
L 267.103957 307.584 
L 267.103957 307.277906 
L 266.221269 307.277906 
z
" clip-path="url(#p71689fc50d)" style="fill: #1f77b4"/>
   </g>
   <g id="patch_54">
    <path d="M 267.309662 307.584 
L 268.192349 307.584 
L 268.192349 307.311334 
L 267.309662 307.311334 
z
" clip-path="url(#p71689fc50d)" style="fill: #1f77b4"/>
   </g>
   <g id="patch_55">
    <path d="M 275.029725 307.584 
L 275.912413 307.584 
L 275.912413 306.16339 
L 275.029725 306.16339 
z
" clip-path="url(#p71689fc50d)" style="fill: #1f77b4"/>
   </g>
   <g id="patch_56">
    <path d="M 276.141772 307.584 
L 277.02446 307.584 
L 277.02446 301.417313 
L 276.141772 301.417313 
z
" clip-path="url(#p71689fc50d)" style="fill: #1f77b4"/>
   </g>
   <g id="patch_57">
    <path d="M 277.239895 307.584 
L 278.122583 307.584 
L 278.122583 298.542333 
L 277.239895 298.542333 
z
" clip-path="url(#p71689fc50d)" style="fill: #1f77b4"/>
   </g>
   <g id="patch_58">
    <path d="M 278.346437 307.584 
L 279.229124 307.584 
L 279.229124 307.185455 
L 278.346437 307.185455 
z
" clip-path="url(#p71689fc50d)" style="fill: #1f77b4"/>
   </g>
   <g id="patch_59">
    <path d="M 280.573965 307.584 
L 281.456652 307.584 
L 281.456652 306.969646 
L 280.573965 306.969646 
z
" clip-path="url(#p71689fc50d)" style="fill: #1f77b4"/>
   </g>
   <g id="patch_60">
    <path d="M 281.686499 307.584 
L 282.569187 307.584 
L 282.569187 306.756268 
L 281.686499 306.756268 
z
" clip-path="url(#p71689fc50d)" style="fill: #1f77b4"/>
   </g>
   <g id="patch_61">
    <path d="M 293.790336 307.584 
L 294.673023 307.584 
L 294.673023 297.91077 
L 293.790336 297.91077 
z
" clip-path="url(#p71689fc50d)" style="fill: #1f77b4"/>
   </g>
   <g id="patch_62">
    <path d="M 293.816886 307.584 
L 294.699573 307.584 
L 294.699573 306.061561 
L 293.816886 306.061561 
z
" clip-path="url(#p71689fc50d)" style="fill: #1f77b4"/>
   </g>
   <g id="patch_63">
    <path d="M 294.894857 307.584 
L 295.777544 307.584 
L 295.777544 307.11805 
L 294.894857 307.11805 
z
" clip-path="url(#p71689fc50d)" style="fill: #1f77b4"/>
   </g>
   <g id="patch_64">
    <path d="M 295.999411 307.584 
L 296.882099 307.584 
L 296.882099 307.020461 
L 295.999411 307.020461 
z
" clip-path="url(#p71689fc50d)" style="fill: #1f77b4"/>
   </g>
   <g id="patch_65">
    <path d="M 298.20746 307.584 
L 299.090148 307.584 
L 299.090148 307.01228 
L 298.20746 307.01228 
z
" clip-path="url(#p71689fc50d)" style="fill: #1f77b4"/>
   </g>
   <g id="patch_66">
    <path d="M 298.238068 307.584 
L 299.120755 307.584 
L 299.120755 291.01675 
L 298.238068 291.01675 
z
" clip-path="url(#p71689fc50d)" style="fill: #1f77b4"/>
   </g>
   <g id="patch_67">
    <path d="M 298.268911 307.584 
L 299.151599 307.584 
L 299.151599 307.138026 
L 298.268911 307.138026 
z
" clip-path="url(#p71689fc50d)" style="fill: #1f77b4"/>
   </g>
   <g id="patch_68">
    <path d="M 299.34503 307.584 
L 300.227717 307.584 
L 300.227717 306.279637 
L 299.34503 306.279637 
z
" clip-path="url(#p71689fc50d)" style="fill: #1f77b4"/>
   </g>
   <g id="patch_69">
    <path d="M 310.366367 307.584 
L 311.249054 307.584 
L 311.249054 297.112456 
L 310.366367 297.112456 
z
" clip-path="url(#p71689fc50d)" style="fill: #1f77b4"/>
   </g>
   <g id="patch_70">
    <path d="M 311.440634 307.584 
L 312.323321 307.584 
L 312.323321 305.881016 
L 311.440634 305.881016 
z
" clip-path="url(#p71689fc50d)" style="fill: #1f77b4"/>
   </g>
   <g id="patch_71">
    <path d="M 311.478144 307.584 
L 312.360831 307.584 
L 312.360831 275.028701 
L 311.478144 275.028701 
z
" clip-path="url(#p71689fc50d)" style="fill: #1f77b4"/>
   </g>
   <g id="patch_72">
    <path d="M 311.512052 307.584 
L 312.394739 307.584 
L 312.394739 307.287257 
L 311.512052 307.287257 
z
" clip-path="url(#p71689fc50d)" style="fill: #1f77b4"/>
   </g>
   <g id="patch_73">
    <path d="M 312.57817 307.584 
L 313.460857 307.584 
L 313.460857 300.965706 
L 312.57817 300.965706 
z
" clip-path="url(#p71689fc50d)" style="fill: #1f77b4"/>
   </g>
   <g id="patch_74">
    <path d="M 313.684358 307.584 
L 314.567045 307.584 
L 314.567045 306.952778 
L 313.684358 306.952778 
z
" clip-path="url(#p71689fc50d)" style="fill: #1f77b4"/>
   </g>
   <g id="patch_75">
    <path d="M 329.126472 307.584 
L 330.009159 307.584 
L 330.009159 223.512814 
L 329.126472 223.512814 
z
" clip-path="url(#p71689fc50d)" style="fill: #1f77b4"/>
   </g>
   <g id="patch_76">
    <path d="M 330.233434 307.584 
L 331.116122 307.584 
L 331.116122 299.438065 
L 330.233434 299.438065 
z
" clip-path="url(#p71689fc50d)" style="fill: #1f77b4"/>
   </g>
   <g id="patch_77">
    <path d="M 361.116787 307.584 
L 361.999475 307.584 
L 361.999475 307.29801 
L 361.116787 307.29801 
z
" clip-path="url(#p71689fc50d)" style="fill: #1f77b4"/>
   </g>
   <g id="patch_78">
    <path d="M 396.353777 307.584 
L 397.236464 307.584 
L 397.236464 306.105894 
L 396.353777 306.105894 
z
" clip-path="url(#p71689fc50d)" style="fill: #1f77b4"/>
   </g>
   <g id="patch_79">
    <path d="M 396.373946 307.584 
L 397.256634 307.584 
L 397.256634 306.090334 
L 396.373946 306.090334 
z
" clip-path="url(#p71689fc50d)" style="fill: #1f77b4"/>
   </g>
   <g id="patch_80">
    <path d="M 396.449641 307.584 
L 397.332328 307.584 
L 397.332328 54.144 
L 396.449641 54.144 
z
" clip-path="url(#p71689fc50d)" style="fill: #1f77b4"/>
   </g>
   <g id="patch_81">
    <path d="M 396.526884 307.584 
L 397.409571 307.584 
L 397.409571 306.481038 
L 396.526884 306.481038 
z
" clip-path="url(#p71689fc50d)" style="fill: #1f77b4"/>
   </g>
   <g id="patch_82">
    <path d="M 396.547525 307.584 
L 397.430212 307.584 
L 397.430212 305.836361 
L 396.547525 305.836361 
z
" clip-path="url(#p71689fc50d)" style="fill: #1f77b4"/>
   </g>
   <g id="patch_83">
    <path d="M 397.487845 307.584 
L 398.370532 307.584 
L 398.370532 307.156267 
L 397.487845 307.156267 
z
" clip-path="url(#p71689fc50d)" style="fill: #1f77b4"/>
   </g>
   <g id="patch_84">
    <path d="M 397.556266 307.584 
L 398.438954 307.584 
L 398.438954 280.519236 
L 397.556266 280.519236 
z
" clip-path="url(#p71689fc50d)" style="fill: #1f77b4"/>
   </g>
   <g id="patch_85">
    <path d="M 397.604585 307.584 
L 398.487273 307.584 
L 398.487273 307.054888 
L 397.604585 307.054888 
z
" clip-path="url(#p71689fc50d)" style="fill: #1f77b4"/>
   </g>
   <g id="matplotlib.axis_1">
    <g id="xtick_1">
     <g id="line2d_1">
      <defs>
       <path id="m8910ef262d" d="M 0 0 
L 0 3.5 
" style="stroke: #000000; stroke-width: 0.8"/>
      </defs>
      <g>
       <use xlink:href="#m8910ef262d" x="71.280753" y="307.584" style="stroke: #000000; stroke-width: 0.8"/>
      </g>
     </g>
     <g id="text_1">
      <!-- 50 -->
      <g transform="translate(64.918253 322.182437) scale(0.1 -0.1)">
       <defs>
        <path id="DejaVuSans-35" d="M 691 4666 
L 3169 4666 
L 3169 4134 
L 1269 4134 
L 1269 2991 
Q 1406 3038 1543 3061 
Q 1681 3084 1819 3084 
Q 2600 3084 3056 2656 
Q 3513 2228 3513 1497 
Q 3513 744 3044 326 
Q 2575 -91 1722 -91 
Q 1428 -91 1123 -41 
Q 819 9 494 109 
L 494 744 
Q 775 591 1075 516 
Q 1375 441 1709 441 
Q 2250 441 2565 725 
Q 2881 1009 2881 1497 
Q 2881 1984 2565 2268 
Q 2250 2553 1709 2553 
Q 1456 2553 1204 2497 
Q 953 2441 691 2322 
L 691 4666 
z
" transform="scale(0.015625)"/>
        <path id="DejaVuSans-30" d="M 2034 4250 
Q 1547 4250 1301 3770 
Q 1056 3291 1056 2328 
Q 1056 1369 1301 889 
Q 1547 409 2034 409 
Q 2525 409 2770 889 
Q 3016 1369 3016 2328 
Q 3016 3291 2770 3770 
Q 2525 4250 2034 4250 
z
M 2034 4750 
Q 2819 4750 3233 4129 
Q 3647 3509 3647 2328 
Q 3647 1150 3233 529 
Q 2819 -91 2034 -91 
Q 1250 -91 836 529 
Q 422 1150 422 2328 
Q 422 3509 836 4129 
Q 1250 4750 2034 4750 
z
" transform="scale(0.015625)"/>
       </defs>
       <use xlink:href="#DejaVuSans-35"/>
       <use xlink:href="#DejaVuSans-30" x="63.623047"/>
      </g>
     </g>
    </g>
    <g id="xtick_2">
     <g id="line2d_2">
      <g>
       <use xlink:href="#m8910ef262d" x="126.448719" y="307.584" style="stroke: #000000; stroke-width: 0.8"/>
      </g>
     </g>
     <g id="text_2">
      <!-- 100 -->
      <g transform="translate(116.904969 322.182437) scale(0.1 -0.1)">
       <defs>
        <path id="DejaVuSans-31" d="M 794 531 
L 1825 531 
L 1825 4091 
L 703 3866 
L 703 4441 
L 1819 4666 
L 2450 4666 
L 2450 531 
L 3481 531 
L 3481 0 
L 794 0 
L 794 531 
z
" transform="scale(0.015625)"/>
       </defs>
       <use xlink:href="#DejaVuSans-31"/>
       <use xlink:href="#DejaVuSans-30" x="63.623047"/>
       <use xlink:href="#DejaVuSans-30" x="127.246094"/>
      </g>
     </g>
    </g>
    <g id="xtick_3">
     <g id="line2d_3">
      <g>
       <use xlink:href="#m8910ef262d" x="181.616685" y="307.584" style="stroke: #000000; stroke-width: 0.8"/>
      </g>
     </g>
     <g id="text_3">
      <!-- 150 -->
      <g transform="translate(172.072935 322.182437) scale(0.1 -0.1)">
       <use xlink:href="#DejaVuSans-31"/>
       <use xlink:href="#DejaVuSans-35" x="63.623047"/>
       <use xlink:href="#DejaVuSans-30" x="127.246094"/>
      </g>
     </g>
    </g>
    <g id="xtick_4">
     <g id="line2d_4">
      <g>
       <use xlink:href="#m8910ef262d" x="236.784651" y="307.584" style="stroke: #000000; stroke-width: 0.8"/>
      </g>
     </g>
     <g id="text_4">
      <!-- 200 -->
      <g transform="translate(227.240901 322.182437) scale(0.1 -0.1)">
       <defs>
        <path id="DejaVuSans-32" d="M 1228 531 
L 3431 531 
L 3431 0 
L 469 0 
L 469 531 
Q 828 903 1448 1529 
Q 2069 2156 2228 2338 
Q 2531 2678 2651 2914 
Q 2772 3150 2772 3378 
Q 2772 3750 2511 3984 
Q 2250 4219 1831 4219 
Q 1534 4219 1204 4116 
Q 875 4013 500 3803 
L 500 4441 
Q 881 4594 1212 4672 
Q 1544 4750 1819 4750 
Q 2544 4750 2975 4387 
Q 3406 4025 3406 3419 
Q 3406 3131 3298 2873 
Q 3191 2616 2906 2266 
Q 2828 2175 2409 1742 
Q 1991 1309 1228 531 
z
" transform="scale(0.015625)"/>
       </defs>
       <use xlink:href="#DejaVuSans-32"/>
       <use xlink:href="#DejaVuSans-30" x="63.623047"/>
       <use xlink:href="#DejaVuSans-30" x="127.246094"/>
      </g>
     </g>
    </g>
    <g id="xtick_5">
     <g id="line2d_5">
      <g>
       <use xlink:href="#m8910ef262d" x="291.952617" y="307.584" style="stroke: #000000; stroke-width: 0.8"/>
      </g>
     </g>
     <g id="text_5">
      <!-- 250 -->
      <g transform="translate(282.408867 322.182437) scale(0.1 -0.1)">
       <use xlink:href="#DejaVuSans-32"/>
       <use xlink:href="#DejaVuSans-35" x="63.623047"/>
       <use xlink:href="#DejaVuSans-30" x="127.246094"/>
      </g>
     </g>
    </g>
    <g id="xtick_6">
     <g id="line2d_6">
      <g>
       <use xlink:href="#m8910ef262d" x="347.120583" y="307.584" style="stroke: #000000; stroke-width: 0.8"/>
      </g>
     </g>
     <g id="text_6">
      <!-- 300 -->
      <g transform="translate(337.576833 322.182437) scale(0.1 -0.1)">
       <defs>
        <path id="DejaVuSans-33" d="M 2597 2516 
Q 3050 2419 3304 2112 
Q 3559 1806 3559 1356 
Q 3559 666 3084 287 
Q 2609 -91 1734 -91 
Q 1441 -91 1130 -33 
Q 819 25 488 141 
L 488 750 
Q 750 597 1062 519 
Q 1375 441 1716 441 
Q 2309 441 2620 675 
Q 2931 909 2931 1356 
Q 2931 1769 2642 2001 
Q 2353 2234 1838 2234 
L 1294 2234 
L 1294 2753 
L 1863 2753 
Q 2328 2753 2575 2939 
Q 2822 3125 2822 3475 
Q 2822 3834 2567 4026 
Q 2313 4219 1838 4219 
Q 1578 4219 1281 4162 
Q 984 4106 628 3988 
L 628 4550 
Q 988 4650 1302 4700 
Q 1616 4750 1894 4750 
Q 2613 4750 3031 4423 
Q 3450 4097 3450 3541 
Q 3450 3153 3228 2886 
Q 3006 2619 2597 2516 
z
" transform="scale(0.015625)"/>
       </defs>
       <use xlink:href="#DejaVuSans-33"/>
       <use xlink:href="#DejaVuSans-30" x="63.623047"/>
       <use xlink:href="#DejaVuSans-30" x="127.246094"/>
      </g>
     </g>
    </g>
    <g id="xtick_7">
     <g id="line2d_7">
      <g>
       <use xlink:href="#m8910ef262d" x="402.288549" y="307.584" style="stroke: #000000; stroke-width: 0.8"/>
      </g>
     </g>
     <g id="text_7">
      <!-- 350 -->
      <g transform="translate(392.744799 322.182437) scale(0.1 -0.1)">
       <use xlink:href="#DejaVuSans-33"/>
       <use xlink:href="#DejaVuSans-35" x="63.623047"/>
       <use xlink:href="#DejaVuSans-30" x="127.246094"/>
      </g>
     </g>
    </g>
    <g id="text_8">
     <!-- ${m/z}$ -->
     <g transform="translate(226.96 335.860562) scale(0.1 -0.1)">
      <defs>
       <path id="DejaVuSans-Oblique-6d" d="M 5747 2113 
L 5338 0 
L 4763 0 
L 5166 2094 
Q 5191 2228 5203 2325 
Q 5216 2422 5216 2491 
Q 5216 2772 5059 2928 
Q 4903 3084 4622 3084 
Q 4203 3084 3875 2770 
Q 3547 2456 3450 1953 
L 3066 0 
L 2491 0 
L 2900 2094 
Q 2925 2209 2937 2307 
Q 2950 2406 2950 2484 
Q 2950 2769 2794 2926 
Q 2638 3084 2363 3084 
Q 1938 3084 1609 2770 
Q 1281 2456 1184 1953 
L 800 0 
L 225 0 
L 909 3500 
L 1484 3500 
L 1375 2956 
Q 1609 3263 1923 3423 
Q 2238 3584 2597 3584 
Q 2978 3584 3223 3384 
Q 3469 3184 3519 2828 
Q 3781 3197 4126 3390 
Q 4472 3584 4856 3584 
Q 5306 3584 5551 3325 
Q 5797 3066 5797 2591 
Q 5797 2488 5784 2364 
Q 5772 2241 5747 2113 
z
" transform="scale(0.015625)"/>
       <path id="DejaVuSans-2f" d="M 1625 4666 
L 2156 4666 
L 531 -594 
L 0 -594 
L 1625 4666 
z
" transform="scale(0.015625)"/>
       <path id="DejaVuSans-Oblique-7a" d="M 744 3500 
L 3475 3500 
L 3372 2975 
L 738 459 
L 2913 459 
L 2822 0 
L -19 0 
L 84 525 
L 2719 3041 
L 653 3041 
L 744 3500 
z
" transform="scale(0.015625)"/>
      </defs>
      <use xlink:href="#DejaVuSans-Oblique-6d" transform="translate(0 0.09375)"/>
      <use xlink:href="#DejaVuSans-2f" transform="translate(97.412109 0.09375)"/>
      <use xlink:href="#DejaVuSans-Oblique-7a" transform="translate(131.103516 0.09375)"/>
     </g>
    </g>
   </g>
   <g id="matplotlib.axis_2">
    <g id="ytick_1">
     <g id="line2d_8">
      <defs>
       <path id="m229cb38972" d="M 0 0 
L -3.5 0 
" style="stroke: #000000; stroke-width: 0.8"/>
      </defs>
      <g>
       <use xlink:href="#m229cb38972" x="57.6" y="307.584" style="stroke: #000000; stroke-width: 0.8"/>
      </g>
     </g>
     <g id="text_9">
      <!-- 0.0 -->
      <g transform="translate(34.696875 311.383219) scale(0.1 -0.1)">
       <defs>
        <path id="DejaVuSans-2e" d="M 684 794 
L 1344 794 
L 1344 0 
L 684 0 
L 684 794 
z
" transform="scale(0.015625)"/>
       </defs>
       <use xlink:href="#DejaVuSans-30"/>
       <use xlink:href="#DejaVuSans-2e" x="63.623047"/>
       <use xlink:href="#DejaVuSans-30" x="95.410156"/>
      </g>
     </g>
    </g>
    <g id="ytick_2">
     <g id="line2d_9">
      <g>
       <use xlink:href="#m229cb38972" x="57.6" y="264.540364" style="stroke: #000000; stroke-width: 0.8"/>
      </g>
     </g>
     <g id="text_10">
      <!-- 0.2 -->
      <g transform="translate(34.696875 268.339583) scale(0.1 -0.1)">
       <use xlink:href="#DejaVuSans-30"/>
       <use xlink:href="#DejaVuSans-2e" x="63.623047"/>
       <use xlink:href="#DejaVuSans-32" x="95.410156"/>
      </g>
     </g>
    </g>
    <g id="ytick_3">
     <g id="line2d_10">
      <g>
       <use xlink:href="#m229cb38972" x="57.6" y="221.496728" style="stroke: #000000; stroke-width: 0.8"/>
      </g>
     </g>
     <g id="text_11">
      <!-- 0.4 -->
      <g transform="translate(34.696875 225.295946) scale(0.1 -0.1)">
       <defs>
        <path id="DejaVuSans-34" d="M 2419 4116 
L 825 1625 
L 2419 1625 
L 2419 4116 
z
M 2253 4666 
L 3047 4666 
L 3047 1625 
L 3713 1625 
L 3713 1100 
L 3047 1100 
L 3047 0 
L 2419 0 
L 2419 1100 
L 313 1100 
L 313 1709 
L 2253 4666 
z
" transform="scale(0.015625)"/>
       </defs>
       <use xlink:href="#DejaVuSans-30"/>
       <use xlink:href="#DejaVuSans-2e" x="63.623047"/>
       <use xlink:href="#DejaVuSans-34" x="95.410156"/>
      </g>
     </g>
    </g>
    <g id="ytick_4">
     <g id="line2d_11">
      <g>
       <use xlink:href="#m229cb38972" x="57.6" y="178.453092" style="stroke: #000000; stroke-width: 0.8"/>
      </g>
     </g>
     <g id="text_12">
      <!-- 0.6 -->
      <g transform="translate(34.696875 182.25231) scale(0.1 -0.1)">
       <defs>
        <path id="DejaVuSans-36" d="M 2113 2584 
Q 1688 2584 1439 2293 
Q 1191 2003 1191 1497 
Q 1191 994 1439 701 
Q 1688 409 2113 409 
Q 2538 409 2786 701 
Q 3034 994 3034 1497 
Q 3034 2003 2786 2293 
Q 2538 2584 2113 2584 
z
M 3366 4563 
L 3366 3988 
Q 3128 4100 2886 4159 
Q 2644 4219 2406 4219 
Q 1781 4219 1451 3797 
Q 1122 3375 1075 2522 
Q 1259 2794 1537 2939 
Q 1816 3084 2150 3084 
Q 2853 3084 3261 2657 
Q 3669 2231 3669 1497 
Q 3669 778 3244 343 
Q 2819 -91 2113 -91 
Q 1303 -91 875 529 
Q 447 1150 447 2328 
Q 447 3434 972 4092 
Q 1497 4750 2381 4750 
Q 2619 4750 2861 4703 
Q 3103 4656 3366 4563 
z
" transform="scale(0.015625)"/>
       </defs>
       <use xlink:href="#DejaVuSans-30"/>
       <use xlink:href="#DejaVuSans-2e" x="63.623047"/>
       <use xlink:href="#DejaVuSans-36" x="95.410156"/>
      </g>
     </g>
    </g>
    <g id="ytick_5">
     <g id="line2d_12">
      <g>
       <use xlink:href="#m229cb38972" x="57.6" y="135.409455" style="stroke: #000000; stroke-width: 0.8"/>
      </g>
     </g>
     <g id="text_13">
      <!-- 0.8 -->
      <g transform="translate(34.696875 139.208674) scale(0.1 -0.1)">
       <defs>
        <path id="DejaVuSans-38" d="M 2034 2216 
Q 1584 2216 1326 1975 
Q 1069 1734 1069 1313 
Q 1069 891 1326 650 
Q 1584 409 2034 409 
Q 2484 409 2743 651 
Q 3003 894 3003 1313 
Q 3003 1734 2745 1975 
Q 2488 2216 2034 2216 
z
M 1403 2484 
Q 997 2584 770 2862 
Q 544 3141 544 3541 
Q 544 4100 942 4425 
Q 1341 4750 2034 4750 
Q 2731 4750 3128 4425 
Q 3525 4100 3525 3541 
Q 3525 3141 3298 2862 
Q 3072 2584 2669 2484 
Q 3125 2378 3379 2068 
Q 3634 1759 3634 1313 
Q 3634 634 3220 271 
Q 2806 -91 2034 -91 
Q 1263 -91 848 271 
Q 434 634 434 1313 
Q 434 1759 690 2068 
Q 947 2378 1403 2484 
z
M 1172 3481 
Q 1172 3119 1398 2916 
Q 1625 2713 2034 2713 
Q 2441 2713 2670 2916 
Q 2900 3119 2900 3481 
Q 2900 3844 2670 4047 
Q 2441 4250 2034 4250 
Q 1625 4250 1398 4047 
Q 1172 3844 1172 3481 
z
" transform="scale(0.015625)"/>
       </defs>
       <use xlink:href="#DejaVuSans-30"/>
       <use xlink:href="#DejaVuSans-2e" x="63.623047"/>
       <use xlink:href="#DejaVuSans-38" x="95.410156"/>
      </g>
     </g>
    </g>
    <g id="ytick_6">
     <g id="line2d_13">
      <g>
       <use xlink:href="#m229cb38972" x="57.6" y="92.365819" style="stroke: #000000; stroke-width: 0.8"/>
      </g>
     </g>
     <g id="text_14">
      <!-- 1.0 -->
      <g transform="translate(34.696875 96.165038) scale(0.1 -0.1)">
       <use xlink:href="#DejaVuSans-31"/>
       <use xlink:href="#DejaVuSans-2e" x="63.623047"/>
       <use xlink:href="#DejaVuSans-30" x="95.410156"/>
      </g>
     </g>
    </g>
    <g id="ytick_7">
     <g id="line2d_14">
      <g>
       <use xlink:href="#m229cb38972" x="57.6" y="49.322183" style="stroke: #000000; stroke-width: 0.8"/>
      </g>
     </g>
     <g id="text_15">
      <!-- 1.2 -->
      <g transform="translate(34.696875 53.121402) scale(0.1 -0.1)">
       <use xlink:href="#DejaVuSans-31"/>
       <use xlink:href="#DejaVuSans-2e" x="63.623047"/>
       <use xlink:href="#DejaVuSans-32" x="95.410156"/>
      </g>
     </g>
    </g>
    <g id="text_16">
     <!-- intensities -->
     <g transform="translate(28.617187 200.3155) rotate(-90) scale(0.1 -0.1)">
      <defs>
       <path id="DejaVuSans-69" d="M 603 3500 
L 1178 3500 
L 1178 0 
L 603 0 
L 603 3500 
z
M 603 4863 
L 1178 4863 
L 1178 4134 
L 603 4134 
L 603 4863 
z
" transform="scale(0.015625)"/>
       <path id="DejaVuSans-6e" d="M 3513 2113 
L 3513 0 
L 2938 0 
L 2938 2094 
Q 2938 2591 2744 2837 
Q 2550 3084 2163 3084 
Q 1697 3084 1428 2787 
Q 1159 2491 1159 1978 
L 1159 0 
L 581 0 
L 581 3500 
L 1159 3500 
L 1159 2956 
Q 1366 3272 1645 3428 
Q 1925 3584 2291 3584 
Q 2894 3584 3203 3211 
Q 3513 2838 3513 2113 
z
" transform="scale(0.015625)"/>
       <path id="DejaVuSans-74" d="M 1172 4494 
L 1172 3500 
L 2356 3500 
L 2356 3053 
L 1172 3053 
L 1172 1153 
Q 1172 725 1289 603 
Q 1406 481 1766 481 
L 2356 481 
L 2356 0 
L 1766 0 
Q 1100 0 847 248 
Q 594 497 594 1153 
L 594 3053 
L 172 3053 
L 172 3500 
L 594 3500 
L 594 4494 
L 1172 4494 
z
" transform="scale(0.015625)"/>
       <path id="DejaVuSans-65" d="M 3597 1894 
L 3597 1613 
L 953 1613 
Q 991 1019 1311 708 
Q 1631 397 2203 397 
Q 2534 397 2845 478 
Q 3156 559 3463 722 
L 3463 178 
Q 3153 47 2828 -22 
Q 2503 -91 2169 -91 
Q 1331 -91 842 396 
Q 353 884 353 1716 
Q 353 2575 817 3079 
Q 1281 3584 2069 3584 
Q 2775 3584 3186 3129 
Q 3597 2675 3597 1894 
z
M 3022 2063 
Q 3016 2534 2758 2815 
Q 2500 3097 2075 3097 
Q 1594 3097 1305 2825 
Q 1016 2553 972 2059 
L 3022 2063 
z
" transform="scale(0.015625)"/>
       <path id="DejaVuSans-73" d="M 2834 3397 
L 2834 2853 
Q 2591 2978 2328 3040 
Q 2066 3103 1784 3103 
Q 1356 3103 1142 2972 
Q 928 2841 928 2578 
Q 928 2378 1081 2264 
Q 1234 2150 1697 2047 
L 1894 2003 
Q 2506 1872 2764 1633 
Q 3022 1394 3022 966 
Q 3022 478 2636 193 
Q 2250 -91 1575 -91 
Q 1294 -91 989 -36 
Q 684 19 347 128 
L 347 722 
Q 666 556 975 473 
Q 1284 391 1588 391 
Q 1994 391 2212 530 
Q 2431 669 2431 922 
Q 2431 1156 2273 1281 
Q 2116 1406 1581 1522 
L 1381 1569 
Q 847 1681 609 1914 
Q 372 2147 372 2553 
Q 372 3047 722 3315 
Q 1072 3584 1716 3584 
Q 2034 3584 2315 3537 
Q 2597 3491 2834 3397 
z
" transform="scale(0.015625)"/>
      </defs>
      <use xlink:href="#DejaVuSans-69"/>
      <use xlink:href="#DejaVuSans-6e" x="27.783203"/>
      <use xlink:href="#DejaVuSans-74" x="91.162109"/>
      <use xlink:href="#DejaVuSans-65" x="130.371094"/>
      <use xlink:href="#DejaVuSans-6e" x="191.894531"/>
      <use xlink:href="#DejaVuSans-73" x="255.273438"/>
      <use xlink:href="#DejaVuSans-69" x="307.373047"/>
      <use xlink:href="#DejaVuSans-74" x="335.15625"/>
      <use xlink:href="#DejaVuSans-69" x="374.365234"/>
      <use xlink:href="#DejaVuSans-65" x="402.148438"/>
      <use xlink:href="#DejaVuSans-73" x="463.671875"/>
     </g>
    </g>
    <g id="text_17">
     <!-- 1e8 -->
     <g transform="translate(57.6 38.472) scale(0.1 -0.1)">
      <use xlink:href="#DejaVuSans-31"/>
      <use xlink:href="#DejaVuSans-65" x="63.623047"/>
      <use xlink:href="#DejaVuSans-38" x="125.146484"/>
     </g>
    </g>
   </g>
   <g id="patch_86">
    <path d="M 57.6 307.584 
L 57.6 41.472 
" style="fill: none; stroke: #000000; stroke-width: 0.8; stroke-linejoin: miter; stroke-linecap: square"/>
   </g>
   <g id="patch_87">
    <path d="M 414.72 307.584 
L 414.72 41.472 
" style="fill: none; stroke: #000000; stroke-width: 0.8; stroke-linejoin: miter; stroke-linecap: square"/>
   </g>
   <g id="patch_88">
    <path d="M 57.6 307.584 
L 414.72 307.584 
" style="fill: none; stroke: #000000; stroke-width: 0.8; stroke-linejoin: miter; stroke-linecap: square"/>
   </g>
   <g id="patch_89">
    <path d="M 57.6 41.472 
L 414.72 41.472 
" style="fill: none; stroke: #000000; stroke-width: 0.8; stroke-linejoin: miter; stroke-linecap: square"/>
   </g>
   <g id="text_18">
    <!-- 268.0964 -->
    <g transform="translate(298.3248 271.824326) scale(0.06 -0.06)">
     <defs>
      <path id="DejaVuSans-39" d="M 703 97 
L 703 672 
Q 941 559 1184 500 
Q 1428 441 1663 441 
Q 2288 441 2617 861 
Q 2947 1281 2994 2138 
Q 2813 1869 2534 1725 
Q 2256 1581 1919 1581 
Q 1219 1581 811 2004 
Q 403 2428 403 3163 
Q 403 3881 828 4315 
Q 1253 4750 1959 4750 
Q 2769 4750 3195 4129 
Q 3622 3509 3622 2328 
Q 3622 1225 3098 567 
Q 2575 -91 1691 -91 
Q 1453 -91 1209 -44 
Q 966 3 703 97 
z
M 1959 2075 
Q 2384 2075 2632 2365 
Q 2881 2656 2881 3163 
Q 2881 3666 2632 3958 
Q 2384 4250 1959 4250 
Q 1534 4250 1286 3958 
Q 1038 3666 1038 3163 
Q 1038 2656 1286 2365 
Q 1534 2075 1959 2075 
z
" transform="scale(0.015625)"/>
     </defs>
     <use xlink:href="#DejaVuSans-32"/>
     <use xlink:href="#DejaVuSans-36" x="63.623047"/>
     <use xlink:href="#DejaVuSans-38" x="127.246094"/>
     <use xlink:href="#DejaVuSans-2e" x="190.869141"/>
     <use xlink:href="#DejaVuSans-30" x="222.65625"/>
     <use xlink:href="#DejaVuSans-39" x="286.279297"/>
     <use xlink:href="#DejaVuSans-36" x="349.902344"/>
     <use xlink:href="#DejaVuSans-34" x="413.525391"/>
    </g>
   </g>
   <g id="text_19">
    <!-- 284.0915 -->
    <g transform="translate(315.973128 220.308439) scale(0.06 -0.06)">
     <use xlink:href="#DejaVuSans-32"/>
     <use xlink:href="#DejaVuSans-38" x="63.623047"/>
     <use xlink:href="#DejaVuSans-34" x="127.246094"/>
     <use xlink:href="#DejaVuSans-2e" x="190.869141"/>
     <use xlink:href="#DejaVuSans-30" x="222.65625"/>
     <use xlink:href="#DejaVuSans-39" x="286.279297"/>
     <use xlink:href="#DejaVuSans-31" x="349.902344"/>
     <use xlink:href="#DejaVuSans-35" x="413.525391"/>
    </g>
   </g>
   <g id="text_20">
    <!-- 345.1081 -->
    <g transform="translate(383.296297 50.939625) scale(0.06 -0.06)">
     <use xlink:href="#DejaVuSans-33"/>
     <use xlink:href="#DejaVuSans-34" x="63.623047"/>
     <use xlink:href="#DejaVuSans-35" x="127.246094"/>
     <use xlink:href="#DejaVuSans-2e" x="190.869141"/>
     <use xlink:href="#DejaVuSans-31" x="222.65625"/>
     <use xlink:href="#DejaVuSans-30" x="286.279297"/>
     <use xlink:href="#DejaVuSans-38" x="349.902344"/>
     <use xlink:href="#DejaVuSans-31" x="413.525391"/>
    </g>
   </g>
   <g id="text_21">
    <!-- 346.111 -->
    <g transform="translate(386.311672 277.314861) scale(0.06 -0.06)">
     <use xlink:href="#DejaVuSans-33"/>
     <use xlink:href="#DejaVuSans-34" x="63.623047"/>
     <use xlink:href="#DejaVuSans-36" x="127.246094"/>
     <use xlink:href="#DejaVuSans-2e" x="190.869141"/>
     <use xlink:href="#DejaVuSans-31" x="222.65625"/>
     <use xlink:href="#DejaVuSans-31" x="286.279297"/>
     <use xlink:href="#DejaVuSans-31" x="349.902344"/>
    </g>
   </g>
   <g id="text_22">
    <!-- MS2 spectrum of ${m/z}$ 345.1078, scan time 8.68 min. -->
    <g transform="translate(57.6 24.873562) scale(0.12 -0.12)">
     <defs>
      <path id="DejaVuSans-4d" d="M 628 4666 
L 1569 4666 
L 2759 1491 
L 3956 4666 
L 4897 4666 
L 4897 0 
L 4281 0 
L 4281 4097 
L 3078 897 
L 2444 897 
L 1241 4097 
L 1241 0 
L 628 0 
L 628 4666 
z
" transform="scale(0.015625)"/>
      <path id="DejaVuSans-53" d="M 3425 4513 
L 3425 3897 
Q 3066 4069 2747 4153 
Q 2428 4238 2131 4238 
Q 1616 4238 1336 4038 
Q 1056 3838 1056 3469 
Q 1056 3159 1242 3001 
Q 1428 2844 1947 2747 
L 2328 2669 
Q 3034 2534 3370 2195 
Q 3706 1856 3706 1288 
Q 3706 609 3251 259 
Q 2797 -91 1919 -91 
Q 1588 -91 1214 -16 
Q 841 59 441 206 
L 441 856 
Q 825 641 1194 531 
Q 1563 422 1919 422 
Q 2459 422 2753 634 
Q 3047 847 3047 1241 
Q 3047 1584 2836 1778 
Q 2625 1972 2144 2069 
L 1759 2144 
Q 1053 2284 737 2584 
Q 422 2884 422 3419 
Q 422 4038 858 4394 
Q 1294 4750 2059 4750 
Q 2388 4750 2728 4690 
Q 3069 4631 3425 4513 
z
" transform="scale(0.015625)"/>
      <path id="DejaVuSans-20" transform="scale(0.015625)"/>
      <path id="DejaVuSans-70" d="M 1159 525 
L 1159 -1331 
L 581 -1331 
L 581 3500 
L 1159 3500 
L 1159 2969 
Q 1341 3281 1617 3432 
Q 1894 3584 2278 3584 
Q 2916 3584 3314 3078 
Q 3713 2572 3713 1747 
Q 3713 922 3314 415 
Q 2916 -91 2278 -91 
Q 1894 -91 1617 61 
Q 1341 213 1159 525 
z
M 3116 1747 
Q 3116 2381 2855 2742 
Q 2594 3103 2138 3103 
Q 1681 3103 1420 2742 
Q 1159 2381 1159 1747 
Q 1159 1113 1420 752 
Q 1681 391 2138 391 
Q 2594 391 2855 752 
Q 3116 1113 3116 1747 
z
" transform="scale(0.015625)"/>
      <path id="DejaVuSans-63" d="M 3122 3366 
L 3122 2828 
Q 2878 2963 2633 3030 
Q 2388 3097 2138 3097 
Q 1578 3097 1268 2742 
Q 959 2388 959 1747 
Q 959 1106 1268 751 
Q 1578 397 2138 397 
Q 2388 397 2633 464 
Q 2878 531 3122 666 
L 3122 134 
Q 2881 22 2623 -34 
Q 2366 -91 2075 -91 
Q 1284 -91 818 406 
Q 353 903 353 1747 
Q 353 2603 823 3093 
Q 1294 3584 2113 3584 
Q 2378 3584 2631 3529 
Q 2884 3475 3122 3366 
z
" transform="scale(0.015625)"/>
      <path id="DejaVuSans-72" d="M 2631 2963 
Q 2534 3019 2420 3045 
Q 2306 3072 2169 3072 
Q 1681 3072 1420 2755 
Q 1159 2438 1159 1844 
L 1159 0 
L 581 0 
L 581 3500 
L 1159 3500 
L 1159 2956 
Q 1341 3275 1631 3429 
Q 1922 3584 2338 3584 
Q 2397 3584 2469 3576 
Q 2541 3569 2628 3553 
L 2631 2963 
z
" transform="scale(0.015625)"/>
      <path id="DejaVuSans-75" d="M 544 1381 
L 544 3500 
L 1119 3500 
L 1119 1403 
Q 1119 906 1312 657 
Q 1506 409 1894 409 
Q 2359 409 2629 706 
Q 2900 1003 2900 1516 
L 2900 3500 
L 3475 3500 
L 3475 0 
L 2900 0 
L 2900 538 
Q 2691 219 2414 64 
Q 2138 -91 1772 -91 
Q 1169 -91 856 284 
Q 544 659 544 1381 
z
M 1991 3584 
L 1991 3584 
z
" transform="scale(0.015625)"/>
      <path id="DejaVuSans-6d" d="M 3328 2828 
Q 3544 3216 3844 3400 
Q 4144 3584 4550 3584 
Q 5097 3584 5394 3201 
Q 5691 2819 5691 2113 
L 5691 0 
L 5113 0 
L 5113 2094 
Q 5113 2597 4934 2840 
Q 4756 3084 4391 3084 
Q 3944 3084 3684 2787 
Q 3425 2491 3425 1978 
L 3425 0 
L 2847 0 
L 2847 2094 
Q 2847 2600 2669 2842 
Q 2491 3084 2119 3084 
Q 1678 3084 1418 2786 
Q 1159 2488 1159 1978 
L 1159 0 
L 581 0 
L 581 3500 
L 1159 3500 
L 1159 2956 
Q 1356 3278 1631 3431 
Q 1906 3584 2284 3584 
Q 2666 3584 2933 3390 
Q 3200 3197 3328 2828 
z
" transform="scale(0.015625)"/>
      <path id="DejaVuSans-6f" d="M 1959 3097 
Q 1497 3097 1228 2736 
Q 959 2375 959 1747 
Q 959 1119 1226 758 
Q 1494 397 1959 397 
Q 2419 397 2687 759 
Q 2956 1122 2956 1747 
Q 2956 2369 2687 2733 
Q 2419 3097 1959 3097 
z
M 1959 3584 
Q 2709 3584 3137 3096 
Q 3566 2609 3566 1747 
Q 3566 888 3137 398 
Q 2709 -91 1959 -91 
Q 1206 -91 779 398 
Q 353 888 353 1747 
Q 353 2609 779 3096 
Q 1206 3584 1959 3584 
z
" transform="scale(0.015625)"/>
      <path id="DejaVuSans-66" d="M 2375 4863 
L 2375 4384 
L 1825 4384 
Q 1516 4384 1395 4259 
Q 1275 4134 1275 3809 
L 1275 3500 
L 2222 3500 
L 2222 3053 
L 1275 3053 
L 1275 0 
L 697 0 
L 697 3053 
L 147 3053 
L 147 3500 
L 697 3500 
L 697 3744 
Q 697 4328 969 4595 
Q 1241 4863 1831 4863 
L 2375 4863 
z
" transform="scale(0.015625)"/>
      <path id="DejaVuSans-37" d="M 525 4666 
L 3525 4666 
L 3525 4397 
L 1831 0 
L 1172 0 
L 2766 4134 
L 525 4134 
L 525 4666 
z
" transform="scale(0.015625)"/>
      <path id="DejaVuSans-2c" d="M 750 794 
L 1409 794 
L 1409 256 
L 897 -744 
L 494 -744 
L 750 256 
L 750 794 
z
" transform="scale(0.015625)"/>
      <path id="DejaVuSans-61" d="M 2194 1759 
Q 1497 1759 1228 1600 
Q 959 1441 959 1056 
Q 959 750 1161 570 
Q 1363 391 1709 391 
Q 2188 391 2477 730 
Q 2766 1069 2766 1631 
L 2766 1759 
L 2194 1759 
z
M 3341 1997 
L 3341 0 
L 2766 0 
L 2766 531 
Q 2569 213 2275 61 
Q 1981 -91 1556 -91 
Q 1019 -91 701 211 
Q 384 513 384 1019 
Q 384 1609 779 1909 
Q 1175 2209 1959 2209 
L 2766 2209 
L 2766 2266 
Q 2766 2663 2505 2880 
Q 2244 3097 1772 3097 
Q 1472 3097 1187 3025 
Q 903 2953 641 2809 
L 641 3341 
Q 956 3463 1253 3523 
Q 1550 3584 1831 3584 
Q 2591 3584 2966 3190 
Q 3341 2797 3341 1997 
z
" transform="scale(0.015625)"/>
     </defs>
     <use xlink:href="#DejaVuSans-4d" transform="translate(0 0.015625)"/>
     <use xlink:href="#DejaVuSans-53" transform="translate(86.279297 0.015625)"/>
     <use xlink:href="#DejaVuSans-32" transform="translate(149.755859 0.015625)"/>
     <use xlink:href="#DejaVuSans-20" transform="translate(213.378906 0.015625)"/>
     <use xlink:href="#DejaVuSans-73" transform="translate(245.166016 0.015625)"/>
     <use xlink:href="#DejaVuSans-70" transform="translate(297.265625 0.015625)"/>
     <use xlink:href="#DejaVuSans-65" transform="translate(360.742188 0.015625)"/>
     <use xlink:href="#DejaVuSans-63" transform="translate(422.265625 0.015625)"/>
     <use xlink:href="#DejaVuSans-74" transform="translate(477.246094 0.015625)"/>
     <use xlink:href="#DejaVuSans-72" transform="translate(516.455078 0.015625)"/>
     <use xlink:href="#DejaVuSans-75" transform="translate(557.568359 0.015625)"/>
     <use xlink:href="#DejaVuSans-6d" transform="translate(620.947266 0.015625)"/>
     <use xlink:href="#DejaVuSans-20" transform="translate(718.359375 0.015625)"/>
     <use xlink:href="#DejaVuSans-6f" transform="translate(750.146484 0.015625)"/>
     <use xlink:href="#DejaVuSans-66" transform="translate(811.328125 0.015625)"/>
     <use xlink:href="#DejaVuSans-20" transform="translate(846.533203 0.015625)"/>
     <use xlink:href="#DejaVuSans-Oblique-6d" transform="translate(878.320312 0.015625)"/>
     <use xlink:href="#DejaVuSans-2f" transform="translate(975.732422 0.015625)"/>
     <use xlink:href="#DejaVuSans-Oblique-7a" transform="translate(1009.423828 0.015625)"/>
     <use xlink:href="#DejaVuSans-20" transform="translate(1061.914062 0.015625)"/>
     <use xlink:href="#DejaVuSans-33" transform="translate(1093.701172 0.015625)"/>
     <use xlink:href="#DejaVuSans-34" transform="translate(1157.324219 0.015625)"/>
     <use xlink:href="#DejaVuSans-35" transform="translate(1220.947266 0.015625)"/>
     <use xlink:href="#DejaVuSans-2e" transform="translate(1284.570312 0.015625)"/>
     <use xlink:href="#DejaVuSans-31" transform="translate(1316.357422 0.015625)"/>
     <use xlink:href="#DejaVuSans-30" transform="translate(1379.980469 0.015625)"/>
     <use xlink:href="#DejaVuSans-37" transform="translate(1443.603516 0.015625)"/>
     <use xlink:href="#DejaVuSans-38" transform="translate(1507.226562 0.015625)"/>
     <use xlink:href="#DejaVuSans-2c" transform="translate(1570.849609 0.015625)"/>
     <use xlink:href="#DejaVuSans-20" transform="translate(1602.636719 0.015625)"/>
     <use xlink:href="#DejaVuSans-73" transform="translate(1634.423828 0.015625)"/>
     <use xlink:href="#DejaVuSans-63" transform="translate(1686.523438 0.015625)"/>
     <use xlink:href="#DejaVuSans-61" transform="translate(1741.503906 0.015625)"/>
     <use xlink:href="#DejaVuSans-6e" transform="translate(1802.783203 0.015625)"/>
     <use xlink:href="#DejaVuSans-20" transform="translate(1866.162109 0.015625)"/>
     <use xlink:href="#DejaVuSans-74" transform="translate(1897.949219 0.015625)"/>
     <use xlink:href="#DejaVuSans-69" transform="translate(1937.158203 0.015625)"/>
     <use xlink:href="#DejaVuSans-6d" transform="translate(1964.941406 0.015625)"/>
     <use xlink:href="#DejaVuSans-65" transform="translate(2062.353516 0.015625)"/>
     <use xlink:href="#DejaVuSans-20" transform="translate(2123.876953 0.015625)"/>
     <use xlink:href="#DejaVuSans-38" transform="translate(2155.664062 0.015625)"/>
     <use xlink:href="#DejaVuSans-2e" transform="translate(2219.287109 0.015625)"/>
     <use xlink:href="#DejaVuSans-36" transform="translate(2251.074219 0.015625)"/>
     <use xlink:href="#DejaVuSans-38" transform="translate(2314.697266 0.015625)"/>
     <use xlink:href="#DejaVuSans-20" transform="translate(2378.320312 0.015625)"/>
     <use xlink:href="#DejaVuSans-6d" transform="translate(2410.107422 0.015625)"/>
     <use xlink:href="#DejaVuSans-69" transform="translate(2507.519531 0.015625)"/>
     <use xlink:href="#DejaVuSans-6e" transform="translate(2535.302734 0.015625)"/>
     <use xlink:href="#DejaVuSans-2e" transform="translate(2598.681641 0.015625)"/>
    </g>
   </g>
  </g>
 </g>
 <defs>
  <clipPath id="p71689fc50d">
   <rect x="57.6" y="41.472" width="357.12" height="266.112"/>
  </clipPath>
 </defs>
</svg>
