<?xml version="1.0" encoding="utf-8" standalone="no"?>
<!DOCTYPE svg PUBLIC "-//W3C//DTD SVG 1.1//EN"
  "http://www.w3.org/Graphics/SVG/1.1/DTD/svg11.dtd">
<svg xmlns:xlink="http://www.w3.org/1999/xlink" width="460.8pt" height="345.6pt" viewBox="0 0 460.8 345.6" xmlns="http://www.w3.org/2000/svg" version="1.1">
 <metadata>
  <rdf:RDF xmlns:dc="http://purl.org/dc/elements/1.1/" xmlns:cc="http://creativecommons.org/ns#" xmlns:rdf="http://www.w3.org/1999/02/22-rdf-syntax-ns#">
   <cc:Work>
    <dc:type rdf:resource="http://purl.org/dc/dcmitype/StillImage"/>
    <dc:date>2025-01-11T13:53:52.116287</dc:date>
    <dc:format>image/svg+xml</dc:format>
    <dc:creator>
     <cc:Agent>
      <dc:title>Matplotlib v3.7.3, https://matplotlib.org/</dc:title>
     </cc:Agent>
    </dc:creator>
   </cc:Work>
  </rdf:RDF>
 </metadata>
 <defs>
  <style type="text/css">*{stroke-linejoin: round; stroke-linecap: butt}</style>
 </defs>
 <g id="figure_1">
  <g id="patch_1">
   <path d="M 0 345.6 
L 460.8 345.6 
L 460.8 0 
L 0 0 
z
" style="fill: #ffffff"/>
  </g>
  <g id="axes_1">
   <g id="patch_2">
    <path d="M 57.6 307.584 
L 414.72 307.584 
L 414.72 41.472 
L 57.6 41.472 
z
" style="fill: #ffffff"/>
   </g>
   <g id="patch_3">
    <path d="M 73.832727 307.584 
L 74.673032 307.584 
L 74.673032 305.236956 
L 73.832727 305.236956 
z
" clip-path="url(#p49a4f62343)" style="fill: #1f77b4"/>
   </g>
   <g id="patch_4">
    <path d="M 74.02537 307.584 
L 74.865676 307.584 
L 74.865676 306.597952 
L 74.02537 306.597952 
z
" clip-path="url(#p49a4f62343)" style="fill: #1f77b4"/>
   </g>
   <g id="patch_5">
    <path d="M 74.074146 307.584 
L 74.914451 307.584 
L 74.914451 306.463656 
L 74.074146 306.463656 
z
" clip-path="url(#p49a4f62343)" style="fill: #1f77b4"/>
   </g>
   <g id="patch_6">
    <path d="M 75.109045 307.584 
L 75.94935 307.584 
L 75.94935 304.366019 
L 75.109045 304.366019 
z
" clip-path="url(#p49a4f62343)" style="fill: #1f77b4"/>
   </g>
   <g id="patch_7">
    <path d="M 76.129663 307.584 
L 76.969968 307.584 
L 76.969968 305.629093 
L 76.129663 305.629093 
z
" clip-path="url(#p49a4f62343)" style="fill: #1f77b4"/>
   </g>
   <g id="patch_8">
    <path d="M 76.142694 307.584 
L 76.982999 307.584 
L 76.982999 305.98013 
L 76.142694 305.98013 
z
" clip-path="url(#p49a4f62343)" style="fill: #1f77b4"/>
   </g>
   <g id="patch_9">
    <path d="M 76.38608 307.584 
L 77.226385 307.584 
L 77.226385 306.39747 
L 76.38608 306.39747 
z
" clip-path="url(#p49a4f62343)" style="fill: #1f77b4"/>
   </g>
   <g id="patch_10">
    <path d="M 78.259897 307.584 
L 79.100202 307.584 
L 79.100202 305.49012 
L 78.259897 305.49012 
z
" clip-path="url(#p49a4f62343)" style="fill: #1f77b4"/>
   </g>
   <g id="patch_11">
    <path d="M 78.910375 307.584 
L 79.75068 307.584 
L 79.75068 306.594049 
L 78.910375 306.594049 
z
" clip-path="url(#p49a4f62343)" style="fill: #1f77b4"/>
   </g>
   <g id="patch_12">
    <path d="M 81.521447 307.584 
L 82.361752 307.584 
L 82.361752 305.665485 
L 81.521447 305.665485 
z
" clip-path="url(#p49a4f62343)" style="fill: #1f77b4"/>
   </g>
   <g id="patch_13">
    <path d="M 86.629948 307.584 
L 87.470253 307.584 
L 87.470253 302.6481 
L 86.629948 302.6481 
z
" clip-path="url(#p49a4f62343)" style="fill: #1f77b4"/>
   </g>
   <g id="patch_14">
    <path d="M 87.713562 307.584 
L 88.553867 307.584 
L 88.553867 302.117058 
L 87.713562 302.117058 
z
" clip-path="url(#p49a4f62343)" style="fill: #1f77b4"/>
   </g>
   <g id="patch_15">
    <path d="M 89.272057 307.584 
L 90.112362 307.584 
L 90.112362 306.713105 
L 89.272057 306.713105 
z
" clip-path="url(#p49a4f62343)" style="fill: #1f77b4"/>
   </g>
   <g id="patch_16">
    <path d="M 104.51428 307.584 
L 105.354585 307.584 
L 105.354585 306.591014 
L 104.51428 306.591014 
z
" clip-path="url(#p49a4f62343)" style="fill: #1f77b4"/>
   </g>
   <g id="patch_17">
    <path d="M 109.75992 307.584 
L 110.600225 307.584 
L 110.600225 305.787615 
L 109.75992 305.787615 
z
" clip-path="url(#p49a4f62343)" style="fill: #1f77b4"/>
   </g>
   <g id="patch_18">
    <path d="M 111.877184 307.584 
L 112.717489 307.584 
L 112.717489 302.303915 
L 111.877184 302.303915 
z
" clip-path="url(#p49a4f62343)" style="fill: #1f77b4"/>
   </g>
   <g id="patch_19">
    <path d="M 112.9225 307.584 
L 113.762805 307.584 
L 113.762805 304.437906 
L 112.9225 304.437906 
z
" clip-path="url(#p49a4f62343)" style="fill: #1f77b4"/>
   </g>
   <g id="patch_20">
    <path d="M 113.287055 307.584 
L 114.12736 307.584 
L 114.12736 306.534662 
L 113.287055 306.534662 
z
" clip-path="url(#p49a4f62343)" style="fill: #1f77b4"/>
   </g>
   <g id="patch_21">
    <path d="M 117.118857 307.584 
L 117.959162 307.584 
L 117.959162 306.509379 
L 117.118857 306.509379 
z
" clip-path="url(#p49a4f62343)" style="fill: #1f77b4"/>
   </g>
   <g id="patch_22">
    <path d="M 119.235752 307.584 
L 120.076057 307.584 
L 120.076057 299.593713 
L 119.235752 299.593713 
z
" clip-path="url(#p49a4f62343)" style="fill: #1f77b4"/>
   </g>
   <g id="patch_23">
    <path d="M 120.269368 307.584 
L 121.109673 307.584 
L 121.109673 305.037766 
L 120.269368 305.037766 
z
" clip-path="url(#p49a4f62343)" style="fill: #1f77b4"/>
   </g>
   <g id="patch_24">
    <path d="M 121.352807 307.584 
L 122.193112 307.584 
L 122.193112 306.501157 
L 121.352807 306.501157 
z
" clip-path="url(#p49a4f62343)" style="fill: #1f77b4"/>
   </g>
   <g id="patch_25">
    <path d="M 122.770187 307.584 
L 123.610492 307.584 
L 123.610492 306.672439 
L 122.770187 306.672439 
z
" clip-path="url(#p49a4f62343)" style="fill: #1f77b4"/>
   </g>
   <g id="patch_26">
    <path d="M 123.431948 307.584 
L 124.272253 307.584 
L 124.272253 177.497737 
L 123.431948 177.497737 
z
" clip-path="url(#p49a4f62343)" style="fill: #1f77b4"/>
   </g>
   <g id="patch_27">
    <path d="M 124.04751 307.584 
L 124.887816 307.584 
L 124.887816 306.63536 
L 124.04751 306.63536 
z
" clip-path="url(#p49a4f62343)" style="fill: #1f77b4"/>
   </g>
   <g id="patch_28">
    <path d="M 124.486256 307.584 
L 125.326562 307.584 
L 125.326562 304.722008 
L 124.486256 304.722008 
z
" clip-path="url(#p49a4f62343)" style="fill: #1f77b4"/>
   </g>
   <g id="patch_29">
    <path d="M 125.501978 307.584 
L 126.342284 307.584 
L 126.342284 306.34845 
L 125.501978 306.34845 
z
" clip-path="url(#p49a4f62343)" style="fill: #1f77b4"/>
   </g>
   <g id="patch_30">
    <path d="M 125.526989 307.584 
L 126.367294 307.584 
L 126.367294 306.356615 
L 125.526989 306.356615 
z
" clip-path="url(#p49a4f62343)" style="fill: #1f77b4"/>
   </g>
   <g id="patch_31">
    <path d="M 131.840481 307.584 
L 132.680786 307.584 
L 132.680786 306.063157 
L 131.840481 306.063157 
z
" clip-path="url(#p49a4f62343)" style="fill: #1f77b4"/>
   </g>
   <g id="patch_32">
    <path d="M 133.91927 307.584 
L 134.759575 307.584 
L 134.759575 305.097942 
L 133.91927 305.097942 
z
" clip-path="url(#p49a4f62343)" style="fill: #1f77b4"/>
   </g>
   <g id="patch_33">
    <path d="M 133.957793 307.584 
L 134.798098 307.584 
L 134.798098 306.447182 
L 133.957793 306.447182 
z
" clip-path="url(#p49a4f62343)" style="fill: #1f77b4"/>
   </g>
   <g id="patch_34">
    <path d="M 134.952871 307.584 
L 135.793176 307.584 
L 135.793176 305.964657 
L 134.952871 305.964657 
z
" clip-path="url(#p49a4f62343)" style="fill: #1f77b4"/>
   </g>
   <g id="patch_35">
    <path d="M 136.014351 307.584 
L 136.854657 307.584 
L 136.854657 300.413628 
L 136.014351 300.413628 
z
" clip-path="url(#p49a4f62343)" style="fill: #1f77b4"/>
   </g>
   <g id="patch_36">
    <path d="M 137.085857 307.584 
L 137.926162 307.584 
L 137.926162 304.966915 
L 137.085857 304.966915 
z
" clip-path="url(#p49a4f62343)" style="fill: #1f77b4"/>
   </g>
   <g id="patch_37">
    <path d="M 138.13123 307.584 
L 138.971535 307.584 
L 138.971535 301.058725 
L 138.13123 301.058725 
z
" clip-path="url(#p49a4f62343)" style="fill: #1f77b4"/>
   </g>
   <g id="patch_38">
    <path d="M 139.189705 307.584 
L 140.03001 307.584 
L 140.03001 306.031949 
L 139.189705 306.031949 
z
" clip-path="url(#p49a4f62343)" style="fill: #1f77b4"/>
   </g>
   <g id="patch_39">
    <path d="M 140.248998 307.584 
L 141.089303 307.584 
L 141.089303 306.026618 
L 140.248998 306.026618 
z
" clip-path="url(#p49a4f62343)" style="fill: #1f77b4"/>
   </g>
   <g id="patch_40">
    <path d="M 142.327306 307.584 
L 143.167612 307.584 
L 143.167612 304.355028 
L 142.327306 304.355028 
z
" clip-path="url(#p49a4f62343)" style="fill: #1f77b4"/>
   </g>
   <g id="patch_41">
    <path d="M 148.640822 307.584 
L 149.481127 307.584 
L 149.481127 304.142315 
L 148.640822 304.142315 
z
" clip-path="url(#p49a4f62343)" style="fill: #1f77b4"/>
   </g>
   <g id="patch_42">
    <path d="M 150.735575 307.584 
L 151.57588 307.584 
L 151.57588 299.403494 
L 150.735575 299.403494 
z
" clip-path="url(#p49a4f62343)" style="fill: #1f77b4"/>
   </g>
   <g id="patch_43">
    <path d="M 150.748894 307.584 
L 151.589199 307.584 
L 151.589199 306.225142 
L 150.748894 306.225142 
z
" clip-path="url(#p49a4f62343)" style="fill: #1f77b4"/>
   </g>
   <g id="patch_44">
    <path d="M 150.758078 307.584 
L 151.598383 307.584 
L 151.598383 303.829071 
L 150.758078 303.829071 
z
" clip-path="url(#p49a4f62343)" style="fill: #1f77b4"/>
   </g>
   <g id="patch_45">
    <path d="M 151.794355 307.584 
L 152.63466 307.584 
L 152.63466 304.171846 
L 151.794355 304.171846 
z
" clip-path="url(#p49a4f62343)" style="fill: #1f77b4"/>
   </g>
   <g id="patch_46">
    <path d="M 151.807818 307.584 
L 152.648123 307.584 
L 152.648123 306.325036 
L 151.807818 306.325036 
z
" clip-path="url(#p49a4f62343)" style="fill: #1f77b4"/>
   </g>
   <g id="patch_47">
    <path d="M 152.814717 307.584 
L 153.655022 307.584 
L 153.655022 305.424503 
L 152.814717 305.424503 
z
" clip-path="url(#p49a4f62343)" style="fill: #1f77b4"/>
   </g>
   <g id="patch_48">
    <path d="M 152.837027 307.584 
L 153.677332 307.584 
L 153.677332 305.746359 
L 152.837027 305.746359 
z
" clip-path="url(#p49a4f62343)" style="fill: #1f77b4"/>
   </g>
   <g id="patch_49">
    <path d="M 152.852894 307.584 
L 153.693199 307.584 
L 153.693199 276.533393 
L 152.852894 276.533393 
z
" clip-path="url(#p49a4f62343)" style="fill: #1f77b4"/>
   </g>
   <g id="patch_50">
    <path d="M 153.906353 307.584 
L 154.746658 307.584 
L 154.746658 306.005728 
L 153.906353 306.005728 
z
" clip-path="url(#p49a4f62343)" style="fill: #1f77b4"/>
   </g>
   <g id="patch_51">
    <path d="M 154.93202 307.584 
L 155.772325 307.584 
L 155.772325 298.293591 
L 154.93202 298.293591 
z
" clip-path="url(#p49a4f62343)" style="fill: #1f77b4"/>
   </g>
   <g id="patch_52">
    <path d="M 154.969893 307.584 
L 155.810198 307.584 
L 155.810198 306.573958 
L 154.969893 306.573958 
z
" clip-path="url(#p49a4f62343)" style="fill: #1f77b4"/>
   </g>
   <g id="patch_53">
    <path d="M 157.048634 307.584 
L 157.888939 307.584 
L 157.888939 306.233645 
L 157.048634 306.233645 
z
" clip-path="url(#p49a4f62343)" style="fill: #1f77b4"/>
   </g>
   <g id="patch_54">
    <path d="M 158.070006 307.584 
L 158.910311 307.584 
L 158.910311 306.021059 
L 158.070006 306.021059 
z
" clip-path="url(#p49a4f62343)" style="fill: #1f77b4"/>
   </g>
   <g id="patch_55">
    <path d="M 159.127952 307.584 
L 159.968257 307.584 
L 159.968257 295.015448 
L 159.127952 295.015448 
z
" clip-path="url(#p49a4f62343)" style="fill: #1f77b4"/>
   </g>
   <g id="patch_56">
    <path d="M 163.340024 307.584 
L 164.180329 307.584 
L 164.180329 291.996347 
L 163.340024 291.996347 
z
" clip-path="url(#p49a4f62343)" style="fill: #1f77b4"/>
   </g>
   <g id="patch_57">
    <path d="M 163.362607 307.584 
L 164.202912 307.584 
L 164.202912 304.023239 
L 163.362607 304.023239 
z
" clip-path="url(#p49a4f62343)" style="fill: #1f77b4"/>
   </g>
   <g id="patch_58">
    <path d="M 164.398627 307.584 
L 165.238933 307.584 
L 165.238933 305.416522 
L 164.398627 305.416522 
z
" clip-path="url(#p49a4f62343)" style="fill: #1f77b4"/>
   </g>
   <g id="patch_59">
    <path d="M 165.457215 307.584 
L 166.29752 307.584 
L 166.29752 298.918738 
L 165.457215 298.918738 
z
" clip-path="url(#p49a4f62343)" style="fill: #1f77b4"/>
   </g>
   <g id="patch_60">
    <path d="M 166.477833 307.584 
L 167.318138 307.584 
L 167.318138 300.784502 
L 166.477833 300.784502 
z
" clip-path="url(#p49a4f62343)" style="fill: #1f77b4"/>
   </g>
   <g id="patch_61">
    <path d="M 167.536341 307.584 
L 168.376646 307.584 
L 168.376646 298.992271 
L 167.536341 298.992271 
z
" clip-path="url(#p49a4f62343)" style="fill: #1f77b4"/>
   </g>
   <g id="patch_62">
    <path d="M 167.558154 307.584 
L 168.398459 307.584 
L 168.398459 304.583714 
L 167.558154 304.583714 
z
" clip-path="url(#p49a4f62343)" style="fill: #1f77b4"/>
   </g>
   <g id="patch_63">
    <path d="M 167.574566 307.584 
L 168.414871 307.584 
L 168.414871 304.425365 
L 167.574566 304.425365 
z
" clip-path="url(#p49a4f62343)" style="fill: #1f77b4"/>
   </g>
   <g id="patch_64">
    <path d="M 169.615194 307.584 
L 170.455499 307.584 
L 170.455499 306.276967 
L 169.615194 306.276967 
z
" clip-path="url(#p49a4f62343)" style="fill: #1f77b4"/>
   </g>
   <g id="patch_65">
    <path d="M 169.6535 307.584 
L 170.493805 307.584 
L 170.493805 291.024668 
L 169.6535 291.024668 
z
" clip-path="url(#p49a4f62343)" style="fill: #1f77b4"/>
   </g>
   <g id="patch_66">
    <path d="M 171.732706 307.584 
L 172.573011 307.584 
L 172.573011 306.393597 
L 171.732706 306.393597 
z
" clip-path="url(#p49a4f62343)" style="fill: #1f77b4"/>
   </g>
   <g id="patch_67">
    <path d="M 173.849656 307.584 
L 174.689961 307.584 
L 174.689961 299.024137 
L 173.849656 299.024137 
z
" clip-path="url(#p49a4f62343)" style="fill: #1f77b4"/>
   </g>
   <g id="patch_68">
    <path d="M 175.944569 307.584 
L 176.784874 307.584 
L 176.784874 304.33179 
L 175.944569 304.33179 
z
" clip-path="url(#p49a4f62343)" style="fill: #1f77b4"/>
   </g>
   <g id="patch_69">
    <path d="M 178.023791 307.584 
L 178.864096 307.584 
L 178.864096 305.412123 
L 178.023791 305.412123 
z
" clip-path="url(#p49a4f62343)" style="fill: #1f77b4"/>
   </g>
   <g id="patch_70">
    <path d="M 178.04631 307.584 
L 178.886615 307.584 
L 178.886615 305.456141 
L 178.04631 305.456141 
z
" clip-path="url(#p49a4f62343)" style="fill: #1f77b4"/>
   </g>
   <g id="patch_71">
    <path d="M 178.062049 307.584 
L 178.902354 307.584 
L 178.902354 305.212325 
L 178.062049 305.212325 
z
" clip-path="url(#p49a4f62343)" style="fill: #1f77b4"/>
   </g>
   <g id="patch_72">
    <path d="M 179.106804 307.584 
L 179.94711 307.584 
L 179.94711 304.116372 
L 179.106804 304.116372 
z
" clip-path="url(#p49a4f62343)" style="fill: #1f77b4"/>
   </g>
   <g id="patch_73">
    <path d="M 180.140886 307.584 
L 180.981191 307.584 
L 180.981191 291.517656 
L 180.140886 291.517656 
z
" clip-path="url(#p49a4f62343)" style="fill: #1f77b4"/>
   </g>
   <g id="patch_74">
    <path d="M 180.163356 307.584 
L 181.003662 307.584 
L 181.003662 302.047874 
L 180.163356 302.047874 
z
" clip-path="url(#p49a4f62343)" style="fill: #1f77b4"/>
   </g>
   <g id="patch_75">
    <path d="M 180.178583 307.584 
L 181.018888 307.584 
L 181.018888 305.50888 
L 180.178583 305.50888 
z
" clip-path="url(#p49a4f62343)" style="fill: #1f77b4"/>
   </g>
   <g id="patch_76">
    <path d="M 181.199249 307.584 
L 182.039554 307.584 
L 182.039554 302.504744 
L 181.199249 302.504744 
z
" clip-path="url(#p49a4f62343)" style="fill: #1f77b4"/>
   </g>
   <g id="patch_77">
    <path d="M 181.224829 307.584 
L 182.065134 307.584 
L 182.065134 305.354964 
L 181.224829 305.354964 
z
" clip-path="url(#p49a4f62343)" style="fill: #1f77b4"/>
   </g>
   <g id="patch_78">
    <path d="M 182.257997 307.584 
L 183.098302 307.584 
L 183.098302 287.318542 
L 182.257997 287.318542 
z
" clip-path="url(#p49a4f62343)" style="fill: #1f77b4"/>
   </g>
   <g id="patch_79">
    <path d="M 182.282615 307.584 
L 183.12292 307.584 
L 183.12292 306.40775 
L 182.282615 306.40775 
z
" clip-path="url(#p49a4f62343)" style="fill: #1f77b4"/>
   </g>
   <g id="patch_80">
    <path d="M 183.278759 307.584 
L 184.119064 307.584 
L 184.119064 305.411978 
L 183.278759 305.411978 
z
" clip-path="url(#p49a4f62343)" style="fill: #1f77b4"/>
   </g>
   <g id="patch_81">
    <path d="M 183.31503 307.584 
L 184.155335 307.584 
L 184.155335 305.52914 
L 183.31503 305.52914 
z
" clip-path="url(#p49a4f62343)" style="fill: #1f77b4"/>
   </g>
   <g id="patch_82">
    <path d="M 184.336978 307.584 
L 185.177283 307.584 
L 185.177283 295.688601 
L 184.336978 295.688601 
z
" clip-path="url(#p49a4f62343)" style="fill: #1f77b4"/>
   </g>
   <g id="patch_83">
    <path d="M 184.375204 307.584 
L 185.215509 307.584 
L 185.215509 304.86976 
L 184.375204 304.86976 
z
" clip-path="url(#p49a4f62343)" style="fill: #1f77b4"/>
   </g>
   <g id="patch_84">
    <path d="M 185.392504 307.584 
L 186.23281 307.584 
L 186.23281 306.420186 
L 185.392504 306.420186 
z
" clip-path="url(#p49a4f62343)" style="fill: #1f77b4"/>
   </g>
   <g id="patch_85">
    <path d="M 186.454121 307.584 
L 187.294426 307.584 
L 187.294426 305.261083 
L 186.454121 305.261083 
z
" clip-path="url(#p49a4f62343)" style="fill: #1f77b4"/>
   </g>
   <g id="patch_86">
    <path d="M 191.712023 307.584 
L 192.552328 307.584 
L 192.552328 306.19958 
L 191.712023 306.19958 
z
" clip-path="url(#p49a4f62343)" style="fill: #1f77b4"/>
   </g>
   <g id="patch_87">
    <path d="M 192.745367 307.584 
L 193.585672 307.584 
L 193.585672 297.541578 
L 192.745367 297.541578 
z
" clip-path="url(#p49a4f62343)" style="fill: #1f77b4"/>
   </g>
   <g id="patch_88">
    <path d="M 192.767757 307.584 
L 193.608063 307.584 
L 193.608063 302.058588 
L 192.767757 302.058588 
z
" clip-path="url(#p49a4f62343)" style="fill: #1f77b4"/>
   </g>
   <g id="patch_89">
    <path d="M 193.804083 307.584 
L 194.644388 307.584 
L 194.644388 306.030321 
L 193.804083 306.030321 
z
" clip-path="url(#p49a4f62343)" style="fill: #1f77b4"/>
   </g>
   <g id="patch_90">
    <path d="M 193.82907 307.584 
L 194.669375 307.584 
L 194.669375 304.569345 
L 193.82907 304.569345 
z
" clip-path="url(#p49a4f62343)" style="fill: #1f77b4"/>
   </g>
   <g id="patch_91">
    <path d="M 194.824861 307.584 
L 195.665166 307.584 
L 195.665166 297.144194 
L 194.824861 297.144194 
z
" clip-path="url(#p49a4f62343)" style="fill: #1f77b4"/>
   </g>
   <g id="patch_92">
    <path d="M 194.86243 307.584 
L 195.702735 307.584 
L 195.702735 303.900309 
L 194.86243 303.900309 
z
" clip-path="url(#p49a4f62343)" style="fill: #1f77b4"/>
   </g>
   <g id="patch_93">
    <path d="M 194.88482 307.584 
L 195.725125 307.584 
L 195.725125 300.766131 
L 194.88482 300.766131 
z
" clip-path="url(#p49a4f62343)" style="fill: #1f77b4"/>
   </g>
   <g id="patch_94">
    <path d="M 195.882247 307.584 
L 196.722552 307.584 
L 196.722552 305.191048 
L 195.882247 305.191048 
z
" clip-path="url(#p49a4f62343)" style="fill: #1f77b4"/>
   </g>
   <g id="patch_95">
    <path d="M 195.944594 307.584 
L 196.784899 307.584 
L 196.784899 306.153237 
L 195.944594 306.153237 
z
" clip-path="url(#p49a4f62343)" style="fill: #1f77b4"/>
   </g>
   <g id="patch_96">
    <path d="M 195.972979 307.584 
L 196.813284 307.584 
L 196.813284 306.327547 
L 195.972979 306.327547 
z
" clip-path="url(#p49a4f62343)" style="fill: #1f77b4"/>
   </g>
   <g id="patch_97">
    <path d="M 196.941171 307.584 
L 197.781476 307.584 
L 197.781476 300.842504 
L 196.941171 300.842504 
z
" clip-path="url(#p49a4f62343)" style="fill: #1f77b4"/>
   </g>
   <g id="patch_98">
    <path d="M 196.980326 307.584 
L 197.820631 307.584 
L 197.820631 306.288886 
L 196.980326 306.288886 
z
" clip-path="url(#p49a4f62343)" style="fill: #1f77b4"/>
   </g>
   <g id="patch_99">
    <path d="M 198.025483 307.584 
L 198.865788 307.584 
L 198.865788 306.313516 
L 198.025483 306.313516 
z
" clip-path="url(#p49a4f62343)" style="fill: #1f77b4"/>
   </g>
   <g id="patch_100">
    <path d="M 199.058907 307.584 
L 199.899212 307.584 
L 199.899212 304.084414 
L 199.058907 304.084414 
z
" clip-path="url(#p49a4f62343)" style="fill: #1f77b4"/>
   </g>
   <g id="patch_101">
    <path d="M 200.117094 307.584 
L 200.957399 307.584 
L 200.957399 305.985642 
L 200.117094 305.985642 
z
" clip-path="url(#p49a4f62343)" style="fill: #1f77b4"/>
   </g>
   <g id="patch_102">
    <path d="M 201.176178 307.584 
L 202.016483 307.584 
L 202.016483 305.867481 
L 201.176178 305.867481 
z
" clip-path="url(#p49a4f62343)" style="fill: #1f77b4"/>
   </g>
   <g id="patch_103">
    <path d="M 203.254166 307.584 
L 204.094471 307.584 
L 204.094471 305.165492 
L 203.254166 305.165492 
z
" clip-path="url(#p49a4f62343)" style="fill: #1f77b4"/>
   </g>
   <g id="patch_104">
    <path d="M 205.921503 307.584 
L 206.761808 307.584 
L 206.761808 306.44211 
L 205.921503 306.44211 
z
" clip-path="url(#p49a4f62343)" style="fill: #1f77b4"/>
   </g>
   <g id="patch_105">
    <path d="M 206.433278 307.584 
L 207.273583 307.584 
L 207.273583 301.798925 
L 206.433278 301.798925 
z
" clip-path="url(#p49a4f62343)" style="fill: #1f77b4"/>
   </g>
   <g id="patch_106">
    <path d="M 207.451893 307.584 
L 208.292198 307.584 
L 208.292198 306.081998 
L 207.451893 306.081998 
z
" clip-path="url(#p49a4f62343)" style="fill: #1f77b4"/>
   </g>
   <g id="patch_107">
    <path d="M 207.492699 307.584 
L 208.333004 307.584 
L 208.333004 301.476316 
L 207.492699 301.476316 
z
" clip-path="url(#p49a4f62343)" style="fill: #1f77b4"/>
   </g>
   <g id="patch_108">
    <path d="M 208.550934 307.584 
L 209.391239 307.584 
L 209.391239 277.924805 
L 208.550934 277.924805 
z
" clip-path="url(#p49a4f62343)" style="fill: #1f77b4"/>
   </g>
   <g id="patch_109">
    <path d="M 209.546149 307.584 
L 210.386454 307.584 
L 210.386454 303.144031 
L 209.546149 303.144031 
z
" clip-path="url(#p49a4f62343)" style="fill: #1f77b4"/>
   </g>
   <g id="patch_110">
    <path d="M 209.570607 307.584 
L 210.410912 307.584 
L 210.410912 305.276215 
L 209.570607 305.276215 
z
" clip-path="url(#p49a4f62343)" style="fill: #1f77b4"/>
   </g>
   <g id="patch_111">
    <path d="M 209.60529 307.584 
L 210.445595 307.584 
L 210.445595 305.281987 
L 209.60529 305.281987 
z
" clip-path="url(#p49a4f62343)" style="fill: #1f77b4"/>
   </g>
   <g id="patch_112">
    <path d="M 210.604592 307.584 
L 211.444897 307.584 
L 211.444897 305.285249 
L 210.604592 305.285249 
z
" clip-path="url(#p49a4f62343)" style="fill: #1f77b4"/>
   </g>
   <g id="patch_113">
    <path d="M 210.630044 307.584 
L 211.470349 307.584 
L 211.470349 304.090531 
L 210.630044 304.090531 
z
" clip-path="url(#p49a4f62343)" style="fill: #1f77b4"/>
   </g>
   <g id="patch_114">
    <path d="M 211.663276 307.584 
L 212.503581 307.584 
L 212.503581 290.412604 
L 211.663276 290.412604 
z
" clip-path="url(#p49a4f62343)" style="fill: #1f77b4"/>
   </g>
   <g id="patch_115">
    <path d="M 213.742225 307.584 
L 214.58253 307.584 
L 214.58253 299.709638 
L 213.742225 299.709638 
z
" clip-path="url(#p49a4f62343)" style="fill: #1f77b4"/>
   </g>
   <g id="patch_116">
    <path d="M 213.78114 307.584 
L 214.621445 307.584 
L 214.621445 304.712314 
L 213.78114 304.712314 
z
" clip-path="url(#p49a4f62343)" style="fill: #1f77b4"/>
   </g>
   <g id="patch_117">
    <path d="M 217.976784 307.584 
L 218.817089 307.584 
L 218.817089 300.378853 
L 217.976784 300.378853 
z
" clip-path="url(#p49a4f62343)" style="fill: #1f77b4"/>
   </g>
   <g id="patch_118">
    <path d="M 221.116981 307.584 
L 221.957286 307.584 
L 221.957286 300.40095 
L 221.116981 300.40095 
z
" clip-path="url(#p49a4f62343)" style="fill: #1f77b4"/>
   </g>
   <g id="patch_119">
    <path d="M 222.15095 307.584 
L 222.991255 307.584 
L 222.991255 291.658568 
L 222.15095 291.658568 
z
" clip-path="url(#p49a4f62343)" style="fill: #1f77b4"/>
   </g>
   <g id="patch_120">
    <path d="M 222.172748 307.584 
L 223.013053 307.584 
L 223.013053 297.280223 
L 222.172748 297.280223 
z
" clip-path="url(#p49a4f62343)" style="fill: #1f77b4"/>
   </g>
   <g id="patch_121">
    <path d="M 223.205563 307.584 
L 224.045868 307.584 
L 224.045868 306.338334 
L 223.205563 306.338334 
z
" clip-path="url(#p49a4f62343)" style="fill: #1f77b4"/>
   </g>
   <g id="patch_122">
    <path d="M 223.232986 307.584 
L 224.073291 307.584 
L 224.073291 304.630947 
L 223.232986 304.630947 
z
" clip-path="url(#p49a4f62343)" style="fill: #1f77b4"/>
   </g>
   <g id="patch_123">
    <path d="M 223.248389 307.584 
L 224.088694 307.584 
L 224.088694 304.780993 
L 223.248389 304.780993 
z
" clip-path="url(#p49a4f62343)" style="fill: #1f77b4"/>
   </g>
   <g id="patch_124">
    <path d="M 223.272895 307.584 
L 224.1132 307.584 
L 224.1132 305.773891 
L 223.272895 305.773891 
z
" clip-path="url(#p49a4f62343)" style="fill: #1f77b4"/>
   </g>
   <g id="patch_125">
    <path d="M 224.229804 307.584 
L 225.070109 307.584 
L 225.070109 291.280235 
L 224.229804 291.280235 
z
" clip-path="url(#p49a4f62343)" style="fill: #1f77b4"/>
   </g>
   <g id="patch_126">
    <path d="M 224.269055 307.584 
L 225.10936 307.584 
L 225.10936 306.445809 
L 224.269055 306.445809 
z
" clip-path="url(#p49a4f62343)" style="fill: #1f77b4"/>
   </g>
   <g id="patch_127">
    <path d="M 224.28957 307.584 
L 225.129875 307.584 
L 225.129875 305.961842 
L 224.28957 305.961842 
z
" clip-path="url(#p49a4f62343)" style="fill: #1f77b4"/>
   </g>
   <g id="patch_128">
    <path d="M 224.307794 307.584 
L 225.148099 307.584 
L 225.148099 305.995256 
L 224.307794 305.995256 
z
" clip-path="url(#p49a4f62343)" style="fill: #1f77b4"/>
   </g>
   <g id="patch_129">
    <path d="M 225.351572 307.584 
L 226.191877 307.584 
L 226.191877 293.946159 
L 225.351572 293.946159 
z
" clip-path="url(#p49a4f62343)" style="fill: #1f77b4"/>
   </g>
   <g id="patch_130">
    <path d="M 226.369321 307.584 
L 227.209626 307.584 
L 227.209626 301.624475 
L 226.369321 301.624475 
z
" clip-path="url(#p49a4f62343)" style="fill: #1f77b4"/>
   </g>
   <g id="patch_131">
    <path d="M 226.386807 307.584 
L 227.227112 307.584 
L 227.227112 304.264475 
L 226.386807 304.264475 
z
" clip-path="url(#p49a4f62343)" style="fill: #1f77b4"/>
   </g>
   <g id="patch_132">
    <path d="M 226.409214 307.584 
L 227.249519 307.584 
L 227.249519 305.332937 
L 226.409214 305.332937 
z
" clip-path="url(#p49a4f62343)" style="fill: #1f77b4"/>
   </g>
   <g id="patch_133">
    <path d="M 227.405198 307.584 
L 228.245503 307.584 
L 228.245503 304.5407 
L 227.405198 304.5407 
z
" clip-path="url(#p49a4f62343)" style="fill: #1f77b4"/>
   </g>
   <g id="patch_134">
    <path d="M 227.424495 307.584 
L 228.2648 307.584 
L 228.2648 306.600326 
L 227.424495 306.600326 
z
" clip-path="url(#p49a4f62343)" style="fill: #1f77b4"/>
   </g>
   <g id="patch_135">
    <path d="M 228.464009 307.584 
L 229.304315 307.584 
L 229.304315 268.418237 
L 228.464009 268.418237 
z
" clip-path="url(#p49a4f62343)" style="fill: #1f77b4"/>
   </g>
   <g id="patch_136">
    <path d="M 229.518959 307.584 
L 230.359264 307.584 
L 230.359264 304.361224 
L 229.518959 304.361224 
z
" clip-path="url(#p49a4f62343)" style="fill: #1f77b4"/>
   </g>
   <g id="patch_137">
    <path d="M 230.581505 307.584 
L 231.42181 307.584 
L 231.42181 304.256952 
L 230.581505 304.256952 
z
" clip-path="url(#p49a4f62343)" style="fill: #1f77b4"/>
   </g>
   <g id="patch_138">
    <path d="M 234.69201 307.584 
L 235.532316 307.584 
L 235.532316 306.392588 
L 234.69201 306.392588 
z
" clip-path="url(#p49a4f62343)" style="fill: #1f77b4"/>
   </g>
   <g id="patch_139">
    <path d="M 235.837836 307.584 
L 236.678141 307.584 
L 236.678141 299.330533 
L 235.837836 299.330533 
z
" clip-path="url(#p49a4f62343)" style="fill: #1f77b4"/>
   </g>
   <g id="patch_140">
    <path d="M 236.897064 307.584 
L 237.73737 307.584 
L 237.73737 293.604602 
L 236.897064 293.604602 
z
" clip-path="url(#p49a4f62343)" style="fill: #1f77b4"/>
   </g>
   <g id="patch_141">
    <path d="M 237.956053 307.584 
L 238.796358 307.584 
L 238.796358 116.463168 
L 237.956053 116.463168 
z
" clip-path="url(#p49a4f62343)" style="fill: #1f77b4"/>
   </g>
   <g id="patch_142">
    <path d="M 238.953383 307.584 
L 239.793688 307.584 
L 239.793688 305.668812 
L 238.953383 305.668812 
z
" clip-path="url(#p49a4f62343)" style="fill: #1f77b4"/>
   </g>
   <g id="patch_143">
    <path d="M 238.97611 307.584 
L 239.816415 307.584 
L 239.816415 304.253038 
L 238.97611 304.253038 
z
" clip-path="url(#p49a4f62343)" style="fill: #1f77b4"/>
   </g>
   <g id="patch_144">
    <path d="M 239.013102 307.584 
L 239.853407 307.584 
L 239.853407 267.179011 
L 239.013102 267.179011 
z
" clip-path="url(#p49a4f62343)" style="fill: #1f77b4"/>
   </g>
   <g id="patch_145">
    <path d="M 240.069926 307.584 
L 240.910231 307.584 
L 240.910231 302.650641 
L 240.069926 302.650641 
z
" clip-path="url(#p49a4f62343)" style="fill: #1f77b4"/>
   </g>
   <g id="patch_146">
    <path d="M 241.069949 307.584 
L 241.910254 307.584 
L 241.910254 305.405057 
L 241.069949 305.405057 
z
" clip-path="url(#p49a4f62343)" style="fill: #1f77b4"/>
   </g>
   <g id="patch_147">
    <path d="M 241.089727 307.584 
L 241.930032 307.584 
L 241.930032 299.026877 
L 241.089727 299.026877 
z
" clip-path="url(#p49a4f62343)" style="fill: #1f77b4"/>
   </g>
   <g id="patch_148">
    <path d="M 242.152225 307.584 
L 242.99253 307.584 
L 242.99253 303.700255 
L 242.152225 303.700255 
z
" clip-path="url(#p49a4f62343)" style="fill: #1f77b4"/>
   </g>
   <g id="patch_149">
    <path d="M 243.147921 307.584 
L 243.988226 307.584 
L 243.988226 295.150895 
L 243.147921 295.150895 
z
" clip-path="url(#p49a4f62343)" style="fill: #1f77b4"/>
   </g>
   <g id="patch_150">
    <path d="M 243.185265 307.584 
L 244.02557 307.584 
L 244.02557 298.27105 
L 243.185265 298.27105 
z
" clip-path="url(#p49a4f62343)" style="fill: #1f77b4"/>
   </g>
   <g id="patch_151">
    <path d="M 244.269513 307.584 
L 245.109818 307.584 
L 245.109818 305.672875 
L 244.269513 305.672875 
z
" clip-path="url(#p49a4f62343)" style="fill: #1f77b4"/>
   </g>
   <g id="patch_152">
    <path d="M 245.265272 307.584 
L 246.105577 307.584 
L 246.105577 305.740492 
L 245.265272 305.740492 
z
" clip-path="url(#p49a4f62343)" style="fill: #1f77b4"/>
   </g>
   <g id="patch_153">
    <path d="M 245.302744 307.584 
L 246.14305 307.584 
L 246.14305 306.324867 
L 245.302744 306.324867 
z
" clip-path="url(#p49a4f62343)" style="fill: #1f77b4"/>
   </g>
   <g id="patch_154">
    <path d="M 247.382527 307.584 
L 248.222832 307.584 
L 248.222832 304.499371 
L 247.382527 304.499371 
z
" clip-path="url(#p49a4f62343)" style="fill: #1f77b4"/>
   </g>
   <g id="patch_155">
    <path d="M 249.46324 307.584 
L 250.303545 307.584 
L 250.303545 305.99506 
L 249.46324 305.99506 
z
" clip-path="url(#p49a4f62343)" style="fill: #1f77b4"/>
   </g>
   <g id="patch_156">
    <path d="M 252.639675 307.584 
L 253.479981 307.584 
L 253.479981 290.694961 
L 252.639675 290.694961 
z
" clip-path="url(#p49a4f62343)" style="fill: #1f77b4"/>
   </g>
   <g id="patch_157">
    <path d="M 252.65652 307.584 
L 253.496826 307.584 
L 253.496826 302.8734 
L 252.65652 302.8734 
z
" clip-path="url(#p49a4f62343)" style="fill: #1f77b4"/>
   </g>
   <g id="patch_158">
    <path d="M 253.712319 307.584 
L 254.552624 307.584 
L 254.552624 278.648828 
L 253.712319 278.648828 
z
" clip-path="url(#p49a4f62343)" style="fill: #1f77b4"/>
   </g>
   <g id="patch_159">
    <path d="M 253.735255 307.584 
L 254.57556 307.584 
L 254.57556 306.539941 
L 253.735255 306.539941 
z
" clip-path="url(#p49a4f62343)" style="fill: #1f77b4"/>
   </g>
   <g id="patch_160">
    <path d="M 254.756434 307.584 
L 255.596739 307.584 
L 255.596739 283.521864 
L 254.756434 283.521864 
z
" clip-path="url(#p49a4f62343)" style="fill: #1f77b4"/>
   </g>
   <g id="patch_161">
    <path d="M 255.794041 307.584 
L 256.634346 307.584 
L 256.634346 299.363569 
L 255.794041 299.363569 
z
" clip-path="url(#p49a4f62343)" style="fill: #1f77b4"/>
   </g>
   <g id="patch_162">
    <path d="M 255.815294 307.584 
L 256.655599 307.584 
L 256.655599 54.144 
L 255.815294 54.144 
z
" clip-path="url(#p49a4f62343)" style="fill: #1f77b4"/>
   </g>
   <g id="patch_163">
    <path d="M 256.848285 307.584 
L 257.688591 307.584 
L 257.688591 306.364616 
L 256.848285 306.364616 
z
" clip-path="url(#p49a4f62343)" style="fill: #1f77b4"/>
   </g>
   <g id="patch_164">
    <path d="M 256.869698 307.584 
L 257.710003 307.584 
L 257.710003 284.934879 
L 256.869698 284.934879 
z
" clip-path="url(#p49a4f62343)" style="fill: #1f77b4"/>
   </g>
   <g id="patch_165">
    <path d="M 257.869417 307.584 
L 258.709722 307.584 
L 258.709722 202.840456 
L 257.869417 202.840456 
z
" clip-path="url(#p49a4f62343)" style="fill: #1f77b4"/>
   </g>
   <g id="patch_166">
    <path d="M 258.923484 307.584 
L 259.763789 307.584 
L 259.763789 299.678062 
L 258.923484 299.678062 
z
" clip-path="url(#p49a4f62343)" style="fill: #1f77b4"/>
   </g>
   <g id="patch_167">
    <path d="M 260.011482 307.584 
L 260.851788 307.584 
L 260.851788 302.360605 
L 260.011482 302.360605 
z
" clip-path="url(#p49a4f62343)" style="fill: #1f77b4"/>
   </g>
   <g id="patch_168">
    <path d="M 265.244365 307.584 
L 266.08467 307.584 
L 266.08467 306.372835 
L 265.244365 306.372835 
z
" clip-path="url(#p49a4f62343)" style="fill: #1f77b4"/>
   </g>
   <g id="patch_169">
    <path d="M 268.356979 307.584 
L 269.197284 307.584 
L 269.197284 268.413193 
L 268.356979 268.413193 
z
" clip-path="url(#p49a4f62343)" style="fill: #1f77b4"/>
   </g>
   <g id="patch_170">
    <path d="M 268.381116 307.584 
L 269.221422 307.584 
L 269.221422 304.870903 
L 268.381116 304.870903 
z
" clip-path="url(#p49a4f62343)" style="fill: #1f77b4"/>
   </g>
   <g id="patch_171">
    <path d="M 269.410486 307.584 
L 270.250791 307.584 
L 270.250791 303.823152 
L 269.410486 303.823152 
z
" clip-path="url(#p49a4f62343)" style="fill: #1f77b4"/>
   </g>
   <g id="patch_172">
    <path d="M 269.478122 307.584 
L 270.318427 307.584 
L 270.318427 300.521611 
L 269.478122 300.521611 
z
" clip-path="url(#p49a4f62343)" style="fill: #1f77b4"/>
   </g>
   <g id="patch_173">
    <path d="M 270.486271 307.584 
L 271.326576 307.584 
L 271.326576 304.831005 
L 270.486271 304.831005 
z
" clip-path="url(#p49a4f62343)" style="fill: #1f77b4"/>
   </g>
   <g id="patch_174">
    <path d="M 270.511723 307.584 
L 271.352028 307.584 
L 271.352028 303.288815 
L 270.511723 303.288815 
z
" clip-path="url(#p49a4f62343)" style="fill: #1f77b4"/>
   </g>
   <g id="patch_175">
    <path d="M 270.537078 307.584 
L 271.377383 307.584 
L 271.377383 302.133559 
L 270.537078 302.133559 
z
" clip-path="url(#p49a4f62343)" style="fill: #1f77b4"/>
   </g>
   <g id="patch_176">
    <path d="M 271.558322 307.584 
L 272.398627 307.584 
L 272.398627 303.845317 
L 271.558322 303.845317 
z
" clip-path="url(#p49a4f62343)" style="fill: #1f77b4"/>
   </g>
   <g id="patch_177">
    <path d="M 271.59488 307.584 
L 272.435186 307.584 
L 272.435186 306.079793 
L 271.59488 306.079793 
z
" clip-path="url(#p49a4f62343)" style="fill: #1f77b4"/>
   </g>
   <g id="patch_178">
    <path d="M 272.590095 307.584 
L 273.4304 307.584 
L 273.4304 304.759564 
L 272.590095 304.759564 
z
" clip-path="url(#p49a4f62343)" style="fill: #1f77b4"/>
   </g>
   <g id="patch_179">
    <path d="M 274.708681 307.584 
L 275.548986 307.584 
L 275.548986 304.553573 
L 274.708681 304.553573 
z
" clip-path="url(#p49a4f62343)" style="fill: #1f77b4"/>
   </g>
   <g id="patch_180">
    <path d="M 278.856145 307.584 
L 279.696451 307.584 
L 279.696451 305.904653 
L 278.856145 305.904653 
z
" clip-path="url(#p49a4f62343)" style="fill: #1f77b4"/>
   </g>
   <g id="patch_181">
    <path d="M 279.928741 307.584 
L 280.769046 307.584 
L 280.769046 306.241907 
L 279.928741 306.241907 
z
" clip-path="url(#p49a4f62343)" style="fill: #1f77b4"/>
   </g>
   <g id="patch_182">
    <path d="M 282.04356 307.584 
L 282.883865 307.584 
L 282.883865 305.045962 
L 282.04356 305.045962 
z
" clip-path="url(#p49a4f62343)" style="fill: #1f77b4"/>
   </g>
   <g id="patch_183">
    <path d="M 283.102853 307.584 
L 283.943158 307.584 
L 283.943158 305.047612 
L 283.102853 305.047612 
z
" clip-path="url(#p49a4f62343)" style="fill: #1f77b4"/>
   </g>
   <g id="patch_184">
    <path d="M 284.161553 307.584 
L 285.001858 307.584 
L 285.001858 304.656012 
L 284.161553 304.656012 
z
" clip-path="url(#p49a4f62343)" style="fill: #1f77b4"/>
   </g>
   <g id="patch_185">
    <path d="M 285.234228 307.584 
L 286.074533 307.584 
L 286.074533 297.326897 
L 285.234228 297.326897 
z
" clip-path="url(#p49a4f62343)" style="fill: #1f77b4"/>
   </g>
   <g id="patch_186">
    <path d="M 286.279609 307.584 
L 287.119914 307.584 
L 287.119914 305.252729 
L 286.279609 305.252729 
z
" clip-path="url(#p49a4f62343)" style="fill: #1f77b4"/>
   </g>
   <g id="patch_187">
    <path d="M 287.298737 307.584 
L 288.139042 307.584 
L 288.139042 300.777168 
L 287.298737 300.777168 
z
" clip-path="url(#p49a4f62343)" style="fill: #1f77b4"/>
   </g>
   <g id="patch_188">
    <path d="M 288.397778 307.584 
L 289.238083 307.584 
L 289.238083 301.60422 
L 288.397778 301.60422 
z
" clip-path="url(#p49a4f62343)" style="fill: #1f77b4"/>
   </g>
   <g id="patch_189">
    <path d="M 298.883962 307.584 
L 299.724267 307.584 
L 299.724267 305.484153 
L 298.883962 305.484153 
z
" clip-path="url(#p49a4f62343)" style="fill: #1f77b4"/>
   </g>
   <g id="patch_190">
    <path d="M 299.942549 307.584 
L 300.782855 307.584 
L 300.782855 303.954143 
L 299.942549 303.954143 
z
" clip-path="url(#p49a4f62343)" style="fill: #1f77b4"/>
   </g>
   <g id="patch_191">
    <path d="M 300.963056 307.584 
L 301.803361 307.584 
L 301.803361 305.472177 
L 300.963056 305.472177 
z
" clip-path="url(#p49a4f62343)" style="fill: #1f77b4"/>
   </g>
   <g id="patch_192">
    <path d="M 301.996031 307.584 
L 302.836336 307.584 
L 302.836336 153.334515 
L 301.996031 153.334515 
z
" clip-path="url(#p49a4f62343)" style="fill: #1f77b4"/>
   </g>
   <g id="patch_193">
    <path d="M 302.021771 307.584 
L 302.862076 307.584 
L 302.862076 291.420886 
L 302.021771 291.420886 
z
" clip-path="url(#p49a4f62343)" style="fill: #1f77b4"/>
   </g>
   <g id="patch_194">
    <path d="M 303.04949 307.584 
L 303.889795 307.584 
L 303.889795 292.457057 
L 303.04949 292.457057 
z
" clip-path="url(#p49a4f62343)" style="fill: #1f77b4"/>
   </g>
   <g id="patch_195">
    <path d="M 303.075551 307.584 
L 303.915856 307.584 
L 303.915856 305.690763 
L 303.075551 305.690763 
z
" clip-path="url(#p49a4f62343)" style="fill: #1f77b4"/>
   </g>
   <g id="patch_196">
    <path d="M 314.638594 307.584 
L 315.478899 307.584 
L 315.478899 305.978343 
L 314.638594 305.978343 
z
" clip-path="url(#p49a4f62343)" style="fill: #1f77b4"/>
   </g>
   <g id="patch_197">
    <path d="M 315.684583 307.584 
L 316.524889 307.584 
L 316.524889 300.202178 
L 315.684583 300.202178 
z
" clip-path="url(#p49a4f62343)" style="fill: #1f77b4"/>
   </g>
   <g id="patch_198">
    <path d="M 316.742947 307.584 
L 317.583252 307.584 
L 317.583252 303.008211 
L 316.742947 303.008211 
z
" clip-path="url(#p49a4f62343)" style="fill: #1f77b4"/>
   </g>
   <g id="patch_199">
    <path d="M 317.801791 307.584 
L 318.642096 307.584 
L 318.642096 299.629972 
L 317.801791 299.629972 
z
" clip-path="url(#p49a4f62343)" style="fill: #1f77b4"/>
   </g>
   <g id="patch_200">
    <path d="M 328.343302 307.584 
L 329.183607 307.584 
L 329.183607 306.046769 
L 328.343302 306.046769 
z
" clip-path="url(#p49a4f62343)" style="fill: #1f77b4"/>
   </g>
   <g id="patch_201">
    <path d="M 334.603053 307.584 
L 335.443358 307.584 
L 335.443358 292.656728 
L 334.603053 292.656728 
z
" clip-path="url(#p49a4f62343)" style="fill: #1f77b4"/>
   </g>
   <g id="patch_202">
    <path d="M 335.635388 307.584 
L 336.475693 307.584 
L 336.475693 303.761743 
L 335.635388 303.761743 
z
" clip-path="url(#p49a4f62343)" style="fill: #1f77b4"/>
   </g>
   <g id="patch_203">
    <path d="M 349.322754 307.584 
L 350.163059 307.584 
L 350.163059 306.48456 
L 349.322754 306.48456 
z
" clip-path="url(#p49a4f62343)" style="fill: #1f77b4"/>
   </g>
   <g id="patch_204">
    <path d="M 364.008156 307.584 
L 364.848461 307.584 
L 364.848461 300.459955 
L 364.008156 300.459955 
z
" clip-path="url(#p49a4f62343)" style="fill: #1f77b4"/>
   </g>
   <g id="patch_205">
    <path d="M 378.729588 307.584 
L 379.569893 307.584 
L 379.569893 305.736606 
L 378.729588 305.736606 
z
" clip-path="url(#p49a4f62343)" style="fill: #1f77b4"/>
   </g>
   <g id="patch_206">
    <path d="M 397.646968 307.584 
L 398.487273 307.584 
L 398.487273 305.438521 
L 397.646968 305.438521 
z
" clip-path="url(#p49a4f62343)" style="fill: #1f77b4"/>
   </g>
   <g id="matplotlib.axis_1">
    <g id="xtick_1">
     <g id="line2d_1">
      <defs>
       <path id="m05770c4d7a" d="M 0 0 
L 0 3.5 
" style="stroke: #000000; stroke-width: 0.8"/>
      </defs>
      <g>
       <use xlink:href="#m05770c4d7a" x="69.174094" y="307.584" style="stroke: #000000; stroke-width: 0.8"/>
      </g>
     </g>
     <g id="text_1">
      <!-- 50 -->
      <g transform="translate(62.811594 322.182437) scale(0.1 -0.1)">
       <defs>
        <path id="DejaVuSans-35" d="M 691 4666 
L 3169 4666 
L 3169 4134 
L 1269 4134 
L 1269 2991 
Q 1406 3038 1543 3061 
Q 1681 3084 1819 3084 
Q 2600 3084 3056 2656 
Q 3513 2228 3513 1497 
Q 3513 744 3044 326 
Q 2575 -91 1722 -91 
Q 1428 -91 1123 -41 
Q 819 9 494 109 
L 494 744 
Q 775 591 1075 516 
Q 1375 441 1709 441 
Q 2250 441 2565 725 
Q 2881 1009 2881 1497 
Q 2881 1984 2565 2268 
Q 2250 2553 1709 2553 
Q 1456 2553 1204 2497 
Q 953 2441 691 2322 
L 691 4666 
z
" transform="scale(0.015625)"/>
        <path id="DejaVuSans-30" d="M 2034 4250 
Q 1547 4250 1301 3770 
Q 1056 3291 1056 2328 
Q 1056 1369 1301 889 
Q 1547 409 2034 409 
Q 2525 409 2770 889 
Q 3016 1369 3016 2328 
Q 3016 3291 2770 3770 
Q 2525 4250 2034 4250 
z
M 2034 4750 
Q 2819 4750 3233 4129 
Q 3647 3509 3647 2328 
Q 3647 1150 3233 529 
Q 2819 -91 2034 -91 
Q 1250 -91 836 529 
Q 422 1150 422 2328 
Q 422 3509 836 4129 
Q 1250 4750 2034 4750 
z
" transform="scale(0.015625)"/>
       </defs>
       <use xlink:href="#DejaVuSans-35"/>
       <use xlink:href="#DejaVuSans-30" x="63.623047"/>
      </g>
     </g>
    </g>
    <g id="xtick_2">
     <g id="line2d_2">
      <g>
       <use xlink:href="#m05770c4d7a" x="121.693166" y="307.584" style="stroke: #000000; stroke-width: 0.8"/>
      </g>
     </g>
     <g id="text_2">
      <!-- 100 -->
      <g transform="translate(112.149416 322.182437) scale(0.1 -0.1)">
       <defs>
        <path id="DejaVuSans-31" d="M 794 531 
L 1825 531 
L 1825 4091 
L 703 3866 
L 703 4441 
L 1819 4666 
L 2450 4666 
L 2450 531 
L 3481 531 
L 3481 0 
L 794 0 
L 794 531 
z
" transform="scale(0.015625)"/>
       </defs>
       <use xlink:href="#DejaVuSans-31"/>
       <use xlink:href="#DejaVuSans-30" x="63.623047"/>
       <use xlink:href="#DejaVuSans-30" x="127.246094"/>
      </g>
     </g>
    </g>
    <g id="xtick_3">
     <g id="line2d_3">
      <g>
       <use xlink:href="#m05770c4d7a" x="174.212238" y="307.584" style="stroke: #000000; stroke-width: 0.8"/>
      </g>
     </g>
     <g id="text_3">
      <!-- 150 -->
      <g transform="translate(164.668488 322.182437) scale(0.1 -0.1)">
       <use xlink:href="#DejaVuSans-31"/>
       <use xlink:href="#DejaVuSans-35" x="63.623047"/>
       <use xlink:href="#DejaVuSans-30" x="127.246094"/>
      </g>
     </g>
    </g>
    <g id="xtick_4">
     <g id="line2d_4">
      <g>
       <use xlink:href="#m05770c4d7a" x="226.73131" y="307.584" style="stroke: #000000; stroke-width: 0.8"/>
      </g>
     </g>
     <g id="text_4">
      <!-- 200 -->
      <g transform="translate(217.18756 322.182437) scale(0.1 -0.1)">
       <defs>
        <path id="DejaVuSans-32" d="M 1228 531 
L 3431 531 
L 3431 0 
L 469 0 
L 469 531 
Q 828 903 1448 1529 
Q 2069 2156 2228 2338 
Q 2531 2678 2651 2914 
Q 2772 3150 2772 3378 
Q 2772 3750 2511 3984 
Q 2250 4219 1831 4219 
Q 1534 4219 1204 4116 
Q 875 4013 500 3803 
L 500 4441 
Q 881 4594 1212 4672 
Q 1544 4750 1819 4750 
Q 2544 4750 2975 4387 
Q 3406 4025 3406 3419 
Q 3406 3131 3298 2873 
Q 3191 2616 2906 2266 
Q 2828 2175 2409 1742 
Q 1991 1309 1228 531 
z
" transform="scale(0.015625)"/>
       </defs>
       <use xlink:href="#DejaVuSans-32"/>
       <use xlink:href="#DejaVuSans-30" x="63.623047"/>
       <use xlink:href="#DejaVuSans-30" x="127.246094"/>
      </g>
     </g>
    </g>
    <g id="xtick_5">
     <g id="line2d_5">
      <g>
       <use xlink:href="#m05770c4d7a" x="279.250381" y="307.584" style="stroke: #000000; stroke-width: 0.8"/>
      </g>
     </g>
     <g id="text_5">
      <!-- 250 -->
      <g transform="translate(269.706631 322.182437) scale(0.1 -0.1)">
       <use xlink:href="#DejaVuSans-32"/>
       <use xlink:href="#DejaVuSans-35" x="63.623047"/>
       <use xlink:href="#DejaVuSans-30" x="127.246094"/>
      </g>
     </g>
    </g>
    <g id="xtick_6">
     <g id="line2d_6">
      <g>
       <use xlink:href="#m05770c4d7a" x="331.769453" y="307.584" style="stroke: #000000; stroke-width: 0.8"/>
      </g>
     </g>
     <g id="text_6">
      <!-- 300 -->
      <g transform="translate(322.225703 322.182437) scale(0.1 -0.1)">
       <defs>
        <path id="DejaVuSans-33" d="M 2597 2516 
Q 3050 2419 3304 2112 
Q 3559 1806 3559 1356 
Q 3559 666 3084 287 
Q 2609 -91 1734 -91 
Q 1441 -91 1130 -33 
Q 819 25 488 141 
L 488 750 
Q 750 597 1062 519 
Q 1375 441 1716 441 
Q 2309 441 2620 675 
Q 2931 909 2931 1356 
Q 2931 1769 2642 2001 
Q 2353 2234 1838 2234 
L 1294 2234 
L 1294 2753 
L 1863 2753 
Q 2328 2753 2575 2939 
Q 2822 3125 2822 3475 
Q 2822 3834 2567 4026 
Q 2313 4219 1838 4219 
Q 1578 4219 1281 4162 
Q 984 4106 628 3988 
L 628 4550 
Q 988 4650 1302 4700 
Q 1616 4750 1894 4750 
Q 2613 4750 3031 4423 
Q 3450 4097 3450 3541 
Q 3450 3153 3228 2886 
Q 3006 2619 2597 2516 
z
" transform="scale(0.015625)"/>
       </defs>
       <use xlink:href="#DejaVuSans-33"/>
       <use xlink:href="#DejaVuSans-30" x="63.623047"/>
       <use xlink:href="#DejaVuSans-30" x="127.246094"/>
      </g>
     </g>
    </g>
    <g id="xtick_7">
     <g id="line2d_7">
      <g>
       <use xlink:href="#m05770c4d7a" x="384.288525" y="307.584" style="stroke: #000000; stroke-width: 0.8"/>
      </g>
     </g>
     <g id="text_7">
      <!-- 350 -->
      <g transform="translate(374.744775 322.182437) scale(0.1 -0.1)">
       <use xlink:href="#DejaVuSans-33"/>
       <use xlink:href="#DejaVuSans-35" x="63.623047"/>
       <use xlink:href="#DejaVuSans-30" x="127.246094"/>
      </g>
     </g>
    </g>
    <g id="text_8">
     <!-- ${m/z}$ -->
     <g transform="translate(226.96 335.860562) scale(0.1 -0.1)">
      <defs>
       <path id="DejaVuSans-Oblique-6d" d="M 5747 2113 
L 5338 0 
L 4763 0 
L 5166 2094 
Q 5191 2228 5203 2325 
Q 5216 2422 5216 2491 
Q 5216 2772 5059 2928 
Q 4903 3084 4622 3084 
Q 4203 3084 3875 2770 
Q 3547 2456 3450 1953 
L 3066 0 
L 2491 0 
L 2900 2094 
Q 2925 2209 2937 2307 
Q 2950 2406 2950 2484 
Q 2950 2769 2794 2926 
Q 2638 3084 2363 3084 
Q 1938 3084 1609 2770 
Q 1281 2456 1184 1953 
L 800 0 
L 225 0 
L 909 3500 
L 1484 3500 
L 1375 2956 
Q 1609 3263 1923 3423 
Q 2238 3584 2597 3584 
Q 2978 3584 3223 3384 
Q 3469 3184 3519 2828 
Q 3781 3197 4126 3390 
Q 4472 3584 4856 3584 
Q 5306 3584 5551 3325 
Q 5797 3066 5797 2591 
Q 5797 2488 5784 2364 
Q 5772 2241 5747 2113 
z
" transform="scale(0.015625)"/>
       <path id="DejaVuSans-2f" d="M 1625 4666 
L 2156 4666 
L 531 -594 
L 0 -594 
L 1625 4666 
z
" transform="scale(0.015625)"/>
       <path id="DejaVuSans-Oblique-7a" d="M 744 3500 
L 3475 3500 
L 3372 2975 
L 738 459 
L 2913 459 
L 2822 0 
L -19 0 
L 84 525 
L 2719 3041 
L 653 3041 
L 744 3500 
z
" transform="scale(0.015625)"/>
      </defs>
      <use xlink:href="#DejaVuSans-Oblique-6d" transform="translate(0 0.09375)"/>
      <use xlink:href="#DejaVuSans-2f" transform="translate(97.412109 0.09375)"/>
      <use xlink:href="#DejaVuSans-Oblique-7a" transform="translate(131.103516 0.09375)"/>
     </g>
    </g>
   </g>
   <g id="matplotlib.axis_2">
    <g id="ytick_1">
     <g id="line2d_8">
      <defs>
       <path id="mbf321a4c10" d="M 0 0 
L -3.5 0 
" style="stroke: #000000; stroke-width: 0.8"/>
      </defs>
      <g>
       <use xlink:href="#mbf321a4c10" x="57.6" y="307.584" style="stroke: #000000; stroke-width: 0.8"/>
      </g>
     </g>
     <g id="text_9">
      <!-- 0.0 -->
      <g transform="translate(34.696875 311.383219) scale(0.1 -0.1)">
       <defs>
        <path id="DejaVuSans-2e" d="M 684 794 
L 1344 794 
L 1344 0 
L 684 0 
L 684 794 
z
" transform="scale(0.015625)"/>
       </defs>
       <use xlink:href="#DejaVuSans-30"/>
       <use xlink:href="#DejaVuSans-2e" x="63.623047"/>
       <use xlink:href="#DejaVuSans-30" x="95.410156"/>
      </g>
     </g>
    </g>
    <g id="ytick_2">
     <g id="line2d_9">
      <g>
       <use xlink:href="#mbf321a4c10" x="57.6" y="264.164282" style="stroke: #000000; stroke-width: 0.8"/>
      </g>
     </g>
     <g id="text_10">
      <!-- 0.2 -->
      <g transform="translate(34.696875 267.9635) scale(0.1 -0.1)">
       <use xlink:href="#DejaVuSans-30"/>
       <use xlink:href="#DejaVuSans-2e" x="63.623047"/>
       <use xlink:href="#DejaVuSans-32" x="95.410156"/>
      </g>
     </g>
    </g>
    <g id="ytick_3">
     <g id="line2d_10">
      <g>
       <use xlink:href="#mbf321a4c10" x="57.6" y="220.744563" style="stroke: #000000; stroke-width: 0.8"/>
      </g>
     </g>
     <g id="text_11">
      <!-- 0.4 -->
      <g transform="translate(34.696875 224.543782) scale(0.1 -0.1)">
       <defs>
        <path id="DejaVuSans-34" d="M 2419 4116 
L 825 1625 
L 2419 1625 
L 2419 4116 
z
M 2253 4666 
L 3047 4666 
L 3047 1625 
L 3713 1625 
L 3713 1100 
L 3047 1100 
L 3047 0 
L 2419 0 
L 2419 1100 
L 313 1100 
L 313 1709 
L 2253 4666 
z
" transform="scale(0.015625)"/>
       </defs>
       <use xlink:href="#DejaVuSans-30"/>
       <use xlink:href="#DejaVuSans-2e" x="63.623047"/>
       <use xlink:href="#DejaVuSans-34" x="95.410156"/>
      </g>
     </g>
    </g>
    <g id="ytick_4">
     <g id="line2d_11">
      <g>
       <use xlink:href="#mbf321a4c10" x="57.6" y="177.324845" style="stroke: #000000; stroke-width: 0.8"/>
      </g>
     </g>
     <g id="text_12">
      <!-- 0.6 -->
      <g transform="translate(34.696875 181.124064) scale(0.1 -0.1)">
       <defs>
        <path id="DejaVuSans-36" d="M 2113 2584 
Q 1688 2584 1439 2293 
Q 1191 2003 1191 1497 
Q 1191 994 1439 701 
Q 1688 409 2113 409 
Q 2538 409 2786 701 
Q 3034 994 3034 1497 
Q 3034 2003 2786 2293 
Q 2538 2584 2113 2584 
z
M 3366 4563 
L 3366 3988 
Q 3128 4100 2886 4159 
Q 2644 4219 2406 4219 
Q 1781 4219 1451 3797 
Q 1122 3375 1075 2522 
Q 1259 2794 1537 2939 
Q 1816 3084 2150 3084 
Q 2853 3084 3261 2657 
Q 3669 2231 3669 1497 
Q 3669 778 3244 343 
Q 2819 -91 2113 -91 
Q 1303 -91 875 529 
Q 447 1150 447 2328 
Q 447 3434 972 4092 
Q 1497 4750 2381 4750 
Q 2619 4750 2861 4703 
Q 3103 4656 3366 4563 
z
" transform="scale(0.015625)"/>
       </defs>
       <use xlink:href="#DejaVuSans-30"/>
       <use xlink:href="#DejaVuSans-2e" x="63.623047"/>
       <use xlink:href="#DejaVuSans-36" x="95.410156"/>
      </g>
     </g>
    </g>
    <g id="ytick_5">
     <g id="line2d_12">
      <g>
       <use xlink:href="#mbf321a4c10" x="57.6" y="133.905127" style="stroke: #000000; stroke-width: 0.8"/>
      </g>
     </g>
     <g id="text_13">
      <!-- 0.8 -->
      <g transform="translate(34.696875 137.704346) scale(0.1 -0.1)">
       <defs>
        <path id="DejaVuSans-38" d="M 2034 2216 
Q 1584 2216 1326 1975 
Q 1069 1734 1069 1313 
Q 1069 891 1326 650 
Q 1584 409 2034 409 
Q 2484 409 2743 651 
Q 3003 894 3003 1313 
Q 3003 1734 2745 1975 
Q 2488 2216 2034 2216 
z
M 1403 2484 
Q 997 2584 770 2862 
Q 544 3141 544 3541 
Q 544 4100 942 4425 
Q 1341 4750 2034 4750 
Q 2731 4750 3128 4425 
Q 3525 4100 3525 3541 
Q 3525 3141 3298 2862 
Q 3072 2584 2669 2484 
Q 3125 2378 3379 2068 
Q 3634 1759 3634 1313 
Q 3634 634 3220 271 
Q 2806 -91 2034 -91 
Q 1263 -91 848 271 
Q 434 634 434 1313 
Q 434 1759 690 2068 
Q 947 2378 1403 2484 
z
M 1172 3481 
Q 1172 3119 1398 2916 
Q 1625 2713 2034 2713 
Q 2441 2713 2670 2916 
Q 2900 3119 2900 3481 
Q 2900 3844 2670 4047 
Q 2441 4250 2034 4250 
Q 1625 4250 1398 4047 
Q 1172 3844 1172 3481 
z
" transform="scale(0.015625)"/>
       </defs>
       <use xlink:href="#DejaVuSans-30"/>
       <use xlink:href="#DejaVuSans-2e" x="63.623047"/>
       <use xlink:href="#DejaVuSans-38" x="95.410156"/>
      </g>
     </g>
    </g>
    <g id="ytick_6">
     <g id="line2d_13">
      <g>
       <use xlink:href="#mbf321a4c10" x="57.6" y="90.485409" style="stroke: #000000; stroke-width: 0.8"/>
      </g>
     </g>
     <g id="text_14">
      <!-- 1.0 -->
      <g transform="translate(34.696875 94.284627) scale(0.1 -0.1)">
       <use xlink:href="#DejaVuSans-31"/>
       <use xlink:href="#DejaVuSans-2e" x="63.623047"/>
       <use xlink:href="#DejaVuSans-30" x="95.410156"/>
      </g>
     </g>
    </g>
    <g id="ytick_7">
     <g id="line2d_14">
      <g>
       <use xlink:href="#mbf321a4c10" x="57.6" y="47.06569" style="stroke: #000000; stroke-width: 0.8"/>
      </g>
     </g>
     <g id="text_15">
      <!-- 1.2 -->
      <g transform="translate(34.696875 50.864909) scale(0.1 -0.1)">
       <use xlink:href="#DejaVuSans-31"/>
       <use xlink:href="#DejaVuSans-2e" x="63.623047"/>
       <use xlink:href="#DejaVuSans-32" x="95.410156"/>
      </g>
     </g>
    </g>
    <g id="text_16">
     <!-- intensities -->
     <g transform="translate(28.617187 200.3155) rotate(-90) scale(0.1 -0.1)">
      <defs>
       <path id="DejaVuSans-69" d="M 603 3500 
L 1178 3500 
L 1178 0 
L 603 0 
L 603 3500 
z
M 603 4863 
L 1178 4863 
L 1178 4134 
L 603 4134 
L 603 4863 
z
" transform="scale(0.015625)"/>
       <path id="DejaVuSans-6e" d="M 3513 2113 
L 3513 0 
L 2938 0 
L 2938 2094 
Q 2938 2591 2744 2837 
Q 2550 3084 2163 3084 
Q 1697 3084 1428 2787 
Q 1159 2491 1159 1978 
L 1159 0 
L 581 0 
L 581 3500 
L 1159 3500 
L 1159 2956 
Q 1366 3272 1645 3428 
Q 1925 3584 2291 3584 
Q 2894 3584 3203 3211 
Q 3513 2838 3513 2113 
z
" transform="scale(0.015625)"/>
       <path id="DejaVuSans-74" d="M 1172 4494 
L 1172 3500 
L 2356 3500 
L 2356 3053 
L 1172 3053 
L 1172 1153 
Q 1172 725 1289 603 
Q 1406 481 1766 481 
L 2356 481 
L 2356 0 
L 1766 0 
Q 1100 0 847 248 
Q 594 497 594 1153 
L 594 3053 
L 172 3053 
L 172 3500 
L 594 3500 
L 594 4494 
L 1172 4494 
z
" transform="scale(0.015625)"/>
       <path id="DejaVuSans-65" d="M 3597 1894 
L 3597 1613 
L 953 1613 
Q 991 1019 1311 708 
Q 1631 397 2203 397 
Q 2534 397 2845 478 
Q 3156 559 3463 722 
L 3463 178 
Q 3153 47 2828 -22 
Q 2503 -91 2169 -91 
Q 1331 -91 842 396 
Q 353 884 353 1716 
Q 353 2575 817 3079 
Q 1281 3584 2069 3584 
Q 2775 3584 3186 3129 
Q 3597 2675 3597 1894 
z
M 3022 2063 
Q 3016 2534 2758 2815 
Q 2500 3097 2075 3097 
Q 1594 3097 1305 2825 
Q 1016 2553 972 2059 
L 3022 2063 
z
" transform="scale(0.015625)"/>
       <path id="DejaVuSans-73" d="M 2834 3397 
L 2834 2853 
Q 2591 2978 2328 3040 
Q 2066 3103 1784 3103 
Q 1356 3103 1142 2972 
Q 928 2841 928 2578 
Q 928 2378 1081 2264 
Q 1234 2150 1697 2047 
L 1894 2003 
Q 2506 1872 2764 1633 
Q 3022 1394 3022 966 
Q 3022 478 2636 193 
Q 2250 -91 1575 -91 
Q 1294 -91 989 -36 
Q 684 19 347 128 
L 347 722 
Q 666 556 975 473 
Q 1284 391 1588 391 
Q 1994 391 2212 530 
Q 2431 669 2431 922 
Q 2431 1156 2273 1281 
Q 2116 1406 1581 1522 
L 1381 1569 
Q 847 1681 609 1914 
Q 372 2147 372 2553 
Q 372 3047 722 3315 
Q 1072 3584 1716 3584 
Q 2034 3584 2315 3537 
Q 2597 3491 2834 3397 
z
" transform="scale(0.015625)"/>
      </defs>
      <use xlink:href="#DejaVuSans-69"/>
      <use xlink:href="#DejaVuSans-6e" x="27.783203"/>
      <use xlink:href="#DejaVuSans-74" x="91.162109"/>
      <use xlink:href="#DejaVuSans-65" x="130.371094"/>
      <use xlink:href="#DejaVuSans-6e" x="191.894531"/>
      <use xlink:href="#DejaVuSans-73" x="255.273438"/>
      <use xlink:href="#DejaVuSans-69" x="307.373047"/>
      <use xlink:href="#DejaVuSans-74" x="335.15625"/>
      <use xlink:href="#DejaVuSans-69" x="374.365234"/>
      <use xlink:href="#DejaVuSans-65" x="402.148438"/>
      <use xlink:href="#DejaVuSans-73" x="463.671875"/>
     </g>
    </g>
    <g id="text_17">
     <!-- 1e6 -->
     <g transform="translate(57.6 38.472) scale(0.1 -0.1)">
      <use xlink:href="#DejaVuSans-31"/>
      <use xlink:href="#DejaVuSans-65" x="63.623047"/>
      <use xlink:href="#DejaVuSans-36" x="125.146484"/>
     </g>
    </g>
   </g>
   <g id="patch_207">
    <path d="M 57.6 307.584 
L 57.6 41.472 
" style="fill: none; stroke: #000000; stroke-width: 0.8; stroke-linejoin: miter; stroke-linecap: square"/>
   </g>
   <g id="patch_208">
    <path d="M 414.72 307.584 
L 414.72 41.472 
" style="fill: none; stroke: #000000; stroke-width: 0.8; stroke-linejoin: miter; stroke-linecap: square"/>
   </g>
   <g id="patch_209">
    <path d="M 57.6 307.584 
L 414.72 307.584 
" style="fill: none; stroke: #000000; stroke-width: 0.8; stroke-linejoin: miter; stroke-linecap: square"/>
   </g>
   <g id="patch_210">
    <path d="M 57.6 41.472 
L 414.72 41.472 
" style="fill: none; stroke: #000000; stroke-width: 0.8; stroke-linejoin: miter; stroke-linecap: square"/>
   </g>
   <g id="text_18">
    <!-- 102.0554 -->
    <g transform="translate(113.137413 174.293362) scale(0.06 -0.06)">
     <use xlink:href="#DejaVuSans-31"/>
     <use xlink:href="#DejaVuSans-30" x="63.623047"/>
     <use xlink:href="#DejaVuSans-32" x="127.246094"/>
     <use xlink:href="#DejaVuSans-2e" x="190.869141"/>
     <use xlink:href="#DejaVuSans-30" x="222.65625"/>
     <use xlink:href="#DejaVuSans-35" x="286.279297"/>
     <use xlink:href="#DejaVuSans-35" x="349.902344"/>
     <use xlink:href="#DejaVuSans-34" x="413.525391"/>
    </g>
   </g>
   <g id="text_19">
    <!-- 130.0652 -->
    <g transform="translate(142.558359 273.329018) scale(0.06 -0.06)">
     <use xlink:href="#DejaVuSans-31"/>
     <use xlink:href="#DejaVuSans-33" x="63.623047"/>
     <use xlink:href="#DejaVuSans-30" x="127.246094"/>
     <use xlink:href="#DejaVuSans-2e" x="190.869141"/>
     <use xlink:href="#DejaVuSans-30" x="222.65625"/>
     <use xlink:href="#DejaVuSans-36" x="286.279297"/>
     <use xlink:href="#DejaVuSans-35" x="349.902344"/>
     <use xlink:href="#DejaVuSans-32" x="413.525391"/>
    </g>
   </g>
   <g id="text_20">
    <!-- 183.0916 -->
    <g transform="translate(188.896399 282.82043) scale(0.06 -0.06)">
     <defs>
      <path id="DejaVuSans-39" d="M 703 97 
L 703 672 
Q 941 559 1184 500 
Q 1428 441 1663 441 
Q 2288 441 2617 861 
Q 2947 1281 2994 2138 
Q 2813 1869 2534 1725 
Q 2256 1581 1919 1581 
Q 1219 1581 811 2004 
Q 403 2428 403 3163 
Q 403 3881 828 4315 
Q 1253 4750 1959 4750 
Q 2769 4750 3195 4129 
Q 3622 3509 3622 2328 
Q 3622 1225 3098 567 
Q 2575 -91 1691 -91 
Q 1453 -91 1209 -44 
Q 966 3 703 97 
z
M 1959 2075 
Q 2384 2075 2632 2365 
Q 2881 2656 2881 3163 
Q 2881 3666 2632 3958 
Q 2384 4250 1959 4250 
Q 1534 4250 1286 3958 
Q 1038 3666 1038 3163 
Q 1038 2656 1286 2365 
Q 1534 2075 1959 2075 
z
" transform="scale(0.015625)"/>
     </defs>
     <use xlink:href="#DejaVuSans-31"/>
     <use xlink:href="#DejaVuSans-38" x="63.623047"/>
     <use xlink:href="#DejaVuSans-33" x="127.246094"/>
     <use xlink:href="#DejaVuSans-2e" x="190.869141"/>
     <use xlink:href="#DejaVuSans-30" x="222.65625"/>
     <use xlink:href="#DejaVuSans-39" x="286.279297"/>
     <use xlink:href="#DejaVuSans-31" x="349.902344"/>
     <use xlink:href="#DejaVuSans-36" x="413.525391"/>
    </g>
   </g>
   <g id="text_21">
    <!-- 202.0496 -->
    <g transform="translate(210.249475 266.113862) scale(0.06 -0.06)">
     <use xlink:href="#DejaVuSans-32"/>
     <use xlink:href="#DejaVuSans-30" x="63.623047"/>
     <use xlink:href="#DejaVuSans-32" x="127.246094"/>
     <use xlink:href="#DejaVuSans-2e" x="190.869141"/>
     <use xlink:href="#DejaVuSans-30" x="222.65625"/>
     <use xlink:href="#DejaVuSans-34" x="286.279297"/>
     <use xlink:href="#DejaVuSans-39" x="349.902344"/>
     <use xlink:href="#DejaVuSans-36" x="413.525391"/>
    </g>
   </g>
   <g id="text_22">
    <!-- 211.0863 -->
    <g transform="translate(227.661518 113.258793) scale(0.06 -0.06)">
     <use xlink:href="#DejaVuSans-32"/>
     <use xlink:href="#DejaVuSans-31" x="63.623047"/>
     <use xlink:href="#DejaVuSans-31" x="127.246094"/>
     <use xlink:href="#DejaVuSans-2e" x="190.869141"/>
     <use xlink:href="#DejaVuSans-30" x="222.65625"/>
     <use xlink:href="#DejaVuSans-38" x="286.279297"/>
     <use xlink:href="#DejaVuSans-36" x="349.902344"/>
     <use xlink:href="#DejaVuSans-33" x="413.525391"/>
    </g>
   </g>
   <g id="text_23">
    <!-- 212.0927 -->
    <g transform="translate(230.878567 259.114636) scale(0.06 -0.06)">
     <defs>
      <path id="DejaVuSans-37" d="M 525 4666 
L 3525 4666 
L 3525 4397 
L 1831 0 
L 1172 0 
L 2766 4134 
L 525 4134 
L 525 4666 
z
" transform="scale(0.015625)"/>
     </defs>
     <use xlink:href="#DejaVuSans-32"/>
     <use xlink:href="#DejaVuSans-31" x="63.623047"/>
     <use xlink:href="#DejaVuSans-32" x="127.246094"/>
     <use xlink:href="#DejaVuSans-2e" x="190.869141"/>
     <use xlink:href="#DejaVuSans-30" x="222.65625"/>
     <use xlink:href="#DejaVuSans-39" x="286.279297"/>
     <use xlink:href="#DejaVuSans-32" x="349.902344"/>
     <use xlink:href="#DejaVuSans-37" x="413.525391"/>
    </g>
   </g>
   <g id="text_24">
    <!-- 226.0869 -->
    <g transform="translate(247.017784 283.544453) scale(0.06 -0.06)">
     <use xlink:href="#DejaVuSans-32"/>
     <use xlink:href="#DejaVuSans-32" x="63.623047"/>
     <use xlink:href="#DejaVuSans-36" x="127.246094"/>
     <use xlink:href="#DejaVuSans-2e" x="190.869141"/>
     <use xlink:href="#DejaVuSans-30" x="222.65625"/>
     <use xlink:href="#DejaVuSans-38" x="286.279297"/>
     <use xlink:href="#DejaVuSans-36" x="349.902344"/>
     <use xlink:href="#DejaVuSans-39" x="413.525391"/>
    </g>
   </g>
   <g id="text_25">
    <!-- 228.089 -->
    <g transform="translate(247.429509 50.939625) scale(0.06 -0.06)">
     <use xlink:href="#DejaVuSans-32"/>
     <use xlink:href="#DejaVuSans-32" x="63.623047"/>
     <use xlink:href="#DejaVuSans-38" x="127.246094"/>
     <use xlink:href="#DejaVuSans-2e" x="190.869141"/>
     <use xlink:href="#DejaVuSans-30" x="222.65625"/>
     <use xlink:href="#DejaVuSans-38" x="286.279297"/>
     <use xlink:href="#DejaVuSans-39" x="349.902344"/>
    </g>
   </g>
   <g id="text_26">
    <!-- 230.0446 -->
    <g transform="translate(247.574882 199.636081) scale(0.06 -0.06)">
     <use xlink:href="#DejaVuSans-32"/>
     <use xlink:href="#DejaVuSans-33" x="63.623047"/>
     <use xlink:href="#DejaVuSans-30" x="127.246094"/>
     <use xlink:href="#DejaVuSans-2e" x="190.869141"/>
     <use xlink:href="#DejaVuSans-30" x="222.65625"/>
     <use xlink:href="#DejaVuSans-34" x="286.279297"/>
     <use xlink:href="#DejaVuSans-34" x="349.902344"/>
     <use xlink:href="#DejaVuSans-36" x="413.525391"/>
    </g>
   </g>
   <g id="text_27">
    <!-- 240.0291 -->
    <g transform="translate(258.782444 263.228818) scale(0.06 -0.06)">
     <use xlink:href="#DejaVuSans-32"/>
     <use xlink:href="#DejaVuSans-34" x="63.623047"/>
     <use xlink:href="#DejaVuSans-30" x="127.246094"/>
     <use xlink:href="#DejaVuSans-2e" x="190.869141"/>
     <use xlink:href="#DejaVuSans-30" x="222.65625"/>
     <use xlink:href="#DejaVuSans-32" x="286.279297"/>
     <use xlink:href="#DejaVuSans-39" x="349.902344"/>
     <use xlink:href="#DejaVuSans-31" x="413.525391"/>
    </g>
   </g>
   <g id="text_28">
    <!-- 272.0547 -->
    <g transform="translate(291.701496 150.13014) scale(0.06 -0.06)">
     <use xlink:href="#DejaVuSans-32"/>
     <use xlink:href="#DejaVuSans-37" x="63.623047"/>
     <use xlink:href="#DejaVuSans-32" x="127.246094"/>
     <use xlink:href="#DejaVuSans-2e" x="190.869141"/>
     <use xlink:href="#DejaVuSans-30" x="222.65625"/>
     <use xlink:href="#DejaVuSans-35" x="286.279297"/>
     <use xlink:href="#DejaVuSans-34" x="349.902344"/>
     <use xlink:href="#DejaVuSans-37" x="413.525391"/>
    </g>
   </g>
   <g id="text_29">
    <!-- MS2 spectrum of ${m/z}$ 363.1173, scan time 6.17 min. -->
    <g transform="translate(57.6 24.873562) scale(0.12 -0.12)">
     <defs>
      <path id="DejaVuSans-4d" d="M 628 4666 
L 1569 4666 
L 2759 1491 
L 3956 4666 
L 4897 4666 
L 4897 0 
L 4281 0 
L 4281 4097 
L 3078 897 
L 2444 897 
L 1241 4097 
L 1241 0 
L 628 0 
L 628 4666 
z
" transform="scale(0.015625)"/>
      <path id="DejaVuSans-53" d="M 3425 4513 
L 3425 3897 
Q 3066 4069 2747 4153 
Q 2428 4238 2131 4238 
Q 1616 4238 1336 4038 
Q 1056 3838 1056 3469 
Q 1056 3159 1242 3001 
Q 1428 2844 1947 2747 
L 2328 2669 
Q 3034 2534 3370 2195 
Q 3706 1856 3706 1288 
Q 3706 609 3251 259 
Q 2797 -91 1919 -91 
Q 1588 -91 1214 -16 
Q 841 59 441 206 
L 441 856 
Q 825 641 1194 531 
Q 1563 422 1919 422 
Q 2459 422 2753 634 
Q 3047 847 3047 1241 
Q 3047 1584 2836 1778 
Q 2625 1972 2144 2069 
L 1759 2144 
Q 1053 2284 737 2584 
Q 422 2884 422 3419 
Q 422 4038 858 4394 
Q 1294 4750 2059 4750 
Q 2388 4750 2728 4690 
Q 3069 4631 3425 4513 
z
" transform="scale(0.015625)"/>
      <path id="DejaVuSans-20" transform="scale(0.015625)"/>
      <path id="DejaVuSans-70" d="M 1159 525 
L 1159 -1331 
L 581 -1331 
L 581 3500 
L 1159 3500 
L 1159 2969 
Q 1341 3281 1617 3432 
Q 1894 3584 2278 3584 
Q 2916 3584 3314 3078 
Q 3713 2572 3713 1747 
Q 3713 922 3314 415 
Q 2916 -91 2278 -91 
Q 1894 -91 1617 61 
Q 1341 213 1159 525 
z
M 3116 1747 
Q 3116 2381 2855 2742 
Q 2594 3103 2138 3103 
Q 1681 3103 1420 2742 
Q 1159 2381 1159 1747 
Q 1159 1113 1420 752 
Q 1681 391 2138 391 
Q 2594 391 2855 752 
Q 3116 1113 3116 1747 
z
" transform="scale(0.015625)"/>
      <path id="DejaVuSans-63" d="M 3122 3366 
L 3122 2828 
Q 2878 2963 2633 3030 
Q 2388 3097 2138 3097 
Q 1578 3097 1268 2742 
Q 959 2388 959 1747 
Q 959 1106 1268 751 
Q 1578 397 2138 397 
Q 2388 397 2633 464 
Q 2878 531 3122 666 
L 3122 134 
Q 2881 22 2623 -34 
Q 2366 -91 2075 -91 
Q 1284 -91 818 406 
Q 353 903 353 1747 
Q 353 2603 823 3093 
Q 1294 3584 2113 3584 
Q 2378 3584 2631 3529 
Q 2884 3475 3122 3366 
z
" transform="scale(0.015625)"/>
      <path id="DejaVuSans-72" d="M 2631 2963 
Q 2534 3019 2420 3045 
Q 2306 3072 2169 3072 
Q 1681 3072 1420 2755 
Q 1159 2438 1159 1844 
L 1159 0 
L 581 0 
L 581 3500 
L 1159 3500 
L 1159 2956 
Q 1341 3275 1631 3429 
Q 1922 3584 2338 3584 
Q 2397 3584 2469 3576 
Q 2541 3569 2628 3553 
L 2631 2963 
z
" transform="scale(0.015625)"/>
      <path id="DejaVuSans-75" d="M 544 1381 
L 544 3500 
L 1119 3500 
L 1119 1403 
Q 1119 906 1312 657 
Q 1506 409 1894 409 
Q 2359 409 2629 706 
Q 2900 1003 2900 1516 
L 2900 3500 
L 3475 3500 
L 3475 0 
L 2900 0 
L 2900 538 
Q 2691 219 2414 64 
Q 2138 -91 1772 -91 
Q 1169 -91 856 284 
Q 544 659 544 1381 
z
M 1991 3584 
L 1991 3584 
z
" transform="scale(0.015625)"/>
      <path id="DejaVuSans-6d" d="M 3328 2828 
Q 3544 3216 3844 3400 
Q 4144 3584 4550 3584 
Q 5097 3584 5394 3201 
Q 5691 2819 5691 2113 
L 5691 0 
L 5113 0 
L 5113 2094 
Q 5113 2597 4934 2840 
Q 4756 3084 4391 3084 
Q 3944 3084 3684 2787 
Q 3425 2491 3425 1978 
L 3425 0 
L 2847 0 
L 2847 2094 
Q 2847 2600 2669 2842 
Q 2491 3084 2119 3084 
Q 1678 3084 1418 2786 
Q 1159 2488 1159 1978 
L 1159 0 
L 581 0 
L 581 3500 
L 1159 3500 
L 1159 2956 
Q 1356 3278 1631 3431 
Q 1906 3584 2284 3584 
Q 2666 3584 2933 3390 
Q 3200 3197 3328 2828 
z
" transform="scale(0.015625)"/>
      <path id="DejaVuSans-6f" d="M 1959 3097 
Q 1497 3097 1228 2736 
Q 959 2375 959 1747 
Q 959 1119 1226 758 
Q 1494 397 1959 397 
Q 2419 397 2687 759 
Q 2956 1122 2956 1747 
Q 2956 2369 2687 2733 
Q 2419 3097 1959 3097 
z
M 1959 3584 
Q 2709 3584 3137 3096 
Q 3566 2609 3566 1747 
Q 3566 888 3137 398 
Q 2709 -91 1959 -91 
Q 1206 -91 779 398 
Q 353 888 353 1747 
Q 353 2609 779 3096 
Q 1206 3584 1959 3584 
z
" transform="scale(0.015625)"/>
      <path id="DejaVuSans-66" d="M 2375 4863 
L 2375 4384 
L 1825 4384 
Q 1516 4384 1395 4259 
Q 1275 4134 1275 3809 
L 1275 3500 
L 2222 3500 
L 2222 3053 
L 1275 3053 
L 1275 0 
L 697 0 
L 697 3053 
L 147 3053 
L 147 3500 
L 697 3500 
L 697 3744 
Q 697 4328 969 4595 
Q 1241 4863 1831 4863 
L 2375 4863 
z
" transform="scale(0.015625)"/>
      <path id="DejaVuSans-2c" d="M 750 794 
L 1409 794 
L 1409 256 
L 897 -744 
L 494 -744 
L 750 256 
L 750 794 
z
" transform="scale(0.015625)"/>
      <path id="DejaVuSans-61" d="M 2194 1759 
Q 1497 1759 1228 1600 
Q 959 1441 959 1056 
Q 959 750 1161 570 
Q 1363 391 1709 391 
Q 2188 391 2477 730 
Q 2766 1069 2766 1631 
L 2766 1759 
L 2194 1759 
z
M 3341 1997 
L 3341 0 
L 2766 0 
L 2766 531 
Q 2569 213 2275 61 
Q 1981 -91 1556 -91 
Q 1019 -91 701 211 
Q 384 513 384 1019 
Q 384 1609 779 1909 
Q 1175 2209 1959 2209 
L 2766 2209 
L 2766 2266 
Q 2766 2663 2505 2880 
Q 2244 3097 1772 3097 
Q 1472 3097 1187 3025 
Q 903 2953 641 2809 
L 641 3341 
Q 956 3463 1253 3523 
Q 1550 3584 1831 3584 
Q 2591 3584 2966 3190 
Q 3341 2797 3341 1997 
z
" transform="scale(0.015625)"/>
     </defs>
     <use xlink:href="#DejaVuSans-4d" transform="translate(0 0.015625)"/>
     <use xlink:href="#DejaVuSans-53" transform="translate(86.279297 0.015625)"/>
     <use xlink:href="#DejaVuSans-32" transform="translate(149.755859 0.015625)"/>
     <use xlink:href="#DejaVuSans-20" transform="translate(213.378906 0.015625)"/>
     <use xlink:href="#DejaVuSans-73" transform="translate(245.166016 0.015625)"/>
     <use xlink:href="#DejaVuSans-70" transform="translate(297.265625 0.015625)"/>
     <use xlink:href="#DejaVuSans-65" transform="translate(360.742188 0.015625)"/>
     <use xlink:href="#DejaVuSans-63" transform="translate(422.265625 0.015625)"/>
     <use xlink:href="#DejaVuSans-74" transform="translate(477.246094 0.015625)"/>
     <use xlink:href="#DejaVuSans-72" transform="translate(516.455078 0.015625)"/>
     <use xlink:href="#DejaVuSans-75" transform="translate(557.568359 0.015625)"/>
     <use xlink:href="#DejaVuSans-6d" transform="translate(620.947266 0.015625)"/>
     <use xlink:href="#DejaVuSans-20" transform="translate(718.359375 0.015625)"/>
     <use xlink:href="#DejaVuSans-6f" transform="translate(750.146484 0.015625)"/>
     <use xlink:href="#DejaVuSans-66" transform="translate(811.328125 0.015625)"/>
     <use xlink:href="#DejaVuSans-20" transform="translate(846.533203 0.015625)"/>
     <use xlink:href="#DejaVuSans-Oblique-6d" transform="translate(878.320312 0.015625)"/>
     <use xlink:href="#DejaVuSans-2f" transform="translate(975.732422 0.015625)"/>
     <use xlink:href="#DejaVuSans-Oblique-7a" transform="translate(1009.423828 0.015625)"/>
     <use xlink:href="#DejaVuSans-20" transform="translate(1061.914062 0.015625)"/>
     <use xlink:href="#DejaVuSans-33" transform="translate(1093.701172 0.015625)"/>
     <use xlink:href="#DejaVuSans-36" transform="translate(1157.324219 0.015625)"/>
     <use xlink:href="#DejaVuSans-33" transform="translate(1220.947266 0.015625)"/>
     <use xlink:href="#DejaVuSans-2e" transform="translate(1284.570312 0.015625)"/>
     <use xlink:href="#DejaVuSans-31" transform="translate(1316.357422 0.015625)"/>
     <use xlink:href="#DejaVuSans-31" transform="translate(1379.980469 0.015625)"/>
     <use xlink:href="#DejaVuSans-37" transform="translate(1443.603516 0.015625)"/>
     <use xlink:href="#DejaVuSans-33" transform="translate(1507.226562 0.015625)"/>
     <use xlink:href="#DejaVuSans-2c" transform="translate(1570.849609 0.015625)"/>
     <use xlink:href="#DejaVuSans-20" transform="translate(1602.636719 0.015625)"/>
     <use xlink:href="#DejaVuSans-73" transform="translate(1634.423828 0.015625)"/>
     <use xlink:href="#DejaVuSans-63" transform="translate(1686.523438 0.015625)"/>
     <use xlink:href="#DejaVuSans-61" transform="translate(1741.503906 0.015625)"/>
     <use xlink:href="#DejaVuSans-6e" transform="translate(1802.783203 0.015625)"/>
     <use xlink:href="#DejaVuSans-20" transform="translate(1866.162109 0.015625)"/>
     <use xlink:href="#DejaVuSans-74" transform="translate(1897.949219 0.015625)"/>
     <use xlink:href="#DejaVuSans-69" transform="translate(1937.158203 0.015625)"/>
     <use xlink:href="#DejaVuSans-6d" transform="translate(1964.941406 0.015625)"/>
     <use xlink:href="#DejaVuSans-65" transform="translate(2062.353516 0.015625)"/>
     <use xlink:href="#DejaVuSans-20" transform="translate(2123.876953 0.015625)"/>
     <use xlink:href="#DejaVuSans-36" transform="translate(2155.664062 0.015625)"/>
     <use xlink:href="#DejaVuSans-2e" transform="translate(2219.287109 0.015625)"/>
     <use xlink:href="#DejaVuSans-31" transform="translate(2251.074219 0.015625)"/>
     <use xlink:href="#DejaVuSans-37" transform="translate(2314.697266 0.015625)"/>
     <use xlink:href="#DejaVuSans-20" transform="translate(2378.320312 0.015625)"/>
     <use xlink:href="#DejaVuSans-6d" transform="translate(2410.107422 0.015625)"/>
     <use xlink:href="#DejaVuSans-69" transform="translate(2507.519531 0.015625)"/>
     <use xlink:href="#DejaVuSans-6e" transform="translate(2535.302734 0.015625)"/>
     <use xlink:href="#DejaVuSans-2e" transform="translate(2598.681641 0.015625)"/>
    </g>
   </g>
  </g>
 </g>
 <defs>
  <clipPath id="p49a4f62343">
   <rect x="57.6" y="41.472" width="357.12" height="266.112"/>
  </clipPath>
 </defs>
</svg>
