<?xml version="1.0" encoding="utf-8" standalone="no"?>
<!DOCTYPE svg PUBLIC "-//W3C//DTD SVG 1.1//EN"
  "http://www.w3.org/Graphics/SVG/1.1/DTD/svg11.dtd">
<svg xmlns:xlink="http://www.w3.org/1999/xlink" width="460.8pt" height="345.6pt" viewBox="0 0 460.8 345.6" xmlns="http://www.w3.org/2000/svg" version="1.1">
 <metadata>
  <rdf:RDF xmlns:dc="http://purl.org/dc/elements/1.1/" xmlns:cc="http://creativecommons.org/ns#" xmlns:rdf="http://www.w3.org/1999/02/22-rdf-syntax-ns#">
   <cc:Work>
    <dc:type rdf:resource="http://purl.org/dc/dcmitype/StillImage"/>
    <dc:date>2025-01-11T13:53:52.861916</dc:date>
    <dc:format>image/svg+xml</dc:format>
    <dc:creator>
     <cc:Agent>
      <dc:title>Matplotlib v3.7.3, https://matplotlib.org/</dc:title>
     </cc:Agent>
    </dc:creator>
   </cc:Work>
  </rdf:RDF>
 </metadata>
 <defs>
  <style type="text/css">*{stroke-linejoin: round; stroke-linecap: butt}</style>
 </defs>
 <g id="figure_1">
  <g id="patch_1">
   <path d="M 0 345.6 
L 460.8 345.6 
L 460.8 0 
L 0 0 
z
" style="fill: #ffffff"/>
  </g>
  <g id="axes_1">
   <g id="patch_2">
    <path d="M 57.6 307.584 
L 414.72 307.584 
L 414.72 41.472 
L 57.6 41.472 
z
" style="fill: #ffffff"/>
   </g>
   <g id="patch_3">
    <path d="M 73.832727 307.584 
L 74.527052 307.584 
L 74.527052 305.825104 
L 73.832727 305.825104 
z
" clip-path="url(#p32510638b8)" style="fill: #1f77b4"/>
   </g>
   <g id="patch_4">
    <path d="M 77.932682 307.584 
L 78.627007 307.584 
L 78.627007 305.846447 
L 77.932682 305.846447 
z
" clip-path="url(#p32510638b8)" style="fill: #1f77b4"/>
   </g>
   <g id="patch_5">
    <path d="M 80.785261 307.584 
L 81.479586 307.584 
L 81.479586 305.555453 
L 80.785261 305.555453 
z
" clip-path="url(#p32510638b8)" style="fill: #1f77b4"/>
   </g>
   <g id="patch_6">
    <path d="M 80.798733 307.584 
L 81.493057 307.584 
L 81.493057 304.786501 
L 80.798733 304.786501 
z
" clip-path="url(#p32510638b8)" style="fill: #1f77b4"/>
   </g>
   <g id="patch_7">
    <path d="M 100.753375 307.584 
L 101.4477 307.584 
L 101.4477 303.441565 
L 100.753375 303.441565 
z
" clip-path="url(#p32510638b8)" style="fill: #1f77b4"/>
   </g>
   <g id="patch_8">
    <path d="M 107.711882 307.584 
L 108.406206 307.584 
L 108.406206 303.771815 
L 107.711882 303.771815 
z
" clip-path="url(#p32510638b8)" style="fill: #1f77b4"/>
   </g>
   <g id="patch_9">
    <path d="M 112.441474 307.584 
L 113.135799 307.584 
L 113.135799 305.521623 
L 112.441474 305.521623 
z
" clip-path="url(#p32510638b8)" style="fill: #1f77b4"/>
   </g>
   <g id="patch_10">
    <path d="M 112.897358 307.584 
L 113.591682 307.584 
L 113.591682 305.340871 
L 112.897358 305.340871 
z
" clip-path="url(#p32510638b8)" style="fill: #1f77b4"/>
   </g>
   <g id="patch_11">
    <path d="M 113.792154 307.584 
L 114.486478 307.584 
L 114.486478 301.700385 
L 113.792154 301.700385 
z
" clip-path="url(#p32510638b8)" style="fill: #1f77b4"/>
   </g>
   <g id="patch_12">
    <path d="M 117.259604 307.584 
L 117.953928 307.584 
L 117.953928 182.622708 
L 117.259604 182.622708 
z
" clip-path="url(#p32510638b8)" style="fill: #1f77b4"/>
   </g>
   <g id="patch_13">
    <path d="M 127.656009 307.584 
L 128.350334 307.584 
L 128.350334 305.422522 
L 127.656009 305.422522 
z
" clip-path="url(#p32510638b8)" style="fill: #1f77b4"/>
   </g>
   <g id="patch_14">
    <path d="M 128.541925 307.584 
L 129.23625 307.584 
L 129.23625 304.625566 
L 128.541925 304.625566 
z
" clip-path="url(#p32510638b8)" style="fill: #1f77b4"/>
   </g>
   <g id="patch_15">
    <path d="M 128.548746 307.584 
L 129.24307 307.584 
L 129.24307 301.397186 
L 128.548746 301.397186 
z
" clip-path="url(#p32510638b8)" style="fill: #1f77b4"/>
   </g>
   <g id="patch_16">
    <path d="M 129.405057 307.584 
L 130.099381 307.584 
L 130.099381 304.387861 
L 129.405057 304.387861 
z
" clip-path="url(#p32510638b8)" style="fill: #1f77b4"/>
   </g>
   <g id="patch_17">
    <path d="M 132.872381 307.584 
L 133.566706 307.584 
L 133.566706 304.024971 
L 132.872381 304.024971 
z
" clip-path="url(#p32510638b8)" style="fill: #1f77b4"/>
   </g>
   <g id="patch_18">
    <path d="M 138.088893 307.584 
L 138.783217 307.584 
L 138.783217 304.74452 
L 138.088893 304.74452 
z
" clip-path="url(#p32510638b8)" style="fill: #1f77b4"/>
   </g>
   <g id="patch_19">
    <path d="M 139.819731 307.584 
L 140.514055 307.584 
L 140.514055 302.867393 
L 139.819731 302.867393 
z
" clip-path="url(#p32510638b8)" style="fill: #1f77b4"/>
   </g>
   <g id="patch_20">
    <path d="M 139.837927 307.584 
L 140.532251 307.584 
L 140.532251 301.681955 
L 139.837927 301.681955 
z
" clip-path="url(#p32510638b8)" style="fill: #1f77b4"/>
   </g>
   <g id="patch_21">
    <path d="M 141.555913 307.584 
L 142.250237 307.584 
L 142.250237 299.062947 
L 141.555913 299.062947 
z
" clip-path="url(#p32510638b8)" style="fill: #1f77b4"/>
   </g>
   <g id="patch_22">
    <path d="M 141.569474 307.584 
L 142.263798 307.584 
L 142.263798 275.739341 
L 141.569474 275.739341 
z
" clip-path="url(#p32510638b8)" style="fill: #1f77b4"/>
   </g>
   <g id="patch_23">
    <path d="M 143.28689 307.584 
L 143.981214 307.584 
L 143.981214 298.150389 
L 143.28689 298.150389 
z
" clip-path="url(#p32510638b8)" style="fill: #1f77b4"/>
   </g>
   <g id="patch_24">
    <path d="M 145.004942 307.584 
L 145.699266 307.584 
L 145.699266 304.701868 
L 145.004942 304.701868 
z
" clip-path="url(#p32510638b8)" style="fill: #1f77b4"/>
   </g>
   <g id="patch_25">
    <path d="M 146.754208 307.584 
L 147.448532 307.584 
L 147.448532 300.192973 
L 146.754208 300.192973 
z
" clip-path="url(#p32510638b8)" style="fill: #1f77b4"/>
   </g>
   <g id="patch_26">
    <path d="M 150.234809 307.584 
L 150.929133 307.584 
L 150.929133 295.753905 
L 150.234809 295.753905 
z
" clip-path="url(#p32510638b8)" style="fill: #1f77b4"/>
   </g>
   <g id="patch_27">
    <path d="M 151.984062 307.584 
L 152.678386 307.584 
L 152.678386 302.407831 
L 151.984062 302.407831 
z
" clip-path="url(#p32510638b8)" style="fill: #1f77b4"/>
   </g>
   <g id="patch_28">
    <path d="M 152.826884 307.584 
L 153.521209 307.584 
L 153.521209 304.828038 
L 152.826884 304.828038 
z
" clip-path="url(#p32510638b8)" style="fill: #1f77b4"/>
   </g>
   <g id="patch_29">
    <path d="M 153.702113 307.584 
L 154.396438 307.584 
L 154.396438 300.437736 
L 153.702113 300.437736 
z
" clip-path="url(#p32510638b8)" style="fill: #1f77b4"/>
   </g>
   <g id="patch_30">
    <path d="M 153.72019 307.584 
L 154.414515 307.584 
L 154.414515 302.300147 
L 153.72019 302.300147 
z
" clip-path="url(#p32510638b8)" style="fill: #1f77b4"/>
   </g>
   <g id="patch_31">
    <path d="M 153.733579 307.584 
L 154.427904 307.584 
L 154.427904 302.907475 
L 153.733579 302.907475 
z
" clip-path="url(#p32510638b8)" style="fill: #1f77b4"/>
   </g>
   <g id="patch_32">
    <path d="M 155.451565 307.584 
L 156.145889 307.584 
L 156.145889 294.203898 
L 155.451565 294.203898 
z
" clip-path="url(#p32510638b8)" style="fill: #1f77b4"/>
   </g>
   <g id="patch_33">
    <path d="M 158.918684 307.584 
L 159.613009 307.584 
L 159.613009 304.350017 
L 158.918684 304.350017 
z
" clip-path="url(#p32510638b8)" style="fill: #1f77b4"/>
   </g>
   <g id="patch_34">
    <path d="M 162.398689 307.584 
L 163.093014 307.584 
L 163.093014 303.307503 
L 162.398689 303.307503 
z
" clip-path="url(#p32510638b8)" style="fill: #1f77b4"/>
   </g>
   <g id="patch_35">
    <path d="M 163.004419 307.584 
L 163.698744 307.584 
L 163.698744 305.094755 
L 163.004419 305.094755 
z
" clip-path="url(#p32510638b8)" style="fill: #1f77b4"/>
   </g>
   <g id="patch_36">
    <path d="M 164.117125 307.584 
L 164.81145 307.584 
L 164.81145 296.516691 
L 164.117125 296.516691 
z
" clip-path="url(#p32510638b8)" style="fill: #1f77b4"/>
   </g>
   <g id="patch_37">
    <path d="M 164.135401 307.584 
L 164.829725 307.584 
L 164.829725 300.322437 
L 164.135401 300.322437 
z
" clip-path="url(#p32510638b8)" style="fill: #1f77b4"/>
   </g>
   <g id="patch_38">
    <path d="M 164.146922 307.584 
L 164.841247 307.584 
L 164.841247 305.426398 
L 164.146922 305.426398 
z
" clip-path="url(#p32510638b8)" style="fill: #1f77b4"/>
   </g>
   <g id="patch_39">
    <path d="M 164.990037 307.584 
L 165.684361 307.584 
L 165.684361 300.390227 
L 164.990037 300.390227 
z
" clip-path="url(#p32510638b8)" style="fill: #1f77b4"/>
   </g>
   <g id="patch_40">
    <path d="M 165.866404 307.584 
L 166.560729 307.584 
L 166.560729 287.200507 
L 165.866404 287.200507 
z
" clip-path="url(#p32510638b8)" style="fill: #1f77b4"/>
   </g>
   <g id="patch_41">
    <path d="M 165.886269 307.584 
L 166.580594 307.584 
L 166.580594 304.717115 
L 165.886269 304.717115 
z
" clip-path="url(#p32510638b8)" style="fill: #1f77b4"/>
   </g>
   <g id="patch_42">
    <path d="M 166.729675 307.584 
L 167.423999 307.584 
L 167.423999 305.104121 
L 166.729675 305.104121 
z
" clip-path="url(#p32510638b8)" style="fill: #1f77b4"/>
   </g>
   <g id="patch_43">
    <path d="M 167.58398 307.584 
L 168.278304 307.584 
L 168.278304 293.964599 
L 167.58398 293.964599 
z
" clip-path="url(#p32510638b8)" style="fill: #1f77b4"/>
   </g>
   <g id="patch_44">
    <path d="M 167.593912 307.584 
L 168.288236 307.584 
L 168.288236 304.703119 
L 167.593912 304.703119 
z
" clip-path="url(#p32510638b8)" style="fill: #1f77b4"/>
   </g>
   <g id="patch_45">
    <path d="M 167.615631 307.584 
L 168.309955 307.584 
L 168.309955 304.955897 
L 167.615631 304.955897 
z
" clip-path="url(#p32510638b8)" style="fill: #1f77b4"/>
   </g>
   <g id="patch_46">
    <path d="M 169.332729 307.584 
L 170.027054 307.584 
L 170.027054 303.912037 
L 169.332729 303.912037 
z
" clip-path="url(#p32510638b8)" style="fill: #1f77b4"/>
   </g>
   <g id="patch_47">
    <path d="M 174.531488 307.584 
L 175.225812 307.584 
L 175.225812 298.691141 
L 174.531488 298.691141 
z
" clip-path="url(#p32510638b8)" style="fill: #1f77b4"/>
   </g>
   <g id="patch_48">
    <path d="M 174.550068 307.584 
L 175.244393 307.584 
L 175.244393 301.774281 
L 174.550068 301.774281 
z
" clip-path="url(#p32510638b8)" style="fill: #1f77b4"/>
   </g>
   <g id="patch_49">
    <path d="M 175.405869 307.584 
L 176.100194 307.584 
L 176.100194 304.932731 
L 175.405869 304.932731 
z
" clip-path="url(#p32510638b8)" style="fill: #1f77b4"/>
   </g>
   <g id="patch_50">
    <path d="M 176.249513 307.584 
L 176.943838 307.584 
L 176.943838 299.103136 
L 176.249513 299.103136 
z
" clip-path="url(#p32510638b8)" style="fill: #1f77b4"/>
   </g>
   <g id="patch_51">
    <path d="M 176.299268 307.584 
L 176.993592 307.584 
L 176.993592 304.149734 
L 176.299268 304.149734 
z
" clip-path="url(#p32510638b8)" style="fill: #1f77b4"/>
   </g>
   <g id="patch_52">
    <path d="M 177.999601 307.584 
L 178.693925 307.584 
L 178.693925 297.623624 
L 177.999601 297.623624 
z
" clip-path="url(#p32510638b8)" style="fill: #1f77b4"/>
   </g>
   <g id="patch_53">
    <path d="M 178.01785 307.584 
L 178.712174 307.584 
L 178.712174 305.022684 
L 178.01785 305.022684 
z
" clip-path="url(#p32510638b8)" style="fill: #1f77b4"/>
   </g>
   <g id="patch_54">
    <path d="M 178.030312 307.584 
L 178.724636 307.584 
L 178.724636 305.113286 
L 178.030312 305.113286 
z
" clip-path="url(#p32510638b8)" style="fill: #1f77b4"/>
   </g>
   <g id="patch_55">
    <path d="M 179.74794 307.584 
L 180.442264 307.584 
L 180.442264 303.162008 
L 179.74794 303.162008 
z
" clip-path="url(#p32510638b8)" style="fill: #1f77b4"/>
   </g>
   <g id="patch_56">
    <path d="M 179.768374 307.584 
L 180.462698 307.584 
L 180.462698 300.548925 
L 179.768374 300.548925 
z
" clip-path="url(#p32510638b8)" style="fill: #1f77b4"/>
   </g>
   <g id="patch_57">
    <path d="M 181.498623 307.584 
L 182.192947 307.584 
L 182.192947 305.445509 
L 181.498623 305.445509 
z
" clip-path="url(#p32510638b8)" style="fill: #1f77b4"/>
   </g>
   <g id="patch_58">
    <path d="M 185.841686 307.584 
L 186.536011 307.584 
L 186.536011 304.342006 
L 185.841686 304.342006 
z
" clip-path="url(#p32510638b8)" style="fill: #1f77b4"/>
   </g>
   <g id="patch_59">
    <path d="M 187.591442 307.584 
L 188.285767 307.584 
L 188.285767 291.843298 
L 187.591442 291.843298 
z
" clip-path="url(#p32510638b8)" style="fill: #1f77b4"/>
   </g>
   <g id="patch_60">
    <path d="M 189.28808 307.584 
L 189.982404 307.584 
L 189.982404 304.347227 
L 189.28808 304.347227 
z
" clip-path="url(#p32510638b8)" style="fill: #1f77b4"/>
   </g>
   <g id="patch_61">
    <path d="M 189.308726 307.584 
L 190.00305 307.584 
L 190.00305 304.636331 
L 189.308726 304.636331 
z
" clip-path="url(#p32510638b8)" style="fill: #1f77b4"/>
   </g>
   <g id="patch_62">
    <path d="M 190.16315 307.584 
L 190.857474 307.584 
L 190.857474 292.724039 
L 190.16315 292.724039 
z
" clip-path="url(#p32510638b8)" style="fill: #1f77b4"/>
   </g>
   <g id="patch_63">
    <path d="M 191.037227 307.584 
L 191.731551 307.584 
L 191.731551 298.347223 
L 191.037227 298.347223 
z
" clip-path="url(#p32510638b8)" style="fill: #1f77b4"/>
   </g>
   <g id="patch_64">
    <path d="M 191.88054 307.584 
L 192.574864 307.584 
L 192.574864 302.446982 
L 191.88054 302.446982 
z
" clip-path="url(#p32510638b8)" style="fill: #1f77b4"/>
   </g>
   <g id="patch_65">
    <path d="M 191.911529 307.584 
L 192.605853 307.584 
L 192.605853 302.694927 
L 191.911529 302.694927 
z
" clip-path="url(#p32510638b8)" style="fill: #1f77b4"/>
   </g>
   <g id="patch_66">
    <path d="M 193.630428 307.584 
L 194.324753 307.584 
L 194.324753 303.952291 
L 193.630428 303.952291 
z
" clip-path="url(#p32510638b8)" style="fill: #1f77b4"/>
   </g>
   <g id="patch_67">
    <path d="M 195.379363 307.584 
L 196.073688 307.584 
L 196.073688 295.76601 
L 195.379363 295.76601 
z
" clip-path="url(#p32510638b8)" style="fill: #1f77b4"/>
   </g>
   <g id="patch_68">
    <path d="M 196.251785 307.584 
L 196.946109 307.584 
L 196.946109 305.344352 
L 196.251785 305.344352 
z
" clip-path="url(#p32510638b8)" style="fill: #1f77b4"/>
   </g>
   <g id="patch_69">
    <path d="M 198.830723 307.584 
L 199.525048 307.584 
L 199.525048 293.266965 
L 198.830723 293.266965 
z
" clip-path="url(#p32510638b8)" style="fill: #1f77b4"/>
   </g>
   <g id="patch_70">
    <path d="M 198.844496 307.584 
L 199.538821 307.584 
L 199.538821 293.627283 
L 198.844496 293.627283 
z
" clip-path="url(#p32510638b8)" style="fill: #1f77b4"/>
   </g>
   <g id="patch_71">
    <path d="M 199.70141 307.584 
L 200.395734 307.584 
L 200.395734 304.376448 
L 199.70141 304.376448 
z
" clip-path="url(#p32510638b8)" style="fill: #1f77b4"/>
   </g>
   <g id="patch_72">
    <path d="M 199.721659 307.584 
L 200.415983 307.584 
L 200.415983 305.535719 
L 199.721659 305.535719 
z
" clip-path="url(#p32510638b8)" style="fill: #1f77b4"/>
   </g>
   <g id="patch_73">
    <path d="M 200.546842 307.584 
L 201.241166 307.584 
L 201.241166 296.657549 
L 200.546842 296.657549 
z
" clip-path="url(#p32510638b8)" style="fill: #1f77b4"/>
   </g>
   <g id="patch_74">
    <path d="M 201.473282 307.584 
L 202.167606 307.584 
L 202.167606 298.144675 
L 201.473282 298.144675 
z
" clip-path="url(#p32510638b8)" style="fill: #1f77b4"/>
   </g>
   <g id="patch_75">
    <path d="M 202.329096 307.584 
L 203.023421 307.584 
L 203.023421 295.874025 
L 202.329096 295.874025 
z
" clip-path="url(#p32510638b8)" style="fill: #1f77b4"/>
   </g>
   <g id="patch_76">
    <path d="M 204.045175 307.584 
L 204.7395 307.584 
L 204.7395 252.125348 
L 204.045175 252.125348 
z
" clip-path="url(#p32510638b8)" style="fill: #1f77b4"/>
   </g>
   <g id="patch_77">
    <path d="M 204.058842 307.584 
L 204.753166 307.584 
L 204.753166 306.266317 
L 204.058842 306.266317 
z
" clip-path="url(#p32510638b8)" style="fill: #1f77b4"/>
   </g>
   <g id="patch_78">
    <path d="M 204.061557 307.584 
L 204.755881 307.584 
L 204.755881 305.32585 
L 204.061557 305.32585 
z
" clip-path="url(#p32510638b8)" style="fill: #1f77b4"/>
   </g>
   <g id="patch_79">
    <path d="M 204.916007 307.584 
L 205.610332 307.584 
L 205.610332 302.897889 
L 204.916007 302.897889 
z
" clip-path="url(#p32510638b8)" style="fill: #1f77b4"/>
   </g>
   <g id="patch_80">
    <path d="M 205.794547 307.584 
L 206.488872 307.584 
L 206.488872 304.000953 
L 205.794547 304.000953 
z
" clip-path="url(#p32510638b8)" style="fill: #1f77b4"/>
   </g>
   <g id="patch_81">
    <path d="M 210.138127 307.584 
L 210.832451 307.584 
L 210.832451 301.252576 
L 210.138127 301.252576 
z
" clip-path="url(#p32510638b8)" style="fill: #1f77b4"/>
   </g>
   <g id="patch_82">
    <path d="M 211.013051 307.584 
L 211.707376 307.584 
L 211.707376 300.622513 
L 211.013051 300.622513 
z
" clip-path="url(#p32510638b8)" style="fill: #1f77b4"/>
   </g>
   <g id="patch_83">
    <path d="M 211.869687 307.584 
L 212.564011 307.584 
L 212.564011 303.334636 
L 211.869687 303.334636 
z
" clip-path="url(#p32510638b8)" style="fill: #1f77b4"/>
   </g>
   <g id="patch_84">
    <path d="M 211.888148 307.584 
L 212.582472 307.584 
L 212.582472 192.019816 
L 211.888148 192.019816 
z
" clip-path="url(#p32510638b8)" style="fill: #1f77b4"/>
   </g>
   <g id="patch_85">
    <path d="M 211.902742 307.584 
L 212.597066 307.584 
L 212.597066 306.076684 
L 211.902742 306.076684 
z
" clip-path="url(#p32510638b8)" style="fill: #1f77b4"/>
   </g>
   <g id="patch_86">
    <path d="M 212.762172 307.584 
L 213.456496 307.584 
L 213.456496 264.544957 
L 212.762172 264.544957 
z
" clip-path="url(#p32510638b8)" style="fill: #1f77b4"/>
   </g>
   <g id="patch_87">
    <path d="M 213.633521 307.584 
L 214.327845 307.584 
L 214.327845 304.686305 
L 213.633521 304.686305 
z
" clip-path="url(#p32510638b8)" style="fill: #1f77b4"/>
   </g>
   <g id="patch_88">
    <path d="M 214.459803 307.584 
L 215.154127 307.584 
L 215.154127 300.343355 
L 214.459803 300.343355 
z
" clip-path="url(#p32510638b8)" style="fill: #1f77b4"/>
   </g>
   <g id="patch_89">
    <path d="M 214.478396 307.584 
L 215.172721 307.584 
L 215.172721 299.984149 
L 214.478396 299.984149 
z
" clip-path="url(#p32510638b8)" style="fill: #1f77b4"/>
   </g>
   <g id="patch_90">
    <path d="M 215.354897 307.584 
L 216.049221 307.584 
L 216.049221 304.680857 
L 215.354897 304.680857 
z
" clip-path="url(#p32510638b8)" style="fill: #1f77b4"/>
   </g>
   <g id="patch_91">
    <path d="M 216.178 307.584 
L 216.872325 307.584 
L 216.872325 300.976222 
L 216.178 300.976222 
z
" clip-path="url(#p32510638b8)" style="fill: #1f77b4"/>
   </g>
   <g id="patch_92">
    <path d="M 216.209294 307.584 
L 216.903618 307.584 
L 216.903618 302.811529 
L 216.209294 302.811529 
z
" clip-path="url(#p32510638b8)" style="fill: #1f77b4"/>
   </g>
   <g id="patch_93">
    <path d="M 217.926803 307.584 
L 218.621127 307.584 
L 218.621127 305.259145 
L 217.926803 305.259145 
z
" clip-path="url(#p32510638b8)" style="fill: #1f77b4"/>
   </g>
   <g id="patch_94">
    <path d="M 219.676413 307.584 
L 220.370738 307.584 
L 220.370738 305.056025 
L 219.676413 305.056025 
z
" clip-path="url(#p32510638b8)" style="fill: #1f77b4"/>
   </g>
   <g id="patch_95">
    <path d="M 224.018205 307.584 
L 224.71253 307.584 
L 224.71253 293.413617 
L 224.018205 293.413617 
z
" clip-path="url(#p32510638b8)" style="fill: #1f77b4"/>
   </g>
   <g id="patch_96">
    <path d="M 224.906876 307.584 
L 225.601201 307.584 
L 225.601201 292.048314 
L 224.906876 292.048314 
z
" clip-path="url(#p32510638b8)" style="fill: #1f77b4"/>
   </g>
   <g id="patch_97">
    <path d="M 225.769855 307.584 
L 226.46418 307.584 
L 226.46418 291.487704 
L 225.769855 291.487704 
z
" clip-path="url(#p32510638b8)" style="fill: #1f77b4"/>
   </g>
   <g id="patch_98">
    <path d="M 226.624094 307.584 
L 227.318418 307.584 
L 227.318418 235.34412 
L 226.624094 235.34412 
z
" clip-path="url(#p32510638b8)" style="fill: #1f77b4"/>
   </g>
   <g id="patch_99">
    <path d="M 226.644661 307.584 
L 227.338985 307.584 
L 227.338985 114.009108 
L 226.644661 114.009108 
z
" clip-path="url(#p32510638b8)" style="fill: #1f77b4"/>
   </g>
   <g id="patch_100">
    <path d="M 226.659797 307.584 
L 227.354122 307.584 
L 227.354122 304.435455 
L 226.659797 304.435455 
z
" clip-path="url(#p32510638b8)" style="fill: #1f77b4"/>
   </g>
   <g id="patch_101">
    <path d="M 226.665519 307.584 
L 227.359843 307.584 
L 227.359843 304.270384 
L 226.665519 304.270384 
z
" clip-path="url(#p32510638b8)" style="fill: #1f77b4"/>
   </g>
   <g id="patch_102">
    <path d="M 227.497442 307.584 
L 228.191767 307.584 
L 228.191767 292.145257 
L 227.497442 292.145257 
z
" clip-path="url(#p32510638b8)" style="fill: #1f77b4"/>
   </g>
   <g id="patch_103">
    <path d="M 227.516393 307.584 
L 228.210718 307.584 
L 228.210718 291.424094 
L 227.516393 291.424094 
z
" clip-path="url(#p32510638b8)" style="fill: #1f77b4"/>
   </g>
   <g id="patch_104">
    <path d="M 228.342185 307.584 
L 229.03651 307.584 
L 229.03651 236.109687 
L 228.342185 236.109687 
z
" clip-path="url(#p32510638b8)" style="fill: #1f77b4"/>
   </g>
   <g id="patch_105">
    <path d="M 229.21319 307.584 
L 229.907514 307.584 
L 229.907514 301.524445 
L 229.21319 301.524445 
z
" clip-path="url(#p32510638b8)" style="fill: #1f77b4"/>
   </g>
   <g id="patch_106">
    <path d="M 230.111674 307.584 
L 230.805998 307.584 
L 230.805998 297.605206 
L 230.111674 297.605206 
z
" clip-path="url(#p32510638b8)" style="fill: #1f77b4"/>
   </g>
   <g id="patch_107">
    <path d="M 237.007666 307.584 
L 237.701991 307.584 
L 237.701991 286.771867 
L 237.007666 286.771867 
z
" clip-path="url(#p32510638b8)" style="fill: #1f77b4"/>
   </g>
   <g id="patch_108">
    <path d="M 237.027531 307.584 
L 237.721855 307.584 
L 237.721855 303.437006 
L 237.027531 303.437006 
z
" clip-path="url(#p32510638b8)" style="fill: #1f77b4"/>
   </g>
   <g id="patch_109">
    <path d="M 237.934014 307.584 
L 238.628338 307.584 
L 238.628338 302.303828 
L 237.934014 302.303828 
z
" clip-path="url(#p32510638b8)" style="fill: #1f77b4"/>
   </g>
   <g id="patch_110">
    <path d="M 238.78906 307.584 
L 239.483385 307.584 
L 239.483385 302.456293 
L 238.78906 302.456293 
z
" clip-path="url(#p32510638b8)" style="fill: #1f77b4"/>
   </g>
   <g id="patch_111">
    <path d="M 238.808713 307.584 
L 239.503038 307.584 
L 239.503038 302.40079 
L 238.808713 302.40079 
z
" clip-path="url(#p32510638b8)" style="fill: #1f77b4"/>
   </g>
   <g id="patch_112">
    <path d="M 239.652198 307.584 
L 240.346523 307.584 
L 240.346523 304.607061 
L 239.652198 304.607061 
z
" clip-path="url(#p32510638b8)" style="fill: #1f77b4"/>
   </g>
   <g id="patch_113">
    <path d="M 240.506265 307.584 
L 241.200589 307.584 
L 241.200589 301.91784 
L 240.506265 301.91784 
z
" clip-path="url(#p32510638b8)" style="fill: #1f77b4"/>
   </g>
   <g id="patch_114">
    <path d="M 242.25606 307.584 
L 242.950385 307.584 
L 242.950385 284.337999 
L 242.25606 284.337999 
z
" clip-path="url(#p32510638b8)" style="fill: #1f77b4"/>
   </g>
   <g id="patch_115">
    <path d="M 244.869021 307.584 
L 245.563345 307.584 
L 245.563345 298.829486 
L 244.869021 298.829486 
z
" clip-path="url(#p32510638b8)" style="fill: #1f77b4"/>
   </g>
   <g id="patch_116">
    <path d="M 250.952279 307.584 
L 251.646603 307.584 
L 251.646603 302.488939 
L 250.952279 302.488939 
z
" clip-path="url(#p32510638b8)" style="fill: #1f77b4"/>
   </g>
   <g id="patch_117">
    <path d="M 251.815893 307.584 
L 252.510218 307.584 
L 252.510218 304.322992 
L 251.815893 304.322992 
z
" clip-path="url(#p32510638b8)" style="fill: #1f77b4"/>
   </g>
   <g id="patch_118">
    <path d="M 252.660067 307.584 
L 253.354392 307.584 
L 253.354392 304.882231 
L 252.660067 304.882231 
z
" clip-path="url(#p32510638b8)" style="fill: #1f77b4"/>
   </g>
   <g id="patch_119">
    <path d="M 253.565636 307.584 
L 254.259961 307.584 
L 254.259961 302.675198 
L 253.565636 302.675198 
z
" clip-path="url(#p32510638b8)" style="fill: #1f77b4"/>
   </g>
   <g id="patch_120">
    <path d="M 263.10624 307.584 
L 263.800564 307.584 
L 263.800564 302.275989 
L 263.10624 302.275989 
z
" clip-path="url(#p32510638b8)" style="fill: #1f77b4"/>
   </g>
   <g id="patch_121">
    <path d="M 263.950361 307.584 
L 264.644685 307.584 
L 264.644685 305.069113 
L 263.950361 305.069113 
z
" clip-path="url(#p32510638b8)" style="fill: #1f77b4"/>
   </g>
   <g id="patch_122">
    <path d="M 264.803037 307.584 
L 265.497361 307.584 
L 265.497361 54.144 
L 264.803037 54.144 
z
" clip-path="url(#p32510638b8)" style="fill: #1f77b4"/>
   </g>
   <g id="patch_123">
    <path d="M 264.823484 307.584 
L 265.517809 307.584 
L 265.517809 292.815339 
L 264.823484 292.815339 
z
" clip-path="url(#p32510638b8)" style="fill: #1f77b4"/>
   </g>
   <g id="patch_124">
    <path d="M 265.674068 307.584 
L 266.368392 307.584 
L 266.368392 286.745823 
L 265.674068 286.745823 
z
" clip-path="url(#p32510638b8)" style="fill: #1f77b4"/>
   </g>
   <g id="patch_125">
    <path d="M 276.11391 307.584 
L 276.808235 307.584 
L 276.808235 295.365164 
L 276.11391 295.365164 
z
" clip-path="url(#p32510638b8)" style="fill: #1f77b4"/>
   </g>
   <g id="patch_126">
    <path d="M 276.986583 307.584 
L 277.680908 307.584 
L 277.680908 300.412925 
L 276.986583 300.412925 
z
" clip-path="url(#p32510638b8)" style="fill: #1f77b4"/>
   </g>
   <g id="patch_127">
    <path d="M 277.86307 307.584 
L 278.557395 307.584 
L 278.557395 277.884802 
L 277.86307 277.884802 
z
" clip-path="url(#p32510638b8)" style="fill: #1f77b4"/>
   </g>
   <g id="patch_128">
    <path d="M 278.716488 307.584 
L 279.410812 307.584 
L 279.410812 254.897015 
L 278.716488 254.897015 
z
" clip-path="url(#p32510638b8)" style="fill: #1f77b4"/>
   </g>
   <g id="patch_129">
    <path d="M 279.587413 307.584 
L 280.281737 307.584 
L 280.281737 302.290211 
L 279.587413 302.290211 
z
" clip-path="url(#p32510638b8)" style="fill: #1f77b4"/>
   </g>
   <g id="patch_130">
    <path d="M 280.432434 307.584 
L 281.126758 307.584 
L 281.126758 304.724648 
L 280.432434 304.724648 
z
" clip-path="url(#p32510638b8)" style="fill: #1f77b4"/>
   </g>
   <g id="patch_131">
    <path d="M 289.152464 307.584 
L 289.846788 307.584 
L 289.846788 304.658713 
L 289.152464 304.658713 
z
" clip-path="url(#p32510638b8)" style="fill: #1f77b4"/>
   </g>
   <g id="patch_132">
    <path d="M 291.745162 307.584 
L 292.439486 307.584 
L 292.439486 295.385782 
L 291.745162 295.385782 
z
" clip-path="url(#p32510638b8)" style="fill: #1f77b4"/>
   </g>
   <g id="patch_133">
    <path d="M 292.567749 307.584 
L 293.262073 307.584 
L 293.262073 303.814087 
L 292.567749 303.814087 
z
" clip-path="url(#p32510638b8)" style="fill: #1f77b4"/>
   </g>
   <g id="patch_134">
    <path d="M 292.598685 307.584 
L 293.29301 307.584 
L 293.29301 215.139111 
L 292.598685 215.139111 
z
" clip-path="url(#p32510638b8)" style="fill: #1f77b4"/>
   </g>
   <g id="patch_135">
    <path d="M 293.468365 307.584 
L 294.16269 307.584 
L 294.16269 295.750887 
L 293.468365 295.750887 
z
" clip-path="url(#p32510638b8)" style="fill: #1f77b4"/>
   </g>
   <g id="patch_136">
    <path d="M 293.495726 307.584 
L 294.19005 307.584 
L 294.19005 304.932789 
L 293.495726 304.932789 
z
" clip-path="url(#p32510638b8)" style="fill: #1f77b4"/>
   </g>
   <g id="patch_137">
    <path d="M 303.908579 307.584 
L 304.602903 307.584 
L 304.602903 299.679776 
L 303.908579 299.679776 
z
" clip-path="url(#p32510638b8)" style="fill: #1f77b4"/>
   </g>
   <g id="patch_138">
    <path d="M 316.041854 307.584 
L 316.736179 307.584 
L 316.736179 253.17895 
L 316.041854 253.17895 
z
" clip-path="url(#p32510638b8)" style="fill: #1f77b4"/>
   </g>
   <g id="patch_139">
    <path d="M 316.894133 307.584 
L 317.588457 307.584 
L 317.588457 276.688743 
L 316.894133 276.688743 
z
" clip-path="url(#p32510638b8)" style="fill: #1f77b4"/>
   </g>
   <g id="patch_140">
    <path d="M 328.202967 307.584 
L 328.897291 307.584 
L 328.897291 304.349487 
L 328.202967 304.349487 
z
" clip-path="url(#p32510638b8)" style="fill: #1f77b4"/>
   </g>
   <g id="patch_141">
    <path d="M 343.837158 307.584 
L 344.531483 307.584 
L 344.531483 278.170497 
L 343.837158 278.170497 
z
" clip-path="url(#p32510638b8)" style="fill: #1f77b4"/>
   </g>
   <g id="patch_142">
    <path d="M 344.693675 307.584 
L 345.387999 307.584 
L 345.387999 303.925934 
L 344.693675 303.925934 
z
" clip-path="url(#p32510638b8)" style="fill: #1f77b4"/>
   </g>
   <g id="patch_143">
    <path d="M 359.468754 307.584 
L 360.163079 307.584 
L 360.163079 291.776101 
L 359.468754 291.776101 
z
" clip-path="url(#p32510638b8)" style="fill: #1f77b4"/>
   </g>
   <g id="patch_144">
    <path d="M 397.792948 307.584 
L 398.487273 307.584 
L 398.487273 303.484811 
L 397.792948 303.484811 
z
" clip-path="url(#p32510638b8)" style="fill: #1f77b4"/>
   </g>
   <g id="matplotlib.axis_1">
    <g id="xtick_1">
     <g id="line2d_1">
      <defs>
       <path id="m9ed12eabb5" d="M 0 0 
L 0 3.5 
" style="stroke: #000000; stroke-width: 0.8"/>
      </defs>
      <g>
       <use xlink:href="#m9ed12eabb5" x="72.427634" y="307.584" style="stroke: #000000; stroke-width: 0.8"/>
      </g>
     </g>
     <g id="text_1">
      <!-- 50 -->
      <g transform="translate(66.065134 322.182437) scale(0.1 -0.1)">
       <defs>
        <path id="DejaVuSans-35" d="M 691 4666 
L 3169 4666 
L 3169 4134 
L 1269 4134 
L 1269 2991 
Q 1406 3038 1543 3061 
Q 1681 3084 1819 3084 
Q 2600 3084 3056 2656 
Q 3513 2228 3513 1497 
Q 3513 744 3044 326 
Q 2575 -91 1722 -91 
Q 1428 -91 1123 -41 
Q 819 9 494 109 
L 494 744 
Q 775 591 1075 516 
Q 1375 441 1709 441 
Q 2250 441 2565 725 
Q 2881 1009 2881 1497 
Q 2881 1984 2565 2268 
Q 2250 2553 1709 2553 
Q 1456 2553 1204 2497 
Q 953 2441 691 2322 
L 691 4666 
z
" transform="scale(0.015625)"/>
        <path id="DejaVuSans-30" d="M 2034 4250 
Q 1547 4250 1301 3770 
Q 1056 3291 1056 2328 
Q 1056 1369 1301 889 
Q 1547 409 2034 409 
Q 2525 409 2770 889 
Q 3016 1369 3016 2328 
Q 3016 3291 2770 3770 
Q 2525 4250 2034 4250 
z
M 2034 4750 
Q 2819 4750 3233 4129 
Q 3647 3509 3647 2328 
Q 3647 1150 3233 529 
Q 2819 -91 2034 -91 
Q 1250 -91 836 529 
Q 422 1150 422 2328 
Q 422 3509 836 4129 
Q 1250 4750 2034 4750 
z
" transform="scale(0.015625)"/>
       </defs>
       <use xlink:href="#DejaVuSans-35"/>
       <use xlink:href="#DejaVuSans-30" x="63.623047"/>
      </g>
     </g>
    </g>
    <g id="xtick_2">
     <g id="line2d_2">
      <g>
       <use xlink:href="#m9ed12eabb5" x="115.822909" y="307.584" style="stroke: #000000; stroke-width: 0.8"/>
      </g>
     </g>
     <g id="text_2">
      <!-- 100 -->
      <g transform="translate(106.279159 322.182437) scale(0.1 -0.1)">
       <defs>
        <path id="DejaVuSans-31" d="M 794 531 
L 1825 531 
L 1825 4091 
L 703 3866 
L 703 4441 
L 1819 4666 
L 2450 4666 
L 2450 531 
L 3481 531 
L 3481 0 
L 794 0 
L 794 531 
z
" transform="scale(0.015625)"/>
       </defs>
       <use xlink:href="#DejaVuSans-31"/>
       <use xlink:href="#DejaVuSans-30" x="63.623047"/>
       <use xlink:href="#DejaVuSans-30" x="127.246094"/>
      </g>
     </g>
    </g>
    <g id="xtick_3">
     <g id="line2d_3">
      <g>
       <use xlink:href="#m9ed12eabb5" x="159.218184" y="307.584" style="stroke: #000000; stroke-width: 0.8"/>
      </g>
     </g>
     <g id="text_3">
      <!-- 150 -->
      <g transform="translate(149.674434 322.182437) scale(0.1 -0.1)">
       <use xlink:href="#DejaVuSans-31"/>
       <use xlink:href="#DejaVuSans-35" x="63.623047"/>
       <use xlink:href="#DejaVuSans-30" x="127.246094"/>
      </g>
     </g>
    </g>
    <g id="xtick_4">
     <g id="line2d_4">
      <g>
       <use xlink:href="#m9ed12eabb5" x="202.613459" y="307.584" style="stroke: #000000; stroke-width: 0.8"/>
      </g>
     </g>
     <g id="text_4">
      <!-- 200 -->
      <g transform="translate(193.069709 322.182437) scale(0.1 -0.1)">
       <defs>
        <path id="DejaVuSans-32" d="M 1228 531 
L 3431 531 
L 3431 0 
L 469 0 
L 469 531 
Q 828 903 1448 1529 
Q 2069 2156 2228 2338 
Q 2531 2678 2651 2914 
Q 2772 3150 2772 3378 
Q 2772 3750 2511 3984 
Q 2250 4219 1831 4219 
Q 1534 4219 1204 4116 
Q 875 4013 500 3803 
L 500 4441 
Q 881 4594 1212 4672 
Q 1544 4750 1819 4750 
Q 2544 4750 2975 4387 
Q 3406 4025 3406 3419 
Q 3406 3131 3298 2873 
Q 3191 2616 2906 2266 
Q 2828 2175 2409 1742 
Q 1991 1309 1228 531 
z
" transform="scale(0.015625)"/>
       </defs>
       <use xlink:href="#DejaVuSans-32"/>
       <use xlink:href="#DejaVuSans-30" x="63.623047"/>
       <use xlink:href="#DejaVuSans-30" x="127.246094"/>
      </g>
     </g>
    </g>
    <g id="xtick_5">
     <g id="line2d_5">
      <g>
       <use xlink:href="#m9ed12eabb5" x="246.008735" y="307.584" style="stroke: #000000; stroke-width: 0.8"/>
      </g>
     </g>
     <g id="text_5">
      <!-- 250 -->
      <g transform="translate(236.464985 322.182437) scale(0.1 -0.1)">
       <use xlink:href="#DejaVuSans-32"/>
       <use xlink:href="#DejaVuSans-35" x="63.623047"/>
       <use xlink:href="#DejaVuSans-30" x="127.246094"/>
      </g>
     </g>
    </g>
    <g id="xtick_6">
     <g id="line2d_6">
      <g>
       <use xlink:href="#m9ed12eabb5" x="289.40401" y="307.584" style="stroke: #000000; stroke-width: 0.8"/>
      </g>
     </g>
     <g id="text_6">
      <!-- 300 -->
      <g transform="translate(279.86026 322.182437) scale(0.1 -0.1)">
       <defs>
        <path id="DejaVuSans-33" d="M 2597 2516 
Q 3050 2419 3304 2112 
Q 3559 1806 3559 1356 
Q 3559 666 3084 287 
Q 2609 -91 1734 -91 
Q 1441 -91 1130 -33 
Q 819 25 488 141 
L 488 750 
Q 750 597 1062 519 
Q 1375 441 1716 441 
Q 2309 441 2620 675 
Q 2931 909 2931 1356 
Q 2931 1769 2642 2001 
Q 2353 2234 1838 2234 
L 1294 2234 
L 1294 2753 
L 1863 2753 
Q 2328 2753 2575 2939 
Q 2822 3125 2822 3475 
Q 2822 3834 2567 4026 
Q 2313 4219 1838 4219 
Q 1578 4219 1281 4162 
Q 984 4106 628 3988 
L 628 4550 
Q 988 4650 1302 4700 
Q 1616 4750 1894 4750 
Q 2613 4750 3031 4423 
Q 3450 4097 3450 3541 
Q 3450 3153 3228 2886 
Q 3006 2619 2597 2516 
z
" transform="scale(0.015625)"/>
       </defs>
       <use xlink:href="#DejaVuSans-33"/>
       <use xlink:href="#DejaVuSans-30" x="63.623047"/>
       <use xlink:href="#DejaVuSans-30" x="127.246094"/>
      </g>
     </g>
    </g>
    <g id="xtick_7">
     <g id="line2d_7">
      <g>
       <use xlink:href="#m9ed12eabb5" x="332.799285" y="307.584" style="stroke: #000000; stroke-width: 0.8"/>
      </g>
     </g>
     <g id="text_7">
      <!-- 350 -->
      <g transform="translate(323.255535 322.182437) scale(0.1 -0.1)">
       <use xlink:href="#DejaVuSans-33"/>
       <use xlink:href="#DejaVuSans-35" x="63.623047"/>
       <use xlink:href="#DejaVuSans-30" x="127.246094"/>
      </g>
     </g>
    </g>
    <g id="xtick_8">
     <g id="line2d_8">
      <g>
       <use xlink:href="#m9ed12eabb5" x="376.19456" y="307.584" style="stroke: #000000; stroke-width: 0.8"/>
      </g>
     </g>
     <g id="text_8">
      <!-- 400 -->
      <g transform="translate(366.65081 322.182437) scale(0.1 -0.1)">
       <defs>
        <path id="DejaVuSans-34" d="M 2419 4116 
L 825 1625 
L 2419 1625 
L 2419 4116 
z
M 2253 4666 
L 3047 4666 
L 3047 1625 
L 3713 1625 
L 3713 1100 
L 3047 1100 
L 3047 0 
L 2419 0 
L 2419 1100 
L 313 1100 
L 313 1709 
L 2253 4666 
z
" transform="scale(0.015625)"/>
       </defs>
       <use xlink:href="#DejaVuSans-34"/>
       <use xlink:href="#DejaVuSans-30" x="63.623047"/>
       <use xlink:href="#DejaVuSans-30" x="127.246094"/>
      </g>
     </g>
    </g>
    <g id="text_9">
     <!-- ${m/z}$ -->
     <g transform="translate(226.96 335.860562) scale(0.1 -0.1)">
      <defs>
       <path id="DejaVuSans-Oblique-6d" d="M 5747 2113 
L 5338 0 
L 4763 0 
L 5166 2094 
Q 5191 2228 5203 2325 
Q 5216 2422 5216 2491 
Q 5216 2772 5059 2928 
Q 4903 3084 4622 3084 
Q 4203 3084 3875 2770 
Q 3547 2456 3450 1953 
L 3066 0 
L 2491 0 
L 2900 2094 
Q 2925 2209 2937 2307 
Q 2950 2406 2950 2484 
Q 2950 2769 2794 2926 
Q 2638 3084 2363 3084 
Q 1938 3084 1609 2770 
Q 1281 2456 1184 1953 
L 800 0 
L 225 0 
L 909 3500 
L 1484 3500 
L 1375 2956 
Q 1609 3263 1923 3423 
Q 2238 3584 2597 3584 
Q 2978 3584 3223 3384 
Q 3469 3184 3519 2828 
Q 3781 3197 4126 3390 
Q 4472 3584 4856 3584 
Q 5306 3584 5551 3325 
Q 5797 3066 5797 2591 
Q 5797 2488 5784 2364 
Q 5772 2241 5747 2113 
z
" transform="scale(0.015625)"/>
       <path id="DejaVuSans-2f" d="M 1625 4666 
L 2156 4666 
L 531 -594 
L 0 -594 
L 1625 4666 
z
" transform="scale(0.015625)"/>
       <path id="DejaVuSans-Oblique-7a" d="M 744 3500 
L 3475 3500 
L 3372 2975 
L 738 459 
L 2913 459 
L 2822 0 
L -19 0 
L 84 525 
L 2719 3041 
L 653 3041 
L 744 3500 
z
" transform="scale(0.015625)"/>
      </defs>
      <use xlink:href="#DejaVuSans-Oblique-6d" transform="translate(0 0.09375)"/>
      <use xlink:href="#DejaVuSans-2f" transform="translate(97.412109 0.09375)"/>
      <use xlink:href="#DejaVuSans-Oblique-7a" transform="translate(131.103516 0.09375)"/>
     </g>
    </g>
   </g>
   <g id="matplotlib.axis_2">
    <g id="ytick_1">
     <g id="line2d_9">
      <defs>
       <path id="m7418658a6e" d="M 0 0 
L -3.5 0 
" style="stroke: #000000; stroke-width: 0.8"/>
      </defs>
      <g>
       <use xlink:href="#m7418658a6e" x="57.6" y="307.584" style="stroke: #000000; stroke-width: 0.8"/>
      </g>
     </g>
     <g id="text_10">
      <!-- 0 -->
      <g transform="translate(44.2375 311.383219) scale(0.1 -0.1)">
       <use xlink:href="#DejaVuSans-30"/>
      </g>
     </g>
    </g>
    <g id="ytick_2">
     <g id="line2d_10">
      <g>
       <use xlink:href="#m7418658a6e" x="57.6" y="256.645945" style="stroke: #000000; stroke-width: 0.8"/>
      </g>
     </g>
     <g id="text_11">
      <!-- 100000 -->
      <g transform="translate(12.425 260.445164) scale(0.1 -0.1)">
       <use xlink:href="#DejaVuSans-31"/>
       <use xlink:href="#DejaVuSans-30" x="63.623047"/>
       <use xlink:href="#DejaVuSans-30" x="127.246094"/>
       <use xlink:href="#DejaVuSans-30" x="190.869141"/>
       <use xlink:href="#DejaVuSans-30" x="254.492188"/>
       <use xlink:href="#DejaVuSans-30" x="318.115234"/>
      </g>
     </g>
    </g>
    <g id="ytick_3">
     <g id="line2d_11">
      <g>
       <use xlink:href="#m7418658a6e" x="57.6" y="205.70789" style="stroke: #000000; stroke-width: 0.8"/>
      </g>
     </g>
     <g id="text_12">
      <!-- 200000 -->
      <g transform="translate(12.425 209.507109) scale(0.1 -0.1)">
       <use xlink:href="#DejaVuSans-32"/>
       <use xlink:href="#DejaVuSans-30" x="63.623047"/>
       <use xlink:href="#DejaVuSans-30" x="127.246094"/>
       <use xlink:href="#DejaVuSans-30" x="190.869141"/>
       <use xlink:href="#DejaVuSans-30" x="254.492188"/>
       <use xlink:href="#DejaVuSans-30" x="318.115234"/>
      </g>
     </g>
    </g>
    <g id="ytick_4">
     <g id="line2d_12">
      <g>
       <use xlink:href="#m7418658a6e" x="57.6" y="154.769835" style="stroke: #000000; stroke-width: 0.8"/>
      </g>
     </g>
     <g id="text_13">
      <!-- 300000 -->
      <g transform="translate(12.425 158.569054) scale(0.1 -0.1)">
       <use xlink:href="#DejaVuSans-33"/>
       <use xlink:href="#DejaVuSans-30" x="63.623047"/>
       <use xlink:href="#DejaVuSans-30" x="127.246094"/>
       <use xlink:href="#DejaVuSans-30" x="190.869141"/>
       <use xlink:href="#DejaVuSans-30" x="254.492188"/>
       <use xlink:href="#DejaVuSans-30" x="318.115234"/>
      </g>
     </g>
    </g>
    <g id="ytick_5">
     <g id="line2d_13">
      <g>
       <use xlink:href="#m7418658a6e" x="57.6" y="103.83178" style="stroke: #000000; stroke-width: 0.8"/>
      </g>
     </g>
     <g id="text_14">
      <!-- 400000 -->
      <g transform="translate(12.425 107.630999) scale(0.1 -0.1)">
       <use xlink:href="#DejaVuSans-34"/>
       <use xlink:href="#DejaVuSans-30" x="63.623047"/>
       <use xlink:href="#DejaVuSans-30" x="127.246094"/>
       <use xlink:href="#DejaVuSans-30" x="190.869141"/>
       <use xlink:href="#DejaVuSans-30" x="254.492188"/>
       <use xlink:href="#DejaVuSans-30" x="318.115234"/>
      </g>
     </g>
    </g>
    <g id="ytick_6">
     <g id="line2d_14">
      <g>
       <use xlink:href="#m7418658a6e" x="57.6" y="52.893725" style="stroke: #000000; stroke-width: 0.8"/>
      </g>
     </g>
     <g id="text_15">
      <!-- 500000 -->
      <g transform="translate(12.425 56.692944) scale(0.1 -0.1)">
       <use xlink:href="#DejaVuSans-35"/>
       <use xlink:href="#DejaVuSans-30" x="63.623047"/>
       <use xlink:href="#DejaVuSans-30" x="127.246094"/>
       <use xlink:href="#DejaVuSans-30" x="190.869141"/>
       <use xlink:href="#DejaVuSans-30" x="254.492188"/>
       <use xlink:href="#DejaVuSans-30" x="318.115234"/>
      </g>
     </g>
    </g>
    <g id="text_16">
     <!-- intensities -->
     <g transform="translate(6.345312 200.3155) rotate(-90) scale(0.1 -0.1)">
      <defs>
       <path id="DejaVuSans-69" d="M 603 3500 
L 1178 3500 
L 1178 0 
L 603 0 
L 603 3500 
z
M 603 4863 
L 1178 4863 
L 1178 4134 
L 603 4134 
L 603 4863 
z
" transform="scale(0.015625)"/>
       <path id="DejaVuSans-6e" d="M 3513 2113 
L 3513 0 
L 2938 0 
L 2938 2094 
Q 2938 2591 2744 2837 
Q 2550 3084 2163 3084 
Q 1697 3084 1428 2787 
Q 1159 2491 1159 1978 
L 1159 0 
L 581 0 
L 581 3500 
L 1159 3500 
L 1159 2956 
Q 1366 3272 1645 3428 
Q 1925 3584 2291 3584 
Q 2894 3584 3203 3211 
Q 3513 2838 3513 2113 
z
" transform="scale(0.015625)"/>
       <path id="DejaVuSans-74" d="M 1172 4494 
L 1172 3500 
L 2356 3500 
L 2356 3053 
L 1172 3053 
L 1172 1153 
Q 1172 725 1289 603 
Q 1406 481 1766 481 
L 2356 481 
L 2356 0 
L 1766 0 
Q 1100 0 847 248 
Q 594 497 594 1153 
L 594 3053 
L 172 3053 
L 172 3500 
L 594 3500 
L 594 4494 
L 1172 4494 
z
" transform="scale(0.015625)"/>
       <path id="DejaVuSans-65" d="M 3597 1894 
L 3597 1613 
L 953 1613 
Q 991 1019 1311 708 
Q 1631 397 2203 397 
Q 2534 397 2845 478 
Q 3156 559 3463 722 
L 3463 178 
Q 3153 47 2828 -22 
Q 2503 -91 2169 -91 
Q 1331 -91 842 396 
Q 353 884 353 1716 
Q 353 2575 817 3079 
Q 1281 3584 2069 3584 
Q 2775 3584 3186 3129 
Q 3597 2675 3597 1894 
z
M 3022 2063 
Q 3016 2534 2758 2815 
Q 2500 3097 2075 3097 
Q 1594 3097 1305 2825 
Q 1016 2553 972 2059 
L 3022 2063 
z
" transform="scale(0.015625)"/>
       <path id="DejaVuSans-73" d="M 2834 3397 
L 2834 2853 
Q 2591 2978 2328 3040 
Q 2066 3103 1784 3103 
Q 1356 3103 1142 2972 
Q 928 2841 928 2578 
Q 928 2378 1081 2264 
Q 1234 2150 1697 2047 
L 1894 2003 
Q 2506 1872 2764 1633 
Q 3022 1394 3022 966 
Q 3022 478 2636 193 
Q 2250 -91 1575 -91 
Q 1294 -91 989 -36 
Q 684 19 347 128 
L 347 722 
Q 666 556 975 473 
Q 1284 391 1588 391 
Q 1994 391 2212 530 
Q 2431 669 2431 922 
Q 2431 1156 2273 1281 
Q 2116 1406 1581 1522 
L 1381 1569 
Q 847 1681 609 1914 
Q 372 2147 372 2553 
Q 372 3047 722 3315 
Q 1072 3584 1716 3584 
Q 2034 3584 2315 3537 
Q 2597 3491 2834 3397 
z
" transform="scale(0.015625)"/>
      </defs>
      <use xlink:href="#DejaVuSans-69"/>
      <use xlink:href="#DejaVuSans-6e" x="27.783203"/>
      <use xlink:href="#DejaVuSans-74" x="91.162109"/>
      <use xlink:href="#DejaVuSans-65" x="130.371094"/>
      <use xlink:href="#DejaVuSans-6e" x="191.894531"/>
      <use xlink:href="#DejaVuSans-73" x="255.273438"/>
      <use xlink:href="#DejaVuSans-69" x="307.373047"/>
      <use xlink:href="#DejaVuSans-74" x="335.15625"/>
      <use xlink:href="#DejaVuSans-69" x="374.365234"/>
      <use xlink:href="#DejaVuSans-65" x="402.148438"/>
      <use xlink:href="#DejaVuSans-73" x="463.671875"/>
     </g>
    </g>
   </g>
   <g id="patch_145">
    <path d="M 57.6 307.584 
L 57.6 41.472 
" style="fill: none; stroke: #000000; stroke-width: 0.8; stroke-linejoin: miter; stroke-linecap: square"/>
   </g>
   <g id="patch_146">
    <path d="M 414.72 307.584 
L 414.72 41.472 
" style="fill: none; stroke: #000000; stroke-width: 0.8; stroke-linejoin: miter; stroke-linecap: square"/>
   </g>
   <g id="patch_147">
    <path d="M 57.6 307.584 
L 414.72 307.584 
" style="fill: none; stroke: #000000; stroke-width: 0.8; stroke-linejoin: miter; stroke-linecap: square"/>
   </g>
   <g id="patch_148">
    <path d="M 57.6 41.472 
L 414.72 41.472 
" style="fill: none; stroke: #000000; stroke-width: 0.8; stroke-linejoin: miter; stroke-linecap: square"/>
   </g>
   <g id="text_17">
    <!-- 102.0554 -->
    <g transform="translate(110.492079 179.418333) scale(0.06 -0.06)">
     <defs>
      <path id="DejaVuSans-2e" d="M 684 794 
L 1344 794 
L 1344 0 
L 684 0 
L 684 794 
z
" transform="scale(0.015625)"/>
     </defs>
     <use xlink:href="#DejaVuSans-31"/>
     <use xlink:href="#DejaVuSans-30" x="63.623047"/>
     <use xlink:href="#DejaVuSans-32" x="127.246094"/>
     <use xlink:href="#DejaVuSans-2e" x="190.869141"/>
     <use xlink:href="#DejaVuSans-30" x="222.65625"/>
     <use xlink:href="#DejaVuSans-35" x="286.279297"/>
     <use xlink:href="#DejaVuSans-35" x="349.902344"/>
     <use xlink:href="#DejaVuSans-34" x="413.525391"/>
    </g>
   </g>
   <g id="text_18">
    <!-- 130.0652 -->
    <g transform="translate(134.801948 272.534966) scale(0.06 -0.06)">
     <defs>
      <path id="DejaVuSans-36" d="M 2113 2584 
Q 1688 2584 1439 2293 
Q 1191 2003 1191 1497 
Q 1191 994 1439 701 
Q 1688 409 2113 409 
Q 2538 409 2786 701 
Q 3034 994 3034 1497 
Q 3034 2003 2786 2293 
Q 2538 2584 2113 2584 
z
M 3366 4563 
L 3366 3988 
Q 3128 4100 2886 4159 
Q 2644 4219 2406 4219 
Q 1781 4219 1451 3797 
Q 1122 3375 1075 2522 
Q 1259 2794 1537 2939 
Q 1816 3084 2150 3084 
Q 2853 3084 3261 2657 
Q 3669 2231 3669 1497 
Q 3669 778 3244 343 
Q 2819 -91 2113 -91 
Q 1303 -91 875 529 
Q 447 1150 447 2328 
Q 447 3434 972 4092 
Q 1497 4750 2381 4750 
Q 2619 4750 2861 4703 
Q 3103 4656 3366 4563 
z
" transform="scale(0.015625)"/>
     </defs>
     <use xlink:href="#DejaVuSans-31"/>
     <use xlink:href="#DejaVuSans-33" x="63.623047"/>
     <use xlink:href="#DejaVuSans-30" x="127.246094"/>
     <use xlink:href="#DejaVuSans-2e" x="190.869141"/>
     <use xlink:href="#DejaVuSans-30" x="222.65625"/>
     <use xlink:href="#DejaVuSans-36" x="286.279297"/>
     <use xlink:href="#DejaVuSans-35" x="349.902344"/>
     <use xlink:href="#DejaVuSans-32" x="413.525391"/>
    </g>
   </g>
   <g id="text_19">
    <!-- 202.0496 -->
    <g transform="translate(197.27765 248.039808) scale(0.06 -0.06)">
     <defs>
      <path id="DejaVuSans-39" d="M 703 97 
L 703 672 
Q 941 559 1184 500 
Q 1428 441 1663 441 
Q 2288 441 2617 861 
Q 2947 1281 2994 2138 
Q 2813 1869 2534 1725 
Q 2256 1581 1919 1581 
Q 1219 1581 811 2004 
Q 403 2428 403 3163 
Q 403 3881 828 4315 
Q 1253 4750 1959 4750 
Q 2769 4750 3195 4129 
Q 3622 3509 3622 2328 
Q 3622 1225 3098 567 
Q 2575 -91 1691 -91 
Q 1453 -91 1209 -44 
Q 966 3 703 97 
z
M 1959 2075 
Q 2384 2075 2632 2365 
Q 2881 2656 2881 3163 
Q 2881 3666 2632 3958 
Q 2384 4250 1959 4250 
Q 1534 4250 1286 3958 
Q 1038 3666 1038 3163 
Q 1038 2656 1286 2365 
Q 1534 2075 1959 2075 
z
" transform="scale(0.015625)"/>
     </defs>
     <use xlink:href="#DejaVuSans-32"/>
     <use xlink:href="#DejaVuSans-30" x="63.623047"/>
     <use xlink:href="#DejaVuSans-32" x="127.246094"/>
     <use xlink:href="#DejaVuSans-2e" x="190.869141"/>
     <use xlink:href="#DejaVuSans-30" x="222.65625"/>
     <use xlink:href="#DejaVuSans-34" x="286.279297"/>
     <use xlink:href="#DejaVuSans-39" x="349.902344"/>
     <use xlink:href="#DejaVuSans-36" x="413.525391"/>
    </g>
   </g>
   <g id="text_20">
    <!-- 211.0863 -->
    <g transform="translate(205.120623 188.815441) scale(0.06 -0.06)">
     <defs>
      <path id="DejaVuSans-38" d="M 2034 2216 
Q 1584 2216 1326 1975 
Q 1069 1734 1069 1313 
Q 1069 891 1326 650 
Q 1584 409 2034 409 
Q 2484 409 2743 651 
Q 3003 894 3003 1313 
Q 3003 1734 2745 1975 
Q 2488 2216 2034 2216 
z
M 1403 2484 
Q 997 2584 770 2862 
Q 544 3141 544 3541 
Q 544 4100 942 4425 
Q 1341 4750 2034 4750 
Q 2731 4750 3128 4425 
Q 3525 4100 3525 3541 
Q 3525 3141 3298 2862 
Q 3072 2584 2669 2484 
Q 3125 2378 3379 2068 
Q 3634 1759 3634 1313 
Q 3634 634 3220 271 
Q 2806 -91 2034 -91 
Q 1263 -91 848 271 
Q 434 634 434 1313 
Q 434 1759 690 2068 
Q 947 2378 1403 2484 
z
M 1172 3481 
Q 1172 3119 1398 2916 
Q 1625 2713 2034 2713 
Q 2441 2713 2670 2916 
Q 2900 3119 2900 3481 
Q 2900 3844 2670 4047 
Q 2441 4250 2034 4250 
Q 1625 4250 1398 4047 
Q 1172 3844 1172 3481 
z
" transform="scale(0.015625)"/>
     </defs>
     <use xlink:href="#DejaVuSans-32"/>
     <use xlink:href="#DejaVuSans-31" x="63.623047"/>
     <use xlink:href="#DejaVuSans-31" x="127.246094"/>
     <use xlink:href="#DejaVuSans-2e" x="190.869141"/>
     <use xlink:href="#DejaVuSans-30" x="222.65625"/>
     <use xlink:href="#DejaVuSans-38" x="286.279297"/>
     <use xlink:href="#DejaVuSans-36" x="349.902344"/>
     <use xlink:href="#DejaVuSans-33" x="413.525391"/>
    </g>
   </g>
   <g id="text_21">
    <!-- 212.0933 -->
    <g transform="translate(205.994647 262.330387) scale(0.06 -0.06)">
     <use xlink:href="#DejaVuSans-32"/>
     <use xlink:href="#DejaVuSans-31" x="63.623047"/>
     <use xlink:href="#DejaVuSans-32" x="127.246094"/>
     <use xlink:href="#DejaVuSans-2e" x="190.869141"/>
     <use xlink:href="#DejaVuSans-30" x="222.65625"/>
     <use xlink:href="#DejaVuSans-39" x="286.279297"/>
     <use xlink:href="#DejaVuSans-33" x="349.902344"/>
     <use xlink:href="#DejaVuSans-33" x="413.525391"/>
    </g>
   </g>
   <g id="text_22">
    <!-- 228.065 -->
    <g transform="translate(214.2217 227.279745) scale(0.06 -0.06)">
     <use xlink:href="#DejaVuSans-32"/>
     <use xlink:href="#DejaVuSans-32" x="63.623047"/>
     <use xlink:href="#DejaVuSans-38" x="127.246094"/>
     <use xlink:href="#DejaVuSans-2e" x="190.869141"/>
     <use xlink:href="#DejaVuSans-30" x="222.65625"/>
     <use xlink:href="#DejaVuSans-36" x="286.279297"/>
     <use xlink:href="#DejaVuSans-35" x="349.902344"/>
    </g>
   </g>
   <g id="text_23">
    <!-- 228.0887 -->
    <g transform="translate(219.877135 110.804733) scale(0.06 -0.06)">
     <defs>
      <path id="DejaVuSans-37" d="M 525 4666 
L 3525 4666 
L 3525 4397 
L 1831 0 
L 1172 0 
L 2766 4134 
L 525 4134 
L 525 4666 
z
" transform="scale(0.015625)"/>
     </defs>
     <use xlink:href="#DejaVuSans-32"/>
     <use xlink:href="#DejaVuSans-32" x="63.623047"/>
     <use xlink:href="#DejaVuSans-38" x="127.246094"/>
     <use xlink:href="#DejaVuSans-2e" x="190.869141"/>
     <use xlink:href="#DejaVuSans-30" x="222.65625"/>
     <use xlink:href="#DejaVuSans-38" x="286.279297"/>
     <use xlink:href="#DejaVuSans-38" x="349.902344"/>
     <use xlink:href="#DejaVuSans-37" x="413.525391"/>
    </g>
   </g>
   <g id="text_24">
    <!-- 230.0446 -->
    <g transform="translate(227.506469 233.828096) scale(0.06 -0.06)">
     <use xlink:href="#DejaVuSans-32"/>
     <use xlink:href="#DejaVuSans-33" x="63.623047"/>
     <use xlink:href="#DejaVuSans-30" x="127.246094"/>
     <use xlink:href="#DejaVuSans-2e" x="190.869141"/>
     <use xlink:href="#DejaVuSans-30" x="222.65625"/>
     <use xlink:href="#DejaVuSans-34" x="286.279297"/>
     <use xlink:href="#DejaVuSans-34" x="349.902344"/>
     <use xlink:href="#DejaVuSans-36" x="413.525391"/>
    </g>
   </g>
   <g id="text_25">
    <!-- 272.0548 -->
    <g transform="translate(258.035511 50.939625) scale(0.06 -0.06)">
     <use xlink:href="#DejaVuSans-32"/>
     <use xlink:href="#DejaVuSans-37" x="63.623047"/>
     <use xlink:href="#DejaVuSans-32" x="127.246094"/>
     <use xlink:href="#DejaVuSans-2e" x="190.869141"/>
     <use xlink:href="#DejaVuSans-30" x="222.65625"/>
     <use xlink:href="#DejaVuSans-35" x="286.279297"/>
     <use xlink:href="#DejaVuSans-34" x="349.902344"/>
     <use xlink:href="#DejaVuSans-38" x="413.525391"/>
    </g>
   </g>
   <g id="text_26">
    <!-- 287.1025 -->
    <g transform="translate(265.164862 282.780427) scale(0.06 -0.06)">
     <use xlink:href="#DejaVuSans-32"/>
     <use xlink:href="#DejaVuSans-38" x="63.623047"/>
     <use xlink:href="#DejaVuSans-37" x="127.246094"/>
     <use xlink:href="#DejaVuSans-2e" x="190.869141"/>
     <use xlink:href="#DejaVuSans-31" x="222.65625"/>
     <use xlink:href="#DejaVuSans-30" x="286.279297"/>
     <use xlink:href="#DejaVuSans-32" x="349.902344"/>
     <use xlink:href="#DejaVuSans-35" x="413.525391"/>
    </g>
   </g>
   <g id="text_27">
    <!-- 288.0858 -->
    <g transform="translate(272.034304 249.71264) scale(0.06 -0.06)">
     <use xlink:href="#DejaVuSans-32"/>
     <use xlink:href="#DejaVuSans-38" x="63.623047"/>
     <use xlink:href="#DejaVuSans-38" x="127.246094"/>
     <use xlink:href="#DejaVuSans-2e" x="190.869141"/>
     <use xlink:href="#DejaVuSans-30" x="222.65625"/>
     <use xlink:href="#DejaVuSans-38" x="286.279297"/>
     <use xlink:href="#DejaVuSans-35" x="349.902344"/>
     <use xlink:href="#DejaVuSans-38" x="413.525391"/>
    </g>
   </g>
   <g id="text_28">
    <!-- 304.0809 -->
    <g transform="translate(285.83116 211.934736) scale(0.06 -0.06)">
     <use xlink:href="#DejaVuSans-33"/>
     <use xlink:href="#DejaVuSans-30" x="63.623047"/>
     <use xlink:href="#DejaVuSans-34" x="127.246094"/>
     <use xlink:href="#DejaVuSans-2e" x="190.869141"/>
     <use xlink:href="#DejaVuSans-30" x="222.65625"/>
     <use xlink:href="#DejaVuSans-38" x="286.279297"/>
     <use xlink:href="#DejaVuSans-30" x="349.902344"/>
     <use xlink:href="#DejaVuSans-39" x="413.525391"/>
    </g>
   </g>
   <g id="text_29">
    <!-- 331.0921 -->
    <g transform="translate(309.103873 247.994575) scale(0.06 -0.06)">
     <use xlink:href="#DejaVuSans-33"/>
     <use xlink:href="#DejaVuSans-33" x="63.623047"/>
     <use xlink:href="#DejaVuSans-31" x="127.246094"/>
     <use xlink:href="#DejaVuSans-2e" x="190.869141"/>
     <use xlink:href="#DejaVuSans-30" x="222.65625"/>
     <use xlink:href="#DejaVuSans-39" x="286.279297"/>
     <use xlink:href="#DejaVuSans-32" x="349.902344"/>
     <use xlink:href="#DejaVuSans-31" x="413.525391"/>
    </g>
   </g>
   <g id="text_30">
    <!-- 332.0741 -->
    <g transform="translate(303.646608 281.584368) scale(0.06 -0.06)">
     <use xlink:href="#DejaVuSans-33"/>
     <use xlink:href="#DejaVuSans-33" x="63.623047"/>
     <use xlink:href="#DejaVuSans-32" x="127.246094"/>
     <use xlink:href="#DejaVuSans-2e" x="190.869141"/>
     <use xlink:href="#DejaVuSans-30" x="222.65625"/>
     <use xlink:href="#DejaVuSans-37" x="286.279297"/>
     <use xlink:href="#DejaVuSans-34" x="349.902344"/>
     <use xlink:href="#DejaVuSans-31" x="413.525391"/>
    </g>
   </g>
   <g id="text_31">
    <!-- 363.1178 -->
    <g transform="translate(337.069633 274.086999) scale(0.06 -0.06)">
     <use xlink:href="#DejaVuSans-33"/>
     <use xlink:href="#DejaVuSans-36" x="63.623047"/>
     <use xlink:href="#DejaVuSans-33" x="127.246094"/>
     <use xlink:href="#DejaVuSans-2e" x="190.869141"/>
     <use xlink:href="#DejaVuSans-31" x="222.65625"/>
     <use xlink:href="#DejaVuSans-31" x="286.279297"/>
     <use xlink:href="#DejaVuSans-37" x="349.902344"/>
     <use xlink:href="#DejaVuSans-38" x="413.525391"/>
    </g>
   </g>
   <g id="text_32">
    <!-- MS2 spectrum of ${m/z}$ 426.1855, scan time 6.18 min. -->
    <g transform="translate(57.6 35.472) scale(0.12 -0.12)">
     <defs>
      <path id="DejaVuSans-4d" d="M 628 4666 
L 1569 4666 
L 2759 1491 
L 3956 4666 
L 4897 4666 
L 4897 0 
L 4281 0 
L 4281 4097 
L 3078 897 
L 2444 897 
L 1241 4097 
L 1241 0 
L 628 0 
L 628 4666 
z
" transform="scale(0.015625)"/>
      <path id="DejaVuSans-53" d="M 3425 4513 
L 3425 3897 
Q 3066 4069 2747 4153 
Q 2428 4238 2131 4238 
Q 1616 4238 1336 4038 
Q 1056 3838 1056 3469 
Q 1056 3159 1242 3001 
Q 1428 2844 1947 2747 
L 2328 2669 
Q 3034 2534 3370 2195 
Q 3706 1856 3706 1288 
Q 3706 609 3251 259 
Q 2797 -91 1919 -91 
Q 1588 -91 1214 -16 
Q 841 59 441 206 
L 441 856 
Q 825 641 1194 531 
Q 1563 422 1919 422 
Q 2459 422 2753 634 
Q 3047 847 3047 1241 
Q 3047 1584 2836 1778 
Q 2625 1972 2144 2069 
L 1759 2144 
Q 1053 2284 737 2584 
Q 422 2884 422 3419 
Q 422 4038 858 4394 
Q 1294 4750 2059 4750 
Q 2388 4750 2728 4690 
Q 3069 4631 3425 4513 
z
" transform="scale(0.015625)"/>
      <path id="DejaVuSans-20" transform="scale(0.015625)"/>
      <path id="DejaVuSans-70" d="M 1159 525 
L 1159 -1331 
L 581 -1331 
L 581 3500 
L 1159 3500 
L 1159 2969 
Q 1341 3281 1617 3432 
Q 1894 3584 2278 3584 
Q 2916 3584 3314 3078 
Q 3713 2572 3713 1747 
Q 3713 922 3314 415 
Q 2916 -91 2278 -91 
Q 1894 -91 1617 61 
Q 1341 213 1159 525 
z
M 3116 1747 
Q 3116 2381 2855 2742 
Q 2594 3103 2138 3103 
Q 1681 3103 1420 2742 
Q 1159 2381 1159 1747 
Q 1159 1113 1420 752 
Q 1681 391 2138 391 
Q 2594 391 2855 752 
Q 3116 1113 3116 1747 
z
" transform="scale(0.015625)"/>
      <path id="DejaVuSans-63" d="M 3122 3366 
L 3122 2828 
Q 2878 2963 2633 3030 
Q 2388 3097 2138 3097 
Q 1578 3097 1268 2742 
Q 959 2388 959 1747 
Q 959 1106 1268 751 
Q 1578 397 2138 397 
Q 2388 397 2633 464 
Q 2878 531 3122 666 
L 3122 134 
Q 2881 22 2623 -34 
Q 2366 -91 2075 -91 
Q 1284 -91 818 406 
Q 353 903 353 1747 
Q 353 2603 823 3093 
Q 1294 3584 2113 3584 
Q 2378 3584 2631 3529 
Q 2884 3475 3122 3366 
z
" transform="scale(0.015625)"/>
      <path id="DejaVuSans-72" d="M 2631 2963 
Q 2534 3019 2420 3045 
Q 2306 3072 2169 3072 
Q 1681 3072 1420 2755 
Q 1159 2438 1159 1844 
L 1159 0 
L 581 0 
L 581 3500 
L 1159 3500 
L 1159 2956 
Q 1341 3275 1631 3429 
Q 1922 3584 2338 3584 
Q 2397 3584 2469 3576 
Q 2541 3569 2628 3553 
L 2631 2963 
z
" transform="scale(0.015625)"/>
      <path id="DejaVuSans-75" d="M 544 1381 
L 544 3500 
L 1119 3500 
L 1119 1403 
Q 1119 906 1312 657 
Q 1506 409 1894 409 
Q 2359 409 2629 706 
Q 2900 1003 2900 1516 
L 2900 3500 
L 3475 3500 
L 3475 0 
L 2900 0 
L 2900 538 
Q 2691 219 2414 64 
Q 2138 -91 1772 -91 
Q 1169 -91 856 284 
Q 544 659 544 1381 
z
M 1991 3584 
L 1991 3584 
z
" transform="scale(0.015625)"/>
      <path id="DejaVuSans-6d" d="M 3328 2828 
Q 3544 3216 3844 3400 
Q 4144 3584 4550 3584 
Q 5097 3584 5394 3201 
Q 5691 2819 5691 2113 
L 5691 0 
L 5113 0 
L 5113 2094 
Q 5113 2597 4934 2840 
Q 4756 3084 4391 3084 
Q 3944 3084 3684 2787 
Q 3425 2491 3425 1978 
L 3425 0 
L 2847 0 
L 2847 2094 
Q 2847 2600 2669 2842 
Q 2491 3084 2119 3084 
Q 1678 3084 1418 2786 
Q 1159 2488 1159 1978 
L 1159 0 
L 581 0 
L 581 3500 
L 1159 3500 
L 1159 2956 
Q 1356 3278 1631 3431 
Q 1906 3584 2284 3584 
Q 2666 3584 2933 3390 
Q 3200 3197 3328 2828 
z
" transform="scale(0.015625)"/>
      <path id="DejaVuSans-6f" d="M 1959 3097 
Q 1497 3097 1228 2736 
Q 959 2375 959 1747 
Q 959 1119 1226 758 
Q 1494 397 1959 397 
Q 2419 397 2687 759 
Q 2956 1122 2956 1747 
Q 2956 2369 2687 2733 
Q 2419 3097 1959 3097 
z
M 1959 3584 
Q 2709 3584 3137 3096 
Q 3566 2609 3566 1747 
Q 3566 888 3137 398 
Q 2709 -91 1959 -91 
Q 1206 -91 779 398 
Q 353 888 353 1747 
Q 353 2609 779 3096 
Q 1206 3584 1959 3584 
z
" transform="scale(0.015625)"/>
      <path id="DejaVuSans-66" d="M 2375 4863 
L 2375 4384 
L 1825 4384 
Q 1516 4384 1395 4259 
Q 1275 4134 1275 3809 
L 1275 3500 
L 2222 3500 
L 2222 3053 
L 1275 3053 
L 1275 0 
L 697 0 
L 697 3053 
L 147 3053 
L 147 3500 
L 697 3500 
L 697 3744 
Q 697 4328 969 4595 
Q 1241 4863 1831 4863 
L 2375 4863 
z
" transform="scale(0.015625)"/>
      <path id="DejaVuSans-2c" d="M 750 794 
L 1409 794 
L 1409 256 
L 897 -744 
L 494 -744 
L 750 256 
L 750 794 
z
" transform="scale(0.015625)"/>
      <path id="DejaVuSans-61" d="M 2194 1759 
Q 1497 1759 1228 1600 
Q 959 1441 959 1056 
Q 959 750 1161 570 
Q 1363 391 1709 391 
Q 2188 391 2477 730 
Q 2766 1069 2766 1631 
L 2766 1759 
L 2194 1759 
z
M 3341 1997 
L 3341 0 
L 2766 0 
L 2766 531 
Q 2569 213 2275 61 
Q 1981 -91 1556 -91 
Q 1019 -91 701 211 
Q 384 513 384 1019 
Q 384 1609 779 1909 
Q 1175 2209 1959 2209 
L 2766 2209 
L 2766 2266 
Q 2766 2663 2505 2880 
Q 2244 3097 1772 3097 
Q 1472 3097 1187 3025 
Q 903 2953 641 2809 
L 641 3341 
Q 956 3463 1253 3523 
Q 1550 3584 1831 3584 
Q 2591 3584 2966 3190 
Q 3341 2797 3341 1997 
z
" transform="scale(0.015625)"/>
     </defs>
     <use xlink:href="#DejaVuSans-4d" transform="translate(0 0.015625)"/>
     <use xlink:href="#DejaVuSans-53" transform="translate(86.279297 0.015625)"/>
     <use xlink:href="#DejaVuSans-32" transform="translate(149.755859 0.015625)"/>
     <use xlink:href="#DejaVuSans-20" transform="translate(213.378906 0.015625)"/>
     <use xlink:href="#DejaVuSans-73" transform="translate(245.166016 0.015625)"/>
     <use xlink:href="#DejaVuSans-70" transform="translate(297.265625 0.015625)"/>
     <use xlink:href="#DejaVuSans-65" transform="translate(360.742188 0.015625)"/>
     <use xlink:href="#DejaVuSans-63" transform="translate(422.265625 0.015625)"/>
     <use xlink:href="#DejaVuSans-74" transform="translate(477.246094 0.015625)"/>
     <use xlink:href="#DejaVuSans-72" transform="translate(516.455078 0.015625)"/>
     <use xlink:href="#DejaVuSans-75" transform="translate(557.568359 0.015625)"/>
     <use xlink:href="#DejaVuSans-6d" transform="translate(620.947266 0.015625)"/>
     <use xlink:href="#DejaVuSans-20" transform="translate(718.359375 0.015625)"/>
     <use xlink:href="#DejaVuSans-6f" transform="translate(750.146484 0.015625)"/>
     <use xlink:href="#DejaVuSans-66" transform="translate(811.328125 0.015625)"/>
     <use xlink:href="#DejaVuSans-20" transform="translate(846.533203 0.015625)"/>
     <use xlink:href="#DejaVuSans-Oblique-6d" transform="translate(878.320312 0.015625)"/>
     <use xlink:href="#DejaVuSans-2f" transform="translate(975.732422 0.015625)"/>
     <use xlink:href="#DejaVuSans-Oblique-7a" transform="translate(1009.423828 0.015625)"/>
     <use xlink:href="#DejaVuSans-20" transform="translate(1061.914062 0.015625)"/>
     <use xlink:href="#DejaVuSans-34" transform="translate(1093.701172 0.015625)"/>
     <use xlink:href="#DejaVuSans-32" transform="translate(1157.324219 0.015625)"/>
     <use xlink:href="#DejaVuSans-36" transform="translate(1220.947266 0.015625)"/>
     <use xlink:href="#DejaVuSans-2e" transform="translate(1284.570312 0.015625)"/>
     <use xlink:href="#DejaVuSans-31" transform="translate(1316.357422 0.015625)"/>
     <use xlink:href="#DejaVuSans-38" transform="translate(1379.980469 0.015625)"/>
     <use xlink:href="#DejaVuSans-35" transform="translate(1443.603516 0.015625)"/>
     <use xlink:href="#DejaVuSans-35" transform="translate(1507.226562 0.015625)"/>
     <use xlink:href="#DejaVuSans-2c" transform="translate(1570.849609 0.015625)"/>
     <use xlink:href="#DejaVuSans-20" transform="translate(1602.636719 0.015625)"/>
     <use xlink:href="#DejaVuSans-73" transform="translate(1634.423828 0.015625)"/>
     <use xlink:href="#DejaVuSans-63" transform="translate(1686.523438 0.015625)"/>
     <use xlink:href="#DejaVuSans-61" transform="translate(1741.503906 0.015625)"/>
     <use xlink:href="#DejaVuSans-6e" transform="translate(1802.783203 0.015625)"/>
     <use xlink:href="#DejaVuSans-20" transform="translate(1866.162109 0.015625)"/>
     <use xlink:href="#DejaVuSans-74" transform="translate(1897.949219 0.015625)"/>
     <use xlink:href="#DejaVuSans-69" transform="translate(1937.158203 0.015625)"/>
     <use xlink:href="#DejaVuSans-6d" transform="translate(1964.941406 0.015625)"/>
     <use xlink:href="#DejaVuSans-65" transform="translate(2062.353516 0.015625)"/>
     <use xlink:href="#DejaVuSans-20" transform="translate(2123.876953 0.015625)"/>
     <use xlink:href="#DejaVuSans-36" transform="translate(2155.664062 0.015625)"/>
     <use xlink:href="#DejaVuSans-2e" transform="translate(2219.287109 0.015625)"/>
     <use xlink:href="#DejaVuSans-31" transform="translate(2251.074219 0.015625)"/>
     <use xlink:href="#DejaVuSans-38" transform="translate(2314.697266 0.015625)"/>
     <use xlink:href="#DejaVuSans-20" transform="translate(2378.320312 0.015625)"/>
     <use xlink:href="#DejaVuSans-6d" transform="translate(2410.107422 0.015625)"/>
     <use xlink:href="#DejaVuSans-69" transform="translate(2507.519531 0.015625)"/>
     <use xlink:href="#DejaVuSans-6e" transform="translate(2535.302734 0.015625)"/>
     <use xlink:href="#DejaVuSans-2e" transform="translate(2598.681641 0.015625)"/>
    </g>
   </g>
  </g>
 </g>
 <defs>
  <clipPath id="p32510638b8">
   <rect x="57.6" y="41.472" width="357.12" height="266.112"/>
  </clipPath>
 </defs>
</svg>
