<?xml version="1.0" encoding="utf-8" standalone="no"?>
<!DOCTYPE svg PUBLIC "-//W3C//DTD SVG 1.1//EN"
  "http://www.w3.org/Graphics/SVG/1.1/DTD/svg11.dtd">
<svg xmlns:xlink="http://www.w3.org/1999/xlink" width="460.8pt" height="345.6pt" viewBox="0 0 460.8 345.6" xmlns="http://www.w3.org/2000/svg" version="1.1">
 <metadata>
  <rdf:RDF xmlns:dc="http://purl.org/dc/elements/1.1/" xmlns:cc="http://creativecommons.org/ns#" xmlns:rdf="http://www.w3.org/1999/02/22-rdf-syntax-ns#">
   <cc:Work>
    <dc:type rdf:resource="http://purl.org/dc/dcmitype/StillImage"/>
    <dc:date>2025-01-11T13:53:53.303550</dc:date>
    <dc:format>image/svg+xml</dc:format>
    <dc:creator>
     <cc:Agent>
      <dc:title>Matplotlib v3.7.3, https://matplotlib.org/</dc:title>
     </cc:Agent>
    </dc:creator>
   </cc:Work>
  </rdf:RDF>
 </metadata>
 <defs>
  <style type="text/css">*{stroke-linejoin: round; stroke-linecap: butt}</style>
 </defs>
 <g id="figure_1">
  <g id="patch_1">
   <path d="M 0 345.6 
L 460.8 345.6 
L 460.8 0 
L 0 0 
z
" style="fill: #ffffff"/>
  </g>
  <g id="axes_1">
   <g id="patch_2">
    <path d="M 57.6 307.584 
L 414.72 307.584 
L 414.72 41.472 
L 57.6 41.472 
z
" style="fill: #ffffff"/>
   </g>
   <g id="patch_3">
    <path d="M 73.832727 307.584 
L 74.673033 307.584 
L 74.673033 305.487773 
L 73.832727 305.487773 
z
" clip-path="url(#pd841711e2b)" style="fill: #1f77b4"/>
   </g>
   <g id="patch_4">
    <path d="M 74.025359 307.584 
L 74.865664 307.584 
L 74.865664 306.120205 
L 74.025359 306.120205 
z
" clip-path="url(#pd841711e2b)" style="fill: #1f77b4"/>
   </g>
   <g id="patch_5">
    <path d="M 74.843758 307.584 
L 75.684064 307.584 
L 75.684064 306.834484 
L 74.843758 306.834484 
z
" clip-path="url(#pd841711e2b)" style="fill: #1f77b4"/>
   </g>
   <g id="patch_6">
    <path d="M 75.109046 307.584 
L 75.949352 307.584 
L 75.949352 303.369083 
L 75.109046 303.369083 
z
" clip-path="url(#pd841711e2b)" style="fill: #1f77b4"/>
   </g>
   <g id="patch_7">
    <path d="M 76.129717 307.584 
L 76.970023 307.584 
L 76.970023 306.555735 
L 76.129717 306.555735 
z
" clip-path="url(#pd841711e2b)" style="fill: #1f77b4"/>
   </g>
   <g id="patch_8">
    <path d="M 76.142655 307.584 
L 76.982961 307.584 
L 76.982961 305.666437 
L 76.142655 305.666437 
z
" clip-path="url(#pd841711e2b)" style="fill: #1f77b4"/>
   </g>
   <g id="patch_9">
    <path d="M 76.385773 307.584 
L 77.226079 307.584 
L 77.226079 306.452158 
L 76.385773 306.452158 
z
" clip-path="url(#pd841711e2b)" style="fill: #1f77b4"/>
   </g>
   <g id="patch_10">
    <path d="M 77.679214 307.584 
L 78.519519 307.584 
L 78.519519 306.797525 
L 77.679214 306.797525 
z
" clip-path="url(#pd841711e2b)" style="fill: #1f77b4"/>
   </g>
   <g id="patch_11">
    <path d="M 78.221911 307.584 
L 79.062217 307.584 
L 79.062217 306.357848 
L 78.221911 306.357848 
z
" clip-path="url(#pd841711e2b)" style="fill: #1f77b4"/>
   </g>
   <g id="patch_12">
    <path d="M 78.25982 307.584 
L 79.100126 307.584 
L 79.100126 305.006056 
L 78.25982 305.006056 
z
" clip-path="url(#pd841711e2b)" style="fill: #1f77b4"/>
   </g>
   <g id="patch_13">
    <path d="M 78.910323 307.584 
L 79.750628 307.584 
L 79.750628 306.326196 
L 78.910323 306.326196 
z
" clip-path="url(#pd841711e2b)" style="fill: #1f77b4"/>
   </g>
   <g id="patch_14">
    <path d="M 81.521224 307.584 
L 82.36153 307.584 
L 82.36153 306.032219 
L 81.521224 306.032219 
z
" clip-path="url(#pd841711e2b)" style="fill: #1f77b4"/>
   </g>
   <g id="patch_15">
    <path d="M 84.550938 307.584 
L 85.391244 307.584 
L 85.391244 306.161386 
L 84.550938 306.161386 
z
" clip-path="url(#pd841711e2b)" style="fill: #1f77b4"/>
   </g>
   <g id="patch_16">
    <path d="M 86.629913 307.584 
L 87.470219 307.584 
L 87.470219 300.629373 
L 86.629913 300.629373 
z
" clip-path="url(#pd841711e2b)" style="fill: #1f77b4"/>
   </g>
   <g id="patch_17">
    <path d="M 87.713545 307.584 
L 88.55385 307.584 
L 88.55385 301.21769 
L 87.713545 301.21769 
z
" clip-path="url(#pd841711e2b)" style="fill: #1f77b4"/>
   </g>
   <g id="patch_18">
    <path d="M 89.217162 307.584 
L 90.057468 307.584 
L 90.057468 306.87817 
L 89.217162 306.87817 
z
" clip-path="url(#pd841711e2b)" style="fill: #1f77b4"/>
   </g>
   <g id="patch_19">
    <path d="M 90.864267 307.584 
L 91.704572 307.584 
L 91.704572 306.609854 
L 90.864267 306.609854 
z
" clip-path="url(#pd841711e2b)" style="fill: #1f77b4"/>
   </g>
   <g id="patch_20">
    <path d="M 91.155648 307.584 
L 91.995953 307.584 
L 91.995953 306.910961 
L 91.155648 306.910961 
z
" clip-path="url(#pd841711e2b)" style="fill: #1f77b4"/>
   </g>
   <g id="patch_21">
    <path d="M 92.793256 307.584 
L 93.633561 307.584 
L 93.633561 306.847258 
L 92.793256 306.847258 
z
" clip-path="url(#pd841711e2b)" style="fill: #1f77b4"/>
   </g>
   <g id="patch_22">
    <path d="M 94.94163 307.584 
L 95.781936 307.584 
L 95.781936 306.440302 
L 94.94163 306.440302 
z
" clip-path="url(#pd841711e2b)" style="fill: #1f77b4"/>
   </g>
   <g id="patch_23">
    <path d="M 95.060386 307.584 
L 95.900692 307.584 
L 95.900692 306.147472 
L 95.060386 306.147472 
z
" clip-path="url(#pd841711e2b)" style="fill: #1f77b4"/>
   </g>
   <g id="patch_24">
    <path d="M 95.385321 307.584 
L 96.225627 307.584 
L 96.225627 306.834834 
L 95.385321 306.834834 
z
" clip-path="url(#pd841711e2b)" style="fill: #1f77b4"/>
   </g>
   <g id="patch_25">
    <path d="M 98.201051 307.584 
L 99.041357 307.584 
L 99.041357 306.74431 
L 98.201051 306.74431 
z
" clip-path="url(#pd841711e2b)" style="fill: #1f77b4"/>
   </g>
   <g id="patch_26">
    <path d="M 102.435164 307.584 
L 103.27547 307.584 
L 103.27547 306.298598 
L 102.435164 306.298598 
z
" clip-path="url(#pd841711e2b)" style="fill: #1f77b4"/>
   </g>
   <g id="patch_27">
    <path d="M 104.269919 307.584 
L 105.110225 307.584 
L 105.110225 306.743219 
L 104.269919 306.743219 
z
" clip-path="url(#pd841711e2b)" style="fill: #1f77b4"/>
   </g>
   <g id="patch_28">
    <path d="M 106.33648 307.584 
L 107.176786 307.584 
L 107.176786 306.757829 
L 106.33648 306.757829 
z
" clip-path="url(#pd841711e2b)" style="fill: #1f77b4"/>
   </g>
   <g id="patch_29">
    <path d="M 109.759863 307.584 
L 110.600169 307.584 
L 110.600169 305.529835 
L 109.759863 305.529835 
z
" clip-path="url(#pd841711e2b)" style="fill: #1f77b4"/>
   </g>
   <g id="patch_30">
    <path d="M 111.877096 307.584 
L 112.717402 307.584 
L 112.717402 303.270293 
L 111.877096 303.270293 
z
" clip-path="url(#pd841711e2b)" style="fill: #1f77b4"/>
   </g>
   <g id="patch_31">
    <path d="M 112.922373 307.584 
L 113.762679 307.584 
L 113.762679 303.0423 
L 112.922373 303.0423 
z
" clip-path="url(#pd841711e2b)" style="fill: #1f77b4"/>
   </g>
   <g id="patch_32">
    <path d="M 117.118741 307.584 
L 117.959047 307.584 
L 117.959047 305.37967 
L 117.118741 305.37967 
z
" clip-path="url(#pd841711e2b)" style="fill: #1f77b4"/>
   </g>
   <g id="patch_33">
    <path d="M 117.986418 307.584 
L 118.826723 307.584 
L 118.826723 306.581368 
L 117.986418 306.581368 
z
" clip-path="url(#pd841711e2b)" style="fill: #1f77b4"/>
   </g>
   <g id="patch_34">
    <path d="M 119.235734 307.584 
L 120.07604 307.584 
L 120.07604 298.221179 
L 119.235734 298.221179 
z
" clip-path="url(#pd841711e2b)" style="fill: #1f77b4"/>
   </g>
   <g id="patch_35">
    <path d="M 120.269447 307.584 
L 121.109753 307.584 
L 121.109753 304.216122 
L 120.269447 304.216122 
z
" clip-path="url(#pd841711e2b)" style="fill: #1f77b4"/>
   </g>
   <g id="patch_36">
    <path d="M 121.353463 307.584 
L 122.193769 307.584 
L 122.193769 306.236905 
L 121.353463 306.236905 
z
" clip-path="url(#pd841711e2b)" style="fill: #1f77b4"/>
   </g>
   <g id="patch_37">
    <path d="M 123.43191 307.584 
L 124.272215 307.584 
L 124.272215 164.266383 
L 123.43191 164.266383 
z
" clip-path="url(#pd841711e2b)" style="fill: #1f77b4"/>
   </g>
   <g id="patch_38">
    <path d="M 124.468187 307.584 
L 125.308493 307.584 
L 125.308493 306.642057 
L 124.468187 306.642057 
z
" clip-path="url(#pd841711e2b)" style="fill: #1f77b4"/>
   </g>
   <g id="patch_39">
    <path d="M 124.48113 307.584 
L 125.321436 307.584 
L 125.321436 304.471735 
L 124.48113 304.471735 
z
" clip-path="url(#pd841711e2b)" style="fill: #1f77b4"/>
   </g>
   <g id="patch_40">
    <path d="M 124.48694 307.584 
L 125.327246 307.584 
L 125.327246 305.674958 
L 124.48694 305.674958 
z
" clip-path="url(#pd841711e2b)" style="fill: #1f77b4"/>
   </g>
   <g id="patch_41">
    <path d="M 125.526744 307.584 
L 126.36705 307.584 
L 126.36705 305.172757 
L 125.526744 305.172757 
z
" clip-path="url(#pd841711e2b)" style="fill: #1f77b4"/>
   </g>
   <g id="patch_42">
    <path d="M 126.560193 307.584 
L 127.400499 307.584 
L 127.400499 306.689319 
L 126.560193 306.689319 
z
" clip-path="url(#pd841711e2b)" style="fill: #1f77b4"/>
   </g>
   <g id="patch_43">
    <path d="M 126.572334 307.584 
L 127.41264 307.584 
L 127.41264 306.655376 
L 126.572334 306.655376 
z
" clip-path="url(#pd841711e2b)" style="fill: #1f77b4"/>
   </g>
   <g id="patch_44">
    <path d="M 129.72332 307.584 
L 130.563626 307.584 
L 130.563626 306.536752 
L 129.72332 306.536752 
z
" clip-path="url(#pd841711e2b)" style="fill: #1f77b4"/>
   </g>
   <g id="patch_45">
    <path d="M 131.802423 307.584 
L 132.642729 307.584 
L 132.642729 306.526148 
L 131.802423 306.526148 
z
" clip-path="url(#pd841711e2b)" style="fill: #1f77b4"/>
   </g>
   <g id="patch_46">
    <path d="M 131.840208 307.584 
L 132.680514 307.584 
L 132.680514 304.958435 
L 131.840208 304.958435 
z
" clip-path="url(#pd841711e2b)" style="fill: #1f77b4"/>
   </g>
   <g id="patch_47">
    <path d="M 133.919055 307.584 
L 134.759361 307.584 
L 134.759361 304.418906 
L 133.919055 304.418906 
z
" clip-path="url(#pd841711e2b)" style="fill: #1f77b4"/>
   </g>
   <g id="patch_48">
    <path d="M 134.952705 307.584 
L 135.79301 307.584 
L 135.79301 306.38989 
L 134.952705 306.38989 
z
" clip-path="url(#pd841711e2b)" style="fill: #1f77b4"/>
   </g>
   <g id="patch_49">
    <path d="M 134.977443 307.584 
L 135.817749 307.584 
L 135.817749 306.000484 
L 134.977443 306.000484 
z
" clip-path="url(#pd841711e2b)" style="fill: #1f77b4"/>
   </g>
   <g id="patch_50">
    <path d="M 136.01401 307.584 
L 136.854315 307.584 
L 136.854315 299.302201 
L 136.01401 299.302201 
z
" clip-path="url(#pd841711e2b)" style="fill: #1f77b4"/>
   </g>
   <g id="patch_51">
    <path d="M 137.072975 307.584 
L 137.91328 307.584 
L 137.91328 306.539551 
L 137.072975 306.539551 
z
" clip-path="url(#pd841711e2b)" style="fill: #1f77b4"/>
   </g>
   <g id="patch_52">
    <path d="M 137.086197 307.584 
L 137.926503 307.584 
L 137.926503 304.456762 
L 137.086197 304.456762 
z
" clip-path="url(#pd841711e2b)" style="fill: #1f77b4"/>
   </g>
   <g id="patch_53">
    <path d="M 138.131242 307.584 
L 138.971548 307.584 
L 138.971548 297.87957 
L 138.131242 297.87957 
z
" clip-path="url(#pd841711e2b)" style="fill: #1f77b4"/>
   </g>
   <g id="patch_54">
    <path d="M 139.189406 307.584 
L 140.029712 307.584 
L 140.029712 304.788055 
L 139.189406 304.788055 
z
" clip-path="url(#pd841711e2b)" style="fill: #1f77b4"/>
   </g>
   <g id="patch_55">
    <path d="M 140.248419 307.584 
L 141.088725 307.584 
L 141.088725 305.782681 
L 140.248419 305.782681 
z
" clip-path="url(#pd841711e2b)" style="fill: #1f77b4"/>
   </g>
   <g id="patch_56">
    <path d="M 142.327618 307.584 
L 143.167924 307.584 
L 143.167924 303.356001 
L 142.327618 303.356001 
z
" clip-path="url(#pd841711e2b)" style="fill: #1f77b4"/>
   </g>
   <g id="patch_57">
    <path d="M 144.640347 307.584 
L 145.480653 307.584 
L 145.480653 306.717687 
L 144.640347 306.717687 
z
" clip-path="url(#pd841711e2b)" style="fill: #1f77b4"/>
   </g>
   <g id="patch_58">
    <path d="M 146.523425 307.584 
L 147.363731 307.584 
L 147.363731 306.050511 
L 146.523425 306.050511 
z
" clip-path="url(#pd841711e2b)" style="fill: #1f77b4"/>
   </g>
   <g id="patch_59">
    <path d="M 148.640802 307.584 
L 149.481108 307.584 
L 149.481108 302.940868 
L 148.640802 302.940868 
z
" clip-path="url(#pd841711e2b)" style="fill: #1f77b4"/>
   </g>
   <g id="patch_60">
    <path d="M 150.735565 307.584 
L 151.57587 307.584 
L 151.57587 295.581579 
L 150.735565 295.581579 
z
" clip-path="url(#pd841711e2b)" style="fill: #1f77b4"/>
   </g>
   <g id="patch_61">
    <path d="M 150.744957 307.584 
L 151.585263 307.584 
L 151.585263 306.635288 
L 150.744957 306.635288 
z
" clip-path="url(#pd841711e2b)" style="fill: #1f77b4"/>
   </g>
   <g id="patch_62">
    <path d="M 150.748851 307.584 
L 151.589157 307.584 
L 151.589157 306.655568 
L 150.748851 306.655568 
z
" clip-path="url(#pd841711e2b)" style="fill: #1f77b4"/>
   </g>
   <g id="patch_63">
    <path d="M 150.757827 307.584 
L 151.598133 307.584 
L 151.598133 303.681338 
L 150.757827 303.681338 
z
" clip-path="url(#pd841711e2b)" style="fill: #1f77b4"/>
   </g>
   <g id="patch_64">
    <path d="M 151.794185 307.584 
L 152.634491 307.584 
L 152.634491 303.989694 
L 151.794185 303.989694 
z
" clip-path="url(#pd841711e2b)" style="fill: #1f77b4"/>
   </g>
   <g id="patch_65">
    <path d="M 151.80744 307.584 
L 152.647746 307.584 
L 152.647746 305.348889 
L 151.80744 305.348889 
z
" clip-path="url(#pd841711e2b)" style="fill: #1f77b4"/>
   </g>
   <g id="patch_66">
    <path d="M 152.814788 307.584 
L 153.655094 307.584 
L 153.655094 304.998276 
L 152.814788 304.998276 
z
" clip-path="url(#pd841711e2b)" style="fill: #1f77b4"/>
   </g>
   <g id="patch_67">
    <path d="M 152.836698 307.584 
L 153.677003 307.584 
L 153.677003 305.404437 
L 152.836698 305.404437 
z
" clip-path="url(#pd841711e2b)" style="fill: #1f77b4"/>
   </g>
   <g id="patch_68">
    <path d="M 152.852934 307.584 
L 153.693239 307.584 
L 153.693239 267.664242 
L 152.852934 267.664242 
z
" clip-path="url(#pd841711e2b)" style="fill: #1f77b4"/>
   </g>
   <g id="patch_69">
    <path d="M 152.863432 307.584 
L 153.703737 307.584 
L 153.703737 305.872208 
L 152.863432 305.872208 
z
" clip-path="url(#pd841711e2b)" style="fill: #1f77b4"/>
   </g>
   <g id="patch_70">
    <path d="M 153.9079 307.584 
L 154.748206 307.584 
L 154.748206 306.405147 
L 153.9079 306.405147 
z
" clip-path="url(#pd841711e2b)" style="fill: #1f77b4"/>
   </g>
   <g id="patch_71">
    <path d="M 154.931836 307.584 
L 155.772142 307.584 
L 155.772142 297.941709 
L 154.931836 297.941709 
z
" clip-path="url(#pd841711e2b)" style="fill: #1f77b4"/>
   </g>
   <g id="patch_72">
    <path d="M 157.010643 307.584 
L 157.850949 307.584 
L 157.850949 306.277905 
L 157.010643 306.277905 
z
" clip-path="url(#pd841711e2b)" style="fill: #1f77b4"/>
   </g>
   <g id="patch_73">
    <path d="M 157.049238 307.584 
L 157.889543 307.584 
L 157.889543 305.29061 
L 157.049238 305.29061 
z
" clip-path="url(#pd841711e2b)" style="fill: #1f77b4"/>
   </g>
   <g id="patch_74">
    <path d="M 158.070321 307.584 
L 158.910627 307.584 
L 158.910627 305.087223 
L 158.070321 305.087223 
z
" clip-path="url(#pd841711e2b)" style="fill: #1f77b4"/>
   </g>
   <g id="patch_75">
    <path d="M 159.127948 307.584 
L 159.968254 307.584 
L 159.968254 292.718004 
L 159.127948 292.718004 
z
" clip-path="url(#pd841711e2b)" style="fill: #1f77b4"/>
   </g>
   <g id="patch_76">
    <path d="M 163.340151 307.584 
L 164.180457 307.584 
L 164.180457 287.284142 
L 163.340151 287.284142 
z
" clip-path="url(#pd841711e2b)" style="fill: #1f77b4"/>
   </g>
   <g id="patch_77">
    <path d="M 163.362542 307.584 
L 164.202848 307.584 
L 164.202848 302.952011 
L 163.362542 302.952011 
z
" clip-path="url(#pd841711e2b)" style="fill: #1f77b4"/>
   </g>
   <g id="patch_78">
    <path d="M 164.398275 307.584 
L 165.238581 307.584 
L 165.238581 304.532047 
L 164.398275 304.532047 
z
" clip-path="url(#pd841711e2b)" style="fill: #1f77b4"/>
   </g>
   <g id="patch_79">
    <path d="M 165.444987 307.584 
L 166.285293 307.584 
L 166.285293 306.15344 
L 165.444987 306.15344 
z
" clip-path="url(#pd841711e2b)" style="fill: #1f77b4"/>
   </g>
   <g id="patch_80">
    <path d="M 165.457248 307.584 
L 166.297554 307.584 
L 166.297554 294.32232 
L 165.457248 294.32232 
z
" clip-path="url(#pd841711e2b)" style="fill: #1f77b4"/>
   </g>
   <g id="patch_81">
    <path d="M 166.477995 307.584 
L 167.318301 307.584 
L 167.318301 298.9733 
L 166.477995 298.9733 
z
" clip-path="url(#pd841711e2b)" style="fill: #1f77b4"/>
   </g>
   <g id="patch_82">
    <path d="M 166.488974 307.584 
L 167.32928 307.584 
L 167.32928 306.197289 
L 166.488974 306.197289 
z
" clip-path="url(#pd841711e2b)" style="fill: #1f77b4"/>
   </g>
   <g id="patch_83">
    <path d="M 166.515788 307.584 
L 167.356094 307.584 
L 167.356094 305.654929 
L 166.515788 305.654929 
z
" clip-path="url(#pd841711e2b)" style="fill: #1f77b4"/>
   </g>
   <g id="patch_84">
    <path d="M 167.536599 307.584 
L 168.376905 307.584 
L 168.376905 297.282198 
L 167.536599 297.282198 
z
" clip-path="url(#pd841711e2b)" style="fill: #1f77b4"/>
   </g>
   <g id="patch_85">
    <path d="M 167.558718 307.584 
L 168.399023 307.584 
L 168.399023 305.271123 
L 167.558718 305.271123 
z
" clip-path="url(#pd841711e2b)" style="fill: #1f77b4"/>
   </g>
   <g id="patch_86">
    <path d="M 167.57428 307.584 
L 168.414586 307.584 
L 168.414586 304.464032 
L 167.57428 304.464032 
z
" clip-path="url(#pd841711e2b)" style="fill: #1f77b4"/>
   </g>
   <g id="patch_87">
    <path d="M 168.594451 307.584 
L 169.434756 307.584 
L 169.434756 306.551565 
L 168.594451 306.551565 
z
" clip-path="url(#pd841711e2b)" style="fill: #1f77b4"/>
   </g>
   <g id="patch_88">
    <path d="M 169.615759 307.584 
L 170.456065 307.584 
L 170.456065 306.443933 
L 169.615759 306.443933 
z
" clip-path="url(#pd841711e2b)" style="fill: #1f77b4"/>
   </g>
   <g id="patch_89">
    <path d="M 169.653375 307.584 
L 170.493681 307.584 
L 170.493681 288.399303 
L 169.653375 288.399303 
z
" clip-path="url(#pd841711e2b)" style="fill: #1f77b4"/>
   </g>
   <g id="patch_90">
    <path d="M 170.707091 307.584 
L 171.547397 307.584 
L 171.547397 306.355287 
L 170.707091 306.355287 
z
" clip-path="url(#pd841711e2b)" style="fill: #1f77b4"/>
   </g>
   <g id="patch_91">
    <path d="M 171.732503 307.584 
L 172.572809 307.584 
L 172.572809 305.535401 
L 171.732503 305.535401 
z
" clip-path="url(#pd841711e2b)" style="fill: #1f77b4"/>
   </g>
   <g id="patch_92">
    <path d="M 173.849503 307.584 
L 174.689809 307.584 
L 174.689809 299.050248 
L 173.849503 299.050248 
z
" clip-path="url(#pd841711e2b)" style="fill: #1f77b4"/>
   </g>
   <g id="patch_93">
    <path d="M 175.944882 307.584 
L 176.785188 307.584 
L 176.785188 303.32326 
L 175.944882 303.32326 
z
" clip-path="url(#pd841711e2b)" style="fill: #1f77b4"/>
   </g>
   <g id="patch_94">
    <path d="M 178.023545 307.584 
L 178.863851 307.584 
L 178.863851 305.287163 
L 178.023545 305.287163 
z
" clip-path="url(#pd841711e2b)" style="fill: #1f77b4"/>
   </g>
   <g id="patch_95">
    <path d="M 178.061819 307.584 
L 178.902124 307.584 
L 178.902124 304.454918 
L 178.061819 304.454918 
z
" clip-path="url(#pd841711e2b)" style="fill: #1f77b4"/>
   </g>
   <g id="patch_96">
    <path d="M 179.107056 307.584 
L 179.947362 307.584 
L 179.947362 305.664491 
L 179.107056 305.664491 
z
" clip-path="url(#pd841711e2b)" style="fill: #1f77b4"/>
   </g>
   <g id="patch_97">
    <path d="M 180.140962 307.584 
L 180.981268 307.584 
L 180.981268 286.72168 
L 180.140962 286.72168 
z
" clip-path="url(#pd841711e2b)" style="fill: #1f77b4"/>
   </g>
   <g id="patch_98">
    <path d="M 180.162775 307.584 
L 181.003081 307.584 
L 181.003081 300.410778 
L 180.162775 300.410778 
z
" clip-path="url(#pd841711e2b)" style="fill: #1f77b4"/>
   </g>
   <g id="patch_99">
    <path d="M 180.175774 307.584 
L 181.016079 307.584 
L 181.016079 306.424509 
L 180.175774 306.424509 
z
" clip-path="url(#pd841711e2b)" style="fill: #1f77b4"/>
   </g>
   <g id="patch_100">
    <path d="M 181.199983 307.584 
L 182.040289 307.584 
L 182.040289 300.441724 
L 181.199983 300.441724 
z
" clip-path="url(#pd841711e2b)" style="fill: #1f77b4"/>
   </g>
   <g id="patch_101">
    <path d="M 181.224569 307.584 
L 182.064875 307.584 
L 182.064875 305.846394 
L 181.224569 305.846394 
z
" clip-path="url(#pd841711e2b)" style="fill: #1f77b4"/>
   </g>
   <g id="patch_102">
    <path d="M 182.258074 307.584 
L 183.09838 307.584 
L 183.09838 282.689116 
L 182.258074 282.689116 
z
" clip-path="url(#pd841711e2b)" style="fill: #1f77b4"/>
   </g>
   <g id="patch_103">
    <path d="M 183.278629 307.584 
L 184.118935 307.584 
L 184.118935 304.038925 
L 183.278629 304.038925 
z
" clip-path="url(#pd841711e2b)" style="fill: #1f77b4"/>
   </g>
   <g id="patch_104">
    <path d="M 183.302462 307.584 
L 184.142768 307.584 
L 184.142768 305.969348 
L 183.302462 305.969348 
z
" clip-path="url(#pd841711e2b)" style="fill: #1f77b4"/>
   </g>
   <g id="patch_105">
    <path d="M 183.315605 307.584 
L 184.155911 307.584 
L 184.155911 305.309388 
L 183.315605 305.309388 
z
" clip-path="url(#pd841711e2b)" style="fill: #1f77b4"/>
   </g>
   <g id="patch_106">
    <path d="M 184.337025 307.584 
L 185.177331 307.584 
L 185.177331 293.029034 
L 184.337025 293.029034 
z
" clip-path="url(#pd841711e2b)" style="fill: #1f77b4"/>
   </g>
   <g id="patch_107">
    <path d="M 184.375075 307.584 
L 185.215381 307.584 
L 185.215381 304.07108 
L 184.375075 304.07108 
z
" clip-path="url(#pd841711e2b)" style="fill: #1f77b4"/>
   </g>
   <g id="patch_108">
    <path d="M 186.453737 307.584 
L 187.294043 307.584 
L 187.294043 304.582379 
L 186.453737 304.582379 
z
" clip-path="url(#pd841711e2b)" style="fill: #1f77b4"/>
   </g>
   <g id="patch_109">
    <path d="M 191.711386 307.584 
L 192.551692 307.584 
L 192.551692 305.674045 
L 191.711386 305.674045 
z
" clip-path="url(#pd841711e2b)" style="fill: #1f77b4"/>
   </g>
   <g id="patch_110">
    <path d="M 192.745388 307.584 
L 193.585694 307.584 
L 193.585694 296.041641 
L 192.745388 296.041641 
z
" clip-path="url(#pd841711e2b)" style="fill: #1f77b4"/>
   </g>
   <g id="patch_111">
    <path d="M 192.768821 307.584 
L 193.609126 307.584 
L 193.609126 301.606245 
L 192.768821 301.606245 
z
" clip-path="url(#pd841711e2b)" style="fill: #1f77b4"/>
   </g>
   <g id="patch_112">
    <path d="M 192.782252 307.584 
L 193.622557 307.584 
L 193.622557 306.022978 
L 192.782252 306.022978 
z
" clip-path="url(#pd841711e2b)" style="fill: #1f77b4"/>
   </g>
   <g id="patch_113">
    <path d="M 193.803319 307.584 
L 194.643625 307.584 
L 194.643625 305.873858 
L 193.803319 305.873858 
z
" clip-path="url(#pd841711e2b)" style="fill: #1f77b4"/>
   </g>
   <g id="patch_114">
    <path d="M 193.828819 307.584 
L 194.669125 307.584 
L 194.669125 304.741205 
L 193.828819 304.741205 
z
" clip-path="url(#pd841711e2b)" style="fill: #1f77b4"/>
   </g>
   <g id="patch_115">
    <path d="M 194.824371 307.584 
L 195.664677 307.584 
L 195.664677 298.396769 
L 194.824371 298.396769 
z
" clip-path="url(#pd841711e2b)" style="fill: #1f77b4"/>
   </g>
   <g id="patch_116">
    <path d="M 194.862292 307.584 
L 195.702598 307.584 
L 195.702598 303.687003 
L 194.862292 303.687003 
z
" clip-path="url(#pd841711e2b)" style="fill: #1f77b4"/>
   </g>
   <g id="patch_117">
    <path d="M 194.885132 307.584 
L 195.725438 307.584 
L 195.725438 301.175952 
L 194.885132 301.175952 
z
" clip-path="url(#pd841711e2b)" style="fill: #1f77b4"/>
   </g>
   <g id="patch_118">
    <path d="M 195.881613 307.584 
L 196.721919 307.584 
L 196.721919 306.348416 
L 195.881613 306.348416 
z
" clip-path="url(#pd841711e2b)" style="fill: #1f77b4"/>
   </g>
   <g id="patch_119">
    <path d="M 195.946381 307.584 
L 196.786686 307.584 
L 196.786686 306.186667 
L 195.946381 306.186667 
z
" clip-path="url(#pd841711e2b)" style="fill: #1f77b4"/>
   </g>
   <g id="patch_120">
    <path d="M 196.942029 307.584 
L 197.782335 307.584 
L 197.782335 298.820474 
L 196.942029 298.820474 
z
" clip-path="url(#pd841711e2b)" style="fill: #1f77b4"/>
   </g>
   <g id="patch_121">
    <path d="M 196.966423 307.584 
L 197.806729 307.584 
L 197.806729 306.054836 
L 196.966423 306.054836 
z
" clip-path="url(#pd841711e2b)" style="fill: #1f77b4"/>
   </g>
   <g id="patch_122">
    <path d="M 196.97995 307.584 
L 197.820256 307.584 
L 197.820256 305.435895 
L 196.97995 305.435895 
z
" clip-path="url(#pd841711e2b)" style="fill: #1f77b4"/>
   </g>
   <g id="patch_123">
    <path d="M 198.024867 307.584 
L 198.865173 307.584 
L 198.865173 306.456722 
L 198.024867 306.456722 
z
" clip-path="url(#pd841711e2b)" style="fill: #1f77b4"/>
   </g>
   <g id="patch_124">
    <path d="M 199.058548 307.584 
L 199.898854 307.584 
L 199.898854 304.776206 
L 199.058548 304.776206 
z
" clip-path="url(#pd841711e2b)" style="fill: #1f77b4"/>
   </g>
   <g id="patch_125">
    <path d="M 200.116944 307.584 
L 200.95725 307.584 
L 200.95725 305.240182 
L 200.116944 305.240182 
z
" clip-path="url(#pd841711e2b)" style="fill: #1f77b4"/>
   </g>
   <g id="patch_126">
    <path d="M 201.176783 307.584 
L 202.017089 307.584 
L 202.017089 305.760842 
L 201.176783 305.760842 
z
" clip-path="url(#pd841711e2b)" style="fill: #1f77b4"/>
   </g>
   <g id="patch_127">
    <path d="M 202.19652 307.584 
L 203.036826 307.584 
L 203.036826 306.61749 
L 202.19652 306.61749 
z
" clip-path="url(#pd841711e2b)" style="fill: #1f77b4"/>
   </g>
   <g id="patch_128">
    <path d="M 203.255205 307.584 
L 204.095511 307.584 
L 204.095511 304.111435 
L 203.255205 304.111435 
z
" clip-path="url(#pd841711e2b)" style="fill: #1f77b4"/>
   </g>
   <g id="patch_129">
    <path d="M 205.920652 307.584 
L 206.760958 307.584 
L 206.760958 306.378166 
L 205.920652 306.378166 
z
" clip-path="url(#pd841711e2b)" style="fill: #1f77b4"/>
   </g>
   <g id="patch_130">
    <path d="M 206.433422 307.584 
L 207.273728 307.584 
L 207.273728 301.652675 
L 206.433422 301.652675 
z
" clip-path="url(#pd841711e2b)" style="fill: #1f77b4"/>
   </g>
   <g id="patch_131">
    <path d="M 207.491962 307.584 
L 208.332268 307.584 
L 208.332268 299.904191 
L 207.491962 299.904191 
z
" clip-path="url(#pd841711e2b)" style="fill: #1f77b4"/>
   </g>
   <g id="patch_132">
    <path d="M 208.512549 307.584 
L 209.352855 307.584 
L 209.352855 306.108677 
L 208.512549 306.108677 
z
" clip-path="url(#pd841711e2b)" style="fill: #1f77b4"/>
   </g>
   <g id="patch_133">
    <path d="M 208.550919 307.584 
L 209.391225 307.584 
L 209.391225 271.191158 
L 208.550919 271.191158 
z
" clip-path="url(#pd841711e2b)" style="fill: #1f77b4"/>
   </g>
   <g id="patch_134">
    <path d="M 208.568998 307.584 
L 209.409304 307.584 
L 209.409304 306.593688 
L 208.568998 306.593688 
z
" clip-path="url(#pd841711e2b)" style="fill: #1f77b4"/>
   </g>
   <g id="patch_135">
    <path d="M 209.546071 307.584 
L 210.386376 307.584 
L 210.386376 302.422907 
L 209.546071 302.422907 
z
" clip-path="url(#pd841711e2b)" style="fill: #1f77b4"/>
   </g>
   <g id="patch_136">
    <path d="M 209.570977 307.584 
L 210.411283 307.584 
L 210.411283 305.262784 
L 209.570977 305.262784 
z
" clip-path="url(#pd841711e2b)" style="fill: #1f77b4"/>
   </g>
   <g id="patch_137">
    <path d="M 209.586572 307.584 
L 210.426878 307.584 
L 210.426878 306.10333 
L 209.586572 306.10333 
z
" clip-path="url(#pd841711e2b)" style="fill: #1f77b4"/>
   </g>
   <g id="patch_138">
    <path d="M 209.605405 307.584 
L 210.44571 307.584 
L 210.44571 304.285581 
L 209.605405 304.285581 
z
" clip-path="url(#pd841711e2b)" style="fill: #1f77b4"/>
   </g>
   <g id="patch_139">
    <path d="M 210.60421 307.584 
L 211.444516 307.584 
L 211.444516 304.487717 
L 210.60421 304.487717 
z
" clip-path="url(#pd841711e2b)" style="fill: #1f77b4"/>
   </g>
   <g id="patch_140">
    <path d="M 210.629534 307.584 
L 211.469839 307.584 
L 211.469839 304.606429 
L 210.629534 304.606429 
z
" clip-path="url(#pd841711e2b)" style="fill: #1f77b4"/>
   </g>
   <g id="patch_141">
    <path d="M 211.663311 307.584 
L 212.503617 307.584 
L 212.503617 286.569828 
L 211.663311 286.569828 
z
" clip-path="url(#pd841711e2b)" style="fill: #1f77b4"/>
   </g>
   <g id="patch_142">
    <path d="M 212.719159 307.584 
L 213.559465 307.584 
L 213.559465 306.391651 
L 212.719159 306.391651 
z
" clip-path="url(#pd841711e2b)" style="fill: #1f77b4"/>
   </g>
   <g id="patch_143">
    <path d="M 213.742679 307.584 
L 214.582985 307.584 
L 214.582985 296.043635 
L 213.742679 296.043635 
z
" clip-path="url(#pd841711e2b)" style="fill: #1f77b4"/>
   </g>
   <g id="patch_144">
    <path d="M 213.779639 307.584 
L 214.619944 307.584 
L 214.619944 303.203247 
L 213.779639 303.203247 
z
" clip-path="url(#pd841711e2b)" style="fill: #1f77b4"/>
   </g>
   <g id="patch_145">
    <path d="M 215.85899 307.584 
L 216.699296 307.584 
L 216.699296 305.881274 
L 215.85899 305.881274 
z
" clip-path="url(#pd841711e2b)" style="fill: #1f77b4"/>
   </g>
   <g id="patch_146">
    <path d="M 217.97668 307.584 
L 218.816986 307.584 
L 218.816986 302.124292 
L 217.97668 302.124292 
z
" clip-path="url(#pd841711e2b)" style="fill: #1f77b4"/>
   </g>
   <g id="patch_147">
    <path d="M 220.056672 307.584 
L 220.896978 307.584 
L 220.896978 306.629722 
L 220.056672 306.629722 
z
" clip-path="url(#pd841711e2b)" style="fill: #1f77b4"/>
   </g>
   <g id="patch_148">
    <path d="M 221.117312 307.584 
L 221.957618 307.584 
L 221.957618 299.55833 
L 221.117312 299.55833 
z
" clip-path="url(#pd841711e2b)" style="fill: #1f77b4"/>
   </g>
   <g id="patch_149">
    <path d="M 222.150834 307.584 
L 222.991139 307.584 
L 222.991139 290.073503 
L 222.150834 290.073503 
z
" clip-path="url(#pd841711e2b)" style="fill: #1f77b4"/>
   </g>
   <g id="patch_150">
    <path d="M 222.172679 307.584 
L 223.012985 307.584 
L 223.012985 296.508559 
L 222.172679 296.508559 
z
" clip-path="url(#pd841711e2b)" style="fill: #1f77b4"/>
   </g>
   <g id="patch_151">
    <path d="M 222.189412 307.584 
L 223.029718 307.584 
L 223.029718 305.853987 
L 222.189412 305.853987 
z
" clip-path="url(#pd841711e2b)" style="fill: #1f77b4"/>
   </g>
   <g id="patch_152">
    <path d="M 223.206954 307.584 
L 224.047259 307.584 
L 224.047259 306.060303 
L 223.206954 306.060303 
z
" clip-path="url(#pd841711e2b)" style="fill: #1f77b4"/>
   </g>
   <g id="patch_153">
    <path d="M 223.232325 307.584 
L 224.072631 307.584 
L 224.072631 303.056443 
L 223.232325 303.056443 
z
" clip-path="url(#pd841711e2b)" style="fill: #1f77b4"/>
   </g>
   <g id="patch_154">
    <path d="M 223.249635 307.584 
L 224.089941 307.584 
L 224.089941 305.856752 
L 223.249635 305.856752 
z
" clip-path="url(#pd841711e2b)" style="fill: #1f77b4"/>
   </g>
   <g id="patch_155">
    <path d="M 223.273612 307.584 
L 224.113918 307.584 
L 224.113918 306.403193 
L 223.273612 306.403193 
z
" clip-path="url(#pd841711e2b)" style="fill: #1f77b4"/>
   </g>
   <g id="patch_156">
    <path d="M 224.229608 307.584 
L 225.069914 307.584 
L 225.069914 289.144271 
L 224.229608 289.144271 
z
" clip-path="url(#pd841711e2b)" style="fill: #1f77b4"/>
   </g>
   <g id="patch_157">
    <path d="M 224.306428 307.584 
L 225.146734 307.584 
L 225.146734 304.775546 
L 224.306428 304.775546 
z
" clip-path="url(#pd841711e2b)" style="fill: #1f77b4"/>
   </g>
   <g id="patch_158">
    <path d="M 225.283052 307.584 
L 226.123357 307.584 
L 226.123357 305.72545 
L 225.283052 305.72545 
z
" clip-path="url(#pd841711e2b)" style="fill: #1f77b4"/>
   </g>
   <g id="patch_159">
    <path d="M 225.329564 307.584 
L 226.169869 307.584 
L 226.169869 306.434009 
L 225.329564 306.434009 
z
" clip-path="url(#pd841711e2b)" style="fill: #1f77b4"/>
   </g>
   <g id="patch_160">
    <path d="M 225.351137 307.584 
L 226.191443 307.584 
L 226.191443 292.20189 
L 225.351137 292.20189 
z
" clip-path="url(#pd841711e2b)" style="fill: #1f77b4"/>
   </g>
   <g id="patch_161">
    <path d="M 226.371483 307.584 
L 227.211789 307.584 
L 227.211789 302.782355 
L 226.371483 302.782355 
z
" clip-path="url(#pd841711e2b)" style="fill: #1f77b4"/>
   </g>
   <g id="patch_162">
    <path d="M 226.385684 307.584 
L 227.22599 307.584 
L 227.22599 302.657282 
L 226.385684 302.657282 
z
" clip-path="url(#pd841711e2b)" style="fill: #1f77b4"/>
   </g>
   <g id="patch_163">
    <path d="M 226.408331 307.584 
L 227.248637 307.584 
L 227.248637 304.453768 
L 226.408331 304.453768 
z
" clip-path="url(#pd841711e2b)" style="fill: #1f77b4"/>
   </g>
   <g id="patch_164">
    <path d="M 227.405325 307.584 
L 228.245631 307.584 
L 228.245631 304.291778 
L 227.405325 304.291778 
z
" clip-path="url(#pd841711e2b)" style="fill: #1f77b4"/>
   </g>
   <g id="patch_165">
    <path d="M 228.464042 307.584 
L 229.304347 307.584 
L 229.304347 265.112282 
L 228.464042 265.112282 
z
" clip-path="url(#pd841711e2b)" style="fill: #1f77b4"/>
   </g>
   <g id="patch_166">
    <path d="M 228.484413 307.584 
L 229.324719 307.584 
L 229.324719 305.948768 
L 228.484413 305.948768 
z
" clip-path="url(#pd841711e2b)" style="fill: #1f77b4"/>
   </g>
   <g id="patch_167">
    <path d="M 229.518848 307.584 
L 230.359153 307.584 
L 230.359153 304.173689 
L 229.518848 304.173689 
z
" clip-path="url(#pd841711e2b)" style="fill: #1f77b4"/>
   </g>
   <g id="patch_168">
    <path d="M 230.580978 307.584 
L 231.421284 307.584 
L 231.421284 303.727831 
L 230.580978 303.727831 
z
" clip-path="url(#pd841711e2b)" style="fill: #1f77b4"/>
   </g>
   <g id="patch_169">
    <path d="M 235.83712 307.584 
L 236.677426 307.584 
L 236.677426 300.376527 
L 235.83712 300.376527 
z
" clip-path="url(#pd841711e2b)" style="fill: #1f77b4"/>
   </g>
   <g id="patch_170">
    <path d="M 236.87444 307.584 
L 237.714746 307.584 
L 237.714746 306.462753 
L 236.87444 306.462753 
z
" clip-path="url(#pd841711e2b)" style="fill: #1f77b4"/>
   </g>
   <g id="patch_171">
    <path d="M 236.896895 307.584 
L 237.737201 307.584 
L 237.737201 292.26356 
L 236.896895 292.26356 
z
" clip-path="url(#pd841711e2b)" style="fill: #1f77b4"/>
   </g>
   <g id="patch_172">
    <path d="M 237.956108 307.584 
L 238.796414 307.584 
L 238.796414 89.396861 
L 237.956108 89.396861 
z
" clip-path="url(#pd841711e2b)" style="fill: #1f77b4"/>
   </g>
   <g id="patch_173">
    <path d="M 238.954577 307.584 
L 239.794883 307.584 
L 239.794883 305.979585 
L 238.954577 305.979585 
z
" clip-path="url(#pd841711e2b)" style="fill: #1f77b4"/>
   </g>
   <g id="patch_174">
    <path d="M 238.97575 307.584 
L 239.816055 307.584 
L 239.816055 303.346747 
L 238.97575 303.346747 
z
" clip-path="url(#pd841711e2b)" style="fill: #1f77b4"/>
   </g>
   <g id="patch_175">
    <path d="M 239.013302 307.584 
L 239.853608 307.584 
L 239.853608 254.464551 
L 239.013302 254.464551 
z
" clip-path="url(#pd841711e2b)" style="fill: #1f77b4"/>
   </g>
   <g id="patch_176">
    <path d="M 240.034338 307.584 
L 240.874644 307.584 
L 240.874644 306.379971 
L 240.034338 306.379971 
z
" clip-path="url(#pd841711e2b)" style="fill: #1f77b4"/>
   </g>
   <g id="patch_177">
    <path d="M 240.070608 307.584 
L 240.910914 307.584 
L 240.910914 301.393274 
L 240.070608 301.393274 
z
" clip-path="url(#pd841711e2b)" style="fill: #1f77b4"/>
   </g>
   <g id="patch_178">
    <path d="M 241.069462 307.584 
L 241.909768 307.584 
L 241.909768 305.515933 
L 241.069462 305.515933 
z
" clip-path="url(#pd841711e2b)" style="fill: #1f77b4"/>
   </g>
   <g id="patch_179">
    <path d="M 241.091115 307.584 
L 241.931421 307.584 
L 241.931421 299.708994 
L 241.091115 299.708994 
z
" clip-path="url(#pd841711e2b)" style="fill: #1f77b4"/>
   </g>
   <g id="patch_180">
    <path d="M 242.151499 307.584 
L 242.991804 307.584 
L 242.991804 304.322115 
L 242.151499 304.322115 
z
" clip-path="url(#pd841711e2b)" style="fill: #1f77b4"/>
   </g>
   <g id="patch_181">
    <path d="M 243.148493 307.584 
L 243.988799 307.584 
L 243.988799 294.974511 
L 243.148493 294.974511 
z
" clip-path="url(#pd841711e2b)" style="fill: #1f77b4"/>
   </g>
   <g id="patch_182">
    <path d="M 243.185661 307.584 
L 244.025967 307.584 
L 244.025967 297.426513 
L 243.185661 297.426513 
z
" clip-path="url(#pd841711e2b)" style="fill: #1f77b4"/>
   </g>
   <g id="patch_183">
    <path d="M 244.202161 307.584 
L 245.042467 307.584 
L 245.042467 306.535391 
L 244.202161 306.535391 
z
" clip-path="url(#pd841711e2b)" style="fill: #1f77b4"/>
   </g>
   <g id="patch_184">
    <path d="M 244.270086 307.584 
L 245.110391 307.584 
L 245.110391 306.078046 
L 244.270086 306.078046 
z
" clip-path="url(#pd841711e2b)" style="fill: #1f77b4"/>
   </g>
   <g id="patch_185">
    <path d="M 245.264484 307.584 
L 246.104789 307.584 
L 246.104789 304.981146 
L 245.264484 304.981146 
z
" clip-path="url(#pd841711e2b)" style="fill: #1f77b4"/>
   </g>
   <g id="patch_186">
    <path d="M 247.381837 307.584 
L 248.222142 307.584 
L 248.222142 304.059165 
L 247.381837 304.059165 
z
" clip-path="url(#pd841711e2b)" style="fill: #1f77b4"/>
   </g>
   <g id="patch_187">
    <path d="M 252.638989 307.584 
L 253.479294 307.584 
L 253.479294 292.497927 
L 252.638989 292.497927 
z
" clip-path="url(#pd841711e2b)" style="fill: #1f77b4"/>
   </g>
   <g id="patch_188">
    <path d="M 252.655593 307.584 
L 253.495899 307.584 
L 253.495899 300.541299 
L 252.655593 300.541299 
z
" clip-path="url(#pd841711e2b)" style="fill: #1f77b4"/>
   </g>
   <g id="patch_189">
    <path d="M 253.712146 307.584 
L 254.552452 307.584 
L 254.552452 267.865794 
L 253.712146 267.865794 
z
" clip-path="url(#pd841711e2b)" style="fill: #1f77b4"/>
   </g>
   <g id="patch_190">
    <path d="M 254.756342 307.584 
L 255.596647 307.584 
L 255.596647 279.675336 
L 254.756342 279.675336 
z
" clip-path="url(#pd841711e2b)" style="fill: #1f77b4"/>
   </g>
   <g id="patch_191">
    <path d="M 255.792556 307.584 
L 256.632861 307.584 
L 256.632861 296.131296 
L 255.792556 296.131296 
z
" clip-path="url(#pd841711e2b)" style="fill: #1f77b4"/>
   </g>
   <g id="patch_192">
    <path d="M 255.815299 307.584 
L 256.655604 307.584 
L 256.655604 54.144 
L 255.815299 54.144 
z
" clip-path="url(#pd841711e2b)" style="fill: #1f77b4"/>
   </g>
   <g id="patch_193">
    <path d="M 256.847393 307.584 
L 257.687699 307.584 
L 257.687699 305.712426 
L 256.847393 305.712426 
z
" clip-path="url(#pd841711e2b)" style="fill: #1f77b4"/>
   </g>
   <g id="patch_194">
    <path d="M 256.869672 307.584 
L 257.709978 307.584 
L 257.709978 284.390144 
L 256.869672 284.390144 
z
" clip-path="url(#pd841711e2b)" style="fill: #1f77b4"/>
   </g>
   <g id="patch_195">
    <path d="M 257.869519 307.584 
L 258.709825 307.584 
L 258.709825 200.136515 
L 257.869519 200.136515 
z
" clip-path="url(#pd841711e2b)" style="fill: #1f77b4"/>
   </g>
   <g id="patch_196">
    <path d="M 257.889409 307.584 
L 258.729715 307.584 
L 258.729715 305.607606 
L 257.889409 305.607606 
z
" clip-path="url(#pd841711e2b)" style="fill: #1f77b4"/>
   </g>
   <g id="patch_197">
    <path d="M 258.923812 307.584 
L 259.764118 307.584 
L 259.764118 296.984813 
L 258.923812 296.984813 
z
" clip-path="url(#pd841711e2b)" style="fill: #1f77b4"/>
   </g>
   <g id="patch_198">
    <path d="M 260.011907 307.584 
L 260.852213 307.584 
L 260.852213 301.228358 
L 260.011907 301.228358 
z
" clip-path="url(#pd841711e2b)" style="fill: #1f77b4"/>
   </g>
   <g id="patch_199">
    <path d="M 265.244601 307.584 
L 266.084907 307.584 
L 266.084907 306.300959 
L 265.244601 306.300959 
z
" clip-path="url(#pd841711e2b)" style="fill: #1f77b4"/>
   </g>
   <g id="patch_200">
    <path d="M 268.082121 307.584 
L 268.922426 307.584 
L 268.922426 306.531457 
L 268.082121 306.531457 
z
" clip-path="url(#pd841711e2b)" style="fill: #1f77b4"/>
   </g>
   <g id="patch_201">
    <path d="M 268.357041 307.584 
L 269.197347 307.584 
L 269.197347 265.056121 
L 268.357041 265.056121 
z
" clip-path="url(#pd841711e2b)" style="fill: #1f77b4"/>
   </g>
   <g id="patch_202">
    <path d="M 268.381788 307.584 
L 269.222094 307.584 
L 269.222094 303.098254 
L 268.381788 303.098254 
z
" clip-path="url(#pd841711e2b)" style="fill: #1f77b4"/>
   </g>
   <g id="patch_203">
    <path d="M 269.410805 307.584 
L 270.251111 307.584 
L 270.251111 303.506685 
L 269.410805 303.506685 
z
" clip-path="url(#pd841711e2b)" style="fill: #1f77b4"/>
   </g>
   <g id="patch_204">
    <path d="M 269.478217 307.584 
L 270.318523 307.584 
L 270.318523 300.708918 
L 269.478217 300.708918 
z
" clip-path="url(#pd841711e2b)" style="fill: #1f77b4"/>
   </g>
   <g id="patch_205">
    <path d="M 270.486768 307.584 
L 271.327073 307.584 
L 271.327073 304.437753 
L 270.486768 304.437753 
z
" clip-path="url(#pd841711e2b)" style="fill: #1f77b4"/>
   </g>
   <g id="patch_206">
    <path d="M 270.511787 307.584 
L 271.352092 307.584 
L 271.352092 304.293955 
L 270.511787 304.293955 
z
" clip-path="url(#pd841711e2b)" style="fill: #1f77b4"/>
   </g>
   <g id="patch_207">
    <path d="M 270.536774 307.584 
L 271.377079 307.584 
L 271.377079 300.823318 
L 270.536774 300.823318 
z
" clip-path="url(#pd841711e2b)" style="fill: #1f77b4"/>
   </g>
   <g id="patch_208">
    <path d="M 271.558466 307.584 
L 272.398772 307.584 
L 272.398772 303.983656 
L 271.558466 303.983656 
z
" clip-path="url(#pd841711e2b)" style="fill: #1f77b4"/>
   </g>
   <g id="patch_209">
    <path d="M 271.593887 307.584 
L 272.434193 307.584 
L 272.434193 306.130328 
L 271.593887 306.130328 
z
" clip-path="url(#pd841711e2b)" style="fill: #1f77b4"/>
   </g>
   <g id="patch_210">
    <path d="M 272.590866 307.584 
L 273.431172 307.584 
L 273.431172 304.914493 
L 272.590866 304.914493 
z
" clip-path="url(#pd841711e2b)" style="fill: #1f77b4"/>
   </g>
   <g id="patch_211">
    <path d="M 273.673832 307.584 
L 274.514138 307.584 
L 274.514138 306.46939 
L 273.673832 306.46939 
z
" clip-path="url(#pd841711e2b)" style="fill: #1f77b4"/>
   </g>
   <g id="patch_212">
    <path d="M 274.708379 307.584 
L 275.548685 307.584 
L 275.548685 304.920631 
L 274.708379 304.920631 
z
" clip-path="url(#pd841711e2b)" style="fill: #1f77b4"/>
   </g>
   <g id="patch_213">
    <path d="M 278.855751 307.584 
L 279.696057 307.584 
L 279.696057 306.226099 
L 278.855751 306.226099 
z
" clip-path="url(#pd841711e2b)" style="fill: #1f77b4"/>
   </g>
   <g id="patch_214">
    <path d="M 279.928139 307.584 
L 280.768445 307.584 
L 280.768445 306.557311 
L 279.928139 306.557311 
z
" clip-path="url(#pd841711e2b)" style="fill: #1f77b4"/>
   </g>
   <g id="patch_215">
    <path d="M 282.044835 307.584 
L 282.88514 307.584 
L 282.88514 303.568702 
L 282.044835 303.568702 
z
" clip-path="url(#pd841711e2b)" style="fill: #1f77b4"/>
   </g>
   <g id="patch_216">
    <path d="M 283.102782 307.584 
L 283.943088 307.584 
L 283.943088 304.917895 
L 283.102782 304.917895 
z
" clip-path="url(#pd841711e2b)" style="fill: #1f77b4"/>
   </g>
   <g id="patch_217">
    <path d="M 284.161531 307.584 
L 285.001836 307.584 
L 285.001836 304.514305 
L 284.161531 304.514305 
z
" clip-path="url(#pd841711e2b)" style="fill: #1f77b4"/>
   </g>
   <g id="patch_218">
    <path d="M 285.233566 307.584 
L 286.073872 307.584 
L 286.073872 296.343241 
L 285.233566 296.343241 
z
" clip-path="url(#pd841711e2b)" style="fill: #1f77b4"/>
   </g>
   <g id="patch_219">
    <path d="M 286.282217 307.584 
L 287.122523 307.584 
L 287.122523 303.868463 
L 286.282217 303.868463 
z
" clip-path="url(#pd841711e2b)" style="fill: #1f77b4"/>
   </g>
   <g id="patch_220">
    <path d="M 287.299166 307.584 
L 288.139472 307.584 
L 288.139472 300.545324 
L 287.299166 300.545324 
z
" clip-path="url(#pd841711e2b)" style="fill: #1f77b4"/>
   </g>
   <g id="patch_221">
    <path d="M 288.396445 307.584 
L 289.236751 307.584 
L 289.236751 302.20831 
L 288.396445 302.20831 
z
" clip-path="url(#pd841711e2b)" style="fill: #1f77b4"/>
   </g>
   <g id="patch_222">
    <path d="M 296.779981 307.584 
L 297.620287 307.584 
L 297.620287 305.968148 
L 296.779981 305.968148 
z
" clip-path="url(#pd841711e2b)" style="fill: #1f77b4"/>
   </g>
   <g id="patch_223">
    <path d="M 298.88331 307.584 
L 299.723616 307.584 
L 299.723616 305.527601 
L 298.88331 305.527601 
z
" clip-path="url(#pd841711e2b)" style="fill: #1f77b4"/>
   </g>
   <g id="patch_224">
    <path d="M 299.942475 307.584 
L 300.782781 307.584 
L 300.782781 301.411213 
L 299.942475 301.411213 
z
" clip-path="url(#pd841711e2b)" style="fill: #1f77b4"/>
   </g>
   <g id="patch_225">
    <path d="M 300.963271 307.584 
L 301.803576 307.584 
L 301.803576 305.356997 
L 300.963271 305.356997 
z
" clip-path="url(#pd841711e2b)" style="fill: #1f77b4"/>
   </g>
   <g id="patch_226">
    <path d="M 301.996087 307.584 
L 302.836392 307.584 
L 302.836392 138.462077 
L 301.996087 138.462077 
z
" clip-path="url(#pd841711e2b)" style="fill: #1f77b4"/>
   </g>
   <g id="patch_227">
    <path d="M 302.022051 307.584 
L 302.862357 307.584 
L 302.862357 288.168443 
L 302.022051 288.168443 
z
" clip-path="url(#pd841711e2b)" style="fill: #1f77b4"/>
   </g>
   <g id="patch_228">
    <path d="M 302.054106 307.584 
L 302.894412 307.584 
L 302.894412 306.256666 
L 302.054106 306.256666 
z
" clip-path="url(#pd841711e2b)" style="fill: #1f77b4"/>
   </g>
   <g id="patch_229">
    <path d="M 302.062152 307.584 
L 302.902458 307.584 
L 302.902458 306.26583 
L 302.062152 306.26583 
z
" clip-path="url(#pd841711e2b)" style="fill: #1f77b4"/>
   </g>
   <g id="patch_230">
    <path d="M 303.049963 307.584 
L 303.890269 307.584 
L 303.890269 289.957949 
L 303.049963 289.957949 
z
" clip-path="url(#pd841711e2b)" style="fill: #1f77b4"/>
   </g>
   <g id="patch_231">
    <path d="M 303.077146 307.584 
L 303.917451 307.584 
L 303.917451 305.837035 
L 303.077146 305.837035 
z
" clip-path="url(#pd841711e2b)" style="fill: #1f77b4"/>
   </g>
   <g id="patch_232">
    <path d="M 314.6393 307.584 
L 315.479606 307.584 
L 315.479606 305.615794 
L 314.6393 305.615794 
z
" clip-path="url(#pd841711e2b)" style="fill: #1f77b4"/>
   </g>
   <g id="patch_233">
    <path d="M 315.684521 307.584 
L 316.524827 307.584 
L 316.524827 298.225766 
L 315.684521 298.225766 
z
" clip-path="url(#pd841711e2b)" style="fill: #1f77b4"/>
   </g>
   <g id="patch_234">
    <path d="M 316.742372 307.584 
L 317.582678 307.584 
L 317.582678 303.484668 
L 316.742372 303.484668 
z
" clip-path="url(#pd841711e2b)" style="fill: #1f77b4"/>
   </g>
   <g id="patch_235">
    <path d="M 317.802435 307.584 
L 318.642741 307.584 
L 318.642741 297.940494 
L 317.802435 297.940494 
z
" clip-path="url(#pd841711e2b)" style="fill: #1f77b4"/>
   </g>
   <g id="patch_236">
    <path d="M 328.343922 307.584 
L 329.184228 307.584 
L 329.184228 305.924308 
L 328.343922 305.924308 
z
" clip-path="url(#pd841711e2b)" style="fill: #1f77b4"/>
   </g>
   <g id="patch_237">
    <path d="M 330.406669 307.584 
L 331.246975 307.584 
L 331.246975 305.790137 
L 330.406669 305.790137 
z
" clip-path="url(#pd841711e2b)" style="fill: #1f77b4"/>
   </g>
   <g id="patch_238">
    <path d="M 334.602909 307.584 
L 335.443215 307.584 
L 335.443215 292.253047 
L 334.602909 292.253047 
z
" clip-path="url(#pd841711e2b)" style="fill: #1f77b4"/>
   </g>
   <g id="patch_239">
    <path d="M 335.636206 307.584 
L 336.476512 307.584 
L 336.476512 303.605788 
L 335.636206 303.605788 
z
" clip-path="url(#pd841711e2b)" style="fill: #1f77b4"/>
   </g>
   <g id="patch_240">
    <path d="M 349.324897 307.584 
L 350.165203 307.584 
L 350.165203 305.97337 
L 349.324897 305.97337 
z
" clip-path="url(#pd841711e2b)" style="fill: #1f77b4"/>
   </g>
   <g id="patch_241">
    <path d="M 364.007938 307.584 
L 364.848243 307.584 
L 364.848243 300.811015 
L 364.007938 300.811015 
z
" clip-path="url(#pd841711e2b)" style="fill: #1f77b4"/>
   </g>
   <g id="patch_242">
    <path d="M 378.729829 307.584 
L 379.570135 307.584 
L 379.570135 304.554291 
L 378.729829 304.554291 
z
" clip-path="url(#pd841711e2b)" style="fill: #1f77b4"/>
   </g>
   <g id="patch_243">
    <path d="M 397.646967 307.584 
L 398.487273 307.584 
L 398.487273 305.477014 
L 397.646967 305.477014 
z
" clip-path="url(#pd841711e2b)" style="fill: #1f77b4"/>
   </g>
   <g id="matplotlib.axis_1">
    <g id="xtick_1">
     <g id="line2d_1">
      <defs>
       <path id="m761ee784c1" d="M 0 0 
L 0 3.5 
" style="stroke: #000000; stroke-width: 0.8"/>
      </defs>
      <g>
       <use xlink:href="#m761ee784c1" x="69.174039" y="307.584" style="stroke: #000000; stroke-width: 0.8"/>
      </g>
     </g>
     <g id="text_1">
      <!-- 50 -->
      <g transform="translate(62.811539 322.182437) scale(0.1 -0.1)">
       <defs>
        <path id="DejaVuSans-35" d="M 691 4666 
L 3169 4666 
L 3169 4134 
L 1269 4134 
L 1269 2991 
Q 1406 3038 1543 3061 
Q 1681 3084 1819 3084 
Q 2600 3084 3056 2656 
Q 3513 2228 3513 1497 
Q 3513 744 3044 326 
Q 2575 -91 1722 -91 
Q 1428 -91 1123 -41 
Q 819 9 494 109 
L 494 744 
Q 775 591 1075 516 
Q 1375 441 1709 441 
Q 2250 441 2565 725 
Q 2881 1009 2881 1497 
Q 2881 1984 2565 2268 
Q 2250 2553 1709 2553 
Q 1456 2553 1204 2497 
Q 953 2441 691 2322 
L 691 4666 
z
" transform="scale(0.015625)"/>
        <path id="DejaVuSans-30" d="M 2034 4250 
Q 1547 4250 1301 3770 
Q 1056 3291 1056 2328 
Q 1056 1369 1301 889 
Q 1547 409 2034 409 
Q 2525 409 2770 889 
Q 3016 1369 3016 2328 
Q 3016 3291 2770 3770 
Q 2525 4250 2034 4250 
z
M 2034 4750 
Q 2819 4750 3233 4129 
Q 3647 3509 3647 2328 
Q 3647 1150 3233 529 
Q 2819 -91 2034 -91 
Q 1250 -91 836 529 
Q 422 1150 422 2328 
Q 422 3509 836 4129 
Q 1250 4750 2034 4750 
z
" transform="scale(0.015625)"/>
       </defs>
       <use xlink:href="#DejaVuSans-35"/>
       <use xlink:href="#DejaVuSans-30" x="63.623047"/>
      </g>
     </g>
    </g>
    <g id="xtick_2">
     <g id="line2d_2">
      <g>
       <use xlink:href="#m761ee784c1" x="121.69315" y="307.584" style="stroke: #000000; stroke-width: 0.8"/>
      </g>
     </g>
     <g id="text_2">
      <!-- 100 -->
      <g transform="translate(112.1494 322.182437) scale(0.1 -0.1)">
       <defs>
        <path id="DejaVuSans-31" d="M 794 531 
L 1825 531 
L 1825 4091 
L 703 3866 
L 703 4441 
L 1819 4666 
L 2450 4666 
L 2450 531 
L 3481 531 
L 3481 0 
L 794 0 
L 794 531 
z
" transform="scale(0.015625)"/>
       </defs>
       <use xlink:href="#DejaVuSans-31"/>
       <use xlink:href="#DejaVuSans-30" x="63.623047"/>
       <use xlink:href="#DejaVuSans-30" x="127.246094"/>
      </g>
     </g>
    </g>
    <g id="xtick_3">
     <g id="line2d_3">
      <g>
       <use xlink:href="#m761ee784c1" x="174.212261" y="307.584" style="stroke: #000000; stroke-width: 0.8"/>
      </g>
     </g>
     <g id="text_3">
      <!-- 150 -->
      <g transform="translate(164.668511 322.182437) scale(0.1 -0.1)">
       <use xlink:href="#DejaVuSans-31"/>
       <use xlink:href="#DejaVuSans-35" x="63.623047"/>
       <use xlink:href="#DejaVuSans-30" x="127.246094"/>
      </g>
     </g>
    </g>
    <g id="xtick_4">
     <g id="line2d_4">
      <g>
       <use xlink:href="#m761ee784c1" x="226.731373" y="307.584" style="stroke: #000000; stroke-width: 0.8"/>
      </g>
     </g>
     <g id="text_4">
      <!-- 200 -->
      <g transform="translate(217.187623 322.182437) scale(0.1 -0.1)">
       <defs>
        <path id="DejaVuSans-32" d="M 1228 531 
L 3431 531 
L 3431 0 
L 469 0 
L 469 531 
Q 828 903 1448 1529 
Q 2069 2156 2228 2338 
Q 2531 2678 2651 2914 
Q 2772 3150 2772 3378 
Q 2772 3750 2511 3984 
Q 2250 4219 1831 4219 
Q 1534 4219 1204 4116 
Q 875 4013 500 3803 
L 500 4441 
Q 881 4594 1212 4672 
Q 1544 4750 1819 4750 
Q 2544 4750 2975 4387 
Q 3406 4025 3406 3419 
Q 3406 3131 3298 2873 
Q 3191 2616 2906 2266 
Q 2828 2175 2409 1742 
Q 1991 1309 1228 531 
z
" transform="scale(0.015625)"/>
       </defs>
       <use xlink:href="#DejaVuSans-32"/>
       <use xlink:href="#DejaVuSans-30" x="63.623047"/>
       <use xlink:href="#DejaVuSans-30" x="127.246094"/>
      </g>
     </g>
    </g>
    <g id="xtick_5">
     <g id="line2d_5">
      <g>
       <use xlink:href="#m761ee784c1" x="279.250484" y="307.584" style="stroke: #000000; stroke-width: 0.8"/>
      </g>
     </g>
     <g id="text_5">
      <!-- 250 -->
      <g transform="translate(269.706734 322.182437) scale(0.1 -0.1)">
       <use xlink:href="#DejaVuSans-32"/>
       <use xlink:href="#DejaVuSans-35" x="63.623047"/>
       <use xlink:href="#DejaVuSans-30" x="127.246094"/>
      </g>
     </g>
    </g>
    <g id="xtick_6">
     <g id="line2d_6">
      <g>
       <use xlink:href="#m761ee784c1" x="331.769595" y="307.584" style="stroke: #000000; stroke-width: 0.8"/>
      </g>
     </g>
     <g id="text_6">
      <!-- 300 -->
      <g transform="translate(322.225845 322.182437) scale(0.1 -0.1)">
       <defs>
        <path id="DejaVuSans-33" d="M 2597 2516 
Q 3050 2419 3304 2112 
Q 3559 1806 3559 1356 
Q 3559 666 3084 287 
Q 2609 -91 1734 -91 
Q 1441 -91 1130 -33 
Q 819 25 488 141 
L 488 750 
Q 750 597 1062 519 
Q 1375 441 1716 441 
Q 2309 441 2620 675 
Q 2931 909 2931 1356 
Q 2931 1769 2642 2001 
Q 2353 2234 1838 2234 
L 1294 2234 
L 1294 2753 
L 1863 2753 
Q 2328 2753 2575 2939 
Q 2822 3125 2822 3475 
Q 2822 3834 2567 4026 
Q 2313 4219 1838 4219 
Q 1578 4219 1281 4162 
Q 984 4106 628 3988 
L 628 4550 
Q 988 4650 1302 4700 
Q 1616 4750 1894 4750 
Q 2613 4750 3031 4423 
Q 3450 4097 3450 3541 
Q 3450 3153 3228 2886 
Q 3006 2619 2597 2516 
z
" transform="scale(0.015625)"/>
       </defs>
       <use xlink:href="#DejaVuSans-33"/>
       <use xlink:href="#DejaVuSans-30" x="63.623047"/>
       <use xlink:href="#DejaVuSans-30" x="127.246094"/>
      </g>
     </g>
    </g>
    <g id="xtick_7">
     <g id="line2d_7">
      <g>
       <use xlink:href="#m761ee784c1" x="384.288707" y="307.584" style="stroke: #000000; stroke-width: 0.8"/>
      </g>
     </g>
     <g id="text_7">
      <!-- 350 -->
      <g transform="translate(374.744957 322.182437) scale(0.1 -0.1)">
       <use xlink:href="#DejaVuSans-33"/>
       <use xlink:href="#DejaVuSans-35" x="63.623047"/>
       <use xlink:href="#DejaVuSans-30" x="127.246094"/>
      </g>
     </g>
    </g>
    <g id="text_8">
     <!-- ${m/z}$ -->
     <g transform="translate(226.96 335.860562) scale(0.1 -0.1)">
      <defs>
       <path id="DejaVuSans-Oblique-6d" d="M 5747 2113 
L 5338 0 
L 4763 0 
L 5166 2094 
Q 5191 2228 5203 2325 
Q 5216 2422 5216 2491 
Q 5216 2772 5059 2928 
Q 4903 3084 4622 3084 
Q 4203 3084 3875 2770 
Q 3547 2456 3450 1953 
L 3066 0 
L 2491 0 
L 2900 2094 
Q 2925 2209 2937 2307 
Q 2950 2406 2950 2484 
Q 2950 2769 2794 2926 
Q 2638 3084 2363 3084 
Q 1938 3084 1609 2770 
Q 1281 2456 1184 1953 
L 800 0 
L 225 0 
L 909 3500 
L 1484 3500 
L 1375 2956 
Q 1609 3263 1923 3423 
Q 2238 3584 2597 3584 
Q 2978 3584 3223 3384 
Q 3469 3184 3519 2828 
Q 3781 3197 4126 3390 
Q 4472 3584 4856 3584 
Q 5306 3584 5551 3325 
Q 5797 3066 5797 2591 
Q 5797 2488 5784 2364 
Q 5772 2241 5747 2113 
z
" transform="scale(0.015625)"/>
       <path id="DejaVuSans-2f" d="M 1625 4666 
L 2156 4666 
L 531 -594 
L 0 -594 
L 1625 4666 
z
" transform="scale(0.015625)"/>
       <path id="DejaVuSans-Oblique-7a" d="M 744 3500 
L 3475 3500 
L 3372 2975 
L 738 459 
L 2913 459 
L 2822 0 
L -19 0 
L 84 525 
L 2719 3041 
L 653 3041 
L 744 3500 
z
" transform="scale(0.015625)"/>
      </defs>
      <use xlink:href="#DejaVuSans-Oblique-6d" transform="translate(0 0.09375)"/>
      <use xlink:href="#DejaVuSans-2f" transform="translate(97.412109 0.09375)"/>
      <use xlink:href="#DejaVuSans-Oblique-7a" transform="translate(131.103516 0.09375)"/>
     </g>
    </g>
   </g>
   <g id="matplotlib.axis_2">
    <g id="ytick_1">
     <g id="line2d_8">
      <defs>
       <path id="mabf41622c9" d="M 0 0 
L -3.5 0 
" style="stroke: #000000; stroke-width: 0.8"/>
      </defs>
      <g>
       <use xlink:href="#mabf41622c9" x="57.6" y="307.584" style="stroke: #000000; stroke-width: 0.8"/>
      </g>
     </g>
     <g id="text_9">
      <!-- 0.0 -->
      <g transform="translate(34.696875 311.383219) scale(0.1 -0.1)">
       <defs>
        <path id="DejaVuSans-2e" d="M 684 794 
L 1344 794 
L 1344 0 
L 684 0 
L 684 794 
z
" transform="scale(0.015625)"/>
       </defs>
       <use xlink:href="#DejaVuSans-30"/>
       <use xlink:href="#DejaVuSans-2e" x="63.623047"/>
       <use xlink:href="#DejaVuSans-30" x="95.410156"/>
      </g>
     </g>
    </g>
    <g id="ytick_2">
     <g id="line2d_9">
      <g>
       <use xlink:href="#mabf41622c9" x="57.6" y="268.278332" style="stroke: #000000; stroke-width: 0.8"/>
      </g>
     </g>
     <g id="text_10">
      <!-- 0.2 -->
      <g transform="translate(34.696875 272.077551) scale(0.1 -0.1)">
       <use xlink:href="#DejaVuSans-30"/>
       <use xlink:href="#DejaVuSans-2e" x="63.623047"/>
       <use xlink:href="#DejaVuSans-32" x="95.410156"/>
      </g>
     </g>
    </g>
    <g id="ytick_3">
     <g id="line2d_10">
      <g>
       <use xlink:href="#mabf41622c9" x="57.6" y="228.972664" style="stroke: #000000; stroke-width: 0.8"/>
      </g>
     </g>
     <g id="text_11">
      <!-- 0.4 -->
      <g transform="translate(34.696875 232.771883) scale(0.1 -0.1)">
       <defs>
        <path id="DejaVuSans-34" d="M 2419 4116 
L 825 1625 
L 2419 1625 
L 2419 4116 
z
M 2253 4666 
L 3047 4666 
L 3047 1625 
L 3713 1625 
L 3713 1100 
L 3047 1100 
L 3047 0 
L 2419 0 
L 2419 1100 
L 313 1100 
L 313 1709 
L 2253 4666 
z
" transform="scale(0.015625)"/>
       </defs>
       <use xlink:href="#DejaVuSans-30"/>
       <use xlink:href="#DejaVuSans-2e" x="63.623047"/>
       <use xlink:href="#DejaVuSans-34" x="95.410156"/>
      </g>
     </g>
    </g>
    <g id="ytick_4">
     <g id="line2d_11">
      <g>
       <use xlink:href="#mabf41622c9" x="57.6" y="189.666996" style="stroke: #000000; stroke-width: 0.8"/>
      </g>
     </g>
     <g id="text_12">
      <!-- 0.6 -->
      <g transform="translate(34.696875 193.466214) scale(0.1 -0.1)">
       <defs>
        <path id="DejaVuSans-36" d="M 2113 2584 
Q 1688 2584 1439 2293 
Q 1191 2003 1191 1497 
Q 1191 994 1439 701 
Q 1688 409 2113 409 
Q 2538 409 2786 701 
Q 3034 994 3034 1497 
Q 3034 2003 2786 2293 
Q 2538 2584 2113 2584 
z
M 3366 4563 
L 3366 3988 
Q 3128 4100 2886 4159 
Q 2644 4219 2406 4219 
Q 1781 4219 1451 3797 
Q 1122 3375 1075 2522 
Q 1259 2794 1537 2939 
Q 1816 3084 2150 3084 
Q 2853 3084 3261 2657 
Q 3669 2231 3669 1497 
Q 3669 778 3244 343 
Q 2819 -91 2113 -91 
Q 1303 -91 875 529 
Q 447 1150 447 2328 
Q 447 3434 972 4092 
Q 1497 4750 2381 4750 
Q 2619 4750 2861 4703 
Q 3103 4656 3366 4563 
z
" transform="scale(0.015625)"/>
       </defs>
       <use xlink:href="#DejaVuSans-30"/>
       <use xlink:href="#DejaVuSans-2e" x="63.623047"/>
       <use xlink:href="#DejaVuSans-36" x="95.410156"/>
      </g>
     </g>
    </g>
    <g id="ytick_5">
     <g id="line2d_12">
      <g>
       <use xlink:href="#mabf41622c9" x="57.6" y="150.361328" style="stroke: #000000; stroke-width: 0.8"/>
      </g>
     </g>
     <g id="text_13">
      <!-- 0.8 -->
      <g transform="translate(34.696875 154.160546) scale(0.1 -0.1)">
       <defs>
        <path id="DejaVuSans-38" d="M 2034 2216 
Q 1584 2216 1326 1975 
Q 1069 1734 1069 1313 
Q 1069 891 1326 650 
Q 1584 409 2034 409 
Q 2484 409 2743 651 
Q 3003 894 3003 1313 
Q 3003 1734 2745 1975 
Q 2488 2216 2034 2216 
z
M 1403 2484 
Q 997 2584 770 2862 
Q 544 3141 544 3541 
Q 544 4100 942 4425 
Q 1341 4750 2034 4750 
Q 2731 4750 3128 4425 
Q 3525 4100 3525 3541 
Q 3525 3141 3298 2862 
Q 3072 2584 2669 2484 
Q 3125 2378 3379 2068 
Q 3634 1759 3634 1313 
Q 3634 634 3220 271 
Q 2806 -91 2034 -91 
Q 1263 -91 848 271 
Q 434 634 434 1313 
Q 434 1759 690 2068 
Q 947 2378 1403 2484 
z
M 1172 3481 
Q 1172 3119 1398 2916 
Q 1625 2713 2034 2713 
Q 2441 2713 2670 2916 
Q 2900 3119 2900 3481 
Q 2900 3844 2670 4047 
Q 2441 4250 2034 4250 
Q 1625 4250 1398 4047 
Q 1172 3844 1172 3481 
z
" transform="scale(0.015625)"/>
       </defs>
       <use xlink:href="#DejaVuSans-30"/>
       <use xlink:href="#DejaVuSans-2e" x="63.623047"/>
       <use xlink:href="#DejaVuSans-38" x="95.410156"/>
      </g>
     </g>
    </g>
    <g id="ytick_6">
     <g id="line2d_13">
      <g>
       <use xlink:href="#mabf41622c9" x="57.6" y="111.055659" style="stroke: #000000; stroke-width: 0.8"/>
      </g>
     </g>
     <g id="text_14">
      <!-- 1.0 -->
      <g transform="translate(34.696875 114.854878) scale(0.1 -0.1)">
       <use xlink:href="#DejaVuSans-31"/>
       <use xlink:href="#DejaVuSans-2e" x="63.623047"/>
       <use xlink:href="#DejaVuSans-30" x="95.410156"/>
      </g>
     </g>
    </g>
    <g id="ytick_7">
     <g id="line2d_14">
      <g>
       <use xlink:href="#mabf41622c9" x="57.6" y="71.749991" style="stroke: #000000; stroke-width: 0.8"/>
      </g>
     </g>
     <g id="text_15">
      <!-- 1.2 -->
      <g transform="translate(34.696875 75.54921) scale(0.1 -0.1)">
       <use xlink:href="#DejaVuSans-31"/>
       <use xlink:href="#DejaVuSans-2e" x="63.623047"/>
       <use xlink:href="#DejaVuSans-32" x="95.410156"/>
      </g>
     </g>
    </g>
    <g id="text_16">
     <!-- intensities -->
     <g transform="translate(28.617187 200.3155) rotate(-90) scale(0.1 -0.1)">
      <defs>
       <path id="DejaVuSans-69" d="M 603 3500 
L 1178 3500 
L 1178 0 
L 603 0 
L 603 3500 
z
M 603 4863 
L 1178 4863 
L 1178 4134 
L 603 4134 
L 603 4863 
z
" transform="scale(0.015625)"/>
       <path id="DejaVuSans-6e" d="M 3513 2113 
L 3513 0 
L 2938 0 
L 2938 2094 
Q 2938 2591 2744 2837 
Q 2550 3084 2163 3084 
Q 1697 3084 1428 2787 
Q 1159 2491 1159 1978 
L 1159 0 
L 581 0 
L 581 3500 
L 1159 3500 
L 1159 2956 
Q 1366 3272 1645 3428 
Q 1925 3584 2291 3584 
Q 2894 3584 3203 3211 
Q 3513 2838 3513 2113 
z
" transform="scale(0.015625)"/>
       <path id="DejaVuSans-74" d="M 1172 4494 
L 1172 3500 
L 2356 3500 
L 2356 3053 
L 1172 3053 
L 1172 1153 
Q 1172 725 1289 603 
Q 1406 481 1766 481 
L 2356 481 
L 2356 0 
L 1766 0 
Q 1100 0 847 248 
Q 594 497 594 1153 
L 594 3053 
L 172 3053 
L 172 3500 
L 594 3500 
L 594 4494 
L 1172 4494 
z
" transform="scale(0.015625)"/>
       <path id="DejaVuSans-65" d="M 3597 1894 
L 3597 1613 
L 953 1613 
Q 991 1019 1311 708 
Q 1631 397 2203 397 
Q 2534 397 2845 478 
Q 3156 559 3463 722 
L 3463 178 
Q 3153 47 2828 -22 
Q 2503 -91 2169 -91 
Q 1331 -91 842 396 
Q 353 884 353 1716 
Q 353 2575 817 3079 
Q 1281 3584 2069 3584 
Q 2775 3584 3186 3129 
Q 3597 2675 3597 1894 
z
M 3022 2063 
Q 3016 2534 2758 2815 
Q 2500 3097 2075 3097 
Q 1594 3097 1305 2825 
Q 1016 2553 972 2059 
L 3022 2063 
z
" transform="scale(0.015625)"/>
       <path id="DejaVuSans-73" d="M 2834 3397 
L 2834 2853 
Q 2591 2978 2328 3040 
Q 2066 3103 1784 3103 
Q 1356 3103 1142 2972 
Q 928 2841 928 2578 
Q 928 2378 1081 2264 
Q 1234 2150 1697 2047 
L 1894 2003 
Q 2506 1872 2764 1633 
Q 3022 1394 3022 966 
Q 3022 478 2636 193 
Q 2250 -91 1575 -91 
Q 1294 -91 989 -36 
Q 684 19 347 128 
L 347 722 
Q 666 556 975 473 
Q 1284 391 1588 391 
Q 1994 391 2212 530 
Q 2431 669 2431 922 
Q 2431 1156 2273 1281 
Q 2116 1406 1581 1522 
L 1381 1569 
Q 847 1681 609 1914 
Q 372 2147 372 2553 
Q 372 3047 722 3315 
Q 1072 3584 1716 3584 
Q 2034 3584 2315 3537 
Q 2597 3491 2834 3397 
z
" transform="scale(0.015625)"/>
      </defs>
      <use xlink:href="#DejaVuSans-69"/>
      <use xlink:href="#DejaVuSans-6e" x="27.783203"/>
      <use xlink:href="#DejaVuSans-74" x="91.162109"/>
      <use xlink:href="#DejaVuSans-65" x="130.371094"/>
      <use xlink:href="#DejaVuSans-6e" x="191.894531"/>
      <use xlink:href="#DejaVuSans-73" x="255.273438"/>
      <use xlink:href="#DejaVuSans-69" x="307.373047"/>
      <use xlink:href="#DejaVuSans-74" x="335.15625"/>
      <use xlink:href="#DejaVuSans-69" x="374.365234"/>
      <use xlink:href="#DejaVuSans-65" x="402.148438"/>
      <use xlink:href="#DejaVuSans-73" x="463.671875"/>
     </g>
    </g>
    <g id="text_17">
     <!-- 1e6 -->
     <g transform="translate(57.6 38.472) scale(0.1 -0.1)">
      <use xlink:href="#DejaVuSans-31"/>
      <use xlink:href="#DejaVuSans-65" x="63.623047"/>
      <use xlink:href="#DejaVuSans-36" x="125.146484"/>
     </g>
    </g>
   </g>
   <g id="patch_244">
    <path d="M 57.6 307.584 
L 57.6 41.472 
" style="fill: none; stroke: #000000; stroke-width: 0.8; stroke-linejoin: miter; stroke-linecap: square"/>
   </g>
   <g id="patch_245">
    <path d="M 414.72 307.584 
L 414.72 41.472 
" style="fill: none; stroke: #000000; stroke-width: 0.8; stroke-linejoin: miter; stroke-linecap: square"/>
   </g>
   <g id="patch_246">
    <path d="M 57.6 307.584 
L 414.72 307.584 
" style="fill: none; stroke: #000000; stroke-width: 0.8; stroke-linejoin: miter; stroke-linecap: square"/>
   </g>
   <g id="patch_247">
    <path d="M 57.6 41.472 
L 414.72 41.472 
" style="fill: none; stroke: #000000; stroke-width: 0.8; stroke-linejoin: miter; stroke-linecap: square"/>
   </g>
   <g id="text_18">
    <!-- 102.0554 -->
    <g transform="translate(113.137375 161.062008) scale(0.06 -0.06)">
     <use xlink:href="#DejaVuSans-31"/>
     <use xlink:href="#DejaVuSans-30" x="63.623047"/>
     <use xlink:href="#DejaVuSans-32" x="127.246094"/>
     <use xlink:href="#DejaVuSans-2e" x="190.869141"/>
     <use xlink:href="#DejaVuSans-30" x="222.65625"/>
     <use xlink:href="#DejaVuSans-35" x="286.279297"/>
     <use xlink:href="#DejaVuSans-35" x="349.902344"/>
     <use xlink:href="#DejaVuSans-34" x="413.525391"/>
    </g>
   </g>
   <g id="text_19">
    <!-- 130.0652 -->
    <g transform="translate(142.558399 264.459867) scale(0.06 -0.06)">
     <use xlink:href="#DejaVuSans-31"/>
     <use xlink:href="#DejaVuSans-33" x="63.623047"/>
     <use xlink:href="#DejaVuSans-30" x="127.246094"/>
     <use xlink:href="#DejaVuSans-2e" x="190.869141"/>
     <use xlink:href="#DejaVuSans-30" x="222.65625"/>
     <use xlink:href="#DejaVuSans-36" x="286.279297"/>
     <use xlink:href="#DejaVuSans-35" x="349.902344"/>
     <use xlink:href="#DejaVuSans-32" x="413.525391"/>
    </g>
   </g>
   <g id="text_20">
    <!-- 183.0916 -->
    <g transform="translate(188.896385 269.56566) scale(0.06 -0.06)">
     <defs>
      <path id="DejaVuSans-39" d="M 703 97 
L 703 672 
Q 941 559 1184 500 
Q 1428 441 1663 441 
Q 2288 441 2617 861 
Q 2947 1281 2994 2138 
Q 2813 1869 2534 1725 
Q 2256 1581 1919 1581 
Q 1219 1581 811 2004 
Q 403 2428 403 3163 
Q 403 3881 828 4315 
Q 1253 4750 1959 4750 
Q 2769 4750 3195 4129 
Q 3622 3509 3622 2328 
Q 3622 1225 3098 567 
Q 2575 -91 1691 -91 
Q 1453 -91 1209 -44 
Q 966 3 703 97 
z
M 1959 2075 
Q 2384 2075 2632 2365 
Q 2881 2656 2881 3163 
Q 2881 3666 2632 3958 
Q 2384 4250 1959 4250 
Q 1534 4250 1286 3958 
Q 1038 3666 1038 3163 
Q 1038 2656 1286 2365 
Q 1534 2075 1959 2075 
z
" transform="scale(0.015625)"/>
     </defs>
     <use xlink:href="#DejaVuSans-31"/>
     <use xlink:href="#DejaVuSans-38" x="63.623047"/>
     <use xlink:href="#DejaVuSans-33" x="127.246094"/>
     <use xlink:href="#DejaVuSans-2e" x="190.869141"/>
     <use xlink:href="#DejaVuSans-30" x="222.65625"/>
     <use xlink:href="#DejaVuSans-39" x="286.279297"/>
     <use xlink:href="#DejaVuSans-31" x="349.902344"/>
     <use xlink:href="#DejaVuSans-36" x="413.525391"/>
    </g>
   </g>
   <g id="text_21">
    <!-- 202.0496 -->
    <g transform="translate(213.849507 261.182687) scale(0.06 -0.06)">
     <use xlink:href="#DejaVuSans-32"/>
     <use xlink:href="#DejaVuSans-30" x="63.623047"/>
     <use xlink:href="#DejaVuSans-32" x="127.246094"/>
     <use xlink:href="#DejaVuSans-2e" x="190.869141"/>
     <use xlink:href="#DejaVuSans-30" x="222.65625"/>
     <use xlink:href="#DejaVuSans-34" x="286.279297"/>
     <use xlink:href="#DejaVuSans-39" x="349.902344"/>
     <use xlink:href="#DejaVuSans-36" x="413.525391"/>
    </g>
   </g>
   <g id="text_22">
    <!-- 211.0863 -->
    <g transform="translate(227.661574 86.192486) scale(0.06 -0.06)">
     <use xlink:href="#DejaVuSans-32"/>
     <use xlink:href="#DejaVuSans-31" x="63.623047"/>
     <use xlink:href="#DejaVuSans-31" x="127.246094"/>
     <use xlink:href="#DejaVuSans-2e" x="190.869141"/>
     <use xlink:href="#DejaVuSans-30" x="222.65625"/>
     <use xlink:href="#DejaVuSans-38" x="286.279297"/>
     <use xlink:href="#DejaVuSans-36" x="349.902344"/>
     <use xlink:href="#DejaVuSans-33" x="413.525391"/>
    </g>
   </g>
   <g id="text_23">
    <!-- 212.0928 -->
    <g transform="translate(227.998767 249.280176) scale(0.06 -0.06)">
     <use xlink:href="#DejaVuSans-32"/>
     <use xlink:href="#DejaVuSans-31" x="63.623047"/>
     <use xlink:href="#DejaVuSans-32" x="127.246094"/>
     <use xlink:href="#DejaVuSans-2e" x="190.869141"/>
     <use xlink:href="#DejaVuSans-30" x="222.65625"/>
     <use xlink:href="#DejaVuSans-39" x="286.279297"/>
     <use xlink:href="#DejaVuSans-32" x="349.902344"/>
     <use xlink:href="#DejaVuSans-38" x="413.525391"/>
    </g>
   </g>
   <g id="text_24">
    <!-- 226.0866 -->
    <g transform="translate(241.257611 264.841419) scale(0.06 -0.06)">
     <use xlink:href="#DejaVuSans-32"/>
     <use xlink:href="#DejaVuSans-32" x="63.623047"/>
     <use xlink:href="#DejaVuSans-36" x="127.246094"/>
     <use xlink:href="#DejaVuSans-2e" x="190.869141"/>
     <use xlink:href="#DejaVuSans-30" x="222.65625"/>
     <use xlink:href="#DejaVuSans-38" x="286.279297"/>
     <use xlink:href="#DejaVuSans-36" x="349.902344"/>
     <use xlink:href="#DejaVuSans-36" x="413.525391"/>
    </g>
   </g>
   <g id="text_25">
    <!-- 227.0807 -->
    <g transform="translate(235.101807 284.570961) scale(0.06 -0.06)">
     <defs>
      <path id="DejaVuSans-37" d="M 525 4666 
L 3525 4666 
L 3525 4397 
L 1831 0 
L 1172 0 
L 2766 4134 
L 525 4134 
L 525 4666 
z
" transform="scale(0.015625)"/>
     </defs>
     <use xlink:href="#DejaVuSans-32"/>
     <use xlink:href="#DejaVuSans-32" x="63.623047"/>
     <use xlink:href="#DejaVuSans-37" x="127.246094"/>
     <use xlink:href="#DejaVuSans-2e" x="190.869141"/>
     <use xlink:href="#DejaVuSans-30" x="222.65625"/>
     <use xlink:href="#DejaVuSans-38" x="286.279297"/>
     <use xlink:href="#DejaVuSans-30" x="349.902344"/>
     <use xlink:href="#DejaVuSans-37" x="413.525391"/>
    </g>
   </g>
   <g id="text_26">
    <!-- 228.0889 -->
    <g transform="translate(245.520764 50.939625) scale(0.06 -0.06)">
     <use xlink:href="#DejaVuSans-32"/>
     <use xlink:href="#DejaVuSans-32" x="63.623047"/>
     <use xlink:href="#DejaVuSans-38" x="127.246094"/>
     <use xlink:href="#DejaVuSans-2e" x="190.869141"/>
     <use xlink:href="#DejaVuSans-30" x="222.65625"/>
     <use xlink:href="#DejaVuSans-38" x="286.279297"/>
     <use xlink:href="#DejaVuSans-38" x="349.902344"/>
     <use xlink:href="#DejaVuSans-39" x="413.525391"/>
    </g>
   </g>
   <g id="text_27">
    <!-- 230.0446 -->
    <g transform="translate(247.574984 196.93214) scale(0.06 -0.06)">
     <use xlink:href="#DejaVuSans-32"/>
     <use xlink:href="#DejaVuSans-33" x="63.623047"/>
     <use xlink:href="#DejaVuSans-30" x="127.246094"/>
     <use xlink:href="#DejaVuSans-2e" x="190.869141"/>
     <use xlink:href="#DejaVuSans-30" x="222.65625"/>
     <use xlink:href="#DejaVuSans-34" x="286.279297"/>
     <use xlink:href="#DejaVuSans-34" x="349.902344"/>
     <use xlink:href="#DejaVuSans-36" x="413.525391"/>
    </g>
   </g>
   <g id="text_28">
    <!-- 240.0291 -->
    <g transform="translate(261.662507 257.711746) scale(0.06 -0.06)">
     <use xlink:href="#DejaVuSans-32"/>
     <use xlink:href="#DejaVuSans-34" x="63.623047"/>
     <use xlink:href="#DejaVuSans-30" x="127.246094"/>
     <use xlink:href="#DejaVuSans-2e" x="190.869141"/>
     <use xlink:href="#DejaVuSans-30" x="222.65625"/>
     <use xlink:href="#DejaVuSans-32" x="286.279297"/>
     <use xlink:href="#DejaVuSans-39" x="349.902344"/>
     <use xlink:href="#DejaVuSans-31" x="413.525391"/>
    </g>
   </g>
   <g id="text_29">
    <!-- 272.0546 -->
    <g transform="translate(291.701552 135.257702) scale(0.06 -0.06)">
     <use xlink:href="#DejaVuSans-32"/>
     <use xlink:href="#DejaVuSans-37" x="63.623047"/>
     <use xlink:href="#DejaVuSans-32" x="127.246094"/>
     <use xlink:href="#DejaVuSans-2e" x="190.869141"/>
     <use xlink:href="#DejaVuSans-30" x="222.65625"/>
     <use xlink:href="#DejaVuSans-35" x="286.279297"/>
     <use xlink:href="#DejaVuSans-34" x="349.902344"/>
     <use xlink:href="#DejaVuSans-36" x="413.525391"/>
    </g>
   </g>
   <g id="text_30">
    <!-- MS2 spectrum of ${m/z}$ 363.1173, scan time 6.22 min. -->
    <g transform="translate(57.6 24.873562) scale(0.12 -0.12)">
     <defs>
      <path id="DejaVuSans-4d" d="M 628 4666 
L 1569 4666 
L 2759 1491 
L 3956 4666 
L 4897 4666 
L 4897 0 
L 4281 0 
L 4281 4097 
L 3078 897 
L 2444 897 
L 1241 4097 
L 1241 0 
L 628 0 
L 628 4666 
z
" transform="scale(0.015625)"/>
      <path id="DejaVuSans-53" d="M 3425 4513 
L 3425 3897 
Q 3066 4069 2747 4153 
Q 2428 4238 2131 4238 
Q 1616 4238 1336 4038 
Q 1056 3838 1056 3469 
Q 1056 3159 1242 3001 
Q 1428 2844 1947 2747 
L 2328 2669 
Q 3034 2534 3370 2195 
Q 3706 1856 3706 1288 
Q 3706 609 3251 259 
Q 2797 -91 1919 -91 
Q 1588 -91 1214 -16 
Q 841 59 441 206 
L 441 856 
Q 825 641 1194 531 
Q 1563 422 1919 422 
Q 2459 422 2753 634 
Q 3047 847 3047 1241 
Q 3047 1584 2836 1778 
Q 2625 1972 2144 2069 
L 1759 2144 
Q 1053 2284 737 2584 
Q 422 2884 422 3419 
Q 422 4038 858 4394 
Q 1294 4750 2059 4750 
Q 2388 4750 2728 4690 
Q 3069 4631 3425 4513 
z
" transform="scale(0.015625)"/>
      <path id="DejaVuSans-20" transform="scale(0.015625)"/>
      <path id="DejaVuSans-70" d="M 1159 525 
L 1159 -1331 
L 581 -1331 
L 581 3500 
L 1159 3500 
L 1159 2969 
Q 1341 3281 1617 3432 
Q 1894 3584 2278 3584 
Q 2916 3584 3314 3078 
Q 3713 2572 3713 1747 
Q 3713 922 3314 415 
Q 2916 -91 2278 -91 
Q 1894 -91 1617 61 
Q 1341 213 1159 525 
z
M 3116 1747 
Q 3116 2381 2855 2742 
Q 2594 3103 2138 3103 
Q 1681 3103 1420 2742 
Q 1159 2381 1159 1747 
Q 1159 1113 1420 752 
Q 1681 391 2138 391 
Q 2594 391 2855 752 
Q 3116 1113 3116 1747 
z
" transform="scale(0.015625)"/>
      <path id="DejaVuSans-63" d="M 3122 3366 
L 3122 2828 
Q 2878 2963 2633 3030 
Q 2388 3097 2138 3097 
Q 1578 3097 1268 2742 
Q 959 2388 959 1747 
Q 959 1106 1268 751 
Q 1578 397 2138 397 
Q 2388 397 2633 464 
Q 2878 531 3122 666 
L 3122 134 
Q 2881 22 2623 -34 
Q 2366 -91 2075 -91 
Q 1284 -91 818 406 
Q 353 903 353 1747 
Q 353 2603 823 3093 
Q 1294 3584 2113 3584 
Q 2378 3584 2631 3529 
Q 2884 3475 3122 3366 
z
" transform="scale(0.015625)"/>
      <path id="DejaVuSans-72" d="M 2631 2963 
Q 2534 3019 2420 3045 
Q 2306 3072 2169 3072 
Q 1681 3072 1420 2755 
Q 1159 2438 1159 1844 
L 1159 0 
L 581 0 
L 581 3500 
L 1159 3500 
L 1159 2956 
Q 1341 3275 1631 3429 
Q 1922 3584 2338 3584 
Q 2397 3584 2469 3576 
Q 2541 3569 2628 3553 
L 2631 2963 
z
" transform="scale(0.015625)"/>
      <path id="DejaVuSans-75" d="M 544 1381 
L 544 3500 
L 1119 3500 
L 1119 1403 
Q 1119 906 1312 657 
Q 1506 409 1894 409 
Q 2359 409 2629 706 
Q 2900 1003 2900 1516 
L 2900 3500 
L 3475 3500 
L 3475 0 
L 2900 0 
L 2900 538 
Q 2691 219 2414 64 
Q 2138 -91 1772 -91 
Q 1169 -91 856 284 
Q 544 659 544 1381 
z
M 1991 3584 
L 1991 3584 
z
" transform="scale(0.015625)"/>
      <path id="DejaVuSans-6d" d="M 3328 2828 
Q 3544 3216 3844 3400 
Q 4144 3584 4550 3584 
Q 5097 3584 5394 3201 
Q 5691 2819 5691 2113 
L 5691 0 
L 5113 0 
L 5113 2094 
Q 5113 2597 4934 2840 
Q 4756 3084 4391 3084 
Q 3944 3084 3684 2787 
Q 3425 2491 3425 1978 
L 3425 0 
L 2847 0 
L 2847 2094 
Q 2847 2600 2669 2842 
Q 2491 3084 2119 3084 
Q 1678 3084 1418 2786 
Q 1159 2488 1159 1978 
L 1159 0 
L 581 0 
L 581 3500 
L 1159 3500 
L 1159 2956 
Q 1356 3278 1631 3431 
Q 1906 3584 2284 3584 
Q 2666 3584 2933 3390 
Q 3200 3197 3328 2828 
z
" transform="scale(0.015625)"/>
      <path id="DejaVuSans-6f" d="M 1959 3097 
Q 1497 3097 1228 2736 
Q 959 2375 959 1747 
Q 959 1119 1226 758 
Q 1494 397 1959 397 
Q 2419 397 2687 759 
Q 2956 1122 2956 1747 
Q 2956 2369 2687 2733 
Q 2419 3097 1959 3097 
z
M 1959 3584 
Q 2709 3584 3137 3096 
Q 3566 2609 3566 1747 
Q 3566 888 3137 398 
Q 2709 -91 1959 -91 
Q 1206 -91 779 398 
Q 353 888 353 1747 
Q 353 2609 779 3096 
Q 1206 3584 1959 3584 
z
" transform="scale(0.015625)"/>
      <path id="DejaVuSans-66" d="M 2375 4863 
L 2375 4384 
L 1825 4384 
Q 1516 4384 1395 4259 
Q 1275 4134 1275 3809 
L 1275 3500 
L 2222 3500 
L 2222 3053 
L 1275 3053 
L 1275 0 
L 697 0 
L 697 3053 
L 147 3053 
L 147 3500 
L 697 3500 
L 697 3744 
Q 697 4328 969 4595 
Q 1241 4863 1831 4863 
L 2375 4863 
z
" transform="scale(0.015625)"/>
      <path id="DejaVuSans-2c" d="M 750 794 
L 1409 794 
L 1409 256 
L 897 -744 
L 494 -744 
L 750 256 
L 750 794 
z
" transform="scale(0.015625)"/>
      <path id="DejaVuSans-61" d="M 2194 1759 
Q 1497 1759 1228 1600 
Q 959 1441 959 1056 
Q 959 750 1161 570 
Q 1363 391 1709 391 
Q 2188 391 2477 730 
Q 2766 1069 2766 1631 
L 2766 1759 
L 2194 1759 
z
M 3341 1997 
L 3341 0 
L 2766 0 
L 2766 531 
Q 2569 213 2275 61 
Q 1981 -91 1556 -91 
Q 1019 -91 701 211 
Q 384 513 384 1019 
Q 384 1609 779 1909 
Q 1175 2209 1959 2209 
L 2766 2209 
L 2766 2266 
Q 2766 2663 2505 2880 
Q 2244 3097 1772 3097 
Q 1472 3097 1187 3025 
Q 903 2953 641 2809 
L 641 3341 
Q 956 3463 1253 3523 
Q 1550 3584 1831 3584 
Q 2591 3584 2966 3190 
Q 3341 2797 3341 1997 
z
" transform="scale(0.015625)"/>
     </defs>
     <use xlink:href="#DejaVuSans-4d" transform="translate(0 0.015625)"/>
     <use xlink:href="#DejaVuSans-53" transform="translate(86.279297 0.015625)"/>
     <use xlink:href="#DejaVuSans-32" transform="translate(149.755859 0.015625)"/>
     <use xlink:href="#DejaVuSans-20" transform="translate(213.378906 0.015625)"/>
     <use xlink:href="#DejaVuSans-73" transform="translate(245.166016 0.015625)"/>
     <use xlink:href="#DejaVuSans-70" transform="translate(297.265625 0.015625)"/>
     <use xlink:href="#DejaVuSans-65" transform="translate(360.742188 0.015625)"/>
     <use xlink:href="#DejaVuSans-63" transform="translate(422.265625 0.015625)"/>
     <use xlink:href="#DejaVuSans-74" transform="translate(477.246094 0.015625)"/>
     <use xlink:href="#DejaVuSans-72" transform="translate(516.455078 0.015625)"/>
     <use xlink:href="#DejaVuSans-75" transform="translate(557.568359 0.015625)"/>
     <use xlink:href="#DejaVuSans-6d" transform="translate(620.947266 0.015625)"/>
     <use xlink:href="#DejaVuSans-20" transform="translate(718.359375 0.015625)"/>
     <use xlink:href="#DejaVuSans-6f" transform="translate(750.146484 0.015625)"/>
     <use xlink:href="#DejaVuSans-66" transform="translate(811.328125 0.015625)"/>
     <use xlink:href="#DejaVuSans-20" transform="translate(846.533203 0.015625)"/>
     <use xlink:href="#DejaVuSans-Oblique-6d" transform="translate(878.320312 0.015625)"/>
     <use xlink:href="#DejaVuSans-2f" transform="translate(975.732422 0.015625)"/>
     <use xlink:href="#DejaVuSans-Oblique-7a" transform="translate(1009.423828 0.015625)"/>
     <use xlink:href="#DejaVuSans-20" transform="translate(1061.914062 0.015625)"/>
     <use xlink:href="#DejaVuSans-33" transform="translate(1093.701172 0.015625)"/>
     <use xlink:href="#DejaVuSans-36" transform="translate(1157.324219 0.015625)"/>
     <use xlink:href="#DejaVuSans-33" transform="translate(1220.947266 0.015625)"/>
     <use xlink:href="#DejaVuSans-2e" transform="translate(1284.570312 0.015625)"/>
     <use xlink:href="#DejaVuSans-31" transform="translate(1316.357422 0.015625)"/>
     <use xlink:href="#DejaVuSans-31" transform="translate(1379.980469 0.015625)"/>
     <use xlink:href="#DejaVuSans-37" transform="translate(1443.603516 0.015625)"/>
     <use xlink:href="#DejaVuSans-33" transform="translate(1507.226562 0.015625)"/>
     <use xlink:href="#DejaVuSans-2c" transform="translate(1570.849609 0.015625)"/>
     <use xlink:href="#DejaVuSans-20" transform="translate(1602.636719 0.015625)"/>
     <use xlink:href="#DejaVuSans-73" transform="translate(1634.423828 0.015625)"/>
     <use xlink:href="#DejaVuSans-63" transform="translate(1686.523438 0.015625)"/>
     <use xlink:href="#DejaVuSans-61" transform="translate(1741.503906 0.015625)"/>
     <use xlink:href="#DejaVuSans-6e" transform="translate(1802.783203 0.015625)"/>
     <use xlink:href="#DejaVuSans-20" transform="translate(1866.162109 0.015625)"/>
     <use xlink:href="#DejaVuSans-74" transform="translate(1897.949219 0.015625)"/>
     <use xlink:href="#DejaVuSans-69" transform="translate(1937.158203 0.015625)"/>
     <use xlink:href="#DejaVuSans-6d" transform="translate(1964.941406 0.015625)"/>
     <use xlink:href="#DejaVuSans-65" transform="translate(2062.353516 0.015625)"/>
     <use xlink:href="#DejaVuSans-20" transform="translate(2123.876953 0.015625)"/>
     <use xlink:href="#DejaVuSans-36" transform="translate(2155.664062 0.015625)"/>
     <use xlink:href="#DejaVuSans-2e" transform="translate(2219.287109 0.015625)"/>
     <use xlink:href="#DejaVuSans-32" transform="translate(2245.574219 0.015625)"/>
     <use xlink:href="#DejaVuSans-32" transform="translate(2309.197266 0.015625)"/>
     <use xlink:href="#DejaVuSans-20" transform="translate(2372.820312 0.015625)"/>
     <use xlink:href="#DejaVuSans-6d" transform="translate(2404.607422 0.015625)"/>
     <use xlink:href="#DejaVuSans-69" transform="translate(2502.019531 0.015625)"/>
     <use xlink:href="#DejaVuSans-6e" transform="translate(2529.802734 0.015625)"/>
     <use xlink:href="#DejaVuSans-2e" transform="translate(2593.181641 0.015625)"/>
    </g>
   </g>
  </g>
 </g>
 <defs>
  <clipPath id="pd841711e2b">
   <rect x="57.6" y="41.472" width="357.12" height="266.112"/>
  </clipPath>
 </defs>
</svg>
