<?xml version="1.0" encoding="utf-8" standalone="no"?>
<!DOCTYPE svg PUBLIC "-//W3C//DTD SVG 1.1//EN"
  "http://www.w3.org/Graphics/SVG/1.1/DTD/svg11.dtd">
<svg xmlns:xlink="http://www.w3.org/1999/xlink" width="460.8pt" height="345.6pt" viewBox="0 0 460.8 345.6" xmlns="http://www.w3.org/2000/svg" version="1.1">
 <metadata>
  <rdf:RDF xmlns:dc="http://purl.org/dc/elements/1.1/" xmlns:cc="http://creativecommons.org/ns#" xmlns:rdf="http://www.w3.org/1999/02/22-rdf-syntax-ns#">
   <cc:Work>
    <dc:type rdf:resource="http://purl.org/dc/dcmitype/StillImage"/>
    <dc:date>2025-01-11T13:53:53.825663</dc:date>
    <dc:format>image/svg+xml</dc:format>
    <dc:creator>
     <cc:Agent>
      <dc:title>Matplotlib v3.7.3, https://matplotlib.org/</dc:title>
     </cc:Agent>
    </dc:creator>
   </cc:Work>
  </rdf:RDF>
 </metadata>
 <defs>
  <style type="text/css">*{stroke-linejoin: round; stroke-linecap: butt}</style>
 </defs>
 <g id="figure_1">
  <g id="patch_1">
   <path d="M 0 345.6 
L 460.8 345.6 
L 460.8 0 
L 0 0 
z
" style="fill: #ffffff"/>
  </g>
  <g id="axes_1">
   <g id="patch_2">
    <path d="M 57.6 307.584 
L 414.72 307.584 
L 414.72 41.472 
L 57.6 41.472 
z
" style="fill: #ffffff"/>
   </g>
   <g id="patch_3">
    <path d="M 73.832727 307.584 
L 74.532315 307.584 
L 74.532315 305.823787 
L 73.832727 305.823787 
z
" clip-path="url(#p593343beb0)" style="fill: #1f77b4"/>
   </g>
   <g id="patch_4">
    <path d="M 74.8952 307.584 
L 75.594787 307.584 
L 75.594787 305.250194 
L 74.8952 305.250194 
z
" clip-path="url(#p593343beb0)" style="fill: #1f77b4"/>
   </g>
   <g id="patch_5">
    <path d="M 78.46514 307.584 
L 79.164728 307.584 
L 79.164728 305.511259 
L 78.46514 305.511259 
z
" clip-path="url(#p593343beb0)" style="fill: #1f77b4"/>
   </g>
   <g id="patch_6">
    <path d="M 82.219816 307.584 
L 82.919404 307.584 
L 82.919404 305.661242 
L 82.219816 305.661242 
z
" clip-path="url(#p593343beb0)" style="fill: #1f77b4"/>
   </g>
   <g id="patch_7">
    <path d="M 82.989981 307.584 
L 83.689569 307.584 
L 83.689569 305.490344 
L 82.989981 305.490344 
z
" clip-path="url(#p593343beb0)" style="fill: #1f77b4"/>
   </g>
   <g id="patch_8">
    <path d="M 85.389029 307.584 
L 86.088617 307.584 
L 86.088617 302.544945 
L 85.389029 302.544945 
z
" clip-path="url(#p593343beb0)" style="fill: #1f77b4"/>
   </g>
   <g id="patch_9">
    <path d="M 85.58035 307.584 
L 86.279937 307.584 
L 86.279937 305.390306 
L 85.58035 305.390306 
z
" clip-path="url(#p593343beb0)" style="fill: #1f77b4"/>
   </g>
   <g id="patch_10">
    <path d="M 86.500169 307.584 
L 87.199757 307.584 
L 87.199757 305.657914 
L 86.500169 305.657914 
z
" clip-path="url(#p593343beb0)" style="fill: #1f77b4"/>
   </g>
   <g id="patch_11">
    <path d="M 98.494824 307.584 
L 99.194412 307.584 
L 99.194412 304.206708 
L 98.494824 304.206708 
z
" clip-path="url(#p593343beb0)" style="fill: #1f77b4"/>
   </g>
   <g id="patch_12">
    <path d="M 99.375987 307.584 
L 100.075575 307.584 
L 100.075575 300.455655 
L 99.375987 300.455655 
z
" clip-path="url(#p593343beb0)" style="fill: #1f77b4"/>
   </g>
   <g id="patch_13">
    <path d="M 105.50576 307.584 
L 106.205348 307.584 
L 106.205348 304.443355 
L 105.50576 304.443355 
z
" clip-path="url(#p593343beb0)" style="fill: #1f77b4"/>
   </g>
   <g id="patch_14">
    <path d="M 106.376142 307.584 
L 107.075729 307.584 
L 107.075729 305.008184 
L 106.376142 305.008184 
z
" clip-path="url(#p593343beb0)" style="fill: #1f77b4"/>
   </g>
   <g id="patch_15">
    <path d="M 111.632317 307.584 
L 112.331905 307.584 
L 112.331905 302.809426 
L 111.632317 302.809426 
z
" clip-path="url(#p593343beb0)" style="fill: #1f77b4"/>
   </g>
   <g id="patch_16">
    <path d="M 113.39509 307.584 
L 114.094678 307.584 
L 114.094678 305.567321 
L 113.39509 305.567321 
z
" clip-path="url(#p593343beb0)" style="fill: #1f77b4"/>
   </g>
   <g id="patch_17">
    <path d="M 115.126006 307.584 
L 115.825593 307.584 
L 115.825593 171.959701 
L 115.126006 171.959701 
z
" clip-path="url(#p593343beb0)" style="fill: #1f77b4"/>
   </g>
   <g id="patch_18">
    <path d="M 116.849249 307.584 
L 117.548836 307.584 
L 117.548836 304.306883 
L 116.849249 304.306883 
z
" clip-path="url(#p593343beb0)" style="fill: #1f77b4"/>
   </g>
   <g id="patch_19">
    <path d="M 116.870532 307.584 
L 117.570119 307.584 
L 117.570119 305.28642 
L 116.870532 305.28642 
z
" clip-path="url(#p593343beb0)" style="fill: #1f77b4"/>
   </g>
   <g id="patch_20">
    <path d="M 123.856735 307.584 
L 124.556323 307.584 
L 124.556323 304.356922 
L 123.856735 304.356922 
z
" clip-path="url(#p593343beb0)" style="fill: #1f77b4"/>
   </g>
   <g id="patch_21">
    <path d="M 125.600948 307.584 
L 126.300535 307.584 
L 126.300535 302.781445 
L 125.600948 302.781445 
z
" clip-path="url(#p593343beb0)" style="fill: #1f77b4"/>
   </g>
   <g id="patch_22">
    <path d="M 126.501099 307.584 
L 127.200686 307.584 
L 127.200686 296.347849 
L 126.501099 296.347849 
z
" clip-path="url(#p593343beb0)" style="fill: #1f77b4"/>
   </g>
   <g id="patch_23">
    <path d="M 127.363554 307.584 
L 128.063142 307.584 
L 128.063142 302.468891 
L 127.363554 302.468891 
z
" clip-path="url(#p593343beb0)" style="fill: #1f77b4"/>
   </g>
   <g id="patch_24">
    <path d="M 130.857083 307.584 
L 131.556671 307.584 
L 131.556671 302.985304 
L 130.857083 302.985304 
z
" clip-path="url(#p593343beb0)" style="fill: #1f77b4"/>
   </g>
   <g id="patch_25">
    <path d="M 137.857277 307.584 
L 138.556865 307.584 
L 138.556865 301.805253 
L 137.857277 301.805253 
z
" clip-path="url(#p593343beb0)" style="fill: #1f77b4"/>
   </g>
   <g id="patch_26">
    <path d="M 137.875611 307.584 
L 138.575199 307.584 
L 138.575199 303.962668 
L 137.875611 303.962668 
z
" clip-path="url(#p593343beb0)" style="fill: #1f77b4"/>
   </g>
   <g id="patch_27">
    <path d="M 138.750283 307.584 
L 139.44987 307.584 
L 139.44987 305.110619 
L 138.750283 305.110619 
z
" clip-path="url(#p593343beb0)" style="fill: #1f77b4"/>
   </g>
   <g id="patch_28">
    <path d="M 139.587992 307.584 
L 140.28758 307.584 
L 140.28758 305.158408 
L 139.587992 305.158408 
z
" clip-path="url(#p593343beb0)" style="fill: #1f77b4"/>
   </g>
   <g id="patch_29">
    <path d="M 139.606874 307.584 
L 140.306461 307.584 
L 140.306461 291.106857 
L 139.606874 291.106857 
z
" clip-path="url(#p593343beb0)" style="fill: #1f77b4"/>
   </g>
   <g id="patch_30">
    <path d="M 139.620124 307.584 
L 140.319712 307.584 
L 140.319712 271.010192 
L 139.620124 271.010192 
z
" clip-path="url(#p593343beb0)" style="fill: #1f77b4"/>
   </g>
   <g id="patch_31">
    <path d="M 140.498385 307.584 
L 141.197972 307.584 
L 141.197972 305.279135 
L 140.498385 305.279135 
z
" clip-path="url(#p593343beb0)" style="fill: #1f77b4"/>
   </g>
   <g id="patch_32">
    <path d="M 141.351226 307.584 
L 142.050814 307.584 
L 142.050814 296.789685 
L 141.351226 296.789685 
z
" clip-path="url(#p593343beb0)" style="fill: #1f77b4"/>
   </g>
   <g id="patch_33">
    <path d="M 143.081555 307.584 
L 143.781142 307.584 
L 143.781142 301.674827 
L 143.081555 301.674827 
z
" clip-path="url(#p593343beb0)" style="fill: #1f77b4"/>
   </g>
   <g id="patch_34">
    <path d="M 143.113846 307.584 
L 143.813434 307.584 
L 143.813434 303.805271 
L 143.113846 303.805271 
z
" clip-path="url(#p593343beb0)" style="fill: #1f77b4"/>
   </g>
   <g id="patch_35">
    <path d="M 144.844161 307.584 
L 145.543749 307.584 
L 145.543749 296.55789 
L 144.844161 296.55789 
z
" clip-path="url(#p593343beb0)" style="fill: #1f77b4"/>
   </g>
   <g id="patch_36">
    <path d="M 148.351187 307.584 
L 149.050775 307.584 
L 149.050775 295.953348 
L 148.351187 295.953348 
z
" clip-path="url(#p593343beb0)" style="fill: #1f77b4"/>
   </g>
   <g id="patch_37">
    <path d="M 150.113727 307.584 
L 150.813314 307.584 
L 150.813314 300.704204 
L 150.113727 300.704204 
z
" clip-path="url(#p593343beb0)" style="fill: #1f77b4"/>
   </g>
   <g id="patch_38">
    <path d="M 150.963112 307.584 
L 151.6627 307.584 
L 151.6627 304.399287 
L 150.963112 304.399287 
z
" clip-path="url(#p593343beb0)" style="fill: #1f77b4"/>
   </g>
   <g id="patch_39">
    <path d="M 150.993509 307.584 
L 151.693096 307.584 
L 151.693096 305.120722 
L 150.993509 305.120722 
z
" clip-path="url(#p593343beb0)" style="fill: #1f77b4"/>
   </g>
   <g id="patch_40">
    <path d="M 151.844415 307.584 
L 152.544003 307.584 
L 152.544003 298.923848 
L 151.844415 298.923848 
z
" clip-path="url(#p593343beb0)" style="fill: #1f77b4"/>
   </g>
   <g id="patch_41">
    <path d="M 151.863216 307.584 
L 152.562804 307.584 
L 152.562804 301.114842 
L 151.863216 301.114842 
z
" clip-path="url(#p593343beb0)" style="fill: #1f77b4"/>
   </g>
   <g id="patch_42">
    <path d="M 151.876133 307.584 
L 152.575721 307.584 
L 152.575721 302.497543 
L 151.876133 302.497543 
z
" clip-path="url(#p593343beb0)" style="fill: #1f77b4"/>
   </g>
   <g id="patch_43">
    <path d="M 153.607476 307.584 
L 154.307063 307.584 
L 154.307063 291.425062 
L 153.607476 291.425062 
z
" clip-path="url(#p593343beb0)" style="fill: #1f77b4"/>
   </g>
   <g id="patch_44">
    <path d="M 157.100477 307.584 
L 157.800065 307.584 
L 157.800065 300.46716 
L 157.100477 300.46716 
z
" clip-path="url(#p593343beb0)" style="fill: #1f77b4"/>
   </g>
   <g id="patch_45">
    <path d="M 158.844896 307.584 
L 159.544484 307.584 
L 159.544484 304.570669 
L 158.844896 304.570669 
z
" clip-path="url(#p593343beb0)" style="fill: #1f77b4"/>
   </g>
   <g id="patch_46">
    <path d="M 160.607796 307.584 
L 161.307384 307.584 
L 161.307384 303.564257 
L 160.607796 303.564257 
z
" clip-path="url(#p593343beb0)" style="fill: #1f77b4"/>
   </g>
   <g id="patch_47">
    <path d="M 162.338739 307.584 
L 163.038326 307.584 
L 163.038326 296.036509 
L 162.338739 296.036509 
z
" clip-path="url(#p593343beb0)" style="fill: #1f77b4"/>
   </g>
   <g id="patch_48">
    <path d="M 162.356699 307.584 
L 163.056287 307.584 
L 163.056287 293.502201 
L 162.356699 293.502201 
z
" clip-path="url(#p593343beb0)" style="fill: #1f77b4"/>
   </g>
   <g id="patch_49">
    <path d="M 162.368148 307.584 
L 163.067736 307.584 
L 163.067736 304.561047 
L 162.368148 304.561047 
z
" clip-path="url(#p593343beb0)" style="fill: #1f77b4"/>
   </g>
   <g id="patch_50">
    <path d="M 163.218174 307.584 
L 163.917762 307.584 
L 163.917762 298.329776 
L 163.218174 298.329776 
z
" clip-path="url(#p593343beb0)" style="fill: #1f77b4"/>
   </g>
   <g id="patch_51">
    <path d="M 164.101238 307.584 
L 164.800826 307.584 
L 164.800826 285.412474 
L 164.101238 285.412474 
z
" clip-path="url(#p593343beb0)" style="fill: #1f77b4"/>
   </g>
   <g id="patch_52">
    <path d="M 164.121441 307.584 
L 164.821028 307.584 
L 164.821028 304.950308 
L 164.121441 304.950308 
z
" clip-path="url(#p593343beb0)" style="fill: #1f77b4"/>
   </g>
   <g id="patch_53">
    <path d="M 165.831914 307.584 
L 166.531502 307.584 
L 166.531502 293.051306 
L 165.831914 293.051306 
z
" clip-path="url(#p593343beb0)" style="fill: #1f77b4"/>
   </g>
   <g id="patch_54">
    <path d="M 165.842789 307.584 
L 166.542377 307.584 
L 166.542377 304.110699 
L 165.842789 304.110699 
z
" clip-path="url(#p593343beb0)" style="fill: #1f77b4"/>
   </g>
   <g id="patch_55">
    <path d="M 167.59416 307.584 
L 168.293748 307.584 
L 168.293748 302.020211 
L 167.59416 302.020211 
z
" clip-path="url(#p593343beb0)" style="fill: #1f77b4"/>
   </g>
   <g id="patch_56">
    <path d="M 172.832208 307.584 
L 173.531796 307.584 
L 173.531796 296.457762 
L 172.832208 296.457762 
z
" clip-path="url(#p593343beb0)" style="fill: #1f77b4"/>
   </g>
   <g id="patch_57">
    <path d="M 172.850796 307.584 
L 173.550383 307.584 
L 173.550383 304.264199 
L 172.850796 304.264199 
z
" clip-path="url(#p593343beb0)" style="fill: #1f77b4"/>
   </g>
   <g id="patch_58">
    <path d="M 173.713712 307.584 
L 174.413299 307.584 
L 174.413299 304.395142 
L 173.713712 304.395142 
z
" clip-path="url(#p593343beb0)" style="fill: #1f77b4"/>
   </g>
   <g id="patch_59">
    <path d="M 174.562883 307.584 
L 175.262471 307.584 
L 175.262471 300.10844 
L 174.562883 300.10844 
z
" clip-path="url(#p593343beb0)" style="fill: #1f77b4"/>
   </g>
   <g id="patch_60">
    <path d="M 174.594521 307.584 
L 175.294109 307.584 
L 175.294109 303.754895 
L 174.594521 303.754895 
z
" clip-path="url(#p593343beb0)" style="fill: #1f77b4"/>
   </g>
   <g id="patch_61">
    <path d="M 174.613202 307.584 
L 175.31279 307.584 
L 175.31279 303.208301 
L 174.613202 303.208301 
z
" clip-path="url(#p593343beb0)" style="fill: #1f77b4"/>
   </g>
   <g id="patch_62">
    <path d="M 176.32557 307.584 
L 177.025158 307.584 
L 177.025158 297.109199 
L 176.32557 297.109199 
z
" clip-path="url(#p593343beb0)" style="fill: #1f77b4"/>
   </g>
   <g id="patch_63">
    <path d="M 176.357301 307.584 
L 177.056889 307.584 
L 177.056889 304.042253 
L 176.357301 304.042253 
z
" clip-path="url(#p593343beb0)" style="fill: #1f77b4"/>
   </g>
   <g id="patch_64">
    <path d="M 178.109086 307.584 
L 178.808674 307.584 
L 178.808674 294.754728 
L 178.109086 294.754728 
z
" clip-path="url(#p593343beb0)" style="fill: #1f77b4"/>
   </g>
   <g id="patch_65">
    <path d="M 178.96964 307.584 
L 179.669228 307.584 
L 179.669228 304.765178 
L 178.96964 304.765178 
z
" clip-path="url(#p593343beb0)" style="fill: #1f77b4"/>
   </g>
   <g id="patch_66">
    <path d="M 184.227837 307.584 
L 184.927425 307.584 
L 184.927425 304.463503 
L 184.227837 304.463503 
z
" clip-path="url(#p593343beb0)" style="fill: #1f77b4"/>
   </g>
   <g id="patch_67">
    <path d="M 185.108713 307.584 
L 185.808301 307.584 
L 185.808301 303.614543 
L 185.108713 303.614543 
z
" clip-path="url(#p593343beb0)" style="fill: #1f77b4"/>
   </g>
   <g id="patch_68">
    <path d="M 185.991017 307.584 
L 186.690605 307.584 
L 186.690605 294.147894 
L 185.991017 294.147894 
z
" clip-path="url(#p593343beb0)" style="fill: #1f77b4"/>
   </g>
   <g id="patch_69">
    <path d="M 186.819106 307.584 
L 187.518694 307.584 
L 187.518694 303.775757 
L 186.819106 303.775757 
z
" clip-path="url(#p593343beb0)" style="fill: #1f77b4"/>
   </g>
   <g id="patch_70">
    <path d="M 187.70073 307.584 
L 188.400317 307.584 
L 188.400317 304.225746 
L 187.70073 304.225746 
z
" clip-path="url(#p593343beb0)" style="fill: #1f77b4"/>
   </g>
   <g id="patch_71">
    <path d="M 187.720838 307.584 
L 188.420426 307.584 
L 188.420426 304.437857 
L 187.720838 304.437857 
z
" clip-path="url(#p593343beb0)" style="fill: #1f77b4"/>
   </g>
   <g id="patch_72">
    <path d="M 188.582313 307.584 
L 189.281901 307.584 
L 189.281901 291.465979 
L 188.582313 291.465979 
z
" clip-path="url(#p593343beb0)" style="fill: #1f77b4"/>
   </g>
   <g id="patch_73">
    <path d="M 189.46375 307.584 
L 190.163338 307.584 
L 190.163338 292.789853 
L 189.46375 292.789853 
z
" clip-path="url(#p593343beb0)" style="fill: #1f77b4"/>
   </g>
   <g id="patch_74">
    <path d="M 190.312188 307.584 
L 191.011776 307.584 
L 191.011776 301.752021 
L 190.312188 301.752021 
z
" clip-path="url(#p593343beb0)" style="fill: #1f77b4"/>
   </g>
   <g id="patch_75">
    <path d="M 190.344226 307.584 
L 191.043814 307.584 
L 191.043814 303.187443 
L 190.344226 303.187443 
z
" clip-path="url(#p593343beb0)" style="fill: #1f77b4"/>
   </g>
   <g id="patch_76">
    <path d="M 192.075315 307.584 
L 192.774903 307.584 
L 192.774903 303.813254 
L 192.075315 303.813254 
z
" clip-path="url(#p593343beb0)" style="fill: #1f77b4"/>
   </g>
   <g id="patch_77">
    <path d="M 193.838442 307.584 
L 194.53803 307.584 
L 194.53803 294.509299 
L 193.838442 294.509299 
z
" clip-path="url(#p593343beb0)" style="fill: #1f77b4"/>
   </g>
   <g id="patch_78">
    <path d="M 196.453169 307.584 
L 197.152757 307.584 
L 197.152757 304.585651 
L 196.453169 304.585651 
z
" clip-path="url(#p593343beb0)" style="fill: #1f77b4"/>
   </g>
   <g id="patch_79">
    <path d="M 197.313149 307.584 
L 198.012737 307.584 
L 198.012737 288.104672 
L 197.313149 288.104672 
z
" clip-path="url(#p593343beb0)" style="fill: #1f77b4"/>
   </g>
   <g id="patch_80">
    <path d="M 197.331337 307.584 
L 198.030924 307.584 
L 198.030924 297.002164 
L 197.331337 297.002164 
z
" clip-path="url(#p593343beb0)" style="fill: #1f77b4"/>
   </g>
   <g id="patch_81">
    <path d="M 198.193038 307.584 
L 198.892626 307.584 
L 198.892626 303.0969 
L 198.193038 303.0969 
z
" clip-path="url(#p593343beb0)" style="fill: #1f77b4"/>
   </g>
   <g id="patch_82">
    <path d="M 198.21252 307.584 
L 198.912108 307.584 
L 198.912108 305.415665 
L 198.21252 305.415665 
z
" clip-path="url(#p593343beb0)" style="fill: #1f77b4"/>
   </g>
   <g id="patch_83">
    <path d="M 199.043945 307.584 
L 199.743533 307.584 
L 199.743533 298.863654 
L 199.043945 298.863654 
z
" clip-path="url(#p593343beb0)" style="fill: #1f77b4"/>
   </g>
   <g id="patch_84">
    <path d="M 199.978582 307.584 
L 200.67817 307.584 
L 200.67817 296.525454 
L 199.978582 296.525454 
z
" clip-path="url(#p593343beb0)" style="fill: #1f77b4"/>
   </g>
   <g id="patch_85">
    <path d="M 200.838616 307.584 
L 201.538204 307.584 
L 201.538204 289.870157 
L 200.838616 289.870157 
z
" clip-path="url(#p593343beb0)" style="fill: #1f77b4"/>
   </g>
   <g id="patch_86">
    <path d="M 200.857711 307.584 
L 201.557298 307.584 
L 201.557298 304.442373 
L 200.857711 304.442373 
z
" clip-path="url(#p593343beb0)" style="fill: #1f77b4"/>
   </g>
   <g id="patch_87">
    <path d="M 202.569438 307.584 
L 203.269026 307.584 
L 203.269026 247.449116 
L 202.569438 247.449116 
z
" clip-path="url(#p593343beb0)" style="fill: #1f77b4"/>
   </g>
   <g id="patch_88">
    <path d="M 208.709125 307.584 
L 209.408713 307.584 
L 209.408713 305.186849 
L 208.709125 305.186849 
z
" clip-path="url(#p593343beb0)" style="fill: #1f77b4"/>
   </g>
   <g id="patch_89">
    <path d="M 209.590442 307.584 
L 210.290029 307.584 
L 210.290029 299.721048 
L 209.590442 299.721048 
z
" clip-path="url(#p593343beb0)" style="fill: #1f77b4"/>
   </g>
   <g id="patch_90">
    <path d="M 210.453077 307.584 
L 211.152665 307.584 
L 211.152665 301.739216 
L 210.453077 301.739216 
z
" clip-path="url(#p593343beb0)" style="fill: #1f77b4"/>
   </g>
   <g id="patch_91">
    <path d="M 210.471905 307.584 
L 211.171493 307.584 
L 211.171493 179.328025 
L 210.471905 179.328025 
z
" clip-path="url(#p593343beb0)" style="fill: #1f77b4"/>
   </g>
   <g id="patch_92">
    <path d="M 210.486663 307.584 
L 211.186251 307.584 
L 211.186251 305.966724 
L 210.486663 305.966724 
z
" clip-path="url(#p593343beb0)" style="fill: #1f77b4"/>
   </g>
   <g id="patch_93">
    <path d="M 211.352661 307.584 
L 212.052249 307.584 
L 212.052249 266.633442 
L 211.352661 266.633442 
z
" clip-path="url(#p593343beb0)" style="fill: #1f77b4"/>
   </g>
   <g id="patch_94">
    <path d="M 212.231349 307.584 
L 212.930937 307.584 
L 212.930937 303.911787 
L 212.231349 303.911787 
z
" clip-path="url(#p593343beb0)" style="fill: #1f77b4"/>
   </g>
   <g id="patch_95">
    <path d="M 213.062988 307.584 
L 213.762575 307.584 
L 213.762575 298.438855 
L 213.062988 298.438855 
z
" clip-path="url(#p593343beb0)" style="fill: #1f77b4"/>
   </g>
   <g id="patch_96">
    <path d="M 213.081562 307.584 
L 213.78115 307.584 
L 213.78115 300.006644 
L 213.081562 300.006644 
z
" clip-path="url(#p593343beb0)" style="fill: #1f77b4"/>
   </g>
   <g id="patch_97">
    <path d="M 213.964773 307.584 
L 214.664361 307.584 
L 214.664361 303.797294 
L 213.964773 303.797294 
z
" clip-path="url(#p593343beb0)" style="fill: #1f77b4"/>
   </g>
   <g id="patch_98">
    <path d="M 214.794343 307.584 
L 215.493931 307.584 
L 215.493931 300.702394 
L 214.794343 300.702394 
z
" clip-path="url(#p593343beb0)" style="fill: #1f77b4"/>
   </g>
   <g id="patch_99">
    <path d="M 214.826141 307.584 
L 215.525729 307.584 
L 215.525729 298.51809 
L 214.826141 298.51809 
z
" clip-path="url(#p593343beb0)" style="fill: #1f77b4"/>
   </g>
   <g id="patch_100">
    <path d="M 215.470849 307.584 
L 216.170437 307.584 
L 216.170437 305.576176 
L 215.470849 305.576176 
z
" clip-path="url(#p593343beb0)" style="fill: #1f77b4"/>
   </g>
   <g id="patch_101">
    <path d="M 216.556443 307.584 
L 217.256031 307.584 
L 217.256031 304.586408 
L 216.556443 304.586408 
z
" clip-path="url(#p593343beb0)" style="fill: #1f77b4"/>
   </g>
   <g id="patch_102">
    <path d="M 218.318235 307.584 
L 219.017823 307.584 
L 219.017823 305.004727 
L 218.318235 305.004727 
z
" clip-path="url(#p593343beb0)" style="fill: #1f77b4"/>
   </g>
   <g id="patch_103">
    <path d="M 222.692714 307.584 
L 223.392302 307.584 
L 223.392302 297.567599 
L 222.692714 297.567599 
z
" clip-path="url(#p593343beb0)" style="fill: #1f77b4"/>
   </g>
   <g id="patch_104">
    <path d="M 222.725619 307.584 
L 223.425207 307.584 
L 223.425207 305.541031 
L 222.725619 305.541031 
z
" clip-path="url(#p593343beb0)" style="fill: #1f77b4"/>
   </g>
   <g id="patch_105">
    <path d="M 223.572776 307.584 
L 224.272364 307.584 
L 224.272364 304.262511 
L 223.572776 304.262511 
z
" clip-path="url(#p593343beb0)" style="fill: #1f77b4"/>
   </g>
   <g id="patch_106">
    <path d="M 223.589642 307.584 
L 224.28923 307.584 
L 224.28923 285.082556 
L 223.589642 285.082556 
z
" clip-path="url(#p593343beb0)" style="fill: #1f77b4"/>
   </g>
   <g id="patch_107">
    <path d="M 224.458763 307.584 
L 225.158351 307.584 
L 225.158351 293.402053 
L 224.458763 293.402053 
z
" clip-path="url(#p593343beb0)" style="fill: #1f77b4"/>
   </g>
   <g id="patch_108">
    <path d="M 225.319597 307.584 
L 226.019185 307.584 
L 226.019185 220.729204 
L 225.319597 220.729204 
z
" clip-path="url(#p593343beb0)" style="fill: #1f77b4"/>
   </g>
   <g id="patch_109">
    <path d="M 225.34028 307.584 
L 226.039868 307.584 
L 226.039868 82.729352 
L 225.34028 82.729352 
z
" clip-path="url(#p593343beb0)" style="fill: #1f77b4"/>
   </g>
   <g id="patch_110">
    <path d="M 225.355545 307.584 
L 226.055133 307.584 
L 226.055133 303.71966 
L 225.355545 303.71966 
z
" clip-path="url(#p593343beb0)" style="fill: #1f77b4"/>
   </g>
   <g id="patch_111">
    <path d="M 226.199886 307.584 
L 226.899474 307.584 
L 226.899474 283.556577 
L 226.199886 283.556577 
z
" clip-path="url(#p593343beb0)" style="fill: #1f77b4"/>
   </g>
   <g id="patch_112">
    <path d="M 226.218341 307.584 
L 226.917928 307.584 
L 226.917928 292.646449 
L 226.218341 292.646449 
z
" clip-path="url(#p593343beb0)" style="fill: #1f77b4"/>
   </g>
   <g id="patch_113">
    <path d="M 227.050633 307.584 
L 227.750221 307.584 
L 227.750221 224.655825 
L 227.050633 224.655825 
z
" clip-path="url(#p593343beb0)" style="fill: #1f77b4"/>
   </g>
   <g id="patch_114">
    <path d="M 227.927973 307.584 
L 228.627561 307.584 
L 228.627561 301.438194 
L 227.927973 301.438194 
z
" clip-path="url(#p593343beb0)" style="fill: #1f77b4"/>
   </g>
   <g id="patch_115">
    <path d="M 228.834656 307.584 
L 229.534244 307.584 
L 229.534244 296.530546 
L 228.834656 296.530546 
z
" clip-path="url(#p593343beb0)" style="fill: #1f77b4"/>
   </g>
   <g id="patch_116">
    <path d="M 235.782056 307.584 
L 236.481644 307.584 
L 236.481644 280.681841 
L 235.782056 280.681841 
z
" clip-path="url(#p593343beb0)" style="fill: #1f77b4"/>
   </g>
   <g id="patch_117">
    <path d="M 235.802152 307.584 
L 236.501739 307.584 
L 236.501739 303.597863 
L 235.802152 303.597863 
z
" clip-path="url(#p593343beb0)" style="fill: #1f77b4"/>
   </g>
   <g id="patch_118">
    <path d="M 236.714706 307.584 
L 237.414293 307.584 
L 237.414293 303.404028 
L 236.714706 303.404028 
z
" clip-path="url(#p593343beb0)" style="fill: #1f77b4"/>
   </g>
   <g id="patch_119">
    <path d="M 237.555164 307.584 
L 238.254752 307.584 
L 238.254752 305.09898 
L 237.555164 305.09898 
z
" clip-path="url(#p593343beb0)" style="fill: #1f77b4"/>
   </g>
   <g id="patch_120">
    <path d="M 238.445488 307.584 
L 239.145075 307.584 
L 239.145075 302.879503 
L 238.445488 302.879503 
z
" clip-path="url(#p593343beb0)" style="fill: #1f77b4"/>
   </g>
   <g id="patch_121">
    <path d="M 239.305855 307.584 
L 240.005443 307.584 
L 240.005443 303.10188 
L 239.305855 303.10188 
z
" clip-path="url(#p593343beb0)" style="fill: #1f77b4"/>
   </g>
   <g id="patch_122">
    <path d="M 241.069462 307.584 
L 241.76905 307.584 
L 241.76905 270.42581 
L 241.069462 270.42581 
z
" clip-path="url(#p593343beb0)" style="fill: #1f77b4"/>
   </g>
   <g id="patch_123">
    <path d="M 241.943386 307.584 
L 242.642974 307.584 
L 242.642974 304.66987 
L 241.943386 304.66987 
z
" clip-path="url(#p593343beb0)" style="fill: #1f77b4"/>
   </g>
   <g id="patch_124">
    <path d="M 243.702937 307.584 
L 244.402525 307.584 
L 244.402525 297.72267 
L 243.702937 297.72267 
z
" clip-path="url(#p593343beb0)" style="fill: #1f77b4"/>
   </g>
   <g id="patch_125">
    <path d="M 248.940665 307.584 
L 249.640253 307.584 
L 249.640253 302.893772 
L 248.940665 302.893772 
z
" clip-path="url(#p593343beb0)" style="fill: #1f77b4"/>
   </g>
   <g id="patch_126">
    <path d="M 249.800765 307.584 
L 250.500353 307.584 
L 250.500353 304.396794 
L 249.800765 304.396794 
z
" clip-path="url(#p593343beb0)" style="fill: #1f77b4"/>
   </g>
   <g id="patch_127">
    <path d="M 249.833404 307.584 
L 250.532991 307.584 
L 250.532991 303.725864 
L 249.833404 303.725864 
z
" clip-path="url(#p593343beb0)" style="fill: #1f77b4"/>
   </g>
   <g id="patch_128">
    <path d="M 251.552243 307.584 
L 252.251831 307.584 
L 252.251831 303.314072 
L 251.552243 303.314072 
z
" clip-path="url(#p593343beb0)" style="fill: #1f77b4"/>
   </g>
   <g id="patch_129">
    <path d="M 252.465665 307.584 
L 253.165252 307.584 
L 253.165252 302.223581 
L 252.465665 302.223581 
z
" clip-path="url(#p593343beb0)" style="fill: #1f77b4"/>
   </g>
   <g id="patch_130">
    <path d="M 260.306111 307.584 
L 261.005698 307.584 
L 261.005698 304.312243 
L 260.306111 304.312243 
z
" clip-path="url(#p593343beb0)" style="fill: #1f77b4"/>
   </g>
   <g id="patch_131">
    <path d="M 261.198155 307.584 
L 261.897743 307.584 
L 261.897743 305.361708 
L 261.198155 305.361708 
z
" clip-path="url(#p593343beb0)" style="fill: #1f77b4"/>
   </g>
   <g id="patch_132">
    <path d="M 262.080139 307.584 
L 262.779727 307.584 
L 262.779727 304.351296 
L 262.080139 304.351296 
z
" clip-path="url(#p593343beb0)" style="fill: #1f77b4"/>
   </g>
   <g id="patch_133">
    <path d="M 262.927456 307.584 
L 263.627044 307.584 
L 263.627044 303.337663 
L 262.927456 303.337663 
z
" clip-path="url(#p593343beb0)" style="fill: #1f77b4"/>
   </g>
   <g id="patch_134">
    <path d="M 263.787877 307.584 
L 264.487465 307.584 
L 264.487465 54.144 
L 263.787877 54.144 
z
" clip-path="url(#p593343beb0)" style="fill: #1f77b4"/>
   </g>
   <g id="patch_135">
    <path d="M 263.808266 307.584 
L 264.507854 307.584 
L 264.507854 292.427068 
L 263.808266 292.427068 
z
" clip-path="url(#p593343beb0)" style="fill: #1f77b4"/>
   </g>
   <g id="patch_136">
    <path d="M 264.665351 307.584 
L 265.364938 307.584 
L 265.364938 285.832807 
L 264.665351 285.832807 
z
" clip-path="url(#p593343beb0)" style="fill: #1f77b4"/>
   </g>
   <g id="patch_137">
    <path d="M 275.18492 307.584 
L 275.884508 307.584 
L 275.884508 293.678821 
L 275.18492 293.678821 
z
" clip-path="url(#p593343beb0)" style="fill: #1f77b4"/>
   </g>
   <g id="patch_138">
    <path d="M 276.064822 307.584 
L 276.76441 307.584 
L 276.76441 299.996102 
L 276.064822 299.996102 
z
" clip-path="url(#p593343beb0)" style="fill: #1f77b4"/>
   </g>
   <g id="patch_139">
    <path d="M 276.946753 307.584 
L 277.64634 307.584 
L 277.64634 280.33361 
L 276.946753 280.33361 
z
" clip-path="url(#p593343beb0)" style="fill: #1f77b4"/>
   </g>
   <g id="patch_140">
    <path d="M 277.806773 307.584 
L 278.506361 307.584 
L 278.506361 228.881297 
L 277.806773 228.881297 
z
" clip-path="url(#p593343beb0)" style="fill: #1f77b4"/>
   </g>
   <g id="patch_141">
    <path d="M 278.681711 307.584 
L 279.381299 307.584 
L 279.381299 301.703366 
L 278.681711 301.703366 
z
" clip-path="url(#p593343beb0)" style="fill: #1f77b4"/>
   </g>
   <g id="patch_142">
    <path d="M 279.538396 307.584 
L 280.237983 307.584 
L 280.237983 303.320849 
L 279.538396 303.320849 
z
" clip-path="url(#p593343beb0)" style="fill: #1f77b4"/>
   </g>
   <g id="patch_143">
    <path d="M 290.93261 307.584 
L 291.632198 307.584 
L 291.632198 296.076548 
L 290.93261 296.076548 
z
" clip-path="url(#p593343beb0)" style="fill: #1f77b4"/>
   </g>
   <g id="patch_144">
    <path d="M 291.794365 307.584 
L 292.493953 307.584 
L 292.493953 212.61318 
L 291.794365 212.61318 
z
" clip-path="url(#p593343beb0)" style="fill: #1f77b4"/>
   </g>
   <g id="patch_145">
    <path d="M 292.671145 307.584 
L 293.370732 307.584 
L 293.370732 296.507396 
L 292.671145 296.507396 
z
" clip-path="url(#p593343beb0)" style="fill: #1f77b4"/>
   </g>
   <g id="patch_146">
    <path d="M 300.526268 307.584 
L 301.225856 307.584 
L 301.225856 304.54231 
L 300.526268 304.54231 
z
" clip-path="url(#p593343beb0)" style="fill: #1f77b4"/>
   </g>
   <g id="patch_147">
    <path d="M 303.189593 307.584 
L 303.889181 307.584 
L 303.889181 300.471522 
L 303.189593 300.471522 
z
" clip-path="url(#p593343beb0)" style="fill: #1f77b4"/>
   </g>
   <g id="patch_148">
    <path d="M 315.415352 307.584 
L 316.11494 307.584 
L 316.11494 252.704867 
L 315.415352 252.704867 
z
" clip-path="url(#p593343beb0)" style="fill: #1f77b4"/>
   </g>
   <g id="patch_149">
    <path d="M 316.274839 307.584 
L 316.974427 307.584 
L 316.974427 263.750528 
L 316.274839 263.750528 
z
" clip-path="url(#p593343beb0)" style="fill: #1f77b4"/>
   </g>
   <g id="patch_150">
    <path d="M 317.153594 307.584 
L 317.853181 307.584 
L 317.853181 304.001283 
L 317.153594 304.001283 
z
" clip-path="url(#p593343beb0)" style="fill: #1f77b4"/>
   </g>
   <g id="patch_151">
    <path d="M 327.672149 307.584 
L 328.371737 307.584 
L 328.371737 303.786204 
L 327.672149 303.786204 
z
" clip-path="url(#p593343beb0)" style="fill: #1f77b4"/>
   </g>
   <g id="patch_152">
    <path d="M 331.163976 307.584 
L 331.863564 307.584 
L 331.863564 302.848901 
L 331.163976 302.848901 
z
" clip-path="url(#p593343beb0)" style="fill: #1f77b4"/>
   </g>
   <g id="patch_153">
    <path d="M 343.4212 307.584 
L 344.120788 307.584 
L 344.120788 267.180275 
L 343.4212 267.180275 
z
" clip-path="url(#p593343beb0)" style="fill: #1f77b4"/>
   </g>
   <g id="patch_154">
    <path d="M 344.293683 307.584 
L 344.993271 307.584 
L 344.993271 304.542131 
L 344.293683 304.542131 
z
" clip-path="url(#p593343beb0)" style="fill: #1f77b4"/>
   </g>
   <g id="patch_155">
    <path d="M 359.171932 307.584 
L 359.87152 307.584 
L 359.87152 291.750546 
L 359.171932 291.750546 
z
" clip-path="url(#p593343beb0)" style="fill: #1f77b4"/>
   </g>
   <g id="patch_156">
    <path d="M 397.787685 307.584 
L 398.487273 307.584 
L 398.487273 302.543657 
L 397.787685 302.543657 
z
" clip-path="url(#p593343beb0)" style="fill: #1f77b4"/>
   </g>
   <g id="matplotlib.axis_1">
    <g id="xtick_1">
     <g id="line2d_1">
      <defs>
       <path id="mf3b673af4d" d="M 0 0 
L 0 3.5 
" style="stroke: #000000; stroke-width: 0.8"/>
      </defs>
      <g>
       <use xlink:href="#mf3b673af4d" x="69.954218" y="307.584" style="stroke: #000000; stroke-width: 0.8"/>
      </g>
     </g>
     <g id="text_1">
      <!-- 50 -->
      <g transform="translate(63.591718 322.182437) scale(0.1 -0.1)">
       <defs>
        <path id="DejaVuSans-35" d="M 691 4666 
L 3169 4666 
L 3169 4134 
L 1269 4134 
L 1269 2991 
Q 1406 3038 1543 3061 
Q 1681 3084 1819 3084 
Q 2600 3084 3056 2656 
Q 3513 2228 3513 1497 
Q 3513 744 3044 326 
Q 2575 -91 1722 -91 
Q 1428 -91 1123 -41 
Q 819 9 494 109 
L 494 744 
Q 775 591 1075 516 
Q 1375 441 1709 441 
Q 2250 441 2565 725 
Q 2881 1009 2881 1497 
Q 2881 1984 2565 2268 
Q 2250 2553 1709 2553 
Q 1456 2553 1204 2497 
Q 953 2441 691 2322 
L 691 4666 
z
" transform="scale(0.015625)"/>
        <path id="DejaVuSans-30" d="M 2034 4250 
Q 1547 4250 1301 3770 
Q 1056 3291 1056 2328 
Q 1056 1369 1301 889 
Q 1547 409 2034 409 
Q 2525 409 2770 889 
Q 3016 1369 3016 2328 
Q 3016 3291 2770 3770 
Q 2525 4250 2034 4250 
z
M 2034 4750 
Q 2819 4750 3233 4129 
Q 3647 3509 3647 2328 
Q 3647 1150 3233 529 
Q 2819 -91 2034 -91 
Q 1250 -91 836 529 
Q 422 1150 422 2328 
Q 422 3509 836 4129 
Q 1250 4750 2034 4750 
z
" transform="scale(0.015625)"/>
       </defs>
       <use xlink:href="#DejaVuSans-35"/>
       <use xlink:href="#DejaVuSans-30" x="63.623047"/>
      </g>
     </g>
    </g>
    <g id="xtick_2">
     <g id="line2d_2">
      <g>
       <use xlink:href="#mf3b673af4d" x="113.678453" y="307.584" style="stroke: #000000; stroke-width: 0.8"/>
      </g>
     </g>
     <g id="text_2">
      <!-- 100 -->
      <g transform="translate(104.134703 322.182437) scale(0.1 -0.1)">
       <defs>
        <path id="DejaVuSans-31" d="M 794 531 
L 1825 531 
L 1825 4091 
L 703 3866 
L 703 4441 
L 1819 4666 
L 2450 4666 
L 2450 531 
L 3481 531 
L 3481 0 
L 794 0 
L 794 531 
z
" transform="scale(0.015625)"/>
       </defs>
       <use xlink:href="#DejaVuSans-31"/>
       <use xlink:href="#DejaVuSans-30" x="63.623047"/>
       <use xlink:href="#DejaVuSans-30" x="127.246094"/>
      </g>
     </g>
    </g>
    <g id="xtick_3">
     <g id="line2d_3">
      <g>
       <use xlink:href="#mf3b673af4d" x="157.402688" y="307.584" style="stroke: #000000; stroke-width: 0.8"/>
      </g>
     </g>
     <g id="text_3">
      <!-- 150 -->
      <g transform="translate(147.858938 322.182437) scale(0.1 -0.1)">
       <use xlink:href="#DejaVuSans-31"/>
       <use xlink:href="#DejaVuSans-35" x="63.623047"/>
       <use xlink:href="#DejaVuSans-30" x="127.246094"/>
      </g>
     </g>
    </g>
    <g id="xtick_4">
     <g id="line2d_4">
      <g>
       <use xlink:href="#mf3b673af4d" x="201.126923" y="307.584" style="stroke: #000000; stroke-width: 0.8"/>
      </g>
     </g>
     <g id="text_4">
      <!-- 200 -->
      <g transform="translate(191.583173 322.182437) scale(0.1 -0.1)">
       <defs>
        <path id="DejaVuSans-32" d="M 1228 531 
L 3431 531 
L 3431 0 
L 469 0 
L 469 531 
Q 828 903 1448 1529 
Q 2069 2156 2228 2338 
Q 2531 2678 2651 2914 
Q 2772 3150 2772 3378 
Q 2772 3750 2511 3984 
Q 2250 4219 1831 4219 
Q 1534 4219 1204 4116 
Q 875 4013 500 3803 
L 500 4441 
Q 881 4594 1212 4672 
Q 1544 4750 1819 4750 
Q 2544 4750 2975 4387 
Q 3406 4025 3406 3419 
Q 3406 3131 3298 2873 
Q 3191 2616 2906 2266 
Q 2828 2175 2409 1742 
Q 1991 1309 1228 531 
z
" transform="scale(0.015625)"/>
       </defs>
       <use xlink:href="#DejaVuSans-32"/>
       <use xlink:href="#DejaVuSans-30" x="63.623047"/>
       <use xlink:href="#DejaVuSans-30" x="127.246094"/>
      </g>
     </g>
    </g>
    <g id="xtick_5">
     <g id="line2d_5">
      <g>
       <use xlink:href="#mf3b673af4d" x="244.851157" y="307.584" style="stroke: #000000; stroke-width: 0.8"/>
      </g>
     </g>
     <g id="text_5">
      <!-- 250 -->
      <g transform="translate(235.307407 322.182437) scale(0.1 -0.1)">
       <use xlink:href="#DejaVuSans-32"/>
       <use xlink:href="#DejaVuSans-35" x="63.623047"/>
       <use xlink:href="#DejaVuSans-30" x="127.246094"/>
      </g>
     </g>
    </g>
    <g id="xtick_6">
     <g id="line2d_6">
      <g>
       <use xlink:href="#mf3b673af4d" x="288.575392" y="307.584" style="stroke: #000000; stroke-width: 0.8"/>
      </g>
     </g>
     <g id="text_6">
      <!-- 300 -->
      <g transform="translate(279.031642 322.182437) scale(0.1 -0.1)">
       <defs>
        <path id="DejaVuSans-33" d="M 2597 2516 
Q 3050 2419 3304 2112 
Q 3559 1806 3559 1356 
Q 3559 666 3084 287 
Q 2609 -91 1734 -91 
Q 1441 -91 1130 -33 
Q 819 25 488 141 
L 488 750 
Q 750 597 1062 519 
Q 1375 441 1716 441 
Q 2309 441 2620 675 
Q 2931 909 2931 1356 
Q 2931 1769 2642 2001 
Q 2353 2234 1838 2234 
L 1294 2234 
L 1294 2753 
L 1863 2753 
Q 2328 2753 2575 2939 
Q 2822 3125 2822 3475 
Q 2822 3834 2567 4026 
Q 2313 4219 1838 4219 
Q 1578 4219 1281 4162 
Q 984 4106 628 3988 
L 628 4550 
Q 988 4650 1302 4700 
Q 1616 4750 1894 4750 
Q 2613 4750 3031 4423 
Q 3450 4097 3450 3541 
Q 3450 3153 3228 2886 
Q 3006 2619 2597 2516 
z
" transform="scale(0.015625)"/>
       </defs>
       <use xlink:href="#DejaVuSans-33"/>
       <use xlink:href="#DejaVuSans-30" x="63.623047"/>
       <use xlink:href="#DejaVuSans-30" x="127.246094"/>
      </g>
     </g>
    </g>
    <g id="xtick_7">
     <g id="line2d_7">
      <g>
       <use xlink:href="#mf3b673af4d" x="332.299627" y="307.584" style="stroke: #000000; stroke-width: 0.8"/>
      </g>
     </g>
     <g id="text_7">
      <!-- 350 -->
      <g transform="translate(322.755877 322.182437) scale(0.1 -0.1)">
       <use xlink:href="#DejaVuSans-33"/>
       <use xlink:href="#DejaVuSans-35" x="63.623047"/>
       <use xlink:href="#DejaVuSans-30" x="127.246094"/>
      </g>
     </g>
    </g>
    <g id="xtick_8">
     <g id="line2d_8">
      <g>
       <use xlink:href="#mf3b673af4d" x="376.023862" y="307.584" style="stroke: #000000; stroke-width: 0.8"/>
      </g>
     </g>
     <g id="text_8">
      <!-- 400 -->
      <g transform="translate(366.480112 322.182437) scale(0.1 -0.1)">
       <defs>
        <path id="DejaVuSans-34" d="M 2419 4116 
L 825 1625 
L 2419 1625 
L 2419 4116 
z
M 2253 4666 
L 3047 4666 
L 3047 1625 
L 3713 1625 
L 3713 1100 
L 3047 1100 
L 3047 0 
L 2419 0 
L 2419 1100 
L 313 1100 
L 313 1709 
L 2253 4666 
z
" transform="scale(0.015625)"/>
       </defs>
       <use xlink:href="#DejaVuSans-34"/>
       <use xlink:href="#DejaVuSans-30" x="63.623047"/>
       <use xlink:href="#DejaVuSans-30" x="127.246094"/>
      </g>
     </g>
    </g>
    <g id="text_9">
     <!-- ${m/z}$ -->
     <g transform="translate(226.96 335.860562) scale(0.1 -0.1)">
      <defs>
       <path id="DejaVuSans-Oblique-6d" d="M 5747 2113 
L 5338 0 
L 4763 0 
L 5166 2094 
Q 5191 2228 5203 2325 
Q 5216 2422 5216 2491 
Q 5216 2772 5059 2928 
Q 4903 3084 4622 3084 
Q 4203 3084 3875 2770 
Q 3547 2456 3450 1953 
L 3066 0 
L 2491 0 
L 2900 2094 
Q 2925 2209 2937 2307 
Q 2950 2406 2950 2484 
Q 2950 2769 2794 2926 
Q 2638 3084 2363 3084 
Q 1938 3084 1609 2770 
Q 1281 2456 1184 1953 
L 800 0 
L 225 0 
L 909 3500 
L 1484 3500 
L 1375 2956 
Q 1609 3263 1923 3423 
Q 2238 3584 2597 3584 
Q 2978 3584 3223 3384 
Q 3469 3184 3519 2828 
Q 3781 3197 4126 3390 
Q 4472 3584 4856 3584 
Q 5306 3584 5551 3325 
Q 5797 3066 5797 2591 
Q 5797 2488 5784 2364 
Q 5772 2241 5747 2113 
z
" transform="scale(0.015625)"/>
       <path id="DejaVuSans-2f" d="M 1625 4666 
L 2156 4666 
L 531 -594 
L 0 -594 
L 1625 4666 
z
" transform="scale(0.015625)"/>
       <path id="DejaVuSans-Oblique-7a" d="M 744 3500 
L 3475 3500 
L 3372 2975 
L 738 459 
L 2913 459 
L 2822 0 
L -19 0 
L 84 525 
L 2719 3041 
L 653 3041 
L 744 3500 
z
" transform="scale(0.015625)"/>
      </defs>
      <use xlink:href="#DejaVuSans-Oblique-6d" transform="translate(0 0.09375)"/>
      <use xlink:href="#DejaVuSans-2f" transform="translate(97.412109 0.09375)"/>
      <use xlink:href="#DejaVuSans-Oblique-7a" transform="translate(131.103516 0.09375)"/>
     </g>
    </g>
   </g>
   <g id="matplotlib.axis_2">
    <g id="ytick_1">
     <g id="line2d_9">
      <defs>
       <path id="m375eb3230a" d="M 0 0 
L -3.5 0 
" style="stroke: #000000; stroke-width: 0.8"/>
      </defs>
      <g>
       <use xlink:href="#m375eb3230a" x="57.6" y="307.584" style="stroke: #000000; stroke-width: 0.8"/>
      </g>
     </g>
     <g id="text_10">
      <!-- 0 -->
      <g transform="translate(44.2375 311.383219) scale(0.1 -0.1)">
       <use xlink:href="#DejaVuSans-30"/>
      </g>
     </g>
    </g>
    <g id="ytick_2">
     <g id="line2d_10">
      <g>
       <use xlink:href="#m375eb3230a" x="57.6" y="257.866263" style="stroke: #000000; stroke-width: 0.8"/>
      </g>
     </g>
     <g id="text_11">
      <!-- 100000 -->
      <g transform="translate(12.425 261.665482) scale(0.1 -0.1)">
       <use xlink:href="#DejaVuSans-31"/>
       <use xlink:href="#DejaVuSans-30" x="63.623047"/>
       <use xlink:href="#DejaVuSans-30" x="127.246094"/>
       <use xlink:href="#DejaVuSans-30" x="190.869141"/>
       <use xlink:href="#DejaVuSans-30" x="254.492188"/>
       <use xlink:href="#DejaVuSans-30" x="318.115234"/>
      </g>
     </g>
    </g>
    <g id="ytick_3">
     <g id="line2d_11">
      <g>
       <use xlink:href="#m375eb3230a" x="57.6" y="208.148527" style="stroke: #000000; stroke-width: 0.8"/>
      </g>
     </g>
     <g id="text_12">
      <!-- 200000 -->
      <g transform="translate(12.425 211.947746) scale(0.1 -0.1)">
       <use xlink:href="#DejaVuSans-32"/>
       <use xlink:href="#DejaVuSans-30" x="63.623047"/>
       <use xlink:href="#DejaVuSans-30" x="127.246094"/>
       <use xlink:href="#DejaVuSans-30" x="190.869141"/>
       <use xlink:href="#DejaVuSans-30" x="254.492188"/>
       <use xlink:href="#DejaVuSans-30" x="318.115234"/>
      </g>
     </g>
    </g>
    <g id="ytick_4">
     <g id="line2d_12">
      <g>
       <use xlink:href="#m375eb3230a" x="57.6" y="158.43079" style="stroke: #000000; stroke-width: 0.8"/>
      </g>
     </g>
     <g id="text_13">
      <!-- 300000 -->
      <g transform="translate(12.425 162.230009) scale(0.1 -0.1)">
       <use xlink:href="#DejaVuSans-33"/>
       <use xlink:href="#DejaVuSans-30" x="63.623047"/>
       <use xlink:href="#DejaVuSans-30" x="127.246094"/>
       <use xlink:href="#DejaVuSans-30" x="190.869141"/>
       <use xlink:href="#DejaVuSans-30" x="254.492188"/>
       <use xlink:href="#DejaVuSans-30" x="318.115234"/>
      </g>
     </g>
    </g>
    <g id="ytick_5">
     <g id="line2d_13">
      <g>
       <use xlink:href="#m375eb3230a" x="57.6" y="108.713054" style="stroke: #000000; stroke-width: 0.8"/>
      </g>
     </g>
     <g id="text_14">
      <!-- 400000 -->
      <g transform="translate(12.425 112.512272) scale(0.1 -0.1)">
       <use xlink:href="#DejaVuSans-34"/>
       <use xlink:href="#DejaVuSans-30" x="63.623047"/>
       <use xlink:href="#DejaVuSans-30" x="127.246094"/>
       <use xlink:href="#DejaVuSans-30" x="190.869141"/>
       <use xlink:href="#DejaVuSans-30" x="254.492188"/>
       <use xlink:href="#DejaVuSans-30" x="318.115234"/>
      </g>
     </g>
    </g>
    <g id="ytick_6">
     <g id="line2d_14">
      <g>
       <use xlink:href="#m375eb3230a" x="57.6" y="58.995317" style="stroke: #000000; stroke-width: 0.8"/>
      </g>
     </g>
     <g id="text_15">
      <!-- 500000 -->
      <g transform="translate(12.425 62.794536) scale(0.1 -0.1)">
       <use xlink:href="#DejaVuSans-35"/>
       <use xlink:href="#DejaVuSans-30" x="63.623047"/>
       <use xlink:href="#DejaVuSans-30" x="127.246094"/>
       <use xlink:href="#DejaVuSans-30" x="190.869141"/>
       <use xlink:href="#DejaVuSans-30" x="254.492188"/>
       <use xlink:href="#DejaVuSans-30" x="318.115234"/>
      </g>
     </g>
    </g>
    <g id="text_16">
     <!-- intensities -->
     <g transform="translate(6.345312 200.3155) rotate(-90) scale(0.1 -0.1)">
      <defs>
       <path id="DejaVuSans-69" d="M 603 3500 
L 1178 3500 
L 1178 0 
L 603 0 
L 603 3500 
z
M 603 4863 
L 1178 4863 
L 1178 4134 
L 603 4134 
L 603 4863 
z
" transform="scale(0.015625)"/>
       <path id="DejaVuSans-6e" d="M 3513 2113 
L 3513 0 
L 2938 0 
L 2938 2094 
Q 2938 2591 2744 2837 
Q 2550 3084 2163 3084 
Q 1697 3084 1428 2787 
Q 1159 2491 1159 1978 
L 1159 0 
L 581 0 
L 581 3500 
L 1159 3500 
L 1159 2956 
Q 1366 3272 1645 3428 
Q 1925 3584 2291 3584 
Q 2894 3584 3203 3211 
Q 3513 2838 3513 2113 
z
" transform="scale(0.015625)"/>
       <path id="DejaVuSans-74" d="M 1172 4494 
L 1172 3500 
L 2356 3500 
L 2356 3053 
L 1172 3053 
L 1172 1153 
Q 1172 725 1289 603 
Q 1406 481 1766 481 
L 2356 481 
L 2356 0 
L 1766 0 
Q 1100 0 847 248 
Q 594 497 594 1153 
L 594 3053 
L 172 3053 
L 172 3500 
L 594 3500 
L 594 4494 
L 1172 4494 
z
" transform="scale(0.015625)"/>
       <path id="DejaVuSans-65" d="M 3597 1894 
L 3597 1613 
L 953 1613 
Q 991 1019 1311 708 
Q 1631 397 2203 397 
Q 2534 397 2845 478 
Q 3156 559 3463 722 
L 3463 178 
Q 3153 47 2828 -22 
Q 2503 -91 2169 -91 
Q 1331 -91 842 396 
Q 353 884 353 1716 
Q 353 2575 817 3079 
Q 1281 3584 2069 3584 
Q 2775 3584 3186 3129 
Q 3597 2675 3597 1894 
z
M 3022 2063 
Q 3016 2534 2758 2815 
Q 2500 3097 2075 3097 
Q 1594 3097 1305 2825 
Q 1016 2553 972 2059 
L 3022 2063 
z
" transform="scale(0.015625)"/>
       <path id="DejaVuSans-73" d="M 2834 3397 
L 2834 2853 
Q 2591 2978 2328 3040 
Q 2066 3103 1784 3103 
Q 1356 3103 1142 2972 
Q 928 2841 928 2578 
Q 928 2378 1081 2264 
Q 1234 2150 1697 2047 
L 1894 2003 
Q 2506 1872 2764 1633 
Q 3022 1394 3022 966 
Q 3022 478 2636 193 
Q 2250 -91 1575 -91 
Q 1294 -91 989 -36 
Q 684 19 347 128 
L 347 722 
Q 666 556 975 473 
Q 1284 391 1588 391 
Q 1994 391 2212 530 
Q 2431 669 2431 922 
Q 2431 1156 2273 1281 
Q 2116 1406 1581 1522 
L 1381 1569 
Q 847 1681 609 1914 
Q 372 2147 372 2553 
Q 372 3047 722 3315 
Q 1072 3584 1716 3584 
Q 2034 3584 2315 3537 
Q 2597 3491 2834 3397 
z
" transform="scale(0.015625)"/>
      </defs>
      <use xlink:href="#DejaVuSans-69"/>
      <use xlink:href="#DejaVuSans-6e" x="27.783203"/>
      <use xlink:href="#DejaVuSans-74" x="91.162109"/>
      <use xlink:href="#DejaVuSans-65" x="130.371094"/>
      <use xlink:href="#DejaVuSans-6e" x="191.894531"/>
      <use xlink:href="#DejaVuSans-73" x="255.273438"/>
      <use xlink:href="#DejaVuSans-69" x="307.373047"/>
      <use xlink:href="#DejaVuSans-74" x="335.15625"/>
      <use xlink:href="#DejaVuSans-69" x="374.365234"/>
      <use xlink:href="#DejaVuSans-65" x="402.148438"/>
      <use xlink:href="#DejaVuSans-73" x="463.671875"/>
     </g>
    </g>
   </g>
   <g id="patch_157">
    <path d="M 57.6 307.584 
L 57.6 41.472 
" style="fill: none; stroke: #000000; stroke-width: 0.8; stroke-linejoin: miter; stroke-linecap: square"/>
   </g>
   <g id="patch_158">
    <path d="M 414.72 307.584 
L 414.72 41.472 
" style="fill: none; stroke: #000000; stroke-width: 0.8; stroke-linejoin: miter; stroke-linecap: square"/>
   </g>
   <g id="patch_159">
    <path d="M 57.6 307.584 
L 414.72 307.584 
" style="fill: none; stroke: #000000; stroke-width: 0.8; stroke-linejoin: miter; stroke-linecap: square"/>
   </g>
   <g id="patch_160">
    <path d="M 57.6 41.472 
L 414.72 41.472 
" style="fill: none; stroke: #000000; stroke-width: 0.8; stroke-linejoin: miter; stroke-linecap: square"/>
   </g>
   <g id="text_17">
    <!-- 102.0553 -->
    <g transform="translate(108.361112 168.755326) scale(0.06 -0.06)">
     <defs>
      <path id="DejaVuSans-2e" d="M 684 794 
L 1344 794 
L 1344 0 
L 684 0 
L 684 794 
z
" transform="scale(0.015625)"/>
     </defs>
     <use xlink:href="#DejaVuSans-31"/>
     <use xlink:href="#DejaVuSans-30" x="63.623047"/>
     <use xlink:href="#DejaVuSans-32" x="127.246094"/>
     <use xlink:href="#DejaVuSans-2e" x="190.869141"/>
     <use xlink:href="#DejaVuSans-30" x="222.65625"/>
     <use xlink:href="#DejaVuSans-35" x="286.279297"/>
     <use xlink:href="#DejaVuSans-35" x="349.902344"/>
     <use xlink:href="#DejaVuSans-33" x="413.525391"/>
    </g>
   </g>
   <g id="text_18">
    <!-- 130.0651 -->
    <g transform="translate(132.85523 267.805817) scale(0.06 -0.06)">
     <defs>
      <path id="DejaVuSans-36" d="M 2113 2584 
Q 1688 2584 1439 2293 
Q 1191 2003 1191 1497 
Q 1191 994 1439 701 
Q 1688 409 2113 409 
Q 2538 409 2786 701 
Q 3034 994 3034 1497 
Q 3034 2003 2786 2293 
Q 2538 2584 2113 2584 
z
M 3366 4563 
L 3366 3988 
Q 3128 4100 2886 4159 
Q 2644 4219 2406 4219 
Q 1781 4219 1451 3797 
Q 1122 3375 1075 2522 
Q 1259 2794 1537 2939 
Q 1816 3084 2150 3084 
Q 2853 3084 3261 2657 
Q 3669 2231 3669 1497 
Q 3669 778 3244 343 
Q 2819 -91 2113 -91 
Q 1303 -91 875 529 
Q 447 1150 447 2328 
Q 447 3434 972 4092 
Q 1497 4750 2381 4750 
Q 2619 4750 2861 4703 
Q 3103 4656 3366 4563 
z
" transform="scale(0.015625)"/>
     </defs>
     <use xlink:href="#DejaVuSans-31"/>
     <use xlink:href="#DejaVuSans-33" x="63.623047"/>
     <use xlink:href="#DejaVuSans-30" x="127.246094"/>
     <use xlink:href="#DejaVuSans-2e" x="190.869141"/>
     <use xlink:href="#DejaVuSans-30" x="222.65625"/>
     <use xlink:href="#DejaVuSans-36" x="286.279297"/>
     <use xlink:href="#DejaVuSans-35" x="349.902344"/>
     <use xlink:href="#DejaVuSans-31" x="413.525391"/>
    </g>
   </g>
   <g id="text_19">
    <!-- 202.0496 -->
    <g transform="translate(195.804544 242.264741) scale(0.06 -0.06)">
     <defs>
      <path id="DejaVuSans-39" d="M 703 97 
L 703 672 
Q 941 559 1184 500 
Q 1428 441 1663 441 
Q 2288 441 2617 861 
Q 2947 1281 2994 2138 
Q 2813 1869 2534 1725 
Q 2256 1581 1919 1581 
Q 1219 1581 811 2004 
Q 403 2428 403 3163 
Q 403 3881 828 4315 
Q 1253 4750 1959 4750 
Q 2769 4750 3195 4129 
Q 3622 3509 3622 2328 
Q 3622 1225 3098 567 
Q 2575 -91 1691 -91 
Q 1453 -91 1209 -44 
Q 966 3 703 97 
z
M 1959 2075 
Q 2384 2075 2632 2365 
Q 2881 2656 2881 3163 
Q 2881 3666 2632 3958 
Q 2384 4250 1959 4250 
Q 1534 4250 1286 3958 
Q 1038 3666 1038 3163 
Q 1038 2656 1286 2365 
Q 1534 2075 1959 2075 
z
" transform="scale(0.015625)"/>
     </defs>
     <use xlink:href="#DejaVuSans-32"/>
     <use xlink:href="#DejaVuSans-30" x="63.623047"/>
     <use xlink:href="#DejaVuSans-32" x="127.246094"/>
     <use xlink:href="#DejaVuSans-2e" x="190.869141"/>
     <use xlink:href="#DejaVuSans-30" x="222.65625"/>
     <use xlink:href="#DejaVuSans-34" x="286.279297"/>
     <use xlink:href="#DejaVuSans-39" x="349.902344"/>
     <use xlink:href="#DejaVuSans-36" x="413.525391"/>
    </g>
   </g>
   <g id="text_20">
    <!-- 211.0863 -->
    <g transform="translate(203.707011 176.12365) scale(0.06 -0.06)">
     <defs>
      <path id="DejaVuSans-38" d="M 2034 2216 
Q 1584 2216 1326 1975 
Q 1069 1734 1069 1313 
Q 1069 891 1326 650 
Q 1584 409 2034 409 
Q 2484 409 2743 651 
Q 3003 894 3003 1313 
Q 3003 1734 2745 1975 
Q 2488 2216 2034 2216 
z
M 1403 2484 
Q 997 2584 770 2862 
Q 544 3141 544 3541 
Q 544 4100 942 4425 
Q 1341 4750 2034 4750 
Q 2731 4750 3128 4425 
Q 3525 4100 3525 3541 
Q 3525 3141 3298 2862 
Q 3072 2584 2669 2484 
Q 3125 2378 3379 2068 
Q 3634 1759 3634 1313 
Q 3634 634 3220 271 
Q 2806 -91 2034 -91 
Q 1263 -91 848 271 
Q 434 634 434 1313 
Q 434 1759 690 2068 
Q 947 2378 1403 2484 
z
M 1172 3481 
Q 1172 3119 1398 2916 
Q 1625 2713 2034 2713 
Q 2441 2713 2670 2916 
Q 2900 3119 2900 3481 
Q 2900 3844 2670 4047 
Q 2441 4250 2034 4250 
Q 1625 4250 1398 4047 
Q 1172 3844 1172 3481 
z
" transform="scale(0.015625)"/>
     </defs>
     <use xlink:href="#DejaVuSans-32"/>
     <use xlink:href="#DejaVuSans-31" x="63.623047"/>
     <use xlink:href="#DejaVuSans-31" x="127.246094"/>
     <use xlink:href="#DejaVuSans-2e" x="190.869141"/>
     <use xlink:href="#DejaVuSans-30" x="222.65625"/>
     <use xlink:href="#DejaVuSans-38" x="286.279297"/>
     <use xlink:href="#DejaVuSans-36" x="349.902344"/>
     <use xlink:href="#DejaVuSans-33" x="413.525391"/>
    </g>
   </g>
   <g id="text_21">
    <!-- 212.0934 -->
    <g transform="translate(204.587768 271.529067) scale(0.06 -0.06)">
     <use xlink:href="#DejaVuSans-32"/>
     <use xlink:href="#DejaVuSans-31" x="63.623047"/>
     <use xlink:href="#DejaVuSans-32" x="127.246094"/>
     <use xlink:href="#DejaVuSans-2e" x="190.869141"/>
     <use xlink:href="#DejaVuSans-30" x="222.65625"/>
     <use xlink:href="#DejaVuSans-39" x="286.279297"/>
     <use xlink:href="#DejaVuSans-33" x="349.902344"/>
     <use xlink:href="#DejaVuSans-34" x="413.525391"/>
    </g>
   </g>
   <g id="text_22">
    <!-- 228.0651 -->
    <g transform="translate(218.208496 214.104829) scale(0.06 -0.06)">
     <use xlink:href="#DejaVuSans-32"/>
     <use xlink:href="#DejaVuSans-32" x="63.623047"/>
     <use xlink:href="#DejaVuSans-38" x="127.246094"/>
     <use xlink:href="#DejaVuSans-2e" x="190.869141"/>
     <use xlink:href="#DejaVuSans-30" x="222.65625"/>
     <use xlink:href="#DejaVuSans-36" x="286.279297"/>
     <use xlink:href="#DejaVuSans-35" x="349.902344"/>
     <use xlink:href="#DejaVuSans-31" x="413.525391"/>
    </g>
   </g>
   <g id="text_23">
    <!-- 228.0887 -->
    <g transform="translate(218.575386 79.524977) scale(0.06 -0.06)">
     <defs>
      <path id="DejaVuSans-37" d="M 525 4666 
L 3525 4666 
L 3525 4397 
L 1831 0 
L 1172 0 
L 2766 4134 
L 525 4134 
L 525 4666 
z
" transform="scale(0.015625)"/>
     </defs>
     <use xlink:href="#DejaVuSans-32"/>
     <use xlink:href="#DejaVuSans-32" x="63.623047"/>
     <use xlink:href="#DejaVuSans-38" x="127.246094"/>
     <use xlink:href="#DejaVuSans-2e" x="190.869141"/>
     <use xlink:href="#DejaVuSans-30" x="222.65625"/>
     <use xlink:href="#DejaVuSans-38" x="286.279297"/>
     <use xlink:href="#DejaVuSans-38" x="349.902344"/>
     <use xlink:href="#DejaVuSans-37" x="413.525391"/>
    </g>
   </g>
   <g id="text_24">
    <!-- 230.0446 -->
    <g transform="translate(226.218843 222.514761) scale(0.06 -0.06)">
     <use xlink:href="#DejaVuSans-32"/>
     <use xlink:href="#DejaVuSans-33" x="63.623047"/>
     <use xlink:href="#DejaVuSans-30" x="127.246094"/>
     <use xlink:href="#DejaVuSans-2e" x="190.869141"/>
     <use xlink:href="#DejaVuSans-30" x="222.65625"/>
     <use xlink:href="#DejaVuSans-34" x="286.279297"/>
     <use xlink:href="#DejaVuSans-34" x="349.902344"/>
     <use xlink:href="#DejaVuSans-36" x="413.525391"/>
    </g>
   </g>
   <g id="text_25">
    <!-- 240.0292 -->
    <g transform="translate(229.017163 285.577466) scale(0.06 -0.06)">
     <use xlink:href="#DejaVuSans-32"/>
     <use xlink:href="#DejaVuSans-34" x="63.623047"/>
     <use xlink:href="#DejaVuSans-30" x="127.246094"/>
     <use xlink:href="#DejaVuSans-2e" x="190.869141"/>
     <use xlink:href="#DejaVuSans-30" x="222.65625"/>
     <use xlink:href="#DejaVuSans-32" x="286.279297"/>
     <use xlink:href="#DejaVuSans-39" x="349.902344"/>
     <use xlink:href="#DejaVuSans-32" x="413.525391"/>
    </g>
   </g>
   <g id="text_26">
    <!-- 246.0755 -->
    <g transform="translate(234.113309 265.241435) scale(0.06 -0.06)">
     <use xlink:href="#DejaVuSans-32"/>
     <use xlink:href="#DejaVuSans-34" x="63.623047"/>
     <use xlink:href="#DejaVuSans-36" x="127.246094"/>
     <use xlink:href="#DejaVuSans-2e" x="190.869141"/>
     <use xlink:href="#DejaVuSans-30" x="222.65625"/>
     <use xlink:href="#DejaVuSans-37" x="286.279297"/>
     <use xlink:href="#DejaVuSans-35" x="349.902344"/>
     <use xlink:href="#DejaVuSans-35" x="413.525391"/>
    </g>
   </g>
   <g id="text_27">
    <!-- 272.0547 -->
    <g transform="translate(257.022983 50.939625) scale(0.06 -0.06)">
     <use xlink:href="#DejaVuSans-32"/>
     <use xlink:href="#DejaVuSans-37" x="63.623047"/>
     <use xlink:href="#DejaVuSans-32" x="127.246094"/>
     <use xlink:href="#DejaVuSans-2e" x="190.869141"/>
     <use xlink:href="#DejaVuSans-30" x="222.65625"/>
     <use xlink:href="#DejaVuSans-35" x="286.279297"/>
     <use xlink:href="#DejaVuSans-34" x="349.902344"/>
     <use xlink:href="#DejaVuSans-37" x="413.525391"/>
    </g>
   </g>
   <g id="text_28">
    <!-- 287.1023 -->
    <g transform="translate(270.181859 277.129235) scale(0.06 -0.06)">
     <use xlink:href="#DejaVuSans-32"/>
     <use xlink:href="#DejaVuSans-38" x="63.623047"/>
     <use xlink:href="#DejaVuSans-37" x="127.246094"/>
     <use xlink:href="#DejaVuSans-2e" x="190.869141"/>
     <use xlink:href="#DejaVuSans-31" x="222.65625"/>
     <use xlink:href="#DejaVuSans-30" x="286.279297"/>
     <use xlink:href="#DejaVuSans-32" x="349.902344"/>
     <use xlink:href="#DejaVuSans-33" x="413.525391"/>
    </g>
   </g>
   <g id="text_29">
    <!-- 288.0858 -->
    <g transform="translate(263.121879 233.776922) scale(0.06 -0.06)">
     <use xlink:href="#DejaVuSans-32"/>
     <use xlink:href="#DejaVuSans-38" x="63.623047"/>
     <use xlink:href="#DejaVuSans-38" x="127.246094"/>
     <use xlink:href="#DejaVuSans-2e" x="190.869141"/>
     <use xlink:href="#DejaVuSans-30" x="222.65625"/>
     <use xlink:href="#DejaVuSans-38" x="286.279297"/>
     <use xlink:href="#DejaVuSans-35" x="349.902344"/>
     <use xlink:href="#DejaVuSans-38" x="413.525391"/>
    </g>
   </g>
   <g id="text_30">
    <!-- 304.081 -->
    <g transform="translate(285.498221 207.428805) scale(0.06 -0.06)">
     <use xlink:href="#DejaVuSans-33"/>
     <use xlink:href="#DejaVuSans-30" x="63.623047"/>
     <use xlink:href="#DejaVuSans-34" x="127.246094"/>
     <use xlink:href="#DejaVuSans-2e" x="190.869141"/>
     <use xlink:href="#DejaVuSans-30" x="222.65625"/>
     <use xlink:href="#DejaVuSans-38" x="286.279297"/>
     <use xlink:href="#DejaVuSans-31" x="349.902344"/>
    </g>
   </g>
   <g id="text_31">
    <!-- 331.0923 -->
    <g transform="translate(308.478562 247.520492) scale(0.06 -0.06)">
     <use xlink:href="#DejaVuSans-33"/>
     <use xlink:href="#DejaVuSans-33" x="63.623047"/>
     <use xlink:href="#DejaVuSans-31" x="127.246094"/>
     <use xlink:href="#DejaVuSans-2e" x="190.869141"/>
     <use xlink:href="#DejaVuSans-30" x="222.65625"/>
     <use xlink:href="#DejaVuSans-39" x="286.279297"/>
     <use xlink:href="#DejaVuSans-32" x="349.902344"/>
     <use xlink:href="#DejaVuSans-33" x="413.525391"/>
    </g>
   </g>
   <g id="text_32">
    <!-- 332.0752 -->
    <g transform="translate(309.509945 259.399237) scale(0.06 -0.06)">
     <use xlink:href="#DejaVuSans-33"/>
     <use xlink:href="#DejaVuSans-33" x="63.623047"/>
     <use xlink:href="#DejaVuSans-32" x="127.246094"/>
     <use xlink:href="#DejaVuSans-2e" x="190.869141"/>
     <use xlink:href="#DejaVuSans-30" x="222.65625"/>
     <use xlink:href="#DejaVuSans-37" x="286.279297"/>
     <use xlink:href="#DejaVuSans-35" x="349.902344"/>
     <use xlink:href="#DejaVuSans-32" x="413.525391"/>
    </g>
   </g>
   <g id="text_33">
    <!-- 363.1179 -->
    <g transform="translate(336.656306 264.070774) scale(0.06 -0.06)">
     <use xlink:href="#DejaVuSans-33"/>
     <use xlink:href="#DejaVuSans-36" x="63.623047"/>
     <use xlink:href="#DejaVuSans-33" x="127.246094"/>
     <use xlink:href="#DejaVuSans-2e" x="190.869141"/>
     <use xlink:href="#DejaVuSans-31" x="222.65625"/>
     <use xlink:href="#DejaVuSans-31" x="286.279297"/>
     <use xlink:href="#DejaVuSans-37" x="349.902344"/>
     <use xlink:href="#DejaVuSans-39" x="413.525391"/>
    </g>
   </g>
   <g id="text_34">
    <!-- MS2 spectrum of ${m/z}$ 426.1855, scan time 6.23 min. -->
    <g transform="translate(57.6 35.472) scale(0.12 -0.12)">
     <defs>
      <path id="DejaVuSans-4d" d="M 628 4666 
L 1569 4666 
L 2759 1491 
L 3956 4666 
L 4897 4666 
L 4897 0 
L 4281 0 
L 4281 4097 
L 3078 897 
L 2444 897 
L 1241 4097 
L 1241 0 
L 628 0 
L 628 4666 
z
" transform="scale(0.015625)"/>
      <path id="DejaVuSans-53" d="M 3425 4513 
L 3425 3897 
Q 3066 4069 2747 4153 
Q 2428 4238 2131 4238 
Q 1616 4238 1336 4038 
Q 1056 3838 1056 3469 
Q 1056 3159 1242 3001 
Q 1428 2844 1947 2747 
L 2328 2669 
Q 3034 2534 3370 2195 
Q 3706 1856 3706 1288 
Q 3706 609 3251 259 
Q 2797 -91 1919 -91 
Q 1588 -91 1214 -16 
Q 841 59 441 206 
L 441 856 
Q 825 641 1194 531 
Q 1563 422 1919 422 
Q 2459 422 2753 634 
Q 3047 847 3047 1241 
Q 3047 1584 2836 1778 
Q 2625 1972 2144 2069 
L 1759 2144 
Q 1053 2284 737 2584 
Q 422 2884 422 3419 
Q 422 4038 858 4394 
Q 1294 4750 2059 4750 
Q 2388 4750 2728 4690 
Q 3069 4631 3425 4513 
z
" transform="scale(0.015625)"/>
      <path id="DejaVuSans-20" transform="scale(0.015625)"/>
      <path id="DejaVuSans-70" d="M 1159 525 
L 1159 -1331 
L 581 -1331 
L 581 3500 
L 1159 3500 
L 1159 2969 
Q 1341 3281 1617 3432 
Q 1894 3584 2278 3584 
Q 2916 3584 3314 3078 
Q 3713 2572 3713 1747 
Q 3713 922 3314 415 
Q 2916 -91 2278 -91 
Q 1894 -91 1617 61 
Q 1341 213 1159 525 
z
M 3116 1747 
Q 3116 2381 2855 2742 
Q 2594 3103 2138 3103 
Q 1681 3103 1420 2742 
Q 1159 2381 1159 1747 
Q 1159 1113 1420 752 
Q 1681 391 2138 391 
Q 2594 391 2855 752 
Q 3116 1113 3116 1747 
z
" transform="scale(0.015625)"/>
      <path id="DejaVuSans-63" d="M 3122 3366 
L 3122 2828 
Q 2878 2963 2633 3030 
Q 2388 3097 2138 3097 
Q 1578 3097 1268 2742 
Q 959 2388 959 1747 
Q 959 1106 1268 751 
Q 1578 397 2138 397 
Q 2388 397 2633 464 
Q 2878 531 3122 666 
L 3122 134 
Q 2881 22 2623 -34 
Q 2366 -91 2075 -91 
Q 1284 -91 818 406 
Q 353 903 353 1747 
Q 353 2603 823 3093 
Q 1294 3584 2113 3584 
Q 2378 3584 2631 3529 
Q 2884 3475 3122 3366 
z
" transform="scale(0.015625)"/>
      <path id="DejaVuSans-72" d="M 2631 2963 
Q 2534 3019 2420 3045 
Q 2306 3072 2169 3072 
Q 1681 3072 1420 2755 
Q 1159 2438 1159 1844 
L 1159 0 
L 581 0 
L 581 3500 
L 1159 3500 
L 1159 2956 
Q 1341 3275 1631 3429 
Q 1922 3584 2338 3584 
Q 2397 3584 2469 3576 
Q 2541 3569 2628 3553 
L 2631 2963 
z
" transform="scale(0.015625)"/>
      <path id="DejaVuSans-75" d="M 544 1381 
L 544 3500 
L 1119 3500 
L 1119 1403 
Q 1119 906 1312 657 
Q 1506 409 1894 409 
Q 2359 409 2629 706 
Q 2900 1003 2900 1516 
L 2900 3500 
L 3475 3500 
L 3475 0 
L 2900 0 
L 2900 538 
Q 2691 219 2414 64 
Q 2138 -91 1772 -91 
Q 1169 -91 856 284 
Q 544 659 544 1381 
z
M 1991 3584 
L 1991 3584 
z
" transform="scale(0.015625)"/>
      <path id="DejaVuSans-6d" d="M 3328 2828 
Q 3544 3216 3844 3400 
Q 4144 3584 4550 3584 
Q 5097 3584 5394 3201 
Q 5691 2819 5691 2113 
L 5691 0 
L 5113 0 
L 5113 2094 
Q 5113 2597 4934 2840 
Q 4756 3084 4391 3084 
Q 3944 3084 3684 2787 
Q 3425 2491 3425 1978 
L 3425 0 
L 2847 0 
L 2847 2094 
Q 2847 2600 2669 2842 
Q 2491 3084 2119 3084 
Q 1678 3084 1418 2786 
Q 1159 2488 1159 1978 
L 1159 0 
L 581 0 
L 581 3500 
L 1159 3500 
L 1159 2956 
Q 1356 3278 1631 3431 
Q 1906 3584 2284 3584 
Q 2666 3584 2933 3390 
Q 3200 3197 3328 2828 
z
" transform="scale(0.015625)"/>
      <path id="DejaVuSans-6f" d="M 1959 3097 
Q 1497 3097 1228 2736 
Q 959 2375 959 1747 
Q 959 1119 1226 758 
Q 1494 397 1959 397 
Q 2419 397 2687 759 
Q 2956 1122 2956 1747 
Q 2956 2369 2687 2733 
Q 2419 3097 1959 3097 
z
M 1959 3584 
Q 2709 3584 3137 3096 
Q 3566 2609 3566 1747 
Q 3566 888 3137 398 
Q 2709 -91 1959 -91 
Q 1206 -91 779 398 
Q 353 888 353 1747 
Q 353 2609 779 3096 
Q 1206 3584 1959 3584 
z
" transform="scale(0.015625)"/>
      <path id="DejaVuSans-66" d="M 2375 4863 
L 2375 4384 
L 1825 4384 
Q 1516 4384 1395 4259 
Q 1275 4134 1275 3809 
L 1275 3500 
L 2222 3500 
L 2222 3053 
L 1275 3053 
L 1275 0 
L 697 0 
L 697 3053 
L 147 3053 
L 147 3500 
L 697 3500 
L 697 3744 
Q 697 4328 969 4595 
Q 1241 4863 1831 4863 
L 2375 4863 
z
" transform="scale(0.015625)"/>
      <path id="DejaVuSans-2c" d="M 750 794 
L 1409 794 
L 1409 256 
L 897 -744 
L 494 -744 
L 750 256 
L 750 794 
z
" transform="scale(0.015625)"/>
      <path id="DejaVuSans-61" d="M 2194 1759 
Q 1497 1759 1228 1600 
Q 959 1441 959 1056 
Q 959 750 1161 570 
Q 1363 391 1709 391 
Q 2188 391 2477 730 
Q 2766 1069 2766 1631 
L 2766 1759 
L 2194 1759 
z
M 3341 1997 
L 3341 0 
L 2766 0 
L 2766 531 
Q 2569 213 2275 61 
Q 1981 -91 1556 -91 
Q 1019 -91 701 211 
Q 384 513 384 1019 
Q 384 1609 779 1909 
Q 1175 2209 1959 2209 
L 2766 2209 
L 2766 2266 
Q 2766 2663 2505 2880 
Q 2244 3097 1772 3097 
Q 1472 3097 1187 3025 
Q 903 2953 641 2809 
L 641 3341 
Q 956 3463 1253 3523 
Q 1550 3584 1831 3584 
Q 2591 3584 2966 3190 
Q 3341 2797 3341 1997 
z
" transform="scale(0.015625)"/>
     </defs>
     <use xlink:href="#DejaVuSans-4d" transform="translate(0 0.015625)"/>
     <use xlink:href="#DejaVuSans-53" transform="translate(86.279297 0.015625)"/>
     <use xlink:href="#DejaVuSans-32" transform="translate(149.755859 0.015625)"/>
     <use xlink:href="#DejaVuSans-20" transform="translate(213.378906 0.015625)"/>
     <use xlink:href="#DejaVuSans-73" transform="translate(245.166016 0.015625)"/>
     <use xlink:href="#DejaVuSans-70" transform="translate(297.265625 0.015625)"/>
     <use xlink:href="#DejaVuSans-65" transform="translate(360.742188 0.015625)"/>
     <use xlink:href="#DejaVuSans-63" transform="translate(422.265625 0.015625)"/>
     <use xlink:href="#DejaVuSans-74" transform="translate(477.246094 0.015625)"/>
     <use xlink:href="#DejaVuSans-72" transform="translate(516.455078 0.015625)"/>
     <use xlink:href="#DejaVuSans-75" transform="translate(557.568359 0.015625)"/>
     <use xlink:href="#DejaVuSans-6d" transform="translate(620.947266 0.015625)"/>
     <use xlink:href="#DejaVuSans-20" transform="translate(718.359375 0.015625)"/>
     <use xlink:href="#DejaVuSans-6f" transform="translate(750.146484 0.015625)"/>
     <use xlink:href="#DejaVuSans-66" transform="translate(811.328125 0.015625)"/>
     <use xlink:href="#DejaVuSans-20" transform="translate(846.533203 0.015625)"/>
     <use xlink:href="#DejaVuSans-Oblique-6d" transform="translate(878.320312 0.015625)"/>
     <use xlink:href="#DejaVuSans-2f" transform="translate(975.732422 0.015625)"/>
     <use xlink:href="#DejaVuSans-Oblique-7a" transform="translate(1009.423828 0.015625)"/>
     <use xlink:href="#DejaVuSans-20" transform="translate(1061.914062 0.015625)"/>
     <use xlink:href="#DejaVuSans-34" transform="translate(1093.701172 0.015625)"/>
     <use xlink:href="#DejaVuSans-32" transform="translate(1157.324219 0.015625)"/>
     <use xlink:href="#DejaVuSans-36" transform="translate(1220.947266 0.015625)"/>
     <use xlink:href="#DejaVuSans-2e" transform="translate(1284.570312 0.015625)"/>
     <use xlink:href="#DejaVuSans-31" transform="translate(1316.357422 0.015625)"/>
     <use xlink:href="#DejaVuSans-38" transform="translate(1379.980469 0.015625)"/>
     <use xlink:href="#DejaVuSans-35" transform="translate(1443.603516 0.015625)"/>
     <use xlink:href="#DejaVuSans-35" transform="translate(1507.226562 0.015625)"/>
     <use xlink:href="#DejaVuSans-2c" transform="translate(1570.849609 0.015625)"/>
     <use xlink:href="#DejaVuSans-20" transform="translate(1602.636719 0.015625)"/>
     <use xlink:href="#DejaVuSans-73" transform="translate(1634.423828 0.015625)"/>
     <use xlink:href="#DejaVuSans-63" transform="translate(1686.523438 0.015625)"/>
     <use xlink:href="#DejaVuSans-61" transform="translate(1741.503906 0.015625)"/>
     <use xlink:href="#DejaVuSans-6e" transform="translate(1802.783203 0.015625)"/>
     <use xlink:href="#DejaVuSans-20" transform="translate(1866.162109 0.015625)"/>
     <use xlink:href="#DejaVuSans-74" transform="translate(1897.949219 0.015625)"/>
     <use xlink:href="#DejaVuSans-69" transform="translate(1937.158203 0.015625)"/>
     <use xlink:href="#DejaVuSans-6d" transform="translate(1964.941406 0.015625)"/>
     <use xlink:href="#DejaVuSans-65" transform="translate(2062.353516 0.015625)"/>
     <use xlink:href="#DejaVuSans-20" transform="translate(2123.876953 0.015625)"/>
     <use xlink:href="#DejaVuSans-36" transform="translate(2155.664062 0.015625)"/>
     <use xlink:href="#DejaVuSans-2e" transform="translate(2219.287109 0.015625)"/>
     <use xlink:href="#DejaVuSans-32" transform="translate(2245.574219 0.015625)"/>
     <use xlink:href="#DejaVuSans-33" transform="translate(2309.197266 0.015625)"/>
     <use xlink:href="#DejaVuSans-20" transform="translate(2372.820312 0.015625)"/>
     <use xlink:href="#DejaVuSans-6d" transform="translate(2404.607422 0.015625)"/>
     <use xlink:href="#DejaVuSans-69" transform="translate(2502.019531 0.015625)"/>
     <use xlink:href="#DejaVuSans-6e" transform="translate(2529.802734 0.015625)"/>
     <use xlink:href="#DejaVuSans-2e" transform="translate(2593.181641 0.015625)"/>
    </g>
   </g>
  </g>
 </g>
 <defs>
  <clipPath id="p593343beb0">
   <rect x="57.6" y="41.472" width="357.12" height="266.112"/>
  </clipPath>
 </defs>
</svg>
