<?xml version="1.0" encoding="utf-8" standalone="no"?>
<!DOCTYPE svg PUBLIC "-//W3C//DTD SVG 1.1//EN"
  "http://www.w3.org/Graphics/SVG/1.1/DTD/svg11.dtd">
<svg xmlns:xlink="http://www.w3.org/1999/xlink" width="460.8pt" height="345.6pt" viewBox="0 0 460.8 345.6" xmlns="http://www.w3.org/2000/svg" version="1.1">
 <metadata>
  <rdf:RDF xmlns:dc="http://purl.org/dc/elements/1.1/" xmlns:cc="http://creativecommons.org/ns#" xmlns:rdf="http://www.w3.org/1999/02/22-rdf-syntax-ns#">
   <cc:Work>
    <dc:type rdf:resource="http://purl.org/dc/dcmitype/StillImage"/>
    <dc:date>2025-01-11T13:53:54.280413</dc:date>
    <dc:format>image/svg+xml</dc:format>
    <dc:creator>
     <cc:Agent>
      <dc:title>Matplotlib v3.7.3, https://matplotlib.org/</dc:title>
     </cc:Agent>
    </dc:creator>
   </cc:Work>
  </rdf:RDF>
 </metadata>
 <defs>
  <style type="text/css">*{stroke-linejoin: round; stroke-linecap: butt}</style>
 </defs>
 <g id="figure_1">
  <g id="patch_1">
   <path d="M 0 345.6 
L 460.8 345.6 
L 460.8 0 
L 0 0 
z
" style="fill: #ffffff"/>
  </g>
  <g id="axes_1">
   <g id="patch_2">
    <path d="M 57.6 307.584 
L 414.72 307.584 
L 414.72 41.472 
L 57.6 41.472 
z
" style="fill: #ffffff"/>
   </g>
   <g id="patch_3">
    <path d="M 73.832727 307.584 
L 74.725026 307.584 
L 74.725026 304.882547 
L 73.832727 304.882547 
z
" clip-path="url(#p5d5a9280e9)" style="fill: #1f77b4"/>
   </g>
   <g id="patch_4">
    <path d="M 74.037503 307.584 
L 74.929801 307.584 
L 74.929801 306.30617 
L 74.037503 306.30617 
z
" clip-path="url(#p5d5a9280e9)" style="fill: #1f77b4"/>
   </g>
   <g id="patch_5">
    <path d="M 74.088977 307.584 
L 74.981276 307.584 
L 74.981276 305.859713 
L 74.088977 305.859713 
z
" clip-path="url(#p5d5a9280e9)" style="fill: #1f77b4"/>
   </g>
   <g id="patch_6">
    <path d="M 75.187918 307.584 
L 76.080217 307.584 
L 76.080217 303.950219 
L 75.187918 303.950219 
z
" clip-path="url(#p5d5a9280e9)" style="fill: #1f77b4"/>
   </g>
   <g id="patch_7">
    <path d="M 76.285481 307.584 
L 77.177779 307.584 
L 77.177779 306.3856 
L 76.285481 306.3856 
z
" clip-path="url(#p5d5a9280e9)" style="fill: #1f77b4"/>
   </g>
   <g id="patch_8">
    <path d="M 76.543884 307.584 
L 77.436182 307.584 
L 77.436182 305.752085 
L 76.543884 305.752085 
z
" clip-path="url(#p5d5a9280e9)" style="fill: #1f77b4"/>
   </g>
   <g id="patch_9">
    <path d="M 78.53368 307.584 
L 79.425978 307.584 
L 79.425978 305.306929 
L 78.53368 305.306929 
z
" clip-path="url(#p5d5a9280e9)" style="fill: #1f77b4"/>
   </g>
   <g id="patch_10">
    <path d="M 79.224563 307.584 
L 80.116861 307.584 
L 80.116861 306.365791 
L 79.224563 306.365791 
z
" clip-path="url(#p5d5a9280e9)" style="fill: #1f77b4"/>
   </g>
   <g id="patch_11">
    <path d="M 80.410391 307.584 
L 81.30269 307.584 
L 81.30269 306.46602 
L 80.410391 306.46602 
z
" clip-path="url(#p5d5a9280e9)" style="fill: #1f77b4"/>
   </g>
   <g id="patch_12">
    <path d="M 81.996883 307.584 
L 82.889181 307.584 
L 82.889181 306.250181 
L 81.996883 306.250181 
z
" clip-path="url(#p5d5a9280e9)" style="fill: #1f77b4"/>
   </g>
   <g id="patch_13">
    <path d="M 85.214072 307.584 
L 86.10637 307.584 
L 86.10637 305.273419 
L 85.214072 305.273419 
z
" clip-path="url(#p5d5a9280e9)" style="fill: #1f77b4"/>
   </g>
   <g id="patch_14">
    <path d="M 87.421842 307.584 
L 88.31414 307.584 
L 88.31414 301.00743 
L 87.421842 301.00743 
z
" clip-path="url(#p5d5a9280e9)" style="fill: #1f77b4"/>
   </g>
   <g id="patch_15">
    <path d="M 88.572479 307.584 
L 89.464777 307.584 
L 89.464777 300.95729 
L 88.572479 300.95729 
z
" clip-path="url(#p5d5a9280e9)" style="fill: #1f77b4"/>
   </g>
   <g id="patch_16">
    <path d="M 94.566953 307.584 
L 95.459252 307.584 
L 95.459252 306.226838 
L 94.566953 306.226838 
z
" clip-path="url(#p5d5a9280e9)" style="fill: #1f77b4"/>
   </g>
   <g id="patch_17">
    <path d="M 96.373707 307.584 
L 97.266006 307.584 
L 97.266006 305.983142 
L 96.373707 305.983142 
z
" clip-path="url(#p5d5a9280e9)" style="fill: #1f77b4"/>
   </g>
   <g id="patch_18">
    <path d="M 114.23106 307.584 
L 115.123359 307.584 
L 115.123359 303.352465 
L 114.23106 303.352465 
z
" clip-path="url(#p5d5a9280e9)" style="fill: #1f77b4"/>
   </g>
   <g id="patch_19">
    <path d="M 115.341047 307.584 
L 116.233345 307.584 
L 116.233345 303.386889 
L 115.341047 303.386889 
z
" clip-path="url(#p5d5a9280e9)" style="fill: #1f77b4"/>
   </g>
   <g id="patch_20">
    <path d="M 119.796956 307.584 
L 120.689255 307.584 
L 120.689255 305.000945 
L 119.796956 305.000945 
z
" clip-path="url(#p5d5a9280e9)" style="fill: #1f77b4"/>
   </g>
   <g id="patch_21">
    <path d="M 120.718633 307.584 
L 121.610932 307.584 
L 121.610932 306.104013 
L 120.718633 306.104013 
z
" clip-path="url(#p5d5a9280e9)" style="fill: #1f77b4"/>
   </g>
   <g id="patch_22">
    <path d="M 122.044841 307.584 
L 122.937139 307.584 
L 122.937139 300.358813 
L 122.044841 300.358813 
z
" clip-path="url(#p5d5a9280e9)" style="fill: #1f77b4"/>
   </g>
   <g id="patch_23">
    <path d="M 123.142947 307.584 
L 124.035246 307.584 
L 124.035246 305.562123 
L 123.142947 305.562123 
z
" clip-path="url(#p5d5a9280e9)" style="fill: #1f77b4"/>
   </g>
   <g id="patch_24">
    <path d="M 124.293057 307.584 
L 125.185355 307.584 
L 125.185355 305.698874 
L 124.293057 305.698874 
z
" clip-path="url(#p5d5a9280e9)" style="fill: #1f77b4"/>
   </g>
   <g id="patch_25">
    <path d="M 125.857133 307.584 
L 126.749432 307.584 
L 126.749432 306.077794 
L 125.857133 306.077794 
z
" clip-path="url(#p5d5a9280e9)" style="fill: #1f77b4"/>
   </g>
   <g id="patch_26">
    <path d="M 126.500818 307.584 
L 127.393116 307.584 
L 127.393116 168.590508 
L 126.500818 168.590508 
z
" clip-path="url(#p5d5a9280e9)" style="fill: #1f77b4"/>
   </g>
   <g id="patch_27">
    <path d="M 126.506707 307.584 
L 127.399005 307.584 
L 127.399005 305.51054 
L 126.506707 305.51054 
z
" clip-path="url(#p5d5a9280e9)" style="fill: #1f77b4"/>
   </g>
   <g id="patch_28">
    <path d="M 127.620625 307.584 
L 128.512923 307.584 
L 128.512923 305.71269 
L 127.620625 305.71269 
z
" clip-path="url(#p5d5a9280e9)" style="fill: #1f77b4"/>
   </g>
   <g id="patch_29">
    <path d="M 133.181151 307.584 
L 134.073449 307.584 
L 134.073449 306.040051 
L 133.181151 306.040051 
z
" clip-path="url(#p5d5a9280e9)" style="fill: #1f77b4"/>
   </g>
   <g id="patch_30">
    <path d="M 135.429069 307.584 
L 136.321368 307.584 
L 136.321368 306.089719 
L 135.429069 306.089719 
z
" clip-path="url(#p5d5a9280e9)" style="fill: #1f77b4"/>
   </g>
   <g id="patch_31">
    <path d="M 137.043131 307.584 
L 137.93543 307.584 
L 137.93543 306.321357 
L 137.043131 306.321357 
z
" clip-path="url(#p5d5a9280e9)" style="fill: #1f77b4"/>
   </g>
   <g id="patch_32">
    <path d="M 137.637333 307.584 
L 138.529631 307.584 
L 138.529631 305.795844 
L 137.637333 305.795844 
z
" clip-path="url(#p5d5a9280e9)" style="fill: #1f77b4"/>
   </g>
   <g id="patch_33">
    <path d="M 139.861569 307.584 
L 140.753867 307.584 
L 140.753867 299.320195 
L 139.861569 299.320195 
z
" clip-path="url(#p5d5a9280e9)" style="fill: #1f77b4"/>
   </g>
   <g id="patch_34">
    <path d="M 140.999807 307.584 
L 141.892105 307.584 
L 141.892105 304.543302 
L 140.999807 304.543302 
z
" clip-path="url(#p5d5a9280e9)" style="fill: #1f77b4"/>
   </g>
   <g id="patch_35">
    <path d="M 142.109504 307.584 
L 143.001802 307.584 
L 143.001802 300.500432 
L 142.109504 300.500432 
z
" clip-path="url(#p5d5a9280e9)" style="fill: #1f77b4"/>
   </g>
   <g id="patch_36">
    <path d="M 143.233855 307.584 
L 144.126153 307.584 
L 144.126153 304.615483 
L 143.233855 304.615483 
z
" clip-path="url(#p5d5a9280e9)" style="fill: #1f77b4"/>
   </g>
   <g id="patch_37">
    <path d="M 144.358035 307.584 
L 145.250333 307.584 
L 145.250333 305.136518 
L 144.358035 305.136518 
z
" clip-path="url(#p5d5a9280e9)" style="fill: #1f77b4"/>
   </g>
   <g id="patch_38">
    <path d="M 146.565448 307.584 
L 147.457746 307.584 
L 147.457746 303.108723 
L 146.565448 303.108723 
z
" clip-path="url(#p5d5a9280e9)" style="fill: #1f77b4"/>
   </g>
   <g id="patch_39">
    <path d="M 153.269292 307.584 
L 154.161591 307.584 
L 154.161591 304.156588 
L 153.269292 304.156588 
z
" clip-path="url(#p5d5a9280e9)" style="fill: #1f77b4"/>
   </g>
   <g id="patch_40">
    <path d="M 155.49386 307.584 
L 156.386159 307.584 
L 156.386159 295.139289 
L 155.49386 295.139289 
z
" clip-path="url(#p5d5a9280e9)" style="fill: #1f77b4"/>
   </g>
   <g id="patch_41">
    <path d="M 155.517602 307.584 
L 156.4099 307.584 
L 156.4099 302.991715 
L 155.517602 302.991715 
z
" clip-path="url(#p5d5a9280e9)" style="fill: #1f77b4"/>
   </g>
   <g id="patch_42">
    <path d="M 156.618066 307.584 
L 157.510365 307.584 
L 157.510365 304.161838 
L 156.618066 304.161838 
z
" clip-path="url(#p5d5a9280e9)" style="fill: #1f77b4"/>
   </g>
   <g id="patch_43">
    <path d="M 157.701817 307.584 
L 158.594116 307.584 
L 158.594116 305.672461 
L 157.701817 305.672461 
z
" clip-path="url(#p5d5a9280e9)" style="fill: #1f77b4"/>
   </g>
   <g id="patch_44">
    <path d="M 157.725253 307.584 
L 158.617551 307.584 
L 158.617551 304.454812 
L 157.725253 304.454812 
z
" clip-path="url(#p5d5a9280e9)" style="fill: #1f77b4"/>
   </g>
   <g id="patch_45">
    <path d="M 157.74217 307.584 
L 158.634468 307.584 
L 158.634468 270.827143 
L 157.74217 270.827143 
z
" clip-path="url(#p5d5a9280e9)" style="fill: #1f77b4"/>
   </g>
   <g id="patch_46">
    <path d="M 158.862121 307.584 
L 159.75442 307.584 
L 159.75442 305.912212 
L 158.862121 305.912212 
z
" clip-path="url(#p5d5a9280e9)" style="fill: #1f77b4"/>
   </g>
   <g id="patch_47">
    <path d="M 159.949361 307.584 
L 160.84166 307.584 
L 160.84166 297.740704 
L 159.949361 297.740704 
z
" clip-path="url(#p5d5a9280e9)" style="fill: #1f77b4"/>
   </g>
   <g id="patch_48">
    <path d="M 164.405526 307.584 
L 165.297824 307.584 
L 165.297824 295.68466 
L 164.405526 295.68466 
z
" clip-path="url(#p5d5a9280e9)" style="fill: #1f77b4"/>
   </g>
   <g id="patch_49">
    <path d="M 168.878285 307.584 
L 169.770583 307.584 
L 169.770583 291.675044 
L 168.878285 291.675044 
z
" clip-path="url(#p5d5a9280e9)" style="fill: #1f77b4"/>
   </g>
   <g id="patch_50">
    <path d="M 168.901754 307.584 
L 169.794053 307.584 
L 169.794053 305.219892 
L 168.901754 305.219892 
z
" clip-path="url(#p5d5a9280e9)" style="fill: #1f77b4"/>
   </g>
   <g id="patch_51">
    <path d="M 170.002082 307.584 
L 170.89438 307.584 
L 170.89438 304.282876 
L 170.002082 304.282876 
z
" clip-path="url(#p5d5a9280e9)" style="fill: #1f77b4"/>
   </g>
   <g id="patch_52">
    <path d="M 171.115004 307.584 
L 172.007303 307.584 
L 172.007303 305.916671 
L 171.115004 305.916671 
z
" clip-path="url(#p5d5a9280e9)" style="fill: #1f77b4"/>
   </g>
   <g id="patch_53">
    <path d="M 171.126288 307.584 
L 172.018586 307.584 
L 172.018586 297.138411 
L 171.126288 297.138411 
z
" clip-path="url(#p5d5a9280e9)" style="fill: #1f77b4"/>
   </g>
   <g id="patch_54">
    <path d="M 172.209835 307.584 
L 173.102133 307.584 
L 173.102133 299.302494 
L 172.209835 299.302494 
z
" clip-path="url(#p5d5a9280e9)" style="fill: #1f77b4"/>
   </g>
   <g id="patch_55">
    <path d="M 173.334109 307.584 
L 174.226407 307.584 
L 174.226407 298.43573 
L 173.334109 298.43573 
z
" clip-path="url(#p5d5a9280e9)" style="fill: #1f77b4"/>
   </g>
   <g id="patch_56">
    <path d="M 173.357987 307.584 
L 174.250285 307.584 
L 174.250285 304.460854 
L 173.357987 304.460854 
z
" clip-path="url(#p5d5a9280e9)" style="fill: #1f77b4"/>
   </g>
   <g id="patch_57">
    <path d="M 173.374598 307.584 
L 174.266896 307.584 
L 174.266896 303.817098 
L 173.374598 303.817098 
z
" clip-path="url(#p5d5a9280e9)" style="fill: #1f77b4"/>
   </g>
   <g id="patch_58">
    <path d="M 175.582368 307.584 
L 176.474666 307.584 
L 176.474666 288.715282 
L 175.582368 288.715282 
z
" clip-path="url(#p5d5a9280e9)" style="fill: #1f77b4"/>
   </g>
   <g id="patch_59">
    <path d="M 177.790869 307.584 
L 178.683168 307.584 
L 178.683168 306.171949 
L 177.790869 306.171949 
z
" clip-path="url(#p5d5a9280e9)" style="fill: #1f77b4"/>
   </g>
   <g id="patch_60">
    <path d="M 180.037988 307.584 
L 180.930286 307.584 
L 180.930286 299.248388 
L 180.037988 299.248388 
z
" clip-path="url(#p5d5a9280e9)" style="fill: #1f77b4"/>
   </g>
   <g id="patch_61">
    <path d="M 182.262845 307.584 
L 183.155144 307.584 
L 183.155144 304.903956 
L 182.262845 304.903956 
z
" clip-path="url(#p5d5a9280e9)" style="fill: #1f77b4"/>
   </g>
   <g id="patch_62">
    <path d="M 184.470326 307.584 
L 185.362624 307.584 
L 185.362624 305.897288 
L 184.470326 305.897288 
z
" clip-path="url(#p5d5a9280e9)" style="fill: #1f77b4"/>
   </g>
   <g id="patch_63">
    <path d="M 184.510917 307.584 
L 185.403215 307.584 
L 185.403215 304.162737 
L 184.510917 304.162737 
z
" clip-path="url(#p5d5a9280e9)" style="fill: #1f77b4"/>
   </g>
   <g id="patch_64">
    <path d="M 185.620877 307.584 
L 186.513176 307.584 
L 186.513176 305.156833 
L 185.620877 305.156833 
z
" clip-path="url(#p5d5a9280e9)" style="fill: #1f77b4"/>
   </g>
   <g id="patch_65">
    <path d="M 186.718567 307.584 
L 187.610866 307.584 
L 187.610866 290.194052 
L 186.718567 290.194052 
z
" clip-path="url(#p5d5a9280e9)" style="fill: #1f77b4"/>
   </g>
   <g id="patch_66">
    <path d="M 186.742411 307.584 
L 187.63471 307.584 
L 187.63471 301.488768 
L 186.742411 301.488768 
z
" clip-path="url(#p5d5a9280e9)" style="fill: #1f77b4"/>
   </g>
   <g id="patch_67">
    <path d="M 186.758256 307.584 
L 187.650555 307.584 
L 187.650555 305.737082 
L 186.758256 305.737082 
z
" clip-path="url(#p5d5a9280e9)" style="fill: #1f77b4"/>
   </g>
   <g id="patch_68">
    <path d="M 187.84148 307.584 
L 188.733778 307.584 
L 188.733778 303.252171 
L 187.84148 303.252171 
z
" clip-path="url(#p5d5a9280e9)" style="fill: #1f77b4"/>
   </g>
   <g id="patch_69">
    <path d="M 187.869528 307.584 
L 188.761826 307.584 
L 188.761826 305.051053 
L 187.869528 305.051053 
z
" clip-path="url(#p5d5a9280e9)" style="fill: #1f77b4"/>
   </g>
   <g id="patch_70">
    <path d="M 188.966826 307.584 
L 189.859124 307.584 
L 189.859124 283.180787 
L 188.966826 283.180787 
z
" clip-path="url(#p5d5a9280e9)" style="fill: #1f77b4"/>
   </g>
   <g id="patch_71">
    <path d="M 190.050611 307.584 
L 190.94291 307.584 
L 190.94291 305.331571 
L 190.050611 305.331571 
z
" clip-path="url(#p5d5a9280e9)" style="fill: #1f77b4"/>
   </g>
   <g id="patch_72">
    <path d="M 190.08916 307.584 
L 190.981458 307.584 
L 190.981458 304.977455 
L 190.08916 304.977455 
z
" clip-path="url(#p5d5a9280e9)" style="fill: #1f77b4"/>
   </g>
   <g id="patch_73">
    <path d="M 191.1748 307.584 
L 192.067099 307.584 
L 192.067099 295.045492 
L 191.1748 295.045492 
z
" clip-path="url(#p5d5a9280e9)" style="fill: #1f77b4"/>
   </g>
   <g id="patch_74">
    <path d="M 191.214421 307.584 
L 192.106719 307.584 
L 192.106719 303.953586 
L 191.214421 303.953586 
z
" clip-path="url(#p5d5a9280e9)" style="fill: #1f77b4"/>
   </g>
   <g id="patch_75">
    <path d="M 193.422855 307.584 
L 194.315153 307.584 
L 194.315153 305.1239 
L 193.422855 305.1239 
z
" clip-path="url(#p5d5a9280e9)" style="fill: #1f77b4"/>
   </g>
   <g id="patch_76">
    <path d="M 200.103383 307.584 
L 200.995682 307.584 
L 200.995682 298.416587 
L 200.103383 298.416587 
z
" clip-path="url(#p5d5a9280e9)" style="fill: #1f77b4"/>
   </g>
   <g id="patch_77">
    <path d="M 200.126683 307.584 
L 201.018981 307.584 
L 201.018981 303.194004 
L 200.126683 303.194004 
z
" clip-path="url(#p5d5a9280e9)" style="fill: #1f77b4"/>
   </g>
   <g id="patch_78">
    <path d="M 201.253526 307.584 
L 202.145825 307.584 
L 202.145825 305.812942 
L 201.253526 305.812942 
z
" clip-path="url(#p5d5a9280e9)" style="fill: #1f77b4"/>
   </g>
   <g id="patch_79">
    <path d="M 202.310813 307.584 
L 203.203111 307.584 
L 203.203111 297.056796 
L 202.310813 297.056796 
z
" clip-path="url(#p5d5a9280e9)" style="fill: #1f77b4"/>
   </g>
   <g id="patch_80">
    <path d="M 202.35188 307.584 
L 203.244179 307.584 
L 203.244179 305.345133 
L 202.35188 305.345133 
z
" clip-path="url(#p5d5a9280e9)" style="fill: #1f77b4"/>
   </g>
   <g id="patch_81">
    <path d="M 202.374567 307.584 
L 203.266865 307.584 
L 203.266865 302.738534 
L 202.374567 302.738534 
z
" clip-path="url(#p5d5a9280e9)" style="fill: #1f77b4"/>
   </g>
   <g id="patch_82">
    <path d="M 203.433742 307.584 
L 204.326041 307.584 
L 204.326041 306.130912 
L 203.433742 306.130912 
z
" clip-path="url(#p5d5a9280e9)" style="fill: #1f77b4"/>
   </g>
   <g id="patch_83">
    <path d="M 204.559088 307.584 
L 205.451387 307.584 
L 205.451387 298.292212 
L 204.559088 298.292212 
z
" clip-path="url(#p5d5a9280e9)" style="fill: #1f77b4"/>
   </g>
   <g id="patch_84">
    <path d="M 204.584634 307.584 
L 205.476933 307.584 
L 205.476933 304.997479 
L 204.584634 304.997479 
z
" clip-path="url(#p5d5a9280e9)" style="fill: #1f77b4"/>
   </g>
   <g id="patch_85">
    <path d="M 204.599782 307.584 
L 205.49208 307.584 
L 205.49208 305.816862 
L 204.599782 305.816862 
z
" clip-path="url(#p5d5a9280e9)" style="fill: #1f77b4"/>
   </g>
   <g id="patch_86">
    <path d="M 206.807688 307.584 
L 207.699986 307.584 
L 207.699986 304.440343 
L 206.807688 304.440343 
z
" clip-path="url(#p5d5a9280e9)" style="fill: #1f77b4"/>
   </g>
   <g id="patch_87">
    <path d="M 209.054721 307.584 
L 209.947019 307.584 
L 209.947019 306.171096 
L 209.054721 306.171096 
z
" clip-path="url(#p5d5a9280e9)" style="fill: #1f77b4"/>
   </g>
   <g id="patch_88">
    <path d="M 211.263052 307.584 
L 212.155351 307.584 
L 212.155351 302.962275 
L 211.263052 302.962275 
z
" clip-path="url(#p5d5a9280e9)" style="fill: #1f77b4"/>
   </g>
   <g id="patch_89">
    <path d="M 214.094629 307.584 
L 214.986927 307.584 
L 214.986927 306.295913 
L 214.094629 306.295913 
z
" clip-path="url(#p5d5a9280e9)" style="fill: #1f77b4"/>
   </g>
   <g id="patch_90">
    <path d="M 214.637883 307.584 
L 215.530181 307.584 
L 215.530181 301.880796 
L 214.637883 301.880796 
z
" clip-path="url(#p5d5a9280e9)" style="fill: #1f77b4"/>
   </g>
   <g id="patch_91">
    <path d="M 215.762072 307.584 
L 216.65437 307.584 
L 216.65437 297.831685 
L 215.762072 297.831685 
z
" clip-path="url(#p5d5a9280e9)" style="fill: #1f77b4"/>
   </g>
   <g id="patch_92">
    <path d="M 216.846742 307.584 
L 217.73904 307.584 
L 217.73904 306.02179 
L 216.846742 306.02179 
z
" clip-path="url(#p5d5a9280e9)" style="fill: #1f77b4"/>
   </g>
   <g id="patch_93">
    <path d="M 216.886312 307.584 
L 217.77861 307.584 
L 217.77861 273.599905 
L 216.886312 273.599905 
z
" clip-path="url(#p5d5a9280e9)" style="fill: #1f77b4"/>
   </g>
   <g id="patch_94">
    <path d="M 217.943172 307.584 
L 218.835471 307.584 
L 218.835471 303.801227 
L 217.943172 303.801227 
z
" clip-path="url(#p5d5a9280e9)" style="fill: #1f77b4"/>
   </g>
   <g id="patch_95">
    <path d="M 217.969808 307.584 
L 218.862106 307.584 
L 218.862106 304.373784 
L 217.969808 304.373784 
z
" clip-path="url(#p5d5a9280e9)" style="fill: #1f77b4"/>
   </g>
   <g id="patch_96">
    <path d="M 218.008339 307.584 
L 218.900638 307.584 
L 218.900638 305.033389 
L 218.008339 305.033389 
z
" clip-path="url(#p5d5a9280e9)" style="fill: #1f77b4"/>
   </g>
   <g id="patch_97">
    <path d="M 219.066698 307.584 
L 219.958996 307.584 
L 219.958996 304.2423 
L 219.066698 304.2423 
z
" clip-path="url(#p5d5a9280e9)" style="fill: #1f77b4"/>
   </g>
   <g id="patch_98">
    <path d="M 219.093911 307.584 
L 219.98621 307.584 
L 219.98621 304.608566 
L 219.093911 304.608566 
z
" clip-path="url(#p5d5a9280e9)" style="fill: #1f77b4"/>
   </g>
   <g id="patch_99">
    <path d="M 220.191703 307.584 
L 221.084002 307.584 
L 221.084002 288.910569 
L 220.191703 288.910569 
z
" clip-path="url(#p5d5a9280e9)" style="fill: #1f77b4"/>
   </g>
   <g id="patch_100">
    <path d="M 222.399371 307.584 
L 223.29167 307.584 
L 223.29167 297.917972 
L 222.399371 297.917972 
z
" clip-path="url(#p5d5a9280e9)" style="fill: #1f77b4"/>
   </g>
   <g id="patch_101">
    <path d="M 222.440115 307.584 
L 223.332414 307.584 
L 223.332414 303.662111 
L 222.440115 303.662111 
z
" clip-path="url(#p5d5a9280e9)" style="fill: #1f77b4"/>
   </g>
   <g id="patch_102">
    <path d="M 226.895684 307.584 
L 227.787983 307.584 
L 227.787983 302.824981 
L 226.895684 302.824981 
z
" clip-path="url(#p5d5a9280e9)" style="fill: #1f77b4"/>
   </g>
   <g id="patch_103">
    <path d="M 228.587686 307.584 
L 229.479985 307.584 
L 229.479985 306.264335 
L 228.587686 306.264335 
z
" clip-path="url(#p5d5a9280e9)" style="fill: #1f77b4"/>
   </g>
   <g id="patch_104">
    <path d="M 230.230111 307.584 
L 231.122409 307.584 
L 231.122409 297.577293 
L 230.230111 297.577293 
z
" clip-path="url(#p5d5a9280e9)" style="fill: #1f77b4"/>
   </g>
   <g id="patch_105">
    <path d="M 231.327903 307.584 
L 232.220202 307.584 
L 232.220202 290.249077 
L 231.327903 290.249077 
z
" clip-path="url(#p5d5a9280e9)" style="fill: #1f77b4"/>
   </g>
   <g id="patch_106">
    <path d="M 231.351288 307.584 
L 232.243586 307.584 
L 232.243586 297.187831 
L 231.351288 297.187831 
z
" clip-path="url(#p5d5a9280e9)" style="fill: #1f77b4"/>
   </g>
   <g id="patch_107">
    <path d="M 232.47694 307.584 
L 233.369239 307.584 
L 233.369239 304.597291 
L 232.47694 304.597291 
z
" clip-path="url(#p5d5a9280e9)" style="fill: #1f77b4"/>
   </g>
   <g id="patch_108">
    <path d="M 232.495389 307.584 
L 233.387687 307.584 
L 233.387687 306.102403 
L 232.495389 306.102403 
z
" clip-path="url(#p5d5a9280e9)" style="fill: #1f77b4"/>
   </g>
   <g id="patch_109">
    <path d="M 233.53535 307.584 
L 234.427648 307.584 
L 234.427648 293.822868 
L 233.53535 293.822868 
z
" clip-path="url(#p5d5a9280e9)" style="fill: #1f77b4"/>
   </g>
   <g id="patch_110">
    <path d="M 233.601027 307.584 
L 234.493325 307.584 
L 234.493325 305.170019 
L 233.601027 305.170019 
z
" clip-path="url(#p5d5a9280e9)" style="fill: #1f77b4"/>
   </g>
   <g id="patch_111">
    <path d="M 234.72656 307.584 
L 235.618859 307.584 
L 235.618859 291.600631 
L 234.72656 291.600631 
z
" clip-path="url(#p5d5a9280e9)" style="fill: #1f77b4"/>
   </g>
   <g id="patch_112">
    <path d="M 235.80958 307.584 
L 236.701878 307.584 
L 236.701878 302.247503 
L 235.80958 302.247503 
z
" clip-path="url(#p5d5a9280e9)" style="fill: #1f77b4"/>
   </g>
   <g id="patch_113">
    <path d="M 235.825697 307.584 
L 236.717995 307.584 
L 236.717995 303.349635 
L 235.825697 303.349635 
z
" clip-path="url(#p5d5a9280e9)" style="fill: #1f77b4"/>
   </g>
   <g id="patch_114">
    <path d="M 235.849609 307.584 
L 236.741907 307.584 
L 236.741907 303.930482 
L 235.849609 303.930482 
z
" clip-path="url(#p5d5a9280e9)" style="fill: #1f77b4"/>
   </g>
   <g id="patch_115">
    <path d="M 236.907627 307.584 
L 237.799926 307.584 
L 237.799926 304.14144 
L 236.907627 304.14144 
z
" clip-path="url(#p5d5a9280e9)" style="fill: #1f77b4"/>
   </g>
   <g id="patch_116">
    <path d="M 236.93108 307.584 
L 237.823378 307.584 
L 237.823378 305.937122 
L 236.93108 305.937122 
z
" clip-path="url(#p5d5a9280e9)" style="fill: #1f77b4"/>
   </g>
   <g id="patch_117">
    <path d="M 238.014848 307.584 
L 238.907146 307.584 
L 238.907146 306.393438 
L 238.014848 306.393438 
z
" clip-path="url(#p5d5a9280e9)" style="fill: #1f77b4"/>
   </g>
   <g id="patch_118">
    <path d="M 238.031833 307.584 
L 238.924131 307.584 
L 238.924131 268.96547 
L 238.031833 268.96547 
z
" clip-path="url(#p5d5a9280e9)" style="fill: #1f77b4"/>
   </g>
   <g id="patch_119">
    <path d="M 239.151223 307.584 
L 240.043521 307.584 
L 240.043521 304.670795 
L 239.151223 304.670795 
z
" clip-path="url(#p5d5a9280e9)" style="fill: #1f77b4"/>
   </g>
   <g id="patch_120">
    <path d="M 240.280756 307.584 
L 241.173054 307.584 
L 241.173054 304.977283 
L 240.280756 304.977283 
z
" clip-path="url(#p5d5a9280e9)" style="fill: #1f77b4"/>
   </g>
   <g id="patch_121">
    <path d="M 245.861245 307.584 
L 246.753544 307.584 
L 246.753544 300.583713 
L 245.861245 300.583713 
z
" clip-path="url(#p5d5a9280e9)" style="fill: #1f77b4"/>
   </g>
   <g id="patch_122">
    <path d="M 246.986285 307.584 
L 247.878584 307.584 
L 247.878584 292.865659 
L 246.986285 292.865659 
z
" clip-path="url(#p5d5a9280e9)" style="fill: #1f77b4"/>
   </g>
   <g id="patch_123">
    <path d="M 248.110985 307.584 
L 249.003283 307.584 
L 249.003283 102.667532 
L 248.110985 102.667532 
z
" clip-path="url(#p5d5a9280e9)" style="fill: #1f77b4"/>
   </g>
   <g id="patch_124">
    <path d="M 249.170398 307.584 
L 250.062697 307.584 
L 250.062697 305.940652 
L 249.170398 305.940652 
z
" clip-path="url(#p5d5a9280e9)" style="fill: #1f77b4"/>
   </g>
   <g id="patch_125">
    <path d="M 249.194617 307.584 
L 250.086915 307.584 
L 250.086915 305.368811 
L 249.194617 305.368811 
z
" clip-path="url(#p5d5a9280e9)" style="fill: #1f77b4"/>
   </g>
   <g id="patch_126">
    <path d="M 249.233795 307.584 
L 250.126093 307.584 
L 250.126093 262.687841 
L 249.233795 262.687841 
z
" clip-path="url(#p5d5a9280e9)" style="fill: #1f77b4"/>
   </g>
   <g id="patch_127">
    <path d="M 250.355346 307.584 
L 251.247644 307.584 
L 251.247644 303.928929 
L 250.355346 303.928929 
z
" clip-path="url(#p5d5a9280e9)" style="fill: #1f77b4"/>
   </g>
   <g id="patch_128">
    <path d="M 251.416768 307.584 
L 252.309066 307.584 
L 252.309066 304.584093 
L 251.416768 304.584093 
z
" clip-path="url(#p5d5a9280e9)" style="fill: #1f77b4"/>
   </g>
   <g id="patch_129">
    <path d="M 251.440016 307.584 
L 252.332315 307.584 
L 252.332315 298.009326 
L 251.440016 298.009326 
z
" clip-path="url(#p5d5a9280e9)" style="fill: #1f77b4"/>
   </g>
   <g id="patch_130">
    <path d="M 252.56669 307.584 
L 253.458988 307.584 
L 253.458988 303.691576 
L 252.56669 303.691576 
z
" clip-path="url(#p5d5a9280e9)" style="fill: #1f77b4"/>
   </g>
   <g id="patch_131">
    <path d="M 253.624283 307.584 
L 254.516581 307.584 
L 254.516581 295.620121 
L 253.624283 295.620121 
z
" clip-path="url(#p5d5a9280e9)" style="fill: #1f77b4"/>
   </g>
   <g id="patch_132">
    <path d="M 253.663699 307.584 
L 254.555998 307.584 
L 254.555998 297.896356 
L 253.663699 297.896356 
z
" clip-path="url(#p5d5a9280e9)" style="fill: #1f77b4"/>
   </g>
   <g id="patch_133">
    <path d="M 255.871963 307.584 
L 256.764261 307.584 
L 256.764261 304.921667 
L 255.871963 304.921667 
z
" clip-path="url(#p5d5a9280e9)" style="fill: #1f77b4"/>
   </g>
   <g id="patch_134">
    <path d="M 258.120068 307.584 
L 259.012367 307.584 
L 259.012367 304.950333 
L 258.120068 304.950333 
z
" clip-path="url(#p5d5a9280e9)" style="fill: #1f77b4"/>
   </g>
   <g id="patch_135">
    <path d="M 263.70306 307.584 
L 264.595358 307.584 
L 264.595358 290.105589 
L 263.70306 290.105589 
z
" clip-path="url(#p5d5a9280e9)" style="fill: #1f77b4"/>
   </g>
   <g id="patch_136">
    <path d="M 263.720539 307.584 
L 264.612837 307.584 
L 264.612837 302.459049 
L 263.720539 302.459049 
z
" clip-path="url(#p5d5a9280e9)" style="fill: #1f77b4"/>
   </g>
   <g id="patch_137">
    <path d="M 264.841919 307.584 
L 265.734218 307.584 
L 265.734218 271.231619 
L 264.841919 271.231619 
z
" clip-path="url(#p5d5a9280e9)" style="fill: #1f77b4"/>
   </g>
   <g id="patch_138">
    <path d="M 265.950621 307.584 
L 266.842919 307.584 
L 266.842919 285.810728 
L 265.950621 285.810728 
z
" clip-path="url(#p5d5a9280e9)" style="fill: #1f77b4"/>
   </g>
   <g id="patch_139">
    <path d="M 267.0518 307.584 
L 267.944098 307.584 
L 267.944098 297.505972 
L 267.0518 297.505972 
z
" clip-path="url(#p5d5a9280e9)" style="fill: #1f77b4"/>
   </g>
   <g id="patch_140">
    <path d="M 267.075269 307.584 
L 267.967568 307.584 
L 267.967568 54.144 
L 267.075269 54.144 
z
" clip-path="url(#p5d5a9280e9)" style="fill: #1f77b4"/>
   </g>
   <g id="patch_141">
    <path d="M 268.171785 307.584 
L 269.064083 307.584 
L 269.064083 305.627227 
L 268.171785 305.627227 
z
" clip-path="url(#p5d5a9280e9)" style="fill: #1f77b4"/>
   </g>
   <g id="patch_142">
    <path d="M 268.195254 307.584 
L 269.087553 307.584 
L 269.087553 284.257938 
L 268.195254 284.257938 
z
" clip-path="url(#p5d5a9280e9)" style="fill: #1f77b4"/>
   </g>
   <g id="patch_143">
    <path d="M 269.256489 307.584 
L 270.148788 307.584 
L 270.148788 195.850016 
L 269.256489 195.850016 
z
" clip-path="url(#p5d5a9280e9)" style="fill: #1f77b4"/>
   </g>
   <g id="patch_144">
    <path d="M 270.375743 307.584 
L 271.268041 307.584 
L 271.268041 298.754024 
L 270.375743 298.754024 
z
" clip-path="url(#p5d5a9280e9)" style="fill: #1f77b4"/>
   </g>
   <g id="patch_145">
    <path d="M 271.53106 307.584 
L 272.423358 307.584 
L 272.423358 302.81951 
L 271.53106 302.81951 
z
" clip-path="url(#p5d5a9280e9)" style="fill: #1f77b4"/>
   </g>
   <g id="patch_146">
    <path d="M 280.36556 307.584 
L 281.257859 307.584 
L 281.257859 305.976749 
L 280.36556 305.976749 
z
" clip-path="url(#p5d5a9280e9)" style="fill: #1f77b4"/>
   </g>
   <g id="patch_147">
    <path d="M 280.392995 307.584 
L 281.285294 307.584 
L 281.285294 269.967655 
L 280.392995 269.967655 
z
" clip-path="url(#p5d5a9280e9)" style="fill: #1f77b4"/>
   </g>
   <g id="patch_148">
    <path d="M 280.419273 307.584 
L 281.311571 307.584 
L 281.311571 304.272359 
L 280.419273 304.272359 
z
" clip-path="url(#p5d5a9280e9)" style="fill: #1f77b4"/>
   </g>
   <g id="patch_149">
    <path d="M 281.51087 307.584 
L 282.403168 307.584 
L 282.403168 304.968483 
L 281.51087 304.968483 
z
" clip-path="url(#p5d5a9280e9)" style="fill: #1f77b4"/>
   </g>
   <g id="patch_150">
    <path d="M 281.582759 307.584 
L 282.475058 307.584 
L 282.475058 299.955083 
L 281.582759 299.955083 
z
" clip-path="url(#p5d5a9280e9)" style="fill: #1f77b4"/>
   </g>
   <g id="patch_151">
    <path d="M 282.656299 307.584 
L 283.548597 307.584 
L 283.548597 305.221609 
L 282.656299 305.221609 
z
" clip-path="url(#p5d5a9280e9)" style="fill: #1f77b4"/>
   </g>
   <g id="patch_152">
    <path d="M 282.682423 307.584 
L 283.574722 307.584 
L 283.574722 303.327296 
L 282.682423 303.327296 
z
" clip-path="url(#p5d5a9280e9)" style="fill: #1f77b4"/>
   </g>
   <g id="patch_153">
    <path d="M 282.708105 307.584 
L 283.600404 307.584 
L 283.600404 302.662117 
L 282.708105 302.662117 
z
" clip-path="url(#p5d5a9280e9)" style="fill: #1f77b4"/>
   </g>
   <g id="patch_154">
    <path d="M 283.791057 307.584 
L 284.683355 307.584 
L 284.683355 303.217131 
L 283.791057 303.217131 
z
" clip-path="url(#p5d5a9280e9)" style="fill: #1f77b4"/>
   </g>
   <g id="patch_155">
    <path d="M 283.831716 307.584 
L 284.724014 307.584 
L 284.724014 305.557407 
L 283.831716 305.557407 
z
" clip-path="url(#p5d5a9280e9)" style="fill: #1f77b4"/>
   </g>
   <g id="patch_156">
    <path d="M 284.889853 307.584 
L 285.782151 307.584 
L 285.782151 303.527367 
L 284.889853 303.527367 
z
" clip-path="url(#p5d5a9280e9)" style="fill: #1f77b4"/>
   </g>
   <g id="patch_157">
    <path d="M 287.13675 307.584 
L 288.029049 307.584 
L 288.029049 304.443661 
L 287.13675 304.443661 
z
" clip-path="url(#p5d5a9280e9)" style="fill: #1f77b4"/>
   </g>
   <g id="patch_158">
    <path d="M 291.541517 307.584 
L 292.433815 307.584 
L 292.433815 305.641711 
L 291.541517 305.641711 
z
" clip-path="url(#p5d5a9280e9)" style="fill: #1f77b4"/>
   </g>
   <g id="patch_159">
    <path d="M 294.927478 307.584 
L 295.819776 307.584 
L 295.819776 303.566132 
L 294.927478 303.566132 
z
" clip-path="url(#p5d5a9280e9)" style="fill: #1f77b4"/>
   </g>
   <g id="patch_160">
    <path d="M 296.051496 307.584 
L 296.943795 307.584 
L 296.943795 305.046868 
L 296.051496 305.046868 
z
" clip-path="url(#p5d5a9280e9)" style="fill: #1f77b4"/>
   </g>
   <g id="patch_161">
    <path d="M 297.17446 307.584 
L 298.066758 307.584 
L 298.066758 304.071844 
L 297.17446 304.071844 
z
" clip-path="url(#p5d5a9280e9)" style="fill: #1f77b4"/>
   </g>
   <g id="patch_162">
    <path d="M 298.314664 307.584 
L 299.206962 307.584 
L 299.206962 296.764114 
L 298.314664 296.764114 
z
" clip-path="url(#p5d5a9280e9)" style="fill: #1f77b4"/>
   </g>
   <g id="patch_163">
    <path d="M 299.424591 307.584 
L 300.316889 307.584 
L 300.316889 304.324577 
L 299.424591 304.324577 
z
" clip-path="url(#p5d5a9280e9)" style="fill: #1f77b4"/>
   </g>
   <g id="patch_164">
    <path d="M 300.507117 307.584 
L 301.399415 307.584 
L 301.399415 301.344376 
L 300.507117 301.344376 
z
" clip-path="url(#p5d5a9280e9)" style="fill: #1f77b4"/>
   </g>
   <g id="patch_165">
    <path d="M 301.672424 307.584 
L 302.564722 307.584 
L 302.564722 302.556002 
L 301.672424 302.556002 
z
" clip-path="url(#p5d5a9280e9)" style="fill: #1f77b4"/>
   </g>
   <g id="patch_166">
    <path d="M 309.472955 307.584 
L 310.365253 307.584 
L 310.365253 306.222359 
L 309.472955 306.222359 
z
" clip-path="url(#p5d5a9280e9)" style="fill: #1f77b4"/>
   </g>
   <g id="patch_167">
    <path d="M 312.809475 307.584 
L 313.701773 307.584 
L 313.701773 304.86626 
L 312.809475 304.86626 
z
" clip-path="url(#p5d5a9280e9)" style="fill: #1f77b4"/>
   </g>
   <g id="patch_168">
    <path d="M 313.933561 307.584 
L 314.82586 307.584 
L 314.82586 302.092538 
L 313.933561 302.092538 
z
" clip-path="url(#p5d5a9280e9)" style="fill: #1f77b4"/>
   </g>
   <g id="patch_169">
    <path d="M 315.016496 307.584 
L 315.908794 307.584 
L 315.908794 303.540156 
L 315.016496 303.540156 
z
" clip-path="url(#p5d5a9280e9)" style="fill: #1f77b4"/>
   </g>
   <g id="patch_170">
    <path d="M 316.11342 307.584 
L 317.005718 307.584 
L 317.005718 151.176836 
L 316.11342 151.176836 
z
" clip-path="url(#p5d5a9280e9)" style="fill: #1f77b4"/>
   </g>
   <g id="patch_171">
    <path d="M 316.140991 307.584 
L 317.033289 307.584 
L 317.033289 290.091391 
L 316.140991 290.091391 
z
" clip-path="url(#p5d5a9280e9)" style="fill: #1f77b4"/>
   </g>
   <g id="patch_172">
    <path d="M 317.232707 307.584 
L 318.125006 307.584 
L 318.125006 292.176518 
L 317.232707 292.176518 
z
" clip-path="url(#p5d5a9280e9)" style="fill: #1f77b4"/>
   </g>
   <g id="patch_173">
    <path d="M 317.261266 307.584 
L 318.153564 307.584 
L 318.153564 305.404015 
L 317.261266 305.404015 
z
" clip-path="url(#p5d5a9280e9)" style="fill: #1f77b4"/>
   </g>
   <g id="patch_174">
    <path d="M 327.562297 307.584 
L 328.454595 307.584 
L 328.454595 306.220231 
L 327.562297 306.220231 
z
" clip-path="url(#p5d5a9280e9)" style="fill: #1f77b4"/>
   </g>
   <g id="patch_175">
    <path d="M 329.535984 307.584 
L 330.428283 307.584 
L 330.428283 305.417166 
L 329.535984 305.417166 
z
" clip-path="url(#p5d5a9280e9)" style="fill: #1f77b4"/>
   </g>
   <g id="patch_176">
    <path d="M 330.649519 307.584 
L 331.541818 307.584 
L 331.541818 300.946604 
L 330.649519 300.946604 
z
" clip-path="url(#p5d5a9280e9)" style="fill: #1f77b4"/>
   </g>
   <g id="patch_177">
    <path d="M 331.772279 307.584 
L 332.664577 307.584 
L 332.664577 303.941445 
L 331.772279 303.941445 
z
" clip-path="url(#p5d5a9280e9)" style="fill: #1f77b4"/>
   </g>
   <g id="patch_178">
    <path d="M 332.896774 307.584 
L 333.789072 307.584 
L 333.789072 296.288274 
L 332.896774 296.288274 
z
" clip-path="url(#p5d5a9280e9)" style="fill: #1f77b4"/>
   </g>
   <g id="patch_179">
    <path d="M 344.090124 307.584 
L 344.982422 307.584 
L 344.982422 305.480066 
L 344.090124 305.480066 
z
" clip-path="url(#p5d5a9280e9)" style="fill: #1f77b4"/>
   </g>
   <g id="patch_180">
    <path d="M 350.737635 307.584 
L 351.629934 307.584 
L 351.629934 292.146838 
L 350.737635 292.146838 
z
" clip-path="url(#p5d5a9280e9)" style="fill: #1f77b4"/>
   </g>
   <g id="patch_181">
    <path d="M 351.834185 307.584 
L 352.726483 307.584 
L 352.726483 303.793011 
L 351.834185 303.793011 
z
" clip-path="url(#p5d5a9280e9)" style="fill: #1f77b4"/>
   </g>
   <g id="patch_182">
    <path d="M 366.371646 307.584 
L 367.263944 307.584 
L 367.263944 305.302718 
L 366.371646 305.302718 
z
" clip-path="url(#p5d5a9280e9)" style="fill: #1f77b4"/>
   </g>
   <g id="patch_183">
    <path d="M 381.961372 307.584 
L 382.853671 307.584 
L 382.853671 300.291125 
L 381.961372 300.291125 
z
" clip-path="url(#p5d5a9280e9)" style="fill: #1f77b4"/>
   </g>
   <g id="patch_184">
    <path d="M 397.594974 307.584 
L 398.487273 307.584 
L 398.487273 305.050454 
L 397.594974 305.050454 
z
" clip-path="url(#p5d5a9280e9)" style="fill: #1f77b4"/>
   </g>
   <g id="matplotlib.axis_1">
    <g id="xtick_1">
     <g id="line2d_1">
      <defs>
       <path id="mfa42b2e099" d="M 0 0 
L 0 3.5 
" style="stroke: #000000; stroke-width: 0.8"/>
      </defs>
      <g>
       <use xlink:href="#mfa42b2e099" x="68.885777" y="307.584" style="stroke: #000000; stroke-width: 0.8"/>
      </g>
     </g>
     <g id="text_1">
      <!-- 50 -->
      <g transform="translate(62.523277 322.182437) scale(0.1 -0.1)">
       <defs>
        <path id="DejaVuSans-35" d="M 691 4666 
L 3169 4666 
L 3169 4134 
L 1269 4134 
L 1269 2991 
Q 1406 3038 1543 3061 
Q 1681 3084 1819 3084 
Q 2600 3084 3056 2656 
Q 3513 2228 3513 1497 
Q 3513 744 3044 326 
Q 2575 -91 1722 -91 
Q 1428 -91 1123 -41 
Q 819 9 494 109 
L 494 744 
Q 775 591 1075 516 
Q 1375 441 1709 441 
Q 2250 441 2565 725 
Q 2881 1009 2881 1497 
Q 2881 1984 2565 2268 
Q 2250 2553 1709 2553 
Q 1456 2553 1204 2497 
Q 953 2441 691 2322 
L 691 4666 
z
" transform="scale(0.015625)"/>
        <path id="DejaVuSans-30" d="M 2034 4250 
Q 1547 4250 1301 3770 
Q 1056 3291 1056 2328 
Q 1056 1369 1301 889 
Q 1547 409 2034 409 
Q 2525 409 2770 889 
Q 3016 1369 3016 2328 
Q 3016 3291 2770 3770 
Q 2525 4250 2034 4250 
z
M 2034 4750 
Q 2819 4750 3233 4129 
Q 3647 3509 3647 2328 
Q 3647 1150 3233 529 
Q 2819 -91 2034 -91 
Q 1250 -91 836 529 
Q 422 1150 422 2328 
Q 422 3509 836 4129 
Q 1250 4750 2034 4750 
z
" transform="scale(0.015625)"/>
       </defs>
       <use xlink:href="#DejaVuSans-35"/>
       <use xlink:href="#DejaVuSans-30" x="63.623047"/>
      </g>
     </g>
    </g>
    <g id="xtick_2">
     <g id="line2d_2">
      <g>
       <use xlink:href="#mfa42b2e099" x="124.654425" y="307.584" style="stroke: #000000; stroke-width: 0.8"/>
      </g>
     </g>
     <g id="text_2">
      <!-- 100 -->
      <g transform="translate(115.110675 322.182437) scale(0.1 -0.1)">
       <defs>
        <path id="DejaVuSans-31" d="M 794 531 
L 1825 531 
L 1825 4091 
L 703 3866 
L 703 4441 
L 1819 4666 
L 2450 4666 
L 2450 531 
L 3481 531 
L 3481 0 
L 794 0 
L 794 531 
z
" transform="scale(0.015625)"/>
       </defs>
       <use xlink:href="#DejaVuSans-31"/>
       <use xlink:href="#DejaVuSans-30" x="63.623047"/>
       <use xlink:href="#DejaVuSans-30" x="127.246094"/>
      </g>
     </g>
    </g>
    <g id="xtick_3">
     <g id="line2d_3">
      <g>
       <use xlink:href="#mfa42b2e099" x="180.423072" y="307.584" style="stroke: #000000; stroke-width: 0.8"/>
      </g>
     </g>
     <g id="text_3">
      <!-- 150 -->
      <g transform="translate(170.879322 322.182437) scale(0.1 -0.1)">
       <use xlink:href="#DejaVuSans-31"/>
       <use xlink:href="#DejaVuSans-35" x="63.623047"/>
       <use xlink:href="#DejaVuSans-30" x="127.246094"/>
      </g>
     </g>
    </g>
    <g id="xtick_4">
     <g id="line2d_4">
      <g>
       <use xlink:href="#mfa42b2e099" x="236.19172" y="307.584" style="stroke: #000000; stroke-width: 0.8"/>
      </g>
     </g>
     <g id="text_4">
      <!-- 200 -->
      <g transform="translate(226.64797 322.182437) scale(0.1 -0.1)">
       <defs>
        <path id="DejaVuSans-32" d="M 1228 531 
L 3431 531 
L 3431 0 
L 469 0 
L 469 531 
Q 828 903 1448 1529 
Q 2069 2156 2228 2338 
Q 2531 2678 2651 2914 
Q 2772 3150 2772 3378 
Q 2772 3750 2511 3984 
Q 2250 4219 1831 4219 
Q 1534 4219 1204 4116 
Q 875 4013 500 3803 
L 500 4441 
Q 881 4594 1212 4672 
Q 1544 4750 1819 4750 
Q 2544 4750 2975 4387 
Q 3406 4025 3406 3419 
Q 3406 3131 3298 2873 
Q 3191 2616 2906 2266 
Q 2828 2175 2409 1742 
Q 1991 1309 1228 531 
z
" transform="scale(0.015625)"/>
       </defs>
       <use xlink:href="#DejaVuSans-32"/>
       <use xlink:href="#DejaVuSans-30" x="63.623047"/>
       <use xlink:href="#DejaVuSans-30" x="127.246094"/>
      </g>
     </g>
    </g>
    <g id="xtick_5">
     <g id="line2d_5">
      <g>
       <use xlink:href="#mfa42b2e099" x="291.960367" y="307.584" style="stroke: #000000; stroke-width: 0.8"/>
      </g>
     </g>
     <g id="text_5">
      <!-- 250 -->
      <g transform="translate(282.416617 322.182437) scale(0.1 -0.1)">
       <use xlink:href="#DejaVuSans-32"/>
       <use xlink:href="#DejaVuSans-35" x="63.623047"/>
       <use xlink:href="#DejaVuSans-30" x="127.246094"/>
      </g>
     </g>
    </g>
    <g id="xtick_6">
     <g id="line2d_6">
      <g>
       <use xlink:href="#mfa42b2e099" x="347.729015" y="307.584" style="stroke: #000000; stroke-width: 0.8"/>
      </g>
     </g>
     <g id="text_6">
      <!-- 300 -->
      <g transform="translate(338.185265 322.182437) scale(0.1 -0.1)">
       <defs>
        <path id="DejaVuSans-33" d="M 2597 2516 
Q 3050 2419 3304 2112 
Q 3559 1806 3559 1356 
Q 3559 666 3084 287 
Q 2609 -91 1734 -91 
Q 1441 -91 1130 -33 
Q 819 25 488 141 
L 488 750 
Q 750 597 1062 519 
Q 1375 441 1716 441 
Q 2309 441 2620 675 
Q 2931 909 2931 1356 
Q 2931 1769 2642 2001 
Q 2353 2234 1838 2234 
L 1294 2234 
L 1294 2753 
L 1863 2753 
Q 2328 2753 2575 2939 
Q 2822 3125 2822 3475 
Q 2822 3834 2567 4026 
Q 2313 4219 1838 4219 
Q 1578 4219 1281 4162 
Q 984 4106 628 3988 
L 628 4550 
Q 988 4650 1302 4700 
Q 1616 4750 1894 4750 
Q 2613 4750 3031 4423 
Q 3450 4097 3450 3541 
Q 3450 3153 3228 2886 
Q 3006 2619 2597 2516 
z
" transform="scale(0.015625)"/>
       </defs>
       <use xlink:href="#DejaVuSans-33"/>
       <use xlink:href="#DejaVuSans-30" x="63.623047"/>
       <use xlink:href="#DejaVuSans-30" x="127.246094"/>
      </g>
     </g>
    </g>
    <g id="xtick_7">
     <g id="line2d_7">
      <g>
       <use xlink:href="#mfa42b2e099" x="403.497662" y="307.584" style="stroke: #000000; stroke-width: 0.8"/>
      </g>
     </g>
     <g id="text_7">
      <!-- 350 -->
      <g transform="translate(393.953912 322.182437) scale(0.1 -0.1)">
       <use xlink:href="#DejaVuSans-33"/>
       <use xlink:href="#DejaVuSans-35" x="63.623047"/>
       <use xlink:href="#DejaVuSans-30" x="127.246094"/>
      </g>
     </g>
    </g>
    <g id="text_8">
     <!-- ${m/z}$ -->
     <g transform="translate(226.96 335.860562) scale(0.1 -0.1)">
      <defs>
       <path id="DejaVuSans-Oblique-6d" d="M 5747 2113 
L 5338 0 
L 4763 0 
L 5166 2094 
Q 5191 2228 5203 2325 
Q 5216 2422 5216 2491 
Q 5216 2772 5059 2928 
Q 4903 3084 4622 3084 
Q 4203 3084 3875 2770 
Q 3547 2456 3450 1953 
L 3066 0 
L 2491 0 
L 2900 2094 
Q 2925 2209 2937 2307 
Q 2950 2406 2950 2484 
Q 2950 2769 2794 2926 
Q 2638 3084 2363 3084 
Q 1938 3084 1609 2770 
Q 1281 2456 1184 1953 
L 800 0 
L 225 0 
L 909 3500 
L 1484 3500 
L 1375 2956 
Q 1609 3263 1923 3423 
Q 2238 3584 2597 3584 
Q 2978 3584 3223 3384 
Q 3469 3184 3519 2828 
Q 3781 3197 4126 3390 
Q 4472 3584 4856 3584 
Q 5306 3584 5551 3325 
Q 5797 3066 5797 2591 
Q 5797 2488 5784 2364 
Q 5772 2241 5747 2113 
z
" transform="scale(0.015625)"/>
       <path id="DejaVuSans-2f" d="M 1625 4666 
L 2156 4666 
L 531 -594 
L 0 -594 
L 1625 4666 
z
" transform="scale(0.015625)"/>
       <path id="DejaVuSans-Oblique-7a" d="M 744 3500 
L 3475 3500 
L 3372 2975 
L 738 459 
L 2913 459 
L 2822 0 
L -19 0 
L 84 525 
L 2719 3041 
L 653 3041 
L 744 3500 
z
" transform="scale(0.015625)"/>
      </defs>
      <use xlink:href="#DejaVuSans-Oblique-6d" transform="translate(0 0.09375)"/>
      <use xlink:href="#DejaVuSans-2f" transform="translate(97.412109 0.09375)"/>
      <use xlink:href="#DejaVuSans-Oblique-7a" transform="translate(131.103516 0.09375)"/>
     </g>
    </g>
   </g>
   <g id="matplotlib.axis_2">
    <g id="ytick_1">
     <g id="line2d_8">
      <defs>
       <path id="m128906b2a7" d="M 0 0 
L -3.5 0 
" style="stroke: #000000; stroke-width: 0.8"/>
      </defs>
      <g>
       <use xlink:href="#m128906b2a7" x="57.6" y="307.584" style="stroke: #000000; stroke-width: 0.8"/>
      </g>
     </g>
     <g id="text_9">
      <!-- 0 -->
      <g transform="translate(44.2375 311.383219) scale(0.1 -0.1)">
       <use xlink:href="#DejaVuSans-30"/>
      </g>
     </g>
    </g>
    <g id="ytick_2">
     <g id="line2d_9">
      <g>
       <use xlink:href="#m128906b2a7" x="57.6" y="276.464697" style="stroke: #000000; stroke-width: 0.8"/>
      </g>
     </g>
     <g id="text_10">
      <!-- 100000 -->
      <g transform="translate(12.425 280.263916) scale(0.1 -0.1)">
       <use xlink:href="#DejaVuSans-31"/>
       <use xlink:href="#DejaVuSans-30" x="63.623047"/>
       <use xlink:href="#DejaVuSans-30" x="127.246094"/>
       <use xlink:href="#DejaVuSans-30" x="190.869141"/>
       <use xlink:href="#DejaVuSans-30" x="254.492188"/>
       <use xlink:href="#DejaVuSans-30" x="318.115234"/>
      </g>
     </g>
    </g>
    <g id="ytick_3">
     <g id="line2d_10">
      <g>
       <use xlink:href="#m128906b2a7" x="57.6" y="245.345394" style="stroke: #000000; stroke-width: 0.8"/>
      </g>
     </g>
     <g id="text_11">
      <!-- 200000 -->
      <g transform="translate(12.425 249.144613) scale(0.1 -0.1)">
       <use xlink:href="#DejaVuSans-32"/>
       <use xlink:href="#DejaVuSans-30" x="63.623047"/>
       <use xlink:href="#DejaVuSans-30" x="127.246094"/>
       <use xlink:href="#DejaVuSans-30" x="190.869141"/>
       <use xlink:href="#DejaVuSans-30" x="254.492188"/>
       <use xlink:href="#DejaVuSans-30" x="318.115234"/>
      </g>
     </g>
    </g>
    <g id="ytick_4">
     <g id="line2d_11">
      <g>
       <use xlink:href="#m128906b2a7" x="57.6" y="214.226091" style="stroke: #000000; stroke-width: 0.8"/>
      </g>
     </g>
     <g id="text_12">
      <!-- 300000 -->
      <g transform="translate(12.425 218.025309) scale(0.1 -0.1)">
       <use xlink:href="#DejaVuSans-33"/>
       <use xlink:href="#DejaVuSans-30" x="63.623047"/>
       <use xlink:href="#DejaVuSans-30" x="127.246094"/>
       <use xlink:href="#DejaVuSans-30" x="190.869141"/>
       <use xlink:href="#DejaVuSans-30" x="254.492188"/>
       <use xlink:href="#DejaVuSans-30" x="318.115234"/>
      </g>
     </g>
    </g>
    <g id="ytick_5">
     <g id="line2d_12">
      <g>
       <use xlink:href="#m128906b2a7" x="57.6" y="183.106788" style="stroke: #000000; stroke-width: 0.8"/>
      </g>
     </g>
     <g id="text_13">
      <!-- 400000 -->
      <g transform="translate(12.425 186.906006) scale(0.1 -0.1)">
       <defs>
        <path id="DejaVuSans-34" d="M 2419 4116 
L 825 1625 
L 2419 1625 
L 2419 4116 
z
M 2253 4666 
L 3047 4666 
L 3047 1625 
L 3713 1625 
L 3713 1100 
L 3047 1100 
L 3047 0 
L 2419 0 
L 2419 1100 
L 313 1100 
L 313 1709 
L 2253 4666 
z
" transform="scale(0.015625)"/>
       </defs>
       <use xlink:href="#DejaVuSans-34"/>
       <use xlink:href="#DejaVuSans-30" x="63.623047"/>
       <use xlink:href="#DejaVuSans-30" x="127.246094"/>
       <use xlink:href="#DejaVuSans-30" x="190.869141"/>
       <use xlink:href="#DejaVuSans-30" x="254.492188"/>
       <use xlink:href="#DejaVuSans-30" x="318.115234"/>
      </g>
     </g>
    </g>
    <g id="ytick_6">
     <g id="line2d_13">
      <g>
       <use xlink:href="#m128906b2a7" x="57.6" y="151.987485" style="stroke: #000000; stroke-width: 0.8"/>
      </g>
     </g>
     <g id="text_14">
      <!-- 500000 -->
      <g transform="translate(12.425 155.786703) scale(0.1 -0.1)">
       <use xlink:href="#DejaVuSans-35"/>
       <use xlink:href="#DejaVuSans-30" x="63.623047"/>
       <use xlink:href="#DejaVuSans-30" x="127.246094"/>
       <use xlink:href="#DejaVuSans-30" x="190.869141"/>
       <use xlink:href="#DejaVuSans-30" x="254.492188"/>
       <use xlink:href="#DejaVuSans-30" x="318.115234"/>
      </g>
     </g>
    </g>
    <g id="ytick_7">
     <g id="line2d_14">
      <g>
       <use xlink:href="#m128906b2a7" x="57.6" y="120.868181" style="stroke: #000000; stroke-width: 0.8"/>
      </g>
     </g>
     <g id="text_15">
      <!-- 600000 -->
      <g transform="translate(12.425 124.6674) scale(0.1 -0.1)">
       <defs>
        <path id="DejaVuSans-36" d="M 2113 2584 
Q 1688 2584 1439 2293 
Q 1191 2003 1191 1497 
Q 1191 994 1439 701 
Q 1688 409 2113 409 
Q 2538 409 2786 701 
Q 3034 994 3034 1497 
Q 3034 2003 2786 2293 
Q 2538 2584 2113 2584 
z
M 3366 4563 
L 3366 3988 
Q 3128 4100 2886 4159 
Q 2644 4219 2406 4219 
Q 1781 4219 1451 3797 
Q 1122 3375 1075 2522 
Q 1259 2794 1537 2939 
Q 1816 3084 2150 3084 
Q 2853 3084 3261 2657 
Q 3669 2231 3669 1497 
Q 3669 778 3244 343 
Q 2819 -91 2113 -91 
Q 1303 -91 875 529 
Q 447 1150 447 2328 
Q 447 3434 972 4092 
Q 1497 4750 2381 4750 
Q 2619 4750 2861 4703 
Q 3103 4656 3366 4563 
z
" transform="scale(0.015625)"/>
       </defs>
       <use xlink:href="#DejaVuSans-36"/>
       <use xlink:href="#DejaVuSans-30" x="63.623047"/>
       <use xlink:href="#DejaVuSans-30" x="127.246094"/>
       <use xlink:href="#DejaVuSans-30" x="190.869141"/>
       <use xlink:href="#DejaVuSans-30" x="254.492188"/>
       <use xlink:href="#DejaVuSans-30" x="318.115234"/>
      </g>
     </g>
    </g>
    <g id="ytick_8">
     <g id="line2d_15">
      <g>
       <use xlink:href="#m128906b2a7" x="57.6" y="89.748878" style="stroke: #000000; stroke-width: 0.8"/>
      </g>
     </g>
     <g id="text_16">
      <!-- 700000 -->
      <g transform="translate(12.425 93.548097) scale(0.1 -0.1)">
       <defs>
        <path id="DejaVuSans-37" d="M 525 4666 
L 3525 4666 
L 3525 4397 
L 1831 0 
L 1172 0 
L 2766 4134 
L 525 4134 
L 525 4666 
z
" transform="scale(0.015625)"/>
       </defs>
       <use xlink:href="#DejaVuSans-37"/>
       <use xlink:href="#DejaVuSans-30" x="63.623047"/>
       <use xlink:href="#DejaVuSans-30" x="127.246094"/>
       <use xlink:href="#DejaVuSans-30" x="190.869141"/>
       <use xlink:href="#DejaVuSans-30" x="254.492188"/>
       <use xlink:href="#DejaVuSans-30" x="318.115234"/>
      </g>
     </g>
    </g>
    <g id="ytick_9">
     <g id="line2d_16">
      <g>
       <use xlink:href="#m128906b2a7" x="57.6" y="58.629575" style="stroke: #000000; stroke-width: 0.8"/>
      </g>
     </g>
     <g id="text_17">
      <!-- 800000 -->
      <g transform="translate(12.425 62.428794) scale(0.1 -0.1)">
       <defs>
        <path id="DejaVuSans-38" d="M 2034 2216 
Q 1584 2216 1326 1975 
Q 1069 1734 1069 1313 
Q 1069 891 1326 650 
Q 1584 409 2034 409 
Q 2484 409 2743 651 
Q 3003 894 3003 1313 
Q 3003 1734 2745 1975 
Q 2488 2216 2034 2216 
z
M 1403 2484 
Q 997 2584 770 2862 
Q 544 3141 544 3541 
Q 544 4100 942 4425 
Q 1341 4750 2034 4750 
Q 2731 4750 3128 4425 
Q 3525 4100 3525 3541 
Q 3525 3141 3298 2862 
Q 3072 2584 2669 2484 
Q 3125 2378 3379 2068 
Q 3634 1759 3634 1313 
Q 3634 634 3220 271 
Q 2806 -91 2034 -91 
Q 1263 -91 848 271 
Q 434 634 434 1313 
Q 434 1759 690 2068 
Q 947 2378 1403 2484 
z
M 1172 3481 
Q 1172 3119 1398 2916 
Q 1625 2713 2034 2713 
Q 2441 2713 2670 2916 
Q 2900 3119 2900 3481 
Q 2900 3844 2670 4047 
Q 2441 4250 2034 4250 
Q 1625 4250 1398 4047 
Q 1172 3844 1172 3481 
z
" transform="scale(0.015625)"/>
       </defs>
       <use xlink:href="#DejaVuSans-38"/>
       <use xlink:href="#DejaVuSans-30" x="63.623047"/>
       <use xlink:href="#DejaVuSans-30" x="127.246094"/>
       <use xlink:href="#DejaVuSans-30" x="190.869141"/>
       <use xlink:href="#DejaVuSans-30" x="254.492188"/>
       <use xlink:href="#DejaVuSans-30" x="318.115234"/>
      </g>
     </g>
    </g>
    <g id="text_18">
     <!-- intensities -->
     <g transform="translate(6.345312 200.3155) rotate(-90) scale(0.1 -0.1)">
      <defs>
       <path id="DejaVuSans-69" d="M 603 3500 
L 1178 3500 
L 1178 0 
L 603 0 
L 603 3500 
z
M 603 4863 
L 1178 4863 
L 1178 4134 
L 603 4134 
L 603 4863 
z
" transform="scale(0.015625)"/>
       <path id="DejaVuSans-6e" d="M 3513 2113 
L 3513 0 
L 2938 0 
L 2938 2094 
Q 2938 2591 2744 2837 
Q 2550 3084 2163 3084 
Q 1697 3084 1428 2787 
Q 1159 2491 1159 1978 
L 1159 0 
L 581 0 
L 581 3500 
L 1159 3500 
L 1159 2956 
Q 1366 3272 1645 3428 
Q 1925 3584 2291 3584 
Q 2894 3584 3203 3211 
Q 3513 2838 3513 2113 
z
" transform="scale(0.015625)"/>
       <path id="DejaVuSans-74" d="M 1172 4494 
L 1172 3500 
L 2356 3500 
L 2356 3053 
L 1172 3053 
L 1172 1153 
Q 1172 725 1289 603 
Q 1406 481 1766 481 
L 2356 481 
L 2356 0 
L 1766 0 
Q 1100 0 847 248 
Q 594 497 594 1153 
L 594 3053 
L 172 3053 
L 172 3500 
L 594 3500 
L 594 4494 
L 1172 4494 
z
" transform="scale(0.015625)"/>
       <path id="DejaVuSans-65" d="M 3597 1894 
L 3597 1613 
L 953 1613 
Q 991 1019 1311 708 
Q 1631 397 2203 397 
Q 2534 397 2845 478 
Q 3156 559 3463 722 
L 3463 178 
Q 3153 47 2828 -22 
Q 2503 -91 2169 -91 
Q 1331 -91 842 396 
Q 353 884 353 1716 
Q 353 2575 817 3079 
Q 1281 3584 2069 3584 
Q 2775 3584 3186 3129 
Q 3597 2675 3597 1894 
z
M 3022 2063 
Q 3016 2534 2758 2815 
Q 2500 3097 2075 3097 
Q 1594 3097 1305 2825 
Q 1016 2553 972 2059 
L 3022 2063 
z
" transform="scale(0.015625)"/>
       <path id="DejaVuSans-73" d="M 2834 3397 
L 2834 2853 
Q 2591 2978 2328 3040 
Q 2066 3103 1784 3103 
Q 1356 3103 1142 2972 
Q 928 2841 928 2578 
Q 928 2378 1081 2264 
Q 1234 2150 1697 2047 
L 1894 2003 
Q 2506 1872 2764 1633 
Q 3022 1394 3022 966 
Q 3022 478 2636 193 
Q 2250 -91 1575 -91 
Q 1294 -91 989 -36 
Q 684 19 347 128 
L 347 722 
Q 666 556 975 473 
Q 1284 391 1588 391 
Q 1994 391 2212 530 
Q 2431 669 2431 922 
Q 2431 1156 2273 1281 
Q 2116 1406 1581 1522 
L 1381 1569 
Q 847 1681 609 1914 
Q 372 2147 372 2553 
Q 372 3047 722 3315 
Q 1072 3584 1716 3584 
Q 2034 3584 2315 3537 
Q 2597 3491 2834 3397 
z
" transform="scale(0.015625)"/>
      </defs>
      <use xlink:href="#DejaVuSans-69"/>
      <use xlink:href="#DejaVuSans-6e" x="27.783203"/>
      <use xlink:href="#DejaVuSans-74" x="91.162109"/>
      <use xlink:href="#DejaVuSans-65" x="130.371094"/>
      <use xlink:href="#DejaVuSans-6e" x="191.894531"/>
      <use xlink:href="#DejaVuSans-73" x="255.273438"/>
      <use xlink:href="#DejaVuSans-69" x="307.373047"/>
      <use xlink:href="#DejaVuSans-74" x="335.15625"/>
      <use xlink:href="#DejaVuSans-69" x="374.365234"/>
      <use xlink:href="#DejaVuSans-65" x="402.148438"/>
      <use xlink:href="#DejaVuSans-73" x="463.671875"/>
     </g>
    </g>
   </g>
   <g id="patch_185">
    <path d="M 57.6 307.584 
L 57.6 41.472 
" style="fill: none; stroke: #000000; stroke-width: 0.8; stroke-linejoin: miter; stroke-linecap: square"/>
   </g>
   <g id="patch_186">
    <path d="M 414.72 307.584 
L 414.72 41.472 
" style="fill: none; stroke: #000000; stroke-width: 0.8; stroke-linejoin: miter; stroke-linecap: square"/>
   </g>
   <g id="patch_187">
    <path d="M 57.6 307.584 
L 414.72 307.584 
" style="fill: none; stroke: #000000; stroke-width: 0.8; stroke-linejoin: miter; stroke-linecap: square"/>
   </g>
   <g id="patch_188">
    <path d="M 57.6 41.472 
L 414.72 41.472 
" style="fill: none; stroke: #000000; stroke-width: 0.8; stroke-linejoin: miter; stroke-linecap: square"/>
   </g>
   <g id="text_19">
    <!-- 102.0554 -->
    <g transform="translate(119.83228 165.386133) scale(0.06 -0.06)">
     <defs>
      <path id="DejaVuSans-2e" d="M 684 794 
L 1344 794 
L 1344 0 
L 684 0 
L 684 794 
z
" transform="scale(0.015625)"/>
     </defs>
     <use xlink:href="#DejaVuSans-31"/>
     <use xlink:href="#DejaVuSans-30" x="63.623047"/>
     <use xlink:href="#DejaVuSans-32" x="127.246094"/>
     <use xlink:href="#DejaVuSans-2e" x="190.869141"/>
     <use xlink:href="#DejaVuSans-30" x="222.65625"/>
     <use xlink:href="#DejaVuSans-35" x="286.279297"/>
     <use xlink:href="#DejaVuSans-35" x="349.902344"/>
     <use xlink:href="#DejaVuSans-34" x="413.525391"/>
    </g>
   </g>
   <g id="text_20">
    <!-- 130.0652 -->
    <g transform="translate(151.073632 267.622768) scale(0.06 -0.06)">
     <use xlink:href="#DejaVuSans-31"/>
     <use xlink:href="#DejaVuSans-33" x="63.623047"/>
     <use xlink:href="#DejaVuSans-30" x="127.246094"/>
     <use xlink:href="#DejaVuSans-2e" x="190.869141"/>
     <use xlink:href="#DejaVuSans-30" x="222.65625"/>
     <use xlink:href="#DejaVuSans-36" x="286.279297"/>
     <use xlink:href="#DejaVuSans-35" x="349.902344"/>
     <use xlink:href="#DejaVuSans-32" x="413.525391"/>
    </g>
   </g>
   <g id="text_21">
    <!-- 183.0915 -->
    <g transform="translate(208.777773 271.969965) scale(0.06 -0.06)">
     <defs>
      <path id="DejaVuSans-39" d="M 703 97 
L 703 672 
Q 941 559 1184 500 
Q 1428 441 1663 441 
Q 2288 441 2617 861 
Q 2947 1281 2994 2138 
Q 2813 1869 2534 1725 
Q 2256 1581 1919 1581 
Q 1219 1581 811 2004 
Q 403 2428 403 3163 
Q 403 3881 828 4315 
Q 1253 4750 1959 4750 
Q 2769 4750 3195 4129 
Q 3622 3509 3622 2328 
Q 3622 1225 3098 567 
Q 2575 -91 1691 -91 
Q 1453 -91 1209 -44 
Q 966 3 703 97 
z
M 1959 2075 
Q 2384 2075 2632 2365 
Q 2881 2656 2881 3163 
Q 2881 3666 2632 3958 
Q 2384 4250 1959 4250 
Q 1534 4250 1286 3958 
Q 1038 3666 1038 3163 
Q 1038 2656 1286 2365 
Q 1534 2075 1959 2075 
z
" transform="scale(0.015625)"/>
     </defs>
     <use xlink:href="#DejaVuSans-31"/>
     <use xlink:href="#DejaVuSans-38" x="63.623047"/>
     <use xlink:href="#DejaVuSans-33" x="127.246094"/>
     <use xlink:href="#DejaVuSans-2e" x="190.869141"/>
     <use xlink:href="#DejaVuSans-30" x="222.65625"/>
     <use xlink:href="#DejaVuSans-39" x="286.279297"/>
     <use xlink:href="#DejaVuSans-31" x="349.902344"/>
     <use xlink:href="#DejaVuSans-35" x="413.525391"/>
    </g>
   </g>
   <g id="text_22">
    <!-- 202.0498 -->
    <g transform="translate(216.243295 263.061095) scale(0.06 -0.06)">
     <use xlink:href="#DejaVuSans-32"/>
     <use xlink:href="#DejaVuSans-30" x="63.623047"/>
     <use xlink:href="#DejaVuSans-32" x="127.246094"/>
     <use xlink:href="#DejaVuSans-2e" x="190.869141"/>
     <use xlink:href="#DejaVuSans-30" x="222.65625"/>
     <use xlink:href="#DejaVuSans-34" x="286.279297"/>
     <use xlink:href="#DejaVuSans-39" x="349.902344"/>
     <use xlink:href="#DejaVuSans-38" x="413.525391"/>
    </g>
   </g>
   <g id="text_23">
    <!-- 211.0863 -->
    <g transform="translate(241.442446 99.463157) scale(0.06 -0.06)">
     <use xlink:href="#DejaVuSans-32"/>
     <use xlink:href="#DejaVuSans-31" x="63.623047"/>
     <use xlink:href="#DejaVuSans-31" x="127.246094"/>
     <use xlink:href="#DejaVuSans-2e" x="190.869141"/>
     <use xlink:href="#DejaVuSans-30" x="222.65625"/>
     <use xlink:href="#DejaVuSans-38" x="286.279297"/>
     <use xlink:href="#DejaVuSans-36" x="349.902344"/>
     <use xlink:href="#DejaVuSans-33" x="413.525391"/>
    </g>
   </g>
   <g id="text_24">
    <!-- 212.093 -->
    <g transform="translate(245.914007 254.623466) scale(0.06 -0.06)">
     <use xlink:href="#DejaVuSans-32"/>
     <use xlink:href="#DejaVuSans-31" x="63.623047"/>
     <use xlink:href="#DejaVuSans-32" x="127.246094"/>
     <use xlink:href="#DejaVuSans-2e" x="190.869141"/>
     <use xlink:href="#DejaVuSans-30" x="222.65625"/>
     <use xlink:href="#DejaVuSans-39" x="286.279297"/>
     <use xlink:href="#DejaVuSans-33" x="349.902344"/>
    </g>
   </g>
   <g id="text_25">
    <!-- 226.0867 -->
    <g transform="translate(244.493381 269.116171) scale(0.06 -0.06)">
     <use xlink:href="#DejaVuSans-32"/>
     <use xlink:href="#DejaVuSans-32" x="63.623047"/>
     <use xlink:href="#DejaVuSans-36" x="127.246094"/>
     <use xlink:href="#DejaVuSans-2e" x="190.869141"/>
     <use xlink:href="#DejaVuSans-30" x="222.65625"/>
     <use xlink:href="#DejaVuSans-38" x="286.279297"/>
     <use xlink:href="#DejaVuSans-36" x="349.902344"/>
     <use xlink:href="#DejaVuSans-37" x="413.525391"/>
    </g>
   </g>
   <g id="text_26">
    <!-- 228.089 -->
    <g transform="translate(260.875481 50.939625) scale(0.06 -0.06)">
     <use xlink:href="#DejaVuSans-32"/>
     <use xlink:href="#DejaVuSans-32" x="63.623047"/>
     <use xlink:href="#DejaVuSans-38" x="127.246094"/>
     <use xlink:href="#DejaVuSans-2e" x="190.869141"/>
     <use xlink:href="#DejaVuSans-30" x="222.65625"/>
     <use xlink:href="#DejaVuSans-38" x="286.279297"/>
     <use xlink:href="#DejaVuSans-39" x="349.902344"/>
    </g>
   </g>
   <g id="text_27">
    <!-- 230.0446 -->
    <g transform="translate(262.587951 192.645641) scale(0.06 -0.06)">
     <use xlink:href="#DejaVuSans-32"/>
     <use xlink:href="#DejaVuSans-33" x="63.623047"/>
     <use xlink:href="#DejaVuSans-30" x="127.246094"/>
     <use xlink:href="#DejaVuSans-2e" x="190.869141"/>
     <use xlink:href="#DejaVuSans-30" x="222.65625"/>
     <use xlink:href="#DejaVuSans-34" x="286.279297"/>
     <use xlink:href="#DejaVuSans-34" x="349.902344"/>
     <use xlink:href="#DejaVuSans-36" x="413.525391"/>
    </g>
   </g>
   <g id="text_28">
    <!-- 240.0291 -->
    <g transform="translate(274.444457 261.90328) scale(0.06 -0.06)">
     <use xlink:href="#DejaVuSans-32"/>
     <use xlink:href="#DejaVuSans-34" x="63.623047"/>
     <use xlink:href="#DejaVuSans-30" x="127.246094"/>
     <use xlink:href="#DejaVuSans-2e" x="190.869141"/>
     <use xlink:href="#DejaVuSans-30" x="222.65625"/>
     <use xlink:href="#DejaVuSans-32" x="286.279297"/>
     <use xlink:href="#DejaVuSans-39" x="349.902344"/>
     <use xlink:href="#DejaVuSans-31" x="413.525391"/>
    </g>
   </g>
   <g id="text_29">
    <!-- 272.0547 -->
    <g transform="translate(309.444882 147.972461) scale(0.06 -0.06)">
     <use xlink:href="#DejaVuSans-32"/>
     <use xlink:href="#DejaVuSans-37" x="63.623047"/>
     <use xlink:href="#DejaVuSans-32" x="127.246094"/>
     <use xlink:href="#DejaVuSans-2e" x="190.869141"/>
     <use xlink:href="#DejaVuSans-30" x="222.65625"/>
     <use xlink:href="#DejaVuSans-35" x="286.279297"/>
     <use xlink:href="#DejaVuSans-34" x="349.902344"/>
     <use xlink:href="#DejaVuSans-37" x="413.525391"/>
    </g>
   </g>
   <g id="text_30">
    <!-- MS2 spectrum of ${m/z}$ 363.1173, scan time 6.27 min. -->
    <g transform="translate(57.6 35.472) scale(0.12 -0.12)">
     <defs>
      <path id="DejaVuSans-4d" d="M 628 4666 
L 1569 4666 
L 2759 1491 
L 3956 4666 
L 4897 4666 
L 4897 0 
L 4281 0 
L 4281 4097 
L 3078 897 
L 2444 897 
L 1241 4097 
L 1241 0 
L 628 0 
L 628 4666 
z
" transform="scale(0.015625)"/>
      <path id="DejaVuSans-53" d="M 3425 4513 
L 3425 3897 
Q 3066 4069 2747 4153 
Q 2428 4238 2131 4238 
Q 1616 4238 1336 4038 
Q 1056 3838 1056 3469 
Q 1056 3159 1242 3001 
Q 1428 2844 1947 2747 
L 2328 2669 
Q 3034 2534 3370 2195 
Q 3706 1856 3706 1288 
Q 3706 609 3251 259 
Q 2797 -91 1919 -91 
Q 1588 -91 1214 -16 
Q 841 59 441 206 
L 441 856 
Q 825 641 1194 531 
Q 1563 422 1919 422 
Q 2459 422 2753 634 
Q 3047 847 3047 1241 
Q 3047 1584 2836 1778 
Q 2625 1972 2144 2069 
L 1759 2144 
Q 1053 2284 737 2584 
Q 422 2884 422 3419 
Q 422 4038 858 4394 
Q 1294 4750 2059 4750 
Q 2388 4750 2728 4690 
Q 3069 4631 3425 4513 
z
" transform="scale(0.015625)"/>
      <path id="DejaVuSans-20" transform="scale(0.015625)"/>
      <path id="DejaVuSans-70" d="M 1159 525 
L 1159 -1331 
L 581 -1331 
L 581 3500 
L 1159 3500 
L 1159 2969 
Q 1341 3281 1617 3432 
Q 1894 3584 2278 3584 
Q 2916 3584 3314 3078 
Q 3713 2572 3713 1747 
Q 3713 922 3314 415 
Q 2916 -91 2278 -91 
Q 1894 -91 1617 61 
Q 1341 213 1159 525 
z
M 3116 1747 
Q 3116 2381 2855 2742 
Q 2594 3103 2138 3103 
Q 1681 3103 1420 2742 
Q 1159 2381 1159 1747 
Q 1159 1113 1420 752 
Q 1681 391 2138 391 
Q 2594 391 2855 752 
Q 3116 1113 3116 1747 
z
" transform="scale(0.015625)"/>
      <path id="DejaVuSans-63" d="M 3122 3366 
L 3122 2828 
Q 2878 2963 2633 3030 
Q 2388 3097 2138 3097 
Q 1578 3097 1268 2742 
Q 959 2388 959 1747 
Q 959 1106 1268 751 
Q 1578 397 2138 397 
Q 2388 397 2633 464 
Q 2878 531 3122 666 
L 3122 134 
Q 2881 22 2623 -34 
Q 2366 -91 2075 -91 
Q 1284 -91 818 406 
Q 353 903 353 1747 
Q 353 2603 823 3093 
Q 1294 3584 2113 3584 
Q 2378 3584 2631 3529 
Q 2884 3475 3122 3366 
z
" transform="scale(0.015625)"/>
      <path id="DejaVuSans-72" d="M 2631 2963 
Q 2534 3019 2420 3045 
Q 2306 3072 2169 3072 
Q 1681 3072 1420 2755 
Q 1159 2438 1159 1844 
L 1159 0 
L 581 0 
L 581 3500 
L 1159 3500 
L 1159 2956 
Q 1341 3275 1631 3429 
Q 1922 3584 2338 3584 
Q 2397 3584 2469 3576 
Q 2541 3569 2628 3553 
L 2631 2963 
z
" transform="scale(0.015625)"/>
      <path id="DejaVuSans-75" d="M 544 1381 
L 544 3500 
L 1119 3500 
L 1119 1403 
Q 1119 906 1312 657 
Q 1506 409 1894 409 
Q 2359 409 2629 706 
Q 2900 1003 2900 1516 
L 2900 3500 
L 3475 3500 
L 3475 0 
L 2900 0 
L 2900 538 
Q 2691 219 2414 64 
Q 2138 -91 1772 -91 
Q 1169 -91 856 284 
Q 544 659 544 1381 
z
M 1991 3584 
L 1991 3584 
z
" transform="scale(0.015625)"/>
      <path id="DejaVuSans-6d" d="M 3328 2828 
Q 3544 3216 3844 3400 
Q 4144 3584 4550 3584 
Q 5097 3584 5394 3201 
Q 5691 2819 5691 2113 
L 5691 0 
L 5113 0 
L 5113 2094 
Q 5113 2597 4934 2840 
Q 4756 3084 4391 3084 
Q 3944 3084 3684 2787 
Q 3425 2491 3425 1978 
L 3425 0 
L 2847 0 
L 2847 2094 
Q 2847 2600 2669 2842 
Q 2491 3084 2119 3084 
Q 1678 3084 1418 2786 
Q 1159 2488 1159 1978 
L 1159 0 
L 581 0 
L 581 3500 
L 1159 3500 
L 1159 2956 
Q 1356 3278 1631 3431 
Q 1906 3584 2284 3584 
Q 2666 3584 2933 3390 
Q 3200 3197 3328 2828 
z
" transform="scale(0.015625)"/>
      <path id="DejaVuSans-6f" d="M 1959 3097 
Q 1497 3097 1228 2736 
Q 959 2375 959 1747 
Q 959 1119 1226 758 
Q 1494 397 1959 397 
Q 2419 397 2687 759 
Q 2956 1122 2956 1747 
Q 2956 2369 2687 2733 
Q 2419 3097 1959 3097 
z
M 1959 3584 
Q 2709 3584 3137 3096 
Q 3566 2609 3566 1747 
Q 3566 888 3137 398 
Q 2709 -91 1959 -91 
Q 1206 -91 779 398 
Q 353 888 353 1747 
Q 353 2609 779 3096 
Q 1206 3584 1959 3584 
z
" transform="scale(0.015625)"/>
      <path id="DejaVuSans-66" d="M 2375 4863 
L 2375 4384 
L 1825 4384 
Q 1516 4384 1395 4259 
Q 1275 4134 1275 3809 
L 1275 3500 
L 2222 3500 
L 2222 3053 
L 1275 3053 
L 1275 0 
L 697 0 
L 697 3053 
L 147 3053 
L 147 3500 
L 697 3500 
L 697 3744 
Q 697 4328 969 4595 
Q 1241 4863 1831 4863 
L 2375 4863 
z
" transform="scale(0.015625)"/>
      <path id="DejaVuSans-2c" d="M 750 794 
L 1409 794 
L 1409 256 
L 897 -744 
L 494 -744 
L 750 256 
L 750 794 
z
" transform="scale(0.015625)"/>
      <path id="DejaVuSans-61" d="M 2194 1759 
Q 1497 1759 1228 1600 
Q 959 1441 959 1056 
Q 959 750 1161 570 
Q 1363 391 1709 391 
Q 2188 391 2477 730 
Q 2766 1069 2766 1631 
L 2766 1759 
L 2194 1759 
z
M 3341 1997 
L 3341 0 
L 2766 0 
L 2766 531 
Q 2569 213 2275 61 
Q 1981 -91 1556 -91 
Q 1019 -91 701 211 
Q 384 513 384 1019 
Q 384 1609 779 1909 
Q 1175 2209 1959 2209 
L 2766 2209 
L 2766 2266 
Q 2766 2663 2505 2880 
Q 2244 3097 1772 3097 
Q 1472 3097 1187 3025 
Q 903 2953 641 2809 
L 641 3341 
Q 956 3463 1253 3523 
Q 1550 3584 1831 3584 
Q 2591 3584 2966 3190 
Q 3341 2797 3341 1997 
z
" transform="scale(0.015625)"/>
     </defs>
     <use xlink:href="#DejaVuSans-4d" transform="translate(0 0.015625)"/>
     <use xlink:href="#DejaVuSans-53" transform="translate(86.279297 0.015625)"/>
     <use xlink:href="#DejaVuSans-32" transform="translate(149.755859 0.015625)"/>
     <use xlink:href="#DejaVuSans-20" transform="translate(213.378906 0.015625)"/>
     <use xlink:href="#DejaVuSans-73" transform="translate(245.166016 0.015625)"/>
     <use xlink:href="#DejaVuSans-70" transform="translate(297.265625 0.015625)"/>
     <use xlink:href="#DejaVuSans-65" transform="translate(360.742188 0.015625)"/>
     <use xlink:href="#DejaVuSans-63" transform="translate(422.265625 0.015625)"/>
     <use xlink:href="#DejaVuSans-74" transform="translate(477.246094 0.015625)"/>
     <use xlink:href="#DejaVuSans-72" transform="translate(516.455078 0.015625)"/>
     <use xlink:href="#DejaVuSans-75" transform="translate(557.568359 0.015625)"/>
     <use xlink:href="#DejaVuSans-6d" transform="translate(620.947266 0.015625)"/>
     <use xlink:href="#DejaVuSans-20" transform="translate(718.359375 0.015625)"/>
     <use xlink:href="#DejaVuSans-6f" transform="translate(750.146484 0.015625)"/>
     <use xlink:href="#DejaVuSans-66" transform="translate(811.328125 0.015625)"/>
     <use xlink:href="#DejaVuSans-20" transform="translate(846.533203 0.015625)"/>
     <use xlink:href="#DejaVuSans-Oblique-6d" transform="translate(878.320312 0.015625)"/>
     <use xlink:href="#DejaVuSans-2f" transform="translate(975.732422 0.015625)"/>
     <use xlink:href="#DejaVuSans-Oblique-7a" transform="translate(1009.423828 0.015625)"/>
     <use xlink:href="#DejaVuSans-20" transform="translate(1061.914062 0.015625)"/>
     <use xlink:href="#DejaVuSans-33" transform="translate(1093.701172 0.015625)"/>
     <use xlink:href="#DejaVuSans-36" transform="translate(1157.324219 0.015625)"/>
     <use xlink:href="#DejaVuSans-33" transform="translate(1220.947266 0.015625)"/>
     <use xlink:href="#DejaVuSans-2e" transform="translate(1284.570312 0.015625)"/>
     <use xlink:href="#DejaVuSans-31" transform="translate(1316.357422 0.015625)"/>
     <use xlink:href="#DejaVuSans-31" transform="translate(1379.980469 0.015625)"/>
     <use xlink:href="#DejaVuSans-37" transform="translate(1443.603516 0.015625)"/>
     <use xlink:href="#DejaVuSans-33" transform="translate(1507.226562 0.015625)"/>
     <use xlink:href="#DejaVuSans-2c" transform="translate(1570.849609 0.015625)"/>
     <use xlink:href="#DejaVuSans-20" transform="translate(1602.636719 0.015625)"/>
     <use xlink:href="#DejaVuSans-73" transform="translate(1634.423828 0.015625)"/>
     <use xlink:href="#DejaVuSans-63" transform="translate(1686.523438 0.015625)"/>
     <use xlink:href="#DejaVuSans-61" transform="translate(1741.503906 0.015625)"/>
     <use xlink:href="#DejaVuSans-6e" transform="translate(1802.783203 0.015625)"/>
     <use xlink:href="#DejaVuSans-20" transform="translate(1866.162109 0.015625)"/>
     <use xlink:href="#DejaVuSans-74" transform="translate(1897.949219 0.015625)"/>
     <use xlink:href="#DejaVuSans-69" transform="translate(1937.158203 0.015625)"/>
     <use xlink:href="#DejaVuSans-6d" transform="translate(1964.941406 0.015625)"/>
     <use xlink:href="#DejaVuSans-65" transform="translate(2062.353516 0.015625)"/>
     <use xlink:href="#DejaVuSans-20" transform="translate(2123.876953 0.015625)"/>
     <use xlink:href="#DejaVuSans-36" transform="translate(2155.664062 0.015625)"/>
     <use xlink:href="#DejaVuSans-2e" transform="translate(2219.287109 0.015625)"/>
     <use xlink:href="#DejaVuSans-32" transform="translate(2245.574219 0.015625)"/>
     <use xlink:href="#DejaVuSans-37" transform="translate(2309.197266 0.015625)"/>
     <use xlink:href="#DejaVuSans-20" transform="translate(2372.820312 0.015625)"/>
     <use xlink:href="#DejaVuSans-6d" transform="translate(2404.607422 0.015625)"/>
     <use xlink:href="#DejaVuSans-69" transform="translate(2502.019531 0.015625)"/>
     <use xlink:href="#DejaVuSans-6e" transform="translate(2529.802734 0.015625)"/>
     <use xlink:href="#DejaVuSans-2e" transform="translate(2593.181641 0.015625)"/>
    </g>
   </g>
  </g>
 </g>
 <defs>
  <clipPath id="p5d5a9280e9">
   <rect x="57.6" y="41.472" width="357.12" height="266.112"/>
  </clipPath>
 </defs>
</svg>
