<?xml version="1.0" encoding="utf-8" standalone="no"?>
<!DOCTYPE svg PUBLIC "-//W3C//DTD SVG 1.1//EN"
  "http://www.w3.org/Graphics/SVG/1.1/DTD/svg11.dtd">
<svg xmlns:xlink="http://www.w3.org/1999/xlink" width="460.8pt" height="345.6pt" viewBox="0 0 460.8 345.6" xmlns="http://www.w3.org/2000/svg" version="1.1">
 <metadata>
  <rdf:RDF xmlns:dc="http://purl.org/dc/elements/1.1/" xmlns:cc="http://creativecommons.org/ns#" xmlns:rdf="http://www.w3.org/1999/02/22-rdf-syntax-ns#">
   <cc:Work>
    <dc:type rdf:resource="http://purl.org/dc/dcmitype/StillImage"/>
    <dc:date>2025-01-11T13:56:10.912313</dc:date>
    <dc:format>image/svg+xml</dc:format>
    <dc:creator>
     <cc:Agent>
      <dc:title>Matplotlib v3.7.3, https://matplotlib.org/</dc:title>
     </cc:Agent>
    </dc:creator>
   </cc:Work>
  </rdf:RDF>
 </metadata>
 <defs>
  <style type="text/css">*{stroke-linejoin: round; stroke-linecap: butt}</style>
 </defs>
 <g id="figure_1">
  <g id="patch_1">
   <path d="M 0 345.6 
L 460.8 345.6 
L 460.8 0 
L 0 0 
z
" style="fill: #ffffff"/>
  </g>
  <g id="axes_1">
   <g id="patch_2">
    <path d="M 57.6 307.584 
L 414.72 307.584 
L 414.72 41.472 
L 57.6 41.472 
z
" style="fill: #ffffff"/>
   </g>
   <g id="patch_3">
    <path d="M 73.832727 307.584 
L 74.673032 307.584 
L 74.673032 304.643985 
L 73.832727 304.643985 
z
" clip-path="url(#p3ff81f5167)" style="fill: #1f77b4"/>
   </g>
   <g id="patch_4">
    <path d="M 74.025138 307.584 
L 74.865443 307.584 
L 74.865443 306.541796 
L 74.025138 306.541796 
z
" clip-path="url(#p3ff81f5167)" style="fill: #1f77b4"/>
   </g>
   <g id="patch_5">
    <path d="M 74.073942 307.584 
L 74.914247 307.584 
L 74.914247 306.44152 
L 74.073942 306.44152 
z
" clip-path="url(#p3ff81f5167)" style="fill: #1f77b4"/>
   </g>
   <g id="patch_6">
    <path d="M 75.10896 307.584 
L 75.949265 307.584 
L 75.949265 304.432276 
L 75.10896 304.432276 
z
" clip-path="url(#p3ff81f5167)" style="fill: #1f77b4"/>
   </g>
   <g id="patch_7">
    <path d="M 76.129706 307.584 
L 76.970011 307.584 
L 76.970011 305.868417 
L 76.129706 305.868417 
z
" clip-path="url(#p3ff81f5167)" style="fill: #1f77b4"/>
   </g>
   <g id="patch_8">
    <path d="M 76.142705 307.584 
L 76.98301 307.584 
L 76.98301 306.180849 
L 76.142705 306.180849 
z
" clip-path="url(#p3ff81f5167)" style="fill: #1f77b4"/>
   </g>
   <g id="patch_9">
    <path d="M 78.259815 307.584 
L 79.10012 307.584 
L 79.10012 304.648478 
L 78.259815 304.648478 
z
" clip-path="url(#p3ff81f5167)" style="fill: #1f77b4"/>
   </g>
   <g id="patch_10">
    <path d="M 78.910317 307.584 
L 79.750621 307.584 
L 79.750621 306.143382 
L 78.910317 306.143382 
z
" clip-path="url(#p3ff81f5167)" style="fill: #1f77b4"/>
   </g>
   <g id="patch_11">
    <path d="M 81.521375 307.584 
L 82.36168 307.584 
L 82.36168 305.617699 
L 81.521375 305.617699 
z
" clip-path="url(#p3ff81f5167)" style="fill: #1f77b4"/>
   </g>
   <g id="patch_12">
    <path d="M 84.550829 307.584 
L 85.391134 307.584 
L 85.391134 305.991857 
L 84.550829 305.991857 
z
" clip-path="url(#p3ff81f5167)" style="fill: #1f77b4"/>
   </g>
   <g id="patch_13">
    <path d="M 84.662822 307.584 
L 85.503127 307.584 
L 85.503127 306.793695 
L 84.662822 306.793695 
z
" clip-path="url(#p3ff81f5167)" style="fill: #1f77b4"/>
   </g>
   <g id="patch_14">
    <path d="M 86.311751 307.584 
L 87.152056 307.584 
L 87.152056 306.753784 
L 86.311751 306.753784 
z
" clip-path="url(#p3ff81f5167)" style="fill: #1f77b4"/>
   </g>
   <g id="patch_15">
    <path d="M 86.456328 307.584 
L 87.296633 307.584 
L 87.296633 306.713176 
L 86.456328 306.713176 
z
" clip-path="url(#p3ff81f5167)" style="fill: #1f77b4"/>
   </g>
   <g id="patch_16">
    <path d="M 86.63001 307.584 
L 87.470315 307.584 
L 87.470315 302.281468 
L 86.63001 302.281468 
z
" clip-path="url(#p3ff81f5167)" style="fill: #1f77b4"/>
   </g>
   <g id="patch_17">
    <path d="M 87.713384 307.584 
L 88.553689 307.584 
L 88.553689 300.16938 
L 87.713384 300.16938 
z
" clip-path="url(#p3ff81f5167)" style="fill: #1f77b4"/>
   </g>
   <g id="patch_18">
    <path d="M 89.973468 307.584 
L 90.813772 307.584 
L 90.813772 306.695707 
L 89.973468 306.695707 
z
" clip-path="url(#p3ff81f5167)" style="fill: #1f77b4"/>
   </g>
   <g id="patch_19">
    <path d="M 97.155746 307.584 
L 97.99605 307.584 
L 97.99605 306.473623 
L 97.155746 306.473623 
z
" clip-path="url(#p3ff81f5167)" style="fill: #1f77b4"/>
   </g>
   <g id="patch_20">
    <path d="M 102.434954 307.584 
L 103.275258 307.584 
L 103.275258 306.521587 
L 102.434954 306.521587 
z
" clip-path="url(#p3ff81f5167)" style="fill: #1f77b4"/>
   </g>
   <g id="patch_21">
    <path d="M 109.75954 307.584 
L 110.599845 307.584 
L 110.599845 305.820413 
L 109.75954 305.820413 
z
" clip-path="url(#p3ff81f5167)" style="fill: #1f77b4"/>
   </g>
   <g id="patch_22">
    <path d="M 111.876875 307.584 
L 112.717179 307.584 
L 112.717179 302.581404 
L 111.876875 302.581404 
z
" clip-path="url(#p3ff81f5167)" style="fill: #1f77b4"/>
   </g>
   <g id="patch_23">
    <path d="M 112.922303 307.584 
L 113.762608 307.584 
L 113.762608 302.540594 
L 112.922303 302.540594 
z
" clip-path="url(#p3ff81f5167)" style="fill: #1f77b4"/>
   </g>
   <g id="patch_24">
    <path d="M 117.118618 307.584 
L 117.958923 307.584 
L 117.958923 304.958815 
L 117.118618 304.958815 
z
" clip-path="url(#p3ff81f5167)" style="fill: #1f77b4"/>
   </g>
   <g id="patch_25">
    <path d="M 117.986429 307.584 
L 118.826734 307.584 
L 118.826734 306.214762 
L 117.986429 306.214762 
z
" clip-path="url(#p3ff81f5167)" style="fill: #1f77b4"/>
   </g>
   <g id="patch_26">
    <path d="M 119.2358 307.584 
L 120.076105 307.584 
L 120.076105 299.012744 
L 119.2358 299.012744 
z
" clip-path="url(#p3ff81f5167)" style="fill: #1f77b4"/>
   </g>
   <g id="patch_27">
    <path d="M 120.269368 307.584 
L 121.109673 307.584 
L 121.109673 304.43411 
L 120.269368 304.43411 
z
" clip-path="url(#p3ff81f5167)" style="fill: #1f77b4"/>
   </g>
   <g id="patch_28">
    <path d="M 121.352854 307.584 
L 122.193159 307.584 
L 122.193159 305.819659 
L 121.352854 305.819659 
z
" clip-path="url(#p3ff81f5167)" style="fill: #1f77b4"/>
   </g>
   <g id="patch_29">
    <path d="M 123.431795 307.584 
L 124.272099 307.584 
L 124.272099 166.994987 
L 123.431795 166.994987 
z
" clip-path="url(#p3ff81f5167)" style="fill: #1f77b4"/>
   </g>
   <g id="patch_30">
    <path d="M 124.468288 307.584 
L 125.308593 307.584 
L 125.308593 306.304745 
L 124.468288 306.304745 
z
" clip-path="url(#p3ff81f5167)" style="fill: #1f77b4"/>
   </g>
   <g id="patch_31">
    <path d="M 124.480453 307.584 
L 125.320757 307.584 
L 125.320757 304.91536 
L 124.480453 304.91536 
z
" clip-path="url(#p3ff81f5167)" style="fill: #1f77b4"/>
   </g>
   <g id="patch_32">
    <path d="M 124.486062 307.584 
L 125.326367 307.584 
L 125.326367 303.983936 
L 124.486062 303.983936 
z
" clip-path="url(#p3ff81f5167)" style="fill: #1f77b4"/>
   </g>
   <g id="patch_33">
    <path d="M 125.527051 307.584 
L 126.367356 307.584 
L 126.367356 306.263595 
L 125.527051 306.263595 
z
" clip-path="url(#p3ff81f5167)" style="fill: #1f77b4"/>
   </g>
   <g id="patch_34">
    <path d="M 127.643929 307.584 
L 128.484234 307.584 
L 128.484234 306.355646 
L 127.643929 306.355646 
z
" clip-path="url(#p3ff81f5167)" style="fill: #1f77b4"/>
   </g>
   <g id="patch_35">
    <path d="M 129.330539 307.584 
L 130.170844 307.584 
L 130.170844 305.99033 
L 129.330539 305.99033 
z
" clip-path="url(#p3ff81f5167)" style="fill: #1f77b4"/>
   </g>
   <g id="patch_36">
    <path d="M 129.722717 307.584 
L 130.563022 307.584 
L 130.563022 305.937331 
L 129.722717 305.937331 
z
" clip-path="url(#p3ff81f5167)" style="fill: #1f77b4"/>
   </g>
   <g id="patch_37">
    <path d="M 130.167177 307.584 
L 131.007482 307.584 
L 131.007482 306.424553 
L 130.167177 306.424553 
z
" clip-path="url(#p3ff81f5167)" style="fill: #1f77b4"/>
   </g>
   <g id="patch_38">
    <path d="M 131.840172 307.584 
L 132.680476 307.584 
L 132.680476 306.136047 
L 131.840172 306.136047 
z
" clip-path="url(#p3ff81f5167)" style="fill: #1f77b4"/>
   </g>
   <g id="patch_39">
    <path d="M 133.919072 307.584 
L 134.759377 307.584 
L 134.759377 305.224008 
L 133.919072 305.224008 
z
" clip-path="url(#p3ff81f5167)" style="fill: #1f77b4"/>
   </g>
   <g id="patch_40">
    <path d="M 136.01384 307.584 
L 136.854145 307.584 
L 136.854145 300.633881 
L 136.01384 300.633881 
z
" clip-path="url(#p3ff81f5167)" style="fill: #1f77b4"/>
   </g>
   <g id="patch_41">
    <path d="M 137.085826 307.584 
L 137.926131 307.584 
L 137.926131 305.320558 
L 137.085826 305.320558 
z
" clip-path="url(#p3ff81f5167)" style="fill: #1f77b4"/>
   </g>
   <g id="patch_42">
    <path d="M 138.131102 307.584 
L 138.971407 307.584 
L 138.971407 299.281624 
L 138.131102 299.281624 
z
" clip-path="url(#p3ff81f5167)" style="fill: #1f77b4"/>
   </g>
   <g id="patch_43">
    <path d="M 139.189673 307.584 
L 140.029978 307.584 
L 140.029978 305.245814 
L 139.189673 305.245814 
z
" clip-path="url(#p3ff81f5167)" style="fill: #1f77b4"/>
   </g>
   <g id="patch_44">
    <path d="M 139.202679 307.584 
L 140.042984 307.584 
L 140.042984 306.383465 
L 139.202679 306.383465 
z
" clip-path="url(#p3ff81f5167)" style="fill: #1f77b4"/>
   </g>
   <g id="patch_45">
    <path d="M 139.618795 307.584 
L 140.459099 307.584 
L 140.459099 306.664555 
L 139.618795 306.664555 
z
" clip-path="url(#p3ff81f5167)" style="fill: #1f77b4"/>
   </g>
   <g id="patch_46">
    <path d="M 140.248268 307.584 
L 141.088573 307.584 
L 141.088573 305.551162 
L 140.248268 305.551162 
z
" clip-path="url(#p3ff81f5167)" style="fill: #1f77b4"/>
   </g>
   <g id="patch_47">
    <path d="M 141.293448 307.584 
L 142.133753 307.584 
L 142.133753 306.546917 
L 141.293448 306.546917 
z
" clip-path="url(#p3ff81f5167)" style="fill: #1f77b4"/>
   </g>
   <g id="patch_48">
    <path d="M 142.327313 307.584 
L 143.167618 307.584 
L 143.167618 302.885704 
L 142.327313 302.885704 
z
" clip-path="url(#p3ff81f5167)" style="fill: #1f77b4"/>
   </g>
   <g id="patch_49">
    <path d="M 143.384658 307.584 
L 144.224963 307.584 
L 144.224963 306.731341 
L 143.384658 306.731341 
z
" clip-path="url(#p3ff81f5167)" style="fill: #1f77b4"/>
   </g>
   <g id="patch_50">
    <path d="M 146.523059 307.584 
L 147.363364 307.584 
L 147.363364 305.9362 
L 146.523059 305.9362 
z
" clip-path="url(#p3ff81f5167)" style="fill: #1f77b4"/>
   </g>
   <g id="patch_51">
    <path d="M 148.640401 307.584 
L 149.480706 307.584 
L 149.480706 304.065389 
L 148.640401 304.065389 
z
" clip-path="url(#p3ff81f5167)" style="fill: #1f77b4"/>
   </g>
   <g id="patch_52">
    <path d="M 150.735618 307.584 
L 151.575923 307.584 
L 151.575923 296.015908 
L 150.735618 296.015908 
z
" clip-path="url(#p3ff81f5167)" style="fill: #1f77b4"/>
   </g>
   <g id="patch_53">
    <path d="M 150.748808 307.584 
L 151.589113 307.584 
L 151.589113 305.788229 
L 150.748808 305.788229 
z
" clip-path="url(#p3ff81f5167)" style="fill: #1f77b4"/>
   </g>
   <g id="patch_54">
    <path d="M 150.757896 307.584 
L 151.598201 307.584 
L 151.598201 303.309113 
L 150.757896 303.309113 
z
" clip-path="url(#p3ff81f5167)" style="fill: #1f77b4"/>
   </g>
   <g id="patch_55">
    <path d="M 151.793564 307.584 
L 152.633869 307.584 
L 152.633869 305.169811 
L 151.793564 305.169811 
z
" clip-path="url(#p3ff81f5167)" style="fill: #1f77b4"/>
   </g>
   <g id="patch_56">
    <path d="M 151.807716 307.584 
L 152.648021 307.584 
L 152.648021 305.306025 
L 151.807716 305.306025 
z
" clip-path="url(#p3ff81f5167)" style="fill: #1f77b4"/>
   </g>
   <g id="patch_57">
    <path d="M 152.81447 307.584 
L 153.654775 307.584 
L 153.654775 305.786542 
L 152.81447 305.786542 
z
" clip-path="url(#p3ff81f5167)" style="fill: #1f77b4"/>
   </g>
   <g id="patch_58">
    <path d="M 152.836828 307.584 
L 153.677133 307.584 
L 153.677133 305.234506 
L 152.836828 305.234506 
z
" clip-path="url(#p3ff81f5167)" style="fill: #1f77b4"/>
   </g>
   <g id="patch_59">
    <path d="M 152.85276 307.584 
L 153.693065 307.584 
L 153.693065 272.960924 
L 152.85276 272.960924 
z
" clip-path="url(#p3ff81f5167)" style="fill: #1f77b4"/>
   </g>
   <g id="patch_60">
    <path d="M 153.907436 307.584 
L 154.747741 307.584 
L 154.747741 305.887524 
L 153.907436 305.887524 
z
" clip-path="url(#p3ff81f5167)" style="fill: #1f77b4"/>
   </g>
   <g id="patch_61">
    <path d="M 154.931772 307.584 
L 155.772077 307.584 
L 155.772077 298.677766 
L 154.931772 298.677766 
z
" clip-path="url(#p3ff81f5167)" style="fill: #1f77b4"/>
   </g>
   <g id="patch_62">
    <path d="M 156.014064 307.584 
L 156.854369 307.584 
L 156.854369 306.311493 
L 156.014064 306.311493 
z
" clip-path="url(#p3ff81f5167)" style="fill: #1f77b4"/>
   </g>
   <g id="patch_63">
    <path d="M 157.011025 307.584 
L 157.85133 307.584 
L 157.85133 306.535751 
L 157.011025 306.535751 
z
" clip-path="url(#p3ff81f5167)" style="fill: #1f77b4"/>
   </g>
   <g id="patch_64">
    <path d="M 157.048498 307.584 
L 157.888803 307.584 
L 157.888803 305.703349 
L 157.048498 305.703349 
z
" clip-path="url(#p3ff81f5167)" style="fill: #1f77b4"/>
   </g>
   <g id="patch_65">
    <path d="M 158.069532 307.584 
L 158.909837 307.584 
L 158.909837 306.048668 
L 158.069532 306.048668 
z
" clip-path="url(#p3ff81f5167)" style="fill: #1f77b4"/>
   </g>
   <g id="patch_66">
    <path d="M 159.127927 307.584 
L 159.968232 307.584 
L 159.968232 292.156567 
L 159.127927 292.156567 
z
" clip-path="url(#p3ff81f5167)" style="fill: #1f77b4"/>
   </g>
   <g id="patch_67">
    <path d="M 163.339901 307.584 
L 164.180206 307.584 
L 164.180206 288.626704 
L 163.339901 288.626704 
z
" clip-path="url(#p3ff81f5167)" style="fill: #1f77b4"/>
   </g>
   <g id="patch_68">
    <path d="M 163.350575 307.584 
L 164.19088 307.584 
L 164.19088 305.781494 
L 163.350575 305.781494 
z
" clip-path="url(#p3ff81f5167)" style="fill: #1f77b4"/>
   </g>
   <g id="patch_69">
    <path d="M 163.362019 307.584 
L 164.202324 307.584 
L 164.202324 303.883801 
L 163.362019 303.883801 
z
" clip-path="url(#p3ff81f5167)" style="fill: #1f77b4"/>
   </g>
   <g id="patch_70">
    <path d="M 164.398216 307.584 
L 165.23852 307.584 
L 165.23852 305.480051 
L 164.398216 305.480051 
z
" clip-path="url(#p3ff81f5167)" style="fill: #1f77b4"/>
   </g>
   <g id="patch_71">
    <path d="M 165.446176 307.584 
L 166.286481 307.584 
L 166.286481 306.238337 
L 165.446176 306.238337 
z
" clip-path="url(#p3ff81f5167)" style="fill: #1f77b4"/>
   </g>
   <g id="patch_72">
    <path d="M 165.457396 307.584 
L 166.297701 307.584 
L 166.297701 297.600608 
L 165.457396 297.600608 
z
" clip-path="url(#p3ff81f5167)" style="fill: #1f77b4"/>
   </g>
   <g id="patch_73">
    <path d="M 166.477453 307.584 
L 167.317757 307.584 
L 167.317757 299.363526 
L 166.477453 299.363526 
z
" clip-path="url(#p3ff81f5167)" style="fill: #1f77b4"/>
   </g>
   <g id="patch_74">
    <path d="M 167.536488 307.584 
L 168.376793 307.584 
L 168.376793 297.274219 
L 167.536488 297.274219 
z
" clip-path="url(#p3ff81f5167)" style="fill: #1f77b4"/>
   </g>
   <g id="patch_75">
    <path d="M 167.559071 307.584 
L 168.399376 307.584 
L 168.399376 304.879142 
L 167.559071 304.879142 
z
" clip-path="url(#p3ff81f5167)" style="fill: #1f77b4"/>
   </g>
   <g id="patch_76">
    <path d="M 167.574538 307.584 
L 168.414843 307.584 
L 168.414843 303.838134 
L 167.574538 303.838134 
z
" clip-path="url(#p3ff81f5167)" style="fill: #1f77b4"/>
   </g>
   <g id="patch_77">
    <path d="M 168.592223 307.584 
L 169.432527 307.584 
L 169.432527 306.664076 
L 168.592223 306.664076 
z
" clip-path="url(#p3ff81f5167)" style="fill: #1f77b4"/>
   </g>
   <g id="patch_78">
    <path d="M 169.614924 307.584 
L 170.455229 307.584 
L 170.455229 306.413379 
L 169.614924 306.413379 
z
" clip-path="url(#p3ff81f5167)" style="fill: #1f77b4"/>
   </g>
   <g id="patch_79">
    <path d="M 169.653262 307.584 
L 170.493567 307.584 
L 170.493567 290.003823 
L 169.653262 290.003823 
z
" clip-path="url(#p3ff81f5167)" style="fill: #1f77b4"/>
   </g>
   <g id="patch_80">
    <path d="M 171.732739 307.584 
L 172.573044 307.584 
L 172.573044 306.456001 
L 171.732739 306.456001 
z
" clip-path="url(#p3ff81f5167)" style="fill: #1f77b4"/>
   </g>
   <g id="patch_81">
    <path d="M 173.849449 307.584 
L 174.689753 307.584 
L 174.689753 299.335247 
L 173.849449 299.335247 
z
" clip-path="url(#p3ff81f5167)" style="fill: #1f77b4"/>
   </g>
   <g id="patch_82">
    <path d="M 175.944665 307.584 
L 176.78497 307.584 
L 176.78497 302.599375 
L 175.944665 302.599375 
z
" clip-path="url(#p3ff81f5167)" style="fill: #1f77b4"/>
   </g>
   <g id="patch_83">
    <path d="M 178.023133 307.584 
L 178.863438 307.584 
L 178.863438 305.119702 
L 178.023133 305.119702 
z
" clip-path="url(#p3ff81f5167)" style="fill: #1f77b4"/>
   </g>
   <g id="patch_84">
    <path d="M 178.061647 307.584 
L 178.901952 307.584 
L 178.901952 304.763967 
L 178.061647 304.763967 
z
" clip-path="url(#p3ff81f5167)" style="fill: #1f77b4"/>
   </g>
   <g id="patch_85">
    <path d="M 179.107027 307.584 
L 179.947332 307.584 
L 179.947332 304.670159 
L 179.107027 304.670159 
z
" clip-path="url(#p3ff81f5167)" style="fill: #1f77b4"/>
   </g>
   <g id="patch_86">
    <path d="M 180.140611 307.584 
L 180.980916 307.584 
L 180.980916 287.761956 
L 180.140611 287.761956 
z
" clip-path="url(#p3ff81f5167)" style="fill: #1f77b4"/>
   </g>
   <g id="patch_87">
    <path d="M 180.162826 307.584 
L 181.00313 307.584 
L 181.00313 300.954032 
L 180.162826 300.954032 
z
" clip-path="url(#p3ff81f5167)" style="fill: #1f77b4"/>
   </g>
   <g id="patch_88">
    <path d="M 180.177539 307.584 
L 181.017844 307.584 
L 181.017844 305.548817 
L 180.177539 305.548817 
z
" clip-path="url(#p3ff81f5167)" style="fill: #1f77b4"/>
   </g>
   <g id="patch_89">
    <path d="M 181.199423 307.584 
L 182.039728 307.584 
L 182.039728 301.772138 
L 181.199423 301.772138 
z
" clip-path="url(#p3ff81f5167)" style="fill: #1f77b4"/>
   </g>
   <g id="patch_90">
    <path d="M 181.223625 307.584 
L 182.063929 307.584 
L 182.063929 305.711952 
L 181.223625 305.711952 
z
" clip-path="url(#p3ff81f5167)" style="fill: #1f77b4"/>
   </g>
   <g id="patch_91">
    <path d="M 181.236863 307.584 
L 182.077168 307.584 
L 182.077168 306.321245 
L 181.236863 306.321245 
z
" clip-path="url(#p3ff81f5167)" style="fill: #1f77b4"/>
   </g>
   <g id="patch_92">
    <path d="M 182.257898 307.584 
L 183.098203 307.584 
L 183.098203 284.674558 
L 182.257898 284.674558 
z
" clip-path="url(#p3ff81f5167)" style="fill: #1f77b4"/>
   </g>
   <g id="patch_93">
    <path d="M 182.280609 307.584 
L 183.120914 307.584 
L 183.120914 306.681832 
L 182.280609 306.681832 
z
" clip-path="url(#p3ff81f5167)" style="fill: #1f77b4"/>
   </g>
   <g id="patch_94">
    <path d="M 183.278083 307.584 
L 184.118388 307.584 
L 184.118388 304.999295 
L 183.278083 304.999295 
z
" clip-path="url(#p3ff81f5167)" style="fill: #1f77b4"/>
   </g>
   <g id="patch_95">
    <path d="M 183.302525 307.584 
L 184.14283 307.584 
L 184.14283 306.31381 
L 183.302525 306.31381 
z
" clip-path="url(#p3ff81f5167)" style="fill: #1f77b4"/>
   </g>
   <g id="patch_96">
    <path d="M 183.3157 307.584 
L 184.156004 307.584 
L 184.156004 305.470731 
L 183.3157 305.470731 
z
" clip-path="url(#p3ff81f5167)" style="fill: #1f77b4"/>
   </g>
   <g id="patch_97">
    <path d="M 184.337071 307.584 
L 185.177375 307.584 
L 185.177375 295.155195 
L 184.337071 295.155195 
z
" clip-path="url(#p3ff81f5167)" style="fill: #1f77b4"/>
   </g>
   <g id="patch_98">
    <path d="M 184.374607 307.584 
L 185.214912 307.584 
L 185.214912 304.675807 
L 184.374607 304.675807 
z
" clip-path="url(#p3ff81f5167)" style="fill: #1f77b4"/>
   </g>
   <g id="patch_99">
    <path d="M 186.453588 307.584 
L 187.293893 307.584 
L 187.293893 304.697167 
L 186.453588 304.697167 
z
" clip-path="url(#p3ff81f5167)" style="fill: #1f77b4"/>
   </g>
   <g id="patch_100">
    <path d="M 190.65181 307.584 
L 191.492115 307.584 
L 191.492115 306.389255 
L 190.65181 306.389255 
z
" clip-path="url(#p3ff81f5167)" style="fill: #1f77b4"/>
   </g>
   <g id="patch_101">
    <path d="M 192.745055 307.584 
L 193.58536 307.584 
L 193.58536 297.262398 
L 192.745055 297.262398 
z
" clip-path="url(#p3ff81f5167)" style="fill: #1f77b4"/>
   </g>
   <g id="patch_102">
    <path d="M 192.767926 307.584 
L 193.608231 307.584 
L 193.608231 302.609607 
L 192.767926 302.609607 
z
" clip-path="url(#p3ff81f5167)" style="fill: #1f77b4"/>
   </g>
   <g id="patch_103">
    <path d="M 192.781502 307.584 
L 193.621806 307.584 
L 193.621806 305.782046 
L 192.781502 305.782046 
z
" clip-path="url(#p3ff81f5167)" style="fill: #1f77b4"/>
   </g>
   <g id="patch_104">
    <path d="M 193.828501 307.584 
L 194.668806 307.584 
L 194.668806 304.838059 
L 193.828501 304.838059 
z
" clip-path="url(#p3ff81f5167)" style="fill: #1f77b4"/>
   </g>
   <g id="patch_105">
    <path d="M 194.824292 307.584 
L 195.664597 307.584 
L 195.664597 297.455916 
L 194.824292 297.455916 
z
" clip-path="url(#p3ff81f5167)" style="fill: #1f77b4"/>
   </g>
   <g id="patch_106">
    <path d="M 194.862005 307.584 
L 195.70231 307.584 
L 195.70231 303.625562 
L 194.862005 303.625562 
z
" clip-path="url(#p3ff81f5167)" style="fill: #1f77b4"/>
   </g>
   <g id="patch_107">
    <path d="M 194.88486 307.584 
L 195.725165 307.584 
L 195.725165 303.122381 
L 194.88486 303.122381 
z
" clip-path="url(#p3ff81f5167)" style="fill: #1f77b4"/>
   </g>
   <g id="patch_108">
    <path d="M 195.881212 307.584 
L 196.721517 307.584 
L 196.721517 306.20923 
L 195.881212 306.20923 
z
" clip-path="url(#p3ff81f5167)" style="fill: #1f77b4"/>
   </g>
   <g id="patch_109">
    <path d="M 195.908459 307.584 
L 196.748764 307.584 
L 196.748764 306.321036 
L 195.908459 306.321036 
z
" clip-path="url(#p3ff81f5167)" style="fill: #1f77b4"/>
   </g>
   <g id="patch_110">
    <path d="M 196.94145 307.584 
L 197.781755 307.584 
L 197.781755 298.364441 
L 196.94145 298.364441 
z
" clip-path="url(#p3ff81f5167)" style="fill: #1f77b4"/>
   </g>
   <g id="patch_111">
    <path d="M 196.965876 307.584 
L 197.806181 307.584 
L 197.806181 306.366042 
L 196.965876 306.366042 
z
" clip-path="url(#p3ff81f5167)" style="fill: #1f77b4"/>
   </g>
   <g id="patch_112">
    <path d="M 196.979692 307.584 
L 197.819997 307.584 
L 197.819997 305.199657 
L 196.979692 305.199657 
z
" clip-path="url(#p3ff81f5167)" style="fill: #1f77b4"/>
   </g>
   <g id="patch_113">
    <path d="M 197.997922 307.584 
L 198.838226 307.584 
L 198.838226 306.309276 
L 197.997922 306.309276 
z
" clip-path="url(#p3ff81f5167)" style="fill: #1f77b4"/>
   </g>
   <g id="patch_114">
    <path d="M 198.024816 307.584 
L 198.865121 307.584 
L 198.865121 306.100412 
L 198.024816 306.100412 
z
" clip-path="url(#p3ff81f5167)" style="fill: #1f77b4"/>
   </g>
   <g id="patch_115">
    <path d="M 199.05848 307.584 
L 199.898785 307.584 
L 199.898785 304.52607 
L 199.05848 304.52607 
z
" clip-path="url(#p3ff81f5167)" style="fill: #1f77b4"/>
   </g>
   <g id="patch_116">
    <path d="M 199.096562 307.584 
L 199.936866 307.584 
L 199.936866 306.339677 
L 199.096562 306.339677 
z
" clip-path="url(#p3ff81f5167)" style="fill: #1f77b4"/>
   </g>
   <g id="patch_117">
    <path d="M 200.117836 307.584 
L 200.958141 307.584 
L 200.958141 306.488917 
L 200.117836 306.488917 
z
" clip-path="url(#p3ff81f5167)" style="fill: #1f77b4"/>
   </g>
   <g id="patch_118">
    <path d="M 201.1745 307.584 
L 202.014805 307.584 
L 202.014805 305.110334 
L 201.1745 305.110334 
z
" clip-path="url(#p3ff81f5167)" style="fill: #1f77b4"/>
   </g>
   <g id="patch_119">
    <path d="M 203.254362 307.584 
L 204.094667 307.584 
L 204.094667 305.542644 
L 203.254362 305.542644 
z
" clip-path="url(#p3ff81f5167)" style="fill: #1f77b4"/>
   </g>
   <g id="patch_120">
    <path d="M 204.313991 307.584 
L 205.154296 307.584 
L 205.154296 306.29432 
L 204.313991 306.29432 
z
" clip-path="url(#p3ff81f5167)" style="fill: #1f77b4"/>
   </g>
   <g id="patch_121">
    <path d="M 206.433505 307.584 
L 207.27381 307.584 
L 207.27381 303.044336 
L 206.433505 303.044336 
z
" clip-path="url(#p3ff81f5167)" style="fill: #1f77b4"/>
   </g>
   <g id="patch_122">
    <path d="M 207.491948 307.584 
L 208.332253 307.584 
L 208.332253 298.20324 
L 207.491948 298.20324 
z
" clip-path="url(#p3ff81f5167)" style="fill: #1f77b4"/>
   </g>
   <g id="patch_123">
    <path d="M 208.55068 307.584 
L 209.390984 307.584 
L 209.390984 273.034918 
L 208.55068 273.034918 
z
" clip-path="url(#p3ff81f5167)" style="fill: #1f77b4"/>
   </g>
   <g id="patch_124">
    <path d="M 208.563598 307.584 
L 209.403903 307.584 
L 209.403903 306.761212 
L 208.563598 306.761212 
z
" clip-path="url(#p3ff81f5167)" style="fill: #1f77b4"/>
   </g>
   <g id="patch_125">
    <path d="M 209.54591 307.584 
L 210.386215 307.584 
L 210.386215 303.399774 
L 209.54591 303.399774 
z
" clip-path="url(#p3ff81f5167)" style="fill: #1f77b4"/>
   </g>
   <g id="patch_126">
    <path d="M 209.57024 307.584 
L 210.410544 307.584 
L 210.410544 305.062625 
L 209.57024 305.062625 
z
" clip-path="url(#p3ff81f5167)" style="fill: #1f77b4"/>
   </g>
   <g id="patch_127">
    <path d="M 209.586043 307.584 
L 210.426348 307.584 
L 210.426348 306.228349 
L 209.586043 306.228349 
z
" clip-path="url(#p3ff81f5167)" style="fill: #1f77b4"/>
   </g>
   <g id="patch_128">
    <path d="M 209.605901 307.584 
L 210.446206 307.584 
L 210.446206 304.743544 
L 209.605901 304.743544 
z
" clip-path="url(#p3ff81f5167)" style="fill: #1f77b4"/>
   </g>
   <g id="patch_129">
    <path d="M 210.60408 307.584 
L 211.444385 307.584 
L 211.444385 304.115332 
L 210.60408 304.115332 
z
" clip-path="url(#p3ff81f5167)" style="fill: #1f77b4"/>
   </g>
   <g id="patch_130">
    <path d="M 210.629003 307.584 
L 211.469308 307.584 
L 211.469308 303.228841 
L 210.629003 303.228841 
z
" clip-path="url(#p3ff81f5167)" style="fill: #1f77b4"/>
   </g>
   <g id="patch_131">
    <path d="M 211.663308 307.584 
L 212.503613 307.584 
L 212.503613 288.225548 
L 211.663308 288.225548 
z
" clip-path="url(#p3ff81f5167)" style="fill: #1f77b4"/>
   </g>
   <g id="patch_132">
    <path d="M 212.717392 307.584 
L 213.557696 307.584 
L 213.557696 305.567869 
L 212.717392 305.567869 
z
" clip-path="url(#p3ff81f5167)" style="fill: #1f77b4"/>
   </g>
   <g id="patch_133">
    <path d="M 213.741792 307.584 
L 214.582097 307.584 
L 214.582097 298.070059 
L 213.741792 298.070059 
z
" clip-path="url(#p3ff81f5167)" style="fill: #1f77b4"/>
   </g>
   <g id="patch_134">
    <path d="M 213.780691 307.584 
L 214.620996 307.584 
L 214.620996 303.34089 
L 213.780691 303.34089 
z
" clip-path="url(#p3ff81f5167)" style="fill: #1f77b4"/>
   </g>
   <g id="patch_135">
    <path d="M 215.85911 307.584 
L 216.699415 307.584 
L 216.699415 306.238912 
L 215.85911 306.238912 
z
" clip-path="url(#p3ff81f5167)" style="fill: #1f77b4"/>
   </g>
   <g id="patch_136">
    <path d="M 217.977038 307.584 
L 218.817343 307.584 
L 218.817343 302.223326 
L 217.977038 302.223326 
z
" clip-path="url(#p3ff81f5167)" style="fill: #1f77b4"/>
   </g>
   <g id="patch_137">
    <path d="M 220.056852 307.584 
L 220.897157 307.584 
L 220.897157 306.090034 
L 220.056852 306.090034 
z
" clip-path="url(#p3ff81f5167)" style="fill: #1f77b4"/>
   </g>
   <g id="patch_138">
    <path d="M 221.116865 307.584 
L 221.95717 307.584 
L 221.95717 299.701141 
L 221.116865 299.701141 
z
" clip-path="url(#p3ff81f5167)" style="fill: #1f77b4"/>
   </g>
   <g id="patch_139">
    <path d="M 221.155123 307.584 
L 221.995428 307.584 
L 221.995428 306.289664 
L 221.155123 306.289664 
z
" clip-path="url(#p3ff81f5167)" style="fill: #1f77b4"/>
   </g>
   <g id="patch_140">
    <path d="M 222.150546 307.584 
L 222.99085 307.584 
L 222.99085 292.295184 
L 222.150546 292.295184 
z
" clip-path="url(#p3ff81f5167)" style="fill: #1f77b4"/>
   </g>
   <g id="patch_141">
    <path d="M 222.172471 307.584 
L 223.012776 307.584 
L 223.012776 296.838011 
L 222.172471 296.838011 
z
" clip-path="url(#p3ff81f5167)" style="fill: #1f77b4"/>
   </g>
   <g id="patch_142">
    <path d="M 222.189188 307.584 
L 223.029493 307.584 
L 223.029493 305.566128 
L 222.189188 305.566128 
z
" clip-path="url(#p3ff81f5167)" style="fill: #1f77b4"/>
   </g>
   <g id="patch_143">
    <path d="M 223.205815 307.584 
L 224.04612 307.584 
L 224.04612 306.369939 
L 223.205815 306.369939 
z
" clip-path="url(#p3ff81f5167)" style="fill: #1f77b4"/>
   </g>
   <g id="patch_144">
    <path d="M 223.233046 307.584 
L 224.073351 307.584 
L 224.073351 303.391689 
L 223.233046 303.391689 
z
" clip-path="url(#p3ff81f5167)" style="fill: #1f77b4"/>
   </g>
   <g id="patch_145">
    <path d="M 223.249234 307.584 
L 224.089538 307.584 
L 224.089538 305.192217 
L 223.249234 305.192217 
z
" clip-path="url(#p3ff81f5167)" style="fill: #1f77b4"/>
   </g>
   <g id="patch_146">
    <path d="M 223.272682 307.584 
L 224.112987 307.584 
L 224.112987 305.864543 
L 223.272682 305.864543 
z
" clip-path="url(#p3ff81f5167)" style="fill: #1f77b4"/>
   </g>
   <g id="patch_147">
    <path d="M 224.229526 307.584 
L 225.069831 307.584 
L 225.069831 292.966286 
L 224.229526 292.966286 
z
" clip-path="url(#p3ff81f5167)" style="fill: #1f77b4"/>
   </g>
   <g id="patch_148">
    <path d="M 224.290078 307.584 
L 225.130383 307.584 
L 225.130383 306.429874 
L 224.290078 306.429874 
z
" clip-path="url(#p3ff81f5167)" style="fill: #1f77b4"/>
   </g>
   <g id="patch_149">
    <path d="M 224.306234 307.584 
L 225.146539 307.584 
L 225.146539 304.71582 
L 224.306234 304.71582 
z
" clip-path="url(#p3ff81f5167)" style="fill: #1f77b4"/>
   </g>
   <g id="patch_150">
    <path d="M 225.283497 307.584 
L 226.123802 307.584 
L 226.123802 306.093323 
L 225.283497 306.093323 
z
" clip-path="url(#p3ff81f5167)" style="fill: #1f77b4"/>
   </g>
   <g id="patch_151">
    <path d="M 225.350893 307.584 
L 226.191198 307.584 
L 226.191198 292.963104 
L 225.350893 292.963104 
z
" clip-path="url(#p3ff81f5167)" style="fill: #1f77b4"/>
   </g>
   <g id="patch_152">
    <path d="M 226.368017 307.584 
L 227.208322 307.584 
L 227.208322 303.008643 
L 226.368017 303.008643 
z
" clip-path="url(#p3ff81f5167)" style="fill: #1f77b4"/>
   </g>
   <g id="patch_153">
    <path d="M 226.385391 307.584 
L 227.225696 307.584 
L 227.225696 304.283948 
L 226.385391 304.283948 
z
" clip-path="url(#p3ff81f5167)" style="fill: #1f77b4"/>
   </g>
   <g id="patch_154">
    <path d="M 226.408022 307.584 
L 227.248327 307.584 
L 227.248327 305.113254 
L 226.408022 305.113254 
z
" clip-path="url(#p3ff81f5167)" style="fill: #1f77b4"/>
   </g>
   <g id="patch_155">
    <path d="M 227.405127 307.584 
L 228.245432 307.584 
L 228.245432 304.601353 
L 227.405127 304.601353 
z
" clip-path="url(#p3ff81f5167)" style="fill: #1f77b4"/>
   </g>
   <g id="patch_156">
    <path d="M 227.42795 307.584 
L 228.268255 307.584 
L 228.268255 306.337667 
L 227.42795 306.337667 
z
" clip-path="url(#p3ff81f5167)" style="fill: #1f77b4"/>
   </g>
   <g id="patch_157">
    <path d="M 228.463955 307.584 
L 229.304259 307.584 
L 229.304259 264.517349 
L 228.463955 264.517349 
z
" clip-path="url(#p3ff81f5167)" style="fill: #1f77b4"/>
   </g>
   <g id="patch_158">
    <path d="M 228.483973 307.584 
L 229.324278 307.584 
L 229.324278 305.605976 
L 228.483973 305.605976 
z
" clip-path="url(#p3ff81f5167)" style="fill: #1f77b4"/>
   </g>
   <g id="patch_159">
    <path d="M 229.518118 307.584 
L 230.358423 307.584 
L 230.358423 304.511828 
L 229.518118 304.511828 
z
" clip-path="url(#p3ff81f5167)" style="fill: #1f77b4"/>
   </g>
   <g id="patch_160">
    <path d="M 230.580343 307.584 
L 231.420648 307.584 
L 231.420648 305.57795 
L 230.580343 305.57795 
z
" clip-path="url(#p3ff81f5167)" style="fill: #1f77b4"/>
   </g>
   <g id="patch_161">
    <path d="M 235.83781 307.584 
L 236.678115 307.584 
L 236.678115 300.567021 
L 235.83781 300.567021 
z
" clip-path="url(#p3ff81f5167)" style="fill: #1f77b4"/>
   </g>
   <g id="patch_162">
    <path d="M 236.896926 307.584 
L 237.737231 307.584 
L 237.737231 290.695596 
L 236.896926 290.695596 
z
" clip-path="url(#p3ff81f5167)" style="fill: #1f77b4"/>
   </g>
   <g id="patch_163">
    <path d="M 237.91413 307.584 
L 238.754435 307.584 
L 238.754435 306.173218 
L 237.91413 306.173218 
z
" clip-path="url(#p3ff81f5167)" style="fill: #1f77b4"/>
   </g>
   <g id="patch_164">
    <path d="M 237.920829 307.584 
L 238.761134 307.584 
L 238.761134 305.904837 
L 237.920829 305.904837 
z
" clip-path="url(#p3ff81f5167)" style="fill: #1f77b4"/>
   </g>
   <g id="patch_165">
    <path d="M 237.955866 307.584 
L 238.79617 307.584 
L 238.79617 90.930686 
L 237.955866 90.930686 
z
" clip-path="url(#p3ff81f5167)" style="fill: #1f77b4"/>
   </g>
   <g id="patch_166">
    <path d="M 238.953484 307.584 
L 239.793789 307.584 
L 239.793789 305.865184 
L 238.953484 305.865184 
z
" clip-path="url(#p3ff81f5167)" style="fill: #1f77b4"/>
   </g>
   <g id="patch_167">
    <path d="M 238.975714 307.584 
L 239.816019 307.584 
L 239.816019 304.084161 
L 238.975714 304.084161 
z
" clip-path="url(#p3ff81f5167)" style="fill: #1f77b4"/>
   </g>
   <g id="patch_168">
    <path d="M 239.012866 307.584 
L 239.853171 307.584 
L 239.853171 257.697518 
L 239.012866 257.697518 
z
" clip-path="url(#p3ff81f5167)" style="fill: #1f77b4"/>
   </g>
   <g id="patch_169">
    <path d="M 240.03451 307.584 
L 240.874814 307.584 
L 240.874814 306.031635 
L 240.03451 306.031635 
z
" clip-path="url(#p3ff81f5167)" style="fill: #1f77b4"/>
   </g>
   <g id="patch_170">
    <path d="M 240.07062 307.584 
L 240.910924 307.584 
L 240.910924 303.356926 
L 240.07062 303.356926 
z
" clip-path="url(#p3ff81f5167)" style="fill: #1f77b4"/>
   </g>
   <g id="patch_171">
    <path d="M 241.070161 307.584 
L 241.910466 307.584 
L 241.910466 306.057038 
L 241.070161 306.057038 
z
" clip-path="url(#p3ff81f5167)" style="fill: #1f77b4"/>
   </g>
   <g id="patch_172">
    <path d="M 241.09066 307.584 
L 241.930965 307.584 
L 241.930965 300.191978 
L 241.09066 300.191978 
z
" clip-path="url(#p3ff81f5167)" style="fill: #1f77b4"/>
   </g>
   <g id="patch_173">
    <path d="M 241.10797 307.584 
L 241.948275 307.584 
L 241.948275 306.538616 
L 241.10797 306.538616 
z
" clip-path="url(#p3ff81f5167)" style="fill: #1f77b4"/>
   </g>
   <g id="patch_174">
    <path d="M 242.151588 307.584 
L 242.991892 307.584 
L 242.991892 303.671509 
L 242.151588 303.671509 
z
" clip-path="url(#p3ff81f5167)" style="fill: #1f77b4"/>
   </g>
   <g id="patch_175">
    <path d="M 243.147683 307.584 
L 243.987988 307.584 
L 243.987988 294.964294 
L 243.147683 294.964294 
z
" clip-path="url(#p3ff81f5167)" style="fill: #1f77b4"/>
   </g>
   <g id="patch_176">
    <path d="M 243.185813 307.584 
L 244.026118 307.584 
L 244.026118 298.173366 
L 243.185813 298.173366 
z
" clip-path="url(#p3ff81f5167)" style="fill: #1f77b4"/>
   </g>
   <g id="patch_177">
    <path d="M 243.206729 307.584 
L 244.047034 307.584 
L 244.047034 305.232278 
L 243.206729 305.232278 
z
" clip-path="url(#p3ff81f5167)" style="fill: #1f77b4"/>
   </g>
   <g id="patch_178">
    <path d="M 244.20228 307.584 
L 245.042584 307.584 
L 245.042584 306.304488 
L 244.20228 306.304488 
z
" clip-path="url(#p3ff81f5167)" style="fill: #1f77b4"/>
   </g>
   <g id="patch_179">
    <path d="M 244.269499 307.584 
L 245.109804 307.584 
L 245.109804 305.902455 
L 244.269499 305.902455 
z
" clip-path="url(#p3ff81f5167)" style="fill: #1f77b4"/>
   </g>
   <g id="patch_180">
    <path d="M 245.264152 307.584 
L 246.104457 307.584 
L 246.104457 305.804994 
L 245.264152 305.804994 
z
" clip-path="url(#p3ff81f5167)" style="fill: #1f77b4"/>
   </g>
   <g id="patch_181">
    <path d="M 245.302939 307.584 
L 246.143244 307.584 
L 246.143244 305.933163 
L 245.302939 305.933163 
z
" clip-path="url(#p3ff81f5167)" style="fill: #1f77b4"/>
   </g>
   <g id="patch_182">
    <path d="M 247.38232 307.584 
L 248.222625 307.584 
L 248.222625 304.247282 
L 247.38232 304.247282 
z
" clip-path="url(#p3ff81f5167)" style="fill: #1f77b4"/>
   </g>
   <g id="patch_183">
    <path d="M 250.523526 307.584 
L 251.363831 307.584 
L 251.363831 306.322994 
L 250.523526 306.322994 
z
" clip-path="url(#p3ff81f5167)" style="fill: #1f77b4"/>
   </g>
   <g id="patch_184">
    <path d="M 252.638761 307.584 
L 253.479066 307.584 
L 253.479066 293.825715 
L 252.638761 293.825715 
z
" clip-path="url(#p3ff81f5167)" style="fill: #1f77b4"/>
   </g>
   <g id="patch_185">
    <path d="M 252.655045 307.584 
L 253.49535 307.584 
L 253.49535 300.509944 
L 252.655045 300.509944 
z
" clip-path="url(#p3ff81f5167)" style="fill: #1f77b4"/>
   </g>
   <g id="patch_186">
    <path d="M 253.712221 307.584 
L 254.552526 307.584 
L 254.552526 273.929178 
L 253.712221 273.929178 
z
" clip-path="url(#p3ff81f5167)" style="fill: #1f77b4"/>
   </g>
   <g id="patch_187">
    <path d="M 254.756223 307.584 
L 255.596528 307.584 
L 255.596528 283.107247 
L 254.756223 283.107247 
z
" clip-path="url(#p3ff81f5167)" style="fill: #1f77b4"/>
   </g>
   <g id="patch_188">
    <path d="M 255.793173 307.584 
L 256.633478 307.584 
L 256.633478 297.866954 
L 255.793173 297.866954 
z
" clip-path="url(#p3ff81f5167)" style="fill: #1f77b4"/>
   </g>
   <g id="patch_189">
    <path d="M 255.815051 307.584 
L 256.655356 307.584 
L 256.655356 54.144 
L 255.815051 54.144 
z
" clip-path="url(#p3ff81f5167)" style="fill: #1f77b4"/>
   </g>
   <g id="patch_190">
    <path d="M 256.848122 307.584 
L 257.688427 307.584 
L 257.688427 305.579732 
L 256.848122 305.579732 
z
" clip-path="url(#p3ff81f5167)" style="fill: #1f77b4"/>
   </g>
   <g id="patch_191">
    <path d="M 256.869455 307.584 
L 257.70976 307.584 
L 257.70976 278.647331 
L 256.869455 278.647331 
z
" clip-path="url(#p3ff81f5167)" style="fill: #1f77b4"/>
   </g>
   <g id="patch_192">
    <path d="M 257.869237 307.584 
L 258.709542 307.584 
L 258.709542 205.840126 
L 257.869237 205.840126 
z
" clip-path="url(#p3ff81f5167)" style="fill: #1f77b4"/>
   </g>
   <g id="patch_193">
    <path d="M 257.888855 307.584 
L 258.729159 307.584 
L 258.729159 305.488005 
L 257.888855 305.488005 
z
" clip-path="url(#p3ff81f5167)" style="fill: #1f77b4"/>
   </g>
   <g id="patch_194">
    <path d="M 258.922968 307.584 
L 259.763272 307.584 
L 259.763272 297.664863 
L 258.922968 297.664863 
z
" clip-path="url(#p3ff81f5167)" style="fill: #1f77b4"/>
   </g>
   <g id="patch_195">
    <path d="M 260.011029 307.584 
L 260.851334 307.584 
L 260.851334 301.154542 
L 260.011029 301.154542 
z
" clip-path="url(#p3ff81f5167)" style="fill: #1f77b4"/>
   </g>
   <g id="patch_196">
    <path d="M 265.243525 307.584 
L 266.08383 307.584 
L 266.08383 306.026088 
L 265.243525 306.026088 
z
" clip-path="url(#p3ff81f5167)" style="fill: #1f77b4"/>
   </g>
   <g id="patch_197">
    <path d="M 268.356923 307.584 
L 269.197228 307.584 
L 269.197228 268.635837 
L 268.356923 268.635837 
z
" clip-path="url(#p3ff81f5167)" style="fill: #1f77b4"/>
   </g>
   <g id="patch_198">
    <path d="M 268.381637 307.584 
L 269.221942 307.584 
L 269.221942 302.693023 
L 268.381637 302.693023 
z
" clip-path="url(#p3ff81f5167)" style="fill: #1f77b4"/>
   </g>
   <g id="patch_199">
    <path d="M 269.409916 307.584 
L 270.250221 307.584 
L 270.250221 303.011093 
L 269.409916 303.011093 
z
" clip-path="url(#p3ff81f5167)" style="fill: #1f77b4"/>
   </g>
   <g id="patch_200">
    <path d="M 269.478354 307.584 
L 270.318659 307.584 
L 270.318659 299.743017 
L 269.478354 299.743017 
z
" clip-path="url(#p3ff81f5167)" style="fill: #1f77b4"/>
   </g>
   <g id="patch_201">
    <path d="M 270.488025 307.584 
L 271.32833 307.584 
L 271.32833 305.189262 
L 270.488025 305.189262 
z
" clip-path="url(#p3ff81f5167)" style="fill: #1f77b4"/>
   </g>
   <g id="patch_202">
    <path d="M 270.511762 307.584 
L 271.352067 307.584 
L 271.352067 304.755565 
L 270.511762 304.755565 
z
" clip-path="url(#p3ff81f5167)" style="fill: #1f77b4"/>
   </g>
   <g id="patch_203">
    <path d="M 270.536685 307.584 
L 271.37699 307.584 
L 271.37699 301.653641 
L 270.536685 301.653641 
z
" clip-path="url(#p3ff81f5167)" style="fill: #1f77b4"/>
   </g>
   <g id="patch_204">
    <path d="M 271.557848 307.584 
L 272.398152 307.584 
L 272.398152 303.146285 
L 271.557848 303.146285 
z
" clip-path="url(#p3ff81f5167)" style="fill: #1f77b4"/>
   </g>
   <g id="patch_205">
    <path d="M 272.590983 307.584 
L 273.431288 307.584 
L 273.431288 305.593113 
L 272.590983 305.593113 
z
" clip-path="url(#p3ff81f5167)" style="fill: #1f77b4"/>
   </g>
   <g id="patch_206">
    <path d="M 273.674749 307.584 
L 274.515054 307.584 
L 274.515054 306.401432 
L 273.674749 306.401432 
z
" clip-path="url(#p3ff81f5167)" style="fill: #1f77b4"/>
   </g>
   <g id="patch_207">
    <path d="M 274.707436 307.584 
L 275.547741 307.584 
L 275.547741 305.270841 
L 274.707436 305.270841 
z
" clip-path="url(#p3ff81f5167)" style="fill: #1f77b4"/>
   </g>
   <g id="patch_208">
    <path d="M 282.044235 307.584 
L 282.88454 307.584 
L 282.88454 303.994474 
L 282.044235 303.994474 
z
" clip-path="url(#p3ff81f5167)" style="fill: #1f77b4"/>
   </g>
   <g id="patch_209">
    <path d="M 283.102438 307.584 
L 283.942743 307.584 
L 283.942743 304.765543 
L 283.102438 304.765543 
z
" clip-path="url(#p3ff81f5167)" style="fill: #1f77b4"/>
   </g>
   <g id="patch_210">
    <path d="M 284.162083 307.584 
L 285.002388 307.584 
L 285.002388 304.835706 
L 284.162083 304.835706 
z
" clip-path="url(#p3ff81f5167)" style="fill: #1f77b4"/>
   </g>
   <g id="patch_211">
    <path d="M 285.234085 307.584 
L 286.07439 307.584 
L 286.07439 298.098739 
L 285.234085 298.098739 
z
" clip-path="url(#p3ff81f5167)" style="fill: #1f77b4"/>
   </g>
   <g id="patch_212">
    <path d="M 286.28078 307.584 
L 287.121084 307.584 
L 287.121084 304.587119 
L 286.28078 304.587119 
z
" clip-path="url(#p3ff81f5167)" style="fill: #1f77b4"/>
   </g>
   <g id="patch_213">
    <path d="M 287.273686 307.584 
L 288.113991 307.584 
L 288.113991 306.239149 
L 287.273686 306.239149 
z
" clip-path="url(#p3ff81f5167)" style="fill: #1f77b4"/>
   </g>
   <g id="patch_214">
    <path d="M 287.297951 307.584 
L 288.138256 307.584 
L 288.138256 302.462407 
L 287.297951 302.462407 
z
" clip-path="url(#p3ff81f5167)" style="fill: #1f77b4"/>
   </g>
   <g id="patch_215">
    <path d="M 288.396479 307.584 
L 289.236784 307.584 
L 289.236784 302.465468 
L 288.396479 302.465468 
z
" clip-path="url(#p3ff81f5167)" style="fill: #1f77b4"/>
   </g>
   <g id="patch_216">
    <path d="M 298.882787 307.584 
L 299.723092 307.584 
L 299.723092 305.356654 
L 298.882787 305.356654 
z
" clip-path="url(#p3ff81f5167)" style="fill: #1f77b4"/>
   </g>
   <g id="patch_217">
    <path d="M 299.941695 307.584 
L 300.781999 307.584 
L 300.781999 303.121173 
L 299.941695 303.121173 
z
" clip-path="url(#p3ff81f5167)" style="fill: #1f77b4"/>
   </g>
   <g id="patch_218">
    <path d="M 300.963995 307.584 
L 301.8043 307.584 
L 301.8043 305.513531 
L 300.963995 305.513531 
z
" clip-path="url(#p3ff81f5167)" style="fill: #1f77b4"/>
   </g>
   <g id="patch_219">
    <path d="M 301.99572 307.584 
L 302.836025 307.584 
L 302.836025 145.465388 
L 301.99572 145.465388 
z
" clip-path="url(#p3ff81f5167)" style="fill: #1f77b4"/>
   </g>
   <g id="patch_220">
    <path d="M 302.021685 307.584 
L 302.86199 307.584 
L 302.86199 290.290727 
L 302.021685 290.290727 
z
" clip-path="url(#p3ff81f5167)" style="fill: #1f77b4"/>
   </g>
   <g id="patch_221">
    <path d="M 303.049339 307.584 
L 303.889643 307.584 
L 303.889643 291.530028 
L 303.049339 291.530028 
z
" clip-path="url(#p3ff81f5167)" style="fill: #1f77b4"/>
   </g>
   <g id="patch_222">
    <path d="M 303.075656 307.584 
L 303.915961 307.584 
L 303.915961 306.13986 
L 303.075656 306.13986 
z
" clip-path="url(#p3ff81f5167)" style="fill: #1f77b4"/>
   </g>
   <g id="patch_223">
    <path d="M 315.684299 307.584 
L 316.524603 307.584 
L 316.524603 299.490589 
L 315.684299 299.490589 
z
" clip-path="url(#p3ff81f5167)" style="fill: #1f77b4"/>
   </g>
   <g id="patch_224">
    <path d="M 316.741572 307.584 
L 317.581876 307.584 
L 317.581876 302.875246 
L 316.741572 302.875246 
z
" clip-path="url(#p3ff81f5167)" style="fill: #1f77b4"/>
   </g>
   <g id="patch_225">
    <path d="M 317.800768 307.584 
L 318.641072 307.584 
L 318.641072 296.870866 
L 317.800768 296.870866 
z
" clip-path="url(#p3ff81f5167)" style="fill: #1f77b4"/>
   </g>
   <g id="patch_226">
    <path d="M 327.231021 307.584 
L 328.071325 307.584 
L 328.071325 306.384218 
L 327.231021 306.384218 
z
" clip-path="url(#p3ff81f5167)" style="fill: #1f77b4"/>
   </g>
   <g id="patch_227">
    <path d="M 328.342915 307.584 
L 329.18322 307.584 
L 329.18322 305.975016 
L 328.342915 305.975016 
z
" clip-path="url(#p3ff81f5167)" style="fill: #1f77b4"/>
   </g>
   <g id="patch_228">
    <path d="M 330.40566 307.584 
L 331.245965 307.584 
L 331.245965 306.48995 
L 330.40566 306.48995 
z
" clip-path="url(#p3ff81f5167)" style="fill: #1f77b4"/>
   </g>
   <g id="patch_229">
    <path d="M 334.601831 307.584 
L 335.442136 307.584 
L 335.442136 292.720076 
L 334.601831 292.720076 
z
" clip-path="url(#p3ff81f5167)" style="fill: #1f77b4"/>
   </g>
   <g id="patch_230">
    <path d="M 335.635896 307.584 
L 336.4762 307.584 
L 336.4762 304.135792 
L 335.635896 304.135792 
z
" clip-path="url(#p3ff81f5167)" style="fill: #1f77b4"/>
   </g>
   <g id="patch_231">
    <path d="M 364.007946 307.584 
L 364.848251 307.584 
L 364.848251 300.084864 
L 364.007946 300.084864 
z
" clip-path="url(#p3ff81f5167)" style="fill: #1f77b4"/>
   </g>
   <g id="patch_232">
    <path d="M 378.72825 307.584 
L 379.568555 307.584 
L 379.568555 305.700178 
L 378.72825 305.700178 
z
" clip-path="url(#p3ff81f5167)" style="fill: #1f77b4"/>
   </g>
   <g id="patch_233">
    <path d="M 397.646968 307.584 
L 398.487273 307.584 
L 398.487273 305.518751 
L 397.646968 305.518751 
z
" clip-path="url(#p3ff81f5167)" style="fill: #1f77b4"/>
   </g>
   <g id="matplotlib.axis_1">
    <g id="xtick_1">
     <g id="line2d_1">
      <defs>
       <path id="m37d2daf7d5" d="M 0 0 
L 0 3.5 
" style="stroke: #000000; stroke-width: 0.8"/>
      </defs>
      <g>
       <use xlink:href="#m37d2daf7d5" x="69.17398" y="307.584" style="stroke: #000000; stroke-width: 0.8"/>
      </g>
     </g>
     <g id="text_1">
      <!-- 50 -->
      <g transform="translate(62.81148 322.182437) scale(0.1 -0.1)">
       <defs>
        <path id="DejaVuSans-35" d="M 691 4666 
L 3169 4666 
L 3169 4134 
L 1269 4134 
L 1269 2991 
Q 1406 3038 1543 3061 
Q 1681 3084 1819 3084 
Q 2600 3084 3056 2656 
Q 3513 2228 3513 1497 
Q 3513 744 3044 326 
Q 2575 -91 1722 -91 
Q 1428 -91 1123 -41 
Q 819 9 494 109 
L 494 744 
Q 775 591 1075 516 
Q 1375 441 1709 441 
Q 2250 441 2565 725 
Q 2881 1009 2881 1497 
Q 2881 1984 2565 2268 
Q 2250 2553 1709 2553 
Q 1456 2553 1204 2497 
Q 953 2441 691 2322 
L 691 4666 
z
" transform="scale(0.015625)"/>
        <path id="DejaVuSans-30" d="M 2034 4250 
Q 1547 4250 1301 3770 
Q 1056 3291 1056 2328 
Q 1056 1369 1301 889 
Q 1547 409 2034 409 
Q 2525 409 2770 889 
Q 3016 1369 3016 2328 
Q 3016 3291 2770 3770 
Q 2525 4250 2034 4250 
z
M 2034 4750 
Q 2819 4750 3233 4129 
Q 3647 3509 3647 2328 
Q 3647 1150 3233 529 
Q 2819 -91 2034 -91 
Q 1250 -91 836 529 
Q 422 1150 422 2328 
Q 422 3509 836 4129 
Q 1250 4750 2034 4750 
z
" transform="scale(0.015625)"/>
       </defs>
       <use xlink:href="#DejaVuSans-35"/>
       <use xlink:href="#DejaVuSans-30" x="63.623047"/>
      </g>
     </g>
    </g>
    <g id="xtick_2">
     <g id="line2d_2">
      <g>
       <use xlink:href="#m37d2daf7d5" x="121.693029" y="307.584" style="stroke: #000000; stroke-width: 0.8"/>
      </g>
     </g>
     <g id="text_2">
      <!-- 100 -->
      <g transform="translate(112.149279 322.182437) scale(0.1 -0.1)">
       <defs>
        <path id="DejaVuSans-31" d="M 794 531 
L 1825 531 
L 1825 4091 
L 703 3866 
L 703 4441 
L 1819 4666 
L 2450 4666 
L 2450 531 
L 3481 531 
L 3481 0 
L 794 0 
L 794 531 
z
" transform="scale(0.015625)"/>
       </defs>
       <use xlink:href="#DejaVuSans-31"/>
       <use xlink:href="#DejaVuSans-30" x="63.623047"/>
       <use xlink:href="#DejaVuSans-30" x="127.246094"/>
      </g>
     </g>
    </g>
    <g id="xtick_3">
     <g id="line2d_3">
      <g>
       <use xlink:href="#m37d2daf7d5" x="174.212078" y="307.584" style="stroke: #000000; stroke-width: 0.8"/>
      </g>
     </g>
     <g id="text_3">
      <!-- 150 -->
      <g transform="translate(164.668328 322.182437) scale(0.1 -0.1)">
       <use xlink:href="#DejaVuSans-31"/>
       <use xlink:href="#DejaVuSans-35" x="63.623047"/>
       <use xlink:href="#DejaVuSans-30" x="127.246094"/>
      </g>
     </g>
    </g>
    <g id="xtick_4">
     <g id="line2d_4">
      <g>
       <use xlink:href="#m37d2daf7d5" x="226.731127" y="307.584" style="stroke: #000000; stroke-width: 0.8"/>
      </g>
     </g>
     <g id="text_4">
      <!-- 200 -->
      <g transform="translate(217.187377 322.182437) scale(0.1 -0.1)">
       <defs>
        <path id="DejaVuSans-32" d="M 1228 531 
L 3431 531 
L 3431 0 
L 469 0 
L 469 531 
Q 828 903 1448 1529 
Q 2069 2156 2228 2338 
Q 2531 2678 2651 2914 
Q 2772 3150 2772 3378 
Q 2772 3750 2511 3984 
Q 2250 4219 1831 4219 
Q 1534 4219 1204 4116 
Q 875 4013 500 3803 
L 500 4441 
Q 881 4594 1212 4672 
Q 1544 4750 1819 4750 
Q 2544 4750 2975 4387 
Q 3406 4025 3406 3419 
Q 3406 3131 3298 2873 
Q 3191 2616 2906 2266 
Q 2828 2175 2409 1742 
Q 1991 1309 1228 531 
z
" transform="scale(0.015625)"/>
       </defs>
       <use xlink:href="#DejaVuSans-32"/>
       <use xlink:href="#DejaVuSans-30" x="63.623047"/>
       <use xlink:href="#DejaVuSans-30" x="127.246094"/>
      </g>
     </g>
    </g>
    <g id="xtick_5">
     <g id="line2d_5">
      <g>
       <use xlink:href="#m37d2daf7d5" x="279.250176" y="307.584" style="stroke: #000000; stroke-width: 0.8"/>
      </g>
     </g>
     <g id="text_5">
      <!-- 250 -->
      <g transform="translate(269.706426 322.182437) scale(0.1 -0.1)">
       <use xlink:href="#DejaVuSans-32"/>
       <use xlink:href="#DejaVuSans-35" x="63.623047"/>
       <use xlink:href="#DejaVuSans-30" x="127.246094"/>
      </g>
     </g>
    </g>
    <g id="xtick_6">
     <g id="line2d_6">
      <g>
       <use xlink:href="#m37d2daf7d5" x="331.769226" y="307.584" style="stroke: #000000; stroke-width: 0.8"/>
      </g>
     </g>
     <g id="text_6">
      <!-- 300 -->
      <g transform="translate(322.225476 322.182437) scale(0.1 -0.1)">
       <defs>
        <path id="DejaVuSans-33" d="M 2597 2516 
Q 3050 2419 3304 2112 
Q 3559 1806 3559 1356 
Q 3559 666 3084 287 
Q 2609 -91 1734 -91 
Q 1441 -91 1130 -33 
Q 819 25 488 141 
L 488 750 
Q 750 597 1062 519 
Q 1375 441 1716 441 
Q 2309 441 2620 675 
Q 2931 909 2931 1356 
Q 2931 1769 2642 2001 
Q 2353 2234 1838 2234 
L 1294 2234 
L 1294 2753 
L 1863 2753 
Q 2328 2753 2575 2939 
Q 2822 3125 2822 3475 
Q 2822 3834 2567 4026 
Q 2313 4219 1838 4219 
Q 1578 4219 1281 4162 
Q 984 4106 628 3988 
L 628 4550 
Q 988 4650 1302 4700 
Q 1616 4750 1894 4750 
Q 2613 4750 3031 4423 
Q 3450 4097 3450 3541 
Q 3450 3153 3228 2886 
Q 3006 2619 2597 2516 
z
" transform="scale(0.015625)"/>
       </defs>
       <use xlink:href="#DejaVuSans-33"/>
       <use xlink:href="#DejaVuSans-30" x="63.623047"/>
       <use xlink:href="#DejaVuSans-30" x="127.246094"/>
      </g>
     </g>
    </g>
    <g id="xtick_7">
     <g id="line2d_7">
      <g>
       <use xlink:href="#m37d2daf7d5" x="384.288275" y="307.584" style="stroke: #000000; stroke-width: 0.8"/>
      </g>
     </g>
     <g id="text_7">
      <!-- 350 -->
      <g transform="translate(374.744525 322.182437) scale(0.1 -0.1)">
       <use xlink:href="#DejaVuSans-33"/>
       <use xlink:href="#DejaVuSans-35" x="63.623047"/>
       <use xlink:href="#DejaVuSans-30" x="127.246094"/>
      </g>
     </g>
    </g>
    <g id="text_8">
     <!-- ${m/z}$ -->
     <g transform="translate(226.96 335.860562) scale(0.1 -0.1)">
      <defs>
       <path id="DejaVuSans-Oblique-6d" d="M 5747 2113 
L 5338 0 
L 4763 0 
L 5166 2094 
Q 5191 2228 5203 2325 
Q 5216 2422 5216 2491 
Q 5216 2772 5059 2928 
Q 4903 3084 4622 3084 
Q 4203 3084 3875 2770 
Q 3547 2456 3450 1953 
L 3066 0 
L 2491 0 
L 2900 2094 
Q 2925 2209 2937 2307 
Q 2950 2406 2950 2484 
Q 2950 2769 2794 2926 
Q 2638 3084 2363 3084 
Q 1938 3084 1609 2770 
Q 1281 2456 1184 1953 
L 800 0 
L 225 0 
L 909 3500 
L 1484 3500 
L 1375 2956 
Q 1609 3263 1923 3423 
Q 2238 3584 2597 3584 
Q 2978 3584 3223 3384 
Q 3469 3184 3519 2828 
Q 3781 3197 4126 3390 
Q 4472 3584 4856 3584 
Q 5306 3584 5551 3325 
Q 5797 3066 5797 2591 
Q 5797 2488 5784 2364 
Q 5772 2241 5747 2113 
z
" transform="scale(0.015625)"/>
       <path id="DejaVuSans-2f" d="M 1625 4666 
L 2156 4666 
L 531 -594 
L 0 -594 
L 1625 4666 
z
" transform="scale(0.015625)"/>
       <path id="DejaVuSans-Oblique-7a" d="M 744 3500 
L 3475 3500 
L 3372 2975 
L 738 459 
L 2913 459 
L 2822 0 
L -19 0 
L 84 525 
L 2719 3041 
L 653 3041 
L 744 3500 
z
" transform="scale(0.015625)"/>
      </defs>
      <use xlink:href="#DejaVuSans-Oblique-6d" transform="translate(0 0.09375)"/>
      <use xlink:href="#DejaVuSans-2f" transform="translate(97.412109 0.09375)"/>
      <use xlink:href="#DejaVuSans-Oblique-7a" transform="translate(131.103516 0.09375)"/>
     </g>
    </g>
   </g>
   <g id="matplotlib.axis_2">
    <g id="ytick_1">
     <g id="line2d_8">
      <defs>
       <path id="mb8eba72b33" d="M 0 0 
L -3.5 0 
" style="stroke: #000000; stroke-width: 0.8"/>
      </defs>
      <g>
       <use xlink:href="#mb8eba72b33" x="57.6" y="307.584" style="stroke: #000000; stroke-width: 0.8"/>
      </g>
     </g>
     <g id="text_9">
      <!-- 0.0 -->
      <g transform="translate(34.696875 311.383219) scale(0.1 -0.1)">
       <defs>
        <path id="DejaVuSans-2e" d="M 684 794 
L 1344 794 
L 1344 0 
L 684 0 
L 684 794 
z
" transform="scale(0.015625)"/>
       </defs>
       <use xlink:href="#DejaVuSans-30"/>
       <use xlink:href="#DejaVuSans-2e" x="63.623047"/>
       <use xlink:href="#DejaVuSans-30" x="95.410156"/>
      </g>
     </g>
    </g>
    <g id="ytick_2">
     <g id="line2d_9">
      <g>
       <use xlink:href="#mb8eba72b33" x="57.6" y="263.558357" style="stroke: #000000; stroke-width: 0.8"/>
      </g>
     </g>
     <g id="text_10">
      <!-- 0.2 -->
      <g transform="translate(34.696875 267.357575) scale(0.1 -0.1)">
       <use xlink:href="#DejaVuSans-30"/>
       <use xlink:href="#DejaVuSans-2e" x="63.623047"/>
       <use xlink:href="#DejaVuSans-32" x="95.410156"/>
      </g>
     </g>
    </g>
    <g id="ytick_3">
     <g id="line2d_10">
      <g>
       <use xlink:href="#mb8eba72b33" x="57.6" y="219.532713" style="stroke: #000000; stroke-width: 0.8"/>
      </g>
     </g>
     <g id="text_11">
      <!-- 0.4 -->
      <g transform="translate(34.696875 223.331932) scale(0.1 -0.1)">
       <defs>
        <path id="DejaVuSans-34" d="M 2419 4116 
L 825 1625 
L 2419 1625 
L 2419 4116 
z
M 2253 4666 
L 3047 4666 
L 3047 1625 
L 3713 1625 
L 3713 1100 
L 3047 1100 
L 3047 0 
L 2419 0 
L 2419 1100 
L 313 1100 
L 313 1709 
L 2253 4666 
z
" transform="scale(0.015625)"/>
       </defs>
       <use xlink:href="#DejaVuSans-30"/>
       <use xlink:href="#DejaVuSans-2e" x="63.623047"/>
       <use xlink:href="#DejaVuSans-34" x="95.410156"/>
      </g>
     </g>
    </g>
    <g id="ytick_4">
     <g id="line2d_11">
      <g>
       <use xlink:href="#mb8eba72b33" x="57.6" y="175.50707" style="stroke: #000000; stroke-width: 0.8"/>
      </g>
     </g>
     <g id="text_12">
      <!-- 0.6 -->
      <g transform="translate(34.696875 179.306289) scale(0.1 -0.1)">
       <defs>
        <path id="DejaVuSans-36" d="M 2113 2584 
Q 1688 2584 1439 2293 
Q 1191 2003 1191 1497 
Q 1191 994 1439 701 
Q 1688 409 2113 409 
Q 2538 409 2786 701 
Q 3034 994 3034 1497 
Q 3034 2003 2786 2293 
Q 2538 2584 2113 2584 
z
M 3366 4563 
L 3366 3988 
Q 3128 4100 2886 4159 
Q 2644 4219 2406 4219 
Q 1781 4219 1451 3797 
Q 1122 3375 1075 2522 
Q 1259 2794 1537 2939 
Q 1816 3084 2150 3084 
Q 2853 3084 3261 2657 
Q 3669 2231 3669 1497 
Q 3669 778 3244 343 
Q 2819 -91 2113 -91 
Q 1303 -91 875 529 
Q 447 1150 447 2328 
Q 447 3434 972 4092 
Q 1497 4750 2381 4750 
Q 2619 4750 2861 4703 
Q 3103 4656 3366 4563 
z
" transform="scale(0.015625)"/>
       </defs>
       <use xlink:href="#DejaVuSans-30"/>
       <use xlink:href="#DejaVuSans-2e" x="63.623047"/>
       <use xlink:href="#DejaVuSans-36" x="95.410156"/>
      </g>
     </g>
    </g>
    <g id="ytick_5">
     <g id="line2d_12">
      <g>
       <use xlink:href="#mb8eba72b33" x="57.6" y="131.481426" style="stroke: #000000; stroke-width: 0.8"/>
      </g>
     </g>
     <g id="text_13">
      <!-- 0.8 -->
      <g transform="translate(34.696875 135.280645) scale(0.1 -0.1)">
       <defs>
        <path id="DejaVuSans-38" d="M 2034 2216 
Q 1584 2216 1326 1975 
Q 1069 1734 1069 1313 
Q 1069 891 1326 650 
Q 1584 409 2034 409 
Q 2484 409 2743 651 
Q 3003 894 3003 1313 
Q 3003 1734 2745 1975 
Q 2488 2216 2034 2216 
z
M 1403 2484 
Q 997 2584 770 2862 
Q 544 3141 544 3541 
Q 544 4100 942 4425 
Q 1341 4750 2034 4750 
Q 2731 4750 3128 4425 
Q 3525 4100 3525 3541 
Q 3525 3141 3298 2862 
Q 3072 2584 2669 2484 
Q 3125 2378 3379 2068 
Q 3634 1759 3634 1313 
Q 3634 634 3220 271 
Q 2806 -91 2034 -91 
Q 1263 -91 848 271 
Q 434 634 434 1313 
Q 434 1759 690 2068 
Q 947 2378 1403 2484 
z
M 1172 3481 
Q 1172 3119 1398 2916 
Q 1625 2713 2034 2713 
Q 2441 2713 2670 2916 
Q 2900 3119 2900 3481 
Q 2900 3844 2670 4047 
Q 2441 4250 2034 4250 
Q 1625 4250 1398 4047 
Q 1172 3844 1172 3481 
z
" transform="scale(0.015625)"/>
       </defs>
       <use xlink:href="#DejaVuSans-30"/>
       <use xlink:href="#DejaVuSans-2e" x="63.623047"/>
       <use xlink:href="#DejaVuSans-38" x="95.410156"/>
      </g>
     </g>
    </g>
    <g id="ytick_6">
     <g id="line2d_13">
      <g>
       <use xlink:href="#mb8eba72b33" x="57.6" y="87.455783" style="stroke: #000000; stroke-width: 0.8"/>
      </g>
     </g>
     <g id="text_14">
      <!-- 1.0 -->
      <g transform="translate(34.696875 91.255002) scale(0.1 -0.1)">
       <use xlink:href="#DejaVuSans-31"/>
       <use xlink:href="#DejaVuSans-2e" x="63.623047"/>
       <use xlink:href="#DejaVuSans-30" x="95.410156"/>
      </g>
     </g>
    </g>
    <g id="ytick_7">
     <g id="line2d_14">
      <g>
       <use xlink:href="#mb8eba72b33" x="57.6" y="43.43014" style="stroke: #000000; stroke-width: 0.8"/>
      </g>
     </g>
     <g id="text_15">
      <!-- 1.2 -->
      <g transform="translate(34.696875 47.229358) scale(0.1 -0.1)">
       <use xlink:href="#DejaVuSans-31"/>
       <use xlink:href="#DejaVuSans-2e" x="63.623047"/>
       <use xlink:href="#DejaVuSans-32" x="95.410156"/>
      </g>
     </g>
    </g>
    <g id="text_16">
     <!-- intensities -->
     <g transform="translate(28.617187 200.3155) rotate(-90) scale(0.1 -0.1)">
      <defs>
       <path id="DejaVuSans-69" d="M 603 3500 
L 1178 3500 
L 1178 0 
L 603 0 
L 603 3500 
z
M 603 4863 
L 1178 4863 
L 1178 4134 
L 603 4134 
L 603 4863 
z
" transform="scale(0.015625)"/>
       <path id="DejaVuSans-6e" d="M 3513 2113 
L 3513 0 
L 2938 0 
L 2938 2094 
Q 2938 2591 2744 2837 
Q 2550 3084 2163 3084 
Q 1697 3084 1428 2787 
Q 1159 2491 1159 1978 
L 1159 0 
L 581 0 
L 581 3500 
L 1159 3500 
L 1159 2956 
Q 1366 3272 1645 3428 
Q 1925 3584 2291 3584 
Q 2894 3584 3203 3211 
Q 3513 2838 3513 2113 
z
" transform="scale(0.015625)"/>
       <path id="DejaVuSans-74" d="M 1172 4494 
L 1172 3500 
L 2356 3500 
L 2356 3053 
L 1172 3053 
L 1172 1153 
Q 1172 725 1289 603 
Q 1406 481 1766 481 
L 2356 481 
L 2356 0 
L 1766 0 
Q 1100 0 847 248 
Q 594 497 594 1153 
L 594 3053 
L 172 3053 
L 172 3500 
L 594 3500 
L 594 4494 
L 1172 4494 
z
" transform="scale(0.015625)"/>
       <path id="DejaVuSans-65" d="M 3597 1894 
L 3597 1613 
L 953 1613 
Q 991 1019 1311 708 
Q 1631 397 2203 397 
Q 2534 397 2845 478 
Q 3156 559 3463 722 
L 3463 178 
Q 3153 47 2828 -22 
Q 2503 -91 2169 -91 
Q 1331 -91 842 396 
Q 353 884 353 1716 
Q 353 2575 817 3079 
Q 1281 3584 2069 3584 
Q 2775 3584 3186 3129 
Q 3597 2675 3597 1894 
z
M 3022 2063 
Q 3016 2534 2758 2815 
Q 2500 3097 2075 3097 
Q 1594 3097 1305 2825 
Q 1016 2553 972 2059 
L 3022 2063 
z
" transform="scale(0.015625)"/>
       <path id="DejaVuSans-73" d="M 2834 3397 
L 2834 2853 
Q 2591 2978 2328 3040 
Q 2066 3103 1784 3103 
Q 1356 3103 1142 2972 
Q 928 2841 928 2578 
Q 928 2378 1081 2264 
Q 1234 2150 1697 2047 
L 1894 2003 
Q 2506 1872 2764 1633 
Q 3022 1394 3022 966 
Q 3022 478 2636 193 
Q 2250 -91 1575 -91 
Q 1294 -91 989 -36 
Q 684 19 347 128 
L 347 722 
Q 666 556 975 473 
Q 1284 391 1588 391 
Q 1994 391 2212 530 
Q 2431 669 2431 922 
Q 2431 1156 2273 1281 
Q 2116 1406 1581 1522 
L 1381 1569 
Q 847 1681 609 1914 
Q 372 2147 372 2553 
Q 372 3047 722 3315 
Q 1072 3584 1716 3584 
Q 2034 3584 2315 3537 
Q 2597 3491 2834 3397 
z
" transform="scale(0.015625)"/>
      </defs>
      <use xlink:href="#DejaVuSans-69"/>
      <use xlink:href="#DejaVuSans-6e" x="27.783203"/>
      <use xlink:href="#DejaVuSans-74" x="91.162109"/>
      <use xlink:href="#DejaVuSans-65" x="130.371094"/>
      <use xlink:href="#DejaVuSans-6e" x="191.894531"/>
      <use xlink:href="#DejaVuSans-73" x="255.273438"/>
      <use xlink:href="#DejaVuSans-69" x="307.373047"/>
      <use xlink:href="#DejaVuSans-74" x="335.15625"/>
      <use xlink:href="#DejaVuSans-69" x="374.365234"/>
      <use xlink:href="#DejaVuSans-65" x="402.148438"/>
      <use xlink:href="#DejaVuSans-73" x="463.671875"/>
     </g>
    </g>
    <g id="text_17">
     <!-- 1e6 -->
     <g transform="translate(57.6 38.472) scale(0.1 -0.1)">
      <use xlink:href="#DejaVuSans-31"/>
      <use xlink:href="#DejaVuSans-65" x="63.623047"/>
      <use xlink:href="#DejaVuSans-36" x="125.146484"/>
     </g>
    </g>
   </g>
   <g id="patch_234">
    <path d="M 57.6 307.584 
L 57.6 41.472 
" style="fill: none; stroke: #000000; stroke-width: 0.8; stroke-linejoin: miter; stroke-linecap: square"/>
   </g>
   <g id="patch_235">
    <path d="M 414.72 307.584 
L 414.72 41.472 
" style="fill: none; stroke: #000000; stroke-width: 0.8; stroke-linejoin: miter; stroke-linecap: square"/>
   </g>
   <g id="patch_236">
    <path d="M 57.6 307.584 
L 414.72 307.584 
" style="fill: none; stroke: #000000; stroke-width: 0.8; stroke-linejoin: miter; stroke-linecap: square"/>
   </g>
   <g id="patch_237">
    <path d="M 57.6 41.472 
L 414.72 41.472 
" style="fill: none; stroke: #000000; stroke-width: 0.8; stroke-linejoin: miter; stroke-linecap: square"/>
   </g>
   <g id="text_18">
    <!-- 102.0554 -->
    <g transform="translate(116.73726 163.790612) scale(0.06 -0.06)">
     <use xlink:href="#DejaVuSans-31"/>
     <use xlink:href="#DejaVuSans-30" x="63.623047"/>
     <use xlink:href="#DejaVuSans-32" x="127.246094"/>
     <use xlink:href="#DejaVuSans-2e" x="190.869141"/>
     <use xlink:href="#DejaVuSans-30" x="222.65625"/>
     <use xlink:href="#DejaVuSans-35" x="286.279297"/>
     <use xlink:href="#DejaVuSans-35" x="349.902344"/>
     <use xlink:href="#DejaVuSans-34" x="413.525391"/>
    </g>
   </g>
   <g id="text_19">
    <!-- 130.0652 -->
    <g transform="translate(146.158225 269.756549) scale(0.06 -0.06)">
     <use xlink:href="#DejaVuSans-31"/>
     <use xlink:href="#DejaVuSans-33" x="63.623047"/>
     <use xlink:href="#DejaVuSans-30" x="127.246094"/>
     <use xlink:href="#DejaVuSans-2e" x="190.869141"/>
     <use xlink:href="#DejaVuSans-30" x="222.65625"/>
     <use xlink:href="#DejaVuSans-36" x="286.279297"/>
     <use xlink:href="#DejaVuSans-35" x="349.902344"/>
     <use xlink:href="#DejaVuSans-32" x="413.525391"/>
    </g>
   </g>
   <g id="text_20">
    <!-- 183.0916 -->
    <g transform="translate(201.856144 277.930543) scale(0.06 -0.06)">
     <defs>
      <path id="DejaVuSans-39" d="M 703 97 
L 703 672 
Q 941 559 1184 500 
Q 1428 441 1663 441 
Q 2288 441 2617 861 
Q 2947 1281 2994 2138 
Q 2813 1869 2534 1725 
Q 2256 1581 1919 1581 
Q 1219 1581 811 2004 
Q 403 2428 403 3163 
Q 403 3881 828 4315 
Q 1253 4750 1959 4750 
Q 2769 4750 3195 4129 
Q 3622 3509 3622 2328 
Q 3622 1225 3098 567 
Q 2575 -91 1691 -91 
Q 1453 -91 1209 -44 
Q 966 3 703 97 
z
M 1959 2075 
Q 2384 2075 2632 2365 
Q 2881 2656 2881 3163 
Q 2881 3666 2632 3958 
Q 2384 4250 1959 4250 
Q 1534 4250 1286 3958 
Q 1038 3666 1038 3163 
Q 1038 2656 1286 2365 
Q 1534 2075 1959 2075 
z
" transform="scale(0.015625)"/>
     </defs>
     <use xlink:href="#DejaVuSans-31"/>
     <use xlink:href="#DejaVuSans-38" x="63.623047"/>
     <use xlink:href="#DejaVuSans-33" x="127.246094"/>
     <use xlink:href="#DejaVuSans-2e" x="190.869141"/>
     <use xlink:href="#DejaVuSans-30" x="222.65625"/>
     <use xlink:href="#DejaVuSans-39" x="286.279297"/>
     <use xlink:href="#DejaVuSans-31" x="349.902344"/>
     <use xlink:href="#DejaVuSans-36" x="413.525391"/>
    </g>
   </g>
   <g id="text_21">
    <!-- 202.0497 -->
    <g transform="translate(212.40942 256.452974) scale(0.06 -0.06)">
     <defs>
      <path id="DejaVuSans-37" d="M 525 4666 
L 3525 4666 
L 3525 4397 
L 1831 0 
L 1172 0 
L 2766 4134 
L 525 4134 
L 525 4666 
z
" transform="scale(0.015625)"/>
     </defs>
     <use xlink:href="#DejaVuSans-32"/>
     <use xlink:href="#DejaVuSans-30" x="63.623047"/>
     <use xlink:href="#DejaVuSans-32" x="127.246094"/>
     <use xlink:href="#DejaVuSans-2e" x="190.869141"/>
     <use xlink:href="#DejaVuSans-30" x="222.65625"/>
     <use xlink:href="#DejaVuSans-34" x="286.279297"/>
     <use xlink:href="#DejaVuSans-39" x="349.902344"/>
     <use xlink:href="#DejaVuSans-37" x="413.525391"/>
    </g>
   </g>
   <g id="text_22">
    <!-- 211.0863 -->
    <g transform="translate(231.261331 87.726311) scale(0.06 -0.06)">
     <use xlink:href="#DejaVuSans-32"/>
     <use xlink:href="#DejaVuSans-31" x="63.623047"/>
     <use xlink:href="#DejaVuSans-31" x="127.246094"/>
     <use xlink:href="#DejaVuSans-2e" x="190.869141"/>
     <use xlink:href="#DejaVuSans-30" x="222.65625"/>
     <use xlink:href="#DejaVuSans-38" x="286.279297"/>
     <use xlink:href="#DejaVuSans-36" x="349.902344"/>
     <use xlink:href="#DejaVuSans-33" x="413.525391"/>
    </g>
   </g>
   <g id="text_23">
    <!-- 212.0927 -->
    <g transform="translate(238.078331 249.633143) scale(0.06 -0.06)">
     <use xlink:href="#DejaVuSans-32"/>
     <use xlink:href="#DejaVuSans-31" x="63.623047"/>
     <use xlink:href="#DejaVuSans-32" x="127.246094"/>
     <use xlink:href="#DejaVuSans-2e" x="190.869141"/>
     <use xlink:href="#DejaVuSans-30" x="222.65625"/>
     <use xlink:href="#DejaVuSans-39" x="286.279297"/>
     <use xlink:href="#DejaVuSans-32" x="349.902344"/>
     <use xlink:href="#DejaVuSans-37" x="413.525391"/>
    </g>
   </g>
   <g id="text_24">
    <!-- 226.087 -->
    <g transform="translate(248.640812 273.064803) scale(0.06 -0.06)">
     <use xlink:href="#DejaVuSans-32"/>
     <use xlink:href="#DejaVuSans-32" x="63.623047"/>
     <use xlink:href="#DejaVuSans-36" x="127.246094"/>
     <use xlink:href="#DejaVuSans-2e" x="190.869141"/>
     <use xlink:href="#DejaVuSans-30" x="222.65625"/>
     <use xlink:href="#DejaVuSans-38" x="286.279297"/>
     <use xlink:href="#DejaVuSans-37" x="349.902344"/>
    </g>
   </g>
   <g id="text_25">
    <!-- 228.0889 -->
    <g transform="translate(249.120516 50.939625) scale(0.06 -0.06)">
     <use xlink:href="#DejaVuSans-32"/>
     <use xlink:href="#DejaVuSans-32" x="63.623047"/>
     <use xlink:href="#DejaVuSans-38" x="127.246094"/>
     <use xlink:href="#DejaVuSans-2e" x="190.869141"/>
     <use xlink:href="#DejaVuSans-30" x="222.65625"/>
     <use xlink:href="#DejaVuSans-38" x="286.279297"/>
     <use xlink:href="#DejaVuSans-38" x="349.902344"/>
     <use xlink:href="#DejaVuSans-39" x="413.525391"/>
    </g>
   </g>
   <g id="text_26">
    <!-- 229.0928 -->
    <g transform="translate(249.978808 283.542956) scale(0.06 -0.06)">
     <use xlink:href="#DejaVuSans-32"/>
     <use xlink:href="#DejaVuSans-32" x="63.623047"/>
     <use xlink:href="#DejaVuSans-39" x="127.246094"/>
     <use xlink:href="#DejaVuSans-2e" x="190.869141"/>
     <use xlink:href="#DejaVuSans-30" x="222.65625"/>
     <use xlink:href="#DejaVuSans-39" x="286.279297"/>
     <use xlink:href="#DejaVuSans-32" x="349.902344"/>
     <use xlink:href="#DejaVuSans-38" x="413.525391"/>
    </g>
   </g>
   <g id="text_27">
    <!-- 230.0446 -->
    <g transform="translate(251.174702 202.635751) scale(0.06 -0.06)">
     <use xlink:href="#DejaVuSans-32"/>
     <use xlink:href="#DejaVuSans-33" x="63.623047"/>
     <use xlink:href="#DejaVuSans-30" x="127.246094"/>
     <use xlink:href="#DejaVuSans-2e" x="190.869141"/>
     <use xlink:href="#DejaVuSans-30" x="222.65625"/>
     <use xlink:href="#DejaVuSans-34" x="286.279297"/>
     <use xlink:href="#DejaVuSans-34" x="349.902344"/>
     <use xlink:href="#DejaVuSans-36" x="413.525391"/>
    </g>
   </g>
   <g id="text_28">
    <!-- 240.0292 -->
    <g transform="translate(261.662388 263.451462) scale(0.06 -0.06)">
     <use xlink:href="#DejaVuSans-32"/>
     <use xlink:href="#DejaVuSans-34" x="63.623047"/>
     <use xlink:href="#DejaVuSans-30" x="127.246094"/>
     <use xlink:href="#DejaVuSans-2e" x="190.869141"/>
     <use xlink:href="#DejaVuSans-30" x="222.65625"/>
     <use xlink:href="#DejaVuSans-32" x="286.279297"/>
     <use xlink:href="#DejaVuSans-39" x="349.902344"/>
     <use xlink:href="#DejaVuSans-32" x="413.525391"/>
    </g>
   </g>
   <g id="text_29">
    <!-- 272.0546 -->
    <g transform="translate(295.301185 142.261013) scale(0.06 -0.06)">
     <use xlink:href="#DejaVuSans-32"/>
     <use xlink:href="#DejaVuSans-37" x="63.623047"/>
     <use xlink:href="#DejaVuSans-32" x="127.246094"/>
     <use xlink:href="#DejaVuSans-2e" x="190.869141"/>
     <use xlink:href="#DejaVuSans-30" x="222.65625"/>
     <use xlink:href="#DejaVuSans-35" x="286.279297"/>
     <use xlink:href="#DejaVuSans-34" x="349.902344"/>
     <use xlink:href="#DejaVuSans-36" x="413.525391"/>
    </g>
   </g>
   <g id="text_30">
    <!-- MS2 spectrum of ${m/z}$ 363.1172, scan time 6.17 min. -->
    <g transform="translate(57.6 24.873562) scale(0.12 -0.12)">
     <defs>
      <path id="DejaVuSans-4d" d="M 628 4666 
L 1569 4666 
L 2759 1491 
L 3956 4666 
L 4897 4666 
L 4897 0 
L 4281 0 
L 4281 4097 
L 3078 897 
L 2444 897 
L 1241 4097 
L 1241 0 
L 628 0 
L 628 4666 
z
" transform="scale(0.015625)"/>
      <path id="DejaVuSans-53" d="M 3425 4513 
L 3425 3897 
Q 3066 4069 2747 4153 
Q 2428 4238 2131 4238 
Q 1616 4238 1336 4038 
Q 1056 3838 1056 3469 
Q 1056 3159 1242 3001 
Q 1428 2844 1947 2747 
L 2328 2669 
Q 3034 2534 3370 2195 
Q 3706 1856 3706 1288 
Q 3706 609 3251 259 
Q 2797 -91 1919 -91 
Q 1588 -91 1214 -16 
Q 841 59 441 206 
L 441 856 
Q 825 641 1194 531 
Q 1563 422 1919 422 
Q 2459 422 2753 634 
Q 3047 847 3047 1241 
Q 3047 1584 2836 1778 
Q 2625 1972 2144 2069 
L 1759 2144 
Q 1053 2284 737 2584 
Q 422 2884 422 3419 
Q 422 4038 858 4394 
Q 1294 4750 2059 4750 
Q 2388 4750 2728 4690 
Q 3069 4631 3425 4513 
z
" transform="scale(0.015625)"/>
      <path id="DejaVuSans-20" transform="scale(0.015625)"/>
      <path id="DejaVuSans-70" d="M 1159 525 
L 1159 -1331 
L 581 -1331 
L 581 3500 
L 1159 3500 
L 1159 2969 
Q 1341 3281 1617 3432 
Q 1894 3584 2278 3584 
Q 2916 3584 3314 3078 
Q 3713 2572 3713 1747 
Q 3713 922 3314 415 
Q 2916 -91 2278 -91 
Q 1894 -91 1617 61 
Q 1341 213 1159 525 
z
M 3116 1747 
Q 3116 2381 2855 2742 
Q 2594 3103 2138 3103 
Q 1681 3103 1420 2742 
Q 1159 2381 1159 1747 
Q 1159 1113 1420 752 
Q 1681 391 2138 391 
Q 2594 391 2855 752 
Q 3116 1113 3116 1747 
z
" transform="scale(0.015625)"/>
      <path id="DejaVuSans-63" d="M 3122 3366 
L 3122 2828 
Q 2878 2963 2633 3030 
Q 2388 3097 2138 3097 
Q 1578 3097 1268 2742 
Q 959 2388 959 1747 
Q 959 1106 1268 751 
Q 1578 397 2138 397 
Q 2388 397 2633 464 
Q 2878 531 3122 666 
L 3122 134 
Q 2881 22 2623 -34 
Q 2366 -91 2075 -91 
Q 1284 -91 818 406 
Q 353 903 353 1747 
Q 353 2603 823 3093 
Q 1294 3584 2113 3584 
Q 2378 3584 2631 3529 
Q 2884 3475 3122 3366 
z
" transform="scale(0.015625)"/>
      <path id="DejaVuSans-72" d="M 2631 2963 
Q 2534 3019 2420 3045 
Q 2306 3072 2169 3072 
Q 1681 3072 1420 2755 
Q 1159 2438 1159 1844 
L 1159 0 
L 581 0 
L 581 3500 
L 1159 3500 
L 1159 2956 
Q 1341 3275 1631 3429 
Q 1922 3584 2338 3584 
Q 2397 3584 2469 3576 
Q 2541 3569 2628 3553 
L 2631 2963 
z
" transform="scale(0.015625)"/>
      <path id="DejaVuSans-75" d="M 544 1381 
L 544 3500 
L 1119 3500 
L 1119 1403 
Q 1119 906 1312 657 
Q 1506 409 1894 409 
Q 2359 409 2629 706 
Q 2900 1003 2900 1516 
L 2900 3500 
L 3475 3500 
L 3475 0 
L 2900 0 
L 2900 538 
Q 2691 219 2414 64 
Q 2138 -91 1772 -91 
Q 1169 -91 856 284 
Q 544 659 544 1381 
z
M 1991 3584 
L 1991 3584 
z
" transform="scale(0.015625)"/>
      <path id="DejaVuSans-6d" d="M 3328 2828 
Q 3544 3216 3844 3400 
Q 4144 3584 4550 3584 
Q 5097 3584 5394 3201 
Q 5691 2819 5691 2113 
L 5691 0 
L 5113 0 
L 5113 2094 
Q 5113 2597 4934 2840 
Q 4756 3084 4391 3084 
Q 3944 3084 3684 2787 
Q 3425 2491 3425 1978 
L 3425 0 
L 2847 0 
L 2847 2094 
Q 2847 2600 2669 2842 
Q 2491 3084 2119 3084 
Q 1678 3084 1418 2786 
Q 1159 2488 1159 1978 
L 1159 0 
L 581 0 
L 581 3500 
L 1159 3500 
L 1159 2956 
Q 1356 3278 1631 3431 
Q 1906 3584 2284 3584 
Q 2666 3584 2933 3390 
Q 3200 3197 3328 2828 
z
" transform="scale(0.015625)"/>
      <path id="DejaVuSans-6f" d="M 1959 3097 
Q 1497 3097 1228 2736 
Q 959 2375 959 1747 
Q 959 1119 1226 758 
Q 1494 397 1959 397 
Q 2419 397 2687 759 
Q 2956 1122 2956 1747 
Q 2956 2369 2687 2733 
Q 2419 3097 1959 3097 
z
M 1959 3584 
Q 2709 3584 3137 3096 
Q 3566 2609 3566 1747 
Q 3566 888 3137 398 
Q 2709 -91 1959 -91 
Q 1206 -91 779 398 
Q 353 888 353 1747 
Q 353 2609 779 3096 
Q 1206 3584 1959 3584 
z
" transform="scale(0.015625)"/>
      <path id="DejaVuSans-66" d="M 2375 4863 
L 2375 4384 
L 1825 4384 
Q 1516 4384 1395 4259 
Q 1275 4134 1275 3809 
L 1275 3500 
L 2222 3500 
L 2222 3053 
L 1275 3053 
L 1275 0 
L 697 0 
L 697 3053 
L 147 3053 
L 147 3500 
L 697 3500 
L 697 3744 
Q 697 4328 969 4595 
Q 1241 4863 1831 4863 
L 2375 4863 
z
" transform="scale(0.015625)"/>
      <path id="DejaVuSans-2c" d="M 750 794 
L 1409 794 
L 1409 256 
L 897 -744 
L 494 -744 
L 750 256 
L 750 794 
z
" transform="scale(0.015625)"/>
      <path id="DejaVuSans-61" d="M 2194 1759 
Q 1497 1759 1228 1600 
Q 959 1441 959 1056 
Q 959 750 1161 570 
Q 1363 391 1709 391 
Q 2188 391 2477 730 
Q 2766 1069 2766 1631 
L 2766 1759 
L 2194 1759 
z
M 3341 1997 
L 3341 0 
L 2766 0 
L 2766 531 
Q 2569 213 2275 61 
Q 1981 -91 1556 -91 
Q 1019 -91 701 211 
Q 384 513 384 1019 
Q 384 1609 779 1909 
Q 1175 2209 1959 2209 
L 2766 2209 
L 2766 2266 
Q 2766 2663 2505 2880 
Q 2244 3097 1772 3097 
Q 1472 3097 1187 3025 
Q 903 2953 641 2809 
L 641 3341 
Q 956 3463 1253 3523 
Q 1550 3584 1831 3584 
Q 2591 3584 2966 3190 
Q 3341 2797 3341 1997 
z
" transform="scale(0.015625)"/>
     </defs>
     <use xlink:href="#DejaVuSans-4d" transform="translate(0 0.015625)"/>
     <use xlink:href="#DejaVuSans-53" transform="translate(86.279297 0.015625)"/>
     <use xlink:href="#DejaVuSans-32" transform="translate(149.755859 0.015625)"/>
     <use xlink:href="#DejaVuSans-20" transform="translate(213.378906 0.015625)"/>
     <use xlink:href="#DejaVuSans-73" transform="translate(245.166016 0.015625)"/>
     <use xlink:href="#DejaVuSans-70" transform="translate(297.265625 0.015625)"/>
     <use xlink:href="#DejaVuSans-65" transform="translate(360.742188 0.015625)"/>
     <use xlink:href="#DejaVuSans-63" transform="translate(422.265625 0.015625)"/>
     <use xlink:href="#DejaVuSans-74" transform="translate(477.246094 0.015625)"/>
     <use xlink:href="#DejaVuSans-72" transform="translate(516.455078 0.015625)"/>
     <use xlink:href="#DejaVuSans-75" transform="translate(557.568359 0.015625)"/>
     <use xlink:href="#DejaVuSans-6d" transform="translate(620.947266 0.015625)"/>
     <use xlink:href="#DejaVuSans-20" transform="translate(718.359375 0.015625)"/>
     <use xlink:href="#DejaVuSans-6f" transform="translate(750.146484 0.015625)"/>
     <use xlink:href="#DejaVuSans-66" transform="translate(811.328125 0.015625)"/>
     <use xlink:href="#DejaVuSans-20" transform="translate(846.533203 0.015625)"/>
     <use xlink:href="#DejaVuSans-Oblique-6d" transform="translate(878.320312 0.015625)"/>
     <use xlink:href="#DejaVuSans-2f" transform="translate(975.732422 0.015625)"/>
     <use xlink:href="#DejaVuSans-Oblique-7a" transform="translate(1009.423828 0.015625)"/>
     <use xlink:href="#DejaVuSans-20" transform="translate(1061.914062 0.015625)"/>
     <use xlink:href="#DejaVuSans-33" transform="translate(1093.701172 0.015625)"/>
     <use xlink:href="#DejaVuSans-36" transform="translate(1157.324219 0.015625)"/>
     <use xlink:href="#DejaVuSans-33" transform="translate(1220.947266 0.015625)"/>
     <use xlink:href="#DejaVuSans-2e" transform="translate(1284.570312 0.015625)"/>
     <use xlink:href="#DejaVuSans-31" transform="translate(1316.357422 0.015625)"/>
     <use xlink:href="#DejaVuSans-31" transform="translate(1379.980469 0.015625)"/>
     <use xlink:href="#DejaVuSans-37" transform="translate(1443.603516 0.015625)"/>
     <use xlink:href="#DejaVuSans-32" transform="translate(1507.226562 0.015625)"/>
     <use xlink:href="#DejaVuSans-2c" transform="translate(1570.849609 0.015625)"/>
     <use xlink:href="#DejaVuSans-20" transform="translate(1602.636719 0.015625)"/>
     <use xlink:href="#DejaVuSans-73" transform="translate(1634.423828 0.015625)"/>
     <use xlink:href="#DejaVuSans-63" transform="translate(1686.523438 0.015625)"/>
     <use xlink:href="#DejaVuSans-61" transform="translate(1741.503906 0.015625)"/>
     <use xlink:href="#DejaVuSans-6e" transform="translate(1802.783203 0.015625)"/>
     <use xlink:href="#DejaVuSans-20" transform="translate(1866.162109 0.015625)"/>
     <use xlink:href="#DejaVuSans-74" transform="translate(1897.949219 0.015625)"/>
     <use xlink:href="#DejaVuSans-69" transform="translate(1937.158203 0.015625)"/>
     <use xlink:href="#DejaVuSans-6d" transform="translate(1964.941406 0.015625)"/>
     <use xlink:href="#DejaVuSans-65" transform="translate(2062.353516 0.015625)"/>
     <use xlink:href="#DejaVuSans-20" transform="translate(2123.876953 0.015625)"/>
     <use xlink:href="#DejaVuSans-36" transform="translate(2155.664062 0.015625)"/>
     <use xlink:href="#DejaVuSans-2e" transform="translate(2219.287109 0.015625)"/>
     <use xlink:href="#DejaVuSans-31" transform="translate(2251.074219 0.015625)"/>
     <use xlink:href="#DejaVuSans-37" transform="translate(2314.697266 0.015625)"/>
     <use xlink:href="#DejaVuSans-20" transform="translate(2378.320312 0.015625)"/>
     <use xlink:href="#DejaVuSans-6d" transform="translate(2410.107422 0.015625)"/>
     <use xlink:href="#DejaVuSans-69" transform="translate(2507.519531 0.015625)"/>
     <use xlink:href="#DejaVuSans-6e" transform="translate(2535.302734 0.015625)"/>
     <use xlink:href="#DejaVuSans-2e" transform="translate(2598.681641 0.015625)"/>
    </g>
   </g>
  </g>
 </g>
 <defs>
  <clipPath id="p3ff81f5167">
   <rect x="57.6" y="41.472" width="357.12" height="266.112"/>
  </clipPath>
 </defs>
</svg>
