<?xml version="1.0" encoding="utf-8" standalone="no"?>
<!DOCTYPE svg PUBLIC "-//W3C//DTD SVG 1.1//EN"
  "http://www.w3.org/Graphics/SVG/1.1/DTD/svg11.dtd">
<svg xmlns:xlink="http://www.w3.org/1999/xlink" width="460.8pt" height="345.6pt" viewBox="0 0 460.8 345.6" xmlns="http://www.w3.org/2000/svg" version="1.1">
 <metadata>
  <rdf:RDF xmlns:dc="http://purl.org/dc/elements/1.1/" xmlns:cc="http://creativecommons.org/ns#" xmlns:rdf="http://www.w3.org/1999/02/22-rdf-syntax-ns#">
   <cc:Work>
    <dc:type rdf:resource="http://purl.org/dc/dcmitype/StillImage"/>
    <dc:date>2025-01-11T13:56:12.880730</dc:date>
    <dc:format>image/svg+xml</dc:format>
    <dc:creator>
     <cc:Agent>
      <dc:title>Matplotlib v3.7.3, https://matplotlib.org/</dc:title>
     </cc:Agent>
    </dc:creator>
   </cc:Work>
  </rdf:RDF>
 </metadata>
 <defs>
  <style type="text/css">*{stroke-linejoin: round; stroke-linecap: butt}</style>
 </defs>
 <g id="figure_1">
  <g id="patch_1">
   <path d="M 0 345.6 
L 460.8 345.6 
L 460.8 0 
L 0 0 
z
" style="fill: #ffffff"/>
  </g>
  <g id="axes_1">
   <g id="patch_2">
    <path d="M 57.6 307.584 
L 414.72 307.584 
L 414.72 41.472 
L 57.6 41.472 
z
" style="fill: #ffffff"/>
   </g>
   <g id="patch_3">
    <path d="M 73.832727 307.584 
L 74.667457 307.584 
L 74.667457 306.26542 
L 73.832727 306.26542 
z
" clip-path="url(#p6ff06f4744)" style="fill: #1f77b4"/>
   </g>
   <g id="patch_4">
    <path d="M 74.074662 307.584 
L 74.909392 307.584 
L 74.909392 306.773629 
L 74.074662 306.773629 
z
" clip-path="url(#p6ff06f4744)" style="fill: #1f77b4"/>
   </g>
   <g id="patch_5">
    <path d="M 75.986342 307.584 
L 76.821072 307.584 
L 76.821072 304.77954 
L 75.986342 304.77954 
z
" clip-path="url(#p6ff06f4744)" style="fill: #1f77b4"/>
   </g>
   <g id="patch_6">
    <path d="M 76.177647 307.584 
L 77.012377 307.584 
L 77.012377 305.726685 
L 76.177647 305.726685 
z
" clip-path="url(#p6ff06f4744)" style="fill: #1f77b4"/>
   </g>
   <g id="patch_7">
    <path d="M 77.254088 307.584 
L 78.088818 307.584 
L 78.088818 303.755586 
L 77.254088 303.755586 
z
" clip-path="url(#p6ff06f4744)" style="fill: #1f77b4"/>
   </g>
   <g id="patch_8">
    <path d="M 78.267974 307.584 
L 79.102704 307.584 
L 79.102704 306.30212 
L 78.267974 306.30212 
z
" clip-path="url(#p6ff06f4744)" style="fill: #1f77b4"/>
   </g>
   <g id="patch_9">
    <path d="M 78.280867 307.584 
L 79.115597 307.584 
L 79.115597 305.748103 
L 78.280867 305.748103 
z
" clip-path="url(#p6ff06f4744)" style="fill: #1f77b4"/>
   </g>
   <g id="patch_10">
    <path d="M 78.522308 307.584 
L 79.357038 307.584 
L 79.357038 306.539674 
L 78.522308 306.539674 
z
" clip-path="url(#p6ff06f4744)" style="fill: #1f77b4"/>
   </g>
   <g id="patch_11">
    <path d="M 80.383971 307.584 
L 81.218701 307.584 
L 81.218701 305.432181 
L 80.383971 305.432181 
z
" clip-path="url(#p6ff06f4744)" style="fill: #1f77b4"/>
   </g>
   <g id="patch_12">
    <path d="M 81.030038 307.584 
L 81.864768 307.584 
L 81.864768 306.078728 
L 81.030038 306.078728 
z
" clip-path="url(#p6ff06f4744)" style="fill: #1f77b4"/>
   </g>
   <g id="patch_13">
    <path d="M 83.623571 307.584 
L 84.458301 307.584 
L 84.458301 306.170458 
L 83.623571 306.170458 
z
" clip-path="url(#p6ff06f4744)" style="fill: #1f77b4"/>
   </g>
   <g id="patch_14">
    <path d="M 86.125999 307.584 
L 86.960729 307.584 
L 86.960729 306.670342 
L 86.125999 306.670342 
z
" clip-path="url(#p6ff06f4744)" style="fill: #1f77b4"/>
   </g>
   <g id="patch_15">
    <path d="M 86.633392 307.584 
L 87.468122 307.584 
L 87.468122 305.416312 
L 86.633392 305.416312 
z
" clip-path="url(#p6ff06f4744)" style="fill: #1f77b4"/>
   </g>
   <g id="patch_16">
    <path d="M 88.698532 307.584 
L 89.533262 307.584 
L 89.533262 301.041017 
L 88.698532 301.041017 
z
" clip-path="url(#p6ff06f4744)" style="fill: #1f77b4"/>
   </g>
   <g id="patch_17">
    <path d="M 89.774925 307.584 
L 90.609655 307.584 
L 90.609655 302.367111 
L 89.774925 302.367111 
z
" clip-path="url(#p6ff06f4744)" style="fill: #1f77b4"/>
   </g>
   <g id="patch_18">
    <path d="M 90.32849 307.584 
L 91.16322 307.584 
L 91.16322 306.463748 
L 90.32849 306.463748 
z
" clip-path="url(#p6ff06f4744)" style="fill: #1f77b4"/>
   </g>
   <g id="patch_19">
    <path d="M 97.072953 307.584 
L 97.907683 307.584 
L 97.907683 306.540828 
L 97.072953 306.540828 
z
" clip-path="url(#p6ff06f4744)" style="fill: #1f77b4"/>
   </g>
   <g id="patch_20">
    <path d="M 111.675083 307.584 
L 112.509813 307.584 
L 112.509813 304.762322 
L 111.675083 304.762322 
z
" clip-path="url(#p6ff06f4744)" style="fill: #1f77b4"/>
   </g>
   <g id="patch_21">
    <path d="M 113.77814 307.584 
L 114.61287 307.584 
L 114.61287 302.810763 
L 113.77814 302.810763 
z
" clip-path="url(#p6ff06f4744)" style="fill: #1f77b4"/>
   </g>
   <g id="patch_22">
    <path d="M 114.24319 307.584 
L 115.07792 307.584 
L 115.07792 305.869934 
L 114.24319 305.869934 
z
" clip-path="url(#p6ff06f4744)" style="fill: #1f77b4"/>
   </g>
   <g id="patch_23">
    <path d="M 114.412091 307.584 
L 115.24682 307.584 
L 115.24682 306.471282 
L 114.412091 306.471282 
z
" clip-path="url(#p6ff06f4744)" style="fill: #1f77b4"/>
   </g>
   <g id="patch_24">
    <path d="M 114.816497 307.584 
L 115.651227 307.584 
L 115.651227 303.202098 
L 114.816497 303.202098 
z
" clip-path="url(#p6ff06f4744)" style="fill: #1f77b4"/>
   </g>
   <g id="patch_25">
    <path d="M 118.984797 307.584 
L 119.819527 307.584 
L 119.819527 303.686733 
L 118.984797 303.686733 
z
" clip-path="url(#p6ff06f4744)" style="fill: #1f77b4"/>
   </g>
   <g id="patch_26">
    <path d="M 121.08783 307.584 
L 121.92256 307.584 
L 121.92256 298.687623 
L 121.08783 298.687623 
z
" clip-path="url(#p6ff06f4744)" style="fill: #1f77b4"/>
   </g>
   <g id="patch_27">
    <path d="M 122.114541 307.584 
L 122.949271 307.584 
L 122.949271 304.618572 
L 122.114541 304.618572 
z
" clip-path="url(#p6ff06f4744)" style="fill: #1f77b4"/>
   </g>
   <g id="patch_28">
    <path d="M 125.256289 307.584 
L 126.091019 307.584 
L 126.091019 169.226798 
L 125.256289 169.226798 
z
" clip-path="url(#p6ff06f4744)" style="fill: #1f77b4"/>
   </g>
   <g id="patch_29">
    <path d="M 126.298221 307.584 
L 127.132951 307.584 
L 127.132951 305.329849 
L 126.298221 305.329849 
z
" clip-path="url(#p6ff06f4744)" style="fill: #1f77b4"/>
   </g>
   <g id="patch_30">
    <path d="M 126.304168 307.584 
L 127.138898 307.584 
L 127.138898 306.141525 
L 126.304168 306.141525 
z
" clip-path="url(#p6ff06f4744)" style="fill: #1f77b4"/>
   </g>
   <g id="patch_31">
    <path d="M 127.312386 307.584 
L 128.147116 307.584 
L 128.147116 306.304566 
L 127.312386 306.304566 
z
" clip-path="url(#p6ff06f4744)" style="fill: #1f77b4"/>
   </g>
   <g id="patch_32">
    <path d="M 127.337207 307.584 
L 128.171937 307.584 
L 128.171937 305.111708 
L 127.337207 305.111708 
z
" clip-path="url(#p6ff06f4744)" style="fill: #1f77b4"/>
   </g>
   <g id="patch_33">
    <path d="M 133.608691 307.584 
L 134.443421 307.584 
L 134.443421 306.170692 
L 133.608691 306.170692 
z
" clip-path="url(#p6ff06f4744)" style="fill: #1f77b4"/>
   </g>
   <g id="patch_34">
    <path d="M 135.673999 307.584 
L 136.508729 307.584 
L 136.508729 305.862154 
L 135.673999 305.862154 
z
" clip-path="url(#p6ff06f4744)" style="fill: #1f77b4"/>
   </g>
   <g id="patch_35">
    <path d="M 136.700989 307.584 
L 137.535718 307.584 
L 137.535718 305.049265 
L 136.700989 305.049265 
z
" clip-path="url(#p6ff06f4744)" style="fill: #1f77b4"/>
   </g>
   <g id="patch_36">
    <path d="M 137.754885 307.584 
L 138.589615 307.584 
L 138.589615 299.08375 
L 137.754885 299.08375 
z
" clip-path="url(#p6ff06f4744)" style="fill: #1f77b4"/>
   </g>
   <g id="patch_37">
    <path d="M 138.819528 307.584 
L 139.654258 307.584 
L 139.654258 304.320654 
L 138.819528 304.320654 
z
" clip-path="url(#p6ff06f4744)" style="fill: #1f77b4"/>
   </g>
   <g id="patch_38">
    <path d="M 139.858149 307.584 
L 140.692878 307.584 
L 140.692878 298.334327 
L 139.858149 298.334327 
z
" clip-path="url(#p6ff06f4744)" style="fill: #1f77b4"/>
   </g>
   <g id="patch_39">
    <path d="M 140.90941 307.584 
L 141.74414 307.584 
L 141.74414 305.748168 
L 140.90941 305.748168 
z
" clip-path="url(#p6ff06f4744)" style="fill: #1f77b4"/>
   </g>
   <g id="patch_40">
    <path d="M 144.026465 307.584 
L 144.861195 307.584 
L 144.861195 302.7453 
L 144.026465 302.7453 
z
" clip-path="url(#p6ff06f4744)" style="fill: #1f77b4"/>
   </g>
   <g id="patch_41">
    <path d="M 148.194231 307.584 
L 149.028961 307.584 
L 149.028961 306.319992 
L 148.194231 306.319992 
z
" clip-path="url(#p6ff06f4744)" style="fill: #1f77b4"/>
   </g>
   <g id="patch_42">
    <path d="M 150.297686 307.584 
L 151.132416 307.584 
L 151.132416 303.874155 
L 150.297686 303.874155 
z
" clip-path="url(#p6ff06f4744)" style="fill: #1f77b4"/>
   </g>
   <g id="patch_43">
    <path d="M 152.37893 307.584 
L 153.21366 307.584 
L 153.21366 296.226032 
L 152.37893 296.226032 
z
" clip-path="url(#p6ff06f4744)" style="fill: #1f77b4"/>
   </g>
   <g id="patch_44">
    <path d="M 152.391906 307.584 
L 153.226636 307.584 
L 153.226636 305.913617 
L 152.391906 305.913617 
z
" clip-path="url(#p6ff06f4744)" style="fill: #1f77b4"/>
   </g>
   <g id="patch_45">
    <path d="M 152.40122 307.584 
L 153.23595 307.584 
L 153.23595 303.822479 
L 152.40122 303.822479 
z
" clip-path="url(#p6ff06f4744)" style="fill: #1f77b4"/>
   </g>
   <g id="patch_46">
    <path d="M 153.430574 307.584 
L 154.265304 307.584 
L 154.265304 304.663688 
L 153.430574 304.663688 
z
" clip-path="url(#p6ff06f4744)" style="fill: #1f77b4"/>
   </g>
   <g id="patch_47">
    <path d="M 153.443454 307.584 
L 154.278184 307.584 
L 154.278184 304.920818 
L 153.443454 304.920818 
z
" clip-path="url(#p6ff06f4744)" style="fill: #1f77b4"/>
   </g>
   <g id="patch_48">
    <path d="M 154.443848 307.584 
L 155.278578 307.584 
L 155.278578 304.557116 
L 154.443848 304.557116 
z
" clip-path="url(#p6ff06f4744)" style="fill: #1f77b4"/>
   </g>
   <g id="patch_49">
    <path d="M 154.454658 307.584 
L 155.289388 307.584 
L 155.289388 306.689305 
L 154.454658 306.689305 
z
" clip-path="url(#p6ff06f4744)" style="fill: #1f77b4"/>
   </g>
   <g id="patch_50">
    <path d="M 154.46601 307.584 
L 155.30074 307.584 
L 155.30074 305.270511 
L 154.46601 305.270511 
z
" clip-path="url(#p6ff06f4744)" style="fill: #1f77b4"/>
   </g>
   <g id="patch_51">
    <path d="M 154.482027 307.584 
L 155.316757 307.584 
L 155.316757 266.535939 
L 154.482027 266.535939 
z
" clip-path="url(#p6ff06f4744)" style="fill: #1f77b4"/>
   </g>
   <g id="patch_52">
    <path d="M 156.547342 307.584 
L 157.382072 307.584 
L 157.382072 298.155962 
L 156.547342 298.155962 
z
" clip-path="url(#p6ff06f4744)" style="fill: #1f77b4"/>
   </g>
   <g id="patch_53">
    <path d="M 158.612116 307.584 
L 159.446846 307.584 
L 159.446846 306.21947 
L 158.612116 306.21947 
z
" clip-path="url(#p6ff06f4744)" style="fill: #1f77b4"/>
   </g>
   <g id="patch_54">
    <path d="M 158.650279 307.584 
L 159.485009 307.584 
L 159.485009 306.054859 
L 158.650279 306.054859 
z
" clip-path="url(#p6ff06f4744)" style="fill: #1f77b4"/>
   </g>
   <g id="patch_55">
    <path d="M 159.663919 307.584 
L 160.498649 307.584 
L 160.498649 304.795187 
L 159.663919 304.795187 
z
" clip-path="url(#p6ff06f4744)" style="fill: #1f77b4"/>
   </g>
   <g id="patch_56">
    <path d="M 160.715467 307.584 
L 161.550197 307.584 
L 161.550197 293.38516 
L 160.715467 293.38516 
z
" clip-path="url(#p6ff06f4744)" style="fill: #1f77b4"/>
   </g>
   <g id="patch_57">
    <path d="M 164.899688 307.584 
L 165.734418 307.584 
L 165.734418 288.499413 
L 164.899688 288.499413 
z
" clip-path="url(#p6ff06f4744)" style="fill: #1f77b4"/>
   </g>
   <g id="patch_58">
    <path d="M 164.921564 307.584 
L 165.756294 307.584 
L 165.756294 303.35747 
L 164.921564 303.35747 
z
" clip-path="url(#p6ff06f4744)" style="fill: #1f77b4"/>
   </g>
   <g id="patch_59">
    <path d="M 165.951205 307.584 
L 166.785935 307.584 
L 166.785935 304.831265 
L 165.951205 304.831265 
z
" clip-path="url(#p6ff06f4744)" style="fill: #1f77b4"/>
   </g>
   <g id="patch_60">
    <path d="M 166.990398 307.584 
L 167.825128 307.584 
L 167.825128 306.27702 
L 166.990398 306.27702 
z
" clip-path="url(#p6ff06f4744)" style="fill: #1f77b4"/>
   </g>
   <g id="patch_61">
    <path d="M 167.002912 307.584 
L 167.837642 307.584 
L 167.837642 294.095815 
L 167.002912 294.095815 
z
" clip-path="url(#p6ff06f4744)" style="fill: #1f77b4"/>
   </g>
   <g id="patch_62">
    <path d="M 168.016409 307.584 
L 168.851139 307.584 
L 168.851139 298.013096 
L 168.016409 298.013096 
z
" clip-path="url(#p6ff06f4744)" style="fill: #1f77b4"/>
   </g>
   <g id="patch_63">
    <path d="M 168.054094 307.584 
L 168.888824 307.584 
L 168.888824 304.167232 
L 168.054094 304.167232 
z
" clip-path="url(#p6ff06f4744)" style="fill: #1f77b4"/>
   </g>
   <g id="patch_64">
    <path d="M 169.068482 307.584 
L 169.903212 307.584 
L 169.903212 298.344489 
L 169.068482 298.344489 
z
" clip-path="url(#p6ff06f4744)" style="fill: #1f77b4"/>
   </g>
   <g id="patch_65">
    <path d="M 169.089928 307.584 
L 169.924658 307.584 
L 169.924658 304.940452 
L 169.089928 304.940452 
z
" clip-path="url(#p6ff06f4744)" style="fill: #1f77b4"/>
   </g>
   <g id="patch_66">
    <path d="M 169.105801 307.584 
L 169.940531 307.584 
L 169.940531 303.92695 
L 169.105801 303.92695 
z
" clip-path="url(#p6ff06f4744)" style="fill: #1f77b4"/>
   </g>
   <g id="patch_67">
    <path d="M 170.119664 307.584 
L 170.954394 307.584 
L 170.954394 306.5041 
L 170.119664 306.5041 
z
" clip-path="url(#p6ff06f4744)" style="fill: #1f77b4"/>
   </g>
   <g id="patch_68">
    <path d="M 171.171212 307.584 
L 172.005942 307.584 
L 172.005942 289.84948 
L 171.171212 289.84948 
z
" clip-path="url(#p6ff06f4744)" style="fill: #1f77b4"/>
   </g>
   <g id="patch_69">
    <path d="M 172.219067 307.584 
L 173.053797 307.584 
L 173.053797 306.504735 
L 172.219067 306.504735 
z
" clip-path="url(#p6ff06f4744)" style="fill: #1f77b4"/>
   </g>
   <g id="patch_70">
    <path d="M 175.339863 307.584 
L 176.174593 307.584 
L 176.174593 298.664272 
L 175.339863 298.664272 
z
" clip-path="url(#p6ff06f4744)" style="fill: #1f77b4"/>
   </g>
   <g id="patch_71">
    <path d="M 177.420685 307.584 
L 178.255415 307.584 
L 178.255415 303.847761 
L 177.420685 303.847761 
z
" clip-path="url(#p6ff06f4744)" style="fill: #1f77b4"/>
   </g>
   <g id="patch_72">
    <path d="M 179.485841 307.584 
L 180.320571 307.584 
L 180.320571 305.226505 
L 179.485841 305.226505 
z
" clip-path="url(#p6ff06f4744)" style="fill: #1f77b4"/>
   </g>
   <g id="patch_73">
    <path d="M 179.508752 307.584 
L 180.343482 307.584 
L 180.343482 306.553788 
L 179.508752 306.553788 
z
" clip-path="url(#p6ff06f4744)" style="fill: #1f77b4"/>
   </g>
   <g id="patch_74">
    <path d="M 179.523591 307.584 
L 180.35832 307.584 
L 180.35832 303.539302 
L 179.523591 303.539302 
z
" clip-path="url(#p6ff06f4744)" style="fill: #1f77b4"/>
   </g>
   <g id="patch_75">
    <path d="M 180.562067 307.584 
L 181.396797 307.584 
L 181.396797 304.580602 
L 180.562067 304.580602 
z
" clip-path="url(#p6ff06f4744)" style="fill: #1f77b4"/>
   </g>
   <g id="patch_76">
    <path d="M 181.589033 307.584 
L 182.423763 307.584 
L 182.423763 286.177854 
L 181.589033 286.177854 
z
" clip-path="url(#p6ff06f4744)" style="fill: #1f77b4"/>
   </g>
   <g id="patch_77">
    <path d="M 181.611355 307.584 
L 182.446085 307.584 
L 182.446085 300.801409 
L 181.611355 300.801409 
z
" clip-path="url(#p6ff06f4744)" style="fill: #1f77b4"/>
   </g>
   <g id="patch_78">
    <path d="M 181.627276 307.584 
L 182.462006 307.584 
L 182.462006 305.077428 
L 181.627276 305.077428 
z
" clip-path="url(#p6ff06f4744)" style="fill: #1f77b4"/>
   </g>
   <g id="patch_79">
    <path d="M 182.64039 307.584 
L 183.47512 307.584 
L 183.47512 300.995888 
L 182.64039 300.995888 
z
" clip-path="url(#p6ff06f4744)" style="fill: #1f77b4"/>
   </g>
   <g id="patch_80">
    <path d="M 182.665562 307.584 
L 183.500292 307.584 
L 183.500292 305.366822 
L 182.665562 305.366822 
z
" clip-path="url(#p6ff06f4744)" style="fill: #1f77b4"/>
   </g>
   <g id="patch_81">
    <path d="M 183.692018 307.584 
L 184.526748 307.584 
L 184.526748 281.6203 
L 183.692018 281.6203 
z
" clip-path="url(#p6ff06f4744)" style="fill: #1f77b4"/>
   </g>
   <g id="patch_82">
    <path d="M 184.706151 307.584 
L 185.540881 307.584 
L 185.540881 303.849231 
L 184.706151 303.849231 
z
" clip-path="url(#p6ff06f4744)" style="fill: #1f77b4"/>
   </g>
   <g id="patch_83">
    <path d="M 184.742929 307.584 
L 185.577659 307.584 
L 185.577659 305.842572 
L 184.742929 305.842572 
z
" clip-path="url(#p6ff06f4744)" style="fill: #1f77b4"/>
   </g>
   <g id="patch_84">
    <path d="M 185.757286 307.584 
L 186.592016 307.584 
L 186.592016 293.758041 
L 185.757286 293.758041 
z
" clip-path="url(#p6ff06f4744)" style="fill: #1f77b4"/>
   </g>
   <g id="patch_85">
    <path d="M 185.795321 307.584 
L 186.630051 307.584 
L 186.630051 303.749775 
L 185.795321 303.749775 
z
" clip-path="url(#p6ff06f4744)" style="fill: #1f77b4"/>
   </g>
   <g id="patch_86">
    <path d="M 187.860637 307.584 
L 188.695367 307.584 
L 188.695367 304.537185 
L 187.860637 304.537185 
z
" clip-path="url(#p6ff06f4744)" style="fill: #1f77b4"/>
   </g>
   <g id="patch_87">
    <path d="M 193.082825 307.584 
L 193.917555 307.584 
L 193.917555 305.873233 
L 193.082825 305.873233 
z
" clip-path="url(#p6ff06f4744)" style="fill: #1f77b4"/>
   </g>
   <g id="patch_88">
    <path d="M 194.11003 307.584 
L 194.94476 307.584 
L 194.94476 296.470578 
L 194.11003 296.470578 
z
" clip-path="url(#p6ff06f4744)" style="fill: #1f77b4"/>
   </g>
   <g id="patch_89">
    <path d="M 194.132399 307.584 
L 194.967129 307.584 
L 194.967129 301.079486 
L 194.132399 301.079486 
z
" clip-path="url(#p6ff06f4744)" style="fill: #1f77b4"/>
   </g>
   <g id="patch_90">
    <path d="M 194.146362 307.584 
L 194.981092 307.584 
L 194.981092 305.703334 
L 194.146362 305.703334 
z
" clip-path="url(#p6ff06f4744)" style="fill: #1f77b4"/>
   </g>
   <g id="patch_91">
    <path d="M 195.161339 307.584 
L 195.996069 307.584 
L 195.996069 306.138903 
L 195.161339 306.138903 
z
" clip-path="url(#p6ff06f4744)" style="fill: #1f77b4"/>
   </g>
   <g id="patch_92">
    <path d="M 195.185874 307.584 
L 196.020604 307.584 
L 196.020604 304.782922 
L 195.185874 304.782922 
z
" clip-path="url(#p6ff06f4744)" style="fill: #1f77b4"/>
   </g>
   <g id="patch_93">
    <path d="M 196.175059 307.584 
L 197.009789 307.584 
L 197.009789 294.987135 
L 196.175059 294.987135 
z
" clip-path="url(#p6ff06f4744)" style="fill: #1f77b4"/>
   </g>
   <g id="patch_94">
    <path d="M 196.213031 307.584 
L 197.047761 307.584 
L 197.047761 304.671926 
L 196.213031 304.671926 
z
" clip-path="url(#p6ff06f4744)" style="fill: #1f77b4"/>
   </g>
   <g id="patch_95">
    <path d="M 196.235496 307.584 
L 197.070226 307.584 
L 197.070226 301.869607 
L 196.235496 301.869607 
z
" clip-path="url(#p6ff06f4744)" style="fill: #1f77b4"/>
   </g>
   <g id="patch_96">
    <path d="M 197.225795 307.584 
L 198.060525 307.584 
L 198.060525 304.898268 
L 197.225795 304.898268 
z
" clip-path="url(#p6ff06f4744)" style="fill: #1f77b4"/>
   </g>
   <g id="patch_97">
    <path d="M 197.290037 307.584 
L 198.124767 307.584 
L 198.124767 305.78412 
L 197.290037 305.78412 
z
" clip-path="url(#p6ff06f4744)" style="fill: #1f77b4"/>
   </g>
   <g id="patch_98">
    <path d="M 198.278044 307.584 
L 199.112774 307.584 
L 199.112774 298.983951 
L 198.278044 298.983951 
z
" clip-path="url(#p6ff06f4744)" style="fill: #1f77b4"/>
   </g>
   <g id="patch_99">
    <path d="M 198.316382 307.584 
L 199.151112 307.584 
L 199.151112 305.748614 
L 198.316382 305.748614 
z
" clip-path="url(#p6ff06f4744)" style="fill: #1f77b4"/>
   </g>
   <g id="patch_100">
    <path d="M 199.329719 307.584 
L 200.164449 307.584 
L 200.164449 305.353386 
L 199.329719 305.353386 
z
" clip-path="url(#p6ff06f4744)" style="fill: #1f77b4"/>
   </g>
   <g id="patch_101">
    <path d="M 199.353856 307.584 
L 200.188586 307.584 
L 200.188586 305.59595 
L 199.353856 305.59595 
z
" clip-path="url(#p6ff06f4744)" style="fill: #1f77b4"/>
   </g>
   <g id="patch_102">
    <path d="M 200.381427 307.584 
L 201.216156 307.584 
L 201.216156 304.161315 
L 200.381427 304.161315 
z
" clip-path="url(#p6ff06f4744)" style="fill: #1f77b4"/>
   </g>
   <g id="patch_103">
    <path d="M 201.433309 307.584 
L 202.268039 307.584 
L 202.268039 305.773134 
L 201.433309 305.773134 
z
" clip-path="url(#p6ff06f4744)" style="fill: #1f77b4"/>
   </g>
   <g id="patch_104">
    <path d="M 202.484284 307.584 
L 203.319014 307.584 
L 203.319014 305.991572 
L 202.484284 305.991572 
z
" clip-path="url(#p6ff06f4744)" style="fill: #1f77b4"/>
   </g>
   <g id="patch_105">
    <path d="M 204.549997 307.584 
L 205.384727 307.584 
L 205.384727 304.869372 
L 204.549997 304.869372 
z
" clip-path="url(#p6ff06f4744)" style="fill: #1f77b4"/>
   </g>
   <g id="patch_106">
    <path d="M 207.707571 307.584 
L 208.542301 307.584 
L 208.542301 303.568389 
L 207.707571 303.568389 
z
" clip-path="url(#p6ff06f4744)" style="fill: #1f77b4"/>
   </g>
   <g id="patch_107">
    <path d="M 208.73441 307.584 
L 209.56914 307.584 
L 209.56914 306.00626 
L 208.73441 306.00626 
z
" clip-path="url(#p6ff06f4744)" style="fill: #1f77b4"/>
   </g>
   <g id="patch_108">
    <path d="M 208.75904 307.584 
L 209.59377 307.584 
L 209.59377 297.594116 
L 208.75904 297.594116 
z
" clip-path="url(#p6ff06f4744)" style="fill: #1f77b4"/>
   </g>
   <g id="patch_109">
    <path d="M 209.773269 307.584 
L 210.607999 307.584 
L 210.607999 305.612856 
L 209.773269 305.612856 
z
" clip-path="url(#p6ff06f4744)" style="fill: #1f77b4"/>
   </g>
   <g id="patch_110">
    <path d="M 209.810477 307.584 
L 210.645207 307.584 
L 210.645207 270.112407 
L 209.810477 270.112407 
z
" clip-path="url(#p6ff06f4744)" style="fill: #1f77b4"/>
   </g>
   <g id="patch_111">
    <path d="M 209.827926 307.584 
L 210.662656 307.584 
L 210.662656 305.889518 
L 209.827926 305.889518 
z
" clip-path="url(#p6ff06f4744)" style="fill: #1f77b4"/>
   </g>
   <g id="patch_112">
    <path d="M 210.799359 307.584 
L 211.634089 307.584 
L 211.634089 302.46837 
L 210.799359 302.46837 
z
" clip-path="url(#p6ff06f4744)" style="fill: #1f77b4"/>
   </g>
   <g id="patch_113">
    <path d="M 210.823193 307.584 
L 211.657923 307.584 
L 211.657923 305.295749 
L 210.823193 305.295749 
z
" clip-path="url(#p6ff06f4744)" style="fill: #1f77b4"/>
   </g>
   <g id="patch_114">
    <path d="M 210.838557 307.584 
L 211.673287 307.584 
L 211.673287 306.248543 
L 210.838557 306.248543 
z
" clip-path="url(#p6ff06f4744)" style="fill: #1f77b4"/>
   </g>
   <g id="patch_115">
    <path d="M 210.859095 307.584 
L 211.693825 307.584 
L 211.693825 304.35377 
L 210.859095 304.35377 
z
" clip-path="url(#p6ff06f4744)" style="fill: #1f77b4"/>
   </g>
   <g id="patch_116">
    <path d="M 211.850541 307.584 
L 212.685271 307.584 
L 212.685271 303.820356 
L 211.850541 303.820356 
z
" clip-path="url(#p6ff06f4744)" style="fill: #1f77b4"/>
   </g>
   <g id="patch_117">
    <path d="M 211.875362 307.584 
L 212.710092 307.584 
L 212.710092 304.175443 
L 211.875362 304.175443 
z
" clip-path="url(#p6ff06f4744)" style="fill: #1f77b4"/>
   </g>
   <g id="patch_118">
    <path d="M 212.902344 307.584 
L 213.737074 307.584 
L 213.737074 286.654081 
L 212.902344 286.654081 
z
" clip-path="url(#p6ff06f4744)" style="fill: #1f77b4"/>
   </g>
   <g id="patch_119">
    <path d="M 213.949864 307.584 
L 214.784594 307.584 
L 214.784594 306.252589 
L 213.949864 306.252589 
z
" clip-path="url(#p6ff06f4744)" style="fill: #1f77b4"/>
   </g>
   <g id="patch_120">
    <path d="M 214.967595 307.584 
L 215.802325 307.584 
L 215.802325 298.080382 
L 214.967595 298.080382 
z
" clip-path="url(#p6ff06f4744)" style="fill: #1f77b4"/>
   </g>
   <g id="patch_121">
    <path d="M 215.005408 307.584 
L 215.840138 307.584 
L 215.840138 304.559943 
L 215.005408 304.559943 
z
" clip-path="url(#p6ff06f4744)" style="fill: #1f77b4"/>
   </g>
   <g id="patch_122">
    <path d="M 217.070373 307.584 
L 217.905103 307.584 
L 217.905103 305.701548 
L 217.070373 305.701548 
z
" clip-path="url(#p6ff06f4744)" style="fill: #1f77b4"/>
   </g>
   <g id="patch_123">
    <path d="M 219.173708 307.584 
L 220.008438 307.584 
L 220.008438 302.931389 
L 219.173708 302.931389 
z
" clip-path="url(#p6ff06f4744)" style="fill: #1f77b4"/>
   </g>
   <g id="patch_124">
    <path d="M 222.293454 307.584 
L 223.128183 307.584 
L 223.128183 299.25487 
L 222.293454 299.25487 
z
" clip-path="url(#p6ff06f4744)" style="fill: #1f77b4"/>
   </g>
   <g id="patch_125">
    <path d="M 223.320133 307.584 
L 224.154863 307.584 
L 224.154863 291.861449 
L 223.320133 291.861449 
z
" clip-path="url(#p6ff06f4744)" style="fill: #1f77b4"/>
   </g>
   <g id="patch_126">
    <path d="M 223.341881 307.584 
L 224.176611 307.584 
L 224.176611 294.963476 
L 223.341881 294.963476 
z
" clip-path="url(#p6ff06f4744)" style="fill: #1f77b4"/>
   </g>
   <g id="patch_127">
    <path d="M 223.358567 307.584 
L 224.193297 307.584 
L 224.193297 305.50696 
L 223.358567 305.50696 
z
" clip-path="url(#p6ff06f4744)" style="fill: #1f77b4"/>
   </g>
   <g id="patch_128">
    <path d="M 224.396231 307.584 
L 225.230961 307.584 
L 225.230961 303.734939 
L 224.396231 303.734939 
z
" clip-path="url(#p6ff06f4744)" style="fill: #1f77b4"/>
   </g>
   <g id="patch_129">
    <path d="M 224.411691 307.584 
L 225.246421 307.584 
L 225.246421 305.288845 
L 224.411691 305.288845 
z
" clip-path="url(#p6ff06f4744)" style="fill: #1f77b4"/>
   </g>
   <g id="patch_130">
    <path d="M 224.433153 307.584 
L 225.267883 307.584 
L 225.267883 306.09735 
L 224.433153 306.09735 
z
" clip-path="url(#p6ff06f4744)" style="fill: #1f77b4"/>
   </g>
   <g id="patch_131">
    <path d="M 225.385161 307.584 
L 226.219891 307.584 
L 226.219891 291.004926 
L 225.385161 291.004926 
z
" clip-path="url(#p6ff06f4744)" style="fill: #1f77b4"/>
   </g>
   <g id="patch_132">
    <path d="M 225.446777 307.584 
L 226.281507 307.584 
L 226.281507 305.508543 
L 225.446777 305.508543 
z
" clip-path="url(#p6ff06f4744)" style="fill: #1f77b4"/>
   </g>
   <g id="patch_133">
    <path d="M 226.499646 307.584 
L 227.334376 307.584 
L 227.334376 291.38192 
L 226.499646 291.38192 
z
" clip-path="url(#p6ff06f4744)" style="fill: #1f77b4"/>
   </g>
   <g id="patch_134">
    <path d="M 227.510436 307.584 
L 228.345166 307.584 
L 228.345166 301.111189 
L 227.510436 301.111189 
z
" clip-path="url(#p6ff06f4744)" style="fill: #1f77b4"/>
   </g>
   <g id="patch_135">
    <path d="M 227.529112 307.584 
L 228.363842 307.584 
L 228.363842 305.528155 
L 227.529112 305.528155 
z
" clip-path="url(#p6ff06f4744)" style="fill: #1f77b4"/>
   </g>
   <g id="patch_136">
    <path d="M 227.548902 307.584 
L 228.383632 307.584 
L 228.383632 304.851531 
L 227.548902 304.851531 
z
" clip-path="url(#p6ff06f4744)" style="fill: #1f77b4"/>
   </g>
   <g id="patch_137">
    <path d="M 228.539933 307.584 
L 229.374663 307.584 
L 229.374663 305.024076 
L 228.539933 305.024076 
z
" clip-path="url(#p6ff06f4744)" style="fill: #1f77b4"/>
   </g>
   <g id="patch_138">
    <path d="M 229.591625 307.584 
L 230.426355 307.584 
L 230.426355 266.723174 
L 229.591625 266.723174 
z
" clip-path="url(#p6ff06f4744)" style="fill: #1f77b4"/>
   </g>
   <g id="patch_139">
    <path d="M 230.639002 307.584 
L 231.473732 307.584 
L 231.473732 302.976373 
L 230.639002 302.976373 
z
" clip-path="url(#p6ff06f4744)" style="fill: #1f77b4"/>
   </g>
   <g id="patch_140">
    <path d="M 231.69531 307.584 
L 232.53004 307.584 
L 232.53004 304.216381 
L 231.69531 304.216381 
z
" clip-path="url(#p6ff06f4744)" style="fill: #1f77b4"/>
   </g>
   <g id="patch_141">
    <path d="M 236.916974 307.584 
L 237.751703 307.584 
L 237.751703 300.532009 
L 236.916974 300.532009 
z
" clip-path="url(#p6ff06f4744)" style="fill: #1f77b4"/>
   </g>
   <g id="patch_142">
    <path d="M 237.94698 307.584 
L 238.78171 307.584 
L 238.78171 305.454558 
L 237.94698 305.454558 
z
" clip-path="url(#p6ff06f4744)" style="fill: #1f77b4"/>
   </g>
   <g id="patch_143">
    <path d="M 237.968697 307.584 
L 238.803427 307.584 
L 238.803427 291.41708 
L 237.968697 291.41708 
z
" clip-path="url(#p6ff06f4744)" style="fill: #1f77b4"/>
   </g>
   <g id="patch_144">
    <path d="M 239.020611 307.584 
L 239.855341 307.584 
L 239.855341 75.687843 
L 239.020611 75.687843 
z
" clip-path="url(#p6ff06f4744)" style="fill: #1f77b4"/>
   </g>
   <g id="patch_145">
    <path d="M 240.010688 307.584 
L 240.845417 307.584 
L 240.845417 305.178752 
L 240.010688 305.178752 
z
" clip-path="url(#p6ff06f4744)" style="fill: #1f77b4"/>
   </g>
   <g id="patch_146">
    <path d="M 240.033726 307.584 
L 240.868455 307.584 
L 240.868455 303.940693 
L 240.033726 303.940693 
z
" clip-path="url(#p6ff06f4744)" style="fill: #1f77b4"/>
   </g>
   <g id="patch_147">
    <path d="M 240.070631 307.584 
L 240.905361 307.584 
L 240.905361 256.630726 
L 240.070631 256.630726 
z
" clip-path="url(#p6ff06f4744)" style="fill: #1f77b4"/>
   </g>
   <g id="patch_148">
    <path d="M 241.084509 307.584 
L 241.919239 307.584 
L 241.919239 306.014955 
L 241.084509 306.014955 
z
" clip-path="url(#p6ff06f4744)" style="fill: #1f77b4"/>
   </g>
   <g id="patch_149">
    <path d="M 241.119918 307.584 
L 241.954648 307.584 
L 241.954648 302.68272 
L 241.119918 302.68272 
z
" clip-path="url(#p6ff06f4744)" style="fill: #1f77b4"/>
   </g>
   <g id="patch_150">
    <path d="M 242.133287 307.584 
L 242.968017 307.584 
L 242.968017 300.61941 
L 242.133287 300.61941 
z
" clip-path="url(#p6ff06f4744)" style="fill: #1f77b4"/>
   </g>
   <g id="patch_151">
    <path d="M 242.152313 307.584 
L 242.987043 307.584 
L 242.987043 306.426356 
L 242.152313 306.426356 
z
" clip-path="url(#p6ff06f4744)" style="fill: #1f77b4"/>
   </g>
   <g id="patch_152">
    <path d="M 243.189102 307.584 
L 244.023832 307.584 
L 244.023832 303.685555 
L 243.189102 303.685555 
z
" clip-path="url(#p6ff06f4744)" style="fill: #1f77b4"/>
   </g>
   <g id="patch_153">
    <path d="M 244.177841 307.584 
L 245.012571 307.584 
L 245.012571 295.265182 
L 244.177841 295.265182 
z
" clip-path="url(#p6ff06f4744)" style="fill: #1f77b4"/>
   </g>
   <g id="patch_154">
    <path d="M 244.215893 307.584 
L 245.050623 307.584 
L 245.050623 296.156093 
L 244.215893 296.156093 
z
" clip-path="url(#p6ff06f4744)" style="fill: #1f77b4"/>
   </g>
   <g id="patch_155">
    <path d="M 245.291466 307.584 
L 246.126196 307.584 
L 246.126196 306.435444 
L 245.291466 306.435444 
z
" clip-path="url(#p6ff06f4744)" style="fill: #1f77b4"/>
   </g>
   <g id="patch_156">
    <path d="M 246.280508 307.584 
L 247.115238 307.584 
L 247.115238 305.093272 
L 246.280508 305.093272 
z
" clip-path="url(#p6ff06f4744)" style="fill: #1f77b4"/>
   </g>
   <g id="patch_157">
    <path d="M 248.383349 307.584 
L 249.218079 307.584 
L 249.218079 305.878489 
L 248.383349 305.878489 
z
" clip-path="url(#p6ff06f4744)" style="fill: #1f77b4"/>
   </g>
   <g id="patch_158">
    <path d="M 251.503111 307.584 
L 252.33784 307.584 
L 252.33784 306.162835 
L 251.503111 306.162835 
z
" clip-path="url(#p6ff06f4744)" style="fill: #1f77b4"/>
   </g>
   <g id="patch_159">
    <path d="M 253.606509 307.584 
L 254.441239 307.584 
L 254.441239 291.485445 
L 253.606509 291.485445 
z
" clip-path="url(#p6ff06f4744)" style="fill: #1f77b4"/>
   </g>
   <g id="patch_160">
    <path d="M 253.622765 307.584 
L 254.457495 307.584 
L 254.457495 302.008822 
L 253.622765 302.008822 
z
" clip-path="url(#p6ff06f4744)" style="fill: #1f77b4"/>
   </g>
   <g id="patch_161">
    <path d="M 254.672036 307.584 
L 255.506766 307.584 
L 255.506766 268.495304 
L 254.672036 268.495304 
z
" clip-path="url(#p6ff06f4744)" style="fill: #1f77b4"/>
   </g>
   <g id="patch_162">
    <path d="M 254.692017 307.584 
L 255.526747 307.584 
L 255.526747 306.624617 
L 254.692017 306.624617 
z
" clip-path="url(#p6ff06f4744)" style="fill: #1f77b4"/>
   </g>
   <g id="patch_163">
    <path d="M 255.709526 307.584 
L 256.544256 307.584 
L 256.544256 280.935816 
L 255.709526 280.935816 
z
" clip-path="url(#p6ff06f4744)" style="fill: #1f77b4"/>
   </g>
   <g id="patch_164">
    <path d="M 256.739676 307.584 
L 257.574406 307.584 
L 257.574406 298.062913 
L 256.739676 298.062913 
z
" clip-path="url(#p6ff06f4744)" style="fill: #1f77b4"/>
   </g>
   <g id="patch_165">
    <path d="M 256.761297 307.584 
L 257.596027 307.584 
L 257.596027 54.144 
L 256.761297 54.144 
z
" clip-path="url(#p6ff06f4744)" style="fill: #1f77b4"/>
   </g>
   <g id="patch_166">
    <path d="M 257.786496 307.584 
L 258.621226 307.584 
L 258.621226 305.534371 
L 257.786496 305.534371 
z
" clip-path="url(#p6ff06f4744)" style="fill: #1f77b4"/>
   </g>
   <g id="patch_167">
    <path d="M 257.808785 307.584 
L 258.643515 307.584 
L 258.643515 283.224078 
L 257.808785 283.224078 
z
" clip-path="url(#p6ff06f4744)" style="fill: #1f77b4"/>
   </g>
   <g id="patch_168">
    <path d="M 258.801823 307.584 
L 259.636553 307.584 
L 259.636553 193.518566 
L 258.801823 193.518566 
z
" clip-path="url(#p6ff06f4744)" style="fill: #1f77b4"/>
   </g>
   <g id="patch_169">
    <path d="M 258.821072 307.584 
L 259.655802 307.584 
L 259.655802 305.036186 
L 258.821072 305.036186 
z
" clip-path="url(#p6ff06f4744)" style="fill: #1f77b4"/>
   </g>
   <g id="patch_170">
    <path d="M 259.848881 307.584 
L 260.683611 307.584 
L 260.683611 297.743233 
L 259.848881 297.743233 
z
" clip-path="url(#p6ff06f4744)" style="fill: #1f77b4"/>
   </g>
   <g id="patch_171">
    <path d="M 260.929486 307.584 
L 261.764216 307.584 
L 261.764216 303.119003 
L 260.929486 303.119003 
z
" clip-path="url(#p6ff06f4744)" style="fill: #1f77b4"/>
   </g>
   <g id="patch_172">
    <path d="M 261.980556 307.584 
L 262.815286 307.584 
L 262.815286 306.213089 
L 261.980556 306.213089 
z
" clip-path="url(#p6ff06f4744)" style="fill: #1f77b4"/>
   </g>
   <g id="patch_173">
    <path d="M 266.127729 307.584 
L 266.962459 307.584 
L 266.962459 306.055278 
L 266.127729 306.055278 
z
" clip-path="url(#p6ff06f4744)" style="fill: #1f77b4"/>
   </g>
   <g id="patch_174">
    <path d="M 269.21966 307.584 
L 270.05439 307.584 
L 270.05439 263.720751 
L 269.21966 263.720751 
z
" clip-path="url(#p6ff06f4744)" style="fill: #1f77b4"/>
   </g>
   <g id="patch_175">
    <path d="M 269.244083 307.584 
L 270.078813 307.584 
L 270.078813 302.578118 
L 269.244083 302.578118 
z
" clip-path="url(#p6ff06f4744)" style="fill: #1f77b4"/>
   </g>
   <g id="patch_176">
    <path d="M 270.265508 307.584 
L 271.100238 307.584 
L 271.100238 303.785463 
L 270.265508 303.785463 
z
" clip-path="url(#p6ff06f4744)" style="fill: #1f77b4"/>
   </g>
   <g id="patch_177">
    <path d="M 270.333619 307.584 
L 271.168349 307.584 
L 271.168349 297.387727 
L 270.333619 297.387727 
z
" clip-path="url(#p6ff06f4744)" style="fill: #1f77b4"/>
   </g>
   <g id="patch_178">
    <path d="M 271.335445 307.584 
L 272.170175 307.584 
L 272.170175 304.363026 
L 271.335445 304.363026 
z
" clip-path="url(#p6ff06f4744)" style="fill: #1f77b4"/>
   </g>
   <g id="patch_179">
    <path d="M 271.360426 307.584 
L 272.195156 307.584 
L 272.195156 302.503969 
L 271.360426 302.503969 
z
" clip-path="url(#p6ff06f4744)" style="fill: #1f77b4"/>
   </g>
   <g id="patch_180">
    <path d="M 271.385199 307.584 
L 272.219929 307.584 
L 272.219929 300.310688 
L 271.385199 300.310688 
z
" clip-path="url(#p6ff06f4744)" style="fill: #1f77b4"/>
   </g>
   <g id="patch_181">
    <path d="M 272.399046 307.584 
L 273.233776 307.584 
L 273.233776 303.43211 
L 272.399046 303.43211 
z
" clip-path="url(#p6ff06f4744)" style="fill: #1f77b4"/>
   </g>
   <g id="patch_182">
    <path d="M 272.436413 307.584 
L 273.271143 307.584 
L 273.271143 305.163305 
L 272.436413 305.163305 
z
" clip-path="url(#p6ff06f4744)" style="fill: #1f77b4"/>
   </g>
   <g id="patch_183">
    <path d="M 273.426282 307.584 
L 274.261012 307.584 
L 274.261012 304.472128 
L 273.426282 304.472128 
z
" clip-path="url(#p6ff06f4744)" style="fill: #1f77b4"/>
   </g>
   <g id="patch_184">
    <path d="M 275.529426 307.584 
L 276.364156 307.584 
L 276.364156 305.280583 
L 275.529426 305.280583 
z
" clip-path="url(#p6ff06f4744)" style="fill: #1f77b4"/>
   </g>
   <g id="patch_185">
    <path d="M 282.817567 307.584 
L 283.652297 307.584 
L 283.652297 304.452911 
L 282.817567 304.452911 
z
" clip-path="url(#p6ff06f4744)" style="fill: #1f77b4"/>
   </g>
   <g id="patch_186">
    <path d="M 283.867667 307.584 
L 284.702397 307.584 
L 284.702397 303.548233 
L 283.867667 303.548233 
z
" clip-path="url(#p6ff06f4744)" style="fill: #1f77b4"/>
   </g>
   <g id="patch_187">
    <path d="M 284.919151 307.584 
L 285.753881 307.584 
L 285.753881 303.975229 
L 284.919151 303.975229 
z
" clip-path="url(#p6ff06f4744)" style="fill: #1f77b4"/>
   </g>
   <g id="patch_188">
    <path d="M 285.984487 307.584 
L 286.819217 307.584 
L 286.819217 294.390818 
L 285.984487 294.390818 
z
" clip-path="url(#p6ff06f4744)" style="fill: #1f77b4"/>
   </g>
   <g id="patch_189">
    <path d="M 287.025766 307.584 
L 287.860496 307.584 
L 287.860496 305.408277 
L 287.025766 305.408277 
z
" clip-path="url(#p6ff06f4744)" style="fill: #1f77b4"/>
   </g>
   <g id="patch_190">
    <path d="M 288.036476 307.584 
L 288.871206 307.584 
L 288.871206 300.984641 
L 288.036476 300.984641 
z
" clip-path="url(#p6ff06f4744)" style="fill: #1f77b4"/>
   </g>
   <g id="patch_191">
    <path d="M 289.126984 307.584 
L 289.961714 307.584 
L 289.961714 301.711581 
L 289.126984 301.711581 
z
" clip-path="url(#p6ff06f4744)" style="fill: #1f77b4"/>
   </g>
   <g id="patch_192">
    <path d="M 299.543085 307.584 
L 300.377815 307.584 
L 300.377815 305.656395 
L 299.543085 305.656395 
z
" clip-path="url(#p6ff06f4744)" style="fill: #1f77b4"/>
   </g>
   <g id="patch_193">
    <path d="M 300.569334 307.584 
L 301.404064 307.584 
L 301.404064 306.227109 
L 300.569334 306.227109 
z
" clip-path="url(#p6ff06f4744)" style="fill: #1f77b4"/>
   </g>
   <g id="patch_194">
    <path d="M 300.595191 307.584 
L 301.42992 307.584 
L 301.42992 302.727377 
L 300.595191 302.727377 
z
" clip-path="url(#p6ff06f4744)" style="fill: #1f77b4"/>
   </g>
   <g id="patch_195">
    <path d="M 301.609754 307.584 
L 302.444484 307.584 
L 302.444484 305.056838 
L 301.609754 305.056838 
z
" clip-path="url(#p6ff06f4744)" style="fill: #1f77b4"/>
   </g>
   <g id="patch_196">
    <path d="M 302.635653 307.584 
L 303.470383 307.584 
L 303.470383 154.603636 
L 302.635653 154.603636 
z
" clip-path="url(#p6ff06f4744)" style="fill: #1f77b4"/>
   </g>
   <g id="patch_197">
    <path d="M 302.661604 307.584 
L 303.496334 307.584 
L 303.496334 290.5154 
L 302.661604 290.5154 
z
" clip-path="url(#p6ff06f4744)" style="fill: #1f77b4"/>
   </g>
   <g id="patch_198">
    <path d="M 303.682377 307.584 
L 304.517107 307.584 
L 304.517107 291.668044 
L 303.682377 291.668044 
z
" clip-path="url(#p6ff06f4744)" style="fill: #1f77b4"/>
   </g>
   <g id="patch_199">
    <path d="M 303.709507 307.584 
L 304.544237 307.584 
L 304.544237 305.530341 
L 303.709507 305.530341 
z
" clip-path="url(#p6ff06f4744)" style="fill: #1f77b4"/>
   </g>
   <g id="patch_200">
    <path d="M 315.196405 307.584 
L 316.031135 307.584 
L 316.031135 306.087252 
L 315.196405 306.087252 
z
" clip-path="url(#p6ff06f4744)" style="fill: #1f77b4"/>
   </g>
   <g id="patch_201">
    <path d="M 316.23364 307.584 
L 317.06837 307.584 
L 317.06837 298.746747 
L 316.23364 298.746747 
z
" clip-path="url(#p6ff06f4744)" style="fill: #1f77b4"/>
   </g>
   <g id="patch_202">
    <path d="M 317.286191 307.584 
L 318.120921 307.584 
L 318.120921 302.801257 
L 317.286191 302.801257 
z
" clip-path="url(#p6ff06f4744)" style="fill: #1f77b4"/>
   </g>
   <g id="patch_203">
    <path d="M 318.336163 307.584 
L 319.170893 307.584 
L 319.170893 299.289847 
L 318.336163 299.289847 
z
" clip-path="url(#p6ff06f4744)" style="fill: #1f77b4"/>
   </g>
   <g id="patch_204">
    <path d="M 327.702706 307.584 
L 328.537436 307.584 
L 328.537436 305.100574 
L 327.702706 305.100574 
z
" clip-path="url(#p6ff06f4744)" style="fill: #1f77b4"/>
   </g>
   <g id="patch_205">
    <path d="M 327.801959 307.584 
L 328.636689 307.584 
L 328.636689 306.48654 
L 327.801959 306.48654 
z
" clip-path="url(#p6ff06f4744)" style="fill: #1f77b4"/>
   </g>
   <g id="patch_206">
    <path d="M 328.806938 307.584 
L 329.641668 307.584 
L 329.641668 306.146916 
L 328.806938 306.146916 
z
" clip-path="url(#p6ff06f4744)" style="fill: #1f77b4"/>
   </g>
   <g id="patch_207">
    <path d="M 330.857781 307.584 
L 331.692511 307.584 
L 331.692511 306.012038 
L 330.857781 306.012038 
z
" clip-path="url(#p6ff06f4744)" style="fill: #1f77b4"/>
   </g>
   <g id="patch_208">
    <path d="M 331.904632 307.584 
L 332.739362 307.584 
L 332.739362 306.303811 
L 331.904632 306.303811 
z
" clip-path="url(#p6ff06f4744)" style="fill: #1f77b4"/>
   </g>
   <g id="patch_209">
    <path d="M 332.959858 307.584 
L 333.794588 307.584 
L 333.794588 306.38817 
L 332.959858 306.38817 
z
" clip-path="url(#p6ff06f4744)" style="fill: #1f77b4"/>
   </g>
   <g id="patch_210">
    <path d="M 335.025444 307.584 
L 335.860174 307.584 
L 335.860174 292.015174 
L 335.025444 292.015174 
z
" clip-path="url(#p6ff06f4744)" style="fill: #1f77b4"/>
   </g>
   <g id="patch_211">
    <path d="M 336.053286 307.584 
L 336.888016 307.584 
L 336.888016 303.258436 
L 336.053286 303.258436 
z
" clip-path="url(#p6ff06f4744)" style="fill: #1f77b4"/>
   </g>
   <g id="patch_212">
    <path d="M 349.649808 307.584 
L 350.484538 307.584 
L 350.484538 306.01675 
L 349.649808 306.01675 
z
" clip-path="url(#p6ff06f4744)" style="fill: #1f77b4"/>
   </g>
   <g id="patch_213">
    <path d="M 364.235006 307.584 
L 365.069735 307.584 
L 365.069735 301.437903 
L 364.235006 301.437903 
z
" clip-path="url(#p6ff06f4744)" style="fill: #1f77b4"/>
   </g>
   <g id="patch_214">
    <path d="M 365.282175 307.584 
L 366.116905 307.584 
L 366.116905 306.539065 
L 365.282175 306.539065 
z
" clip-path="url(#p6ff06f4744)" style="fill: #1f77b4"/>
   </g>
   <g id="patch_215">
    <path d="M 378.86077 307.584 
L 379.6955 307.584 
L 379.6955 304.786151 
L 378.86077 304.786151 
z
" clip-path="url(#p6ff06f4744)" style="fill: #1f77b4"/>
   </g>
   <g id="patch_216">
    <path d="M 397.652543 307.584 
L 398.487273 307.584 
L 398.487273 305.245638 
L 397.652543 305.245638 
z
" clip-path="url(#p6ff06f4744)" style="fill: #1f77b4"/>
   </g>
   <g id="matplotlib.axis_1">
    <g id="xtick_1">
     <g id="line2d_1">
      <defs>
       <path id="mfe57b8f6e0" d="M 0 0 
L 0 3.5 
" style="stroke: #000000; stroke-width: 0.8"/>
      </defs>
      <g>
       <use xlink:href="#mfe57b8f6e0" x="71.35843" y="307.584" style="stroke: #000000; stroke-width: 0.8"/>
      </g>
     </g>
     <g id="text_1">
      <!-- 50 -->
      <g transform="translate(64.99593 322.182437) scale(0.1 -0.1)">
       <defs>
        <path id="DejaVuSans-35" d="M 691 4666 
L 3169 4666 
L 3169 4134 
L 1269 4134 
L 1269 2991 
Q 1406 3038 1543 3061 
Q 1681 3084 1819 3084 
Q 2600 3084 3056 2656 
Q 3513 2228 3513 1497 
Q 3513 744 3044 326 
Q 2575 -91 1722 -91 
Q 1428 -91 1123 -41 
Q 819 9 494 109 
L 494 744 
Q 775 591 1075 516 
Q 1375 441 1709 441 
Q 2250 441 2565 725 
Q 2881 1009 2881 1497 
Q 2881 1984 2565 2268 
Q 2250 2553 1709 2553 
Q 1456 2553 1204 2497 
Q 953 2441 691 2322 
L 691 4666 
z
" transform="scale(0.015625)"/>
        <path id="DejaVuSans-30" d="M 2034 4250 
Q 1547 4250 1301 3770 
Q 1056 3291 1056 2328 
Q 1056 1369 1301 889 
Q 1547 409 2034 409 
Q 2525 409 2770 889 
Q 3016 1369 3016 2328 
Q 3016 3291 2770 3770 
Q 2525 4250 2034 4250 
z
M 2034 4750 
Q 2819 4750 3233 4129 
Q 3647 3509 3647 2328 
Q 3647 1150 3233 529 
Q 2819 -91 2034 -91 
Q 1250 -91 836 529 
Q 422 1150 422 2328 
Q 422 3509 836 4129 
Q 1250 4750 2034 4750 
z
" transform="scale(0.015625)"/>
       </defs>
       <use xlink:href="#DejaVuSans-35"/>
       <use xlink:href="#DejaVuSans-30" x="63.623047"/>
      </g>
     </g>
    </g>
    <g id="xtick_2">
     <g id="line2d_2">
      <g>
       <use xlink:href="#mfe57b8f6e0" x="123.529051" y="307.584" style="stroke: #000000; stroke-width: 0.8"/>
      </g>
     </g>
     <g id="text_2">
      <!-- 100 -->
      <g transform="translate(113.985301 322.182437) scale(0.1 -0.1)">
       <defs>
        <path id="DejaVuSans-31" d="M 794 531 
L 1825 531 
L 1825 4091 
L 703 3866 
L 703 4441 
L 1819 4666 
L 2450 4666 
L 2450 531 
L 3481 531 
L 3481 0 
L 794 0 
L 794 531 
z
" transform="scale(0.015625)"/>
       </defs>
       <use xlink:href="#DejaVuSans-31"/>
       <use xlink:href="#DejaVuSans-30" x="63.623047"/>
       <use xlink:href="#DejaVuSans-30" x="127.246094"/>
      </g>
     </g>
    </g>
    <g id="xtick_3">
     <g id="line2d_3">
      <g>
       <use xlink:href="#mfe57b8f6e0" x="175.699673" y="307.584" style="stroke: #000000; stroke-width: 0.8"/>
      </g>
     </g>
     <g id="text_3">
      <!-- 150 -->
      <g transform="translate(166.155923 322.182437) scale(0.1 -0.1)">
       <use xlink:href="#DejaVuSans-31"/>
       <use xlink:href="#DejaVuSans-35" x="63.623047"/>
       <use xlink:href="#DejaVuSans-30" x="127.246094"/>
      </g>
     </g>
    </g>
    <g id="xtick_4">
     <g id="line2d_4">
      <g>
       <use xlink:href="#mfe57b8f6e0" x="227.870294" y="307.584" style="stroke: #000000; stroke-width: 0.8"/>
      </g>
     </g>
     <g id="text_4">
      <!-- 200 -->
      <g transform="translate(218.326544 322.182437) scale(0.1 -0.1)">
       <defs>
        <path id="DejaVuSans-32" d="M 1228 531 
L 3431 531 
L 3431 0 
L 469 0 
L 469 531 
Q 828 903 1448 1529 
Q 2069 2156 2228 2338 
Q 2531 2678 2651 2914 
Q 2772 3150 2772 3378 
Q 2772 3750 2511 3984 
Q 2250 4219 1831 4219 
Q 1534 4219 1204 4116 
Q 875 4013 500 3803 
L 500 4441 
Q 881 4594 1212 4672 
Q 1544 4750 1819 4750 
Q 2544 4750 2975 4387 
Q 3406 4025 3406 3419 
Q 3406 3131 3298 2873 
Q 3191 2616 2906 2266 
Q 2828 2175 2409 1742 
Q 1991 1309 1228 531 
z
" transform="scale(0.015625)"/>
       </defs>
       <use xlink:href="#DejaVuSans-32"/>
       <use xlink:href="#DejaVuSans-30" x="63.623047"/>
       <use xlink:href="#DejaVuSans-30" x="127.246094"/>
      </g>
     </g>
    </g>
    <g id="xtick_5">
     <g id="line2d_5">
      <g>
       <use xlink:href="#mfe57b8f6e0" x="280.040915" y="307.584" style="stroke: #000000; stroke-width: 0.8"/>
      </g>
     </g>
     <g id="text_5">
      <!-- 250 -->
      <g transform="translate(270.497165 322.182437) scale(0.1 -0.1)">
       <use xlink:href="#DejaVuSans-32"/>
       <use xlink:href="#DejaVuSans-35" x="63.623047"/>
       <use xlink:href="#DejaVuSans-30" x="127.246094"/>
      </g>
     </g>
    </g>
    <g id="xtick_6">
     <g id="line2d_6">
      <g>
       <use xlink:href="#mfe57b8f6e0" x="332.211536" y="307.584" style="stroke: #000000; stroke-width: 0.8"/>
      </g>
     </g>
     <g id="text_6">
      <!-- 300 -->
      <g transform="translate(322.667786 322.182437) scale(0.1 -0.1)">
       <defs>
        <path id="DejaVuSans-33" d="M 2597 2516 
Q 3050 2419 3304 2112 
Q 3559 1806 3559 1356 
Q 3559 666 3084 287 
Q 2609 -91 1734 -91 
Q 1441 -91 1130 -33 
Q 819 25 488 141 
L 488 750 
Q 750 597 1062 519 
Q 1375 441 1716 441 
Q 2309 441 2620 675 
Q 2931 909 2931 1356 
Q 2931 1769 2642 2001 
Q 2353 2234 1838 2234 
L 1294 2234 
L 1294 2753 
L 1863 2753 
Q 2328 2753 2575 2939 
Q 2822 3125 2822 3475 
Q 2822 3834 2567 4026 
Q 2313 4219 1838 4219 
Q 1578 4219 1281 4162 
Q 984 4106 628 3988 
L 628 4550 
Q 988 4650 1302 4700 
Q 1616 4750 1894 4750 
Q 2613 4750 3031 4423 
Q 3450 4097 3450 3541 
Q 3450 3153 3228 2886 
Q 3006 2619 2597 2516 
z
" transform="scale(0.015625)"/>
       </defs>
       <use xlink:href="#DejaVuSans-33"/>
       <use xlink:href="#DejaVuSans-30" x="63.623047"/>
       <use xlink:href="#DejaVuSans-30" x="127.246094"/>
      </g>
     </g>
    </g>
    <g id="xtick_7">
     <g id="line2d_7">
      <g>
       <use xlink:href="#mfe57b8f6e0" x="384.382157" y="307.584" style="stroke: #000000; stroke-width: 0.8"/>
      </g>
     </g>
     <g id="text_7">
      <!-- 350 -->
      <g transform="translate(374.838407 322.182437) scale(0.1 -0.1)">
       <use xlink:href="#DejaVuSans-33"/>
       <use xlink:href="#DejaVuSans-35" x="63.623047"/>
       <use xlink:href="#DejaVuSans-30" x="127.246094"/>
      </g>
     </g>
    </g>
    <g id="text_8">
     <!-- ${m/z}$ -->
     <g transform="translate(226.96 335.860562) scale(0.1 -0.1)">
      <defs>
       <path id="DejaVuSans-Oblique-6d" d="M 5747 2113 
L 5338 0 
L 4763 0 
L 5166 2094 
Q 5191 2228 5203 2325 
Q 5216 2422 5216 2491 
Q 5216 2772 5059 2928 
Q 4903 3084 4622 3084 
Q 4203 3084 3875 2770 
Q 3547 2456 3450 1953 
L 3066 0 
L 2491 0 
L 2900 2094 
Q 2925 2209 2937 2307 
Q 2950 2406 2950 2484 
Q 2950 2769 2794 2926 
Q 2638 3084 2363 3084 
Q 1938 3084 1609 2770 
Q 1281 2456 1184 1953 
L 800 0 
L 225 0 
L 909 3500 
L 1484 3500 
L 1375 2956 
Q 1609 3263 1923 3423 
Q 2238 3584 2597 3584 
Q 2978 3584 3223 3384 
Q 3469 3184 3519 2828 
Q 3781 3197 4126 3390 
Q 4472 3584 4856 3584 
Q 5306 3584 5551 3325 
Q 5797 3066 5797 2591 
Q 5797 2488 5784 2364 
Q 5772 2241 5747 2113 
z
" transform="scale(0.015625)"/>
       <path id="DejaVuSans-2f" d="M 1625 4666 
L 2156 4666 
L 531 -594 
L 0 -594 
L 1625 4666 
z
" transform="scale(0.015625)"/>
       <path id="DejaVuSans-Oblique-7a" d="M 744 3500 
L 3475 3500 
L 3372 2975 
L 738 459 
L 2913 459 
L 2822 0 
L -19 0 
L 84 525 
L 2719 3041 
L 653 3041 
L 744 3500 
z
" transform="scale(0.015625)"/>
      </defs>
      <use xlink:href="#DejaVuSans-Oblique-6d" transform="translate(0 0.09375)"/>
      <use xlink:href="#DejaVuSans-2f" transform="translate(97.412109 0.09375)"/>
      <use xlink:href="#DejaVuSans-Oblique-7a" transform="translate(131.103516 0.09375)"/>
     </g>
    </g>
   </g>
   <g id="matplotlib.axis_2">
    <g id="ytick_1">
     <g id="line2d_8">
      <defs>
       <path id="m2e1a9f7583" d="M 0 0 
L -3.5 0 
" style="stroke: #000000; stroke-width: 0.8"/>
      </defs>
      <g>
       <use xlink:href="#m2e1a9f7583" x="57.6" y="307.584" style="stroke: #000000; stroke-width: 0.8"/>
      </g>
     </g>
     <g id="text_9">
      <!-- 0.0 -->
      <g transform="translate(34.696875 311.383219) scale(0.1 -0.1)">
       <defs>
        <path id="DejaVuSans-2e" d="M 684 794 
L 1344 794 
L 1344 0 
L 684 0 
L 684 794 
z
" transform="scale(0.015625)"/>
       </defs>
       <use xlink:href="#DejaVuSans-30"/>
       <use xlink:href="#DejaVuSans-2e" x="63.623047"/>
       <use xlink:href="#DejaVuSans-30" x="95.410156"/>
      </g>
     </g>
    </g>
    <g id="ytick_2">
     <g id="line2d_9">
      <g>
       <use xlink:href="#m2e1a9f7583" x="57.6" y="270.450968" style="stroke: #000000; stroke-width: 0.8"/>
      </g>
     </g>
     <g id="text_10">
      <!-- 0.2 -->
      <g transform="translate(34.696875 274.250187) scale(0.1 -0.1)">
       <use xlink:href="#DejaVuSans-30"/>
       <use xlink:href="#DejaVuSans-2e" x="63.623047"/>
       <use xlink:href="#DejaVuSans-32" x="95.410156"/>
      </g>
     </g>
    </g>
    <g id="ytick_3">
     <g id="line2d_10">
      <g>
       <use xlink:href="#m2e1a9f7583" x="57.6" y="233.317936" style="stroke: #000000; stroke-width: 0.8"/>
      </g>
     </g>
     <g id="text_11">
      <!-- 0.4 -->
      <g transform="translate(34.696875 237.117154) scale(0.1 -0.1)">
       <defs>
        <path id="DejaVuSans-34" d="M 2419 4116 
L 825 1625 
L 2419 1625 
L 2419 4116 
z
M 2253 4666 
L 3047 4666 
L 3047 1625 
L 3713 1625 
L 3713 1100 
L 3047 1100 
L 3047 0 
L 2419 0 
L 2419 1100 
L 313 1100 
L 313 1709 
L 2253 4666 
z
" transform="scale(0.015625)"/>
       </defs>
       <use xlink:href="#DejaVuSans-30"/>
       <use xlink:href="#DejaVuSans-2e" x="63.623047"/>
       <use xlink:href="#DejaVuSans-34" x="95.410156"/>
      </g>
     </g>
    </g>
    <g id="ytick_4">
     <g id="line2d_11">
      <g>
       <use xlink:href="#m2e1a9f7583" x="57.6" y="196.184903" style="stroke: #000000; stroke-width: 0.8"/>
      </g>
     </g>
     <g id="text_12">
      <!-- 0.6 -->
      <g transform="translate(34.696875 199.984122) scale(0.1 -0.1)">
       <defs>
        <path id="DejaVuSans-36" d="M 2113 2584 
Q 1688 2584 1439 2293 
Q 1191 2003 1191 1497 
Q 1191 994 1439 701 
Q 1688 409 2113 409 
Q 2538 409 2786 701 
Q 3034 994 3034 1497 
Q 3034 2003 2786 2293 
Q 2538 2584 2113 2584 
z
M 3366 4563 
L 3366 3988 
Q 3128 4100 2886 4159 
Q 2644 4219 2406 4219 
Q 1781 4219 1451 3797 
Q 1122 3375 1075 2522 
Q 1259 2794 1537 2939 
Q 1816 3084 2150 3084 
Q 2853 3084 3261 2657 
Q 3669 2231 3669 1497 
Q 3669 778 3244 343 
Q 2819 -91 2113 -91 
Q 1303 -91 875 529 
Q 447 1150 447 2328 
Q 447 3434 972 4092 
Q 1497 4750 2381 4750 
Q 2619 4750 2861 4703 
Q 3103 4656 3366 4563 
z
" transform="scale(0.015625)"/>
       </defs>
       <use xlink:href="#DejaVuSans-30"/>
       <use xlink:href="#DejaVuSans-2e" x="63.623047"/>
       <use xlink:href="#DejaVuSans-36" x="95.410156"/>
      </g>
     </g>
    </g>
    <g id="ytick_5">
     <g id="line2d_12">
      <g>
       <use xlink:href="#m2e1a9f7583" x="57.6" y="159.051871" style="stroke: #000000; stroke-width: 0.8"/>
      </g>
     </g>
     <g id="text_13">
      <!-- 0.8 -->
      <g transform="translate(34.696875 162.85109) scale(0.1 -0.1)">
       <defs>
        <path id="DejaVuSans-38" d="M 2034 2216 
Q 1584 2216 1326 1975 
Q 1069 1734 1069 1313 
Q 1069 891 1326 650 
Q 1584 409 2034 409 
Q 2484 409 2743 651 
Q 3003 894 3003 1313 
Q 3003 1734 2745 1975 
Q 2488 2216 2034 2216 
z
M 1403 2484 
Q 997 2584 770 2862 
Q 544 3141 544 3541 
Q 544 4100 942 4425 
Q 1341 4750 2034 4750 
Q 2731 4750 3128 4425 
Q 3525 4100 3525 3541 
Q 3525 3141 3298 2862 
Q 3072 2584 2669 2484 
Q 3125 2378 3379 2068 
Q 3634 1759 3634 1313 
Q 3634 634 3220 271 
Q 2806 -91 2034 -91 
Q 1263 -91 848 271 
Q 434 634 434 1313 
Q 434 1759 690 2068 
Q 947 2378 1403 2484 
z
M 1172 3481 
Q 1172 3119 1398 2916 
Q 1625 2713 2034 2713 
Q 2441 2713 2670 2916 
Q 2900 3119 2900 3481 
Q 2900 3844 2670 4047 
Q 2441 4250 2034 4250 
Q 1625 4250 1398 4047 
Q 1172 3844 1172 3481 
z
" transform="scale(0.015625)"/>
       </defs>
       <use xlink:href="#DejaVuSans-30"/>
       <use xlink:href="#DejaVuSans-2e" x="63.623047"/>
       <use xlink:href="#DejaVuSans-38" x="95.410156"/>
      </g>
     </g>
    </g>
    <g id="ytick_6">
     <g id="line2d_13">
      <g>
       <use xlink:href="#m2e1a9f7583" x="57.6" y="121.918839" style="stroke: #000000; stroke-width: 0.8"/>
      </g>
     </g>
     <g id="text_14">
      <!-- 1.0 -->
      <g transform="translate(34.696875 125.718058) scale(0.1 -0.1)">
       <use xlink:href="#DejaVuSans-31"/>
       <use xlink:href="#DejaVuSans-2e" x="63.623047"/>
       <use xlink:href="#DejaVuSans-30" x="95.410156"/>
      </g>
     </g>
    </g>
    <g id="ytick_7">
     <g id="line2d_14">
      <g>
       <use xlink:href="#m2e1a9f7583" x="57.6" y="84.785807" style="stroke: #000000; stroke-width: 0.8"/>
      </g>
     </g>
     <g id="text_15">
      <!-- 1.2 -->
      <g transform="translate(34.696875 88.585026) scale(0.1 -0.1)">
       <use xlink:href="#DejaVuSans-31"/>
       <use xlink:href="#DejaVuSans-2e" x="63.623047"/>
       <use xlink:href="#DejaVuSans-32" x="95.410156"/>
      </g>
     </g>
    </g>
    <g id="ytick_8">
     <g id="line2d_15">
      <g>
       <use xlink:href="#m2e1a9f7583" x="57.6" y="47.652775" style="stroke: #000000; stroke-width: 0.8"/>
      </g>
     </g>
     <g id="text_16">
      <!-- 1.4 -->
      <g transform="translate(34.696875 51.451993) scale(0.1 -0.1)">
       <use xlink:href="#DejaVuSans-31"/>
       <use xlink:href="#DejaVuSans-2e" x="63.623047"/>
       <use xlink:href="#DejaVuSans-34" x="95.410156"/>
      </g>
     </g>
    </g>
    <g id="text_17">
     <!-- intensities -->
     <g transform="translate(28.617187 200.3155) rotate(-90) scale(0.1 -0.1)">
      <defs>
       <path id="DejaVuSans-69" d="M 603 3500 
L 1178 3500 
L 1178 0 
L 603 0 
L 603 3500 
z
M 603 4863 
L 1178 4863 
L 1178 4134 
L 603 4134 
L 603 4863 
z
" transform="scale(0.015625)"/>
       <path id="DejaVuSans-6e" d="M 3513 2113 
L 3513 0 
L 2938 0 
L 2938 2094 
Q 2938 2591 2744 2837 
Q 2550 3084 2163 3084 
Q 1697 3084 1428 2787 
Q 1159 2491 1159 1978 
L 1159 0 
L 581 0 
L 581 3500 
L 1159 3500 
L 1159 2956 
Q 1366 3272 1645 3428 
Q 1925 3584 2291 3584 
Q 2894 3584 3203 3211 
Q 3513 2838 3513 2113 
z
" transform="scale(0.015625)"/>
       <path id="DejaVuSans-74" d="M 1172 4494 
L 1172 3500 
L 2356 3500 
L 2356 3053 
L 1172 3053 
L 1172 1153 
Q 1172 725 1289 603 
Q 1406 481 1766 481 
L 2356 481 
L 2356 0 
L 1766 0 
Q 1100 0 847 248 
Q 594 497 594 1153 
L 594 3053 
L 172 3053 
L 172 3500 
L 594 3500 
L 594 4494 
L 1172 4494 
z
" transform="scale(0.015625)"/>
       <path id="DejaVuSans-65" d="M 3597 1894 
L 3597 1613 
L 953 1613 
Q 991 1019 1311 708 
Q 1631 397 2203 397 
Q 2534 397 2845 478 
Q 3156 559 3463 722 
L 3463 178 
Q 3153 47 2828 -22 
Q 2503 -91 2169 -91 
Q 1331 -91 842 396 
Q 353 884 353 1716 
Q 353 2575 817 3079 
Q 1281 3584 2069 3584 
Q 2775 3584 3186 3129 
Q 3597 2675 3597 1894 
z
M 3022 2063 
Q 3016 2534 2758 2815 
Q 2500 3097 2075 3097 
Q 1594 3097 1305 2825 
Q 1016 2553 972 2059 
L 3022 2063 
z
" transform="scale(0.015625)"/>
       <path id="DejaVuSans-73" d="M 2834 3397 
L 2834 2853 
Q 2591 2978 2328 3040 
Q 2066 3103 1784 3103 
Q 1356 3103 1142 2972 
Q 928 2841 928 2578 
Q 928 2378 1081 2264 
Q 1234 2150 1697 2047 
L 1894 2003 
Q 2506 1872 2764 1633 
Q 3022 1394 3022 966 
Q 3022 478 2636 193 
Q 2250 -91 1575 -91 
Q 1294 -91 989 -36 
Q 684 19 347 128 
L 347 722 
Q 666 556 975 473 
Q 1284 391 1588 391 
Q 1994 391 2212 530 
Q 2431 669 2431 922 
Q 2431 1156 2273 1281 
Q 2116 1406 1581 1522 
L 1381 1569 
Q 847 1681 609 1914 
Q 372 2147 372 2553 
Q 372 3047 722 3315 
Q 1072 3584 1716 3584 
Q 2034 3584 2315 3537 
Q 2597 3491 2834 3397 
z
" transform="scale(0.015625)"/>
      </defs>
      <use xlink:href="#DejaVuSans-69"/>
      <use xlink:href="#DejaVuSans-6e" x="27.783203"/>
      <use xlink:href="#DejaVuSans-74" x="91.162109"/>
      <use xlink:href="#DejaVuSans-65" x="130.371094"/>
      <use xlink:href="#DejaVuSans-6e" x="191.894531"/>
      <use xlink:href="#DejaVuSans-73" x="255.273438"/>
      <use xlink:href="#DejaVuSans-69" x="307.373047"/>
      <use xlink:href="#DejaVuSans-74" x="335.15625"/>
      <use xlink:href="#DejaVuSans-69" x="374.365234"/>
      <use xlink:href="#DejaVuSans-65" x="402.148438"/>
      <use xlink:href="#DejaVuSans-73" x="463.671875"/>
     </g>
    </g>
    <g id="text_18">
     <!-- 1e6 -->
     <g transform="translate(57.6 38.472) scale(0.1 -0.1)">
      <use xlink:href="#DejaVuSans-31"/>
      <use xlink:href="#DejaVuSans-65" x="63.623047"/>
      <use xlink:href="#DejaVuSans-36" x="125.146484"/>
     </g>
    </g>
   </g>
   <g id="patch_217">
    <path d="M 57.6 307.584 
L 57.6 41.472 
" style="fill: none; stroke: #000000; stroke-width: 0.8; stroke-linejoin: miter; stroke-linecap: square"/>
   </g>
   <g id="patch_218">
    <path d="M 414.72 307.584 
L 414.72 41.472 
" style="fill: none; stroke: #000000; stroke-width: 0.8; stroke-linejoin: miter; stroke-linecap: square"/>
   </g>
   <g id="patch_219">
    <path d="M 57.6 307.584 
L 414.72 307.584 
" style="fill: none; stroke: #000000; stroke-width: 0.8; stroke-linejoin: miter; stroke-linecap: square"/>
   </g>
   <g id="patch_220">
    <path d="M 57.6 41.472 
L 414.72 41.472 
" style="fill: none; stroke: #000000; stroke-width: 0.8; stroke-linejoin: miter; stroke-linecap: square"/>
   </g>
   <g id="text_19">
    <!-- 102.0554 -->
    <g transform="translate(118.558967 166.022423) scale(0.06 -0.06)">
     <use xlink:href="#DejaVuSans-31"/>
     <use xlink:href="#DejaVuSans-30" x="63.623047"/>
     <use xlink:href="#DejaVuSans-32" x="127.246094"/>
     <use xlink:href="#DejaVuSans-2e" x="190.869141"/>
     <use xlink:href="#DejaVuSans-30" x="222.65625"/>
     <use xlink:href="#DejaVuSans-35" x="286.279297"/>
     <use xlink:href="#DejaVuSans-35" x="349.902344"/>
     <use xlink:href="#DejaVuSans-34" x="413.525391"/>
    </g>
   </g>
   <g id="text_20">
    <!-- 130.0651 -->
    <g transform="translate(147.784704 263.331564) scale(0.06 -0.06)">
     <use xlink:href="#DejaVuSans-31"/>
     <use xlink:href="#DejaVuSans-33" x="63.623047"/>
     <use xlink:href="#DejaVuSans-30" x="127.246094"/>
     <use xlink:href="#DejaVuSans-2e" x="190.869141"/>
     <use xlink:href="#DejaVuSans-30" x="222.65625"/>
     <use xlink:href="#DejaVuSans-36" x="286.279297"/>
     <use xlink:href="#DejaVuSans-35" x="349.902344"/>
     <use xlink:href="#DejaVuSans-31" x="413.525391"/>
    </g>
   </g>
   <g id="text_21">
    <!-- 158.0598 -->
    <g transform="translate(176.994696 279.669871) scale(0.06 -0.06)">
     <defs>
      <path id="DejaVuSans-39" d="M 703 97 
L 703 672 
Q 941 559 1184 500 
Q 1428 441 1663 441 
Q 2288 441 2617 861 
Q 2947 1281 2994 2138 
Q 2813 1869 2534 1725 
Q 2256 1581 1919 1581 
Q 1219 1581 811 2004 
Q 403 2428 403 3163 
Q 403 3881 828 4315 
Q 1253 4750 1959 4750 
Q 2769 4750 3195 4129 
Q 3622 3509 3622 2328 
Q 3622 1225 3098 567 
Q 2575 -91 1691 -91 
Q 1453 -91 1209 -44 
Q 966 3 703 97 
z
M 1959 2075 
Q 2384 2075 2632 2365 
Q 2881 2656 2881 3163 
Q 2881 3666 2632 3958 
Q 2384 4250 1959 4250 
Q 1534 4250 1286 3958 
Q 1038 3666 1038 3163 
Q 1038 2656 1286 2365 
Q 1534 2075 1959 2075 
z
" transform="scale(0.015625)"/>
     </defs>
     <use xlink:href="#DejaVuSans-31"/>
     <use xlink:href="#DejaVuSans-35" x="63.623047"/>
     <use xlink:href="#DejaVuSans-38" x="127.246094"/>
     <use xlink:href="#DejaVuSans-2e" x="190.869141"/>
     <use xlink:href="#DejaVuSans-30" x="222.65625"/>
     <use xlink:href="#DejaVuSans-35" x="286.279297"/>
     <use xlink:href="#DejaVuSans-39" x="349.902344"/>
     <use xlink:href="#DejaVuSans-38" x="413.525391"/>
    </g>
   </g>
   <g id="text_22">
    <!-- 183.0916 -->
    <g transform="translate(194.473154 267.957266) scale(0.06 -0.06)">
     <use xlink:href="#DejaVuSans-31"/>
     <use xlink:href="#DejaVuSans-38" x="63.623047"/>
     <use xlink:href="#DejaVuSans-33" x="127.246094"/>
     <use xlink:href="#DejaVuSans-2e" x="190.869141"/>
     <use xlink:href="#DejaVuSans-30" x="222.65625"/>
     <use xlink:href="#DejaVuSans-39" x="286.279297"/>
     <use xlink:href="#DejaVuSans-31" x="349.902344"/>
     <use xlink:href="#DejaVuSans-36" x="413.525391"/>
    </g>
   </g>
   <g id="text_23">
    <!-- 202.0497 -->
    <g transform="translate(220.014302 260.2445) scale(0.06 -0.06)">
     <defs>
      <path id="DejaVuSans-37" d="M 525 4666 
L 3525 4666 
L 3525 4397 
L 1831 0 
L 1172 0 
L 2766 4134 
L 525 4134 
L 525 4666 
z
" transform="scale(0.015625)"/>
     </defs>
     <use xlink:href="#DejaVuSans-32"/>
     <use xlink:href="#DejaVuSans-30" x="63.623047"/>
     <use xlink:href="#DejaVuSans-32" x="127.246094"/>
     <use xlink:href="#DejaVuSans-2e" x="190.869141"/>
     <use xlink:href="#DejaVuSans-30" x="222.65625"/>
     <use xlink:href="#DejaVuSans-34" x="286.279297"/>
     <use xlink:href="#DejaVuSans-39" x="349.902344"/>
     <use xlink:href="#DejaVuSans-37" x="413.525391"/>
    </g>
   </g>
   <g id="text_24">
    <!-- 211.0864 -->
    <g transform="translate(232.323289 80.583468) scale(0.06 -0.06)">
     <use xlink:href="#DejaVuSans-32"/>
     <use xlink:href="#DejaVuSans-31" x="63.623047"/>
     <use xlink:href="#DejaVuSans-31" x="127.246094"/>
     <use xlink:href="#DejaVuSans-2e" x="190.869141"/>
     <use xlink:href="#DejaVuSans-30" x="222.65625"/>
     <use xlink:href="#DejaVuSans-38" x="286.279297"/>
     <use xlink:href="#DejaVuSans-36" x="349.902344"/>
     <use xlink:href="#DejaVuSans-34" x="413.525391"/>
    </g>
   </g>
   <g id="text_25">
    <!-- 212.0927 -->
    <g transform="translate(233.373308 251.446351) scale(0.06 -0.06)">
     <use xlink:href="#DejaVuSans-32"/>
     <use xlink:href="#DejaVuSans-31" x="63.623047"/>
     <use xlink:href="#DejaVuSans-32" x="127.246094"/>
     <use xlink:href="#DejaVuSans-2e" x="190.869141"/>
     <use xlink:href="#DejaVuSans-30" x="222.65625"/>
     <use xlink:href="#DejaVuSans-39" x="286.279297"/>
     <use xlink:href="#DejaVuSans-32" x="349.902344"/>
     <use xlink:href="#DejaVuSans-37" x="413.525391"/>
    </g>
   </g>
   <g id="text_26">
    <!-- 226.0866 -->
    <g transform="translate(250.854714 269.070929) scale(0.06 -0.06)">
     <use xlink:href="#DejaVuSans-32"/>
     <use xlink:href="#DejaVuSans-32" x="63.623047"/>
     <use xlink:href="#DejaVuSans-36" x="127.246094"/>
     <use xlink:href="#DejaVuSans-2e" x="190.869141"/>
     <use xlink:href="#DejaVuSans-30" x="222.65625"/>
     <use xlink:href="#DejaVuSans-38" x="286.279297"/>
     <use xlink:href="#DejaVuSans-36" x="349.902344"/>
     <use xlink:href="#DejaVuSans-36" x="413.525391"/>
    </g>
   </g>
   <g id="text_27">
    <!-- 227.0809 -->
    <g transform="translate(249.012204 285.831441) scale(0.06 -0.06)">
     <use xlink:href="#DejaVuSans-32"/>
     <use xlink:href="#DejaVuSans-32" x="63.623047"/>
     <use xlink:href="#DejaVuSans-37" x="127.246094"/>
     <use xlink:href="#DejaVuSans-2e" x="190.869141"/>
     <use xlink:href="#DejaVuSans-30" x="222.65625"/>
     <use xlink:href="#DejaVuSans-38" x="286.279297"/>
     <use xlink:href="#DejaVuSans-30" x="349.902344"/>
     <use xlink:href="#DejaVuSans-39" x="413.525391"/>
    </g>
   </g>
   <g id="text_28">
    <!-- 228.089 -->
    <g transform="translate(250.532725 50.939625) scale(0.06 -0.06)">
     <use xlink:href="#DejaVuSans-32"/>
     <use xlink:href="#DejaVuSans-32" x="63.623047"/>
     <use xlink:href="#DejaVuSans-38" x="127.246094"/>
     <use xlink:href="#DejaVuSans-2e" x="190.869141"/>
     <use xlink:href="#DejaVuSans-30" x="222.65625"/>
     <use xlink:href="#DejaVuSans-38" x="286.279297"/>
     <use xlink:href="#DejaVuSans-39" x="349.902344"/>
    </g>
   </g>
   <g id="text_29">
    <!-- 230.0446 -->
    <g transform="translate(252.104501 190.314191) scale(0.06 -0.06)">
     <use xlink:href="#DejaVuSans-32"/>
     <use xlink:href="#DejaVuSans-33" x="63.623047"/>
     <use xlink:href="#DejaVuSans-30" x="127.246094"/>
     <use xlink:href="#DejaVuSans-2e" x="190.869141"/>
     <use xlink:href="#DejaVuSans-30" x="222.65625"/>
     <use xlink:href="#DejaVuSans-34" x="286.279297"/>
     <use xlink:href="#DejaVuSans-34" x="349.902344"/>
     <use xlink:href="#DejaVuSans-36" x="413.525391"/>
    </g>
   </g>
   <g id="text_30">
    <!-- 240.029 -->
    <g transform="translate(262.991087 257.096376) scale(0.06 -0.06)">
     <use xlink:href="#DejaVuSans-32"/>
     <use xlink:href="#DejaVuSans-34" x="63.623047"/>
     <use xlink:href="#DejaVuSans-30" x="127.246094"/>
     <use xlink:href="#DejaVuSans-2e" x="190.869141"/>
     <use xlink:href="#DejaVuSans-30" x="222.65625"/>
     <use xlink:href="#DejaVuSans-32" x="286.279297"/>
     <use xlink:href="#DejaVuSans-39" x="349.902344"/>
    </g>
   </g>
   <g id="text_31">
    <!-- 272.0547 -->
    <g transform="translate(295.93833 151.399261) scale(0.06 -0.06)">
     <use xlink:href="#DejaVuSans-32"/>
     <use xlink:href="#DejaVuSans-37" x="63.623047"/>
     <use xlink:href="#DejaVuSans-32" x="127.246094"/>
     <use xlink:href="#DejaVuSans-2e" x="190.869141"/>
     <use xlink:href="#DejaVuSans-30" x="222.65625"/>
     <use xlink:href="#DejaVuSans-35" x="286.279297"/>
     <use xlink:href="#DejaVuSans-34" x="349.902344"/>
     <use xlink:href="#DejaVuSans-37" x="413.525391"/>
    </g>
   </g>
   <g id="text_32">
    <!-- MS2 spectrum of ${m/z}$ 363.1173, scan time 6.21 min. -->
    <g transform="translate(57.6 24.873562) scale(0.12 -0.12)">
     <defs>
      <path id="DejaVuSans-4d" d="M 628 4666 
L 1569 4666 
L 2759 1491 
L 3956 4666 
L 4897 4666 
L 4897 0 
L 4281 0 
L 4281 4097 
L 3078 897 
L 2444 897 
L 1241 4097 
L 1241 0 
L 628 0 
L 628 4666 
z
" transform="scale(0.015625)"/>
      <path id="DejaVuSans-53" d="M 3425 4513 
L 3425 3897 
Q 3066 4069 2747 4153 
Q 2428 4238 2131 4238 
Q 1616 4238 1336 4038 
Q 1056 3838 1056 3469 
Q 1056 3159 1242 3001 
Q 1428 2844 1947 2747 
L 2328 2669 
Q 3034 2534 3370 2195 
Q 3706 1856 3706 1288 
Q 3706 609 3251 259 
Q 2797 -91 1919 -91 
Q 1588 -91 1214 -16 
Q 841 59 441 206 
L 441 856 
Q 825 641 1194 531 
Q 1563 422 1919 422 
Q 2459 422 2753 634 
Q 3047 847 3047 1241 
Q 3047 1584 2836 1778 
Q 2625 1972 2144 2069 
L 1759 2144 
Q 1053 2284 737 2584 
Q 422 2884 422 3419 
Q 422 4038 858 4394 
Q 1294 4750 2059 4750 
Q 2388 4750 2728 4690 
Q 3069 4631 3425 4513 
z
" transform="scale(0.015625)"/>
      <path id="DejaVuSans-20" transform="scale(0.015625)"/>
      <path id="DejaVuSans-70" d="M 1159 525 
L 1159 -1331 
L 581 -1331 
L 581 3500 
L 1159 3500 
L 1159 2969 
Q 1341 3281 1617 3432 
Q 1894 3584 2278 3584 
Q 2916 3584 3314 3078 
Q 3713 2572 3713 1747 
Q 3713 922 3314 415 
Q 2916 -91 2278 -91 
Q 1894 -91 1617 61 
Q 1341 213 1159 525 
z
M 3116 1747 
Q 3116 2381 2855 2742 
Q 2594 3103 2138 3103 
Q 1681 3103 1420 2742 
Q 1159 2381 1159 1747 
Q 1159 1113 1420 752 
Q 1681 391 2138 391 
Q 2594 391 2855 752 
Q 3116 1113 3116 1747 
z
" transform="scale(0.015625)"/>
      <path id="DejaVuSans-63" d="M 3122 3366 
L 3122 2828 
Q 2878 2963 2633 3030 
Q 2388 3097 2138 3097 
Q 1578 3097 1268 2742 
Q 959 2388 959 1747 
Q 959 1106 1268 751 
Q 1578 397 2138 397 
Q 2388 397 2633 464 
Q 2878 531 3122 666 
L 3122 134 
Q 2881 22 2623 -34 
Q 2366 -91 2075 -91 
Q 1284 -91 818 406 
Q 353 903 353 1747 
Q 353 2603 823 3093 
Q 1294 3584 2113 3584 
Q 2378 3584 2631 3529 
Q 2884 3475 3122 3366 
z
" transform="scale(0.015625)"/>
      <path id="DejaVuSans-72" d="M 2631 2963 
Q 2534 3019 2420 3045 
Q 2306 3072 2169 3072 
Q 1681 3072 1420 2755 
Q 1159 2438 1159 1844 
L 1159 0 
L 581 0 
L 581 3500 
L 1159 3500 
L 1159 2956 
Q 1341 3275 1631 3429 
Q 1922 3584 2338 3584 
Q 2397 3584 2469 3576 
Q 2541 3569 2628 3553 
L 2631 2963 
z
" transform="scale(0.015625)"/>
      <path id="DejaVuSans-75" d="M 544 1381 
L 544 3500 
L 1119 3500 
L 1119 1403 
Q 1119 906 1312 657 
Q 1506 409 1894 409 
Q 2359 409 2629 706 
Q 2900 1003 2900 1516 
L 2900 3500 
L 3475 3500 
L 3475 0 
L 2900 0 
L 2900 538 
Q 2691 219 2414 64 
Q 2138 -91 1772 -91 
Q 1169 -91 856 284 
Q 544 659 544 1381 
z
M 1991 3584 
L 1991 3584 
z
" transform="scale(0.015625)"/>
      <path id="DejaVuSans-6d" d="M 3328 2828 
Q 3544 3216 3844 3400 
Q 4144 3584 4550 3584 
Q 5097 3584 5394 3201 
Q 5691 2819 5691 2113 
L 5691 0 
L 5113 0 
L 5113 2094 
Q 5113 2597 4934 2840 
Q 4756 3084 4391 3084 
Q 3944 3084 3684 2787 
Q 3425 2491 3425 1978 
L 3425 0 
L 2847 0 
L 2847 2094 
Q 2847 2600 2669 2842 
Q 2491 3084 2119 3084 
Q 1678 3084 1418 2786 
Q 1159 2488 1159 1978 
L 1159 0 
L 581 0 
L 581 3500 
L 1159 3500 
L 1159 2956 
Q 1356 3278 1631 3431 
Q 1906 3584 2284 3584 
Q 2666 3584 2933 3390 
Q 3200 3197 3328 2828 
z
" transform="scale(0.015625)"/>
      <path id="DejaVuSans-6f" d="M 1959 3097 
Q 1497 3097 1228 2736 
Q 959 2375 959 1747 
Q 959 1119 1226 758 
Q 1494 397 1959 397 
Q 2419 397 2687 759 
Q 2956 1122 2956 1747 
Q 2956 2369 2687 2733 
Q 2419 3097 1959 3097 
z
M 1959 3584 
Q 2709 3584 3137 3096 
Q 3566 2609 3566 1747 
Q 3566 888 3137 398 
Q 2709 -91 1959 -91 
Q 1206 -91 779 398 
Q 353 888 353 1747 
Q 353 2609 779 3096 
Q 1206 3584 1959 3584 
z
" transform="scale(0.015625)"/>
      <path id="DejaVuSans-66" d="M 2375 4863 
L 2375 4384 
L 1825 4384 
Q 1516 4384 1395 4259 
Q 1275 4134 1275 3809 
L 1275 3500 
L 2222 3500 
L 2222 3053 
L 1275 3053 
L 1275 0 
L 697 0 
L 697 3053 
L 147 3053 
L 147 3500 
L 697 3500 
L 697 3744 
Q 697 4328 969 4595 
Q 1241 4863 1831 4863 
L 2375 4863 
z
" transform="scale(0.015625)"/>
      <path id="DejaVuSans-2c" d="M 750 794 
L 1409 794 
L 1409 256 
L 897 -744 
L 494 -744 
L 750 256 
L 750 794 
z
" transform="scale(0.015625)"/>
      <path id="DejaVuSans-61" d="M 2194 1759 
Q 1497 1759 1228 1600 
Q 959 1441 959 1056 
Q 959 750 1161 570 
Q 1363 391 1709 391 
Q 2188 391 2477 730 
Q 2766 1069 2766 1631 
L 2766 1759 
L 2194 1759 
z
M 3341 1997 
L 3341 0 
L 2766 0 
L 2766 531 
Q 2569 213 2275 61 
Q 1981 -91 1556 -91 
Q 1019 -91 701 211 
Q 384 513 384 1019 
Q 384 1609 779 1909 
Q 1175 2209 1959 2209 
L 2766 2209 
L 2766 2266 
Q 2766 2663 2505 2880 
Q 2244 3097 1772 3097 
Q 1472 3097 1187 3025 
Q 903 2953 641 2809 
L 641 3341 
Q 956 3463 1253 3523 
Q 1550 3584 1831 3584 
Q 2591 3584 2966 3190 
Q 3341 2797 3341 1997 
z
" transform="scale(0.015625)"/>
     </defs>
     <use xlink:href="#DejaVuSans-4d" transform="translate(0 0.015625)"/>
     <use xlink:href="#DejaVuSans-53" transform="translate(86.279297 0.015625)"/>
     <use xlink:href="#DejaVuSans-32" transform="translate(149.755859 0.015625)"/>
     <use xlink:href="#DejaVuSans-20" transform="translate(213.378906 0.015625)"/>
     <use xlink:href="#DejaVuSans-73" transform="translate(245.166016 0.015625)"/>
     <use xlink:href="#DejaVuSans-70" transform="translate(297.265625 0.015625)"/>
     <use xlink:href="#DejaVuSans-65" transform="translate(360.742188 0.015625)"/>
     <use xlink:href="#DejaVuSans-63" transform="translate(422.265625 0.015625)"/>
     <use xlink:href="#DejaVuSans-74" transform="translate(477.246094 0.015625)"/>
     <use xlink:href="#DejaVuSans-72" transform="translate(516.455078 0.015625)"/>
     <use xlink:href="#DejaVuSans-75" transform="translate(557.568359 0.015625)"/>
     <use xlink:href="#DejaVuSans-6d" transform="translate(620.947266 0.015625)"/>
     <use xlink:href="#DejaVuSans-20" transform="translate(718.359375 0.015625)"/>
     <use xlink:href="#DejaVuSans-6f" transform="translate(750.146484 0.015625)"/>
     <use xlink:href="#DejaVuSans-66" transform="translate(811.328125 0.015625)"/>
     <use xlink:href="#DejaVuSans-20" transform="translate(846.533203 0.015625)"/>
     <use xlink:href="#DejaVuSans-Oblique-6d" transform="translate(878.320312 0.015625)"/>
     <use xlink:href="#DejaVuSans-2f" transform="translate(975.732422 0.015625)"/>
     <use xlink:href="#DejaVuSans-Oblique-7a" transform="translate(1009.423828 0.015625)"/>
     <use xlink:href="#DejaVuSans-20" transform="translate(1061.914062 0.015625)"/>
     <use xlink:href="#DejaVuSans-33" transform="translate(1093.701172 0.015625)"/>
     <use xlink:href="#DejaVuSans-36" transform="translate(1157.324219 0.015625)"/>
     <use xlink:href="#DejaVuSans-33" transform="translate(1220.947266 0.015625)"/>
     <use xlink:href="#DejaVuSans-2e" transform="translate(1284.570312 0.015625)"/>
     <use xlink:href="#DejaVuSans-31" transform="translate(1316.357422 0.015625)"/>
     <use xlink:href="#DejaVuSans-31" transform="translate(1379.980469 0.015625)"/>
     <use xlink:href="#DejaVuSans-37" transform="translate(1443.603516 0.015625)"/>
     <use xlink:href="#DejaVuSans-33" transform="translate(1507.226562 0.015625)"/>
     <use xlink:href="#DejaVuSans-2c" transform="translate(1570.849609 0.015625)"/>
     <use xlink:href="#DejaVuSans-20" transform="translate(1602.636719 0.015625)"/>
     <use xlink:href="#DejaVuSans-73" transform="translate(1634.423828 0.015625)"/>
     <use xlink:href="#DejaVuSans-63" transform="translate(1686.523438 0.015625)"/>
     <use xlink:href="#DejaVuSans-61" transform="translate(1741.503906 0.015625)"/>
     <use xlink:href="#DejaVuSans-6e" transform="translate(1802.783203 0.015625)"/>
     <use xlink:href="#DejaVuSans-20" transform="translate(1866.162109 0.015625)"/>
     <use xlink:href="#DejaVuSans-74" transform="translate(1897.949219 0.015625)"/>
     <use xlink:href="#DejaVuSans-69" transform="translate(1937.158203 0.015625)"/>
     <use xlink:href="#DejaVuSans-6d" transform="translate(1964.941406 0.015625)"/>
     <use xlink:href="#DejaVuSans-65" transform="translate(2062.353516 0.015625)"/>
     <use xlink:href="#DejaVuSans-20" transform="translate(2123.876953 0.015625)"/>
     <use xlink:href="#DejaVuSans-36" transform="translate(2155.664062 0.015625)"/>
     <use xlink:href="#DejaVuSans-2e" transform="translate(2219.287109 0.015625)"/>
     <use xlink:href="#DejaVuSans-32" transform="translate(2245.574219 0.015625)"/>
     <use xlink:href="#DejaVuSans-31" transform="translate(2309.197266 0.015625)"/>
     <use xlink:href="#DejaVuSans-20" transform="translate(2372.820312 0.015625)"/>
     <use xlink:href="#DejaVuSans-6d" transform="translate(2404.607422 0.015625)"/>
     <use xlink:href="#DejaVuSans-69" transform="translate(2502.019531 0.015625)"/>
     <use xlink:href="#DejaVuSans-6e" transform="translate(2529.802734 0.015625)"/>
     <use xlink:href="#DejaVuSans-2e" transform="translate(2593.181641 0.015625)"/>
    </g>
   </g>
  </g>
 </g>
 <defs>
  <clipPath id="p6ff06f4744">
   <rect x="57.6" y="41.472" width="357.12" height="266.112"/>
  </clipPath>
 </defs>
</svg>
