<?xml version="1.0" encoding="utf-8" standalone="no"?>
<!DOCTYPE svg PUBLIC "-//W3C//DTD SVG 1.1//EN"
  "http://www.w3.org/Graphics/SVG/1.1/DTD/svg11.dtd">
<svg xmlns:xlink="http://www.w3.org/1999/xlink" width="460.8pt" height="345.6pt" viewBox="0 0 460.8 345.6" xmlns="http://www.w3.org/2000/svg" version="1.1">
 <metadata>
  <rdf:RDF xmlns:dc="http://purl.org/dc/elements/1.1/" xmlns:cc="http://creativecommons.org/ns#" xmlns:rdf="http://www.w3.org/1999/02/22-rdf-syntax-ns#">
   <cc:Work>
    <dc:type rdf:resource="http://purl.org/dc/dcmitype/StillImage"/>
    <dc:date>2025-01-11T13:56:13.373143</dc:date>
    <dc:format>image/svg+xml</dc:format>
    <dc:creator>
     <cc:Agent>
      <dc:title>Matplotlib v3.7.3, https://matplotlib.org/</dc:title>
     </cc:Agent>
    </dc:creator>
   </cc:Work>
  </rdf:RDF>
 </metadata>
 <defs>
  <style type="text/css">*{stroke-linejoin: round; stroke-linecap: butt}</style>
 </defs>
 <g id="figure_1">
  <g id="patch_1">
   <path d="M 0 345.6 
L 460.8 345.6 
L 460.8 0 
L 0 0 
z
" style="fill: #ffffff"/>
  </g>
  <g id="axes_1">
   <g id="patch_2">
    <path d="M 57.6 307.584 
L 414.72 307.584 
L 414.72 41.472 
L 57.6 41.472 
z
" style="fill: #ffffff"/>
   </g>
   <g id="patch_3">
    <path d="M 73.832727 307.584 
L 74.527661 307.584 
L 74.527661 304.973916 
L 73.832727 304.973916 
z
" clip-path="url(#pe98c9c81e8)" style="fill: #1f77b4"/>
   </g>
   <g id="patch_4">
    <path d="M 76.73955 307.584 
L 77.434484 307.584 
L 77.434484 304.774185 
L 76.73955 304.774185 
z
" clip-path="url(#pe98c9c81e8)" style="fill: #1f77b4"/>
   </g>
   <g id="patch_5">
    <path d="M 87.47217 307.584 
L 88.167104 307.584 
L 88.167104 304.332718 
L 87.47217 304.332718 
z
" clip-path="url(#pe98c9c81e8)" style="fill: #1f77b4"/>
   </g>
   <g id="patch_6">
    <path d="M 101.366155 307.584 
L 102.061088 307.584 
L 102.061088 303.483861 
L 101.366155 303.483861 
z
" clip-path="url(#pe98c9c81e8)" style="fill: #1f77b4"/>
   </g>
   <g id="patch_7">
    <path d="M 114.406708 307.584 
L 115.101642 307.584 
L 115.101642 304.761055 
L 114.406708 304.761055 
z
" clip-path="url(#pe98c9c81e8)" style="fill: #1f77b4"/>
   </g>
   <g id="patch_8">
    <path d="M 117.011358 307.584 
L 117.706292 307.584 
L 117.706292 157.643331 
L 117.011358 157.643331 
z
" clip-path="url(#pe98c9c81e8)" style="fill: #1f77b4"/>
   </g>
   <g id="patch_9">
    <path d="M 117.878415 307.584 
L 118.573349 307.584 
L 118.573349 303.748112 
L 117.878415 303.748112 
z
" clip-path="url(#pe98c9c81e8)" style="fill: #1f77b4"/>
   </g>
   <g id="patch_10">
    <path d="M 118.723502 307.584 
L 119.418436 307.584 
L 119.418436 304.500161 
L 118.723502 304.500161 
z
" clip-path="url(#pe98c9c81e8)" style="fill: #1f77b4"/>
   </g>
   <g id="patch_11">
    <path d="M 125.684465 307.584 
L 126.379399 307.584 
L 126.379399 303.535482 
L 125.684465 303.535482 
z
" clip-path="url(#pe98c9c81e8)" style="fill: #1f77b4"/>
   </g>
   <g id="patch_12">
    <path d="M 128.303623 307.584 
L 128.998556 307.584 
L 128.998556 302.656901 
L 128.303623 302.656901 
z
" clip-path="url(#pe98c9c81e8)" style="fill: #1f77b4"/>
   </g>
   <g id="patch_13">
    <path d="M 128.310535 307.584 
L 129.005469 307.584 
L 129.005469 295.836603 
L 128.310535 295.836603 
z
" clip-path="url(#pe98c9c81e8)" style="fill: #1f77b4"/>
   </g>
   <g id="patch_14">
    <path d="M 129.167452 307.584 
L 129.862386 307.584 
L 129.862386 299.75442 
L 129.167452 299.75442 
z
" clip-path="url(#pe98c9c81e8)" style="fill: #1f77b4"/>
   </g>
   <g id="patch_15">
    <path d="M 132.638019 307.584 
L 133.332953 307.584 
L 133.332953 302.483257 
L 132.638019 302.483257 
z
" clip-path="url(#pe98c9c81e8)" style="fill: #1f77b4"/>
   </g>
   <g id="patch_16">
    <path d="M 137.859003 307.584 
L 138.553937 307.584 
L 138.553937 304.028286 
L 137.859003 304.028286 
z
" clip-path="url(#pe98c9c81e8)" style="fill: #1f77b4"/>
   </g>
   <g id="patch_17">
    <path d="M 139.591625 307.584 
L 140.286559 307.584 
L 140.286559 301.309433 
L 139.591625 301.309433 
z
" clip-path="url(#pe98c9c81e8)" style="fill: #1f77b4"/>
   </g>
   <g id="patch_18">
    <path d="M 139.609784 307.584 
L 140.304718 307.584 
L 140.304718 302.567379 
L 139.609784 302.567379 
z
" clip-path="url(#pe98c9c81e8)" style="fill: #1f77b4"/>
   </g>
   <g id="patch_19">
    <path d="M 140.46692 307.584 
L 141.161854 307.584 
L 141.161854 304.690652 
L 140.46692 304.690652 
z
" clip-path="url(#pe98c9c81e8)" style="fill: #1f77b4"/>
   </g>
   <g id="patch_20">
    <path d="M 141.310416 307.584 
L 142.00535 307.584 
L 142.00535 303.245885 
L 141.310416 303.245885 
z
" clip-path="url(#pe98c9c81e8)" style="fill: #1f77b4"/>
   </g>
   <g id="patch_21">
    <path d="M 141.329463 307.584 
L 142.024397 307.584 
L 142.024397 289.680697 
L 141.329463 289.680697 
z
" clip-path="url(#pe98c9c81e8)" style="fill: #1f77b4"/>
   </g>
   <g id="patch_22">
    <path d="M 141.342466 307.584 
L 142.0374 307.584 
L 142.0374 264.682382 
L 141.342466 264.682382 
z
" clip-path="url(#pe98c9c81e8)" style="fill: #1f77b4"/>
   </g>
   <g id="patch_23">
    <path d="M 143.061642 307.584 
L 143.756576 307.584 
L 143.756576 294.462645 
L 143.061642 294.462645 
z
" clip-path="url(#pe98c9c81e8)" style="fill: #1f77b4"/>
   </g>
   <g id="patch_24">
    <path d="M 144.781043 307.584 
L 145.475977 307.584 
L 145.475977 300.2786 
L 144.781043 300.2786 
z
" clip-path="url(#pe98c9c81e8)" style="fill: #1f77b4"/>
   </g>
   <g id="patch_25">
    <path d="M 144.812497 307.584 
L 145.50743 307.584 
L 145.50743 303.258016 
L 144.812497 303.258016 
z
" clip-path="url(#pe98c9c81e8)" style="fill: #1f77b4"/>
   </g>
   <g id="patch_26">
    <path d="M 146.531765 307.584 
L 147.226699 307.584 
L 147.226699 300.423006 
L 146.531765 300.423006 
z
" clip-path="url(#pe98c9c81e8)" style="fill: #1f77b4"/>
   </g>
   <g id="patch_27">
    <path d="M 150.015553 307.584 
L 150.710487 307.584 
L 150.710487 294.642355 
L 150.015553 294.642355 
z
" clip-path="url(#pe98c9c81e8)" style="fill: #1f77b4"/>
   </g>
   <g id="patch_28">
    <path d="M 150.033633 307.584 
L 150.728567 307.584 
L 150.728567 303.423018 
L 150.033633 303.423018 
z
" clip-path="url(#pe98c9c81e8)" style="fill: #1f77b4"/>
   </g>
   <g id="patch_29">
    <path d="M 151.766381 307.584 
L 152.461315 307.584 
L 152.461315 301.822752 
L 151.766381 301.822752 
z
" clip-path="url(#pe98c9c81e8)" style="fill: #1f77b4"/>
   </g>
   <g id="patch_30">
    <path d="M 153.485703 307.584 
L 154.180637 307.584 
L 154.180637 300.375563 
L 153.485703 300.375563 
z
" clip-path="url(#pe98c9c81e8)" style="fill: #1f77b4"/>
   </g>
   <g id="patch_31">
    <path d="M 153.503902 307.584 
L 154.198835 307.584 
L 154.198835 302.893829 
L 153.503902 302.893829 
z
" clip-path="url(#pe98c9c81e8)" style="fill: #1f77b4"/>
   </g>
   <g id="patch_32">
    <path d="M 153.517474 307.584 
L 154.212408 307.584 
L 154.212408 304.020681 
L 153.517474 304.020681 
z
" clip-path="url(#pe98c9c81e8)" style="fill: #1f77b4"/>
   </g>
   <g id="patch_33">
    <path d="M 155.236637 307.584 
L 155.931571 307.584 
L 155.931571 291.332817 
L 155.236637 291.332817 
z
" clip-path="url(#pe98c9c81e8)" style="fill: #1f77b4"/>
   </g>
   <g id="patch_34">
    <path d="M 158.706322 307.584 
L 159.401256 307.584 
L 159.401256 303.836246 
L 158.706322 303.836246 
z
" clip-path="url(#pe98c9c81e8)" style="fill: #1f77b4"/>
   </g>
   <g id="patch_35">
    <path d="M 160.439442 307.584 
L 161.134376 307.584 
L 161.134376 304.069317 
L 160.439442 304.069317 
z
" clip-path="url(#pe98c9c81e8)" style="fill: #1f77b4"/>
   </g>
   <g id="patch_36">
    <path d="M 162.190336 307.584 
L 162.88527 307.584 
L 162.88527 300.893041 
L 162.190336 300.893041 
z
" clip-path="url(#pe98c9c81e8)" style="fill: #1f77b4"/>
   </g>
   <g id="patch_37">
    <path d="M 163.909591 307.584 
L 164.604525 307.584 
L 164.604525 296.955733 
L 163.909591 296.955733 
z
" clip-path="url(#pe98c9c81e8)" style="fill: #1f77b4"/>
   </g>
   <g id="patch_38">
    <path d="M 163.928082 307.584 
L 164.623015 307.584 
L 164.623015 295.427464 
L 163.928082 295.427464 
z
" clip-path="url(#pe98c9c81e8)" style="fill: #1f77b4"/>
   </g>
   <g id="patch_39">
    <path d="M 164.783375 307.584 
L 165.478309 307.584 
L 165.478309 296.760027 
L 164.783375 296.760027 
z
" clip-path="url(#pe98c9c81e8)" style="fill: #1f77b4"/>
   </g>
   <g id="patch_40">
    <path d="M 165.660843 307.584 
L 166.355777 307.584 
L 166.355777 288.932785 
L 165.660843 288.932785 
z
" clip-path="url(#pe98c9c81e8)" style="fill: #1f77b4"/>
   </g>
   <g id="patch_41">
    <path d="M 165.680845 307.584 
L 166.375779 307.584 
L 166.375779 301.372645 
L 165.680845 301.372645 
z
" clip-path="url(#pe98c9c81e8)" style="fill: #1f77b4"/>
   </g>
   <g id="patch_42">
    <path d="M 166.53415 307.584 
L 167.229084 307.584 
L 167.229084 304.299735 
L 166.53415 304.299735 
z
" clip-path="url(#pe98c9c81e8)" style="fill: #1f77b4"/>
   </g>
   <g id="patch_43">
    <path d="M 167.380218 307.584 
L 168.075151 307.584 
L 168.075151 289.74363 
L 167.380218 289.74363 
z
" clip-path="url(#pe98c9c81e8)" style="fill: #1f77b4"/>
   </g>
   <g id="patch_44">
    <path d="M 169.130529 307.584 
L 169.825463 307.584 
L 169.825463 302.804697 
L 169.130529 302.804697 
z
" clip-path="url(#pe98c9c81e8)" style="fill: #1f77b4"/>
   </g>
   <g id="patch_45">
    <path d="M 174.333824 307.584 
L 175.028758 307.584 
L 175.028758 295.316767 
L 174.333824 295.316767 
z
" clip-path="url(#pe98c9c81e8)" style="fill: #1f77b4"/>
   </g>
   <g id="patch_46">
    <path d="M 174.352619 307.584 
L 175.047553 307.584 
L 175.047553 303.950003 
L 174.352619 303.950003 
z
" clip-path="url(#pe98c9c81e8)" style="fill: #1f77b4"/>
   </g>
   <g id="patch_47">
    <path d="M 175.209 307.584 
L 175.903933 307.584 
L 175.903933 304.490923 
L 175.209 304.490923 
z
" clip-path="url(#pe98c9c81e8)" style="fill: #1f77b4"/>
   </g>
   <g id="patch_48">
    <path d="M 176.052748 307.584 
L 176.747682 307.584 
L 176.747682 300.406558 
L 176.052748 300.406558 
z
" clip-path="url(#pe98c9c81e8)" style="fill: #1f77b4"/>
   </g>
   <g id="patch_49">
    <path d="M 176.084361 307.584 
L 176.779294 307.584 
L 176.779294 302.693793 
L 176.084361 302.693793 
z
" clip-path="url(#pe98c9c81e8)" style="fill: #1f77b4"/>
   </g>
   <g id="patch_50">
    <path d="M 177.803629 307.584 
L 178.498563 307.584 
L 178.498563 298.457488 
L 177.803629 298.457488 
z
" clip-path="url(#pe98c9c81e8)" style="fill: #1f77b4"/>
   </g>
   <g id="patch_51">
    <path d="M 177.822623 307.584 
L 178.517557 307.584 
L 178.517557 302.030391 
L 177.822623 302.030391 
z
" clip-path="url(#pe98c9c81e8)" style="fill: #1f77b4"/>
   </g>
   <g id="patch_52">
    <path d="M 179.554656 307.584 
L 180.24959 307.584 
L 180.24959 303.140637 
L 179.554656 303.140637 
z
" clip-path="url(#pe98c9c81e8)" style="fill: #1f77b4"/>
   </g>
   <g id="patch_53">
    <path d="M 179.575267 307.584 
L 180.270201 307.584 
L 180.270201 295.64009 
L 179.575267 295.64009 
z
" clip-path="url(#pe98c9c81e8)" style="fill: #1f77b4"/>
   </g>
   <g id="patch_54">
    <path d="M 186.509004 307.584 
L 187.203938 307.584 
L 187.203938 303.648904 
L 186.509004 303.648904 
z
" clip-path="url(#pe98c9c81e8)" style="fill: #1f77b4"/>
   </g>
   <g id="patch_55">
    <path d="M 186.528913 307.584 
L 187.223847 307.584 
L 187.223847 296.429457 
L 186.528913 296.429457 
z
" clip-path="url(#pe98c9c81e8)" style="fill: #1f77b4"/>
   </g>
   <g id="patch_56">
    <path d="M 187.383729 307.584 
L 188.078663 307.584 
L 188.078663 301.758542 
L 187.383729 301.758542 
z
" clip-path="url(#pe98c9c81e8)" style="fill: #1f77b4"/>
   </g>
   <g id="patch_57">
    <path d="M 187.405308 307.584 
L 188.100242 307.584 
L 188.100242 291.465393 
L 187.405308 291.465393 
z
" clip-path="url(#pe98c9c81e8)" style="fill: #1f77b4"/>
   </g>
   <g id="patch_58">
    <path d="M 189.123251 307.584 
L 189.818185 307.584 
L 189.818185 302.58303 
L 189.123251 302.58303 
z
" clip-path="url(#pe98c9c81e8)" style="fill: #1f77b4"/>
   </g>
   <g id="patch_59">
    <path d="M 189.978624 307.584 
L 190.673557 307.584 
L 190.673557 287.89424 
L 189.978624 287.89424 
z
" clip-path="url(#pe98c9c81e8)" style="fill: #1f77b4"/>
   </g>
   <g id="patch_60">
    <path d="M 190.854488 307.584 
L 191.549422 307.584 
L 191.549422 290.526181 
L 190.854488 290.526181 
z
" clip-path="url(#pe98c9c81e8)" style="fill: #1f77b4"/>
   </g>
   <g id="patch_61">
    <path d="M 191.698422 307.584 
L 192.393356 307.584 
L 192.393356 301.949272 
L 191.698422 301.949272 
z
" clip-path="url(#pe98c9c81e8)" style="fill: #1f77b4"/>
   </g>
   <g id="patch_62">
    <path d="M 191.728762 307.584 
L 192.423696 307.584 
L 192.423696 300.105957 
L 191.728762 300.105957 
z
" clip-path="url(#pe98c9c81e8)" style="fill: #1f77b4"/>
   </g>
   <g id="patch_63">
    <path d="M 195.200052 307.584 
L 195.894985 307.584 
L 195.894985 295.989861 
L 195.200052 295.989861 
z
" clip-path="url(#pe98c9c81e8)" style="fill: #1f77b4"/>
   </g>
   <g id="patch_64">
    <path d="M 198.651817 307.584 
L 199.34675 307.584 
L 199.34675 289.186701 
L 198.651817 289.186701 
z
" clip-path="url(#pe98c9c81e8)" style="fill: #1f77b4"/>
   </g>
   <g id="patch_65">
    <path d="M 198.669883 307.584 
L 199.364817 307.584 
L 199.364817 294.592729 
L 198.669883 294.592729 
z
" clip-path="url(#pe98c9c81e8)" style="fill: #1f77b4"/>
   </g>
   <g id="patch_66">
    <path d="M 199.527045 307.584 
L 200.221979 307.584 
L 200.221979 303.476304 
L 199.527045 303.476304 
z
" clip-path="url(#pe98c9c81e8)" style="fill: #1f77b4"/>
   </g>
   <g id="patch_67">
    <path d="M 200.370926 307.584 
L 201.06586 307.584 
L 201.06586 298.590679 
L 200.370926 298.590679 
z
" clip-path="url(#pe98c9c81e8)" style="fill: #1f77b4"/>
   </g>
   <g id="patch_68">
    <path d="M 201.299253 307.584 
L 201.994187 307.584 
L 201.994187 299.479051 
L 201.299253 299.479051 
z
" clip-path="url(#pe98c9c81e8)" style="fill: #1f77b4"/>
   </g>
   <g id="patch_69">
    <path d="M 202.153645 307.584 
L 202.848579 307.584 
L 202.848579 295.258304 
L 202.153645 295.258304 
z
" clip-path="url(#pe98c9c81e8)" style="fill: #1f77b4"/>
   </g>
   <g id="patch_70">
    <path d="M 203.873112 307.584 
L 204.568046 307.584 
L 204.568046 249.653573 
L 203.873112 249.653573 
z
" clip-path="url(#pe98c9c81e8)" style="fill: #1f77b4"/>
   </g>
   <g id="patch_71">
    <path d="M 204.744695 307.584 
L 205.439629 307.584 
L 205.439629 303.999934 
L 204.744695 303.999934 
z
" clip-path="url(#pe98c9c81e8)" style="fill: #1f77b4"/>
   </g>
   <g id="patch_72">
    <path d="M 205.624311 307.584 
L 206.319245 307.584 
L 206.319245 302.336662 
L 205.624311 302.336662 
z
" clip-path="url(#pe98c9c81e8)" style="fill: #1f77b4"/>
   </g>
   <g id="patch_73">
    <path d="M 209.971571 307.584 
L 210.666505 307.584 
L 210.666505 304.193578 
L 209.971571 304.193578 
z
" clip-path="url(#pe98c9c81e8)" style="fill: #1f77b4"/>
   </g>
   <g id="patch_74">
    <path d="M 210.8468 307.584 
L 211.541733 307.584 
L 211.541733 296.337062 
L 210.8468 296.337062 
z
" clip-path="url(#pe98c9c81e8)" style="fill: #1f77b4"/>
   </g>
   <g id="patch_75">
    <path d="M 211.705884 307.584 
L 212.400817 307.584 
L 212.400817 304.003288 
L 211.705884 304.003288 
z
" clip-path="url(#pe98c9c81e8)" style="fill: #1f77b4"/>
   </g>
   <g id="patch_76">
    <path d="M 211.722943 307.584 
L 212.417876 307.584 
L 212.417876 173.459121 
L 211.722943 173.459121 
z
" clip-path="url(#pe98c9c81e8)" style="fill: #1f77b4"/>
   </g>
   <g id="patch_77">
    <path d="M 212.597681 307.584 
L 213.292614 307.584 
L 213.292614 258.673444 
L 212.597681 258.673444 
z
" clip-path="url(#pe98c9c81e8)" style="fill: #1f77b4"/>
   </g>
   <g id="patch_78">
    <path d="M 213.470523 307.584 
L 214.165457 307.584 
L 214.165457 302.766843 
L 213.470523 302.766843 
z
" clip-path="url(#pe98c9c81e8)" style="fill: #1f77b4"/>
   </g>
   <g id="patch_79">
    <path d="M 214.297252 307.584 
L 214.992186 307.584 
L 214.992186 300.625358 
L 214.297252 300.625358 
z
" clip-path="url(#pe98c9c81e8)" style="fill: #1f77b4"/>
   </g>
   <g id="patch_80">
    <path d="M 214.315332 307.584 
L 215.010266 307.584 
L 215.010266 300.662245 
L 214.315332 300.662245 
z
" clip-path="url(#pe98c9c81e8)" style="fill: #1f77b4"/>
   </g>
   <g id="patch_81">
    <path d="M 215.192522 307.584 
L 215.887456 307.584 
L 215.887456 302.424534 
L 215.192522 302.424534 
z
" clip-path="url(#pe98c9c81e8)" style="fill: #1f77b4"/>
   </g>
   <g id="patch_82">
    <path d="M 216.016096 307.584 
L 216.71103 307.584 
L 216.71103 302.774121 
L 216.016096 302.774121 
z
" clip-path="url(#pe98c9c81e8)" style="fill: #1f77b4"/>
   </g>
   <g id="patch_83">
    <path d="M 216.047471 307.584 
L 216.742404 307.584 
L 216.742404 297.684492 
L 216.047471 297.684492 
z
" clip-path="url(#pe98c9c81e8)" style="fill: #1f77b4"/>
   </g>
   <g id="patch_84">
    <path d="M 217.767322 307.584 
L 218.462256 307.584 
L 218.462256 304.026449 
L 217.767322 304.026449 
z
" clip-path="url(#pe98c9c81e8)" style="fill: #1f77b4"/>
   </g>
   <g id="patch_85">
    <path d="M 219.518283 307.584 
L 220.213216 307.584 
L 220.213216 301.668124 
L 219.518283 301.668124 
z
" clip-path="url(#pe98c9c81e8)" style="fill: #1f77b4"/>
   </g>
   <g id="patch_86">
    <path d="M 223.863382 307.584 
L 224.558316 307.584 
L 224.558316 293.829985 
L 223.863382 293.829985 
z
" clip-path="url(#pe98c9c81e8)" style="fill: #1f77b4"/>
   </g>
   <g id="patch_87">
    <path d="M 224.753204 307.584 
L 225.448138 307.584 
L 225.448138 283.090488 
L 224.753204 283.090488 
z
" clip-path="url(#pe98c9c81e8)" style="fill: #1f77b4"/>
   </g>
   <g id="patch_88">
    <path d="M 225.616821 307.584 
L 226.311755 307.584 
L 226.311755 284.951363 
L 225.616821 284.951363 
z
" clip-path="url(#pe98c9c81e8)" style="fill: #1f77b4"/>
   </g>
   <g id="patch_89">
    <path d="M 226.471916 307.584 
L 227.16685 307.584 
L 227.16685 203.13622 
L 226.471916 203.13622 
z
" clip-path="url(#pe98c9c81e8)" style="fill: #1f77b4"/>
   </g>
   <g id="patch_90">
    <path d="M 226.492447 307.584 
L 227.187381 307.584 
L 227.187381 98.376313 
L 226.492447 98.376313 
z
" clip-path="url(#pe98c9c81e8)" style="fill: #1f77b4"/>
   </g>
   <g id="patch_91">
    <path d="M 226.508857 307.584 
L 227.203791 307.584 
L 227.203791 303.476776 
L 226.508857 303.476776 
z
" clip-path="url(#pe98c9c81e8)" style="fill: #1f77b4"/>
   </g>
   <g id="patch_92">
    <path d="M 227.345686 307.584 
L 228.04062 307.584 
L 228.04062 283.502224 
L 227.345686 283.502224 
z
" clip-path="url(#pe98c9c81e8)" style="fill: #1f77b4"/>
   </g>
   <g id="patch_93">
    <path d="M 227.365144 307.584 
L 228.060078 307.584 
L 228.060078 289.965554 
L 227.365144 289.965554 
z
" clip-path="url(#pe98c9c81e8)" style="fill: #1f77b4"/>
   </g>
   <g id="patch_94">
    <path d="M 228.191502 307.584 
L 228.886436 307.584 
L 228.886436 224.779246 
L 228.191502 224.779246 
z
" clip-path="url(#pe98c9c81e8)" style="fill: #1f77b4"/>
   </g>
   <g id="patch_95">
    <path d="M 229.064331 307.584 
L 229.759265 307.584 
L 229.759265 301.56618 
L 229.064331 301.56618 
z
" clip-path="url(#pe98c9c81e8)" style="fill: #1f77b4"/>
   </g>
   <g id="patch_96">
    <path d="M 229.962981 307.584 
L 230.657915 307.584 
L 230.657915 299.787118 
L 229.962981 299.787118 
z
" clip-path="url(#pe98c9c81e8)" style="fill: #1f77b4"/>
   </g>
   <g id="patch_97">
    <path d="M 236.864602 307.584 
L 237.559536 307.584 
L 237.559536 278.155395 
L 236.864602 278.155395 
z
" clip-path="url(#pe98c9c81e8)" style="fill: #1f77b4"/>
   </g>
   <g id="patch_98">
    <path d="M 236.884445 307.584 
L 237.579379 307.584 
L 237.579379 303.5026 
L 236.884445 303.5026 
z
" clip-path="url(#pe98c9c81e8)" style="fill: #1f77b4"/>
   </g>
   <g id="patch_99">
    <path d="M 237.792399 307.584 
L 238.487333 307.584 
L 238.487333 300.559684 
L 237.792399 300.559684 
z
" clip-path="url(#pe98c9c81e8)" style="fill: #1f77b4"/>
   </g>
   <g id="patch_100">
    <path d="M 238.646765 307.584 
L 239.341698 307.584 
L 239.341698 301.820862 
L 238.646765 301.820862 
z
" clip-path="url(#pe98c9c81e8)" style="fill: #1f77b4"/>
   </g>
   <g id="patch_101">
    <path d="M 238.666991 307.584 
L 239.361925 307.584 
L 239.361925 302.746493 
L 238.666991 302.746493 
z
" clip-path="url(#pe98c9c81e8)" style="fill: #1f77b4"/>
   </g>
   <g id="patch_102">
    <path d="M 240.36659 307.584 
L 241.061523 307.584 
L 241.061523 303.470656 
L 240.36659 303.470656 
z
" clip-path="url(#pe98c9c81e8)" style="fill: #1f77b4"/>
   </g>
   <g id="patch_103">
    <path d="M 242.117245 307.584 
L 242.812179 307.584 
L 242.812179 266.081513 
L 242.117245 266.081513 
z
" clip-path="url(#pe98c9c81e8)" style="fill: #1f77b4"/>
   </g>
   <g id="patch_104">
    <path d="M 242.986377 307.584 
L 243.68131 307.584 
L 243.68131 302.979789 
L 242.986377 302.979789 
z
" clip-path="url(#pe98c9c81e8)" style="fill: #1f77b4"/>
   </g>
   <g id="patch_105">
    <path d="M 244.732459 307.584 
L 245.427393 307.584 
L 245.427393 298.038276 
L 244.732459 298.038276 
z
" clip-path="url(#pe98c9c81e8)" style="fill: #1f77b4"/>
   </g>
   <g id="patch_106">
    <path d="M 249.934575 307.584 
L 250.629509 307.584 
L 250.629509 303.236466 
L 249.934575 303.236466 
z
" clip-path="url(#pe98c9c81e8)" style="fill: #1f77b4"/>
   </g>
   <g id="patch_107">
    <path d="M 250.821852 307.584 
L 251.516786 307.584 
L 251.516786 301.992918 
L 250.821852 301.992918 
z
" clip-path="url(#pe98c9c81e8)" style="fill: #1f77b4"/>
   </g>
   <g id="patch_108">
    <path d="M 251.686225 307.584 
L 252.381159 307.584 
L 252.381159 304.457297 
L 251.686225 304.457297 
z
" clip-path="url(#pe98c9c81e8)" style="fill: #1f77b4"/>
   </g>
   <g id="patch_109">
    <path d="M 252.530318 307.584 
L 253.225252 307.584 
L 253.225252 303.521346 
L 252.530318 303.521346 
z
" clip-path="url(#pe98c9c81e8)" style="fill: #1f77b4"/>
   </g>
   <g id="patch_110">
    <path d="M 253.437477 307.584 
L 254.132411 307.584 
L 254.132411 300.068734 
L 253.437477 300.068734 
z
" clip-path="url(#pe98c9c81e8)" style="fill: #1f77b4"/>
   </g>
   <g id="patch_111">
    <path d="M 262.986667 307.584 
L 263.681601 307.584 
L 263.681601 303.853301 
L 262.986667 303.853301 
z
" clip-path="url(#pe98c9c81e8)" style="fill: #1f77b4"/>
   </g>
   <g id="patch_112">
    <path d="M 264.68429 307.584 
L 265.379224 307.584 
L 265.379224 54.144 
L 264.68429 54.144 
z
" clip-path="url(#pe98c9c81e8)" style="fill: #1f77b4"/>
   </g>
   <g id="patch_113">
    <path d="M 264.705154 307.584 
L 265.400087 307.584 
L 265.400087 290.77503 
L 264.705154 290.77503 
z
" clip-path="url(#pe98c9c81e8)" style="fill: #1f77b4"/>
   </g>
   <g id="patch_114">
    <path d="M 265.55545 307.584 
L 266.250384 307.584 
L 266.250384 279.357031 
L 265.55545 279.357031 
z
" clip-path="url(#pe98c9c81e8)" style="fill: #1f77b4"/>
   </g>
   <g id="patch_115">
    <path d="M 276.004058 307.584 
L 276.698992 307.584 
L 276.698992 291.553237 
L 276.004058 291.553237 
z
" clip-path="url(#pe98c9c81e8)" style="fill: #1f77b4"/>
   </g>
   <g id="patch_116">
    <path d="M 276.878902 307.584 
L 277.573836 307.584 
L 277.573836 299.224058 
L 276.878902 299.224058 
z
" clip-path="url(#pe98c9c81e8)" style="fill: #1f77b4"/>
   </g>
   <g id="patch_117">
    <path d="M 277.755629 307.584 
L 278.450562 307.584 
L 278.450562 281.440401 
L 277.755629 281.440401 
z
" clip-path="url(#pe98c9c81e8)" style="fill: #1f77b4"/>
   </g>
   <g id="patch_118">
    <path d="M 278.587872 307.584 
L 279.282806 307.584 
L 279.282806 305.897579 
L 278.587872 305.897579 
z
" clip-path="url(#pe98c9c81e8)" style="fill: #1f77b4"/>
   </g>
   <g id="patch_119">
    <path d="M 278.61014 307.584 
L 279.305074 307.584 
L 279.305074 238.384031 
L 278.61014 238.384031 
z
" clip-path="url(#pe98c9c81e8)" style="fill: #1f77b4"/>
   </g>
   <g id="patch_120">
    <path d="M 279.480875 307.584 
L 280.175809 307.584 
L 280.175809 302.890309 
L 279.480875 302.890309 
z
" clip-path="url(#pe98c9c81e8)" style="fill: #1f77b4"/>
   </g>
   <g id="patch_121">
    <path d="M 280.328865 307.584 
L 281.023798 307.584 
L 281.023798 304.107269 
L 280.328865 304.107269 
z
" clip-path="url(#pe98c9c81e8)" style="fill: #1f77b4"/>
   </g>
   <g id="patch_122">
    <path d="M 291.65009 307.584 
L 292.345024 307.584 
L 292.345024 292.188476 
L 291.65009 292.188476 
z
" clip-path="url(#pe98c9c81e8)" style="fill: #1f77b4"/>
   </g>
   <g id="patch_123">
    <path d="M 292.504416 307.584 
L 293.19935 307.584 
L 293.19935 202.41745 
L 292.504416 202.41745 
z
" clip-path="url(#pe98c9c81e8)" style="fill: #1f77b4"/>
   </g>
   <g id="patch_124">
    <path d="M 293.375231 307.584 
L 294.070165 307.584 
L 294.070165 298.387239 
L 293.375231 298.387239 
z
" clip-path="url(#pe98c9c81e8)" style="fill: #1f77b4"/>
   </g>
   <g id="patch_125">
    <path d="M 301.175104 307.584 
L 301.870038 307.584 
L 301.870038 303.852122 
L 301.175104 303.852122 
z
" clip-path="url(#pe98c9c81e8)" style="fill: #1f77b4"/>
   </g>
   <g id="patch_126">
    <path d="M 303.825509 307.584 
L 304.520443 307.584 
L 304.520443 299.845639 
L 303.825509 299.845639 
z
" clip-path="url(#pe98c9c81e8)" style="fill: #1f77b4"/>
   </g>
   <g id="patch_127">
    <path d="M 315.968242 307.584 
L 316.663176 307.584 
L 316.663176 247.299529 
L 315.968242 247.299529 
z
" clip-path="url(#pe98c9c81e8)" style="fill: #1f77b4"/>
   </g>
   <g id="patch_128">
    <path d="M 316.821163 307.584 
L 317.516096 307.584 
L 317.516096 264.584422 
L 316.821163 264.584422 
z
" clip-path="url(#pe98c9c81e8)" style="fill: #1f77b4"/>
   </g>
   <g id="patch_129">
    <path d="M 317.694336 307.584 
L 318.38927 307.584 
L 318.38927 300.943831 
L 317.694336 300.943831 
z
" clip-path="url(#pe98c9c81e8)" style="fill: #1f77b4"/>
   </g>
   <g id="patch_130">
    <path d="M 331.610722 307.584 
L 332.305656 307.584 
L 332.305656 304.540511 
L 331.610722 304.540511 
z
" clip-path="url(#pe98c9c81e8)" style="fill: #1f77b4"/>
   </g>
   <g id="patch_131">
    <path d="M 343.788023 307.584 
L 344.482957 307.584 
L 344.482957 268.123151 
L 343.788023 268.123151 
z
" clip-path="url(#pe98c9c81e8)" style="fill: #1f77b4"/>
   </g>
   <g id="patch_132">
    <path d="M 344.65107 307.584 
L 345.346004 307.584 
L 345.346004 304.182052 
L 344.65107 304.182052 
z
" clip-path="url(#pe98c9c81e8)" style="fill: #1f77b4"/>
   </g>
   <g id="patch_133">
    <path d="M 359.434082 307.584 
L 360.129015 307.584 
L 360.129015 284.542708 
L 359.434082 284.542708 
z
" clip-path="url(#pe98c9c81e8)" style="fill: #1f77b4"/>
   </g>
   <g id="patch_134">
    <path d="M 360.304631 307.584 
L 360.999565 307.584 
L 360.999565 304.505738 
L 360.304631 304.505738 
z
" clip-path="url(#pe98c9c81e8)" style="fill: #1f77b4"/>
   </g>
   <g id="patch_135">
    <path d="M 397.792339 307.584 
L 398.487273 307.584 
L 398.487273 301.875881 
L 397.792339 301.875881 
z
" clip-path="url(#pe98c9c81e8)" style="fill: #1f77b4"/>
   </g>
   <g id="matplotlib.axis_1">
    <g id="xtick_1">
     <g id="line2d_1">
      <defs>
       <path id="m8c566a0be6" d="M 0 0 
L 0 3.5 
" style="stroke: #000000; stroke-width: 0.8"/>
      </defs>
      <g>
       <use xlink:href="#m8c566a0be6" x="72.140004" y="307.584" style="stroke: #000000; stroke-width: 0.8"/>
      </g>
     </g>
     <g id="text_1">
      <!-- 50 -->
      <g transform="translate(65.777504 322.182437) scale(0.1 -0.1)">
       <defs>
        <path id="DejaVuSans-35" d="M 691 4666 
L 3169 4666 
L 3169 4134 
L 1269 4134 
L 1269 2991 
Q 1406 3038 1543 3061 
Q 1681 3084 1819 3084 
Q 2600 3084 3056 2656 
Q 3513 2228 3513 1497 
Q 3513 744 3044 326 
Q 2575 -91 1722 -91 
Q 1428 -91 1123 -41 
Q 819 9 494 109 
L 494 744 
Q 775 591 1075 516 
Q 1375 441 1709 441 
Q 2250 441 2565 725 
Q 2881 1009 2881 1497 
Q 2881 1984 2565 2268 
Q 2250 2553 1709 2553 
Q 1456 2553 1204 2497 
Q 953 2441 691 2322 
L 691 4666 
z
" transform="scale(0.015625)"/>
        <path id="DejaVuSans-30" d="M 2034 4250 
Q 1547 4250 1301 3770 
Q 1056 3291 1056 2328 
Q 1056 1369 1301 889 
Q 1547 409 2034 409 
Q 2525 409 2770 889 
Q 3016 1369 3016 2328 
Q 3016 3291 2770 3770 
Q 2525 4250 2034 4250 
z
M 2034 4750 
Q 2819 4750 3233 4129 
Q 3647 3509 3647 2328 
Q 3647 1150 3233 529 
Q 2819 -91 2034 -91 
Q 1250 -91 836 529 
Q 422 1150 422 2328 
Q 422 3509 836 4129 
Q 1250 4750 2034 4750 
z
" transform="scale(0.015625)"/>
       </defs>
       <use xlink:href="#DejaVuSans-35"/>
       <use xlink:href="#DejaVuSans-30" x="63.623047"/>
      </g>
     </g>
    </g>
    <g id="xtick_2">
     <g id="line2d_2">
      <g>
       <use xlink:href="#m8c566a0be6" x="115.573369" y="307.584" style="stroke: #000000; stroke-width: 0.8"/>
      </g>
     </g>
     <g id="text_2">
      <!-- 100 -->
      <g transform="translate(106.029619 322.182437) scale(0.1 -0.1)">
       <defs>
        <path id="DejaVuSans-31" d="M 794 531 
L 1825 531 
L 1825 4091 
L 703 3866 
L 703 4441 
L 1819 4666 
L 2450 4666 
L 2450 531 
L 3481 531 
L 3481 0 
L 794 0 
L 794 531 
z
" transform="scale(0.015625)"/>
       </defs>
       <use xlink:href="#DejaVuSans-31"/>
       <use xlink:href="#DejaVuSans-30" x="63.623047"/>
       <use xlink:href="#DejaVuSans-30" x="127.246094"/>
      </g>
     </g>
    </g>
    <g id="xtick_3">
     <g id="line2d_3">
      <g>
       <use xlink:href="#m8c566a0be6" x="159.006735" y="307.584" style="stroke: #000000; stroke-width: 0.8"/>
      </g>
     </g>
     <g id="text_3">
      <!-- 150 -->
      <g transform="translate(149.462985 322.182437) scale(0.1 -0.1)">
       <use xlink:href="#DejaVuSans-31"/>
       <use xlink:href="#DejaVuSans-35" x="63.623047"/>
       <use xlink:href="#DejaVuSans-30" x="127.246094"/>
      </g>
     </g>
    </g>
    <g id="xtick_4">
     <g id="line2d_4">
      <g>
       <use xlink:href="#m8c566a0be6" x="202.4401" y="307.584" style="stroke: #000000; stroke-width: 0.8"/>
      </g>
     </g>
     <g id="text_4">
      <!-- 200 -->
      <g transform="translate(192.89635 322.182437) scale(0.1 -0.1)">
       <defs>
        <path id="DejaVuSans-32" d="M 1228 531 
L 3431 531 
L 3431 0 
L 469 0 
L 469 531 
Q 828 903 1448 1529 
Q 2069 2156 2228 2338 
Q 2531 2678 2651 2914 
Q 2772 3150 2772 3378 
Q 2772 3750 2511 3984 
Q 2250 4219 1831 4219 
Q 1534 4219 1204 4116 
Q 875 4013 500 3803 
L 500 4441 
Q 881 4594 1212 4672 
Q 1544 4750 1819 4750 
Q 2544 4750 2975 4387 
Q 3406 4025 3406 3419 
Q 3406 3131 3298 2873 
Q 3191 2616 2906 2266 
Q 2828 2175 2409 1742 
Q 1991 1309 1228 531 
z
" transform="scale(0.015625)"/>
       </defs>
       <use xlink:href="#DejaVuSans-32"/>
       <use xlink:href="#DejaVuSans-30" x="63.623047"/>
       <use xlink:href="#DejaVuSans-30" x="127.246094"/>
      </g>
     </g>
    </g>
    <g id="xtick_5">
     <g id="line2d_5">
      <g>
       <use xlink:href="#m8c566a0be6" x="245.873465" y="307.584" style="stroke: #000000; stroke-width: 0.8"/>
      </g>
     </g>
     <g id="text_5">
      <!-- 250 -->
      <g transform="translate(236.329715 322.182437) scale(0.1 -0.1)">
       <use xlink:href="#DejaVuSans-32"/>
       <use xlink:href="#DejaVuSans-35" x="63.623047"/>
       <use xlink:href="#DejaVuSans-30" x="127.246094"/>
      </g>
     </g>
    </g>
    <g id="xtick_6">
     <g id="line2d_6">
      <g>
       <use xlink:href="#m8c566a0be6" x="289.306831" y="307.584" style="stroke: #000000; stroke-width: 0.8"/>
      </g>
     </g>
     <g id="text_6">
      <!-- 300 -->
      <g transform="translate(279.763081 322.182437) scale(0.1 -0.1)">
       <defs>
        <path id="DejaVuSans-33" d="M 2597 2516 
Q 3050 2419 3304 2112 
Q 3559 1806 3559 1356 
Q 3559 666 3084 287 
Q 2609 -91 1734 -91 
Q 1441 -91 1130 -33 
Q 819 25 488 141 
L 488 750 
Q 750 597 1062 519 
Q 1375 441 1716 441 
Q 2309 441 2620 675 
Q 2931 909 2931 1356 
Q 2931 1769 2642 2001 
Q 2353 2234 1838 2234 
L 1294 2234 
L 1294 2753 
L 1863 2753 
Q 2328 2753 2575 2939 
Q 2822 3125 2822 3475 
Q 2822 3834 2567 4026 
Q 2313 4219 1838 4219 
Q 1578 4219 1281 4162 
Q 984 4106 628 3988 
L 628 4550 
Q 988 4650 1302 4700 
Q 1616 4750 1894 4750 
Q 2613 4750 3031 4423 
Q 3450 4097 3450 3541 
Q 3450 3153 3228 2886 
Q 3006 2619 2597 2516 
z
" transform="scale(0.015625)"/>
       </defs>
       <use xlink:href="#DejaVuSans-33"/>
       <use xlink:href="#DejaVuSans-30" x="63.623047"/>
       <use xlink:href="#DejaVuSans-30" x="127.246094"/>
      </g>
     </g>
    </g>
    <g id="xtick_7">
     <g id="line2d_7">
      <g>
       <use xlink:href="#m8c566a0be6" x="332.740196" y="307.584" style="stroke: #000000; stroke-width: 0.8"/>
      </g>
     </g>
     <g id="text_7">
      <!-- 350 -->
      <g transform="translate(323.196446 322.182437) scale(0.1 -0.1)">
       <use xlink:href="#DejaVuSans-33"/>
       <use xlink:href="#DejaVuSans-35" x="63.623047"/>
       <use xlink:href="#DejaVuSans-30" x="127.246094"/>
      </g>
     </g>
    </g>
    <g id="xtick_8">
     <g id="line2d_8">
      <g>
       <use xlink:href="#m8c566a0be6" x="376.173562" y="307.584" style="stroke: #000000; stroke-width: 0.8"/>
      </g>
     </g>
     <g id="text_8">
      <!-- 400 -->
      <g transform="translate(366.629812 322.182437) scale(0.1 -0.1)">
       <defs>
        <path id="DejaVuSans-34" d="M 2419 4116 
L 825 1625 
L 2419 1625 
L 2419 4116 
z
M 2253 4666 
L 3047 4666 
L 3047 1625 
L 3713 1625 
L 3713 1100 
L 3047 1100 
L 3047 0 
L 2419 0 
L 2419 1100 
L 313 1100 
L 313 1709 
L 2253 4666 
z
" transform="scale(0.015625)"/>
       </defs>
       <use xlink:href="#DejaVuSans-34"/>
       <use xlink:href="#DejaVuSans-30" x="63.623047"/>
       <use xlink:href="#DejaVuSans-30" x="127.246094"/>
      </g>
     </g>
    </g>
    <g id="text_9">
     <!-- ${m/z}$ -->
     <g transform="translate(226.96 335.860562) scale(0.1 -0.1)">
      <defs>
       <path id="DejaVuSans-Oblique-6d" d="M 5747 2113 
L 5338 0 
L 4763 0 
L 5166 2094 
Q 5191 2228 5203 2325 
Q 5216 2422 5216 2491 
Q 5216 2772 5059 2928 
Q 4903 3084 4622 3084 
Q 4203 3084 3875 2770 
Q 3547 2456 3450 1953 
L 3066 0 
L 2491 0 
L 2900 2094 
Q 2925 2209 2937 2307 
Q 2950 2406 2950 2484 
Q 2950 2769 2794 2926 
Q 2638 3084 2363 3084 
Q 1938 3084 1609 2770 
Q 1281 2456 1184 1953 
L 800 0 
L 225 0 
L 909 3500 
L 1484 3500 
L 1375 2956 
Q 1609 3263 1923 3423 
Q 2238 3584 2597 3584 
Q 2978 3584 3223 3384 
Q 3469 3184 3519 2828 
Q 3781 3197 4126 3390 
Q 4472 3584 4856 3584 
Q 5306 3584 5551 3325 
Q 5797 3066 5797 2591 
Q 5797 2488 5784 2364 
Q 5772 2241 5747 2113 
z
" transform="scale(0.015625)"/>
       <path id="DejaVuSans-2f" d="M 1625 4666 
L 2156 4666 
L 531 -594 
L 0 -594 
L 1625 4666 
z
" transform="scale(0.015625)"/>
       <path id="DejaVuSans-Oblique-7a" d="M 744 3500 
L 3475 3500 
L 3372 2975 
L 738 459 
L 2913 459 
L 2822 0 
L -19 0 
L 84 525 
L 2719 3041 
L 653 3041 
L 744 3500 
z
" transform="scale(0.015625)"/>
      </defs>
      <use xlink:href="#DejaVuSans-Oblique-6d" transform="translate(0 0.09375)"/>
      <use xlink:href="#DejaVuSans-2f" transform="translate(97.412109 0.09375)"/>
      <use xlink:href="#DejaVuSans-Oblique-7a" transform="translate(131.103516 0.09375)"/>
     </g>
    </g>
   </g>
   <g id="matplotlib.axis_2">
    <g id="ytick_1">
     <g id="line2d_9">
      <defs>
       <path id="m4d3d3129da" d="M 0 0 
L -3.5 0 
" style="stroke: #000000; stroke-width: 0.8"/>
      </defs>
      <g>
       <use xlink:href="#m4d3d3129da" x="57.6" y="307.584" style="stroke: #000000; stroke-width: 0.8"/>
      </g>
     </g>
     <g id="text_10">
      <!-- 0 -->
      <g transform="translate(44.2375 311.383219) scale(0.1 -0.1)">
       <use xlink:href="#DejaVuSans-30"/>
      </g>
     </g>
    </g>
    <g id="ytick_2">
     <g id="line2d_10">
      <g>
       <use xlink:href="#m4d3d3129da" x="57.6" y="274.226062" style="stroke: #000000; stroke-width: 0.8"/>
      </g>
     </g>
     <g id="text_11">
      <!-- 50000 -->
      <g transform="translate(18.7875 278.025281) scale(0.1 -0.1)">
       <use xlink:href="#DejaVuSans-35"/>
       <use xlink:href="#DejaVuSans-30" x="63.623047"/>
       <use xlink:href="#DejaVuSans-30" x="127.246094"/>
       <use xlink:href="#DejaVuSans-30" x="190.869141"/>
       <use xlink:href="#DejaVuSans-30" x="254.492188"/>
      </g>
     </g>
    </g>
    <g id="ytick_3">
     <g id="line2d_11">
      <g>
       <use xlink:href="#m4d3d3129da" x="57.6" y="240.868124" style="stroke: #000000; stroke-width: 0.8"/>
      </g>
     </g>
     <g id="text_12">
      <!-- 100000 -->
      <g transform="translate(12.425 244.667342) scale(0.1 -0.1)">
       <use xlink:href="#DejaVuSans-31"/>
       <use xlink:href="#DejaVuSans-30" x="63.623047"/>
       <use xlink:href="#DejaVuSans-30" x="127.246094"/>
       <use xlink:href="#DejaVuSans-30" x="190.869141"/>
       <use xlink:href="#DejaVuSans-30" x="254.492188"/>
       <use xlink:href="#DejaVuSans-30" x="318.115234"/>
      </g>
     </g>
    </g>
    <g id="ytick_4">
     <g id="line2d_12">
      <g>
       <use xlink:href="#m4d3d3129da" x="57.6" y="207.510185" style="stroke: #000000; stroke-width: 0.8"/>
      </g>
     </g>
     <g id="text_13">
      <!-- 150000 -->
      <g transform="translate(12.425 211.309404) scale(0.1 -0.1)">
       <use xlink:href="#DejaVuSans-31"/>
       <use xlink:href="#DejaVuSans-35" x="63.623047"/>
       <use xlink:href="#DejaVuSans-30" x="127.246094"/>
       <use xlink:href="#DejaVuSans-30" x="190.869141"/>
       <use xlink:href="#DejaVuSans-30" x="254.492188"/>
       <use xlink:href="#DejaVuSans-30" x="318.115234"/>
      </g>
     </g>
    </g>
    <g id="ytick_5">
     <g id="line2d_13">
      <g>
       <use xlink:href="#m4d3d3129da" x="57.6" y="174.152247" style="stroke: #000000; stroke-width: 0.8"/>
      </g>
     </g>
     <g id="text_14">
      <!-- 200000 -->
      <g transform="translate(12.425 177.951466) scale(0.1 -0.1)">
       <use xlink:href="#DejaVuSans-32"/>
       <use xlink:href="#DejaVuSans-30" x="63.623047"/>
       <use xlink:href="#DejaVuSans-30" x="127.246094"/>
       <use xlink:href="#DejaVuSans-30" x="190.869141"/>
       <use xlink:href="#DejaVuSans-30" x="254.492188"/>
       <use xlink:href="#DejaVuSans-30" x="318.115234"/>
      </g>
     </g>
    </g>
    <g id="ytick_6">
     <g id="line2d_14">
      <g>
       <use xlink:href="#m4d3d3129da" x="57.6" y="140.794309" style="stroke: #000000; stroke-width: 0.8"/>
      </g>
     </g>
     <g id="text_15">
      <!-- 250000 -->
      <g transform="translate(12.425 144.593528) scale(0.1 -0.1)">
       <use xlink:href="#DejaVuSans-32"/>
       <use xlink:href="#DejaVuSans-35" x="63.623047"/>
       <use xlink:href="#DejaVuSans-30" x="127.246094"/>
       <use xlink:href="#DejaVuSans-30" x="190.869141"/>
       <use xlink:href="#DejaVuSans-30" x="254.492188"/>
       <use xlink:href="#DejaVuSans-30" x="318.115234"/>
      </g>
     </g>
    </g>
    <g id="ytick_7">
     <g id="line2d_15">
      <g>
       <use xlink:href="#m4d3d3129da" x="57.6" y="107.436371" style="stroke: #000000; stroke-width: 0.8"/>
      </g>
     </g>
     <g id="text_16">
      <!-- 300000 -->
      <g transform="translate(12.425 111.23559) scale(0.1 -0.1)">
       <use xlink:href="#DejaVuSans-33"/>
       <use xlink:href="#DejaVuSans-30" x="63.623047"/>
       <use xlink:href="#DejaVuSans-30" x="127.246094"/>
       <use xlink:href="#DejaVuSans-30" x="190.869141"/>
       <use xlink:href="#DejaVuSans-30" x="254.492188"/>
       <use xlink:href="#DejaVuSans-30" x="318.115234"/>
      </g>
     </g>
    </g>
    <g id="ytick_8">
     <g id="line2d_16">
      <g>
       <use xlink:href="#m4d3d3129da" x="57.6" y="74.078433" style="stroke: #000000; stroke-width: 0.8"/>
      </g>
     </g>
     <g id="text_17">
      <!-- 350000 -->
      <g transform="translate(12.425 77.877652) scale(0.1 -0.1)">
       <use xlink:href="#DejaVuSans-33"/>
       <use xlink:href="#DejaVuSans-35" x="63.623047"/>
       <use xlink:href="#DejaVuSans-30" x="127.246094"/>
       <use xlink:href="#DejaVuSans-30" x="190.869141"/>
       <use xlink:href="#DejaVuSans-30" x="254.492188"/>
       <use xlink:href="#DejaVuSans-30" x="318.115234"/>
      </g>
     </g>
    </g>
    <g id="text_18">
     <!-- intensities -->
     <g transform="translate(6.345312 200.3155) rotate(-90) scale(0.1 -0.1)">
      <defs>
       <path id="DejaVuSans-69" d="M 603 3500 
L 1178 3500 
L 1178 0 
L 603 0 
L 603 3500 
z
M 603 4863 
L 1178 4863 
L 1178 4134 
L 603 4134 
L 603 4863 
z
" transform="scale(0.015625)"/>
       <path id="DejaVuSans-6e" d="M 3513 2113 
L 3513 0 
L 2938 0 
L 2938 2094 
Q 2938 2591 2744 2837 
Q 2550 3084 2163 3084 
Q 1697 3084 1428 2787 
Q 1159 2491 1159 1978 
L 1159 0 
L 581 0 
L 581 3500 
L 1159 3500 
L 1159 2956 
Q 1366 3272 1645 3428 
Q 1925 3584 2291 3584 
Q 2894 3584 3203 3211 
Q 3513 2838 3513 2113 
z
" transform="scale(0.015625)"/>
       <path id="DejaVuSans-74" d="M 1172 4494 
L 1172 3500 
L 2356 3500 
L 2356 3053 
L 1172 3053 
L 1172 1153 
Q 1172 725 1289 603 
Q 1406 481 1766 481 
L 2356 481 
L 2356 0 
L 1766 0 
Q 1100 0 847 248 
Q 594 497 594 1153 
L 594 3053 
L 172 3053 
L 172 3500 
L 594 3500 
L 594 4494 
L 1172 4494 
z
" transform="scale(0.015625)"/>
       <path id="DejaVuSans-65" d="M 3597 1894 
L 3597 1613 
L 953 1613 
Q 991 1019 1311 708 
Q 1631 397 2203 397 
Q 2534 397 2845 478 
Q 3156 559 3463 722 
L 3463 178 
Q 3153 47 2828 -22 
Q 2503 -91 2169 -91 
Q 1331 -91 842 396 
Q 353 884 353 1716 
Q 353 2575 817 3079 
Q 1281 3584 2069 3584 
Q 2775 3584 3186 3129 
Q 3597 2675 3597 1894 
z
M 3022 2063 
Q 3016 2534 2758 2815 
Q 2500 3097 2075 3097 
Q 1594 3097 1305 2825 
Q 1016 2553 972 2059 
L 3022 2063 
z
" transform="scale(0.015625)"/>
       <path id="DejaVuSans-73" d="M 2834 3397 
L 2834 2853 
Q 2591 2978 2328 3040 
Q 2066 3103 1784 3103 
Q 1356 3103 1142 2972 
Q 928 2841 928 2578 
Q 928 2378 1081 2264 
Q 1234 2150 1697 2047 
L 1894 2003 
Q 2506 1872 2764 1633 
Q 3022 1394 3022 966 
Q 3022 478 2636 193 
Q 2250 -91 1575 -91 
Q 1294 -91 989 -36 
Q 684 19 347 128 
L 347 722 
Q 666 556 975 473 
Q 1284 391 1588 391 
Q 1994 391 2212 530 
Q 2431 669 2431 922 
Q 2431 1156 2273 1281 
Q 2116 1406 1581 1522 
L 1381 1569 
Q 847 1681 609 1914 
Q 372 2147 372 2553 
Q 372 3047 722 3315 
Q 1072 3584 1716 3584 
Q 2034 3584 2315 3537 
Q 2597 3491 2834 3397 
z
" transform="scale(0.015625)"/>
      </defs>
      <use xlink:href="#DejaVuSans-69"/>
      <use xlink:href="#DejaVuSans-6e" x="27.783203"/>
      <use xlink:href="#DejaVuSans-74" x="91.162109"/>
      <use xlink:href="#DejaVuSans-65" x="130.371094"/>
      <use xlink:href="#DejaVuSans-6e" x="191.894531"/>
      <use xlink:href="#DejaVuSans-73" x="255.273438"/>
      <use xlink:href="#DejaVuSans-69" x="307.373047"/>
      <use xlink:href="#DejaVuSans-74" x="335.15625"/>
      <use xlink:href="#DejaVuSans-69" x="374.365234"/>
      <use xlink:href="#DejaVuSans-65" x="402.148438"/>
      <use xlink:href="#DejaVuSans-73" x="463.671875"/>
     </g>
    </g>
   </g>
   <g id="patch_136">
    <path d="M 57.6 307.584 
L 57.6 41.472 
" style="fill: none; stroke: #000000; stroke-width: 0.8; stroke-linejoin: miter; stroke-linecap: square"/>
   </g>
   <g id="patch_137">
    <path d="M 414.72 307.584 
L 414.72 41.472 
" style="fill: none; stroke: #000000; stroke-width: 0.8; stroke-linejoin: miter; stroke-linecap: square"/>
   </g>
   <g id="patch_138">
    <path d="M 57.6 307.584 
L 414.72 307.584 
" style="fill: none; stroke: #000000; stroke-width: 0.8; stroke-linejoin: miter; stroke-linecap: square"/>
   </g>
   <g id="patch_139">
    <path d="M 57.6 41.472 
L 414.72 41.472 
" style="fill: none; stroke: #000000; stroke-width: 0.8; stroke-linejoin: miter; stroke-linecap: square"/>
   </g>
   <g id="text_19">
    <!-- 102.0554 -->
    <g transform="translate(108.084138 154.438956) scale(0.06 -0.06)">
     <defs>
      <path id="DejaVuSans-2e" d="M 684 794 
L 1344 794 
L 1344 0 
L 684 0 
L 684 794 
z
" transform="scale(0.015625)"/>
     </defs>
     <use xlink:href="#DejaVuSans-31"/>
     <use xlink:href="#DejaVuSans-30" x="63.623047"/>
     <use xlink:href="#DejaVuSans-32" x="127.246094"/>
     <use xlink:href="#DejaVuSans-2e" x="190.869141"/>
     <use xlink:href="#DejaVuSans-30" x="222.65625"/>
     <use xlink:href="#DejaVuSans-35" x="286.279297"/>
     <use xlink:href="#DejaVuSans-35" x="349.902344"/>
     <use xlink:href="#DejaVuSans-34" x="413.525391"/>
    </g>
   </g>
   <g id="text_20">
    <!-- 130.0651 -->
    <g transform="translate(132.415246 261.478007) scale(0.06 -0.06)">
     <defs>
      <path id="DejaVuSans-36" d="M 2113 2584 
Q 1688 2584 1439 2293 
Q 1191 2003 1191 1497 
Q 1191 994 1439 701 
Q 1688 409 2113 409 
Q 2538 409 2786 701 
Q 3034 994 3034 1497 
Q 3034 2003 2786 2293 
Q 2538 2584 2113 2584 
z
M 3366 4563 
L 3366 3988 
Q 3128 4100 2886 4159 
Q 2644 4219 2406 4219 
Q 1781 4219 1451 3797 
Q 1122 3375 1075 2522 
Q 1259 2794 1537 2939 
Q 1816 3084 2150 3084 
Q 2853 3084 3261 2657 
Q 3669 2231 3669 1497 
Q 3669 778 3244 343 
Q 2819 -91 2113 -91 
Q 1303 -91 875 529 
Q 447 1150 447 2328 
Q 447 3434 972 4092 
Q 1497 4750 2381 4750 
Q 2619 4750 2861 4703 
Q 3103 4656 3366 4563 
z
" transform="scale(0.015625)"/>
     </defs>
     <use xlink:href="#DejaVuSans-31"/>
     <use xlink:href="#DejaVuSans-33" x="63.623047"/>
     <use xlink:href="#DejaVuSans-30" x="127.246094"/>
     <use xlink:href="#DejaVuSans-2e" x="190.869141"/>
     <use xlink:href="#DejaVuSans-30" x="222.65625"/>
     <use xlink:href="#DejaVuSans-36" x="286.279297"/>
     <use xlink:href="#DejaVuSans-35" x="349.902344"/>
     <use xlink:href="#DejaVuSans-31" x="413.525391"/>
    </g>
   </g>
   <g id="text_21">
    <!-- 202.0497 -->
    <g transform="translate(194.225891 244.469198) scale(0.06 -0.06)">
     <defs>
      <path id="DejaVuSans-39" d="M 703 97 
L 703 672 
Q 941 559 1184 500 
Q 1428 441 1663 441 
Q 2288 441 2617 861 
Q 2947 1281 2994 2138 
Q 2813 1869 2534 1725 
Q 2256 1581 1919 1581 
Q 1219 1581 811 2004 
Q 403 2428 403 3163 
Q 403 3881 828 4315 
Q 1253 4750 1959 4750 
Q 2769 4750 3195 4129 
Q 3622 3509 3622 2328 
Q 3622 1225 3098 567 
Q 2575 -91 1691 -91 
Q 1453 -91 1209 -44 
Q 966 3 703 97 
z
M 1959 2075 
Q 2384 2075 2632 2365 
Q 2881 2656 2881 3163 
Q 2881 3666 2632 3958 
Q 2384 4250 1959 4250 
Q 1534 4250 1286 3958 
Q 1038 3666 1038 3163 
Q 1038 2656 1286 2365 
Q 1534 2075 1959 2075 
z
" transform="scale(0.015625)"/>
      <path id="DejaVuSans-37" d="M 525 4666 
L 3525 4666 
L 3525 4397 
L 1831 0 
L 1172 0 
L 2766 4134 
L 525 4134 
L 525 4666 
z
" transform="scale(0.015625)"/>
     </defs>
     <use xlink:href="#DejaVuSans-32"/>
     <use xlink:href="#DejaVuSans-30" x="63.623047"/>
     <use xlink:href="#DejaVuSans-32" x="127.246094"/>
     <use xlink:href="#DejaVuSans-2e" x="190.869141"/>
     <use xlink:href="#DejaVuSans-30" x="222.65625"/>
     <use xlink:href="#DejaVuSans-34" x="286.279297"/>
     <use xlink:href="#DejaVuSans-39" x="349.902344"/>
     <use xlink:href="#DejaVuSans-37" x="413.525391"/>
    </g>
   </g>
   <g id="text_22">
    <!-- 211.0863 -->
    <g transform="translate(202.795722 170.254746) scale(0.06 -0.06)">
     <defs>
      <path id="DejaVuSans-38" d="M 2034 2216 
Q 1584 2216 1326 1975 
Q 1069 1734 1069 1313 
Q 1069 891 1326 650 
Q 1584 409 2034 409 
Q 2484 409 2743 651 
Q 3003 894 3003 1313 
Q 3003 1734 2745 1975 
Q 2488 2216 2034 2216 
z
M 1403 2484 
Q 997 2584 770 2862 
Q 544 3141 544 3541 
Q 544 4100 942 4425 
Q 1341 4750 2034 4750 
Q 2731 4750 3128 4425 
Q 3525 4100 3525 3541 
Q 3525 3141 3298 2862 
Q 3072 2584 2669 2484 
Q 3125 2378 3379 2068 
Q 3634 1759 3634 1313 
Q 3634 634 3220 271 
Q 2806 -91 2034 -91 
Q 1263 -91 848 271 
Q 434 634 434 1313 
Q 434 1759 690 2068 
Q 947 2378 1403 2484 
z
M 1172 3481 
Q 1172 3119 1398 2916 
Q 1625 2713 2034 2713 
Q 2441 2713 2670 2916 
Q 2900 3119 2900 3481 
Q 2900 3844 2670 4047 
Q 2441 4250 2034 4250 
Q 1625 4250 1398 4047 
Q 1172 3844 1172 3481 
z
" transform="scale(0.015625)"/>
     </defs>
     <use xlink:href="#DejaVuSans-32"/>
     <use xlink:href="#DejaVuSans-31" x="63.623047"/>
     <use xlink:href="#DejaVuSans-31" x="127.246094"/>
     <use xlink:href="#DejaVuSans-2e" x="190.869141"/>
     <use xlink:href="#DejaVuSans-30" x="222.65625"/>
     <use xlink:href="#DejaVuSans-38" x="286.279297"/>
     <use xlink:href="#DejaVuSans-36" x="349.902344"/>
     <use xlink:href="#DejaVuSans-33" x="413.525391"/>
    </g>
   </g>
   <g id="text_23">
    <!-- 212.0933 -->
    <g transform="translate(205.83046 256.919005) scale(0.06 -0.06)">
     <use xlink:href="#DejaVuSans-32"/>
     <use xlink:href="#DejaVuSans-31" x="63.623047"/>
     <use xlink:href="#DejaVuSans-32" x="127.246094"/>
     <use xlink:href="#DejaVuSans-2e" x="190.869141"/>
     <use xlink:href="#DejaVuSans-30" x="222.65625"/>
     <use xlink:href="#DejaVuSans-39" x="286.279297"/>
     <use xlink:href="#DejaVuSans-33" x="349.902344"/>
     <use xlink:href="#DejaVuSans-33" x="413.525391"/>
    </g>
   </g>
   <g id="text_24">
    <!-- 228.0652 -->
    <g transform="translate(217.200778 197.951845) scale(0.06 -0.06)">
     <use xlink:href="#DejaVuSans-32"/>
     <use xlink:href="#DejaVuSans-32" x="63.623047"/>
     <use xlink:href="#DejaVuSans-38" x="127.246094"/>
     <use xlink:href="#DejaVuSans-2e" x="190.869141"/>
     <use xlink:href="#DejaVuSans-30" x="222.65625"/>
     <use xlink:href="#DejaVuSans-36" x="286.279297"/>
     <use xlink:href="#DejaVuSans-35" x="349.902344"/>
     <use xlink:href="#DejaVuSans-32" x="413.525391"/>
    </g>
   </g>
   <g id="text_25">
    <!-- 228.0888 -->
    <g transform="translate(217.565227 95.171938) scale(0.06 -0.06)">
     <use xlink:href="#DejaVuSans-32"/>
     <use xlink:href="#DejaVuSans-32" x="63.623047"/>
     <use xlink:href="#DejaVuSans-38" x="127.246094"/>
     <use xlink:href="#DejaVuSans-2e" x="190.869141"/>
     <use xlink:href="#DejaVuSans-30" x="222.65625"/>
     <use xlink:href="#DejaVuSans-38" x="286.279297"/>
     <use xlink:href="#DejaVuSans-38" x="349.902344"/>
     <use xlink:href="#DejaVuSans-38" x="413.525391"/>
    </g>
   </g>
   <g id="text_26">
    <!-- 230.0447 -->
    <g transform="translate(221.59624 229.674871) scale(0.06 -0.06)">
     <use xlink:href="#DejaVuSans-32"/>
     <use xlink:href="#DejaVuSans-33" x="63.623047"/>
     <use xlink:href="#DejaVuSans-30" x="127.246094"/>
     <use xlink:href="#DejaVuSans-2e" x="190.869141"/>
     <use xlink:href="#DejaVuSans-30" x="222.65625"/>
     <use xlink:href="#DejaVuSans-34" x="286.279297"/>
     <use xlink:href="#DejaVuSans-34" x="349.902344"/>
     <use xlink:href="#DejaVuSans-37" x="413.525391"/>
    </g>
   </g>
   <g id="text_27">
    <!-- 240.0291 -->
    <g transform="translate(218.577382 283.05102) scale(0.06 -0.06)">
     <use xlink:href="#DejaVuSans-32"/>
     <use xlink:href="#DejaVuSans-34" x="63.623047"/>
     <use xlink:href="#DejaVuSans-30" x="127.246094"/>
     <use xlink:href="#DejaVuSans-2e" x="190.869141"/>
     <use xlink:href="#DejaVuSans-30" x="222.65625"/>
     <use xlink:href="#DejaVuSans-32" x="286.279297"/>
     <use xlink:href="#DejaVuSans-39" x="349.902344"/>
     <use xlink:href="#DejaVuSans-31" x="413.525391"/>
    </g>
   </g>
   <g id="text_28">
    <!-- 246.0759 -->
    <g transform="translate(232.470025 260.897138) scale(0.06 -0.06)">
     <use xlink:href="#DejaVuSans-32"/>
     <use xlink:href="#DejaVuSans-34" x="63.623047"/>
     <use xlink:href="#DejaVuSans-36" x="127.246094"/>
     <use xlink:href="#DejaVuSans-2e" x="190.869141"/>
     <use xlink:href="#DejaVuSans-30" x="222.65625"/>
     <use xlink:href="#DejaVuSans-37" x="286.279297"/>
     <use xlink:href="#DejaVuSans-35" x="349.902344"/>
     <use xlink:href="#DejaVuSans-39" x="413.525391"/>
    </g>
   </g>
   <g id="text_29">
    <!-- 272.0548 -->
    <g transform="translate(255.75707 50.939625) scale(0.06 -0.06)">
     <use xlink:href="#DejaVuSans-32"/>
     <use xlink:href="#DejaVuSans-37" x="63.623047"/>
     <use xlink:href="#DejaVuSans-32" x="127.246094"/>
     <use xlink:href="#DejaVuSans-2e" x="190.869141"/>
     <use xlink:href="#DejaVuSans-30" x="222.65625"/>
     <use xlink:href="#DejaVuSans-35" x="286.279297"/>
     <use xlink:href="#DejaVuSans-34" x="349.902344"/>
     <use xlink:href="#DejaVuSans-38" x="413.525391"/>
    </g>
   </g>
   <g id="text_30">
    <!-- 273.0577 -->
    <g transform="translate(245.012014 273.867046) scale(0.06 -0.06)">
     <use xlink:href="#DejaVuSans-32"/>
     <use xlink:href="#DejaVuSans-37" x="63.623047"/>
     <use xlink:href="#DejaVuSans-33" x="127.246094"/>
     <use xlink:href="#DejaVuSans-2e" x="190.869141"/>
     <use xlink:href="#DejaVuSans-30" x="222.65625"/>
     <use xlink:href="#DejaVuSans-35" x="286.279297"/>
     <use xlink:href="#DejaVuSans-37" x="349.902344"/>
     <use xlink:href="#DejaVuSans-37" x="413.525391"/>
    </g>
   </g>
   <g id="text_31">
    <!-- 287.1024 -->
    <g transform="translate(274.588408 279.817711) scale(0.06 -0.06)">
     <use xlink:href="#DejaVuSans-32"/>
     <use xlink:href="#DejaVuSans-38" x="63.623047"/>
     <use xlink:href="#DejaVuSans-37" x="127.246094"/>
     <use xlink:href="#DejaVuSans-2e" x="190.869141"/>
     <use xlink:href="#DejaVuSans-31" x="222.65625"/>
     <use xlink:href="#DejaVuSans-30" x="286.279297"/>
     <use xlink:href="#DejaVuSans-32" x="349.902344"/>
     <use xlink:href="#DejaVuSans-34" x="413.525391"/>
    </g>
   </g>
   <g id="text_32">
    <!-- 288.0861 -->
    <g transform="translate(269.682919 235.179656) scale(0.06 -0.06)">
     <use xlink:href="#DejaVuSans-32"/>
     <use xlink:href="#DejaVuSans-38" x="63.623047"/>
     <use xlink:href="#DejaVuSans-38" x="127.246094"/>
     <use xlink:href="#DejaVuSans-2e" x="190.869141"/>
     <use xlink:href="#DejaVuSans-30" x="222.65625"/>
     <use xlink:href="#DejaVuSans-38" x="286.279297"/>
     <use xlink:href="#DejaVuSans-36" x="349.902344"/>
     <use xlink:href="#DejaVuSans-31" x="413.525391"/>
    </g>
   </g>
   <g id="text_33">
    <!-- 304.081 -->
    <g transform="translate(285.485945 199.213075) scale(0.06 -0.06)">
     <use xlink:href="#DejaVuSans-33"/>
     <use xlink:href="#DejaVuSans-30" x="63.623047"/>
     <use xlink:href="#DejaVuSans-34" x="127.246094"/>
     <use xlink:href="#DejaVuSans-2e" x="190.869141"/>
     <use xlink:href="#DejaVuSans-30" x="222.65625"/>
     <use xlink:href="#DejaVuSans-38" x="286.279297"/>
     <use xlink:href="#DejaVuSans-31" x="349.902344"/>
    </g>
   </g>
   <g id="text_34">
    <!-- 331.0923 -->
    <g transform="translate(306.870437 242.115154) scale(0.06 -0.06)">
     <use xlink:href="#DejaVuSans-33"/>
     <use xlink:href="#DejaVuSans-33" x="63.623047"/>
     <use xlink:href="#DejaVuSans-31" x="127.246094"/>
     <use xlink:href="#DejaVuSans-2e" x="190.869141"/>
     <use xlink:href="#DejaVuSans-30" x="222.65625"/>
     <use xlink:href="#DejaVuSans-39" x="286.279297"/>
     <use xlink:href="#DejaVuSans-32" x="349.902344"/>
     <use xlink:href="#DejaVuSans-33" x="413.525391"/>
    </g>
   </g>
   <g id="text_35">
    <!-- 332.0742 -->
    <g transform="translate(305.013942 262.523763) scale(0.06 -0.06)">
     <use xlink:href="#DejaVuSans-33"/>
     <use xlink:href="#DejaVuSans-33" x="63.623047"/>
     <use xlink:href="#DejaVuSans-32" x="127.246094"/>
     <use xlink:href="#DejaVuSans-2e" x="190.869141"/>
     <use xlink:href="#DejaVuSans-30" x="222.65625"/>
     <use xlink:href="#DejaVuSans-37" x="286.279297"/>
     <use xlink:href="#DejaVuSans-34" x="349.902344"/>
     <use xlink:href="#DejaVuSans-32" x="413.525391"/>
    </g>
   </g>
   <g id="text_36">
    <!-- 363.1181 -->
    <g transform="translate(335.580802 265.068141) scale(0.06 -0.06)">
     <use xlink:href="#DejaVuSans-33"/>
     <use xlink:href="#DejaVuSans-36" x="63.623047"/>
     <use xlink:href="#DejaVuSans-33" x="127.246094"/>
     <use xlink:href="#DejaVuSans-2e" x="190.869141"/>
     <use xlink:href="#DejaVuSans-31" x="222.65625"/>
     <use xlink:href="#DejaVuSans-31" x="286.279297"/>
     <use xlink:href="#DejaVuSans-38" x="349.902344"/>
     <use xlink:href="#DejaVuSans-31" x="413.525391"/>
    </g>
   </g>
   <g id="text_37">
    <!-- MS2 spectrum of ${m/z}$ 426.1854, scan time 6.23 min. -->
    <g transform="translate(57.6 35.472) scale(0.12 -0.12)">
     <defs>
      <path id="DejaVuSans-4d" d="M 628 4666 
L 1569 4666 
L 2759 1491 
L 3956 4666 
L 4897 4666 
L 4897 0 
L 4281 0 
L 4281 4097 
L 3078 897 
L 2444 897 
L 1241 4097 
L 1241 0 
L 628 0 
L 628 4666 
z
" transform="scale(0.015625)"/>
      <path id="DejaVuSans-53" d="M 3425 4513 
L 3425 3897 
Q 3066 4069 2747 4153 
Q 2428 4238 2131 4238 
Q 1616 4238 1336 4038 
Q 1056 3838 1056 3469 
Q 1056 3159 1242 3001 
Q 1428 2844 1947 2747 
L 2328 2669 
Q 3034 2534 3370 2195 
Q 3706 1856 3706 1288 
Q 3706 609 3251 259 
Q 2797 -91 1919 -91 
Q 1588 -91 1214 -16 
Q 841 59 441 206 
L 441 856 
Q 825 641 1194 531 
Q 1563 422 1919 422 
Q 2459 422 2753 634 
Q 3047 847 3047 1241 
Q 3047 1584 2836 1778 
Q 2625 1972 2144 2069 
L 1759 2144 
Q 1053 2284 737 2584 
Q 422 2884 422 3419 
Q 422 4038 858 4394 
Q 1294 4750 2059 4750 
Q 2388 4750 2728 4690 
Q 3069 4631 3425 4513 
z
" transform="scale(0.015625)"/>
      <path id="DejaVuSans-20" transform="scale(0.015625)"/>
      <path id="DejaVuSans-70" d="M 1159 525 
L 1159 -1331 
L 581 -1331 
L 581 3500 
L 1159 3500 
L 1159 2969 
Q 1341 3281 1617 3432 
Q 1894 3584 2278 3584 
Q 2916 3584 3314 3078 
Q 3713 2572 3713 1747 
Q 3713 922 3314 415 
Q 2916 -91 2278 -91 
Q 1894 -91 1617 61 
Q 1341 213 1159 525 
z
M 3116 1747 
Q 3116 2381 2855 2742 
Q 2594 3103 2138 3103 
Q 1681 3103 1420 2742 
Q 1159 2381 1159 1747 
Q 1159 1113 1420 752 
Q 1681 391 2138 391 
Q 2594 391 2855 752 
Q 3116 1113 3116 1747 
z
" transform="scale(0.015625)"/>
      <path id="DejaVuSans-63" d="M 3122 3366 
L 3122 2828 
Q 2878 2963 2633 3030 
Q 2388 3097 2138 3097 
Q 1578 3097 1268 2742 
Q 959 2388 959 1747 
Q 959 1106 1268 751 
Q 1578 397 2138 397 
Q 2388 397 2633 464 
Q 2878 531 3122 666 
L 3122 134 
Q 2881 22 2623 -34 
Q 2366 -91 2075 -91 
Q 1284 -91 818 406 
Q 353 903 353 1747 
Q 353 2603 823 3093 
Q 1294 3584 2113 3584 
Q 2378 3584 2631 3529 
Q 2884 3475 3122 3366 
z
" transform="scale(0.015625)"/>
      <path id="DejaVuSans-72" d="M 2631 2963 
Q 2534 3019 2420 3045 
Q 2306 3072 2169 3072 
Q 1681 3072 1420 2755 
Q 1159 2438 1159 1844 
L 1159 0 
L 581 0 
L 581 3500 
L 1159 3500 
L 1159 2956 
Q 1341 3275 1631 3429 
Q 1922 3584 2338 3584 
Q 2397 3584 2469 3576 
Q 2541 3569 2628 3553 
L 2631 2963 
z
" transform="scale(0.015625)"/>
      <path id="DejaVuSans-75" d="M 544 1381 
L 544 3500 
L 1119 3500 
L 1119 1403 
Q 1119 906 1312 657 
Q 1506 409 1894 409 
Q 2359 409 2629 706 
Q 2900 1003 2900 1516 
L 2900 3500 
L 3475 3500 
L 3475 0 
L 2900 0 
L 2900 538 
Q 2691 219 2414 64 
Q 2138 -91 1772 -91 
Q 1169 -91 856 284 
Q 544 659 544 1381 
z
M 1991 3584 
L 1991 3584 
z
" transform="scale(0.015625)"/>
      <path id="DejaVuSans-6d" d="M 3328 2828 
Q 3544 3216 3844 3400 
Q 4144 3584 4550 3584 
Q 5097 3584 5394 3201 
Q 5691 2819 5691 2113 
L 5691 0 
L 5113 0 
L 5113 2094 
Q 5113 2597 4934 2840 
Q 4756 3084 4391 3084 
Q 3944 3084 3684 2787 
Q 3425 2491 3425 1978 
L 3425 0 
L 2847 0 
L 2847 2094 
Q 2847 2600 2669 2842 
Q 2491 3084 2119 3084 
Q 1678 3084 1418 2786 
Q 1159 2488 1159 1978 
L 1159 0 
L 581 0 
L 581 3500 
L 1159 3500 
L 1159 2956 
Q 1356 3278 1631 3431 
Q 1906 3584 2284 3584 
Q 2666 3584 2933 3390 
Q 3200 3197 3328 2828 
z
" transform="scale(0.015625)"/>
      <path id="DejaVuSans-6f" d="M 1959 3097 
Q 1497 3097 1228 2736 
Q 959 2375 959 1747 
Q 959 1119 1226 758 
Q 1494 397 1959 397 
Q 2419 397 2687 759 
Q 2956 1122 2956 1747 
Q 2956 2369 2687 2733 
Q 2419 3097 1959 3097 
z
M 1959 3584 
Q 2709 3584 3137 3096 
Q 3566 2609 3566 1747 
Q 3566 888 3137 398 
Q 2709 -91 1959 -91 
Q 1206 -91 779 398 
Q 353 888 353 1747 
Q 353 2609 779 3096 
Q 1206 3584 1959 3584 
z
" transform="scale(0.015625)"/>
      <path id="DejaVuSans-66" d="M 2375 4863 
L 2375 4384 
L 1825 4384 
Q 1516 4384 1395 4259 
Q 1275 4134 1275 3809 
L 1275 3500 
L 2222 3500 
L 2222 3053 
L 1275 3053 
L 1275 0 
L 697 0 
L 697 3053 
L 147 3053 
L 147 3500 
L 697 3500 
L 697 3744 
Q 697 4328 969 4595 
Q 1241 4863 1831 4863 
L 2375 4863 
z
" transform="scale(0.015625)"/>
      <path id="DejaVuSans-2c" d="M 750 794 
L 1409 794 
L 1409 256 
L 897 -744 
L 494 -744 
L 750 256 
L 750 794 
z
" transform="scale(0.015625)"/>
      <path id="DejaVuSans-61" d="M 2194 1759 
Q 1497 1759 1228 1600 
Q 959 1441 959 1056 
Q 959 750 1161 570 
Q 1363 391 1709 391 
Q 2188 391 2477 730 
Q 2766 1069 2766 1631 
L 2766 1759 
L 2194 1759 
z
M 3341 1997 
L 3341 0 
L 2766 0 
L 2766 531 
Q 2569 213 2275 61 
Q 1981 -91 1556 -91 
Q 1019 -91 701 211 
Q 384 513 384 1019 
Q 384 1609 779 1909 
Q 1175 2209 1959 2209 
L 2766 2209 
L 2766 2266 
Q 2766 2663 2505 2880 
Q 2244 3097 1772 3097 
Q 1472 3097 1187 3025 
Q 903 2953 641 2809 
L 641 3341 
Q 956 3463 1253 3523 
Q 1550 3584 1831 3584 
Q 2591 3584 2966 3190 
Q 3341 2797 3341 1997 
z
" transform="scale(0.015625)"/>
     </defs>
     <use xlink:href="#DejaVuSans-4d" transform="translate(0 0.015625)"/>
     <use xlink:href="#DejaVuSans-53" transform="translate(86.279297 0.015625)"/>
     <use xlink:href="#DejaVuSans-32" transform="translate(149.755859 0.015625)"/>
     <use xlink:href="#DejaVuSans-20" transform="translate(213.378906 0.015625)"/>
     <use xlink:href="#DejaVuSans-73" transform="translate(245.166016 0.015625)"/>
     <use xlink:href="#DejaVuSans-70" transform="translate(297.265625 0.015625)"/>
     <use xlink:href="#DejaVuSans-65" transform="translate(360.742188 0.015625)"/>
     <use xlink:href="#DejaVuSans-63" transform="translate(422.265625 0.015625)"/>
     <use xlink:href="#DejaVuSans-74" transform="translate(477.246094 0.015625)"/>
     <use xlink:href="#DejaVuSans-72" transform="translate(516.455078 0.015625)"/>
     <use xlink:href="#DejaVuSans-75" transform="translate(557.568359 0.015625)"/>
     <use xlink:href="#DejaVuSans-6d" transform="translate(620.947266 0.015625)"/>
     <use xlink:href="#DejaVuSans-20" transform="translate(718.359375 0.015625)"/>
     <use xlink:href="#DejaVuSans-6f" transform="translate(750.146484 0.015625)"/>
     <use xlink:href="#DejaVuSans-66" transform="translate(811.328125 0.015625)"/>
     <use xlink:href="#DejaVuSans-20" transform="translate(846.533203 0.015625)"/>
     <use xlink:href="#DejaVuSans-Oblique-6d" transform="translate(878.320312 0.015625)"/>
     <use xlink:href="#DejaVuSans-2f" transform="translate(975.732422 0.015625)"/>
     <use xlink:href="#DejaVuSans-Oblique-7a" transform="translate(1009.423828 0.015625)"/>
     <use xlink:href="#DejaVuSans-20" transform="translate(1061.914062 0.015625)"/>
     <use xlink:href="#DejaVuSans-34" transform="translate(1093.701172 0.015625)"/>
     <use xlink:href="#DejaVuSans-32" transform="translate(1157.324219 0.015625)"/>
     <use xlink:href="#DejaVuSans-36" transform="translate(1220.947266 0.015625)"/>
     <use xlink:href="#DejaVuSans-2e" transform="translate(1284.570312 0.015625)"/>
     <use xlink:href="#DejaVuSans-31" transform="translate(1316.357422 0.015625)"/>
     <use xlink:href="#DejaVuSans-38" transform="translate(1379.980469 0.015625)"/>
     <use xlink:href="#DejaVuSans-35" transform="translate(1443.603516 0.015625)"/>
     <use xlink:href="#DejaVuSans-34" transform="translate(1507.226562 0.015625)"/>
     <use xlink:href="#DejaVuSans-2c" transform="translate(1570.849609 0.015625)"/>
     <use xlink:href="#DejaVuSans-20" transform="translate(1602.636719 0.015625)"/>
     <use xlink:href="#DejaVuSans-73" transform="translate(1634.423828 0.015625)"/>
     <use xlink:href="#DejaVuSans-63" transform="translate(1686.523438 0.015625)"/>
     <use xlink:href="#DejaVuSans-61" transform="translate(1741.503906 0.015625)"/>
     <use xlink:href="#DejaVuSans-6e" transform="translate(1802.783203 0.015625)"/>
     <use xlink:href="#DejaVuSans-20" transform="translate(1866.162109 0.015625)"/>
     <use xlink:href="#DejaVuSans-74" transform="translate(1897.949219 0.015625)"/>
     <use xlink:href="#DejaVuSans-69" transform="translate(1937.158203 0.015625)"/>
     <use xlink:href="#DejaVuSans-6d" transform="translate(1964.941406 0.015625)"/>
     <use xlink:href="#DejaVuSans-65" transform="translate(2062.353516 0.015625)"/>
     <use xlink:href="#DejaVuSans-20" transform="translate(2123.876953 0.015625)"/>
     <use xlink:href="#DejaVuSans-36" transform="translate(2155.664062 0.015625)"/>
     <use xlink:href="#DejaVuSans-2e" transform="translate(2219.287109 0.015625)"/>
     <use xlink:href="#DejaVuSans-32" transform="translate(2245.574219 0.015625)"/>
     <use xlink:href="#DejaVuSans-33" transform="translate(2309.197266 0.015625)"/>
     <use xlink:href="#DejaVuSans-20" transform="translate(2372.820312 0.015625)"/>
     <use xlink:href="#DejaVuSans-6d" transform="translate(2404.607422 0.015625)"/>
     <use xlink:href="#DejaVuSans-69" transform="translate(2502.019531 0.015625)"/>
     <use xlink:href="#DejaVuSans-6e" transform="translate(2529.802734 0.015625)"/>
     <use xlink:href="#DejaVuSans-2e" transform="translate(2593.181641 0.015625)"/>
    </g>
   </g>
  </g>
 </g>
 <defs>
  <clipPath id="pe98c9c81e8">
   <rect x="57.6" y="41.472" width="357.12" height="266.112"/>
  </clipPath>
 </defs>
</svg>
