<?xml version="1.0" encoding="utf-8" standalone="no"?>
<!DOCTYPE svg PUBLIC "-//W3C//DTD SVG 1.1//EN"
  "http://www.w3.org/Graphics/SVG/1.1/DTD/svg11.dtd">
<svg xmlns:xlink="http://www.w3.org/1999/xlink" width="460.8pt" height="345.6pt" viewBox="0 0 460.8 345.6" xmlns="http://www.w3.org/2000/svg" version="1.1">
 <metadata>
  <rdf:RDF xmlns:dc="http://purl.org/dc/elements/1.1/" xmlns:cc="http://creativecommons.org/ns#" xmlns:rdf="http://www.w3.org/1999/02/22-rdf-syntax-ns#">
   <cc:Work>
    <dc:type rdf:resource="http://purl.org/dc/dcmitype/StillImage"/>
    <dc:date>2025-01-11T13:56:13.806702</dc:date>
    <dc:format>image/svg+xml</dc:format>
    <dc:creator>
     <cc:Agent>
      <dc:title>Matplotlib v3.7.3, https://matplotlib.org/</dc:title>
     </cc:Agent>
    </dc:creator>
   </cc:Work>
  </rdf:RDF>
 </metadata>
 <defs>
  <style type="text/css">*{stroke-linejoin: round; stroke-linecap: butt}</style>
 </defs>
 <g id="figure_1">
  <g id="patch_1">
   <path d="M 0 345.6 
L 460.8 345.6 
L 460.8 0 
L 0 0 
z
" style="fill: #ffffff"/>
  </g>
  <g id="axes_1">
   <g id="patch_2">
    <path d="M 57.6 307.584 
L 414.72 307.584 
L 414.72 41.472 
L 57.6 41.472 
z
" style="fill: #ffffff"/>
   </g>
   <g id="patch_3">
    <path d="M 73.832727 307.584 
L 74.770161 307.584 
L 74.770161 305.018002 
L 73.832727 305.018002 
z
" clip-path="url(#p6580221ca4)" style="fill: #1f77b4"/>
   </g>
   <g id="patch_4">
    <path d="M 74.047535 307.584 
L 74.984968 307.584 
L 74.984968 306.177555 
L 74.047535 306.177555 
z
" clip-path="url(#p6580221ca4)" style="fill: #1f77b4"/>
   </g>
   <g id="patch_5">
    <path d="M 75.256472 307.584 
L 76.193906 307.584 
L 76.193906 305.20901 
L 75.256472 305.20901 
z
" clip-path="url(#p6580221ca4)" style="fill: #1f77b4"/>
   </g>
   <g id="patch_6">
    <path d="M 75.327698 307.584 
L 76.265131 307.584 
L 76.265131 306.38777 
L 75.327698 306.38777 
z
" clip-path="url(#p6580221ca4)" style="fill: #1f77b4"/>
   </g>
   <g id="patch_7">
    <path d="M 76.395065 307.584 
L 77.332499 307.584 
L 77.332499 306.222849 
L 76.395065 306.222849 
z
" clip-path="url(#p6580221ca4)" style="fill: #1f77b4"/>
   </g>
   <g id="patch_8">
    <path d="M 76.409521 307.584 
L 77.346955 307.584 
L 77.346955 304.52165 
L 76.409521 304.52165 
z
" clip-path="url(#p6580221ca4)" style="fill: #1f77b4"/>
   </g>
   <g id="patch_9">
    <path d="M 76.558338 307.584 
L 77.495771 307.584 
L 77.495771 306.470478 
L 76.558338 306.470478 
z
" clip-path="url(#p6580221ca4)" style="fill: #1f77b4"/>
   </g>
   <g id="patch_10">
    <path d="M 76.680611 307.584 
L 77.618044 307.584 
L 77.618044 306.33048 
L 76.680611 306.33048 
z
" clip-path="url(#p6580221ca4)" style="fill: #1f77b4"/>
   </g>
   <g id="patch_11">
    <path d="M 78.771253 307.584 
L 79.708687 307.584 
L 79.708687 305.170406 
L 78.771253 305.170406 
z
" clip-path="url(#p6580221ca4)" style="fill: #1f77b4"/>
   </g>
   <g id="patch_12">
    <path d="M 78.944758 307.584 
L 79.882191 307.584 
L 79.882191 306.399522 
L 78.944758 306.399522 
z
" clip-path="url(#p6580221ca4)" style="fill: #1f77b4"/>
   </g>
   <g id="patch_13">
    <path d="M 78.992368 307.584 
L 79.929801 307.584 
L 79.929801 306.586212 
L 78.992368 306.586212 
z
" clip-path="url(#p6580221ca4)" style="fill: #1f77b4"/>
   </g>
   <g id="patch_14">
    <path d="M 79.497025 307.584 
L 80.434459 307.584 
L 80.434459 305.893105 
L 79.497025 305.893105 
z
" clip-path="url(#p6580221ca4)" style="fill: #1f77b4"/>
   </g>
   <g id="patch_15">
    <path d="M 82.409832 307.584 
L 83.347265 307.584 
L 83.347265 305.77373 
L 82.409832 305.77373 
z
" clip-path="url(#p6580221ca4)" style="fill: #1f77b4"/>
   </g>
   <g id="patch_16">
    <path d="M 85.789797 307.584 
L 86.72723 307.584 
L 86.72723 304.831508 
L 85.789797 304.831508 
z
" clip-path="url(#p6580221ca4)" style="fill: #1f77b4"/>
   </g>
   <g id="patch_17">
    <path d="M 88.108822 307.584 
L 89.046255 307.584 
L 89.046255 301.395795 
L 88.108822 301.395795 
z
" clip-path="url(#p6580221ca4)" style="fill: #1f77b4"/>
   </g>
   <g id="patch_18">
    <path d="M 89.317679 307.584 
L 90.255113 307.584 
L 90.255113 301.375399 
L 89.317679 301.375399 
z
" clip-path="url(#p6580221ca4)" style="fill: #1f77b4"/>
   </g>
   <g id="patch_19">
    <path d="M 91.236359 307.584 
L 92.173793 307.584 
L 92.173793 306.215521 
L 91.236359 306.215521 
z
" clip-path="url(#p6580221ca4)" style="fill: #1f77b4"/>
   </g>
   <g id="patch_20">
    <path d="M 106.850804 307.584 
L 107.788237 307.584 
L 107.788237 306.164501 
L 106.850804 306.164501 
z
" clip-path="url(#p6580221ca4)" style="fill: #1f77b4"/>
   </g>
   <g id="patch_21">
    <path d="M 107.66223 307.584 
L 108.599664 307.584 
L 108.599664 306.264115 
L 107.66223 306.264115 
z
" clip-path="url(#p6580221ca4)" style="fill: #1f77b4"/>
   </g>
   <g id="patch_22">
    <path d="M 111.427758 307.584 
L 112.365191 307.584 
L 112.365191 306.338453 
L 111.427758 306.338453 
z
" clip-path="url(#p6580221ca4)" style="fill: #1f77b4"/>
   </g>
   <g id="patch_23">
    <path d="M 113.912496 307.584 
L 114.849929 307.584 
L 114.849929 304.159794 
L 113.912496 304.159794 
z
" clip-path="url(#p6580221ca4)" style="fill: #1f77b4"/>
   </g>
   <g id="patch_24">
    <path d="M 116.27438 307.584 
L 117.211813 307.584 
L 117.211813 302.85932 
L 116.27438 302.85932 
z
" clip-path="url(#p6580221ca4)" style="fill: #1f77b4"/>
   </g>
   <g id="patch_25">
    <path d="M 117.440692 307.584 
L 118.378125 307.584 
L 118.378125 302.912955 
L 117.440692 302.912955 
z
" clip-path="url(#p6580221ca4)" style="fill: #1f77b4"/>
   </g>
   <g id="patch_26">
    <path d="M 122.12161 307.584 
L 123.059043 307.584 
L 123.059043 304.229773 
L 122.12161 304.229773 
z
" clip-path="url(#p6580221ca4)" style="fill: #1f77b4"/>
   </g>
   <g id="patch_27">
    <path d="M 124.483225 307.584 
L 125.420659 307.584 
L 125.420659 298.923915 
L 124.483225 298.923915 
z
" clip-path="url(#p6580221ca4)" style="fill: #1f77b4"/>
   </g>
   <g id="patch_28">
    <path d="M 125.636601 307.584 
L 126.574034 307.584 
L 126.574034 304.877881 
L 125.636601 304.877881 
z
" clip-path="url(#p6580221ca4)" style="fill: #1f77b4"/>
   </g>
   <g id="patch_29">
    <path d="M 129.157304 307.584 
L 130.094738 307.584 
L 130.094738 305.401798 
L 129.157304 305.401798 
z
" clip-path="url(#p6580221ca4)" style="fill: #1f77b4"/>
   </g>
   <g id="patch_30">
    <path d="M 129.164546 307.584 
L 130.101979 307.584 
L 130.101979 165.1401 
L 129.164546 165.1401 
z
" clip-path="url(#p6580221ca4)" style="fill: #1f77b4"/>
   </g>
   <g id="patch_31">
    <path d="M 130.33539 307.584 
L 131.272823 307.584 
L 131.272823 303.706691 
L 130.33539 303.706691 
z
" clip-path="url(#p6580221ca4)" style="fill: #1f77b4"/>
   </g>
   <g id="patch_32">
    <path d="M 131.474184 307.584 
L 132.411618 307.584 
L 132.411618 305.869102 
L 131.474184 305.869102 
z
" clip-path="url(#p6580221ca4)" style="fill: #1f77b4"/>
   </g>
   <g id="patch_33">
    <path d="M 131.501961 307.584 
L 132.439394 307.584 
L 132.439394 305.11469 
L 131.501961 305.11469 
z
" clip-path="url(#p6580221ca4)" style="fill: #1f77b4"/>
   </g>
   <g id="patch_34">
    <path d="M 135.744762 307.584 
L 136.682196 307.584 
L 136.682196 305.594065 
L 135.744762 305.594065 
z
" clip-path="url(#p6580221ca4)" style="fill: #1f77b4"/>
   </g>
   <g id="patch_35">
    <path d="M 136.183353 307.584 
L 137.120786 307.584 
L 137.120786 305.763952 
L 136.183353 305.763952 
z
" clip-path="url(#p6580221ca4)" style="fill: #1f77b4"/>
   </g>
   <g id="patch_36">
    <path d="M 142.017307 307.584 
L 142.95474 307.584 
L 142.95474 306.087968 
L 142.017307 306.087968 
z
" clip-path="url(#p6580221ca4)" style="fill: #1f77b4"/>
   </g>
   <g id="patch_37">
    <path d="M 143.201132 307.584 
L 144.138565 307.584 
L 144.138565 298.349882 
L 143.201132 298.349882 
z
" clip-path="url(#p6580221ca4)" style="fill: #1f77b4"/>
   </g>
   <g id="patch_38">
    <path d="M 144.397035 307.584 
L 145.334468 307.584 
L 145.334468 304.909652 
L 144.397035 304.909652 
z
" clip-path="url(#p6580221ca4)" style="fill: #1f77b4"/>
   </g>
   <g id="patch_39">
    <path d="M 145.56281 307.584 
L 146.500243 307.584 
L 146.500243 296.856707 
L 145.56281 296.856707 
z
" clip-path="url(#p6580221ca4)" style="fill: #1f77b4"/>
   </g>
   <g id="patch_40">
    <path d="M 146.744123 307.584 
L 147.681556 307.584 
L 147.681556 304.450576 
L 146.744123 304.450576 
z
" clip-path="url(#p6580221ca4)" style="fill: #1f77b4"/>
   </g>
   <g id="patch_41">
    <path d="M 147.924801 307.584 
L 148.862235 307.584 
L 148.862235 305.708814 
L 147.924801 305.708814 
z
" clip-path="url(#p6580221ca4)" style="fill: #1f77b4"/>
   </g>
   <g id="patch_42">
    <path d="M 149.710015 307.584 
L 150.647449 307.584 
L 150.647449 306.306505 
L 149.710015 306.306505 
z
" clip-path="url(#p6580221ca4)" style="fill: #1f77b4"/>
   </g>
   <g id="patch_43">
    <path d="M 150.2443 307.584 
L 151.181734 307.584 
L 151.181734 303.623175 
L 150.2443 303.623175 
z
" clip-path="url(#p6580221ca4)" style="fill: #1f77b4"/>
   </g>
   <g id="patch_44">
    <path d="M 157.287379 307.584 
L 158.224813 307.584 
L 158.224813 303.036552 
L 157.287379 303.036552 
z
" clip-path="url(#p6580221ca4)" style="fill: #1f77b4"/>
   </g>
   <g id="patch_45">
    <path d="M 159.624571 307.584 
L 160.562004 307.584 
L 160.562004 294.343603 
L 159.624571 294.343603 
z
" clip-path="url(#p6580221ca4)" style="fill: #1f77b4"/>
   </g>
   <g id="patch_46">
    <path d="M 159.639125 307.584 
L 160.576559 307.584 
L 160.576559 305.3268 
L 159.639125 305.3268 
z
" clip-path="url(#p6580221ca4)" style="fill: #1f77b4"/>
   </g>
   <g id="patch_47">
    <path d="M 159.649639 307.584 
L 160.587072 307.584 
L 160.587072 302.799852 
L 159.649639 302.799852 
z
" clip-path="url(#p6580221ca4)" style="fill: #1f77b4"/>
   </g>
   <g id="patch_48">
    <path d="M 160.805535 307.584 
L 161.742969 307.584 
L 161.742969 303.81327 
L 160.805535 303.81327 
z
" clip-path="url(#p6580221ca4)" style="fill: #1f77b4"/>
   </g>
   <g id="patch_49">
    <path d="M 160.820483 307.584 
L 161.757916 307.584 
L 161.757916 305.30891 
L 160.820483 305.30891 
z
" clip-path="url(#p6580221ca4)" style="fill: #1f77b4"/>
   </g>
   <g id="patch_50">
    <path d="M 161.943695 307.584 
L 162.881128 307.584 
L 162.881128 305.768933 
L 161.943695 305.768933 
z
" clip-path="url(#p6580221ca4)" style="fill: #1f77b4"/>
   </g>
   <g id="patch_51">
    <path d="M 161.968816 307.584 
L 162.90625 307.584 
L 162.90625 305.46153 
L 161.968816 305.46153 
z
" clip-path="url(#p6580221ca4)" style="fill: #1f77b4"/>
   </g>
   <g id="patch_52">
    <path d="M 161.986249 307.584 
L 162.923683 307.584 
L 162.923683 268.674152 
L 161.986249 268.674152 
z
" clip-path="url(#p6580221ca4)" style="fill: #1f77b4"/>
   </g>
   <g id="patch_53">
    <path d="M 163.166445 307.584 
L 164.103878 307.584 
L 164.103878 305.917938 
L 163.166445 305.917938 
z
" clip-path="url(#p6580221ca4)" style="fill: #1f77b4"/>
   </g>
   <g id="patch_54">
    <path d="M 164.305462 307.584 
L 165.242896 307.584 
L 165.242896 296.534637 
L 164.305462 296.534637 
z
" clip-path="url(#p6580221ca4)" style="fill: #1f77b4"/>
   </g>
   <g id="patch_55">
    <path d="M 166.624657 307.584 
L 167.562091 307.584 
L 167.562091 305.984534 
L 166.624657 305.984534 
z
" clip-path="url(#p6580221ca4)" style="fill: #1f77b4"/>
   </g>
   <g id="patch_56">
    <path d="M 166.667677 307.584 
L 167.60511 307.584 
L 167.60511 304.927422 
L 166.667677 304.927422 
z
" clip-path="url(#p6580221ca4)" style="fill: #1f77b4"/>
   </g>
   <g id="patch_57">
    <path d="M 168.986211 307.584 
L 169.923644 307.584 
L 169.923644 293.775492 
L 168.986211 293.775492 
z
" clip-path="url(#p6580221ca4)" style="fill: #1f77b4"/>
   </g>
   <g id="patch_58">
    <path d="M 173.685518 307.584 
L 174.622952 307.584 
L 174.622952 287.136623 
L 173.685518 287.136623 
z
" clip-path="url(#p6580221ca4)" style="fill: #1f77b4"/>
   </g>
   <g id="patch_59">
    <path d="M 173.711015 307.584 
L 174.648449 307.584 
L 174.648449 303.820593 
L 173.711015 303.820593 
z
" clip-path="url(#p6580221ca4)" style="fill: #1f77b4"/>
   </g>
   <g id="patch_60">
    <path d="M 174.865857 307.584 
L 175.80329 307.584 
L 175.80329 305.427849 
L 174.865857 305.427849 
z
" clip-path="url(#p6580221ca4)" style="fill: #1f77b4"/>
   </g>
   <g id="patch_61">
    <path d="M 176.029549 307.584 
L 176.966982 307.584 
L 176.966982 306.09566 
L 176.029549 306.09566 
z
" clip-path="url(#p6580221ca4)" style="fill: #1f77b4"/>
   </g>
   <g id="patch_62">
    <path d="M 176.047483 307.584 
L 176.984916 307.584 
L 176.984916 294.560342 
L 176.047483 294.560342 
z
" clip-path="url(#p6580221ca4)" style="fill: #1f77b4"/>
   </g>
   <g id="patch_63">
    <path d="M 177.185714 307.584 
L 178.123147 307.584 
L 178.123147 300.386443 
L 177.185714 300.386443 
z
" clip-path="url(#p6580221ca4)" style="fill: #1f77b4"/>
   </g>
   <g id="patch_64">
    <path d="M 177.213803 307.584 
L 178.151237 307.584 
L 178.151237 305.706084 
L 177.213803 305.706084 
z
" clip-path="url(#p6580221ca4)" style="fill: #1f77b4"/>
   </g>
   <g id="patch_65">
    <path d="M 177.227178 307.584 
L 178.164611 307.584 
L 178.164611 305.666898 
L 177.227178 305.666898 
z
" clip-path="url(#p6580221ca4)" style="fill: #1f77b4"/>
   </g>
   <g id="patch_66">
    <path d="M 178.36666 307.584 
L 179.304094 307.584 
L 179.304094 299.297441 
L 178.36666 299.297441 
z
" clip-path="url(#p6580221ca4)" style="fill: #1f77b4"/>
   </g>
   <g id="patch_67">
    <path d="M 178.392139 307.584 
L 179.329573 307.584 
L 179.329573 304.930247 
L 178.392139 304.930247 
z
" clip-path="url(#p6580221ca4)" style="fill: #1f77b4"/>
   </g>
   <g id="patch_68">
    <path d="M 178.409322 307.584 
L 179.346755 307.584 
L 179.346755 304.704247 
L 178.409322 304.704247 
z
" clip-path="url(#p6580221ca4)" style="fill: #1f77b4"/>
   </g>
   <g id="patch_69">
    <path d="M 180.72875 307.584 
L 181.666183 307.584 
L 181.666183 288.375254 
L 180.72875 288.375254 
z
" clip-path="url(#p6580221ca4)" style="fill: #1f77b4"/>
   </g>
   <g id="patch_70">
    <path d="M 183.048517 307.584 
L 183.98595 307.584 
L 183.98595 305.552016 
L 183.048517 305.552016 
z
" clip-path="url(#p6580221ca4)" style="fill: #1f77b4"/>
   </g>
   <g id="patch_71">
    <path d="M 185.409695 307.584 
L 186.347128 307.584 
L 186.347128 299.078793 
L 185.409695 299.078793 
z
" clip-path="url(#p6580221ca4)" style="fill: #1f77b4"/>
   </g>
   <g id="patch_72">
    <path d="M 187.747414 307.584 
L 188.684847 307.584 
L 188.684847 302.30531 
L 187.747414 302.30531 
z
" clip-path="url(#p6580221ca4)" style="fill: #1f77b4"/>
   </g>
   <g id="patch_73">
    <path d="M 190.066627 307.584 
L 191.00406 307.584 
L 191.00406 304.763578 
L 190.066627 304.763578 
z
" clip-path="url(#p6580221ca4)" style="fill: #1f77b4"/>
   </g>
   <g id="patch_74">
    <path d="M 190.108949 307.584 
L 191.046382 307.584 
L 191.046382 304.144414 
L 190.108949 304.144414 
z
" clip-path="url(#p6580221ca4)" style="fill: #1f77b4"/>
   </g>
   <g id="patch_75">
    <path d="M 191.274715 307.584 
L 192.212148 307.584 
L 192.212148 305.395562 
L 191.274715 305.395562 
z
" clip-path="url(#p6580221ca4)" style="fill: #1f77b4"/>
   </g>
   <g id="patch_76">
    <path d="M 192.428198 307.584 
L 193.365631 307.584 
L 193.365631 289.825153 
L 192.428198 289.825153 
z
" clip-path="url(#p6580221ca4)" style="fill: #1f77b4"/>
   </g>
   <g id="patch_77">
    <path d="M 192.453587 307.584 
L 193.391021 307.584 
L 193.391021 301.734985 
L 192.453587 301.734985 
z
" clip-path="url(#p6580221ca4)" style="fill: #1f77b4"/>
   </g>
   <g id="patch_78">
    <path d="M 192.469089 307.584 
L 193.406523 307.584 
L 193.406523 305.91958 
L 192.469089 305.91958 
z
" clip-path="url(#p6580221ca4)" style="fill: #1f77b4"/>
   </g>
   <g id="patch_79">
    <path d="M 193.608947 307.584 
L 194.546381 307.584 
L 194.546381 299.730364 
L 193.608947 299.730364 
z
" clip-path="url(#p6580221ca4)" style="fill: #1f77b4"/>
   </g>
   <g id="patch_80">
    <path d="M 193.636787 307.584 
L 194.57422 307.584 
L 194.57422 305.766216 
L 193.636787 305.766216 
z
" clip-path="url(#p6580221ca4)" style="fill: #1f77b4"/>
   </g>
   <g id="patch_81">
    <path d="M 194.790359 307.584 
L 195.727792 307.584 
L 195.727792 282.894006 
L 194.790359 282.894006 
z
" clip-path="url(#p6580221ca4)" style="fill: #1f77b4"/>
   </g>
   <g id="patch_82">
    <path d="M 194.817054 307.584 
L 195.754487 307.584 
L 195.754487 305.915723 
L 194.817054 305.915723 
z
" clip-path="url(#p6580221ca4)" style="fill: #1f77b4"/>
   </g>
   <g id="patch_83">
    <path d="M 195.929483 307.584 
L 196.866917 307.584 
L 196.866917 305.780712 
L 195.929483 305.780712 
z
" clip-path="url(#p6580221ca4)" style="fill: #1f77b4"/>
   </g>
   <g id="patch_84">
    <path d="M 195.97084 307.584 
L 196.908274 307.584 
L 196.908274 304.402599 
L 195.97084 304.402599 
z
" clip-path="url(#p6580221ca4)" style="fill: #1f77b4"/>
   </g>
   <g id="patch_85">
    <path d="M 197.10925 307.584 
L 198.046683 307.584 
L 198.046683 293.452382 
L 197.10925 293.452382 
z
" clip-path="url(#p6580221ca4)" style="fill: #1f77b4"/>
   </g>
   <g id="patch_86">
    <path d="M 197.152108 307.584 
L 198.089542 307.584 
L 198.089542 304.42488 
L 197.152108 304.42488 
z
" clip-path="url(#p6580221ca4)" style="fill: #1f77b4"/>
   </g>
   <g id="patch_87">
    <path d="M 199.471429 307.584 
L 200.408862 307.584 
L 200.408862 304.763363 
L 199.471429 304.763363 
z
" clip-path="url(#p6580221ca4)" style="fill: #1f77b4"/>
   </g>
   <g id="patch_88">
    <path d="M 205.336753 307.584 
L 206.274187 307.584 
L 206.274187 305.724457 
L 205.336753 305.724457 
z
" clip-path="url(#p6580221ca4)" style="fill: #1f77b4"/>
   </g>
   <g id="patch_89">
    <path d="M 206.489628 307.584 
L 207.427061 307.584 
L 207.427061 294.825778 
L 206.489628 294.825778 
z
" clip-path="url(#p6580221ca4)" style="fill: #1f77b4"/>
   </g>
   <g id="patch_90">
    <path d="M 206.515447 307.584 
L 207.45288 307.584 
L 207.45288 303.433798 
L 206.515447 303.433798 
z
" clip-path="url(#p6580221ca4)" style="fill: #1f77b4"/>
   </g>
   <g id="patch_91">
    <path d="M 207.670914 307.584 
L 208.608347 307.584 
L 208.608347 305.163 
L 207.670914 305.163 
z
" clip-path="url(#p6580221ca4)" style="fill: #1f77b4"/>
   </g>
   <g id="patch_92">
    <path d="M 207.698771 307.584 
L 208.636205 307.584 
L 208.636205 304.6697 
L 207.698771 304.6697 
z
" clip-path="url(#p6580221ca4)" style="fill: #1f77b4"/>
   </g>
   <g id="patch_93">
    <path d="M 208.809717 307.584 
L 209.74715 307.584 
L 209.74715 298.780697 
L 208.809717 298.780697 
z
" clip-path="url(#p6580221ca4)" style="fill: #1f77b4"/>
   </g>
   <g id="patch_94">
    <path d="M 208.851825 307.584 
L 209.789258 307.584 
L 209.789258 303.266644 
L 208.851825 303.266644 
z
" clip-path="url(#p6580221ca4)" style="fill: #1f77b4"/>
   </g>
   <g id="patch_95">
    <path d="M 208.877197 307.584 
L 209.81463 307.584 
L 209.81463 301.988003 
L 208.877197 301.988003 
z
" clip-path="url(#p6580221ca4)" style="fill: #1f77b4"/>
   </g>
   <g id="patch_96">
    <path d="M 209.9885 307.584 
L 210.925933 307.584 
L 210.925933 305.73828 
L 209.9885 305.73828 
z
" clip-path="url(#p6580221ca4)" style="fill: #1f77b4"/>
   </g>
   <g id="patch_97">
    <path d="M 210.060521 307.584 
L 210.997954 307.584 
L 210.997954 306.027989 
L 210.060521 306.027989 
z
" clip-path="url(#p6580221ca4)" style="fill: #1f77b4"/>
   </g>
   <g id="patch_98">
    <path d="M 211.170948 307.584 
L 212.108382 307.584 
L 212.108382 297.177717 
L 211.170948 297.177717 
z
" clip-path="url(#p6580221ca4)" style="fill: #1f77b4"/>
   </g>
   <g id="patch_99">
    <path d="M 211.214683 307.584 
L 212.152116 307.584 
L 212.152116 306.077707 
L 211.214683 306.077707 
z
" clip-path="url(#p6580221ca4)" style="fill: #1f77b4"/>
   </g>
   <g id="patch_100">
    <path d="M 212.379806 307.584 
L 213.317239 307.584 
L 213.317239 306.114394 
L 212.379806 306.114394 
z
" clip-path="url(#p6580221ca4)" style="fill: #1f77b4"/>
   </g>
   <g id="patch_101">
    <path d="M 215.895825 307.584 
L 216.833258 307.584 
L 216.833258 305.313147 
L 215.895825 305.313147 
z
" clip-path="url(#p6580221ca4)" style="fill: #1f77b4"/>
   </g>
   <g id="patch_102">
    <path d="M 217.061215 307.584 
L 217.998649 307.584 
L 217.998649 305.329548 
L 217.061215 305.329548 
z
" clip-path="url(#p6580221ca4)" style="fill: #1f77b4"/>
   </g>
   <g id="patch_103">
    <path d="M 218.214376 307.584 
L 219.15181 307.584 
L 219.15181 303.213969 
L 218.214376 303.213969 
z
" clip-path="url(#p6580221ca4)" style="fill: #1f77b4"/>
   </g>
   <g id="patch_104">
    <path d="M 221.76072 307.584 
L 222.698153 307.584 
L 222.698153 303.796786 
L 221.76072 303.796786 
z
" clip-path="url(#p6580221ca4)" style="fill: #1f77b4"/>
   </g>
   <g id="patch_105">
    <path d="M 222.940951 307.584 
L 223.878385 307.584 
L 223.878385 297.375502 
L 222.940951 297.375502 
z
" clip-path="url(#p6580221ca4)" style="fill: #1f77b4"/>
   </g>
   <g id="patch_106">
    <path d="M 224.080559 307.584 
L 225.017992 307.584 
L 225.017992 305.872297 
L 224.080559 305.872297 
z
" clip-path="url(#p6580221ca4)" style="fill: #1f77b4"/>
   </g>
   <g id="patch_107">
    <path d="M 224.122041 307.584 
L 225.059474 307.584 
L 225.059474 270.732397 
L 224.122041 270.732397 
z
" clip-path="url(#p6580221ca4)" style="fill: #1f77b4"/>
   </g>
   <g id="patch_108">
    <path d="M 225.232235 307.584 
L 226.169669 307.584 
L 226.169669 302.403698 
L 225.232235 302.403698 
z
" clip-path="url(#p6580221ca4)" style="fill: #1f77b4"/>
   </g>
   <g id="patch_109">
    <path d="M 225.260468 307.584 
L 226.197902 307.584 
L 226.197902 305.55201 
L 225.260468 305.55201 
z
" clip-path="url(#p6580221ca4)" style="fill: #1f77b4"/>
   </g>
   <g id="patch_110">
    <path d="M 225.276936 307.584 
L 226.214369 307.584 
L 226.214369 305.89788 
L 225.276936 305.89788 
z
" clip-path="url(#p6580221ca4)" style="fill: #1f77b4"/>
   </g>
   <g id="patch_111">
    <path d="M 225.298946 307.584 
L 226.23638 307.584 
L 226.23638 304.406326 
L 225.298946 304.406326 
z
" clip-path="url(#p6580221ca4)" style="fill: #1f77b4"/>
   </g>
   <g id="patch_112">
    <path d="M 225.318078 307.584 
L 226.255511 307.584 
L 226.255511 305.924408 
L 225.318078 305.924408 
z
" clip-path="url(#p6580221ca4)" style="fill: #1f77b4"/>
   </g>
   <g id="patch_113">
    <path d="M 226.413361 307.584 
L 227.350794 307.584 
L 227.350794 303.631365 
L 226.413361 303.631365 
z
" clip-path="url(#p6580221ca4)" style="fill: #1f77b4"/>
   </g>
   <g id="patch_114">
    <path d="M 226.441772 307.584 
L 227.379206 307.584 
L 227.379206 304.557487 
L 226.441772 304.557487 
z
" clip-path="url(#p6580221ca4)" style="fill: #1f77b4"/>
   </g>
   <g id="patch_115">
    <path d="M 227.594361 307.584 
L 228.531794 307.584 
L 228.531794 287.273775 
L 227.594361 287.273775 
z
" clip-path="url(#p6580221ca4)" style="fill: #1f77b4"/>
   </g>
   <g id="patch_116">
    <path d="M 229.913788 307.584 
L 230.851222 307.584 
L 230.851222 299.198945 
L 229.913788 299.198945 
z
" clip-path="url(#p6580221ca4)" style="fill: #1f77b4"/>
   </g>
   <g id="patch_117">
    <path d="M 229.955878 307.584 
L 230.893312 307.584 
L 230.893312 305.699948 
L 229.955878 305.699948 
z
" clip-path="url(#p6580221ca4)" style="fill: #1f77b4"/>
   </g>
   <g id="patch_118">
    <path d="M 234.637306 307.584 
L 235.574739 307.584 
L 235.574739 302.039343 
L 234.637306 302.039343 
z
" clip-path="url(#p6580221ca4)" style="fill: #1f77b4"/>
   </g>
   <g id="patch_119">
    <path d="M 238.114901 307.584 
L 239.052334 307.584 
L 239.052334 306.086951 
L 238.114901 306.086951 
z
" clip-path="url(#p6580221ca4)" style="fill: #1f77b4"/>
   </g>
   <g id="patch_120">
    <path d="M 238.141006 307.584 
L 239.078439 307.584 
L 239.078439 299.375604 
L 238.141006 299.375604 
z
" clip-path="url(#p6580221ca4)" style="fill: #1f77b4"/>
   </g>
   <g id="patch_121">
    <path d="M 239.294184 307.584 
L 240.231618 307.584 
L 240.231618 291.200313 
L 239.294184 291.200313 
z
" clip-path="url(#p6580221ca4)" style="fill: #1f77b4"/>
   </g>
   <g id="patch_122">
    <path d="M 239.318859 307.584 
L 240.256292 307.584 
L 240.256292 296.872985 
L 239.318859 296.872985 
z
" clip-path="url(#p6580221ca4)" style="fill: #1f77b4"/>
   </g>
   <g id="patch_123">
    <path d="M 239.337561 307.584 
L 240.274995 307.584 
L 240.274995 305.285013 
L 239.337561 305.285013 
z
" clip-path="url(#p6580221ca4)" style="fill: #1f77b4"/>
   </g>
   <g id="patch_124">
    <path d="M 240.501271 307.584 
L 241.438705 307.584 
L 241.438705 304.940428 
L 240.501271 304.940428 
z
" clip-path="url(#p6580221ca4)" style="fill: #1f77b4"/>
   </g>
   <g id="patch_125">
    <path d="M 240.520135 307.584 
L 241.457568 307.584 
L 241.457568 305.111532 
L 240.520135 305.111532 
z
" clip-path="url(#p6580221ca4)" style="fill: #1f77b4"/>
   </g>
   <g id="patch_126">
    <path d="M 240.545292 307.584 
L 241.482726 307.584 
L 241.482726 305.269315 
L 240.545292 305.269315 
z
" clip-path="url(#p6580221ca4)" style="fill: #1f77b4"/>
   </g>
   <g id="patch_127">
    <path d="M 241.612986 307.584 
L 242.550419 307.584 
L 242.550419 292.393979 
L 241.612986 292.393979 
z
" clip-path="url(#p6580221ca4)" style="fill: #1f77b4"/>
   </g>
   <g id="patch_128">
    <path d="M 241.68195 307.584 
L 242.619383 307.584 
L 242.619383 305.241748 
L 241.68195 305.241748 
z
" clip-path="url(#p6580221ca4)" style="fill: #1f77b4"/>
   </g>
   <g id="patch_129">
    <path d="M 242.864398 307.584 
L 243.801831 307.584 
L 243.801831 292.133921 
L 242.864398 292.133921 
z
" clip-path="url(#p6580221ca4)" style="fill: #1f77b4"/>
   </g>
   <g id="patch_130">
    <path d="M 244.001931 307.584 
L 244.939365 307.584 
L 244.939365 303.502645 
L 244.001931 303.502645 
z
" clip-path="url(#p6580221ca4)" style="fill: #1f77b4"/>
   </g>
   <g id="patch_131">
    <path d="M 244.018381 307.584 
L 244.955815 307.584 
L 244.955815 302.7251 
L 244.018381 302.7251 
z
" clip-path="url(#p6580221ca4)" style="fill: #1f77b4"/>
   </g>
   <g id="patch_132">
    <path d="M 244.045166 307.584 
L 244.982599 307.584 
L 244.982599 303.249239 
L 244.045166 303.249239 
z
" clip-path="url(#p6580221ca4)" style="fill: #1f77b4"/>
   </g>
   <g id="patch_133">
    <path d="M 245.155575 307.584 
L 246.093008 307.584 
L 246.093008 303.794862 
L 245.155575 303.794862 
z
" clip-path="url(#p6580221ca4)" style="fill: #1f77b4"/>
   </g>
   <g id="patch_134">
    <path d="M 245.183629 307.584 
L 246.121062 307.584 
L 246.121062 305.997864 
L 245.183629 305.997864 
z
" clip-path="url(#p6580221ca4)" style="fill: #1f77b4"/>
   </g>
   <g id="patch_135">
    <path d="M 246.337129 307.584 
L 247.274563 307.584 
L 247.274563 265.264409 
L 246.337129 265.264409 
z
" clip-path="url(#p6580221ca4)" style="fill: #1f77b4"/>
   </g>
   <g id="patch_136">
    <path d="M 246.359032 307.584 
L 247.296466 307.584 
L 247.296466 305.933804 
L 246.359032 305.933804 
z
" clip-path="url(#p6580221ca4)" style="fill: #1f77b4"/>
   </g>
   <g id="patch_137">
    <path d="M 247.513051 307.584 
L 248.450485 307.584 
L 248.450485 304.668602 
L 247.513051 304.668602 
z
" clip-path="url(#p6580221ca4)" style="fill: #1f77b4"/>
   </g>
   <g id="patch_138">
    <path d="M 248.699237 307.584 
L 249.63667 307.584 
L 249.63667 304.646168 
L 248.699237 304.646168 
z
" clip-path="url(#p6580221ca4)" style="fill: #1f77b4"/>
   </g>
   <g id="patch_139">
    <path d="M 254.56288 307.584 
L 255.500314 307.584 
L 255.500314 300.540357 
L 254.56288 300.540357 
z
" clip-path="url(#p6580221ca4)" style="fill: #1f77b4"/>
   </g>
   <g id="patch_140">
    <path d="M 255.744739 307.584 
L 256.682172 307.584 
L 256.682172 291.811801 
L 255.744739 291.811801 
z
" clip-path="url(#p6580221ca4)" style="fill: #1f77b4"/>
   </g>
   <g id="patch_141">
    <path d="M 256.926186 307.584 
L 257.863619 307.584 
L 257.863619 93.959599 
L 256.926186 93.959599 
z
" clip-path="url(#p6580221ca4)" style="fill: #1f77b4"/>
   </g>
   <g id="patch_142">
    <path d="M 258.038687 307.584 
L 258.976121 307.584 
L 258.976121 305.777739 
L 258.038687 305.777739 
z
" clip-path="url(#p6580221ca4)" style="fill: #1f77b4"/>
   </g>
   <g id="patch_143">
    <path d="M 258.063612 307.584 
L 259.001045 307.584 
L 259.001045 303.114133 
L 258.063612 303.114133 
z
" clip-path="url(#p6580221ca4)" style="fill: #1f77b4"/>
   </g>
   <g id="patch_144">
    <path d="M 258.105273 307.584 
L 259.042706 307.584 
L 259.042706 261.131208 
L 258.105273 261.131208 
z
" clip-path="url(#p6580221ca4)" style="fill: #1f77b4"/>
   </g>
   <g id="patch_145">
    <path d="M 259.284288 307.584 
L 260.221721 307.584 
L 260.221721 304.189233 
L 259.284288 304.189233 
z
" clip-path="url(#p6580221ca4)" style="fill: #1f77b4"/>
   </g>
   <g id="patch_146">
    <path d="M 260.400097 307.584 
L 261.337531 307.584 
L 261.337531 304.838787 
L 260.400097 304.838787 
z
" clip-path="url(#p6580221ca4)" style="fill: #1f77b4"/>
   </g>
   <g id="patch_147">
    <path d="M 260.421982 307.584 
L 261.359416 307.584 
L 261.359416 297.819846 
L 260.421982 297.819846 
z
" clip-path="url(#p6580221ca4)" style="fill: #1f77b4"/>
   </g>
   <g id="patch_148">
    <path d="M 261.607453 307.584 
L 262.544886 307.584 
L 262.544886 305.498174 
L 261.607453 305.498174 
z
" clip-path="url(#p6580221ca4)" style="fill: #1f77b4"/>
   </g>
   <g id="patch_149">
    <path d="M 262.717773 307.584 
L 263.655206 307.584 
L 263.655206 296.920183 
L 262.717773 296.920183 
z
" clip-path="url(#p6580221ca4)" style="fill: #1f77b4"/>
   </g>
   <g id="patch_150">
    <path d="M 262.759934 307.584 
L 263.697367 307.584 
L 263.697367 296.605176 
L 262.759934 296.605176 
z
" clip-path="url(#p6580221ca4)" style="fill: #1f77b4"/>
   </g>
   <g id="patch_151">
    <path d="M 263.936106 307.584 
L 264.87354 307.584 
L 264.87354 306.226256 
L 263.936106 306.226256 
z
" clip-path="url(#p6580221ca4)" style="fill: #1f77b4"/>
   </g>
   <g id="patch_152">
    <path d="M 265.079361 307.584 
L 266.016795 307.584 
L 266.016795 304.820538 
L 265.079361 304.820538 
z
" clip-path="url(#p6580221ca4)" style="fill: #1f77b4"/>
   </g>
   <g id="patch_153">
    <path d="M 267.441433 307.584 
L 268.378867 307.584 
L 268.378867 304.271106 
L 267.441433 304.271106 
z
" clip-path="url(#p6580221ca4)" style="fill: #1f77b4"/>
   </g>
   <g id="patch_154">
    <path d="M 272.142243 307.584 
L 273.079676 307.584 
L 273.079676 305.914457 
L 272.142243 305.914457 
z
" clip-path="url(#p6580221ca4)" style="fill: #1f77b4"/>
   </g>
   <g id="patch_155">
    <path d="M 273.305953 307.584 
L 274.243386 307.584 
L 274.243386 291.917604 
L 273.305953 291.917604 
z
" clip-path="url(#p6580221ca4)" style="fill: #1f77b4"/>
   </g>
   <g id="patch_156">
    <path d="M 273.324387 307.584 
L 274.261821 307.584 
L 274.261821 298.299297 
L 273.324387 298.299297 
z
" clip-path="url(#p6580221ca4)" style="fill: #1f77b4"/>
   </g>
   <g id="patch_157">
    <path d="M 274.503671 307.584 
L 275.441104 307.584 
L 275.441104 274.068838 
L 274.503671 274.068838 
z
" clip-path="url(#p6580221ca4)" style="fill: #1f77b4"/>
   </g>
   <g id="patch_158">
    <path d="M 275.668275 307.584 
L 276.605708 307.584 
L 276.605708 284.484377 
L 275.668275 284.484377 
z
" clip-path="url(#p6580221ca4)" style="fill: #1f77b4"/>
   </g>
   <g id="patch_159">
    <path d="M 276.825083 307.584 
L 277.762517 307.584 
L 277.762517 297.416248 
L 276.825083 297.416248 
z
" clip-path="url(#p6580221ca4)" style="fill: #1f77b4"/>
   </g>
   <g id="patch_160">
    <path d="M 276.84965 307.584 
L 277.787084 307.584 
L 277.787084 54.144 
L 276.84965 54.144 
z
" clip-path="url(#p6580221ca4)" style="fill: #1f77b4"/>
   </g>
   <g id="patch_161">
    <path d="M 278.026055 307.584 
L 278.963489 307.584 
L 278.963489 283.434335 
L 278.026055 283.434335 
z
" clip-path="url(#p6580221ca4)" style="fill: #1f77b4"/>
   </g>
   <g id="patch_162">
    <path d="M 279.141417 307.584 
L 280.078851 307.584 
L 280.078851 198.047659 
L 279.141417 198.047659 
z
" clip-path="url(#p6580221ca4)" style="fill: #1f77b4"/>
   </g>
   <g id="patch_163">
    <path d="M 279.164769 307.584 
L 280.102202 307.584 
L 280.102202 304.685619 
L 279.164769 304.685619 
z
" clip-path="url(#p6580221ca4)" style="fill: #1f77b4"/>
   </g>
   <g id="patch_164">
    <path d="M 280.31734 307.584 
L 281.254773 307.584 
L 281.254773 296.698474 
L 280.31734 296.698474 
z
" clip-path="url(#p6580221ca4)" style="fill: #1f77b4"/>
   </g>
   <g id="patch_165">
    <path d="M 281.531042 307.584 
L 282.468476 307.584 
L 282.468476 301.982639 
L 281.531042 301.982639 
z
" clip-path="url(#p6580221ca4)" style="fill: #1f77b4"/>
   </g>
   <g id="patch_166">
    <path d="M 287.369278 307.584 
L 288.306712 307.584 
L 288.306712 305.463475 
L 287.369278 305.463475 
z
" clip-path="url(#p6580221ca4)" style="fill: #1f77b4"/>
   </g>
   <g id="patch_167">
    <path d="M 290.840901 307.584 
L 291.778335 307.584 
L 291.778335 264.201322 
L 290.840901 264.201322 
z
" clip-path="url(#p6580221ca4)" style="fill: #1f77b4"/>
   </g>
   <g id="patch_168">
    <path d="M 290.868097 307.584 
L 291.80553 307.584 
L 291.80553 303.115711 
L 290.868097 303.115711 
z
" clip-path="url(#p6580221ca4)" style="fill: #1f77b4"/>
   </g>
   <g id="patch_169">
    <path d="M 292.016251 307.584 
L 292.953685 307.584 
L 292.953685 305.24555 
L 292.016251 305.24555 
z
" clip-path="url(#p6580221ca4)" style="fill: #1f77b4"/>
   </g>
   <g id="patch_170">
    <path d="M 292.092081 307.584 
L 293.029514 307.584 
L 293.029514 299.75651 
L 292.092081 299.75651 
z
" clip-path="url(#p6580221ca4)" style="fill: #1f77b4"/>
   </g>
   <g id="patch_171">
    <path d="M 293.218403 307.584 
L 294.155837 307.584 
L 294.155837 305.387791 
L 293.218403 305.387791 
z
" clip-path="url(#p6580221ca4)" style="fill: #1f77b4"/>
   </g>
   <g id="patch_172">
    <path d="M 293.245796 307.584 
L 294.183229 307.584 
L 294.183229 304.831754 
L 293.245796 304.831754 
z
" clip-path="url(#p6580221ca4)" style="fill: #1f77b4"/>
   </g>
   <g id="patch_173">
    <path d="M 293.273027 307.584 
L 294.210461 307.584 
L 294.210461 301.720888 
L 293.273027 301.720888 
z
" clip-path="url(#p6580221ca4)" style="fill: #1f77b4"/>
   </g>
   <g id="patch_174">
    <path d="M 294.411365 307.584 
L 295.348799 307.584 
L 295.348799 303.746815 
L 294.411365 303.746815 
z
" clip-path="url(#p6580221ca4)" style="fill: #1f77b4"/>
   </g>
   <g id="patch_175">
    <path d="M 294.45215 307.584 
L 295.389583 307.584 
L 295.389583 305.638001 
L 294.45215 305.638001 
z
" clip-path="url(#p6580221ca4)" style="fill: #1f77b4"/>
   </g>
   <g id="patch_176">
    <path d="M 295.564866 307.584 
L 296.502299 307.584 
L 296.502299 303.650945 
L 295.564866 303.650945 
z
" clip-path="url(#p6580221ca4)" style="fill: #1f77b4"/>
   </g>
   <g id="patch_177">
    <path d="M 297.925829 307.584 
L 298.863262 307.584 
L 298.863262 303.830819 
L 297.925829 303.830819 
z
" clip-path="url(#p6580221ca4)" style="fill: #1f77b4"/>
   </g>
   <g id="patch_178">
    <path d="M 302.553312 307.584 
L 303.490746 307.584 
L 303.490746 305.414438 
L 302.553312 305.414438 
z
" clip-path="url(#p6580221ca4)" style="fill: #1f77b4"/>
   </g>
   <g id="patch_179">
    <path d="M 306.111564 307.584 
L 307.048998 307.584 
L 307.048998 303.197364 
L 306.111564 303.197364 
z
" clip-path="url(#p6580221ca4)" style="fill: #1f77b4"/>
   </g>
   <g id="patch_180">
    <path d="M 307.290454 307.584 
L 308.227888 307.584 
L 308.227888 304.724114 
L 307.290454 304.724114 
z
" clip-path="url(#p6580221ca4)" style="fill: #1f77b4"/>
   </g>
   <g id="patch_181">
    <path d="M 308.473403 307.584 
L 309.410837 307.584 
L 309.410837 303.511649 
L 308.473403 303.511649 
z
" clip-path="url(#p6580221ca4)" style="fill: #1f77b4"/>
   </g>
   <g id="patch_182">
    <path d="M 309.669315 307.584 
L 310.606749 307.584 
L 310.606749 296.857442 
L 309.669315 296.857442 
z
" clip-path="url(#p6580221ca4)" style="fill: #1f77b4"/>
   </g>
   <g id="patch_183">
    <path d="M 310.836923 307.584 
L 311.774357 307.584 
L 311.774357 304.612333 
L 310.836923 304.612333 
z
" clip-path="url(#p6580221ca4)" style="fill: #1f77b4"/>
   </g>
   <g id="patch_184">
    <path d="M 311.972919 307.584 
L 312.910353 307.584 
L 312.910353 300.178632 
L 311.972919 300.178632 
z
" clip-path="url(#p6580221ca4)" style="fill: #1f77b4"/>
   </g>
   <g id="patch_185">
    <path d="M 313.19617 307.584 
L 314.133603 307.584 
L 314.133603 301.849227 
L 313.19617 301.849227 
z
" clip-path="url(#p6580221ca4)" style="fill: #1f77b4"/>
   </g>
   <g id="patch_186">
    <path d="M 324.895171 307.584 
L 325.832604 307.584 
L 325.832604 304.987236 
L 324.895171 304.987236 
z
" clip-path="url(#p6580221ca4)" style="fill: #1f77b4"/>
   </g>
   <g id="patch_187">
    <path d="M 326.076046 307.584 
L 327.013479 307.584 
L 327.013479 304.005217 
L 326.076046 304.005217 
z
" clip-path="url(#p6580221ca4)" style="fill: #1f77b4"/>
   </g>
   <g id="patch_188">
    <path d="M 327.214974 307.584 
L 328.152407 307.584 
L 328.152407 303.535333 
L 327.214974 303.535333 
z
" clip-path="url(#p6580221ca4)" style="fill: #1f77b4"/>
   </g>
   <g id="patch_189">
    <path d="M 328.368349 307.584 
L 329.305783 307.584 
L 329.305783 139.720976 
L 328.368349 139.720976 
z
" clip-path="url(#p6580221ca4)" style="fill: #1f77b4"/>
   </g>
   <g id="patch_190">
    <path d="M 328.397279 307.584 
L 329.334713 307.584 
L 329.334713 289.013966 
L 328.397279 289.013966 
z
" clip-path="url(#p6580221ca4)" style="fill: #1f77b4"/>
   </g>
   <g id="patch_191">
    <path d="M 329.544039 307.584 
L 330.481472 307.584 
L 330.481472 290.852885 
L 329.544039 290.852885 
z
" clip-path="url(#p6580221ca4)" style="fill: #1f77b4"/>
   </g>
   <g id="patch_192">
    <path d="M 329.574042 307.584 
L 330.511475 307.584 
L 330.511475 304.612187 
L 329.574042 304.612187 
z
" clip-path="url(#p6580221ca4)" style="fill: #1f77b4"/>
   </g>
   <g id="patch_193">
    <path d="M 342.473479 307.584 
L 343.410912 307.584 
L 343.410912 305.67146 
L 342.473479 305.67146 
z
" clip-path="url(#p6580221ca4)" style="fill: #1f77b4"/>
   </g>
   <g id="patch_194">
    <path d="M 343.638798 307.584 
L 344.576231 307.584 
L 344.576231 297.887848 
L 343.638798 297.887848 
z
" clip-path="url(#p6580221ca4)" style="fill: #1f77b4"/>
   </g>
   <g id="patch_195">
    <path d="M 344.817491 307.584 
L 345.754925 307.584 
L 345.754925 302.311991 
L 344.817491 302.311991 
z
" clip-path="url(#p6580221ca4)" style="fill: #1f77b4"/>
   </g>
   <g id="patch_196">
    <path d="M 346.000512 307.584 
L 346.937945 307.584 
L 346.937945 296.478974 
L 346.000512 296.478974 
z
" clip-path="url(#p6580221ca4)" style="fill: #1f77b4"/>
   </g>
   <g id="patch_197">
    <path d="M 356.522858 307.584 
L 357.460291 307.584 
L 357.460291 305.909831 
L 356.522858 305.909831 
z
" clip-path="url(#p6580221ca4)" style="fill: #1f77b4"/>
   </g>
   <g id="patch_198">
    <path d="M 362.421046 307.584 
L 363.358479 307.584 
L 363.358479 305.87885 
L 362.421046 305.87885 
z
" clip-path="url(#p6580221ca4)" style="fill: #1f77b4"/>
   </g>
   <g id="patch_199">
    <path d="M 364.743888 307.584 
L 365.681322 307.584 
L 365.681322 292.556357 
L 364.743888 292.556357 
z
" clip-path="url(#p6580221ca4)" style="fill: #1f77b4"/>
   </g>
   <g id="patch_200">
    <path d="M 365.896012 307.584 
L 366.833445 307.584 
L 366.833445 304.512673 
L 365.896012 304.512673 
z
" clip-path="url(#p6580221ca4)" style="fill: #1f77b4"/>
   </g>
   <g id="patch_201">
    <path d="M 381.166425 307.584 
L 382.103858 307.584 
L 382.103858 306.044012 
L 381.166425 306.044012 
z
" clip-path="url(#p6580221ca4)" style="fill: #1f77b4"/>
   </g>
   <g id="patch_202">
    <path d="M 397.549839 307.584 
L 398.487273 307.584 
L 398.487273 299.40364 
L 397.549839 299.40364 
z
" clip-path="url(#p6580221ca4)" style="fill: #1f77b4"/>
   </g>
   <g id="matplotlib.axis_1">
    <g id="xtick_1">
     <g id="line2d_1">
      <defs>
       <path id="m6bab8870e8" d="M 0 0 
L 0 3.5 
" style="stroke: #000000; stroke-width: 0.8"/>
      </defs>
      <g>
       <use xlink:href="#m6bab8870e8" x="68.635201" y="307.584" style="stroke: #000000; stroke-width: 0.8"/>
      </g>
     </g>
     <g id="text_1">
      <!-- 50 -->
      <g transform="translate(62.272701 322.182437) scale(0.1 -0.1)">
       <defs>
        <path id="DejaVuSans-35" d="M 691 4666 
L 3169 4666 
L 3169 4134 
L 1269 4134 
L 1269 2991 
Q 1406 3038 1543 3061 
Q 1681 3084 1819 3084 
Q 2600 3084 3056 2656 
Q 3513 2228 3513 1497 
Q 3513 744 3044 326 
Q 2575 -91 1722 -91 
Q 1428 -91 1123 -41 
Q 819 9 494 109 
L 494 744 
Q 775 591 1075 516 
Q 1375 441 1709 441 
Q 2250 441 2565 725 
Q 2881 1009 2881 1497 
Q 2881 1984 2565 2268 
Q 2250 2553 1709 2553 
Q 1456 2553 1204 2497 
Q 953 2441 691 2322 
L 691 4666 
z
" transform="scale(0.015625)"/>
        <path id="DejaVuSans-30" d="M 2034 4250 
Q 1547 4250 1301 3770 
Q 1056 3291 1056 2328 
Q 1056 1369 1301 889 
Q 1547 409 2034 409 
Q 2525 409 2770 889 
Q 3016 1369 3016 2328 
Q 3016 3291 2770 3770 
Q 2525 4250 2034 4250 
z
M 2034 4750 
Q 2819 4750 3233 4129 
Q 3647 3509 3647 2328 
Q 3647 1150 3233 529 
Q 2819 -91 2034 -91 
Q 1250 -91 836 529 
Q 422 1150 422 2328 
Q 422 3509 836 4129 
Q 1250 4750 2034 4750 
z
" transform="scale(0.015625)"/>
       </defs>
       <use xlink:href="#DejaVuSans-35"/>
       <use xlink:href="#DejaVuSans-30" x="63.623047"/>
      </g>
     </g>
    </g>
    <g id="xtick_2">
     <g id="line2d_2">
      <g>
       <use xlink:href="#m6bab8870e8" x="127.224792" y="307.584" style="stroke: #000000; stroke-width: 0.8"/>
      </g>
     </g>
     <g id="text_2">
      <!-- 100 -->
      <g transform="translate(117.681042 322.182437) scale(0.1 -0.1)">
       <defs>
        <path id="DejaVuSans-31" d="M 794 531 
L 1825 531 
L 1825 4091 
L 703 3866 
L 703 4441 
L 1819 4666 
L 2450 4666 
L 2450 531 
L 3481 531 
L 3481 0 
L 794 0 
L 794 531 
z
" transform="scale(0.015625)"/>
       </defs>
       <use xlink:href="#DejaVuSans-31"/>
       <use xlink:href="#DejaVuSans-30" x="63.623047"/>
       <use xlink:href="#DejaVuSans-30" x="127.246094"/>
      </g>
     </g>
    </g>
    <g id="xtick_3">
     <g id="line2d_3">
      <g>
       <use xlink:href="#m6bab8870e8" x="185.814383" y="307.584" style="stroke: #000000; stroke-width: 0.8"/>
      </g>
     </g>
     <g id="text_3">
      <!-- 150 -->
      <g transform="translate(176.270633 322.182437) scale(0.1 -0.1)">
       <use xlink:href="#DejaVuSans-31"/>
       <use xlink:href="#DejaVuSans-35" x="63.623047"/>
       <use xlink:href="#DejaVuSans-30" x="127.246094"/>
      </g>
     </g>
    </g>
    <g id="xtick_4">
     <g id="line2d_4">
      <g>
       <use xlink:href="#m6bab8870e8" x="244.403973" y="307.584" style="stroke: #000000; stroke-width: 0.8"/>
      </g>
     </g>
     <g id="text_4">
      <!-- 200 -->
      <g transform="translate(234.860223 322.182437) scale(0.1 -0.1)">
       <defs>
        <path id="DejaVuSans-32" d="M 1228 531 
L 3431 531 
L 3431 0 
L 469 0 
L 469 531 
Q 828 903 1448 1529 
Q 2069 2156 2228 2338 
Q 2531 2678 2651 2914 
Q 2772 3150 2772 3378 
Q 2772 3750 2511 3984 
Q 2250 4219 1831 4219 
Q 1534 4219 1204 4116 
Q 875 4013 500 3803 
L 500 4441 
Q 881 4594 1212 4672 
Q 1544 4750 1819 4750 
Q 2544 4750 2975 4387 
Q 3406 4025 3406 3419 
Q 3406 3131 3298 2873 
Q 3191 2616 2906 2266 
Q 2828 2175 2409 1742 
Q 1991 1309 1228 531 
z
" transform="scale(0.015625)"/>
       </defs>
       <use xlink:href="#DejaVuSans-32"/>
       <use xlink:href="#DejaVuSans-30" x="63.623047"/>
       <use xlink:href="#DejaVuSans-30" x="127.246094"/>
      </g>
     </g>
    </g>
    <g id="xtick_5">
     <g id="line2d_5">
      <g>
       <use xlink:href="#m6bab8870e8" x="302.993564" y="307.584" style="stroke: #000000; stroke-width: 0.8"/>
      </g>
     </g>
     <g id="text_5">
      <!-- 250 -->
      <g transform="translate(293.449814 322.182437) scale(0.1 -0.1)">
       <use xlink:href="#DejaVuSans-32"/>
       <use xlink:href="#DejaVuSans-35" x="63.623047"/>
       <use xlink:href="#DejaVuSans-30" x="127.246094"/>
      </g>
     </g>
    </g>
    <g id="xtick_6">
     <g id="line2d_6">
      <g>
       <use xlink:href="#m6bab8870e8" x="361.583154" y="307.584" style="stroke: #000000; stroke-width: 0.8"/>
      </g>
     </g>
     <g id="text_6">
      <!-- 300 -->
      <g transform="translate(352.039404 322.182437) scale(0.1 -0.1)">
       <defs>
        <path id="DejaVuSans-33" d="M 2597 2516 
Q 3050 2419 3304 2112 
Q 3559 1806 3559 1356 
Q 3559 666 3084 287 
Q 2609 -91 1734 -91 
Q 1441 -91 1130 -33 
Q 819 25 488 141 
L 488 750 
Q 750 597 1062 519 
Q 1375 441 1716 441 
Q 2309 441 2620 675 
Q 2931 909 2931 1356 
Q 2931 1769 2642 2001 
Q 2353 2234 1838 2234 
L 1294 2234 
L 1294 2753 
L 1863 2753 
Q 2328 2753 2575 2939 
Q 2822 3125 2822 3475 
Q 2822 3834 2567 4026 
Q 2313 4219 1838 4219 
Q 1578 4219 1281 4162 
Q 984 4106 628 3988 
L 628 4550 
Q 988 4650 1302 4700 
Q 1616 4750 1894 4750 
Q 2613 4750 3031 4423 
Q 3450 4097 3450 3541 
Q 3450 3153 3228 2886 
Q 3006 2619 2597 2516 
z
" transform="scale(0.015625)"/>
       </defs>
       <use xlink:href="#DejaVuSans-33"/>
       <use xlink:href="#DejaVuSans-30" x="63.623047"/>
       <use xlink:href="#DejaVuSans-30" x="127.246094"/>
      </g>
     </g>
    </g>
    <g id="text_7">
     <!-- ${m/z}$ -->
     <g transform="translate(226.96 335.860562) scale(0.1 -0.1)">
      <defs>
       <path id="DejaVuSans-Oblique-6d" d="M 5747 2113 
L 5338 0 
L 4763 0 
L 5166 2094 
Q 5191 2228 5203 2325 
Q 5216 2422 5216 2491 
Q 5216 2772 5059 2928 
Q 4903 3084 4622 3084 
Q 4203 3084 3875 2770 
Q 3547 2456 3450 1953 
L 3066 0 
L 2491 0 
L 2900 2094 
Q 2925 2209 2937 2307 
Q 2950 2406 2950 2484 
Q 2950 2769 2794 2926 
Q 2638 3084 2363 3084 
Q 1938 3084 1609 2770 
Q 1281 2456 1184 1953 
L 800 0 
L 225 0 
L 909 3500 
L 1484 3500 
L 1375 2956 
Q 1609 3263 1923 3423 
Q 2238 3584 2597 3584 
Q 2978 3584 3223 3384 
Q 3469 3184 3519 2828 
Q 3781 3197 4126 3390 
Q 4472 3584 4856 3584 
Q 5306 3584 5551 3325 
Q 5797 3066 5797 2591 
Q 5797 2488 5784 2364 
Q 5772 2241 5747 2113 
z
" transform="scale(0.015625)"/>
       <path id="DejaVuSans-2f" d="M 1625 4666 
L 2156 4666 
L 531 -594 
L 0 -594 
L 1625 4666 
z
" transform="scale(0.015625)"/>
       <path id="DejaVuSans-Oblique-7a" d="M 744 3500 
L 3475 3500 
L 3372 2975 
L 738 459 
L 2913 459 
L 2822 0 
L -19 0 
L 84 525 
L 2719 3041 
L 653 3041 
L 744 3500 
z
" transform="scale(0.015625)"/>
      </defs>
      <use xlink:href="#DejaVuSans-Oblique-6d" transform="translate(0 0.09375)"/>
      <use xlink:href="#DejaVuSans-2f" transform="translate(97.412109 0.09375)"/>
      <use xlink:href="#DejaVuSans-Oblique-7a" transform="translate(131.103516 0.09375)"/>
     </g>
    </g>
   </g>
   <g id="matplotlib.axis_2">
    <g id="ytick_1">
     <g id="line2d_7">
      <defs>
       <path id="mc7cbf0ef32" d="M 0 0 
L -3.5 0 
" style="stroke: #000000; stroke-width: 0.8"/>
      </defs>
      <g>
       <use xlink:href="#mc7cbf0ef32" x="57.6" y="307.584" style="stroke: #000000; stroke-width: 0.8"/>
      </g>
     </g>
     <g id="text_8">
      <!-- 0 -->
      <g transform="translate(44.2375 311.383219) scale(0.1 -0.1)">
       <use xlink:href="#DejaVuSans-30"/>
      </g>
     </g>
    </g>
    <g id="ytick_2">
     <g id="line2d_8">
      <g>
       <use xlink:href="#mc7cbf0ef32" x="57.6" y="276.637856" style="stroke: #000000; stroke-width: 0.8"/>
      </g>
     </g>
     <g id="text_9">
      <!-- 100000 -->
      <g transform="translate(12.425 280.437075) scale(0.1 -0.1)">
       <use xlink:href="#DejaVuSans-31"/>
       <use xlink:href="#DejaVuSans-30" x="63.623047"/>
       <use xlink:href="#DejaVuSans-30" x="127.246094"/>
       <use xlink:href="#DejaVuSans-30" x="190.869141"/>
       <use xlink:href="#DejaVuSans-30" x="254.492188"/>
       <use xlink:href="#DejaVuSans-30" x="318.115234"/>
      </g>
     </g>
    </g>
    <g id="ytick_3">
     <g id="line2d_9">
      <g>
       <use xlink:href="#mc7cbf0ef32" x="57.6" y="245.691713" style="stroke: #000000; stroke-width: 0.8"/>
      </g>
     </g>
     <g id="text_10">
      <!-- 200000 -->
      <g transform="translate(12.425 249.490931) scale(0.1 -0.1)">
       <use xlink:href="#DejaVuSans-32"/>
       <use xlink:href="#DejaVuSans-30" x="63.623047"/>
       <use xlink:href="#DejaVuSans-30" x="127.246094"/>
       <use xlink:href="#DejaVuSans-30" x="190.869141"/>
       <use xlink:href="#DejaVuSans-30" x="254.492188"/>
       <use xlink:href="#DejaVuSans-30" x="318.115234"/>
      </g>
     </g>
    </g>
    <g id="ytick_4">
     <g id="line2d_10">
      <g>
       <use xlink:href="#mc7cbf0ef32" x="57.6" y="214.745569" style="stroke: #000000; stroke-width: 0.8"/>
      </g>
     </g>
     <g id="text_11">
      <!-- 300000 -->
      <g transform="translate(12.425 218.544788) scale(0.1 -0.1)">
       <use xlink:href="#DejaVuSans-33"/>
       <use xlink:href="#DejaVuSans-30" x="63.623047"/>
       <use xlink:href="#DejaVuSans-30" x="127.246094"/>
       <use xlink:href="#DejaVuSans-30" x="190.869141"/>
       <use xlink:href="#DejaVuSans-30" x="254.492188"/>
       <use xlink:href="#DejaVuSans-30" x="318.115234"/>
      </g>
     </g>
    </g>
    <g id="ytick_5">
     <g id="line2d_11">
      <g>
       <use xlink:href="#mc7cbf0ef32" x="57.6" y="183.799425" style="stroke: #000000; stroke-width: 0.8"/>
      </g>
     </g>
     <g id="text_12">
      <!-- 400000 -->
      <g transform="translate(12.425 187.598644) scale(0.1 -0.1)">
       <defs>
        <path id="DejaVuSans-34" d="M 2419 4116 
L 825 1625 
L 2419 1625 
L 2419 4116 
z
M 2253 4666 
L 3047 4666 
L 3047 1625 
L 3713 1625 
L 3713 1100 
L 3047 1100 
L 3047 0 
L 2419 0 
L 2419 1100 
L 313 1100 
L 313 1709 
L 2253 4666 
z
" transform="scale(0.015625)"/>
       </defs>
       <use xlink:href="#DejaVuSans-34"/>
       <use xlink:href="#DejaVuSans-30" x="63.623047"/>
       <use xlink:href="#DejaVuSans-30" x="127.246094"/>
       <use xlink:href="#DejaVuSans-30" x="190.869141"/>
       <use xlink:href="#DejaVuSans-30" x="254.492188"/>
       <use xlink:href="#DejaVuSans-30" x="318.115234"/>
      </g>
     </g>
    </g>
    <g id="ytick_6">
     <g id="line2d_12">
      <g>
       <use xlink:href="#mc7cbf0ef32" x="57.6" y="152.853282" style="stroke: #000000; stroke-width: 0.8"/>
      </g>
     </g>
     <g id="text_13">
      <!-- 500000 -->
      <g transform="translate(12.425 156.652501) scale(0.1 -0.1)">
       <use xlink:href="#DejaVuSans-35"/>
       <use xlink:href="#DejaVuSans-30" x="63.623047"/>
       <use xlink:href="#DejaVuSans-30" x="127.246094"/>
       <use xlink:href="#DejaVuSans-30" x="190.869141"/>
       <use xlink:href="#DejaVuSans-30" x="254.492188"/>
       <use xlink:href="#DejaVuSans-30" x="318.115234"/>
      </g>
     </g>
    </g>
    <g id="ytick_7">
     <g id="line2d_13">
      <g>
       <use xlink:href="#mc7cbf0ef32" x="57.6" y="121.907138" style="stroke: #000000; stroke-width: 0.8"/>
      </g>
     </g>
     <g id="text_14">
      <!-- 600000 -->
      <g transform="translate(12.425 125.706357) scale(0.1 -0.1)">
       <defs>
        <path id="DejaVuSans-36" d="M 2113 2584 
Q 1688 2584 1439 2293 
Q 1191 2003 1191 1497 
Q 1191 994 1439 701 
Q 1688 409 2113 409 
Q 2538 409 2786 701 
Q 3034 994 3034 1497 
Q 3034 2003 2786 2293 
Q 2538 2584 2113 2584 
z
M 3366 4563 
L 3366 3988 
Q 3128 4100 2886 4159 
Q 2644 4219 2406 4219 
Q 1781 4219 1451 3797 
Q 1122 3375 1075 2522 
Q 1259 2794 1537 2939 
Q 1816 3084 2150 3084 
Q 2853 3084 3261 2657 
Q 3669 2231 3669 1497 
Q 3669 778 3244 343 
Q 2819 -91 2113 -91 
Q 1303 -91 875 529 
Q 447 1150 447 2328 
Q 447 3434 972 4092 
Q 1497 4750 2381 4750 
Q 2619 4750 2861 4703 
Q 3103 4656 3366 4563 
z
" transform="scale(0.015625)"/>
       </defs>
       <use xlink:href="#DejaVuSans-36"/>
       <use xlink:href="#DejaVuSans-30" x="63.623047"/>
       <use xlink:href="#DejaVuSans-30" x="127.246094"/>
       <use xlink:href="#DejaVuSans-30" x="190.869141"/>
       <use xlink:href="#DejaVuSans-30" x="254.492188"/>
       <use xlink:href="#DejaVuSans-30" x="318.115234"/>
      </g>
     </g>
    </g>
    <g id="ytick_8">
     <g id="line2d_14">
      <g>
       <use xlink:href="#mc7cbf0ef32" x="57.6" y="90.960995" style="stroke: #000000; stroke-width: 0.8"/>
      </g>
     </g>
     <g id="text_15">
      <!-- 700000 -->
      <g transform="translate(12.425 94.760213) scale(0.1 -0.1)">
       <defs>
        <path id="DejaVuSans-37" d="M 525 4666 
L 3525 4666 
L 3525 4397 
L 1831 0 
L 1172 0 
L 2766 4134 
L 525 4134 
L 525 4666 
z
" transform="scale(0.015625)"/>
       </defs>
       <use xlink:href="#DejaVuSans-37"/>
       <use xlink:href="#DejaVuSans-30" x="63.623047"/>
       <use xlink:href="#DejaVuSans-30" x="127.246094"/>
       <use xlink:href="#DejaVuSans-30" x="190.869141"/>
       <use xlink:href="#DejaVuSans-30" x="254.492188"/>
       <use xlink:href="#DejaVuSans-30" x="318.115234"/>
      </g>
     </g>
    </g>
    <g id="ytick_9">
     <g id="line2d_15">
      <g>
       <use xlink:href="#mc7cbf0ef32" x="57.6" y="60.014851" style="stroke: #000000; stroke-width: 0.8"/>
      </g>
     </g>
     <g id="text_16">
      <!-- 800000 -->
      <g transform="translate(12.425 63.81407) scale(0.1 -0.1)">
       <defs>
        <path id="DejaVuSans-38" d="M 2034 2216 
Q 1584 2216 1326 1975 
Q 1069 1734 1069 1313 
Q 1069 891 1326 650 
Q 1584 409 2034 409 
Q 2484 409 2743 651 
Q 3003 894 3003 1313 
Q 3003 1734 2745 1975 
Q 2488 2216 2034 2216 
z
M 1403 2484 
Q 997 2584 770 2862 
Q 544 3141 544 3541 
Q 544 4100 942 4425 
Q 1341 4750 2034 4750 
Q 2731 4750 3128 4425 
Q 3525 4100 3525 3541 
Q 3525 3141 3298 2862 
Q 3072 2584 2669 2484 
Q 3125 2378 3379 2068 
Q 3634 1759 3634 1313 
Q 3634 634 3220 271 
Q 2806 -91 2034 -91 
Q 1263 -91 848 271 
Q 434 634 434 1313 
Q 434 1759 690 2068 
Q 947 2378 1403 2484 
z
M 1172 3481 
Q 1172 3119 1398 2916 
Q 1625 2713 2034 2713 
Q 2441 2713 2670 2916 
Q 2900 3119 2900 3481 
Q 2900 3844 2670 4047 
Q 2441 4250 2034 4250 
Q 1625 4250 1398 4047 
Q 1172 3844 1172 3481 
z
" transform="scale(0.015625)"/>
       </defs>
       <use xlink:href="#DejaVuSans-38"/>
       <use xlink:href="#DejaVuSans-30" x="63.623047"/>
       <use xlink:href="#DejaVuSans-30" x="127.246094"/>
       <use xlink:href="#DejaVuSans-30" x="190.869141"/>
       <use xlink:href="#DejaVuSans-30" x="254.492188"/>
       <use xlink:href="#DejaVuSans-30" x="318.115234"/>
      </g>
     </g>
    </g>
    <g id="text_17">
     <!-- intensities -->
     <g transform="translate(6.345312 200.3155) rotate(-90) scale(0.1 -0.1)">
      <defs>
       <path id="DejaVuSans-69" d="M 603 3500 
L 1178 3500 
L 1178 0 
L 603 0 
L 603 3500 
z
M 603 4863 
L 1178 4863 
L 1178 4134 
L 603 4134 
L 603 4863 
z
" transform="scale(0.015625)"/>
       <path id="DejaVuSans-6e" d="M 3513 2113 
L 3513 0 
L 2938 0 
L 2938 2094 
Q 2938 2591 2744 2837 
Q 2550 3084 2163 3084 
Q 1697 3084 1428 2787 
Q 1159 2491 1159 1978 
L 1159 0 
L 581 0 
L 581 3500 
L 1159 3500 
L 1159 2956 
Q 1366 3272 1645 3428 
Q 1925 3584 2291 3584 
Q 2894 3584 3203 3211 
Q 3513 2838 3513 2113 
z
" transform="scale(0.015625)"/>
       <path id="DejaVuSans-74" d="M 1172 4494 
L 1172 3500 
L 2356 3500 
L 2356 3053 
L 1172 3053 
L 1172 1153 
Q 1172 725 1289 603 
Q 1406 481 1766 481 
L 2356 481 
L 2356 0 
L 1766 0 
Q 1100 0 847 248 
Q 594 497 594 1153 
L 594 3053 
L 172 3053 
L 172 3500 
L 594 3500 
L 594 4494 
L 1172 4494 
z
" transform="scale(0.015625)"/>
       <path id="DejaVuSans-65" d="M 3597 1894 
L 3597 1613 
L 953 1613 
Q 991 1019 1311 708 
Q 1631 397 2203 397 
Q 2534 397 2845 478 
Q 3156 559 3463 722 
L 3463 178 
Q 3153 47 2828 -22 
Q 2503 -91 2169 -91 
Q 1331 -91 842 396 
Q 353 884 353 1716 
Q 353 2575 817 3079 
Q 1281 3584 2069 3584 
Q 2775 3584 3186 3129 
Q 3597 2675 3597 1894 
z
M 3022 2063 
Q 3016 2534 2758 2815 
Q 2500 3097 2075 3097 
Q 1594 3097 1305 2825 
Q 1016 2553 972 2059 
L 3022 2063 
z
" transform="scale(0.015625)"/>
       <path id="DejaVuSans-73" d="M 2834 3397 
L 2834 2853 
Q 2591 2978 2328 3040 
Q 2066 3103 1784 3103 
Q 1356 3103 1142 2972 
Q 928 2841 928 2578 
Q 928 2378 1081 2264 
Q 1234 2150 1697 2047 
L 1894 2003 
Q 2506 1872 2764 1633 
Q 3022 1394 3022 966 
Q 3022 478 2636 193 
Q 2250 -91 1575 -91 
Q 1294 -91 989 -36 
Q 684 19 347 128 
L 347 722 
Q 666 556 975 473 
Q 1284 391 1588 391 
Q 1994 391 2212 530 
Q 2431 669 2431 922 
Q 2431 1156 2273 1281 
Q 2116 1406 1581 1522 
L 1381 1569 
Q 847 1681 609 1914 
Q 372 2147 372 2553 
Q 372 3047 722 3315 
Q 1072 3584 1716 3584 
Q 2034 3584 2315 3537 
Q 2597 3491 2834 3397 
z
" transform="scale(0.015625)"/>
      </defs>
      <use xlink:href="#DejaVuSans-69"/>
      <use xlink:href="#DejaVuSans-6e" x="27.783203"/>
      <use xlink:href="#DejaVuSans-74" x="91.162109"/>
      <use xlink:href="#DejaVuSans-65" x="130.371094"/>
      <use xlink:href="#DejaVuSans-6e" x="191.894531"/>
      <use xlink:href="#DejaVuSans-73" x="255.273438"/>
      <use xlink:href="#DejaVuSans-69" x="307.373047"/>
      <use xlink:href="#DejaVuSans-74" x="335.15625"/>
      <use xlink:href="#DejaVuSans-69" x="374.365234"/>
      <use xlink:href="#DejaVuSans-65" x="402.148438"/>
      <use xlink:href="#DejaVuSans-73" x="463.671875"/>
     </g>
    </g>
   </g>
   <g id="patch_203">
    <path d="M 57.6 307.584 
L 57.6 41.472 
" style="fill: none; stroke: #000000; stroke-width: 0.8; stroke-linejoin: miter; stroke-linecap: square"/>
   </g>
   <g id="patch_204">
    <path d="M 414.72 307.584 
L 414.72 41.472 
" style="fill: none; stroke: #000000; stroke-width: 0.8; stroke-linejoin: miter; stroke-linecap: square"/>
   </g>
   <g id="patch_205">
    <path d="M 57.6 307.584 
L 414.72 307.584 
" style="fill: none; stroke: #000000; stroke-width: 0.8; stroke-linejoin: miter; stroke-linecap: square"/>
   </g>
   <g id="patch_206">
    <path d="M 57.6 41.472 
L 414.72 41.472 
" style="fill: none; stroke: #000000; stroke-width: 0.8; stroke-linejoin: miter; stroke-linecap: square"/>
   </g>
   <g id="text_18">
    <!-- 102.0554 -->
    <g transform="translate(118.918575 161.935725) scale(0.06 -0.06)">
     <defs>
      <path id="DejaVuSans-2e" d="M 684 794 
L 1344 794 
L 1344 0 
L 684 0 
L 684 794 
z
" transform="scale(0.015625)"/>
     </defs>
     <use xlink:href="#DejaVuSans-31"/>
     <use xlink:href="#DejaVuSans-30" x="63.623047"/>
     <use xlink:href="#DejaVuSans-32" x="127.246094"/>
     <use xlink:href="#DejaVuSans-2e" x="190.869141"/>
     <use xlink:href="#DejaVuSans-30" x="222.65625"/>
     <use xlink:href="#DejaVuSans-35" x="286.279297"/>
     <use xlink:href="#DejaVuSans-35" x="349.902344"/>
     <use xlink:href="#DejaVuSans-34" x="413.525391"/>
    </g>
   </g>
   <g id="text_19">
    <!-- 130.0652 -->
    <g transform="translate(151.740278 265.469777) scale(0.06 -0.06)">
     <use xlink:href="#DejaVuSans-31"/>
     <use xlink:href="#DejaVuSans-33" x="63.623047"/>
     <use xlink:href="#DejaVuSans-30" x="127.246094"/>
     <use xlink:href="#DejaVuSans-2e" x="190.869141"/>
     <use xlink:href="#DejaVuSans-30" x="222.65625"/>
     <use xlink:href="#DejaVuSans-36" x="286.279297"/>
     <use xlink:href="#DejaVuSans-35" x="349.902344"/>
     <use xlink:href="#DejaVuSans-32" x="413.525391"/>
    </g>
   </g>
   <g id="text_20">
    <!-- 183.0915 -->
    <g transform="translate(204.51607 268.496009) scale(0.06 -0.06)">
     <defs>
      <path id="DejaVuSans-39" d="M 703 97 
L 703 672 
Q 941 559 1184 500 
Q 1428 441 1663 441 
Q 2288 441 2617 861 
Q 2947 1281 2994 2138 
Q 2813 1869 2534 1725 
Q 2256 1581 1919 1581 
Q 1219 1581 811 2004 
Q 403 2428 403 3163 
Q 403 3881 828 4315 
Q 1253 4750 1959 4750 
Q 2769 4750 3195 4129 
Q 3622 3509 3622 2328 
Q 3622 1225 3098 567 
Q 2575 -91 1691 -91 
Q 1453 -91 1209 -44 
Q 966 3 703 97 
z
M 1959 2075 
Q 2384 2075 2632 2365 
Q 2881 2656 2881 3163 
Q 2881 3666 2632 3958 
Q 2384 4250 1959 4250 
Q 1534 4250 1286 3958 
Q 1038 3666 1038 3163 
Q 1038 2656 1286 2365 
Q 1534 2075 1959 2075 
z
" transform="scale(0.015625)"/>
     </defs>
     <use xlink:href="#DejaVuSans-31"/>
     <use xlink:href="#DejaVuSans-38" x="63.623047"/>
     <use xlink:href="#DejaVuSans-33" x="127.246094"/>
     <use xlink:href="#DejaVuSans-2e" x="190.869141"/>
     <use xlink:href="#DejaVuSans-30" x="222.65625"/>
     <use xlink:href="#DejaVuSans-39" x="286.279297"/>
     <use xlink:href="#DejaVuSans-31" x="349.902344"/>
     <use xlink:href="#DejaVuSans-35" x="413.525391"/>
    </g>
   </g>
   <g id="text_21">
    <!-- 202.0497 -->
    <g transform="translate(231.639039 262.379241) scale(0.06 -0.06)">
     <use xlink:href="#DejaVuSans-32"/>
     <use xlink:href="#DejaVuSans-30" x="63.623047"/>
     <use xlink:href="#DejaVuSans-32" x="127.246094"/>
     <use xlink:href="#DejaVuSans-2e" x="190.869141"/>
     <use xlink:href="#DejaVuSans-30" x="222.65625"/>
     <use xlink:href="#DejaVuSans-34" x="286.279297"/>
     <use xlink:href="#DejaVuSans-39" x="349.902344"/>
     <use xlink:href="#DejaVuSans-37" x="413.525391"/>
    </g>
   </g>
   <g id="text_22">
    <!-- 211.0864 -->
    <g transform="translate(246.680215 90.755224) scale(0.06 -0.06)">
     <use xlink:href="#DejaVuSans-32"/>
     <use xlink:href="#DejaVuSans-31" x="63.623047"/>
     <use xlink:href="#DejaVuSans-31" x="127.246094"/>
     <use xlink:href="#DejaVuSans-2e" x="190.869141"/>
     <use xlink:href="#DejaVuSans-30" x="222.65625"/>
     <use xlink:href="#DejaVuSans-38" x="286.279297"/>
     <use xlink:href="#DejaVuSans-36" x="349.902344"/>
     <use xlink:href="#DejaVuSans-34" x="413.525391"/>
    </g>
   </g>
   <g id="text_23">
    <!-- 212.0926 -->
    <g transform="translate(248.579302 253.066833) scale(0.06 -0.06)">
     <use xlink:href="#DejaVuSans-32"/>
     <use xlink:href="#DejaVuSans-31" x="63.623047"/>
     <use xlink:href="#DejaVuSans-32" x="127.246094"/>
     <use xlink:href="#DejaVuSans-2e" x="190.869141"/>
     <use xlink:href="#DejaVuSans-30" x="222.65625"/>
     <use xlink:href="#DejaVuSans-39" x="286.279297"/>
     <use xlink:href="#DejaVuSans-32" x="349.902344"/>
     <use xlink:href="#DejaVuSans-36" x="413.525391"/>
    </g>
   </g>
   <g id="text_24">
    <!-- 226.0869 -->
    <g transform="translate(254.8977 278.964463) scale(0.06 -0.06)">
     <use xlink:href="#DejaVuSans-32"/>
     <use xlink:href="#DejaVuSans-32" x="63.623047"/>
     <use xlink:href="#DejaVuSans-36" x="127.246094"/>
     <use xlink:href="#DejaVuSans-2e" x="190.869141"/>
     <use xlink:href="#DejaVuSans-30" x="222.65625"/>
     <use xlink:href="#DejaVuSans-38" x="286.279297"/>
     <use xlink:href="#DejaVuSans-36" x="349.902344"/>
     <use xlink:href="#DejaVuSans-39" x="413.525391"/>
    </g>
   </g>
   <g id="text_25">
    <!-- 228.0889 -->
    <g transform="translate(266.60368 50.939625) scale(0.06 -0.06)">
     <use xlink:href="#DejaVuSans-32"/>
     <use xlink:href="#DejaVuSans-32" x="63.623047"/>
     <use xlink:href="#DejaVuSans-38" x="127.246094"/>
     <use xlink:href="#DejaVuSans-2e" x="190.869141"/>
     <use xlink:href="#DejaVuSans-30" x="222.65625"/>
     <use xlink:href="#DejaVuSans-38" x="286.279297"/>
     <use xlink:href="#DejaVuSans-38" x="349.902344"/>
     <use xlink:href="#DejaVuSans-39" x="413.525391"/>
    </g>
   </g>
   <g id="text_26">
    <!-- 230.0447 -->
    <g transform="translate(268.895447 194.843284) scale(0.06 -0.06)">
     <use xlink:href="#DejaVuSans-32"/>
     <use xlink:href="#DejaVuSans-33" x="63.623047"/>
     <use xlink:href="#DejaVuSans-30" x="127.246094"/>
     <use xlink:href="#DejaVuSans-2e" x="190.869141"/>
     <use xlink:href="#DejaVuSans-30" x="222.65625"/>
     <use xlink:href="#DejaVuSans-34" x="286.279297"/>
     <use xlink:href="#DejaVuSans-34" x="349.902344"/>
     <use xlink:href="#DejaVuSans-37" x="413.525391"/>
    </g>
   </g>
   <g id="text_27">
    <!-- 240.029 -->
    <g transform="translate(283.22368 259.016947) scale(0.06 -0.06)">
     <use xlink:href="#DejaVuSans-32"/>
     <use xlink:href="#DejaVuSans-34" x="63.623047"/>
     <use xlink:href="#DejaVuSans-30" x="127.246094"/>
     <use xlink:href="#DejaVuSans-2e" x="190.869141"/>
     <use xlink:href="#DejaVuSans-30" x="222.65625"/>
     <use xlink:href="#DejaVuSans-32" x="286.279297"/>
     <use xlink:href="#DejaVuSans-39" x="349.902344"/>
    </g>
   </g>
   <g id="text_28">
    <!-- 272.0547 -->
    <g transform="translate(318.122378 136.516601) scale(0.06 -0.06)">
     <use xlink:href="#DejaVuSans-32"/>
     <use xlink:href="#DejaVuSans-37" x="63.623047"/>
     <use xlink:href="#DejaVuSans-32" x="127.246094"/>
     <use xlink:href="#DejaVuSans-2e" x="190.869141"/>
     <use xlink:href="#DejaVuSans-30" x="222.65625"/>
     <use xlink:href="#DejaVuSans-35" x="286.279297"/>
     <use xlink:href="#DejaVuSans-34" x="349.902344"/>
     <use xlink:href="#DejaVuSans-37" x="413.525391"/>
    </g>
   </g>
   <g id="text_29">
    <!-- MS2 spectrum of ${m/z}$ 363.1172, scan time 6.27 min. -->
    <g transform="translate(57.6 35.472) scale(0.12 -0.12)">
     <defs>
      <path id="DejaVuSans-4d" d="M 628 4666 
L 1569 4666 
L 2759 1491 
L 3956 4666 
L 4897 4666 
L 4897 0 
L 4281 0 
L 4281 4097 
L 3078 897 
L 2444 897 
L 1241 4097 
L 1241 0 
L 628 0 
L 628 4666 
z
" transform="scale(0.015625)"/>
      <path id="DejaVuSans-53" d="M 3425 4513 
L 3425 3897 
Q 3066 4069 2747 4153 
Q 2428 4238 2131 4238 
Q 1616 4238 1336 4038 
Q 1056 3838 1056 3469 
Q 1056 3159 1242 3001 
Q 1428 2844 1947 2747 
L 2328 2669 
Q 3034 2534 3370 2195 
Q 3706 1856 3706 1288 
Q 3706 609 3251 259 
Q 2797 -91 1919 -91 
Q 1588 -91 1214 -16 
Q 841 59 441 206 
L 441 856 
Q 825 641 1194 531 
Q 1563 422 1919 422 
Q 2459 422 2753 634 
Q 3047 847 3047 1241 
Q 3047 1584 2836 1778 
Q 2625 1972 2144 2069 
L 1759 2144 
Q 1053 2284 737 2584 
Q 422 2884 422 3419 
Q 422 4038 858 4394 
Q 1294 4750 2059 4750 
Q 2388 4750 2728 4690 
Q 3069 4631 3425 4513 
z
" transform="scale(0.015625)"/>
      <path id="DejaVuSans-20" transform="scale(0.015625)"/>
      <path id="DejaVuSans-70" d="M 1159 525 
L 1159 -1331 
L 581 -1331 
L 581 3500 
L 1159 3500 
L 1159 2969 
Q 1341 3281 1617 3432 
Q 1894 3584 2278 3584 
Q 2916 3584 3314 3078 
Q 3713 2572 3713 1747 
Q 3713 922 3314 415 
Q 2916 -91 2278 -91 
Q 1894 -91 1617 61 
Q 1341 213 1159 525 
z
M 3116 1747 
Q 3116 2381 2855 2742 
Q 2594 3103 2138 3103 
Q 1681 3103 1420 2742 
Q 1159 2381 1159 1747 
Q 1159 1113 1420 752 
Q 1681 391 2138 391 
Q 2594 391 2855 752 
Q 3116 1113 3116 1747 
z
" transform="scale(0.015625)"/>
      <path id="DejaVuSans-63" d="M 3122 3366 
L 3122 2828 
Q 2878 2963 2633 3030 
Q 2388 3097 2138 3097 
Q 1578 3097 1268 2742 
Q 959 2388 959 1747 
Q 959 1106 1268 751 
Q 1578 397 2138 397 
Q 2388 397 2633 464 
Q 2878 531 3122 666 
L 3122 134 
Q 2881 22 2623 -34 
Q 2366 -91 2075 -91 
Q 1284 -91 818 406 
Q 353 903 353 1747 
Q 353 2603 823 3093 
Q 1294 3584 2113 3584 
Q 2378 3584 2631 3529 
Q 2884 3475 3122 3366 
z
" transform="scale(0.015625)"/>
      <path id="DejaVuSans-72" d="M 2631 2963 
Q 2534 3019 2420 3045 
Q 2306 3072 2169 3072 
Q 1681 3072 1420 2755 
Q 1159 2438 1159 1844 
L 1159 0 
L 581 0 
L 581 3500 
L 1159 3500 
L 1159 2956 
Q 1341 3275 1631 3429 
Q 1922 3584 2338 3584 
Q 2397 3584 2469 3576 
Q 2541 3569 2628 3553 
L 2631 2963 
z
" transform="scale(0.015625)"/>
      <path id="DejaVuSans-75" d="M 544 1381 
L 544 3500 
L 1119 3500 
L 1119 1403 
Q 1119 906 1312 657 
Q 1506 409 1894 409 
Q 2359 409 2629 706 
Q 2900 1003 2900 1516 
L 2900 3500 
L 3475 3500 
L 3475 0 
L 2900 0 
L 2900 538 
Q 2691 219 2414 64 
Q 2138 -91 1772 -91 
Q 1169 -91 856 284 
Q 544 659 544 1381 
z
M 1991 3584 
L 1991 3584 
z
" transform="scale(0.015625)"/>
      <path id="DejaVuSans-6d" d="M 3328 2828 
Q 3544 3216 3844 3400 
Q 4144 3584 4550 3584 
Q 5097 3584 5394 3201 
Q 5691 2819 5691 2113 
L 5691 0 
L 5113 0 
L 5113 2094 
Q 5113 2597 4934 2840 
Q 4756 3084 4391 3084 
Q 3944 3084 3684 2787 
Q 3425 2491 3425 1978 
L 3425 0 
L 2847 0 
L 2847 2094 
Q 2847 2600 2669 2842 
Q 2491 3084 2119 3084 
Q 1678 3084 1418 2786 
Q 1159 2488 1159 1978 
L 1159 0 
L 581 0 
L 581 3500 
L 1159 3500 
L 1159 2956 
Q 1356 3278 1631 3431 
Q 1906 3584 2284 3584 
Q 2666 3584 2933 3390 
Q 3200 3197 3328 2828 
z
" transform="scale(0.015625)"/>
      <path id="DejaVuSans-6f" d="M 1959 3097 
Q 1497 3097 1228 2736 
Q 959 2375 959 1747 
Q 959 1119 1226 758 
Q 1494 397 1959 397 
Q 2419 397 2687 759 
Q 2956 1122 2956 1747 
Q 2956 2369 2687 2733 
Q 2419 3097 1959 3097 
z
M 1959 3584 
Q 2709 3584 3137 3096 
Q 3566 2609 3566 1747 
Q 3566 888 3137 398 
Q 2709 -91 1959 -91 
Q 1206 -91 779 398 
Q 353 888 353 1747 
Q 353 2609 779 3096 
Q 1206 3584 1959 3584 
z
" transform="scale(0.015625)"/>
      <path id="DejaVuSans-66" d="M 2375 4863 
L 2375 4384 
L 1825 4384 
Q 1516 4384 1395 4259 
Q 1275 4134 1275 3809 
L 1275 3500 
L 2222 3500 
L 2222 3053 
L 1275 3053 
L 1275 0 
L 697 0 
L 697 3053 
L 147 3053 
L 147 3500 
L 697 3500 
L 697 3744 
Q 697 4328 969 4595 
Q 1241 4863 1831 4863 
L 2375 4863 
z
" transform="scale(0.015625)"/>
      <path id="DejaVuSans-2c" d="M 750 794 
L 1409 794 
L 1409 256 
L 897 -744 
L 494 -744 
L 750 256 
L 750 794 
z
" transform="scale(0.015625)"/>
      <path id="DejaVuSans-61" d="M 2194 1759 
Q 1497 1759 1228 1600 
Q 959 1441 959 1056 
Q 959 750 1161 570 
Q 1363 391 1709 391 
Q 2188 391 2477 730 
Q 2766 1069 2766 1631 
L 2766 1759 
L 2194 1759 
z
M 3341 1997 
L 3341 0 
L 2766 0 
L 2766 531 
Q 2569 213 2275 61 
Q 1981 -91 1556 -91 
Q 1019 -91 701 211 
Q 384 513 384 1019 
Q 384 1609 779 1909 
Q 1175 2209 1959 2209 
L 2766 2209 
L 2766 2266 
Q 2766 2663 2505 2880 
Q 2244 3097 1772 3097 
Q 1472 3097 1187 3025 
Q 903 2953 641 2809 
L 641 3341 
Q 956 3463 1253 3523 
Q 1550 3584 1831 3584 
Q 2591 3584 2966 3190 
Q 3341 2797 3341 1997 
z
" transform="scale(0.015625)"/>
     </defs>
     <use xlink:href="#DejaVuSans-4d" transform="translate(0 0.015625)"/>
     <use xlink:href="#DejaVuSans-53" transform="translate(86.279297 0.015625)"/>
     <use xlink:href="#DejaVuSans-32" transform="translate(149.755859 0.015625)"/>
     <use xlink:href="#DejaVuSans-20" transform="translate(213.378906 0.015625)"/>
     <use xlink:href="#DejaVuSans-73" transform="translate(245.166016 0.015625)"/>
     <use xlink:href="#DejaVuSans-70" transform="translate(297.265625 0.015625)"/>
     <use xlink:href="#DejaVuSans-65" transform="translate(360.742188 0.015625)"/>
     <use xlink:href="#DejaVuSans-63" transform="translate(422.265625 0.015625)"/>
     <use xlink:href="#DejaVuSans-74" transform="translate(477.246094 0.015625)"/>
     <use xlink:href="#DejaVuSans-72" transform="translate(516.455078 0.015625)"/>
     <use xlink:href="#DejaVuSans-75" transform="translate(557.568359 0.015625)"/>
     <use xlink:href="#DejaVuSans-6d" transform="translate(620.947266 0.015625)"/>
     <use xlink:href="#DejaVuSans-20" transform="translate(718.359375 0.015625)"/>
     <use xlink:href="#DejaVuSans-6f" transform="translate(750.146484 0.015625)"/>
     <use xlink:href="#DejaVuSans-66" transform="translate(811.328125 0.015625)"/>
     <use xlink:href="#DejaVuSans-20" transform="translate(846.533203 0.015625)"/>
     <use xlink:href="#DejaVuSans-Oblique-6d" transform="translate(878.320312 0.015625)"/>
     <use xlink:href="#DejaVuSans-2f" transform="translate(975.732422 0.015625)"/>
     <use xlink:href="#DejaVuSans-Oblique-7a" transform="translate(1009.423828 0.015625)"/>
     <use xlink:href="#DejaVuSans-20" transform="translate(1061.914062 0.015625)"/>
     <use xlink:href="#DejaVuSans-33" transform="translate(1093.701172 0.015625)"/>
     <use xlink:href="#DejaVuSans-36" transform="translate(1157.324219 0.015625)"/>
     <use xlink:href="#DejaVuSans-33" transform="translate(1220.947266 0.015625)"/>
     <use xlink:href="#DejaVuSans-2e" transform="translate(1284.570312 0.015625)"/>
     <use xlink:href="#DejaVuSans-31" transform="translate(1316.357422 0.015625)"/>
     <use xlink:href="#DejaVuSans-31" transform="translate(1379.980469 0.015625)"/>
     <use xlink:href="#DejaVuSans-37" transform="translate(1443.603516 0.015625)"/>
     <use xlink:href="#DejaVuSans-32" transform="translate(1507.226562 0.015625)"/>
     <use xlink:href="#DejaVuSans-2c" transform="translate(1570.849609 0.015625)"/>
     <use xlink:href="#DejaVuSans-20" transform="translate(1602.636719 0.015625)"/>
     <use xlink:href="#DejaVuSans-73" transform="translate(1634.423828 0.015625)"/>
     <use xlink:href="#DejaVuSans-63" transform="translate(1686.523438 0.015625)"/>
     <use xlink:href="#DejaVuSans-61" transform="translate(1741.503906 0.015625)"/>
     <use xlink:href="#DejaVuSans-6e" transform="translate(1802.783203 0.015625)"/>
     <use xlink:href="#DejaVuSans-20" transform="translate(1866.162109 0.015625)"/>
     <use xlink:href="#DejaVuSans-74" transform="translate(1897.949219 0.015625)"/>
     <use xlink:href="#DejaVuSans-69" transform="translate(1937.158203 0.015625)"/>
     <use xlink:href="#DejaVuSans-6d" transform="translate(1964.941406 0.015625)"/>
     <use xlink:href="#DejaVuSans-65" transform="translate(2062.353516 0.015625)"/>
     <use xlink:href="#DejaVuSans-20" transform="translate(2123.876953 0.015625)"/>
     <use xlink:href="#DejaVuSans-36" transform="translate(2155.664062 0.015625)"/>
     <use xlink:href="#DejaVuSans-2e" transform="translate(2219.287109 0.015625)"/>
     <use xlink:href="#DejaVuSans-32" transform="translate(2245.574219 0.015625)"/>
     <use xlink:href="#DejaVuSans-37" transform="translate(2309.197266 0.015625)"/>
     <use xlink:href="#DejaVuSans-20" transform="translate(2372.820312 0.015625)"/>
     <use xlink:href="#DejaVuSans-6d" transform="translate(2404.607422 0.015625)"/>
     <use xlink:href="#DejaVuSans-69" transform="translate(2502.019531 0.015625)"/>
     <use xlink:href="#DejaVuSans-6e" transform="translate(2529.802734 0.015625)"/>
     <use xlink:href="#DejaVuSans-2e" transform="translate(2593.181641 0.015625)"/>
    </g>
   </g>
  </g>
 </g>
 <defs>
  <clipPath id="p6580221ca4">
   <rect x="57.6" y="41.472" width="357.12" height="266.112"/>
  </clipPath>
 </defs>
</svg>
