<?xml version="1.0" encoding="utf-8" standalone="no"?>
<!DOCTYPE svg PUBLIC "-//W3C//DTD SVG 1.1//EN"
  "http://www.w3.org/Graphics/SVG/1.1/DTD/svg11.dtd">
<svg xmlns:xlink="http://www.w3.org/1999/xlink" width="460.8pt" height="345.6pt" viewBox="0 0 460.8 345.6" xmlns="http://www.w3.org/2000/svg" version="1.1">
 <metadata>
  <rdf:RDF xmlns:dc="http://purl.org/dc/elements/1.1/" xmlns:cc="http://creativecommons.org/ns#" xmlns:rdf="http://www.w3.org/1999/02/22-rdf-syntax-ns#">
   <cc:Work>
    <dc:type rdf:resource="http://purl.org/dc/dcmitype/StillImage"/>
    <dc:date>2025-01-11T13:56:17.132122</dc:date>
    <dc:format>image/svg+xml</dc:format>
    <dc:creator>
     <cc:Agent>
      <dc:title>Matplotlib v3.7.3, https://matplotlib.org/</dc:title>
     </cc:Agent>
    </dc:creator>
   </cc:Work>
  </rdf:RDF>
 </metadata>
 <defs>
  <style type="text/css">*{stroke-linejoin: round; stroke-linecap: butt}</style>
 </defs>
 <g id="figure_1">
  <g id="patch_1">
   <path d="M 0 345.6 
L 460.8 345.6 
L 460.8 0 
L 0 0 
z
" style="fill: #ffffff"/>
  </g>
  <g id="axes_1">
   <g id="patch_2">
    <path d="M 57.6 307.584 
L 414.72 307.584 
L 414.72 41.472 
L 57.6 41.472 
z
" style="fill: #ffffff"/>
   </g>
   <g id="patch_3">
    <path d="M 73.832727 307.584 
L 74.586122 307.584 
L 74.586122 298.054687 
L 73.832727 298.054687 
z
" clip-path="url(#p0f68a27921)" style="fill: #1f77b4"/>
   </g>
   <g id="patch_4">
    <path d="M 77.37537 307.584 
L 78.128765 307.584 
L 78.128765 305.744911 
L 77.37537 305.744911 
z
" clip-path="url(#p0f68a27921)" style="fill: #1f77b4"/>
   </g>
   <g id="patch_5">
    <path d="M 80.454142 307.584 
L 81.207537 307.584 
L 81.207537 305.398643 
L 80.454142 305.398643 
z
" clip-path="url(#p0f68a27921)" style="fill: #1f77b4"/>
   </g>
   <g id="patch_6">
    <path d="M 86.513225 307.584 
L 87.26662 307.584 
L 87.26662 305.641358 
L 86.513225 305.641358 
z
" clip-path="url(#p0f68a27921)" style="fill: #1f77b4"/>
   </g>
   <g id="patch_7">
    <path d="M 87.031776 307.584 
L 87.785171 307.584 
L 87.785171 295.650372 
L 87.031776 295.650372 
z
" clip-path="url(#p0f68a27921)" style="fill: #1f77b4"/>
   </g>
   <g id="patch_8">
    <path d="M 96.962373 307.584 
L 97.715768 307.584 
L 97.715768 305.459244 
L 96.962373 305.459244 
z
" clip-path="url(#p0f68a27921)" style="fill: #1f77b4"/>
   </g>
   <g id="patch_9">
    <path d="M 103.176988 307.584 
L 103.930383 307.584 
L 103.930383 305.69288 
L 103.176988 305.69288 
z
" clip-path="url(#p0f68a27921)" style="fill: #1f77b4"/>
   </g>
   <g id="patch_10">
    <path d="M 109.922562 307.584 
L 110.675957 307.584 
L 110.675957 305.711315 
L 109.922562 305.711315 
z
" clip-path="url(#p0f68a27921)" style="fill: #1f77b4"/>
   </g>
   <g id="patch_11">
    <path d="M 116.196374 307.584 
L 116.949768 307.584 
L 116.949768 304.067162 
L 116.196374 304.067162 
z
" clip-path="url(#p0f68a27921)" style="fill: #1f77b4"/>
   </g>
   <g id="patch_12">
    <path d="M 119.512852 307.584 
L 120.266247 307.584 
L 120.266247 305.70361 
L 119.512852 305.70361 
z
" clip-path="url(#p0f68a27921)" style="fill: #1f77b4"/>
   </g>
   <g id="patch_13">
    <path d="M 126.560467 307.584 
L 127.313862 307.584 
L 127.313862 305.393849 
L 126.560467 305.393849 
z
" clip-path="url(#p0f68a27921)" style="fill: #1f77b4"/>
   </g>
   <g id="patch_14">
    <path d="M 128.438335 307.584 
L 129.19173 307.584 
L 129.19173 300.9511 
L 128.438335 300.9511 
z
" clip-path="url(#p0f68a27921)" style="fill: #1f77b4"/>
   </g>
   <g id="patch_15">
    <path d="M 135.001901 307.584 
L 135.755296 307.584 
L 135.755296 289.885031 
L 135.001901 289.885031 
z
" clip-path="url(#p0f68a27921)" style="fill: #1f77b4"/>
   </g>
   <g id="patch_16">
    <path d="M 142.560428 307.584 
L 143.313823 307.584 
L 143.313823 305.565232 
L 142.560428 305.565232 
z
" clip-path="url(#p0f68a27921)" style="fill: #1f77b4"/>
   </g>
   <g id="patch_17">
    <path d="M 142.573821 307.584 
L 143.327216 307.584 
L 143.327216 304.608361 
L 142.573821 304.608361 
z
" clip-path="url(#p0f68a27921)" style="fill: #1f77b4"/>
   </g>
   <g id="patch_18">
    <path d="M 144.438512 307.584 
L 145.191907 307.584 
L 145.191907 305.218979 
L 144.438512 305.218979 
z
" clip-path="url(#p0f68a27921)" style="fill: #1f77b4"/>
   </g>
   <g id="patch_19">
    <path d="M 151.977504 307.584 
L 152.730899 307.584 
L 152.730899 304.531706 
L 151.977504 304.531706 
z
" clip-path="url(#p0f68a27921)" style="fill: #1f77b4"/>
   </g>
   <g id="patch_20">
    <path d="M 153.87539 307.584 
L 154.628785 307.584 
L 154.628785 297.363229 
L 153.87539 297.363229 
z
" clip-path="url(#p0f68a27921)" style="fill: #1f77b4"/>
   </g>
   <g id="patch_21">
    <path d="M 155.739564 307.584 
L 156.492959 307.584 
L 156.492959 304.46878 
L 155.739564 304.46878 
z
" clip-path="url(#p0f68a27921)" style="fill: #1f77b4"/>
   </g>
   <g id="patch_22">
    <path d="M 160.428379 307.584 
L 161.181774 307.584 
L 161.181774 228.182711 
L 160.428379 228.182711 
z
" clip-path="url(#p0f68a27921)" style="fill: #1f77b4"/>
   </g>
   <g id="patch_23">
    <path d="M 161.373255 307.584 
L 162.12665 307.584 
L 162.12665 298.06353 
L 161.373255 298.06353 
z
" clip-path="url(#p0f68a27921)" style="fill: #1f77b4"/>
   </g>
   <g id="patch_24">
    <path d="M 165.162445 307.584 
L 165.91584 307.584 
L 165.91584 303.049287 
L 165.162445 303.049287 
z
" clip-path="url(#p0f68a27921)" style="fill: #1f77b4"/>
   </g>
   <g id="patch_25">
    <path d="M 165.176255 307.584 
L 165.92965 307.584 
L 165.92965 287.40752 
L 165.176255 287.40752 
z
" clip-path="url(#p0f68a27921)" style="fill: #1f77b4"/>
   </g>
   <g id="patch_26">
    <path d="M 176.477105 307.584 
L 177.2305 307.584 
L 177.2305 302.802211 
L 176.477105 302.802211 
z
" clip-path="url(#p0f68a27921)" style="fill: #1f77b4"/>
   </g>
   <g id="patch_27">
    <path d="M 177.389232 307.584 
L 178.142627 307.584 
L 178.142627 300.814399 
L 177.389232 300.814399 
z
" clip-path="url(#p0f68a27921)" style="fill: #1f77b4"/>
   </g>
   <g id="patch_28">
    <path d="M 177.426421 307.584 
L 178.179816 307.584 
L 178.179816 302.152549 
L 177.426421 302.152549 
z
" clip-path="url(#p0f68a27921)" style="fill: #1f77b4"/>
   </g>
   <g id="patch_29">
    <path d="M 178.363179 307.584 
L 179.116573 307.584 
L 179.116573 303.537556 
L 178.363179 303.537556 
z
" clip-path="url(#p0f68a27921)" style="fill: #1f77b4"/>
   </g>
   <g id="patch_30">
    <path d="M 178.375019 307.584 
L 179.128414 307.584 
L 179.128414 291.023834 
L 178.375019 291.023834 
z
" clip-path="url(#p0f68a27921)" style="fill: #1f77b4"/>
   </g>
   <g id="patch_31">
    <path d="M 180.239581 307.584 
L 180.992976 307.584 
L 180.992976 284.201375 
L 180.239581 284.201375 
z
" clip-path="url(#p0f68a27921)" style="fill: #1f77b4"/>
   </g>
   <g id="patch_32">
    <path d="M 187.777912 307.584 
L 188.531307 307.584 
L 188.531307 300.092989 
L 187.777912 300.092989 
z
" clip-path="url(#p0f68a27921)" style="fill: #1f77b4"/>
   </g>
   <g id="patch_33">
    <path d="M 189.664331 307.584 
L 190.417726 307.584 
L 190.417726 298.792526 
L 189.664331 298.792526 
z
" clip-path="url(#p0f68a27921)" style="fill: #1f77b4"/>
   </g>
   <g id="patch_34">
    <path d="M 190.614006 307.584 
L 191.367401 307.584 
L 191.367401 296.548656 
L 190.614006 296.548656 
z
" clip-path="url(#p0f68a27921)" style="fill: #1f77b4"/>
   </g>
   <g id="patch_35">
    <path d="M 191.562906 307.584 
L 192.316301 307.584 
L 192.316301 285.914138 
L 191.562906 285.914138 
z
" clip-path="url(#p0f68a27921)" style="fill: #1f77b4"/>
   </g>
   <g id="patch_36">
    <path d="M 192.489346 307.584 
L 193.242741 307.584 
L 193.242741 305.101462 
L 192.489346 305.101462 
z
" clip-path="url(#p0f68a27921)" style="fill: #1f77b4"/>
   </g>
   <g id="patch_37">
    <path d="M 192.512064 307.584 
L 193.265459 307.584 
L 193.265459 279.115655 
L 192.512064 279.115655 
z
" clip-path="url(#p0f68a27921)" style="fill: #1f77b4"/>
   </g>
   <g id="patch_38">
    <path d="M 193.438274 307.584 
L 194.191669 307.584 
L 194.191669 303.923853 
L 193.438274 303.923853 
z
" clip-path="url(#p0f68a27921)" style="fill: #1f77b4"/>
   </g>
   <g id="patch_39">
    <path d="M 193.45947 307.584 
L 194.212865 307.584 
L 194.212865 305.110428 
L 193.45947 305.110428 
z
" clip-path="url(#p0f68a27921)" style="fill: #1f77b4"/>
   </g>
   <g id="patch_40">
    <path d="M 195.302879 307.584 
L 196.056274 307.584 
L 196.056274 302.960166 
L 195.302879 302.960166 
z
" clip-path="url(#p0f68a27921)" style="fill: #1f77b4"/>
   </g>
   <g id="patch_41">
    <path d="M 201.914756 307.584 
L 202.668151 307.584 
L 202.668151 294.158088 
L 201.914756 294.158088 
z
" clip-path="url(#p0f68a27921)" style="fill: #1f77b4"/>
   </g>
   <g id="patch_42">
    <path d="M 202.843969 307.584 
L 203.597364 307.584 
L 203.597364 304.542573 
L 202.843969 304.542573 
z
" clip-path="url(#p0f68a27921)" style="fill: #1f77b4"/>
   </g>
   <g id="patch_43">
    <path d="M 202.863814 307.584 
L 203.617209 307.584 
L 203.617209 256.061003 
L 202.863814 256.061003 
z
" clip-path="url(#p0f68a27921)" style="fill: #1f77b4"/>
   </g>
   <g id="patch_44">
    <path d="M 203.778413 307.584 
L 204.531808 307.584 
L 204.531808 301.476332 
L 203.778413 301.476332 
z
" clip-path="url(#p0f68a27921)" style="fill: #1f77b4"/>
   </g>
   <g id="patch_45">
    <path d="M 203.812929 307.584 
L 204.566324 307.584 
L 204.566324 201.277 
L 203.812929 201.277 
z
" clip-path="url(#p0f68a27921)" style="fill: #1f77b4"/>
   </g>
   <g id="patch_46">
    <path d="M 204.761814 307.584 
L 205.515209 307.584 
L 205.515209 275.89223 
L 204.761814 275.89223 
z
" clip-path="url(#p0f68a27921)" style="fill: #1f77b4"/>
   </g>
   <g id="patch_47">
    <path d="M 205.71103 307.584 
L 206.464425 307.584 
L 206.464425 284.330202 
L 205.71103 284.330202 
z
" clip-path="url(#p0f68a27921)" style="fill: #1f77b4"/>
   </g>
   <g id="patch_48">
    <path d="M 206.603155 307.584 
L 207.35655 307.584 
L 207.35655 303.663388 
L 206.603155 303.663388 
z
" clip-path="url(#p0f68a27921)" style="fill: #1f77b4"/>
   </g>
   <g id="patch_49">
    <path d="M 206.656294 307.584 
L 207.409689 307.584 
L 207.409689 305.21115 
L 206.656294 305.21115 
z
" clip-path="url(#p0f68a27921)" style="fill: #1f77b4"/>
   </g>
   <g id="patch_50">
    <path d="M 208.50117 307.584 
L 209.254564 307.584 
L 209.254564 303.39044 
L 208.50117 303.39044 
z
" clip-path="url(#p0f68a27921)" style="fill: #1f77b4"/>
   </g>
   <g id="patch_51">
    <path d="M 216.977695 307.584 
L 217.73109 307.584 
L 217.73109 270.463663 
L 216.977695 270.463663 
z
" clip-path="url(#p0f68a27921)" style="fill: #1f77b4"/>
   </g>
   <g id="patch_52">
    <path d="M 217.922025 307.584 
L 218.67542 307.584 
L 218.67542 302.317314 
L 217.922025 302.317314 
z
" clip-path="url(#p0f68a27921)" style="fill: #1f77b4"/>
   </g>
   <g id="patch_53">
    <path d="M 217.938895 307.584 
L 218.69229 307.584 
L 218.69229 303.409674 
L 217.938895 303.409674 
z
" clip-path="url(#p0f68a27921)" style="fill: #1f77b4"/>
   </g>
   <g id="patch_54">
    <path d="M 218.854787 307.584 
L 219.608182 307.584 
L 219.608182 301.635233 
L 218.854787 301.635233 
z
" clip-path="url(#p0f68a27921)" style="fill: #1f77b4"/>
   </g>
   <g id="patch_55">
    <path d="M 218.875667 307.584 
L 219.629061 307.584 
L 219.629061 226.669573 
L 218.875667 226.669573 
z
" clip-path="url(#p0f68a27921)" style="fill: #1f77b4"/>
   </g>
   <g id="patch_56">
    <path d="M 219.802264 307.584 
L 220.555659 307.584 
L 220.555659 303.838097 
L 219.802264 303.838097 
z
" clip-path="url(#p0f68a27921)" style="fill: #1f77b4"/>
   </g>
   <g id="patch_57">
    <path d="M 219.824322 307.584 
L 220.577717 307.584 
L 220.577717 275.743735 
L 219.824322 275.743735 
z
" clip-path="url(#p0f68a27921)" style="fill: #1f77b4"/>
   </g>
   <g id="patch_58">
    <path d="M 220.770865 307.584 
L 221.52426 307.584 
L 221.52426 302.931041 
L 220.770865 302.931041 
z
" clip-path="url(#p0f68a27921)" style="fill: #1f77b4"/>
   </g>
   <g id="patch_59">
    <path d="M 221.666654 307.584 
L 222.420049 307.584 
L 222.420049 244.041189 
L 221.666654 244.041189 
z
" clip-path="url(#p0f68a27921)" style="fill: #1f77b4"/>
   </g>
   <g id="patch_60">
    <path d="M 222.6137 307.584 
L 223.367095 307.584 
L 223.367095 297.874621 
L 222.6137 297.874621 
z
" clip-path="url(#p0f68a27921)" style="fill: #1f77b4"/>
   </g>
   <g id="patch_61">
    <path d="M 225.463057 307.584 
L 226.216452 307.584 
L 226.216452 303.163488 
L 225.463057 303.163488 
z
" clip-path="url(#p0f68a27921)" style="fill: #1f77b4"/>
   </g>
   <g id="patch_62">
    <path d="M 228.278559 307.584 
L 229.031954 307.584 
L 229.031954 298.63471 
L 228.278559 298.63471 
z
" clip-path="url(#p0f68a27921)" style="fill: #1f77b4"/>
   </g>
   <g id="patch_63">
    <path d="M 229.205358 307.584 
L 229.958753 307.584 
L 229.958753 298.329391 
L 229.205358 298.329391 
z
" clip-path="url(#p0f68a27921)" style="fill: #1f77b4"/>
   </g>
   <g id="patch_64">
    <path d="M 229.22743 307.584 
L 229.980825 307.584 
L 229.980825 291.188711 
L 229.22743 291.188711 
z
" clip-path="url(#p0f68a27921)" style="fill: #1f77b4"/>
   </g>
   <g id="patch_65">
    <path d="M 230.142676 307.584 
L 230.896071 307.584 
L 230.896071 304.695499 
L 230.142676 304.695499 
z
" clip-path="url(#p0f68a27921)" style="fill: #1f77b4"/>
   </g>
   <g id="patch_66">
    <path d="M 230.176416 307.584 
L 230.929811 307.584 
L 230.929811 277.348008 
L 230.176416 277.348008 
z
" clip-path="url(#p0f68a27921)" style="fill: #1f77b4"/>
   </g>
   <g id="patch_67">
    <path d="M 231.12204 307.584 
L 231.875435 307.584 
L 231.875435 301.094959 
L 231.12204 301.094959 
z
" clip-path="url(#p0f68a27921)" style="fill: #1f77b4"/>
   </g>
   <g id="patch_68">
    <path d="M 233.002495 307.584 
L 233.75589 307.584 
L 233.75589 289.185174 
L 233.002495 289.185174 
z
" clip-path="url(#p0f68a27921)" style="fill: #1f77b4"/>
   </g>
   <g id="patch_69">
    <path d="M 233.939769 307.584 
L 234.693164 307.584 
L 234.693164 304.483271 
L 233.939769 304.483271 
z
" clip-path="url(#p0f68a27921)" style="fill: #1f77b4"/>
   </g>
   <g id="patch_70">
    <path d="M 234.866367 307.584 
L 235.619762 307.584 
L 235.619762 303.645618 
L 234.866367 303.645618 
z
" clip-path="url(#p0f68a27921)" style="fill: #1f77b4"/>
   </g>
   <g id="patch_71">
    <path d="M 234.887778 307.584 
L 235.641173 307.584 
L 235.641173 301.788379 
L 234.887778 301.788379 
z
" clip-path="url(#p0f68a27921)" style="fill: #1f77b4"/>
   </g>
   <g id="patch_72">
    <path d="M 238.62778 307.584 
L 239.381175 307.584 
L 239.381175 298.070807 
L 238.62778 298.070807 
z
" clip-path="url(#p0f68a27921)" style="fill: #1f77b4"/>
   </g>
   <g id="patch_73">
    <path d="M 245.239858 307.584 
L 245.993253 307.584 
L 245.993253 163.829858 
L 245.239858 163.829858 
z
" clip-path="url(#p0f68a27921)" style="fill: #1f77b4"/>
   </g>
   <g id="patch_74">
    <path d="M 246.183814 307.584 
L 246.937209 307.584 
L 246.937209 289.447837 
L 246.183814 289.447837 
z
" clip-path="url(#p0f68a27921)" style="fill: #1f77b4"/>
   </g>
   <g id="patch_75">
    <path d="M 247.138117 307.584 
L 247.891512 307.584 
L 247.891512 231.146422 
L 247.138117 231.146422 
z
" clip-path="url(#p0f68a27921)" style="fill: #1f77b4"/>
   </g>
   <g id="patch_76">
    <path d="M 248.08239 307.584 
L 248.835785 307.584 
L 248.835785 302.494893 
L 248.08239 302.494893 
z
" clip-path="url(#p0f68a27921)" style="fill: #1f77b4"/>
   </g>
   <g id="patch_77">
    <path d="M 251.827119 307.584 
L 252.580514 307.584 
L 252.580514 205.00302 
L 251.827119 205.00302 
z
" clip-path="url(#p0f68a27921)" style="fill: #1f77b4"/>
   </g>
   <g id="patch_78">
    <path d="M 252.772082 307.584 
L 253.525476 307.584 
L 253.525476 295.288355 
L 252.772082 295.288355 
z
" clip-path="url(#p0f68a27921)" style="fill: #1f77b4"/>
   </g>
   <g id="patch_79">
    <path d="M 258.438881 307.584 
L 259.192276 307.584 
L 259.192276 212.899426 
L 258.438881 212.899426 
z
" clip-path="url(#p0f68a27921)" style="fill: #1f77b4"/>
   </g>
   <g id="patch_80">
    <path d="M 258.463942 307.584 
L 259.217337 307.584 
L 259.217337 302.998681 
L 258.463942 302.998681 
z
" clip-path="url(#p0f68a27921)" style="fill: #1f77b4"/>
   </g>
   <g id="patch_81">
    <path d="M 259.38791 307.584 
L 260.141305 307.584 
L 260.141305 59.884476 
L 259.38791 59.884476 
z
" clip-path="url(#p0f68a27921)" style="fill: #1f77b4"/>
   </g>
   <g id="patch_82">
    <path d="M 260.303328 307.584 
L 261.056723 307.584 
L 261.056723 290.606091 
L 260.303328 290.606091 
z
" clip-path="url(#p0f68a27921)" style="fill: #1f77b4"/>
   </g>
   <g id="patch_83">
    <path d="M 260.332786 307.584 
L 261.086181 307.584 
L 261.086181 278.725033 
L 260.332786 278.725033 
z
" clip-path="url(#p0f68a27921)" style="fill: #1f77b4"/>
   </g>
   <g id="patch_84">
    <path d="M 261.228949 307.584 
L 261.982344 307.584 
L 261.982344 302.952644 
L 261.228949 302.952644 
z
" clip-path="url(#p0f68a27921)" style="fill: #1f77b4"/>
   </g>
   <g id="patch_85">
    <path d="M 261.251653 307.584 
L 262.005048 307.584 
L 262.005048 300.11823 
L 261.251653 300.11823 
z
" clip-path="url(#p0f68a27921)" style="fill: #1f77b4"/>
   </g>
   <g id="patch_86">
    <path d="M 262.175635 307.584 
L 262.92903 307.584 
L 262.92903 305.406631 
L 262.175635 305.406631 
z
" clip-path="url(#p0f68a27921)" style="fill: #1f77b4"/>
   </g>
   <g id="patch_87">
    <path d="M 262.199719 307.584 
L 262.953114 307.584 
L 262.953114 303.016968 
L 262.199719 303.016968 
z
" clip-path="url(#p0f68a27921)" style="fill: #1f77b4"/>
   </g>
   <g id="patch_88">
    <path d="M 263.60377 307.584 
L 264.357165 307.584 
L 264.357165 305.583136 
L 263.60377 305.583136 
z
" clip-path="url(#p0f68a27921)" style="fill: #1f77b4"/>
   </g>
   <g id="patch_89">
    <path d="M 274.428073 307.584 
L 275.181467 307.584 
L 275.181467 294.104657 
L 274.428073 294.104657 
z
" clip-path="url(#p0f68a27921)" style="fill: #1f77b4"/>
   </g>
   <g id="patch_90">
    <path d="M 274.451294 307.584 
L 275.204689 307.584 
L 275.204689 305.397702 
L 274.451294 305.397702 
z
" clip-path="url(#p0f68a27921)" style="fill: #1f77b4"/>
   </g>
   <g id="patch_91">
    <path d="M 275.400223 307.584 
L 276.153618 307.584 
L 276.153618 191.176724 
L 275.400223 191.176724 
z
" clip-path="url(#p0f68a27921)" style="fill: #1f77b4"/>
   </g>
   <g id="patch_92">
    <path d="M 276.345041 307.584 
L 277.098436 307.584 
L 277.098436 289.557438 
L 276.345041 289.557438 
z
" clip-path="url(#p0f68a27921)" style="fill: #1f77b4"/>
   </g>
   <g id="patch_93">
    <path d="M 278.190765 307.584 
L 278.944159 307.584 
L 278.944159 300.724097 
L 278.190765 300.724097 
z
" clip-path="url(#p0f68a27921)" style="fill: #1f77b4"/>
   </g>
   <g id="patch_94">
    <path d="M 280.341761 307.584 
L 281.095156 307.584 
L 281.095156 305.677973 
L 280.341761 305.677973 
z
" clip-path="url(#p0f68a27921)" style="fill: #1f77b4"/>
   </g>
   <g id="patch_95">
    <path d="M 287.627053 307.584 
L 288.380448 307.584 
L 288.380448 303.358285 
L 287.627053 303.358285 
z
" clip-path="url(#p0f68a27921)" style="fill: #1f77b4"/>
   </g>
   <g id="patch_96">
    <path d="M 316.827367 307.584 
L 317.580762 307.584 
L 317.580762 54.144 
L 316.827367 54.144 
z
" clip-path="url(#p0f68a27921)" style="fill: #1f77b4"/>
   </g>
   <g id="patch_97">
    <path d="M 317.772329 307.584 
L 318.525724 307.584 
L 318.525724 269.389062 
L 317.772329 269.389062 
z
" clip-path="url(#p0f68a27921)" style="fill: #1f77b4"/>
   </g>
   <g id="patch_98">
    <path d="M 330.027382 307.584 
L 330.780777 307.584 
L 330.780777 304.065012 
L 330.027382 304.065012 
z
" clip-path="url(#p0f68a27921)" style="fill: #1f77b4"/>
   </g>
   <g id="patch_99">
    <path d="M 346.988537 307.584 
L 347.741932 307.584 
L 347.741932 293.257251 
L 346.988537 293.257251 
z
" clip-path="url(#p0f68a27921)" style="fill: #1f77b4"/>
   </g>
   <g id="patch_100">
    <path d="M 347.934103 307.584 
L 348.687497 307.584 
L 348.687497 305.205625 
L 347.934103 305.205625 
z
" clip-path="url(#p0f68a27921)" style="fill: #1f77b4"/>
   </g>
   <g id="patch_101">
    <path d="M 368.596791 307.584 
L 369.350186 307.584 
L 369.350186 305.6113 
L 368.596791 305.6113 
z
" clip-path="url(#p0f68a27921)" style="fill: #1f77b4"/>
   </g>
   <g id="patch_102">
    <path d="M 397.733878 307.584 
L 398.487273 307.584 
L 398.487273 304.946288 
L 397.733878 304.946288 
z
" clip-path="url(#p0f68a27921)" style="fill: #1f77b4"/>
   </g>
   <g id="matplotlib.axis_1">
    <g id="xtick_1">
     <g id="line2d_1">
      <defs>
       <path id="m43e2f3f7ad" d="M 0 0 
L 0 3.5 
" style="stroke: #000000; stroke-width: 0.8"/>
      </defs>
      <g>
       <use xlink:href="#m43e2f3f7ad" x="67.550612" y="307.584" style="stroke: #000000; stroke-width: 0.8"/>
      </g>
     </g>
     <g id="text_1">
      <!-- 50 -->
      <g transform="translate(61.188112 322.182437) scale(0.1 -0.1)">
       <defs>
        <path id="DejaVuSans-35" d="M 691 4666 
L 3169 4666 
L 3169 4134 
L 1269 4134 
L 1269 2991 
Q 1406 3038 1543 3061 
Q 1681 3084 1819 3084 
Q 2600 3084 3056 2656 
Q 3513 2228 3513 1497 
Q 3513 744 3044 326 
Q 2575 -91 1722 -91 
Q 1428 -91 1123 -41 
Q 819 9 494 109 
L 494 744 
Q 775 591 1075 516 
Q 1375 441 1709 441 
Q 2250 441 2565 725 
Q 2881 1009 2881 1497 
Q 2881 1984 2565 2268 
Q 2250 2553 1709 2553 
Q 1456 2553 1204 2497 
Q 953 2441 691 2322 
L 691 4666 
z
" transform="scale(0.015625)"/>
        <path id="DejaVuSans-30" d="M 2034 4250 
Q 1547 4250 1301 3770 
Q 1056 3291 1056 2328 
Q 1056 1369 1301 889 
Q 1547 409 2034 409 
Q 2525 409 2770 889 
Q 3016 1369 3016 2328 
Q 3016 3291 2770 3770 
Q 2525 4250 2034 4250 
z
M 2034 4750 
Q 2819 4750 3233 4129 
Q 3647 3509 3647 2328 
Q 3647 1150 3233 529 
Q 2819 -91 2034 -91 
Q 1250 -91 836 529 
Q 422 1150 422 2328 
Q 422 3509 836 4129 
Q 1250 4750 2034 4750 
z
" transform="scale(0.015625)"/>
       </defs>
       <use xlink:href="#DejaVuSans-35"/>
       <use xlink:href="#DejaVuSans-30" x="63.623047"/>
      </g>
     </g>
    </g>
    <g id="xtick_2">
     <g id="line2d_2">
      <g>
       <use xlink:href="#m43e2f3f7ad" x="114.637788" y="307.584" style="stroke: #000000; stroke-width: 0.8"/>
      </g>
     </g>
     <g id="text_2">
      <!-- 100 -->
      <g transform="translate(105.094038 322.182437) scale(0.1 -0.1)">
       <defs>
        <path id="DejaVuSans-31" d="M 794 531 
L 1825 531 
L 1825 4091 
L 703 3866 
L 703 4441 
L 1819 4666 
L 2450 4666 
L 2450 531 
L 3481 531 
L 3481 0 
L 794 0 
L 794 531 
z
" transform="scale(0.015625)"/>
       </defs>
       <use xlink:href="#DejaVuSans-31"/>
       <use xlink:href="#DejaVuSans-30" x="63.623047"/>
       <use xlink:href="#DejaVuSans-30" x="127.246094"/>
      </g>
     </g>
    </g>
    <g id="xtick_3">
     <g id="line2d_3">
      <g>
       <use xlink:href="#m43e2f3f7ad" x="161.724964" y="307.584" style="stroke: #000000; stroke-width: 0.8"/>
      </g>
     </g>
     <g id="text_3">
      <!-- 150 -->
      <g transform="translate(152.181214 322.182437) scale(0.1 -0.1)">
       <use xlink:href="#DejaVuSans-31"/>
       <use xlink:href="#DejaVuSans-35" x="63.623047"/>
       <use xlink:href="#DejaVuSans-30" x="127.246094"/>
      </g>
     </g>
    </g>
    <g id="xtick_4">
     <g id="line2d_4">
      <g>
       <use xlink:href="#m43e2f3f7ad" x="208.812139" y="307.584" style="stroke: #000000; stroke-width: 0.8"/>
      </g>
     </g>
     <g id="text_4">
      <!-- 200 -->
      <g transform="translate(199.268389 322.182437) scale(0.1 -0.1)">
       <defs>
        <path id="DejaVuSans-32" d="M 1228 531 
L 3431 531 
L 3431 0 
L 469 0 
L 469 531 
Q 828 903 1448 1529 
Q 2069 2156 2228 2338 
Q 2531 2678 2651 2914 
Q 2772 3150 2772 3378 
Q 2772 3750 2511 3984 
Q 2250 4219 1831 4219 
Q 1534 4219 1204 4116 
Q 875 4013 500 3803 
L 500 4441 
Q 881 4594 1212 4672 
Q 1544 4750 1819 4750 
Q 2544 4750 2975 4387 
Q 3406 4025 3406 3419 
Q 3406 3131 3298 2873 
Q 3191 2616 2906 2266 
Q 2828 2175 2409 1742 
Q 1991 1309 1228 531 
z
" transform="scale(0.015625)"/>
       </defs>
       <use xlink:href="#DejaVuSans-32"/>
       <use xlink:href="#DejaVuSans-30" x="63.623047"/>
       <use xlink:href="#DejaVuSans-30" x="127.246094"/>
      </g>
     </g>
    </g>
    <g id="xtick_5">
     <g id="line2d_5">
      <g>
       <use xlink:href="#m43e2f3f7ad" x="255.899315" y="307.584" style="stroke: #000000; stroke-width: 0.8"/>
      </g>
     </g>
     <g id="text_5">
      <!-- 250 -->
      <g transform="translate(246.355565 322.182437) scale(0.1 -0.1)">
       <use xlink:href="#DejaVuSans-32"/>
       <use xlink:href="#DejaVuSans-35" x="63.623047"/>
       <use xlink:href="#DejaVuSans-30" x="127.246094"/>
      </g>
     </g>
    </g>
    <g id="xtick_6">
     <g id="line2d_6">
      <g>
       <use xlink:href="#m43e2f3f7ad" x="302.986491" y="307.584" style="stroke: #000000; stroke-width: 0.8"/>
      </g>
     </g>
     <g id="text_6">
      <!-- 300 -->
      <g transform="translate(293.442741 322.182437) scale(0.1 -0.1)">
       <defs>
        <path id="DejaVuSans-33" d="M 2597 2516 
Q 3050 2419 3304 2112 
Q 3559 1806 3559 1356 
Q 3559 666 3084 287 
Q 2609 -91 1734 -91 
Q 1441 -91 1130 -33 
Q 819 25 488 141 
L 488 750 
Q 750 597 1062 519 
Q 1375 441 1716 441 
Q 2309 441 2620 675 
Q 2931 909 2931 1356 
Q 2931 1769 2642 2001 
Q 2353 2234 1838 2234 
L 1294 2234 
L 1294 2753 
L 1863 2753 
Q 2328 2753 2575 2939 
Q 2822 3125 2822 3475 
Q 2822 3834 2567 4026 
Q 2313 4219 1838 4219 
Q 1578 4219 1281 4162 
Q 984 4106 628 3988 
L 628 4550 
Q 988 4650 1302 4700 
Q 1616 4750 1894 4750 
Q 2613 4750 3031 4423 
Q 3450 4097 3450 3541 
Q 3450 3153 3228 2886 
Q 3006 2619 2597 2516 
z
" transform="scale(0.015625)"/>
       </defs>
       <use xlink:href="#DejaVuSans-33"/>
       <use xlink:href="#DejaVuSans-30" x="63.623047"/>
       <use xlink:href="#DejaVuSans-30" x="127.246094"/>
      </g>
     </g>
    </g>
    <g id="xtick_7">
     <g id="line2d_7">
      <g>
       <use xlink:href="#m43e2f3f7ad" x="350.073666" y="307.584" style="stroke: #000000; stroke-width: 0.8"/>
      </g>
     </g>
     <g id="text_7">
      <!-- 350 -->
      <g transform="translate(340.529916 322.182437) scale(0.1 -0.1)">
       <use xlink:href="#DejaVuSans-33"/>
       <use xlink:href="#DejaVuSans-35" x="63.623047"/>
       <use xlink:href="#DejaVuSans-30" x="127.246094"/>
      </g>
     </g>
    </g>
    <g id="xtick_8">
     <g id="line2d_8">
      <g>
       <use xlink:href="#m43e2f3f7ad" x="397.160842" y="307.584" style="stroke: #000000; stroke-width: 0.8"/>
      </g>
     </g>
     <g id="text_8">
      <!-- 400 -->
      <g transform="translate(387.617092 322.182437) scale(0.1 -0.1)">
       <defs>
        <path id="DejaVuSans-34" d="M 2419 4116 
L 825 1625 
L 2419 1625 
L 2419 4116 
z
M 2253 4666 
L 3047 4666 
L 3047 1625 
L 3713 1625 
L 3713 1100 
L 3047 1100 
L 3047 0 
L 2419 0 
L 2419 1100 
L 313 1100 
L 313 1709 
L 2253 4666 
z
" transform="scale(0.015625)"/>
       </defs>
       <use xlink:href="#DejaVuSans-34"/>
       <use xlink:href="#DejaVuSans-30" x="63.623047"/>
       <use xlink:href="#DejaVuSans-30" x="127.246094"/>
      </g>
     </g>
    </g>
    <g id="text_9">
     <!-- ${m/z}$ -->
     <g transform="translate(226.96 335.860562) scale(0.1 -0.1)">
      <defs>
       <path id="DejaVuSans-Oblique-6d" d="M 5747 2113 
L 5338 0 
L 4763 0 
L 5166 2094 
Q 5191 2228 5203 2325 
Q 5216 2422 5216 2491 
Q 5216 2772 5059 2928 
Q 4903 3084 4622 3084 
Q 4203 3084 3875 2770 
Q 3547 2456 3450 1953 
L 3066 0 
L 2491 0 
L 2900 2094 
Q 2925 2209 2937 2307 
Q 2950 2406 2950 2484 
Q 2950 2769 2794 2926 
Q 2638 3084 2363 3084 
Q 1938 3084 1609 2770 
Q 1281 2456 1184 1953 
L 800 0 
L 225 0 
L 909 3500 
L 1484 3500 
L 1375 2956 
Q 1609 3263 1923 3423 
Q 2238 3584 2597 3584 
Q 2978 3584 3223 3384 
Q 3469 3184 3519 2828 
Q 3781 3197 4126 3390 
Q 4472 3584 4856 3584 
Q 5306 3584 5551 3325 
Q 5797 3066 5797 2591 
Q 5797 2488 5784 2364 
Q 5772 2241 5747 2113 
z
" transform="scale(0.015625)"/>
       <path id="DejaVuSans-2f" d="M 1625 4666 
L 2156 4666 
L 531 -594 
L 0 -594 
L 1625 4666 
z
" transform="scale(0.015625)"/>
       <path id="DejaVuSans-Oblique-7a" d="M 744 3500 
L 3475 3500 
L 3372 2975 
L 738 459 
L 2913 459 
L 2822 0 
L -19 0 
L 84 525 
L 2719 3041 
L 653 3041 
L 744 3500 
z
" transform="scale(0.015625)"/>
      </defs>
      <use xlink:href="#DejaVuSans-Oblique-6d" transform="translate(0 0.09375)"/>
      <use xlink:href="#DejaVuSans-2f" transform="translate(97.412109 0.09375)"/>
      <use xlink:href="#DejaVuSans-Oblique-7a" transform="translate(131.103516 0.09375)"/>
     </g>
    </g>
   </g>
   <g id="matplotlib.axis_2">
    <g id="ytick_1">
     <g id="line2d_9">
      <defs>
       <path id="mf59c4b14f5" d="M 0 0 
L -3.5 0 
" style="stroke: #000000; stroke-width: 0.8"/>
      </defs>
      <g>
       <use xlink:href="#mf59c4b14f5" x="57.6" y="307.584" style="stroke: #000000; stroke-width: 0.8"/>
      </g>
     </g>
     <g id="text_10">
      <!-- 0 -->
      <g transform="translate(44.2375 311.383219) scale(0.1 -0.1)">
       <use xlink:href="#DejaVuSans-30"/>
      </g>
     </g>
    </g>
    <g id="ytick_2">
     <g id="line2d_10">
      <g>
       <use xlink:href="#mf59c4b14f5" x="57.6" y="260.000106" style="stroke: #000000; stroke-width: 0.8"/>
      </g>
     </g>
     <g id="text_11">
      <!-- 100000 -->
      <g transform="translate(12.425 263.799324) scale(0.1 -0.1)">
       <use xlink:href="#DejaVuSans-31"/>
       <use xlink:href="#DejaVuSans-30" x="63.623047"/>
       <use xlink:href="#DejaVuSans-30" x="127.246094"/>
       <use xlink:href="#DejaVuSans-30" x="190.869141"/>
       <use xlink:href="#DejaVuSans-30" x="254.492188"/>
       <use xlink:href="#DejaVuSans-30" x="318.115234"/>
      </g>
     </g>
    </g>
    <g id="ytick_3">
     <g id="line2d_11">
      <g>
       <use xlink:href="#mf59c4b14f5" x="57.6" y="212.416211" style="stroke: #000000; stroke-width: 0.8"/>
      </g>
     </g>
     <g id="text_12">
      <!-- 200000 -->
      <g transform="translate(12.425 216.21543) scale(0.1 -0.1)">
       <use xlink:href="#DejaVuSans-32"/>
       <use xlink:href="#DejaVuSans-30" x="63.623047"/>
       <use xlink:href="#DejaVuSans-30" x="127.246094"/>
       <use xlink:href="#DejaVuSans-30" x="190.869141"/>
       <use xlink:href="#DejaVuSans-30" x="254.492188"/>
       <use xlink:href="#DejaVuSans-30" x="318.115234"/>
      </g>
     </g>
    </g>
    <g id="ytick_4">
     <g id="line2d_12">
      <g>
       <use xlink:href="#mf59c4b14f5" x="57.6" y="164.832317" style="stroke: #000000; stroke-width: 0.8"/>
      </g>
     </g>
     <g id="text_13">
      <!-- 300000 -->
      <g transform="translate(12.425 168.631536) scale(0.1 -0.1)">
       <use xlink:href="#DejaVuSans-33"/>
       <use xlink:href="#DejaVuSans-30" x="63.623047"/>
       <use xlink:href="#DejaVuSans-30" x="127.246094"/>
       <use xlink:href="#DejaVuSans-30" x="190.869141"/>
       <use xlink:href="#DejaVuSans-30" x="254.492188"/>
       <use xlink:href="#DejaVuSans-30" x="318.115234"/>
      </g>
     </g>
    </g>
    <g id="ytick_5">
     <g id="line2d_13">
      <g>
       <use xlink:href="#mf59c4b14f5" x="57.6" y="117.248422" style="stroke: #000000; stroke-width: 0.8"/>
      </g>
     </g>
     <g id="text_14">
      <!-- 400000 -->
      <g transform="translate(12.425 121.047641) scale(0.1 -0.1)">
       <use xlink:href="#DejaVuSans-34"/>
       <use xlink:href="#DejaVuSans-30" x="63.623047"/>
       <use xlink:href="#DejaVuSans-30" x="127.246094"/>
       <use xlink:href="#DejaVuSans-30" x="190.869141"/>
       <use xlink:href="#DejaVuSans-30" x="254.492188"/>
       <use xlink:href="#DejaVuSans-30" x="318.115234"/>
      </g>
     </g>
    </g>
    <g id="ytick_6">
     <g id="line2d_14">
      <g>
       <use xlink:href="#mf59c4b14f5" x="57.6" y="69.664528" style="stroke: #000000; stroke-width: 0.8"/>
      </g>
     </g>
     <g id="text_15">
      <!-- 500000 -->
      <g transform="translate(12.425 73.463747) scale(0.1 -0.1)">
       <use xlink:href="#DejaVuSans-35"/>
       <use xlink:href="#DejaVuSans-30" x="63.623047"/>
       <use xlink:href="#DejaVuSans-30" x="127.246094"/>
       <use xlink:href="#DejaVuSans-30" x="190.869141"/>
       <use xlink:href="#DejaVuSans-30" x="254.492188"/>
       <use xlink:href="#DejaVuSans-30" x="318.115234"/>
      </g>
     </g>
    </g>
    <g id="text_16">
     <!-- intensities -->
     <g transform="translate(6.345312 200.3155) rotate(-90) scale(0.1 -0.1)">
      <defs>
       <path id="DejaVuSans-69" d="M 603 3500 
L 1178 3500 
L 1178 0 
L 603 0 
L 603 3500 
z
M 603 4863 
L 1178 4863 
L 1178 4134 
L 603 4134 
L 603 4863 
z
" transform="scale(0.015625)"/>
       <path id="DejaVuSans-6e" d="M 3513 2113 
L 3513 0 
L 2938 0 
L 2938 2094 
Q 2938 2591 2744 2837 
Q 2550 3084 2163 3084 
Q 1697 3084 1428 2787 
Q 1159 2491 1159 1978 
L 1159 0 
L 581 0 
L 581 3500 
L 1159 3500 
L 1159 2956 
Q 1366 3272 1645 3428 
Q 1925 3584 2291 3584 
Q 2894 3584 3203 3211 
Q 3513 2838 3513 2113 
z
" transform="scale(0.015625)"/>
       <path id="DejaVuSans-74" d="M 1172 4494 
L 1172 3500 
L 2356 3500 
L 2356 3053 
L 1172 3053 
L 1172 1153 
Q 1172 725 1289 603 
Q 1406 481 1766 481 
L 2356 481 
L 2356 0 
L 1766 0 
Q 1100 0 847 248 
Q 594 497 594 1153 
L 594 3053 
L 172 3053 
L 172 3500 
L 594 3500 
L 594 4494 
L 1172 4494 
z
" transform="scale(0.015625)"/>
       <path id="DejaVuSans-65" d="M 3597 1894 
L 3597 1613 
L 953 1613 
Q 991 1019 1311 708 
Q 1631 397 2203 397 
Q 2534 397 2845 478 
Q 3156 559 3463 722 
L 3463 178 
Q 3153 47 2828 -22 
Q 2503 -91 2169 -91 
Q 1331 -91 842 396 
Q 353 884 353 1716 
Q 353 2575 817 3079 
Q 1281 3584 2069 3584 
Q 2775 3584 3186 3129 
Q 3597 2675 3597 1894 
z
M 3022 2063 
Q 3016 2534 2758 2815 
Q 2500 3097 2075 3097 
Q 1594 3097 1305 2825 
Q 1016 2553 972 2059 
L 3022 2063 
z
" transform="scale(0.015625)"/>
       <path id="DejaVuSans-73" d="M 2834 3397 
L 2834 2853 
Q 2591 2978 2328 3040 
Q 2066 3103 1784 3103 
Q 1356 3103 1142 2972 
Q 928 2841 928 2578 
Q 928 2378 1081 2264 
Q 1234 2150 1697 2047 
L 1894 2003 
Q 2506 1872 2764 1633 
Q 3022 1394 3022 966 
Q 3022 478 2636 193 
Q 2250 -91 1575 -91 
Q 1294 -91 989 -36 
Q 684 19 347 128 
L 347 722 
Q 666 556 975 473 
Q 1284 391 1588 391 
Q 1994 391 2212 530 
Q 2431 669 2431 922 
Q 2431 1156 2273 1281 
Q 2116 1406 1581 1522 
L 1381 1569 
Q 847 1681 609 1914 
Q 372 2147 372 2553 
Q 372 3047 722 3315 
Q 1072 3584 1716 3584 
Q 2034 3584 2315 3537 
Q 2597 3491 2834 3397 
z
" transform="scale(0.015625)"/>
      </defs>
      <use xlink:href="#DejaVuSans-69"/>
      <use xlink:href="#DejaVuSans-6e" x="27.783203"/>
      <use xlink:href="#DejaVuSans-74" x="91.162109"/>
      <use xlink:href="#DejaVuSans-65" x="130.371094"/>
      <use xlink:href="#DejaVuSans-6e" x="191.894531"/>
      <use xlink:href="#DejaVuSans-73" x="255.273438"/>
      <use xlink:href="#DejaVuSans-69" x="307.373047"/>
      <use xlink:href="#DejaVuSans-74" x="335.15625"/>
      <use xlink:href="#DejaVuSans-69" x="374.365234"/>
      <use xlink:href="#DejaVuSans-65" x="402.148438"/>
      <use xlink:href="#DejaVuSans-73" x="463.671875"/>
     </g>
    </g>
   </g>
   <g id="patch_103">
    <path d="M 57.6 307.584 
L 57.6 41.472 
" style="fill: none; stroke: #000000; stroke-width: 0.8; stroke-linejoin: miter; stroke-linecap: square"/>
   </g>
   <g id="patch_104">
    <path d="M 414.72 307.584 
L 414.72 41.472 
" style="fill: none; stroke: #000000; stroke-width: 0.8; stroke-linejoin: miter; stroke-linecap: square"/>
   </g>
   <g id="patch_105">
    <path d="M 57.6 307.584 
L 414.72 307.584 
" style="fill: none; stroke: #000000; stroke-width: 0.8; stroke-linejoin: miter; stroke-linecap: square"/>
   </g>
   <g id="patch_106">
    <path d="M 57.6 41.472 
L 414.72 41.472 
" style="fill: none; stroke: #000000; stroke-width: 0.8; stroke-linejoin: miter; stroke-linecap: square"/>
   </g>
   <g id="text_17">
    <!-- 149.0232 -->
    <g transform="translate(153.690389 224.978336) scale(0.06 -0.06)">
     <defs>
      <path id="DejaVuSans-39" d="M 703 97 
L 703 672 
Q 941 559 1184 500 
Q 1428 441 1663 441 
Q 2288 441 2617 861 
Q 2947 1281 2994 2138 
Q 2813 1869 2534 1725 
Q 2256 1581 1919 1581 
Q 1219 1581 811 2004 
Q 403 2428 403 3163 
Q 403 3881 828 4315 
Q 1253 4750 1959 4750 
Q 2769 4750 3195 4129 
Q 3622 3509 3622 2328 
Q 3622 1225 3098 567 
Q 2575 -91 1691 -91 
Q 1453 -91 1209 -44 
Q 966 3 703 97 
z
M 1959 2075 
Q 2384 2075 2632 2365 
Q 2881 2656 2881 3163 
Q 2881 3666 2632 3958 
Q 2384 4250 1959 4250 
Q 1534 4250 1286 3958 
Q 1038 3666 1038 3163 
Q 1038 2656 1286 2365 
Q 1534 2075 1959 2075 
z
" transform="scale(0.015625)"/>
      <path id="DejaVuSans-2e" d="M 684 794 
L 1344 794 
L 1344 0 
L 684 0 
L 684 794 
z
" transform="scale(0.015625)"/>
     </defs>
     <use xlink:href="#DejaVuSans-31"/>
     <use xlink:href="#DejaVuSans-34" x="63.623047"/>
     <use xlink:href="#DejaVuSans-39" x="127.246094"/>
     <use xlink:href="#DejaVuSans-2e" x="190.869141"/>
     <use xlink:href="#DejaVuSans-30" x="222.65625"/>
     <use xlink:href="#DejaVuSans-32" x="286.279297"/>
     <use xlink:href="#DejaVuSans-33" x="349.902344"/>
     <use xlink:href="#DejaVuSans-32" x="413.525391"/>
    </g>
   </g>
   <g id="text_18">
    <!-- 183.0916 -->
    <g transform="translate(185.774074 284.01128) scale(0.06 -0.06)">
     <defs>
      <path id="DejaVuSans-38" d="M 2034 2216 
Q 1584 2216 1326 1975 
Q 1069 1734 1069 1313 
Q 1069 891 1326 650 
Q 1584 409 2034 409 
Q 2484 409 2743 651 
Q 3003 894 3003 1313 
Q 3003 1734 2745 1975 
Q 2488 2216 2034 2216 
z
M 1403 2484 
Q 997 2584 770 2862 
Q 544 3141 544 3541 
Q 544 4100 942 4425 
Q 1341 4750 2034 4750 
Q 2731 4750 3128 4425 
Q 3525 4100 3525 3541 
Q 3525 3141 3298 2862 
Q 3072 2584 2669 2484 
Q 3125 2378 3379 2068 
Q 3634 1759 3634 1313 
Q 3634 634 3220 271 
Q 2806 -91 2034 -91 
Q 1263 -91 848 271 
Q 434 634 434 1313 
Q 434 1759 690 2068 
Q 947 2378 1403 2484 
z
M 1172 3481 
Q 1172 3119 1398 2916 
Q 1625 2713 2034 2713 
Q 2441 2713 2670 2916 
Q 2900 3119 2900 3481 
Q 2900 3844 2670 4047 
Q 2441 4250 2034 4250 
Q 1625 4250 1398 4047 
Q 1172 3844 1172 3481 
z
" transform="scale(0.015625)"/>
      <path id="DejaVuSans-36" d="M 2113 2584 
Q 1688 2584 1439 2293 
Q 1191 2003 1191 1497 
Q 1191 994 1439 701 
Q 1688 409 2113 409 
Q 2538 409 2786 701 
Q 3034 994 3034 1497 
Q 3034 2003 2786 2293 
Q 2538 2584 2113 2584 
z
M 3366 4563 
L 3366 3988 
Q 3128 4100 2886 4159 
Q 2644 4219 2406 4219 
Q 1781 4219 1451 3797 
Q 1122 3375 1075 2522 
Q 1259 2794 1537 2939 
Q 1816 3084 2150 3084 
Q 2853 3084 3261 2657 
Q 3669 2231 3669 1497 
Q 3669 778 3244 343 
Q 2819 -91 2113 -91 
Q 1303 -91 875 529 
Q 447 1150 447 2328 
Q 447 3434 972 4092 
Q 1497 4750 2381 4750 
Q 2619 4750 2861 4703 
Q 3103 4656 3366 4563 
z
" transform="scale(0.015625)"/>
     </defs>
     <use xlink:href="#DejaVuSans-31"/>
     <use xlink:href="#DejaVuSans-38" x="63.623047"/>
     <use xlink:href="#DejaVuSans-33" x="127.246094"/>
     <use xlink:href="#DejaVuSans-2e" x="190.869141"/>
     <use xlink:href="#DejaVuSans-30" x="222.65625"/>
     <use xlink:href="#DejaVuSans-39" x="286.279297"/>
     <use xlink:href="#DejaVuSans-31" x="349.902344"/>
     <use xlink:href="#DejaVuSans-36" x="413.525391"/>
    </g>
   </g>
   <g id="text_19">
    <!-- 194.0837 -->
    <g transform="translate(196.125824 252.316628) scale(0.06 -0.06)">
     <defs>
      <path id="DejaVuSans-37" d="M 525 4666 
L 3525 4666 
L 3525 4397 
L 1831 0 
L 1172 0 
L 2766 4134 
L 525 4134 
L 525 4666 
z
" transform="scale(0.015625)"/>
     </defs>
     <use xlink:href="#DejaVuSans-31"/>
     <use xlink:href="#DejaVuSans-39" x="63.623047"/>
     <use xlink:href="#DejaVuSans-34" x="127.246094"/>
     <use xlink:href="#DejaVuSans-2e" x="190.869141"/>
     <use xlink:href="#DejaVuSans-30" x="222.65625"/>
     <use xlink:href="#DejaVuSans-38" x="286.279297"/>
     <use xlink:href="#DejaVuSans-33" x="349.902344"/>
     <use xlink:href="#DejaVuSans-37" x="413.525391"/>
    </g>
   </g>
   <g id="text_20">
    <!-- 195.0915 -->
    <g transform="translate(197.074939 198.072625) scale(0.06 -0.06)">
     <use xlink:href="#DejaVuSans-31"/>
     <use xlink:href="#DejaVuSans-39" x="63.623047"/>
     <use xlink:href="#DejaVuSans-35" x="127.246094"/>
     <use xlink:href="#DejaVuSans-2e" x="190.869141"/>
     <use xlink:href="#DejaVuSans-30" x="222.65625"/>
     <use xlink:href="#DejaVuSans-39" x="286.279297"/>
     <use xlink:href="#DejaVuSans-31" x="349.902344"/>
     <use xlink:href="#DejaVuSans-35" x="413.525391"/>
    </g>
   </g>
   <g id="text_21">
    <!-- 196.0991 -->
    <g transform="translate(189.383824 274.133043) scale(0.06 -0.06)">
     <use xlink:href="#DejaVuSans-31"/>
     <use xlink:href="#DejaVuSans-39" x="63.623047"/>
     <use xlink:href="#DejaVuSans-36" x="127.246094"/>
     <use xlink:href="#DejaVuSans-2e" x="190.869141"/>
     <use xlink:href="#DejaVuSans-30" x="222.65625"/>
     <use xlink:href="#DejaVuSans-39" x="286.279297"/>
     <use xlink:href="#DejaVuSans-39" x="349.902344"/>
     <use xlink:href="#DejaVuSans-31" x="413.525391"/>
    </g>
   </g>
   <g id="text_22">
    <!-- 209.0707 -->
    <g transform="translate(210.239705 261.878395) scale(0.06 -0.06)">
     <use xlink:href="#DejaVuSans-32"/>
     <use xlink:href="#DejaVuSans-30" x="63.623047"/>
     <use xlink:href="#DejaVuSans-39" x="127.246094"/>
     <use xlink:href="#DejaVuSans-2e" x="190.869141"/>
     <use xlink:href="#DejaVuSans-30" x="222.65625"/>
     <use xlink:href="#DejaVuSans-37" x="286.279297"/>
     <use xlink:href="#DejaVuSans-30" x="349.902344"/>
     <use xlink:href="#DejaVuSans-37" x="413.525391"/>
    </g>
   </g>
   <g id="text_23">
    <!-- 211.0861 -->
    <g transform="translate(212.137677 221.485198) scale(0.06 -0.06)">
     <use xlink:href="#DejaVuSans-32"/>
     <use xlink:href="#DejaVuSans-31" x="63.623047"/>
     <use xlink:href="#DejaVuSans-31" x="127.246094"/>
     <use xlink:href="#DejaVuSans-2e" x="190.869141"/>
     <use xlink:href="#DejaVuSans-30" x="222.65625"/>
     <use xlink:href="#DejaVuSans-38" x="286.279297"/>
     <use xlink:href="#DejaVuSans-36" x="349.902344"/>
     <use xlink:href="#DejaVuSans-31" x="413.525391"/>
    </g>
   </g>
   <g id="text_24">
    <!-- 212.0934 -->
    <g transform="translate(220.286332 269.956283) scale(0.06 -0.06)">
     <use xlink:href="#DejaVuSans-32"/>
     <use xlink:href="#DejaVuSans-31" x="63.623047"/>
     <use xlink:href="#DejaVuSans-32" x="127.246094"/>
     <use xlink:href="#DejaVuSans-2e" x="190.869141"/>
     <use xlink:href="#DejaVuSans-30" x="222.65625"/>
     <use xlink:href="#DejaVuSans-39" x="286.279297"/>
     <use xlink:href="#DejaVuSans-33" x="349.902344"/>
     <use xlink:href="#DejaVuSans-34" x="413.525391"/>
    </g>
   </g>
   <g id="text_25">
    <!-- 214.0497 -->
    <g transform="translate(215.2609 242.220098) scale(0.06 -0.06)">
     <use xlink:href="#DejaVuSans-32"/>
     <use xlink:href="#DejaVuSans-31" x="63.623047"/>
     <use xlink:href="#DejaVuSans-34" x="127.246094"/>
     <use xlink:href="#DejaVuSans-2e" x="190.869141"/>
     <use xlink:href="#DejaVuSans-30" x="222.65625"/>
     <use xlink:href="#DejaVuSans-34" x="286.279297"/>
     <use xlink:href="#DejaVuSans-39" x="349.902344"/>
     <use xlink:href="#DejaVuSans-37" x="413.525391"/>
    </g>
   </g>
   <g id="text_26">
    <!-- 223.0859 -->
    <g transform="translate(228.478426 282.89583) scale(0.06 -0.06)">
     <use xlink:href="#DejaVuSans-32"/>
     <use xlink:href="#DejaVuSans-32" x="63.623047"/>
     <use xlink:href="#DejaVuSans-33" x="127.246094"/>
     <use xlink:href="#DejaVuSans-2e" x="190.869141"/>
     <use xlink:href="#DejaVuSans-30" x="222.65625"/>
     <use xlink:href="#DejaVuSans-38" x="286.279297"/>
     <use xlink:href="#DejaVuSans-35" x="349.902344"/>
     <use xlink:href="#DejaVuSans-39" x="413.525391"/>
    </g>
   </g>
   <g id="text_27">
    <!-- 239.0811 -->
    <g transform="translate(238.501868 160.625483) scale(0.06 -0.06)">
     <use xlink:href="#DejaVuSans-32"/>
     <use xlink:href="#DejaVuSans-33" x="63.623047"/>
     <use xlink:href="#DejaVuSans-39" x="127.246094"/>
     <use xlink:href="#DejaVuSans-2e" x="190.869141"/>
     <use xlink:href="#DejaVuSans-30" x="222.65625"/>
     <use xlink:href="#DejaVuSans-38" x="286.279297"/>
     <use xlink:href="#DejaVuSans-31" x="349.902344"/>
     <use xlink:href="#DejaVuSans-31" x="413.525391"/>
    </g>
   </g>
   <g id="text_28">
    <!-- 241.0968 -->
    <g transform="translate(225.628419 236.042047) scale(0.06 -0.06)">
     <use xlink:href="#DejaVuSans-32"/>
     <use xlink:href="#DejaVuSans-34" x="63.623047"/>
     <use xlink:href="#DejaVuSans-31" x="127.246094"/>
     <use xlink:href="#DejaVuSans-2e" x="190.869141"/>
     <use xlink:href="#DejaVuSans-30" x="222.65625"/>
     <use xlink:href="#DejaVuSans-39" x="286.279297"/>
     <use xlink:href="#DejaVuSans-36" x="349.902344"/>
     <use xlink:href="#DejaVuSans-38" x="413.525391"/>
    </g>
   </g>
   <g id="text_29">
    <!-- 246.0759 -->
    <g transform="translate(245.089129 203.048535) scale(0.06 -0.06)">
     <use xlink:href="#DejaVuSans-32"/>
     <use xlink:href="#DejaVuSans-34" x="63.623047"/>
     <use xlink:href="#DejaVuSans-36" x="127.246094"/>
     <use xlink:href="#DejaVuSans-2e" x="190.869141"/>
     <use xlink:href="#DejaVuSans-30" x="222.65625"/>
     <use xlink:href="#DejaVuSans-37" x="286.279297"/>
     <use xlink:href="#DejaVuSans-35" x="349.902344"/>
     <use xlink:href="#DejaVuSans-39" x="413.525391"/>
    </g>
   </g>
   <g id="text_30">
    <!-- 253.0967 -->
    <g transform="translate(251.700891 217.795051) scale(0.06 -0.06)">
     <use xlink:href="#DejaVuSans-32"/>
     <use xlink:href="#DejaVuSans-35" x="63.623047"/>
     <use xlink:href="#DejaVuSans-33" x="127.246094"/>
     <use xlink:href="#DejaVuSans-2e" x="190.869141"/>
     <use xlink:href="#DejaVuSans-30" x="222.65625"/>
     <use xlink:href="#DejaVuSans-39" x="286.279297"/>
     <use xlink:href="#DejaVuSans-36" x="349.902344"/>
     <use xlink:href="#DejaVuSans-37" x="413.525391"/>
    </g>
   </g>
   <g id="text_31">
    <!-- 254.1044 -->
    <g transform="translate(252.64992 56.680101) scale(0.06 -0.06)">
     <use xlink:href="#DejaVuSans-32"/>
     <use xlink:href="#DejaVuSans-35" x="63.623047"/>
     <use xlink:href="#DejaVuSans-34" x="127.246094"/>
     <use xlink:href="#DejaVuSans-2e" x="190.869141"/>
     <use xlink:href="#DejaVuSans-31" x="222.65625"/>
     <use xlink:href="#DejaVuSans-30" x="286.279297"/>
     <use xlink:href="#DejaVuSans-34" x="349.902344"/>
     <use xlink:href="#DejaVuSans-34" x="413.525391"/>
    </g>
   </g>
   <g id="text_32">
    <!-- 255.1077 -->
    <g transform="translate(253.594796 274.800658) scale(0.06 -0.06)">
     <use xlink:href="#DejaVuSans-32"/>
     <use xlink:href="#DejaVuSans-35" x="63.623047"/>
     <use xlink:href="#DejaVuSans-35" x="127.246094"/>
     <use xlink:href="#DejaVuSans-2e" x="190.869141"/>
     <use xlink:href="#DejaVuSans-31" x="222.65625"/>
     <use xlink:href="#DejaVuSans-30" x="286.279297"/>
     <use xlink:href="#DejaVuSans-37" x="349.902344"/>
     <use xlink:href="#DejaVuSans-37" x="413.525391"/>
    </g>
   </g>
   <g id="text_33">
    <!-- 271.1072 -->
    <g transform="translate(268.662233 187.972349) scale(0.06 -0.06)">
     <use xlink:href="#DejaVuSans-32"/>
     <use xlink:href="#DejaVuSans-37" x="63.623047"/>
     <use xlink:href="#DejaVuSans-31" x="127.246094"/>
     <use xlink:href="#DejaVuSans-2e" x="190.869141"/>
     <use xlink:href="#DejaVuSans-31" x="222.65625"/>
     <use xlink:href="#DejaVuSans-30" x="286.279297"/>
     <use xlink:href="#DejaVuSans-37" x="349.902344"/>
     <use xlink:href="#DejaVuSans-32" x="413.525391"/>
    </g>
   </g>
   <g id="text_34">
    <!-- 315.0971 -->
    <g transform="translate(310.089377 50.939625) scale(0.06 -0.06)">
     <use xlink:href="#DejaVuSans-33"/>
     <use xlink:href="#DejaVuSans-31" x="63.623047"/>
     <use xlink:href="#DejaVuSans-35" x="127.246094"/>
     <use xlink:href="#DejaVuSans-2e" x="190.869141"/>
     <use xlink:href="#DejaVuSans-30" x="222.65625"/>
     <use xlink:href="#DejaVuSans-39" x="286.279297"/>
     <use xlink:href="#DejaVuSans-37" x="349.902344"/>
     <use xlink:href="#DejaVuSans-31" x="413.525391"/>
    </g>
   </g>
   <g id="text_35">
    <!-- 316.1005 -->
    <g transform="translate(311.034339 266.184687) scale(0.06 -0.06)">
     <use xlink:href="#DejaVuSans-33"/>
     <use xlink:href="#DejaVuSans-31" x="63.623047"/>
     <use xlink:href="#DejaVuSans-36" x="127.246094"/>
     <use xlink:href="#DejaVuSans-2e" x="190.869141"/>
     <use xlink:href="#DejaVuSans-31" x="222.65625"/>
     <use xlink:href="#DejaVuSans-30" x="286.279297"/>
     <use xlink:href="#DejaVuSans-30" x="349.902344"/>
     <use xlink:href="#DejaVuSans-35" x="413.525391"/>
    </g>
   </g>
   <g id="text_36">
    <!-- MS2 spectrum of ${m/z}$ 392.1801, scan time 8.95 min. -->
    <g transform="translate(57.6 35.472) scale(0.12 -0.12)">
     <defs>
      <path id="DejaVuSans-4d" d="M 628 4666 
L 1569 4666 
L 2759 1491 
L 3956 4666 
L 4897 4666 
L 4897 0 
L 4281 0 
L 4281 4097 
L 3078 897 
L 2444 897 
L 1241 4097 
L 1241 0 
L 628 0 
L 628 4666 
z
" transform="scale(0.015625)"/>
      <path id="DejaVuSans-53" d="M 3425 4513 
L 3425 3897 
Q 3066 4069 2747 4153 
Q 2428 4238 2131 4238 
Q 1616 4238 1336 4038 
Q 1056 3838 1056 3469 
Q 1056 3159 1242 3001 
Q 1428 2844 1947 2747 
L 2328 2669 
Q 3034 2534 3370 2195 
Q 3706 1856 3706 1288 
Q 3706 609 3251 259 
Q 2797 -91 1919 -91 
Q 1588 -91 1214 -16 
Q 841 59 441 206 
L 441 856 
Q 825 641 1194 531 
Q 1563 422 1919 422 
Q 2459 422 2753 634 
Q 3047 847 3047 1241 
Q 3047 1584 2836 1778 
Q 2625 1972 2144 2069 
L 1759 2144 
Q 1053 2284 737 2584 
Q 422 2884 422 3419 
Q 422 4038 858 4394 
Q 1294 4750 2059 4750 
Q 2388 4750 2728 4690 
Q 3069 4631 3425 4513 
z
" transform="scale(0.015625)"/>
      <path id="DejaVuSans-20" transform="scale(0.015625)"/>
      <path id="DejaVuSans-70" d="M 1159 525 
L 1159 -1331 
L 581 -1331 
L 581 3500 
L 1159 3500 
L 1159 2969 
Q 1341 3281 1617 3432 
Q 1894 3584 2278 3584 
Q 2916 3584 3314 3078 
Q 3713 2572 3713 1747 
Q 3713 922 3314 415 
Q 2916 -91 2278 -91 
Q 1894 -91 1617 61 
Q 1341 213 1159 525 
z
M 3116 1747 
Q 3116 2381 2855 2742 
Q 2594 3103 2138 3103 
Q 1681 3103 1420 2742 
Q 1159 2381 1159 1747 
Q 1159 1113 1420 752 
Q 1681 391 2138 391 
Q 2594 391 2855 752 
Q 3116 1113 3116 1747 
z
" transform="scale(0.015625)"/>
      <path id="DejaVuSans-63" d="M 3122 3366 
L 3122 2828 
Q 2878 2963 2633 3030 
Q 2388 3097 2138 3097 
Q 1578 3097 1268 2742 
Q 959 2388 959 1747 
Q 959 1106 1268 751 
Q 1578 397 2138 397 
Q 2388 397 2633 464 
Q 2878 531 3122 666 
L 3122 134 
Q 2881 22 2623 -34 
Q 2366 -91 2075 -91 
Q 1284 -91 818 406 
Q 353 903 353 1747 
Q 353 2603 823 3093 
Q 1294 3584 2113 3584 
Q 2378 3584 2631 3529 
Q 2884 3475 3122 3366 
z
" transform="scale(0.015625)"/>
      <path id="DejaVuSans-72" d="M 2631 2963 
Q 2534 3019 2420 3045 
Q 2306 3072 2169 3072 
Q 1681 3072 1420 2755 
Q 1159 2438 1159 1844 
L 1159 0 
L 581 0 
L 581 3500 
L 1159 3500 
L 1159 2956 
Q 1341 3275 1631 3429 
Q 1922 3584 2338 3584 
Q 2397 3584 2469 3576 
Q 2541 3569 2628 3553 
L 2631 2963 
z
" transform="scale(0.015625)"/>
      <path id="DejaVuSans-75" d="M 544 1381 
L 544 3500 
L 1119 3500 
L 1119 1403 
Q 1119 906 1312 657 
Q 1506 409 1894 409 
Q 2359 409 2629 706 
Q 2900 1003 2900 1516 
L 2900 3500 
L 3475 3500 
L 3475 0 
L 2900 0 
L 2900 538 
Q 2691 219 2414 64 
Q 2138 -91 1772 -91 
Q 1169 -91 856 284 
Q 544 659 544 1381 
z
M 1991 3584 
L 1991 3584 
z
" transform="scale(0.015625)"/>
      <path id="DejaVuSans-6d" d="M 3328 2828 
Q 3544 3216 3844 3400 
Q 4144 3584 4550 3584 
Q 5097 3584 5394 3201 
Q 5691 2819 5691 2113 
L 5691 0 
L 5113 0 
L 5113 2094 
Q 5113 2597 4934 2840 
Q 4756 3084 4391 3084 
Q 3944 3084 3684 2787 
Q 3425 2491 3425 1978 
L 3425 0 
L 2847 0 
L 2847 2094 
Q 2847 2600 2669 2842 
Q 2491 3084 2119 3084 
Q 1678 3084 1418 2786 
Q 1159 2488 1159 1978 
L 1159 0 
L 581 0 
L 581 3500 
L 1159 3500 
L 1159 2956 
Q 1356 3278 1631 3431 
Q 1906 3584 2284 3584 
Q 2666 3584 2933 3390 
Q 3200 3197 3328 2828 
z
" transform="scale(0.015625)"/>
      <path id="DejaVuSans-6f" d="M 1959 3097 
Q 1497 3097 1228 2736 
Q 959 2375 959 1747 
Q 959 1119 1226 758 
Q 1494 397 1959 397 
Q 2419 397 2687 759 
Q 2956 1122 2956 1747 
Q 2956 2369 2687 2733 
Q 2419 3097 1959 3097 
z
M 1959 3584 
Q 2709 3584 3137 3096 
Q 3566 2609 3566 1747 
Q 3566 888 3137 398 
Q 2709 -91 1959 -91 
Q 1206 -91 779 398 
Q 353 888 353 1747 
Q 353 2609 779 3096 
Q 1206 3584 1959 3584 
z
" transform="scale(0.015625)"/>
      <path id="DejaVuSans-66" d="M 2375 4863 
L 2375 4384 
L 1825 4384 
Q 1516 4384 1395 4259 
Q 1275 4134 1275 3809 
L 1275 3500 
L 2222 3500 
L 2222 3053 
L 1275 3053 
L 1275 0 
L 697 0 
L 697 3053 
L 147 3053 
L 147 3500 
L 697 3500 
L 697 3744 
Q 697 4328 969 4595 
Q 1241 4863 1831 4863 
L 2375 4863 
z
" transform="scale(0.015625)"/>
      <path id="DejaVuSans-2c" d="M 750 794 
L 1409 794 
L 1409 256 
L 897 -744 
L 494 -744 
L 750 256 
L 750 794 
z
" transform="scale(0.015625)"/>
      <path id="DejaVuSans-61" d="M 2194 1759 
Q 1497 1759 1228 1600 
Q 959 1441 959 1056 
Q 959 750 1161 570 
Q 1363 391 1709 391 
Q 2188 391 2477 730 
Q 2766 1069 2766 1631 
L 2766 1759 
L 2194 1759 
z
M 3341 1997 
L 3341 0 
L 2766 0 
L 2766 531 
Q 2569 213 2275 61 
Q 1981 -91 1556 -91 
Q 1019 -91 701 211 
Q 384 513 384 1019 
Q 384 1609 779 1909 
Q 1175 2209 1959 2209 
L 2766 2209 
L 2766 2266 
Q 2766 2663 2505 2880 
Q 2244 3097 1772 3097 
Q 1472 3097 1187 3025 
Q 903 2953 641 2809 
L 641 3341 
Q 956 3463 1253 3523 
Q 1550 3584 1831 3584 
Q 2591 3584 2966 3190 
Q 3341 2797 3341 1997 
z
" transform="scale(0.015625)"/>
     </defs>
     <use xlink:href="#DejaVuSans-4d" transform="translate(0 0.015625)"/>
     <use xlink:href="#DejaVuSans-53" transform="translate(86.279297 0.015625)"/>
     <use xlink:href="#DejaVuSans-32" transform="translate(149.755859 0.015625)"/>
     <use xlink:href="#DejaVuSans-20" transform="translate(213.378906 0.015625)"/>
     <use xlink:href="#DejaVuSans-73" transform="translate(245.166016 0.015625)"/>
     <use xlink:href="#DejaVuSans-70" transform="translate(297.265625 0.015625)"/>
     <use xlink:href="#DejaVuSans-65" transform="translate(360.742188 0.015625)"/>
     <use xlink:href="#DejaVuSans-63" transform="translate(422.265625 0.015625)"/>
     <use xlink:href="#DejaVuSans-74" transform="translate(477.246094 0.015625)"/>
     <use xlink:href="#DejaVuSans-72" transform="translate(516.455078 0.015625)"/>
     <use xlink:href="#DejaVuSans-75" transform="translate(557.568359 0.015625)"/>
     <use xlink:href="#DejaVuSans-6d" transform="translate(620.947266 0.015625)"/>
     <use xlink:href="#DejaVuSans-20" transform="translate(718.359375 0.015625)"/>
     <use xlink:href="#DejaVuSans-6f" transform="translate(750.146484 0.015625)"/>
     <use xlink:href="#DejaVuSans-66" transform="translate(811.328125 0.015625)"/>
     <use xlink:href="#DejaVuSans-20" transform="translate(846.533203 0.015625)"/>
     <use xlink:href="#DejaVuSans-Oblique-6d" transform="translate(878.320312 0.015625)"/>
     <use xlink:href="#DejaVuSans-2f" transform="translate(975.732422 0.015625)"/>
     <use xlink:href="#DejaVuSans-Oblique-7a" transform="translate(1009.423828 0.015625)"/>
     <use xlink:href="#DejaVuSans-20" transform="translate(1061.914062 0.015625)"/>
     <use xlink:href="#DejaVuSans-33" transform="translate(1093.701172 0.015625)"/>
     <use xlink:href="#DejaVuSans-39" transform="translate(1157.324219 0.015625)"/>
     <use xlink:href="#DejaVuSans-32" transform="translate(1219.197266 0.015625)"/>
     <use xlink:href="#DejaVuSans-2e" transform="translate(1282.820312 0.015625)"/>
     <use xlink:href="#DejaVuSans-31" transform="translate(1314.607422 0.015625)"/>
     <use xlink:href="#DejaVuSans-38" transform="translate(1378.230469 0.015625)"/>
     <use xlink:href="#DejaVuSans-30" transform="translate(1441.853516 0.015625)"/>
     <use xlink:href="#DejaVuSans-31" transform="translate(1505.476562 0.015625)"/>
     <use xlink:href="#DejaVuSans-2c" transform="translate(1569.099609 0.015625)"/>
     <use xlink:href="#DejaVuSans-20" transform="translate(1600.886719 0.015625)"/>
     <use xlink:href="#DejaVuSans-73" transform="translate(1632.673828 0.015625)"/>
     <use xlink:href="#DejaVuSans-63" transform="translate(1684.773438 0.015625)"/>
     <use xlink:href="#DejaVuSans-61" transform="translate(1739.753906 0.015625)"/>
     <use xlink:href="#DejaVuSans-6e" transform="translate(1801.033203 0.015625)"/>
     <use xlink:href="#DejaVuSans-20" transform="translate(1864.412109 0.015625)"/>
     <use xlink:href="#DejaVuSans-74" transform="translate(1896.199219 0.015625)"/>
     <use xlink:href="#DejaVuSans-69" transform="translate(1935.408203 0.015625)"/>
     <use xlink:href="#DejaVuSans-6d" transform="translate(1963.191406 0.015625)"/>
     <use xlink:href="#DejaVuSans-65" transform="translate(2060.603516 0.015625)"/>
     <use xlink:href="#DejaVuSans-20" transform="translate(2122.126953 0.015625)"/>
     <use xlink:href="#DejaVuSans-38" transform="translate(2153.914062 0.015625)"/>
     <use xlink:href="#DejaVuSans-2e" transform="translate(2217.537109 0.015625)"/>
     <use xlink:href="#DejaVuSans-39" transform="translate(2249.324219 0.015625)"/>
     <use xlink:href="#DejaVuSans-35" transform="translate(2312.947266 0.015625)"/>
     <use xlink:href="#DejaVuSans-20" transform="translate(2376.570312 0.015625)"/>
     <use xlink:href="#DejaVuSans-6d" transform="translate(2408.357422 0.015625)"/>
     <use xlink:href="#DejaVuSans-69" transform="translate(2505.769531 0.015625)"/>
     <use xlink:href="#DejaVuSans-6e" transform="translate(2533.552734 0.015625)"/>
     <use xlink:href="#DejaVuSans-2e" transform="translate(2596.931641 0.015625)"/>
    </g>
   </g>
  </g>
 </g>
 <defs>
  <clipPath id="p0f68a27921">
   <rect x="57.6" y="41.472" width="357.12" height="266.112"/>
  </clipPath>
 </defs>
</svg>
