<?xml version="1.0" encoding="utf-8" standalone="no"?>
<!DOCTYPE svg PUBLIC "-//W3C//DTD SVG 1.1//EN"
  "http://www.w3.org/Graphics/SVG/1.1/DTD/svg11.dtd">
<svg xmlns:xlink="http://www.w3.org/1999/xlink" width="460.8pt" height="345.6pt" viewBox="0 0 460.8 345.6" xmlns="http://www.w3.org/2000/svg" version="1.1">
 <metadata>
  <rdf:RDF xmlns:dc="http://purl.org/dc/elements/1.1/" xmlns:cc="http://creativecommons.org/ns#" xmlns:rdf="http://www.w3.org/1999/02/22-rdf-syntax-ns#">
   <cc:Work>
    <dc:type rdf:resource="http://purl.org/dc/dcmitype/StillImage"/>
    <dc:date>2025-01-11T13:56:17.685176</dc:date>
    <dc:format>image/svg+xml</dc:format>
    <dc:creator>
     <cc:Agent>
      <dc:title>Matplotlib v3.7.3, https://matplotlib.org/</dc:title>
     </cc:Agent>
    </dc:creator>
   </cc:Work>
  </rdf:RDF>
 </metadata>
 <defs>
  <style type="text/css">*{stroke-linejoin: round; stroke-linecap: butt}</style>
 </defs>
 <g id="figure_1">
  <g id="patch_1">
   <path d="M 0 345.6 
L 460.8 345.6 
L 460.8 0 
L 0 0 
z
" style="fill: #ffffff"/>
  </g>
  <g id="axes_1">
   <g id="patch_2">
    <path d="M 57.6 307.584 
L 414.72 307.584 
L 414.72 41.472 
L 57.6 41.472 
z
" style="fill: #ffffff"/>
   </g>
   <g id="patch_3">
    <path d="M 73.832727 307.584 
L 74.715084 307.584 
L 74.715084 306.327062 
L 73.832727 306.327062 
z
" clip-path="url(#pe334474a24)" style="fill: #1f77b4"/>
   </g>
   <g id="patch_4">
    <path d="M 75.881082 307.584 
L 76.763439 307.584 
L 76.763439 305.645298 
L 75.881082 305.645298 
z
" clip-path="url(#pe334474a24)" style="fill: #1f77b4"/>
   </g>
   <g id="patch_5">
    <path d="M 76.270532 307.584 
L 77.15289 307.584 
L 77.15289 306.730967 
L 76.270532 306.730967 
z
" clip-path="url(#pe334474a24)" style="fill: #1f77b4"/>
   </g>
   <g id="patch_6">
    <path d="M 78.478028 307.584 
L 79.360385 307.584 
L 79.360385 306.262839 
L 78.478028 306.262839 
z
" clip-path="url(#pe334474a24)" style="fill: #1f77b4"/>
   </g>
   <g id="patch_7">
    <path d="M 82.70242 307.584 
L 83.584777 307.584 
L 83.584777 306.05994 
L 82.70242 306.05994 
z
" clip-path="url(#pe334474a24)" style="fill: #1f77b4"/>
   </g>
   <g id="patch_8">
    <path d="M 84.681849 307.584 
L 85.564207 307.584 
L 85.564207 306.211035 
L 84.681849 306.211035 
z
" clip-path="url(#pe334474a24)" style="fill: #1f77b4"/>
   </g>
   <g id="patch_9">
    <path d="M 84.820694 307.584 
L 85.703051 307.584 
L 85.703051 305.588122 
L 84.820694 305.588122 
z
" clip-path="url(#pe334474a24)" style="fill: #1f77b4"/>
   </g>
   <g id="patch_10">
    <path d="M 87.982623 307.584 
L 88.86498 307.584 
L 88.86498 306.67907 
L 87.982623 306.67907 
z
" clip-path="url(#pe334474a24)" style="fill: #1f77b4"/>
   </g>
   <g id="patch_11">
    <path d="M 113.276374 307.584 
L 114.158731 307.584 
L 114.158731 306.510336 
L 113.276374 306.510336 
z
" clip-path="url(#pe334474a24)" style="fill: #1f77b4"/>
   </g>
   <g id="patch_12">
    <path d="M 115.183751 307.584 
L 116.066108 307.584 
L 116.066108 306.416388 
L 115.183751 306.416388 
z
" clip-path="url(#pe334474a24)" style="fill: #1f77b4"/>
   </g>
   <g id="patch_13">
    <path d="M 118.464266 307.584 
L 119.346623 307.584 
L 119.346623 306.478221 
L 118.464266 306.478221 
z
" clip-path="url(#pe334474a24)" style="fill: #1f77b4"/>
   </g>
   <g id="patch_14">
    <path d="M 123.000616 307.584 
L 123.882974 307.584 
L 123.882974 306.424962 
L 123.000616 306.424962 
z
" clip-path="url(#pe334474a24)" style="fill: #1f77b4"/>
   </g>
   <g id="patch_15">
    <path d="M 127.316692 307.584 
L 128.199049 307.584 
L 128.199049 303.717042 
L 127.316692 303.717042 
z
" clip-path="url(#pe334474a24)" style="fill: #1f77b4"/>
   </g>
   <g id="patch_16">
    <path d="M 128.151256 307.584 
L 129.033614 307.584 
L 129.033614 306.442369 
L 128.151256 306.442369 
z
" clip-path="url(#pe334474a24)" style="fill: #1f77b4"/>
   </g>
   <g id="patch_17">
    <path d="M 133.922792 307.584 
L 134.805149 307.584 
L 134.805149 306.085469 
L 133.922792 306.085469 
z
" clip-path="url(#pe334474a24)" style="fill: #1f77b4"/>
   </g>
   <g id="patch_18">
    <path d="M 134.70282 307.584 
L 135.585177 307.584 
L 135.585177 306.596823 
L 134.70282 306.596823 
z
" clip-path="url(#pe334474a24)" style="fill: #1f77b4"/>
   </g>
   <g id="patch_19">
    <path d="M 136.204603 307.584 
L 137.08696 307.584 
L 137.08696 306.543536 
L 136.204603 306.543536 
z
" clip-path="url(#pe334474a24)" style="fill: #1f77b4"/>
   </g>
   <g id="patch_20">
    <path d="M 141.654289 307.584 
L 142.536646 307.584 
L 142.536646 298.510781 
L 141.654289 298.510781 
z
" clip-path="url(#pe334474a24)" style="fill: #1f77b4"/>
   </g>
   <g id="patch_21">
    <path d="M 143.863775 307.584 
L 144.746132 307.584 
L 144.746132 306.507898 
L 143.863775 306.507898 
z
" clip-path="url(#pe334474a24)" style="fill: #1f77b4"/>
   </g>
   <g id="patch_22">
    <path d="M 149.33098 307.584 
L 150.213337 307.584 
L 150.213337 306.07286 
L 149.33098 306.07286 
z
" clip-path="url(#pe334474a24)" style="fill: #1f77b4"/>
   </g>
   <g id="patch_23">
    <path d="M 149.340909 307.584 
L 150.223266 307.584 
L 150.223266 282.725952 
L 149.340909 282.725952 
z
" clip-path="url(#pe334474a24)" style="fill: #1f77b4"/>
   </g>
   <g id="patch_24">
    <path d="M 155.987097 307.584 
L 156.869454 307.584 
L 156.869454 305.2676 
L 155.987097 305.2676 
z
" clip-path="url(#pe334474a24)" style="fill: #1f77b4"/>
   </g>
   <g id="patch_25">
    <path d="M 156.001806 307.584 
L 156.884163 307.584 
L 156.884163 306.359192 
L 156.001806 306.359192 
z
" clip-path="url(#pe334474a24)" style="fill: #1f77b4"/>
   </g>
   <g id="patch_26">
    <path d="M 157.112124 307.584 
L 157.994481 307.584 
L 157.994481 305.666959 
L 157.112124 305.666959 
z
" clip-path="url(#pe334474a24)" style="fill: #1f77b4"/>
   </g>
   <g id="patch_27">
    <path d="M 158.19299 307.584 
L 159.075347 307.584 
L 159.075347 306.198766 
L 158.19299 306.198766 
z
" clip-path="url(#pe334474a24)" style="fill: #1f77b4"/>
   </g>
   <g id="patch_28">
    <path d="M 158.210022 307.584 
L 159.092379 307.584 
L 159.092379 305.403881 
L 158.210022 305.403881 
z
" clip-path="url(#pe334474a24)" style="fill: #1f77b4"/>
   </g>
   <g id="patch_29">
    <path d="M 160.392639 307.584 
L 161.274996 307.584 
L 161.274996 304.013028 
L 160.392639 304.013028 
z
" clip-path="url(#pe334474a24)" style="fill: #1f77b4"/>
   </g>
   <g id="patch_30">
    <path d="M 164.82351 307.584 
L 165.705867 307.584 
L 165.705867 306.283869 
L 164.82351 306.283869 
z
" clip-path="url(#pe334474a24)" style="fill: #1f77b4"/>
   </g>
   <g id="patch_31">
    <path d="M 169.222151 307.584 
L 170.104508 307.584 
L 170.104508 304.637084 
L 169.222151 304.637084 
z
" clip-path="url(#pe334474a24)" style="fill: #1f77b4"/>
   </g>
   <g id="patch_32">
    <path d="M 170.347548 307.584 
L 171.229906 307.584 
L 171.229906 304.687069 
L 170.347548 304.687069 
z
" clip-path="url(#pe334474a24)" style="fill: #1f77b4"/>
   </g>
   <g id="patch_33">
    <path d="M 171.44553 307.584 
L 172.327887 307.584 
L 172.327887 294.33469 
L 171.44553 294.33469 
z
" clip-path="url(#pe334474a24)" style="fill: #1f77b4"/>
   </g>
   <g id="patch_34">
    <path d="M 172.556134 307.584 
L 173.438491 307.584 
L 173.438491 305.667766 
L 172.556134 305.667766 
z
" clip-path="url(#pe334474a24)" style="fill: #1f77b4"/>
   </g>
   <g id="patch_35">
    <path d="M 173.628131 307.584 
L 174.510488 307.584 
L 174.510488 303.158366 
L 173.628131 303.158366 
z
" clip-path="url(#pe334474a24)" style="fill: #1f77b4"/>
   </g>
   <g id="patch_36">
    <path d="M 181.359762 307.584 
L 182.242119 307.584 
L 182.242119 305.98693 
L 181.359762 305.98693 
z
" clip-path="url(#pe334474a24)" style="fill: #1f77b4"/>
   </g>
   <g id="patch_37">
    <path d="M 182.45729 307.584 
L 183.339647 307.584 
L 183.339647 306.047372 
L 182.45729 306.047372 
z
" clip-path="url(#pe334474a24)" style="fill: #1f77b4"/>
   </g>
   <g id="patch_38">
    <path d="M 183.569072 307.584 
L 184.451429 307.584 
L 184.451429 304.23932 
L 183.569072 304.23932 
z
" clip-path="url(#pe334474a24)" style="fill: #1f77b4"/>
   </g>
   <g id="patch_39">
    <path d="M 184.64159 307.584 
L 185.523947 307.584 
L 185.523947 306.194048 
L 184.64159 306.194048 
z
" clip-path="url(#pe334474a24)" style="fill: #1f77b4"/>
   </g>
   <g id="patch_40">
    <path d="M 184.663755 307.584 
L 185.546112 307.584 
L 185.546112 302.115873 
L 184.663755 302.115873 
z
" clip-path="url(#pe334474a24)" style="fill: #1f77b4"/>
   </g>
   <g id="patch_41">
    <path d="M 184.680618 307.584 
L 185.562975 307.584 
L 185.562975 284.433076 
L 184.680618 284.433076 
z
" clip-path="url(#pe334474a24)" style="fill: #1f77b4"/>
   </g>
   <g id="patch_42">
    <path d="M 185.778263 307.584 
L 186.66062 307.584 
L 186.66062 303.20373 
L 185.778263 303.20373 
z
" clip-path="url(#pe334474a24)" style="fill: #1f77b4"/>
   </g>
   <g id="patch_43">
    <path d="M 185.790515 307.584 
L 186.672872 307.584 
L 186.672872 305.774012 
L 185.790515 305.774012 
z
" clip-path="url(#pe334474a24)" style="fill: #1f77b4"/>
   </g>
   <g id="patch_44">
    <path d="M 186.864952 307.584 
L 187.747309 307.584 
L 187.747309 306.170636 
L 186.864952 306.170636 
z
" clip-path="url(#pe334474a24)" style="fill: #1f77b4"/>
   </g>
   <g id="patch_45">
    <path d="M 186.889052 307.584 
L 187.771409 307.584 
L 187.771409 306.481978 
L 186.889052 306.481978 
z
" clip-path="url(#pe334474a24)" style="fill: #1f77b4"/>
   </g>
   <g id="patch_46">
    <path d="M 186.903963 307.584 
L 187.78632 307.584 
L 187.78632 302.466292 
L 186.903963 302.466292 
z
" clip-path="url(#pe334474a24)" style="fill: #1f77b4"/>
   </g>
   <g id="patch_47">
    <path d="M 189.08722 307.584 
L 189.969577 307.584 
L 189.969577 305.053713 
L 189.08722 305.053713 
z
" clip-path="url(#pe334474a24)" style="fill: #1f77b4"/>
   </g>
   <g id="patch_48">
    <path d="M 197.915891 307.584 
L 198.798248 307.584 
L 198.798248 301.195778 
L 197.915891 301.195778 
z
" clip-path="url(#pe334474a24)" style="fill: #1f77b4"/>
   </g>
   <g id="patch_49">
    <path d="M 199.014344 307.584 
L 199.896701 307.584 
L 199.896701 305.127377 
L 199.014344 305.127377 
z
" clip-path="url(#pe334474a24)" style="fill: #1f77b4"/>
   </g>
   <g id="patch_50">
    <path d="M 199.027437 307.584 
L 199.909794 307.584 
L 199.909794 297.895892 
L 199.027437 297.895892 
z
" clip-path="url(#pe334474a24)" style="fill: #1f77b4"/>
   </g>
   <g id="patch_51">
    <path d="M 200.098542 307.584 
L 200.980899 307.584 
L 200.980899 305.306162 
L 200.098542 305.306162 
z
" clip-path="url(#pe334474a24)" style="fill: #1f77b4"/>
   </g>
   <g id="patch_52">
    <path d="M 200.125856 307.584 
L 201.008214 307.584 
L 201.008214 305.810931 
L 200.125856 305.810931 
z
" clip-path="url(#pe334474a24)" style="fill: #1f77b4"/>
   </g>
   <g id="patch_53">
    <path d="M 200.139404 307.584 
L 201.021761 307.584 
L 201.021761 282.605353 
L 200.139404 282.605353 
z
" clip-path="url(#pe334474a24)" style="fill: #1f77b4"/>
   </g>
   <g id="patch_54">
    <path d="M 201.209533 307.584 
L 202.09189 307.584 
L 202.09189 305.275915 
L 201.209533 305.275915 
z
" clip-path="url(#pe334474a24)" style="fill: #1f77b4"/>
   </g>
   <g id="patch_55">
    <path d="M 201.236864 307.584 
L 202.119221 307.584 
L 202.119221 303.174323 
L 201.236864 303.174323 
z
" clip-path="url(#pe334474a24)" style="fill: #1f77b4"/>
   </g>
   <g id="patch_56">
    <path d="M 202.322442 307.584 
L 203.2048 307.584 
L 203.2048 281.220119 
L 202.322442 281.220119 
z
" clip-path="url(#pe334474a24)" style="fill: #1f77b4"/>
   </g>
   <g id="patch_57">
    <path d="M 202.3473 307.584 
L 203.229657 307.584 
L 203.229657 306.02775 
L 202.3473 306.02775 
z
" clip-path="url(#pe334474a24)" style="fill: #1f77b4"/>
   </g>
   <g id="patch_58">
    <path d="M 203.429697 307.584 
L 204.312054 307.584 
L 204.312054 305.807503 
L 203.429697 305.807503 
z
" clip-path="url(#pe334474a24)" style="fill: #1f77b4"/>
   </g>
   <g id="patch_59">
    <path d="M 207.767214 307.584 
L 208.649571 307.584 
L 208.649571 306.393303 
L 207.767214 306.393303 
z
" clip-path="url(#pe334474a24)" style="fill: #1f77b4"/>
   </g>
   <g id="patch_60">
    <path d="M 211.151046 307.584 
L 212.033403 307.584 
L 212.033403 299.501186 
L 211.151046 299.501186 
z
" clip-path="url(#pe334474a24)" style="fill: #1f77b4"/>
   </g>
   <g id="patch_61">
    <path d="M 212.248674 307.584 
L 213.131031 307.584 
L 213.131031 299.942768 
L 212.248674 299.942768 
z
" clip-path="url(#pe334474a24)" style="fill: #1f77b4"/>
   </g>
   <g id="patch_62">
    <path d="M 213.360658 307.584 
L 214.243015 307.584 
L 214.243015 293.80538 
L 213.360658 293.80538 
z
" clip-path="url(#pe334474a24)" style="fill: #1f77b4"/>
   </g>
   <g id="patch_63">
    <path d="M 214.472137 307.584 
L 215.354494 307.584 
L 215.354494 288.560103 
L 214.472137 288.560103 
z
" clip-path="url(#pe334474a24)" style="fill: #1f77b4"/>
   </g>
   <g id="patch_64">
    <path d="M 215.583852 307.584 
L 216.466209 307.584 
L 216.466209 280.495131 
L 215.583852 280.495131 
z
" clip-path="url(#pe334474a24)" style="fill: #1f77b4"/>
   </g>
   <g id="patch_65">
    <path d="M 215.596491 307.584 
L 216.478848 307.584 
L 216.478848 306.644831 
L 215.596491 306.644831 
z
" clip-path="url(#pe334474a24)" style="fill: #1f77b4"/>
   </g>
   <g id="patch_66">
    <path d="M 216.668757 307.584 
L 217.551114 307.584 
L 217.551114 305.189756 
L 216.668757 305.189756 
z
" clip-path="url(#pe334474a24)" style="fill: #1f77b4"/>
   </g>
   <g id="patch_67">
    <path d="M 216.695516 307.584 
L 217.577873 307.584 
L 217.577873 274.205208 
L 216.695516 274.205208 
z
" clip-path="url(#pe334474a24)" style="fill: #1f77b4"/>
   </g>
   <g id="patch_68">
    <path d="M 217.754318 307.584 
L 218.636675 307.584 
L 218.636675 305.644808 
L 217.754318 305.644808 
z
" clip-path="url(#pe334474a24)" style="fill: #1f77b4"/>
   </g>
   <g id="patch_69">
    <path d="M 217.780471 307.584 
L 218.662829 307.584 
L 218.662829 303.383419 
L 217.780471 303.383419 
z
" clip-path="url(#pe334474a24)" style="fill: #1f77b4"/>
   </g>
   <g id="patch_70">
    <path d="M 217.803814 307.584 
L 218.686171 307.584 
L 218.686171 305.193244 
L 217.803814 305.193244 
z
" clip-path="url(#pe334474a24)" style="fill: #1f77b4"/>
   </g>
   <g id="patch_71">
    <path d="M 218.878268 307.584 
L 219.760625 307.584 
L 219.760625 306.029044 
L 218.878268 306.029044 
z
" clip-path="url(#pe334474a24)" style="fill: #1f77b4"/>
   </g>
   <g id="patch_72">
    <path d="M 219.96351 307.584 
L 220.845867 307.584 
L 220.845867 305.212685 
L 219.96351 305.212685 
z
" clip-path="url(#pe334474a24)" style="fill: #1f77b4"/>
   </g>
   <g id="patch_73">
    <path d="M 226.592885 307.584 
L 227.475242 307.584 
L 227.475242 306.318826 
L 226.592885 306.318826 
z
" clip-path="url(#pe334474a24)" style="fill: #1f77b4"/>
   </g>
   <g id="patch_74">
    <path d="M 227.707662 307.584 
L 228.59002 307.584 
L 228.59002 289.26724 
L 227.707662 289.26724 
z
" clip-path="url(#pe334474a24)" style="fill: #1f77b4"/>
   </g>
   <g id="patch_75">
    <path d="M 228.79356 307.584 
L 229.675918 307.584 
L 229.675918 302.71236 
L 228.79356 302.71236 
z
" clip-path="url(#pe334474a24)" style="fill: #1f77b4"/>
   </g>
   <g id="patch_76">
    <path d="M 228.819327 307.584 
L 229.701684 307.584 
L 229.701684 236.65125 
L 228.819327 236.65125 
z
" clip-path="url(#pe334474a24)" style="fill: #1f77b4"/>
   </g>
   <g id="patch_77">
    <path d="M 229.88996 307.584 
L 230.772317 307.584 
L 230.772317 299.011377 
L 229.88996 299.011377 
z
" clip-path="url(#pe334474a24)" style="fill: #1f77b4"/>
   </g>
   <g id="patch_78">
    <path d="M 229.930822 307.584 
L 230.81318 307.584 
L 230.81318 182.305221 
L 229.930822 182.305221 
z
" clip-path="url(#pe334474a24)" style="fill: #1f77b4"/>
   </g>
   <g id="patch_79">
    <path d="M 231.000901 307.584 
L 231.883258 307.584 
L 231.883258 304.992061 
L 231.000901 304.992061 
z
" clip-path="url(#pe334474a24)" style="fill: #1f77b4"/>
   </g>
   <g id="patch_80">
    <path d="M 231.041763 307.584 
L 231.92412 307.584 
L 231.92412 268.909229 
L 231.041763 268.909229 
z
" clip-path="url(#pe334474a24)" style="fill: #1f77b4"/>
   </g>
   <g id="patch_81">
    <path d="M 232.112565 307.584 
L 232.994922 307.584 
L 232.994922 304.918175 
L 232.112565 304.918175 
z
" clip-path="url(#pe334474a24)" style="fill: #1f77b4"/>
   </g>
   <g id="patch_82">
    <path d="M 232.13202 307.584 
L 233.014377 307.584 
L 233.014377 305.447415 
L 232.13202 305.447415 
z
" clip-path="url(#pe334474a24)" style="fill: #1f77b4"/>
   </g>
   <g id="patch_83">
    <path d="M 232.15373 307.584 
L 233.036087 307.584 
L 233.036087 288.604323 
L 232.15373 288.604323 
z
" clip-path="url(#pe334474a24)" style="fill: #1f77b4"/>
   </g>
   <g id="patch_84">
    <path d="M 232.412873 307.584 
L 233.29523 307.584 
L 233.29523 306.342777 
L 232.412873 306.342777 
z
" clip-path="url(#pe334474a24)" style="fill: #1f77b4"/>
   </g>
   <g id="patch_85">
    <path d="M 233.19922 307.584 
L 234.081577 307.584 
L 234.081577 305.065953 
L 233.19922 305.065953 
z
" clip-path="url(#pe334474a24)" style="fill: #1f77b4"/>
   </g>
   <g id="patch_86">
    <path d="M 233.220156 307.584 
L 234.102513 307.584 
L 234.102513 306.308815 
L 233.220156 306.308815 
z
" clip-path="url(#pe334474a24)" style="fill: #1f77b4"/>
   </g>
   <g id="patch_87">
    <path d="M 233.260194 307.584 
L 234.142551 307.584 
L 234.142551 305.441683 
L 233.260194 305.441683 
z
" clip-path="url(#pe334474a24)" style="fill: #1f77b4"/>
   </g>
   <g id="patch_88">
    <path d="M 234.33591 307.584 
L 235.218267 307.584 
L 235.218267 305.469922 
L 234.33591 305.469922 
z
" clip-path="url(#pe334474a24)" style="fill: #1f77b4"/>
   </g>
   <g id="patch_89">
    <path d="M 235.422044 307.584 
L 236.304401 307.584 
L 236.304401 305.437215 
L 235.422044 305.437215 
z
" clip-path="url(#pe334474a24)" style="fill: #1f77b4"/>
   </g>
   <g id="patch_90">
    <path d="M 244.251169 307.584 
L 245.133526 307.584 
L 245.133526 305.874807 
L 244.251169 305.874807 
z
" clip-path="url(#pe334474a24)" style="fill: #1f77b4"/>
   </g>
   <g id="patch_91">
    <path d="M 245.348948 307.584 
L 246.231306 307.584 
L 246.231306 269.759247 
L 245.348948 269.759247 
z
" clip-path="url(#pe334474a24)" style="fill: #1f77b4"/>
   </g>
   <g id="patch_92">
    <path d="M 246.457213 307.584 
L 247.33957 307.584 
L 247.33957 303.634641 
L 246.457213 303.634641 
z
" clip-path="url(#pe334474a24)" style="fill: #1f77b4"/>
   </g>
   <g id="patch_93">
    <path d="M 246.474783 307.584 
L 247.35714 307.584 
L 247.35714 303.806985 
L 246.474783 303.806985 
z
" clip-path="url(#pe334474a24)" style="fill: #1f77b4"/>
   </g>
   <g id="patch_94">
    <path d="M 247.546763 307.584 
L 248.42912 307.584 
L 248.42912 298.394142 
L 247.546763 298.394142 
z
" clip-path="url(#pe334474a24)" style="fill: #1f77b4"/>
   </g>
   <g id="patch_95">
    <path d="M 247.572007 307.584 
L 248.454365 307.584 
L 248.454365 221.910395 
L 247.572007 221.910395 
z
" clip-path="url(#pe334474a24)" style="fill: #1f77b4"/>
   </g>
   <g id="patch_96">
    <path d="M 248.657047 307.584 
L 249.539404 307.584 
L 249.539404 305.574236 
L 248.657047 305.574236 
z
" clip-path="url(#pe334474a24)" style="fill: #1f77b4"/>
   </g>
   <g id="patch_97">
    <path d="M 248.683335 307.584 
L 249.565692 307.584 
L 249.565692 267.252732 
L 248.683335 267.252732 
z
" clip-path="url(#pe334474a24)" style="fill: #1f77b4"/>
   </g>
   <g id="patch_98">
    <path d="M 249.754339 307.584 
L 250.636696 307.584 
L 250.636696 303.029357 
L 249.754339 303.029357 
z
" clip-path="url(#pe334474a24)" style="fill: #1f77b4"/>
   </g>
   <g id="patch_99">
    <path d="M 249.790926 307.584 
L 250.673284 307.584 
L 250.673284 304.900695 
L 249.790926 304.900695 
z
" clip-path="url(#pe334474a24)" style="fill: #1f77b4"/>
   </g>
   <g id="patch_100">
    <path d="M 250.840826 307.584 
L 251.723183 307.584 
L 251.723183 265.328369 
L 250.840826 265.328369 
z
" clip-path="url(#pe334474a24)" style="fill: #1f77b4"/>
   </g>
   <g id="patch_101">
    <path d="M 250.861913 307.584 
L 251.744271 307.584 
L 251.744271 306.300872 
L 250.861913 306.300872 
z
" clip-path="url(#pe334474a24)" style="fill: #1f77b4"/>
   </g>
   <g id="patch_102">
    <path d="M 251.947929 307.584 
L 252.830286 307.584 
L 252.830286 302.234386 
L 251.947929 302.234386 
z
" clip-path="url(#pe334474a24)" style="fill: #1f77b4"/>
   </g>
   <g id="patch_103">
    <path d="M 255.287483 307.584 
L 256.16984 307.584 
L 256.16984 304.261462 
L 255.287483 304.261462 
z
" clip-path="url(#pe334474a24)" style="fill: #1f77b4"/>
   </g>
   <g id="patch_104">
    <path d="M 258.584592 307.584 
L 259.466949 307.584 
L 259.466949 295.508164 
L 258.584592 295.508164 
z
" clip-path="url(#pe334474a24)" style="fill: #1f77b4"/>
   </g>
   <g id="patch_105">
    <path d="M 259.669816 307.584 
L 260.552174 307.584 
L 260.552174 298.011903 
L 259.669816 298.011903 
z
" clip-path="url(#pe334474a24)" style="fill: #1f77b4"/>
   </g>
   <g id="patch_106">
    <path d="M 259.695684 307.584 
L 260.578041 307.584 
L 260.578041 283.6679 
L 259.695684 283.6679 
z
" clip-path="url(#pe334474a24)" style="fill: #1f77b4"/>
   </g>
   <g id="patch_107">
    <path d="M 260.770457 307.584 
L 261.652814 307.584 
L 261.652814 301.382946 
L 260.770457 301.382946 
z
" clip-path="url(#pe334474a24)" style="fill: #1f77b4"/>
   </g>
   <g id="patch_108">
    <path d="M 260.807314 307.584 
L 261.689671 307.584 
L 261.689671 263.763169 
L 260.807314 263.763169 
z
" clip-path="url(#pe334474a24)" style="fill: #1f77b4"/>
   </g>
   <g id="patch_109">
    <path d="M 261.878436 307.584 
L 262.760793 307.584 
L 262.760793 305.391604 
L 261.878436 305.391604 
z
" clip-path="url(#pe334474a24)" style="fill: #1f77b4"/>
   </g>
   <g id="patch_110">
    <path d="M 261.91536 307.584 
L 262.797717 307.584 
L 262.797717 299.724019 
L 261.91536 299.724019 
z
" clip-path="url(#pe334474a24)" style="fill: #1f77b4"/>
   </g>
   <g id="patch_111">
    <path d="M 264.117163 307.584 
L 264.99952 307.584 
L 264.99952 278.820458 
L 264.117163 278.820458 
z
" clip-path="url(#pe334474a24)" style="fill: #1f77b4"/>
   </g>
   <g id="patch_112">
    <path d="M 265.213647 307.584 
L 266.096004 307.584 
L 266.096004 302.577854 
L 265.213647 302.577854 
z
" clip-path="url(#pe334474a24)" style="fill: #1f77b4"/>
   </g>
   <g id="patch_113">
    <path d="M 266.324621 307.584 
L 267.206978 307.584 
L 267.206978 300.450305 
L 266.324621 300.450305 
z
" clip-path="url(#pe334474a24)" style="fill: #1f77b4"/>
   </g>
   <g id="patch_114">
    <path d="M 270.70544 307.584 
L 271.587797 307.584 
L 271.587797 299.936346 
L 270.70544 299.936346 
z
" clip-path="url(#pe334474a24)" style="fill: #1f77b4"/>
   </g>
   <g id="patch_115">
    <path d="M 275.128788 307.584 
L 276.011145 307.584 
L 276.011145 305.679624 
L 275.128788 305.679624 
z
" clip-path="url(#pe334474a24)" style="fill: #1f77b4"/>
   </g>
   <g id="patch_116">
    <path d="M 276.227577 307.584 
L 277.109935 307.584 
L 277.109935 305.525514 
L 276.227577 305.525514 
z
" clip-path="url(#pe334474a24)" style="fill: #1f77b4"/>
   </g>
   <g id="patch_117">
    <path d="M 277.112782 307.584 
L 277.995139 307.584 
L 277.995139 306.390344 
L 277.112782 306.390344 
z
" clip-path="url(#pe334474a24)" style="fill: #1f77b4"/>
   </g>
   <g id="patch_118">
    <path d="M 277.337256 307.584 
L 278.219613 307.584 
L 278.219613 304.63227 
L 277.337256 304.63227 
z
" clip-path="url(#pe334474a24)" style="fill: #1f77b4"/>
   </g>
   <g id="patch_119">
    <path d="M 277.438217 307.584 
L 278.320574 307.584 
L 278.320574 306.466196 
L 277.438217 306.466196 
z
" clip-path="url(#pe334474a24)" style="fill: #1f77b4"/>
   </g>
   <g id="patch_120">
    <path d="M 278.449038 307.584 
L 279.331395 307.584 
L 279.331395 188.862106 
L 278.449038 188.862106 
z
" clip-path="url(#pe334474a24)" style="fill: #1f77b4"/>
   </g>
   <g id="patch_121">
    <path d="M 279.555367 307.584 
L 280.437724 307.584 
L 280.437724 295.110391 
L 279.555367 295.110391 
z
" clip-path="url(#pe334474a24)" style="fill: #1f77b4"/>
   </g>
   <g id="patch_122">
    <path d="M 280.63221 307.584 
L 281.514568 307.584 
L 281.514568 306.19272 
L 280.63221 306.19272 
z
" clip-path="url(#pe334474a24)" style="fill: #1f77b4"/>
   </g>
   <g id="patch_123">
    <path d="M 280.672181 307.584 
L 281.554538 307.584 
L 281.554538 258.615688 
L 280.672181 258.615688 
z
" clip-path="url(#pe334474a24)" style="fill: #1f77b4"/>
   </g>
   <g id="patch_124">
    <path d="M 281.779032 307.584 
L 282.661389 307.584 
L 282.661389 302.984716 
L 281.779032 302.984716 
z
" clip-path="url(#pe334474a24)" style="fill: #1f77b4"/>
   </g>
   <g id="patch_125">
    <path d="M 285.079019 307.584 
L 285.961376 307.584 
L 285.961376 305.837038 
L 285.079019 305.837038 
z
" clip-path="url(#pe334474a24)" style="fill: #1f77b4"/>
   </g>
   <g id="patch_126">
    <path d="M 286.163621 307.584 
L 287.045978 307.584 
L 287.045978 281.632471 
L 286.163621 281.632471 
z
" clip-path="url(#pe334474a24)" style="fill: #1f77b4"/>
   </g>
   <g id="patch_127">
    <path d="M 287.270421 307.584 
L 288.152778 307.584 
L 288.152778 304.519631 
L 287.270421 304.519631 
z
" clip-path="url(#pe334474a24)" style="fill: #1f77b4"/>
   </g>
   <g id="patch_128">
    <path d="M 292.770562 307.584 
L 293.652919 307.584 
L 293.652919 305.929558 
L 292.770562 305.929558 
z
" clip-path="url(#pe334474a24)" style="fill: #1f77b4"/>
   </g>
   <g id="patch_129">
    <path d="M 293.907504 307.584 
L 294.789861 307.584 
L 294.789861 210.494898 
L 293.907504 210.494898 
z
" clip-path="url(#pe334474a24)" style="fill: #1f77b4"/>
   </g>
   <g id="patch_130">
    <path d="M 294.995304 307.584 
L 295.877661 307.584 
L 295.877661 300.717432 
L 294.995304 300.717432 
z
" clip-path="url(#pe334474a24)" style="fill: #1f77b4"/>
   </g>
   <g id="patch_131">
    <path d="M 295.018983 307.584 
L 295.90134 307.584 
L 295.90134 54.144 
L 295.018983 54.144 
z
" clip-path="url(#pe334474a24)" style="fill: #1f77b4"/>
   </g>
   <g id="patch_132">
    <path d="M 296.091064 307.584 
L 296.973421 307.584 
L 296.973421 296.842666 
L 296.091064 296.842666 
z
" clip-path="url(#pe334474a24)" style="fill: #1f77b4"/>
   </g>
   <g id="patch_133">
    <path d="M 296.125531 307.584 
L 297.007888 307.584 
L 297.007888 282.3312 
L 296.125531 282.3312 
z
" clip-path="url(#pe334474a24)" style="fill: #1f77b4"/>
   </g>
   <g id="patch_134">
    <path d="M 297.20155 307.584 
L 298.083907 307.584 
L 298.083907 298.48743 
L 297.20155 298.48743 
z
" clip-path="url(#pe334474a24)" style="fill: #1f77b4"/>
   </g>
   <g id="patch_135">
    <path d="M 310.451583 307.584 
L 311.33394 307.584 
L 311.33394 301.590207 
L 310.451583 301.590207 
z
" clip-path="url(#pe334474a24)" style="fill: #1f77b4"/>
   </g>
   <g id="patch_136">
    <path d="M 311.554327 307.584 
L 312.436684 307.584 
L 312.436684 306.014928 
L 311.554327 306.014928 
z
" clip-path="url(#pe334474a24)" style="fill: #1f77b4"/>
   </g>
   <g id="patch_137">
    <path d="M 312.634015 307.584 
L 313.516372 307.584 
L 313.516372 294.513603 
L 312.634015 294.513603 
z
" clip-path="url(#pe334474a24)" style="fill: #1f77b4"/>
   </g>
   <g id="patch_138">
    <path d="M 312.66212 307.584 
L 313.544478 307.584 
L 313.544478 303.560016 
L 312.66212 303.560016 
z
" clip-path="url(#pe334474a24)" style="fill: #1f77b4"/>
   </g>
   <g id="patch_139">
    <path d="M 313.743054 307.584 
L 314.625411 307.584 
L 314.625411 305.284247 
L 313.743054 305.284247 
z
" clip-path="url(#pe334474a24)" style="fill: #1f77b4"/>
   </g>
   <g id="patch_140">
    <path d="M 313.771799 307.584 
L 314.654156 307.584 
L 314.654156 270.67315 
L 313.771799 270.67315 
z
" clip-path="url(#pe334474a24)" style="fill: #1f77b4"/>
   </g>
   <g id="patch_141">
    <path d="M 314.878683 307.584 
L 315.76104 307.584 
L 315.76104 302.331695 
L 314.878683 302.331695 
z
" clip-path="url(#pe334474a24)" style="fill: #1f77b4"/>
   </g>
   <g id="patch_142">
    <path d="M 328.092902 307.584 
L 328.975259 307.584 
L 328.975259 297.62872 
L 328.092902 297.62872 
z
" clip-path="url(#pe334474a24)" style="fill: #1f77b4"/>
   </g>
   <g id="patch_143">
    <path d="M 329.199215 307.584 
L 330.081572 307.584 
L 330.081572 303.423484 
L 329.199215 303.423484 
z
" clip-path="url(#pe334474a24)" style="fill: #1f77b4"/>
   </g>
   <g id="patch_144">
    <path d="M 331.414667 307.584 
L 332.297024 307.584 
L 332.297024 305.739805 
L 331.414667 305.739805 
z
" clip-path="url(#pe334474a24)" style="fill: #1f77b4"/>
   </g>
   <g id="patch_145">
    <path d="M 362.290502 307.584 
L 363.172859 307.584 
L 363.172859 273.560418 
L 362.290502 273.560418 
z
" clip-path="url(#pe334474a24)" style="fill: #1f77b4"/>
   </g>
   <g id="patch_146">
    <path d="M 363.397925 307.584 
L 364.280282 307.584 
L 364.280282 304.313525 
L 363.397925 304.313525 
z
" clip-path="url(#pe334474a24)" style="fill: #1f77b4"/>
   </g>
   <g id="patch_147">
    <path d="M 368.844295 307.584 
L 369.726652 307.584 
L 369.726652 305.894502 
L 368.844295 305.894502 
z
" clip-path="url(#pe334474a24)" style="fill: #1f77b4"/>
   </g>
   <g id="patch_148">
    <path d="M 377.748413 307.584 
L 378.63077 307.584 
L 378.63077 305.959524 
L 377.748413 305.959524 
z
" clip-path="url(#pe334474a24)" style="fill: #1f77b4"/>
   </g>
   <g id="patch_149">
    <path d="M 396.498401 307.584 
L 397.380758 307.584 
L 397.380758 299.550182 
L 396.498401 299.550182 
z
" clip-path="url(#pe334474a24)" style="fill: #1f77b4"/>
   </g>
   <g id="patch_150">
    <path d="M 397.604916 307.584 
L 398.487273 307.584 
L 398.487273 304.627521 
L 397.604916 304.627521 
z
" clip-path="url(#pe334474a24)" style="fill: #1f77b4"/>
   </g>
   <g id="matplotlib.axis_1">
    <g id="xtick_1">
     <g id="line2d_1">
      <defs>
       <path id="m49f5f45ec3" d="M 0 0 
L 0 3.5 
" style="stroke: #000000; stroke-width: 0.8"/>
      </defs>
      <g>
       <use xlink:href="#m49f5f45ec3" x="70.343877" y="307.584" style="stroke: #000000; stroke-width: 0.8"/>
      </g>
     </g>
     <g id="text_1">
      <!-- 50 -->
      <g transform="translate(63.981377 322.182437) scale(0.1 -0.1)">
       <defs>
        <path id="DejaVuSans-35" d="M 691 4666 
L 3169 4666 
L 3169 4134 
L 1269 4134 
L 1269 2991 
Q 1406 3038 1543 3061 
Q 1681 3084 1819 3084 
Q 2600 3084 3056 2656 
Q 3513 2228 3513 1497 
Q 3513 744 3044 326 
Q 2575 -91 1722 -91 
Q 1428 -91 1123 -41 
Q 819 9 494 109 
L 494 744 
Q 775 591 1075 516 
Q 1375 441 1709 441 
Q 2250 441 2565 725 
Q 2881 1009 2881 1497 
Q 2881 1984 2565 2268 
Q 2250 2553 1709 2553 
Q 1456 2553 1204 2497 
Q 953 2441 691 2322 
L 691 4666 
z
" transform="scale(0.015625)"/>
        <path id="DejaVuSans-30" d="M 2034 4250 
Q 1547 4250 1301 3770 
Q 1056 3291 1056 2328 
Q 1056 1369 1301 889 
Q 1547 409 2034 409 
Q 2525 409 2770 889 
Q 3016 1369 3016 2328 
Q 3016 3291 2770 3770 
Q 2525 4250 2034 4250 
z
M 2034 4750 
Q 2819 4750 3233 4129 
Q 3647 3509 3647 2328 
Q 3647 1150 3233 529 
Q 2819 -91 2034 -91 
Q 1250 -91 836 529 
Q 422 1150 422 2328 
Q 422 3509 836 4129 
Q 1250 4750 2034 4750 
z
" transform="scale(0.015625)"/>
       </defs>
       <use xlink:href="#DejaVuSans-35"/>
       <use xlink:href="#DejaVuSans-30" x="63.623047"/>
      </g>
     </g>
    </g>
    <g id="xtick_2">
     <g id="line2d_2">
      <g>
       <use xlink:href="#m49f5f45ec3" x="125.491198" y="307.584" style="stroke: #000000; stroke-width: 0.8"/>
      </g>
     </g>
     <g id="text_2">
      <!-- 100 -->
      <g transform="translate(115.947448 322.182437) scale(0.1 -0.1)">
       <defs>
        <path id="DejaVuSans-31" d="M 794 531 
L 1825 531 
L 1825 4091 
L 703 3866 
L 703 4441 
L 1819 4666 
L 2450 4666 
L 2450 531 
L 3481 531 
L 3481 0 
L 794 0 
L 794 531 
z
" transform="scale(0.015625)"/>
       </defs>
       <use xlink:href="#DejaVuSans-31"/>
       <use xlink:href="#DejaVuSans-30" x="63.623047"/>
       <use xlink:href="#DejaVuSans-30" x="127.246094"/>
      </g>
     </g>
    </g>
    <g id="xtick_3">
     <g id="line2d_3">
      <g>
       <use xlink:href="#m49f5f45ec3" x="180.638519" y="307.584" style="stroke: #000000; stroke-width: 0.8"/>
      </g>
     </g>
     <g id="text_3">
      <!-- 150 -->
      <g transform="translate(171.094769 322.182437) scale(0.1 -0.1)">
       <use xlink:href="#DejaVuSans-31"/>
       <use xlink:href="#DejaVuSans-35" x="63.623047"/>
       <use xlink:href="#DejaVuSans-30" x="127.246094"/>
      </g>
     </g>
    </g>
    <g id="xtick_4">
     <g id="line2d_4">
      <g>
       <use xlink:href="#m49f5f45ec3" x="235.78584" y="307.584" style="stroke: #000000; stroke-width: 0.8"/>
      </g>
     </g>
     <g id="text_4">
      <!-- 200 -->
      <g transform="translate(226.24209 322.182437) scale(0.1 -0.1)">
       <defs>
        <path id="DejaVuSans-32" d="M 1228 531 
L 3431 531 
L 3431 0 
L 469 0 
L 469 531 
Q 828 903 1448 1529 
Q 2069 2156 2228 2338 
Q 2531 2678 2651 2914 
Q 2772 3150 2772 3378 
Q 2772 3750 2511 3984 
Q 2250 4219 1831 4219 
Q 1534 4219 1204 4116 
Q 875 4013 500 3803 
L 500 4441 
Q 881 4594 1212 4672 
Q 1544 4750 1819 4750 
Q 2544 4750 2975 4387 
Q 3406 4025 3406 3419 
Q 3406 3131 3298 2873 
Q 3191 2616 2906 2266 
Q 2828 2175 2409 1742 
Q 1991 1309 1228 531 
z
" transform="scale(0.015625)"/>
       </defs>
       <use xlink:href="#DejaVuSans-32"/>
       <use xlink:href="#DejaVuSans-30" x="63.623047"/>
       <use xlink:href="#DejaVuSans-30" x="127.246094"/>
      </g>
     </g>
    </g>
    <g id="xtick_5">
     <g id="line2d_5">
      <g>
       <use xlink:href="#m49f5f45ec3" x="290.93316" y="307.584" style="stroke: #000000; stroke-width: 0.8"/>
      </g>
     </g>
     <g id="text_5">
      <!-- 250 -->
      <g transform="translate(281.38941 322.182437) scale(0.1 -0.1)">
       <use xlink:href="#DejaVuSans-32"/>
       <use xlink:href="#DejaVuSans-35" x="63.623047"/>
       <use xlink:href="#DejaVuSans-30" x="127.246094"/>
      </g>
     </g>
    </g>
    <g id="xtick_6">
     <g id="line2d_6">
      <g>
       <use xlink:href="#m49f5f45ec3" x="346.080481" y="307.584" style="stroke: #000000; stroke-width: 0.8"/>
      </g>
     </g>
     <g id="text_6">
      <!-- 300 -->
      <g transform="translate(336.536731 322.182437) scale(0.1 -0.1)">
       <defs>
        <path id="DejaVuSans-33" d="M 2597 2516 
Q 3050 2419 3304 2112 
Q 3559 1806 3559 1356 
Q 3559 666 3084 287 
Q 2609 -91 1734 -91 
Q 1441 -91 1130 -33 
Q 819 25 488 141 
L 488 750 
Q 750 597 1062 519 
Q 1375 441 1716 441 
Q 2309 441 2620 675 
Q 2931 909 2931 1356 
Q 2931 1769 2642 2001 
Q 2353 2234 1838 2234 
L 1294 2234 
L 1294 2753 
L 1863 2753 
Q 2328 2753 2575 2939 
Q 2822 3125 2822 3475 
Q 2822 3834 2567 4026 
Q 2313 4219 1838 4219 
Q 1578 4219 1281 4162 
Q 984 4106 628 3988 
L 628 4550 
Q 988 4650 1302 4700 
Q 1616 4750 1894 4750 
Q 2613 4750 3031 4423 
Q 3450 4097 3450 3541 
Q 3450 3153 3228 2886 
Q 3006 2619 2597 2516 
z
" transform="scale(0.015625)"/>
       </defs>
       <use xlink:href="#DejaVuSans-33"/>
       <use xlink:href="#DejaVuSans-30" x="63.623047"/>
       <use xlink:href="#DejaVuSans-30" x="127.246094"/>
      </g>
     </g>
    </g>
    <g id="xtick_7">
     <g id="line2d_7">
      <g>
       <use xlink:href="#m49f5f45ec3" x="401.227802" y="307.584" style="stroke: #000000; stroke-width: 0.8"/>
      </g>
     </g>
     <g id="text_7">
      <!-- 350 -->
      <g transform="translate(391.684052 322.182437) scale(0.1 -0.1)">
       <use xlink:href="#DejaVuSans-33"/>
       <use xlink:href="#DejaVuSans-35" x="63.623047"/>
       <use xlink:href="#DejaVuSans-30" x="127.246094"/>
      </g>
     </g>
    </g>
    <g id="text_8">
     <!-- ${m/z}$ -->
     <g transform="translate(226.96 335.860562) scale(0.1 -0.1)">
      <defs>
       <path id="DejaVuSans-Oblique-6d" d="M 5747 2113 
L 5338 0 
L 4763 0 
L 5166 2094 
Q 5191 2228 5203 2325 
Q 5216 2422 5216 2491 
Q 5216 2772 5059 2928 
Q 4903 3084 4622 3084 
Q 4203 3084 3875 2770 
Q 3547 2456 3450 1953 
L 3066 0 
L 2491 0 
L 2900 2094 
Q 2925 2209 2937 2307 
Q 2950 2406 2950 2484 
Q 2950 2769 2794 2926 
Q 2638 3084 2363 3084 
Q 1938 3084 1609 2770 
Q 1281 2456 1184 1953 
L 800 0 
L 225 0 
L 909 3500 
L 1484 3500 
L 1375 2956 
Q 1609 3263 1923 3423 
Q 2238 3584 2597 3584 
Q 2978 3584 3223 3384 
Q 3469 3184 3519 2828 
Q 3781 3197 4126 3390 
Q 4472 3584 4856 3584 
Q 5306 3584 5551 3325 
Q 5797 3066 5797 2591 
Q 5797 2488 5784 2364 
Q 5772 2241 5747 2113 
z
" transform="scale(0.015625)"/>
       <path id="DejaVuSans-2f" d="M 1625 4666 
L 2156 4666 
L 531 -594 
L 0 -594 
L 1625 4666 
z
" transform="scale(0.015625)"/>
       <path id="DejaVuSans-Oblique-7a" d="M 744 3500 
L 3475 3500 
L 3372 2975 
L 738 459 
L 2913 459 
L 2822 0 
L -19 0 
L 84 525 
L 2719 3041 
L 653 3041 
L 744 3500 
z
" transform="scale(0.015625)"/>
      </defs>
      <use xlink:href="#DejaVuSans-Oblique-6d" transform="translate(0 0.09375)"/>
      <use xlink:href="#DejaVuSans-2f" transform="translate(97.412109 0.09375)"/>
      <use xlink:href="#DejaVuSans-Oblique-7a" transform="translate(131.103516 0.09375)"/>
     </g>
    </g>
   </g>
   <g id="matplotlib.axis_2">
    <g id="ytick_1">
     <g id="line2d_8">
      <defs>
       <path id="m8283315db0" d="M 0 0 
L -3.5 0 
" style="stroke: #000000; stroke-width: 0.8"/>
      </defs>
      <g>
       <use xlink:href="#m8283315db0" x="57.6" y="307.584" style="stroke: #000000; stroke-width: 0.8"/>
      </g>
     </g>
     <g id="text_9">
      <!-- 0.0 -->
      <g transform="translate(34.696875 311.383219) scale(0.1 -0.1)">
       <defs>
        <path id="DejaVuSans-2e" d="M 684 794 
L 1344 794 
L 1344 0 
L 684 0 
L 684 794 
z
" transform="scale(0.015625)"/>
       </defs>
       <use xlink:href="#DejaVuSans-30"/>
       <use xlink:href="#DejaVuSans-2e" x="63.623047"/>
       <use xlink:href="#DejaVuSans-30" x="95.410156"/>
      </g>
     </g>
    </g>
    <g id="ytick_2">
     <g id="line2d_9">
      <g>
       <use xlink:href="#m8283315db0" x="57.6" y="256.530903" style="stroke: #000000; stroke-width: 0.8"/>
      </g>
     </g>
     <g id="text_10">
      <!-- 0.2 -->
      <g transform="translate(34.696875 260.330122) scale(0.1 -0.1)">
       <use xlink:href="#DejaVuSans-30"/>
       <use xlink:href="#DejaVuSans-2e" x="63.623047"/>
       <use xlink:href="#DejaVuSans-32" x="95.410156"/>
      </g>
     </g>
    </g>
    <g id="ytick_3">
     <g id="line2d_10">
      <g>
       <use xlink:href="#m8283315db0" x="57.6" y="205.477807" style="stroke: #000000; stroke-width: 0.8"/>
      </g>
     </g>
     <g id="text_11">
      <!-- 0.4 -->
      <g transform="translate(34.696875 209.277025) scale(0.1 -0.1)">
       <defs>
        <path id="DejaVuSans-34" d="M 2419 4116 
L 825 1625 
L 2419 1625 
L 2419 4116 
z
M 2253 4666 
L 3047 4666 
L 3047 1625 
L 3713 1625 
L 3713 1100 
L 3047 1100 
L 3047 0 
L 2419 0 
L 2419 1100 
L 313 1100 
L 313 1709 
L 2253 4666 
z
" transform="scale(0.015625)"/>
       </defs>
       <use xlink:href="#DejaVuSans-30"/>
       <use xlink:href="#DejaVuSans-2e" x="63.623047"/>
       <use xlink:href="#DejaVuSans-34" x="95.410156"/>
      </g>
     </g>
    </g>
    <g id="ytick_4">
     <g id="line2d_11">
      <g>
       <use xlink:href="#m8283315db0" x="57.6" y="154.42471" style="stroke: #000000; stroke-width: 0.8"/>
      </g>
     </g>
     <g id="text_12">
      <!-- 0.6 -->
      <g transform="translate(34.696875 158.223929) scale(0.1 -0.1)">
       <defs>
        <path id="DejaVuSans-36" d="M 2113 2584 
Q 1688 2584 1439 2293 
Q 1191 2003 1191 1497 
Q 1191 994 1439 701 
Q 1688 409 2113 409 
Q 2538 409 2786 701 
Q 3034 994 3034 1497 
Q 3034 2003 2786 2293 
Q 2538 2584 2113 2584 
z
M 3366 4563 
L 3366 3988 
Q 3128 4100 2886 4159 
Q 2644 4219 2406 4219 
Q 1781 4219 1451 3797 
Q 1122 3375 1075 2522 
Q 1259 2794 1537 2939 
Q 1816 3084 2150 3084 
Q 2853 3084 3261 2657 
Q 3669 2231 3669 1497 
Q 3669 778 3244 343 
Q 2819 -91 2113 -91 
Q 1303 -91 875 529 
Q 447 1150 447 2328 
Q 447 3434 972 4092 
Q 1497 4750 2381 4750 
Q 2619 4750 2861 4703 
Q 3103 4656 3366 4563 
z
" transform="scale(0.015625)"/>
       </defs>
       <use xlink:href="#DejaVuSans-30"/>
       <use xlink:href="#DejaVuSans-2e" x="63.623047"/>
       <use xlink:href="#DejaVuSans-36" x="95.410156"/>
      </g>
     </g>
    </g>
    <g id="ytick_5">
     <g id="line2d_12">
      <g>
       <use xlink:href="#m8283315db0" x="57.6" y="103.371613" style="stroke: #000000; stroke-width: 0.8"/>
      </g>
     </g>
     <g id="text_13">
      <!-- 0.8 -->
      <g transform="translate(34.696875 107.170832) scale(0.1 -0.1)">
       <defs>
        <path id="DejaVuSans-38" d="M 2034 2216 
Q 1584 2216 1326 1975 
Q 1069 1734 1069 1313 
Q 1069 891 1326 650 
Q 1584 409 2034 409 
Q 2484 409 2743 651 
Q 3003 894 3003 1313 
Q 3003 1734 2745 1975 
Q 2488 2216 2034 2216 
z
M 1403 2484 
Q 997 2584 770 2862 
Q 544 3141 544 3541 
Q 544 4100 942 4425 
Q 1341 4750 2034 4750 
Q 2731 4750 3128 4425 
Q 3525 4100 3525 3541 
Q 3525 3141 3298 2862 
Q 3072 2584 2669 2484 
Q 3125 2378 3379 2068 
Q 3634 1759 3634 1313 
Q 3634 634 3220 271 
Q 2806 -91 2034 -91 
Q 1263 -91 848 271 
Q 434 634 434 1313 
Q 434 1759 690 2068 
Q 947 2378 1403 2484 
z
M 1172 3481 
Q 1172 3119 1398 2916 
Q 1625 2713 2034 2713 
Q 2441 2713 2670 2916 
Q 2900 3119 2900 3481 
Q 2900 3844 2670 4047 
Q 2441 4250 2034 4250 
Q 1625 4250 1398 4047 
Q 1172 3844 1172 3481 
z
" transform="scale(0.015625)"/>
       </defs>
       <use xlink:href="#DejaVuSans-30"/>
       <use xlink:href="#DejaVuSans-2e" x="63.623047"/>
       <use xlink:href="#DejaVuSans-38" x="95.410156"/>
      </g>
     </g>
    </g>
    <g id="ytick_6">
     <g id="line2d_13">
      <g>
       <use xlink:href="#m8283315db0" x="57.6" y="52.318517" style="stroke: #000000; stroke-width: 0.8"/>
      </g>
     </g>
     <g id="text_14">
      <!-- 1.0 -->
      <g transform="translate(34.696875 56.117736) scale(0.1 -0.1)">
       <use xlink:href="#DejaVuSans-31"/>
       <use xlink:href="#DejaVuSans-2e" x="63.623047"/>
       <use xlink:href="#DejaVuSans-30" x="95.410156"/>
      </g>
     </g>
    </g>
    <g id="text_15">
     <!-- intensities -->
     <g transform="translate(28.617187 200.3155) rotate(-90) scale(0.1 -0.1)">
      <defs>
       <path id="DejaVuSans-69" d="M 603 3500 
L 1178 3500 
L 1178 0 
L 603 0 
L 603 3500 
z
M 603 4863 
L 1178 4863 
L 1178 4134 
L 603 4134 
L 603 4863 
z
" transform="scale(0.015625)"/>
       <path id="DejaVuSans-6e" d="M 3513 2113 
L 3513 0 
L 2938 0 
L 2938 2094 
Q 2938 2591 2744 2837 
Q 2550 3084 2163 3084 
Q 1697 3084 1428 2787 
Q 1159 2491 1159 1978 
L 1159 0 
L 581 0 
L 581 3500 
L 1159 3500 
L 1159 2956 
Q 1366 3272 1645 3428 
Q 1925 3584 2291 3584 
Q 2894 3584 3203 3211 
Q 3513 2838 3513 2113 
z
" transform="scale(0.015625)"/>
       <path id="DejaVuSans-74" d="M 1172 4494 
L 1172 3500 
L 2356 3500 
L 2356 3053 
L 1172 3053 
L 1172 1153 
Q 1172 725 1289 603 
Q 1406 481 1766 481 
L 2356 481 
L 2356 0 
L 1766 0 
Q 1100 0 847 248 
Q 594 497 594 1153 
L 594 3053 
L 172 3053 
L 172 3500 
L 594 3500 
L 594 4494 
L 1172 4494 
z
" transform="scale(0.015625)"/>
       <path id="DejaVuSans-65" d="M 3597 1894 
L 3597 1613 
L 953 1613 
Q 991 1019 1311 708 
Q 1631 397 2203 397 
Q 2534 397 2845 478 
Q 3156 559 3463 722 
L 3463 178 
Q 3153 47 2828 -22 
Q 2503 -91 2169 -91 
Q 1331 -91 842 396 
Q 353 884 353 1716 
Q 353 2575 817 3079 
Q 1281 3584 2069 3584 
Q 2775 3584 3186 3129 
Q 3597 2675 3597 1894 
z
M 3022 2063 
Q 3016 2534 2758 2815 
Q 2500 3097 2075 3097 
Q 1594 3097 1305 2825 
Q 1016 2553 972 2059 
L 3022 2063 
z
" transform="scale(0.015625)"/>
       <path id="DejaVuSans-73" d="M 2834 3397 
L 2834 2853 
Q 2591 2978 2328 3040 
Q 2066 3103 1784 3103 
Q 1356 3103 1142 2972 
Q 928 2841 928 2578 
Q 928 2378 1081 2264 
Q 1234 2150 1697 2047 
L 1894 2003 
Q 2506 1872 2764 1633 
Q 3022 1394 3022 966 
Q 3022 478 2636 193 
Q 2250 -91 1575 -91 
Q 1294 -91 989 -36 
Q 684 19 347 128 
L 347 722 
Q 666 556 975 473 
Q 1284 391 1588 391 
Q 1994 391 2212 530 
Q 2431 669 2431 922 
Q 2431 1156 2273 1281 
Q 2116 1406 1581 1522 
L 1381 1569 
Q 847 1681 609 1914 
Q 372 2147 372 2553 
Q 372 3047 722 3315 
Q 1072 3584 1716 3584 
Q 2034 3584 2315 3537 
Q 2597 3491 2834 3397 
z
" transform="scale(0.015625)"/>
      </defs>
      <use xlink:href="#DejaVuSans-69"/>
      <use xlink:href="#DejaVuSans-6e" x="27.783203"/>
      <use xlink:href="#DejaVuSans-74" x="91.162109"/>
      <use xlink:href="#DejaVuSans-65" x="130.371094"/>
      <use xlink:href="#DejaVuSans-6e" x="191.894531"/>
      <use xlink:href="#DejaVuSans-73" x="255.273438"/>
      <use xlink:href="#DejaVuSans-69" x="307.373047"/>
      <use xlink:href="#DejaVuSans-74" x="335.15625"/>
      <use xlink:href="#DejaVuSans-69" x="374.365234"/>
      <use xlink:href="#DejaVuSans-65" x="402.148438"/>
      <use xlink:href="#DejaVuSans-73" x="463.671875"/>
     </g>
    </g>
    <g id="text_16">
     <!-- 1e6 -->
     <g transform="translate(57.6 38.472) scale(0.1 -0.1)">
      <use xlink:href="#DejaVuSans-31"/>
      <use xlink:href="#DejaVuSans-65" x="63.623047"/>
      <use xlink:href="#DejaVuSans-36" x="125.146484"/>
     </g>
    </g>
   </g>
   <g id="patch_151">
    <path d="M 57.6 307.584 
L 57.6 41.472 
" style="fill: none; stroke: #000000; stroke-width: 0.8; stroke-linejoin: miter; stroke-linecap: square"/>
   </g>
   <g id="patch_152">
    <path d="M 414.72 307.584 
L 414.72 41.472 
" style="fill: none; stroke: #000000; stroke-width: 0.8; stroke-linejoin: miter; stroke-linecap: square"/>
   </g>
   <g id="patch_153">
    <path d="M 57.6 307.584 
L 414.72 307.584 
" style="fill: none; stroke: #000000; stroke-width: 0.8; stroke-linejoin: miter; stroke-linecap: square"/>
   </g>
   <g id="patch_154">
    <path d="M 57.6 41.472 
L 414.72 41.472 
" style="fill: none; stroke: #000000; stroke-width: 0.8; stroke-linejoin: miter; stroke-linecap: square"/>
   </g>
   <g id="text_17">
    <!-- 170.06 -->
    <g transform="translate(195.866434 278.195643) scale(0.06 -0.06)">
     <defs>
      <path id="DejaVuSans-37" d="M 525 4666 
L 3525 4666 
L 3525 4397 
L 1831 0 
L 1172 0 
L 2766 4134 
L 525 4134 
L 525 4666 
z
" transform="scale(0.015625)"/>
     </defs>
     <use xlink:href="#DejaVuSans-31"/>
     <use xlink:href="#DejaVuSans-37" x="63.623047"/>
     <use xlink:href="#DejaVuSans-30" x="127.246094"/>
     <use xlink:href="#DejaVuSans-2e" x="190.869141"/>
     <use xlink:href="#DejaVuSans-30" x="222.65625"/>
     <use xlink:href="#DejaVuSans-36" x="286.279297"/>
    </g>
   </g>
   <g id="text_18">
    <!-- 182.0836 -->
    <g transform="translate(215.390343 285.390756) scale(0.06 -0.06)">
     <use xlink:href="#DejaVuSans-31"/>
     <use xlink:href="#DejaVuSans-38" x="63.623047"/>
     <use xlink:href="#DejaVuSans-32" x="127.246094"/>
     <use xlink:href="#DejaVuSans-2e" x="190.869141"/>
     <use xlink:href="#DejaVuSans-30" x="222.65625"/>
     <use xlink:href="#DejaVuSans-38" x="286.279297"/>
     <use xlink:href="#DejaVuSans-33" x="349.902344"/>
     <use xlink:href="#DejaVuSans-36" x="413.525391"/>
    </g>
   </g>
   <g id="text_19">
    <!-- 183.0915 -->
    <g transform="translate(204.982007 267.580833) scale(0.06 -0.06)">
     <defs>
      <path id="DejaVuSans-39" d="M 703 97 
L 703 672 
Q 941 559 1184 500 
Q 1428 441 1663 441 
Q 2288 441 2617 861 
Q 2947 1281 2994 2138 
Q 2813 1869 2534 1725 
Q 2256 1581 1919 1581 
Q 1219 1581 811 2004 
Q 403 2428 403 3163 
Q 403 3881 828 4315 
Q 1253 4750 1959 4750 
Q 2769 4750 3195 4129 
Q 3622 3509 3622 2328 
Q 3622 1225 3098 567 
Q 2575 -91 1691 -91 
Q 1453 -91 1209 -44 
Q 966 3 703 97 
z
M 1959 2075 
Q 2384 2075 2632 2365 
Q 2881 2656 2881 3163 
Q 2881 3666 2632 3958 
Q 2384 4250 1959 4250 
Q 1534 4250 1286 3958 
Q 1038 3666 1038 3163 
Q 1038 2656 1286 2365 
Q 1534 2075 1959 2075 
z
" transform="scale(0.015625)"/>
     </defs>
     <use xlink:href="#DejaVuSans-31"/>
     <use xlink:href="#DejaVuSans-38" x="63.623047"/>
     <use xlink:href="#DejaVuSans-33" x="127.246094"/>
     <use xlink:href="#DejaVuSans-2e" x="190.869141"/>
     <use xlink:href="#DejaVuSans-30" x="222.65625"/>
     <use xlink:href="#DejaVuSans-39" x="286.279297"/>
     <use xlink:href="#DejaVuSans-31" x="349.902344"/>
     <use xlink:href="#DejaVuSans-35" x="413.525391"/>
    </g>
   </g>
   <g id="text_20">
    <!-- 194.0837 -->
    <g transform="translate(222.145818 241.546875) scale(0.06 -0.06)">
     <use xlink:href="#DejaVuSans-31"/>
     <use xlink:href="#DejaVuSans-39" x="63.623047"/>
     <use xlink:href="#DejaVuSans-34" x="127.246094"/>
     <use xlink:href="#DejaVuSans-2e" x="190.869141"/>
     <use xlink:href="#DejaVuSans-30" x="222.65625"/>
     <use xlink:href="#DejaVuSans-38" x="286.279297"/>
     <use xlink:href="#DejaVuSans-33" x="349.902344"/>
     <use xlink:href="#DejaVuSans-37" x="413.525391"/>
    </g>
   </g>
   <g id="text_21">
    <!-- 195.0915 -->
    <g transform="translate(223.257314 179.100846) scale(0.06 -0.06)">
     <use xlink:href="#DejaVuSans-31"/>
     <use xlink:href="#DejaVuSans-39" x="63.623047"/>
     <use xlink:href="#DejaVuSans-35" x="127.246094"/>
     <use xlink:href="#DejaVuSans-2e" x="190.869141"/>
     <use xlink:href="#DejaVuSans-30" x="222.65625"/>
     <use xlink:href="#DejaVuSans-39" x="286.279297"/>
     <use xlink:href="#DejaVuSans-31" x="349.902344"/>
     <use xlink:href="#DejaVuSans-35" x="413.525391"/>
    </g>
   </g>
   <g id="text_22">
    <!-- 196.0987 -->
    <g transform="translate(219.328254 260.844854) scale(0.06 -0.06)">
     <use xlink:href="#DejaVuSans-31"/>
     <use xlink:href="#DejaVuSans-39" x="63.623047"/>
     <use xlink:href="#DejaVuSans-36" x="127.246094"/>
     <use xlink:href="#DejaVuSans-2e" x="190.869141"/>
     <use xlink:href="#DejaVuSans-30" x="222.65625"/>
     <use xlink:href="#DejaVuSans-39" x="286.279297"/>
     <use xlink:href="#DejaVuSans-38" x="349.902344"/>
     <use xlink:href="#DejaVuSans-37" x="413.525391"/>
    </g>
   </g>
   <g id="text_23">
    <!-- 209.0705 -->
    <g transform="translate(237.95544 274.654872) scale(0.06 -0.06)">
     <use xlink:href="#DejaVuSans-32"/>
     <use xlink:href="#DejaVuSans-30" x="63.623047"/>
     <use xlink:href="#DejaVuSans-39" x="127.246094"/>
     <use xlink:href="#DejaVuSans-2e" x="190.869141"/>
     <use xlink:href="#DejaVuSans-30" x="222.65625"/>
     <use xlink:href="#DejaVuSans-37" x="286.279297"/>
     <use xlink:href="#DejaVuSans-30" x="349.902344"/>
     <use xlink:href="#DejaVuSans-35" x="413.525391"/>
    </g>
   </g>
   <g id="text_24">
    <!-- 211.0861 -->
    <g transform="translate(240.898499 216.72602) scale(0.06 -0.06)">
     <use xlink:href="#DejaVuSans-32"/>
     <use xlink:href="#DejaVuSans-31" x="63.623047"/>
     <use xlink:href="#DejaVuSans-31" x="127.246094"/>
     <use xlink:href="#DejaVuSans-2e" x="190.869141"/>
     <use xlink:href="#DejaVuSans-30" x="222.65625"/>
     <use xlink:href="#DejaVuSans-38" x="286.279297"/>
     <use xlink:href="#DejaVuSans-36" x="349.902344"/>
     <use xlink:href="#DejaVuSans-31" x="413.525391"/>
    </g>
   </g>
   <g id="text_25">
    <!-- 212.0937 -->
    <g transform="translate(259.289826 267.828357) scale(0.06 -0.06)">
     <use xlink:href="#DejaVuSans-32"/>
     <use xlink:href="#DejaVuSans-31" x="63.623047"/>
     <use xlink:href="#DejaVuSans-32" x="127.246094"/>
     <use xlink:href="#DejaVuSans-2e" x="190.869141"/>
     <use xlink:href="#DejaVuSans-30" x="222.65625"/>
     <use xlink:href="#DejaVuSans-39" x="286.279297"/>
     <use xlink:href="#DejaVuSans-33" x="349.902344"/>
     <use xlink:href="#DejaVuSans-37" x="413.525391"/>
    </g>
   </g>
   <g id="text_26">
    <!-- 214.0498 -->
    <g transform="translate(247.767317 257.983994) scale(0.06 -0.06)">
     <use xlink:href="#DejaVuSans-32"/>
     <use xlink:href="#DejaVuSans-31" x="63.623047"/>
     <use xlink:href="#DejaVuSans-34" x="127.246094"/>
     <use xlink:href="#DejaVuSans-2e" x="190.869141"/>
     <use xlink:href="#DejaVuSans-30" x="222.65625"/>
     <use xlink:href="#DejaVuSans-34" x="286.279297"/>
     <use xlink:href="#DejaVuSans-39" x="349.902344"/>
     <use xlink:href="#DejaVuSans-38" x="413.525391"/>
    </g>
   </g>
   <g id="text_27">
    <!-- 223.086 -->
    <g transform="translate(273.322555 256.418794) scale(0.06 -0.06)">
     <use xlink:href="#DejaVuSans-32"/>
     <use xlink:href="#DejaVuSans-32" x="63.623047"/>
     <use xlink:href="#DejaVuSans-33" x="127.246094"/>
     <use xlink:href="#DejaVuSans-2e" x="190.869141"/>
     <use xlink:href="#DejaVuSans-30" x="222.65625"/>
     <use xlink:href="#DejaVuSans-38" x="286.279297"/>
     <use xlink:href="#DejaVuSans-36" x="349.902344"/>
    </g>
   </g>
   <g id="text_28">
    <!-- 226.0869 -->
    <g transform="translate(257.443654 283.716083) scale(0.06 -0.06)">
     <use xlink:href="#DejaVuSans-32"/>
     <use xlink:href="#DejaVuSans-32" x="63.623047"/>
     <use xlink:href="#DejaVuSans-36" x="127.246094"/>
     <use xlink:href="#DejaVuSans-2e" x="190.869141"/>
     <use xlink:href="#DejaVuSans-30" x="222.65625"/>
     <use xlink:href="#DejaVuSans-38" x="286.279297"/>
     <use xlink:href="#DejaVuSans-36" x="349.902344"/>
     <use xlink:href="#DejaVuSans-39" x="413.525391"/>
    </g>
   </g>
   <g id="text_29">
    <!-- 239.0811 -->
    <g transform="translate(271.775529 183.677731) scale(0.06 -0.06)">
     <use xlink:href="#DejaVuSans-32"/>
     <use xlink:href="#DejaVuSans-33" x="63.623047"/>
     <use xlink:href="#DejaVuSans-39" x="127.246094"/>
     <use xlink:href="#DejaVuSans-2e" x="190.869141"/>
     <use xlink:href="#DejaVuSans-30" x="222.65625"/>
     <use xlink:href="#DejaVuSans-38" x="286.279297"/>
     <use xlink:href="#DejaVuSans-31" x="349.902344"/>
     <use xlink:href="#DejaVuSans-31" x="413.525391"/>
    </g>
   </g>
   <g id="text_30">
    <!-- 241.0968 -->
    <g transform="translate(295.598672 250.551313) scale(0.06 -0.06)">
     <use xlink:href="#DejaVuSans-32"/>
     <use xlink:href="#DejaVuSans-34" x="63.623047"/>
     <use xlink:href="#DejaVuSans-31" x="127.246094"/>
     <use xlink:href="#DejaVuSans-2e" x="190.869141"/>
     <use xlink:href="#DejaVuSans-30" x="222.65625"/>
     <use xlink:href="#DejaVuSans-39" x="286.279297"/>
     <use xlink:href="#DejaVuSans-36" x="349.902344"/>
     <use xlink:href="#DejaVuSans-38" x="413.525391"/>
    </g>
   </g>
   <g id="text_31">
    <!-- 246.0756 -->
    <g transform="translate(285.250112 286.528096) scale(0.06 -0.06)">
     <use xlink:href="#DejaVuSans-32"/>
     <use xlink:href="#DejaVuSans-34" x="63.623047"/>
     <use xlink:href="#DejaVuSans-36" x="127.246094"/>
     <use xlink:href="#DejaVuSans-2e" x="190.869141"/>
     <use xlink:href="#DejaVuSans-30" x="222.65625"/>
     <use xlink:href="#DejaVuSans-37" x="286.279297"/>
     <use xlink:href="#DejaVuSans-35" x="349.902344"/>
     <use xlink:href="#DejaVuSans-36" x="413.525391"/>
    </g>
   </g>
   <g id="text_32">
    <!-- 253.0967 -->
    <g transform="translate(287.233995 215.390523) scale(0.06 -0.06)">
     <use xlink:href="#DejaVuSans-32"/>
     <use xlink:href="#DejaVuSans-35" x="63.623047"/>
     <use xlink:href="#DejaVuSans-33" x="127.246094"/>
     <use xlink:href="#DejaVuSans-2e" x="190.869141"/>
     <use xlink:href="#DejaVuSans-30" x="222.65625"/>
     <use xlink:href="#DejaVuSans-39" x="286.279297"/>
     <use xlink:href="#DejaVuSans-36" x="349.902344"/>
     <use xlink:href="#DejaVuSans-37" x="413.525391"/>
    </g>
   </g>
   <g id="text_33">
    <!-- 254.1045 -->
    <g transform="translate(288.345474 50.939625) scale(0.06 -0.06)">
     <use xlink:href="#DejaVuSans-32"/>
     <use xlink:href="#DejaVuSans-35" x="63.623047"/>
     <use xlink:href="#DejaVuSans-34" x="127.246094"/>
     <use xlink:href="#DejaVuSans-2e" x="190.869141"/>
     <use xlink:href="#DejaVuSans-31" x="222.65625"/>
     <use xlink:href="#DejaVuSans-30" x="286.279297"/>
     <use xlink:href="#DejaVuSans-34" x="349.902344"/>
     <use xlink:href="#DejaVuSans-35" x="413.525391"/>
    </g>
   </g>
   <g id="text_34">
    <!-- 271.1069 -->
    <g transform="translate(307.09829 267.468775) scale(0.06 -0.06)">
     <use xlink:href="#DejaVuSans-32"/>
     <use xlink:href="#DejaVuSans-37" x="63.623047"/>
     <use xlink:href="#DejaVuSans-31" x="127.246094"/>
     <use xlink:href="#DejaVuSans-2e" x="190.869141"/>
     <use xlink:href="#DejaVuSans-31" x="222.65625"/>
     <use xlink:href="#DejaVuSans-30" x="286.279297"/>
     <use xlink:href="#DejaVuSans-36" x="349.902344"/>
     <use xlink:href="#DejaVuSans-39" x="413.525391"/>
    </g>
   </g>
   <g id="text_35">
    <!-- 315.097 -->
    <g transform="translate(356.085743 270.356043) scale(0.06 -0.06)">
     <use xlink:href="#DejaVuSans-33"/>
     <use xlink:href="#DejaVuSans-31" x="63.623047"/>
     <use xlink:href="#DejaVuSans-35" x="127.246094"/>
     <use xlink:href="#DejaVuSans-2e" x="190.869141"/>
     <use xlink:href="#DejaVuSans-30" x="222.65625"/>
     <use xlink:href="#DejaVuSans-39" x="286.279297"/>
     <use xlink:href="#DejaVuSans-37" x="349.902344"/>
    </g>
   </g>
   <g id="text_36">
    <!-- MS2 spectrum of ${m/z}$ 347.1224, scan time 8.96 min. -->
    <g transform="translate(57.6 24.873562) scale(0.12 -0.12)">
     <defs>
      <path id="DejaVuSans-4d" d="M 628 4666 
L 1569 4666 
L 2759 1491 
L 3956 4666 
L 4897 4666 
L 4897 0 
L 4281 0 
L 4281 4097 
L 3078 897 
L 2444 897 
L 1241 4097 
L 1241 0 
L 628 0 
L 628 4666 
z
" transform="scale(0.015625)"/>
      <path id="DejaVuSans-53" d="M 3425 4513 
L 3425 3897 
Q 3066 4069 2747 4153 
Q 2428 4238 2131 4238 
Q 1616 4238 1336 4038 
Q 1056 3838 1056 3469 
Q 1056 3159 1242 3001 
Q 1428 2844 1947 2747 
L 2328 2669 
Q 3034 2534 3370 2195 
Q 3706 1856 3706 1288 
Q 3706 609 3251 259 
Q 2797 -91 1919 -91 
Q 1588 -91 1214 -16 
Q 841 59 441 206 
L 441 856 
Q 825 641 1194 531 
Q 1563 422 1919 422 
Q 2459 422 2753 634 
Q 3047 847 3047 1241 
Q 3047 1584 2836 1778 
Q 2625 1972 2144 2069 
L 1759 2144 
Q 1053 2284 737 2584 
Q 422 2884 422 3419 
Q 422 4038 858 4394 
Q 1294 4750 2059 4750 
Q 2388 4750 2728 4690 
Q 3069 4631 3425 4513 
z
" transform="scale(0.015625)"/>
      <path id="DejaVuSans-20" transform="scale(0.015625)"/>
      <path id="DejaVuSans-70" d="M 1159 525 
L 1159 -1331 
L 581 -1331 
L 581 3500 
L 1159 3500 
L 1159 2969 
Q 1341 3281 1617 3432 
Q 1894 3584 2278 3584 
Q 2916 3584 3314 3078 
Q 3713 2572 3713 1747 
Q 3713 922 3314 415 
Q 2916 -91 2278 -91 
Q 1894 -91 1617 61 
Q 1341 213 1159 525 
z
M 3116 1747 
Q 3116 2381 2855 2742 
Q 2594 3103 2138 3103 
Q 1681 3103 1420 2742 
Q 1159 2381 1159 1747 
Q 1159 1113 1420 752 
Q 1681 391 2138 391 
Q 2594 391 2855 752 
Q 3116 1113 3116 1747 
z
" transform="scale(0.015625)"/>
      <path id="DejaVuSans-63" d="M 3122 3366 
L 3122 2828 
Q 2878 2963 2633 3030 
Q 2388 3097 2138 3097 
Q 1578 3097 1268 2742 
Q 959 2388 959 1747 
Q 959 1106 1268 751 
Q 1578 397 2138 397 
Q 2388 397 2633 464 
Q 2878 531 3122 666 
L 3122 134 
Q 2881 22 2623 -34 
Q 2366 -91 2075 -91 
Q 1284 -91 818 406 
Q 353 903 353 1747 
Q 353 2603 823 3093 
Q 1294 3584 2113 3584 
Q 2378 3584 2631 3529 
Q 2884 3475 3122 3366 
z
" transform="scale(0.015625)"/>
      <path id="DejaVuSans-72" d="M 2631 2963 
Q 2534 3019 2420 3045 
Q 2306 3072 2169 3072 
Q 1681 3072 1420 2755 
Q 1159 2438 1159 1844 
L 1159 0 
L 581 0 
L 581 3500 
L 1159 3500 
L 1159 2956 
Q 1341 3275 1631 3429 
Q 1922 3584 2338 3584 
Q 2397 3584 2469 3576 
Q 2541 3569 2628 3553 
L 2631 2963 
z
" transform="scale(0.015625)"/>
      <path id="DejaVuSans-75" d="M 544 1381 
L 544 3500 
L 1119 3500 
L 1119 1403 
Q 1119 906 1312 657 
Q 1506 409 1894 409 
Q 2359 409 2629 706 
Q 2900 1003 2900 1516 
L 2900 3500 
L 3475 3500 
L 3475 0 
L 2900 0 
L 2900 538 
Q 2691 219 2414 64 
Q 2138 -91 1772 -91 
Q 1169 -91 856 284 
Q 544 659 544 1381 
z
M 1991 3584 
L 1991 3584 
z
" transform="scale(0.015625)"/>
      <path id="DejaVuSans-6d" d="M 3328 2828 
Q 3544 3216 3844 3400 
Q 4144 3584 4550 3584 
Q 5097 3584 5394 3201 
Q 5691 2819 5691 2113 
L 5691 0 
L 5113 0 
L 5113 2094 
Q 5113 2597 4934 2840 
Q 4756 3084 4391 3084 
Q 3944 3084 3684 2787 
Q 3425 2491 3425 1978 
L 3425 0 
L 2847 0 
L 2847 2094 
Q 2847 2600 2669 2842 
Q 2491 3084 2119 3084 
Q 1678 3084 1418 2786 
Q 1159 2488 1159 1978 
L 1159 0 
L 581 0 
L 581 3500 
L 1159 3500 
L 1159 2956 
Q 1356 3278 1631 3431 
Q 1906 3584 2284 3584 
Q 2666 3584 2933 3390 
Q 3200 3197 3328 2828 
z
" transform="scale(0.015625)"/>
      <path id="DejaVuSans-6f" d="M 1959 3097 
Q 1497 3097 1228 2736 
Q 959 2375 959 1747 
Q 959 1119 1226 758 
Q 1494 397 1959 397 
Q 2419 397 2687 759 
Q 2956 1122 2956 1747 
Q 2956 2369 2687 2733 
Q 2419 3097 1959 3097 
z
M 1959 3584 
Q 2709 3584 3137 3096 
Q 3566 2609 3566 1747 
Q 3566 888 3137 398 
Q 2709 -91 1959 -91 
Q 1206 -91 779 398 
Q 353 888 353 1747 
Q 353 2609 779 3096 
Q 1206 3584 1959 3584 
z
" transform="scale(0.015625)"/>
      <path id="DejaVuSans-66" d="M 2375 4863 
L 2375 4384 
L 1825 4384 
Q 1516 4384 1395 4259 
Q 1275 4134 1275 3809 
L 1275 3500 
L 2222 3500 
L 2222 3053 
L 1275 3053 
L 1275 0 
L 697 0 
L 697 3053 
L 147 3053 
L 147 3500 
L 697 3500 
L 697 3744 
Q 697 4328 969 4595 
Q 1241 4863 1831 4863 
L 2375 4863 
z
" transform="scale(0.015625)"/>
      <path id="DejaVuSans-2c" d="M 750 794 
L 1409 794 
L 1409 256 
L 897 -744 
L 494 -744 
L 750 256 
L 750 794 
z
" transform="scale(0.015625)"/>
      <path id="DejaVuSans-61" d="M 2194 1759 
Q 1497 1759 1228 1600 
Q 959 1441 959 1056 
Q 959 750 1161 570 
Q 1363 391 1709 391 
Q 2188 391 2477 730 
Q 2766 1069 2766 1631 
L 2766 1759 
L 2194 1759 
z
M 3341 1997 
L 3341 0 
L 2766 0 
L 2766 531 
Q 2569 213 2275 61 
Q 1981 -91 1556 -91 
Q 1019 -91 701 211 
Q 384 513 384 1019 
Q 384 1609 779 1909 
Q 1175 2209 1959 2209 
L 2766 2209 
L 2766 2266 
Q 2766 2663 2505 2880 
Q 2244 3097 1772 3097 
Q 1472 3097 1187 3025 
Q 903 2953 641 2809 
L 641 3341 
Q 956 3463 1253 3523 
Q 1550 3584 1831 3584 
Q 2591 3584 2966 3190 
Q 3341 2797 3341 1997 
z
" transform="scale(0.015625)"/>
     </defs>
     <use xlink:href="#DejaVuSans-4d" transform="translate(0 0.015625)"/>
     <use xlink:href="#DejaVuSans-53" transform="translate(86.279297 0.015625)"/>
     <use xlink:href="#DejaVuSans-32" transform="translate(149.755859 0.015625)"/>
     <use xlink:href="#DejaVuSans-20" transform="translate(213.378906 0.015625)"/>
     <use xlink:href="#DejaVuSans-73" transform="translate(245.166016 0.015625)"/>
     <use xlink:href="#DejaVuSans-70" transform="translate(297.265625 0.015625)"/>
     <use xlink:href="#DejaVuSans-65" transform="translate(360.742188 0.015625)"/>
     <use xlink:href="#DejaVuSans-63" transform="translate(422.265625 0.015625)"/>
     <use xlink:href="#DejaVuSans-74" transform="translate(477.246094 0.015625)"/>
     <use xlink:href="#DejaVuSans-72" transform="translate(516.455078 0.015625)"/>
     <use xlink:href="#DejaVuSans-75" transform="translate(557.568359 0.015625)"/>
     <use xlink:href="#DejaVuSans-6d" transform="translate(620.947266 0.015625)"/>
     <use xlink:href="#DejaVuSans-20" transform="translate(718.359375 0.015625)"/>
     <use xlink:href="#DejaVuSans-6f" transform="translate(750.146484 0.015625)"/>
     <use xlink:href="#DejaVuSans-66" transform="translate(811.328125 0.015625)"/>
     <use xlink:href="#DejaVuSans-20" transform="translate(846.533203 0.015625)"/>
     <use xlink:href="#DejaVuSans-Oblique-6d" transform="translate(878.320312 0.015625)"/>
     <use xlink:href="#DejaVuSans-2f" transform="translate(975.732422 0.015625)"/>
     <use xlink:href="#DejaVuSans-Oblique-7a" transform="translate(1009.423828 0.015625)"/>
     <use xlink:href="#DejaVuSans-20" transform="translate(1061.914062 0.015625)"/>
     <use xlink:href="#DejaVuSans-33" transform="translate(1093.701172 0.015625)"/>
     <use xlink:href="#DejaVuSans-34" transform="translate(1157.324219 0.015625)"/>
     <use xlink:href="#DejaVuSans-37" transform="translate(1220.947266 0.015625)"/>
     <use xlink:href="#DejaVuSans-2e" transform="translate(1284.570312 0.015625)"/>
     <use xlink:href="#DejaVuSans-31" transform="translate(1316.357422 0.015625)"/>
     <use xlink:href="#DejaVuSans-32" transform="translate(1379.980469 0.015625)"/>
     <use xlink:href="#DejaVuSans-32" transform="translate(1443.603516 0.015625)"/>
     <use xlink:href="#DejaVuSans-34" transform="translate(1507.226562 0.015625)"/>
     <use xlink:href="#DejaVuSans-2c" transform="translate(1570.849609 0.015625)"/>
     <use xlink:href="#DejaVuSans-20" transform="translate(1602.636719 0.015625)"/>
     <use xlink:href="#DejaVuSans-73" transform="translate(1634.423828 0.015625)"/>
     <use xlink:href="#DejaVuSans-63" transform="translate(1686.523438 0.015625)"/>
     <use xlink:href="#DejaVuSans-61" transform="translate(1741.503906 0.015625)"/>
     <use xlink:href="#DejaVuSans-6e" transform="translate(1802.783203 0.015625)"/>
     <use xlink:href="#DejaVuSans-20" transform="translate(1866.162109 0.015625)"/>
     <use xlink:href="#DejaVuSans-74" transform="translate(1897.949219 0.015625)"/>
     <use xlink:href="#DejaVuSans-69" transform="translate(1937.158203 0.015625)"/>
     <use xlink:href="#DejaVuSans-6d" transform="translate(1964.941406 0.015625)"/>
     <use xlink:href="#DejaVuSans-65" transform="translate(2062.353516 0.015625)"/>
     <use xlink:href="#DejaVuSans-20" transform="translate(2123.876953 0.015625)"/>
     <use xlink:href="#DejaVuSans-38" transform="translate(2155.664062 0.015625)"/>
     <use xlink:href="#DejaVuSans-2e" transform="translate(2219.287109 0.015625)"/>
     <use xlink:href="#DejaVuSans-39" transform="translate(2251.074219 0.015625)"/>
     <use xlink:href="#DejaVuSans-36" transform="translate(2314.697266 0.015625)"/>
     <use xlink:href="#DejaVuSans-20" transform="translate(2378.320312 0.015625)"/>
     <use xlink:href="#DejaVuSans-6d" transform="translate(2410.107422 0.015625)"/>
     <use xlink:href="#DejaVuSans-69" transform="translate(2507.519531 0.015625)"/>
     <use xlink:href="#DejaVuSans-6e" transform="translate(2535.302734 0.015625)"/>
     <use xlink:href="#DejaVuSans-2e" transform="translate(2598.681641 0.015625)"/>
    </g>
   </g>
  </g>
 </g>
 <defs>
  <clipPath id="pe334474a24">
   <rect x="57.6" y="41.472" width="357.12" height="266.112"/>
  </clipPath>
 </defs>
</svg>
