<?xml version="1.0" encoding="utf-8" standalone="no"?>
<!DOCTYPE svg PUBLIC "-//W3C//DTD SVG 1.1//EN"
  "http://www.w3.org/Graphics/SVG/1.1/DTD/svg11.dtd">
<svg xmlns:xlink="http://www.w3.org/1999/xlink" width="460.8pt" height="345.6pt" viewBox="0 0 460.8 345.6" xmlns="http://www.w3.org/2000/svg" version="1.1">
 <metadata>
  <rdf:RDF xmlns:dc="http://purl.org/dc/elements/1.1/" xmlns:cc="http://creativecommons.org/ns#" xmlns:rdf="http://www.w3.org/1999/02/22-rdf-syntax-ns#">
   <cc:Work>
    <dc:type rdf:resource="http://purl.org/dc/dcmitype/StillImage"/>
    <dc:date>2025-01-11T12:38:14.655721</dc:date>
    <dc:format>image/svg+xml</dc:format>
    <dc:creator>
     <cc:Agent>
      <dc:title>Matplotlib v3.7.3, https://matplotlib.org/</dc:title>
     </cc:Agent>
    </dc:creator>
   </cc:Work>
  </rdf:RDF>
 </metadata>
 <defs>
  <style type="text/css">*{stroke-linejoin: round; stroke-linecap: butt}</style>
 </defs>
 <g id="figure_1">
  <g id="patch_1">
   <path d="M 0 345.6 
L 460.8 345.6 
L 460.8 0 
L 0 0 
z
" style="fill: #ffffff"/>
  </g>
  <g id="axes_1">
   <g id="patch_2">
    <path d="M 57.6 307.584 
L 414.72 307.584 
L 414.72 41.472 
L 57.6 41.472 
z
" style="fill: #ffffff"/>
   </g>
   <g id="patch_3">
    <path d="M 73.832727 307.584 
L 74.778172 307.584 
L 74.778172 307.351077 
L 73.832727 307.351077 
z
" clip-path="url(#pcb7cfac937)" style="fill: #1f77b4"/>
   </g>
   <g id="patch_4">
    <path d="M 79.427003 307.584 
L 80.372448 307.584 
L 80.372448 307.317157 
L 79.427003 307.317157 
z
" clip-path="url(#pcb7cfac937)" style="fill: #1f77b4"/>
   </g>
   <g id="patch_5">
    <path d="M 79.44761 307.584 
L 80.393055 307.584 
L 80.393055 307.291562 
L 79.44761 307.291562 
z
" clip-path="url(#pcb7cfac937)" style="fill: #1f77b4"/>
   </g>
   <g id="patch_6">
    <path d="M 79.471071 307.584 
L 80.416516 307.584 
L 80.416516 306.806786 
L 79.471071 306.806786 
z
" clip-path="url(#pcb7cfac937)" style="fill: #1f77b4"/>
   </g>
   <g id="patch_7">
    <path d="M 79.514052 307.584 
L 80.459497 307.584 
L 80.459497 307.132441 
L 79.514052 307.132441 
z
" clip-path="url(#pcb7cfac937)" style="fill: #1f77b4"/>
   </g>
   <g id="patch_8">
    <path d="M 80.690322 307.584 
L 81.635767 307.584 
L 81.635767 287.433281 
L 80.690322 287.433281 
z
" clip-path="url(#pcb7cfac937)" style="fill: #1f77b4"/>
   </g>
   <g id="patch_9">
    <path d="M 81.829408 307.584 
L 82.774853 307.584 
L 82.774853 307.188309 
L 81.829408 307.188309 
z
" clip-path="url(#pcb7cfac937)" style="fill: #1f77b4"/>
   </g>
   <g id="patch_10">
    <path d="M 81.875965 307.584 
L 82.82141 307.584 
L 82.82141 307.1509 
L 81.875965 307.1509 
z
" clip-path="url(#pcb7cfac937)" style="fill: #1f77b4"/>
   </g>
   <g id="patch_11">
    <path d="M 88.586997 307.584 
L 89.532442 307.584 
L 89.532442 307.325865 
L 88.586997 307.325865 
z
" clip-path="url(#pcb7cfac937)" style="fill: #1f77b4"/>
   </g>
   <g id="patch_12">
    <path d="M 89.505081 307.584 
L 90.450526 307.584 
L 90.450526 307.179311 
L 89.505081 307.179311 
z
" clip-path="url(#pcb7cfac937)" style="fill: #1f77b4"/>
   </g>
   <g id="patch_13">
    <path d="M 94.871843 307.584 
L 95.817288 307.584 
L 95.817288 307.002739 
L 94.871843 307.002739 
z
" clip-path="url(#pcb7cfac937)" style="fill: #1f77b4"/>
   </g>
   <g id="patch_14">
    <path d="M 97.253868 307.584 
L 98.199313 307.584 
L 98.199313 306.83566 
L 97.253868 306.83566 
z
" clip-path="url(#pcb7cfac937)" style="fill: #1f77b4"/>
   </g>
   <g id="patch_15">
    <path d="M 108.138581 307.584 
L 109.084026 307.584 
L 109.084026 306.991576 
L 108.138581 306.991576 
z
" clip-path="url(#pcb7cfac937)" style="fill: #1f77b4"/>
   </g>
   <g id="patch_16">
    <path d="M 110.192541 307.584 
L 111.137986 307.584 
L 111.137986 306.700003 
L 110.192541 306.700003 
z
" clip-path="url(#pcb7cfac937)" style="fill: #1f77b4"/>
   </g>
   <g id="patch_17">
    <path d="M 110.244386 307.584 
L 111.189831 307.584 
L 111.189831 307.169743 
L 110.244386 307.169743 
z
" clip-path="url(#pcb7cfac937)" style="fill: #1f77b4"/>
   </g>
   <g id="patch_18">
    <path d="M 111.435596 307.584 
L 112.381041 307.584 
L 112.381041 304.260202 
L 111.435596 304.260202 
z
" clip-path="url(#pcb7cfac937)" style="fill: #1f77b4"/>
   </g>
   <g id="patch_19">
    <path d="M 111.999558 307.584 
L 112.945003 307.584 
L 112.945003 307.316262 
L 111.999558 307.316262 
z
" clip-path="url(#pcb7cfac937)" style="fill: #1f77b4"/>
   </g>
   <g id="patch_20">
    <path d="M 112.626717 307.584 
L 113.572162 307.584 
L 113.572162 306.868794 
L 112.626717 306.868794 
z
" clip-path="url(#pcb7cfac937)" style="fill: #1f77b4"/>
   </g>
   <g id="patch_21">
    <path d="M 117.294568 307.584 
L 118.240013 307.584 
L 118.240013 306.962588 
L 117.294568 306.962588 
z
" clip-path="url(#pcb7cfac937)" style="fill: #1f77b4"/>
   </g>
   <g id="patch_22">
    <path d="M 126.756348 307.584 
L 127.701793 307.584 
L 127.701793 306.910717 
L 126.756348 306.910717 
z
" clip-path="url(#pcb7cfac937)" style="fill: #1f77b4"/>
   </g>
   <g id="patch_23">
    <path d="M 133.41857 307.584 
L 134.364015 307.584 
L 134.364015 307.306528 
L 133.41857 307.306528 
z
" clip-path="url(#pcb7cfac937)" style="fill: #1f77b4"/>
   </g>
   <g id="patch_24">
    <path d="M 140.914418 307.584 
L 141.859863 307.584 
L 141.859863 307.081978 
L 140.914418 307.081978 
z
" clip-path="url(#pcb7cfac937)" style="fill: #1f77b4"/>
   </g>
   <g id="patch_25">
    <path d="M 140.920044 307.584 
L 141.865489 307.584 
L 141.865489 305.905688 
L 140.920044 305.905688 
z
" clip-path="url(#pcb7cfac937)" style="fill: #1f77b4"/>
   </g>
   <g id="patch_26">
    <path d="M 140.923028 307.584 
L 141.868473 307.584 
L 141.868473 305.785782 
L 140.923028 305.785782 
z
" clip-path="url(#pcb7cfac937)" style="fill: #1f77b4"/>
   </g>
   <g id="patch_27">
    <path d="M 140.937942 307.584 
L 141.883387 307.584 
L 141.883387 56.5424 
L 140.937942 56.5424 
z
" clip-path="url(#pcb7cfac937)" style="fill: #1f77b4"/>
   </g>
   <g id="patch_28">
    <path d="M 140.95226 307.584 
L 141.897705 307.584 
L 141.897705 306.514673 
L 140.95226 306.514673 
z
" clip-path="url(#pcb7cfac937)" style="fill: #1f77b4"/>
   </g>
   <g id="patch_29">
    <path d="M 140.956678 307.584 
L 141.902123 307.584 
L 141.902123 306.084246 
L 140.956678 306.084246 
z
" clip-path="url(#pcb7cfac937)" style="fill: #1f77b4"/>
   </g>
   <g id="patch_30">
    <path d="M 142.123445 307.584 
L 143.06889 307.584 
L 143.06889 296.32722 
L 142.123445 296.32722 
z
" clip-path="url(#pcb7cfac937)" style="fill: #1f77b4"/>
   </g>
   <g id="patch_31">
    <path d="M 148.981468 307.584 
L 149.926913 307.584 
L 149.926913 307.30954 
L 148.981468 307.30954 
z
" clip-path="url(#pcb7cfac937)" style="fill: #1f77b4"/>
   </g>
   <g id="patch_32">
    <path d="M 149.215806 307.584 
L 150.161251 307.584 
L 150.161251 269.785001 
L 149.215806 269.785001 
z
" clip-path="url(#pcb7cfac937)" style="fill: #1f77b4"/>
   </g>
   <g id="patch_33">
    <path d="M 150.401552 307.584 
L 151.346997 307.584 
L 151.346997 305.451506 
L 150.401552 305.451506 
z
" clip-path="url(#pcb7cfac937)" style="fill: #1f77b4"/>
   </g>
   <g id="patch_34">
    <path d="M 155.11922 307.584 
L 156.064664 307.584 
L 156.064664 305.809833 
L 155.11922 305.809833 
z
" clip-path="url(#pcb7cfac937)" style="fill: #1f77b4"/>
   </g>
   <g id="patch_35">
    <path d="M 157.458208 307.584 
L 158.403653 307.584 
L 158.403653 304.607604 
L 157.458208 304.607604 
z
" clip-path="url(#pcb7cfac937)" style="fill: #1f77b4"/>
   </g>
   <g id="patch_36">
    <path d="M 157.501487 307.584 
L 158.446932 307.584 
L 158.446932 306.297374 
L 157.501487 306.297374 
z
" clip-path="url(#pcb7cfac937)" style="fill: #1f77b4"/>
   </g>
   <g id="patch_37">
    <path d="M 159.771779 307.584 
L 160.717224 307.584 
L 160.717224 307.286101 
L 159.771779 307.286101 
z
" clip-path="url(#pcb7cfac937)" style="fill: #1f77b4"/>
   </g>
   <g id="patch_38">
    <path d="M 159.840322 307.584 
L 160.785767 307.584 
L 160.785767 306.731635 
L 159.840322 306.731635 
z
" clip-path="url(#pcb7cfac937)" style="fill: #1f77b4"/>
   </g>
   <g id="patch_39">
    <path d="M 164.603523 307.584 
L 165.548968 307.584 
L 165.548968 305.180013 
L 164.603523 305.180013 
z
" clip-path="url(#pcb7cfac937)" style="fill: #1f77b4"/>
   </g>
   <g id="patch_40">
    <path d="M 165.779414 307.584 
L 166.724859 307.584 
L 166.724859 305.710735 
L 165.779414 305.710735 
z
" clip-path="url(#pcb7cfac937)" style="fill: #1f77b4"/>
   </g>
   <g id="patch_41">
    <path d="M 169.300579 307.584 
L 170.246024 307.584 
L 170.246024 306.747333 
L 169.300579 306.747333 
z
" clip-path="url(#pcb7cfac937)" style="fill: #1f77b4"/>
   </g>
   <g id="patch_42">
    <path d="M 174.064735 307.584 
L 175.01018 307.584 
L 175.01018 306.411474 
L 174.064735 306.411474 
z
" clip-path="url(#pcb7cfac937)" style="fill: #1f77b4"/>
   </g>
   <g id="patch_43">
    <path d="M 176.402452 307.584 
L 177.347897 307.584 
L 177.347897 307.291504 
L 176.402452 307.291504 
z
" clip-path="url(#pcb7cfac937)" style="fill: #1f77b4"/>
   </g>
   <g id="patch_44">
    <path d="M 177.579119 307.584 
L 178.524564 307.584 
L 178.524564 305.76419 
L 177.579119 305.76419 
z
" clip-path="url(#pcb7cfac937)" style="fill: #1f77b4"/>
   </g>
   <g id="patch_45">
    <path d="M 179.961251 307.584 
L 180.906696 307.584 
L 180.906696 306.217568 
L 179.961251 306.217568 
z
" clip-path="url(#pcb7cfac937)" style="fill: #1f77b4"/>
   </g>
   <g id="patch_46">
    <path d="M 182.300177 307.584 
L 183.245621 307.584 
L 183.245621 304.748268 
L 182.300177 304.748268 
z
" clip-path="url(#pcb7cfac937)" style="fill: #1f77b4"/>
   </g>
   <g id="patch_47">
    <path d="M 184.67304 307.584 
L 185.618485 307.584 
L 185.618485 307.144447 
L 184.67304 307.144447 
z
" clip-path="url(#pcb7cfac937)" style="fill: #1f77b4"/>
   </g>
   <g id="patch_48">
    <path d="M 185.864169 307.584 
L 186.809614 307.584 
L 186.809614 306.247463 
L 185.864169 306.247463 
z
" clip-path="url(#pcb7cfac937)" style="fill: #1f77b4"/>
   </g>
   <g id="patch_49">
    <path d="M 189.423275 307.584 
L 190.36872 307.584 
L 190.36872 307.076248 
L 189.423275 307.076248 
z
" clip-path="url(#pcb7cfac937)" style="fill: #1f77b4"/>
   </g>
   <g id="patch_50">
    <path d="M 193.922816 307.584 
L 194.868261 307.584 
L 194.868261 307.194261 
L 193.922816 307.194261 
z
" clip-path="url(#pcb7cfac937)" style="fill: #1f77b4"/>
   </g>
   <g id="patch_51">
    <path d="M 194.142367 307.584 
L 195.087812 307.584 
L 195.087812 305.964634 
L 194.142367 305.964634 
z
" clip-path="url(#pcb7cfac937)" style="fill: #1f77b4"/>
   </g>
   <g id="patch_52">
    <path d="M 196.524661 307.584 
L 197.470106 307.584 
L 197.470106 300.023147 
L 196.524661 300.023147 
z
" clip-path="url(#pcb7cfac937)" style="fill: #1f77b4"/>
   </g>
   <g id="patch_53">
    <path d="M 197.711102 307.584 
L 198.656547 307.584 
L 198.656547 307.101056 
L 197.711102 307.101056 
z
" clip-path="url(#pcb7cfac937)" style="fill: #1f77b4"/>
   </g>
   <g id="patch_54">
    <path d="M 198.864236 307.584 
L 199.809681 307.584 
L 199.809681 307.024064 
L 198.864236 307.024064 
z
" clip-path="url(#pcb7cfac937)" style="fill: #1f77b4"/>
   </g>
   <g id="patch_55">
    <path d="M 200.045952 307.584 
L 200.991397 307.584 
L 200.991397 306.576087 
L 200.045952 306.576087 
z
" clip-path="url(#pcb7cfac937)" style="fill: #1f77b4"/>
   </g>
   <g id="patch_56">
    <path d="M 208.310571 307.584 
L 209.256016 307.584 
L 209.256016 307.313209 
L 208.310571 307.313209 
z
" clip-path="url(#pcb7cfac937)" style="fill: #1f77b4"/>
   </g>
   <g id="patch_57">
    <path d="M 208.32424 307.584 
L 209.269685 307.584 
L 209.269685 289.640674 
L 208.32424 289.640674 
z
" clip-path="url(#pcb7cfac937)" style="fill: #1f77b4"/>
   </g>
   <g id="patch_58">
    <path d="M 209.510103 307.584 
L 210.455548 307.584 
L 210.455548 306.017741 
L 209.510103 306.017741 
z
" clip-path="url(#pcb7cfac937)" style="fill: #1f77b4"/>
   </g>
   <g id="patch_59">
    <path d="M 210.707364 307.584 
L 211.652809 307.584 
L 211.652809 306.161512 
L 210.707364 306.161512 
z
" clip-path="url(#pcb7cfac937)" style="fill: #1f77b4"/>
   </g>
   <g id="patch_60">
    <path d="M 229.590945 307.584 
L 230.53639 307.584 
L 230.53639 307.236195 
L 229.590945 307.236195 
z
" clip-path="url(#pcb7cfac937)" style="fill: #1f77b4"/>
   </g>
   <g id="patch_61">
    <path d="M 229.608924 307.584 
L 230.554369 307.584 
L 230.554369 305.839435 
L 229.608924 305.839435 
z
" clip-path="url(#pcb7cfac937)" style="fill: #1f77b4"/>
   </g>
   <g id="patch_62">
    <path d="M 236.68786 307.584 
L 237.633305 307.584 
L 237.633305 307.04313 
L 236.68786 307.04313 
z
" clip-path="url(#pcb7cfac937)" style="fill: #1f77b4"/>
   </g>
   <g id="patch_63">
    <path d="M 250.886124 307.584 
L 251.831569 307.584 
L 251.831569 307.208533 
L 250.886124 307.208533 
z
" clip-path="url(#pcb7cfac937)" style="fill: #1f77b4"/>
   </g>
   <g id="patch_64">
    <path d="M 252.05904 307.584 
L 253.004485 307.584 
L 253.004485 307.133754 
L 252.05904 307.133754 
z
" clip-path="url(#pcb7cfac937)" style="fill: #1f77b4"/>
   </g>
   <g id="patch_65">
    <path d="M 266.25635 307.584 
L 267.201795 307.584 
L 267.201795 304.085978 
L 266.25635 304.085978 
z
" clip-path="url(#pcb7cfac937)" style="fill: #1f77b4"/>
   </g>
   <g id="patch_66">
    <path d="M 269.772465 307.584 
L 270.71791 307.584 
L 270.71791 306.176716 
L 269.772465 306.176716 
z
" clip-path="url(#pcb7cfac937)" style="fill: #1f77b4"/>
   </g>
   <g id="patch_67">
    <path d="M 270.95822 307.584 
L 271.903665 307.584 
L 271.903665 307.13702 
L 270.95822 307.13702 
z
" clip-path="url(#pcb7cfac937)" style="fill: #1f77b4"/>
   </g>
   <g id="patch_68">
    <path d="M 272.146356 307.584 
L 273.091801 307.584 
L 273.091801 306.258407 
L 272.146356 306.258407 
z
" clip-path="url(#pcb7cfac937)" style="fill: #1f77b4"/>
   </g>
   <g id="patch_69">
    <path d="M 273.321165 307.584 
L 274.26661 307.584 
L 274.26661 297.707541 
L 273.321165 297.707541 
z
" clip-path="url(#pcb7cfac937)" style="fill: #1f77b4"/>
   </g>
   <g id="patch_70">
    <path d="M 274.512006 307.584 
L 275.457451 307.584 
L 275.457451 302.163011 
L 274.512006 302.163011 
z
" clip-path="url(#pcb7cfac937)" style="fill: #1f77b4"/>
   </g>
   <g id="patch_71">
    <path d="M 275.698212 307.584 
L 276.643657 307.584 
L 276.643657 306.928456 
L 275.698212 306.928456 
z
" clip-path="url(#pcb7cfac937)" style="fill: #1f77b4"/>
   </g>
   <g id="patch_72">
    <path d="M 276.895184 307.584 
L 277.840629 307.584 
L 277.840629 306.515214 
L 276.895184 306.515214 
z
" clip-path="url(#pcb7cfac937)" style="fill: #1f77b4"/>
   </g>
   <g id="patch_73">
    <path d="M 280.423436 307.584 
L 281.368881 307.584 
L 281.368881 301.094147 
L 280.423436 301.094147 
z
" clip-path="url(#pcb7cfac937)" style="fill: #1f77b4"/>
   </g>
   <g id="patch_74">
    <path d="M 281.609822 307.584 
L 282.555267 307.584 
L 282.555267 306.754241 
L 281.609822 306.754241 
z
" clip-path="url(#pcb7cfac937)" style="fill: #1f77b4"/>
   </g>
   <g id="patch_75">
    <path d="M 287.518186 307.584 
L 288.463631 307.584 
L 288.463631 306.234036 
L 287.518186 306.234036 
z
" clip-path="url(#pcb7cfac937)" style="fill: #1f77b4"/>
   </g>
   <g id="patch_76">
    <path d="M 288.694168 307.584 
L 289.639613 307.584 
L 289.639613 274.324895 
L 288.694168 274.324895 
z
" clip-path="url(#pcb7cfac937)" style="fill: #1f77b4"/>
   </g>
   <g id="patch_77">
    <path d="M 289.879995 307.584 
L 290.82544 307.584 
L 290.82544 304.844877 
L 289.879995 304.844877 
z
" clip-path="url(#pcb7cfac937)" style="fill: #1f77b4"/>
   </g>
   <g id="patch_78">
    <path d="M 289.90461 307.584 
L 290.850055 307.584 
L 290.850055 303.401125 
L 289.90461 303.401125 
z
" clip-path="url(#pcb7cfac937)" style="fill: #1f77b4"/>
   </g>
   <g id="patch_79">
    <path d="M 291.075975 307.584 
L 292.02142 307.584 
L 292.02142 304.315874 
L 291.075975 304.315874 
z
" clip-path="url(#pcb7cfac937)" style="fill: #1f77b4"/>
   </g>
   <g id="patch_80">
    <path d="M 292.225917 307.584 
L 293.171362 307.584 
L 293.171362 307.196156 
L 292.225917 307.196156 
z
" clip-path="url(#pcb7cfac937)" style="fill: #1f77b4"/>
   </g>
   <g id="patch_81">
    <path d="M 292.260342 307.584 
L 293.205787 307.584 
L 293.205787 307.195487 
L 292.260342 307.195487 
z
" clip-path="url(#pcb7cfac937)" style="fill: #1f77b4"/>
   </g>
   <g id="patch_82">
    <path d="M 293.41546 307.584 
L 294.360905 307.584 
L 294.360905 303.013925 
L 293.41546 303.013925 
z
" clip-path="url(#pcb7cfac937)" style="fill: #1f77b4"/>
   </g>
   <g id="patch_83">
    <path d="M 294.599791 307.584 
L 295.545236 307.584 
L 295.545236 307.179349 
L 294.599791 307.179349 
z
" clip-path="url(#pcb7cfac937)" style="fill: #1f77b4"/>
   </g>
   <g id="patch_84">
    <path d="M 295.795662 307.584 
L 296.741107 307.584 
L 296.741107 306.159367 
L 295.795662 306.159367 
z
" clip-path="url(#pcb7cfac937)" style="fill: #1f77b4"/>
   </g>
   <g id="patch_85">
    <path d="M 296.98782 307.584 
L 297.933265 307.584 
L 297.933265 305.395729 
L 296.98782 305.395729 
z
" clip-path="url(#pcb7cfac937)" style="fill: #1f77b4"/>
   </g>
   <g id="patch_86">
    <path d="M 298.178137 307.584 
L 299.123582 307.584 
L 299.123582 299.098602 
L 298.178137 299.098602 
z
" clip-path="url(#pcb7cfac937)" style="fill: #1f77b4"/>
   </g>
   <g id="patch_87">
    <path d="M 298.207242 307.584 
L 299.152687 307.584 
L 299.152687 307.114696 
L 298.207242 307.114696 
z
" clip-path="url(#pcb7cfac937)" style="fill: #1f77b4"/>
   </g>
   <g id="patch_88">
    <path d="M 299.365516 307.584 
L 300.310961 307.584 
L 300.310961 306.736695 
L 299.365516 306.736695 
z
" clip-path="url(#pcb7cfac937)" style="fill: #1f77b4"/>
   </g>
   <g id="patch_89">
    <path d="M 301.698923 307.584 
L 302.644368 307.584 
L 302.644368 306.551236 
L 301.698923 306.551236 
z
" clip-path="url(#pcb7cfac937)" style="fill: #1f77b4"/>
   </g>
   <g id="patch_90">
    <path d="M 302.877032 307.584 
L 303.822477 307.584 
L 303.822477 305.850577 
L 302.877032 305.850577 
z
" clip-path="url(#pcb7cfac937)" style="fill: #1f77b4"/>
   </g>
   <g id="patch_91">
    <path d="M 304.066899 307.584 
L 305.012344 307.584 
L 305.012344 288.603203 
L 304.066899 288.603203 
z
" clip-path="url(#pcb7cfac937)" style="fill: #1f77b4"/>
   </g>
   <g id="patch_92">
    <path d="M 304.098601 307.584 
L 305.044046 307.584 
L 305.044046 306.998572 
L 304.098601 306.998572 
z
" clip-path="url(#pcb7cfac937)" style="fill: #1f77b4"/>
   </g>
   <g id="patch_93">
    <path d="M 305.253412 307.584 
L 306.198857 307.584 
L 306.198857 305.105619 
L 305.253412 305.105619 
z
" clip-path="url(#pcb7cfac937)" style="fill: #1f77b4"/>
   </g>
   <g id="patch_94">
    <path d="M 307.640323 307.584 
L 308.585768 307.584 
L 308.585768 303.091803 
L 307.640323 303.091803 
z
" clip-path="url(#pcb7cfac937)" style="fill: #1f77b4"/>
   </g>
   <g id="patch_95">
    <path d="M 308.828766 307.584 
L 309.774211 307.584 
L 309.774211 307.17524 
L 308.828766 307.17524 
z
" clip-path="url(#pcb7cfac937)" style="fill: #1f77b4"/>
   </g>
   <g id="patch_96">
    <path d="M 319.114588 307.584 
L 320.060033 307.584 
L 320.060033 307.226755 
L 319.114588 307.226755 
z
" clip-path="url(#pcb7cfac937)" style="fill: #1f77b4"/>
   </g>
   <g id="patch_97">
    <path d="M 319.439036 307.584 
L 320.384481 307.584 
L 320.384481 305.745007 
L 319.439036 305.745007 
z
" clip-path="url(#pcb7cfac937)" style="fill: #1f77b4"/>
   </g>
   <g id="patch_98">
    <path d="M 320.630796 307.584 
L 321.576241 307.584 
L 321.576241 305.424285 
L 320.630796 305.424285 
z
" clip-path="url(#pcb7cfac937)" style="fill: #1f77b4"/>
   </g>
   <g id="patch_99">
    <path d="M 321.755042 307.584 
L 322.700487 307.584 
L 322.700487 307.056945 
L 321.755042 307.056945 
z
" clip-path="url(#pcb7cfac937)" style="fill: #1f77b4"/>
   </g>
   <g id="patch_100">
    <path d="M 321.767665 307.584 
L 322.71311 307.584 
L 322.71311 307.158874 
L 321.767665 307.158874 
z
" clip-path="url(#pcb7cfac937)" style="fill: #1f77b4"/>
   </g>
   <g id="patch_101">
    <path d="M 321.821836 307.584 
L 322.767281 307.584 
L 322.767281 210.60852 
L 321.821836 210.60852 
z
" clip-path="url(#pcb7cfac937)" style="fill: #1f77b4"/>
   </g>
   <g id="patch_102">
    <path d="M 323.007429 307.584 
L 323.952874 307.584 
L 323.952874 296.352561 
L 323.007429 296.352561 
z
" clip-path="url(#pcb7cfac937)" style="fill: #1f77b4"/>
   </g>
   <g id="patch_103">
    <path d="M 343.106754 307.584 
L 344.052199 307.584 
L 344.052199 297.273124 
L 343.106754 297.273124 
z
" clip-path="url(#pcb7cfac937)" style="fill: #1f77b4"/>
   </g>
   <g id="patch_104">
    <path d="M 344.293429 307.584 
L 345.238874 307.584 
L 345.238874 306.622432 
L 344.293429 306.622432 
z
" clip-path="url(#pcb7cfac937)" style="fill: #1f77b4"/>
   </g>
   <g id="patch_105">
    <path d="M 348.049797 307.584 
L 348.995242 307.584 
L 348.995242 307.199338 
L 348.049797 307.199338 
z
" clip-path="url(#pcb7cfac937)" style="fill: #1f77b4"/>
   </g>
   <g id="patch_106">
    <path d="M 375.071208 307.584 
L 376.016653 307.584 
L 376.016653 298.910844 
L 375.071208 298.910844 
z
" clip-path="url(#pcb7cfac937)" style="fill: #1f77b4"/>
   </g>
   <g id="patch_107">
    <path d="M 376.25727 307.584 
L 377.202715 307.584 
L 377.202715 306.244283 
L 376.25727 306.244283 
z
" clip-path="url(#pcb7cfac937)" style="fill: #1f77b4"/>
   </g>
   <g id="patch_108">
    <path d="M 396.262608 307.584 
L 397.208053 307.584 
L 397.208053 305.970236 
L 396.262608 305.970236 
z
" clip-path="url(#pcb7cfac937)" style="fill: #1f77b4"/>
   </g>
   <g id="patch_109">
    <path d="M 396.279955 307.584 
L 397.2254 307.584 
L 397.2254 306.414813 
L 396.279955 306.414813 
z
" clip-path="url(#pcb7cfac937)" style="fill: #1f77b4"/>
   </g>
   <g id="patch_110">
    <path d="M 396.356523 307.584 
L 397.301968 307.584 
L 397.301968 54.144 
L 396.356523 54.144 
z
" clip-path="url(#pcb7cfac937)" style="fill: #1f77b4"/>
   </g>
   <g id="patch_111">
    <path d="M 396.431684 307.584 
L 397.377129 307.584 
L 397.377129 306.179121 
L 396.431684 306.179121 
z
" clip-path="url(#pcb7cfac937)" style="fill: #1f77b4"/>
   </g>
   <g id="patch_112">
    <path d="M 396.45235 307.584 
L 397.397795 307.584 
L 397.397795 305.740445 
L 396.45235 305.740445 
z
" clip-path="url(#pcb7cfac937)" style="fill: #1f77b4"/>
   </g>
   <g id="patch_113">
    <path d="M 397.492309 307.584 
L 398.437754 307.584 
L 398.437754 306.976926 
L 397.492309 306.976926 
z
" clip-path="url(#pcb7cfac937)" style="fill: #1f77b4"/>
   </g>
   <g id="patch_114">
    <path d="M 397.541828 307.584 
L 398.487273 307.584 
L 398.487273 271.602903 
L 397.541828 271.602903 
z
" clip-path="url(#pcb7cfac937)" style="fill: #1f77b4"/>
   </g>
   <g id="matplotlib.axis_1">
    <g id="xtick_1">
     <g id="line2d_1">
      <defs>
       <path id="mb10ed7712d" d="M 0 0 
L 0 3.5 
" style="stroke: #000000; stroke-width: 0.8"/>
      </defs>
      <g>
       <use xlink:href="#mb10ed7712d" x="71.630566" y="307.584" style="stroke: #000000; stroke-width: 0.8"/>
      </g>
     </g>
     <g id="text_1">
      <!-- 50 -->
      <g transform="translate(65.268066 322.182437) scale(0.1 -0.1)">
       <defs>
        <path id="DejaVuSans-35" d="M 691 4666 
L 3169 4666 
L 3169 4134 
L 1269 4134 
L 1269 2991 
Q 1406 3038 1543 3061 
Q 1681 3084 1819 3084 
Q 2600 3084 3056 2656 
Q 3513 2228 3513 1497 
Q 3513 744 3044 326 
Q 2575 -91 1722 -91 
Q 1428 -91 1123 -41 
Q 819 9 494 109 
L 494 744 
Q 775 591 1075 516 
Q 1375 441 1709 441 
Q 2250 441 2565 725 
Q 2881 1009 2881 1497 
Q 2881 1984 2565 2268 
Q 2250 2553 1709 2553 
Q 1456 2553 1204 2497 
Q 953 2441 691 2322 
L 691 4666 
z
" transform="scale(0.015625)"/>
        <path id="DejaVuSans-30" d="M 2034 4250 
Q 1547 4250 1301 3770 
Q 1056 3291 1056 2328 
Q 1056 1369 1301 889 
Q 1547 409 2034 409 
Q 2525 409 2770 889 
Q 3016 1369 3016 2328 
Q 3016 3291 2770 3770 
Q 2525 4250 2034 4250 
z
M 2034 4750 
Q 2819 4750 3233 4129 
Q 3647 3509 3647 2328 
Q 3647 1150 3233 529 
Q 2819 -91 2034 -91 
Q 1250 -91 836 529 
Q 422 1150 422 2328 
Q 422 3509 836 4129 
Q 1250 4750 2034 4750 
z
" transform="scale(0.015625)"/>
       </defs>
       <use xlink:href="#DejaVuSans-35"/>
       <use xlink:href="#DejaVuSans-30" x="63.623047"/>
      </g>
     </g>
    </g>
    <g id="xtick_2">
     <g id="line2d_2">
      <g>
       <use xlink:href="#mb10ed7712d" x="130.720877" y="307.584" style="stroke: #000000; stroke-width: 0.8"/>
      </g>
     </g>
     <g id="text_2">
      <!-- 100 -->
      <g transform="translate(121.177127 322.182437) scale(0.1 -0.1)">
       <defs>
        <path id="DejaVuSans-31" d="M 794 531 
L 1825 531 
L 1825 4091 
L 703 3866 
L 703 4441 
L 1819 4666 
L 2450 4666 
L 2450 531 
L 3481 531 
L 3481 0 
L 794 0 
L 794 531 
z
" transform="scale(0.015625)"/>
       </defs>
       <use xlink:href="#DejaVuSans-31"/>
       <use xlink:href="#DejaVuSans-30" x="63.623047"/>
       <use xlink:href="#DejaVuSans-30" x="127.246094"/>
      </g>
     </g>
    </g>
    <g id="xtick_3">
     <g id="line2d_3">
      <g>
       <use xlink:href="#mb10ed7712d" x="189.811188" y="307.584" style="stroke: #000000; stroke-width: 0.8"/>
      </g>
     </g>
     <g id="text_3">
      <!-- 150 -->
      <g transform="translate(180.267438 322.182437) scale(0.1 -0.1)">
       <use xlink:href="#DejaVuSans-31"/>
       <use xlink:href="#DejaVuSans-35" x="63.623047"/>
       <use xlink:href="#DejaVuSans-30" x="127.246094"/>
      </g>
     </g>
    </g>
    <g id="xtick_4">
     <g id="line2d_4">
      <g>
       <use xlink:href="#mb10ed7712d" x="248.901499" y="307.584" style="stroke: #000000; stroke-width: 0.8"/>
      </g>
     </g>
     <g id="text_4">
      <!-- 200 -->
      <g transform="translate(239.357749 322.182437) scale(0.1 -0.1)">
       <defs>
        <path id="DejaVuSans-32" d="M 1228 531 
L 3431 531 
L 3431 0 
L 469 0 
L 469 531 
Q 828 903 1448 1529 
Q 2069 2156 2228 2338 
Q 2531 2678 2651 2914 
Q 2772 3150 2772 3378 
Q 2772 3750 2511 3984 
Q 2250 4219 1831 4219 
Q 1534 4219 1204 4116 
Q 875 4013 500 3803 
L 500 4441 
Q 881 4594 1212 4672 
Q 1544 4750 1819 4750 
Q 2544 4750 2975 4387 
Q 3406 4025 3406 3419 
Q 3406 3131 3298 2873 
Q 3191 2616 2906 2266 
Q 2828 2175 2409 1742 
Q 1991 1309 1228 531 
z
" transform="scale(0.015625)"/>
       </defs>
       <use xlink:href="#DejaVuSans-32"/>
       <use xlink:href="#DejaVuSans-30" x="63.623047"/>
       <use xlink:href="#DejaVuSans-30" x="127.246094"/>
      </g>
     </g>
    </g>
    <g id="xtick_5">
     <g id="line2d_5">
      <g>
       <use xlink:href="#mb10ed7712d" x="307.99181" y="307.584" style="stroke: #000000; stroke-width: 0.8"/>
      </g>
     </g>
     <g id="text_5">
      <!-- 250 -->
      <g transform="translate(298.44806 322.182437) scale(0.1 -0.1)">
       <use xlink:href="#DejaVuSans-32"/>
       <use xlink:href="#DejaVuSans-35" x="63.623047"/>
       <use xlink:href="#DejaVuSans-30" x="127.246094"/>
      </g>
     </g>
    </g>
    <g id="xtick_6">
     <g id="line2d_6">
      <g>
       <use xlink:href="#mb10ed7712d" x="367.082121" y="307.584" style="stroke: #000000; stroke-width: 0.8"/>
      </g>
     </g>
     <g id="text_6">
      <!-- 300 -->
      <g transform="translate(357.538371 322.182437) scale(0.1 -0.1)">
       <defs>
        <path id="DejaVuSans-33" d="M 2597 2516 
Q 3050 2419 3304 2112 
Q 3559 1806 3559 1356 
Q 3559 666 3084 287 
Q 2609 -91 1734 -91 
Q 1441 -91 1130 -33 
Q 819 25 488 141 
L 488 750 
Q 750 597 1062 519 
Q 1375 441 1716 441 
Q 2309 441 2620 675 
Q 2931 909 2931 1356 
Q 2931 1769 2642 2001 
Q 2353 2234 1838 2234 
L 1294 2234 
L 1294 2753 
L 1863 2753 
Q 2328 2753 2575 2939 
Q 2822 3125 2822 3475 
Q 2822 3834 2567 4026 
Q 2313 4219 1838 4219 
Q 1578 4219 1281 4162 
Q 984 4106 628 3988 
L 628 4550 
Q 988 4650 1302 4700 
Q 1616 4750 1894 4750 
Q 2613 4750 3031 4423 
Q 3450 4097 3450 3541 
Q 3450 3153 3228 2886 
Q 3006 2619 2597 2516 
z
" transform="scale(0.015625)"/>
       </defs>
       <use xlink:href="#DejaVuSans-33"/>
       <use xlink:href="#DejaVuSans-30" x="63.623047"/>
       <use xlink:href="#DejaVuSans-30" x="127.246094"/>
      </g>
     </g>
    </g>
    <g id="text_7">
     <!-- ${m/z}$ -->
     <g transform="translate(226.96 335.860562) scale(0.1 -0.1)">
      <defs>
       <path id="DejaVuSans-Oblique-6d" d="M 5747 2113 
L 5338 0 
L 4763 0 
L 5166 2094 
Q 5191 2228 5203 2325 
Q 5216 2422 5216 2491 
Q 5216 2772 5059 2928 
Q 4903 3084 4622 3084 
Q 4203 3084 3875 2770 
Q 3547 2456 3450 1953 
L 3066 0 
L 2491 0 
L 2900 2094 
Q 2925 2209 2937 2307 
Q 2950 2406 2950 2484 
Q 2950 2769 2794 2926 
Q 2638 3084 2363 3084 
Q 1938 3084 1609 2770 
Q 1281 2456 1184 1953 
L 800 0 
L 225 0 
L 909 3500 
L 1484 3500 
L 1375 2956 
Q 1609 3263 1923 3423 
Q 2238 3584 2597 3584 
Q 2978 3584 3223 3384 
Q 3469 3184 3519 2828 
Q 3781 3197 4126 3390 
Q 4472 3584 4856 3584 
Q 5306 3584 5551 3325 
Q 5797 3066 5797 2591 
Q 5797 2488 5784 2364 
Q 5772 2241 5747 2113 
z
" transform="scale(0.015625)"/>
       <path id="DejaVuSans-2f" d="M 1625 4666 
L 2156 4666 
L 531 -594 
L 0 -594 
L 1625 4666 
z
" transform="scale(0.015625)"/>
       <path id="DejaVuSans-Oblique-7a" d="M 744 3500 
L 3475 3500 
L 3372 2975 
L 738 459 
L 2913 459 
L 2822 0 
L -19 0 
L 84 525 
L 2719 3041 
L 653 3041 
L 744 3500 
z
" transform="scale(0.015625)"/>
      </defs>
      <use xlink:href="#DejaVuSans-Oblique-6d" transform="translate(0 0.09375)"/>
      <use xlink:href="#DejaVuSans-2f" transform="translate(97.412109 0.09375)"/>
      <use xlink:href="#DejaVuSans-Oblique-7a" transform="translate(131.103516 0.09375)"/>
     </g>
    </g>
   </g>
   <g id="matplotlib.axis_2">
    <g id="ytick_1">
     <g id="line2d_7">
      <defs>
       <path id="mff5b2769b5" d="M 0 0 
L -3.5 0 
" style="stroke: #000000; stroke-width: 0.8"/>
      </defs>
      <g>
       <use xlink:href="#mff5b2769b5" x="57.6" y="307.584" style="stroke: #000000; stroke-width: 0.8"/>
      </g>
     </g>
     <g id="text_8">
      <!-- 0 -->
      <g transform="translate(44.2375 311.383219) scale(0.1 -0.1)">
       <use xlink:href="#DejaVuSans-30"/>
      </g>
     </g>
    </g>
    <g id="ytick_2">
     <g id="line2d_8">
      <g>
       <use xlink:href="#mff5b2769b5" x="57.6" y="266.404442" style="stroke: #000000; stroke-width: 0.8"/>
      </g>
     </g>
     <g id="text_9">
      <!-- 1 -->
      <g transform="translate(44.2375 270.203661) scale(0.1 -0.1)">
       <use xlink:href="#DejaVuSans-31"/>
      </g>
     </g>
    </g>
    <g id="ytick_3">
     <g id="line2d_9">
      <g>
       <use xlink:href="#mff5b2769b5" x="57.6" y="225.224884" style="stroke: #000000; stroke-width: 0.8"/>
      </g>
     </g>
     <g id="text_10">
      <!-- 2 -->
      <g transform="translate(44.2375 229.024103) scale(0.1 -0.1)">
       <use xlink:href="#DejaVuSans-32"/>
      </g>
     </g>
    </g>
    <g id="ytick_4">
     <g id="line2d_10">
      <g>
       <use xlink:href="#mff5b2769b5" x="57.6" y="184.045327" style="stroke: #000000; stroke-width: 0.8"/>
      </g>
     </g>
     <g id="text_11">
      <!-- 3 -->
      <g transform="translate(44.2375 187.844545) scale(0.1 -0.1)">
       <use xlink:href="#DejaVuSans-33"/>
      </g>
     </g>
    </g>
    <g id="ytick_5">
     <g id="line2d_11">
      <g>
       <use xlink:href="#mff5b2769b5" x="57.6" y="142.865769" style="stroke: #000000; stroke-width: 0.8"/>
      </g>
     </g>
     <g id="text_12">
      <!-- 4 -->
      <g transform="translate(44.2375 146.664988) scale(0.1 -0.1)">
       <defs>
        <path id="DejaVuSans-34" d="M 2419 4116 
L 825 1625 
L 2419 1625 
L 2419 4116 
z
M 2253 4666 
L 3047 4666 
L 3047 1625 
L 3713 1625 
L 3713 1100 
L 3047 1100 
L 3047 0 
L 2419 0 
L 2419 1100 
L 313 1100 
L 313 1709 
L 2253 4666 
z
" transform="scale(0.015625)"/>
       </defs>
       <use xlink:href="#DejaVuSans-34"/>
      </g>
     </g>
    </g>
    <g id="ytick_6">
     <g id="line2d_12">
      <g>
       <use xlink:href="#mff5b2769b5" x="57.6" y="101.686211" style="stroke: #000000; stroke-width: 0.8"/>
      </g>
     </g>
     <g id="text_13">
      <!-- 5 -->
      <g transform="translate(44.2375 105.48543) scale(0.1 -0.1)">
       <use xlink:href="#DejaVuSans-35"/>
      </g>
     </g>
    </g>
    <g id="ytick_7">
     <g id="line2d_13">
      <g>
       <use xlink:href="#mff5b2769b5" x="57.6" y="60.506653" style="stroke: #000000; stroke-width: 0.8"/>
      </g>
     </g>
     <g id="text_14">
      <!-- 6 -->
      <g transform="translate(44.2375 64.305872) scale(0.1 -0.1)">
       <defs>
        <path id="DejaVuSans-36" d="M 2113 2584 
Q 1688 2584 1439 2293 
Q 1191 2003 1191 1497 
Q 1191 994 1439 701 
Q 1688 409 2113 409 
Q 2538 409 2786 701 
Q 3034 994 3034 1497 
Q 3034 2003 2786 2293 
Q 2538 2584 2113 2584 
z
M 3366 4563 
L 3366 3988 
Q 3128 4100 2886 4159 
Q 2644 4219 2406 4219 
Q 1781 4219 1451 3797 
Q 1122 3375 1075 2522 
Q 1259 2794 1537 2939 
Q 1816 3084 2150 3084 
Q 2853 3084 3261 2657 
Q 3669 2231 3669 1497 
Q 3669 778 3244 343 
Q 2819 -91 2113 -91 
Q 1303 -91 875 529 
Q 447 1150 447 2328 
Q 447 3434 972 4092 
Q 1497 4750 2381 4750 
Q 2619 4750 2861 4703 
Q 3103 4656 3366 4563 
z
" transform="scale(0.015625)"/>
       </defs>
       <use xlink:href="#DejaVuSans-36"/>
      </g>
     </g>
    </g>
    <g id="text_15">
     <!-- intensities -->
     <g transform="translate(38.157812 200.3155) rotate(-90) scale(0.1 -0.1)">
      <defs>
       <path id="DejaVuSans-69" d="M 603 3500 
L 1178 3500 
L 1178 0 
L 603 0 
L 603 3500 
z
M 603 4863 
L 1178 4863 
L 1178 4134 
L 603 4134 
L 603 4863 
z
" transform="scale(0.015625)"/>
       <path id="DejaVuSans-6e" d="M 3513 2113 
L 3513 0 
L 2938 0 
L 2938 2094 
Q 2938 2591 2744 2837 
Q 2550 3084 2163 3084 
Q 1697 3084 1428 2787 
Q 1159 2491 1159 1978 
L 1159 0 
L 581 0 
L 581 3500 
L 1159 3500 
L 1159 2956 
Q 1366 3272 1645 3428 
Q 1925 3584 2291 3584 
Q 2894 3584 3203 3211 
Q 3513 2838 3513 2113 
z
" transform="scale(0.015625)"/>
       <path id="DejaVuSans-74" d="M 1172 4494 
L 1172 3500 
L 2356 3500 
L 2356 3053 
L 1172 3053 
L 1172 1153 
Q 1172 725 1289 603 
Q 1406 481 1766 481 
L 2356 481 
L 2356 0 
L 1766 0 
Q 1100 0 847 248 
Q 594 497 594 1153 
L 594 3053 
L 172 3053 
L 172 3500 
L 594 3500 
L 594 4494 
L 1172 4494 
z
" transform="scale(0.015625)"/>
       <path id="DejaVuSans-65" d="M 3597 1894 
L 3597 1613 
L 953 1613 
Q 991 1019 1311 708 
Q 1631 397 2203 397 
Q 2534 397 2845 478 
Q 3156 559 3463 722 
L 3463 178 
Q 3153 47 2828 -22 
Q 2503 -91 2169 -91 
Q 1331 -91 842 396 
Q 353 884 353 1716 
Q 353 2575 817 3079 
Q 1281 3584 2069 3584 
Q 2775 3584 3186 3129 
Q 3597 2675 3597 1894 
z
M 3022 2063 
Q 3016 2534 2758 2815 
Q 2500 3097 2075 3097 
Q 1594 3097 1305 2825 
Q 1016 2553 972 2059 
L 3022 2063 
z
" transform="scale(0.015625)"/>
       <path id="DejaVuSans-73" d="M 2834 3397 
L 2834 2853 
Q 2591 2978 2328 3040 
Q 2066 3103 1784 3103 
Q 1356 3103 1142 2972 
Q 928 2841 928 2578 
Q 928 2378 1081 2264 
Q 1234 2150 1697 2047 
L 1894 2003 
Q 2506 1872 2764 1633 
Q 3022 1394 3022 966 
Q 3022 478 2636 193 
Q 2250 -91 1575 -91 
Q 1294 -91 989 -36 
Q 684 19 347 128 
L 347 722 
Q 666 556 975 473 
Q 1284 391 1588 391 
Q 1994 391 2212 530 
Q 2431 669 2431 922 
Q 2431 1156 2273 1281 
Q 2116 1406 1581 1522 
L 1381 1569 
Q 847 1681 609 1914 
Q 372 2147 372 2553 
Q 372 3047 722 3315 
Q 1072 3584 1716 3584 
Q 2034 3584 2315 3537 
Q 2597 3491 2834 3397 
z
" transform="scale(0.015625)"/>
      </defs>
      <use xlink:href="#DejaVuSans-69"/>
      <use xlink:href="#DejaVuSans-6e" x="27.783203"/>
      <use xlink:href="#DejaVuSans-74" x="91.162109"/>
      <use xlink:href="#DejaVuSans-65" x="130.371094"/>
      <use xlink:href="#DejaVuSans-6e" x="191.894531"/>
      <use xlink:href="#DejaVuSans-73" x="255.273438"/>
      <use xlink:href="#DejaVuSans-69" x="307.373047"/>
      <use xlink:href="#DejaVuSans-74" x="335.15625"/>
      <use xlink:href="#DejaVuSans-69" x="374.365234"/>
      <use xlink:href="#DejaVuSans-65" x="402.148438"/>
      <use xlink:href="#DejaVuSans-73" x="463.671875"/>
     </g>
    </g>
    <g id="text_16">
     <!-- 1e6 -->
     <g transform="translate(57.6 38.472) scale(0.1 -0.1)">
      <use xlink:href="#DejaVuSans-31"/>
      <use xlink:href="#DejaVuSans-65" x="63.623047"/>
      <use xlink:href="#DejaVuSans-36" x="125.146484"/>
     </g>
    </g>
   </g>
   <g id="patch_115">
    <path d="M 57.6 307.584 
L 57.6 41.472 
" style="fill: none; stroke: #000000; stroke-width: 0.8; stroke-linejoin: miter; stroke-linecap: square"/>
   </g>
   <g id="patch_116">
    <path d="M 414.72 307.584 
L 414.72 41.472 
" style="fill: none; stroke: #000000; stroke-width: 0.8; stroke-linejoin: miter; stroke-linecap: square"/>
   </g>
   <g id="patch_117">
    <path d="M 57.6 307.584 
L 414.72 307.584 
" style="fill: none; stroke: #000000; stroke-width: 0.8; stroke-linejoin: miter; stroke-linecap: square"/>
   </g>
   <g id="patch_118">
    <path d="M 57.6 41.472 
L 414.72 41.472 
" style="fill: none; stroke: #000000; stroke-width: 0.8; stroke-linejoin: miter; stroke-linecap: square"/>
   </g>
   <g id="text_17">
    <!-- 109.0453 -->
    <g transform="translate(127.815977 53.338025) scale(0.06 -0.06)">
     <defs>
      <path id="DejaVuSans-39" d="M 703 97 
L 703 672 
Q 941 559 1184 500 
Q 1428 441 1663 441 
Q 2288 441 2617 861 
Q 2947 1281 2994 2138 
Q 2813 1869 2534 1725 
Q 2256 1581 1919 1581 
Q 1219 1581 811 2004 
Q 403 2428 403 3163 
Q 403 3881 828 4315 
Q 1253 4750 1959 4750 
Q 2769 4750 3195 4129 
Q 3622 3509 3622 2328 
Q 3622 1225 3098 567 
Q 2575 -91 1691 -91 
Q 1453 -91 1209 -44 
Q 966 3 703 97 
z
M 1959 2075 
Q 2384 2075 2632 2365 
Q 2881 2656 2881 3163 
Q 2881 3666 2632 3958 
Q 2384 4250 1959 4250 
Q 1534 4250 1286 3958 
Q 1038 3666 1038 3163 
Q 1038 2656 1286 2365 
Q 1534 2075 1959 2075 
z
" transform="scale(0.015625)"/>
      <path id="DejaVuSans-2e" d="M 684 794 
L 1344 794 
L 1344 0 
L 684 0 
L 684 794 
z
" transform="scale(0.015625)"/>
     </defs>
     <use xlink:href="#DejaVuSans-31"/>
     <use xlink:href="#DejaVuSans-30" x="63.623047"/>
     <use xlink:href="#DejaVuSans-39" x="127.246094"/>
     <use xlink:href="#DejaVuSans-2e" x="190.869141"/>
     <use xlink:href="#DejaVuSans-30" x="222.65625"/>
     <use xlink:href="#DejaVuSans-34" x="286.279297"/>
     <use xlink:href="#DejaVuSans-35" x="349.902344"/>
     <use xlink:href="#DejaVuSans-33" x="413.525391"/>
    </g>
   </g>
   <g id="text_18">
    <!-- 116.0497 -->
    <g transform="translate(136.093841 266.580626) scale(0.06 -0.06)">
     <defs>
      <path id="DejaVuSans-37" d="M 525 4666 
L 3525 4666 
L 3525 4397 
L 1831 0 
L 1172 0 
L 2766 4134 
L 525 4134 
L 525 4666 
z
" transform="scale(0.015625)"/>
     </defs>
     <use xlink:href="#DejaVuSans-31"/>
     <use xlink:href="#DejaVuSans-31" x="63.623047"/>
     <use xlink:href="#DejaVuSans-36" x="127.246094"/>
     <use xlink:href="#DejaVuSans-2e" x="190.869141"/>
     <use xlink:href="#DejaVuSans-30" x="222.65625"/>
     <use xlink:href="#DejaVuSans-34" x="286.279297"/>
     <use xlink:href="#DejaVuSans-39" x="349.902344"/>
     <use xlink:href="#DejaVuSans-37" x="413.525391"/>
    </g>
   </g>
   <g id="text_19">
    <!-- 234.0711 -->
    <g transform="translate(275.572203 271.12052) scale(0.06 -0.06)">
     <use xlink:href="#DejaVuSans-32"/>
     <use xlink:href="#DejaVuSans-33" x="63.623047"/>
     <use xlink:href="#DejaVuSans-34" x="127.246094"/>
     <use xlink:href="#DejaVuSans-2e" x="190.869141"/>
     <use xlink:href="#DejaVuSans-30" x="222.65625"/>
     <use xlink:href="#DejaVuSans-37" x="286.279297"/>
     <use xlink:href="#DejaVuSans-31" x="349.902344"/>
     <use xlink:href="#DejaVuSans-31" x="413.525391"/>
    </g>
   </g>
   <g id="text_20">
    <!-- 262.1024 -->
    <g transform="translate(308.699871 207.404145) scale(0.06 -0.06)">
     <use xlink:href="#DejaVuSans-32"/>
     <use xlink:href="#DejaVuSans-36" x="63.623047"/>
     <use xlink:href="#DejaVuSans-32" x="127.246094"/>
     <use xlink:href="#DejaVuSans-2e" x="190.869141"/>
     <use xlink:href="#DejaVuSans-31" x="222.65625"/>
     <use xlink:href="#DejaVuSans-30" x="286.279297"/>
     <use xlink:href="#DejaVuSans-32" x="349.902344"/>
     <use xlink:href="#DejaVuSans-34" x="413.525391"/>
    </g>
   </g>
   <g id="text_21">
    <!-- 325.1709 -->
    <g transform="translate(383.234558 50.939625) scale(0.06 -0.06)">
     <use xlink:href="#DejaVuSans-33"/>
     <use xlink:href="#DejaVuSans-32" x="63.623047"/>
     <use xlink:href="#DejaVuSans-35" x="127.246094"/>
     <use xlink:href="#DejaVuSans-2e" x="190.869141"/>
     <use xlink:href="#DejaVuSans-31" x="222.65625"/>
     <use xlink:href="#DejaVuSans-37" x="286.279297"/>
     <use xlink:href="#DejaVuSans-30" x="349.902344"/>
     <use xlink:href="#DejaVuSans-39" x="413.525391"/>
    </g>
   </g>
   <g id="text_22">
    <!-- 326.1739 -->
    <g transform="translate(384.419863 268.398528) scale(0.06 -0.06)">
     <use xlink:href="#DejaVuSans-33"/>
     <use xlink:href="#DejaVuSans-32" x="63.623047"/>
     <use xlink:href="#DejaVuSans-36" x="127.246094"/>
     <use xlink:href="#DejaVuSans-2e" x="190.869141"/>
     <use xlink:href="#DejaVuSans-31" x="222.65625"/>
     <use xlink:href="#DejaVuSans-37" x="286.279297"/>
     <use xlink:href="#DejaVuSans-33" x="349.902344"/>
     <use xlink:href="#DejaVuSans-39" x="413.525391"/>
    </g>
   </g>
   <g id="text_23">
    <!-- MS2 spectrum of ${m/z}$ 325.17, scan time 6.39 min. -->
    <g transform="translate(57.6 24.873562) scale(0.12 -0.12)">
     <defs>
      <path id="DejaVuSans-4d" d="M 628 4666 
L 1569 4666 
L 2759 1491 
L 3956 4666 
L 4897 4666 
L 4897 0 
L 4281 0 
L 4281 4097 
L 3078 897 
L 2444 897 
L 1241 4097 
L 1241 0 
L 628 0 
L 628 4666 
z
" transform="scale(0.015625)"/>
      <path id="DejaVuSans-53" d="M 3425 4513 
L 3425 3897 
Q 3066 4069 2747 4153 
Q 2428 4238 2131 4238 
Q 1616 4238 1336 4038 
Q 1056 3838 1056 3469 
Q 1056 3159 1242 3001 
Q 1428 2844 1947 2747 
L 2328 2669 
Q 3034 2534 3370 2195 
Q 3706 1856 3706 1288 
Q 3706 609 3251 259 
Q 2797 -91 1919 -91 
Q 1588 -91 1214 -16 
Q 841 59 441 206 
L 441 856 
Q 825 641 1194 531 
Q 1563 422 1919 422 
Q 2459 422 2753 634 
Q 3047 847 3047 1241 
Q 3047 1584 2836 1778 
Q 2625 1972 2144 2069 
L 1759 2144 
Q 1053 2284 737 2584 
Q 422 2884 422 3419 
Q 422 4038 858 4394 
Q 1294 4750 2059 4750 
Q 2388 4750 2728 4690 
Q 3069 4631 3425 4513 
z
" transform="scale(0.015625)"/>
      <path id="DejaVuSans-20" transform="scale(0.015625)"/>
      <path id="DejaVuSans-70" d="M 1159 525 
L 1159 -1331 
L 581 -1331 
L 581 3500 
L 1159 3500 
L 1159 2969 
Q 1341 3281 1617 3432 
Q 1894 3584 2278 3584 
Q 2916 3584 3314 3078 
Q 3713 2572 3713 1747 
Q 3713 922 3314 415 
Q 2916 -91 2278 -91 
Q 1894 -91 1617 61 
Q 1341 213 1159 525 
z
M 3116 1747 
Q 3116 2381 2855 2742 
Q 2594 3103 2138 3103 
Q 1681 3103 1420 2742 
Q 1159 2381 1159 1747 
Q 1159 1113 1420 752 
Q 1681 391 2138 391 
Q 2594 391 2855 752 
Q 3116 1113 3116 1747 
z
" transform="scale(0.015625)"/>
      <path id="DejaVuSans-63" d="M 3122 3366 
L 3122 2828 
Q 2878 2963 2633 3030 
Q 2388 3097 2138 3097 
Q 1578 3097 1268 2742 
Q 959 2388 959 1747 
Q 959 1106 1268 751 
Q 1578 397 2138 397 
Q 2388 397 2633 464 
Q 2878 531 3122 666 
L 3122 134 
Q 2881 22 2623 -34 
Q 2366 -91 2075 -91 
Q 1284 -91 818 406 
Q 353 903 353 1747 
Q 353 2603 823 3093 
Q 1294 3584 2113 3584 
Q 2378 3584 2631 3529 
Q 2884 3475 3122 3366 
z
" transform="scale(0.015625)"/>
      <path id="DejaVuSans-72" d="M 2631 2963 
Q 2534 3019 2420 3045 
Q 2306 3072 2169 3072 
Q 1681 3072 1420 2755 
Q 1159 2438 1159 1844 
L 1159 0 
L 581 0 
L 581 3500 
L 1159 3500 
L 1159 2956 
Q 1341 3275 1631 3429 
Q 1922 3584 2338 3584 
Q 2397 3584 2469 3576 
Q 2541 3569 2628 3553 
L 2631 2963 
z
" transform="scale(0.015625)"/>
      <path id="DejaVuSans-75" d="M 544 1381 
L 544 3500 
L 1119 3500 
L 1119 1403 
Q 1119 906 1312 657 
Q 1506 409 1894 409 
Q 2359 409 2629 706 
Q 2900 1003 2900 1516 
L 2900 3500 
L 3475 3500 
L 3475 0 
L 2900 0 
L 2900 538 
Q 2691 219 2414 64 
Q 2138 -91 1772 -91 
Q 1169 -91 856 284 
Q 544 659 544 1381 
z
M 1991 3584 
L 1991 3584 
z
" transform="scale(0.015625)"/>
      <path id="DejaVuSans-6d" d="M 3328 2828 
Q 3544 3216 3844 3400 
Q 4144 3584 4550 3584 
Q 5097 3584 5394 3201 
Q 5691 2819 5691 2113 
L 5691 0 
L 5113 0 
L 5113 2094 
Q 5113 2597 4934 2840 
Q 4756 3084 4391 3084 
Q 3944 3084 3684 2787 
Q 3425 2491 3425 1978 
L 3425 0 
L 2847 0 
L 2847 2094 
Q 2847 2600 2669 2842 
Q 2491 3084 2119 3084 
Q 1678 3084 1418 2786 
Q 1159 2488 1159 1978 
L 1159 0 
L 581 0 
L 581 3500 
L 1159 3500 
L 1159 2956 
Q 1356 3278 1631 3431 
Q 1906 3584 2284 3584 
Q 2666 3584 2933 3390 
Q 3200 3197 3328 2828 
z
" transform="scale(0.015625)"/>
      <path id="DejaVuSans-6f" d="M 1959 3097 
Q 1497 3097 1228 2736 
Q 959 2375 959 1747 
Q 959 1119 1226 758 
Q 1494 397 1959 397 
Q 2419 397 2687 759 
Q 2956 1122 2956 1747 
Q 2956 2369 2687 2733 
Q 2419 3097 1959 3097 
z
M 1959 3584 
Q 2709 3584 3137 3096 
Q 3566 2609 3566 1747 
Q 3566 888 3137 398 
Q 2709 -91 1959 -91 
Q 1206 -91 779 398 
Q 353 888 353 1747 
Q 353 2609 779 3096 
Q 1206 3584 1959 3584 
z
" transform="scale(0.015625)"/>
      <path id="DejaVuSans-66" d="M 2375 4863 
L 2375 4384 
L 1825 4384 
Q 1516 4384 1395 4259 
Q 1275 4134 1275 3809 
L 1275 3500 
L 2222 3500 
L 2222 3053 
L 1275 3053 
L 1275 0 
L 697 0 
L 697 3053 
L 147 3053 
L 147 3500 
L 697 3500 
L 697 3744 
Q 697 4328 969 4595 
Q 1241 4863 1831 4863 
L 2375 4863 
z
" transform="scale(0.015625)"/>
      <path id="DejaVuSans-2c" d="M 750 794 
L 1409 794 
L 1409 256 
L 897 -744 
L 494 -744 
L 750 256 
L 750 794 
z
" transform="scale(0.015625)"/>
      <path id="DejaVuSans-61" d="M 2194 1759 
Q 1497 1759 1228 1600 
Q 959 1441 959 1056 
Q 959 750 1161 570 
Q 1363 391 1709 391 
Q 2188 391 2477 730 
Q 2766 1069 2766 1631 
L 2766 1759 
L 2194 1759 
z
M 3341 1997 
L 3341 0 
L 2766 0 
L 2766 531 
Q 2569 213 2275 61 
Q 1981 -91 1556 -91 
Q 1019 -91 701 211 
Q 384 513 384 1019 
Q 384 1609 779 1909 
Q 1175 2209 1959 2209 
L 2766 2209 
L 2766 2266 
Q 2766 2663 2505 2880 
Q 2244 3097 1772 3097 
Q 1472 3097 1187 3025 
Q 903 2953 641 2809 
L 641 3341 
Q 956 3463 1253 3523 
Q 1550 3584 1831 3584 
Q 2591 3584 2966 3190 
Q 3341 2797 3341 1997 
z
" transform="scale(0.015625)"/>
     </defs>
     <use xlink:href="#DejaVuSans-4d" transform="translate(0 0.015625)"/>
     <use xlink:href="#DejaVuSans-53" transform="translate(86.279297 0.015625)"/>
     <use xlink:href="#DejaVuSans-32" transform="translate(149.755859 0.015625)"/>
     <use xlink:href="#DejaVuSans-20" transform="translate(213.378906 0.015625)"/>
     <use xlink:href="#DejaVuSans-73" transform="translate(245.166016 0.015625)"/>
     <use xlink:href="#DejaVuSans-70" transform="translate(297.265625 0.015625)"/>
     <use xlink:href="#DejaVuSans-65" transform="translate(360.742188 0.015625)"/>
     <use xlink:href="#DejaVuSans-63" transform="translate(422.265625 0.015625)"/>
     <use xlink:href="#DejaVuSans-74" transform="translate(477.246094 0.015625)"/>
     <use xlink:href="#DejaVuSans-72" transform="translate(516.455078 0.015625)"/>
     <use xlink:href="#DejaVuSans-75" transform="translate(557.568359 0.015625)"/>
     <use xlink:href="#DejaVuSans-6d" transform="translate(620.947266 0.015625)"/>
     <use xlink:href="#DejaVuSans-20" transform="translate(718.359375 0.015625)"/>
     <use xlink:href="#DejaVuSans-6f" transform="translate(750.146484 0.015625)"/>
     <use xlink:href="#DejaVuSans-66" transform="translate(811.328125 0.015625)"/>
     <use xlink:href="#DejaVuSans-20" transform="translate(846.533203 0.015625)"/>
     <use xlink:href="#DejaVuSans-Oblique-6d" transform="translate(878.320312 0.015625)"/>
     <use xlink:href="#DejaVuSans-2f" transform="translate(975.732422 0.015625)"/>
     <use xlink:href="#DejaVuSans-Oblique-7a" transform="translate(1009.423828 0.015625)"/>
     <use xlink:href="#DejaVuSans-20" transform="translate(1061.914062 0.015625)"/>
     <use xlink:href="#DejaVuSans-33" transform="translate(1093.701172 0.015625)"/>
     <use xlink:href="#DejaVuSans-32" transform="translate(1157.324219 0.015625)"/>
     <use xlink:href="#DejaVuSans-35" transform="translate(1220.947266 0.015625)"/>
     <use xlink:href="#DejaVuSans-2e" transform="translate(1284.570312 0.015625)"/>
     <use xlink:href="#DejaVuSans-31" transform="translate(1316.357422 0.015625)"/>
     <use xlink:href="#DejaVuSans-37" transform="translate(1379.980469 0.015625)"/>
     <use xlink:href="#DejaVuSans-2c" transform="translate(1443.603516 0.015625)"/>
     <use xlink:href="#DejaVuSans-20" transform="translate(1475.390625 0.015625)"/>
     <use xlink:href="#DejaVuSans-73" transform="translate(1507.177734 0.015625)"/>
     <use xlink:href="#DejaVuSans-63" transform="translate(1559.277344 0.015625)"/>
     <use xlink:href="#DejaVuSans-61" transform="translate(1614.257812 0.015625)"/>
     <use xlink:href="#DejaVuSans-6e" transform="translate(1675.537109 0.015625)"/>
     <use xlink:href="#DejaVuSans-20" transform="translate(1738.916016 0.015625)"/>
     <use xlink:href="#DejaVuSans-74" transform="translate(1770.703125 0.015625)"/>
     <use xlink:href="#DejaVuSans-69" transform="translate(1809.912109 0.015625)"/>
     <use xlink:href="#DejaVuSans-6d" transform="translate(1837.695312 0.015625)"/>
     <use xlink:href="#DejaVuSans-65" transform="translate(1935.107422 0.015625)"/>
     <use xlink:href="#DejaVuSans-20" transform="translate(1996.630859 0.015625)"/>
     <use xlink:href="#DejaVuSans-36" transform="translate(2028.417969 0.015625)"/>
     <use xlink:href="#DejaVuSans-2e" transform="translate(2092.041016 0.015625)"/>
     <use xlink:href="#DejaVuSans-33" transform="translate(2123.828125 0.015625)"/>
     <use xlink:href="#DejaVuSans-39" transform="translate(2187.451172 0.015625)"/>
     <use xlink:href="#DejaVuSans-20" transform="translate(2251.074219 0.015625)"/>
     <use xlink:href="#DejaVuSans-6d" transform="translate(2282.861328 0.015625)"/>
     <use xlink:href="#DejaVuSans-69" transform="translate(2380.273438 0.015625)"/>
     <use xlink:href="#DejaVuSans-6e" transform="translate(2408.056641 0.015625)"/>
     <use xlink:href="#DejaVuSans-2e" transform="translate(2471.435547 0.015625)"/>
    </g>
   </g>
  </g>
 </g>
 <defs>
  <clipPath id="pcb7cfac937">
   <rect x="57.6" y="41.472" width="357.12" height="266.112"/>
  </clipPath>
 </defs>
</svg>
